G04 #@! TF.FileFunction,Copper,L1,Top,Signal*
%FSLAX46Y46*%
G04 Gerber Fmt 4.6, Leading zero omitted, Abs format (unit mm)*
G04 Created by KiCad (PCBNEW (2014-11-17 BZR 5289)-product) date Sat 29 Aug 2015 07:35:18 PM EDT*
%MOMM*%
G01*
G04 APERTURE LIST*
%ADD10C,0.100000*%
%ADD11R,1.450000X0.450000*%
%ADD12R,0.910000X1.220000*%
%ADD13R,1.700000X0.900000*%
%ADD14R,1.350000X6.000000*%
%ADD15R,0.700000X1.300000*%
%ADD16R,1.600200X2.600960*%
%ADD17R,1.143000X0.508000*%
%ADD18R,1.000000X1.250000*%
%ADD19R,2.000000X2.794000*%
%ADD20R,2.794000X2.000000*%
%ADD21C,1.998980*%
%ADD22C,3.000000*%
%ADD23R,3.300000X1.000000*%
%ADD24R,1.000000X3.300000*%
%ADD25R,1.000000X5.100000*%
%ADD26R,5.100000X1.000000*%
%ADD27R,1.000000X2.600000*%
%ADD28R,2.600000X1.000000*%
%ADD29R,1.500000X1.300000*%
%ADD30R,1.300000X1.500000*%
%ADD31C,0.889000*%
%ADD32C,0.400000*%
%ADD33C,0.254000*%
%ADD34C,0.500000*%
G04 APERTURE END LIST*
D10*
D11*
X158700000Y-125125000D03*
X158700000Y-125775000D03*
X158700000Y-126425000D03*
X158700000Y-127075000D03*
X163100000Y-127075000D03*
X163100000Y-126425000D03*
X163100000Y-125775000D03*
X163100000Y-125125000D03*
D12*
X164765000Y-127100000D03*
X168035000Y-127100000D03*
D13*
X155100000Y-125350000D03*
X155100000Y-128250000D03*
D14*
X158860000Y-131500000D03*
X163000000Y-131500000D03*
D15*
X157050000Y-123200000D03*
X158950000Y-123200000D03*
X162750000Y-123200000D03*
X160850000Y-123200000D03*
X160850000Y-121100000D03*
X162750000Y-121100000D03*
D16*
X156400000Y-136699140D03*
X156400000Y-140300860D03*
D17*
X166575000Y-136295000D03*
X166575000Y-137565000D03*
X166575000Y-138835000D03*
X166575000Y-140105000D03*
X160225000Y-140105000D03*
X160225000Y-138835000D03*
X160225000Y-137565000D03*
X160225000Y-136295000D03*
D18*
X158800000Y-121100000D03*
X156800000Y-121100000D03*
D16*
X170800000Y-140500860D03*
X170800000Y-136899140D03*
D19*
X166600000Y-133200000D03*
X170600000Y-133200000D03*
D20*
X170500000Y-124900000D03*
X170500000Y-128900000D03*
D21*
X185000000Y-141000000D03*
D22*
X187700020Y-143700020D03*
X187700020Y-138299980D03*
X182299980Y-138299980D03*
X182299980Y-143700020D03*
D21*
X185000000Y-130500000D03*
D22*
X187700020Y-133200020D03*
X187700020Y-127799980D03*
X182299980Y-127799980D03*
X182299980Y-133200020D03*
D21*
X185000000Y-120000000D03*
D22*
X187700020Y-122700020D03*
X187700020Y-117299980D03*
X182299980Y-117299980D03*
X182299980Y-122700020D03*
D23*
X153570000Y-143200000D03*
X176430000Y-143200000D03*
X176430000Y-117800000D03*
X153570000Y-117800000D03*
D24*
X177700000Y-119070000D03*
X177700000Y-141930000D03*
X152300000Y-141930000D03*
X152300000Y-119070000D03*
D25*
X152300000Y-130500000D03*
X177700000Y-130500000D03*
D26*
X165000000Y-117800000D03*
X165000000Y-143200000D03*
D27*
X177700000Y-119070000D03*
X177700000Y-141930000D03*
X152300000Y-136850000D03*
X152300000Y-124150000D03*
D28*
X158650000Y-143200000D03*
X158650000Y-117800000D03*
X171350000Y-117800000D03*
X171350000Y-143200000D03*
D29*
X172450000Y-120100000D03*
X175150000Y-120100000D03*
D30*
X174700000Y-132150000D03*
X174700000Y-129450000D03*
D31*
X176500000Y-126600000D03*
D32*
X160225000Y-137565000D02*
X157265860Y-137565000D01*
X157265860Y-137565000D02*
X156400000Y-136699140D01*
X160225000Y-140105000D02*
X156595860Y-140105000D01*
X156595860Y-140105000D02*
X156400000Y-140300860D01*
D33*
X160225000Y-140105000D02*
X160029140Y-140300860D01*
X156400000Y-140300860D02*
X156595860Y-140105000D01*
D32*
X158860000Y-131500000D02*
X158860000Y-129460000D01*
X158860000Y-129460000D02*
X157100000Y-127700000D01*
X157100000Y-127700000D02*
X157100000Y-126425000D01*
X158700000Y-126425000D02*
X162450000Y-126425000D01*
X162450000Y-126425000D02*
X163100000Y-125775000D01*
X163100000Y-125775000D02*
X163100000Y-126425000D01*
X158700000Y-126425000D02*
X157100000Y-126425000D01*
X157100000Y-126425000D02*
X156175000Y-126425000D01*
X156175000Y-126425000D02*
X155100000Y-125350000D01*
D34*
X172450000Y-120100000D02*
X166100000Y-120100000D01*
X155100000Y-120100000D02*
X155100000Y-125350000D01*
X156000000Y-119200000D02*
X155100000Y-120100000D01*
X165200000Y-119200000D02*
X156000000Y-119200000D01*
X166100000Y-120100000D02*
X165200000Y-119200000D01*
D33*
X158950000Y-123200000D02*
X158950000Y-121250000D01*
X158950000Y-121250000D02*
X158800000Y-121100000D01*
D32*
X170500000Y-124900000D02*
X168800000Y-123200000D01*
X168800000Y-123200000D02*
X162750000Y-123200000D01*
X168035000Y-127100000D02*
X167600000Y-127535000D01*
X167600000Y-127535000D02*
X167600000Y-130800000D01*
X174700000Y-132150000D02*
X173450000Y-132150000D01*
X166600000Y-131800000D02*
X166600000Y-133200000D01*
X167600000Y-130800000D02*
X166600000Y-131800000D01*
X172100000Y-130800000D02*
X167600000Y-130800000D01*
X173450000Y-132150000D02*
X172100000Y-130800000D01*
X166575000Y-136295000D02*
X166575000Y-133225000D01*
X166575000Y-133225000D02*
X166600000Y-133200000D01*
X185000000Y-130500000D02*
X185000000Y-125500000D01*
X184400000Y-124900000D02*
X170500000Y-124900000D01*
X185000000Y-125500000D02*
X184400000Y-124900000D01*
X170500000Y-124900000D02*
X170800000Y-124600000D01*
X168035000Y-127100000D02*
X170235000Y-124900000D01*
X170235000Y-124900000D02*
X170500000Y-124900000D01*
X163100000Y-127075000D02*
X163100000Y-131400000D01*
X163100000Y-131400000D02*
X163000000Y-131500000D01*
X164765000Y-127100000D02*
X163125000Y-127100000D01*
X163125000Y-127100000D02*
X163100000Y-127075000D01*
D33*
X157050000Y-123200000D02*
X157050000Y-123675000D01*
X157050000Y-123675000D02*
X158700000Y-125125000D01*
X160850000Y-123200000D02*
X160850000Y-125050000D01*
X160125000Y-125775000D02*
X158700000Y-125775000D01*
X160850000Y-125050000D02*
X160125000Y-125775000D01*
X160850000Y-121100000D02*
X160850000Y-123200000D01*
D32*
X170800000Y-136899140D02*
X167594140Y-140105000D01*
X167594140Y-140105000D02*
X166575000Y-140105000D01*
X185000000Y-141000000D02*
X181100000Y-141000000D01*
X176999140Y-136899140D02*
X170800000Y-136899140D01*
X181100000Y-141000000D02*
X176999140Y-136899140D01*
X175150000Y-120100000D02*
X177050000Y-122000000D01*
X177050000Y-122000000D02*
X178500000Y-122000000D01*
X178500000Y-122000000D02*
X180500000Y-120000000D01*
X180500000Y-120000000D02*
X185000000Y-120000000D01*
X174700000Y-129450000D02*
X174700000Y-128400000D01*
X174700000Y-128400000D02*
X176500000Y-126600000D01*
D33*
G36*
X189873000Y-145873000D02*
X189589381Y-145873000D01*
X189589381Y-138247115D01*
X189589381Y-127747115D01*
X189589381Y-117247115D01*
X189542764Y-116879535D01*
X189425331Y-116528112D01*
X189300336Y-116294263D01*
X189055793Y-116123813D01*
X188876187Y-116303418D01*
X188876187Y-115944207D01*
X188705737Y-115699664D01*
X188374206Y-115534208D01*
X188016767Y-115436609D01*
X187647155Y-115410619D01*
X187279575Y-115457236D01*
X186928152Y-115574669D01*
X186694303Y-115699664D01*
X186523853Y-115944207D01*
X187700020Y-117120375D01*
X188876187Y-115944207D01*
X188876187Y-116303418D01*
X187879625Y-117299980D01*
X189055793Y-118476147D01*
X189300336Y-118305697D01*
X189465792Y-117974166D01*
X189563391Y-117616727D01*
X189589381Y-117247115D01*
X189589381Y-127747115D01*
X189581100Y-127681818D01*
X189581100Y-122515578D01*
X189509451Y-122153721D01*
X189368880Y-121812671D01*
X189164743Y-121505421D01*
X188904816Y-121243672D01*
X188876187Y-121224361D01*
X188876187Y-118655753D01*
X187700020Y-117479585D01*
X187520415Y-117659190D01*
X187520415Y-117299980D01*
X186344247Y-116123813D01*
X186099704Y-116294263D01*
X185934248Y-116625794D01*
X185836649Y-116983233D01*
X185810659Y-117352845D01*
X185857276Y-117720425D01*
X185974709Y-118071848D01*
X186099704Y-118305697D01*
X186344247Y-118476147D01*
X187520415Y-117299980D01*
X187520415Y-117659190D01*
X186523853Y-118655753D01*
X186694303Y-118900296D01*
X187025834Y-119065752D01*
X187383273Y-119163351D01*
X187752885Y-119189341D01*
X188120465Y-119142724D01*
X188471888Y-119025291D01*
X188705737Y-118900296D01*
X188876187Y-118655753D01*
X188876187Y-121224361D01*
X188598998Y-121037395D01*
X188258938Y-120894447D01*
X187897589Y-120820273D01*
X187528715Y-120817698D01*
X187166366Y-120886820D01*
X186824344Y-121025006D01*
X186515676Y-121226993D01*
X186380550Y-121359317D01*
X186380550Y-119864636D01*
X186327965Y-119599064D01*
X186224798Y-119348763D01*
X186074980Y-119123268D01*
X185884215Y-118931167D01*
X185659772Y-118779778D01*
X185410197Y-118674867D01*
X185144999Y-118620429D01*
X184874277Y-118618539D01*
X184608344Y-118669268D01*
X184357330Y-118770685D01*
X184181060Y-118886032D01*
X184181060Y-117115538D01*
X184109411Y-116753681D01*
X183968840Y-116412631D01*
X183764703Y-116105381D01*
X183504776Y-115843632D01*
X183198958Y-115637355D01*
X182858898Y-115494407D01*
X182497549Y-115420233D01*
X182128675Y-115417658D01*
X181766326Y-115486780D01*
X181424304Y-115624966D01*
X181115636Y-115826953D01*
X180852079Y-116085046D01*
X180643672Y-116389417D01*
X180498353Y-116728470D01*
X180421658Y-117089292D01*
X180416508Y-117458140D01*
X180483098Y-117820962D01*
X180618893Y-118163941D01*
X180818720Y-118474012D01*
X181074968Y-118739364D01*
X181377876Y-118949891D01*
X181715907Y-119097573D01*
X182076185Y-119176785D01*
X182444987Y-119184510D01*
X182808266Y-119120455D01*
X183152184Y-118987057D01*
X183463642Y-118789400D01*
X183730777Y-118535011D01*
X183943413Y-118233580D01*
X184093451Y-117896589D01*
X184175177Y-117536872D01*
X184181060Y-117115538D01*
X184181060Y-118886032D01*
X184130794Y-118918926D01*
X183937366Y-119108344D01*
X183784414Y-119331726D01*
X183747008Y-119419000D01*
X180500000Y-119419000D01*
X180446605Y-119424235D01*
X180393124Y-119428914D01*
X180390187Y-119429767D01*
X180387150Y-119430065D01*
X180335799Y-119445568D01*
X180284235Y-119460550D01*
X180281522Y-119461956D01*
X180278598Y-119462839D01*
X180231243Y-119488018D01*
X180183565Y-119512732D01*
X180181174Y-119514640D01*
X180178480Y-119516073D01*
X180136913Y-119549973D01*
X180094947Y-119583475D01*
X180090695Y-119587667D01*
X180090608Y-119587739D01*
X180090541Y-119587819D01*
X180089171Y-119589171D01*
X178581000Y-121097342D01*
X178581000Y-120757525D01*
X178581000Y-120682475D01*
X178581000Y-120407525D01*
X178581000Y-120332475D01*
X178581000Y-119292250D01*
X178581000Y-118847750D01*
X178581000Y-117807525D01*
X178581000Y-117732475D01*
X178581000Y-117457525D01*
X178581000Y-117382475D01*
X178566358Y-117308866D01*
X178537638Y-117239529D01*
X178495942Y-117177126D01*
X178442873Y-117124058D01*
X178402751Y-117097249D01*
X178375942Y-117057126D01*
X178322873Y-117004058D01*
X178260471Y-116962362D01*
X178191133Y-116933642D01*
X178117525Y-116919000D01*
X176652250Y-116919000D01*
X176557000Y-117014250D01*
X176557000Y-117673000D01*
X176577000Y-117673000D01*
X176577000Y-117927000D01*
X176557000Y-117927000D01*
X176557000Y-118585750D01*
X176652250Y-118681000D01*
X176819000Y-118681000D01*
X176819000Y-118847750D01*
X176914250Y-118943000D01*
X177573000Y-118943000D01*
X177573000Y-118923000D01*
X177827000Y-118923000D01*
X177827000Y-118943000D01*
X178485750Y-118943000D01*
X178581000Y-118847750D01*
X178581000Y-119292250D01*
X178485750Y-119197000D01*
X177827000Y-119197000D01*
X177827000Y-120655750D01*
X177827000Y-121005750D01*
X177922250Y-121101000D01*
X178237525Y-121101000D01*
X178311133Y-121086358D01*
X178380471Y-121057638D01*
X178442873Y-121015942D01*
X178495942Y-120962874D01*
X178537638Y-120900471D01*
X178566358Y-120831134D01*
X178581000Y-120757525D01*
X178581000Y-121097342D01*
X178259342Y-121419000D01*
X177573000Y-121419000D01*
X177573000Y-121005750D01*
X177573000Y-120655750D01*
X177573000Y-119197000D01*
X176914250Y-119197000D01*
X176819000Y-119292250D01*
X176819000Y-120332475D01*
X176819000Y-120407525D01*
X176819000Y-120682475D01*
X176819000Y-120757525D01*
X176833642Y-120831134D01*
X176862362Y-120900471D01*
X176904058Y-120962874D01*
X176957127Y-121015942D01*
X177019529Y-121057638D01*
X177088867Y-121086358D01*
X177162475Y-121101000D01*
X177477750Y-121101000D01*
X177573000Y-121005750D01*
X177573000Y-121419000D01*
X177290658Y-121419000D01*
X176303000Y-120431342D01*
X176303000Y-118585750D01*
X176303000Y-117927000D01*
X176303000Y-117673000D01*
X176303000Y-117014250D01*
X176207750Y-116919000D01*
X174742475Y-116919000D01*
X174668867Y-116933642D01*
X174599529Y-116962362D01*
X174537127Y-117004058D01*
X174484058Y-117057126D01*
X174442362Y-117119529D01*
X174413642Y-117188866D01*
X174399000Y-117262475D01*
X174399000Y-117337525D01*
X174399000Y-117577750D01*
X174494250Y-117673000D01*
X176303000Y-117673000D01*
X176303000Y-117927000D01*
X174494250Y-117927000D01*
X174399000Y-118022250D01*
X174399000Y-118262475D01*
X174399000Y-118337525D01*
X174413642Y-118411134D01*
X174442362Y-118480471D01*
X174484058Y-118542874D01*
X174537127Y-118595942D01*
X174599529Y-118637638D01*
X174668867Y-118666358D01*
X174742475Y-118681000D01*
X176207750Y-118681000D01*
X176303000Y-118585750D01*
X176303000Y-120431342D01*
X176281000Y-120409342D01*
X176281000Y-119412475D01*
X176266358Y-119338867D01*
X176237638Y-119269529D01*
X176195942Y-119207127D01*
X176142874Y-119154058D01*
X176080471Y-119112362D01*
X176011134Y-119083642D01*
X175937525Y-119069000D01*
X175862475Y-119069000D01*
X174362475Y-119069000D01*
X174288867Y-119083642D01*
X174219529Y-119112362D01*
X174157127Y-119154058D01*
X174104058Y-119207126D01*
X174062362Y-119269529D01*
X174033642Y-119338866D01*
X174019000Y-119412475D01*
X174019000Y-119487525D01*
X174019000Y-120787525D01*
X174033642Y-120861133D01*
X174062362Y-120930471D01*
X174104058Y-120992873D01*
X174157126Y-121045942D01*
X174219529Y-121087638D01*
X174288866Y-121116358D01*
X174362475Y-121131000D01*
X174437525Y-121131000D01*
X175359342Y-121131000D01*
X176639171Y-122410829D01*
X176680642Y-122444894D01*
X176721754Y-122479391D01*
X176724431Y-122480862D01*
X176726792Y-122482802D01*
X176774066Y-122508149D01*
X176821120Y-122534018D01*
X176824035Y-122534942D01*
X176826725Y-122536385D01*
X176877983Y-122552056D01*
X176929203Y-122568304D01*
X176932243Y-122568645D01*
X176935161Y-122569537D01*
X176988561Y-122574961D01*
X177041888Y-122580943D01*
X177047851Y-122580984D01*
X177047971Y-122580997D01*
X177048081Y-122580986D01*
X177050000Y-122581000D01*
X178500000Y-122581000D01*
X178553394Y-122575764D01*
X178606876Y-122571086D01*
X178609812Y-122570232D01*
X178612850Y-122569935D01*
X178664200Y-122554431D01*
X178715765Y-122539450D01*
X178718477Y-122538043D01*
X178721402Y-122537161D01*
X178768756Y-122511981D01*
X178816435Y-122487268D01*
X178818825Y-122485359D01*
X178821520Y-122483927D01*
X178863086Y-122450026D01*
X178905053Y-122416525D01*
X178909304Y-122412332D01*
X178909392Y-122412261D01*
X178909458Y-122412180D01*
X178910829Y-122410829D01*
X180740658Y-120581000D01*
X183745215Y-120581000D01*
X183766228Y-120634073D01*
X183912884Y-120861638D01*
X184100948Y-121056383D01*
X184323256Y-121210891D01*
X184571341Y-121319277D01*
X184835754Y-121377412D01*
X185106422Y-121383082D01*
X185373038Y-121336070D01*
X185625444Y-121238168D01*
X185854027Y-121093105D01*
X186050081Y-120906405D01*
X186206137Y-120685181D01*
X186316252Y-120437859D01*
X186376232Y-120173859D01*
X186380550Y-119864636D01*
X186380550Y-121359317D01*
X186252119Y-121485086D01*
X186043712Y-121789457D01*
X185898393Y-122128510D01*
X185821698Y-122489332D01*
X185816548Y-122858180D01*
X185883138Y-123221002D01*
X186018933Y-123563981D01*
X186218760Y-123874052D01*
X186475008Y-124139404D01*
X186777916Y-124349931D01*
X187115947Y-124497613D01*
X187476225Y-124576825D01*
X187845027Y-124584550D01*
X188208306Y-124520495D01*
X188552224Y-124387097D01*
X188863682Y-124189440D01*
X189130817Y-123935051D01*
X189343453Y-123633620D01*
X189493491Y-123296629D01*
X189575217Y-122936912D01*
X189581100Y-122515578D01*
X189581100Y-127681818D01*
X189542764Y-127379535D01*
X189425331Y-127028112D01*
X189300336Y-126794263D01*
X189055793Y-126623813D01*
X188876187Y-126803418D01*
X188876187Y-126444207D01*
X188705737Y-126199664D01*
X188374206Y-126034208D01*
X188016767Y-125936609D01*
X187647155Y-125910619D01*
X187279575Y-125957236D01*
X186928152Y-126074669D01*
X186694303Y-126199664D01*
X186523853Y-126444207D01*
X187700020Y-127620375D01*
X188876187Y-126444207D01*
X188876187Y-126803418D01*
X187879625Y-127799980D01*
X189055793Y-128976147D01*
X189300336Y-128805697D01*
X189465792Y-128474166D01*
X189563391Y-128116727D01*
X189589381Y-127747115D01*
X189589381Y-138247115D01*
X189581100Y-138181818D01*
X189581100Y-133015578D01*
X189509451Y-132653721D01*
X189368880Y-132312671D01*
X189164743Y-132005421D01*
X188904816Y-131743672D01*
X188876187Y-131724361D01*
X188876187Y-129155753D01*
X187700020Y-127979585D01*
X187520415Y-128159190D01*
X187520415Y-127799980D01*
X186344247Y-126623813D01*
X186099704Y-126794263D01*
X185934248Y-127125794D01*
X185836649Y-127483233D01*
X185810659Y-127852845D01*
X185857276Y-128220425D01*
X185974709Y-128571848D01*
X186099704Y-128805697D01*
X186344247Y-128976147D01*
X187520415Y-127799980D01*
X187520415Y-128159190D01*
X186523853Y-129155753D01*
X186694303Y-129400296D01*
X187025834Y-129565752D01*
X187383273Y-129663351D01*
X187752885Y-129689341D01*
X188120465Y-129642724D01*
X188471888Y-129525291D01*
X188705737Y-129400296D01*
X188876187Y-129155753D01*
X188876187Y-131724361D01*
X188598998Y-131537395D01*
X188258938Y-131394447D01*
X187897589Y-131320273D01*
X187528715Y-131317698D01*
X187166366Y-131386820D01*
X186824344Y-131525006D01*
X186515676Y-131726993D01*
X186252119Y-131985086D01*
X186043712Y-132289457D01*
X185898393Y-132628510D01*
X185821698Y-132989332D01*
X185816548Y-133358180D01*
X185883138Y-133721002D01*
X186018933Y-134063981D01*
X186218760Y-134374052D01*
X186475008Y-134639404D01*
X186777916Y-134849931D01*
X187115947Y-134997613D01*
X187476225Y-135076825D01*
X187845027Y-135084550D01*
X188208306Y-135020495D01*
X188552224Y-134887097D01*
X188863682Y-134689440D01*
X189130817Y-134435051D01*
X189343453Y-134133620D01*
X189493491Y-133796629D01*
X189575217Y-133436912D01*
X189581100Y-133015578D01*
X189581100Y-138181818D01*
X189542764Y-137879535D01*
X189425331Y-137528112D01*
X189300336Y-137294263D01*
X189055793Y-137123813D01*
X188876187Y-137303418D01*
X188876187Y-136944207D01*
X188705737Y-136699664D01*
X188374206Y-136534208D01*
X188016767Y-136436609D01*
X187647155Y-136410619D01*
X187279575Y-136457236D01*
X186928152Y-136574669D01*
X186694303Y-136699664D01*
X186523853Y-136944207D01*
X187700020Y-138120375D01*
X188876187Y-136944207D01*
X188876187Y-137303418D01*
X187879625Y-138299980D01*
X189055793Y-139476147D01*
X189300336Y-139305697D01*
X189465792Y-138974166D01*
X189563391Y-138616727D01*
X189589381Y-138247115D01*
X189589381Y-145873000D01*
X189581100Y-145873000D01*
X189581100Y-143515578D01*
X189509451Y-143153721D01*
X189368880Y-142812671D01*
X189164743Y-142505421D01*
X188904816Y-142243672D01*
X188876187Y-142224361D01*
X188876187Y-139655753D01*
X187700020Y-138479585D01*
X187520415Y-138659190D01*
X187520415Y-138299980D01*
X186344247Y-137123813D01*
X186099704Y-137294263D01*
X185934248Y-137625794D01*
X185836649Y-137983233D01*
X185810659Y-138352845D01*
X185857276Y-138720425D01*
X185974709Y-139071848D01*
X186099704Y-139305697D01*
X186344247Y-139476147D01*
X187520415Y-138299980D01*
X187520415Y-138659190D01*
X186523853Y-139655753D01*
X186694303Y-139900296D01*
X187025834Y-140065752D01*
X187383273Y-140163351D01*
X187752885Y-140189341D01*
X188120465Y-140142724D01*
X188471888Y-140025291D01*
X188705737Y-139900296D01*
X188876187Y-139655753D01*
X188876187Y-142224361D01*
X188598998Y-142037395D01*
X188258938Y-141894447D01*
X187897589Y-141820273D01*
X187528715Y-141817698D01*
X187166366Y-141886820D01*
X186824344Y-142025006D01*
X186515676Y-142226993D01*
X186380550Y-142359317D01*
X186380550Y-140864636D01*
X186327965Y-140599064D01*
X186224798Y-140348763D01*
X186074980Y-140123268D01*
X185884215Y-139931167D01*
X185659772Y-139779778D01*
X185410197Y-139674867D01*
X185144999Y-139620429D01*
X184874277Y-139618539D01*
X184608344Y-139669268D01*
X184357330Y-139770685D01*
X184181060Y-139886032D01*
X184181060Y-138115538D01*
X184181060Y-133015578D01*
X184109411Y-132653721D01*
X183968840Y-132312671D01*
X183764703Y-132005421D01*
X183504776Y-131743672D01*
X183198958Y-131537395D01*
X182858898Y-131394447D01*
X182497549Y-131320273D01*
X182128675Y-131317698D01*
X181766326Y-131386820D01*
X181424304Y-131525006D01*
X181115636Y-131726993D01*
X180852079Y-131985086D01*
X180643672Y-132289457D01*
X180498353Y-132628510D01*
X180421658Y-132989332D01*
X180416508Y-133358180D01*
X180483098Y-133721002D01*
X180618893Y-134063981D01*
X180818720Y-134374052D01*
X181074968Y-134639404D01*
X181377876Y-134849931D01*
X181715907Y-134997613D01*
X182076185Y-135076825D01*
X182444987Y-135084550D01*
X182808266Y-135020495D01*
X183152184Y-134887097D01*
X183463642Y-134689440D01*
X183730777Y-134435051D01*
X183943413Y-134133620D01*
X184093451Y-133796629D01*
X184175177Y-133436912D01*
X184181060Y-133015578D01*
X184181060Y-138115538D01*
X184109411Y-137753681D01*
X183968840Y-137412631D01*
X183764703Y-137105381D01*
X183504776Y-136843632D01*
X183198958Y-136637355D01*
X182858898Y-136494407D01*
X182497549Y-136420233D01*
X182128675Y-136417658D01*
X181766326Y-136486780D01*
X181424304Y-136624966D01*
X181115636Y-136826953D01*
X180852079Y-137085046D01*
X180643672Y-137389417D01*
X180498353Y-137728470D01*
X180421658Y-138089292D01*
X180416508Y-138458140D01*
X180483098Y-138820962D01*
X180618893Y-139163941D01*
X180818720Y-139474012D01*
X181074968Y-139739364D01*
X181377876Y-139949891D01*
X181715907Y-140097573D01*
X182076185Y-140176785D01*
X182444987Y-140184510D01*
X182808266Y-140120455D01*
X183152184Y-139987057D01*
X183463642Y-139789400D01*
X183730777Y-139535011D01*
X183943413Y-139233580D01*
X184093451Y-138896589D01*
X184175177Y-138536872D01*
X184181060Y-138115538D01*
X184181060Y-139886032D01*
X184130794Y-139918926D01*
X183937366Y-140108344D01*
X183784414Y-140331726D01*
X183747008Y-140419000D01*
X181340657Y-140419000D01*
X178581000Y-137659342D01*
X178581000Y-133087525D01*
X178581000Y-133012475D01*
X178581000Y-130722250D01*
X178581000Y-130277750D01*
X178581000Y-127987525D01*
X178581000Y-127912475D01*
X178566358Y-127838866D01*
X178537638Y-127769529D01*
X178495942Y-127707126D01*
X178442873Y-127654058D01*
X178380471Y-127612362D01*
X178311133Y-127583642D01*
X178237525Y-127569000D01*
X177922250Y-127569000D01*
X177827000Y-127664250D01*
X177827000Y-130373000D01*
X178485750Y-130373000D01*
X178581000Y-130277750D01*
X178581000Y-130722250D01*
X178485750Y-130627000D01*
X177827000Y-130627000D01*
X177827000Y-133335750D01*
X177922250Y-133431000D01*
X178237525Y-133431000D01*
X178311133Y-133416358D01*
X178380471Y-133387638D01*
X178442873Y-133345942D01*
X178495942Y-133292874D01*
X178537638Y-133230471D01*
X178566358Y-133161134D01*
X178581000Y-133087525D01*
X178581000Y-137659342D01*
X177573000Y-136651342D01*
X177573000Y-133335750D01*
X177573000Y-130627000D01*
X177573000Y-130373000D01*
X177573000Y-127664250D01*
X177477750Y-127569000D01*
X177325535Y-127569000D01*
X177325535Y-126519056D01*
X177294091Y-126360250D01*
X177232400Y-126210576D01*
X177142812Y-126075735D01*
X177028739Y-125960864D01*
X176894527Y-125870337D01*
X176745288Y-125807602D01*
X176586706Y-125775050D01*
X176424821Y-125773920D01*
X176265799Y-125804255D01*
X176115699Y-125864899D01*
X175980236Y-125953544D01*
X175864571Y-126066812D01*
X175773109Y-126200388D01*
X175709334Y-126349186D01*
X175675675Y-126507537D01*
X175674328Y-126604013D01*
X174289171Y-127989171D01*
X174255105Y-128030642D01*
X174220609Y-128071754D01*
X174219137Y-128074431D01*
X174217198Y-128076792D01*
X174191850Y-128124066D01*
X174165982Y-128171120D01*
X174165057Y-128174035D01*
X174163615Y-128176725D01*
X174147943Y-128227983D01*
X174131696Y-128279203D01*
X174131354Y-128282243D01*
X174130463Y-128285161D01*
X174127025Y-128319000D01*
X174012475Y-128319000D01*
X173938867Y-128333642D01*
X173869529Y-128362362D01*
X173807127Y-128404058D01*
X173754058Y-128457126D01*
X173712362Y-128519529D01*
X173683642Y-128588866D01*
X173669000Y-128662475D01*
X173669000Y-128737525D01*
X173669000Y-130237525D01*
X173683642Y-130311133D01*
X173712362Y-130380471D01*
X173754058Y-130442873D01*
X173807126Y-130495942D01*
X173869529Y-130537638D01*
X173938866Y-130566358D01*
X174012475Y-130581000D01*
X174087525Y-130581000D01*
X175387525Y-130581000D01*
X175461133Y-130566358D01*
X175530471Y-130537638D01*
X175592873Y-130495942D01*
X175645942Y-130442874D01*
X175687638Y-130380471D01*
X175716358Y-130311134D01*
X175731000Y-130237525D01*
X175731000Y-130162475D01*
X175731000Y-128662475D01*
X175716358Y-128588867D01*
X175687638Y-128519529D01*
X175645942Y-128457127D01*
X175592874Y-128404058D01*
X175547750Y-128373907D01*
X176496025Y-127425632D01*
X176563638Y-127427049D01*
X176723067Y-127398938D01*
X176874000Y-127340395D01*
X177010687Y-127253650D01*
X177127923Y-127142008D01*
X177221241Y-127009722D01*
X177287087Y-126861829D01*
X177322953Y-126703963D01*
X177325535Y-126519056D01*
X177325535Y-127569000D01*
X177162475Y-127569000D01*
X177088867Y-127583642D01*
X177019529Y-127612362D01*
X176957127Y-127654058D01*
X176904058Y-127707126D01*
X176862362Y-127769529D01*
X176833642Y-127838866D01*
X176819000Y-127912475D01*
X176819000Y-127987525D01*
X176819000Y-130277750D01*
X176914250Y-130373000D01*
X177573000Y-130373000D01*
X177573000Y-130627000D01*
X176914250Y-130627000D01*
X176819000Y-130722250D01*
X176819000Y-133012475D01*
X176819000Y-133087525D01*
X176833642Y-133161134D01*
X176862362Y-133230471D01*
X176904058Y-133292874D01*
X176957127Y-133345942D01*
X177019529Y-133387638D01*
X177088867Y-133416358D01*
X177162475Y-133431000D01*
X177477750Y-133431000D01*
X177573000Y-133335750D01*
X177573000Y-136651342D01*
X177409969Y-136488311D01*
X177368497Y-136454245D01*
X177327386Y-136419749D01*
X177324708Y-136418277D01*
X177322348Y-136416338D01*
X177275073Y-136390990D01*
X177228020Y-136365122D01*
X177225104Y-136364197D01*
X177222415Y-136362755D01*
X177171156Y-136347083D01*
X177119937Y-136330836D01*
X177116896Y-136330494D01*
X177113979Y-136329603D01*
X177060623Y-136324183D01*
X177007252Y-136318197D01*
X177001277Y-136318155D01*
X177001169Y-136318144D01*
X177001067Y-136318153D01*
X176999140Y-136318140D01*
X171981100Y-136318140D01*
X171981100Y-135561135D01*
X171981000Y-135560632D01*
X171981000Y-134634525D01*
X171981000Y-134559475D01*
X171981000Y-133422250D01*
X171981000Y-132977750D01*
X171981000Y-131840525D01*
X171981000Y-131765475D01*
X171966358Y-131691866D01*
X171937638Y-131622529D01*
X171895942Y-131560126D01*
X171842873Y-131507058D01*
X171780471Y-131465362D01*
X171711133Y-131436642D01*
X171637525Y-131422000D01*
X170822250Y-131422000D01*
X170727000Y-131517250D01*
X170727000Y-133073000D01*
X171885750Y-133073000D01*
X171981000Y-132977750D01*
X171981000Y-133422250D01*
X171885750Y-133327000D01*
X170727000Y-133327000D01*
X170727000Y-134882750D01*
X170822250Y-134978000D01*
X171637525Y-134978000D01*
X171711133Y-134963358D01*
X171780471Y-134934638D01*
X171842873Y-134892942D01*
X171895942Y-134839874D01*
X171937638Y-134777471D01*
X171966358Y-134708134D01*
X171981000Y-134634525D01*
X171981000Y-135560632D01*
X171966458Y-135487527D01*
X171937738Y-135418189D01*
X171896042Y-135355787D01*
X171842974Y-135302718D01*
X171780571Y-135261022D01*
X171711234Y-135232302D01*
X171637625Y-135217660D01*
X171562575Y-135217660D01*
X170473000Y-135217660D01*
X170473000Y-134882750D01*
X170473000Y-133327000D01*
X170473000Y-133073000D01*
X170473000Y-131517250D01*
X170377750Y-131422000D01*
X169562475Y-131422000D01*
X169488867Y-131436642D01*
X169419529Y-131465362D01*
X169357127Y-131507058D01*
X169304058Y-131560126D01*
X169262362Y-131622529D01*
X169233642Y-131691866D01*
X169219000Y-131765475D01*
X169219000Y-131840525D01*
X169219000Y-132977750D01*
X169314250Y-133073000D01*
X170473000Y-133073000D01*
X170473000Y-133327000D01*
X169314250Y-133327000D01*
X169219000Y-133422250D01*
X169219000Y-134559475D01*
X169219000Y-134634525D01*
X169233642Y-134708134D01*
X169262362Y-134777471D01*
X169304058Y-134839874D01*
X169357127Y-134892942D01*
X169419529Y-134934638D01*
X169488867Y-134963358D01*
X169562475Y-134978000D01*
X170377750Y-134978000D01*
X170473000Y-134882750D01*
X170473000Y-135217660D01*
X169962375Y-135217660D01*
X169888767Y-135232302D01*
X169819429Y-135261022D01*
X169757027Y-135302718D01*
X169703958Y-135355786D01*
X169662262Y-135418189D01*
X169633542Y-135487526D01*
X169618900Y-135561135D01*
X169618900Y-135636185D01*
X169618900Y-137258582D01*
X167353482Y-139524000D01*
X167342892Y-139524000D01*
X167326971Y-139513362D01*
X167257634Y-139484642D01*
X167184025Y-139470000D01*
X167257633Y-139455358D01*
X167326971Y-139426638D01*
X167389373Y-139384942D01*
X167442442Y-139331874D01*
X167484138Y-139269471D01*
X167512858Y-139200134D01*
X167527500Y-139126525D01*
X167527500Y-139051475D01*
X167527500Y-138543475D01*
X167512858Y-138469867D01*
X167484138Y-138400529D01*
X167442442Y-138338127D01*
X167389374Y-138285058D01*
X167326971Y-138243362D01*
X167257634Y-138214642D01*
X167184025Y-138200000D01*
X167257633Y-138185358D01*
X167326971Y-138156638D01*
X167389373Y-138114942D01*
X167442442Y-138061874D01*
X167484138Y-137999471D01*
X167512858Y-137930134D01*
X167527500Y-137856525D01*
X167527500Y-137781475D01*
X167527500Y-137273475D01*
X167512858Y-137199867D01*
X167484138Y-137130529D01*
X167442442Y-137068127D01*
X167389374Y-137015058D01*
X167326971Y-136973362D01*
X167257634Y-136944642D01*
X167184025Y-136930000D01*
X167257633Y-136915358D01*
X167326971Y-136886638D01*
X167389373Y-136844942D01*
X167442442Y-136791874D01*
X167484138Y-136729471D01*
X167512858Y-136660134D01*
X167527500Y-136586525D01*
X167527500Y-136511475D01*
X167527500Y-136003475D01*
X167512858Y-135929867D01*
X167484138Y-135860529D01*
X167442442Y-135798127D01*
X167389374Y-135745058D01*
X167326971Y-135703362D01*
X167257634Y-135674642D01*
X167184025Y-135660000D01*
X167156000Y-135660000D01*
X167156000Y-134978000D01*
X167637525Y-134978000D01*
X167711133Y-134963358D01*
X167780471Y-134934638D01*
X167842873Y-134892942D01*
X167895942Y-134839874D01*
X167937638Y-134777471D01*
X167966358Y-134708134D01*
X167981000Y-134634525D01*
X167981000Y-134559475D01*
X167981000Y-131765475D01*
X167966358Y-131691867D01*
X167937638Y-131622529D01*
X167895942Y-131560127D01*
X167842874Y-131507058D01*
X167780471Y-131465362D01*
X167763376Y-131458281D01*
X167840658Y-131381000D01*
X171859342Y-131381000D01*
X173039171Y-132560829D01*
X173080642Y-132594894D01*
X173121754Y-132629391D01*
X173124431Y-132630862D01*
X173126792Y-132632802D01*
X173174084Y-132658160D01*
X173221120Y-132684018D01*
X173224032Y-132684942D01*
X173226724Y-132686385D01*
X173277997Y-132702060D01*
X173329203Y-132718304D01*
X173332243Y-132718645D01*
X173335161Y-132719537D01*
X173388516Y-132724956D01*
X173441888Y-132730943D01*
X173447862Y-132730984D01*
X173447971Y-132730996D01*
X173448072Y-132730986D01*
X173450000Y-132731000D01*
X173669000Y-132731000D01*
X173669000Y-132937525D01*
X173683642Y-133011133D01*
X173712362Y-133080471D01*
X173754058Y-133142873D01*
X173807126Y-133195942D01*
X173869529Y-133237638D01*
X173938866Y-133266358D01*
X174012475Y-133281000D01*
X174087525Y-133281000D01*
X175387525Y-133281000D01*
X175461133Y-133266358D01*
X175530471Y-133237638D01*
X175592873Y-133195942D01*
X175645942Y-133142874D01*
X175687638Y-133080471D01*
X175716358Y-133011134D01*
X175731000Y-132937525D01*
X175731000Y-132862475D01*
X175731000Y-131362475D01*
X175716358Y-131288867D01*
X175687638Y-131219529D01*
X175645942Y-131157127D01*
X175592874Y-131104058D01*
X175530471Y-131062362D01*
X175461134Y-131033642D01*
X175387525Y-131019000D01*
X175312475Y-131019000D01*
X174012475Y-131019000D01*
X173938867Y-131033642D01*
X173869529Y-131062362D01*
X173807127Y-131104058D01*
X173754058Y-131157126D01*
X173712362Y-131219529D01*
X173683642Y-131288866D01*
X173669000Y-131362475D01*
X173669000Y-131437525D01*
X173669000Y-131547342D01*
X172510829Y-130389171D01*
X172469357Y-130355105D01*
X172428246Y-130320609D01*
X172425568Y-130319137D01*
X172423208Y-130317198D01*
X172375933Y-130291850D01*
X172328880Y-130265982D01*
X172325964Y-130265057D01*
X172323275Y-130263615D01*
X172272016Y-130247943D01*
X172220797Y-130231696D01*
X172217756Y-130231354D01*
X172214839Y-130230463D01*
X172161483Y-130225043D01*
X172108112Y-130219057D01*
X172105309Y-130219037D01*
X172139874Y-130195942D01*
X172192942Y-130142873D01*
X172234638Y-130080471D01*
X172263358Y-130011133D01*
X172278000Y-129937525D01*
X172278000Y-129122250D01*
X172278000Y-128677750D01*
X172278000Y-127862475D01*
X172263358Y-127788867D01*
X172234638Y-127719529D01*
X172192942Y-127657127D01*
X172139874Y-127604058D01*
X172077471Y-127562362D01*
X172008134Y-127533642D01*
X171934525Y-127519000D01*
X171859475Y-127519000D01*
X170722250Y-127519000D01*
X170627000Y-127614250D01*
X170627000Y-128773000D01*
X172182750Y-128773000D01*
X172278000Y-128677750D01*
X172278000Y-129122250D01*
X172182750Y-129027000D01*
X170627000Y-129027000D01*
X170627000Y-129047000D01*
X170373000Y-129047000D01*
X170373000Y-129027000D01*
X168817250Y-129027000D01*
X168722000Y-129122250D01*
X168722000Y-129937525D01*
X168736642Y-130011133D01*
X168765362Y-130080471D01*
X168807058Y-130142873D01*
X168860126Y-130195942D01*
X168894635Y-130219000D01*
X168181000Y-130219000D01*
X168181000Y-128091000D01*
X168527525Y-128091000D01*
X168601133Y-128076358D01*
X168670471Y-128047638D01*
X168722000Y-128013207D01*
X168722000Y-128677750D01*
X168817250Y-128773000D01*
X170373000Y-128773000D01*
X170373000Y-127614250D01*
X170277750Y-127519000D01*
X169140525Y-127519000D01*
X169065475Y-127519000D01*
X168991866Y-127533642D01*
X168922529Y-127562362D01*
X168871000Y-127596792D01*
X168871000Y-127085658D01*
X169675658Y-126281000D01*
X171934525Y-126281000D01*
X172008133Y-126266358D01*
X172077471Y-126237638D01*
X172139873Y-126195942D01*
X172192942Y-126142874D01*
X172234638Y-126080471D01*
X172263358Y-126011134D01*
X172278000Y-125937525D01*
X172278000Y-125862475D01*
X172278000Y-125481000D01*
X184159342Y-125481000D01*
X184419000Y-125740658D01*
X184419000Y-129245768D01*
X184357330Y-129270685D01*
X184181060Y-129386032D01*
X184181060Y-127615538D01*
X184109411Y-127253681D01*
X183968840Y-126912631D01*
X183764703Y-126605381D01*
X183504776Y-126343632D01*
X183198958Y-126137355D01*
X182858898Y-125994407D01*
X182497549Y-125920233D01*
X182128675Y-125917658D01*
X181766326Y-125986780D01*
X181424304Y-126124966D01*
X181115636Y-126326953D01*
X180852079Y-126585046D01*
X180643672Y-126889417D01*
X180498353Y-127228470D01*
X180421658Y-127589292D01*
X180416508Y-127958140D01*
X180483098Y-128320962D01*
X180618893Y-128663941D01*
X180818720Y-128974012D01*
X181074968Y-129239364D01*
X181377876Y-129449891D01*
X181715907Y-129597573D01*
X182076185Y-129676785D01*
X182444987Y-129684510D01*
X182808266Y-129620455D01*
X183152184Y-129487057D01*
X183463642Y-129289400D01*
X183730777Y-129035011D01*
X183943413Y-128733580D01*
X184093451Y-128396589D01*
X184175177Y-128036872D01*
X184181060Y-127615538D01*
X184181060Y-129386032D01*
X184130794Y-129418926D01*
X183937366Y-129608344D01*
X183784414Y-129831726D01*
X183677763Y-130080562D01*
X183621475Y-130345374D01*
X183617695Y-130616075D01*
X183666567Y-130882356D01*
X183766228Y-131134073D01*
X183912884Y-131361638D01*
X184100948Y-131556383D01*
X184323256Y-131710891D01*
X184571341Y-131819277D01*
X184835754Y-131877412D01*
X185106422Y-131883082D01*
X185373038Y-131836070D01*
X185625444Y-131738168D01*
X185854027Y-131593105D01*
X186050081Y-131406405D01*
X186206137Y-131185181D01*
X186316252Y-130937859D01*
X186376232Y-130673859D01*
X186380550Y-130364636D01*
X186327965Y-130099064D01*
X186224798Y-129848763D01*
X186074980Y-129623268D01*
X185884215Y-129431167D01*
X185659772Y-129279778D01*
X185581000Y-129246665D01*
X185581000Y-125500000D01*
X185575764Y-125446605D01*
X185571086Y-125393124D01*
X185570232Y-125390187D01*
X185569935Y-125387150D01*
X185554431Y-125335799D01*
X185539450Y-125284235D01*
X185538043Y-125281522D01*
X185537161Y-125278598D01*
X185511981Y-125231243D01*
X185487268Y-125183565D01*
X185485359Y-125181174D01*
X185483927Y-125178480D01*
X185450026Y-125136913D01*
X185416525Y-125094947D01*
X185412332Y-125090695D01*
X185412261Y-125090608D01*
X185412180Y-125090541D01*
X185410829Y-125089171D01*
X184810829Y-124489171D01*
X184769357Y-124455105D01*
X184728246Y-124420609D01*
X184725568Y-124419137D01*
X184723208Y-124417198D01*
X184675933Y-124391850D01*
X184628880Y-124365982D01*
X184625964Y-124365057D01*
X184623275Y-124363615D01*
X184572016Y-124347943D01*
X184520797Y-124331696D01*
X184517756Y-124331354D01*
X184514839Y-124330463D01*
X184461483Y-124325043D01*
X184408112Y-124319057D01*
X184402137Y-124319015D01*
X184402029Y-124319004D01*
X184401927Y-124319013D01*
X184400000Y-124319000D01*
X183259487Y-124319000D01*
X183463642Y-124189440D01*
X183730777Y-123935051D01*
X183943413Y-123633620D01*
X184093451Y-123296629D01*
X184175177Y-122936912D01*
X184181060Y-122515578D01*
X184109411Y-122153721D01*
X183968840Y-121812671D01*
X183764703Y-121505421D01*
X183504776Y-121243672D01*
X183198958Y-121037395D01*
X182858898Y-120894447D01*
X182497549Y-120820273D01*
X182128675Y-120817698D01*
X181766326Y-120886820D01*
X181424304Y-121025006D01*
X181115636Y-121226993D01*
X180852079Y-121485086D01*
X180643672Y-121789457D01*
X180498353Y-122128510D01*
X180421658Y-122489332D01*
X180416508Y-122858180D01*
X180483098Y-123221002D01*
X180618893Y-123563981D01*
X180818720Y-123874052D01*
X181074968Y-124139404D01*
X181333372Y-124319000D01*
X173581000Y-124319000D01*
X173581000Y-120787525D01*
X173581000Y-120712475D01*
X173581000Y-119412475D01*
X173566358Y-119338867D01*
X173537638Y-119269529D01*
X173495942Y-119207127D01*
X173442874Y-119154058D01*
X173380471Y-119112362D01*
X173311134Y-119083642D01*
X173237525Y-119069000D01*
X173162475Y-119069000D01*
X173031000Y-119069000D01*
X173031000Y-118337525D01*
X173031000Y-118262475D01*
X173031000Y-118022250D01*
X173031000Y-117577750D01*
X173031000Y-117337525D01*
X173031000Y-117262475D01*
X173016358Y-117188866D01*
X172987638Y-117119529D01*
X172945942Y-117057126D01*
X172892873Y-117004058D01*
X172830471Y-116962362D01*
X172761133Y-116933642D01*
X172687525Y-116919000D01*
X171572250Y-116919000D01*
X171477000Y-117014250D01*
X171477000Y-117673000D01*
X172935750Y-117673000D01*
X173031000Y-117577750D01*
X173031000Y-118022250D01*
X172935750Y-117927000D01*
X171477000Y-117927000D01*
X171477000Y-118585750D01*
X171572250Y-118681000D01*
X172687525Y-118681000D01*
X172761133Y-118666358D01*
X172830471Y-118637638D01*
X172892873Y-118595942D01*
X172945942Y-118542874D01*
X172987638Y-118480471D01*
X173016358Y-118411134D01*
X173031000Y-118337525D01*
X173031000Y-119069000D01*
X171662475Y-119069000D01*
X171588867Y-119083642D01*
X171519529Y-119112362D01*
X171457127Y-119154058D01*
X171404058Y-119207126D01*
X171362362Y-119269529D01*
X171333642Y-119338866D01*
X171319000Y-119412475D01*
X171319000Y-119469000D01*
X171223000Y-119469000D01*
X171223000Y-118585750D01*
X171223000Y-117927000D01*
X171223000Y-117673000D01*
X171223000Y-117014250D01*
X171127750Y-116919000D01*
X170012475Y-116919000D01*
X169938867Y-116933642D01*
X169869529Y-116962362D01*
X169807127Y-117004058D01*
X169754058Y-117057126D01*
X169712362Y-117119529D01*
X169683642Y-117188866D01*
X169669000Y-117262475D01*
X169669000Y-117337525D01*
X169669000Y-117577750D01*
X169764250Y-117673000D01*
X171223000Y-117673000D01*
X171223000Y-117927000D01*
X169764250Y-117927000D01*
X169669000Y-118022250D01*
X169669000Y-118262475D01*
X169669000Y-118337525D01*
X169683642Y-118411134D01*
X169712362Y-118480471D01*
X169754058Y-118542874D01*
X169807127Y-118595942D01*
X169869529Y-118637638D01*
X169938867Y-118666358D01*
X170012475Y-118681000D01*
X171127750Y-118681000D01*
X171223000Y-118585750D01*
X171223000Y-119469000D01*
X166361368Y-119469000D01*
X165646184Y-118753816D01*
X165601172Y-118716842D01*
X165558456Y-118681000D01*
X167587525Y-118681000D01*
X167661133Y-118666358D01*
X167730471Y-118637638D01*
X167792873Y-118595942D01*
X167845942Y-118542874D01*
X167887638Y-118480471D01*
X167916358Y-118411134D01*
X167931000Y-118337525D01*
X167931000Y-118262475D01*
X167931000Y-118022250D01*
X167931000Y-117577750D01*
X167931000Y-117337525D01*
X167931000Y-117262475D01*
X167916358Y-117188866D01*
X167887638Y-117119529D01*
X167845942Y-117057126D01*
X167792873Y-117004058D01*
X167730471Y-116962362D01*
X167661133Y-116933642D01*
X167587525Y-116919000D01*
X165222250Y-116919000D01*
X165127000Y-117014250D01*
X165127000Y-117673000D01*
X167835750Y-117673000D01*
X167931000Y-117577750D01*
X167931000Y-118022250D01*
X167835750Y-117927000D01*
X165127000Y-117927000D01*
X165127000Y-117947000D01*
X164873000Y-117947000D01*
X164873000Y-117927000D01*
X164873000Y-117673000D01*
X164873000Y-117014250D01*
X164777750Y-116919000D01*
X162412475Y-116919000D01*
X162338867Y-116933642D01*
X162269529Y-116962362D01*
X162207127Y-117004058D01*
X162154058Y-117057126D01*
X162112362Y-117119529D01*
X162083642Y-117188866D01*
X162069000Y-117262475D01*
X162069000Y-117337525D01*
X162069000Y-117577750D01*
X162164250Y-117673000D01*
X164873000Y-117673000D01*
X164873000Y-117927000D01*
X162164250Y-117927000D01*
X162069000Y-118022250D01*
X162069000Y-118262475D01*
X162069000Y-118337525D01*
X162083642Y-118411134D01*
X162112362Y-118480471D01*
X162154058Y-118542874D01*
X162180184Y-118569000D01*
X160219815Y-118569000D01*
X160245942Y-118542874D01*
X160287638Y-118480471D01*
X160316358Y-118411134D01*
X160331000Y-118337525D01*
X160331000Y-118262475D01*
X160331000Y-118022250D01*
X160331000Y-117577750D01*
X160331000Y-117337525D01*
X160331000Y-117262475D01*
X160316358Y-117188866D01*
X160287638Y-117119529D01*
X160245942Y-117057126D01*
X160192873Y-117004058D01*
X160130471Y-116962362D01*
X160061133Y-116933642D01*
X159987525Y-116919000D01*
X158872250Y-116919000D01*
X158777000Y-117014250D01*
X158777000Y-117673000D01*
X160235750Y-117673000D01*
X160331000Y-117577750D01*
X160331000Y-118022250D01*
X160235750Y-117927000D01*
X158777000Y-117927000D01*
X158777000Y-117947000D01*
X158523000Y-117947000D01*
X158523000Y-117927000D01*
X158523000Y-117673000D01*
X158523000Y-117014250D01*
X158427750Y-116919000D01*
X157312475Y-116919000D01*
X157238867Y-116933642D01*
X157169529Y-116962362D01*
X157107127Y-117004058D01*
X157054058Y-117057126D01*
X157012362Y-117119529D01*
X156983642Y-117188866D01*
X156969000Y-117262475D01*
X156969000Y-117337525D01*
X156969000Y-117577750D01*
X157064250Y-117673000D01*
X158523000Y-117673000D01*
X158523000Y-117927000D01*
X157064250Y-117927000D01*
X156969000Y-118022250D01*
X156969000Y-118262475D01*
X156969000Y-118337525D01*
X156983642Y-118411134D01*
X157012362Y-118480471D01*
X157054058Y-118542874D01*
X157080184Y-118569000D01*
X156000000Y-118569000D01*
X155941955Y-118574691D01*
X155883926Y-118579768D01*
X155880742Y-118580693D01*
X155877438Y-118581017D01*
X155821582Y-118597880D01*
X155765667Y-118614126D01*
X155762725Y-118615650D01*
X155759545Y-118616611D01*
X155708051Y-118643990D01*
X155656333Y-118670799D01*
X155653739Y-118672869D01*
X155650810Y-118674427D01*
X155605628Y-118711275D01*
X155601000Y-118714969D01*
X155601000Y-118337525D01*
X155601000Y-118262475D01*
X155601000Y-118022250D01*
X155601000Y-117577750D01*
X155601000Y-117337525D01*
X155601000Y-117262475D01*
X155586358Y-117188866D01*
X155557638Y-117119529D01*
X155515942Y-117057126D01*
X155462873Y-117004058D01*
X155400471Y-116962362D01*
X155331133Y-116933642D01*
X155257525Y-116919000D01*
X153792250Y-116919000D01*
X153697000Y-117014250D01*
X153697000Y-117673000D01*
X155505750Y-117673000D01*
X155601000Y-117577750D01*
X155601000Y-118022250D01*
X155505750Y-117927000D01*
X153697000Y-117927000D01*
X153697000Y-118585750D01*
X153792250Y-118681000D01*
X155257525Y-118681000D01*
X155331133Y-118666358D01*
X155400471Y-118637638D01*
X155462873Y-118595942D01*
X155515942Y-118542874D01*
X155557638Y-118480471D01*
X155586358Y-118411134D01*
X155601000Y-118337525D01*
X155601000Y-118714969D01*
X155560089Y-118747630D01*
X155555469Y-118752184D01*
X155555376Y-118752261D01*
X155555304Y-118752347D01*
X155553815Y-118753816D01*
X154653816Y-119653816D01*
X154616842Y-119698827D01*
X154579353Y-119743506D01*
X154577754Y-119746413D01*
X154575649Y-119748977D01*
X154548083Y-119800385D01*
X154520026Y-119851423D01*
X154519024Y-119854580D01*
X154517454Y-119857509D01*
X154500396Y-119913304D01*
X154482789Y-119968808D01*
X154482419Y-119972104D01*
X154481449Y-119975278D01*
X154475556Y-120033289D01*
X154469062Y-120091190D01*
X154469016Y-120097675D01*
X154469004Y-120097797D01*
X154469014Y-120097910D01*
X154469000Y-120100000D01*
X154469000Y-124519000D01*
X154212475Y-124519000D01*
X154138867Y-124533642D01*
X154069529Y-124562362D01*
X154007127Y-124604058D01*
X153954058Y-124657126D01*
X153912362Y-124719529D01*
X153883642Y-124788866D01*
X153869000Y-124862475D01*
X153869000Y-124937525D01*
X153869000Y-125837525D01*
X153883642Y-125911133D01*
X153912362Y-125980471D01*
X153954058Y-126042873D01*
X154007126Y-126095942D01*
X154069529Y-126137638D01*
X154138866Y-126166358D01*
X154212475Y-126181000D01*
X154287525Y-126181000D01*
X155109342Y-126181000D01*
X155764171Y-126835829D01*
X155805642Y-126869894D01*
X155846754Y-126904391D01*
X155849431Y-126905862D01*
X155851792Y-126907802D01*
X155899066Y-126933149D01*
X155946120Y-126959018D01*
X155949035Y-126959942D01*
X155951725Y-126961385D01*
X156002983Y-126977056D01*
X156054203Y-126993304D01*
X156057243Y-126993645D01*
X156060161Y-126994537D01*
X156113557Y-126999961D01*
X156166888Y-127005943D01*
X156172853Y-127005984D01*
X156172972Y-127005997D01*
X156173082Y-127005986D01*
X156175000Y-127006000D01*
X156519000Y-127006000D01*
X156519000Y-127700000D01*
X156524235Y-127753394D01*
X156528914Y-127806876D01*
X156529767Y-127809812D01*
X156530065Y-127812850D01*
X156545568Y-127864200D01*
X156560550Y-127915765D01*
X156561956Y-127918477D01*
X156562839Y-127921402D01*
X156588018Y-127968756D01*
X156612732Y-128016435D01*
X156614640Y-128018825D01*
X156616073Y-128021520D01*
X156649973Y-128063086D01*
X156683475Y-128105053D01*
X156687667Y-128109304D01*
X156687739Y-128109392D01*
X156687819Y-128109458D01*
X156689171Y-128110829D01*
X157804000Y-129225658D01*
X157804000Y-134537525D01*
X157818642Y-134611133D01*
X157847362Y-134680471D01*
X157889058Y-134742873D01*
X157942126Y-134795942D01*
X158004529Y-134837638D01*
X158073866Y-134866358D01*
X158147475Y-134881000D01*
X158222525Y-134881000D01*
X159572525Y-134881000D01*
X159646133Y-134866358D01*
X159715471Y-134837638D01*
X159777873Y-134795942D01*
X159830942Y-134742874D01*
X159872638Y-134680471D01*
X159901358Y-134611134D01*
X159916000Y-134537525D01*
X159916000Y-134462475D01*
X159916000Y-128462475D01*
X159901358Y-128388867D01*
X159872638Y-128319529D01*
X159830942Y-128257127D01*
X159806000Y-128232184D01*
X159806000Y-127337525D01*
X159806000Y-127282750D01*
X159710750Y-127187500D01*
X158827000Y-127187500D01*
X158827000Y-127585750D01*
X158922250Y-127681000D01*
X159462525Y-127681000D01*
X159536133Y-127666358D01*
X159605471Y-127637638D01*
X159667873Y-127595942D01*
X159720942Y-127542874D01*
X159762638Y-127480471D01*
X159791358Y-127411134D01*
X159806000Y-127337525D01*
X159806000Y-128232184D01*
X159777874Y-128204058D01*
X159715471Y-128162362D01*
X159646134Y-128133642D01*
X159572525Y-128119000D01*
X159497475Y-128119000D01*
X158340658Y-128119000D01*
X157894012Y-127672354D01*
X157937475Y-127681000D01*
X158477750Y-127681000D01*
X158573000Y-127585750D01*
X158573000Y-127187500D01*
X158553000Y-127187500D01*
X158553000Y-127031000D01*
X159462525Y-127031000D01*
X159536133Y-127016358D01*
X159561140Y-127006000D01*
X161994000Y-127006000D01*
X161994000Y-127337525D01*
X162008642Y-127411133D01*
X162037362Y-127480471D01*
X162079058Y-127542873D01*
X162132126Y-127595942D01*
X162194529Y-127637638D01*
X162263866Y-127666358D01*
X162337475Y-127681000D01*
X162412525Y-127681000D01*
X162519000Y-127681000D01*
X162519000Y-128119000D01*
X162287475Y-128119000D01*
X162213867Y-128133642D01*
X162144529Y-128162362D01*
X162082127Y-128204058D01*
X162029058Y-128257126D01*
X161987362Y-128319529D01*
X161958642Y-128388866D01*
X161944000Y-128462475D01*
X161944000Y-128537525D01*
X161944000Y-134537525D01*
X161958642Y-134611133D01*
X161987362Y-134680471D01*
X162029058Y-134742873D01*
X162082126Y-134795942D01*
X162144529Y-134837638D01*
X162213866Y-134866358D01*
X162287475Y-134881000D01*
X162362525Y-134881000D01*
X163712525Y-134881000D01*
X163786133Y-134866358D01*
X163855471Y-134837638D01*
X163917873Y-134795942D01*
X163970942Y-134742874D01*
X164012638Y-134680471D01*
X164041358Y-134611134D01*
X164056000Y-134537525D01*
X164056000Y-134462475D01*
X164056000Y-128462475D01*
X164041358Y-128388867D01*
X164012638Y-128319529D01*
X163970942Y-128257127D01*
X163917874Y-128204058D01*
X163855471Y-128162362D01*
X163786134Y-128133642D01*
X163712525Y-128119000D01*
X163681000Y-128119000D01*
X163681000Y-127681000D01*
X163862525Y-127681000D01*
X163929000Y-127681000D01*
X163929000Y-127747525D01*
X163943642Y-127821133D01*
X163972362Y-127890471D01*
X164014058Y-127952873D01*
X164067126Y-128005942D01*
X164129529Y-128047638D01*
X164198866Y-128076358D01*
X164272475Y-128091000D01*
X164347525Y-128091000D01*
X165257525Y-128091000D01*
X165331133Y-128076358D01*
X165400471Y-128047638D01*
X165462873Y-128005942D01*
X165515942Y-127952874D01*
X165557638Y-127890471D01*
X165586358Y-127821134D01*
X165601000Y-127747525D01*
X165601000Y-127672475D01*
X165601000Y-126452475D01*
X165586358Y-126378867D01*
X165557638Y-126309529D01*
X165515942Y-126247127D01*
X165462874Y-126194058D01*
X165400471Y-126152362D01*
X165331134Y-126123642D01*
X165257525Y-126109000D01*
X165182475Y-126109000D01*
X164272475Y-126109000D01*
X164198867Y-126123642D01*
X164198320Y-126123868D01*
X164193572Y-126100000D01*
X164206000Y-126037525D01*
X164206000Y-125962475D01*
X164206000Y-125512475D01*
X164193572Y-125450000D01*
X164206000Y-125387525D01*
X164206000Y-125312475D01*
X164206000Y-124862475D01*
X164191358Y-124788867D01*
X164162638Y-124719529D01*
X164120942Y-124657127D01*
X164067874Y-124604058D01*
X164005471Y-124562362D01*
X163936134Y-124533642D01*
X163862525Y-124519000D01*
X163787475Y-124519000D01*
X162337475Y-124519000D01*
X162263867Y-124533642D01*
X162194529Y-124562362D01*
X162132127Y-124604058D01*
X162079058Y-124657126D01*
X162037362Y-124719529D01*
X162008642Y-124788866D01*
X161994000Y-124862475D01*
X161994000Y-124937525D01*
X161994000Y-125387525D01*
X162006427Y-125449999D01*
X161994000Y-125512475D01*
X161994000Y-125587525D01*
X161994000Y-125844000D01*
X160774420Y-125844000D01*
X161209210Y-125409210D01*
X161238976Y-125372971D01*
X161269158Y-125337003D01*
X161270445Y-125334660D01*
X161272140Y-125332598D01*
X161294300Y-125291269D01*
X161316921Y-125250122D01*
X161317729Y-125247574D01*
X161318991Y-125245221D01*
X161332711Y-125200343D01*
X161346899Y-125155619D01*
X161347196Y-125152965D01*
X161347978Y-125150410D01*
X161352723Y-125103687D01*
X161357950Y-125057093D01*
X161357986Y-125051873D01*
X161357997Y-125051773D01*
X161357988Y-125051679D01*
X161358000Y-125050000D01*
X161358000Y-124196945D01*
X161380471Y-124187638D01*
X161442873Y-124145942D01*
X161495942Y-124092874D01*
X161537638Y-124030471D01*
X161566358Y-123961134D01*
X161581000Y-123887525D01*
X161581000Y-123812475D01*
X161581000Y-122512475D01*
X161566358Y-122438867D01*
X161537638Y-122369529D01*
X161495942Y-122307127D01*
X161442874Y-122254058D01*
X161380471Y-122212362D01*
X161358000Y-122203054D01*
X161358000Y-122096945D01*
X161380471Y-122087638D01*
X161442873Y-122045942D01*
X161495942Y-121992874D01*
X161537638Y-121930471D01*
X161566358Y-121861134D01*
X161581000Y-121787525D01*
X161581000Y-121712475D01*
X161581000Y-120412475D01*
X161566358Y-120338867D01*
X161537638Y-120269529D01*
X161495942Y-120207127D01*
X161442874Y-120154058D01*
X161380471Y-120112362D01*
X161311134Y-120083642D01*
X161237525Y-120069000D01*
X161162475Y-120069000D01*
X160462475Y-120069000D01*
X160388867Y-120083642D01*
X160319529Y-120112362D01*
X160257127Y-120154058D01*
X160204058Y-120207126D01*
X160162362Y-120269529D01*
X160133642Y-120338866D01*
X160119000Y-120412475D01*
X160119000Y-120487525D01*
X160119000Y-121787525D01*
X160133642Y-121861133D01*
X160162362Y-121930471D01*
X160204058Y-121992873D01*
X160257126Y-122045942D01*
X160319529Y-122087638D01*
X160342000Y-122096945D01*
X160342000Y-122203054D01*
X160319529Y-122212362D01*
X160257127Y-122254058D01*
X160204058Y-122307126D01*
X160162362Y-122369529D01*
X160133642Y-122438866D01*
X160119000Y-122512475D01*
X160119000Y-122587525D01*
X160119000Y-123887525D01*
X160133642Y-123961133D01*
X160162362Y-124030471D01*
X160204058Y-124092873D01*
X160257126Y-124145942D01*
X160319529Y-124187638D01*
X160342000Y-124196945D01*
X160342000Y-124839580D01*
X159914580Y-125267000D01*
X159806000Y-125267000D01*
X159806000Y-124862475D01*
X159791358Y-124788867D01*
X159762638Y-124719529D01*
X159720942Y-124657127D01*
X159681000Y-124617184D01*
X159681000Y-123887525D01*
X159681000Y-123812475D01*
X159681000Y-122512475D01*
X159666358Y-122438867D01*
X159637638Y-122369529D01*
X159595942Y-122307127D01*
X159542874Y-122254058D01*
X159480471Y-122212362D01*
X159458000Y-122203054D01*
X159458000Y-122071945D01*
X159480471Y-122062638D01*
X159542873Y-122020942D01*
X159595942Y-121967874D01*
X159637638Y-121905471D01*
X159666358Y-121836134D01*
X159681000Y-121762525D01*
X159681000Y-121687475D01*
X159681000Y-120437475D01*
X159666358Y-120363867D01*
X159637638Y-120294529D01*
X159595942Y-120232127D01*
X159542874Y-120179058D01*
X159480471Y-120137362D01*
X159411134Y-120108642D01*
X159337525Y-120094000D01*
X159262475Y-120094000D01*
X158262475Y-120094000D01*
X158188867Y-120108642D01*
X158119529Y-120137362D01*
X158057127Y-120179058D01*
X158004058Y-120232126D01*
X157962362Y-120294529D01*
X157933642Y-120363866D01*
X157919000Y-120437475D01*
X157919000Y-120512525D01*
X157919000Y-121762525D01*
X157933642Y-121836133D01*
X157962362Y-121905471D01*
X158004058Y-121967873D01*
X158057126Y-122020942D01*
X158119529Y-122062638D01*
X158188866Y-122091358D01*
X158262475Y-122106000D01*
X158337525Y-122106000D01*
X158442000Y-122106000D01*
X158442000Y-122203054D01*
X158419529Y-122212362D01*
X158357127Y-122254058D01*
X158304058Y-122307126D01*
X158262362Y-122369529D01*
X158233642Y-122438866D01*
X158219000Y-122512475D01*
X158219000Y-122587525D01*
X158219000Y-123887525D01*
X158233642Y-123961133D01*
X158262362Y-124030471D01*
X158304058Y-124092873D01*
X158357126Y-124145942D01*
X158419529Y-124187638D01*
X158488866Y-124216358D01*
X158562475Y-124231000D01*
X158637525Y-124231000D01*
X159337525Y-124231000D01*
X159411133Y-124216358D01*
X159480471Y-124187638D01*
X159542873Y-124145942D01*
X159595942Y-124092874D01*
X159637638Y-124030471D01*
X159666358Y-123961134D01*
X159681000Y-123887525D01*
X159681000Y-124617184D01*
X159667874Y-124604058D01*
X159605471Y-124562362D01*
X159536134Y-124533642D01*
X159462525Y-124519000D01*
X159387475Y-124519000D01*
X158779977Y-124519000D01*
X157781000Y-123641110D01*
X157781000Y-122512475D01*
X157766358Y-122438867D01*
X157737638Y-122369529D01*
X157695942Y-122307127D01*
X157681000Y-122292184D01*
X157681000Y-121762525D01*
X157681000Y-121687475D01*
X157681000Y-121322250D01*
X157681000Y-120877750D01*
X157681000Y-120512525D01*
X157681000Y-120437475D01*
X157666358Y-120363866D01*
X157637638Y-120294529D01*
X157595942Y-120232126D01*
X157542873Y-120179058D01*
X157480471Y-120137362D01*
X157411133Y-120108642D01*
X157337525Y-120094000D01*
X157022250Y-120094000D01*
X156927000Y-120189250D01*
X156927000Y-120973000D01*
X157585750Y-120973000D01*
X157681000Y-120877750D01*
X157681000Y-121322250D01*
X157585750Y-121227000D01*
X156927000Y-121227000D01*
X156927000Y-122010750D01*
X157022250Y-122106000D01*
X157337525Y-122106000D01*
X157411133Y-122091358D01*
X157480471Y-122062638D01*
X157542873Y-122020942D01*
X157595942Y-121967874D01*
X157637638Y-121905471D01*
X157666358Y-121836134D01*
X157681000Y-121762525D01*
X157681000Y-122292184D01*
X157642874Y-122254058D01*
X157580471Y-122212362D01*
X157511134Y-122183642D01*
X157437525Y-122169000D01*
X157362475Y-122169000D01*
X156673000Y-122169000D01*
X156673000Y-122010750D01*
X156673000Y-121227000D01*
X156673000Y-120973000D01*
X156673000Y-120189250D01*
X156577750Y-120094000D01*
X156262475Y-120094000D01*
X156188867Y-120108642D01*
X156119529Y-120137362D01*
X156057127Y-120179058D01*
X156004058Y-120232126D01*
X155962362Y-120294529D01*
X155933642Y-120363866D01*
X155919000Y-120437475D01*
X155919000Y-120512525D01*
X155919000Y-120877750D01*
X156014250Y-120973000D01*
X156673000Y-120973000D01*
X156673000Y-121227000D01*
X156014250Y-121227000D01*
X155919000Y-121322250D01*
X155919000Y-121687475D01*
X155919000Y-121762525D01*
X155933642Y-121836134D01*
X155962362Y-121905471D01*
X156004058Y-121967874D01*
X156057127Y-122020942D01*
X156119529Y-122062638D01*
X156188867Y-122091358D01*
X156262475Y-122106000D01*
X156577750Y-122106000D01*
X156673000Y-122010750D01*
X156673000Y-122169000D01*
X156662475Y-122169000D01*
X156588867Y-122183642D01*
X156519529Y-122212362D01*
X156457127Y-122254058D01*
X156404058Y-122307126D01*
X156362362Y-122369529D01*
X156333642Y-122438866D01*
X156319000Y-122512475D01*
X156319000Y-122587525D01*
X156319000Y-123887525D01*
X156333642Y-123961133D01*
X156362362Y-124030471D01*
X156404058Y-124092873D01*
X156457126Y-124145942D01*
X156519529Y-124187638D01*
X156588866Y-124216358D01*
X156662475Y-124231000D01*
X156737525Y-124231000D01*
X156913126Y-124231000D01*
X157599609Y-124834273D01*
X157594000Y-124862475D01*
X157594000Y-124937525D01*
X157594000Y-125387525D01*
X157606427Y-125449999D01*
X157594000Y-125512475D01*
X157594000Y-125587525D01*
X157594000Y-125844000D01*
X157100000Y-125844000D01*
X156415658Y-125844000D01*
X156331000Y-125759342D01*
X156331000Y-124862475D01*
X156316358Y-124788867D01*
X156287638Y-124719529D01*
X156245942Y-124657127D01*
X156192874Y-124604058D01*
X156130471Y-124562362D01*
X156061134Y-124533642D01*
X155987525Y-124519000D01*
X155912475Y-124519000D01*
X155731000Y-124519000D01*
X155731000Y-120361368D01*
X156261368Y-119831000D01*
X164938631Y-119831000D01*
X165653815Y-120546184D01*
X165698851Y-120583177D01*
X165743506Y-120620647D01*
X165746413Y-120622245D01*
X165748977Y-120624351D01*
X165800385Y-120651916D01*
X165851423Y-120679974D01*
X165854580Y-120680975D01*
X165857509Y-120682546D01*
X165913304Y-120699603D01*
X165968808Y-120717211D01*
X165972104Y-120717580D01*
X165975278Y-120718551D01*
X166033289Y-120724443D01*
X166091190Y-120730938D01*
X166097675Y-120730983D01*
X166097797Y-120730996D01*
X166097910Y-120730985D01*
X166100000Y-120731000D01*
X171319000Y-120731000D01*
X171319000Y-120787525D01*
X171333642Y-120861133D01*
X171362362Y-120930471D01*
X171404058Y-120992873D01*
X171457126Y-121045942D01*
X171519529Y-121087638D01*
X171588866Y-121116358D01*
X171662475Y-121131000D01*
X171737525Y-121131000D01*
X173237525Y-121131000D01*
X173311133Y-121116358D01*
X173380471Y-121087638D01*
X173442873Y-121045942D01*
X173495942Y-120992874D01*
X173537638Y-120930471D01*
X173566358Y-120861134D01*
X173581000Y-120787525D01*
X173581000Y-124319000D01*
X172278000Y-124319000D01*
X172278000Y-123862475D01*
X172263358Y-123788867D01*
X172234638Y-123719529D01*
X172192942Y-123657127D01*
X172139874Y-123604058D01*
X172077471Y-123562362D01*
X172008134Y-123533642D01*
X171934525Y-123519000D01*
X171859475Y-123519000D01*
X169940658Y-123519000D01*
X169210829Y-122789171D01*
X169169357Y-122755105D01*
X169128246Y-122720609D01*
X169125568Y-122719137D01*
X169123208Y-122717198D01*
X169075933Y-122691850D01*
X169028880Y-122665982D01*
X169025964Y-122665057D01*
X169023275Y-122663615D01*
X168972016Y-122647943D01*
X168920797Y-122631696D01*
X168917756Y-122631354D01*
X168914839Y-122630463D01*
X168861483Y-122625043D01*
X168808112Y-122619057D01*
X168802137Y-122619015D01*
X168802029Y-122619004D01*
X168801927Y-122619013D01*
X168800000Y-122619000D01*
X163481000Y-122619000D01*
X163481000Y-122512475D01*
X163481000Y-121787525D01*
X163481000Y-121712475D01*
X163481000Y-121322250D01*
X163481000Y-120877750D01*
X163481000Y-120487525D01*
X163481000Y-120412475D01*
X163466358Y-120338866D01*
X163437638Y-120269529D01*
X163395942Y-120207126D01*
X163342873Y-120154058D01*
X163280471Y-120112362D01*
X163211133Y-120083642D01*
X163137525Y-120069000D01*
X162972250Y-120069000D01*
X162877000Y-120164250D01*
X162877000Y-120973000D01*
X163385750Y-120973000D01*
X163481000Y-120877750D01*
X163481000Y-121322250D01*
X163385750Y-121227000D01*
X162877000Y-121227000D01*
X162877000Y-122035750D01*
X162972250Y-122131000D01*
X163137525Y-122131000D01*
X163211133Y-122116358D01*
X163280471Y-122087638D01*
X163342873Y-122045942D01*
X163395942Y-121992874D01*
X163437638Y-121930471D01*
X163466358Y-121861134D01*
X163481000Y-121787525D01*
X163481000Y-122512475D01*
X163466358Y-122438867D01*
X163437638Y-122369529D01*
X163395942Y-122307127D01*
X163342874Y-122254058D01*
X163280471Y-122212362D01*
X163211134Y-122183642D01*
X163137525Y-122169000D01*
X163062475Y-122169000D01*
X162623000Y-122169000D01*
X162623000Y-122035750D01*
X162623000Y-121227000D01*
X162623000Y-120973000D01*
X162623000Y-120164250D01*
X162527750Y-120069000D01*
X162362475Y-120069000D01*
X162288867Y-120083642D01*
X162219529Y-120112362D01*
X162157127Y-120154058D01*
X162104058Y-120207126D01*
X162062362Y-120269529D01*
X162033642Y-120338866D01*
X162019000Y-120412475D01*
X162019000Y-120487525D01*
X162019000Y-120877750D01*
X162114250Y-120973000D01*
X162623000Y-120973000D01*
X162623000Y-121227000D01*
X162114250Y-121227000D01*
X162019000Y-121322250D01*
X162019000Y-121712475D01*
X162019000Y-121787525D01*
X162033642Y-121861134D01*
X162062362Y-121930471D01*
X162104058Y-121992874D01*
X162157127Y-122045942D01*
X162219529Y-122087638D01*
X162288867Y-122116358D01*
X162362475Y-122131000D01*
X162527750Y-122131000D01*
X162623000Y-122035750D01*
X162623000Y-122169000D01*
X162362475Y-122169000D01*
X162288867Y-122183642D01*
X162219529Y-122212362D01*
X162157127Y-122254058D01*
X162104058Y-122307126D01*
X162062362Y-122369529D01*
X162033642Y-122438866D01*
X162019000Y-122512475D01*
X162019000Y-122587525D01*
X162019000Y-123887525D01*
X162033642Y-123961133D01*
X162062362Y-124030471D01*
X162104058Y-124092873D01*
X162157126Y-124145942D01*
X162219529Y-124187638D01*
X162288866Y-124216358D01*
X162362475Y-124231000D01*
X162437525Y-124231000D01*
X163137525Y-124231000D01*
X163211133Y-124216358D01*
X163280471Y-124187638D01*
X163342873Y-124145942D01*
X163395942Y-124092874D01*
X163437638Y-124030471D01*
X163466358Y-123961134D01*
X163481000Y-123887525D01*
X163481000Y-123812475D01*
X163481000Y-123781000D01*
X168559342Y-123781000D01*
X168722000Y-123943658D01*
X168722000Y-125591342D01*
X168204342Y-126109000D01*
X167542475Y-126109000D01*
X167468867Y-126123642D01*
X167399529Y-126152362D01*
X167337127Y-126194058D01*
X167284058Y-126247126D01*
X167242362Y-126309529D01*
X167213642Y-126378866D01*
X167199000Y-126452475D01*
X167199000Y-126527525D01*
X167199000Y-127114342D01*
X167189171Y-127124171D01*
X167155105Y-127165642D01*
X167120609Y-127206754D01*
X167119137Y-127209431D01*
X167117198Y-127211792D01*
X167091850Y-127259066D01*
X167065982Y-127306120D01*
X167065057Y-127309035D01*
X167063615Y-127311725D01*
X167047943Y-127362983D01*
X167031696Y-127414203D01*
X167031354Y-127417243D01*
X167030463Y-127420161D01*
X167025043Y-127473516D01*
X167019057Y-127526888D01*
X167019015Y-127532862D01*
X167019004Y-127532971D01*
X167019013Y-127533072D01*
X167019000Y-127535000D01*
X167019000Y-130559342D01*
X166189171Y-131389171D01*
X166162204Y-131422000D01*
X165562475Y-131422000D01*
X165488867Y-131436642D01*
X165419529Y-131465362D01*
X165357127Y-131507058D01*
X165304058Y-131560126D01*
X165262362Y-131622529D01*
X165233642Y-131691866D01*
X165219000Y-131765475D01*
X165219000Y-131840525D01*
X165219000Y-134634525D01*
X165233642Y-134708133D01*
X165262362Y-134777471D01*
X165304058Y-134839873D01*
X165357126Y-134892942D01*
X165419529Y-134934638D01*
X165488866Y-134963358D01*
X165562475Y-134978000D01*
X165637525Y-134978000D01*
X165994000Y-134978000D01*
X165994000Y-135660000D01*
X165965975Y-135660000D01*
X165892367Y-135674642D01*
X165823029Y-135703362D01*
X165760627Y-135745058D01*
X165707558Y-135798126D01*
X165665862Y-135860529D01*
X165637142Y-135929866D01*
X165622500Y-136003475D01*
X165622500Y-136078525D01*
X165622500Y-136586525D01*
X165637142Y-136660133D01*
X165665862Y-136729471D01*
X165707558Y-136791873D01*
X165760626Y-136844942D01*
X165823029Y-136886638D01*
X165892366Y-136915358D01*
X165965975Y-136930000D01*
X165892367Y-136944642D01*
X165823029Y-136973362D01*
X165760627Y-137015058D01*
X165707558Y-137068126D01*
X165665862Y-137130529D01*
X165637142Y-137199866D01*
X165622500Y-137273475D01*
X165622500Y-137348525D01*
X165622500Y-137856525D01*
X165637142Y-137930133D01*
X165665862Y-137999471D01*
X165707558Y-138061873D01*
X165760626Y-138114942D01*
X165823029Y-138156638D01*
X165892366Y-138185358D01*
X165965975Y-138200000D01*
X165892367Y-138214642D01*
X165823029Y-138243362D01*
X165760627Y-138285058D01*
X165707558Y-138338126D01*
X165665862Y-138400529D01*
X165637142Y-138469866D01*
X165622500Y-138543475D01*
X165622500Y-138618525D01*
X165622500Y-139126525D01*
X165637142Y-139200133D01*
X165665862Y-139269471D01*
X165707558Y-139331873D01*
X165760626Y-139384942D01*
X165823029Y-139426638D01*
X165892366Y-139455358D01*
X165965975Y-139470000D01*
X165892367Y-139484642D01*
X165823029Y-139513362D01*
X165760627Y-139555058D01*
X165707558Y-139608126D01*
X165665862Y-139670529D01*
X165637142Y-139739866D01*
X165622500Y-139813475D01*
X165622500Y-139888525D01*
X165622500Y-140396525D01*
X165637142Y-140470133D01*
X165665862Y-140539471D01*
X165707558Y-140601873D01*
X165760626Y-140654942D01*
X165823029Y-140696638D01*
X165892366Y-140725358D01*
X165965975Y-140740000D01*
X166041025Y-140740000D01*
X167184025Y-140740000D01*
X167257633Y-140725358D01*
X167326971Y-140696638D01*
X167342891Y-140686000D01*
X167594140Y-140686000D01*
X167647534Y-140680764D01*
X167701016Y-140676086D01*
X167703952Y-140675232D01*
X167706990Y-140674935D01*
X167758340Y-140659431D01*
X167809905Y-140644450D01*
X167812617Y-140643043D01*
X167815542Y-140642161D01*
X167862896Y-140616981D01*
X167910575Y-140592268D01*
X167912965Y-140590359D01*
X167915660Y-140588927D01*
X167957226Y-140555026D01*
X167999193Y-140521525D01*
X168003444Y-140517332D01*
X168003532Y-140517261D01*
X168003598Y-140517180D01*
X168004969Y-140515829D01*
X169943860Y-138576937D01*
X169962375Y-138580620D01*
X170037425Y-138580620D01*
X171637625Y-138580620D01*
X171711233Y-138565978D01*
X171780571Y-138537258D01*
X171842973Y-138495562D01*
X171896042Y-138442494D01*
X171937738Y-138380091D01*
X171966458Y-138310754D01*
X171981100Y-138237145D01*
X171981100Y-138162095D01*
X171981100Y-137480140D01*
X176758482Y-137480140D01*
X180689171Y-141410829D01*
X180730642Y-141444894D01*
X180771754Y-141479391D01*
X180774431Y-141480862D01*
X180776792Y-141482802D01*
X180824066Y-141508149D01*
X180871120Y-141534018D01*
X180874035Y-141534942D01*
X180876725Y-141536385D01*
X180927983Y-141552056D01*
X180979203Y-141568304D01*
X180982243Y-141568645D01*
X180985161Y-141569537D01*
X181038561Y-141574961D01*
X181091888Y-141580943D01*
X181097851Y-141580984D01*
X181097971Y-141580997D01*
X181098081Y-141580986D01*
X181100000Y-141581000D01*
X183745215Y-141581000D01*
X183766228Y-141634073D01*
X183912884Y-141861638D01*
X184100948Y-142056383D01*
X184323256Y-142210891D01*
X184571341Y-142319277D01*
X184835754Y-142377412D01*
X185106422Y-142383082D01*
X185373038Y-142336070D01*
X185625444Y-142238168D01*
X185854027Y-142093105D01*
X186050081Y-141906405D01*
X186206137Y-141685181D01*
X186316252Y-141437859D01*
X186376232Y-141173859D01*
X186380550Y-140864636D01*
X186380550Y-142359317D01*
X186252119Y-142485086D01*
X186043712Y-142789457D01*
X185898393Y-143128510D01*
X185821698Y-143489332D01*
X185816548Y-143858180D01*
X185883138Y-144221002D01*
X186018933Y-144563981D01*
X186218760Y-144874052D01*
X186475008Y-145139404D01*
X186777916Y-145349931D01*
X187115947Y-145497613D01*
X187476225Y-145576825D01*
X187845027Y-145584550D01*
X188208306Y-145520495D01*
X188552224Y-145387097D01*
X188863682Y-145189440D01*
X189130817Y-144935051D01*
X189343453Y-144633620D01*
X189493491Y-144296629D01*
X189575217Y-143936912D01*
X189581100Y-143515578D01*
X189581100Y-145873000D01*
X184181060Y-145873000D01*
X184181060Y-143515578D01*
X184109411Y-143153721D01*
X183968840Y-142812671D01*
X183764703Y-142505421D01*
X183504776Y-142243672D01*
X183198958Y-142037395D01*
X182858898Y-141894447D01*
X182497549Y-141820273D01*
X182128675Y-141817698D01*
X181766326Y-141886820D01*
X181424304Y-142025006D01*
X181115636Y-142226993D01*
X180852079Y-142485086D01*
X180643672Y-142789457D01*
X180498353Y-143128510D01*
X180421658Y-143489332D01*
X180416508Y-143858180D01*
X180483098Y-144221002D01*
X180618893Y-144563981D01*
X180818720Y-144874052D01*
X181074968Y-145139404D01*
X181377876Y-145349931D01*
X181715907Y-145497613D01*
X182076185Y-145576825D01*
X182444987Y-145584550D01*
X182808266Y-145520495D01*
X183152184Y-145387097D01*
X183463642Y-145189440D01*
X183730777Y-144935051D01*
X183943413Y-144633620D01*
X184093451Y-144296629D01*
X184175177Y-143936912D01*
X184181060Y-143515578D01*
X184181060Y-145873000D01*
X178581000Y-145873000D01*
X178581000Y-143617525D01*
X178581000Y-143542475D01*
X178581000Y-143267525D01*
X178581000Y-143192475D01*
X178581000Y-142152250D01*
X178581000Y-141707750D01*
X178581000Y-140667525D01*
X178581000Y-140592475D01*
X178581000Y-140317525D01*
X178581000Y-140242475D01*
X178566358Y-140168866D01*
X178537638Y-140099529D01*
X178495942Y-140037126D01*
X178442873Y-139984058D01*
X178380471Y-139942362D01*
X178311133Y-139913642D01*
X178237525Y-139899000D01*
X177922250Y-139899000D01*
X177827000Y-139994250D01*
X177827000Y-140344250D01*
X177827000Y-141803000D01*
X178485750Y-141803000D01*
X178581000Y-141707750D01*
X178581000Y-142152250D01*
X178485750Y-142057000D01*
X177827000Y-142057000D01*
X177827000Y-142077000D01*
X177573000Y-142077000D01*
X177573000Y-142057000D01*
X177573000Y-141803000D01*
X177573000Y-140344250D01*
X177573000Y-139994250D01*
X177477750Y-139899000D01*
X177162475Y-139899000D01*
X177088867Y-139913642D01*
X177019529Y-139942362D01*
X176957127Y-139984058D01*
X176904058Y-140037126D01*
X176862362Y-140099529D01*
X176833642Y-140168866D01*
X176819000Y-140242475D01*
X176819000Y-140317525D01*
X176819000Y-140592475D01*
X176819000Y-140667525D01*
X176819000Y-141707750D01*
X176914250Y-141803000D01*
X177573000Y-141803000D01*
X177573000Y-142057000D01*
X176914250Y-142057000D01*
X176819000Y-142152250D01*
X176819000Y-142319000D01*
X176652250Y-142319000D01*
X176557000Y-142414250D01*
X176557000Y-143073000D01*
X176577000Y-143073000D01*
X176577000Y-143327000D01*
X176557000Y-143327000D01*
X176557000Y-143985750D01*
X176652250Y-144081000D01*
X178117525Y-144081000D01*
X178191133Y-144066358D01*
X178260471Y-144037638D01*
X178322873Y-143995942D01*
X178375942Y-143942874D01*
X178402751Y-143902750D01*
X178442873Y-143875942D01*
X178495942Y-143822874D01*
X178537638Y-143760471D01*
X178566358Y-143691134D01*
X178581000Y-143617525D01*
X178581000Y-145873000D01*
X176303000Y-145873000D01*
X176303000Y-143985750D01*
X176303000Y-143327000D01*
X176303000Y-143073000D01*
X176303000Y-142414250D01*
X176207750Y-142319000D01*
X174742475Y-142319000D01*
X174668867Y-142333642D01*
X174599529Y-142362362D01*
X174537127Y-142404058D01*
X174484058Y-142457126D01*
X174442362Y-142519529D01*
X174413642Y-142588866D01*
X174399000Y-142662475D01*
X174399000Y-142737525D01*
X174399000Y-142977750D01*
X174494250Y-143073000D01*
X176303000Y-143073000D01*
X176303000Y-143327000D01*
X174494250Y-143327000D01*
X174399000Y-143422250D01*
X174399000Y-143662475D01*
X174399000Y-143737525D01*
X174413642Y-143811134D01*
X174442362Y-143880471D01*
X174484058Y-143942874D01*
X174537127Y-143995942D01*
X174599529Y-144037638D01*
X174668867Y-144066358D01*
X174742475Y-144081000D01*
X176207750Y-144081000D01*
X176303000Y-143985750D01*
X176303000Y-145873000D01*
X173031000Y-145873000D01*
X173031000Y-143737525D01*
X173031000Y-143662475D01*
X173031000Y-143422250D01*
X173031000Y-142977750D01*
X173031000Y-142737525D01*
X173031000Y-142662475D01*
X173016358Y-142588866D01*
X172987638Y-142519529D01*
X172945942Y-142457126D01*
X172892873Y-142404058D01*
X172830471Y-142362362D01*
X172761133Y-142333642D01*
X172687525Y-142319000D01*
X171981100Y-142319000D01*
X171981100Y-141838865D01*
X171981100Y-140723110D01*
X171981100Y-140278610D01*
X171981100Y-139162855D01*
X171966458Y-139089247D01*
X171937738Y-139019909D01*
X171896042Y-138957507D01*
X171842974Y-138904438D01*
X171780571Y-138862742D01*
X171711234Y-138834022D01*
X171637625Y-138819380D01*
X171562575Y-138819380D01*
X171022250Y-138819380D01*
X170927000Y-138914630D01*
X170927000Y-140373860D01*
X171885850Y-140373860D01*
X171981100Y-140278610D01*
X171981100Y-140723110D01*
X171885850Y-140627860D01*
X170927000Y-140627860D01*
X170927000Y-142087090D01*
X171022250Y-142182340D01*
X171562575Y-142182340D01*
X171637625Y-142182340D01*
X171711234Y-142167698D01*
X171780571Y-142138978D01*
X171842974Y-142097282D01*
X171896042Y-142044213D01*
X171937738Y-141981811D01*
X171966458Y-141912473D01*
X171981100Y-141838865D01*
X171981100Y-142319000D01*
X171572250Y-142319000D01*
X171477000Y-142414250D01*
X171477000Y-143073000D01*
X172935750Y-143073000D01*
X173031000Y-142977750D01*
X173031000Y-143422250D01*
X172935750Y-143327000D01*
X171477000Y-143327000D01*
X171477000Y-143985750D01*
X171572250Y-144081000D01*
X172687525Y-144081000D01*
X172761133Y-144066358D01*
X172830471Y-144037638D01*
X172892873Y-143995942D01*
X172945942Y-143942874D01*
X172987638Y-143880471D01*
X173016358Y-143811134D01*
X173031000Y-143737525D01*
X173031000Y-145873000D01*
X171223000Y-145873000D01*
X171223000Y-143985750D01*
X171223000Y-143327000D01*
X171223000Y-143073000D01*
X171223000Y-142414250D01*
X171127750Y-142319000D01*
X170673000Y-142319000D01*
X170673000Y-142087090D01*
X170673000Y-140627860D01*
X170673000Y-140373860D01*
X170673000Y-138914630D01*
X170577750Y-138819380D01*
X170037425Y-138819380D01*
X169962375Y-138819380D01*
X169888766Y-138834022D01*
X169819429Y-138862742D01*
X169757026Y-138904438D01*
X169703958Y-138957507D01*
X169662262Y-139019909D01*
X169633542Y-139089247D01*
X169618900Y-139162855D01*
X169618900Y-140278610D01*
X169714150Y-140373860D01*
X170673000Y-140373860D01*
X170673000Y-140627860D01*
X169714150Y-140627860D01*
X169618900Y-140723110D01*
X169618900Y-141838865D01*
X169633542Y-141912473D01*
X169662262Y-141981811D01*
X169703958Y-142044213D01*
X169757026Y-142097282D01*
X169819429Y-142138978D01*
X169888766Y-142167698D01*
X169962375Y-142182340D01*
X170037425Y-142182340D01*
X170577750Y-142182340D01*
X170673000Y-142087090D01*
X170673000Y-142319000D01*
X170012475Y-142319000D01*
X169938867Y-142333642D01*
X169869529Y-142362362D01*
X169807127Y-142404058D01*
X169754058Y-142457126D01*
X169712362Y-142519529D01*
X169683642Y-142588866D01*
X169669000Y-142662475D01*
X169669000Y-142737525D01*
X169669000Y-142977750D01*
X169764250Y-143073000D01*
X171223000Y-143073000D01*
X171223000Y-143327000D01*
X169764250Y-143327000D01*
X169669000Y-143422250D01*
X169669000Y-143662475D01*
X169669000Y-143737525D01*
X169683642Y-143811134D01*
X169712362Y-143880471D01*
X169754058Y-143942874D01*
X169807127Y-143995942D01*
X169869529Y-144037638D01*
X169938867Y-144066358D01*
X170012475Y-144081000D01*
X171127750Y-144081000D01*
X171223000Y-143985750D01*
X171223000Y-145873000D01*
X167931000Y-145873000D01*
X167931000Y-143737525D01*
X167931000Y-143662475D01*
X167931000Y-143422250D01*
X167931000Y-142977750D01*
X167931000Y-142737525D01*
X167931000Y-142662475D01*
X167916358Y-142588866D01*
X167887638Y-142519529D01*
X167845942Y-142457126D01*
X167792873Y-142404058D01*
X167730471Y-142362362D01*
X167661133Y-142333642D01*
X167587525Y-142319000D01*
X165222250Y-142319000D01*
X165127000Y-142414250D01*
X165127000Y-143073000D01*
X167835750Y-143073000D01*
X167931000Y-142977750D01*
X167931000Y-143422250D01*
X167835750Y-143327000D01*
X165127000Y-143327000D01*
X165127000Y-143985750D01*
X165222250Y-144081000D01*
X167587525Y-144081000D01*
X167661133Y-144066358D01*
X167730471Y-144037638D01*
X167792873Y-143995942D01*
X167845942Y-143942874D01*
X167887638Y-143880471D01*
X167916358Y-143811134D01*
X167931000Y-143737525D01*
X167931000Y-145873000D01*
X164873000Y-145873000D01*
X164873000Y-143985750D01*
X164873000Y-143327000D01*
X164873000Y-143073000D01*
X164873000Y-142414250D01*
X164777750Y-142319000D01*
X162412475Y-142319000D01*
X162338867Y-142333642D01*
X162269529Y-142362362D01*
X162207127Y-142404058D01*
X162154058Y-142457126D01*
X162112362Y-142519529D01*
X162083642Y-142588866D01*
X162069000Y-142662475D01*
X162069000Y-142737525D01*
X162069000Y-142977750D01*
X162164250Y-143073000D01*
X164873000Y-143073000D01*
X164873000Y-143327000D01*
X162164250Y-143327000D01*
X162069000Y-143422250D01*
X162069000Y-143662475D01*
X162069000Y-143737525D01*
X162083642Y-143811134D01*
X162112362Y-143880471D01*
X162154058Y-143942874D01*
X162207127Y-143995942D01*
X162269529Y-144037638D01*
X162338867Y-144066358D01*
X162412475Y-144081000D01*
X164777750Y-144081000D01*
X164873000Y-143985750D01*
X164873000Y-145873000D01*
X161177500Y-145873000D01*
X161177500Y-140396525D01*
X161177500Y-140321475D01*
X161177500Y-139813475D01*
X161162858Y-139739867D01*
X161134138Y-139670529D01*
X161092442Y-139608127D01*
X161039374Y-139555058D01*
X160976971Y-139513362D01*
X160907634Y-139484642D01*
X160834025Y-139470000D01*
X160907634Y-139455358D01*
X160976971Y-139426638D01*
X161039374Y-139384942D01*
X161092442Y-139331873D01*
X161134138Y-139269471D01*
X161162858Y-139200133D01*
X161177500Y-139126525D01*
X161177500Y-139057250D01*
X161177500Y-138612750D01*
X161177500Y-138543475D01*
X161162858Y-138469867D01*
X161134138Y-138400529D01*
X161092442Y-138338127D01*
X161039374Y-138285058D01*
X160976971Y-138243362D01*
X160907634Y-138214642D01*
X160834025Y-138200000D01*
X160907633Y-138185358D01*
X160976971Y-138156638D01*
X161039373Y-138114942D01*
X161092442Y-138061874D01*
X161134138Y-137999471D01*
X161162858Y-137930134D01*
X161177500Y-137856525D01*
X161177500Y-137781475D01*
X161177500Y-137273475D01*
X161162858Y-137199867D01*
X161134138Y-137130529D01*
X161092442Y-137068127D01*
X161039374Y-137015058D01*
X160976971Y-136973362D01*
X160907634Y-136944642D01*
X160834025Y-136930000D01*
X160907633Y-136915358D01*
X160976971Y-136886638D01*
X161039373Y-136844942D01*
X161092442Y-136791874D01*
X161134138Y-136729471D01*
X161162858Y-136660134D01*
X161177500Y-136586525D01*
X161177500Y-136511475D01*
X161177500Y-136003475D01*
X161162858Y-135929867D01*
X161134138Y-135860529D01*
X161092442Y-135798127D01*
X161039374Y-135745058D01*
X160976971Y-135703362D01*
X160907634Y-135674642D01*
X160834025Y-135660000D01*
X160758975Y-135660000D01*
X159615975Y-135660000D01*
X159542367Y-135674642D01*
X159473029Y-135703362D01*
X159410627Y-135745058D01*
X159357558Y-135798126D01*
X159315862Y-135860529D01*
X159287142Y-135929866D01*
X159272500Y-136003475D01*
X159272500Y-136078525D01*
X159272500Y-136586525D01*
X159287142Y-136660133D01*
X159315862Y-136729471D01*
X159357558Y-136791873D01*
X159410626Y-136844942D01*
X159473029Y-136886638D01*
X159542366Y-136915358D01*
X159615975Y-136930000D01*
X159542367Y-136944642D01*
X159473029Y-136973362D01*
X159457108Y-136984000D01*
X157581100Y-136984000D01*
X157581100Y-135361135D01*
X157566458Y-135287527D01*
X157537738Y-135218189D01*
X157496042Y-135155787D01*
X157442974Y-135102718D01*
X157380571Y-135061022D01*
X157311234Y-135032302D01*
X157237625Y-135017660D01*
X157162575Y-135017660D01*
X156331000Y-135017660D01*
X156331000Y-128737525D01*
X156331000Y-128472250D01*
X156331000Y-128027750D01*
X156331000Y-127762475D01*
X156316358Y-127688867D01*
X156287638Y-127619529D01*
X156245942Y-127557127D01*
X156192874Y-127504058D01*
X156130471Y-127462362D01*
X156061134Y-127433642D01*
X155987525Y-127419000D01*
X155912475Y-127419000D01*
X155322250Y-127419000D01*
X155227000Y-127514250D01*
X155227000Y-128123000D01*
X156235750Y-128123000D01*
X156331000Y-128027750D01*
X156331000Y-128472250D01*
X156235750Y-128377000D01*
X155227000Y-128377000D01*
X155227000Y-128985750D01*
X155322250Y-129081000D01*
X155912475Y-129081000D01*
X155987525Y-129081000D01*
X156061134Y-129066358D01*
X156130471Y-129037638D01*
X156192874Y-128995942D01*
X156245942Y-128942873D01*
X156287638Y-128880471D01*
X156316358Y-128811133D01*
X156331000Y-128737525D01*
X156331000Y-135017660D01*
X155562375Y-135017660D01*
X155488767Y-135032302D01*
X155419429Y-135061022D01*
X155357027Y-135102718D01*
X155303958Y-135155786D01*
X155262262Y-135218189D01*
X155233542Y-135287526D01*
X155218900Y-135361135D01*
X155218900Y-135436185D01*
X155218900Y-138037145D01*
X155233542Y-138110753D01*
X155262262Y-138180091D01*
X155303958Y-138242493D01*
X155357026Y-138295562D01*
X155419429Y-138337258D01*
X155488766Y-138365978D01*
X155562375Y-138380620D01*
X155637425Y-138380620D01*
X157237625Y-138380620D01*
X157311233Y-138365978D01*
X157380571Y-138337258D01*
X157442973Y-138295562D01*
X157496042Y-138242494D01*
X157537738Y-138180091D01*
X157551858Y-138146000D01*
X159457107Y-138146000D01*
X159473029Y-138156638D01*
X159542366Y-138185358D01*
X159615975Y-138200000D01*
X159542366Y-138214642D01*
X159473029Y-138243362D01*
X159410626Y-138285058D01*
X159357558Y-138338127D01*
X159315862Y-138400529D01*
X159287142Y-138469867D01*
X159272500Y-138543475D01*
X159272500Y-138612750D01*
X159367750Y-138708000D01*
X160098000Y-138708000D01*
X160098000Y-138295250D01*
X160002750Y-138200000D01*
X160447250Y-138200000D01*
X160352000Y-138295250D01*
X160352000Y-138708000D01*
X161082250Y-138708000D01*
X161177500Y-138612750D01*
X161177500Y-139057250D01*
X161082250Y-138962000D01*
X160352000Y-138962000D01*
X160352000Y-138982000D01*
X160098000Y-138982000D01*
X160098000Y-138962000D01*
X159367750Y-138962000D01*
X159272500Y-139057250D01*
X159272500Y-139126525D01*
X159287142Y-139200133D01*
X159315862Y-139269471D01*
X159357558Y-139331873D01*
X159410626Y-139384942D01*
X159473029Y-139426638D01*
X159542366Y-139455358D01*
X159615975Y-139470000D01*
X159542367Y-139484642D01*
X159473029Y-139513362D01*
X159457108Y-139524000D01*
X157581100Y-139524000D01*
X157581100Y-138962855D01*
X157566458Y-138889247D01*
X157537738Y-138819909D01*
X157496042Y-138757507D01*
X157442974Y-138704438D01*
X157380571Y-138662742D01*
X157311234Y-138634022D01*
X157237625Y-138619380D01*
X157162575Y-138619380D01*
X155562375Y-138619380D01*
X155488767Y-138634022D01*
X155419429Y-138662742D01*
X155357027Y-138704438D01*
X155303958Y-138757506D01*
X155262262Y-138819909D01*
X155233542Y-138889246D01*
X155218900Y-138962855D01*
X155218900Y-139037905D01*
X155218900Y-141638865D01*
X155233542Y-141712473D01*
X155262262Y-141781811D01*
X155303958Y-141844213D01*
X155357026Y-141897282D01*
X155419429Y-141938978D01*
X155488766Y-141967698D01*
X155562375Y-141982340D01*
X155637425Y-141982340D01*
X157237625Y-141982340D01*
X157311233Y-141967698D01*
X157380571Y-141938978D01*
X157442973Y-141897282D01*
X157496042Y-141844214D01*
X157537738Y-141781811D01*
X157566458Y-141712474D01*
X157581100Y-141638865D01*
X157581100Y-141563815D01*
X157581100Y-140686000D01*
X159457107Y-140686000D01*
X159473029Y-140696638D01*
X159542366Y-140725358D01*
X159615975Y-140740000D01*
X159691025Y-140740000D01*
X159778419Y-140740000D01*
X159830649Y-140768476D01*
X159925256Y-140798124D01*
X160023820Y-140808832D01*
X160122588Y-140800191D01*
X160217795Y-140772531D01*
X160280554Y-140740000D01*
X160834025Y-140740000D01*
X160907633Y-140725358D01*
X160976971Y-140696638D01*
X161039373Y-140654942D01*
X161092442Y-140601874D01*
X161134138Y-140539471D01*
X161162858Y-140470134D01*
X161177500Y-140396525D01*
X161177500Y-145873000D01*
X160331000Y-145873000D01*
X160331000Y-143737525D01*
X160331000Y-143662475D01*
X160331000Y-143422250D01*
X160331000Y-142977750D01*
X160331000Y-142737525D01*
X160331000Y-142662475D01*
X160316358Y-142588866D01*
X160287638Y-142519529D01*
X160245942Y-142457126D01*
X160192873Y-142404058D01*
X160130471Y-142362362D01*
X160061133Y-142333642D01*
X159987525Y-142319000D01*
X158872250Y-142319000D01*
X158777000Y-142414250D01*
X158777000Y-143073000D01*
X160235750Y-143073000D01*
X160331000Y-142977750D01*
X160331000Y-143422250D01*
X160235750Y-143327000D01*
X158777000Y-143327000D01*
X158777000Y-143985750D01*
X158872250Y-144081000D01*
X159987525Y-144081000D01*
X160061133Y-144066358D01*
X160130471Y-144037638D01*
X160192873Y-143995942D01*
X160245942Y-143942874D01*
X160287638Y-143880471D01*
X160316358Y-143811134D01*
X160331000Y-143737525D01*
X160331000Y-145873000D01*
X158523000Y-145873000D01*
X158523000Y-143985750D01*
X158523000Y-143327000D01*
X158523000Y-143073000D01*
X158523000Y-142414250D01*
X158427750Y-142319000D01*
X157312475Y-142319000D01*
X157238867Y-142333642D01*
X157169529Y-142362362D01*
X157107127Y-142404058D01*
X157054058Y-142457126D01*
X157012362Y-142519529D01*
X156983642Y-142588866D01*
X156969000Y-142662475D01*
X156969000Y-142737525D01*
X156969000Y-142977750D01*
X157064250Y-143073000D01*
X158523000Y-143073000D01*
X158523000Y-143327000D01*
X157064250Y-143327000D01*
X156969000Y-143422250D01*
X156969000Y-143662475D01*
X156969000Y-143737525D01*
X156983642Y-143811134D01*
X157012362Y-143880471D01*
X157054058Y-143942874D01*
X157107127Y-143995942D01*
X157169529Y-144037638D01*
X157238867Y-144066358D01*
X157312475Y-144081000D01*
X158427750Y-144081000D01*
X158523000Y-143985750D01*
X158523000Y-145873000D01*
X155601000Y-145873000D01*
X155601000Y-143737525D01*
X155601000Y-143662475D01*
X155601000Y-143422250D01*
X155601000Y-142977750D01*
X155601000Y-142737525D01*
X155601000Y-142662475D01*
X155586358Y-142588866D01*
X155557638Y-142519529D01*
X155515942Y-142457126D01*
X155462873Y-142404058D01*
X155400471Y-142362362D01*
X155331133Y-142333642D01*
X155257525Y-142319000D01*
X154973000Y-142319000D01*
X154973000Y-128985750D01*
X154973000Y-128377000D01*
X154973000Y-128123000D01*
X154973000Y-127514250D01*
X154877750Y-127419000D01*
X154287525Y-127419000D01*
X154212475Y-127419000D01*
X154138866Y-127433642D01*
X154069529Y-127462362D01*
X154007126Y-127504058D01*
X153954058Y-127557127D01*
X153912362Y-127619529D01*
X153883642Y-127688867D01*
X153869000Y-127762475D01*
X153869000Y-128027750D01*
X153964250Y-128123000D01*
X154973000Y-128123000D01*
X154973000Y-128377000D01*
X153964250Y-128377000D01*
X153869000Y-128472250D01*
X153869000Y-128737525D01*
X153883642Y-128811133D01*
X153912362Y-128880471D01*
X153954058Y-128942873D01*
X154007126Y-128995942D01*
X154069529Y-129037638D01*
X154138866Y-129066358D01*
X154212475Y-129081000D01*
X154287525Y-129081000D01*
X154877750Y-129081000D01*
X154973000Y-128985750D01*
X154973000Y-142319000D01*
X153792250Y-142319000D01*
X153697000Y-142414250D01*
X153697000Y-143073000D01*
X155505750Y-143073000D01*
X155601000Y-142977750D01*
X155601000Y-143422250D01*
X155505750Y-143327000D01*
X153697000Y-143327000D01*
X153697000Y-143985750D01*
X153792250Y-144081000D01*
X155257525Y-144081000D01*
X155331133Y-144066358D01*
X155400471Y-144037638D01*
X155462873Y-143995942D01*
X155515942Y-143942874D01*
X155557638Y-143880471D01*
X155586358Y-143811134D01*
X155601000Y-143737525D01*
X155601000Y-145873000D01*
X153443000Y-145873000D01*
X153443000Y-143985750D01*
X153443000Y-143327000D01*
X153423000Y-143327000D01*
X153423000Y-143073000D01*
X153443000Y-143073000D01*
X153443000Y-142414250D01*
X153443000Y-118585750D01*
X153443000Y-117927000D01*
X153423000Y-117927000D01*
X153423000Y-117673000D01*
X153443000Y-117673000D01*
X153443000Y-117014250D01*
X153347750Y-116919000D01*
X151882475Y-116919000D01*
X151808867Y-116933642D01*
X151739529Y-116962362D01*
X151677127Y-117004058D01*
X151624058Y-117057126D01*
X151597248Y-117097249D01*
X151557127Y-117124058D01*
X151504058Y-117177126D01*
X151462362Y-117239529D01*
X151433642Y-117308866D01*
X151419000Y-117382475D01*
X151419000Y-117457525D01*
X151419000Y-118847750D01*
X151514250Y-118943000D01*
X152173000Y-118943000D01*
X152173000Y-118923000D01*
X152427000Y-118923000D01*
X152427000Y-118943000D01*
X153085750Y-118943000D01*
X153181000Y-118847750D01*
X153181000Y-118681000D01*
X153347750Y-118681000D01*
X153443000Y-118585750D01*
X153443000Y-142414250D01*
X153347750Y-142319000D01*
X153181000Y-142319000D01*
X153181000Y-142152250D01*
X153181000Y-141707750D01*
X153181000Y-140317525D01*
X153181000Y-140242475D01*
X153181000Y-138187525D01*
X153181000Y-138112475D01*
X153181000Y-137072250D01*
X153181000Y-136627750D01*
X153181000Y-135587525D01*
X153181000Y-135512475D01*
X153181000Y-133087525D01*
X153181000Y-133012475D01*
X153181000Y-130722250D01*
X153181000Y-130277750D01*
X153181000Y-127987525D01*
X153181000Y-127912475D01*
X153181000Y-125487525D01*
X153181000Y-125412475D01*
X153181000Y-124372250D01*
X153181000Y-123927750D01*
X153181000Y-122887525D01*
X153181000Y-122812475D01*
X153181000Y-120757525D01*
X153181000Y-120682475D01*
X153181000Y-119292250D01*
X153085750Y-119197000D01*
X152427000Y-119197000D01*
X152427000Y-121005750D01*
X152522250Y-121101000D01*
X152837525Y-121101000D01*
X152911133Y-121086358D01*
X152980471Y-121057638D01*
X153042873Y-121015942D01*
X153095942Y-120962874D01*
X153137638Y-120900471D01*
X153166358Y-120831134D01*
X153181000Y-120757525D01*
X153181000Y-122812475D01*
X153166358Y-122738866D01*
X153137638Y-122669529D01*
X153095942Y-122607126D01*
X153042873Y-122554058D01*
X152980471Y-122512362D01*
X152911133Y-122483642D01*
X152837525Y-122469000D01*
X152522250Y-122469000D01*
X152427000Y-122564250D01*
X152427000Y-124023000D01*
X153085750Y-124023000D01*
X153181000Y-123927750D01*
X153181000Y-124372250D01*
X153085750Y-124277000D01*
X152427000Y-124277000D01*
X152427000Y-125735750D01*
X152522250Y-125831000D01*
X152837525Y-125831000D01*
X152911133Y-125816358D01*
X152980471Y-125787638D01*
X153042873Y-125745942D01*
X153095942Y-125692874D01*
X153137638Y-125630471D01*
X153166358Y-125561134D01*
X153181000Y-125487525D01*
X153181000Y-127912475D01*
X153166358Y-127838866D01*
X153137638Y-127769529D01*
X153095942Y-127707126D01*
X153042873Y-127654058D01*
X152980471Y-127612362D01*
X152911133Y-127583642D01*
X152837525Y-127569000D01*
X152522250Y-127569000D01*
X152427000Y-127664250D01*
X152427000Y-130373000D01*
X153085750Y-130373000D01*
X153181000Y-130277750D01*
X153181000Y-130722250D01*
X153085750Y-130627000D01*
X152427000Y-130627000D01*
X152427000Y-133335750D01*
X152522250Y-133431000D01*
X152837525Y-133431000D01*
X152911133Y-133416358D01*
X152980471Y-133387638D01*
X153042873Y-133345942D01*
X153095942Y-133292874D01*
X153137638Y-133230471D01*
X153166358Y-133161134D01*
X153181000Y-133087525D01*
X153181000Y-135512475D01*
X153166358Y-135438866D01*
X153137638Y-135369529D01*
X153095942Y-135307126D01*
X153042873Y-135254058D01*
X152980471Y-135212362D01*
X152911133Y-135183642D01*
X152837525Y-135169000D01*
X152522250Y-135169000D01*
X152427000Y-135264250D01*
X152427000Y-136723000D01*
X153085750Y-136723000D01*
X153181000Y-136627750D01*
X153181000Y-137072250D01*
X153085750Y-136977000D01*
X152427000Y-136977000D01*
X152427000Y-138435750D01*
X152522250Y-138531000D01*
X152837525Y-138531000D01*
X152911133Y-138516358D01*
X152980471Y-138487638D01*
X153042873Y-138445942D01*
X153095942Y-138392874D01*
X153137638Y-138330471D01*
X153166358Y-138261134D01*
X153181000Y-138187525D01*
X153181000Y-140242475D01*
X153166358Y-140168866D01*
X153137638Y-140099529D01*
X153095942Y-140037126D01*
X153042873Y-139984058D01*
X152980471Y-139942362D01*
X152911133Y-139913642D01*
X152837525Y-139899000D01*
X152522250Y-139899000D01*
X152427000Y-139994250D01*
X152427000Y-141803000D01*
X153085750Y-141803000D01*
X153181000Y-141707750D01*
X153181000Y-142152250D01*
X153085750Y-142057000D01*
X152427000Y-142057000D01*
X152427000Y-142077000D01*
X152173000Y-142077000D01*
X152173000Y-142057000D01*
X152173000Y-141803000D01*
X152173000Y-139994250D01*
X152173000Y-138435750D01*
X152173000Y-136977000D01*
X152173000Y-136723000D01*
X152173000Y-135264250D01*
X152173000Y-133335750D01*
X152173000Y-130627000D01*
X152173000Y-130373000D01*
X152173000Y-127664250D01*
X152173000Y-125735750D01*
X152173000Y-124277000D01*
X152173000Y-124023000D01*
X152173000Y-122564250D01*
X152173000Y-121005750D01*
X152173000Y-119197000D01*
X151514250Y-119197000D01*
X151419000Y-119292250D01*
X151419000Y-120682475D01*
X151419000Y-120757525D01*
X151433642Y-120831134D01*
X151462362Y-120900471D01*
X151504058Y-120962874D01*
X151557127Y-121015942D01*
X151619529Y-121057638D01*
X151688867Y-121086358D01*
X151762475Y-121101000D01*
X152077750Y-121101000D01*
X152173000Y-121005750D01*
X152173000Y-122564250D01*
X152077750Y-122469000D01*
X151762475Y-122469000D01*
X151688867Y-122483642D01*
X151619529Y-122512362D01*
X151557127Y-122554058D01*
X151504058Y-122607126D01*
X151462362Y-122669529D01*
X151433642Y-122738866D01*
X151419000Y-122812475D01*
X151419000Y-122887525D01*
X151419000Y-123927750D01*
X151514250Y-124023000D01*
X152173000Y-124023000D01*
X152173000Y-124277000D01*
X151514250Y-124277000D01*
X151419000Y-124372250D01*
X151419000Y-125412475D01*
X151419000Y-125487525D01*
X151433642Y-125561134D01*
X151462362Y-125630471D01*
X151504058Y-125692874D01*
X151557127Y-125745942D01*
X151619529Y-125787638D01*
X151688867Y-125816358D01*
X151762475Y-125831000D01*
X152077750Y-125831000D01*
X152173000Y-125735750D01*
X152173000Y-127664250D01*
X152077750Y-127569000D01*
X151762475Y-127569000D01*
X151688867Y-127583642D01*
X151619529Y-127612362D01*
X151557127Y-127654058D01*
X151504058Y-127707126D01*
X151462362Y-127769529D01*
X151433642Y-127838866D01*
X151419000Y-127912475D01*
X151419000Y-127987525D01*
X151419000Y-130277750D01*
X151514250Y-130373000D01*
X152173000Y-130373000D01*
X152173000Y-130627000D01*
X151514250Y-130627000D01*
X151419000Y-130722250D01*
X151419000Y-133012475D01*
X151419000Y-133087525D01*
X151433642Y-133161134D01*
X151462362Y-133230471D01*
X151504058Y-133292874D01*
X151557127Y-133345942D01*
X151619529Y-133387638D01*
X151688867Y-133416358D01*
X151762475Y-133431000D01*
X152077750Y-133431000D01*
X152173000Y-133335750D01*
X152173000Y-135264250D01*
X152077750Y-135169000D01*
X151762475Y-135169000D01*
X151688867Y-135183642D01*
X151619529Y-135212362D01*
X151557127Y-135254058D01*
X151504058Y-135307126D01*
X151462362Y-135369529D01*
X151433642Y-135438866D01*
X151419000Y-135512475D01*
X151419000Y-135587525D01*
X151419000Y-136627750D01*
X151514250Y-136723000D01*
X152173000Y-136723000D01*
X152173000Y-136977000D01*
X151514250Y-136977000D01*
X151419000Y-137072250D01*
X151419000Y-138112475D01*
X151419000Y-138187525D01*
X151433642Y-138261134D01*
X151462362Y-138330471D01*
X151504058Y-138392874D01*
X151557127Y-138445942D01*
X151619529Y-138487638D01*
X151688867Y-138516358D01*
X151762475Y-138531000D01*
X152077750Y-138531000D01*
X152173000Y-138435750D01*
X152173000Y-139994250D01*
X152077750Y-139899000D01*
X151762475Y-139899000D01*
X151688867Y-139913642D01*
X151619529Y-139942362D01*
X151557127Y-139984058D01*
X151504058Y-140037126D01*
X151462362Y-140099529D01*
X151433642Y-140168866D01*
X151419000Y-140242475D01*
X151419000Y-140317525D01*
X151419000Y-141707750D01*
X151514250Y-141803000D01*
X152173000Y-141803000D01*
X152173000Y-142057000D01*
X151514250Y-142057000D01*
X151419000Y-142152250D01*
X151419000Y-143542475D01*
X151419000Y-143617525D01*
X151433642Y-143691134D01*
X151462362Y-143760471D01*
X151504058Y-143822874D01*
X151557127Y-143875942D01*
X151597248Y-143902750D01*
X151624058Y-143942874D01*
X151677127Y-143995942D01*
X151739529Y-144037638D01*
X151808867Y-144066358D01*
X151882475Y-144081000D01*
X153347750Y-144081000D01*
X153443000Y-143985750D01*
X153443000Y-145873000D01*
X151127000Y-145873000D01*
X151127000Y-115127000D01*
X189873000Y-115127000D01*
X189873000Y-145873000D01*
X189873000Y-145873000D01*
G37*
X189873000Y-145873000D02*
X189589381Y-145873000D01*
X189589381Y-138247115D01*
X189589381Y-127747115D01*
X189589381Y-117247115D01*
X189542764Y-116879535D01*
X189425331Y-116528112D01*
X189300336Y-116294263D01*
X189055793Y-116123813D01*
X188876187Y-116303418D01*
X188876187Y-115944207D01*
X188705737Y-115699664D01*
X188374206Y-115534208D01*
X188016767Y-115436609D01*
X187647155Y-115410619D01*
X187279575Y-115457236D01*
X186928152Y-115574669D01*
X186694303Y-115699664D01*
X186523853Y-115944207D01*
X187700020Y-117120375D01*
X188876187Y-115944207D01*
X188876187Y-116303418D01*
X187879625Y-117299980D01*
X189055793Y-118476147D01*
X189300336Y-118305697D01*
X189465792Y-117974166D01*
X189563391Y-117616727D01*
X189589381Y-117247115D01*
X189589381Y-127747115D01*
X189581100Y-127681818D01*
X189581100Y-122515578D01*
X189509451Y-122153721D01*
X189368880Y-121812671D01*
X189164743Y-121505421D01*
X188904816Y-121243672D01*
X188876187Y-121224361D01*
X188876187Y-118655753D01*
X187700020Y-117479585D01*
X187520415Y-117659190D01*
X187520415Y-117299980D01*
X186344247Y-116123813D01*
X186099704Y-116294263D01*
X185934248Y-116625794D01*
X185836649Y-116983233D01*
X185810659Y-117352845D01*
X185857276Y-117720425D01*
X185974709Y-118071848D01*
X186099704Y-118305697D01*
X186344247Y-118476147D01*
X187520415Y-117299980D01*
X187520415Y-117659190D01*
X186523853Y-118655753D01*
X186694303Y-118900296D01*
X187025834Y-119065752D01*
X187383273Y-119163351D01*
X187752885Y-119189341D01*
X188120465Y-119142724D01*
X188471888Y-119025291D01*
X188705737Y-118900296D01*
X188876187Y-118655753D01*
X188876187Y-121224361D01*
X188598998Y-121037395D01*
X188258938Y-120894447D01*
X187897589Y-120820273D01*
X187528715Y-120817698D01*
X187166366Y-120886820D01*
X186824344Y-121025006D01*
X186515676Y-121226993D01*
X186380550Y-121359317D01*
X186380550Y-119864636D01*
X186327965Y-119599064D01*
X186224798Y-119348763D01*
X186074980Y-119123268D01*
X185884215Y-118931167D01*
X185659772Y-118779778D01*
X185410197Y-118674867D01*
X185144999Y-118620429D01*
X184874277Y-118618539D01*
X184608344Y-118669268D01*
X184357330Y-118770685D01*
X184181060Y-118886032D01*
X184181060Y-117115538D01*
X184109411Y-116753681D01*
X183968840Y-116412631D01*
X183764703Y-116105381D01*
X183504776Y-115843632D01*
X183198958Y-115637355D01*
X182858898Y-115494407D01*
X182497549Y-115420233D01*
X182128675Y-115417658D01*
X181766326Y-115486780D01*
X181424304Y-115624966D01*
X181115636Y-115826953D01*
X180852079Y-116085046D01*
X180643672Y-116389417D01*
X180498353Y-116728470D01*
X180421658Y-117089292D01*
X180416508Y-117458140D01*
X180483098Y-117820962D01*
X180618893Y-118163941D01*
X180818720Y-118474012D01*
X181074968Y-118739364D01*
X181377876Y-118949891D01*
X181715907Y-119097573D01*
X182076185Y-119176785D01*
X182444987Y-119184510D01*
X182808266Y-119120455D01*
X183152184Y-118987057D01*
X183463642Y-118789400D01*
X183730777Y-118535011D01*
X183943413Y-118233580D01*
X184093451Y-117896589D01*
X184175177Y-117536872D01*
X184181060Y-117115538D01*
X184181060Y-118886032D01*
X184130794Y-118918926D01*
X183937366Y-119108344D01*
X183784414Y-119331726D01*
X183747008Y-119419000D01*
X180500000Y-119419000D01*
X180446605Y-119424235D01*
X180393124Y-119428914D01*
X180390187Y-119429767D01*
X180387150Y-119430065D01*
X180335799Y-119445568D01*
X180284235Y-119460550D01*
X180281522Y-119461956D01*
X180278598Y-119462839D01*
X180231243Y-119488018D01*
X180183565Y-119512732D01*
X180181174Y-119514640D01*
X180178480Y-119516073D01*
X180136913Y-119549973D01*
X180094947Y-119583475D01*
X180090695Y-119587667D01*
X180090608Y-119587739D01*
X180090541Y-119587819D01*
X180089171Y-119589171D01*
X178581000Y-121097342D01*
X178581000Y-120757525D01*
X178581000Y-120682475D01*
X178581000Y-120407525D01*
X178581000Y-120332475D01*
X178581000Y-119292250D01*
X178581000Y-118847750D01*
X178581000Y-117807525D01*
X178581000Y-117732475D01*
X178581000Y-117457525D01*
X178581000Y-117382475D01*
X178566358Y-117308866D01*
X178537638Y-117239529D01*
X178495942Y-117177126D01*
X178442873Y-117124058D01*
X178402751Y-117097249D01*
X178375942Y-117057126D01*
X178322873Y-117004058D01*
X178260471Y-116962362D01*
X178191133Y-116933642D01*
X178117525Y-116919000D01*
X176652250Y-116919000D01*
X176557000Y-117014250D01*
X176557000Y-117673000D01*
X176577000Y-117673000D01*
X176577000Y-117927000D01*
X176557000Y-117927000D01*
X176557000Y-118585750D01*
X176652250Y-118681000D01*
X176819000Y-118681000D01*
X176819000Y-118847750D01*
X176914250Y-118943000D01*
X177573000Y-118943000D01*
X177573000Y-118923000D01*
X177827000Y-118923000D01*
X177827000Y-118943000D01*
X178485750Y-118943000D01*
X178581000Y-118847750D01*
X178581000Y-119292250D01*
X178485750Y-119197000D01*
X177827000Y-119197000D01*
X177827000Y-120655750D01*
X177827000Y-121005750D01*
X177922250Y-121101000D01*
X178237525Y-121101000D01*
X178311133Y-121086358D01*
X178380471Y-121057638D01*
X178442873Y-121015942D01*
X178495942Y-120962874D01*
X178537638Y-120900471D01*
X178566358Y-120831134D01*
X178581000Y-120757525D01*
X178581000Y-121097342D01*
X178259342Y-121419000D01*
X177573000Y-121419000D01*
X177573000Y-121005750D01*
X177573000Y-120655750D01*
X177573000Y-119197000D01*
X176914250Y-119197000D01*
X176819000Y-119292250D01*
X176819000Y-120332475D01*
X176819000Y-120407525D01*
X176819000Y-120682475D01*
X176819000Y-120757525D01*
X176833642Y-120831134D01*
X176862362Y-120900471D01*
X176904058Y-120962874D01*
X176957127Y-121015942D01*
X177019529Y-121057638D01*
X177088867Y-121086358D01*
X177162475Y-121101000D01*
X177477750Y-121101000D01*
X177573000Y-121005750D01*
X177573000Y-121419000D01*
X177290658Y-121419000D01*
X176303000Y-120431342D01*
X176303000Y-118585750D01*
X176303000Y-117927000D01*
X176303000Y-117673000D01*
X176303000Y-117014250D01*
X176207750Y-116919000D01*
X174742475Y-116919000D01*
X174668867Y-116933642D01*
X174599529Y-116962362D01*
X174537127Y-117004058D01*
X174484058Y-117057126D01*
X174442362Y-117119529D01*
X174413642Y-117188866D01*
X174399000Y-117262475D01*
X174399000Y-117337525D01*
X174399000Y-117577750D01*
X174494250Y-117673000D01*
X176303000Y-117673000D01*
X176303000Y-117927000D01*
X174494250Y-117927000D01*
X174399000Y-118022250D01*
X174399000Y-118262475D01*
X174399000Y-118337525D01*
X174413642Y-118411134D01*
X174442362Y-118480471D01*
X174484058Y-118542874D01*
X174537127Y-118595942D01*
X174599529Y-118637638D01*
X174668867Y-118666358D01*
X174742475Y-118681000D01*
X176207750Y-118681000D01*
X176303000Y-118585750D01*
X176303000Y-120431342D01*
X176281000Y-120409342D01*
X176281000Y-119412475D01*
X176266358Y-119338867D01*
X176237638Y-119269529D01*
X176195942Y-119207127D01*
X176142874Y-119154058D01*
X176080471Y-119112362D01*
X176011134Y-119083642D01*
X175937525Y-119069000D01*
X175862475Y-119069000D01*
X174362475Y-119069000D01*
X174288867Y-119083642D01*
X174219529Y-119112362D01*
X174157127Y-119154058D01*
X174104058Y-119207126D01*
X174062362Y-119269529D01*
X174033642Y-119338866D01*
X174019000Y-119412475D01*
X174019000Y-119487525D01*
X174019000Y-120787525D01*
X174033642Y-120861133D01*
X174062362Y-120930471D01*
X174104058Y-120992873D01*
X174157126Y-121045942D01*
X174219529Y-121087638D01*
X174288866Y-121116358D01*
X174362475Y-121131000D01*
X174437525Y-121131000D01*
X175359342Y-121131000D01*
X176639171Y-122410829D01*
X176680642Y-122444894D01*
X176721754Y-122479391D01*
X176724431Y-122480862D01*
X176726792Y-122482802D01*
X176774066Y-122508149D01*
X176821120Y-122534018D01*
X176824035Y-122534942D01*
X176826725Y-122536385D01*
X176877983Y-122552056D01*
X176929203Y-122568304D01*
X176932243Y-122568645D01*
X176935161Y-122569537D01*
X176988561Y-122574961D01*
X177041888Y-122580943D01*
X177047851Y-122580984D01*
X177047971Y-122580997D01*
X177048081Y-122580986D01*
X177050000Y-122581000D01*
X178500000Y-122581000D01*
X178553394Y-122575764D01*
X178606876Y-122571086D01*
X178609812Y-122570232D01*
X178612850Y-122569935D01*
X178664200Y-122554431D01*
X178715765Y-122539450D01*
X178718477Y-122538043D01*
X178721402Y-122537161D01*
X178768756Y-122511981D01*
X178816435Y-122487268D01*
X178818825Y-122485359D01*
X178821520Y-122483927D01*
X178863086Y-122450026D01*
X178905053Y-122416525D01*
X178909304Y-122412332D01*
X178909392Y-122412261D01*
X178909458Y-122412180D01*
X178910829Y-122410829D01*
X180740658Y-120581000D01*
X183745215Y-120581000D01*
X183766228Y-120634073D01*
X183912884Y-120861638D01*
X184100948Y-121056383D01*
X184323256Y-121210891D01*
X184571341Y-121319277D01*
X184835754Y-121377412D01*
X185106422Y-121383082D01*
X185373038Y-121336070D01*
X185625444Y-121238168D01*
X185854027Y-121093105D01*
X186050081Y-120906405D01*
X186206137Y-120685181D01*
X186316252Y-120437859D01*
X186376232Y-120173859D01*
X186380550Y-119864636D01*
X186380550Y-121359317D01*
X186252119Y-121485086D01*
X186043712Y-121789457D01*
X185898393Y-122128510D01*
X185821698Y-122489332D01*
X185816548Y-122858180D01*
X185883138Y-123221002D01*
X186018933Y-123563981D01*
X186218760Y-123874052D01*
X186475008Y-124139404D01*
X186777916Y-124349931D01*
X187115947Y-124497613D01*
X187476225Y-124576825D01*
X187845027Y-124584550D01*
X188208306Y-124520495D01*
X188552224Y-124387097D01*
X188863682Y-124189440D01*
X189130817Y-123935051D01*
X189343453Y-123633620D01*
X189493491Y-123296629D01*
X189575217Y-122936912D01*
X189581100Y-122515578D01*
X189581100Y-127681818D01*
X189542764Y-127379535D01*
X189425331Y-127028112D01*
X189300336Y-126794263D01*
X189055793Y-126623813D01*
X188876187Y-126803418D01*
X188876187Y-126444207D01*
X188705737Y-126199664D01*
X188374206Y-126034208D01*
X188016767Y-125936609D01*
X187647155Y-125910619D01*
X187279575Y-125957236D01*
X186928152Y-126074669D01*
X186694303Y-126199664D01*
X186523853Y-126444207D01*
X187700020Y-127620375D01*
X188876187Y-126444207D01*
X188876187Y-126803418D01*
X187879625Y-127799980D01*
X189055793Y-128976147D01*
X189300336Y-128805697D01*
X189465792Y-128474166D01*
X189563391Y-128116727D01*
X189589381Y-127747115D01*
X189589381Y-138247115D01*
X189581100Y-138181818D01*
X189581100Y-133015578D01*
X189509451Y-132653721D01*
X189368880Y-132312671D01*
X189164743Y-132005421D01*
X188904816Y-131743672D01*
X188876187Y-131724361D01*
X188876187Y-129155753D01*
X187700020Y-127979585D01*
X187520415Y-128159190D01*
X187520415Y-127799980D01*
X186344247Y-126623813D01*
X186099704Y-126794263D01*
X185934248Y-127125794D01*
X185836649Y-127483233D01*
X185810659Y-127852845D01*
X185857276Y-128220425D01*
X185974709Y-128571848D01*
X186099704Y-128805697D01*
X186344247Y-128976147D01*
X187520415Y-127799980D01*
X187520415Y-128159190D01*
X186523853Y-129155753D01*
X186694303Y-129400296D01*
X187025834Y-129565752D01*
X187383273Y-129663351D01*
X187752885Y-129689341D01*
X188120465Y-129642724D01*
X188471888Y-129525291D01*
X188705737Y-129400296D01*
X188876187Y-129155753D01*
X188876187Y-131724361D01*
X188598998Y-131537395D01*
X188258938Y-131394447D01*
X187897589Y-131320273D01*
X187528715Y-131317698D01*
X187166366Y-131386820D01*
X186824344Y-131525006D01*
X186515676Y-131726993D01*
X186252119Y-131985086D01*
X186043712Y-132289457D01*
X185898393Y-132628510D01*
X185821698Y-132989332D01*
X185816548Y-133358180D01*
X185883138Y-133721002D01*
X186018933Y-134063981D01*
X186218760Y-134374052D01*
X186475008Y-134639404D01*
X186777916Y-134849931D01*
X187115947Y-134997613D01*
X187476225Y-135076825D01*
X187845027Y-135084550D01*
X188208306Y-135020495D01*
X188552224Y-134887097D01*
X188863682Y-134689440D01*
X189130817Y-134435051D01*
X189343453Y-134133620D01*
X189493491Y-133796629D01*
X189575217Y-133436912D01*
X189581100Y-133015578D01*
X189581100Y-138181818D01*
X189542764Y-137879535D01*
X189425331Y-137528112D01*
X189300336Y-137294263D01*
X189055793Y-137123813D01*
X188876187Y-137303418D01*
X188876187Y-136944207D01*
X188705737Y-136699664D01*
X188374206Y-136534208D01*
X188016767Y-136436609D01*
X187647155Y-136410619D01*
X187279575Y-136457236D01*
X186928152Y-136574669D01*
X186694303Y-136699664D01*
X186523853Y-136944207D01*
X187700020Y-138120375D01*
X188876187Y-136944207D01*
X188876187Y-137303418D01*
X187879625Y-138299980D01*
X189055793Y-139476147D01*
X189300336Y-139305697D01*
X189465792Y-138974166D01*
X189563391Y-138616727D01*
X189589381Y-138247115D01*
X189589381Y-145873000D01*
X189581100Y-145873000D01*
X189581100Y-143515578D01*
X189509451Y-143153721D01*
X189368880Y-142812671D01*
X189164743Y-142505421D01*
X188904816Y-142243672D01*
X188876187Y-142224361D01*
X188876187Y-139655753D01*
X187700020Y-138479585D01*
X187520415Y-138659190D01*
X187520415Y-138299980D01*
X186344247Y-137123813D01*
X186099704Y-137294263D01*
X185934248Y-137625794D01*
X185836649Y-137983233D01*
X185810659Y-138352845D01*
X185857276Y-138720425D01*
X185974709Y-139071848D01*
X186099704Y-139305697D01*
X186344247Y-139476147D01*
X187520415Y-138299980D01*
X187520415Y-138659190D01*
X186523853Y-139655753D01*
X186694303Y-139900296D01*
X187025834Y-140065752D01*
X187383273Y-140163351D01*
X187752885Y-140189341D01*
X188120465Y-140142724D01*
X188471888Y-140025291D01*
X188705737Y-139900296D01*
X188876187Y-139655753D01*
X188876187Y-142224361D01*
X188598998Y-142037395D01*
X188258938Y-141894447D01*
X187897589Y-141820273D01*
X187528715Y-141817698D01*
X187166366Y-141886820D01*
X186824344Y-142025006D01*
X186515676Y-142226993D01*
X186380550Y-142359317D01*
X186380550Y-140864636D01*
X186327965Y-140599064D01*
X186224798Y-140348763D01*
X186074980Y-140123268D01*
X185884215Y-139931167D01*
X185659772Y-139779778D01*
X185410197Y-139674867D01*
X185144999Y-139620429D01*
X184874277Y-139618539D01*
X184608344Y-139669268D01*
X184357330Y-139770685D01*
X184181060Y-139886032D01*
X184181060Y-138115538D01*
X184181060Y-133015578D01*
X184109411Y-132653721D01*
X183968840Y-132312671D01*
X183764703Y-132005421D01*
X183504776Y-131743672D01*
X183198958Y-131537395D01*
X182858898Y-131394447D01*
X182497549Y-131320273D01*
X182128675Y-131317698D01*
X181766326Y-131386820D01*
X181424304Y-131525006D01*
X181115636Y-131726993D01*
X180852079Y-131985086D01*
X180643672Y-132289457D01*
X180498353Y-132628510D01*
X180421658Y-132989332D01*
X180416508Y-133358180D01*
X180483098Y-133721002D01*
X180618893Y-134063981D01*
X180818720Y-134374052D01*
X181074968Y-134639404D01*
X181377876Y-134849931D01*
X181715907Y-134997613D01*
X182076185Y-135076825D01*
X182444987Y-135084550D01*
X182808266Y-135020495D01*
X183152184Y-134887097D01*
X183463642Y-134689440D01*
X183730777Y-134435051D01*
X183943413Y-134133620D01*
X184093451Y-133796629D01*
X184175177Y-133436912D01*
X184181060Y-133015578D01*
X184181060Y-138115538D01*
X184109411Y-137753681D01*
X183968840Y-137412631D01*
X183764703Y-137105381D01*
X183504776Y-136843632D01*
X183198958Y-136637355D01*
X182858898Y-136494407D01*
X182497549Y-136420233D01*
X182128675Y-136417658D01*
X181766326Y-136486780D01*
X181424304Y-136624966D01*
X181115636Y-136826953D01*
X180852079Y-137085046D01*
X180643672Y-137389417D01*
X180498353Y-137728470D01*
X180421658Y-138089292D01*
X180416508Y-138458140D01*
X180483098Y-138820962D01*
X180618893Y-139163941D01*
X180818720Y-139474012D01*
X181074968Y-139739364D01*
X181377876Y-139949891D01*
X181715907Y-140097573D01*
X182076185Y-140176785D01*
X182444987Y-140184510D01*
X182808266Y-140120455D01*
X183152184Y-139987057D01*
X183463642Y-139789400D01*
X183730777Y-139535011D01*
X183943413Y-139233580D01*
X184093451Y-138896589D01*
X184175177Y-138536872D01*
X184181060Y-138115538D01*
X184181060Y-139886032D01*
X184130794Y-139918926D01*
X183937366Y-140108344D01*
X183784414Y-140331726D01*
X183747008Y-140419000D01*
X181340657Y-140419000D01*
X178581000Y-137659342D01*
X178581000Y-133087525D01*
X178581000Y-133012475D01*
X178581000Y-130722250D01*
X178581000Y-130277750D01*
X178581000Y-127987525D01*
X178581000Y-127912475D01*
X178566358Y-127838866D01*
X178537638Y-127769529D01*
X178495942Y-127707126D01*
X178442873Y-127654058D01*
X178380471Y-127612362D01*
X178311133Y-127583642D01*
X178237525Y-127569000D01*
X177922250Y-127569000D01*
X177827000Y-127664250D01*
X177827000Y-130373000D01*
X178485750Y-130373000D01*
X178581000Y-130277750D01*
X178581000Y-130722250D01*
X178485750Y-130627000D01*
X177827000Y-130627000D01*
X177827000Y-133335750D01*
X177922250Y-133431000D01*
X178237525Y-133431000D01*
X178311133Y-133416358D01*
X178380471Y-133387638D01*
X178442873Y-133345942D01*
X178495942Y-133292874D01*
X178537638Y-133230471D01*
X178566358Y-133161134D01*
X178581000Y-133087525D01*
X178581000Y-137659342D01*
X177573000Y-136651342D01*
X177573000Y-133335750D01*
X177573000Y-130627000D01*
X177573000Y-130373000D01*
X177573000Y-127664250D01*
X177477750Y-127569000D01*
X177325535Y-127569000D01*
X177325535Y-126519056D01*
X177294091Y-126360250D01*
X177232400Y-126210576D01*
X177142812Y-126075735D01*
X177028739Y-125960864D01*
X176894527Y-125870337D01*
X176745288Y-125807602D01*
X176586706Y-125775050D01*
X176424821Y-125773920D01*
X176265799Y-125804255D01*
X176115699Y-125864899D01*
X175980236Y-125953544D01*
X175864571Y-126066812D01*
X175773109Y-126200388D01*
X175709334Y-126349186D01*
X175675675Y-126507537D01*
X175674328Y-126604013D01*
X174289171Y-127989171D01*
X174255105Y-128030642D01*
X174220609Y-128071754D01*
X174219137Y-128074431D01*
X174217198Y-128076792D01*
X174191850Y-128124066D01*
X174165982Y-128171120D01*
X174165057Y-128174035D01*
X174163615Y-128176725D01*
X174147943Y-128227983D01*
X174131696Y-128279203D01*
X174131354Y-128282243D01*
X174130463Y-128285161D01*
X174127025Y-128319000D01*
X174012475Y-128319000D01*
X173938867Y-128333642D01*
X173869529Y-128362362D01*
X173807127Y-128404058D01*
X173754058Y-128457126D01*
X173712362Y-128519529D01*
X173683642Y-128588866D01*
X173669000Y-128662475D01*
X173669000Y-128737525D01*
X173669000Y-130237525D01*
X173683642Y-130311133D01*
X173712362Y-130380471D01*
X173754058Y-130442873D01*
X173807126Y-130495942D01*
X173869529Y-130537638D01*
X173938866Y-130566358D01*
X174012475Y-130581000D01*
X174087525Y-130581000D01*
X175387525Y-130581000D01*
X175461133Y-130566358D01*
X175530471Y-130537638D01*
X175592873Y-130495942D01*
X175645942Y-130442874D01*
X175687638Y-130380471D01*
X175716358Y-130311134D01*
X175731000Y-130237525D01*
X175731000Y-130162475D01*
X175731000Y-128662475D01*
X175716358Y-128588867D01*
X175687638Y-128519529D01*
X175645942Y-128457127D01*
X175592874Y-128404058D01*
X175547750Y-128373907D01*
X176496025Y-127425632D01*
X176563638Y-127427049D01*
X176723067Y-127398938D01*
X176874000Y-127340395D01*
X177010687Y-127253650D01*
X177127923Y-127142008D01*
X177221241Y-127009722D01*
X177287087Y-126861829D01*
X177322953Y-126703963D01*
X177325535Y-126519056D01*
X177325535Y-127569000D01*
X177162475Y-127569000D01*
X177088867Y-127583642D01*
X177019529Y-127612362D01*
X176957127Y-127654058D01*
X176904058Y-127707126D01*
X176862362Y-127769529D01*
X176833642Y-127838866D01*
X176819000Y-127912475D01*
X176819000Y-127987525D01*
X176819000Y-130277750D01*
X176914250Y-130373000D01*
X177573000Y-130373000D01*
X177573000Y-130627000D01*
X176914250Y-130627000D01*
X176819000Y-130722250D01*
X176819000Y-133012475D01*
X176819000Y-133087525D01*
X176833642Y-133161134D01*
X176862362Y-133230471D01*
X176904058Y-133292874D01*
X176957127Y-133345942D01*
X177019529Y-133387638D01*
X177088867Y-133416358D01*
X177162475Y-133431000D01*
X177477750Y-133431000D01*
X177573000Y-133335750D01*
X177573000Y-136651342D01*
X177409969Y-136488311D01*
X177368497Y-136454245D01*
X177327386Y-136419749D01*
X177324708Y-136418277D01*
X177322348Y-136416338D01*
X177275073Y-136390990D01*
X177228020Y-136365122D01*
X177225104Y-136364197D01*
X177222415Y-136362755D01*
X177171156Y-136347083D01*
X177119937Y-136330836D01*
X177116896Y-136330494D01*
X177113979Y-136329603D01*
X177060623Y-136324183D01*
X177007252Y-136318197D01*
X177001277Y-136318155D01*
X177001169Y-136318144D01*
X177001067Y-136318153D01*
X176999140Y-136318140D01*
X171981100Y-136318140D01*
X171981100Y-135561135D01*
X171981000Y-135560632D01*
X171981000Y-134634525D01*
X171981000Y-134559475D01*
X171981000Y-133422250D01*
X171981000Y-132977750D01*
X171981000Y-131840525D01*
X171981000Y-131765475D01*
X171966358Y-131691866D01*
X171937638Y-131622529D01*
X171895942Y-131560126D01*
X171842873Y-131507058D01*
X171780471Y-131465362D01*
X171711133Y-131436642D01*
X171637525Y-131422000D01*
X170822250Y-131422000D01*
X170727000Y-131517250D01*
X170727000Y-133073000D01*
X171885750Y-133073000D01*
X171981000Y-132977750D01*
X171981000Y-133422250D01*
X171885750Y-133327000D01*
X170727000Y-133327000D01*
X170727000Y-134882750D01*
X170822250Y-134978000D01*
X171637525Y-134978000D01*
X171711133Y-134963358D01*
X171780471Y-134934638D01*
X171842873Y-134892942D01*
X171895942Y-134839874D01*
X171937638Y-134777471D01*
X171966358Y-134708134D01*
X171981000Y-134634525D01*
X171981000Y-135560632D01*
X171966458Y-135487527D01*
X171937738Y-135418189D01*
X171896042Y-135355787D01*
X171842974Y-135302718D01*
X171780571Y-135261022D01*
X171711234Y-135232302D01*
X171637625Y-135217660D01*
X171562575Y-135217660D01*
X170473000Y-135217660D01*
X170473000Y-134882750D01*
X170473000Y-133327000D01*
X170473000Y-133073000D01*
X170473000Y-131517250D01*
X170377750Y-131422000D01*
X169562475Y-131422000D01*
X169488867Y-131436642D01*
X169419529Y-131465362D01*
X169357127Y-131507058D01*
X169304058Y-131560126D01*
X169262362Y-131622529D01*
X169233642Y-131691866D01*
X169219000Y-131765475D01*
X169219000Y-131840525D01*
X169219000Y-132977750D01*
X169314250Y-133073000D01*
X170473000Y-133073000D01*
X170473000Y-133327000D01*
X169314250Y-133327000D01*
X169219000Y-133422250D01*
X169219000Y-134559475D01*
X169219000Y-134634525D01*
X169233642Y-134708134D01*
X169262362Y-134777471D01*
X169304058Y-134839874D01*
X169357127Y-134892942D01*
X169419529Y-134934638D01*
X169488867Y-134963358D01*
X169562475Y-134978000D01*
X170377750Y-134978000D01*
X170473000Y-134882750D01*
X170473000Y-135217660D01*
X169962375Y-135217660D01*
X169888767Y-135232302D01*
X169819429Y-135261022D01*
X169757027Y-135302718D01*
X169703958Y-135355786D01*
X169662262Y-135418189D01*
X169633542Y-135487526D01*
X169618900Y-135561135D01*
X169618900Y-135636185D01*
X169618900Y-137258582D01*
X167353482Y-139524000D01*
X167342892Y-139524000D01*
X167326971Y-139513362D01*
X167257634Y-139484642D01*
X167184025Y-139470000D01*
X167257633Y-139455358D01*
X167326971Y-139426638D01*
X167389373Y-139384942D01*
X167442442Y-139331874D01*
X167484138Y-139269471D01*
X167512858Y-139200134D01*
X167527500Y-139126525D01*
X167527500Y-139051475D01*
X167527500Y-138543475D01*
X167512858Y-138469867D01*
X167484138Y-138400529D01*
X167442442Y-138338127D01*
X167389374Y-138285058D01*
X167326971Y-138243362D01*
X167257634Y-138214642D01*
X167184025Y-138200000D01*
X167257633Y-138185358D01*
X167326971Y-138156638D01*
X167389373Y-138114942D01*
X167442442Y-138061874D01*
X167484138Y-137999471D01*
X167512858Y-137930134D01*
X167527500Y-137856525D01*
X167527500Y-137781475D01*
X167527500Y-137273475D01*
X167512858Y-137199867D01*
X167484138Y-137130529D01*
X167442442Y-137068127D01*
X167389374Y-137015058D01*
X167326971Y-136973362D01*
X167257634Y-136944642D01*
X167184025Y-136930000D01*
X167257633Y-136915358D01*
X167326971Y-136886638D01*
X167389373Y-136844942D01*
X167442442Y-136791874D01*
X167484138Y-136729471D01*
X167512858Y-136660134D01*
X167527500Y-136586525D01*
X167527500Y-136511475D01*
X167527500Y-136003475D01*
X167512858Y-135929867D01*
X167484138Y-135860529D01*
X167442442Y-135798127D01*
X167389374Y-135745058D01*
X167326971Y-135703362D01*
X167257634Y-135674642D01*
X167184025Y-135660000D01*
X167156000Y-135660000D01*
X167156000Y-134978000D01*
X167637525Y-134978000D01*
X167711133Y-134963358D01*
X167780471Y-134934638D01*
X167842873Y-134892942D01*
X167895942Y-134839874D01*
X167937638Y-134777471D01*
X167966358Y-134708134D01*
X167981000Y-134634525D01*
X167981000Y-134559475D01*
X167981000Y-131765475D01*
X167966358Y-131691867D01*
X167937638Y-131622529D01*
X167895942Y-131560127D01*
X167842874Y-131507058D01*
X167780471Y-131465362D01*
X167763376Y-131458281D01*
X167840658Y-131381000D01*
X171859342Y-131381000D01*
X173039171Y-132560829D01*
X173080642Y-132594894D01*
X173121754Y-132629391D01*
X173124431Y-132630862D01*
X173126792Y-132632802D01*
X173174084Y-132658160D01*
X173221120Y-132684018D01*
X173224032Y-132684942D01*
X173226724Y-132686385D01*
X173277997Y-132702060D01*
X173329203Y-132718304D01*
X173332243Y-132718645D01*
X173335161Y-132719537D01*
X173388516Y-132724956D01*
X173441888Y-132730943D01*
X173447862Y-132730984D01*
X173447971Y-132730996D01*
X173448072Y-132730986D01*
X173450000Y-132731000D01*
X173669000Y-132731000D01*
X173669000Y-132937525D01*
X173683642Y-133011133D01*
X173712362Y-133080471D01*
X173754058Y-133142873D01*
X173807126Y-133195942D01*
X173869529Y-133237638D01*
X173938866Y-133266358D01*
X174012475Y-133281000D01*
X174087525Y-133281000D01*
X175387525Y-133281000D01*
X175461133Y-133266358D01*
X175530471Y-133237638D01*
X175592873Y-133195942D01*
X175645942Y-133142874D01*
X175687638Y-133080471D01*
X175716358Y-133011134D01*
X175731000Y-132937525D01*
X175731000Y-132862475D01*
X175731000Y-131362475D01*
X175716358Y-131288867D01*
X175687638Y-131219529D01*
X175645942Y-131157127D01*
X175592874Y-131104058D01*
X175530471Y-131062362D01*
X175461134Y-131033642D01*
X175387525Y-131019000D01*
X175312475Y-131019000D01*
X174012475Y-131019000D01*
X173938867Y-131033642D01*
X173869529Y-131062362D01*
X173807127Y-131104058D01*
X173754058Y-131157126D01*
X173712362Y-131219529D01*
X173683642Y-131288866D01*
X173669000Y-131362475D01*
X173669000Y-131437525D01*
X173669000Y-131547342D01*
X172510829Y-130389171D01*
X172469357Y-130355105D01*
X172428246Y-130320609D01*
X172425568Y-130319137D01*
X172423208Y-130317198D01*
X172375933Y-130291850D01*
X172328880Y-130265982D01*
X172325964Y-130265057D01*
X172323275Y-130263615D01*
X172272016Y-130247943D01*
X172220797Y-130231696D01*
X172217756Y-130231354D01*
X172214839Y-130230463D01*
X172161483Y-130225043D01*
X172108112Y-130219057D01*
X172105309Y-130219037D01*
X172139874Y-130195942D01*
X172192942Y-130142873D01*
X172234638Y-130080471D01*
X172263358Y-130011133D01*
X172278000Y-129937525D01*
X172278000Y-129122250D01*
X172278000Y-128677750D01*
X172278000Y-127862475D01*
X172263358Y-127788867D01*
X172234638Y-127719529D01*
X172192942Y-127657127D01*
X172139874Y-127604058D01*
X172077471Y-127562362D01*
X172008134Y-127533642D01*
X171934525Y-127519000D01*
X171859475Y-127519000D01*
X170722250Y-127519000D01*
X170627000Y-127614250D01*
X170627000Y-128773000D01*
X172182750Y-128773000D01*
X172278000Y-128677750D01*
X172278000Y-129122250D01*
X172182750Y-129027000D01*
X170627000Y-129027000D01*
X170627000Y-129047000D01*
X170373000Y-129047000D01*
X170373000Y-129027000D01*
X168817250Y-129027000D01*
X168722000Y-129122250D01*
X168722000Y-129937525D01*
X168736642Y-130011133D01*
X168765362Y-130080471D01*
X168807058Y-130142873D01*
X168860126Y-130195942D01*
X168894635Y-130219000D01*
X168181000Y-130219000D01*
X168181000Y-128091000D01*
X168527525Y-128091000D01*
X168601133Y-128076358D01*
X168670471Y-128047638D01*
X168722000Y-128013207D01*
X168722000Y-128677750D01*
X168817250Y-128773000D01*
X170373000Y-128773000D01*
X170373000Y-127614250D01*
X170277750Y-127519000D01*
X169140525Y-127519000D01*
X169065475Y-127519000D01*
X168991866Y-127533642D01*
X168922529Y-127562362D01*
X168871000Y-127596792D01*
X168871000Y-127085658D01*
X169675658Y-126281000D01*
X171934525Y-126281000D01*
X172008133Y-126266358D01*
X172077471Y-126237638D01*
X172139873Y-126195942D01*
X172192942Y-126142874D01*
X172234638Y-126080471D01*
X172263358Y-126011134D01*
X172278000Y-125937525D01*
X172278000Y-125862475D01*
X172278000Y-125481000D01*
X184159342Y-125481000D01*
X184419000Y-125740658D01*
X184419000Y-129245768D01*
X184357330Y-129270685D01*
X184181060Y-129386032D01*
X184181060Y-127615538D01*
X184109411Y-127253681D01*
X183968840Y-126912631D01*
X183764703Y-126605381D01*
X183504776Y-126343632D01*
X183198958Y-126137355D01*
X182858898Y-125994407D01*
X182497549Y-125920233D01*
X182128675Y-125917658D01*
X181766326Y-125986780D01*
X181424304Y-126124966D01*
X181115636Y-126326953D01*
X180852079Y-126585046D01*
X180643672Y-126889417D01*
X180498353Y-127228470D01*
X180421658Y-127589292D01*
X180416508Y-127958140D01*
X180483098Y-128320962D01*
X180618893Y-128663941D01*
X180818720Y-128974012D01*
X181074968Y-129239364D01*
X181377876Y-129449891D01*
X181715907Y-129597573D01*
X182076185Y-129676785D01*
X182444987Y-129684510D01*
X182808266Y-129620455D01*
X183152184Y-129487057D01*
X183463642Y-129289400D01*
X183730777Y-129035011D01*
X183943413Y-128733580D01*
X184093451Y-128396589D01*
X184175177Y-128036872D01*
X184181060Y-127615538D01*
X184181060Y-129386032D01*
X184130794Y-129418926D01*
X183937366Y-129608344D01*
X183784414Y-129831726D01*
X183677763Y-130080562D01*
X183621475Y-130345374D01*
X183617695Y-130616075D01*
X183666567Y-130882356D01*
X183766228Y-131134073D01*
X183912884Y-131361638D01*
X184100948Y-131556383D01*
X184323256Y-131710891D01*
X184571341Y-131819277D01*
X184835754Y-131877412D01*
X185106422Y-131883082D01*
X185373038Y-131836070D01*
X185625444Y-131738168D01*
X185854027Y-131593105D01*
X186050081Y-131406405D01*
X186206137Y-131185181D01*
X186316252Y-130937859D01*
X186376232Y-130673859D01*
X186380550Y-130364636D01*
X186327965Y-130099064D01*
X186224798Y-129848763D01*
X186074980Y-129623268D01*
X185884215Y-129431167D01*
X185659772Y-129279778D01*
X185581000Y-129246665D01*
X185581000Y-125500000D01*
X185575764Y-125446605D01*
X185571086Y-125393124D01*
X185570232Y-125390187D01*
X185569935Y-125387150D01*
X185554431Y-125335799D01*
X185539450Y-125284235D01*
X185538043Y-125281522D01*
X185537161Y-125278598D01*
X185511981Y-125231243D01*
X185487268Y-125183565D01*
X185485359Y-125181174D01*
X185483927Y-125178480D01*
X185450026Y-125136913D01*
X185416525Y-125094947D01*
X185412332Y-125090695D01*
X185412261Y-125090608D01*
X185412180Y-125090541D01*
X185410829Y-125089171D01*
X184810829Y-124489171D01*
X184769357Y-124455105D01*
X184728246Y-124420609D01*
X184725568Y-124419137D01*
X184723208Y-124417198D01*
X184675933Y-124391850D01*
X184628880Y-124365982D01*
X184625964Y-124365057D01*
X184623275Y-124363615D01*
X184572016Y-124347943D01*
X184520797Y-124331696D01*
X184517756Y-124331354D01*
X184514839Y-124330463D01*
X184461483Y-124325043D01*
X184408112Y-124319057D01*
X184402137Y-124319015D01*
X184402029Y-124319004D01*
X184401927Y-124319013D01*
X184400000Y-124319000D01*
X183259487Y-124319000D01*
X183463642Y-124189440D01*
X183730777Y-123935051D01*
X183943413Y-123633620D01*
X184093451Y-123296629D01*
X184175177Y-122936912D01*
X184181060Y-122515578D01*
X184109411Y-122153721D01*
X183968840Y-121812671D01*
X183764703Y-121505421D01*
X183504776Y-121243672D01*
X183198958Y-121037395D01*
X182858898Y-120894447D01*
X182497549Y-120820273D01*
X182128675Y-120817698D01*
X181766326Y-120886820D01*
X181424304Y-121025006D01*
X181115636Y-121226993D01*
X180852079Y-121485086D01*
X180643672Y-121789457D01*
X180498353Y-122128510D01*
X180421658Y-122489332D01*
X180416508Y-122858180D01*
X180483098Y-123221002D01*
X180618893Y-123563981D01*
X180818720Y-123874052D01*
X181074968Y-124139404D01*
X181333372Y-124319000D01*
X173581000Y-124319000D01*
X173581000Y-120787525D01*
X173581000Y-120712475D01*
X173581000Y-119412475D01*
X173566358Y-119338867D01*
X173537638Y-119269529D01*
X173495942Y-119207127D01*
X173442874Y-119154058D01*
X173380471Y-119112362D01*
X173311134Y-119083642D01*
X173237525Y-119069000D01*
X173162475Y-119069000D01*
X173031000Y-119069000D01*
X173031000Y-118337525D01*
X173031000Y-118262475D01*
X173031000Y-118022250D01*
X173031000Y-117577750D01*
X173031000Y-117337525D01*
X173031000Y-117262475D01*
X173016358Y-117188866D01*
X172987638Y-117119529D01*
X172945942Y-117057126D01*
X172892873Y-117004058D01*
X172830471Y-116962362D01*
X172761133Y-116933642D01*
X172687525Y-116919000D01*
X171572250Y-116919000D01*
X171477000Y-117014250D01*
X171477000Y-117673000D01*
X172935750Y-117673000D01*
X173031000Y-117577750D01*
X173031000Y-118022250D01*
X172935750Y-117927000D01*
X171477000Y-117927000D01*
X171477000Y-118585750D01*
X171572250Y-118681000D01*
X172687525Y-118681000D01*
X172761133Y-118666358D01*
X172830471Y-118637638D01*
X172892873Y-118595942D01*
X172945942Y-118542874D01*
X172987638Y-118480471D01*
X173016358Y-118411134D01*
X173031000Y-118337525D01*
X173031000Y-119069000D01*
X171662475Y-119069000D01*
X171588867Y-119083642D01*
X171519529Y-119112362D01*
X171457127Y-119154058D01*
X171404058Y-119207126D01*
X171362362Y-119269529D01*
X171333642Y-119338866D01*
X171319000Y-119412475D01*
X171319000Y-119469000D01*
X171223000Y-119469000D01*
X171223000Y-118585750D01*
X171223000Y-117927000D01*
X171223000Y-117673000D01*
X171223000Y-117014250D01*
X171127750Y-116919000D01*
X170012475Y-116919000D01*
X169938867Y-116933642D01*
X169869529Y-116962362D01*
X169807127Y-117004058D01*
X169754058Y-117057126D01*
X169712362Y-117119529D01*
X169683642Y-117188866D01*
X169669000Y-117262475D01*
X169669000Y-117337525D01*
X169669000Y-117577750D01*
X169764250Y-117673000D01*
X171223000Y-117673000D01*
X171223000Y-117927000D01*
X169764250Y-117927000D01*
X169669000Y-118022250D01*
X169669000Y-118262475D01*
X169669000Y-118337525D01*
X169683642Y-118411134D01*
X169712362Y-118480471D01*
X169754058Y-118542874D01*
X169807127Y-118595942D01*
X169869529Y-118637638D01*
X169938867Y-118666358D01*
X170012475Y-118681000D01*
X171127750Y-118681000D01*
X171223000Y-118585750D01*
X171223000Y-119469000D01*
X166361368Y-119469000D01*
X165646184Y-118753816D01*
X165601172Y-118716842D01*
X165558456Y-118681000D01*
X167587525Y-118681000D01*
X167661133Y-118666358D01*
X167730471Y-118637638D01*
X167792873Y-118595942D01*
X167845942Y-118542874D01*
X167887638Y-118480471D01*
X167916358Y-118411134D01*
X167931000Y-118337525D01*
X167931000Y-118262475D01*
X167931000Y-118022250D01*
X167931000Y-117577750D01*
X167931000Y-117337525D01*
X167931000Y-117262475D01*
X167916358Y-117188866D01*
X167887638Y-117119529D01*
X167845942Y-117057126D01*
X167792873Y-117004058D01*
X167730471Y-116962362D01*
X167661133Y-116933642D01*
X167587525Y-116919000D01*
X165222250Y-116919000D01*
X165127000Y-117014250D01*
X165127000Y-117673000D01*
X167835750Y-117673000D01*
X167931000Y-117577750D01*
X167931000Y-118022250D01*
X167835750Y-117927000D01*
X165127000Y-117927000D01*
X165127000Y-117947000D01*
X164873000Y-117947000D01*
X164873000Y-117927000D01*
X164873000Y-117673000D01*
X164873000Y-117014250D01*
X164777750Y-116919000D01*
X162412475Y-116919000D01*
X162338867Y-116933642D01*
X162269529Y-116962362D01*
X162207127Y-117004058D01*
X162154058Y-117057126D01*
X162112362Y-117119529D01*
X162083642Y-117188866D01*
X162069000Y-117262475D01*
X162069000Y-117337525D01*
X162069000Y-117577750D01*
X162164250Y-117673000D01*
X164873000Y-117673000D01*
X164873000Y-117927000D01*
X162164250Y-117927000D01*
X162069000Y-118022250D01*
X162069000Y-118262475D01*
X162069000Y-118337525D01*
X162083642Y-118411134D01*
X162112362Y-118480471D01*
X162154058Y-118542874D01*
X162180184Y-118569000D01*
X160219815Y-118569000D01*
X160245942Y-118542874D01*
X160287638Y-118480471D01*
X160316358Y-118411134D01*
X160331000Y-118337525D01*
X160331000Y-118262475D01*
X160331000Y-118022250D01*
X160331000Y-117577750D01*
X160331000Y-117337525D01*
X160331000Y-117262475D01*
X160316358Y-117188866D01*
X160287638Y-117119529D01*
X160245942Y-117057126D01*
X160192873Y-117004058D01*
X160130471Y-116962362D01*
X160061133Y-116933642D01*
X159987525Y-116919000D01*
X158872250Y-116919000D01*
X158777000Y-117014250D01*
X158777000Y-117673000D01*
X160235750Y-117673000D01*
X160331000Y-117577750D01*
X160331000Y-118022250D01*
X160235750Y-117927000D01*
X158777000Y-117927000D01*
X158777000Y-117947000D01*
X158523000Y-117947000D01*
X158523000Y-117927000D01*
X158523000Y-117673000D01*
X158523000Y-117014250D01*
X158427750Y-116919000D01*
X157312475Y-116919000D01*
X157238867Y-116933642D01*
X157169529Y-116962362D01*
X157107127Y-117004058D01*
X157054058Y-117057126D01*
X157012362Y-117119529D01*
X156983642Y-117188866D01*
X156969000Y-117262475D01*
X156969000Y-117337525D01*
X156969000Y-117577750D01*
X157064250Y-117673000D01*
X158523000Y-117673000D01*
X158523000Y-117927000D01*
X157064250Y-117927000D01*
X156969000Y-118022250D01*
X156969000Y-118262475D01*
X156969000Y-118337525D01*
X156983642Y-118411134D01*
X157012362Y-118480471D01*
X157054058Y-118542874D01*
X157080184Y-118569000D01*
X156000000Y-118569000D01*
X155941955Y-118574691D01*
X155883926Y-118579768D01*
X155880742Y-118580693D01*
X155877438Y-118581017D01*
X155821582Y-118597880D01*
X155765667Y-118614126D01*
X155762725Y-118615650D01*
X155759545Y-118616611D01*
X155708051Y-118643990D01*
X155656333Y-118670799D01*
X155653739Y-118672869D01*
X155650810Y-118674427D01*
X155605628Y-118711275D01*
X155601000Y-118714969D01*
X155601000Y-118337525D01*
X155601000Y-118262475D01*
X155601000Y-118022250D01*
X155601000Y-117577750D01*
X155601000Y-117337525D01*
X155601000Y-117262475D01*
X155586358Y-117188866D01*
X155557638Y-117119529D01*
X155515942Y-117057126D01*
X155462873Y-117004058D01*
X155400471Y-116962362D01*
X155331133Y-116933642D01*
X155257525Y-116919000D01*
X153792250Y-116919000D01*
X153697000Y-117014250D01*
X153697000Y-117673000D01*
X155505750Y-117673000D01*
X155601000Y-117577750D01*
X155601000Y-118022250D01*
X155505750Y-117927000D01*
X153697000Y-117927000D01*
X153697000Y-118585750D01*
X153792250Y-118681000D01*
X155257525Y-118681000D01*
X155331133Y-118666358D01*
X155400471Y-118637638D01*
X155462873Y-118595942D01*
X155515942Y-118542874D01*
X155557638Y-118480471D01*
X155586358Y-118411134D01*
X155601000Y-118337525D01*
X155601000Y-118714969D01*
X155560089Y-118747630D01*
X155555469Y-118752184D01*
X155555376Y-118752261D01*
X155555304Y-118752347D01*
X155553815Y-118753816D01*
X154653816Y-119653816D01*
X154616842Y-119698827D01*
X154579353Y-119743506D01*
X154577754Y-119746413D01*
X154575649Y-119748977D01*
X154548083Y-119800385D01*
X154520026Y-119851423D01*
X154519024Y-119854580D01*
X154517454Y-119857509D01*
X154500396Y-119913304D01*
X154482789Y-119968808D01*
X154482419Y-119972104D01*
X154481449Y-119975278D01*
X154475556Y-120033289D01*
X154469062Y-120091190D01*
X154469016Y-120097675D01*
X154469004Y-120097797D01*
X154469014Y-120097910D01*
X154469000Y-120100000D01*
X154469000Y-124519000D01*
X154212475Y-124519000D01*
X154138867Y-124533642D01*
X154069529Y-124562362D01*
X154007127Y-124604058D01*
X153954058Y-124657126D01*
X153912362Y-124719529D01*
X153883642Y-124788866D01*
X153869000Y-124862475D01*
X153869000Y-124937525D01*
X153869000Y-125837525D01*
X153883642Y-125911133D01*
X153912362Y-125980471D01*
X153954058Y-126042873D01*
X154007126Y-126095942D01*
X154069529Y-126137638D01*
X154138866Y-126166358D01*
X154212475Y-126181000D01*
X154287525Y-126181000D01*
X155109342Y-126181000D01*
X155764171Y-126835829D01*
X155805642Y-126869894D01*
X155846754Y-126904391D01*
X155849431Y-126905862D01*
X155851792Y-126907802D01*
X155899066Y-126933149D01*
X155946120Y-126959018D01*
X155949035Y-126959942D01*
X155951725Y-126961385D01*
X156002983Y-126977056D01*
X156054203Y-126993304D01*
X156057243Y-126993645D01*
X156060161Y-126994537D01*
X156113557Y-126999961D01*
X156166888Y-127005943D01*
X156172853Y-127005984D01*
X156172972Y-127005997D01*
X156173082Y-127005986D01*
X156175000Y-127006000D01*
X156519000Y-127006000D01*
X156519000Y-127700000D01*
X156524235Y-127753394D01*
X156528914Y-127806876D01*
X156529767Y-127809812D01*
X156530065Y-127812850D01*
X156545568Y-127864200D01*
X156560550Y-127915765D01*
X156561956Y-127918477D01*
X156562839Y-127921402D01*
X156588018Y-127968756D01*
X156612732Y-128016435D01*
X156614640Y-128018825D01*
X156616073Y-128021520D01*
X156649973Y-128063086D01*
X156683475Y-128105053D01*
X156687667Y-128109304D01*
X156687739Y-128109392D01*
X156687819Y-128109458D01*
X156689171Y-128110829D01*
X157804000Y-129225658D01*
X157804000Y-134537525D01*
X157818642Y-134611133D01*
X157847362Y-134680471D01*
X157889058Y-134742873D01*
X157942126Y-134795942D01*
X158004529Y-134837638D01*
X158073866Y-134866358D01*
X158147475Y-134881000D01*
X158222525Y-134881000D01*
X159572525Y-134881000D01*
X159646133Y-134866358D01*
X159715471Y-134837638D01*
X159777873Y-134795942D01*
X159830942Y-134742874D01*
X159872638Y-134680471D01*
X159901358Y-134611134D01*
X159916000Y-134537525D01*
X159916000Y-134462475D01*
X159916000Y-128462475D01*
X159901358Y-128388867D01*
X159872638Y-128319529D01*
X159830942Y-128257127D01*
X159806000Y-128232184D01*
X159806000Y-127337525D01*
X159806000Y-127282750D01*
X159710750Y-127187500D01*
X158827000Y-127187500D01*
X158827000Y-127585750D01*
X158922250Y-127681000D01*
X159462525Y-127681000D01*
X159536133Y-127666358D01*
X159605471Y-127637638D01*
X159667873Y-127595942D01*
X159720942Y-127542874D01*
X159762638Y-127480471D01*
X159791358Y-127411134D01*
X159806000Y-127337525D01*
X159806000Y-128232184D01*
X159777874Y-128204058D01*
X159715471Y-128162362D01*
X159646134Y-128133642D01*
X159572525Y-128119000D01*
X159497475Y-128119000D01*
X158340658Y-128119000D01*
X157894012Y-127672354D01*
X157937475Y-127681000D01*
X158477750Y-127681000D01*
X158573000Y-127585750D01*
X158573000Y-127187500D01*
X158553000Y-127187500D01*
X158553000Y-127031000D01*
X159462525Y-127031000D01*
X159536133Y-127016358D01*
X159561140Y-127006000D01*
X161994000Y-127006000D01*
X161994000Y-127337525D01*
X162008642Y-127411133D01*
X162037362Y-127480471D01*
X162079058Y-127542873D01*
X162132126Y-127595942D01*
X162194529Y-127637638D01*
X162263866Y-127666358D01*
X162337475Y-127681000D01*
X162412525Y-127681000D01*
X162519000Y-127681000D01*
X162519000Y-128119000D01*
X162287475Y-128119000D01*
X162213867Y-128133642D01*
X162144529Y-128162362D01*
X162082127Y-128204058D01*
X162029058Y-128257126D01*
X161987362Y-128319529D01*
X161958642Y-128388866D01*
X161944000Y-128462475D01*
X161944000Y-128537525D01*
X161944000Y-134537525D01*
X161958642Y-134611133D01*
X161987362Y-134680471D01*
X162029058Y-134742873D01*
X162082126Y-134795942D01*
X162144529Y-134837638D01*
X162213866Y-134866358D01*
X162287475Y-134881000D01*
X162362525Y-134881000D01*
X163712525Y-134881000D01*
X163786133Y-134866358D01*
X163855471Y-134837638D01*
X163917873Y-134795942D01*
X163970942Y-134742874D01*
X164012638Y-134680471D01*
X164041358Y-134611134D01*
X164056000Y-134537525D01*
X164056000Y-134462475D01*
X164056000Y-128462475D01*
X164041358Y-128388867D01*
X164012638Y-128319529D01*
X163970942Y-128257127D01*
X163917874Y-128204058D01*
X163855471Y-128162362D01*
X163786134Y-128133642D01*
X163712525Y-128119000D01*
X163681000Y-128119000D01*
X163681000Y-127681000D01*
X163862525Y-127681000D01*
X163929000Y-127681000D01*
X163929000Y-127747525D01*
X163943642Y-127821133D01*
X163972362Y-127890471D01*
X164014058Y-127952873D01*
X164067126Y-128005942D01*
X164129529Y-128047638D01*
X164198866Y-128076358D01*
X164272475Y-128091000D01*
X164347525Y-128091000D01*
X165257525Y-128091000D01*
X165331133Y-128076358D01*
X165400471Y-128047638D01*
X165462873Y-128005942D01*
X165515942Y-127952874D01*
X165557638Y-127890471D01*
X165586358Y-127821134D01*
X165601000Y-127747525D01*
X165601000Y-127672475D01*
X165601000Y-126452475D01*
X165586358Y-126378867D01*
X165557638Y-126309529D01*
X165515942Y-126247127D01*
X165462874Y-126194058D01*
X165400471Y-126152362D01*
X165331134Y-126123642D01*
X165257525Y-126109000D01*
X165182475Y-126109000D01*
X164272475Y-126109000D01*
X164198867Y-126123642D01*
X164198320Y-126123868D01*
X164193572Y-126100000D01*
X164206000Y-126037525D01*
X164206000Y-125962475D01*
X164206000Y-125512475D01*
X164193572Y-125450000D01*
X164206000Y-125387525D01*
X164206000Y-125312475D01*
X164206000Y-124862475D01*
X164191358Y-124788867D01*
X164162638Y-124719529D01*
X164120942Y-124657127D01*
X164067874Y-124604058D01*
X164005471Y-124562362D01*
X163936134Y-124533642D01*
X163862525Y-124519000D01*
X163787475Y-124519000D01*
X162337475Y-124519000D01*
X162263867Y-124533642D01*
X162194529Y-124562362D01*
X162132127Y-124604058D01*
X162079058Y-124657126D01*
X162037362Y-124719529D01*
X162008642Y-124788866D01*
X161994000Y-124862475D01*
X161994000Y-124937525D01*
X161994000Y-125387525D01*
X162006427Y-125449999D01*
X161994000Y-125512475D01*
X161994000Y-125587525D01*
X161994000Y-125844000D01*
X160774420Y-125844000D01*
X161209210Y-125409210D01*
X161238976Y-125372971D01*
X161269158Y-125337003D01*
X161270445Y-125334660D01*
X161272140Y-125332598D01*
X161294300Y-125291269D01*
X161316921Y-125250122D01*
X161317729Y-125247574D01*
X161318991Y-125245221D01*
X161332711Y-125200343D01*
X161346899Y-125155619D01*
X161347196Y-125152965D01*
X161347978Y-125150410D01*
X161352723Y-125103687D01*
X161357950Y-125057093D01*
X161357986Y-125051873D01*
X161357997Y-125051773D01*
X161357988Y-125051679D01*
X161358000Y-125050000D01*
X161358000Y-124196945D01*
X161380471Y-124187638D01*
X161442873Y-124145942D01*
X161495942Y-124092874D01*
X161537638Y-124030471D01*
X161566358Y-123961134D01*
X161581000Y-123887525D01*
X161581000Y-123812475D01*
X161581000Y-122512475D01*
X161566358Y-122438867D01*
X161537638Y-122369529D01*
X161495942Y-122307127D01*
X161442874Y-122254058D01*
X161380471Y-122212362D01*
X161358000Y-122203054D01*
X161358000Y-122096945D01*
X161380471Y-122087638D01*
X161442873Y-122045942D01*
X161495942Y-121992874D01*
X161537638Y-121930471D01*
X161566358Y-121861134D01*
X161581000Y-121787525D01*
X161581000Y-121712475D01*
X161581000Y-120412475D01*
X161566358Y-120338867D01*
X161537638Y-120269529D01*
X161495942Y-120207127D01*
X161442874Y-120154058D01*
X161380471Y-120112362D01*
X161311134Y-120083642D01*
X161237525Y-120069000D01*
X161162475Y-120069000D01*
X160462475Y-120069000D01*
X160388867Y-120083642D01*
X160319529Y-120112362D01*
X160257127Y-120154058D01*
X160204058Y-120207126D01*
X160162362Y-120269529D01*
X160133642Y-120338866D01*
X160119000Y-120412475D01*
X160119000Y-120487525D01*
X160119000Y-121787525D01*
X160133642Y-121861133D01*
X160162362Y-121930471D01*
X160204058Y-121992873D01*
X160257126Y-122045942D01*
X160319529Y-122087638D01*
X160342000Y-122096945D01*
X160342000Y-122203054D01*
X160319529Y-122212362D01*
X160257127Y-122254058D01*
X160204058Y-122307126D01*
X160162362Y-122369529D01*
X160133642Y-122438866D01*
X160119000Y-122512475D01*
X160119000Y-122587525D01*
X160119000Y-123887525D01*
X160133642Y-123961133D01*
X160162362Y-124030471D01*
X160204058Y-124092873D01*
X160257126Y-124145942D01*
X160319529Y-124187638D01*
X160342000Y-124196945D01*
X160342000Y-124839580D01*
X159914580Y-125267000D01*
X159806000Y-125267000D01*
X159806000Y-124862475D01*
X159791358Y-124788867D01*
X159762638Y-124719529D01*
X159720942Y-124657127D01*
X159681000Y-124617184D01*
X159681000Y-123887525D01*
X159681000Y-123812475D01*
X159681000Y-122512475D01*
X159666358Y-122438867D01*
X159637638Y-122369529D01*
X159595942Y-122307127D01*
X159542874Y-122254058D01*
X159480471Y-122212362D01*
X159458000Y-122203054D01*
X159458000Y-122071945D01*
X159480471Y-122062638D01*
X159542873Y-122020942D01*
X159595942Y-121967874D01*
X159637638Y-121905471D01*
X159666358Y-121836134D01*
X159681000Y-121762525D01*
X159681000Y-121687475D01*
X159681000Y-120437475D01*
X159666358Y-120363867D01*
X159637638Y-120294529D01*
X159595942Y-120232127D01*
X159542874Y-120179058D01*
X159480471Y-120137362D01*
X159411134Y-120108642D01*
X159337525Y-120094000D01*
X159262475Y-120094000D01*
X158262475Y-120094000D01*
X158188867Y-120108642D01*
X158119529Y-120137362D01*
X158057127Y-120179058D01*
X158004058Y-120232126D01*
X157962362Y-120294529D01*
X157933642Y-120363866D01*
X157919000Y-120437475D01*
X157919000Y-120512525D01*
X157919000Y-121762525D01*
X157933642Y-121836133D01*
X157962362Y-121905471D01*
X158004058Y-121967873D01*
X158057126Y-122020942D01*
X158119529Y-122062638D01*
X158188866Y-122091358D01*
X158262475Y-122106000D01*
X158337525Y-122106000D01*
X158442000Y-122106000D01*
X158442000Y-122203054D01*
X158419529Y-122212362D01*
X158357127Y-122254058D01*
X158304058Y-122307126D01*
X158262362Y-122369529D01*
X158233642Y-122438866D01*
X158219000Y-122512475D01*
X158219000Y-122587525D01*
X158219000Y-123887525D01*
X158233642Y-123961133D01*
X158262362Y-124030471D01*
X158304058Y-124092873D01*
X158357126Y-124145942D01*
X158419529Y-124187638D01*
X158488866Y-124216358D01*
X158562475Y-124231000D01*
X158637525Y-124231000D01*
X159337525Y-124231000D01*
X159411133Y-124216358D01*
X159480471Y-124187638D01*
X159542873Y-124145942D01*
X159595942Y-124092874D01*
X159637638Y-124030471D01*
X159666358Y-123961134D01*
X159681000Y-123887525D01*
X159681000Y-124617184D01*
X159667874Y-124604058D01*
X159605471Y-124562362D01*
X159536134Y-124533642D01*
X159462525Y-124519000D01*
X159387475Y-124519000D01*
X158779977Y-124519000D01*
X157781000Y-123641110D01*
X157781000Y-122512475D01*
X157766358Y-122438867D01*
X157737638Y-122369529D01*
X157695942Y-122307127D01*
X157681000Y-122292184D01*
X157681000Y-121762525D01*
X157681000Y-121687475D01*
X157681000Y-121322250D01*
X157681000Y-120877750D01*
X157681000Y-120512525D01*
X157681000Y-120437475D01*
X157666358Y-120363866D01*
X157637638Y-120294529D01*
X157595942Y-120232126D01*
X157542873Y-120179058D01*
X157480471Y-120137362D01*
X157411133Y-120108642D01*
X157337525Y-120094000D01*
X157022250Y-120094000D01*
X156927000Y-120189250D01*
X156927000Y-120973000D01*
X157585750Y-120973000D01*
X157681000Y-120877750D01*
X157681000Y-121322250D01*
X157585750Y-121227000D01*
X156927000Y-121227000D01*
X156927000Y-122010750D01*
X157022250Y-122106000D01*
X157337525Y-122106000D01*
X157411133Y-122091358D01*
X157480471Y-122062638D01*
X157542873Y-122020942D01*
X157595942Y-121967874D01*
X157637638Y-121905471D01*
X157666358Y-121836134D01*
X157681000Y-121762525D01*
X157681000Y-122292184D01*
X157642874Y-122254058D01*
X157580471Y-122212362D01*
X157511134Y-122183642D01*
X157437525Y-122169000D01*
X157362475Y-122169000D01*
X156673000Y-122169000D01*
X156673000Y-122010750D01*
X156673000Y-121227000D01*
X156673000Y-120973000D01*
X156673000Y-120189250D01*
X156577750Y-120094000D01*
X156262475Y-120094000D01*
X156188867Y-120108642D01*
X156119529Y-120137362D01*
X156057127Y-120179058D01*
X156004058Y-120232126D01*
X155962362Y-120294529D01*
X155933642Y-120363866D01*
X155919000Y-120437475D01*
X155919000Y-120512525D01*
X155919000Y-120877750D01*
X156014250Y-120973000D01*
X156673000Y-120973000D01*
X156673000Y-121227000D01*
X156014250Y-121227000D01*
X155919000Y-121322250D01*
X155919000Y-121687475D01*
X155919000Y-121762525D01*
X155933642Y-121836134D01*
X155962362Y-121905471D01*
X156004058Y-121967874D01*
X156057127Y-122020942D01*
X156119529Y-122062638D01*
X156188867Y-122091358D01*
X156262475Y-122106000D01*
X156577750Y-122106000D01*
X156673000Y-122010750D01*
X156673000Y-122169000D01*
X156662475Y-122169000D01*
X156588867Y-122183642D01*
X156519529Y-122212362D01*
X156457127Y-122254058D01*
X156404058Y-122307126D01*
X156362362Y-122369529D01*
X156333642Y-122438866D01*
X156319000Y-122512475D01*
X156319000Y-122587525D01*
X156319000Y-123887525D01*
X156333642Y-123961133D01*
X156362362Y-124030471D01*
X156404058Y-124092873D01*
X156457126Y-124145942D01*
X156519529Y-124187638D01*
X156588866Y-124216358D01*
X156662475Y-124231000D01*
X156737525Y-124231000D01*
X156913126Y-124231000D01*
X157599609Y-124834273D01*
X157594000Y-124862475D01*
X157594000Y-124937525D01*
X157594000Y-125387525D01*
X157606427Y-125449999D01*
X157594000Y-125512475D01*
X157594000Y-125587525D01*
X157594000Y-125844000D01*
X157100000Y-125844000D01*
X156415658Y-125844000D01*
X156331000Y-125759342D01*
X156331000Y-124862475D01*
X156316358Y-124788867D01*
X156287638Y-124719529D01*
X156245942Y-124657127D01*
X156192874Y-124604058D01*
X156130471Y-124562362D01*
X156061134Y-124533642D01*
X155987525Y-124519000D01*
X155912475Y-124519000D01*
X155731000Y-124519000D01*
X155731000Y-120361368D01*
X156261368Y-119831000D01*
X164938631Y-119831000D01*
X165653815Y-120546184D01*
X165698851Y-120583177D01*
X165743506Y-120620647D01*
X165746413Y-120622245D01*
X165748977Y-120624351D01*
X165800385Y-120651916D01*
X165851423Y-120679974D01*
X165854580Y-120680975D01*
X165857509Y-120682546D01*
X165913304Y-120699603D01*
X165968808Y-120717211D01*
X165972104Y-120717580D01*
X165975278Y-120718551D01*
X166033289Y-120724443D01*
X166091190Y-120730938D01*
X166097675Y-120730983D01*
X166097797Y-120730996D01*
X166097910Y-120730985D01*
X166100000Y-120731000D01*
X171319000Y-120731000D01*
X171319000Y-120787525D01*
X171333642Y-120861133D01*
X171362362Y-120930471D01*
X171404058Y-120992873D01*
X171457126Y-121045942D01*
X171519529Y-121087638D01*
X171588866Y-121116358D01*
X171662475Y-121131000D01*
X171737525Y-121131000D01*
X173237525Y-121131000D01*
X173311133Y-121116358D01*
X173380471Y-121087638D01*
X173442873Y-121045942D01*
X173495942Y-120992874D01*
X173537638Y-120930471D01*
X173566358Y-120861134D01*
X173581000Y-120787525D01*
X173581000Y-124319000D01*
X172278000Y-124319000D01*
X172278000Y-123862475D01*
X172263358Y-123788867D01*
X172234638Y-123719529D01*
X172192942Y-123657127D01*
X172139874Y-123604058D01*
X172077471Y-123562362D01*
X172008134Y-123533642D01*
X171934525Y-123519000D01*
X171859475Y-123519000D01*
X169940658Y-123519000D01*
X169210829Y-122789171D01*
X169169357Y-122755105D01*
X169128246Y-122720609D01*
X169125568Y-122719137D01*
X169123208Y-122717198D01*
X169075933Y-122691850D01*
X169028880Y-122665982D01*
X169025964Y-122665057D01*
X169023275Y-122663615D01*
X168972016Y-122647943D01*
X168920797Y-122631696D01*
X168917756Y-122631354D01*
X168914839Y-122630463D01*
X168861483Y-122625043D01*
X168808112Y-122619057D01*
X168802137Y-122619015D01*
X168802029Y-122619004D01*
X168801927Y-122619013D01*
X168800000Y-122619000D01*
X163481000Y-122619000D01*
X163481000Y-122512475D01*
X163481000Y-121787525D01*
X163481000Y-121712475D01*
X163481000Y-121322250D01*
X163481000Y-120877750D01*
X163481000Y-120487525D01*
X163481000Y-120412475D01*
X163466358Y-120338866D01*
X163437638Y-120269529D01*
X163395942Y-120207126D01*
X163342873Y-120154058D01*
X163280471Y-120112362D01*
X163211133Y-120083642D01*
X163137525Y-120069000D01*
X162972250Y-120069000D01*
X162877000Y-120164250D01*
X162877000Y-120973000D01*
X163385750Y-120973000D01*
X163481000Y-120877750D01*
X163481000Y-121322250D01*
X163385750Y-121227000D01*
X162877000Y-121227000D01*
X162877000Y-122035750D01*
X162972250Y-122131000D01*
X163137525Y-122131000D01*
X163211133Y-122116358D01*
X163280471Y-122087638D01*
X163342873Y-122045942D01*
X163395942Y-121992874D01*
X163437638Y-121930471D01*
X163466358Y-121861134D01*
X163481000Y-121787525D01*
X163481000Y-122512475D01*
X163466358Y-122438867D01*
X163437638Y-122369529D01*
X163395942Y-122307127D01*
X163342874Y-122254058D01*
X163280471Y-122212362D01*
X163211134Y-122183642D01*
X163137525Y-122169000D01*
X163062475Y-122169000D01*
X162623000Y-122169000D01*
X162623000Y-122035750D01*
X162623000Y-121227000D01*
X162623000Y-120973000D01*
X162623000Y-120164250D01*
X162527750Y-120069000D01*
X162362475Y-120069000D01*
X162288867Y-120083642D01*
X162219529Y-120112362D01*
X162157127Y-120154058D01*
X162104058Y-120207126D01*
X162062362Y-120269529D01*
X162033642Y-120338866D01*
X162019000Y-120412475D01*
X162019000Y-120487525D01*
X162019000Y-120877750D01*
X162114250Y-120973000D01*
X162623000Y-120973000D01*
X162623000Y-121227000D01*
X162114250Y-121227000D01*
X162019000Y-121322250D01*
X162019000Y-121712475D01*
X162019000Y-121787525D01*
X162033642Y-121861134D01*
X162062362Y-121930471D01*
X162104058Y-121992874D01*
X162157127Y-122045942D01*
X162219529Y-122087638D01*
X162288867Y-122116358D01*
X162362475Y-122131000D01*
X162527750Y-122131000D01*
X162623000Y-122035750D01*
X162623000Y-122169000D01*
X162362475Y-122169000D01*
X162288867Y-122183642D01*
X162219529Y-122212362D01*
X162157127Y-122254058D01*
X162104058Y-122307126D01*
X162062362Y-122369529D01*
X162033642Y-122438866D01*
X162019000Y-122512475D01*
X162019000Y-122587525D01*
X162019000Y-123887525D01*
X162033642Y-123961133D01*
X162062362Y-124030471D01*
X162104058Y-124092873D01*
X162157126Y-124145942D01*
X162219529Y-124187638D01*
X162288866Y-124216358D01*
X162362475Y-124231000D01*
X162437525Y-124231000D01*
X163137525Y-124231000D01*
X163211133Y-124216358D01*
X163280471Y-124187638D01*
X163342873Y-124145942D01*
X163395942Y-124092874D01*
X163437638Y-124030471D01*
X163466358Y-123961134D01*
X163481000Y-123887525D01*
X163481000Y-123812475D01*
X163481000Y-123781000D01*
X168559342Y-123781000D01*
X168722000Y-123943658D01*
X168722000Y-125591342D01*
X168204342Y-126109000D01*
X167542475Y-126109000D01*
X167468867Y-126123642D01*
X167399529Y-126152362D01*
X167337127Y-126194058D01*
X167284058Y-126247126D01*
X167242362Y-126309529D01*
X167213642Y-126378866D01*
X167199000Y-126452475D01*
X167199000Y-126527525D01*
X167199000Y-127114342D01*
X167189171Y-127124171D01*
X167155105Y-127165642D01*
X167120609Y-127206754D01*
X167119137Y-127209431D01*
X167117198Y-127211792D01*
X167091850Y-127259066D01*
X167065982Y-127306120D01*
X167065057Y-127309035D01*
X167063615Y-127311725D01*
X167047943Y-127362983D01*
X167031696Y-127414203D01*
X167031354Y-127417243D01*
X167030463Y-127420161D01*
X167025043Y-127473516D01*
X167019057Y-127526888D01*
X167019015Y-127532862D01*
X167019004Y-127532971D01*
X167019013Y-127533072D01*
X167019000Y-127535000D01*
X167019000Y-130559342D01*
X166189171Y-131389171D01*
X166162204Y-131422000D01*
X165562475Y-131422000D01*
X165488867Y-131436642D01*
X165419529Y-131465362D01*
X165357127Y-131507058D01*
X165304058Y-131560126D01*
X165262362Y-131622529D01*
X165233642Y-131691866D01*
X165219000Y-131765475D01*
X165219000Y-131840525D01*
X165219000Y-134634525D01*
X165233642Y-134708133D01*
X165262362Y-134777471D01*
X165304058Y-134839873D01*
X165357126Y-134892942D01*
X165419529Y-134934638D01*
X165488866Y-134963358D01*
X165562475Y-134978000D01*
X165637525Y-134978000D01*
X165994000Y-134978000D01*
X165994000Y-135660000D01*
X165965975Y-135660000D01*
X165892367Y-135674642D01*
X165823029Y-135703362D01*
X165760627Y-135745058D01*
X165707558Y-135798126D01*
X165665862Y-135860529D01*
X165637142Y-135929866D01*
X165622500Y-136003475D01*
X165622500Y-136078525D01*
X165622500Y-136586525D01*
X165637142Y-136660133D01*
X165665862Y-136729471D01*
X165707558Y-136791873D01*
X165760626Y-136844942D01*
X165823029Y-136886638D01*
X165892366Y-136915358D01*
X165965975Y-136930000D01*
X165892367Y-136944642D01*
X165823029Y-136973362D01*
X165760627Y-137015058D01*
X165707558Y-137068126D01*
X165665862Y-137130529D01*
X165637142Y-137199866D01*
X165622500Y-137273475D01*
X165622500Y-137348525D01*
X165622500Y-137856525D01*
X165637142Y-137930133D01*
X165665862Y-137999471D01*
X165707558Y-138061873D01*
X165760626Y-138114942D01*
X165823029Y-138156638D01*
X165892366Y-138185358D01*
X165965975Y-138200000D01*
X165892367Y-138214642D01*
X165823029Y-138243362D01*
X165760627Y-138285058D01*
X165707558Y-138338126D01*
X165665862Y-138400529D01*
X165637142Y-138469866D01*
X165622500Y-138543475D01*
X165622500Y-138618525D01*
X165622500Y-139126525D01*
X165637142Y-139200133D01*
X165665862Y-139269471D01*
X165707558Y-139331873D01*
X165760626Y-139384942D01*
X165823029Y-139426638D01*
X165892366Y-139455358D01*
X165965975Y-139470000D01*
X165892367Y-139484642D01*
X165823029Y-139513362D01*
X165760627Y-139555058D01*
X165707558Y-139608126D01*
X165665862Y-139670529D01*
X165637142Y-139739866D01*
X165622500Y-139813475D01*
X165622500Y-139888525D01*
X165622500Y-140396525D01*
X165637142Y-140470133D01*
X165665862Y-140539471D01*
X165707558Y-140601873D01*
X165760626Y-140654942D01*
X165823029Y-140696638D01*
X165892366Y-140725358D01*
X165965975Y-140740000D01*
X166041025Y-140740000D01*
X167184025Y-140740000D01*
X167257633Y-140725358D01*
X167326971Y-140696638D01*
X167342891Y-140686000D01*
X167594140Y-140686000D01*
X167647534Y-140680764D01*
X167701016Y-140676086D01*
X167703952Y-140675232D01*
X167706990Y-140674935D01*
X167758340Y-140659431D01*
X167809905Y-140644450D01*
X167812617Y-140643043D01*
X167815542Y-140642161D01*
X167862896Y-140616981D01*
X167910575Y-140592268D01*
X167912965Y-140590359D01*
X167915660Y-140588927D01*
X167957226Y-140555026D01*
X167999193Y-140521525D01*
X168003444Y-140517332D01*
X168003532Y-140517261D01*
X168003598Y-140517180D01*
X168004969Y-140515829D01*
X169943860Y-138576937D01*
X169962375Y-138580620D01*
X170037425Y-138580620D01*
X171637625Y-138580620D01*
X171711233Y-138565978D01*
X171780571Y-138537258D01*
X171842973Y-138495562D01*
X171896042Y-138442494D01*
X171937738Y-138380091D01*
X171966458Y-138310754D01*
X171981100Y-138237145D01*
X171981100Y-138162095D01*
X171981100Y-137480140D01*
X176758482Y-137480140D01*
X180689171Y-141410829D01*
X180730642Y-141444894D01*
X180771754Y-141479391D01*
X180774431Y-141480862D01*
X180776792Y-141482802D01*
X180824066Y-141508149D01*
X180871120Y-141534018D01*
X180874035Y-141534942D01*
X180876725Y-141536385D01*
X180927983Y-141552056D01*
X180979203Y-141568304D01*
X180982243Y-141568645D01*
X180985161Y-141569537D01*
X181038561Y-141574961D01*
X181091888Y-141580943D01*
X181097851Y-141580984D01*
X181097971Y-141580997D01*
X181098081Y-141580986D01*
X181100000Y-141581000D01*
X183745215Y-141581000D01*
X183766228Y-141634073D01*
X183912884Y-141861638D01*
X184100948Y-142056383D01*
X184323256Y-142210891D01*
X184571341Y-142319277D01*
X184835754Y-142377412D01*
X185106422Y-142383082D01*
X185373038Y-142336070D01*
X185625444Y-142238168D01*
X185854027Y-142093105D01*
X186050081Y-141906405D01*
X186206137Y-141685181D01*
X186316252Y-141437859D01*
X186376232Y-141173859D01*
X186380550Y-140864636D01*
X186380550Y-142359317D01*
X186252119Y-142485086D01*
X186043712Y-142789457D01*
X185898393Y-143128510D01*
X185821698Y-143489332D01*
X185816548Y-143858180D01*
X185883138Y-144221002D01*
X186018933Y-144563981D01*
X186218760Y-144874052D01*
X186475008Y-145139404D01*
X186777916Y-145349931D01*
X187115947Y-145497613D01*
X187476225Y-145576825D01*
X187845027Y-145584550D01*
X188208306Y-145520495D01*
X188552224Y-145387097D01*
X188863682Y-145189440D01*
X189130817Y-144935051D01*
X189343453Y-144633620D01*
X189493491Y-144296629D01*
X189575217Y-143936912D01*
X189581100Y-143515578D01*
X189581100Y-145873000D01*
X184181060Y-145873000D01*
X184181060Y-143515578D01*
X184109411Y-143153721D01*
X183968840Y-142812671D01*
X183764703Y-142505421D01*
X183504776Y-142243672D01*
X183198958Y-142037395D01*
X182858898Y-141894447D01*
X182497549Y-141820273D01*
X182128675Y-141817698D01*
X181766326Y-141886820D01*
X181424304Y-142025006D01*
X181115636Y-142226993D01*
X180852079Y-142485086D01*
X180643672Y-142789457D01*
X180498353Y-143128510D01*
X180421658Y-143489332D01*
X180416508Y-143858180D01*
X180483098Y-144221002D01*
X180618893Y-144563981D01*
X180818720Y-144874052D01*
X181074968Y-145139404D01*
X181377876Y-145349931D01*
X181715907Y-145497613D01*
X182076185Y-145576825D01*
X182444987Y-145584550D01*
X182808266Y-145520495D01*
X183152184Y-145387097D01*
X183463642Y-145189440D01*
X183730777Y-144935051D01*
X183943413Y-144633620D01*
X184093451Y-144296629D01*
X184175177Y-143936912D01*
X184181060Y-143515578D01*
X184181060Y-145873000D01*
X178581000Y-145873000D01*
X178581000Y-143617525D01*
X178581000Y-143542475D01*
X178581000Y-143267525D01*
X178581000Y-143192475D01*
X178581000Y-142152250D01*
X178581000Y-141707750D01*
X178581000Y-140667525D01*
X178581000Y-140592475D01*
X178581000Y-140317525D01*
X178581000Y-140242475D01*
X178566358Y-140168866D01*
X178537638Y-140099529D01*
X178495942Y-140037126D01*
X178442873Y-139984058D01*
X178380471Y-139942362D01*
X178311133Y-139913642D01*
X178237525Y-139899000D01*
X177922250Y-139899000D01*
X177827000Y-139994250D01*
X177827000Y-140344250D01*
X177827000Y-141803000D01*
X178485750Y-141803000D01*
X178581000Y-141707750D01*
X178581000Y-142152250D01*
X178485750Y-142057000D01*
X177827000Y-142057000D01*
X177827000Y-142077000D01*
X177573000Y-142077000D01*
X177573000Y-142057000D01*
X177573000Y-141803000D01*
X177573000Y-140344250D01*
X177573000Y-139994250D01*
X177477750Y-139899000D01*
X177162475Y-139899000D01*
X177088867Y-139913642D01*
X177019529Y-139942362D01*
X176957127Y-139984058D01*
X176904058Y-140037126D01*
X176862362Y-140099529D01*
X176833642Y-140168866D01*
X176819000Y-140242475D01*
X176819000Y-140317525D01*
X176819000Y-140592475D01*
X176819000Y-140667525D01*
X176819000Y-141707750D01*
X176914250Y-141803000D01*
X177573000Y-141803000D01*
X177573000Y-142057000D01*
X176914250Y-142057000D01*
X176819000Y-142152250D01*
X176819000Y-142319000D01*
X176652250Y-142319000D01*
X176557000Y-142414250D01*
X176557000Y-143073000D01*
X176577000Y-143073000D01*
X176577000Y-143327000D01*
X176557000Y-143327000D01*
X176557000Y-143985750D01*
X176652250Y-144081000D01*
X178117525Y-144081000D01*
X178191133Y-144066358D01*
X178260471Y-144037638D01*
X178322873Y-143995942D01*
X178375942Y-143942874D01*
X178402751Y-143902750D01*
X178442873Y-143875942D01*
X178495942Y-143822874D01*
X178537638Y-143760471D01*
X178566358Y-143691134D01*
X178581000Y-143617525D01*
X178581000Y-145873000D01*
X176303000Y-145873000D01*
X176303000Y-143985750D01*
X176303000Y-143327000D01*
X176303000Y-143073000D01*
X176303000Y-142414250D01*
X176207750Y-142319000D01*
X174742475Y-142319000D01*
X174668867Y-142333642D01*
X174599529Y-142362362D01*
X174537127Y-142404058D01*
X174484058Y-142457126D01*
X174442362Y-142519529D01*
X174413642Y-142588866D01*
X174399000Y-142662475D01*
X174399000Y-142737525D01*
X174399000Y-142977750D01*
X174494250Y-143073000D01*
X176303000Y-143073000D01*
X176303000Y-143327000D01*
X174494250Y-143327000D01*
X174399000Y-143422250D01*
X174399000Y-143662475D01*
X174399000Y-143737525D01*
X174413642Y-143811134D01*
X174442362Y-143880471D01*
X174484058Y-143942874D01*
X174537127Y-143995942D01*
X174599529Y-144037638D01*
X174668867Y-144066358D01*
X174742475Y-144081000D01*
X176207750Y-144081000D01*
X176303000Y-143985750D01*
X176303000Y-145873000D01*
X173031000Y-145873000D01*
X173031000Y-143737525D01*
X173031000Y-143662475D01*
X173031000Y-143422250D01*
X173031000Y-142977750D01*
X173031000Y-142737525D01*
X173031000Y-142662475D01*
X173016358Y-142588866D01*
X172987638Y-142519529D01*
X172945942Y-142457126D01*
X172892873Y-142404058D01*
X172830471Y-142362362D01*
X172761133Y-142333642D01*
X172687525Y-142319000D01*
X171981100Y-142319000D01*
X171981100Y-141838865D01*
X171981100Y-140723110D01*
X171981100Y-140278610D01*
X171981100Y-139162855D01*
X171966458Y-139089247D01*
X171937738Y-139019909D01*
X171896042Y-138957507D01*
X171842974Y-138904438D01*
X171780571Y-138862742D01*
X171711234Y-138834022D01*
X171637625Y-138819380D01*
X171562575Y-138819380D01*
X171022250Y-138819380D01*
X170927000Y-138914630D01*
X170927000Y-140373860D01*
X171885850Y-140373860D01*
X171981100Y-140278610D01*
X171981100Y-140723110D01*
X171885850Y-140627860D01*
X170927000Y-140627860D01*
X170927000Y-142087090D01*
X171022250Y-142182340D01*
X171562575Y-142182340D01*
X171637625Y-142182340D01*
X171711234Y-142167698D01*
X171780571Y-142138978D01*
X171842974Y-142097282D01*
X171896042Y-142044213D01*
X171937738Y-141981811D01*
X171966458Y-141912473D01*
X171981100Y-141838865D01*
X171981100Y-142319000D01*
X171572250Y-142319000D01*
X171477000Y-142414250D01*
X171477000Y-143073000D01*
X172935750Y-143073000D01*
X173031000Y-142977750D01*
X173031000Y-143422250D01*
X172935750Y-143327000D01*
X171477000Y-143327000D01*
X171477000Y-143985750D01*
X171572250Y-144081000D01*
X172687525Y-144081000D01*
X172761133Y-144066358D01*
X172830471Y-144037638D01*
X172892873Y-143995942D01*
X172945942Y-143942874D01*
X172987638Y-143880471D01*
X173016358Y-143811134D01*
X173031000Y-143737525D01*
X173031000Y-145873000D01*
X171223000Y-145873000D01*
X171223000Y-143985750D01*
X171223000Y-143327000D01*
X171223000Y-143073000D01*
X171223000Y-142414250D01*
X171127750Y-142319000D01*
X170673000Y-142319000D01*
X170673000Y-142087090D01*
X170673000Y-140627860D01*
X170673000Y-140373860D01*
X170673000Y-138914630D01*
X170577750Y-138819380D01*
X170037425Y-138819380D01*
X169962375Y-138819380D01*
X169888766Y-138834022D01*
X169819429Y-138862742D01*
X169757026Y-138904438D01*
X169703958Y-138957507D01*
X169662262Y-139019909D01*
X169633542Y-139089247D01*
X169618900Y-139162855D01*
X169618900Y-140278610D01*
X169714150Y-140373860D01*
X170673000Y-140373860D01*
X170673000Y-140627860D01*
X169714150Y-140627860D01*
X169618900Y-140723110D01*
X169618900Y-141838865D01*
X169633542Y-141912473D01*
X169662262Y-141981811D01*
X169703958Y-142044213D01*
X169757026Y-142097282D01*
X169819429Y-142138978D01*
X169888766Y-142167698D01*
X169962375Y-142182340D01*
X170037425Y-142182340D01*
X170577750Y-142182340D01*
X170673000Y-142087090D01*
X170673000Y-142319000D01*
X170012475Y-142319000D01*
X169938867Y-142333642D01*
X169869529Y-142362362D01*
X169807127Y-142404058D01*
X169754058Y-142457126D01*
X169712362Y-142519529D01*
X169683642Y-142588866D01*
X169669000Y-142662475D01*
X169669000Y-142737525D01*
X169669000Y-142977750D01*
X169764250Y-143073000D01*
X171223000Y-143073000D01*
X171223000Y-143327000D01*
X169764250Y-143327000D01*
X169669000Y-143422250D01*
X169669000Y-143662475D01*
X169669000Y-143737525D01*
X169683642Y-143811134D01*
X169712362Y-143880471D01*
X169754058Y-143942874D01*
X169807127Y-143995942D01*
X169869529Y-144037638D01*
X169938867Y-144066358D01*
X170012475Y-144081000D01*
X171127750Y-144081000D01*
X171223000Y-143985750D01*
X171223000Y-145873000D01*
X167931000Y-145873000D01*
X167931000Y-143737525D01*
X167931000Y-143662475D01*
X167931000Y-143422250D01*
X167931000Y-142977750D01*
X167931000Y-142737525D01*
X167931000Y-142662475D01*
X167916358Y-142588866D01*
X167887638Y-142519529D01*
X167845942Y-142457126D01*
X167792873Y-142404058D01*
X167730471Y-142362362D01*
X167661133Y-142333642D01*
X167587525Y-142319000D01*
X165222250Y-142319000D01*
X165127000Y-142414250D01*
X165127000Y-143073000D01*
X167835750Y-143073000D01*
X167931000Y-142977750D01*
X167931000Y-143422250D01*
X167835750Y-143327000D01*
X165127000Y-143327000D01*
X165127000Y-143985750D01*
X165222250Y-144081000D01*
X167587525Y-144081000D01*
X167661133Y-144066358D01*
X167730471Y-144037638D01*
X167792873Y-143995942D01*
X167845942Y-143942874D01*
X167887638Y-143880471D01*
X167916358Y-143811134D01*
X167931000Y-143737525D01*
X167931000Y-145873000D01*
X164873000Y-145873000D01*
X164873000Y-143985750D01*
X164873000Y-143327000D01*
X164873000Y-143073000D01*
X164873000Y-142414250D01*
X164777750Y-142319000D01*
X162412475Y-142319000D01*
X162338867Y-142333642D01*
X162269529Y-142362362D01*
X162207127Y-142404058D01*
X162154058Y-142457126D01*
X162112362Y-142519529D01*
X162083642Y-142588866D01*
X162069000Y-142662475D01*
X162069000Y-142737525D01*
X162069000Y-142977750D01*
X162164250Y-143073000D01*
X164873000Y-143073000D01*
X164873000Y-143327000D01*
X162164250Y-143327000D01*
X162069000Y-143422250D01*
X162069000Y-143662475D01*
X162069000Y-143737525D01*
X162083642Y-143811134D01*
X162112362Y-143880471D01*
X162154058Y-143942874D01*
X162207127Y-143995942D01*
X162269529Y-144037638D01*
X162338867Y-144066358D01*
X162412475Y-144081000D01*
X164777750Y-144081000D01*
X164873000Y-143985750D01*
X164873000Y-145873000D01*
X161177500Y-145873000D01*
X161177500Y-140396525D01*
X161177500Y-140321475D01*
X161177500Y-139813475D01*
X161162858Y-139739867D01*
X161134138Y-139670529D01*
X161092442Y-139608127D01*
X161039374Y-139555058D01*
X160976971Y-139513362D01*
X160907634Y-139484642D01*
X160834025Y-139470000D01*
X160907634Y-139455358D01*
X160976971Y-139426638D01*
X161039374Y-139384942D01*
X161092442Y-139331873D01*
X161134138Y-139269471D01*
X161162858Y-139200133D01*
X161177500Y-139126525D01*
X161177500Y-139057250D01*
X161177500Y-138612750D01*
X161177500Y-138543475D01*
X161162858Y-138469867D01*
X161134138Y-138400529D01*
X161092442Y-138338127D01*
X161039374Y-138285058D01*
X160976971Y-138243362D01*
X160907634Y-138214642D01*
X160834025Y-138200000D01*
X160907633Y-138185358D01*
X160976971Y-138156638D01*
X161039373Y-138114942D01*
X161092442Y-138061874D01*
X161134138Y-137999471D01*
X161162858Y-137930134D01*
X161177500Y-137856525D01*
X161177500Y-137781475D01*
X161177500Y-137273475D01*
X161162858Y-137199867D01*
X161134138Y-137130529D01*
X161092442Y-137068127D01*
X161039374Y-137015058D01*
X160976971Y-136973362D01*
X160907634Y-136944642D01*
X160834025Y-136930000D01*
X160907633Y-136915358D01*
X160976971Y-136886638D01*
X161039373Y-136844942D01*
X161092442Y-136791874D01*
X161134138Y-136729471D01*
X161162858Y-136660134D01*
X161177500Y-136586525D01*
X161177500Y-136511475D01*
X161177500Y-136003475D01*
X161162858Y-135929867D01*
X161134138Y-135860529D01*
X161092442Y-135798127D01*
X161039374Y-135745058D01*
X160976971Y-135703362D01*
X160907634Y-135674642D01*
X160834025Y-135660000D01*
X160758975Y-135660000D01*
X159615975Y-135660000D01*
X159542367Y-135674642D01*
X159473029Y-135703362D01*
X159410627Y-135745058D01*
X159357558Y-135798126D01*
X159315862Y-135860529D01*
X159287142Y-135929866D01*
X159272500Y-136003475D01*
X159272500Y-136078525D01*
X159272500Y-136586525D01*
X159287142Y-136660133D01*
X159315862Y-136729471D01*
X159357558Y-136791873D01*
X159410626Y-136844942D01*
X159473029Y-136886638D01*
X159542366Y-136915358D01*
X159615975Y-136930000D01*
X159542367Y-136944642D01*
X159473029Y-136973362D01*
X159457108Y-136984000D01*
X157581100Y-136984000D01*
X157581100Y-135361135D01*
X157566458Y-135287527D01*
X157537738Y-135218189D01*
X157496042Y-135155787D01*
X157442974Y-135102718D01*
X157380571Y-135061022D01*
X157311234Y-135032302D01*
X157237625Y-135017660D01*
X157162575Y-135017660D01*
X156331000Y-135017660D01*
X156331000Y-128737525D01*
X156331000Y-128472250D01*
X156331000Y-128027750D01*
X156331000Y-127762475D01*
X156316358Y-127688867D01*
X156287638Y-127619529D01*
X156245942Y-127557127D01*
X156192874Y-127504058D01*
X156130471Y-127462362D01*
X156061134Y-127433642D01*
X155987525Y-127419000D01*
X155912475Y-127419000D01*
X155322250Y-127419000D01*
X155227000Y-127514250D01*
X155227000Y-128123000D01*
X156235750Y-128123000D01*
X156331000Y-128027750D01*
X156331000Y-128472250D01*
X156235750Y-128377000D01*
X155227000Y-128377000D01*
X155227000Y-128985750D01*
X155322250Y-129081000D01*
X155912475Y-129081000D01*
X155987525Y-129081000D01*
X156061134Y-129066358D01*
X156130471Y-129037638D01*
X156192874Y-128995942D01*
X156245942Y-128942873D01*
X156287638Y-128880471D01*
X156316358Y-128811133D01*
X156331000Y-128737525D01*
X156331000Y-135017660D01*
X155562375Y-135017660D01*
X155488767Y-135032302D01*
X155419429Y-135061022D01*
X155357027Y-135102718D01*
X155303958Y-135155786D01*
X155262262Y-135218189D01*
X155233542Y-135287526D01*
X155218900Y-135361135D01*
X155218900Y-135436185D01*
X155218900Y-138037145D01*
X155233542Y-138110753D01*
X155262262Y-138180091D01*
X155303958Y-138242493D01*
X155357026Y-138295562D01*
X155419429Y-138337258D01*
X155488766Y-138365978D01*
X155562375Y-138380620D01*
X155637425Y-138380620D01*
X157237625Y-138380620D01*
X157311233Y-138365978D01*
X157380571Y-138337258D01*
X157442973Y-138295562D01*
X157496042Y-138242494D01*
X157537738Y-138180091D01*
X157551858Y-138146000D01*
X159457107Y-138146000D01*
X159473029Y-138156638D01*
X159542366Y-138185358D01*
X159615975Y-138200000D01*
X159542366Y-138214642D01*
X159473029Y-138243362D01*
X159410626Y-138285058D01*
X159357558Y-138338127D01*
X159315862Y-138400529D01*
X159287142Y-138469867D01*
X159272500Y-138543475D01*
X159272500Y-138612750D01*
X159367750Y-138708000D01*
X160098000Y-138708000D01*
X160098000Y-138295250D01*
X160002750Y-138200000D01*
X160447250Y-138200000D01*
X160352000Y-138295250D01*
X160352000Y-138708000D01*
X161082250Y-138708000D01*
X161177500Y-138612750D01*
X161177500Y-139057250D01*
X161082250Y-138962000D01*
X160352000Y-138962000D01*
X160352000Y-138982000D01*
X160098000Y-138982000D01*
X160098000Y-138962000D01*
X159367750Y-138962000D01*
X159272500Y-139057250D01*
X159272500Y-139126525D01*
X159287142Y-139200133D01*
X159315862Y-139269471D01*
X159357558Y-139331873D01*
X159410626Y-139384942D01*
X159473029Y-139426638D01*
X159542366Y-139455358D01*
X159615975Y-139470000D01*
X159542367Y-139484642D01*
X159473029Y-139513362D01*
X159457108Y-139524000D01*
X157581100Y-139524000D01*
X157581100Y-138962855D01*
X157566458Y-138889247D01*
X157537738Y-138819909D01*
X157496042Y-138757507D01*
X157442974Y-138704438D01*
X157380571Y-138662742D01*
X157311234Y-138634022D01*
X157237625Y-138619380D01*
X157162575Y-138619380D01*
X155562375Y-138619380D01*
X155488767Y-138634022D01*
X155419429Y-138662742D01*
X155357027Y-138704438D01*
X155303958Y-138757506D01*
X155262262Y-138819909D01*
X155233542Y-138889246D01*
X155218900Y-138962855D01*
X155218900Y-139037905D01*
X155218900Y-141638865D01*
X155233542Y-141712473D01*
X155262262Y-141781811D01*
X155303958Y-141844213D01*
X155357026Y-141897282D01*
X155419429Y-141938978D01*
X155488766Y-141967698D01*
X155562375Y-141982340D01*
X155637425Y-141982340D01*
X157237625Y-141982340D01*
X157311233Y-141967698D01*
X157380571Y-141938978D01*
X157442973Y-141897282D01*
X157496042Y-141844214D01*
X157537738Y-141781811D01*
X157566458Y-141712474D01*
X157581100Y-141638865D01*
X157581100Y-141563815D01*
X157581100Y-140686000D01*
X159457107Y-140686000D01*
X159473029Y-140696638D01*
X159542366Y-140725358D01*
X159615975Y-140740000D01*
X159691025Y-140740000D01*
X159778419Y-140740000D01*
X159830649Y-140768476D01*
X159925256Y-140798124D01*
X160023820Y-140808832D01*
X160122588Y-140800191D01*
X160217795Y-140772531D01*
X160280554Y-140740000D01*
X160834025Y-140740000D01*
X160907633Y-140725358D01*
X160976971Y-140696638D01*
X161039373Y-140654942D01*
X161092442Y-140601874D01*
X161134138Y-140539471D01*
X161162858Y-140470134D01*
X161177500Y-140396525D01*
X161177500Y-145873000D01*
X160331000Y-145873000D01*
X160331000Y-143737525D01*
X160331000Y-143662475D01*
X160331000Y-143422250D01*
X160331000Y-142977750D01*
X160331000Y-142737525D01*
X160331000Y-142662475D01*
X160316358Y-142588866D01*
X160287638Y-142519529D01*
X160245942Y-142457126D01*
X160192873Y-142404058D01*
X160130471Y-142362362D01*
X160061133Y-142333642D01*
X159987525Y-142319000D01*
X158872250Y-142319000D01*
X158777000Y-142414250D01*
X158777000Y-143073000D01*
X160235750Y-143073000D01*
X160331000Y-142977750D01*
X160331000Y-143422250D01*
X160235750Y-143327000D01*
X158777000Y-143327000D01*
X158777000Y-143985750D01*
X158872250Y-144081000D01*
X159987525Y-144081000D01*
X160061133Y-144066358D01*
X160130471Y-144037638D01*
X160192873Y-143995942D01*
X160245942Y-143942874D01*
X160287638Y-143880471D01*
X160316358Y-143811134D01*
X160331000Y-143737525D01*
X160331000Y-145873000D01*
X158523000Y-145873000D01*
X158523000Y-143985750D01*
X158523000Y-143327000D01*
X158523000Y-143073000D01*
X158523000Y-142414250D01*
X158427750Y-142319000D01*
X157312475Y-142319000D01*
X157238867Y-142333642D01*
X157169529Y-142362362D01*
X157107127Y-142404058D01*
X157054058Y-142457126D01*
X157012362Y-142519529D01*
X156983642Y-142588866D01*
X156969000Y-142662475D01*
X156969000Y-142737525D01*
X156969000Y-142977750D01*
X157064250Y-143073000D01*
X158523000Y-143073000D01*
X158523000Y-143327000D01*
X157064250Y-143327000D01*
X156969000Y-143422250D01*
X156969000Y-143662475D01*
X156969000Y-143737525D01*
X156983642Y-143811134D01*
X157012362Y-143880471D01*
X157054058Y-143942874D01*
X157107127Y-143995942D01*
X157169529Y-144037638D01*
X157238867Y-144066358D01*
X157312475Y-144081000D01*
X158427750Y-144081000D01*
X158523000Y-143985750D01*
X158523000Y-145873000D01*
X155601000Y-145873000D01*
X155601000Y-143737525D01*
X155601000Y-143662475D01*
X155601000Y-143422250D01*
X155601000Y-142977750D01*
X155601000Y-142737525D01*
X155601000Y-142662475D01*
X155586358Y-142588866D01*
X155557638Y-142519529D01*
X155515942Y-142457126D01*
X155462873Y-142404058D01*
X155400471Y-142362362D01*
X155331133Y-142333642D01*
X155257525Y-142319000D01*
X154973000Y-142319000D01*
X154973000Y-128985750D01*
X154973000Y-128377000D01*
X154973000Y-128123000D01*
X154973000Y-127514250D01*
X154877750Y-127419000D01*
X154287525Y-127419000D01*
X154212475Y-127419000D01*
X154138866Y-127433642D01*
X154069529Y-127462362D01*
X154007126Y-127504058D01*
X153954058Y-127557127D01*
X153912362Y-127619529D01*
X153883642Y-127688867D01*
X153869000Y-127762475D01*
X153869000Y-128027750D01*
X153964250Y-128123000D01*
X154973000Y-128123000D01*
X154973000Y-128377000D01*
X153964250Y-128377000D01*
X153869000Y-128472250D01*
X153869000Y-128737525D01*
X153883642Y-128811133D01*
X153912362Y-128880471D01*
X153954058Y-128942873D01*
X154007126Y-128995942D01*
X154069529Y-129037638D01*
X154138866Y-129066358D01*
X154212475Y-129081000D01*
X154287525Y-129081000D01*
X154877750Y-129081000D01*
X154973000Y-128985750D01*
X154973000Y-142319000D01*
X153792250Y-142319000D01*
X153697000Y-142414250D01*
X153697000Y-143073000D01*
X155505750Y-143073000D01*
X155601000Y-142977750D01*
X155601000Y-143422250D01*
X155505750Y-143327000D01*
X153697000Y-143327000D01*
X153697000Y-143985750D01*
X153792250Y-144081000D01*
X155257525Y-144081000D01*
X155331133Y-144066358D01*
X155400471Y-144037638D01*
X155462873Y-143995942D01*
X155515942Y-143942874D01*
X155557638Y-143880471D01*
X155586358Y-143811134D01*
X155601000Y-143737525D01*
X155601000Y-145873000D01*
X153443000Y-145873000D01*
X153443000Y-143985750D01*
X153443000Y-143327000D01*
X153423000Y-143327000D01*
X153423000Y-143073000D01*
X153443000Y-143073000D01*
X153443000Y-142414250D01*
X153443000Y-118585750D01*
X153443000Y-117927000D01*
X153423000Y-117927000D01*
X153423000Y-117673000D01*
X153443000Y-117673000D01*
X153443000Y-117014250D01*
X153347750Y-116919000D01*
X151882475Y-116919000D01*
X151808867Y-116933642D01*
X151739529Y-116962362D01*
X151677127Y-117004058D01*
X151624058Y-117057126D01*
X151597248Y-117097249D01*
X151557127Y-117124058D01*
X151504058Y-117177126D01*
X151462362Y-117239529D01*
X151433642Y-117308866D01*
X151419000Y-117382475D01*
X151419000Y-117457525D01*
X151419000Y-118847750D01*
X151514250Y-118943000D01*
X152173000Y-118943000D01*
X152173000Y-118923000D01*
X152427000Y-118923000D01*
X152427000Y-118943000D01*
X153085750Y-118943000D01*
X153181000Y-118847750D01*
X153181000Y-118681000D01*
X153347750Y-118681000D01*
X153443000Y-118585750D01*
X153443000Y-142414250D01*
X153347750Y-142319000D01*
X153181000Y-142319000D01*
X153181000Y-142152250D01*
X153181000Y-141707750D01*
X153181000Y-140317525D01*
X153181000Y-140242475D01*
X153181000Y-138187525D01*
X153181000Y-138112475D01*
X153181000Y-137072250D01*
X153181000Y-136627750D01*
X153181000Y-135587525D01*
X153181000Y-135512475D01*
X153181000Y-133087525D01*
X153181000Y-133012475D01*
X153181000Y-130722250D01*
X153181000Y-130277750D01*
X153181000Y-127987525D01*
X153181000Y-127912475D01*
X153181000Y-125487525D01*
X153181000Y-125412475D01*
X153181000Y-124372250D01*
X153181000Y-123927750D01*
X153181000Y-122887525D01*
X153181000Y-122812475D01*
X153181000Y-120757525D01*
X153181000Y-120682475D01*
X153181000Y-119292250D01*
X153085750Y-119197000D01*
X152427000Y-119197000D01*
X152427000Y-121005750D01*
X152522250Y-121101000D01*
X152837525Y-121101000D01*
X152911133Y-121086358D01*
X152980471Y-121057638D01*
X153042873Y-121015942D01*
X153095942Y-120962874D01*
X153137638Y-120900471D01*
X153166358Y-120831134D01*
X153181000Y-120757525D01*
X153181000Y-122812475D01*
X153166358Y-122738866D01*
X153137638Y-122669529D01*
X153095942Y-122607126D01*
X153042873Y-122554058D01*
X152980471Y-122512362D01*
X152911133Y-122483642D01*
X152837525Y-122469000D01*
X152522250Y-122469000D01*
X152427000Y-122564250D01*
X152427000Y-124023000D01*
X153085750Y-124023000D01*
X153181000Y-123927750D01*
X153181000Y-124372250D01*
X153085750Y-124277000D01*
X152427000Y-124277000D01*
X152427000Y-125735750D01*
X152522250Y-125831000D01*
X152837525Y-125831000D01*
X152911133Y-125816358D01*
X152980471Y-125787638D01*
X153042873Y-125745942D01*
X153095942Y-125692874D01*
X153137638Y-125630471D01*
X153166358Y-125561134D01*
X153181000Y-125487525D01*
X153181000Y-127912475D01*
X153166358Y-127838866D01*
X153137638Y-127769529D01*
X153095942Y-127707126D01*
X153042873Y-127654058D01*
X152980471Y-127612362D01*
X152911133Y-127583642D01*
X152837525Y-127569000D01*
X152522250Y-127569000D01*
X152427000Y-127664250D01*
X152427000Y-130373000D01*
X153085750Y-130373000D01*
X153181000Y-130277750D01*
X153181000Y-130722250D01*
X153085750Y-130627000D01*
X152427000Y-130627000D01*
X152427000Y-133335750D01*
X152522250Y-133431000D01*
X152837525Y-133431000D01*
X152911133Y-133416358D01*
X152980471Y-133387638D01*
X153042873Y-133345942D01*
X153095942Y-133292874D01*
X153137638Y-133230471D01*
X153166358Y-133161134D01*
X153181000Y-133087525D01*
X153181000Y-135512475D01*
X153166358Y-135438866D01*
X153137638Y-135369529D01*
X153095942Y-135307126D01*
X153042873Y-135254058D01*
X152980471Y-135212362D01*
X152911133Y-135183642D01*
X152837525Y-135169000D01*
X152522250Y-135169000D01*
X152427000Y-135264250D01*
X152427000Y-136723000D01*
X153085750Y-136723000D01*
X153181000Y-136627750D01*
X153181000Y-137072250D01*
X153085750Y-136977000D01*
X152427000Y-136977000D01*
X152427000Y-138435750D01*
X152522250Y-138531000D01*
X152837525Y-138531000D01*
X152911133Y-138516358D01*
X152980471Y-138487638D01*
X153042873Y-138445942D01*
X153095942Y-138392874D01*
X153137638Y-138330471D01*
X153166358Y-138261134D01*
X153181000Y-138187525D01*
X153181000Y-140242475D01*
X153166358Y-140168866D01*
X153137638Y-140099529D01*
X153095942Y-140037126D01*
X153042873Y-139984058D01*
X152980471Y-139942362D01*
X152911133Y-139913642D01*
X152837525Y-139899000D01*
X152522250Y-139899000D01*
X152427000Y-139994250D01*
X152427000Y-141803000D01*
X153085750Y-141803000D01*
X153181000Y-141707750D01*
X153181000Y-142152250D01*
X153085750Y-142057000D01*
X152427000Y-142057000D01*
X152427000Y-142077000D01*
X152173000Y-142077000D01*
X152173000Y-142057000D01*
X152173000Y-141803000D01*
X152173000Y-139994250D01*
X152173000Y-138435750D01*
X152173000Y-136977000D01*
X152173000Y-136723000D01*
X152173000Y-135264250D01*
X152173000Y-133335750D01*
X152173000Y-130627000D01*
X152173000Y-130373000D01*
X152173000Y-127664250D01*
X152173000Y-125735750D01*
X152173000Y-124277000D01*
X152173000Y-124023000D01*
X152173000Y-122564250D01*
X152173000Y-121005750D01*
X152173000Y-119197000D01*
X151514250Y-119197000D01*
X151419000Y-119292250D01*
X151419000Y-120682475D01*
X151419000Y-120757525D01*
X151433642Y-120831134D01*
X151462362Y-120900471D01*
X151504058Y-120962874D01*
X151557127Y-121015942D01*
X151619529Y-121057638D01*
X151688867Y-121086358D01*
X151762475Y-121101000D01*
X152077750Y-121101000D01*
X152173000Y-121005750D01*
X152173000Y-122564250D01*
X152077750Y-122469000D01*
X151762475Y-122469000D01*
X151688867Y-122483642D01*
X151619529Y-122512362D01*
X151557127Y-122554058D01*
X151504058Y-122607126D01*
X151462362Y-122669529D01*
X151433642Y-122738866D01*
X151419000Y-122812475D01*
X151419000Y-122887525D01*
X151419000Y-123927750D01*
X151514250Y-124023000D01*
X152173000Y-124023000D01*
X152173000Y-124277000D01*
X151514250Y-124277000D01*
X151419000Y-124372250D01*
X151419000Y-125412475D01*
X151419000Y-125487525D01*
X151433642Y-125561134D01*
X151462362Y-125630471D01*
X151504058Y-125692874D01*
X151557127Y-125745942D01*
X151619529Y-125787638D01*
X151688867Y-125816358D01*
X151762475Y-125831000D01*
X152077750Y-125831000D01*
X152173000Y-125735750D01*
X152173000Y-127664250D01*
X152077750Y-127569000D01*
X151762475Y-127569000D01*
X151688867Y-127583642D01*
X151619529Y-127612362D01*
X151557127Y-127654058D01*
X151504058Y-127707126D01*
X151462362Y-127769529D01*
X151433642Y-127838866D01*
X151419000Y-127912475D01*
X151419000Y-127987525D01*
X151419000Y-130277750D01*
X151514250Y-130373000D01*
X152173000Y-130373000D01*
X152173000Y-130627000D01*
X151514250Y-130627000D01*
X151419000Y-130722250D01*
X151419000Y-133012475D01*
X151419000Y-133087525D01*
X151433642Y-133161134D01*
X151462362Y-133230471D01*
X151504058Y-133292874D01*
X151557127Y-133345942D01*
X151619529Y-133387638D01*
X151688867Y-133416358D01*
X151762475Y-133431000D01*
X152077750Y-133431000D01*
X152173000Y-133335750D01*
X152173000Y-135264250D01*
X152077750Y-135169000D01*
X151762475Y-135169000D01*
X151688867Y-135183642D01*
X151619529Y-135212362D01*
X151557127Y-135254058D01*
X151504058Y-135307126D01*
X151462362Y-135369529D01*
X151433642Y-135438866D01*
X151419000Y-135512475D01*
X151419000Y-135587525D01*
X151419000Y-136627750D01*
X151514250Y-136723000D01*
X152173000Y-136723000D01*
X152173000Y-136977000D01*
X151514250Y-136977000D01*
X151419000Y-137072250D01*
X151419000Y-138112475D01*
X151419000Y-138187525D01*
X151433642Y-138261134D01*
X151462362Y-138330471D01*
X151504058Y-138392874D01*
X151557127Y-138445942D01*
X151619529Y-138487638D01*
X151688867Y-138516358D01*
X151762475Y-138531000D01*
X152077750Y-138531000D01*
X152173000Y-138435750D01*
X152173000Y-139994250D01*
X152077750Y-139899000D01*
X151762475Y-139899000D01*
X151688867Y-139913642D01*
X151619529Y-139942362D01*
X151557127Y-139984058D01*
X151504058Y-140037126D01*
X151462362Y-140099529D01*
X151433642Y-140168866D01*
X151419000Y-140242475D01*
X151419000Y-140317525D01*
X151419000Y-141707750D01*
X151514250Y-141803000D01*
X152173000Y-141803000D01*
X152173000Y-142057000D01*
X151514250Y-142057000D01*
X151419000Y-142152250D01*
X151419000Y-143542475D01*
X151419000Y-143617525D01*
X151433642Y-143691134D01*
X151462362Y-143760471D01*
X151504058Y-143822874D01*
X151557127Y-143875942D01*
X151597248Y-143902750D01*
X151624058Y-143942874D01*
X151677127Y-143995942D01*
X151739529Y-144037638D01*
X151808867Y-144066358D01*
X151882475Y-144081000D01*
X153347750Y-144081000D01*
X153443000Y-143985750D01*
X153443000Y-145873000D01*
X151127000Y-145873000D01*
X151127000Y-115127000D01*
X189873000Y-115127000D01*
X189873000Y-145873000D01*
M02*
