G04 #@! TF.FileFunction,Copper,L2,Bot,Signal*
%FSLAX46Y46*%
G04 Gerber Fmt 4.6, Leading zero omitted, Abs format (unit mm)*
G04 Created by KiCad (PCBNEW (2014-11-17 BZR 5289)-product) date Sat 29 Aug 2015 07:35:18 PM EDT*
%MOMM*%
G01*
G04 APERTURE LIST*
%ADD10C,0.100000*%
%ADD11C,1.998980*%
%ADD12C,3.000000*%
%ADD13C,0.889000*%
%ADD14C,0.400000*%
%ADD15C,0.254000*%
G04 APERTURE END LIST*
D10*
D11*
X185000000Y-141000000D03*
D12*
X187700020Y-143700020D03*
X187700020Y-138299980D03*
X182299980Y-138299980D03*
X182299980Y-143700020D03*
D11*
X185000000Y-130500000D03*
D12*
X187700020Y-133200020D03*
X187700020Y-127799980D03*
X182299980Y-127799980D03*
X182299980Y-133200020D03*
D11*
X185000000Y-120000000D03*
D12*
X187700020Y-122700020D03*
X187700020Y-117299980D03*
X182299980Y-117299980D03*
X182299980Y-122700020D03*
D13*
X176500000Y-126600000D03*
D14*
X180300000Y-120000000D02*
X185000000Y-120000000D01*
X178500000Y-121800000D02*
X180300000Y-120000000D01*
X178500000Y-124600000D02*
X178500000Y-121800000D01*
X176500000Y-126600000D02*
X178500000Y-124600000D01*
D15*
G36*
X189815000Y-143227857D02*
X189511040Y-142492220D01*
X189034385Y-142014732D01*
X189034385Y-139813950D01*
X187700020Y-138479585D01*
X187520415Y-138659190D01*
X187520415Y-138299980D01*
X186186050Y-136965615D01*
X185867281Y-137125398D01*
X185557297Y-137916167D01*
X185573523Y-138765367D01*
X185867281Y-139474562D01*
X186186050Y-139634345D01*
X187520415Y-138299980D01*
X187520415Y-138659190D01*
X186365655Y-139813950D01*
X186525438Y-140132719D01*
X187316207Y-140442703D01*
X188165407Y-140426477D01*
X188874602Y-140132719D01*
X189034385Y-139813950D01*
X189034385Y-142014732D01*
X188910979Y-141891111D01*
X188126561Y-141565392D01*
X187277205Y-141564650D01*
X186634774Y-141830097D01*
X186634774Y-140676306D01*
X186386462Y-140075345D01*
X185927073Y-139615154D01*
X185326547Y-139365794D01*
X184676306Y-139365226D01*
X184435350Y-139464786D01*
X184435350Y-137877165D01*
X184435350Y-132777205D01*
X184111000Y-131992220D01*
X183510939Y-131391111D01*
X182726521Y-131065392D01*
X181877165Y-131064650D01*
X181092180Y-131389000D01*
X180491071Y-131989061D01*
X180165352Y-132773479D01*
X180164610Y-133622835D01*
X180488960Y-134407820D01*
X181089021Y-135008929D01*
X181873439Y-135334648D01*
X182722795Y-135335390D01*
X183507780Y-135011040D01*
X184108889Y-134410979D01*
X184434608Y-133626561D01*
X184435350Y-132777205D01*
X184435350Y-137877165D01*
X184111000Y-137092180D01*
X183510939Y-136491071D01*
X182726521Y-136165352D01*
X181877165Y-136164610D01*
X181092180Y-136488960D01*
X180491071Y-137089021D01*
X180165352Y-137873439D01*
X180164610Y-138722795D01*
X180488960Y-139507780D01*
X181089021Y-140108889D01*
X181873439Y-140434608D01*
X182722795Y-140435350D01*
X183507780Y-140111000D01*
X184108889Y-139510939D01*
X184434608Y-138726521D01*
X184435350Y-137877165D01*
X184435350Y-139464786D01*
X184075345Y-139613538D01*
X183615154Y-140072927D01*
X183365794Y-140673453D01*
X183365226Y-141323694D01*
X183613538Y-141924655D01*
X184072927Y-142384846D01*
X184673453Y-142634206D01*
X185323694Y-142634774D01*
X185924655Y-142386462D01*
X186384846Y-141927073D01*
X186634206Y-141326547D01*
X186634774Y-140676306D01*
X186634774Y-141830097D01*
X186492220Y-141889000D01*
X185891111Y-142489061D01*
X185565392Y-143273479D01*
X185564650Y-144122835D01*
X185889000Y-144907820D01*
X186489061Y-145508929D01*
X187226161Y-145815000D01*
X182772142Y-145815000D01*
X183507780Y-145511040D01*
X184108889Y-144910979D01*
X184434608Y-144126561D01*
X184435350Y-143277205D01*
X184111000Y-142492220D01*
X183510939Y-141891111D01*
X182726521Y-141565392D01*
X181877165Y-141564650D01*
X181092180Y-141889000D01*
X180491071Y-142489061D01*
X180165352Y-143273479D01*
X180164610Y-144122835D01*
X180488960Y-144907820D01*
X181089021Y-145508929D01*
X181826121Y-145815000D01*
X151185000Y-145815000D01*
X151185000Y-115185000D01*
X181827817Y-115185000D01*
X181092180Y-115488960D01*
X180491071Y-116089021D01*
X180165352Y-116873439D01*
X180164610Y-117722795D01*
X180488960Y-118507780D01*
X181089021Y-119108889D01*
X181224151Y-119165000D01*
X180300000Y-119165000D01*
X179980459Y-119228561D01*
X179709566Y-119409566D01*
X177909566Y-121209566D01*
X177728561Y-121480459D01*
X177665000Y-121800000D01*
X177665000Y-124254132D01*
X176398721Y-125520410D01*
X176286216Y-125520313D01*
X175889311Y-125684311D01*
X175585378Y-125987714D01*
X175420687Y-126384332D01*
X175420313Y-126813784D01*
X175584311Y-127210689D01*
X175887714Y-127514622D01*
X176284332Y-127679313D01*
X176713784Y-127679687D01*
X177110689Y-127515689D01*
X177414622Y-127212286D01*
X177579313Y-126815668D01*
X177579412Y-126701455D01*
X179090434Y-125190434D01*
X179271439Y-124919541D01*
X179271439Y-124919540D01*
X179335000Y-124600000D01*
X179335000Y-122145868D01*
X180645868Y-120835000D01*
X181222869Y-120835000D01*
X181092180Y-120889000D01*
X180491071Y-121489061D01*
X180165352Y-122273479D01*
X180164610Y-123122835D01*
X180488960Y-123907820D01*
X181089021Y-124508929D01*
X181873439Y-124834648D01*
X182722795Y-124835390D01*
X183507780Y-124511040D01*
X184108889Y-123910979D01*
X184434608Y-123126561D01*
X184435350Y-122277205D01*
X184111000Y-121492220D01*
X183510939Y-120891111D01*
X183375808Y-120835000D01*
X183576493Y-120835000D01*
X183613538Y-120924655D01*
X184072927Y-121384846D01*
X184673453Y-121634206D01*
X185323694Y-121634774D01*
X185924655Y-121386462D01*
X186384846Y-120927073D01*
X186634206Y-120326547D01*
X186634774Y-119676306D01*
X186386462Y-119075345D01*
X185927073Y-118615154D01*
X185326547Y-118365794D01*
X184676306Y-118365226D01*
X184075345Y-118613538D01*
X183615154Y-119072927D01*
X183576921Y-119165000D01*
X183377090Y-119165000D01*
X183507780Y-119111000D01*
X184108889Y-118510939D01*
X184434608Y-117726521D01*
X184435350Y-116877165D01*
X184111000Y-116092180D01*
X183510939Y-115491071D01*
X182773838Y-115185000D01*
X187206828Y-115185000D01*
X186525438Y-115467241D01*
X186365655Y-115786010D01*
X187700020Y-117120375D01*
X189034385Y-115786010D01*
X188874602Y-115467241D01*
X188154605Y-115185000D01*
X189815000Y-115185000D01*
X189815000Y-116806788D01*
X189532759Y-116125398D01*
X189213990Y-115965615D01*
X187879625Y-117299980D01*
X189213990Y-118634345D01*
X189532759Y-118474562D01*
X189815000Y-117754565D01*
X189815000Y-122227857D01*
X189511040Y-121492220D01*
X189034385Y-121014732D01*
X189034385Y-118813950D01*
X187700020Y-117479585D01*
X187520415Y-117659190D01*
X187520415Y-117299980D01*
X186186050Y-115965615D01*
X185867281Y-116125398D01*
X185557297Y-116916167D01*
X185573523Y-117765367D01*
X185867281Y-118474562D01*
X186186050Y-118634345D01*
X187520415Y-117299980D01*
X187520415Y-117659190D01*
X186365655Y-118813950D01*
X186525438Y-119132719D01*
X187316207Y-119442703D01*
X188165407Y-119426477D01*
X188874602Y-119132719D01*
X189034385Y-118813950D01*
X189034385Y-121014732D01*
X188910979Y-120891111D01*
X188126561Y-120565392D01*
X187277205Y-120564650D01*
X186492220Y-120889000D01*
X185891111Y-121489061D01*
X185565392Y-122273479D01*
X185564650Y-123122835D01*
X185889000Y-123907820D01*
X186489061Y-124508929D01*
X187273479Y-124834648D01*
X188122835Y-124835390D01*
X188907820Y-124511040D01*
X189508929Y-123910979D01*
X189815000Y-123173878D01*
X189815000Y-127306788D01*
X189532759Y-126625398D01*
X189213990Y-126465615D01*
X189034385Y-126645220D01*
X189034385Y-126286010D01*
X188874602Y-125967241D01*
X188083833Y-125657257D01*
X187234633Y-125673483D01*
X186525438Y-125967241D01*
X186365655Y-126286010D01*
X187700020Y-127620375D01*
X189034385Y-126286010D01*
X189034385Y-126645220D01*
X187879625Y-127799980D01*
X189213990Y-129134345D01*
X189532759Y-128974562D01*
X189815000Y-128254565D01*
X189815000Y-132727857D01*
X189511040Y-131992220D01*
X189034385Y-131514732D01*
X189034385Y-129313950D01*
X187700020Y-127979585D01*
X187520415Y-128159190D01*
X187520415Y-127799980D01*
X186186050Y-126465615D01*
X185867281Y-126625398D01*
X185557297Y-127416167D01*
X185573523Y-128265367D01*
X185867281Y-128974562D01*
X186186050Y-129134345D01*
X187520415Y-127799980D01*
X187520415Y-128159190D01*
X186365655Y-129313950D01*
X186525438Y-129632719D01*
X187316207Y-129942703D01*
X188165407Y-129926477D01*
X188874602Y-129632719D01*
X189034385Y-129313950D01*
X189034385Y-131514732D01*
X188910979Y-131391111D01*
X188126561Y-131065392D01*
X187277205Y-131064650D01*
X186634774Y-131330097D01*
X186634774Y-130176306D01*
X186386462Y-129575345D01*
X185927073Y-129115154D01*
X185326547Y-128865794D01*
X184676306Y-128865226D01*
X184435350Y-128964786D01*
X184435350Y-127377165D01*
X184111000Y-126592180D01*
X183510939Y-125991071D01*
X182726521Y-125665352D01*
X181877165Y-125664610D01*
X181092180Y-125988960D01*
X180491071Y-126589021D01*
X180165352Y-127373439D01*
X180164610Y-128222795D01*
X180488960Y-129007780D01*
X181089021Y-129608889D01*
X181873439Y-129934608D01*
X182722795Y-129935350D01*
X183507780Y-129611000D01*
X184108889Y-129010939D01*
X184434608Y-128226521D01*
X184435350Y-127377165D01*
X184435350Y-128964786D01*
X184075345Y-129113538D01*
X183615154Y-129572927D01*
X183365794Y-130173453D01*
X183365226Y-130823694D01*
X183613538Y-131424655D01*
X184072927Y-131884846D01*
X184673453Y-132134206D01*
X185323694Y-132134774D01*
X185924655Y-131886462D01*
X186384846Y-131427073D01*
X186634206Y-130826547D01*
X186634774Y-130176306D01*
X186634774Y-131330097D01*
X186492220Y-131389000D01*
X185891111Y-131989061D01*
X185565392Y-132773479D01*
X185564650Y-133622835D01*
X185889000Y-134407820D01*
X186489061Y-135008929D01*
X187273479Y-135334648D01*
X188122835Y-135335390D01*
X188907820Y-135011040D01*
X189508929Y-134410979D01*
X189815000Y-133673878D01*
X189815000Y-137806788D01*
X189532759Y-137125398D01*
X189213990Y-136965615D01*
X189034385Y-137145220D01*
X189034385Y-136786010D01*
X188874602Y-136467241D01*
X188083833Y-136157257D01*
X187234633Y-136173483D01*
X186525438Y-136467241D01*
X186365655Y-136786010D01*
X187700020Y-138120375D01*
X189034385Y-136786010D01*
X189034385Y-137145220D01*
X187879625Y-138299980D01*
X189213990Y-139634345D01*
X189532759Y-139474562D01*
X189815000Y-138754565D01*
X189815000Y-143227857D01*
X189815000Y-143227857D01*
G37*
X189815000Y-143227857D02*
X189511040Y-142492220D01*
X189034385Y-142014732D01*
X189034385Y-139813950D01*
X187700020Y-138479585D01*
X187520415Y-138659190D01*
X187520415Y-138299980D01*
X186186050Y-136965615D01*
X185867281Y-137125398D01*
X185557297Y-137916167D01*
X185573523Y-138765367D01*
X185867281Y-139474562D01*
X186186050Y-139634345D01*
X187520415Y-138299980D01*
X187520415Y-138659190D01*
X186365655Y-139813950D01*
X186525438Y-140132719D01*
X187316207Y-140442703D01*
X188165407Y-140426477D01*
X188874602Y-140132719D01*
X189034385Y-139813950D01*
X189034385Y-142014732D01*
X188910979Y-141891111D01*
X188126561Y-141565392D01*
X187277205Y-141564650D01*
X186634774Y-141830097D01*
X186634774Y-140676306D01*
X186386462Y-140075345D01*
X185927073Y-139615154D01*
X185326547Y-139365794D01*
X184676306Y-139365226D01*
X184435350Y-139464786D01*
X184435350Y-137877165D01*
X184435350Y-132777205D01*
X184111000Y-131992220D01*
X183510939Y-131391111D01*
X182726521Y-131065392D01*
X181877165Y-131064650D01*
X181092180Y-131389000D01*
X180491071Y-131989061D01*
X180165352Y-132773479D01*
X180164610Y-133622835D01*
X180488960Y-134407820D01*
X181089021Y-135008929D01*
X181873439Y-135334648D01*
X182722795Y-135335390D01*
X183507780Y-135011040D01*
X184108889Y-134410979D01*
X184434608Y-133626561D01*
X184435350Y-132777205D01*
X184435350Y-137877165D01*
X184111000Y-137092180D01*
X183510939Y-136491071D01*
X182726521Y-136165352D01*
X181877165Y-136164610D01*
X181092180Y-136488960D01*
X180491071Y-137089021D01*
X180165352Y-137873439D01*
X180164610Y-138722795D01*
X180488960Y-139507780D01*
X181089021Y-140108889D01*
X181873439Y-140434608D01*
X182722795Y-140435350D01*
X183507780Y-140111000D01*
X184108889Y-139510939D01*
X184434608Y-138726521D01*
X184435350Y-137877165D01*
X184435350Y-139464786D01*
X184075345Y-139613538D01*
X183615154Y-140072927D01*
X183365794Y-140673453D01*
X183365226Y-141323694D01*
X183613538Y-141924655D01*
X184072927Y-142384846D01*
X184673453Y-142634206D01*
X185323694Y-142634774D01*
X185924655Y-142386462D01*
X186384846Y-141927073D01*
X186634206Y-141326547D01*
X186634774Y-140676306D01*
X186634774Y-141830097D01*
X186492220Y-141889000D01*
X185891111Y-142489061D01*
X185565392Y-143273479D01*
X185564650Y-144122835D01*
X185889000Y-144907820D01*
X186489061Y-145508929D01*
X187226161Y-145815000D01*
X182772142Y-145815000D01*
X183507780Y-145511040D01*
X184108889Y-144910979D01*
X184434608Y-144126561D01*
X184435350Y-143277205D01*
X184111000Y-142492220D01*
X183510939Y-141891111D01*
X182726521Y-141565392D01*
X181877165Y-141564650D01*
X181092180Y-141889000D01*
X180491071Y-142489061D01*
X180165352Y-143273479D01*
X180164610Y-144122835D01*
X180488960Y-144907820D01*
X181089021Y-145508929D01*
X181826121Y-145815000D01*
X151185000Y-145815000D01*
X151185000Y-115185000D01*
X181827817Y-115185000D01*
X181092180Y-115488960D01*
X180491071Y-116089021D01*
X180165352Y-116873439D01*
X180164610Y-117722795D01*
X180488960Y-118507780D01*
X181089021Y-119108889D01*
X181224151Y-119165000D01*
X180300000Y-119165000D01*
X179980459Y-119228561D01*
X179709566Y-119409566D01*
X177909566Y-121209566D01*
X177728561Y-121480459D01*
X177665000Y-121800000D01*
X177665000Y-124254132D01*
X176398721Y-125520410D01*
X176286216Y-125520313D01*
X175889311Y-125684311D01*
X175585378Y-125987714D01*
X175420687Y-126384332D01*
X175420313Y-126813784D01*
X175584311Y-127210689D01*
X175887714Y-127514622D01*
X176284332Y-127679313D01*
X176713784Y-127679687D01*
X177110689Y-127515689D01*
X177414622Y-127212286D01*
X177579313Y-126815668D01*
X177579412Y-126701455D01*
X179090434Y-125190434D01*
X179271439Y-124919541D01*
X179271439Y-124919540D01*
X179335000Y-124600000D01*
X179335000Y-122145868D01*
X180645868Y-120835000D01*
X181222869Y-120835000D01*
X181092180Y-120889000D01*
X180491071Y-121489061D01*
X180165352Y-122273479D01*
X180164610Y-123122835D01*
X180488960Y-123907820D01*
X181089021Y-124508929D01*
X181873439Y-124834648D01*
X182722795Y-124835390D01*
X183507780Y-124511040D01*
X184108889Y-123910979D01*
X184434608Y-123126561D01*
X184435350Y-122277205D01*
X184111000Y-121492220D01*
X183510939Y-120891111D01*
X183375808Y-120835000D01*
X183576493Y-120835000D01*
X183613538Y-120924655D01*
X184072927Y-121384846D01*
X184673453Y-121634206D01*
X185323694Y-121634774D01*
X185924655Y-121386462D01*
X186384846Y-120927073D01*
X186634206Y-120326547D01*
X186634774Y-119676306D01*
X186386462Y-119075345D01*
X185927073Y-118615154D01*
X185326547Y-118365794D01*
X184676306Y-118365226D01*
X184075345Y-118613538D01*
X183615154Y-119072927D01*
X183576921Y-119165000D01*
X183377090Y-119165000D01*
X183507780Y-119111000D01*
X184108889Y-118510939D01*
X184434608Y-117726521D01*
X184435350Y-116877165D01*
X184111000Y-116092180D01*
X183510939Y-115491071D01*
X182773838Y-115185000D01*
X187206828Y-115185000D01*
X186525438Y-115467241D01*
X186365655Y-115786010D01*
X187700020Y-117120375D01*
X189034385Y-115786010D01*
X188874602Y-115467241D01*
X188154605Y-115185000D01*
X189815000Y-115185000D01*
X189815000Y-116806788D01*
X189532759Y-116125398D01*
X189213990Y-115965615D01*
X187879625Y-117299980D01*
X189213990Y-118634345D01*
X189532759Y-118474562D01*
X189815000Y-117754565D01*
X189815000Y-122227857D01*
X189511040Y-121492220D01*
X189034385Y-121014732D01*
X189034385Y-118813950D01*
X187700020Y-117479585D01*
X187520415Y-117659190D01*
X187520415Y-117299980D01*
X186186050Y-115965615D01*
X185867281Y-116125398D01*
X185557297Y-116916167D01*
X185573523Y-117765367D01*
X185867281Y-118474562D01*
X186186050Y-118634345D01*
X187520415Y-117299980D01*
X187520415Y-117659190D01*
X186365655Y-118813950D01*
X186525438Y-119132719D01*
X187316207Y-119442703D01*
X188165407Y-119426477D01*
X188874602Y-119132719D01*
X189034385Y-118813950D01*
X189034385Y-121014732D01*
X188910979Y-120891111D01*
X188126561Y-120565392D01*
X187277205Y-120564650D01*
X186492220Y-120889000D01*
X185891111Y-121489061D01*
X185565392Y-122273479D01*
X185564650Y-123122835D01*
X185889000Y-123907820D01*
X186489061Y-124508929D01*
X187273479Y-124834648D01*
X188122835Y-124835390D01*
X188907820Y-124511040D01*
X189508929Y-123910979D01*
X189815000Y-123173878D01*
X189815000Y-127306788D01*
X189532759Y-126625398D01*
X189213990Y-126465615D01*
X189034385Y-126645220D01*
X189034385Y-126286010D01*
X188874602Y-125967241D01*
X188083833Y-125657257D01*
X187234633Y-125673483D01*
X186525438Y-125967241D01*
X186365655Y-126286010D01*
X187700020Y-127620375D01*
X189034385Y-126286010D01*
X189034385Y-126645220D01*
X187879625Y-127799980D01*
X189213990Y-129134345D01*
X189532759Y-128974562D01*
X189815000Y-128254565D01*
X189815000Y-132727857D01*
X189511040Y-131992220D01*
X189034385Y-131514732D01*
X189034385Y-129313950D01*
X187700020Y-127979585D01*
X187520415Y-128159190D01*
X187520415Y-127799980D01*
X186186050Y-126465615D01*
X185867281Y-126625398D01*
X185557297Y-127416167D01*
X185573523Y-128265367D01*
X185867281Y-128974562D01*
X186186050Y-129134345D01*
X187520415Y-127799980D01*
X187520415Y-128159190D01*
X186365655Y-129313950D01*
X186525438Y-129632719D01*
X187316207Y-129942703D01*
X188165407Y-129926477D01*
X188874602Y-129632719D01*
X189034385Y-129313950D01*
X189034385Y-131514732D01*
X188910979Y-131391111D01*
X188126561Y-131065392D01*
X187277205Y-131064650D01*
X186634774Y-131330097D01*
X186634774Y-130176306D01*
X186386462Y-129575345D01*
X185927073Y-129115154D01*
X185326547Y-128865794D01*
X184676306Y-128865226D01*
X184435350Y-128964786D01*
X184435350Y-127377165D01*
X184111000Y-126592180D01*
X183510939Y-125991071D01*
X182726521Y-125665352D01*
X181877165Y-125664610D01*
X181092180Y-125988960D01*
X180491071Y-126589021D01*
X180165352Y-127373439D01*
X180164610Y-128222795D01*
X180488960Y-129007780D01*
X181089021Y-129608889D01*
X181873439Y-129934608D01*
X182722795Y-129935350D01*
X183507780Y-129611000D01*
X184108889Y-129010939D01*
X184434608Y-128226521D01*
X184435350Y-127377165D01*
X184435350Y-128964786D01*
X184075345Y-129113538D01*
X183615154Y-129572927D01*
X183365794Y-130173453D01*
X183365226Y-130823694D01*
X183613538Y-131424655D01*
X184072927Y-131884846D01*
X184673453Y-132134206D01*
X185323694Y-132134774D01*
X185924655Y-131886462D01*
X186384846Y-131427073D01*
X186634206Y-130826547D01*
X186634774Y-130176306D01*
X186634774Y-131330097D01*
X186492220Y-131389000D01*
X185891111Y-131989061D01*
X185565392Y-132773479D01*
X185564650Y-133622835D01*
X185889000Y-134407820D01*
X186489061Y-135008929D01*
X187273479Y-135334648D01*
X188122835Y-135335390D01*
X188907820Y-135011040D01*
X189508929Y-134410979D01*
X189815000Y-133673878D01*
X189815000Y-137806788D01*
X189532759Y-137125398D01*
X189213990Y-136965615D01*
X189034385Y-137145220D01*
X189034385Y-136786010D01*
X188874602Y-136467241D01*
X188083833Y-136157257D01*
X187234633Y-136173483D01*
X186525438Y-136467241D01*
X186365655Y-136786010D01*
X187700020Y-138120375D01*
X189034385Y-136786010D01*
X189034385Y-137145220D01*
X187879625Y-138299980D01*
X189213990Y-139634345D01*
X189532759Y-139474562D01*
X189815000Y-138754565D01*
X189815000Y-143227857D01*
M02*
