M48
;DRILL file {kicad (2014-11-17 BZR 5289)-product} date Sat 29 Aug 2015 09:05:07 PM EDT
;FORMAT={-:-/ absolute / inch / decimal}
FMAT,2
INCH,TZ
T1C0.039
T2C0.040
T3C0.079
%
G90
G05
M72
T1
X6.0236Y-3.5039
X6.0236Y-4.0945
X6.0236Y-4.685
X7.2047Y-3.5039
X7.2047Y-4.0945
X7.2047Y-4.685
T2
X5.7087Y-3.9929
X5.7087Y-4.0929
X5.7087Y-4.1929
T3
X5.9173Y-3.3976
X5.9173Y-3.6102
X5.9173Y-3.9882
X5.9173Y-4.2008
X5.9173Y-4.5787
X5.9173Y-4.7913
X6.1299Y-3.3976
X6.1299Y-3.6102
X6.1299Y-3.9882
X6.1299Y-4.2008
X6.1299Y-4.5787
X6.1299Y-4.7913
X7.0984Y-3.3976
X7.0984Y-3.6102
X7.0984Y-3.9882
X7.0984Y-4.2008
X7.0984Y-4.5787
X7.0984Y-4.7913
X7.311Y-3.3976
X7.311Y-3.6102
X7.311Y-3.9882
X7.311Y-4.2008
X7.311Y-4.5787
X7.311Y-4.7913
T0
M30
