G04 #@! TF.FileFunction,Soldermask,Bot*
%FSLAX46Y46*%
G04 Gerber Fmt 4.6, Leading zero omitted, Abs format (unit mm)*
G04 Created by KiCad (PCBNEW (2015-11-24 BZR 6329)-product) date Tue 26 Jan 2016 09:35:21 PM EST*
%MOMM*%
G01*
G04 APERTURE LIST*
%ADD10C,0.100000*%
%ADD11C,3.000000*%
%ADD12R,2.032000X2.032000*%
%ADD13O,2.032000X2.032000*%
%ADD14R,0.600000X2.000000*%
%ADD15C,1.300000*%
%ADD16R,1.300000X1.300000*%
%ADD17R,2.235200X2.235200*%
%ADD18R,1.350000X0.400000*%
%ADD19O,0.950000X1.250000*%
%ADD20O,1.550000X1.000000*%
%ADD21C,1.501140*%
%ADD22R,1.200000X0.900000*%
%ADD23R,0.900000X1.200000*%
G04 APERTURE END LIST*
D10*
D11*
X102504000Y-57084000D03*
X102504000Y-52004000D03*
X92344000Y-54544000D03*
X102504000Y-67244000D03*
X102504000Y-62164000D03*
X92344000Y-64704000D03*
X102504000Y-77404000D03*
X102504000Y-72324000D03*
X92344000Y-74864000D03*
X102504000Y-87564000D03*
X102504000Y-82484000D03*
X92344000Y-85024000D03*
X102504000Y-97724000D03*
X102504000Y-92644000D03*
X92344000Y-95184000D03*
X102504000Y-107630000D03*
X102504000Y-102550000D03*
X92344000Y-105090000D03*
X102504000Y-117536000D03*
X102504000Y-112456000D03*
X92344000Y-114996000D03*
X102504000Y-127442000D03*
X102504000Y-122362000D03*
X92344000Y-124902000D03*
X117790000Y-117460000D03*
X112710000Y-117460000D03*
X115250000Y-127620000D03*
X127790000Y-117460000D03*
X122710000Y-117460000D03*
X125250000Y-127620000D03*
X137790000Y-117460000D03*
X132710000Y-117460000D03*
X135250000Y-127620000D03*
X147790000Y-117460000D03*
X142710000Y-117460000D03*
X145250000Y-127620000D03*
X157790000Y-117460000D03*
X152710000Y-117460000D03*
X155250000Y-127620000D03*
X167790000Y-117460000D03*
X162710000Y-117460000D03*
X165250000Y-127620000D03*
X177790000Y-117460000D03*
X172710000Y-117460000D03*
X175250000Y-127620000D03*
X187790000Y-117460000D03*
X182710000Y-117460000D03*
X185250000Y-127620000D03*
X177460000Y-102210000D03*
X177460000Y-107290000D03*
X187620000Y-104750000D03*
X177460000Y-92210000D03*
X177460000Y-97290000D03*
X187620000Y-94750000D03*
X177460000Y-82210000D03*
X177460000Y-87290000D03*
X187620000Y-84750000D03*
X177460000Y-72210000D03*
X177460000Y-77290000D03*
X187620000Y-74750000D03*
X177460000Y-62210000D03*
X177460000Y-67290000D03*
X187620000Y-64750000D03*
X177460000Y-52210000D03*
X177460000Y-57290000D03*
X187620000Y-54750000D03*
X177460000Y-42210000D03*
X177460000Y-47290000D03*
X187620000Y-44750000D03*
X177460000Y-32210000D03*
X177460000Y-37290000D03*
X187620000Y-34750000D03*
X162460000Y-42540000D03*
X167540000Y-42540000D03*
X165000000Y-32380000D03*
X152460000Y-42540000D03*
X157540000Y-42540000D03*
X155000000Y-32380000D03*
D12*
X163200000Y-85000000D03*
D13*
X163200000Y-82460000D03*
D11*
X92460000Y-42540000D03*
X97540000Y-42540000D03*
X95000000Y-32380000D03*
X102460000Y-42540000D03*
X107540000Y-42540000D03*
X105000000Y-32380000D03*
X112460000Y-42540000D03*
X117540000Y-42540000D03*
X115000000Y-32380000D03*
X122460000Y-42540000D03*
X127540000Y-42540000D03*
X125000000Y-32380000D03*
X132460000Y-42540000D03*
X137540000Y-42540000D03*
X135000000Y-32380000D03*
X142460000Y-42540000D03*
X147540000Y-42540000D03*
X145000000Y-32380000D03*
D14*
X118415000Y-54900000D03*
X119685000Y-54900000D03*
X120955000Y-54900000D03*
X122225000Y-54900000D03*
X123495000Y-54900000D03*
X124765000Y-54900000D03*
X126035000Y-54900000D03*
X127305000Y-54900000D03*
X128575000Y-54900000D03*
X129845000Y-54900000D03*
X131115000Y-54900000D03*
X132385000Y-54900000D03*
X132385000Y-64300000D03*
X131115000Y-64300000D03*
X129845000Y-64300000D03*
X128575000Y-64300000D03*
X127305000Y-64300000D03*
X126035000Y-64300000D03*
X124765000Y-64300000D03*
X123495000Y-64300000D03*
X122225000Y-64300000D03*
X120955000Y-64300000D03*
X119685000Y-64300000D03*
X118415000Y-64300000D03*
X160385000Y-103300000D03*
X159115000Y-103300000D03*
X157845000Y-103300000D03*
X156575000Y-103300000D03*
X155305000Y-103300000D03*
X154035000Y-103300000D03*
X152765000Y-103300000D03*
X151495000Y-103300000D03*
X150225000Y-103300000D03*
X148955000Y-103300000D03*
X147685000Y-103300000D03*
X146415000Y-103300000D03*
X146415000Y-93900000D03*
X147685000Y-93900000D03*
X148955000Y-93900000D03*
X150225000Y-93900000D03*
X151495000Y-93900000D03*
X152765000Y-93900000D03*
X154035000Y-93900000D03*
X155305000Y-93900000D03*
X156575000Y-93900000D03*
X157845000Y-93900000D03*
X159115000Y-93900000D03*
X160385000Y-93900000D03*
D15*
X117500000Y-91200000D03*
D16*
X120000000Y-91200000D03*
D12*
X124800000Y-91200000D03*
D13*
X127340000Y-91200000D03*
D17*
X151600000Y-84600000D03*
D18*
X133437460Y-71699100D03*
X133437460Y-72349100D03*
X133437460Y-72999100D03*
X133437460Y-73649100D03*
X133437460Y-74299100D03*
D19*
X133437460Y-70499100D03*
X133437460Y-75499100D03*
D20*
X136137460Y-69499100D03*
X136137460Y-76499100D03*
D12*
X138200000Y-84400000D03*
D13*
X135660000Y-84400000D03*
D12*
X138200000Y-80800000D03*
D13*
X135660000Y-80800000D03*
D11*
X131660000Y-95860000D03*
X131660000Y-100940000D03*
X141820000Y-98400000D03*
D21*
X148240940Y-63600000D03*
X143359060Y-63600000D03*
D22*
X160700000Y-91200000D03*
X162900000Y-91200000D03*
D23*
X118400000Y-66700000D03*
X118400000Y-68900000D03*
M02*
