G04 #@! TF.FileFunction,Legend,Bot*
%FSLAX46Y46*%
G04 Gerber Fmt 4.6, Leading zero omitted, Abs format (unit mm)*
G04 Created by KiCad (PCBNEW (2015-11-24 BZR 6329)-product) date Tue 26 Jan 2016 09:35:21 PM EST*
%MOMM*%
G01*
G04 APERTURE LIST*
%ADD10C,0.100000*%
%ADD11C,0.150000*%
G04 APERTURE END LIST*
D10*
D11*
X117525000Y-55725000D02*
X117890000Y-55725000D01*
X117525000Y-63475000D02*
X117890000Y-63475000D01*
X133275000Y-63475000D02*
X132910000Y-63475000D01*
X133275000Y-55725000D02*
X132910000Y-55725000D01*
X117525000Y-55725000D02*
X117525000Y-63475000D01*
X133275000Y-55725000D02*
X133275000Y-63475000D01*
X117890000Y-55725000D02*
X117890000Y-53900000D01*
X161275000Y-102475000D02*
X160910000Y-102475000D01*
X161275000Y-94725000D02*
X160910000Y-94725000D01*
X145525000Y-94725000D02*
X145890000Y-94725000D01*
X145525000Y-102475000D02*
X145890000Y-102475000D01*
X161275000Y-102475000D02*
X161275000Y-94725000D01*
X145525000Y-102475000D02*
X145525000Y-94725000D01*
X160910000Y-102475000D02*
X160910000Y-104300000D01*
X138817460Y-68649100D02*
X138817460Y-77349100D01*
X132412460Y-68649100D02*
X132412460Y-77349100D01*
X132412460Y-77349100D02*
X138817460Y-77349100D01*
X137587460Y-77349100D02*
X137587460Y-68649100D01*
X138817460Y-68649100D02*
X132412460Y-68649100D01*
X162300000Y-90525000D02*
X161300000Y-90525000D01*
X161300000Y-91875000D02*
X162300000Y-91875000D01*
X119075000Y-68300000D02*
X119075000Y-67300000D01*
X117725000Y-67300000D02*
X117725000Y-68300000D01*
X116052381Y-58838095D02*
X116861905Y-58838095D01*
X116957143Y-58885714D01*
X117004762Y-58933333D01*
X117052381Y-59028571D01*
X117052381Y-59219048D01*
X117004762Y-59314286D01*
X116957143Y-59361905D01*
X116861905Y-59409524D01*
X116052381Y-59409524D01*
X117052381Y-60409524D02*
X117052381Y-59838095D01*
X117052381Y-60123809D02*
X116052381Y-60123809D01*
X116195238Y-60028571D01*
X116290476Y-59933333D01*
X116338095Y-59838095D01*
X154761905Y-98052381D02*
X154761905Y-98861905D01*
X154714286Y-98957143D01*
X154666667Y-99004762D01*
X154571429Y-99052381D01*
X154380952Y-99052381D01*
X154285714Y-99004762D01*
X154238095Y-98957143D01*
X154190476Y-98861905D01*
X154190476Y-98052381D01*
X153761905Y-98147619D02*
X153714286Y-98100000D01*
X153619048Y-98052381D01*
X153380952Y-98052381D01*
X153285714Y-98100000D01*
X153238095Y-98147619D01*
X153190476Y-98242857D01*
X153190476Y-98338095D01*
X153238095Y-98480952D01*
X153809524Y-99052381D01*
X153190476Y-99052381D01*
X135852381Y-72261905D02*
X134852381Y-72261905D01*
X134852381Y-72642858D01*
X134900000Y-72738096D01*
X134947619Y-72785715D01*
X135042857Y-72833334D01*
X135185714Y-72833334D01*
X135280952Y-72785715D01*
X135328571Y-72738096D01*
X135376190Y-72642858D01*
X135376190Y-72261905D01*
X135185714Y-73690477D02*
X135852381Y-73690477D01*
X134804762Y-73452381D02*
X135519048Y-73214286D01*
X135519048Y-73833334D01*
X161966666Y-93457143D02*
X162014285Y-93504762D01*
X162157142Y-93552381D01*
X162252380Y-93552381D01*
X162395238Y-93504762D01*
X162490476Y-93409524D01*
X162538095Y-93314286D01*
X162585714Y-93123810D01*
X162585714Y-92980952D01*
X162538095Y-92790476D01*
X162490476Y-92695238D01*
X162395238Y-92600000D01*
X162252380Y-92552381D01*
X162157142Y-92552381D01*
X162014285Y-92600000D01*
X161966666Y-92647619D01*
X161109523Y-92552381D02*
X161300000Y-92552381D01*
X161395238Y-92600000D01*
X161442857Y-92647619D01*
X161538095Y-92790476D01*
X161585714Y-92980952D01*
X161585714Y-93361905D01*
X161538095Y-93457143D01*
X161490476Y-93504762D01*
X161395238Y-93552381D01*
X161204761Y-93552381D01*
X161109523Y-93504762D01*
X161061904Y-93457143D01*
X161014285Y-93361905D01*
X161014285Y-93123810D01*
X161061904Y-93028571D01*
X161109523Y-92980952D01*
X161204761Y-92933333D01*
X161395238Y-92933333D01*
X161490476Y-92980952D01*
X161538095Y-93028571D01*
X161585714Y-93123810D01*
X116857143Y-67633334D02*
X116904762Y-67585715D01*
X116952381Y-67442858D01*
X116952381Y-67347620D01*
X116904762Y-67204762D01*
X116809524Y-67109524D01*
X116714286Y-67061905D01*
X116523810Y-67014286D01*
X116380952Y-67014286D01*
X116190476Y-67061905D01*
X116095238Y-67109524D01*
X116000000Y-67204762D01*
X115952381Y-67347620D01*
X115952381Y-67442858D01*
X116000000Y-67585715D01*
X116047619Y-67633334D01*
X115952381Y-67966667D02*
X115952381Y-68633334D01*
X116952381Y-68204762D01*
M02*
