G04 #@! TF.FileFunction,Copper,L2,Bot,Signal*
%FSLAX46Y46*%
G04 Gerber Fmt 4.6, Leading zero omitted, Abs format (unit mm)*
G04 Created by KiCad (PCBNEW (2015-11-24 BZR 6329)-product) date Wed 06 Apr 2016 07:53:13 PM EDT*
%MOMM*%
G01*
G04 APERTURE LIST*
%ADD10C,0.100000*%
%ADD11O,2.500000X2.500000*%
%ADD12C,1.500000*%
%ADD13C,1.998980*%
%ADD14R,2.032000X2.032000*%
%ADD15O,2.032000X2.032000*%
%ADD16C,1.200000*%
%ADD17C,0.600000*%
%ADD18C,0.250000*%
G04 APERTURE END LIST*
D10*
D11*
X160070000Y-93750000D03*
X189290000Y-63270000D03*
D12*
X152790000Y-79780000D03*
X151817984Y-77433346D03*
X189520000Y-91320000D03*
X187018588Y-91761066D03*
X196150000Y-78580000D03*
X195708934Y-81081412D03*
X158700000Y-62080000D03*
X161201412Y-62521066D03*
X173650000Y-58750000D03*
X175849705Y-57480000D03*
X173130000Y-98080000D03*
X175075753Y-96447319D03*
D13*
X169620000Y-76400000D03*
X179780000Y-76400000D03*
D14*
X175950000Y-79500000D03*
D15*
X173410000Y-79500000D03*
D16*
X172310000Y-82800000D03*
X173920000Y-82830000D03*
X175520000Y-82830000D03*
X177120000Y-82830000D03*
D17*
X178000000Y-73200000D03*
X173450000Y-84400000D03*
X168950000Y-80950000D03*
X171600000Y-73800000D03*
X176050000Y-73900000D03*
X177600000Y-84550000D03*
X180050000Y-80000000D03*
X171350000Y-78350000D03*
X168400000Y-79750000D03*
D18*
X178000000Y-81200000D02*
X178000000Y-73200000D01*
X173450000Y-84400000D02*
X173400000Y-84350000D01*
X173400000Y-84350000D02*
X172050000Y-84350000D01*
X172050000Y-84350000D02*
X168950000Y-81250000D01*
X168950000Y-81250000D02*
X168950000Y-80950000D01*
X175950000Y-78150000D02*
X171600000Y-73800000D01*
X175950000Y-79500000D02*
X175950000Y-78150000D01*
X175950000Y-79500000D02*
X175950000Y-74000000D01*
X175950000Y-74000000D02*
X176050000Y-73900000D01*
X175520000Y-82830000D02*
X175520000Y-83420000D01*
X175520000Y-83420000D02*
X176650000Y-84550000D01*
X176650000Y-84550000D02*
X177600000Y-84550000D01*
X175520000Y-82830000D02*
X175520000Y-82280000D01*
X175520000Y-82280000D02*
X176600000Y-81200000D01*
X178850000Y-81200000D02*
X180050000Y-80000000D01*
X176600000Y-81200000D02*
X178000000Y-81200000D01*
X178000000Y-81200000D02*
X178850000Y-81200000D01*
X171350000Y-78350000D02*
X169950000Y-79750000D01*
X169950000Y-79750000D02*
X168400000Y-79750000D01*
X172310000Y-80594716D02*
X173360387Y-79544329D01*
X172310000Y-82800000D02*
X172310000Y-80594716D01*
M02*
