M48
;DRILL file {KiCad (2015-11-24 BZR 6329)-product} date Wed 06 Apr 2016 07:53:16 PM EDT
;FORMAT={-:-/ absolute / inch / decimal}
FMAT,2
INCH,TZ
T1C0.016
T2C0.024
T3C0.039
T4C0.040
T5C0.059
%
G90
G05
M72
T1
X6.6299Y-3.1398
X6.6516Y-3.187
X6.7461Y-3.0846
X6.7559Y-2.9055
X6.8287Y-3.3228
X6.9311Y-2.9094
X6.9921Y-3.3287
X7.0079Y-2.8819
X7.0886Y-3.1496
T2
X6.7839Y-3.2598
X6.8472Y-3.261
X6.9102Y-3.261
X6.9732Y-3.261
T3
X5.9771Y-3.0486
X6.0154Y-3.1409
X6.248Y-2.4441
X6.3465Y-2.4615
X6.678Y-3.0079
X6.8161Y-3.8614
X6.8366Y-2.313
X6.8927Y-3.7971
X6.9232Y-2.263
X7.078Y-3.0079
X7.3629Y-3.6126
X7.4614Y-3.5953
X7.7051Y-3.1922
X7.7224Y-3.0937
T4
X6.8272Y-3.1299
X6.9272Y-3.1299
T5
X6.302Y-3.6909
X7.4524Y-2.4909
T0
M30
