G04 #@! TF.FileFunction,Legend,Bot*
%FSLAX46Y46*%
G04 Gerber Fmt 4.6, Leading zero omitted, Abs format (unit mm)*
G04 Created by KiCad (PCBNEW (2015-11-24 BZR 6329)-product) date Wed 06 Apr 2016 07:53:13 PM EDT*
%MOMM*%
G01*
G04 APERTURE LIST*
%ADD10C,0.100000*%
%ADD11C,0.300000*%
G04 APERTURE END LIST*
D10*
D11*
X192789999Y-78548571D02*
X192218570Y-78548571D01*
X192575713Y-79548571D02*
X192575713Y-78262857D01*
X192504285Y-78120000D01*
X192361427Y-78048571D01*
X192218570Y-78048571D01*
X191504284Y-79548571D02*
X191647142Y-79477143D01*
X191718570Y-79334286D01*
X191718570Y-78048571D01*
X190718570Y-79548571D02*
X190861428Y-79477143D01*
X190932856Y-79405714D01*
X191004285Y-79262857D01*
X191004285Y-78834286D01*
X190932856Y-78691429D01*
X190861428Y-78620000D01*
X190718570Y-78548571D01*
X190504285Y-78548571D01*
X190361428Y-78620000D01*
X190289999Y-78691429D01*
X190218570Y-78834286D01*
X190218570Y-79262857D01*
X190289999Y-79405714D01*
X190361428Y-79477143D01*
X190504285Y-79548571D01*
X190718570Y-79548571D01*
X189718570Y-78548571D02*
X189432856Y-79548571D01*
X189147142Y-78834286D01*
X188861427Y-79548571D01*
X188575713Y-78548571D01*
X187432856Y-79477143D02*
X187575713Y-79548571D01*
X187861427Y-79548571D01*
X188004284Y-79477143D01*
X188075713Y-79334286D01*
X188075713Y-78762857D01*
X188004284Y-78620000D01*
X187861427Y-78548571D01*
X187575713Y-78548571D01*
X187432856Y-78620000D01*
X187361427Y-78762857D01*
X187361427Y-78905714D01*
X188075713Y-79048571D01*
X186718570Y-79548571D02*
X186718570Y-78548571D01*
X186718570Y-78834286D02*
X186647142Y-78691429D01*
X186575713Y-78620000D01*
X186432856Y-78548571D01*
X186289999Y-78548571D01*
X184647142Y-79548571D02*
X184647142Y-78548571D01*
X184647142Y-78834286D02*
X184575714Y-78691429D01*
X184504285Y-78620000D01*
X184361428Y-78548571D01*
X184218571Y-78548571D01*
X183790000Y-78191429D02*
X183718571Y-78120000D01*
X183575714Y-78048571D01*
X183218571Y-78048571D01*
X183075714Y-78120000D01*
X183004285Y-78191429D01*
X182932857Y-78334286D01*
X182932857Y-78477143D01*
X183004285Y-78691429D01*
X183861428Y-79548571D01*
X182932857Y-79548571D01*
M02*
