M48
;DRILL file {KiCad (2015-11-24 BZR 6329)-product} date Sun 10 Apr 2016 02:35:51 PM EDT
;FORMAT={-:-/ absolute / inch / decimal}
FMAT,2
INCH,TZ
T1C0.016
T2C0.040
T3C0.040
T4C0.059
T5C0.118
%
G90
G05
M72
T1
X5.2755Y-4.1876
X5.2952Y-3.4691
X5.3444Y-4.5026
X5.3838Y-4.5419
X6.2598Y-3.2329
X6.4763Y-3.2624
X6.5649Y-4.5813
X6.6535Y-3.2624
X6.7617Y-4.5813
T2
X5.0472Y-4.3451
X5.0598Y-3.7467
X5.1082Y-2.977
X5.1472Y-4.3451
X5.1598Y-3.7467
X5.2082Y-2.977
X5.2598Y-3.7467
X5.3082Y-2.977
X5.4082Y-2.977
X5.4649Y-4.347
X5.4665Y-3.5911
X5.4724Y-4.8766
X5.5082Y-2.977
X5.5649Y-4.347
X5.5665Y-3.5911
X5.5724Y-4.8766
X5.6082Y-2.977
X5.6724Y-4.8766
X5.7082Y-2.977
X5.7125Y-3.5911
X5.7724Y-4.8766
X5.8082Y-2.977
X5.8125Y-3.5911
X5.8724Y-4.8766
X5.9082Y-2.977
X5.9566Y-3.5911
X5.9609Y-3.7624
X5.9609Y-4.347
X5.9724Y-4.8766
X6.0082Y-2.977
X6.0566Y-3.5911
X6.0609Y-3.7624
X6.0609Y-4.347
X6.0724Y-4.8766
X6.1712Y-2.977
X6.1724Y-4.8766
X6.1948Y-3.5911
X6.2598Y-4.347
X6.2712Y-2.977
X6.2948Y-3.5911
X6.3598Y-4.347
X6.368Y-4.8766
X6.3712Y-2.977
X6.4598Y-4.347
X6.4649Y-3.7545
X6.468Y-4.8766
X6.4712Y-2.977
X6.5598Y-4.347
X6.5649Y-3.7545
X6.568Y-4.8766
X6.5712Y-2.977
X6.668Y-4.8766
X6.6712Y-2.977
X6.768Y-4.8766
X6.7712Y-2.977
X6.868Y-4.8766
X6.8712Y-2.977
T3
X7.0728Y-3.5508
X7.0737Y-3.6689
X7.0737Y-3.787
X7.0737Y-3.9051
X7.0737Y-4.0232
T4
X5.305Y-3.1541
X5.305Y-3.351
X5.5609Y-3.1541
X5.5609Y-3.351
X5.748Y-3.1541
X5.748Y-3.351
X6.0039Y-3.1541
X6.0039Y-3.351
T5
X6.9743Y-4.2663
X7.1121Y-4.4514
X7.244Y-3.6069
X7.244Y-3.9386
X7.2893Y-4.2663
T0
M30
