G04 #@! TF.FileFunction,Legend,Top*
%FSLAX46Y46*%
G04 Gerber Fmt 4.6, Leading zero omitted, Abs format (unit mm)*
G04 Created by KiCad (PCBNEW (2015-11-24 BZR 6329)-product) date Sun 10 Apr 2016 02:36:14 PM EDT*
%MOMM*%
G01*
G04 APERTURE LIST*
%ADD10C,0.100000*%
%ADD11C,0.150000*%
G04 APERTURE END LIST*
D10*
D11*
X126248000Y-93015000D02*
X126248000Y-113015000D01*
X174248000Y-93015000D02*
X126248000Y-93015000D01*
X174248000Y-113015000D02*
X174248000Y-93015000D01*
X126248000Y-113015000D02*
X174248000Y-113015000D01*
X139912285Y-130762619D02*
X140483714Y-130762619D01*
X140198000Y-130762619D02*
X140198000Y-131762619D01*
X140293238Y-131619762D01*
X140388476Y-131524524D01*
X140483714Y-131476905D01*
X134748000Y-86115000D02*
X141248000Y-86115000D01*
X141248000Y-86115000D02*
X141248000Y-79115000D01*
X141248000Y-79115000D02*
X134748000Y-79115000D01*
X134748000Y-79115000D02*
X134748000Y-86115000D01*
X145998000Y-86115000D02*
X152498000Y-86115000D01*
X152498000Y-86115000D02*
X152498000Y-79115000D01*
X152498000Y-79115000D02*
X145998000Y-79115000D01*
X145998000Y-79115000D02*
X145998000Y-86115000D01*
X168123000Y-79965000D02*
X168123000Y-78765000D01*
X169873000Y-78765000D02*
X169873000Y-79965000D01*
X165873000Y-79965000D02*
X165873000Y-78765000D01*
X167623000Y-78765000D02*
X167623000Y-79965000D01*
X163623000Y-79965000D02*
X163623000Y-78765000D01*
X165373000Y-78765000D02*
X165373000Y-79965000D01*
X161373000Y-79965000D02*
X161373000Y-78765000D01*
X163123000Y-78765000D02*
X163123000Y-79965000D01*
X173623000Y-120965000D02*
X173623000Y-119765000D01*
X175373000Y-119765000D02*
X175373000Y-120965000D01*
X170873000Y-120965000D02*
X170873000Y-119765000D01*
X172623000Y-119765000D02*
X172623000Y-120965000D01*
X168373000Y-120965000D02*
X168373000Y-119765000D01*
X170123000Y-119765000D02*
X170123000Y-120965000D01*
X165873000Y-120965000D02*
X165873000Y-119765000D01*
X167623000Y-119765000D02*
X167623000Y-120965000D01*
X163373000Y-120965000D02*
X163373000Y-119765000D01*
X165123000Y-119765000D02*
X165123000Y-120965000D01*
X160873000Y-120965000D02*
X160873000Y-119765000D01*
X162623000Y-119765000D02*
X162623000Y-120965000D01*
X158018000Y-74345000D02*
X175798000Y-74345000D01*
X175798000Y-74345000D02*
X175798000Y-76885000D01*
X175798000Y-76885000D02*
X158018000Y-76885000D01*
X155198000Y-74065000D02*
X156748000Y-74065000D01*
X158018000Y-74345000D02*
X158018000Y-76885000D01*
X156748000Y-77165000D02*
X155198000Y-77165000D01*
X155198000Y-77165000D02*
X155198000Y-74065000D01*
X131018000Y-74345000D02*
X153878000Y-74345000D01*
X153878000Y-74345000D02*
X153878000Y-76885000D01*
X153878000Y-76885000D02*
X131018000Y-76885000D01*
X128198000Y-74065000D02*
X129748000Y-74065000D01*
X131018000Y-74345000D02*
X131018000Y-76885000D01*
X129748000Y-77165000D02*
X128198000Y-77165000D01*
X128198000Y-77165000D02*
X128198000Y-74065000D01*
X129468000Y-109095000D02*
X132008000Y-109095000D01*
X126648000Y-108815000D02*
X128198000Y-108815000D01*
X129468000Y-109095000D02*
X129468000Y-111635000D01*
X128198000Y-111915000D02*
X126648000Y-111915000D01*
X126648000Y-111915000D02*
X126648000Y-108815000D01*
X129468000Y-111635000D02*
X132008000Y-111635000D01*
X132008000Y-111635000D02*
X132008000Y-109095000D01*
X163018000Y-122595000D02*
X175718000Y-122595000D01*
X175718000Y-122595000D02*
X175718000Y-125135000D01*
X175718000Y-125135000D02*
X163018000Y-125135000D01*
X160198000Y-122315000D02*
X161748000Y-122315000D01*
X163018000Y-122595000D02*
X163018000Y-125135000D01*
X161748000Y-125415000D02*
X160198000Y-125415000D01*
X160198000Y-125415000D02*
X160198000Y-122315000D01*
X140268000Y-122595000D02*
X158048000Y-122595000D01*
X158048000Y-122595000D02*
X158048000Y-125135000D01*
X158048000Y-125135000D02*
X140268000Y-125135000D01*
X137448000Y-122315000D02*
X138998000Y-122315000D01*
X140268000Y-122595000D02*
X140268000Y-125135000D01*
X138998000Y-125415000D02*
X137448000Y-125415000D01*
X137448000Y-125415000D02*
X137448000Y-122315000D01*
X152568000Y-89945000D02*
X155108000Y-89945000D01*
X149748000Y-89665000D02*
X151298000Y-89665000D01*
X152568000Y-89945000D02*
X152568000Y-92485000D01*
X151298000Y-92765000D02*
X149748000Y-92765000D01*
X149748000Y-92765000D02*
X149748000Y-89665000D01*
X152568000Y-92485000D02*
X155108000Y-92485000D01*
X155108000Y-92485000D02*
X155108000Y-89945000D01*
X152678000Y-96835000D02*
X150138000Y-96835000D01*
X155498000Y-97115000D02*
X153948000Y-97115000D01*
X152678000Y-96835000D02*
X152678000Y-94295000D01*
X153948000Y-94015000D02*
X155498000Y-94015000D01*
X155498000Y-94015000D02*
X155498000Y-97115000D01*
X152678000Y-94295000D02*
X150138000Y-94295000D01*
X150138000Y-94295000D02*
X150138000Y-96835000D01*
X160268000Y-111685000D02*
X167888000Y-111685000D01*
X160268000Y-109145000D02*
X167888000Y-109145000D01*
X157448000Y-108865000D02*
X158998000Y-108865000D01*
X167888000Y-111685000D02*
X167888000Y-109145000D01*
X160268000Y-109145000D02*
X160268000Y-111685000D01*
X158998000Y-111965000D02*
X157448000Y-111965000D01*
X157448000Y-111965000D02*
X157448000Y-108865000D01*
X146368000Y-89945000D02*
X148908000Y-89945000D01*
X143548000Y-89665000D02*
X145098000Y-89665000D01*
X146368000Y-89945000D02*
X146368000Y-92485000D01*
X145098000Y-92765000D02*
X143548000Y-92765000D01*
X143548000Y-92765000D02*
X143548000Y-89665000D01*
X146368000Y-92485000D02*
X148908000Y-92485000D01*
X148908000Y-92485000D02*
X148908000Y-89945000D01*
X152678000Y-111685000D02*
X150138000Y-111685000D01*
X155498000Y-111965000D02*
X153948000Y-111965000D01*
X152678000Y-111685000D02*
X152678000Y-109145000D01*
X153948000Y-108865000D02*
X155498000Y-108865000D01*
X155498000Y-108865000D02*
X155498000Y-111965000D01*
X152678000Y-109145000D02*
X150138000Y-109145000D01*
X150138000Y-109145000D02*
X150138000Y-111685000D01*
X158618000Y-89945000D02*
X161158000Y-89945000D01*
X155798000Y-89665000D02*
X157348000Y-89665000D01*
X158618000Y-89945000D02*
X158618000Y-92485000D01*
X157348000Y-92765000D02*
X155798000Y-92765000D01*
X155798000Y-92765000D02*
X155798000Y-89665000D01*
X158618000Y-92485000D02*
X161158000Y-92485000D01*
X161158000Y-92485000D02*
X161158000Y-89945000D01*
X165478000Y-96635000D02*
X162938000Y-96635000D01*
X168298000Y-96915000D02*
X166748000Y-96915000D01*
X165478000Y-96635000D02*
X165478000Y-94095000D01*
X166748000Y-93815000D02*
X168298000Y-93815000D01*
X168298000Y-93815000D02*
X168298000Y-96915000D01*
X165478000Y-94095000D02*
X162938000Y-94095000D01*
X162938000Y-94095000D02*
X162938000Y-96635000D01*
X132328000Y-93895000D02*
X127248000Y-93895000D01*
X127248000Y-93895000D02*
X127248000Y-96435000D01*
X127248000Y-96435000D02*
X132328000Y-96435000D01*
X135148000Y-96715000D02*
X133598000Y-96715000D01*
X132328000Y-96435000D02*
X132328000Y-93895000D01*
X133598000Y-93615000D02*
X135148000Y-93615000D01*
X135148000Y-93615000D02*
X135148000Y-96715000D01*
X140118000Y-89945000D02*
X142658000Y-89945000D01*
X137298000Y-89665000D02*
X138848000Y-89665000D01*
X140118000Y-89945000D02*
X140118000Y-92485000D01*
X138848000Y-92765000D02*
X137298000Y-92765000D01*
X137298000Y-92765000D02*
X137298000Y-89665000D01*
X140118000Y-92485000D02*
X142658000Y-92485000D01*
X142658000Y-92485000D02*
X142658000Y-89945000D01*
X140078000Y-111685000D02*
X137538000Y-111685000D01*
X142898000Y-111965000D02*
X141348000Y-111965000D01*
X140078000Y-111685000D02*
X140078000Y-109145000D01*
X141348000Y-108865000D02*
X142898000Y-108865000D01*
X142898000Y-108865000D02*
X142898000Y-111965000D01*
X140078000Y-109145000D02*
X137538000Y-109145000D01*
X137538000Y-109145000D02*
X137538000Y-111685000D01*
X155873000Y-79965000D02*
X155873000Y-78765000D01*
X157623000Y-78765000D02*
X157623000Y-79965000D01*
X158373000Y-79965000D02*
X158373000Y-78765000D01*
X160123000Y-78765000D02*
X160123000Y-79965000D01*
X138557524Y-83067381D02*
X138081333Y-83067381D01*
X138081333Y-82067381D01*
X149807524Y-83067381D02*
X149474190Y-82591190D01*
X149236095Y-83067381D02*
X149236095Y-82067381D01*
X149617048Y-82067381D01*
X149712286Y-82115000D01*
X149759905Y-82162619D01*
X149807524Y-82257857D01*
X149807524Y-82400714D01*
X149759905Y-82495952D01*
X149712286Y-82543571D01*
X149617048Y-82591190D01*
X149236095Y-82591190D01*
X176676571Y-97472142D02*
X175176571Y-97472142D01*
X175176571Y-96900714D01*
X175248000Y-96757856D01*
X175319429Y-96686428D01*
X175462286Y-96614999D01*
X175676571Y-96614999D01*
X175819429Y-96686428D01*
X175890857Y-96757856D01*
X175962286Y-96900714D01*
X175962286Y-97472142D01*
X176676571Y-95186428D02*
X176676571Y-96043571D01*
X176676571Y-95614999D02*
X175176571Y-95614999D01*
X175390857Y-95757856D01*
X175533714Y-95900714D01*
X175605143Y-96043571D01*
X160533714Y-102400713D02*
X160605143Y-102472142D01*
X160676571Y-102686428D01*
X160676571Y-102829285D01*
X160605143Y-103043570D01*
X160462286Y-103186428D01*
X160319429Y-103257856D01*
X160033714Y-103329285D01*
X159819429Y-103329285D01*
X159533714Y-103257856D01*
X159390857Y-103186428D01*
X159248000Y-103043570D01*
X159176571Y-102829285D01*
X159176571Y-102686428D01*
X159248000Y-102472142D01*
X159319429Y-102400713D01*
X159176571Y-101472142D02*
X159176571Y-101186428D01*
X159248000Y-101043570D01*
X159390857Y-100900713D01*
X159676571Y-100829285D01*
X160176571Y-100829285D01*
X160462286Y-100900713D01*
X160605143Y-101043570D01*
X160676571Y-101186428D01*
X160676571Y-101472142D01*
X160605143Y-101614999D01*
X160462286Y-101757856D01*
X160176571Y-101829285D01*
X159676571Y-101829285D01*
X159390857Y-101757856D01*
X159248000Y-101614999D01*
X159176571Y-101472142D01*
X160676571Y-100186427D02*
X159176571Y-100186427D01*
X160676571Y-99329284D01*
X159176571Y-99329284D01*
X160676571Y-98614998D02*
X159176571Y-98614998D01*
X160676571Y-97757855D01*
X159176571Y-97757855D01*
X160819429Y-97400712D02*
X160819429Y-96257855D01*
X159176571Y-95614998D02*
X159176571Y-95472141D01*
X159248000Y-95329284D01*
X159319429Y-95257855D01*
X159462286Y-95186426D01*
X159748000Y-95114998D01*
X160105143Y-95114998D01*
X160390857Y-95186426D01*
X160533714Y-95257855D01*
X160605143Y-95329284D01*
X160676571Y-95472141D01*
X160676571Y-95614998D01*
X160605143Y-95757855D01*
X160533714Y-95829284D01*
X160390857Y-95900712D01*
X160105143Y-95972141D01*
X159748000Y-95972141D01*
X159462286Y-95900712D01*
X159319429Y-95829284D01*
X159248000Y-95757855D01*
X159176571Y-95614998D01*
X160676571Y-93686427D02*
X160676571Y-94543570D01*
X160676571Y-94114998D02*
X159176571Y-94114998D01*
X159390857Y-94257855D01*
X159533714Y-94400713D01*
X159605143Y-94543570D01*
X159176571Y-93186427D02*
X160676571Y-92186427D01*
X159176571Y-92186427D02*
X160676571Y-93186427D01*
X159176571Y-91329285D02*
X159176571Y-91186428D01*
X159248000Y-91043571D01*
X159319429Y-90972142D01*
X159462286Y-90900713D01*
X159748000Y-90829285D01*
X160105143Y-90829285D01*
X160390857Y-90900713D01*
X160533714Y-90972142D01*
X160605143Y-91043571D01*
X160676571Y-91186428D01*
X160676571Y-91329285D01*
X160605143Y-91472142D01*
X160533714Y-91543571D01*
X160390857Y-91614999D01*
X160105143Y-91686428D01*
X159748000Y-91686428D01*
X159462286Y-91614999D01*
X159319429Y-91543571D01*
X159248000Y-91472142D01*
X159176571Y-91329285D01*
X159176571Y-89472142D02*
X159176571Y-90186428D01*
X159890857Y-90257857D01*
X159819429Y-90186428D01*
X159748000Y-90043571D01*
X159748000Y-89686428D01*
X159819429Y-89543571D01*
X159890857Y-89472142D01*
X160033714Y-89400714D01*
X160390857Y-89400714D01*
X160533714Y-89472142D01*
X160605143Y-89543571D01*
X160676571Y-89686428D01*
X160676571Y-90043571D01*
X160605143Y-90186428D01*
X160533714Y-90257857D01*
X173450381Y-109498333D02*
X172450381Y-109498333D01*
X172450381Y-109117380D01*
X172498000Y-109022142D01*
X172545619Y-108974523D01*
X172640857Y-108926904D01*
X172783714Y-108926904D01*
X172878952Y-108974523D01*
X172926571Y-109022142D01*
X172974190Y-109117380D01*
X172974190Y-109498333D01*
X172450381Y-108593571D02*
X173450381Y-108355476D01*
X172736095Y-108164999D01*
X173450381Y-107974523D01*
X172450381Y-107736428D01*
X173450381Y-106784047D02*
X172974190Y-107117381D01*
X173450381Y-107355476D02*
X172450381Y-107355476D01*
X172450381Y-106974523D01*
X172498000Y-106879285D01*
X172545619Y-106831666D01*
X172640857Y-106784047D01*
X172783714Y-106784047D01*
X172878952Y-106831666D01*
X172926571Y-106879285D01*
X172974190Y-106974523D01*
X172974190Y-107355476D01*
X169450381Y-83907857D02*
X168974190Y-84241191D01*
X169450381Y-84479286D02*
X168450381Y-84479286D01*
X168450381Y-84098333D01*
X168498000Y-84003095D01*
X168545619Y-83955476D01*
X168640857Y-83907857D01*
X168783714Y-83907857D01*
X168878952Y-83955476D01*
X168926571Y-84003095D01*
X168974190Y-84098333D01*
X168974190Y-84479286D01*
X168545619Y-83526905D02*
X168498000Y-83479286D01*
X168450381Y-83384048D01*
X168450381Y-83145952D01*
X168498000Y-83050714D01*
X168545619Y-83003095D01*
X168640857Y-82955476D01*
X168736095Y-82955476D01*
X168878952Y-83003095D01*
X169450381Y-83574524D01*
X169450381Y-82955476D01*
X169450381Y-82003095D02*
X169450381Y-82574524D01*
X169450381Y-82288810D02*
X168450381Y-82288810D01*
X168593238Y-82384048D01*
X168688476Y-82479286D01*
X168736095Y-82574524D01*
X167250381Y-83907857D02*
X166774190Y-84241191D01*
X167250381Y-84479286D02*
X166250381Y-84479286D01*
X166250381Y-84098333D01*
X166298000Y-84003095D01*
X166345619Y-83955476D01*
X166440857Y-83907857D01*
X166583714Y-83907857D01*
X166678952Y-83955476D01*
X166726571Y-84003095D01*
X166774190Y-84098333D01*
X166774190Y-84479286D01*
X166345619Y-83526905D02*
X166298000Y-83479286D01*
X166250381Y-83384048D01*
X166250381Y-83145952D01*
X166298000Y-83050714D01*
X166345619Y-83003095D01*
X166440857Y-82955476D01*
X166536095Y-82955476D01*
X166678952Y-83003095D01*
X167250381Y-83574524D01*
X167250381Y-82955476D01*
X166250381Y-82336429D02*
X166250381Y-82241190D01*
X166298000Y-82145952D01*
X166345619Y-82098333D01*
X166440857Y-82050714D01*
X166631333Y-82003095D01*
X166869429Y-82003095D01*
X167059905Y-82050714D01*
X167155143Y-82098333D01*
X167202762Y-82145952D01*
X167250381Y-82241190D01*
X167250381Y-82336429D01*
X167202762Y-82431667D01*
X167155143Y-82479286D01*
X167059905Y-82526905D01*
X166869429Y-82574524D01*
X166631333Y-82574524D01*
X166440857Y-82526905D01*
X166345619Y-82479286D01*
X166298000Y-82431667D01*
X166250381Y-82336429D01*
X164950381Y-83907857D02*
X164474190Y-84241191D01*
X164950381Y-84479286D02*
X163950381Y-84479286D01*
X163950381Y-84098333D01*
X163998000Y-84003095D01*
X164045619Y-83955476D01*
X164140857Y-83907857D01*
X164283714Y-83907857D01*
X164378952Y-83955476D01*
X164426571Y-84003095D01*
X164474190Y-84098333D01*
X164474190Y-84479286D01*
X164950381Y-82955476D02*
X164950381Y-83526905D01*
X164950381Y-83241191D02*
X163950381Y-83241191D01*
X164093238Y-83336429D01*
X164188476Y-83431667D01*
X164236095Y-83526905D01*
X164950381Y-82479286D02*
X164950381Y-82288810D01*
X164902762Y-82193571D01*
X164855143Y-82145952D01*
X164712286Y-82050714D01*
X164521810Y-82003095D01*
X164140857Y-82003095D01*
X164045619Y-82050714D01*
X163998000Y-82098333D01*
X163950381Y-82193571D01*
X163950381Y-82384048D01*
X163998000Y-82479286D01*
X164045619Y-82526905D01*
X164140857Y-82574524D01*
X164378952Y-82574524D01*
X164474190Y-82526905D01*
X164521810Y-82479286D01*
X164569429Y-82384048D01*
X164569429Y-82193571D01*
X164521810Y-82098333D01*
X164474190Y-82050714D01*
X164378952Y-82003095D01*
X162600381Y-84107857D02*
X162124190Y-84441191D01*
X162600381Y-84679286D02*
X161600381Y-84679286D01*
X161600381Y-84298333D01*
X161648000Y-84203095D01*
X161695619Y-84155476D01*
X161790857Y-84107857D01*
X161933714Y-84107857D01*
X162028952Y-84155476D01*
X162076571Y-84203095D01*
X162124190Y-84298333D01*
X162124190Y-84679286D01*
X162600381Y-83155476D02*
X162600381Y-83726905D01*
X162600381Y-83441191D02*
X161600381Y-83441191D01*
X161743238Y-83536429D01*
X161838476Y-83631667D01*
X161886095Y-83726905D01*
X162028952Y-82584048D02*
X161981333Y-82679286D01*
X161933714Y-82726905D01*
X161838476Y-82774524D01*
X161790857Y-82774524D01*
X161695619Y-82726905D01*
X161648000Y-82679286D01*
X161600381Y-82584048D01*
X161600381Y-82393571D01*
X161648000Y-82298333D01*
X161695619Y-82250714D01*
X161790857Y-82203095D01*
X161838476Y-82203095D01*
X161933714Y-82250714D01*
X161981333Y-82298333D01*
X162028952Y-82393571D01*
X162028952Y-82584048D01*
X162076571Y-82679286D01*
X162124190Y-82726905D01*
X162219429Y-82774524D01*
X162409905Y-82774524D01*
X162505143Y-82726905D01*
X162552762Y-82679286D01*
X162600381Y-82584048D01*
X162600381Y-82393571D01*
X162552762Y-82298333D01*
X162505143Y-82250714D01*
X162409905Y-82203095D01*
X162219429Y-82203095D01*
X162124190Y-82250714D01*
X162076571Y-82298333D01*
X162028952Y-82393571D01*
X175150381Y-116907857D02*
X174674190Y-117241191D01*
X175150381Y-117479286D02*
X174150381Y-117479286D01*
X174150381Y-117098333D01*
X174198000Y-117003095D01*
X174245619Y-116955476D01*
X174340857Y-116907857D01*
X174483714Y-116907857D01*
X174578952Y-116955476D01*
X174626571Y-117003095D01*
X174674190Y-117098333D01*
X174674190Y-117479286D01*
X175150381Y-115955476D02*
X175150381Y-116526905D01*
X175150381Y-116241191D02*
X174150381Y-116241191D01*
X174293238Y-116336429D01*
X174388476Y-116431667D01*
X174436095Y-116526905D01*
X174150381Y-115050714D02*
X174150381Y-115526905D01*
X174626571Y-115574524D01*
X174578952Y-115526905D01*
X174531333Y-115431667D01*
X174531333Y-115193571D01*
X174578952Y-115098333D01*
X174626571Y-115050714D01*
X174721810Y-115003095D01*
X174959905Y-115003095D01*
X175055143Y-115050714D01*
X175102762Y-115098333D01*
X175150381Y-115193571D01*
X175150381Y-115431667D01*
X175102762Y-115526905D01*
X175055143Y-115574524D01*
X172100381Y-117007857D02*
X171624190Y-117341191D01*
X172100381Y-117579286D02*
X171100381Y-117579286D01*
X171100381Y-117198333D01*
X171148000Y-117103095D01*
X171195619Y-117055476D01*
X171290857Y-117007857D01*
X171433714Y-117007857D01*
X171528952Y-117055476D01*
X171576571Y-117103095D01*
X171624190Y-117198333D01*
X171624190Y-117579286D01*
X172100381Y-116055476D02*
X172100381Y-116626905D01*
X172100381Y-116341191D02*
X171100381Y-116341191D01*
X171243238Y-116436429D01*
X171338476Y-116531667D01*
X171386095Y-116626905D01*
X171433714Y-115198333D02*
X172100381Y-115198333D01*
X171052762Y-115436429D02*
X171767048Y-115674524D01*
X171767048Y-115055476D01*
X169750381Y-117107857D02*
X169274190Y-117441191D01*
X169750381Y-117679286D02*
X168750381Y-117679286D01*
X168750381Y-117298333D01*
X168798000Y-117203095D01*
X168845619Y-117155476D01*
X168940857Y-117107857D01*
X169083714Y-117107857D01*
X169178952Y-117155476D01*
X169226571Y-117203095D01*
X169274190Y-117298333D01*
X169274190Y-117679286D01*
X169750381Y-116155476D02*
X169750381Y-116726905D01*
X169750381Y-116441191D02*
X168750381Y-116441191D01*
X168893238Y-116536429D01*
X168988476Y-116631667D01*
X169036095Y-116726905D01*
X168750381Y-115822143D02*
X168750381Y-115203095D01*
X169131333Y-115536429D01*
X169131333Y-115393571D01*
X169178952Y-115298333D01*
X169226571Y-115250714D01*
X169321810Y-115203095D01*
X169559905Y-115203095D01*
X169655143Y-115250714D01*
X169702762Y-115298333D01*
X169750381Y-115393571D01*
X169750381Y-115679286D01*
X169702762Y-115774524D01*
X169655143Y-115822143D01*
X167300381Y-117107857D02*
X166824190Y-117441191D01*
X167300381Y-117679286D02*
X166300381Y-117679286D01*
X166300381Y-117298333D01*
X166348000Y-117203095D01*
X166395619Y-117155476D01*
X166490857Y-117107857D01*
X166633714Y-117107857D01*
X166728952Y-117155476D01*
X166776571Y-117203095D01*
X166824190Y-117298333D01*
X166824190Y-117679286D01*
X167300381Y-116155476D02*
X167300381Y-116726905D01*
X167300381Y-116441191D02*
X166300381Y-116441191D01*
X166443238Y-116536429D01*
X166538476Y-116631667D01*
X166586095Y-116726905D01*
X166395619Y-115774524D02*
X166348000Y-115726905D01*
X166300381Y-115631667D01*
X166300381Y-115393571D01*
X166348000Y-115298333D01*
X166395619Y-115250714D01*
X166490857Y-115203095D01*
X166586095Y-115203095D01*
X166728952Y-115250714D01*
X167300381Y-115822143D01*
X167300381Y-115203095D01*
X164650381Y-117107857D02*
X164174190Y-117441191D01*
X164650381Y-117679286D02*
X163650381Y-117679286D01*
X163650381Y-117298333D01*
X163698000Y-117203095D01*
X163745619Y-117155476D01*
X163840857Y-117107857D01*
X163983714Y-117107857D01*
X164078952Y-117155476D01*
X164126571Y-117203095D01*
X164174190Y-117298333D01*
X164174190Y-117679286D01*
X164650381Y-116155476D02*
X164650381Y-116726905D01*
X164650381Y-116441191D02*
X163650381Y-116441191D01*
X163793238Y-116536429D01*
X163888476Y-116631667D01*
X163936095Y-116726905D01*
X164650381Y-115203095D02*
X164650381Y-115774524D01*
X164650381Y-115488810D02*
X163650381Y-115488810D01*
X163793238Y-115584048D01*
X163888476Y-115679286D01*
X163936095Y-115774524D01*
X161900381Y-117207857D02*
X161424190Y-117541191D01*
X161900381Y-117779286D02*
X160900381Y-117779286D01*
X160900381Y-117398333D01*
X160948000Y-117303095D01*
X160995619Y-117255476D01*
X161090857Y-117207857D01*
X161233714Y-117207857D01*
X161328952Y-117255476D01*
X161376571Y-117303095D01*
X161424190Y-117398333D01*
X161424190Y-117779286D01*
X161900381Y-116255476D02*
X161900381Y-116826905D01*
X161900381Y-116541191D02*
X160900381Y-116541191D01*
X161043238Y-116636429D01*
X161138476Y-116731667D01*
X161186095Y-116826905D01*
X160900381Y-115636429D02*
X160900381Y-115541190D01*
X160948000Y-115445952D01*
X160995619Y-115398333D01*
X161090857Y-115350714D01*
X161281333Y-115303095D01*
X161519429Y-115303095D01*
X161709905Y-115350714D01*
X161805143Y-115398333D01*
X161852762Y-115445952D01*
X161900381Y-115541190D01*
X161900381Y-115636429D01*
X161852762Y-115731667D01*
X161805143Y-115779286D01*
X161709905Y-115826905D01*
X161519429Y-115874524D01*
X161281333Y-115874524D01*
X161090857Y-115826905D01*
X160995619Y-115779286D01*
X160948000Y-115731667D01*
X160900381Y-115636429D01*
X173833714Y-78867381D02*
X173833714Y-77867381D01*
X174214667Y-77867381D01*
X174309905Y-77915000D01*
X174357524Y-77962619D01*
X174405143Y-78057857D01*
X174405143Y-78200714D01*
X174357524Y-78295952D01*
X174309905Y-78343571D01*
X174214667Y-78391190D01*
X173833714Y-78391190D01*
X175357524Y-78867381D02*
X174786095Y-78867381D01*
X175071809Y-78867381D02*
X175071809Y-77867381D01*
X174976571Y-78010238D01*
X174881333Y-78105476D01*
X174786095Y-78153095D01*
X176262286Y-77867381D02*
X175786095Y-77867381D01*
X175738476Y-78343571D01*
X175786095Y-78295952D01*
X175881333Y-78248333D01*
X176119429Y-78248333D01*
X176214667Y-78295952D01*
X176262286Y-78343571D01*
X176309905Y-78438810D01*
X176309905Y-78676905D01*
X176262286Y-78772143D01*
X176214667Y-78819762D01*
X176119429Y-78867381D01*
X175881333Y-78867381D01*
X175786095Y-78819762D01*
X175738476Y-78772143D01*
X128483714Y-78867381D02*
X128483714Y-77867381D01*
X128864667Y-77867381D01*
X128959905Y-77915000D01*
X129007524Y-77962619D01*
X129055143Y-78057857D01*
X129055143Y-78200714D01*
X129007524Y-78295952D01*
X128959905Y-78343571D01*
X128864667Y-78391190D01*
X128483714Y-78391190D01*
X130007524Y-78867381D02*
X129436095Y-78867381D01*
X129721809Y-78867381D02*
X129721809Y-77867381D01*
X129626571Y-78010238D01*
X129531333Y-78105476D01*
X129436095Y-78153095D01*
X130864667Y-78200714D02*
X130864667Y-78867381D01*
X130626571Y-77819762D02*
X130388476Y-78534048D01*
X131007524Y-78534048D01*
X129783714Y-107817381D02*
X129783714Y-106817381D01*
X130164667Y-106817381D01*
X130259905Y-106865000D01*
X130307524Y-106912619D01*
X130355143Y-107007857D01*
X130355143Y-107150714D01*
X130307524Y-107245952D01*
X130259905Y-107293571D01*
X130164667Y-107341190D01*
X129783714Y-107341190D01*
X131307524Y-107817381D02*
X130736095Y-107817381D01*
X131021809Y-107817381D02*
X131021809Y-106817381D01*
X130926571Y-106960238D01*
X130831333Y-107055476D01*
X130736095Y-107103095D01*
X131688476Y-106912619D02*
X131736095Y-106865000D01*
X131831333Y-106817381D01*
X132069429Y-106817381D01*
X132164667Y-106865000D01*
X132212286Y-106912619D01*
X132259905Y-107007857D01*
X132259905Y-107103095D01*
X132212286Y-107245952D01*
X131640857Y-107817381D01*
X132259905Y-107817381D01*
X157100381Y-124603095D02*
X156100381Y-124603095D01*
X156100381Y-124222142D01*
X156148000Y-124126904D01*
X156195619Y-124079285D01*
X156290857Y-124031666D01*
X156433714Y-124031666D01*
X156528952Y-124079285D01*
X156576571Y-124126904D01*
X156624190Y-124222142D01*
X156624190Y-124603095D01*
X156528952Y-123460238D02*
X156481333Y-123555476D01*
X156433714Y-123603095D01*
X156338476Y-123650714D01*
X156290857Y-123650714D01*
X156195619Y-123603095D01*
X156148000Y-123555476D01*
X156100381Y-123460238D01*
X156100381Y-123269761D01*
X156148000Y-123174523D01*
X156195619Y-123126904D01*
X156290857Y-123079285D01*
X156338476Y-123079285D01*
X156433714Y-123126904D01*
X156481333Y-123174523D01*
X156528952Y-123269761D01*
X156528952Y-123460238D01*
X156576571Y-123555476D01*
X156624190Y-123603095D01*
X156719429Y-123650714D01*
X156909905Y-123650714D01*
X157005143Y-123603095D01*
X157052762Y-123555476D01*
X157100381Y-123460238D01*
X157100381Y-123269761D01*
X157052762Y-123174523D01*
X157005143Y-123126904D01*
X156909905Y-123079285D01*
X156719429Y-123079285D01*
X156624190Y-123126904D01*
X156576571Y-123174523D01*
X156528952Y-123269761D01*
X138309905Y-121367381D02*
X138309905Y-120367381D01*
X138690858Y-120367381D01*
X138786096Y-120415000D01*
X138833715Y-120462619D01*
X138881334Y-120557857D01*
X138881334Y-120700714D01*
X138833715Y-120795952D01*
X138786096Y-120843571D01*
X138690858Y-120891190D01*
X138309905Y-120891190D01*
X139214667Y-120367381D02*
X139881334Y-120367381D01*
X139452762Y-121367381D01*
X145309905Y-88417381D02*
X145309905Y-87417381D01*
X145690858Y-87417381D01*
X145786096Y-87465000D01*
X145833715Y-87512619D01*
X145881334Y-87607857D01*
X145881334Y-87750714D01*
X145833715Y-87845952D01*
X145786096Y-87893571D01*
X145690858Y-87941190D01*
X145309905Y-87941190D01*
X146262286Y-87512619D02*
X146309905Y-87465000D01*
X146405143Y-87417381D01*
X146643239Y-87417381D01*
X146738477Y-87465000D01*
X146786096Y-87512619D01*
X146833715Y-87607857D01*
X146833715Y-87703095D01*
X146786096Y-87845952D01*
X146214667Y-88417381D01*
X146833715Y-88417381D01*
X151959905Y-99067381D02*
X151959905Y-98067381D01*
X152340858Y-98067381D01*
X152436096Y-98115000D01*
X152483715Y-98162619D01*
X152531334Y-98257857D01*
X152531334Y-98400714D01*
X152483715Y-98495952D01*
X152436096Y-98543571D01*
X152340858Y-98591190D01*
X151959905Y-98591190D01*
X152864667Y-98067381D02*
X153483715Y-98067381D01*
X153150381Y-98448333D01*
X153293239Y-98448333D01*
X153388477Y-98495952D01*
X153436096Y-98543571D01*
X153483715Y-98638810D01*
X153483715Y-98876905D01*
X153436096Y-98972143D01*
X153388477Y-99019762D01*
X153293239Y-99067381D01*
X153007524Y-99067381D01*
X152912286Y-99019762D01*
X152864667Y-98972143D01*
X157859905Y-107967381D02*
X157859905Y-106967381D01*
X158240858Y-106967381D01*
X158336096Y-107015000D01*
X158383715Y-107062619D01*
X158431334Y-107157857D01*
X158431334Y-107300714D01*
X158383715Y-107395952D01*
X158336096Y-107443571D01*
X158240858Y-107491190D01*
X157859905Y-107491190D01*
X159288477Y-107300714D02*
X159288477Y-107967381D01*
X159050381Y-106919762D02*
X158812286Y-107634048D01*
X159431334Y-107634048D01*
X160436095Y-107867381D02*
X160436095Y-106867381D01*
X160769429Y-107581667D01*
X161102762Y-106867381D01*
X161102762Y-107867381D01*
X161769428Y-106867381D02*
X161959905Y-106867381D01*
X162055143Y-106915000D01*
X162150381Y-107010238D01*
X162198000Y-107200714D01*
X162198000Y-107534048D01*
X162150381Y-107724524D01*
X162055143Y-107819762D01*
X161959905Y-107867381D01*
X161769428Y-107867381D01*
X161674190Y-107819762D01*
X161578952Y-107724524D01*
X161531333Y-107534048D01*
X161531333Y-107200714D01*
X161578952Y-107010238D01*
X161674190Y-106915000D01*
X161769428Y-106867381D01*
X162483714Y-106867381D02*
X163055143Y-106867381D01*
X162769428Y-107867381D02*
X162769428Y-106867381D01*
X163578952Y-106867381D02*
X163769429Y-106867381D01*
X163864667Y-106915000D01*
X163959905Y-107010238D01*
X164007524Y-107200714D01*
X164007524Y-107534048D01*
X163959905Y-107724524D01*
X163864667Y-107819762D01*
X163769429Y-107867381D01*
X163578952Y-107867381D01*
X163483714Y-107819762D01*
X163388476Y-107724524D01*
X163340857Y-107534048D01*
X163340857Y-107200714D01*
X163388476Y-107010238D01*
X163483714Y-106915000D01*
X163578952Y-106867381D01*
X165007524Y-107867381D02*
X164674190Y-107391190D01*
X164436095Y-107867381D02*
X164436095Y-106867381D01*
X164817048Y-106867381D01*
X164912286Y-106915000D01*
X164959905Y-106962619D01*
X165007524Y-107057857D01*
X165007524Y-107200714D01*
X164959905Y-107295952D01*
X164912286Y-107343571D01*
X164817048Y-107391190D01*
X164436095Y-107391190D01*
X140450381Y-91953095D02*
X139450381Y-91953095D01*
X139450381Y-91572142D01*
X139498000Y-91476904D01*
X139545619Y-91429285D01*
X139640857Y-91381666D01*
X139783714Y-91381666D01*
X139878952Y-91429285D01*
X139926571Y-91476904D01*
X139974190Y-91572142D01*
X139974190Y-91953095D01*
X139450381Y-90476904D02*
X139450381Y-90953095D01*
X139926571Y-91000714D01*
X139878952Y-90953095D01*
X139831333Y-90857857D01*
X139831333Y-90619761D01*
X139878952Y-90524523D01*
X139926571Y-90476904D01*
X140021810Y-90429285D01*
X140259905Y-90429285D01*
X140355143Y-90476904D01*
X140402762Y-90524523D01*
X140450381Y-90619761D01*
X140450381Y-90857857D01*
X140402762Y-90953095D01*
X140355143Y-91000714D01*
X150309905Y-108117381D02*
X150309905Y-107117381D01*
X150690858Y-107117381D01*
X150786096Y-107165000D01*
X150833715Y-107212619D01*
X150881334Y-107307857D01*
X150881334Y-107450714D01*
X150833715Y-107545952D01*
X150786096Y-107593571D01*
X150690858Y-107641190D01*
X150309905Y-107641190D01*
X151738477Y-107117381D02*
X151548000Y-107117381D01*
X151452762Y-107165000D01*
X151405143Y-107212619D01*
X151309905Y-107355476D01*
X151262286Y-107545952D01*
X151262286Y-107926905D01*
X151309905Y-108022143D01*
X151357524Y-108069762D01*
X151452762Y-108117381D01*
X151643239Y-108117381D01*
X151738477Y-108069762D01*
X151786096Y-108022143D01*
X151833715Y-107926905D01*
X151833715Y-107688810D01*
X151786096Y-107593571D01*
X151738477Y-107545952D01*
X151643239Y-107498333D01*
X151452762Y-107498333D01*
X151357524Y-107545952D01*
X151309905Y-107593571D01*
X151262286Y-107688810D01*
X151459905Y-88817381D02*
X151459905Y-87817381D01*
X151840858Y-87817381D01*
X151936096Y-87865000D01*
X151983715Y-87912619D01*
X152031334Y-88007857D01*
X152031334Y-88150714D01*
X151983715Y-88245952D01*
X151936096Y-88293571D01*
X151840858Y-88341190D01*
X151459905Y-88341190D01*
X152507524Y-88817381D02*
X152698000Y-88817381D01*
X152793239Y-88769762D01*
X152840858Y-88722143D01*
X152936096Y-88579286D01*
X152983715Y-88388810D01*
X152983715Y-88007857D01*
X152936096Y-87912619D01*
X152888477Y-87865000D01*
X152793239Y-87817381D01*
X152602762Y-87817381D01*
X152507524Y-87865000D01*
X152459905Y-87912619D01*
X152412286Y-88007857D01*
X152412286Y-88245952D01*
X152459905Y-88341190D01*
X152507524Y-88388810D01*
X152602762Y-88436429D01*
X152793239Y-88436429D01*
X152888477Y-88388810D01*
X152936096Y-88341190D01*
X152983715Y-88245952D01*
X162883714Y-98867381D02*
X162883714Y-97867381D01*
X163264667Y-97867381D01*
X163359905Y-97915000D01*
X163407524Y-97962619D01*
X163455143Y-98057857D01*
X163455143Y-98200714D01*
X163407524Y-98295952D01*
X163359905Y-98343571D01*
X163264667Y-98391190D01*
X162883714Y-98391190D01*
X164407524Y-98867381D02*
X163836095Y-98867381D01*
X164121809Y-98867381D02*
X164121809Y-97867381D01*
X164026571Y-98010238D01*
X163931333Y-98105476D01*
X163836095Y-98153095D01*
X165026571Y-97867381D02*
X165121810Y-97867381D01*
X165217048Y-97915000D01*
X165264667Y-97962619D01*
X165312286Y-98057857D01*
X165359905Y-98248333D01*
X165359905Y-98486429D01*
X165312286Y-98676905D01*
X165264667Y-98772143D01*
X165217048Y-98819762D01*
X165121810Y-98867381D01*
X165026571Y-98867381D01*
X164931333Y-98819762D01*
X164883714Y-98772143D01*
X164836095Y-98676905D01*
X164788476Y-98486429D01*
X164788476Y-98248333D01*
X164836095Y-98057857D01*
X164883714Y-97962619D01*
X164931333Y-97915000D01*
X165026571Y-97867381D01*
X127083714Y-98367381D02*
X127083714Y-97367381D01*
X127464667Y-97367381D01*
X127559905Y-97415000D01*
X127607524Y-97462619D01*
X127655143Y-97557857D01*
X127655143Y-97700714D01*
X127607524Y-97795952D01*
X127559905Y-97843571D01*
X127464667Y-97891190D01*
X127083714Y-97891190D01*
X128607524Y-98367381D02*
X128036095Y-98367381D01*
X128321809Y-98367381D02*
X128321809Y-97367381D01*
X128226571Y-97510238D01*
X128131333Y-97605476D01*
X128036095Y-97653095D01*
X128940857Y-97367381D02*
X129559905Y-97367381D01*
X129226571Y-97748333D01*
X129369429Y-97748333D01*
X129464667Y-97795952D01*
X129512286Y-97843571D01*
X129559905Y-97938810D01*
X129559905Y-98176905D01*
X129512286Y-98272143D01*
X129464667Y-98319762D01*
X129369429Y-98367381D01*
X129083714Y-98367381D01*
X128988476Y-98319762D01*
X128940857Y-98272143D01*
X138783714Y-88667381D02*
X138783714Y-87667381D01*
X139164667Y-87667381D01*
X139259905Y-87715000D01*
X139307524Y-87762619D01*
X139355143Y-87857857D01*
X139355143Y-88000714D01*
X139307524Y-88095952D01*
X139259905Y-88143571D01*
X139164667Y-88191190D01*
X138783714Y-88191190D01*
X140307524Y-88667381D02*
X139736095Y-88667381D01*
X140021809Y-88667381D02*
X140021809Y-87667381D01*
X139926571Y-87810238D01*
X139831333Y-87905476D01*
X139736095Y-87953095D01*
X141164667Y-87667381D02*
X140974190Y-87667381D01*
X140878952Y-87715000D01*
X140831333Y-87762619D01*
X140736095Y-87905476D01*
X140688476Y-88095952D01*
X140688476Y-88476905D01*
X140736095Y-88572143D01*
X140783714Y-88619762D01*
X140878952Y-88667381D01*
X141069429Y-88667381D01*
X141164667Y-88619762D01*
X141212286Y-88572143D01*
X141259905Y-88476905D01*
X141259905Y-88238810D01*
X141212286Y-88143571D01*
X141164667Y-88095952D01*
X141069429Y-88048333D01*
X140878952Y-88048333D01*
X140783714Y-88095952D01*
X140736095Y-88143571D01*
X140688476Y-88238810D01*
X137283714Y-107967381D02*
X137283714Y-106967381D01*
X137664667Y-106967381D01*
X137759905Y-107015000D01*
X137807524Y-107062619D01*
X137855143Y-107157857D01*
X137855143Y-107300714D01*
X137807524Y-107395952D01*
X137759905Y-107443571D01*
X137664667Y-107491190D01*
X137283714Y-107491190D01*
X138807524Y-107967381D02*
X138236095Y-107967381D01*
X138521809Y-107967381D02*
X138521809Y-106967381D01*
X138426571Y-107110238D01*
X138331333Y-107205476D01*
X138236095Y-107253095D01*
X139140857Y-106967381D02*
X139807524Y-106967381D01*
X139378952Y-107967381D01*
X157450381Y-83531666D02*
X156974190Y-83865000D01*
X157450381Y-84103095D02*
X156450381Y-84103095D01*
X156450381Y-83722142D01*
X156498000Y-83626904D01*
X156545619Y-83579285D01*
X156640857Y-83531666D01*
X156783714Y-83531666D01*
X156878952Y-83579285D01*
X156926571Y-83626904D01*
X156974190Y-83722142D01*
X156974190Y-84103095D01*
X157450381Y-82579285D02*
X157450381Y-83150714D01*
X157450381Y-82865000D02*
X156450381Y-82865000D01*
X156593238Y-82960238D01*
X156688476Y-83055476D01*
X156736095Y-83150714D01*
X159650381Y-83531666D02*
X159174190Y-83865000D01*
X159650381Y-84103095D02*
X158650381Y-84103095D01*
X158650381Y-83722142D01*
X158698000Y-83626904D01*
X158745619Y-83579285D01*
X158840857Y-83531666D01*
X158983714Y-83531666D01*
X159078952Y-83579285D01*
X159126571Y-83626904D01*
X159174190Y-83722142D01*
X159174190Y-84103095D01*
X158745619Y-83150714D02*
X158698000Y-83103095D01*
X158650381Y-83007857D01*
X158650381Y-82769761D01*
X158698000Y-82674523D01*
X158745619Y-82626904D01*
X158840857Y-82579285D01*
X158936095Y-82579285D01*
X159078952Y-82626904D01*
X159650381Y-83198333D01*
X159650381Y-82579285D01*
M02*
