G04 #@! TF.FileFunction,Legend,Bot*
%FSLAX46Y46*%
G04 Gerber Fmt 4.6, Leading zero omitted, Abs format (unit mm)*
G04 Created by KiCad (PCBNEW (2015-11-24 BZR 6329)-product) date Sun 10 Apr 2016 02:36:14 PM EDT*
%MOMM*%
G01*
G04 APERTURE LIST*
%ADD10C,0.100000*%
%ADD11C,0.300000*%
G04 APERTURE END LIST*
D10*
D11*
X166319428Y-101843571D02*
X165962285Y-103343571D01*
X165676571Y-102272143D01*
X165390857Y-103343571D01*
X165033714Y-101843571D01*
X164462285Y-103343571D02*
X164462285Y-101843571D01*
X163819428Y-103343571D02*
X163819428Y-102557857D01*
X163890857Y-102415000D01*
X164033714Y-102343571D01*
X164247999Y-102343571D01*
X164390857Y-102415000D01*
X164462285Y-102486429D01*
X163105142Y-103343571D02*
X163105142Y-102343571D01*
X163105142Y-101843571D02*
X163176571Y-101915000D01*
X163105142Y-101986429D01*
X163033714Y-101915000D01*
X163105142Y-101843571D01*
X163105142Y-101986429D01*
X162605142Y-102343571D02*
X162033713Y-102343571D01*
X162390856Y-101843571D02*
X162390856Y-103129286D01*
X162319428Y-103272143D01*
X162176570Y-103343571D01*
X162033713Y-103343571D01*
X160962285Y-103272143D02*
X161105142Y-103343571D01*
X161390856Y-103343571D01*
X161533713Y-103272143D01*
X161605142Y-103129286D01*
X161605142Y-102557857D01*
X161533713Y-102415000D01*
X161390856Y-102343571D01*
X161105142Y-102343571D01*
X160962285Y-102415000D01*
X160890856Y-102557857D01*
X160890856Y-102700714D01*
X161605142Y-102843571D01*
X160462285Y-102343571D02*
X159890856Y-102343571D01*
X160247999Y-103343571D02*
X160247999Y-102057857D01*
X160176571Y-101915000D01*
X160033713Y-101843571D01*
X159890856Y-101843571D01*
X159176570Y-103343571D02*
X159319428Y-103272143D01*
X159390856Y-103200714D01*
X159462285Y-103057857D01*
X159462285Y-102629286D01*
X159390856Y-102486429D01*
X159319428Y-102415000D01*
X159176570Y-102343571D01*
X158962285Y-102343571D01*
X158819428Y-102415000D01*
X158747999Y-102486429D01*
X158676570Y-102629286D01*
X158676570Y-103057857D01*
X158747999Y-103200714D01*
X158819428Y-103272143D01*
X158962285Y-103343571D01*
X159176570Y-103343571D01*
X158033713Y-103343571D02*
X158033713Y-102343571D01*
X158033713Y-102629286D02*
X157962285Y-102486429D01*
X157890856Y-102415000D01*
X157747999Y-102343571D01*
X157605142Y-102343571D01*
X156462285Y-103343571D02*
X156462285Y-101843571D01*
X156462285Y-103272143D02*
X156605142Y-103343571D01*
X156890856Y-103343571D01*
X157033714Y-103272143D01*
X157105142Y-103200714D01*
X157176571Y-103057857D01*
X157176571Y-102629286D01*
X157105142Y-102486429D01*
X157033714Y-102415000D01*
X156890856Y-102343571D01*
X156605142Y-102343571D01*
X156462285Y-102415000D01*
X153747999Y-103343571D02*
X154247999Y-102629286D01*
X154605142Y-103343571D02*
X154605142Y-101843571D01*
X154033714Y-101843571D01*
X153890856Y-101915000D01*
X153819428Y-101986429D01*
X153747999Y-102129286D01*
X153747999Y-102343571D01*
X153819428Y-102486429D01*
X153890856Y-102557857D01*
X154033714Y-102629286D01*
X154605142Y-102629286D01*
X152533714Y-103272143D02*
X152676571Y-103343571D01*
X152962285Y-103343571D01*
X153105142Y-103272143D01*
X153176571Y-103129286D01*
X153176571Y-102557857D01*
X153105142Y-102415000D01*
X152962285Y-102343571D01*
X152676571Y-102343571D01*
X152533714Y-102415000D01*
X152462285Y-102557857D01*
X152462285Y-102700714D01*
X153176571Y-102843571D01*
X151890857Y-103272143D02*
X151748000Y-103343571D01*
X151462285Y-103343571D01*
X151319428Y-103272143D01*
X151248000Y-103129286D01*
X151248000Y-103057857D01*
X151319428Y-102915000D01*
X151462285Y-102843571D01*
X151676571Y-102843571D01*
X151819428Y-102772143D01*
X151890857Y-102629286D01*
X151890857Y-102557857D01*
X151819428Y-102415000D01*
X151676571Y-102343571D01*
X151462285Y-102343571D01*
X151319428Y-102415000D01*
X150033714Y-103272143D02*
X150176571Y-103343571D01*
X150462285Y-103343571D01*
X150605142Y-103272143D01*
X150676571Y-103129286D01*
X150676571Y-102557857D01*
X150605142Y-102415000D01*
X150462285Y-102343571D01*
X150176571Y-102343571D01*
X150033714Y-102415000D01*
X149962285Y-102557857D01*
X149962285Y-102700714D01*
X150676571Y-102843571D01*
X148676571Y-103343571D02*
X148676571Y-102557857D01*
X148748000Y-102415000D01*
X148890857Y-102343571D01*
X149176571Y-102343571D01*
X149319428Y-102415000D01*
X148676571Y-103272143D02*
X148819428Y-103343571D01*
X149176571Y-103343571D01*
X149319428Y-103272143D01*
X149390857Y-103129286D01*
X149390857Y-102986429D01*
X149319428Y-102843571D01*
X149176571Y-102772143D01*
X148819428Y-102772143D01*
X148676571Y-102700714D01*
X147962285Y-103343571D02*
X147962285Y-102343571D01*
X147962285Y-102629286D02*
X147890857Y-102486429D01*
X147819428Y-102415000D01*
X147676571Y-102343571D01*
X147533714Y-102343571D01*
X146390857Y-103272143D02*
X146533714Y-103343571D01*
X146819428Y-103343571D01*
X146962286Y-103272143D01*
X147033714Y-103200714D01*
X147105143Y-103057857D01*
X147105143Y-102629286D01*
X147033714Y-102486429D01*
X146962286Y-102415000D01*
X146819428Y-102343571D01*
X146533714Y-102343571D01*
X146390857Y-102415000D01*
X145748000Y-103343571D02*
X145748000Y-101843571D01*
X145105143Y-103343571D02*
X145105143Y-102557857D01*
X145176572Y-102415000D01*
X145319429Y-102343571D01*
X145533714Y-102343571D01*
X145676572Y-102415000D01*
X145748000Y-102486429D01*
X142533714Y-103343571D02*
X143248000Y-103343571D01*
X143248000Y-101843571D01*
X142033714Y-103343571D02*
X142033714Y-102343571D01*
X142033714Y-101843571D02*
X142105143Y-101915000D01*
X142033714Y-101986429D01*
X141962286Y-101915000D01*
X142033714Y-101843571D01*
X142033714Y-101986429D01*
X141319428Y-103343571D02*
X141319428Y-102343571D01*
X141319428Y-102486429D02*
X141248000Y-102415000D01*
X141105142Y-102343571D01*
X140890857Y-102343571D01*
X140748000Y-102415000D01*
X140676571Y-102557857D01*
X140676571Y-103343571D01*
X140676571Y-102557857D02*
X140605142Y-102415000D01*
X140462285Y-102343571D01*
X140248000Y-102343571D01*
X140105142Y-102415000D01*
X140033714Y-102557857D01*
X140033714Y-103343571D01*
X139319428Y-103343571D02*
X139319428Y-102343571D01*
X139319428Y-101843571D02*
X139390857Y-101915000D01*
X139319428Y-101986429D01*
X139248000Y-101915000D01*
X139319428Y-101843571D01*
X139319428Y-101986429D01*
X138819428Y-102343571D02*
X138247999Y-102343571D01*
X138605142Y-101843571D02*
X138605142Y-103129286D01*
X138533714Y-103272143D01*
X138390856Y-103343571D01*
X138247999Y-103343571D01*
X137176571Y-103272143D02*
X137319428Y-103343571D01*
X137605142Y-103343571D01*
X137747999Y-103272143D01*
X137819428Y-103129286D01*
X137819428Y-102557857D01*
X137747999Y-102415000D01*
X137605142Y-102343571D01*
X137319428Y-102343571D01*
X137176571Y-102415000D01*
X137105142Y-102557857D01*
X137105142Y-102700714D01*
X137819428Y-102843571D01*
X135819428Y-103343571D02*
X135819428Y-101843571D01*
X135819428Y-103272143D02*
X135962285Y-103343571D01*
X136247999Y-103343571D01*
X136390857Y-103272143D01*
X136462285Y-103200714D01*
X136533714Y-103057857D01*
X136533714Y-102629286D01*
X136462285Y-102486429D01*
X136390857Y-102415000D01*
X136247999Y-102343571D01*
X135962285Y-102343571D01*
X135819428Y-102415000D01*
X158676571Y-105743571D02*
X158676571Y-104243571D01*
X158176571Y-105315000D01*
X157676571Y-104243571D01*
X157676571Y-105743571D01*
X156747999Y-105743571D02*
X156890857Y-105672143D01*
X156962285Y-105600714D01*
X157033714Y-105457857D01*
X157033714Y-105029286D01*
X156962285Y-104886429D01*
X156890857Y-104815000D01*
X156747999Y-104743571D01*
X156533714Y-104743571D01*
X156390857Y-104815000D01*
X156319428Y-104886429D01*
X156247999Y-105029286D01*
X156247999Y-105457857D01*
X156319428Y-105600714D01*
X156390857Y-105672143D01*
X156533714Y-105743571D01*
X156747999Y-105743571D01*
X155819428Y-104743571D02*
X155247999Y-104743571D01*
X155605142Y-104243571D02*
X155605142Y-105529286D01*
X155533714Y-105672143D01*
X155390856Y-105743571D01*
X155247999Y-105743571D01*
X154533713Y-105743571D02*
X154676571Y-105672143D01*
X154747999Y-105600714D01*
X154819428Y-105457857D01*
X154819428Y-105029286D01*
X154747999Y-104886429D01*
X154676571Y-104815000D01*
X154533713Y-104743571D01*
X154319428Y-104743571D01*
X154176571Y-104815000D01*
X154105142Y-104886429D01*
X154033713Y-105029286D01*
X154033713Y-105457857D01*
X154105142Y-105600714D01*
X154176571Y-105672143D01*
X154319428Y-105743571D01*
X154533713Y-105743571D01*
X153390856Y-105743571D02*
X153390856Y-104743571D01*
X153390856Y-105029286D02*
X153319428Y-104886429D01*
X153247999Y-104815000D01*
X153105142Y-104743571D01*
X152962285Y-104743571D01*
X152462285Y-105743571D02*
X152462285Y-104243571D01*
X152462285Y-104815000D02*
X152319428Y-104743571D01*
X152033714Y-104743571D01*
X151890857Y-104815000D01*
X151819428Y-104886429D01*
X151747999Y-105029286D01*
X151747999Y-105457857D01*
X151819428Y-105600714D01*
X151890857Y-105672143D01*
X152033714Y-105743571D01*
X152319428Y-105743571D01*
X152462285Y-105672143D01*
X150890856Y-105743571D02*
X151033714Y-105672143D01*
X151105142Y-105600714D01*
X151176571Y-105457857D01*
X151176571Y-105029286D01*
X151105142Y-104886429D01*
X151033714Y-104815000D01*
X150890856Y-104743571D01*
X150676571Y-104743571D01*
X150533714Y-104815000D01*
X150462285Y-104886429D01*
X150390856Y-105029286D01*
X150390856Y-105457857D01*
X150462285Y-105600714D01*
X150533714Y-105672143D01*
X150676571Y-105743571D01*
X150890856Y-105743571D01*
X149105142Y-105743571D02*
X149105142Y-104957857D01*
X149176571Y-104815000D01*
X149319428Y-104743571D01*
X149605142Y-104743571D01*
X149747999Y-104815000D01*
X149105142Y-105672143D02*
X149247999Y-105743571D01*
X149605142Y-105743571D01*
X149747999Y-105672143D01*
X149819428Y-105529286D01*
X149819428Y-105386429D01*
X149747999Y-105243571D01*
X149605142Y-105172143D01*
X149247999Y-105172143D01*
X149105142Y-105100714D01*
X148390856Y-105743571D02*
X148390856Y-104743571D01*
X148390856Y-105029286D02*
X148319428Y-104886429D01*
X148247999Y-104815000D01*
X148105142Y-104743571D01*
X147962285Y-104743571D01*
X146819428Y-105743571D02*
X146819428Y-104243571D01*
X146819428Y-105672143D02*
X146962285Y-105743571D01*
X147247999Y-105743571D01*
X147390857Y-105672143D01*
X147462285Y-105600714D01*
X147533714Y-105457857D01*
X147533714Y-105029286D01*
X147462285Y-104886429D01*
X147390857Y-104815000D01*
X147247999Y-104743571D01*
X146962285Y-104743571D01*
X146819428Y-104815000D01*
X144962285Y-105743571D02*
X144962285Y-104743571D01*
X144962285Y-105029286D02*
X144890857Y-104886429D01*
X144819428Y-104815000D01*
X144676571Y-104743571D01*
X144533714Y-104743571D01*
X144105143Y-104386429D02*
X144033714Y-104315000D01*
X143890857Y-104243571D01*
X143533714Y-104243571D01*
X143390857Y-104315000D01*
X143319428Y-104386429D01*
X143248000Y-104529286D01*
X143248000Y-104672143D01*
X143319428Y-104886429D01*
X144176571Y-105743571D01*
X143248000Y-105743571D01*
M02*
