G04 #@! TF.FileFunction,Copper,L1,Top,Signal*
%FSLAX46Y46*%
G04 Gerber Fmt 4.6, Leading zero omitted, Abs format (unit mm)*
G04 Created by KiCad (PCBNEW (2015-11-24 BZR 6329)-product) date Sun 10 Apr 2016 02:36:13 PM EDT*
%MOMM*%
G01*
G04 APERTURE LIST*
%ADD10C,0.100000*%
%ADD11C,2.000000*%
%ADD12C,3.100000*%
%ADD13C,1.524000*%
%ADD14C,4.000000*%
%ADD15R,1.300000X1.500000*%
%ADD16R,1.727200X2.032000*%
%ADD17O,1.727200X2.032000*%
%ADD18R,2.032000X2.032000*%
%ADD19O,2.032000X2.032000*%
%ADD20C,0.600000*%
%ADD21C,0.300000*%
%ADD22C,1.000000*%
G04 APERTURE END LIST*
D10*
D11*
X134748000Y-85115000D03*
X134748000Y-80115000D03*
X141248000Y-85115000D03*
X141248000Y-80115000D03*
X145998000Y-85115000D03*
X145998000Y-80115000D03*
X152498000Y-85115000D03*
X152498000Y-80115000D03*
D12*
X183998000Y-91615000D03*
D13*
X179648000Y-90190000D03*
X179673000Y-93190000D03*
X179673000Y-96190000D03*
X179673000Y-99190000D03*
X179673000Y-102190000D03*
D12*
X183998000Y-100040000D03*
D14*
X177148000Y-108365000D03*
X185148000Y-108365000D03*
X180648000Y-113065000D03*
D15*
X168998000Y-78015000D03*
X168998000Y-80715000D03*
X166748000Y-78015000D03*
X166748000Y-80715000D03*
X164498000Y-78015000D03*
X164498000Y-80715000D03*
X162248000Y-78015000D03*
X162248000Y-80715000D03*
X174498000Y-119015000D03*
X174498000Y-121715000D03*
X171748000Y-119015000D03*
X171748000Y-121715000D03*
X169248000Y-119015000D03*
X169248000Y-121715000D03*
X166748000Y-119015000D03*
X166748000Y-121715000D03*
X164248000Y-119015000D03*
X164248000Y-121715000D03*
X161748000Y-119015000D03*
X161748000Y-121715000D03*
D16*
X156748000Y-75615000D03*
D17*
X159288000Y-75615000D03*
X161828000Y-75615000D03*
X164368000Y-75615000D03*
X166908000Y-75615000D03*
X169448000Y-75615000D03*
X171988000Y-75615000D03*
X174528000Y-75615000D03*
D16*
X129748000Y-75615000D03*
D17*
X132288000Y-75615000D03*
X134828000Y-75615000D03*
X137368000Y-75615000D03*
X139908000Y-75615000D03*
X142448000Y-75615000D03*
X144988000Y-75615000D03*
X147528000Y-75615000D03*
X150068000Y-75615000D03*
X152608000Y-75615000D03*
D18*
X128198000Y-110365000D03*
D19*
X130738000Y-110365000D03*
D16*
X161748000Y-123865000D03*
D17*
X164288000Y-123865000D03*
X166828000Y-123865000D03*
X169368000Y-123865000D03*
X171908000Y-123865000D03*
X174448000Y-123865000D03*
D16*
X138998000Y-123865000D03*
D17*
X141538000Y-123865000D03*
X144078000Y-123865000D03*
X146618000Y-123865000D03*
X149158000Y-123865000D03*
X151698000Y-123865000D03*
X154238000Y-123865000D03*
X156778000Y-123865000D03*
D18*
X151298000Y-91215000D03*
D19*
X153838000Y-91215000D03*
D18*
X153948000Y-95565000D03*
D19*
X151408000Y-95565000D03*
D16*
X158998000Y-110415000D03*
D17*
X161538000Y-110415000D03*
X164078000Y-110415000D03*
X166618000Y-110415000D03*
D18*
X145098000Y-91215000D03*
D19*
X147638000Y-91215000D03*
D18*
X153948000Y-110415000D03*
D19*
X151408000Y-110415000D03*
D18*
X157348000Y-91215000D03*
D19*
X159888000Y-91215000D03*
D18*
X166748000Y-95365000D03*
D19*
X164208000Y-95365000D03*
D16*
X133598000Y-95165000D03*
D17*
X131058000Y-95165000D03*
X128518000Y-95165000D03*
D18*
X138848000Y-91215000D03*
D19*
X141388000Y-91215000D03*
D18*
X141348000Y-110415000D03*
D19*
X138808000Y-110415000D03*
D15*
X156748000Y-78015000D03*
X156748000Y-80715000D03*
X159248000Y-78015000D03*
X159248000Y-80715000D03*
D20*
X134498000Y-88115000D03*
X133998000Y-106365000D03*
X136748000Y-115365000D03*
X171748000Y-116365000D03*
X166748000Y-116365000D03*
X164498000Y-82865000D03*
X168998000Y-82865000D03*
X135748000Y-114365000D03*
X158998000Y-82115000D03*
D21*
X132748000Y-86365000D02*
X134498000Y-88115000D01*
X132748000Y-78615000D02*
X132748000Y-86365000D01*
X133248000Y-78115000D02*
X132748000Y-78615000D01*
X136498000Y-78115000D02*
X133248000Y-78115000D01*
X137368000Y-77245000D02*
X136498000Y-78115000D01*
X137368000Y-75615000D02*
X137368000Y-77245000D01*
X133998000Y-106365000D02*
X133598000Y-105965000D01*
X133598000Y-105965000D02*
X133598000Y-95165000D01*
X151298000Y-95455000D02*
X151298000Y-91215000D01*
X151408000Y-95565000D02*
X151298000Y-95455000D01*
X145098000Y-104105000D02*
X145098000Y-91215000D01*
X151408000Y-110415000D02*
X145098000Y-104105000D01*
X161748000Y-123865000D02*
X161748000Y-121715000D01*
X164248000Y-123825000D02*
X164248000Y-121715000D01*
X164288000Y-123865000D02*
X164248000Y-123825000D01*
X166748000Y-123785000D02*
X166748000Y-121715000D01*
X166828000Y-123865000D02*
X166748000Y-123785000D01*
X169248000Y-123745000D02*
X169248000Y-121715000D01*
X169368000Y-123865000D02*
X169248000Y-123745000D01*
X171748000Y-123705000D02*
X171748000Y-121715000D01*
X171908000Y-123865000D02*
X171748000Y-123705000D01*
X174498000Y-123815000D02*
X174498000Y-121715000D01*
X174448000Y-123865000D02*
X174498000Y-123815000D01*
X162598000Y-91215000D02*
X159888000Y-91215000D01*
X166748000Y-95365000D02*
X162598000Y-91215000D01*
X147318000Y-78365000D02*
X142998000Y-78365000D01*
X142998000Y-78365000D02*
X141248000Y-80115000D01*
X150068000Y-75615000D02*
X147318000Y-78365000D01*
X141248000Y-80115000D02*
X134748000Y-80115000D01*
X152498000Y-80115000D02*
X145998000Y-80115000D01*
X152608000Y-80005000D02*
X152498000Y-80115000D01*
X152608000Y-75615000D02*
X152608000Y-80005000D01*
X161828000Y-77595000D02*
X161828000Y-75615000D01*
X162248000Y-78015000D02*
X161828000Y-77595000D01*
X164368000Y-77885000D02*
X164368000Y-75615000D01*
X164498000Y-78015000D02*
X164368000Y-77885000D01*
X166908000Y-77855000D02*
X166908000Y-75615000D01*
X166748000Y-78015000D02*
X166908000Y-77855000D01*
X169448000Y-77565000D02*
X169448000Y-75615000D01*
X168998000Y-78015000D02*
X169448000Y-77565000D01*
X153838000Y-95455000D02*
X153838000Y-91215000D01*
X153948000Y-95565000D02*
X153838000Y-95455000D01*
X147638000Y-104105000D02*
X147638000Y-91215000D01*
X153948000Y-110415000D02*
X147638000Y-104105000D01*
X163208000Y-94365000D02*
X160498000Y-94365000D01*
X160498000Y-94365000D02*
X157348000Y-91215000D01*
X164208000Y-95365000D02*
X163208000Y-94365000D01*
D22*
X177148000Y-108365000D02*
X177148000Y-109615000D01*
X177148000Y-109615000D02*
X173598000Y-113165000D01*
X173598000Y-113165000D02*
X129598000Y-113165000D01*
X129598000Y-113165000D02*
X128198000Y-111765000D01*
X128198000Y-111765000D02*
X128198000Y-110365000D01*
D21*
X154098000Y-88865000D02*
X131998000Y-88865000D01*
X131998000Y-88865000D02*
X131058000Y-89805000D01*
X131058000Y-89805000D02*
X131058000Y-95165000D01*
X158598000Y-84365000D02*
X154098000Y-88865000D01*
X162248000Y-80715000D02*
X158598000Y-84365000D01*
X166748000Y-83115000D02*
X165498000Y-84365000D01*
X165498000Y-84365000D02*
X158598000Y-84365000D01*
X166748000Y-80715000D02*
X166748000Y-83115000D01*
X139148000Y-119015000D02*
X136748000Y-115365000D01*
X161748000Y-119015000D02*
X139148000Y-119015000D01*
X171748000Y-119015000D02*
X171748000Y-116365000D01*
X166748000Y-119015000D02*
X166748000Y-116365000D01*
X156748000Y-84365000D02*
X158598000Y-84365000D01*
X156748000Y-80715000D02*
X156748000Y-84365000D01*
X164498000Y-80715000D02*
X164498000Y-82865000D01*
X168998000Y-80715000D02*
X168998000Y-82865000D01*
X164248000Y-117115000D02*
X161498000Y-114365000D01*
X164248000Y-119015000D02*
X164248000Y-117115000D01*
X174498000Y-115365000D02*
X173498000Y-114365000D01*
X167998000Y-114365000D02*
X161498000Y-114365000D01*
X173498000Y-114365000D02*
X167998000Y-114365000D01*
X174498000Y-119015000D02*
X174498000Y-115365000D01*
X169248000Y-115615000D02*
X167998000Y-114365000D01*
X169248000Y-119015000D02*
X169248000Y-115615000D01*
X135748000Y-114365000D02*
X161498000Y-114365000D01*
X158998000Y-80965000D02*
X158998000Y-82115000D01*
X159248000Y-80715000D02*
X158998000Y-80965000D01*
X138848000Y-110375000D02*
X138848000Y-91215000D01*
X138808000Y-110415000D02*
X138848000Y-110375000D01*
X141388000Y-110375000D02*
X141388000Y-91215000D01*
X141348000Y-110415000D02*
X141388000Y-110375000D01*
D22*
X179648000Y-90190000D02*
X177773000Y-90190000D01*
X158998000Y-105365000D02*
X158998000Y-110415000D01*
X163198000Y-101165000D02*
X158998000Y-105365000D01*
X166798000Y-101165000D02*
X163198000Y-101165000D01*
X177773000Y-90190000D02*
X166798000Y-101165000D01*
X179673000Y-93190000D02*
X178423000Y-93190000D01*
X161538000Y-105825000D02*
X161538000Y-110415000D01*
X163998000Y-103365000D02*
X161538000Y-105825000D01*
X168248000Y-103365000D02*
X163998000Y-103365000D01*
X178423000Y-93190000D02*
X168248000Y-103365000D01*
X179673000Y-96190000D02*
X178773000Y-96190000D01*
X164078000Y-106885000D02*
X164078000Y-110415000D01*
X165598000Y-105365000D02*
X164078000Y-106885000D01*
X169598000Y-105365000D02*
X165598000Y-105365000D01*
X178773000Y-96190000D02*
X169598000Y-105365000D01*
X179673000Y-99190000D02*
X179173000Y-99190000D01*
X179173000Y-99190000D02*
X170998000Y-107365000D01*
X170998000Y-107365000D02*
X167598000Y-107365000D01*
X167598000Y-107365000D02*
X166618000Y-108345000D01*
X166618000Y-108345000D02*
X166618000Y-110415000D01*
D21*
X156748000Y-78015000D02*
X156748000Y-75615000D01*
X159288000Y-77975000D02*
X159288000Y-75615000D01*
X159248000Y-78015000D02*
X159288000Y-77975000D01*
M02*
