G04 #@! TF.FileFunction,Soldermask,Bot*
%FSLAX46Y46*%
G04 Gerber Fmt 4.6, Leading zero omitted, Abs format (unit mm)*
G04 Created by KiCad (PCBNEW (2015-11-24 BZR 6329)-product) date Sun 10 Apr 2016 02:36:14 PM EDT*
%MOMM*%
G01*
G04 APERTURE LIST*
%ADD10C,0.100000*%
%ADD11C,2.000000*%
%ADD12C,3.100000*%
%ADD13C,1.524000*%
%ADD14C,4.000000*%
%ADD15R,1.727200X2.032000*%
%ADD16O,1.727200X2.032000*%
%ADD17R,2.032000X2.032000*%
%ADD18O,2.032000X2.032000*%
G04 APERTURE END LIST*
D10*
D11*
X134748000Y-85115000D03*
X134748000Y-80115000D03*
X141248000Y-85115000D03*
X141248000Y-80115000D03*
X145998000Y-85115000D03*
X145998000Y-80115000D03*
X152498000Y-85115000D03*
X152498000Y-80115000D03*
D12*
X183998000Y-91615000D03*
D13*
X179648000Y-90190000D03*
X179673000Y-93190000D03*
X179673000Y-96190000D03*
X179673000Y-99190000D03*
X179673000Y-102190000D03*
D12*
X183998000Y-100040000D03*
D14*
X177148000Y-108365000D03*
X185148000Y-108365000D03*
X180648000Y-113065000D03*
D15*
X156748000Y-75615000D03*
D16*
X159288000Y-75615000D03*
X161828000Y-75615000D03*
X164368000Y-75615000D03*
X166908000Y-75615000D03*
X169448000Y-75615000D03*
X171988000Y-75615000D03*
X174528000Y-75615000D03*
D15*
X129748000Y-75615000D03*
D16*
X132288000Y-75615000D03*
X134828000Y-75615000D03*
X137368000Y-75615000D03*
X139908000Y-75615000D03*
X142448000Y-75615000D03*
X144988000Y-75615000D03*
X147528000Y-75615000D03*
X150068000Y-75615000D03*
X152608000Y-75615000D03*
D17*
X128198000Y-110365000D03*
D18*
X130738000Y-110365000D03*
D15*
X161748000Y-123865000D03*
D16*
X164288000Y-123865000D03*
X166828000Y-123865000D03*
X169368000Y-123865000D03*
X171908000Y-123865000D03*
X174448000Y-123865000D03*
D15*
X138998000Y-123865000D03*
D16*
X141538000Y-123865000D03*
X144078000Y-123865000D03*
X146618000Y-123865000D03*
X149158000Y-123865000D03*
X151698000Y-123865000D03*
X154238000Y-123865000D03*
X156778000Y-123865000D03*
D17*
X151298000Y-91215000D03*
D18*
X153838000Y-91215000D03*
D17*
X153948000Y-95565000D03*
D18*
X151408000Y-95565000D03*
D15*
X158998000Y-110415000D03*
D16*
X161538000Y-110415000D03*
X164078000Y-110415000D03*
X166618000Y-110415000D03*
D17*
X145098000Y-91215000D03*
D18*
X147638000Y-91215000D03*
D17*
X153948000Y-110415000D03*
D18*
X151408000Y-110415000D03*
D17*
X157348000Y-91215000D03*
D18*
X159888000Y-91215000D03*
D17*
X166748000Y-95365000D03*
D18*
X164208000Y-95365000D03*
D15*
X133598000Y-95165000D03*
D16*
X131058000Y-95165000D03*
X128518000Y-95165000D03*
D17*
X138848000Y-91215000D03*
D18*
X141388000Y-91215000D03*
D17*
X141348000Y-110415000D03*
D18*
X138808000Y-110415000D03*
M02*
