G04 #@! TF.GenerationSoftware,KiCad,Pcbnew,(2017-12-02 revision 3109343)-master*
G04 #@! TF.CreationDate,2018-01-03T05:08:22-05:00*
G04 #@! TF.ProjectId,multislope,6D756C7469736C6F70652E6B69636164,rev?*
G04 #@! TF.SameCoordinates,Original*
G04 #@! TF.FileFunction,Copper,L1,Top,Signal*
G04 #@! TF.FilePolarity,Positive*
%FSLAX46Y46*%
G04 Gerber Fmt 4.6, Leading zero omitted, Abs format (unit mm)*
G04 Created by KiCad (PCBNEW (2017-12-02 revision 3109343)-master) date Wed Jan  3 05:08:22 2018*
%MOMM*%
%LPD*%
G01*
G04 APERTURE LIST*
%ADD10R,0.450000X1.450000*%
%ADD11O,1.600000X1.600000*%
%ADD12C,1.600000*%
%ADD13R,1.600000X2.000000*%
%ADD14R,2.000000X1.600000*%
%ADD15O,1.727200X1.727200*%
%ADD16R,1.727200X1.727200*%
%ADD17C,8.000000*%
%ADD18C,1.727200*%
%ADD19R,1.450000X0.450000*%
%ADD20R,1.600000X1.600000*%
%ADD21C,0.800000*%
%ADD22C,0.250000*%
G04 APERTURE END LIST*
D10*
X177314500Y-116817500D03*
X176664500Y-116817500D03*
X176014500Y-116817500D03*
X175364500Y-116817500D03*
X175364500Y-112417500D03*
X176014500Y-112417500D03*
X176664500Y-112417500D03*
X177314500Y-112417500D03*
D11*
X180086000Y-125222000D03*
D12*
X180086000Y-115062000D03*
D13*
X173291500Y-119919500D03*
X173291500Y-115919500D03*
X173291500Y-109315500D03*
X173291500Y-113315500D03*
X184721500Y-113315500D03*
X184721500Y-109315500D03*
X184721500Y-115919500D03*
X184721500Y-119919500D03*
D12*
X191516000Y-115062000D03*
D11*
X191516000Y-125222000D03*
D10*
X188744500Y-112417500D03*
X188094500Y-112417500D03*
X187444500Y-112417500D03*
X186794500Y-112417500D03*
X186794500Y-116817500D03*
X187444500Y-116817500D03*
X188094500Y-116817500D03*
X188744500Y-116817500D03*
X165884500Y-116817500D03*
X165234500Y-116817500D03*
X164584500Y-116817500D03*
X163934500Y-116817500D03*
X163934500Y-112417500D03*
X164584500Y-112417500D03*
X165234500Y-112417500D03*
X165884500Y-112417500D03*
D11*
X168656000Y-125222000D03*
D12*
X168656000Y-115062000D03*
D13*
X161861500Y-119919500D03*
X161861500Y-115919500D03*
X161861500Y-109315500D03*
X161861500Y-113315500D03*
X150431500Y-113315500D03*
X150431500Y-109315500D03*
X150431500Y-115919500D03*
X150431500Y-119919500D03*
D14*
X206280000Y-106172000D03*
X210280000Y-106172000D03*
X212884000Y-106172000D03*
X216884000Y-106172000D03*
X204184000Y-84836000D03*
X200184000Y-84836000D03*
X200120000Y-82804000D03*
X196120000Y-82804000D03*
D15*
X138430000Y-127000000D03*
X135890000Y-127000000D03*
X138430000Y-124460000D03*
X135890000Y-124460000D03*
X138430000Y-121920000D03*
X135890000Y-121920000D03*
X138430000Y-119380000D03*
X135890000Y-119380000D03*
X138430000Y-116840000D03*
X135890000Y-116840000D03*
X138430000Y-114300000D03*
X135890000Y-114300000D03*
X138430000Y-111760000D03*
X135890000Y-111760000D03*
X138430000Y-109220000D03*
X135890000Y-109220000D03*
X138430000Y-106680000D03*
X135890000Y-106680000D03*
X138430000Y-104140000D03*
X135890000Y-104140000D03*
X138430000Y-101600000D03*
X135890000Y-101600000D03*
X138430000Y-99060000D03*
X135890000Y-99060000D03*
X138430000Y-96520000D03*
X135890000Y-96520000D03*
X138430000Y-93980000D03*
X135890000Y-93980000D03*
X138430000Y-91440000D03*
X135890000Y-91440000D03*
X138430000Y-88900000D03*
X135890000Y-88900000D03*
X138430000Y-86360000D03*
X135890000Y-86360000D03*
X138430000Y-83820000D03*
X135890000Y-83820000D03*
X138430000Y-81280000D03*
X135890000Y-81280000D03*
X138430000Y-78740000D03*
D16*
X135890000Y-78740000D03*
D17*
X224536000Y-102108000D03*
X224536000Y-89408000D03*
D12*
X157226000Y-115062000D03*
D11*
X157226000Y-125222000D03*
X213868000Y-89154000D03*
D12*
X203708000Y-89154000D03*
D18*
X196977000Y-117348000D03*
X196977000Y-119888000D03*
X196977000Y-122428000D03*
X196977000Y-124968000D03*
X196977000Y-127508000D03*
X218567000Y-119888000D03*
X218567000Y-122428000D03*
X218567000Y-117348000D03*
X218567000Y-124968000D03*
X218567000Y-127508000D03*
D10*
X154454500Y-112417500D03*
X153804500Y-112417500D03*
X153154500Y-112417500D03*
X152504500Y-112417500D03*
X152504500Y-116817500D03*
X153154500Y-116817500D03*
X153804500Y-116817500D03*
X154454500Y-116817500D03*
D19*
X217084000Y-101895000D03*
X217084000Y-102545000D03*
X217084000Y-103195000D03*
X217084000Y-103845000D03*
X212684000Y-103845000D03*
X212684000Y-103195000D03*
X212684000Y-102545000D03*
X212684000Y-101895000D03*
D11*
X208788000Y-91948000D03*
X216408000Y-99568000D03*
X211328000Y-91948000D03*
X213868000Y-99568000D03*
X213868000Y-91948000D03*
X211328000Y-99568000D03*
X216408000Y-91948000D03*
D20*
X208788000Y-99568000D03*
D19*
X201209000Y-88986000D03*
X201209000Y-88336000D03*
X201209000Y-87686000D03*
X201209000Y-87036000D03*
X196809000Y-87036000D03*
X196809000Y-87686000D03*
X196809000Y-88336000D03*
X196809000Y-88986000D03*
D14*
X182912000Y-89662000D03*
X186912000Y-89662000D03*
X207804000Y-128778000D03*
X211804000Y-128778000D03*
X216122000Y-131064000D03*
X212122000Y-131064000D03*
X204946000Y-128778000D03*
X200946000Y-128778000D03*
X167862000Y-96774000D03*
X163862000Y-96774000D03*
X171164000Y-81788000D03*
X167164000Y-81788000D03*
X185388000Y-103124000D03*
X181388000Y-103124000D03*
D13*
X191516000Y-95282000D03*
X191516000Y-99282000D03*
X144780000Y-89186000D03*
X144780000Y-93186000D03*
D14*
X154908000Y-85344000D03*
X150908000Y-85344000D03*
X183102000Y-83566000D03*
X179102000Y-83566000D03*
X189960000Y-83566000D03*
X185960000Y-83566000D03*
D13*
X219202000Y-97758000D03*
X219202000Y-93758000D03*
X205994000Y-97250000D03*
X205994000Y-93250000D03*
D12*
X157988000Y-83058000D03*
D11*
X157988000Y-93218000D03*
X201676000Y-115316000D03*
D12*
X211836000Y-115316000D03*
X215138000Y-125476000D03*
D11*
X215138000Y-115316000D03*
X155956000Y-99060000D03*
D12*
X145796000Y-99060000D03*
X178308000Y-90678000D03*
D11*
X178308000Y-100838000D03*
X175006000Y-90678000D03*
D12*
X175006000Y-100838000D03*
D20*
X204216000Y-126238000D03*
D11*
X211836000Y-118618000D03*
X206756000Y-126238000D03*
X209296000Y-118618000D03*
X209296000Y-126238000D03*
X206756000Y-118618000D03*
X211836000Y-126238000D03*
X204216000Y-118618000D03*
X171450000Y-86360000D03*
X163830000Y-93980000D03*
X171450000Y-88900000D03*
X163830000Y-91440000D03*
X171450000Y-91440000D03*
X163830000Y-88900000D03*
X171450000Y-93980000D03*
D20*
X163830000Y-86360000D03*
D11*
X188976000Y-92710000D03*
X181356000Y-100330000D03*
X188976000Y-95250000D03*
X181356000Y-97790000D03*
X188976000Y-97790000D03*
X181356000Y-95250000D03*
X188976000Y-100330000D03*
D20*
X181356000Y-92710000D03*
X154940000Y-95758000D03*
D11*
X147320000Y-88138000D03*
X154940000Y-93218000D03*
X147320000Y-90678000D03*
X154940000Y-90678000D03*
X147320000Y-93218000D03*
X154940000Y-88138000D03*
X147320000Y-95758000D03*
D19*
X187112000Y-85639000D03*
X187112000Y-86289000D03*
X187112000Y-86939000D03*
X187112000Y-87589000D03*
X182712000Y-87589000D03*
X182712000Y-86939000D03*
X182712000Y-86289000D03*
X182712000Y-85639000D03*
D21*
X181102000Y-85598000D03*
X185674000Y-89662000D03*
X183388000Y-90678000D03*
X205994000Y-108458000D03*
X198882000Y-93218000D03*
X194564000Y-93218000D03*
X181102000Y-87630000D03*
X172720000Y-81788000D03*
X150368000Y-107950000D03*
X161798000Y-107950000D03*
X173228000Y-107950000D03*
X184658000Y-107950000D03*
X156718000Y-107188000D03*
X180340000Y-103632000D03*
X145796000Y-120650000D03*
X144526000Y-119888000D03*
X163830000Y-98298000D03*
X152908000Y-106680000D03*
X141732000Y-128778000D03*
X146812000Y-134366000D03*
X142494000Y-128016000D03*
X148082000Y-134366000D03*
X212344000Y-134874000D03*
X212344000Y-132334000D03*
X219202000Y-99314000D03*
X217678000Y-110998000D03*
X191262000Y-107950000D03*
X191516000Y-90424000D03*
X189738000Y-90424000D03*
X185166000Y-87884000D03*
X195580000Y-100584000D03*
X195580000Y-96520000D03*
X143764000Y-120904000D03*
X143764000Y-106172000D03*
X140462000Y-121666000D03*
X154432000Y-123190000D03*
X165862000Y-123190000D03*
X177292000Y-123190000D03*
X188722000Y-123190000D03*
X137160000Y-110490000D03*
X133350000Y-110490000D03*
X134874000Y-115570000D03*
X133350000Y-116586000D03*
X197104000Y-135382000D03*
X197104000Y-132842000D03*
X200914000Y-136144000D03*
X200914000Y-130048000D03*
X213106000Y-122428000D03*
X164592000Y-103886000D03*
X145542000Y-110744000D03*
X164592000Y-102108000D03*
X153924000Y-105918000D03*
X151130000Y-105918000D03*
X147066000Y-112776000D03*
X147066000Y-107442000D03*
X184404000Y-103124000D03*
X188468000Y-103378000D03*
X144780000Y-112014000D03*
X185928000Y-82296000D03*
X199644000Y-87630000D03*
X167132000Y-90932000D03*
X167132000Y-89154000D03*
X167132000Y-82804000D03*
X140462000Y-111760000D03*
X218440000Y-93980000D03*
X207010000Y-97282000D03*
X211582000Y-107442000D03*
X175514000Y-110490000D03*
X173037500Y-114554000D03*
X177292000Y-118491000D03*
X188722000Y-118491000D03*
X184467500Y-114554000D03*
X186944000Y-110490000D03*
X164084000Y-110490000D03*
X161607500Y-114554000D03*
X165862000Y-118491000D03*
X154432000Y-118491000D03*
X150177500Y-114554000D03*
X152654000Y-110490000D03*
X168656000Y-128778000D03*
X196596000Y-107188000D03*
X141224000Y-91440000D03*
X141224000Y-98044000D03*
X142240000Y-95504000D03*
X142240000Y-97790000D03*
X140208000Y-88900000D03*
X140208000Y-98298000D03*
X140462000Y-77978000D03*
X195326000Y-87376000D03*
X187452000Y-78740000D03*
X216408000Y-108712000D03*
X205486000Y-112268000D03*
X196850000Y-112268000D03*
X185928000Y-120904000D03*
X196088000Y-86106000D03*
X215392000Y-103632000D03*
X173228000Y-123952000D03*
X161798000Y-123952000D03*
X150368000Y-123952000D03*
X184658000Y-123952000D03*
D22*
X154432000Y-109982000D02*
X153924000Y-110490000D01*
X153804500Y-110609500D02*
X153924000Y-110490000D01*
X153804500Y-110609500D02*
X153804500Y-112417500D01*
X160020000Y-105156000D02*
X155194000Y-109982000D01*
X155194000Y-109982000D02*
X154432000Y-109982000D01*
X187452000Y-104394000D02*
X187960000Y-104394000D01*
X186690000Y-105156000D02*
X187452000Y-104394000D01*
X160020000Y-105156000D02*
X186690000Y-105156000D01*
X186912000Y-89662000D02*
X185674000Y-89662000D01*
X181143000Y-85639000D02*
X182712000Y-85639000D01*
X181102000Y-85598000D02*
X181143000Y-85639000D01*
X188087000Y-104648000D02*
X187960000Y-104648000D01*
X187960000Y-104648000D02*
X187960000Y-104902000D01*
X188087000Y-107569000D02*
X188087000Y-104648000D01*
X188087000Y-104648000D02*
X188087000Y-104521000D01*
X188087000Y-104521000D02*
X187960000Y-104394000D01*
X188087000Y-112410000D02*
X188087000Y-108712000D01*
X188087000Y-107569000D02*
X188087000Y-108712000D01*
X187960000Y-104394000D02*
X187198000Y-103632000D01*
X187198000Y-103632000D02*
X187198000Y-94298000D01*
X187198000Y-94298000D02*
X186912000Y-94012000D01*
X165227000Y-107696000D02*
X167259000Y-105664000D01*
X167259000Y-105664000D02*
X186436000Y-105664000D01*
X186436000Y-105664000D02*
X186690000Y-105664000D01*
X186690000Y-105664000D02*
X187960000Y-104394000D01*
X176657000Y-107696000D02*
X178181000Y-106172000D01*
X186690000Y-106172000D02*
X187960000Y-104902000D01*
X178181000Y-106172000D02*
X186690000Y-106172000D01*
X187960000Y-104902000D02*
X187960000Y-104394000D01*
X197866000Y-96266000D02*
X189738000Y-104394000D01*
X197866000Y-90678000D02*
X197866000Y-96266000D01*
X200152000Y-88392000D02*
X197866000Y-90678000D01*
X200152000Y-88392000D02*
X201153000Y-88392000D01*
X189738000Y-104394000D02*
X187960000Y-104394000D01*
X201209000Y-88336000D02*
X201153000Y-88392000D01*
X186912000Y-89662000D02*
X186912000Y-94012000D01*
X185674000Y-95250000D02*
X181356000Y-95250000D01*
X186912000Y-94012000D02*
X185674000Y-95250000D01*
X163830000Y-88900000D02*
X170180000Y-95250000D01*
X170180000Y-95250000D02*
X181356000Y-95250000D01*
X176664500Y-112417500D02*
X176657000Y-112410000D01*
X176657000Y-108712000D02*
X176657000Y-112410000D01*
X176657000Y-107569000D02*
X176657000Y-107696000D01*
X176657000Y-107696000D02*
X176657000Y-108712000D01*
X188094500Y-112417500D02*
X188087000Y-112410000D01*
X165234500Y-112417500D02*
X165227000Y-112410000D01*
X165227000Y-108712000D02*
X165227000Y-112410000D01*
X165227000Y-107569000D02*
X165227000Y-107696000D01*
X165227000Y-107696000D02*
X165227000Y-108712000D01*
X153804500Y-112417500D02*
X153797000Y-112410000D01*
X182912000Y-89662000D02*
X180594000Y-89662000D01*
X161544000Y-84074000D02*
X175006000Y-84074000D01*
X175006000Y-84074000D02*
X180594000Y-89662000D01*
X161544000Y-84074000D02*
X154940000Y-90678000D01*
X187112000Y-85639000D02*
X186141000Y-85639000D01*
X186141000Y-85639000D02*
X182912000Y-88868000D01*
X182912000Y-88868000D02*
X182912000Y-89662000D01*
X183388000Y-90678000D02*
X182912000Y-90202000D01*
X182912000Y-90202000D02*
X182912000Y-89662000D01*
X206280000Y-106172000D02*
X206280000Y-108172000D01*
X206280000Y-108172000D02*
X205994000Y-108458000D01*
X207804000Y-128778000D02*
X209296000Y-128778000D01*
X209296000Y-128778000D02*
X210566000Y-127508000D01*
X210566000Y-127508000D02*
X210566000Y-120650000D01*
X210566000Y-120650000D02*
X210312000Y-120396000D01*
X210312000Y-120396000D02*
X205994000Y-120396000D01*
X205994000Y-120396000D02*
X204216000Y-118618000D01*
X204946000Y-128778000D02*
X207804000Y-128778000D01*
X198914000Y-93250000D02*
X198882000Y-93218000D01*
X205994000Y-93250000D02*
X198914000Y-93250000D01*
X192500000Y-95282000D02*
X191516000Y-95282000D01*
X194564000Y-93218000D02*
X192500000Y-95282000D01*
X181143000Y-87589000D02*
X182712000Y-87589000D01*
X181102000Y-87630000D02*
X181143000Y-87589000D01*
X179102000Y-83566000D02*
X177324000Y-81788000D01*
X177324000Y-81788000D02*
X172720000Y-81788000D01*
X205994000Y-93250000D02*
X205994000Y-86646000D01*
X205994000Y-86646000D02*
X204184000Y-84836000D01*
X138430000Y-127000000D02*
X135890000Y-127000000D01*
X171164000Y-81788000D02*
X172720000Y-81788000D01*
X191516000Y-95282000D02*
X189008000Y-95282000D01*
X189008000Y-95282000D02*
X188976000Y-95250000D01*
X179102000Y-83566000D02*
X179102000Y-85376000D01*
X181315000Y-87589000D02*
X182712000Y-87589000D01*
X179102000Y-85376000D02*
X181315000Y-87589000D01*
X201209000Y-87036000D02*
X201984000Y-87036000D01*
X201984000Y-87036000D02*
X204184000Y-84836000D01*
X210058000Y-93980000D02*
X206724000Y-93980000D01*
X206724000Y-93980000D02*
X205994000Y-93250000D01*
X212684000Y-103845000D02*
X211541000Y-103845000D01*
X210058000Y-93218000D02*
X211328000Y-91948000D01*
X210058000Y-102362000D02*
X210058000Y-93980000D01*
X210058000Y-93980000D02*
X210058000Y-93218000D01*
X211541000Y-103845000D02*
X210058000Y-102362000D01*
X206280000Y-106172000D02*
X207804000Y-104648000D01*
X211881000Y-104648000D02*
X212684000Y-103845000D01*
X207804000Y-104648000D02*
X211881000Y-104648000D01*
X154908000Y-85344000D02*
X154908000Y-88106000D01*
X154908000Y-88106000D02*
X154940000Y-88138000D01*
X150431500Y-108013500D02*
X150368000Y-107950000D01*
X150431500Y-108013500D02*
X150431500Y-109315500D01*
X161861500Y-108013500D02*
X161798000Y-107950000D01*
X161861500Y-108013500D02*
X161861500Y-109315500D01*
X173291500Y-108013500D02*
X173228000Y-107950000D01*
X173291500Y-109315500D02*
X173291500Y-108013500D01*
X184721500Y-108013500D02*
X184658000Y-107950000D01*
X184721500Y-108013500D02*
X184721500Y-109315500D01*
X173291500Y-110344500D02*
X175364500Y-112417500D01*
X173291500Y-109315500D02*
X173291500Y-110344500D01*
X184721500Y-109315500D02*
X184721500Y-110344500D01*
X184721500Y-110344500D02*
X186794500Y-112417500D01*
X161861500Y-110344500D02*
X163934500Y-112417500D01*
X161861500Y-109315500D02*
X161861500Y-110344500D01*
X150431500Y-109315500D02*
X150431500Y-110344500D01*
X150431500Y-110344500D02*
X152504500Y-112417500D01*
X151892000Y-107442000D02*
X151384000Y-107442000D01*
X156718000Y-107188000D02*
X156464000Y-107442000D01*
X156464000Y-107442000D02*
X151892000Y-107442000D01*
X180848000Y-103124000D02*
X180340000Y-103632000D01*
X145288000Y-120142000D02*
X145796000Y-120650000D01*
X145288000Y-116332000D02*
X145288000Y-120142000D01*
X146812000Y-114808000D02*
X145288000Y-116332000D01*
X147828000Y-114808000D02*
X146812000Y-114808000D01*
X148336000Y-114300000D02*
X147828000Y-114808000D01*
X148336000Y-107696000D02*
X148336000Y-114300000D01*
X148844000Y-107188000D02*
X148336000Y-107696000D01*
X151130000Y-107188000D02*
X148844000Y-107188000D01*
X151384000Y-107442000D02*
X151130000Y-107188000D01*
X150114000Y-106680000D02*
X148590000Y-106680000D01*
X147574000Y-114300000D02*
X147828000Y-114046000D01*
X146558000Y-114300000D02*
X144526000Y-116332000D01*
X144526000Y-116332000D02*
X144526000Y-119888000D01*
X146558000Y-114300000D02*
X147574000Y-114300000D01*
X148590000Y-106680000D02*
X147828000Y-107442000D01*
X147828000Y-107442000D02*
X147828000Y-114046000D01*
X163862000Y-98266000D02*
X163830000Y-98298000D01*
X163862000Y-96774000D02*
X163862000Y-98266000D01*
X150114000Y-106680000D02*
X152908000Y-106680000D01*
X208534000Y-134620000D02*
X149098000Y-134620000D01*
X214630000Y-134112000D02*
X217424000Y-134112000D01*
X210820000Y-134620000D02*
X208534000Y-134620000D01*
X212090000Y-135890000D02*
X210820000Y-134620000D01*
X212852000Y-135890000D02*
X212090000Y-135890000D01*
X214376000Y-134366000D02*
X212852000Y-135890000D01*
X218694000Y-124968000D02*
X219964000Y-126238000D01*
X219964000Y-126238000D02*
X219964000Y-131572000D01*
X219964000Y-131572000D02*
X217424000Y-134112000D01*
X214376000Y-134366000D02*
X214630000Y-134112000D01*
X139954000Y-122174000D02*
X140462000Y-121666000D01*
X139954000Y-127000000D02*
X139954000Y-122174000D01*
X141732000Y-128778000D02*
X139954000Y-127000000D01*
X147828000Y-135382000D02*
X146812000Y-134366000D01*
X148336000Y-135382000D02*
X147828000Y-135382000D01*
X149098000Y-134620000D02*
X148336000Y-135382000D01*
X208534000Y-134112000D02*
X172974000Y-134112000D01*
X211582000Y-134112000D02*
X208534000Y-134112000D01*
X212344000Y-134874000D02*
X211582000Y-134112000D01*
X139954000Y-125476000D02*
X139954000Y-121920000D01*
X142494000Y-128016000D02*
X139954000Y-125476000D01*
X148336000Y-134112000D02*
X148082000Y-134366000D01*
X172974000Y-134112000D02*
X148336000Y-134112000D01*
X212122000Y-131064000D02*
X212122000Y-132112000D01*
X212344000Y-134874000D02*
X212090000Y-134620000D01*
X212122000Y-132112000D02*
X212344000Y-132334000D01*
X218567000Y-124968000D02*
X218694000Y-124968000D01*
X211836000Y-126238000D02*
X211836000Y-128746000D01*
X211836000Y-128746000D02*
X211804000Y-128778000D01*
X212122000Y-131064000D02*
X212122000Y-129096000D01*
X212122000Y-129096000D02*
X211804000Y-128778000D01*
X194056000Y-132842000D02*
X193802000Y-133096000D01*
X193802000Y-133096000D02*
X148590000Y-133096000D01*
X148590000Y-133096000D02*
X139700000Y-124206000D01*
X139700000Y-124206000D02*
X139700000Y-122428000D01*
X139700000Y-122428000D02*
X140462000Y-121666000D01*
X195072000Y-131826000D02*
X194056000Y-132842000D01*
X197612000Y-110744000D02*
X196596000Y-110744000D01*
X217678000Y-110998000D02*
X217424000Y-110744000D01*
X217424000Y-110744000D02*
X197612000Y-110744000D01*
X219202000Y-97758000D02*
X219202000Y-99314000D01*
X195072000Y-112268000D02*
X195072000Y-131826000D01*
X196596000Y-110744000D02*
X195072000Y-112268000D01*
X193802000Y-132334000D02*
X193548000Y-132588000D01*
X193548000Y-132588000D02*
X148844000Y-132588000D01*
X148844000Y-132588000D02*
X139954000Y-123698000D01*
X139954000Y-123698000D02*
X139954000Y-121920000D01*
X194564000Y-131572000D02*
X193802000Y-132334000D01*
X196342000Y-110236000D02*
X194564000Y-112014000D01*
X194564000Y-112014000D02*
X194564000Y-131572000D01*
X217084000Y-102545000D02*
X218369000Y-102545000D01*
X217678000Y-110236000D02*
X197612000Y-110236000D01*
X219202000Y-108712000D02*
X217678000Y-110236000D01*
X219202000Y-103378000D02*
X219202000Y-108712000D01*
X218369000Y-102545000D02*
X219202000Y-103378000D01*
X197612000Y-110236000D02*
X196342000Y-110236000D01*
X139954000Y-121920000D02*
X140208000Y-121920000D01*
X140208000Y-121920000D02*
X140462000Y-121666000D01*
X149860000Y-131572000D02*
X149352000Y-131572000D01*
X191262000Y-107950000D02*
X193548000Y-110236000D01*
X193548000Y-110236000D02*
X193548000Y-131064000D01*
X193548000Y-131064000D02*
X193040000Y-131572000D01*
X193040000Y-131572000D02*
X149860000Y-131572000D01*
X187112000Y-86289000D02*
X186253000Y-86289000D01*
X189738000Y-90424000D02*
X191516000Y-90424000D01*
X185166000Y-87376000D02*
X185166000Y-87884000D01*
X186253000Y-86289000D02*
X185166000Y-87376000D01*
X149352000Y-131572000D02*
X146050000Y-128270000D01*
X193548000Y-131826000D02*
X193294000Y-132080000D01*
X193294000Y-132080000D02*
X149098000Y-132080000D01*
X149098000Y-132080000D02*
X140208000Y-123190000D01*
X140208000Y-123190000D02*
X140208000Y-121920000D01*
X195580000Y-103632000D02*
X195580000Y-100584000D01*
X194056000Y-131064000D02*
X194056000Y-131318000D01*
X196753000Y-88392000D02*
X195580000Y-88392000D01*
X195580000Y-88392000D02*
X195580000Y-96520000D01*
X195580000Y-103632000D02*
X195580000Y-109728000D01*
X194056000Y-111760000D02*
X194056000Y-131064000D01*
X195580000Y-110236000D02*
X194056000Y-111760000D01*
X195580000Y-109728000D02*
X195580000Y-110236000D01*
X194056000Y-131318000D02*
X193548000Y-131826000D01*
X140208000Y-121920000D02*
X140462000Y-121666000D01*
X140462000Y-121666000D02*
X140462000Y-122682000D01*
X140462000Y-122682000D02*
X146050000Y-128270000D01*
X146050000Y-128270000D02*
X146304000Y-128524000D01*
X143764000Y-106172000D02*
X143764000Y-120904000D01*
X181388000Y-103124000D02*
X180848000Y-103124000D01*
X196809000Y-88336000D02*
X196753000Y-88392000D01*
X140462000Y-121666000D02*
X138684000Y-121666000D01*
X138684000Y-121666000D02*
X138430000Y-121920000D01*
X153797000Y-117983000D02*
X153670000Y-118110000D01*
X153797000Y-116825000D02*
X153797000Y-117983000D01*
X153670000Y-118110000D02*
X153670000Y-118872000D01*
X153670000Y-122428000D02*
X154432000Y-123190000D01*
X153670000Y-118872000D02*
X153670000Y-122428000D01*
X165100000Y-122428000D02*
X165862000Y-123190000D01*
X165100000Y-118110000D02*
X165100000Y-118872000D01*
X165227000Y-117983000D02*
X165100000Y-118110000D01*
X165227000Y-116825000D02*
X165227000Y-117983000D01*
X165100000Y-118872000D02*
X165100000Y-122428000D01*
X176530000Y-122428000D02*
X177292000Y-123190000D01*
X176530000Y-118872000D02*
X176530000Y-122428000D01*
X176530000Y-118110000D02*
X176530000Y-118872000D01*
X176657000Y-116825000D02*
X176657000Y-117983000D01*
X176657000Y-117983000D02*
X176530000Y-118110000D01*
X187960000Y-118872000D02*
X187960000Y-122428000D01*
X188087000Y-117983000D02*
X188087000Y-116825000D01*
X188087000Y-117983000D02*
X187960000Y-118110000D01*
X187960000Y-118110000D02*
X187960000Y-118872000D01*
X187960000Y-122428000D02*
X188722000Y-123190000D01*
X138430000Y-121920000D02*
X135890000Y-121920000D01*
X181356000Y-100330000D02*
X181356000Y-103092000D01*
X181356000Y-103092000D02*
X181388000Y-103124000D01*
X163862000Y-96774000D02*
X163862000Y-94012000D01*
X163862000Y-94012000D02*
X163830000Y-93980000D01*
X219202000Y-97758000D02*
X218218000Y-97758000D01*
X218218000Y-97758000D02*
X216408000Y-99568000D01*
X216083000Y-102545000D02*
X217084000Y-102545000D01*
X147320000Y-93218000D02*
X144812000Y-93218000D01*
X144812000Y-93218000D02*
X144780000Y-93186000D01*
X176664500Y-116817500D02*
X176657000Y-116825000D01*
X188094500Y-116817500D02*
X188087000Y-116825000D01*
X165234500Y-116817500D02*
X165227000Y-116825000D01*
X153804500Y-116817500D02*
X153797000Y-116825000D01*
X200914000Y-136144000D02*
X149606000Y-136144000D01*
X139192000Y-110490000D02*
X140462000Y-111760000D01*
X137160000Y-110490000D02*
X139192000Y-110490000D01*
X132588000Y-111252000D02*
X133350000Y-110490000D01*
X132588000Y-116840000D02*
X132588000Y-111252000D01*
X132842000Y-117094000D02*
X132588000Y-116840000D01*
X132842000Y-128778000D02*
X132842000Y-117094000D01*
X140462000Y-136398000D02*
X132842000Y-128778000D01*
X149352000Y-136398000D02*
X140462000Y-136398000D01*
X149606000Y-136144000D02*
X149352000Y-136398000D01*
X140462000Y-111760000D02*
X140462000Y-115062000D01*
X196792002Y-135070002D02*
X149917998Y-135070002D01*
X197104000Y-135382000D02*
X196792002Y-135070002D01*
X140462000Y-115062000D02*
X139954000Y-115570000D01*
X139954000Y-115570000D02*
X134874000Y-115570000D01*
X133350000Y-116586000D02*
X133350000Y-128524000D01*
X133350000Y-128524000D02*
X140716000Y-135890000D01*
X140716000Y-135890000D02*
X149098000Y-135890000D01*
X149098000Y-135890000D02*
X149917998Y-135070002D01*
X216662000Y-129286000D02*
X216662000Y-130524000D01*
X216662000Y-130524000D02*
X216122000Y-131064000D01*
X196977000Y-127508000D02*
X196977000Y-132715000D01*
X197104000Y-135382000D02*
X196977000Y-135255000D01*
X196977000Y-132715000D02*
X197104000Y-132842000D01*
X200946000Y-128778000D02*
X200946000Y-130016000D01*
X200914000Y-136144000D02*
X200946000Y-136112000D01*
X200946000Y-130016000D02*
X200914000Y-130048000D01*
X213106000Y-122428000D02*
X213106000Y-125730000D01*
X139192000Y-113030000D02*
X140462000Y-111760000D01*
X216662000Y-129286000D02*
X217424000Y-129286000D01*
X217424000Y-129286000D02*
X218440000Y-130302000D01*
X218440000Y-130302000D02*
X218440000Y-132334000D01*
X218440000Y-132334000D02*
X217170000Y-133604000D01*
X217170000Y-133604000D02*
X139192000Y-133604000D01*
X139192000Y-133604000D02*
X134112000Y-128524000D01*
X134112000Y-128524000D02*
X134112000Y-113538000D01*
X134112000Y-113538000D02*
X134620000Y-113030000D01*
X134620000Y-113030000D02*
X139192000Y-113030000D01*
X213106000Y-125730000D02*
X216662000Y-129286000D01*
X218567000Y-122428000D02*
X213106000Y-122428000D01*
X213106000Y-122428000D02*
X209296000Y-118618000D01*
X207010000Y-97282000D02*
X206026000Y-97282000D01*
X206026000Y-97282000D02*
X205994000Y-97250000D01*
X147066000Y-105410000D02*
X146050000Y-106426000D01*
X145796000Y-110490000D02*
X145542000Y-110744000D01*
X145796000Y-106680000D02*
X145796000Y-110490000D01*
X146050000Y-106426000D02*
X145796000Y-106680000D01*
X145542000Y-110744000D02*
X146050000Y-110744000D01*
X150114000Y-105918000D02*
X147320000Y-105918000D01*
X152146000Y-103886000D02*
X150114000Y-105918000D01*
X164592000Y-103886000D02*
X152146000Y-103886000D01*
X146050000Y-110744000D02*
X146304000Y-110490000D01*
X146304000Y-110490000D02*
X146304000Y-106934000D01*
X146304000Y-106934000D02*
X147320000Y-105918000D01*
X152400000Y-102870000D02*
X152146000Y-102870000D01*
X164592000Y-102108000D02*
X163830000Y-102870000D01*
X163830000Y-102870000D02*
X152400000Y-102870000D01*
X149606000Y-105410000D02*
X147066000Y-105410000D01*
X152146000Y-102870000D02*
X149606000Y-105410000D01*
X150908000Y-102870000D02*
X150876000Y-102870000D01*
X150876000Y-102870000D02*
X148844000Y-104902000D01*
X153924000Y-105918000D02*
X151130000Y-105918000D01*
X147066000Y-112522000D02*
X147066000Y-112776000D01*
X147066000Y-107442000D02*
X147066000Y-112522000D01*
X191516000Y-99282000D02*
X191516000Y-100330000D01*
X184404000Y-103124000D02*
X185388000Y-103124000D01*
X191516000Y-100330000D02*
X188468000Y-103378000D01*
X145542000Y-104902000D02*
X144780000Y-105664000D01*
X144780000Y-105664000D02*
X144780000Y-112014000D01*
X148844000Y-104902000D02*
X145542000Y-104902000D01*
X150908000Y-85344000D02*
X150908000Y-102870000D01*
X185960000Y-83566000D02*
X185960000Y-82328000D01*
X185960000Y-82328000D02*
X185928000Y-82296000D01*
X199771000Y-87503000D02*
X199644000Y-87630000D01*
X200025000Y-87630000D02*
X199771000Y-87503000D01*
X167164000Y-81788000D02*
X167164000Y-82772000D01*
X167132000Y-89154000D02*
X167132000Y-90932000D01*
X167164000Y-82772000D02*
X167132000Y-82804000D01*
X135890000Y-106680000D02*
X135890000Y-104140000D01*
X135890000Y-106680000D02*
X135382000Y-106680000D01*
X135382000Y-106680000D02*
X134366000Y-107696000D01*
X134366000Y-107696000D02*
X134366000Y-111252000D01*
X134366000Y-111252000D02*
X134874000Y-111760000D01*
X134874000Y-111760000D02*
X135890000Y-111760000D01*
X138430000Y-111760000D02*
X135890000Y-111760000D01*
X140462000Y-111760000D02*
X138430000Y-111760000D01*
X200120000Y-82804000D02*
X200184000Y-82868000D01*
X200184000Y-82868000D02*
X200184000Y-84836000D01*
X163830000Y-91440000D02*
X167862000Y-95472000D01*
X167862000Y-95472000D02*
X167862000Y-96774000D01*
X185960000Y-83566000D02*
X185960000Y-85058000D01*
X184079000Y-86939000D02*
X182712000Y-86939000D01*
X185960000Y-85058000D02*
X184079000Y-86939000D01*
X185960000Y-83566000D02*
X183102000Y-83566000D01*
X205994000Y-97250000D02*
X206978000Y-97250000D01*
X218440000Y-93980000D02*
X218662000Y-93758000D01*
X206978000Y-97250000D02*
X207010000Y-97282000D01*
X218662000Y-93758000D02*
X219202000Y-93758000D01*
X211582000Y-106172000D02*
X211582000Y-107442000D01*
X200025000Y-87686000D02*
X200025000Y-87630000D01*
X200025000Y-87630000D02*
X200025000Y-84995000D01*
X200025000Y-84995000D02*
X200184000Y-84836000D01*
X201209000Y-87686000D02*
X200025000Y-87686000D01*
X200025000Y-87686000D02*
X200096000Y-87686000D01*
X198796000Y-88986000D02*
X196809000Y-88986000D01*
X200096000Y-87686000D02*
X198796000Y-88986000D01*
X225806000Y-89408000D02*
X223552000Y-89408000D01*
X223552000Y-89408000D02*
X219202000Y-93758000D01*
X212684000Y-103195000D02*
X212684000Y-102545000D01*
X212684000Y-103195000D02*
X212755000Y-103124000D01*
X212755000Y-103124000D02*
X213868000Y-103124000D01*
X213868000Y-103124000D02*
X213868000Y-105188000D01*
X213868000Y-105188000D02*
X212884000Y-106172000D01*
X212884000Y-106172000D02*
X211582000Y-106172000D01*
X211582000Y-106172000D02*
X210280000Y-106172000D01*
X150908000Y-85344000D02*
X147066000Y-85344000D01*
X144780000Y-87630000D02*
X144780000Y-89186000D01*
X147066000Y-85344000D02*
X144780000Y-87630000D01*
X157988000Y-83058000D02*
X153194000Y-83058000D01*
X153194000Y-83058000D02*
X150908000Y-85344000D01*
X173291500Y-114681000D02*
X173291500Y-115919500D01*
X173291500Y-113315500D02*
X173291500Y-114681000D01*
X177314500Y-116817500D02*
X177292000Y-116840000D01*
X175514000Y-110490000D02*
X176014500Y-110990500D01*
X176014500Y-110990500D02*
X176014500Y-112417500D01*
X173164500Y-114681000D02*
X173291500Y-114681000D01*
X173037500Y-114554000D02*
X173164500Y-114681000D01*
X177292000Y-118491000D02*
X177292000Y-116840000D01*
X188722000Y-118491000D02*
X188722000Y-116840000D01*
X184467500Y-114554000D02*
X184594500Y-114681000D01*
X184594500Y-114681000D02*
X184721500Y-114681000D01*
X187444500Y-110990500D02*
X187444500Y-112417500D01*
X186944000Y-110490000D02*
X187444500Y-110990500D01*
X188744500Y-116817500D02*
X188722000Y-116840000D01*
X184721500Y-113315500D02*
X184721500Y-114681000D01*
X184721500Y-114681000D02*
X184721500Y-115919500D01*
X161861500Y-114681000D02*
X161861500Y-115919500D01*
X161861500Y-113315500D02*
X161861500Y-114681000D01*
X165884500Y-116817500D02*
X165862000Y-116840000D01*
X164084000Y-110490000D02*
X164584500Y-110990500D01*
X164584500Y-110990500D02*
X164584500Y-112417500D01*
X161734500Y-114681000D02*
X161861500Y-114681000D01*
X161607500Y-114554000D02*
X161734500Y-114681000D01*
X165862000Y-118491000D02*
X165862000Y-116840000D01*
X154432000Y-118491000D02*
X154432000Y-116840000D01*
X150177500Y-114554000D02*
X150304500Y-114681000D01*
X150304500Y-114681000D02*
X150431500Y-114681000D01*
X153154500Y-110990500D02*
X153154500Y-112417500D01*
X152654000Y-110490000D02*
X153154500Y-110990500D01*
X154454500Y-116817500D02*
X154432000Y-116840000D01*
X150431500Y-113315500D02*
X150431500Y-114681000D01*
X150431500Y-114681000D02*
X150431500Y-115919500D01*
X225806000Y-102108000D02*
X217170000Y-101981000D01*
X217170000Y-101981000D02*
X217084000Y-101895000D01*
X145796000Y-99060000D02*
X147574000Y-99060000D01*
X149098000Y-92456000D02*
X147320000Y-90678000D01*
X149098000Y-97536000D02*
X149098000Y-92456000D01*
X147574000Y-99060000D02*
X149098000Y-97536000D01*
X155956000Y-99060000D02*
X155194000Y-99060000D01*
X155194000Y-99060000D02*
X153416000Y-97282000D01*
X153416000Y-97282000D02*
X153416000Y-94742000D01*
X153416000Y-94742000D02*
X154940000Y-93218000D01*
X157988000Y-93218000D02*
X154940000Y-93218000D01*
X168656000Y-128778000D02*
X168656000Y-130810000D01*
X168656000Y-130810000D02*
X168910000Y-131064000D01*
X168910000Y-131064000D02*
X189484000Y-131064000D01*
X191516000Y-129032000D02*
X191516000Y-125222000D01*
X189484000Y-131064000D02*
X191516000Y-129032000D01*
X211836000Y-115316000D02*
X211836000Y-118618000D01*
X215138000Y-115316000D02*
X211836000Y-115316000D01*
X209296000Y-126238000D02*
X205486000Y-122428000D01*
X201930000Y-122428000D02*
X201676000Y-122174000D01*
X205486000Y-122428000D02*
X201930000Y-122428000D01*
X201676000Y-115316000D02*
X201676000Y-122174000D01*
X198882000Y-124968000D02*
X196977000Y-124968000D01*
X201676000Y-122174000D02*
X198882000Y-124968000D01*
X218186000Y-108712000D02*
X217424000Y-109474000D01*
X217084000Y-103195000D02*
X218003000Y-103195000D01*
X218694000Y-108204000D02*
X218186000Y-108712000D01*
X218694000Y-103886000D02*
X218694000Y-108204000D01*
X218003000Y-103195000D02*
X218694000Y-103886000D01*
X198882000Y-109474000D02*
X198120000Y-108712000D01*
X217424000Y-109474000D02*
X198882000Y-109474000D01*
X198120000Y-108712000D02*
X197866000Y-108712000D01*
X198120000Y-108712000D02*
X196596000Y-107188000D01*
X146812000Y-125984000D02*
X146558000Y-125984000D01*
X153219998Y-125672002D02*
X152908000Y-125984000D01*
X152908000Y-125984000D02*
X146812000Y-125984000D01*
X153219998Y-122682000D02*
X153219998Y-125672002D01*
X142240000Y-96520000D02*
X138430000Y-96520000D01*
X143002000Y-97282000D02*
X142240000Y-96520000D01*
X143002000Y-122428000D02*
X143002000Y-97282000D01*
X146558000Y-125984000D02*
X143002000Y-122428000D01*
X146558000Y-127000000D02*
X146301204Y-127000000D01*
X175514000Y-127000000D02*
X146558000Y-127000000D01*
X176079998Y-116882998D02*
X176079998Y-122682000D01*
X176079998Y-122682000D02*
X176079998Y-126434002D01*
X176079998Y-126434002D02*
X175514000Y-127000000D01*
X141224000Y-91440000D02*
X138430000Y-91440000D01*
X141789998Y-98609998D02*
X141224000Y-98044000D01*
X141789998Y-122488794D02*
X141789998Y-98609998D01*
X146301204Y-127000000D02*
X141789998Y-122488794D01*
X176014500Y-116817500D02*
X176079998Y-116882998D01*
X146812000Y-126434002D02*
X146371604Y-126434002D01*
X140716000Y-93980000D02*
X138430000Y-93980000D01*
X142240000Y-95504000D02*
X140716000Y-93980000D01*
X142240000Y-122302398D02*
X142240000Y-97790000D01*
X146371604Y-126434002D02*
X142240000Y-122302398D01*
X160782000Y-126434002D02*
X164395998Y-126434002D01*
X164649998Y-126180002D02*
X164649998Y-122428000D01*
X164395998Y-126434002D02*
X164649998Y-126180002D01*
X164649998Y-116882998D02*
X164649998Y-122428000D01*
X164649998Y-122428000D02*
X164649998Y-122682000D01*
X160897996Y-126434002D02*
X160782000Y-126434002D01*
X160782000Y-126434002D02*
X146812000Y-126434002D01*
X146812000Y-126434002D02*
X146812000Y-126434002D01*
X146812000Y-127508000D02*
X146172806Y-127508000D01*
X186944000Y-127508000D02*
X187509998Y-126942002D01*
X187509998Y-126942002D02*
X187509998Y-126688002D01*
X186690000Y-127508000D02*
X146812000Y-127508000D01*
X187509998Y-122682000D02*
X187509998Y-126688002D01*
X187509998Y-116882998D02*
X187509998Y-122682000D01*
X186690000Y-127508000D02*
X186944000Y-127508000D01*
X140208000Y-88900000D02*
X138430000Y-88900000D01*
X141224000Y-99314000D02*
X140208000Y-98298000D01*
X141224000Y-122559194D02*
X141224000Y-99314000D01*
X146172806Y-127508000D02*
X141224000Y-122559194D01*
X187444500Y-116817500D02*
X187509998Y-116882998D01*
X164584500Y-116817500D02*
X164649998Y-116882998D01*
X153154500Y-116817500D02*
X153219998Y-116882998D01*
X153219998Y-116882998D02*
X153219998Y-122682000D01*
X153219998Y-122682000D02*
X153219998Y-122682000D01*
X196809000Y-87686000D02*
X195636000Y-87686000D01*
X140462000Y-81788000D02*
X138430000Y-83820000D01*
X140462000Y-77978000D02*
X140462000Y-81788000D01*
X195636000Y-87686000D02*
X195326000Y-87376000D01*
X187452000Y-81280000D02*
X187452000Y-83820000D01*
X187452000Y-78740000D02*
X187452000Y-81280000D01*
X188143000Y-86939000D02*
X187112000Y-86939000D01*
X188468000Y-86614000D02*
X188143000Y-86939000D01*
X188468000Y-84836000D02*
X188468000Y-86614000D01*
X187452000Y-83820000D02*
X188468000Y-84836000D01*
X181356000Y-97790000D02*
X178308000Y-100838000D01*
X178308000Y-100838000D02*
X175006000Y-100838000D01*
X171450000Y-91440000D02*
X172466000Y-92456000D01*
X176530000Y-92456000D02*
X178308000Y-90678000D01*
X172466000Y-92456000D02*
X176530000Y-92456000D01*
X216884000Y-108236000D02*
X216408000Y-108712000D01*
X205486000Y-112268000D02*
X199644000Y-112268000D01*
X199644000Y-112268000D02*
X196850000Y-112268000D01*
X216884000Y-106172000D02*
X216884000Y-108236000D01*
X185928000Y-120904000D02*
X184943500Y-119919500D01*
X184943500Y-119919500D02*
X184721500Y-119919500D01*
X217084000Y-103845000D02*
X215605000Y-103845000D01*
X215605000Y-103845000D02*
X215392000Y-103632000D01*
X196088000Y-86106000D02*
X196120000Y-86106000D01*
X196120000Y-86106000D02*
X196088000Y-86106000D01*
X196088000Y-86106000D02*
X196120000Y-86106000D01*
X196809000Y-87036000D02*
X195879000Y-86106000D01*
X195879000Y-86106000D02*
X189960000Y-86106000D01*
X138430000Y-116840000D02*
X135890000Y-116840000D01*
X196809000Y-87036000D02*
X196120000Y-86347000D01*
X196120000Y-86347000D02*
X196120000Y-86106000D01*
X196120000Y-86106000D02*
X196120000Y-82804000D01*
X189960000Y-83566000D02*
X189960000Y-86106000D01*
X189960000Y-86106000D02*
X189960000Y-86138000D01*
X189960000Y-86138000D02*
X188509000Y-87589000D01*
X188509000Y-87589000D02*
X187112000Y-87589000D01*
X217084000Y-103845000D02*
X217084000Y-105972000D01*
X217084000Y-105972000D02*
X216884000Y-106172000D01*
X173291500Y-123888500D02*
X173228000Y-123952000D01*
X173291500Y-123888500D02*
X173291500Y-119919500D01*
X161861500Y-123888500D02*
X161798000Y-123952000D01*
X161861500Y-119919500D02*
X161861500Y-123888500D01*
X150431500Y-123888500D02*
X150368000Y-123952000D01*
X150431500Y-123888500D02*
X150431500Y-119919500D01*
X184721500Y-119919500D02*
X184721500Y-123888500D01*
X184721500Y-123888500D02*
X184658000Y-123952000D01*
X173291500Y-118890500D02*
X175364500Y-116817500D01*
X173291500Y-119919500D02*
X173291500Y-118890500D01*
X175364500Y-116817500D02*
X175387000Y-116840000D01*
X186794500Y-116817500D02*
X186817000Y-116840000D01*
X184721500Y-119919500D02*
X184721500Y-118890500D01*
X184721500Y-118890500D02*
X186794500Y-116817500D01*
X161861500Y-118890500D02*
X163934500Y-116817500D01*
X161861500Y-119919500D02*
X161861500Y-118890500D01*
X163934500Y-116817500D02*
X163957000Y-116840000D01*
X152504500Y-116817500D02*
X152527000Y-116840000D01*
X150431500Y-119919500D02*
X150431500Y-118890500D01*
X150431500Y-118890500D02*
X152504500Y-116817500D01*
X177292000Y-112395000D02*
X177314500Y-112417500D01*
X177314500Y-112417500D02*
X177396500Y-112417500D01*
X177419000Y-112522000D02*
X177314500Y-112417500D01*
X180086000Y-115062000D02*
X177419000Y-112522000D01*
X191516000Y-115062000D02*
X188849000Y-112522000D01*
X188849000Y-112522000D02*
X188744500Y-112417500D01*
X188744500Y-112417500D02*
X188826500Y-112417500D01*
X188722000Y-112395000D02*
X188744500Y-112417500D01*
X165862000Y-112395000D02*
X165884500Y-112417500D01*
X165884500Y-112417500D02*
X165966500Y-112417500D01*
X165989000Y-112522000D02*
X165884500Y-112417500D01*
X168656000Y-115062000D02*
X165989000Y-112522000D01*
X157226000Y-115062000D02*
X154559000Y-112522000D01*
X154559000Y-112522000D02*
X154454500Y-112417500D01*
X154454500Y-112417500D02*
X154536500Y-112417500D01*
X154432000Y-112395000D02*
X154454500Y-112417500D01*
X203708000Y-89154000D02*
X201377000Y-89154000D01*
X201377000Y-89154000D02*
X201209000Y-88986000D01*
X213868000Y-91948000D02*
X213868000Y-89154000D01*
X213868000Y-91948000D02*
X213868000Y-99568000D01*
X212684000Y-101895000D02*
X211328000Y-100539000D01*
X211328000Y-100539000D02*
X211328000Y-99568000D01*
M02*
