M48
;DRILL file {KiCad (2017-12-02 revision 3109343)-master} date Wed Jan  3 05:08:24 2018
;FORMAT={-:-/ absolute / inch / decimal}
FMAT,2
INCH,TZ
T1C0.016
T2C0.031
T3C0.040
T4C0.161
%
G90
G05
M72
T1
X5.25Y-4.35
X5.25Y-4.59
X5.31Y-4.55
X5.4Y-4.35
X5.52Y-3.5
X5.52Y-3.87
X5.53Y-3.07
X5.53Y-4.4
X5.53Y-4.79
X5.56Y-3.6
X5.56Y-3.86
X5.58Y-5.07
X5.6Y-3.76
X5.6Y-3.85
X5.61Y-5.04
X5.66Y-4.18
X5.66Y-4.76
X5.69Y-4.72
X5.7Y-4.41
X5.73Y-4.36
X5.74Y-4.75
X5.78Y-5.29
X5.79Y-4.23
X5.79Y-4.44
X5.83Y-5.29
X5.9125Y-4.51
X5.92Y-4.25
X5.92Y-4.88
X5.95Y-4.17
X6.01Y-4.35
X6.02Y-4.2
X6.06Y-4.17
X6.08Y-4.665
X6.08Y-4.85
X6.17Y-4.22
X6.3625Y-4.51
X6.37Y-4.25
X6.37Y-4.88
X6.45Y-3.87
X6.46Y-4.35
X6.48Y-4.02
X6.48Y-4.09
X6.53Y-4.665
X6.53Y-4.85
X6.58Y-3.26
X6.58Y-3.51
X6.58Y-3.58
X6.64Y-5.07
X6.8Y-3.22
X6.8125Y-4.51
X6.82Y-4.25
X6.82Y-4.88
X6.91Y-4.35
X6.98Y-4.665
X6.98Y-4.85
X7.1Y-4.08
X7.13Y-3.37
X7.13Y-3.45
X7.22Y-3.57
X7.26Y-4.06
X7.2625Y-4.51
X7.27Y-4.25
X7.27Y-4.88
X7.29Y-3.46
X7.31Y-3.53
X7.32Y-3.24
X7.32Y-4.76
X7.36Y-4.35
X7.38Y-3.1
X7.42Y-4.07
X7.43Y-4.665
X7.43Y-4.85
X7.47Y-3.56
X7.53Y-4.25
X7.54Y-3.56
X7.66Y-3.67
X7.69Y-3.44
X7.7Y-3.8
X7.7Y-3.96
X7.72Y-3.39
X7.74Y-4.22
X7.75Y-4.42
X7.76Y-5.23
X7.76Y-5.33
X7.83Y-3.67
X7.86Y-3.45
X7.91Y-5.12
X7.91Y-5.36
X8.09Y-4.42
X8.11Y-4.27
X8.15Y-3.83
X8.33Y-4.23
X8.36Y-5.21
X8.36Y-5.31
X8.39Y-4.82
X8.48Y-4.08
X8.52Y-4.28
X8.57Y-4.37
X8.6Y-3.7
X8.63Y-3.91
T2
X5.74Y-3.9
X6.14Y-3.9
X8.04Y-4.67
X8.04Y-4.97
X8.14Y-4.67
X8.14Y-4.97
X8.24Y-4.67
X8.24Y-4.97
X8.34Y-4.67
X8.34Y-4.97
X7.09Y-4.53
X7.09Y-4.93
X7.14Y-3.65
X7.14Y-3.75
X7.14Y-3.85
X7.14Y-3.95
X7.44Y-3.65
X7.44Y-3.75
X7.44Y-3.85
X7.44Y-3.95
X6.22Y-3.27
X6.22Y-3.67
X6.45Y-3.4
X6.45Y-3.5
X6.45Y-3.6
X6.45Y-3.7
X6.75Y-3.4
X6.75Y-3.5
X6.75Y-3.6
X6.75Y-3.7
X6.64Y-4.53
X6.64Y-4.93
X6.19Y-4.53
X6.19Y-4.93
X8.22Y-3.62
X8.22Y-3.92
X8.32Y-3.62
X8.32Y-3.92
X8.42Y-3.62
X8.42Y-3.92
X8.52Y-3.62
X8.52Y-3.92
X5.8Y-3.47
X5.8Y-3.57
X5.8Y-3.67
X5.8Y-3.77
X6.1Y-3.47
X6.1Y-3.57
X6.1Y-3.67
X6.1Y-3.77
X6.89Y-3.57
X6.89Y-3.97
X7.94Y-4.54
X8.34Y-4.54
X8.02Y-3.51
X8.42Y-3.51
X7.02Y-3.57
X7.02Y-3.97
X8.47Y-4.54
X8.47Y-4.94
X7.54Y-4.53
X7.54Y-4.93
T3
X5.35Y-3.1
X5.35Y-3.2
X5.35Y-3.3
X5.35Y-3.4
X5.35Y-3.5
X5.35Y-3.6
X5.35Y-3.7
X5.35Y-3.8
X5.35Y-3.9
X5.35Y-4.
X5.35Y-4.1
X5.35Y-4.2
X5.35Y-4.3
X5.35Y-4.4
X5.35Y-4.5
X5.35Y-4.6
X5.35Y-4.7
X5.35Y-4.8
X5.35Y-4.9
X5.35Y-5.
X5.45Y-3.1
X5.45Y-3.2
X5.45Y-3.3
X5.45Y-3.4
X5.45Y-3.5
X5.45Y-3.6
X5.45Y-3.7
X5.45Y-3.8
X5.45Y-3.9
X5.45Y-4.
X5.45Y-4.1
X5.45Y-4.2
X5.45Y-4.3
X5.45Y-4.4
X5.45Y-4.5
X5.45Y-4.6
X5.45Y-4.7
X5.45Y-4.8
X5.45Y-4.9
X5.45Y-5.
X7.755Y-4.62
X7.755Y-4.72
X7.755Y-4.82
X7.755Y-4.92
X7.755Y-5.02
X8.605Y-4.62
X8.605Y-4.72
X8.605Y-4.82
X8.605Y-4.92
X8.605Y-5.02
T4
X8.84Y-3.52
X8.84Y-4.02
T0
M30
