G04 #@! TF.GenerationSoftware,KiCad,Pcbnew,(2017-12-02 revision 3109343)-master*
G04 #@! TF.CreationDate,2018-01-03T05:08:22-05:00*
G04 #@! TF.ProjectId,multislope,6D756C7469736C6F70652E6B69636164,rev?*
G04 #@! TF.SameCoordinates,Original*
G04 #@! TF.FileFunction,Soldermask,Top*
G04 #@! TF.FilePolarity,Negative*
%FSLAX46Y46*%
G04 Gerber Fmt 4.6, Leading zero omitted, Abs format (unit mm)*
G04 Created by KiCad (PCBNEW (2017-12-02 revision 3109343)-master) date Wed Jan  3 05:08:22 2018*
%MOMM*%
%LPD*%
G01*
G04 APERTURE LIST*
%ADD10R,0.850000X1.850000*%
%ADD11O,2.000000X2.000000*%
%ADD12C,2.000000*%
%ADD13R,2.000000X2.400000*%
%ADD14R,2.400000X2.000000*%
%ADD15O,2.127200X2.127200*%
%ADD16R,2.127200X2.127200*%
%ADD17C,8.400000*%
%ADD18C,2.127200*%
%ADD19R,1.850000X0.850000*%
%ADD20R,2.000000X2.000000*%
G04 APERTURE END LIST*
D10*
X177314500Y-116817500D03*
X176664500Y-116817500D03*
X176014500Y-116817500D03*
X175364500Y-116817500D03*
X175364500Y-112417500D03*
X176014500Y-112417500D03*
X176664500Y-112417500D03*
X177314500Y-112417500D03*
D11*
X180086000Y-125222000D03*
D12*
X180086000Y-115062000D03*
D13*
X173291500Y-119919500D03*
X173291500Y-115919500D03*
X173291500Y-109315500D03*
X173291500Y-113315500D03*
X184721500Y-113315500D03*
X184721500Y-109315500D03*
X184721500Y-115919500D03*
X184721500Y-119919500D03*
D12*
X191516000Y-115062000D03*
D11*
X191516000Y-125222000D03*
D10*
X188744500Y-112417500D03*
X188094500Y-112417500D03*
X187444500Y-112417500D03*
X186794500Y-112417500D03*
X186794500Y-116817500D03*
X187444500Y-116817500D03*
X188094500Y-116817500D03*
X188744500Y-116817500D03*
X165884500Y-116817500D03*
X165234500Y-116817500D03*
X164584500Y-116817500D03*
X163934500Y-116817500D03*
X163934500Y-112417500D03*
X164584500Y-112417500D03*
X165234500Y-112417500D03*
X165884500Y-112417500D03*
D11*
X168656000Y-125222000D03*
D12*
X168656000Y-115062000D03*
D13*
X161861500Y-119919500D03*
X161861500Y-115919500D03*
X161861500Y-109315500D03*
X161861500Y-113315500D03*
X150431500Y-113315500D03*
X150431500Y-109315500D03*
X150431500Y-115919500D03*
X150431500Y-119919500D03*
D14*
X206280000Y-106172000D03*
X210280000Y-106172000D03*
X212884000Y-106172000D03*
X216884000Y-106172000D03*
X204184000Y-84836000D03*
X200184000Y-84836000D03*
X200120000Y-82804000D03*
X196120000Y-82804000D03*
D15*
X138430000Y-127000000D03*
X135890000Y-127000000D03*
X138430000Y-124460000D03*
X135890000Y-124460000D03*
X138430000Y-121920000D03*
X135890000Y-121920000D03*
X138430000Y-119380000D03*
X135890000Y-119380000D03*
X138430000Y-116840000D03*
X135890000Y-116840000D03*
X138430000Y-114300000D03*
X135890000Y-114300000D03*
X138430000Y-111760000D03*
X135890000Y-111760000D03*
X138430000Y-109220000D03*
X135890000Y-109220000D03*
X138430000Y-106680000D03*
X135890000Y-106680000D03*
X138430000Y-104140000D03*
X135890000Y-104140000D03*
X138430000Y-101600000D03*
X135890000Y-101600000D03*
X138430000Y-99060000D03*
X135890000Y-99060000D03*
X138430000Y-96520000D03*
X135890000Y-96520000D03*
X138430000Y-93980000D03*
X135890000Y-93980000D03*
X138430000Y-91440000D03*
X135890000Y-91440000D03*
X138430000Y-88900000D03*
X135890000Y-88900000D03*
X138430000Y-86360000D03*
X135890000Y-86360000D03*
X138430000Y-83820000D03*
X135890000Y-83820000D03*
X138430000Y-81280000D03*
X135890000Y-81280000D03*
X138430000Y-78740000D03*
D16*
X135890000Y-78740000D03*
D17*
X224536000Y-102108000D03*
X224536000Y-89408000D03*
D12*
X157226000Y-115062000D03*
D11*
X157226000Y-125222000D03*
X213868000Y-89154000D03*
D12*
X203708000Y-89154000D03*
D18*
X196977000Y-117348000D03*
X196977000Y-119888000D03*
X196977000Y-122428000D03*
X196977000Y-124968000D03*
X196977000Y-127508000D03*
X218567000Y-119888000D03*
X218567000Y-122428000D03*
X218567000Y-117348000D03*
X218567000Y-124968000D03*
X218567000Y-127508000D03*
D10*
X154454500Y-112417500D03*
X153804500Y-112417500D03*
X153154500Y-112417500D03*
X152504500Y-112417500D03*
X152504500Y-116817500D03*
X153154500Y-116817500D03*
X153804500Y-116817500D03*
X154454500Y-116817500D03*
D19*
X217084000Y-101895000D03*
X217084000Y-102545000D03*
X217084000Y-103195000D03*
X217084000Y-103845000D03*
X212684000Y-103845000D03*
X212684000Y-103195000D03*
X212684000Y-102545000D03*
X212684000Y-101895000D03*
D11*
X208788000Y-91948000D03*
X216408000Y-99568000D03*
X211328000Y-91948000D03*
X213868000Y-99568000D03*
X213868000Y-91948000D03*
X211328000Y-99568000D03*
X216408000Y-91948000D03*
D20*
X208788000Y-99568000D03*
D19*
X201209000Y-88986000D03*
X201209000Y-88336000D03*
X201209000Y-87686000D03*
X201209000Y-87036000D03*
X196809000Y-87036000D03*
X196809000Y-87686000D03*
X196809000Y-88336000D03*
X196809000Y-88986000D03*
D14*
X182912000Y-89662000D03*
X186912000Y-89662000D03*
X207804000Y-128778000D03*
X211804000Y-128778000D03*
X216122000Y-131064000D03*
X212122000Y-131064000D03*
X204946000Y-128778000D03*
X200946000Y-128778000D03*
X167862000Y-96774000D03*
X163862000Y-96774000D03*
X171164000Y-81788000D03*
X167164000Y-81788000D03*
X185388000Y-103124000D03*
X181388000Y-103124000D03*
D13*
X191516000Y-95282000D03*
X191516000Y-99282000D03*
X144780000Y-89186000D03*
X144780000Y-93186000D03*
D14*
X154908000Y-85344000D03*
X150908000Y-85344000D03*
X183102000Y-83566000D03*
X179102000Y-83566000D03*
X189960000Y-83566000D03*
X185960000Y-83566000D03*
D13*
X219202000Y-97758000D03*
X219202000Y-93758000D03*
X205994000Y-97250000D03*
X205994000Y-93250000D03*
D12*
X157988000Y-83058000D03*
D11*
X157988000Y-93218000D03*
X201676000Y-115316000D03*
D12*
X211836000Y-115316000D03*
X215138000Y-125476000D03*
D11*
X215138000Y-115316000D03*
X155956000Y-99060000D03*
D12*
X145796000Y-99060000D03*
X178308000Y-90678000D03*
D11*
X178308000Y-100838000D03*
X175006000Y-90678000D03*
D12*
X175006000Y-100838000D03*
D20*
X204216000Y-126238000D03*
D11*
X211836000Y-118618000D03*
X206756000Y-126238000D03*
X209296000Y-118618000D03*
X209296000Y-126238000D03*
X206756000Y-118618000D03*
X211836000Y-126238000D03*
X204216000Y-118618000D03*
X171450000Y-86360000D03*
X163830000Y-93980000D03*
X171450000Y-88900000D03*
X163830000Y-91440000D03*
X171450000Y-91440000D03*
X163830000Y-88900000D03*
X171450000Y-93980000D03*
D20*
X163830000Y-86360000D03*
D11*
X188976000Y-92710000D03*
X181356000Y-100330000D03*
X188976000Y-95250000D03*
X181356000Y-97790000D03*
X188976000Y-97790000D03*
X181356000Y-95250000D03*
X188976000Y-100330000D03*
D20*
X181356000Y-92710000D03*
X154940000Y-95758000D03*
D11*
X147320000Y-88138000D03*
X154940000Y-93218000D03*
X147320000Y-90678000D03*
X154940000Y-90678000D03*
X147320000Y-93218000D03*
X154940000Y-88138000D03*
X147320000Y-95758000D03*
D19*
X187112000Y-85639000D03*
X187112000Y-86289000D03*
X187112000Y-86939000D03*
X187112000Y-87589000D03*
X182712000Y-87589000D03*
X182712000Y-86939000D03*
X182712000Y-86289000D03*
X182712000Y-85639000D03*
M02*
