G04 #@! TF.GenerationSoftware,KiCad,Pcbnew,(2017-12-02 revision 3109343)-master*
G04 #@! TF.CreationDate,2017-12-17T04:09:00-05:00*
G04 #@! TF.ProjectId,multislope,6D756C7469736C6F70652E6B69636164,rev?*
G04 #@! TF.SameCoordinates,Original*
G04 #@! TF.FileFunction,Soldermask,Bot*
G04 #@! TF.FilePolarity,Negative*
%FSLAX46Y46*%
G04 Gerber Fmt 4.6, Leading zero omitted, Abs format (unit mm)*
G04 Created by KiCad (PCBNEW (2017-12-02 revision 3109343)-master) date Sun Dec 17 04:09:00 2017*
%MOMM*%
%LPD*%
G01*
G04 APERTURE LIST*
%ADD10C,2.000000*%
%ADD11C,8.400000*%
%ADD12O,2.100000X2.100000*%
%ADD13R,2.100000X2.100000*%
%ADD14O,2.000000X2.000000*%
%ADD15C,1.924000*%
%ADD16R,2.000000X2.000000*%
G04 APERTURE END LIST*
D10*
X159385000Y-115490000D03*
X159385000Y-110490000D03*
D11*
X130810000Y-133350000D03*
X156210000Y-133350000D03*
X143510000Y-133350000D03*
X190500000Y-99060000D03*
D12*
X185420000Y-136525000D03*
X182880000Y-136525000D03*
X180340000Y-136525000D03*
X177800000Y-136525000D03*
X175260000Y-136525000D03*
X172720000Y-136525000D03*
D13*
X170180000Y-136525000D03*
D14*
X172720000Y-128270000D03*
D10*
X162560000Y-128270000D03*
X190500000Y-136525000D03*
D14*
X190500000Y-126365000D03*
X193675000Y-126365000D03*
D10*
X193675000Y-136525000D03*
D15*
X117475000Y-91440000D03*
X114935000Y-91440000D03*
X107315000Y-91440000D03*
X112395000Y-91440000D03*
X109855000Y-91440000D03*
X117475000Y-116840000D03*
X114935000Y-116840000D03*
X112395000Y-116840000D03*
X109855000Y-116840000D03*
X107315000Y-116840000D03*
D14*
X182880000Y-115570000D03*
X175260000Y-133350000D03*
X182880000Y-118110000D03*
X175260000Y-130810000D03*
X182880000Y-120650000D03*
X175260000Y-128270000D03*
X182880000Y-123190000D03*
X175260000Y-125730000D03*
X182880000Y-125730000D03*
X175260000Y-123190000D03*
X182880000Y-128270000D03*
X175260000Y-120650000D03*
X182880000Y-130810000D03*
X175260000Y-118110000D03*
X182880000Y-133350000D03*
D16*
X175260000Y-115570000D03*
X144145000Y-106680000D03*
D14*
X151765000Y-99060000D03*
X146685000Y-106680000D03*
X149225000Y-99060000D03*
X149225000Y-106680000D03*
X146685000Y-99060000D03*
X151765000Y-106680000D03*
X144145000Y-99060000D03*
D11*
X190500000Y-113030000D03*
D14*
X175260000Y-101600000D03*
X182880000Y-93980000D03*
X175260000Y-99060000D03*
X182880000Y-96520000D03*
X175260000Y-96520000D03*
X182880000Y-99060000D03*
X175260000Y-93980000D03*
D16*
X182880000Y-101600000D03*
D10*
X107950000Y-129540000D03*
X107950000Y-134540000D03*
X181610000Y-106045000D03*
X176610000Y-106045000D03*
X186690000Y-128350000D03*
X186690000Y-133350000D03*
X166450000Y-123825000D03*
X171450000Y-123825000D03*
X176610000Y-111125000D03*
X181610000Y-111125000D03*
X153670000Y-111125000D03*
D14*
X143510000Y-111125000D03*
X155575000Y-107315000D03*
D10*
X155575000Y-97155000D03*
D14*
X163195000Y-115570000D03*
X170815000Y-107950000D03*
X163195000Y-113030000D03*
X170815000Y-110490000D03*
X163195000Y-110490000D03*
X170815000Y-113030000D03*
X163195000Y-107950000D03*
D16*
X170815000Y-115570000D03*
X167005000Y-95250000D03*
D14*
X159385000Y-102870000D03*
X164465000Y-95250000D03*
X161925000Y-102870000D03*
X161925000Y-95250000D03*
X164465000Y-102870000D03*
X159385000Y-95250000D03*
X167005000Y-102870000D03*
D10*
X144225000Y-94615000D03*
X149225000Y-94615000D03*
X171450000Y-96520000D03*
X171450000Y-101520000D03*
D14*
X120015000Y-136525000D03*
X112395000Y-128905000D03*
X117475000Y-136525000D03*
X114935000Y-128905000D03*
X114935000Y-136525000D03*
X117475000Y-128905000D03*
X112395000Y-136525000D03*
D16*
X120015000Y-128905000D03*
M02*
