G04 #@! TF.GenerationSoftware,KiCad,Pcbnew,(2017-12-02 revision 3109343)-master*
G04 #@! TF.CreationDate,2018-01-03T05:08:22-05:00*
G04 #@! TF.ProjectId,multislope,6D756C7469736C6F70652E6B69636164,rev?*
G04 #@! TF.SameCoordinates,Original*
G04 #@! TF.FileFunction,Copper,L2,Bot,Signal*
G04 #@! TF.FilePolarity,Positive*
%FSLAX46Y46*%
G04 Gerber Fmt 4.6, Leading zero omitted, Abs format (unit mm)*
G04 Created by KiCad (PCBNEW (2017-12-02 revision 3109343)-master) date Wed Jan  3 05:08:22 2018*
%MOMM*%
%LPD*%
G01*
G04 APERTURE LIST*
%ADD10O,1.600000X1.600000*%
%ADD11C,1.600000*%
%ADD12O,1.727200X1.727200*%
%ADD13R,1.727200X1.727200*%
%ADD14C,8.000000*%
%ADD15C,1.727200*%
%ADD16R,1.600000X1.600000*%
%ADD17C,0.800000*%
%ADD18C,0.250000*%
G04 APERTURE END LIST*
D10*
X180086000Y-125222000D03*
D11*
X180086000Y-115062000D03*
X191516000Y-115062000D03*
D10*
X191516000Y-125222000D03*
X168656000Y-125222000D03*
D11*
X168656000Y-115062000D03*
D12*
X138430000Y-127000000D03*
X135890000Y-127000000D03*
X138430000Y-124460000D03*
X135890000Y-124460000D03*
X138430000Y-121920000D03*
X135890000Y-121920000D03*
X138430000Y-119380000D03*
X135890000Y-119380000D03*
X138430000Y-116840000D03*
X135890000Y-116840000D03*
X138430000Y-114300000D03*
X135890000Y-114300000D03*
X138430000Y-111760000D03*
X135890000Y-111760000D03*
X138430000Y-109220000D03*
X135890000Y-109220000D03*
X138430000Y-106680000D03*
X135890000Y-106680000D03*
X138430000Y-104140000D03*
X135890000Y-104140000D03*
X138430000Y-101600000D03*
X135890000Y-101600000D03*
X138430000Y-99060000D03*
X135890000Y-99060000D03*
X138430000Y-96520000D03*
X135890000Y-96520000D03*
X138430000Y-93980000D03*
X135890000Y-93980000D03*
X138430000Y-91440000D03*
X135890000Y-91440000D03*
X138430000Y-88900000D03*
X135890000Y-88900000D03*
X138430000Y-86360000D03*
X135890000Y-86360000D03*
X138430000Y-83820000D03*
X135890000Y-83820000D03*
X138430000Y-81280000D03*
X135890000Y-81280000D03*
X138430000Y-78740000D03*
D13*
X135890000Y-78740000D03*
D14*
X224536000Y-102108000D03*
X224536000Y-89408000D03*
D11*
X157226000Y-115062000D03*
D10*
X157226000Y-125222000D03*
X213868000Y-89154000D03*
D11*
X203708000Y-89154000D03*
D15*
X196977000Y-117348000D03*
X196977000Y-119888000D03*
X196977000Y-122428000D03*
X196977000Y-124968000D03*
X196977000Y-127508000D03*
X218567000Y-119888000D03*
X218567000Y-122428000D03*
X218567000Y-117348000D03*
X218567000Y-124968000D03*
X218567000Y-127508000D03*
D10*
X208788000Y-91948000D03*
X216408000Y-99568000D03*
X211328000Y-91948000D03*
X213868000Y-99568000D03*
X213868000Y-91948000D03*
X211328000Y-99568000D03*
X216408000Y-91948000D03*
D16*
X208788000Y-99568000D03*
D11*
X157988000Y-83058000D03*
D10*
X157988000Y-93218000D03*
X201676000Y-115316000D03*
D11*
X211836000Y-115316000D03*
X215138000Y-125476000D03*
D10*
X215138000Y-115316000D03*
X155956000Y-99060000D03*
D11*
X145796000Y-99060000D03*
X178308000Y-90678000D03*
D10*
X178308000Y-100838000D03*
X175006000Y-90678000D03*
D11*
X175006000Y-100838000D03*
D16*
X204216000Y-126238000D03*
D10*
X211836000Y-118618000D03*
X206756000Y-126238000D03*
X209296000Y-118618000D03*
X209296000Y-126238000D03*
X206756000Y-118618000D03*
X211836000Y-126238000D03*
X204216000Y-118618000D03*
X171450000Y-86360000D03*
X163830000Y-93980000D03*
X171450000Y-88900000D03*
X163830000Y-91440000D03*
X171450000Y-91440000D03*
X163830000Y-88900000D03*
X171450000Y-93980000D03*
D16*
X163830000Y-86360000D03*
D10*
X188976000Y-92710000D03*
X181356000Y-100330000D03*
X188976000Y-95250000D03*
X181356000Y-97790000D03*
X188976000Y-97790000D03*
X181356000Y-95250000D03*
X188976000Y-100330000D03*
D16*
X181356000Y-92710000D03*
X154940000Y-95758000D03*
D10*
X147320000Y-88138000D03*
X154940000Y-93218000D03*
X147320000Y-90678000D03*
X154940000Y-90678000D03*
X147320000Y-93218000D03*
X154940000Y-88138000D03*
X147320000Y-95758000D03*
D17*
X181102000Y-85598000D03*
X185674000Y-89662000D03*
X183388000Y-90678000D03*
X205994000Y-108458000D03*
X198882000Y-93218000D03*
X194564000Y-93218000D03*
X181102000Y-87630000D03*
X172720000Y-81788000D03*
X150368000Y-107950000D03*
X161798000Y-107950000D03*
X173228000Y-107950000D03*
X184658000Y-107950000D03*
X156718000Y-107188000D03*
X180340000Y-103632000D03*
X145796000Y-120650000D03*
X144526000Y-119888000D03*
X163830000Y-98298000D03*
X152908000Y-106680000D03*
X141732000Y-128778000D03*
X146812000Y-134366000D03*
X142494000Y-128016000D03*
X148082000Y-134366000D03*
X212344000Y-134874000D03*
X212344000Y-132334000D03*
X219202000Y-99314000D03*
X217678000Y-110998000D03*
X191262000Y-107950000D03*
X191516000Y-90424000D03*
X189738000Y-90424000D03*
X185166000Y-87884000D03*
X195580000Y-100584000D03*
X195580000Y-96520000D03*
X143764000Y-120904000D03*
X143764000Y-106172000D03*
X140462000Y-121666000D03*
X154432000Y-123190000D03*
X165862000Y-123190000D03*
X177292000Y-123190000D03*
X188722000Y-123190000D03*
X137160000Y-110490000D03*
X133350000Y-110490000D03*
X134874000Y-115570000D03*
X133350000Y-116586000D03*
X197104000Y-135382000D03*
X197104000Y-132842000D03*
X200914000Y-136144000D03*
X200914000Y-130048000D03*
X213106000Y-122428000D03*
X164592000Y-103886000D03*
X145542000Y-110744000D03*
X164592000Y-102108000D03*
X153924000Y-105918000D03*
X151130000Y-105918000D03*
X147066000Y-112776000D03*
X147066000Y-107442000D03*
X184404000Y-103124000D03*
X188468000Y-103378000D03*
X144780000Y-112014000D03*
X185928000Y-82296000D03*
X199644000Y-87630000D03*
X167132000Y-90932000D03*
X167132000Y-89154000D03*
X167132000Y-82804000D03*
X140462000Y-111760000D03*
X218440000Y-93980000D03*
X207010000Y-97282000D03*
X211582000Y-107442000D03*
X175514000Y-110490000D03*
X173037500Y-114554000D03*
X177292000Y-118491000D03*
X188722000Y-118491000D03*
X184467500Y-114554000D03*
X186944000Y-110490000D03*
X164084000Y-110490000D03*
X161607500Y-114554000D03*
X165862000Y-118491000D03*
X154432000Y-118491000D03*
X150177500Y-114554000D03*
X152654000Y-110490000D03*
X168656000Y-128778000D03*
X196596000Y-107188000D03*
X141224000Y-91440000D03*
X141224000Y-98044000D03*
X142240000Y-95504000D03*
X142240000Y-97790000D03*
X140208000Y-88900000D03*
X140208000Y-98298000D03*
X140462000Y-77978000D03*
X195326000Y-87376000D03*
X187452000Y-78740000D03*
X216408000Y-108712000D03*
X205486000Y-112268000D03*
X196850000Y-112268000D03*
X185928000Y-120904000D03*
X196088000Y-86106000D03*
X215392000Y-103632000D03*
X173228000Y-123952000D03*
X161798000Y-123952000D03*
X150368000Y-123952000D03*
X184658000Y-123952000D03*
D18*
X181610000Y-85598000D02*
X181102000Y-85598000D01*
X185674000Y-89662000D02*
X181610000Y-85598000D01*
X188976000Y-97790000D02*
X187452000Y-97790000D01*
X183388000Y-93726000D02*
X183388000Y-90678000D01*
X187452000Y-97790000D02*
X183388000Y-93726000D01*
X218567000Y-119888000D02*
X220218000Y-121539000D01*
X219456000Y-127508000D02*
X218567000Y-127508000D01*
X220218000Y-126746000D02*
X219456000Y-127508000D01*
X220218000Y-121539000D02*
X220218000Y-126746000D01*
X204216000Y-118618000D02*
X204216000Y-118364000D01*
X204216000Y-118364000D02*
X205232000Y-117348000D01*
X216027000Y-117348000D02*
X218567000Y-119888000D01*
X205232000Y-117348000D02*
X216027000Y-117348000D01*
X204216000Y-110236000D02*
X204216000Y-118618000D01*
X205994000Y-108458000D02*
X204216000Y-110236000D01*
X141732000Y-108204000D02*
X139700000Y-110236000D01*
X195072000Y-93218000D02*
X194564000Y-93218000D01*
X198882000Y-93218000D02*
X195072000Y-93218000D01*
X188976000Y-95250000D02*
X188976000Y-94488000D01*
X188976000Y-94488000D02*
X182118000Y-87630000D01*
X182118000Y-87630000D02*
X181102000Y-87630000D01*
X150368000Y-107950000D02*
X150171998Y-107950000D01*
X149917998Y-108204000D02*
X141732000Y-108204000D01*
X150171998Y-107950000D02*
X149917998Y-108204000D01*
X153162000Y-103632000D02*
X153162000Y-105156000D01*
X153162000Y-105156000D02*
X150368000Y-107950000D01*
X154940000Y-88138000D02*
X153670000Y-88138000D01*
X153162000Y-88646000D02*
X153162000Y-103632000D01*
X153162000Y-103632000D02*
X153162000Y-103886000D01*
X153670000Y-88138000D02*
X153162000Y-88646000D01*
X154940000Y-88138000D02*
X156972000Y-90170000D01*
X170180000Y-90170000D02*
X171450000Y-88900000D01*
X156972000Y-90170000D02*
X170180000Y-90170000D01*
X139700000Y-120904000D02*
X139700000Y-125730000D01*
X139700000Y-110236000D02*
X139700000Y-120904000D01*
X139700000Y-125730000D02*
X138430000Y-127000000D01*
X172720000Y-88900000D02*
X171450000Y-88900000D01*
X173228000Y-88392000D02*
X172720000Y-88900000D01*
X173228000Y-82296000D02*
X173228000Y-88392000D01*
X172720000Y-81788000D02*
X173228000Y-82296000D01*
X161798000Y-107950000D02*
X150368000Y-107950000D01*
X173228000Y-107950000D02*
X161798000Y-107950000D01*
X184658000Y-107950000D02*
X173228000Y-107950000D01*
X176784000Y-107188000D02*
X158242000Y-107188000D01*
X180340000Y-103632000D02*
X176784000Y-107188000D01*
X158242000Y-107188000D02*
X156718000Y-107188000D01*
X140462000Y-121412000D02*
X140462000Y-121666000D01*
X141478000Y-120396000D02*
X140462000Y-121412000D01*
X145542000Y-120396000D02*
X141478000Y-120396000D01*
X145796000Y-120650000D02*
X145542000Y-120396000D01*
X140462000Y-120650000D02*
X140462000Y-121666000D01*
X140970000Y-120142000D02*
X140462000Y-120650000D01*
X144272000Y-120142000D02*
X140970000Y-120142000D01*
X144526000Y-119888000D02*
X144272000Y-120142000D01*
X163830000Y-105156000D02*
X162306000Y-105156000D01*
X163830000Y-98298000D02*
X163830000Y-104648000D01*
X163830000Y-104648000D02*
X163830000Y-105156000D01*
X155448000Y-106680000D02*
X152908000Y-106680000D01*
X155759998Y-106368002D02*
X155448000Y-106680000D01*
X161093998Y-106368002D02*
X155759998Y-106368002D01*
X162306000Y-105156000D02*
X161093998Y-106368002D01*
X146812000Y-133858000D02*
X141732000Y-128778000D01*
X146812000Y-134366000D02*
X146812000Y-133858000D01*
X148082000Y-133604000D02*
X142494000Y-128016000D01*
X148082000Y-134366000D02*
X148082000Y-133604000D01*
X212344000Y-132334000D02*
X212344000Y-134874000D01*
X219202000Y-99314000D02*
X219202000Y-102616000D01*
X219202000Y-102616000D02*
X219710000Y-103124000D01*
X219710000Y-103124000D02*
X219710000Y-108966000D01*
X219710000Y-108966000D02*
X217678000Y-110998000D01*
X191262000Y-90678000D02*
X191262000Y-106934000D01*
X191516000Y-90424000D02*
X191262000Y-90678000D01*
X187706000Y-90424000D02*
X189738000Y-90424000D01*
X185166000Y-87884000D02*
X187706000Y-90424000D01*
X191262000Y-106934000D02*
X191262000Y-107950000D01*
X195580000Y-96520000D02*
X195580000Y-100584000D01*
X149098000Y-103886000D02*
X146812000Y-106172000D01*
X149098000Y-94488000D02*
X149098000Y-103886000D01*
X147828000Y-93218000D02*
X149098000Y-94488000D01*
X141224000Y-120904000D02*
X140462000Y-121666000D01*
X143764000Y-120904000D02*
X141224000Y-120904000D01*
X146812000Y-106172000D02*
X143764000Y-106172000D01*
X147320000Y-93218000D02*
X147828000Y-93218000D01*
X138684000Y-121666000D02*
X138430000Y-121920000D01*
X147574000Y-123190000D02*
X141986000Y-123190000D01*
X141986000Y-123190000D02*
X140462000Y-121666000D01*
X147574000Y-123190000D02*
X154432000Y-123190000D01*
X147574000Y-122682000D02*
X141478000Y-122682000D01*
X155702000Y-123190000D02*
X154940000Y-122428000D01*
X154940000Y-122428000D02*
X153670000Y-122428000D01*
X153670000Y-122428000D02*
X153416000Y-122682000D01*
X153416000Y-122682000D02*
X147574000Y-122682000D01*
X165862000Y-123190000D02*
X155702000Y-123190000D01*
X141478000Y-122682000D02*
X140462000Y-121666000D01*
X147574000Y-122174000D02*
X140970000Y-122174000D01*
X140970000Y-122174000D02*
X140462000Y-121666000D01*
X177292000Y-123190000D02*
X167132000Y-123190000D01*
X167132000Y-123190000D02*
X166370000Y-122428000D01*
X166370000Y-122428000D02*
X165100000Y-122428000D01*
X165100000Y-122428000D02*
X164846000Y-122682000D01*
X164846000Y-122682000D02*
X155702000Y-122682000D01*
X155702000Y-122682000D02*
X154940000Y-121920000D01*
X154940000Y-121920000D02*
X153416000Y-121920000D01*
X153416000Y-121920000D02*
X153162000Y-122174000D01*
X153162000Y-122174000D02*
X147574000Y-122174000D01*
X176784000Y-122428000D02*
X176530000Y-122682000D01*
X140462000Y-121666000D02*
X147574000Y-121666000D01*
X178562000Y-123190000D02*
X177800000Y-122428000D01*
X177800000Y-122428000D02*
X176784000Y-122428000D01*
X153162000Y-121412000D02*
X152908000Y-121666000D01*
X155194000Y-121412000D02*
X153162000Y-121412000D01*
X155956000Y-122174000D02*
X155194000Y-121412000D01*
X164338000Y-122174000D02*
X155956000Y-122174000D01*
X164592000Y-121920000D02*
X164338000Y-122174000D01*
X166624000Y-121920000D02*
X164592000Y-121920000D01*
X167386000Y-122682000D02*
X166624000Y-121920000D01*
X176530000Y-122682000D02*
X167386000Y-122682000D01*
X152908000Y-121666000D02*
X147574000Y-121666000D01*
X188722000Y-123190000D02*
X178562000Y-123190000D01*
X133350000Y-110490000D02*
X137160000Y-110490000D01*
X134874000Y-115570000D02*
X133858000Y-116586000D01*
X133858000Y-116586000D02*
X133350000Y-116586000D01*
X197104000Y-132842000D02*
X197104000Y-135382000D01*
X200914000Y-130048000D02*
X200914000Y-136144000D01*
X196977000Y-127508000D02*
X198120000Y-127508000D01*
X212598000Y-122936000D02*
X213106000Y-122428000D01*
X202692000Y-122936000D02*
X212598000Y-122936000D01*
X198120000Y-127508000D02*
X202692000Y-122936000D01*
X196977000Y-122428000D02*
X213106000Y-122428000D01*
X178562000Y-103886000D02*
X164592000Y-103886000D01*
X179832000Y-102616000D02*
X178562000Y-103886000D01*
X180848000Y-102616000D02*
X179832000Y-102616000D01*
X181356000Y-103124000D02*
X180848000Y-102616000D01*
X184404000Y-103124000D02*
X181356000Y-103124000D01*
X141732000Y-112014000D02*
X142494000Y-111252000D01*
X144780000Y-111252000D02*
X142494000Y-111252000D01*
X145542000Y-110744000D02*
X144780000Y-111252000D01*
X190500000Y-101092000D02*
X189484000Y-102108000D01*
X189484000Y-102108000D02*
X164592000Y-102108000D01*
X190500000Y-100584000D02*
X190500000Y-101092000D01*
X147066000Y-107188000D02*
X147066000Y-107442000D01*
X161798000Y-104902000D02*
X160782000Y-105918000D01*
X160782000Y-105918000D02*
X153924000Y-105918000D01*
X151130000Y-105918000D02*
X148082000Y-105918000D01*
X148082000Y-105918000D02*
X147066000Y-106934000D01*
X147066000Y-106934000D02*
X147066000Y-107188000D01*
X163322000Y-91440000D02*
X161798000Y-92964000D01*
X161798000Y-92964000D02*
X161798000Y-104140000D01*
X161798000Y-104140000D02*
X161798000Y-104902000D01*
X141478000Y-112776000D02*
X140462000Y-111760000D01*
X146558000Y-112776000D02*
X141478000Y-112776000D01*
X147066000Y-112776000D02*
X146558000Y-112776000D01*
X188214000Y-103124000D02*
X184404000Y-103124000D01*
X188468000Y-103378000D02*
X188214000Y-103124000D01*
X144780000Y-112014000D02*
X141732000Y-112014000D01*
X140716000Y-112014000D02*
X140462000Y-111760000D01*
X141732000Y-112014000D02*
X140716000Y-112014000D01*
X190500000Y-86868000D02*
X190500000Y-100584000D01*
X185928000Y-82296000D02*
X190500000Y-86868000D01*
X199644000Y-87630000D02*
X199644000Y-93472000D01*
X203200000Y-94234000D02*
X203962000Y-94996000D01*
X200406000Y-94234000D02*
X203200000Y-94234000D01*
X199644000Y-93472000D02*
X200406000Y-94234000D01*
X203962000Y-107442000D02*
X203962000Y-107696000D01*
X203962000Y-94996000D02*
X203962000Y-107442000D01*
X203962000Y-107696000D02*
X202946000Y-108712000D01*
X202946000Y-108712000D02*
X143510000Y-108712000D01*
X143510000Y-108712000D02*
X140462000Y-111760000D01*
X204978000Y-107696000D02*
X202946000Y-109728000D01*
X205232000Y-107442000D02*
X204978000Y-107696000D01*
X211582000Y-107442000D02*
X205232000Y-107442000D01*
X141732000Y-111760000D02*
X140462000Y-111760000D01*
X143764000Y-109728000D02*
X141732000Y-111760000D01*
X202946000Y-109728000D02*
X143764000Y-109728000D01*
X204470000Y-107696000D02*
X202946000Y-109220000D01*
X207010000Y-98552000D02*
X207010000Y-97282000D01*
X204470000Y-101092000D02*
X204470000Y-106934000D01*
X207010000Y-98552000D02*
X204470000Y-101092000D01*
X204470000Y-107696000D02*
X204470000Y-106934000D01*
X202946000Y-109220000D02*
X143764000Y-109220000D01*
X143764000Y-109220000D02*
X141224000Y-111760000D01*
X141224000Y-111760000D02*
X140462000Y-111760000D01*
X163830000Y-91440000D02*
X163322000Y-91440000D01*
X175006000Y-90678000D02*
X175006000Y-93726000D01*
X168402000Y-96012000D02*
X163830000Y-91440000D01*
X172720000Y-96012000D02*
X168402000Y-96012000D01*
X175006000Y-93726000D02*
X172720000Y-96012000D01*
X166624000Y-91440000D02*
X163830000Y-91440000D01*
X167132000Y-90932000D02*
X166624000Y-91440000D01*
X167132000Y-82804000D02*
X167132000Y-89154000D01*
X147828000Y-120396000D02*
X146812000Y-120396000D01*
X146812000Y-120396000D02*
X140462000Y-114046000D01*
X140462000Y-114046000D02*
X140462000Y-111760000D01*
X147828000Y-120396000D02*
X155702000Y-120396000D01*
X187325000Y-119888000D02*
X156464000Y-119888000D01*
X156464000Y-119888000D02*
X156210000Y-119888000D01*
X156210000Y-119888000D02*
X155702000Y-120396000D01*
X188722000Y-118491000D02*
X187325000Y-119888000D01*
X147828000Y-119888000D02*
X147066000Y-119888000D01*
X156210000Y-119380000D02*
X155956000Y-119380000D01*
X167259000Y-118491000D02*
X166370000Y-119380000D01*
X166370000Y-119380000D02*
X156210000Y-119380000D01*
X177292000Y-118491000D02*
X167259000Y-118491000D01*
X155956000Y-119380000D02*
X155448000Y-119888000D01*
X147828000Y-119888000D02*
X155448000Y-119888000D01*
X140462000Y-113284000D02*
X140462000Y-111760000D01*
X147066000Y-119888000D02*
X140462000Y-113284000D01*
X147828000Y-119380000D02*
X147320000Y-119380000D01*
X147320000Y-119380000D02*
X140462000Y-112522000D01*
X140462000Y-112522000D02*
X140462000Y-111760000D01*
X165862000Y-118491000D02*
X155829000Y-118491000D01*
X154940000Y-119380000D02*
X147828000Y-119380000D01*
X155829000Y-118491000D02*
X154940000Y-119380000D01*
X147828000Y-118872000D02*
X147574000Y-118872000D01*
X154305000Y-118491000D02*
X153924000Y-118872000D01*
X153924000Y-118872000D02*
X147828000Y-118872000D01*
X154432000Y-118491000D02*
X154305000Y-118491000D01*
X147574000Y-118872000D02*
X140462000Y-111760000D01*
X210312000Y-93980000D02*
X218440000Y-93980000D01*
X207010000Y-97282000D02*
X210312000Y-93980000D01*
X211582000Y-107442000D02*
X211328000Y-107696000D01*
X177038000Y-112014000D02*
X175514000Y-110490000D01*
X177292000Y-112268000D02*
X177038000Y-112014000D01*
X177292000Y-112331500D02*
X177292000Y-112268000D01*
X173037500Y-112966500D02*
X173037500Y-114046000D01*
X173037500Y-114046000D02*
X173037500Y-114554000D01*
X175514000Y-110490000D02*
X173037500Y-112966500D01*
X177292000Y-112268000D02*
X177038000Y-112014000D01*
X177292000Y-112268000D02*
X177292000Y-118491000D01*
X188722000Y-112268000D02*
X188722000Y-118491000D01*
X188722000Y-112268000D02*
X188468000Y-112014000D01*
X186944000Y-110490000D02*
X184467500Y-112966500D01*
X184467500Y-114046000D02*
X184467500Y-114554000D01*
X184467500Y-112966500D02*
X184467500Y-114046000D01*
X188722000Y-112331500D02*
X188722000Y-112268000D01*
X188722000Y-112268000D02*
X188468000Y-112014000D01*
X188468000Y-112014000D02*
X186944000Y-110490000D01*
X165608000Y-112014000D02*
X164084000Y-110490000D01*
X165862000Y-112268000D02*
X165608000Y-112014000D01*
X165862000Y-112331500D02*
X165862000Y-112268000D01*
X161607500Y-112966500D02*
X161607500Y-114046000D01*
X161607500Y-114046000D02*
X161607500Y-114554000D01*
X164084000Y-110490000D02*
X161607500Y-112966500D01*
X165862000Y-112268000D02*
X165608000Y-112014000D01*
X165862000Y-112268000D02*
X165862000Y-118491000D01*
X154432000Y-112268000D02*
X154432000Y-118491000D01*
X154432000Y-112268000D02*
X154178000Y-112014000D01*
X152654000Y-110490000D02*
X150177500Y-112966500D01*
X150177500Y-114046000D02*
X150177500Y-114554000D01*
X150177500Y-112966500D02*
X150177500Y-114046000D01*
X154432000Y-112331500D02*
X154432000Y-112268000D01*
X154432000Y-112268000D02*
X154178000Y-112014000D01*
X154178000Y-112014000D02*
X152654000Y-110490000D01*
X145796000Y-99060000D02*
X138430000Y-99060000D01*
X180086000Y-125222000D02*
X188468000Y-125222000D01*
X200406000Y-121158000D02*
X209296000Y-121158000D01*
X198628000Y-119380000D02*
X200406000Y-121158000D01*
X198628000Y-115824000D02*
X198628000Y-119380000D01*
X197866000Y-115062000D02*
X198628000Y-115824000D01*
X195072000Y-115062000D02*
X197866000Y-115062000D01*
X194310000Y-115824000D02*
X195072000Y-115062000D01*
X194310000Y-119380000D02*
X194310000Y-115824000D01*
X188468000Y-125222000D02*
X194310000Y-119380000D01*
X206756000Y-118618000D02*
X206756000Y-118872000D01*
X206756000Y-118872000D02*
X209042000Y-121158000D01*
X209042000Y-121158000D02*
X209296000Y-121158000D01*
X209296000Y-121158000D02*
X214376000Y-121158000D01*
X215138000Y-121920000D02*
X215138000Y-125476000D01*
X214376000Y-121158000D02*
X215138000Y-121920000D01*
X157734000Y-129540000D02*
X157226000Y-129032000D01*
X157226000Y-129032000D02*
X157226000Y-125222000D01*
X157734000Y-129540000D02*
X179578000Y-129540000D01*
X180086000Y-129032000D02*
X180086000Y-125222000D01*
X179578000Y-129540000D02*
X180086000Y-129032000D01*
X204216000Y-126238000D02*
X206756000Y-126238000D01*
X206756000Y-126238000D02*
X206756000Y-127254000D01*
X195072000Y-128778000D02*
X191516000Y-125222000D01*
X205232000Y-128778000D02*
X195072000Y-128778000D01*
X206756000Y-127254000D02*
X205232000Y-128778000D01*
X168656000Y-125222000D02*
X168656000Y-128778000D01*
X194310000Y-83566000D02*
X194310000Y-92202000D01*
X196596000Y-107188000D02*
X194310000Y-104902000D01*
X194310000Y-83566000D02*
X190500000Y-79756000D01*
X190500000Y-79756000D02*
X140716000Y-79756000D01*
X140716000Y-79756000D02*
X140208000Y-80264000D01*
X140208000Y-80264000D02*
X140208000Y-85598000D01*
X140208000Y-85598000D02*
X139446000Y-86360000D01*
X138430000Y-86360000D02*
X139446000Y-86360000D01*
X193802000Y-104394000D02*
X194310000Y-104902000D01*
X193802000Y-92710000D02*
X193802000Y-104394000D01*
X194310000Y-92202000D02*
X193802000Y-92710000D01*
X141224000Y-98044000D02*
X141224000Y-91440000D01*
X142240000Y-96266000D02*
X142240000Y-95504000D01*
X142240000Y-97790000D02*
X142240000Y-96266000D01*
X140208000Y-98298000D02*
X140208000Y-88900000D01*
X189992000Y-77978000D02*
X140462000Y-77978000D01*
X195072000Y-83058000D02*
X189992000Y-77978000D01*
X195072000Y-87122000D02*
X195072000Y-83058000D01*
X195326000Y-87376000D02*
X195072000Y-87122000D01*
X138430000Y-78740000D02*
X187452000Y-78740000D01*
X189230000Y-119634000D02*
X187960000Y-120904000D01*
X216408000Y-108712000D02*
X216408000Y-111252000D01*
X216408000Y-111252000D02*
X215392000Y-112268000D01*
X215392000Y-112268000D02*
X205486000Y-112268000D01*
X196850000Y-112268000D02*
X192278000Y-112268000D01*
X192278000Y-112268000D02*
X191262000Y-112268000D01*
X191262000Y-112268000D02*
X189992000Y-113538000D01*
X189992000Y-113538000D02*
X189992000Y-118872000D01*
X189992000Y-118872000D02*
X189230000Y-119634000D01*
X187960000Y-120904000D02*
X185928000Y-120904000D01*
X217170000Y-86106000D02*
X196088000Y-86106000D01*
X219456000Y-88392000D02*
X217170000Y-86106000D01*
X219456000Y-94234000D02*
X219456000Y-88392000D01*
X218186000Y-95504000D02*
X219456000Y-94234000D01*
X218186000Y-100838000D02*
X218186000Y-95504000D01*
X215392000Y-103632000D02*
X218186000Y-100838000D01*
X150368000Y-123952000D02*
X144272000Y-123952000D01*
X134366000Y-118364000D02*
X135890000Y-116840000D01*
X134366000Y-128270000D02*
X134366000Y-118364000D01*
X134874000Y-128778000D02*
X134366000Y-128270000D01*
X139446000Y-128778000D02*
X134874000Y-128778000D01*
X144272000Y-123952000D02*
X139446000Y-128778000D01*
X184658000Y-123952000D02*
X173228000Y-123952000D01*
X161798000Y-123952000D02*
X173228000Y-123952000D01*
X150368000Y-123952000D02*
X161798000Y-123952000D01*
X184658000Y-123952000D02*
X184404000Y-123952000D01*
M02*
