G04 #@! TF.GenerationSoftware,KiCad,Pcbnew,(2017-12-02 revision 3109343)-master*
G04 #@! TF.CreationDate,2018-01-03T05:08:22-05:00*
G04 #@! TF.ProjectId,multislope,6D756C7469736C6F70652E6B69636164,rev?*
G04 #@! TF.SameCoordinates,Original*
G04 #@! TF.FileFunction,Soldermask,Bot*
G04 #@! TF.FilePolarity,Negative*
%FSLAX46Y46*%
G04 Gerber Fmt 4.6, Leading zero omitted, Abs format (unit mm)*
G04 Created by KiCad (PCBNEW (2017-12-02 revision 3109343)-master) date Wed Jan  3 05:08:22 2018*
%MOMM*%
%LPD*%
G01*
G04 APERTURE LIST*
%ADD10O,2.000000X2.000000*%
%ADD11C,2.000000*%
%ADD12O,2.127200X2.127200*%
%ADD13R,2.127200X2.127200*%
%ADD14C,8.400000*%
%ADD15C,2.127200*%
%ADD16R,2.000000X2.000000*%
G04 APERTURE END LIST*
D10*
X180086000Y-125222000D03*
D11*
X180086000Y-115062000D03*
X191516000Y-115062000D03*
D10*
X191516000Y-125222000D03*
X168656000Y-125222000D03*
D11*
X168656000Y-115062000D03*
D12*
X138430000Y-127000000D03*
X135890000Y-127000000D03*
X138430000Y-124460000D03*
X135890000Y-124460000D03*
X138430000Y-121920000D03*
X135890000Y-121920000D03*
X138430000Y-119380000D03*
X135890000Y-119380000D03*
X138430000Y-116840000D03*
X135890000Y-116840000D03*
X138430000Y-114300000D03*
X135890000Y-114300000D03*
X138430000Y-111760000D03*
X135890000Y-111760000D03*
X138430000Y-109220000D03*
X135890000Y-109220000D03*
X138430000Y-106680000D03*
X135890000Y-106680000D03*
X138430000Y-104140000D03*
X135890000Y-104140000D03*
X138430000Y-101600000D03*
X135890000Y-101600000D03*
X138430000Y-99060000D03*
X135890000Y-99060000D03*
X138430000Y-96520000D03*
X135890000Y-96520000D03*
X138430000Y-93980000D03*
X135890000Y-93980000D03*
X138430000Y-91440000D03*
X135890000Y-91440000D03*
X138430000Y-88900000D03*
X135890000Y-88900000D03*
X138430000Y-86360000D03*
X135890000Y-86360000D03*
X138430000Y-83820000D03*
X135890000Y-83820000D03*
X138430000Y-81280000D03*
X135890000Y-81280000D03*
X138430000Y-78740000D03*
D13*
X135890000Y-78740000D03*
D14*
X224536000Y-102108000D03*
X224536000Y-89408000D03*
D11*
X157226000Y-115062000D03*
D10*
X157226000Y-125222000D03*
X213868000Y-89154000D03*
D11*
X203708000Y-89154000D03*
D15*
X196977000Y-117348000D03*
X196977000Y-119888000D03*
X196977000Y-122428000D03*
X196977000Y-124968000D03*
X196977000Y-127508000D03*
X218567000Y-119888000D03*
X218567000Y-122428000D03*
X218567000Y-117348000D03*
X218567000Y-124968000D03*
X218567000Y-127508000D03*
D10*
X208788000Y-91948000D03*
X216408000Y-99568000D03*
X211328000Y-91948000D03*
X213868000Y-99568000D03*
X213868000Y-91948000D03*
X211328000Y-99568000D03*
X216408000Y-91948000D03*
D16*
X208788000Y-99568000D03*
D11*
X157988000Y-83058000D03*
D10*
X157988000Y-93218000D03*
X201676000Y-115316000D03*
D11*
X211836000Y-115316000D03*
X215138000Y-125476000D03*
D10*
X215138000Y-115316000D03*
X155956000Y-99060000D03*
D11*
X145796000Y-99060000D03*
X178308000Y-90678000D03*
D10*
X178308000Y-100838000D03*
X175006000Y-90678000D03*
D11*
X175006000Y-100838000D03*
D16*
X204216000Y-126238000D03*
D10*
X211836000Y-118618000D03*
X206756000Y-126238000D03*
X209296000Y-118618000D03*
X209296000Y-126238000D03*
X206756000Y-118618000D03*
X211836000Y-126238000D03*
X204216000Y-118618000D03*
X171450000Y-86360000D03*
X163830000Y-93980000D03*
X171450000Y-88900000D03*
X163830000Y-91440000D03*
X171450000Y-91440000D03*
X163830000Y-88900000D03*
X171450000Y-93980000D03*
D16*
X163830000Y-86360000D03*
D10*
X188976000Y-92710000D03*
X181356000Y-100330000D03*
X188976000Y-95250000D03*
X181356000Y-97790000D03*
X188976000Y-97790000D03*
X181356000Y-95250000D03*
X188976000Y-100330000D03*
D16*
X181356000Y-92710000D03*
X154940000Y-95758000D03*
D10*
X147320000Y-88138000D03*
X154940000Y-93218000D03*
X147320000Y-90678000D03*
X154940000Y-90678000D03*
X147320000Y-93218000D03*
X154940000Y-88138000D03*
X147320000Y-95758000D03*
M02*
