M48
;DRILL file {KiCad (2017-12-02 revision 3109343)-master} date Sun Dec 17 04:09:01 2017
;FORMAT={-:-/ absolute / inch / decimal}
FMAT,2
INCH,TZ
T1C0.016
T2C0.030
T3C0.031
T4C0.039
T5C0.161
%
G90
G05
M72
T1
X6.45Y-4.975
X6.5Y-5.075
X6.95Y-5.
X7.Y-4.825
X7.05Y-4.325
X7.075Y-4.525
X7.075Y-4.825
X7.075Y-5.15
T2
X4.225Y-3.6
X4.225Y-4.6
X4.325Y-3.6
X4.325Y-4.6
X4.425Y-3.6
X4.425Y-4.6
X4.525Y-3.6
X4.525Y-4.6
X4.625Y-3.6
X4.625Y-4.6
T3
X6.75Y-3.8
X6.75Y-3.9969
X5.65Y-4.375
X6.05Y-4.375
X6.9531Y-4.375
X7.15Y-4.375
X7.35Y-5.0531
X7.35Y-5.25
X6.9Y-4.55
X6.9Y-4.65
X6.9Y-4.75
X6.9Y-4.85
X6.9Y-4.95
X6.9Y-5.05
X6.9Y-5.15
X6.9Y-5.25
X7.2Y-4.55
X7.2Y-4.65
X7.2Y-4.75
X7.2Y-4.85
X7.2Y-4.95
X7.2Y-5.05
X7.2Y-5.15
X7.2Y-5.25
X4.25Y-5.1
X4.25Y-5.2969
X7.625Y-4.975
X7.625Y-5.375
X6.9531Y-4.175
X7.15Y-4.175
X6.275Y-3.75
X6.275Y-4.05
X6.375Y-3.75
X6.375Y-4.05
X6.475Y-3.75
X6.475Y-4.05
X6.575Y-3.75
X6.575Y-4.05
X6.5531Y-4.875
X6.75Y-4.875
X6.4Y-5.05
X6.8Y-5.05
X6.9Y-3.7
X6.9Y-3.8
X6.9Y-3.9
X6.9Y-4.
X7.2Y-3.7
X7.2Y-3.8
X7.2Y-3.9
X7.2Y-4.
X5.675Y-3.9
X5.675Y-4.2
X5.775Y-3.9
X5.775Y-4.2
X5.875Y-3.9
X5.875Y-4.2
X5.975Y-3.9
X5.975Y-4.2
X6.125Y-3.825
X6.125Y-4.225
X7.5Y-4.975
X7.5Y-5.375
X6.425Y-4.25
X6.425Y-4.35
X6.425Y-4.45
X6.425Y-4.55
X6.725Y-4.25
X6.725Y-4.35
X6.725Y-4.45
X6.725Y-4.55
X5.6781Y-3.725
X5.875Y-3.725
X6.275Y-4.35
X6.275Y-4.5469
X4.425Y-5.075
X4.425Y-5.375
X4.525Y-5.075
X4.525Y-5.375
X4.625Y-5.075
X4.625Y-5.375
X4.725Y-5.075
X4.725Y-5.375
T4
X6.7Y-5.375
X6.8Y-5.375
X6.9Y-5.375
X7.Y-5.375
X7.1Y-5.375
X7.2Y-5.375
X7.3Y-5.375
T5
X6.15Y-5.25
X5.15Y-5.25
X5.65Y-5.25
X7.5Y-3.9
X7.5Y-4.45
T0
M30
