G04 #@! TF.FileFunction,Legend,Top*
%FSLAX46Y46*%
G04 Gerber Fmt 4.6, Leading zero omitted, Abs format (unit mm)*
G04 Created by KiCad (PCBNEW (2014-11-17 BZR 5289)-product) date Sat 29 Aug 2015 07:35:18 PM EDT*
%MOMM*%
G01*
G04 APERTURE LIST*
%ADD10C,0.100000*%
%ADD11C,0.150000*%
%ADD12C,0.381000*%
%ADD13C,0.304800*%
G04 APERTURE END LIST*
D10*
D11*
X159225000Y-124425000D02*
X159225000Y-124675000D01*
X162575000Y-124425000D02*
X162575000Y-124675000D01*
X162575000Y-127775000D02*
X162575000Y-127525000D01*
X159225000Y-127775000D02*
X159225000Y-127525000D01*
X159225000Y-124425000D02*
X162575000Y-124425000D01*
X159225000Y-127775000D02*
X162575000Y-127775000D01*
X159225000Y-124675000D02*
X157975000Y-124675000D01*
X165982500Y-127100000D02*
X165601500Y-127100000D01*
X166998500Y-127100000D02*
X166617500Y-127100000D01*
X166617500Y-127100000D02*
X165982500Y-126719000D01*
X165982500Y-126719000D02*
X165982500Y-127481000D01*
X165982500Y-127481000D02*
X166617500Y-127100000D01*
X166617500Y-126592000D02*
X166617500Y-127608000D01*
X164400000Y-128000000D02*
X167940000Y-128000000D01*
X164400000Y-126200000D02*
X167940000Y-126200000D01*
X154025000Y-127800000D02*
X154025000Y-125800000D01*
X156175000Y-125800000D02*
X156175000Y-127800000D01*
X158600000Y-124075000D02*
X157400000Y-124075000D01*
X157400000Y-122325000D02*
X158600000Y-122325000D01*
X161200000Y-122325000D02*
X162400000Y-122325000D01*
X162400000Y-124075000D02*
X161200000Y-124075000D01*
X162400000Y-121975000D02*
X161200000Y-121975000D01*
X161200000Y-120225000D02*
X162400000Y-120225000D01*
X156400000Y-136849000D02*
X156400000Y-137611000D01*
X156019000Y-137230000D02*
X156781000Y-137230000D01*
X158686000Y-136976000D02*
X158686000Y-140786000D01*
X154876000Y-136214000D02*
X157924000Y-136214000D01*
X158686000Y-136976000D02*
X157924000Y-136214000D01*
X154114000Y-136976000D02*
X154114000Y-140786000D01*
X154114000Y-136976000D02*
X154876000Y-136214000D01*
X156527000Y-140532000D02*
X156273000Y-140532000D01*
X155765000Y-140405000D02*
X157035000Y-140405000D01*
X157289000Y-140278000D02*
X155511000Y-140278000D01*
X157543000Y-140151000D02*
X155257000Y-140151000D01*
X155130000Y-140024000D02*
X157670000Y-140024000D01*
X157797000Y-139897000D02*
X155003000Y-139897000D01*
X154876000Y-139770000D02*
X157924000Y-139770000D01*
X154749000Y-139643000D02*
X158051000Y-139643000D01*
X154114000Y-140786000D02*
X158686000Y-140786000D01*
X158432000Y-138500000D02*
G75*
G03X158432000Y-138500000I-2032000J0D01*
G01*
X165686000Y-135660000D02*
X165686000Y-140740000D01*
X165686000Y-140740000D02*
X161114000Y-140740000D01*
X161114000Y-140740000D02*
X161114000Y-135660000D01*
X161114000Y-135660000D02*
X165686000Y-135660000D01*
X164162000Y-135660000D02*
X164162000Y-136168000D01*
X164162000Y-136168000D02*
X162892000Y-136168000D01*
X162892000Y-136168000D02*
X162892000Y-135660000D01*
X157300000Y-121950000D02*
X158300000Y-121950000D01*
X158300000Y-120250000D02*
X157300000Y-120250000D01*
X170800000Y-140351000D02*
X170800000Y-139589000D01*
X171181000Y-139970000D02*
X170419000Y-139970000D01*
X168514000Y-140224000D02*
X168514000Y-136414000D01*
X172324000Y-140986000D02*
X169276000Y-140986000D01*
X168514000Y-140224000D02*
X169276000Y-140986000D01*
X173086000Y-140224000D02*
X173086000Y-136414000D01*
X173086000Y-140224000D02*
X172324000Y-140986000D01*
X170673000Y-136668000D02*
X170927000Y-136668000D01*
X171435000Y-136795000D02*
X170165000Y-136795000D01*
X169911000Y-136922000D02*
X171689000Y-136922000D01*
X169657000Y-137049000D02*
X171943000Y-137049000D01*
X172070000Y-137176000D02*
X169530000Y-137176000D01*
X169403000Y-137303000D02*
X172197000Y-137303000D01*
X172324000Y-137430000D02*
X169276000Y-137430000D01*
X172451000Y-137557000D02*
X169149000Y-137557000D01*
X173086000Y-136414000D02*
X168514000Y-136414000D01*
X172832000Y-138700000D02*
G75*
G03X172832000Y-138700000I-2032000J0D01*
G01*
X165806000Y-131676000D02*
X165806000Y-134724000D01*
X169489000Y-134724000D02*
X171394000Y-134724000D01*
X171394000Y-134724000D02*
X171394000Y-131676000D01*
X171394000Y-131676000D02*
X169489000Y-131676000D01*
X167838000Y-131676000D02*
X165806000Y-131676000D01*
X166006000Y-131676000D02*
X166006000Y-134724000D01*
X165806000Y-134724000D02*
X167838000Y-134724000D01*
X172024000Y-124106000D02*
X168976000Y-124106000D01*
X168976000Y-127789000D02*
X168976000Y-129694000D01*
X168976000Y-129694000D02*
X172024000Y-129694000D01*
X172024000Y-129694000D02*
X172024000Y-127789000D01*
X172024000Y-126138000D02*
X172024000Y-124106000D01*
X172024000Y-124306000D02*
X168976000Y-124306000D01*
X168976000Y-124106000D02*
X168976000Y-126138000D01*
D12*
X196656060Y-143659380D02*
X197600940Y-143659380D01*
X196656060Y-138340620D02*
X197600940Y-138340620D01*
X188149600Y-138340620D02*
X191929120Y-138340620D01*
X188149600Y-143659380D02*
X191929120Y-143659380D01*
X196341100Y-137807220D02*
X196656060Y-141266700D01*
X192559040Y-144192780D02*
X191929120Y-138340620D01*
X192559040Y-137807220D02*
X193188960Y-144192780D01*
X193188960Y-137807220D02*
X193818880Y-144192780D01*
X193818880Y-137807220D02*
X194448800Y-144192780D01*
X194448800Y-137807220D02*
X195081260Y-144192780D01*
X195081260Y-137807220D02*
X195711180Y-144192780D01*
X195711180Y-137807220D02*
X196341100Y-144192780D01*
X196341100Y-137807220D02*
X196656060Y-138340620D01*
X196656060Y-138340620D02*
X196656060Y-143659380D01*
X196656060Y-143659380D02*
X196341100Y-144192780D01*
X196341100Y-144192780D02*
X192244080Y-144192780D01*
X192244080Y-144192780D02*
X191929120Y-143659380D01*
X191929120Y-143659380D02*
X191929120Y-138340620D01*
X191929120Y-138340620D02*
X192244080Y-137807220D01*
X192244080Y-137807220D02*
X196341100Y-137807220D01*
X197600940Y-143659380D02*
X197600940Y-138340620D01*
X188149600Y-137850400D02*
X188149600Y-144149600D01*
X188149600Y-144149600D02*
X181850400Y-144149600D01*
X181850400Y-144149600D02*
X181850400Y-137850400D01*
X181850400Y-137850400D02*
X188149600Y-137850400D01*
X196656060Y-133159380D02*
X197600940Y-133159380D01*
X196656060Y-127840620D02*
X197600940Y-127840620D01*
X188149600Y-127840620D02*
X191929120Y-127840620D01*
X188149600Y-133159380D02*
X191929120Y-133159380D01*
X196341100Y-127307220D02*
X196656060Y-130766700D01*
X192559040Y-133692780D02*
X191929120Y-127840620D01*
X192559040Y-127307220D02*
X193188960Y-133692780D01*
X193188960Y-127307220D02*
X193818880Y-133692780D01*
X193818880Y-127307220D02*
X194448800Y-133692780D01*
X194448800Y-127307220D02*
X195081260Y-133692780D01*
X195081260Y-127307220D02*
X195711180Y-133692780D01*
X195711180Y-127307220D02*
X196341100Y-133692780D01*
X196341100Y-127307220D02*
X196656060Y-127840620D01*
X196656060Y-127840620D02*
X196656060Y-133159380D01*
X196656060Y-133159380D02*
X196341100Y-133692780D01*
X196341100Y-133692780D02*
X192244080Y-133692780D01*
X192244080Y-133692780D02*
X191929120Y-133159380D01*
X191929120Y-133159380D02*
X191929120Y-127840620D01*
X191929120Y-127840620D02*
X192244080Y-127307220D01*
X192244080Y-127307220D02*
X196341100Y-127307220D01*
X197600940Y-133159380D02*
X197600940Y-127840620D01*
X188149600Y-127350400D02*
X188149600Y-133649600D01*
X188149600Y-133649600D02*
X181850400Y-133649600D01*
X181850400Y-133649600D02*
X181850400Y-127350400D01*
X181850400Y-127350400D02*
X188149600Y-127350400D01*
X196656060Y-122659380D02*
X197600940Y-122659380D01*
X196656060Y-117340620D02*
X197600940Y-117340620D01*
X188149600Y-117340620D02*
X191929120Y-117340620D01*
X188149600Y-122659380D02*
X191929120Y-122659380D01*
X196341100Y-116807220D02*
X196656060Y-120266700D01*
X192559040Y-123192780D02*
X191929120Y-117340620D01*
X192559040Y-116807220D02*
X193188960Y-123192780D01*
X193188960Y-116807220D02*
X193818880Y-123192780D01*
X193818880Y-116807220D02*
X194448800Y-123192780D01*
X194448800Y-116807220D02*
X195081260Y-123192780D01*
X195081260Y-116807220D02*
X195711180Y-123192780D01*
X195711180Y-116807220D02*
X196341100Y-123192780D01*
X196341100Y-116807220D02*
X196656060Y-117340620D01*
X196656060Y-117340620D02*
X196656060Y-122659380D01*
X196656060Y-122659380D02*
X196341100Y-123192780D01*
X196341100Y-123192780D02*
X192244080Y-123192780D01*
X192244080Y-123192780D02*
X191929120Y-122659380D01*
X191929120Y-122659380D02*
X191929120Y-117340620D01*
X191929120Y-117340620D02*
X192244080Y-116807220D01*
X192244080Y-116807220D02*
X196341100Y-116807220D01*
X197600940Y-122659380D02*
X197600940Y-117340620D01*
X188149600Y-116850400D02*
X188149600Y-123149600D01*
X188149600Y-123149600D02*
X181850400Y-123149600D01*
X181850400Y-123149600D02*
X181850400Y-116850400D01*
X181850400Y-116850400D02*
X188149600Y-116850400D01*
D11*
X174400000Y-120975000D02*
X173200000Y-120975000D01*
X173200000Y-119225000D02*
X174400000Y-119225000D01*
X175575000Y-130200000D02*
X175575000Y-131400000D01*
X173825000Y-131400000D02*
X173825000Y-130200000D01*
X160238095Y-124702381D02*
X160238095Y-125511905D01*
X160285714Y-125607143D01*
X160333333Y-125654762D01*
X160428571Y-125702381D01*
X160619048Y-125702381D01*
X160714286Y-125654762D01*
X160761905Y-125607143D01*
X160809524Y-125511905D01*
X160809524Y-124702381D01*
X161809524Y-125702381D02*
X161238095Y-125702381D01*
X161523809Y-125702381D02*
X161523809Y-124702381D01*
X161428571Y-124845238D01*
X161333333Y-124940476D01*
X161238095Y-124988095D01*
X165661905Y-125552381D02*
X165661905Y-124552381D01*
X165900000Y-124552381D01*
X166042858Y-124600000D01*
X166138096Y-124695238D01*
X166185715Y-124790476D01*
X166233334Y-124980952D01*
X166233334Y-125123810D01*
X166185715Y-125314286D01*
X166138096Y-125409524D01*
X166042858Y-125504762D01*
X165900000Y-125552381D01*
X165661905Y-125552381D01*
X167185715Y-125552381D02*
X166614286Y-125552381D01*
X166900000Y-125552381D02*
X166900000Y-124552381D01*
X166804762Y-124695238D01*
X166709524Y-124790476D01*
X166614286Y-124838095D01*
X154833334Y-130357143D02*
X154785715Y-130404762D01*
X154642858Y-130452381D01*
X154547620Y-130452381D01*
X154404762Y-130404762D01*
X154309524Y-130309524D01*
X154261905Y-130214286D01*
X154214286Y-130023810D01*
X154214286Y-129880952D01*
X154261905Y-129690476D01*
X154309524Y-129595238D01*
X154404762Y-129500000D01*
X154547620Y-129452381D01*
X154642858Y-129452381D01*
X154785715Y-129500000D01*
X154833334Y-129547619D01*
X155214286Y-129547619D02*
X155261905Y-129500000D01*
X155357143Y-129452381D01*
X155595239Y-129452381D01*
X155690477Y-129500000D01*
X155738096Y-129547619D01*
X155785715Y-129642857D01*
X155785715Y-129738095D01*
X155738096Y-129880952D01*
X155166667Y-130452381D01*
X155785715Y-130452381D01*
X160733334Y-133952381D02*
X160257143Y-133952381D01*
X160257143Y-132952381D01*
X161590477Y-133952381D02*
X161019048Y-133952381D01*
X161304762Y-133952381D02*
X161304762Y-132952381D01*
X161209524Y-133095238D01*
X161114286Y-133190476D01*
X161019048Y-133238095D01*
X155133334Y-123552381D02*
X154800000Y-123076190D01*
X154561905Y-123552381D02*
X154561905Y-122552381D01*
X154942858Y-122552381D01*
X155038096Y-122600000D01*
X155085715Y-122647619D01*
X155133334Y-122742857D01*
X155133334Y-122885714D01*
X155085715Y-122980952D01*
X155038096Y-123028571D01*
X154942858Y-123076190D01*
X154561905Y-123076190D01*
X156085715Y-123552381D02*
X155514286Y-123552381D01*
X155800000Y-123552381D02*
X155800000Y-122552381D01*
X155704762Y-122695238D01*
X155609524Y-122790476D01*
X155514286Y-122838095D01*
X164533334Y-123752381D02*
X164200000Y-123276190D01*
X163961905Y-123752381D02*
X163961905Y-122752381D01*
X164342858Y-122752381D01*
X164438096Y-122800000D01*
X164485715Y-122847619D01*
X164533334Y-122942857D01*
X164533334Y-123085714D01*
X164485715Y-123180952D01*
X164438096Y-123228571D01*
X164342858Y-123276190D01*
X163961905Y-123276190D01*
X164914286Y-122847619D02*
X164961905Y-122800000D01*
X165057143Y-122752381D01*
X165295239Y-122752381D01*
X165390477Y-122800000D01*
X165438096Y-122847619D01*
X165485715Y-122942857D01*
X165485715Y-123038095D01*
X165438096Y-123180952D01*
X164866667Y-123752381D01*
X165485715Y-123752381D01*
X164333334Y-121552381D02*
X164000000Y-121076190D01*
X163761905Y-121552381D02*
X163761905Y-120552381D01*
X164142858Y-120552381D01*
X164238096Y-120600000D01*
X164285715Y-120647619D01*
X164333334Y-120742857D01*
X164333334Y-120885714D01*
X164285715Y-120980952D01*
X164238096Y-121028571D01*
X164142858Y-121076190D01*
X163761905Y-121076190D01*
X164666667Y-120552381D02*
X165285715Y-120552381D01*
X164952381Y-120933333D01*
X165095239Y-120933333D01*
X165190477Y-120980952D01*
X165238096Y-121028571D01*
X165285715Y-121123810D01*
X165285715Y-121361905D01*
X165238096Y-121457143D01*
X165190477Y-121504762D01*
X165095239Y-121552381D01*
X164809524Y-121552381D01*
X164714286Y-121504762D01*
X164666667Y-121457143D01*
X154433334Y-134857143D02*
X154385715Y-134904762D01*
X154242858Y-134952381D01*
X154147620Y-134952381D01*
X154004762Y-134904762D01*
X153909524Y-134809524D01*
X153861905Y-134714286D01*
X153814286Y-134523810D01*
X153814286Y-134380952D01*
X153861905Y-134190476D01*
X153909524Y-134095238D01*
X154004762Y-134000000D01*
X154147620Y-133952381D01*
X154242858Y-133952381D01*
X154385715Y-134000000D01*
X154433334Y-134047619D01*
X155385715Y-134952381D02*
X154814286Y-134952381D01*
X155100000Y-134952381D02*
X155100000Y-133952381D01*
X155004762Y-134095238D01*
X154909524Y-134190476D01*
X154814286Y-134238095D01*
X164122381Y-138961905D02*
X164931905Y-138961905D01*
X165027143Y-138914286D01*
X165074762Y-138866667D01*
X165122381Y-138771429D01*
X165122381Y-138580952D01*
X165074762Y-138485714D01*
X165027143Y-138438095D01*
X164931905Y-138390476D01*
X164122381Y-138390476D01*
X164217619Y-137961905D02*
X164170000Y-137914286D01*
X164122381Y-137819048D01*
X164122381Y-137580952D01*
X164170000Y-137485714D01*
X164217619Y-137438095D01*
X164312857Y-137390476D01*
X164408095Y-137390476D01*
X164550952Y-137438095D01*
X165122381Y-138009524D01*
X165122381Y-137390476D01*
X154733334Y-121357143D02*
X154685715Y-121404762D01*
X154542858Y-121452381D01*
X154447620Y-121452381D01*
X154304762Y-121404762D01*
X154209524Y-121309524D01*
X154161905Y-121214286D01*
X154114286Y-121023810D01*
X154114286Y-120880952D01*
X154161905Y-120690476D01*
X154209524Y-120595238D01*
X154304762Y-120500000D01*
X154447620Y-120452381D01*
X154542858Y-120452381D01*
X154685715Y-120500000D01*
X154733334Y-120547619D01*
X155066667Y-120452381D02*
X155685715Y-120452381D01*
X155352381Y-120833333D01*
X155495239Y-120833333D01*
X155590477Y-120880952D01*
X155638096Y-120928571D01*
X155685715Y-121023810D01*
X155685715Y-121261905D01*
X155638096Y-121357143D01*
X155590477Y-121404762D01*
X155495239Y-121452381D01*
X155209524Y-121452381D01*
X155114286Y-121404762D01*
X155066667Y-121357143D01*
X174332143Y-139342857D02*
X174379762Y-139390476D01*
X174427381Y-139533333D01*
X174427381Y-139628571D01*
X174379762Y-139771429D01*
X174284524Y-139866667D01*
X174189286Y-139914286D01*
X173998810Y-139961905D01*
X173855952Y-139961905D01*
X173665476Y-139914286D01*
X173570238Y-139866667D01*
X173475000Y-139771429D01*
X173427381Y-139628571D01*
X173427381Y-139533333D01*
X173475000Y-139390476D01*
X173522619Y-139342857D01*
X174427381Y-138390476D02*
X174427381Y-138961905D01*
X174427381Y-138676191D02*
X173427381Y-138676191D01*
X173570238Y-138771429D01*
X173665476Y-138866667D01*
X173713095Y-138961905D01*
X173855952Y-137819048D02*
X173808333Y-137914286D01*
X173760714Y-137961905D01*
X173665476Y-138009524D01*
X173617857Y-138009524D01*
X173522619Y-137961905D01*
X173475000Y-137914286D01*
X173427381Y-137819048D01*
X173427381Y-137628571D01*
X173475000Y-137533333D01*
X173522619Y-137485714D01*
X173617857Y-137438095D01*
X173665476Y-137438095D01*
X173760714Y-137485714D01*
X173808333Y-137533333D01*
X173855952Y-137628571D01*
X173855952Y-137819048D01*
X173903571Y-137914286D01*
X173951190Y-137961905D01*
X174046429Y-138009524D01*
X174236905Y-138009524D01*
X174332143Y-137961905D01*
X174379762Y-137914286D01*
X174427381Y-137819048D01*
X174427381Y-137628571D01*
X174379762Y-137533333D01*
X174332143Y-137485714D01*
X174236905Y-137438095D01*
X174046429Y-137438095D01*
X173951190Y-137485714D01*
X173903571Y-137533333D01*
X173855952Y-137628571D01*
X166533334Y-131257143D02*
X166485715Y-131304762D01*
X166342858Y-131352381D01*
X166247620Y-131352381D01*
X166104762Y-131304762D01*
X166009524Y-131209524D01*
X165961905Y-131114286D01*
X165914286Y-130923810D01*
X165914286Y-130780952D01*
X165961905Y-130590476D01*
X166009524Y-130495238D01*
X166104762Y-130400000D01*
X166247620Y-130352381D01*
X166342858Y-130352381D01*
X166485715Y-130400000D01*
X166533334Y-130447619D01*
X167390477Y-130685714D02*
X167390477Y-131352381D01*
X167152381Y-130304762D02*
X166914286Y-131019048D01*
X167533334Y-131019048D01*
X170433334Y-123557143D02*
X170385715Y-123604762D01*
X170242858Y-123652381D01*
X170147620Y-123652381D01*
X170004762Y-123604762D01*
X169909524Y-123509524D01*
X169861905Y-123414286D01*
X169814286Y-123223810D01*
X169814286Y-123080952D01*
X169861905Y-122890476D01*
X169909524Y-122795238D01*
X170004762Y-122700000D01*
X170147620Y-122652381D01*
X170242858Y-122652381D01*
X170385715Y-122700000D01*
X170433334Y-122747619D01*
X171338096Y-122652381D02*
X170861905Y-122652381D01*
X170814286Y-123128571D01*
X170861905Y-123080952D01*
X170957143Y-123033333D01*
X171195239Y-123033333D01*
X171290477Y-123080952D01*
X171338096Y-123128571D01*
X171385715Y-123223810D01*
X171385715Y-123461905D01*
X171338096Y-123557143D01*
X171290477Y-123604762D01*
X171195239Y-123652381D01*
X170957143Y-123652381D01*
X170861905Y-123604762D01*
X170814286Y-123557143D01*
D13*
X189175143Y-141989429D02*
X189175143Y-140465429D01*
X189755715Y-140465429D01*
X189900857Y-140538000D01*
X189973429Y-140610571D01*
X190046000Y-140755714D01*
X190046000Y-140973429D01*
X189973429Y-141118571D01*
X189900857Y-141191143D01*
X189755715Y-141263714D01*
X189175143Y-141263714D01*
X191497429Y-141989429D02*
X190626572Y-141989429D01*
X191062000Y-141989429D02*
X191062000Y-140465429D01*
X190916857Y-140683143D01*
X190771715Y-140828286D01*
X190626572Y-140900857D01*
X189514857Y-136508857D02*
X190676000Y-136508857D01*
X192200000Y-137089429D02*
X191329143Y-137089429D01*
X191764571Y-137089429D02*
X191764571Y-135565429D01*
X191619428Y-135783143D01*
X191474286Y-135928286D01*
X191329143Y-136000857D01*
X193506286Y-136073429D02*
X193506286Y-137089429D01*
X193143429Y-135492857D02*
X192780572Y-136581429D01*
X193724000Y-136581429D01*
X194086858Y-135565429D02*
X194594858Y-137089429D01*
X195102858Y-135565429D01*
X189275143Y-131489429D02*
X189275143Y-129965429D01*
X189855715Y-129965429D01*
X190000857Y-130038000D01*
X190073429Y-130110571D01*
X190146000Y-130255714D01*
X190146000Y-130473429D01*
X190073429Y-130618571D01*
X190000857Y-130691143D01*
X189855715Y-130763714D01*
X189275143Y-130763714D01*
X190726572Y-130110571D02*
X190799143Y-130038000D01*
X190944286Y-129965429D01*
X191307143Y-129965429D01*
X191452286Y-130038000D01*
X191524857Y-130110571D01*
X191597429Y-130255714D01*
X191597429Y-130400857D01*
X191524857Y-130618571D01*
X190654000Y-131489429D01*
X191597429Y-131489429D01*
X190656571Y-126689429D02*
X189785714Y-126689429D01*
X190221142Y-126689429D02*
X190221142Y-125165429D01*
X190075999Y-125383143D01*
X189930857Y-125528286D01*
X189785714Y-125600857D01*
X191962857Y-125673429D02*
X191962857Y-126689429D01*
X191600000Y-125092857D02*
X191237143Y-126181429D01*
X192180571Y-126181429D01*
X192543429Y-125165429D02*
X193051429Y-126689429D01*
X193559429Y-125165429D01*
X189075143Y-120889429D02*
X189075143Y-119365429D01*
X189655715Y-119365429D01*
X189800857Y-119438000D01*
X189873429Y-119510571D01*
X189946000Y-119655714D01*
X189946000Y-119873429D01*
X189873429Y-120018571D01*
X189800857Y-120091143D01*
X189655715Y-120163714D01*
X189075143Y-120163714D01*
X190454000Y-119365429D02*
X191397429Y-119365429D01*
X190889429Y-119946000D01*
X191107143Y-119946000D01*
X191252286Y-120018571D01*
X191324857Y-120091143D01*
X191397429Y-120236286D01*
X191397429Y-120599143D01*
X191324857Y-120744286D01*
X191252286Y-120816857D01*
X191107143Y-120889429D01*
X190671715Y-120889429D01*
X190526572Y-120816857D01*
X190454000Y-120744286D01*
X189630858Y-115065429D02*
X190138858Y-116589429D01*
X190646858Y-115065429D01*
X191154858Y-116589429D02*
X191154858Y-115065429D01*
X191880572Y-116589429D02*
X191880572Y-115065429D01*
X192751429Y-116589429D01*
X192751429Y-115065429D01*
D11*
X173733334Y-122352381D02*
X173400000Y-121876190D01*
X173161905Y-122352381D02*
X173161905Y-121352381D01*
X173542858Y-121352381D01*
X173638096Y-121400000D01*
X173685715Y-121447619D01*
X173733334Y-121542857D01*
X173733334Y-121685714D01*
X173685715Y-121780952D01*
X173638096Y-121828571D01*
X173542858Y-121876190D01*
X173161905Y-121876190D01*
X174590477Y-121685714D02*
X174590477Y-122352381D01*
X174352381Y-121304762D02*
X174114286Y-122019048D01*
X174733334Y-122019048D01*
X174533334Y-134452381D02*
X174200000Y-133976190D01*
X173961905Y-134452381D02*
X173961905Y-133452381D01*
X174342858Y-133452381D01*
X174438096Y-133500000D01*
X174485715Y-133547619D01*
X174533334Y-133642857D01*
X174533334Y-133785714D01*
X174485715Y-133880952D01*
X174438096Y-133928571D01*
X174342858Y-133976190D01*
X173961905Y-133976190D01*
X175438096Y-133452381D02*
X174961905Y-133452381D01*
X174914286Y-133928571D01*
X174961905Y-133880952D01*
X175057143Y-133833333D01*
X175295239Y-133833333D01*
X175390477Y-133880952D01*
X175438096Y-133928571D01*
X175485715Y-134023810D01*
X175485715Y-134261905D01*
X175438096Y-134357143D01*
X175390477Y-134404762D01*
X175295239Y-134452381D01*
X175057143Y-134452381D01*
X174961905Y-134404762D01*
X174914286Y-134357143D01*
M02*
