G04 #@! TF.GenerationSoftware,KiCad,Pcbnew,5.1.5*
G04 #@! TF.CreationDate,2020-02-08T16:24:25+09:00*
G04 #@! TF.ProjectId,linearccd,6c696e65-6172-4636-9364-2e6b69636164,rev?*
G04 #@! TF.SameCoordinates,Original*
G04 #@! TF.FileFunction,Legend,Bot*
G04 #@! TF.FilePolarity,Positive*
%FSLAX46Y46*%
G04 Gerber Fmt 4.6, Leading zero omitted, Abs format (unit mm)*
G04 Created by KiCad (PCBNEW 5.1.5) date 2020-02-08 16:24:25*
%MOMM*%
%LPD*%
G04 APERTURE LIST*
%ADD10C,0.120000*%
%ADD11C,0.150000*%
G04 APERTURE END LIST*
D10*
X151114000Y-111566000D02*
G75*
G03X149114000Y-111566000I-1000000J0D01*
G01*
X149114000Y-111566000D02*
X146594000Y-111566000D01*
X146594000Y-111566000D02*
X146594000Y-83506000D01*
X146594000Y-83506000D02*
X153634000Y-83506000D01*
X153634000Y-83506000D02*
X153634000Y-111566000D01*
X153634000Y-111566000D02*
X151114000Y-111566000D01*
X105470000Y-79950000D02*
X100270000Y-79950000D01*
X100270000Y-79950000D02*
X100270000Y-80520000D01*
X100270000Y-82040000D02*
X100270000Y-83060000D01*
X100270000Y-84580000D02*
X100270000Y-85600000D01*
X100270000Y-87120000D02*
X100270000Y-88140000D01*
X100270000Y-89660000D02*
X100270000Y-90680000D01*
X100270000Y-92200000D02*
X100270000Y-93220000D01*
X100270000Y-94740000D02*
X100270000Y-95760000D01*
X100270000Y-97280000D02*
X100270000Y-98300000D01*
X100270000Y-99820000D02*
X100270000Y-100840000D01*
X100270000Y-102360000D02*
X100270000Y-103380000D01*
X100270000Y-104900000D02*
X100270000Y-105920000D01*
X100270000Y-107440000D02*
X100270000Y-108460000D01*
X100270000Y-109980000D02*
X100270000Y-111000000D01*
X100270000Y-112520000D02*
X100270000Y-113540000D01*
X100270000Y-115060000D02*
X100270000Y-116080000D01*
X100270000Y-117600000D02*
X100270000Y-118620000D01*
X100270000Y-120140000D02*
X100270000Y-121160000D01*
X100270000Y-122680000D02*
X100270000Y-123700000D01*
X100270000Y-125220000D02*
X100270000Y-126240000D01*
X100270000Y-127760000D02*
X100270000Y-128780000D01*
X100270000Y-130300000D02*
X100270000Y-130870000D01*
X105470000Y-130870000D02*
X100270000Y-130870000D01*
X105470000Y-79950000D02*
X105470000Y-80520000D01*
X105470000Y-82040000D02*
X105470000Y-83060000D01*
X105470000Y-84580000D02*
X105470000Y-85600000D01*
X105470000Y-87120000D02*
X105470000Y-88140000D01*
X105470000Y-89660000D02*
X105470000Y-90680000D01*
X105470000Y-92200000D02*
X105470000Y-93220000D01*
X105470000Y-94740000D02*
X105470000Y-95760000D01*
X105470000Y-97280000D02*
X105470000Y-98300000D01*
X105470000Y-99820000D02*
X105470000Y-100840000D01*
X105470000Y-102360000D02*
X105470000Y-103380000D01*
X105470000Y-104900000D02*
X105470000Y-105920000D01*
X105470000Y-107440000D02*
X105470000Y-108460000D01*
X105470000Y-109980000D02*
X105470000Y-111000000D01*
X105470000Y-112520000D02*
X105470000Y-113540000D01*
X105470000Y-115060000D02*
X105470000Y-116080000D01*
X105470000Y-117600000D02*
X105470000Y-118620000D01*
X105470000Y-120140000D02*
X105470000Y-121160000D01*
X105470000Y-122680000D02*
X105470000Y-123700000D01*
X105470000Y-125220000D02*
X105470000Y-126240000D01*
X105470000Y-127760000D02*
X105470000Y-128780000D01*
X105470000Y-130300000D02*
X105470000Y-130870000D01*
X100270000Y-80520000D02*
X98910000Y-80520000D01*
D11*
X150875904Y-112018380D02*
X150875904Y-112827904D01*
X150828285Y-112923142D01*
X150780666Y-112970761D01*
X150685428Y-113018380D01*
X150494952Y-113018380D01*
X150399714Y-112970761D01*
X150352095Y-112923142D01*
X150304476Y-112827904D01*
X150304476Y-112018380D01*
X149923523Y-112018380D02*
X149304476Y-112018380D01*
X149637809Y-112399333D01*
X149494952Y-112399333D01*
X149399714Y-112446952D01*
X149352095Y-112494571D01*
X149304476Y-112589809D01*
X149304476Y-112827904D01*
X149352095Y-112923142D01*
X149399714Y-112970761D01*
X149494952Y-113018380D01*
X149780666Y-113018380D01*
X149875904Y-112970761D01*
X149923523Y-112923142D01*
X108537333Y-79462380D02*
X108537333Y-80176666D01*
X108584952Y-80319523D01*
X108680190Y-80414761D01*
X108823047Y-80462380D01*
X108918285Y-80462380D01*
X107632571Y-79795714D02*
X107632571Y-80462380D01*
X107870666Y-79414761D02*
X108108761Y-80129047D01*
X107489714Y-80129047D01*
M02*
