G04 #@! TF.GenerationSoftware,KiCad,Pcbnew,5.1.5*
G04 #@! TF.CreationDate,2020-02-08T16:24:26+09:00*
G04 #@! TF.ProjectId,linearccd,6c696e65-6172-4636-9364-2e6b69636164,rev?*
G04 #@! TF.SameCoordinates,Original*
G04 #@! TF.FileFunction,Soldermask,Bot*
G04 #@! TF.FilePolarity,Negative*
%FSLAX46Y46*%
G04 Gerber Fmt 4.6, Leading zero omitted, Abs format (unit mm)*
G04 Created by KiCad (PCBNEW 5.1.5) date 2020-02-08 16:24:26*
%MOMM*%
%LPD*%
G04 APERTURE LIST*
%ADD10C,0.100000*%
G04 APERTURE END LIST*
D10*
G36*
X138315000Y-131203000D02*
G01*
X136513000Y-131203000D01*
X136513000Y-129401000D01*
X138315000Y-129401000D01*
X138315000Y-131203000D01*
G37*
G36*
X104253512Y-128643927D02*
G01*
X104402812Y-128673624D01*
X104566784Y-128741544D01*
X104714354Y-128840147D01*
X104826605Y-128952398D01*
X104845536Y-128967934D01*
X104867147Y-128979485D01*
X104890596Y-128986598D01*
X104914982Y-128989000D01*
X106941000Y-128989000D01*
X106941000Y-130091000D01*
X104914982Y-130091000D01*
X104890596Y-130093402D01*
X104867147Y-130100515D01*
X104845536Y-130112066D01*
X104826605Y-130127602D01*
X104714354Y-130239853D01*
X104566784Y-130338456D01*
X104402812Y-130406376D01*
X104253512Y-130436073D01*
X104228742Y-130441000D01*
X104051258Y-130441000D01*
X104026488Y-130436073D01*
X103877188Y-130406376D01*
X103713216Y-130338456D01*
X103565646Y-130239853D01*
X103440147Y-130114354D01*
X103341544Y-129966784D01*
X103273624Y-129802812D01*
X103239000Y-129628741D01*
X103239000Y-129451259D01*
X103273624Y-129277188D01*
X103341544Y-129113216D01*
X103440147Y-128965646D01*
X103565646Y-128840147D01*
X103713216Y-128741544D01*
X103877188Y-128673624D01*
X104026488Y-128643927D01*
X104051258Y-128639000D01*
X104228742Y-128639000D01*
X104253512Y-128643927D01*
G37*
G36*
X101713512Y-128643927D02*
G01*
X101862812Y-128673624D01*
X102026784Y-128741544D01*
X102174354Y-128840147D01*
X102299853Y-128965646D01*
X102398456Y-129113216D01*
X102466376Y-129277188D01*
X102501000Y-129451259D01*
X102501000Y-129628741D01*
X102466376Y-129802812D01*
X102398456Y-129966784D01*
X102299853Y-130114354D01*
X102174354Y-130239853D01*
X102026784Y-130338456D01*
X101862812Y-130406376D01*
X101713512Y-130436073D01*
X101688742Y-130441000D01*
X101511258Y-130441000D01*
X101486488Y-130436073D01*
X101337188Y-130406376D01*
X101173216Y-130338456D01*
X101025646Y-130239853D01*
X100913395Y-130127602D01*
X100894464Y-130112066D01*
X100872853Y-130100515D01*
X100849404Y-130093402D01*
X100825018Y-130091000D01*
X98799000Y-130091000D01*
X98799000Y-128989000D01*
X100825018Y-128989000D01*
X100849404Y-128986598D01*
X100872853Y-128979485D01*
X100894464Y-128967934D01*
X100913395Y-128952398D01*
X101025646Y-128840147D01*
X101173216Y-128741544D01*
X101337188Y-128673624D01*
X101486488Y-128643927D01*
X101511258Y-128639000D01*
X101688742Y-128639000D01*
X101713512Y-128643927D01*
G37*
G36*
X137527512Y-126865927D02*
G01*
X137676812Y-126895624D01*
X137840784Y-126963544D01*
X137988354Y-127062147D01*
X138113853Y-127187646D01*
X138212456Y-127335216D01*
X138280376Y-127499188D01*
X138315000Y-127673259D01*
X138315000Y-127850741D01*
X138280376Y-128024812D01*
X138212456Y-128188784D01*
X138113853Y-128336354D01*
X137988354Y-128461853D01*
X137840784Y-128560456D01*
X137676812Y-128628376D01*
X137527512Y-128658073D01*
X137502742Y-128663000D01*
X137325258Y-128663000D01*
X137300488Y-128658073D01*
X137151188Y-128628376D01*
X136987216Y-128560456D01*
X136839646Y-128461853D01*
X136714147Y-128336354D01*
X136615544Y-128188784D01*
X136547624Y-128024812D01*
X136513000Y-127850741D01*
X136513000Y-127673259D01*
X136547624Y-127499188D01*
X136615544Y-127335216D01*
X136714147Y-127187646D01*
X136839646Y-127062147D01*
X136987216Y-126963544D01*
X137151188Y-126895624D01*
X137300488Y-126865927D01*
X137325258Y-126861000D01*
X137502742Y-126861000D01*
X137527512Y-126865927D01*
G37*
G36*
X101713512Y-126103927D02*
G01*
X101862812Y-126133624D01*
X102026784Y-126201544D01*
X102174354Y-126300147D01*
X102299853Y-126425646D01*
X102398456Y-126573216D01*
X102466376Y-126737188D01*
X102501000Y-126911259D01*
X102501000Y-127088741D01*
X102466376Y-127262812D01*
X102398456Y-127426784D01*
X102299853Y-127574354D01*
X102174354Y-127699853D01*
X102026784Y-127798456D01*
X101862812Y-127866376D01*
X101713512Y-127896073D01*
X101688742Y-127901000D01*
X101511258Y-127901000D01*
X101486488Y-127896073D01*
X101337188Y-127866376D01*
X101173216Y-127798456D01*
X101025646Y-127699853D01*
X100913395Y-127587602D01*
X100894464Y-127572066D01*
X100872853Y-127560515D01*
X100849404Y-127553402D01*
X100825018Y-127551000D01*
X98799000Y-127551000D01*
X98799000Y-126449000D01*
X100825018Y-126449000D01*
X100849404Y-126446598D01*
X100872853Y-126439485D01*
X100894464Y-126427934D01*
X100913395Y-126412398D01*
X101025646Y-126300147D01*
X101173216Y-126201544D01*
X101337188Y-126133624D01*
X101486488Y-126103927D01*
X101511258Y-126099000D01*
X101688742Y-126099000D01*
X101713512Y-126103927D01*
G37*
G36*
X104253512Y-126103927D02*
G01*
X104402812Y-126133624D01*
X104566784Y-126201544D01*
X104714354Y-126300147D01*
X104826605Y-126412398D01*
X104845536Y-126427934D01*
X104867147Y-126439485D01*
X104890596Y-126446598D01*
X104914982Y-126449000D01*
X106941000Y-126449000D01*
X106941000Y-127551000D01*
X104914982Y-127551000D01*
X104890596Y-127553402D01*
X104867147Y-127560515D01*
X104845536Y-127572066D01*
X104826605Y-127587602D01*
X104714354Y-127699853D01*
X104566784Y-127798456D01*
X104402812Y-127866376D01*
X104253512Y-127896073D01*
X104228742Y-127901000D01*
X104051258Y-127901000D01*
X104026488Y-127896073D01*
X103877188Y-127866376D01*
X103713216Y-127798456D01*
X103565646Y-127699853D01*
X103440147Y-127574354D01*
X103341544Y-127426784D01*
X103273624Y-127262812D01*
X103239000Y-127088741D01*
X103239000Y-126911259D01*
X103273624Y-126737188D01*
X103341544Y-126573216D01*
X103440147Y-126425646D01*
X103565646Y-126300147D01*
X103713216Y-126201544D01*
X103877188Y-126133624D01*
X104026488Y-126103927D01*
X104051258Y-126099000D01*
X104228742Y-126099000D01*
X104253512Y-126103927D01*
G37*
G36*
X137527512Y-124325927D02*
G01*
X137676812Y-124355624D01*
X137840784Y-124423544D01*
X137988354Y-124522147D01*
X138113853Y-124647646D01*
X138212456Y-124795216D01*
X138280376Y-124959188D01*
X138315000Y-125133259D01*
X138315000Y-125310741D01*
X138280376Y-125484812D01*
X138212456Y-125648784D01*
X138113853Y-125796354D01*
X137988354Y-125921853D01*
X137840784Y-126020456D01*
X137676812Y-126088376D01*
X137527512Y-126118073D01*
X137502742Y-126123000D01*
X137325258Y-126123000D01*
X137300488Y-126118073D01*
X137151188Y-126088376D01*
X136987216Y-126020456D01*
X136839646Y-125921853D01*
X136714147Y-125796354D01*
X136615544Y-125648784D01*
X136547624Y-125484812D01*
X136513000Y-125310741D01*
X136513000Y-125133259D01*
X136547624Y-124959188D01*
X136615544Y-124795216D01*
X136714147Y-124647646D01*
X136839646Y-124522147D01*
X136987216Y-124423544D01*
X137151188Y-124355624D01*
X137300488Y-124325927D01*
X137325258Y-124321000D01*
X137502742Y-124321000D01*
X137527512Y-124325927D01*
G37*
G36*
X101713512Y-123563927D02*
G01*
X101862812Y-123593624D01*
X102026784Y-123661544D01*
X102174354Y-123760147D01*
X102299853Y-123885646D01*
X102398456Y-124033216D01*
X102466376Y-124197188D01*
X102501000Y-124371259D01*
X102501000Y-124548741D01*
X102466376Y-124722812D01*
X102398456Y-124886784D01*
X102299853Y-125034354D01*
X102174354Y-125159853D01*
X102026784Y-125258456D01*
X101862812Y-125326376D01*
X101713512Y-125356073D01*
X101688742Y-125361000D01*
X101511258Y-125361000D01*
X101486488Y-125356073D01*
X101337188Y-125326376D01*
X101173216Y-125258456D01*
X101025646Y-125159853D01*
X100913395Y-125047602D01*
X100894464Y-125032066D01*
X100872853Y-125020515D01*
X100849404Y-125013402D01*
X100825018Y-125011000D01*
X98799000Y-125011000D01*
X98799000Y-123909000D01*
X100825018Y-123909000D01*
X100849404Y-123906598D01*
X100872853Y-123899485D01*
X100894464Y-123887934D01*
X100913395Y-123872398D01*
X101025646Y-123760147D01*
X101173216Y-123661544D01*
X101337188Y-123593624D01*
X101486488Y-123563927D01*
X101511258Y-123559000D01*
X101688742Y-123559000D01*
X101713512Y-123563927D01*
G37*
G36*
X104253512Y-123563927D02*
G01*
X104402812Y-123593624D01*
X104566784Y-123661544D01*
X104714354Y-123760147D01*
X104826605Y-123872398D01*
X104845536Y-123887934D01*
X104867147Y-123899485D01*
X104890596Y-123906598D01*
X104914982Y-123909000D01*
X106941000Y-123909000D01*
X106941000Y-125011000D01*
X104914982Y-125011000D01*
X104890596Y-125013402D01*
X104867147Y-125020515D01*
X104845536Y-125032066D01*
X104826605Y-125047602D01*
X104714354Y-125159853D01*
X104566784Y-125258456D01*
X104402812Y-125326376D01*
X104253512Y-125356073D01*
X104228742Y-125361000D01*
X104051258Y-125361000D01*
X104026488Y-125356073D01*
X103877188Y-125326376D01*
X103713216Y-125258456D01*
X103565646Y-125159853D01*
X103440147Y-125034354D01*
X103341544Y-124886784D01*
X103273624Y-124722812D01*
X103239000Y-124548741D01*
X103239000Y-124371259D01*
X103273624Y-124197188D01*
X103341544Y-124033216D01*
X103440147Y-123885646D01*
X103565646Y-123760147D01*
X103713216Y-123661544D01*
X103877188Y-123593624D01*
X104026488Y-123563927D01*
X104051258Y-123559000D01*
X104228742Y-123559000D01*
X104253512Y-123563927D01*
G37*
G36*
X154669142Y-122408242D02*
G01*
X154817101Y-122469529D01*
X154950255Y-122558499D01*
X155063501Y-122671745D01*
X155152471Y-122804899D01*
X155213758Y-122952858D01*
X155245000Y-123109925D01*
X155245000Y-123270075D01*
X155213758Y-123427142D01*
X155152471Y-123575101D01*
X155063501Y-123708255D01*
X154950255Y-123821501D01*
X154817101Y-123910471D01*
X154669142Y-123971758D01*
X154512075Y-124003000D01*
X154351925Y-124003000D01*
X154194858Y-123971758D01*
X154046899Y-123910471D01*
X153913745Y-123821501D01*
X153800499Y-123708255D01*
X153711529Y-123575101D01*
X153650242Y-123427142D01*
X153619000Y-123270075D01*
X153619000Y-123109925D01*
X153650242Y-122952858D01*
X153711529Y-122804899D01*
X153800499Y-122671745D01*
X153913745Y-122558499D01*
X154046899Y-122469529D01*
X154194858Y-122408242D01*
X154351925Y-122377000D01*
X154512075Y-122377000D01*
X154669142Y-122408242D01*
G37*
G36*
X149589142Y-122408242D02*
G01*
X149737101Y-122469529D01*
X149870255Y-122558499D01*
X149983501Y-122671745D01*
X150072471Y-122804899D01*
X150133758Y-122952858D01*
X150165000Y-123109925D01*
X150165000Y-123270075D01*
X150133758Y-123427142D01*
X150072471Y-123575101D01*
X149983501Y-123708255D01*
X149870255Y-123821501D01*
X149737101Y-123910471D01*
X149589142Y-123971758D01*
X149432075Y-124003000D01*
X149271925Y-124003000D01*
X149114858Y-123971758D01*
X148966899Y-123910471D01*
X148833745Y-123821501D01*
X148720499Y-123708255D01*
X148631529Y-123575101D01*
X148570242Y-123427142D01*
X148539000Y-123270075D01*
X148539000Y-123109925D01*
X148570242Y-122952858D01*
X148631529Y-122804899D01*
X148720499Y-122671745D01*
X148833745Y-122558499D01*
X148966899Y-122469529D01*
X149114858Y-122408242D01*
X149271925Y-122377000D01*
X149432075Y-122377000D01*
X149589142Y-122408242D01*
G37*
G36*
X152129142Y-122408242D02*
G01*
X152277101Y-122469529D01*
X152410255Y-122558499D01*
X152523501Y-122671745D01*
X152612471Y-122804899D01*
X152673758Y-122952858D01*
X152705000Y-123109925D01*
X152705000Y-123270075D01*
X152673758Y-123427142D01*
X152612471Y-123575101D01*
X152523501Y-123708255D01*
X152410255Y-123821501D01*
X152277101Y-123910471D01*
X152129142Y-123971758D01*
X151972075Y-124003000D01*
X151811925Y-124003000D01*
X151654858Y-123971758D01*
X151506899Y-123910471D01*
X151373745Y-123821501D01*
X151260499Y-123708255D01*
X151171529Y-123575101D01*
X151110242Y-123427142D01*
X151079000Y-123270075D01*
X151079000Y-123109925D01*
X151110242Y-122952858D01*
X151171529Y-122804899D01*
X151260499Y-122671745D01*
X151373745Y-122558499D01*
X151506899Y-122469529D01*
X151654858Y-122408242D01*
X151811925Y-122377000D01*
X151972075Y-122377000D01*
X152129142Y-122408242D01*
G37*
G36*
X104253512Y-121023927D02*
G01*
X104402812Y-121053624D01*
X104566784Y-121121544D01*
X104714354Y-121220147D01*
X104826605Y-121332398D01*
X104845536Y-121347934D01*
X104867147Y-121359485D01*
X104890596Y-121366598D01*
X104914982Y-121369000D01*
X106941000Y-121369000D01*
X106941000Y-122471000D01*
X104914982Y-122471000D01*
X104890596Y-122473402D01*
X104867147Y-122480515D01*
X104845536Y-122492066D01*
X104826605Y-122507602D01*
X104714354Y-122619853D01*
X104566784Y-122718456D01*
X104402812Y-122786376D01*
X104253512Y-122816073D01*
X104228742Y-122821000D01*
X104051258Y-122821000D01*
X104026488Y-122816073D01*
X103877188Y-122786376D01*
X103713216Y-122718456D01*
X103565646Y-122619853D01*
X103440147Y-122494354D01*
X103341544Y-122346784D01*
X103273624Y-122182812D01*
X103239000Y-122008741D01*
X103239000Y-121831259D01*
X103273624Y-121657188D01*
X103341544Y-121493216D01*
X103440147Y-121345646D01*
X103565646Y-121220147D01*
X103713216Y-121121544D01*
X103877188Y-121053624D01*
X104026488Y-121023927D01*
X104051258Y-121019000D01*
X104228742Y-121019000D01*
X104253512Y-121023927D01*
G37*
G36*
X101713512Y-121023927D02*
G01*
X101862812Y-121053624D01*
X102026784Y-121121544D01*
X102174354Y-121220147D01*
X102299853Y-121345646D01*
X102398456Y-121493216D01*
X102466376Y-121657188D01*
X102501000Y-121831259D01*
X102501000Y-122008741D01*
X102466376Y-122182812D01*
X102398456Y-122346784D01*
X102299853Y-122494354D01*
X102174354Y-122619853D01*
X102026784Y-122718456D01*
X101862812Y-122786376D01*
X101713512Y-122816073D01*
X101688742Y-122821000D01*
X101511258Y-122821000D01*
X101486488Y-122816073D01*
X101337188Y-122786376D01*
X101173216Y-122718456D01*
X101025646Y-122619853D01*
X100913395Y-122507602D01*
X100894464Y-122492066D01*
X100872853Y-122480515D01*
X100849404Y-122473402D01*
X100825018Y-122471000D01*
X98799000Y-122471000D01*
X98799000Y-121369000D01*
X100825018Y-121369000D01*
X100849404Y-121366598D01*
X100872853Y-121359485D01*
X100894464Y-121347934D01*
X100913395Y-121332398D01*
X101025646Y-121220147D01*
X101173216Y-121121544D01*
X101337188Y-121053624D01*
X101486488Y-121023927D01*
X101511258Y-121019000D01*
X101688742Y-121019000D01*
X101713512Y-121023927D01*
G37*
G36*
X104253512Y-118483927D02*
G01*
X104402812Y-118513624D01*
X104566784Y-118581544D01*
X104714354Y-118680147D01*
X104826605Y-118792398D01*
X104845536Y-118807934D01*
X104867147Y-118819485D01*
X104890596Y-118826598D01*
X104914982Y-118829000D01*
X106941000Y-118829000D01*
X106941000Y-119931000D01*
X104914982Y-119931000D01*
X104890596Y-119933402D01*
X104867147Y-119940515D01*
X104845536Y-119952066D01*
X104826605Y-119967602D01*
X104714354Y-120079853D01*
X104566784Y-120178456D01*
X104402812Y-120246376D01*
X104253512Y-120276073D01*
X104228742Y-120281000D01*
X104051258Y-120281000D01*
X104026488Y-120276073D01*
X103877188Y-120246376D01*
X103713216Y-120178456D01*
X103565646Y-120079853D01*
X103440147Y-119954354D01*
X103341544Y-119806784D01*
X103273624Y-119642812D01*
X103239000Y-119468741D01*
X103239000Y-119291259D01*
X103273624Y-119117188D01*
X103341544Y-118953216D01*
X103440147Y-118805646D01*
X103565646Y-118680147D01*
X103713216Y-118581544D01*
X103877188Y-118513624D01*
X104026488Y-118483927D01*
X104051258Y-118479000D01*
X104228742Y-118479000D01*
X104253512Y-118483927D01*
G37*
G36*
X101713512Y-118483927D02*
G01*
X101862812Y-118513624D01*
X102026784Y-118581544D01*
X102174354Y-118680147D01*
X102299853Y-118805646D01*
X102398456Y-118953216D01*
X102466376Y-119117188D01*
X102501000Y-119291259D01*
X102501000Y-119468741D01*
X102466376Y-119642812D01*
X102398456Y-119806784D01*
X102299853Y-119954354D01*
X102174354Y-120079853D01*
X102026784Y-120178456D01*
X101862812Y-120246376D01*
X101713512Y-120276073D01*
X101688742Y-120281000D01*
X101511258Y-120281000D01*
X101486488Y-120276073D01*
X101337188Y-120246376D01*
X101173216Y-120178456D01*
X101025646Y-120079853D01*
X100913395Y-119967602D01*
X100894464Y-119952066D01*
X100872853Y-119940515D01*
X100849404Y-119933402D01*
X100825018Y-119931000D01*
X98799000Y-119931000D01*
X98799000Y-118829000D01*
X100825018Y-118829000D01*
X100849404Y-118826598D01*
X100872853Y-118819485D01*
X100894464Y-118807934D01*
X100913395Y-118792398D01*
X101025646Y-118680147D01*
X101173216Y-118581544D01*
X101337188Y-118513624D01*
X101486488Y-118483927D01*
X101511258Y-118479000D01*
X101688742Y-118479000D01*
X101713512Y-118483927D01*
G37*
G36*
X101713512Y-115943927D02*
G01*
X101862812Y-115973624D01*
X102026784Y-116041544D01*
X102174354Y-116140147D01*
X102299853Y-116265646D01*
X102398456Y-116413216D01*
X102466376Y-116577188D01*
X102501000Y-116751259D01*
X102501000Y-116928741D01*
X102466376Y-117102812D01*
X102398456Y-117266784D01*
X102299853Y-117414354D01*
X102174354Y-117539853D01*
X102026784Y-117638456D01*
X101862812Y-117706376D01*
X101713512Y-117736073D01*
X101688742Y-117741000D01*
X101511258Y-117741000D01*
X101486488Y-117736073D01*
X101337188Y-117706376D01*
X101173216Y-117638456D01*
X101025646Y-117539853D01*
X100913395Y-117427602D01*
X100894464Y-117412066D01*
X100872853Y-117400515D01*
X100849404Y-117393402D01*
X100825018Y-117391000D01*
X98799000Y-117391000D01*
X98799000Y-116289000D01*
X100825018Y-116289000D01*
X100849404Y-116286598D01*
X100872853Y-116279485D01*
X100894464Y-116267934D01*
X100913395Y-116252398D01*
X101025646Y-116140147D01*
X101173216Y-116041544D01*
X101337188Y-115973624D01*
X101486488Y-115943927D01*
X101511258Y-115939000D01*
X101688742Y-115939000D01*
X101713512Y-115943927D01*
G37*
G36*
X104253512Y-115943927D02*
G01*
X104402812Y-115973624D01*
X104566784Y-116041544D01*
X104714354Y-116140147D01*
X104826605Y-116252398D01*
X104845536Y-116267934D01*
X104867147Y-116279485D01*
X104890596Y-116286598D01*
X104914982Y-116289000D01*
X106941000Y-116289000D01*
X106941000Y-117391000D01*
X104914982Y-117391000D01*
X104890596Y-117393402D01*
X104867147Y-117400515D01*
X104845536Y-117412066D01*
X104826605Y-117427602D01*
X104714354Y-117539853D01*
X104566784Y-117638456D01*
X104402812Y-117706376D01*
X104253512Y-117736073D01*
X104228742Y-117741000D01*
X104051258Y-117741000D01*
X104026488Y-117736073D01*
X103877188Y-117706376D01*
X103713216Y-117638456D01*
X103565646Y-117539853D01*
X103440147Y-117414354D01*
X103341544Y-117266784D01*
X103273624Y-117102812D01*
X103239000Y-116928741D01*
X103239000Y-116751259D01*
X103273624Y-116577188D01*
X103341544Y-116413216D01*
X103440147Y-116265646D01*
X103565646Y-116140147D01*
X103713216Y-116041544D01*
X103877188Y-115973624D01*
X104026488Y-115943927D01*
X104051258Y-115939000D01*
X104228742Y-115939000D01*
X104253512Y-115943927D01*
G37*
G36*
X101713512Y-113403927D02*
G01*
X101862812Y-113433624D01*
X102026784Y-113501544D01*
X102174354Y-113600147D01*
X102299853Y-113725646D01*
X102398456Y-113873216D01*
X102466376Y-114037188D01*
X102501000Y-114211259D01*
X102501000Y-114388741D01*
X102466376Y-114562812D01*
X102398456Y-114726784D01*
X102299853Y-114874354D01*
X102174354Y-114999853D01*
X102026784Y-115098456D01*
X101862812Y-115166376D01*
X101713512Y-115196073D01*
X101688742Y-115201000D01*
X101511258Y-115201000D01*
X101486488Y-115196073D01*
X101337188Y-115166376D01*
X101173216Y-115098456D01*
X101025646Y-114999853D01*
X100913395Y-114887602D01*
X100894464Y-114872066D01*
X100872853Y-114860515D01*
X100849404Y-114853402D01*
X100825018Y-114851000D01*
X98799000Y-114851000D01*
X98799000Y-113749000D01*
X100825018Y-113749000D01*
X100849404Y-113746598D01*
X100872853Y-113739485D01*
X100894464Y-113727934D01*
X100913395Y-113712398D01*
X101025646Y-113600147D01*
X101173216Y-113501544D01*
X101337188Y-113433624D01*
X101486488Y-113403927D01*
X101511258Y-113399000D01*
X101688742Y-113399000D01*
X101713512Y-113403927D01*
G37*
G36*
X104253512Y-113403927D02*
G01*
X104402812Y-113433624D01*
X104566784Y-113501544D01*
X104714354Y-113600147D01*
X104826605Y-113712398D01*
X104845536Y-113727934D01*
X104867147Y-113739485D01*
X104890596Y-113746598D01*
X104914982Y-113749000D01*
X106941000Y-113749000D01*
X106941000Y-114851000D01*
X104914982Y-114851000D01*
X104890596Y-114853402D01*
X104867147Y-114860515D01*
X104845536Y-114872066D01*
X104826605Y-114887602D01*
X104714354Y-114999853D01*
X104566784Y-115098456D01*
X104402812Y-115166376D01*
X104253512Y-115196073D01*
X104228742Y-115201000D01*
X104051258Y-115201000D01*
X104026488Y-115196073D01*
X103877188Y-115166376D01*
X103713216Y-115098456D01*
X103565646Y-114999853D01*
X103440147Y-114874354D01*
X103341544Y-114726784D01*
X103273624Y-114562812D01*
X103239000Y-114388741D01*
X103239000Y-114211259D01*
X103273624Y-114037188D01*
X103341544Y-113873216D01*
X103440147Y-113725646D01*
X103565646Y-113600147D01*
X103713216Y-113501544D01*
X103877188Y-113433624D01*
X104026488Y-113403927D01*
X104051258Y-113399000D01*
X104228742Y-113399000D01*
X104253512Y-113403927D01*
G37*
G36*
X101713512Y-110863927D02*
G01*
X101862812Y-110893624D01*
X102026784Y-110961544D01*
X102174354Y-111060147D01*
X102299853Y-111185646D01*
X102398456Y-111333216D01*
X102466376Y-111497188D01*
X102501000Y-111671259D01*
X102501000Y-111848741D01*
X102466376Y-112022812D01*
X102398456Y-112186784D01*
X102299853Y-112334354D01*
X102174354Y-112459853D01*
X102026784Y-112558456D01*
X101862812Y-112626376D01*
X101713512Y-112656073D01*
X101688742Y-112661000D01*
X101511258Y-112661000D01*
X101486488Y-112656073D01*
X101337188Y-112626376D01*
X101173216Y-112558456D01*
X101025646Y-112459853D01*
X100913395Y-112347602D01*
X100894464Y-112332066D01*
X100872853Y-112320515D01*
X100849404Y-112313402D01*
X100825018Y-112311000D01*
X98799000Y-112311000D01*
X98799000Y-111209000D01*
X100825018Y-111209000D01*
X100849404Y-111206598D01*
X100872853Y-111199485D01*
X100894464Y-111187934D01*
X100913395Y-111172398D01*
X101025646Y-111060147D01*
X101173216Y-110961544D01*
X101337188Y-110893624D01*
X101486488Y-110863927D01*
X101511258Y-110859000D01*
X101688742Y-110859000D01*
X101713512Y-110863927D01*
G37*
G36*
X104253512Y-110863927D02*
G01*
X104402812Y-110893624D01*
X104566784Y-110961544D01*
X104714354Y-111060147D01*
X104826605Y-111172398D01*
X104845536Y-111187934D01*
X104867147Y-111199485D01*
X104890596Y-111206598D01*
X104914982Y-111209000D01*
X106941000Y-111209000D01*
X106941000Y-112311000D01*
X104914982Y-112311000D01*
X104890596Y-112313402D01*
X104867147Y-112320515D01*
X104845536Y-112332066D01*
X104826605Y-112347602D01*
X104714354Y-112459853D01*
X104566784Y-112558456D01*
X104402812Y-112626376D01*
X104253512Y-112656073D01*
X104228742Y-112661000D01*
X104051258Y-112661000D01*
X104026488Y-112656073D01*
X103877188Y-112626376D01*
X103713216Y-112558456D01*
X103565646Y-112459853D01*
X103440147Y-112334354D01*
X103341544Y-112186784D01*
X103273624Y-112022812D01*
X103239000Y-111848741D01*
X103239000Y-111671259D01*
X103273624Y-111497188D01*
X103341544Y-111333216D01*
X103440147Y-111185646D01*
X103565646Y-111060147D01*
X103713216Y-110961544D01*
X103877188Y-110893624D01*
X104026488Y-110863927D01*
X104051258Y-110859000D01*
X104228742Y-110859000D01*
X104253512Y-110863927D01*
G37*
G36*
X159651000Y-111137000D02*
G01*
X157849000Y-111137000D01*
X157849000Y-109335000D01*
X159651000Y-109335000D01*
X159651000Y-111137000D01*
G37*
G36*
X155760823Y-109397313D02*
G01*
X155921242Y-109445976D01*
X155990155Y-109482811D01*
X156069078Y-109524996D01*
X156198659Y-109631341D01*
X156305004Y-109760922D01*
X156305005Y-109760924D01*
X156384024Y-109908758D01*
X156432687Y-110069177D01*
X156449117Y-110236000D01*
X156432687Y-110402823D01*
X156384024Y-110563242D01*
X156313114Y-110695906D01*
X156305004Y-110711078D01*
X156198659Y-110840659D01*
X156069078Y-110947004D01*
X156069076Y-110947005D01*
X155921242Y-111026024D01*
X155760823Y-111074687D01*
X155635804Y-111087000D01*
X154752196Y-111087000D01*
X154627177Y-111074687D01*
X154466758Y-111026024D01*
X154318924Y-110947005D01*
X154318922Y-110947004D01*
X154189341Y-110840659D01*
X154082996Y-110711078D01*
X154074886Y-110695906D01*
X154003976Y-110563242D01*
X153955313Y-110402823D01*
X153938883Y-110236000D01*
X153955313Y-110069177D01*
X154003976Y-109908758D01*
X154082995Y-109760924D01*
X154082996Y-109760922D01*
X154189341Y-109631341D01*
X154318922Y-109524996D01*
X154397845Y-109482811D01*
X154466758Y-109445976D01*
X154627177Y-109397313D01*
X154752196Y-109385000D01*
X155635804Y-109385000D01*
X155760823Y-109397313D01*
G37*
G36*
X146285000Y-111087000D02*
G01*
X143783000Y-111087000D01*
X143783000Y-109385000D01*
X146285000Y-109385000D01*
X146285000Y-111087000D01*
G37*
G36*
X101713512Y-108323927D02*
G01*
X101862812Y-108353624D01*
X102026784Y-108421544D01*
X102174354Y-108520147D01*
X102299853Y-108645646D01*
X102398456Y-108793216D01*
X102466376Y-108957188D01*
X102501000Y-109131259D01*
X102501000Y-109308741D01*
X102466376Y-109482812D01*
X102398456Y-109646784D01*
X102299853Y-109794354D01*
X102174354Y-109919853D01*
X102026784Y-110018456D01*
X101862812Y-110086376D01*
X101713512Y-110116073D01*
X101688742Y-110121000D01*
X101511258Y-110121000D01*
X101486488Y-110116073D01*
X101337188Y-110086376D01*
X101173216Y-110018456D01*
X101025646Y-109919853D01*
X100913395Y-109807602D01*
X100894464Y-109792066D01*
X100872853Y-109780515D01*
X100849404Y-109773402D01*
X100825018Y-109771000D01*
X98799000Y-109771000D01*
X98799000Y-108669000D01*
X100825018Y-108669000D01*
X100849404Y-108666598D01*
X100872853Y-108659485D01*
X100894464Y-108647934D01*
X100913395Y-108632398D01*
X101025646Y-108520147D01*
X101173216Y-108421544D01*
X101337188Y-108353624D01*
X101486488Y-108323927D01*
X101511258Y-108319000D01*
X101688742Y-108319000D01*
X101713512Y-108323927D01*
G37*
G36*
X104253512Y-108323927D02*
G01*
X104402812Y-108353624D01*
X104566784Y-108421544D01*
X104714354Y-108520147D01*
X104826605Y-108632398D01*
X104845536Y-108647934D01*
X104867147Y-108659485D01*
X104890596Y-108666598D01*
X104914982Y-108669000D01*
X106941000Y-108669000D01*
X106941000Y-109771000D01*
X104914982Y-109771000D01*
X104890596Y-109773402D01*
X104867147Y-109780515D01*
X104845536Y-109792066D01*
X104826605Y-109807602D01*
X104714354Y-109919853D01*
X104566784Y-110018456D01*
X104402812Y-110086376D01*
X104253512Y-110116073D01*
X104228742Y-110121000D01*
X104051258Y-110121000D01*
X104026488Y-110116073D01*
X103877188Y-110086376D01*
X103713216Y-110018456D01*
X103565646Y-109919853D01*
X103440147Y-109794354D01*
X103341544Y-109646784D01*
X103273624Y-109482812D01*
X103239000Y-109308741D01*
X103239000Y-109131259D01*
X103273624Y-108957188D01*
X103341544Y-108793216D01*
X103440147Y-108645646D01*
X103565646Y-108520147D01*
X103713216Y-108421544D01*
X103877188Y-108353624D01*
X104026488Y-108323927D01*
X104051258Y-108319000D01*
X104228742Y-108319000D01*
X104253512Y-108323927D01*
G37*
G36*
X158863512Y-106799927D02*
G01*
X159012812Y-106829624D01*
X159176784Y-106897544D01*
X159324354Y-106996147D01*
X159449853Y-107121646D01*
X159548456Y-107269216D01*
X159616376Y-107433188D01*
X159651000Y-107607259D01*
X159651000Y-107784741D01*
X159616376Y-107958812D01*
X159548456Y-108122784D01*
X159449853Y-108270354D01*
X159324354Y-108395853D01*
X159176784Y-108494456D01*
X159012812Y-108562376D01*
X158863512Y-108592073D01*
X158838742Y-108597000D01*
X158661258Y-108597000D01*
X158636488Y-108592073D01*
X158487188Y-108562376D01*
X158323216Y-108494456D01*
X158175646Y-108395853D01*
X158050147Y-108270354D01*
X157951544Y-108122784D01*
X157883624Y-107958812D01*
X157849000Y-107784741D01*
X157849000Y-107607259D01*
X157883624Y-107433188D01*
X157951544Y-107269216D01*
X158050147Y-107121646D01*
X158175646Y-106996147D01*
X158323216Y-106897544D01*
X158487188Y-106829624D01*
X158636488Y-106799927D01*
X158661258Y-106795000D01*
X158838742Y-106795000D01*
X158863512Y-106799927D01*
G37*
G36*
X145600823Y-106857313D02*
G01*
X145761242Y-106905976D01*
X145830155Y-106942811D01*
X145909078Y-106984996D01*
X146038659Y-107091341D01*
X146145004Y-107220922D01*
X146145005Y-107220924D01*
X146224024Y-107368758D01*
X146272687Y-107529177D01*
X146289117Y-107696000D01*
X146272687Y-107862823D01*
X146224024Y-108023242D01*
X146153114Y-108155906D01*
X146145004Y-108171078D01*
X146038659Y-108300659D01*
X145909078Y-108407004D01*
X145909076Y-108407005D01*
X145761242Y-108486024D01*
X145600823Y-108534687D01*
X145475804Y-108547000D01*
X144592196Y-108547000D01*
X144467177Y-108534687D01*
X144306758Y-108486024D01*
X144158924Y-108407005D01*
X144158922Y-108407004D01*
X144029341Y-108300659D01*
X143922996Y-108171078D01*
X143914886Y-108155906D01*
X143843976Y-108023242D01*
X143795313Y-107862823D01*
X143778883Y-107696000D01*
X143795313Y-107529177D01*
X143843976Y-107368758D01*
X143922995Y-107220924D01*
X143922996Y-107220922D01*
X144029341Y-107091341D01*
X144158922Y-106984996D01*
X144237845Y-106942811D01*
X144306758Y-106905976D01*
X144467177Y-106857313D01*
X144592196Y-106845000D01*
X145475804Y-106845000D01*
X145600823Y-106857313D01*
G37*
G36*
X155760823Y-106857313D02*
G01*
X155921242Y-106905976D01*
X155990155Y-106942811D01*
X156069078Y-106984996D01*
X156198659Y-107091341D01*
X156305004Y-107220922D01*
X156305005Y-107220924D01*
X156384024Y-107368758D01*
X156432687Y-107529177D01*
X156449117Y-107696000D01*
X156432687Y-107862823D01*
X156384024Y-108023242D01*
X156313114Y-108155906D01*
X156305004Y-108171078D01*
X156198659Y-108300659D01*
X156069078Y-108407004D01*
X156069076Y-108407005D01*
X155921242Y-108486024D01*
X155760823Y-108534687D01*
X155635804Y-108547000D01*
X154752196Y-108547000D01*
X154627177Y-108534687D01*
X154466758Y-108486024D01*
X154318924Y-108407005D01*
X154318922Y-108407004D01*
X154189341Y-108300659D01*
X154082996Y-108171078D01*
X154074886Y-108155906D01*
X154003976Y-108023242D01*
X153955313Y-107862823D01*
X153938883Y-107696000D01*
X153955313Y-107529177D01*
X154003976Y-107368758D01*
X154082995Y-107220924D01*
X154082996Y-107220922D01*
X154189341Y-107091341D01*
X154318922Y-106984996D01*
X154397845Y-106942811D01*
X154466758Y-106905976D01*
X154627177Y-106857313D01*
X154752196Y-106845000D01*
X155635804Y-106845000D01*
X155760823Y-106857313D01*
G37*
G36*
X104253512Y-105783927D02*
G01*
X104402812Y-105813624D01*
X104566784Y-105881544D01*
X104714354Y-105980147D01*
X104826605Y-106092398D01*
X104845536Y-106107934D01*
X104867147Y-106119485D01*
X104890596Y-106126598D01*
X104914982Y-106129000D01*
X106941000Y-106129000D01*
X106941000Y-107231000D01*
X104914982Y-107231000D01*
X104890596Y-107233402D01*
X104867147Y-107240515D01*
X104845536Y-107252066D01*
X104826605Y-107267602D01*
X104714354Y-107379853D01*
X104566784Y-107478456D01*
X104402812Y-107546376D01*
X104253512Y-107576073D01*
X104228742Y-107581000D01*
X104051258Y-107581000D01*
X104026488Y-107576073D01*
X103877188Y-107546376D01*
X103713216Y-107478456D01*
X103565646Y-107379853D01*
X103440147Y-107254354D01*
X103341544Y-107106784D01*
X103273624Y-106942812D01*
X103239000Y-106768741D01*
X103239000Y-106591259D01*
X103273624Y-106417188D01*
X103341544Y-106253216D01*
X103440147Y-106105646D01*
X103565646Y-105980147D01*
X103713216Y-105881544D01*
X103877188Y-105813624D01*
X104026488Y-105783927D01*
X104051258Y-105779000D01*
X104228742Y-105779000D01*
X104253512Y-105783927D01*
G37*
G36*
X101713512Y-105783927D02*
G01*
X101862812Y-105813624D01*
X102026784Y-105881544D01*
X102174354Y-105980147D01*
X102299853Y-106105646D01*
X102398456Y-106253216D01*
X102466376Y-106417188D01*
X102501000Y-106591259D01*
X102501000Y-106768741D01*
X102466376Y-106942812D01*
X102398456Y-107106784D01*
X102299853Y-107254354D01*
X102174354Y-107379853D01*
X102026784Y-107478456D01*
X101862812Y-107546376D01*
X101713512Y-107576073D01*
X101688742Y-107581000D01*
X101511258Y-107581000D01*
X101486488Y-107576073D01*
X101337188Y-107546376D01*
X101173216Y-107478456D01*
X101025646Y-107379853D01*
X100913395Y-107267602D01*
X100894464Y-107252066D01*
X100872853Y-107240515D01*
X100849404Y-107233402D01*
X100825018Y-107231000D01*
X98799000Y-107231000D01*
X98799000Y-106129000D01*
X100825018Y-106129000D01*
X100849404Y-106126598D01*
X100872853Y-106119485D01*
X100894464Y-106107934D01*
X100913395Y-106092398D01*
X101025646Y-105980147D01*
X101173216Y-105881544D01*
X101337188Y-105813624D01*
X101486488Y-105783927D01*
X101511258Y-105779000D01*
X101688742Y-105779000D01*
X101713512Y-105783927D01*
G37*
G36*
X158863512Y-104259927D02*
G01*
X159012812Y-104289624D01*
X159176784Y-104357544D01*
X159324354Y-104456147D01*
X159449853Y-104581646D01*
X159548456Y-104729216D01*
X159616376Y-104893188D01*
X159651000Y-105067259D01*
X159651000Y-105244741D01*
X159616376Y-105418812D01*
X159548456Y-105582784D01*
X159449853Y-105730354D01*
X159324354Y-105855853D01*
X159176784Y-105954456D01*
X159012812Y-106022376D01*
X158863512Y-106052073D01*
X158838742Y-106057000D01*
X158661258Y-106057000D01*
X158636488Y-106052073D01*
X158487188Y-106022376D01*
X158323216Y-105954456D01*
X158175646Y-105855853D01*
X158050147Y-105730354D01*
X157951544Y-105582784D01*
X157883624Y-105418812D01*
X157849000Y-105244741D01*
X157849000Y-105067259D01*
X157883624Y-104893188D01*
X157951544Y-104729216D01*
X158050147Y-104581646D01*
X158175646Y-104456147D01*
X158323216Y-104357544D01*
X158487188Y-104289624D01*
X158636488Y-104259927D01*
X158661258Y-104255000D01*
X158838742Y-104255000D01*
X158863512Y-104259927D01*
G37*
G36*
X145600823Y-104317313D02*
G01*
X145761242Y-104365976D01*
X145830155Y-104402811D01*
X145909078Y-104444996D01*
X146038659Y-104551341D01*
X146145004Y-104680922D01*
X146145005Y-104680924D01*
X146224024Y-104828758D01*
X146272687Y-104989177D01*
X146289117Y-105156000D01*
X146272687Y-105322823D01*
X146224024Y-105483242D01*
X146153114Y-105615906D01*
X146145004Y-105631078D01*
X146038659Y-105760659D01*
X145909078Y-105867004D01*
X145909076Y-105867005D01*
X145761242Y-105946024D01*
X145600823Y-105994687D01*
X145475804Y-106007000D01*
X144592196Y-106007000D01*
X144467177Y-105994687D01*
X144306758Y-105946024D01*
X144158924Y-105867005D01*
X144158922Y-105867004D01*
X144029341Y-105760659D01*
X143922996Y-105631078D01*
X143914886Y-105615906D01*
X143843976Y-105483242D01*
X143795313Y-105322823D01*
X143778883Y-105156000D01*
X143795313Y-104989177D01*
X143843976Y-104828758D01*
X143922995Y-104680924D01*
X143922996Y-104680922D01*
X144029341Y-104551341D01*
X144158922Y-104444996D01*
X144237845Y-104402811D01*
X144306758Y-104365976D01*
X144467177Y-104317313D01*
X144592196Y-104305000D01*
X145475804Y-104305000D01*
X145600823Y-104317313D01*
G37*
G36*
X155760823Y-104317313D02*
G01*
X155921242Y-104365976D01*
X155990155Y-104402811D01*
X156069078Y-104444996D01*
X156198659Y-104551341D01*
X156305004Y-104680922D01*
X156305005Y-104680924D01*
X156384024Y-104828758D01*
X156432687Y-104989177D01*
X156449117Y-105156000D01*
X156432687Y-105322823D01*
X156384024Y-105483242D01*
X156313114Y-105615906D01*
X156305004Y-105631078D01*
X156198659Y-105760659D01*
X156069078Y-105867004D01*
X156069076Y-105867005D01*
X155921242Y-105946024D01*
X155760823Y-105994687D01*
X155635804Y-106007000D01*
X154752196Y-106007000D01*
X154627177Y-105994687D01*
X154466758Y-105946024D01*
X154318924Y-105867005D01*
X154318922Y-105867004D01*
X154189341Y-105760659D01*
X154082996Y-105631078D01*
X154074886Y-105615906D01*
X154003976Y-105483242D01*
X153955313Y-105322823D01*
X153938883Y-105156000D01*
X153955313Y-104989177D01*
X154003976Y-104828758D01*
X154082995Y-104680924D01*
X154082996Y-104680922D01*
X154189341Y-104551341D01*
X154318922Y-104444996D01*
X154397845Y-104402811D01*
X154466758Y-104365976D01*
X154627177Y-104317313D01*
X154752196Y-104305000D01*
X155635804Y-104305000D01*
X155760823Y-104317313D01*
G37*
G36*
X101713512Y-103243927D02*
G01*
X101862812Y-103273624D01*
X102026784Y-103341544D01*
X102174354Y-103440147D01*
X102299853Y-103565646D01*
X102398456Y-103713216D01*
X102466376Y-103877188D01*
X102501000Y-104051259D01*
X102501000Y-104228741D01*
X102466376Y-104402812D01*
X102398456Y-104566784D01*
X102299853Y-104714354D01*
X102174354Y-104839853D01*
X102026784Y-104938456D01*
X101862812Y-105006376D01*
X101713512Y-105036073D01*
X101688742Y-105041000D01*
X101511258Y-105041000D01*
X101486488Y-105036073D01*
X101337188Y-105006376D01*
X101173216Y-104938456D01*
X101025646Y-104839853D01*
X100913395Y-104727602D01*
X100894464Y-104712066D01*
X100872853Y-104700515D01*
X100849404Y-104693402D01*
X100825018Y-104691000D01*
X98799000Y-104691000D01*
X98799000Y-103589000D01*
X100825018Y-103589000D01*
X100849404Y-103586598D01*
X100872853Y-103579485D01*
X100894464Y-103567934D01*
X100913395Y-103552398D01*
X101025646Y-103440147D01*
X101173216Y-103341544D01*
X101337188Y-103273624D01*
X101486488Y-103243927D01*
X101511258Y-103239000D01*
X101688742Y-103239000D01*
X101713512Y-103243927D01*
G37*
G36*
X104253512Y-103243927D02*
G01*
X104402812Y-103273624D01*
X104566784Y-103341544D01*
X104714354Y-103440147D01*
X104826605Y-103552398D01*
X104845536Y-103567934D01*
X104867147Y-103579485D01*
X104890596Y-103586598D01*
X104914982Y-103589000D01*
X106941000Y-103589000D01*
X106941000Y-104691000D01*
X104914982Y-104691000D01*
X104890596Y-104693402D01*
X104867147Y-104700515D01*
X104845536Y-104712066D01*
X104826605Y-104727602D01*
X104714354Y-104839853D01*
X104566784Y-104938456D01*
X104402812Y-105006376D01*
X104253512Y-105036073D01*
X104228742Y-105041000D01*
X104051258Y-105041000D01*
X104026488Y-105036073D01*
X103877188Y-105006376D01*
X103713216Y-104938456D01*
X103565646Y-104839853D01*
X103440147Y-104714354D01*
X103341544Y-104566784D01*
X103273624Y-104402812D01*
X103239000Y-104228741D01*
X103239000Y-104051259D01*
X103273624Y-103877188D01*
X103341544Y-103713216D01*
X103440147Y-103565646D01*
X103565646Y-103440147D01*
X103713216Y-103341544D01*
X103877188Y-103273624D01*
X104026488Y-103243927D01*
X104051258Y-103239000D01*
X104228742Y-103239000D01*
X104253512Y-103243927D01*
G37*
G36*
X158863512Y-101719927D02*
G01*
X159012812Y-101749624D01*
X159176784Y-101817544D01*
X159324354Y-101916147D01*
X159449853Y-102041646D01*
X159548456Y-102189216D01*
X159616376Y-102353188D01*
X159651000Y-102527259D01*
X159651000Y-102704741D01*
X159616376Y-102878812D01*
X159548456Y-103042784D01*
X159449853Y-103190354D01*
X159324354Y-103315853D01*
X159176784Y-103414456D01*
X159012812Y-103482376D01*
X158863512Y-103512073D01*
X158838742Y-103517000D01*
X158661258Y-103517000D01*
X158636488Y-103512073D01*
X158487188Y-103482376D01*
X158323216Y-103414456D01*
X158175646Y-103315853D01*
X158050147Y-103190354D01*
X157951544Y-103042784D01*
X157883624Y-102878812D01*
X157849000Y-102704741D01*
X157849000Y-102527259D01*
X157883624Y-102353188D01*
X157951544Y-102189216D01*
X158050147Y-102041646D01*
X158175646Y-101916147D01*
X158323216Y-101817544D01*
X158487188Y-101749624D01*
X158636488Y-101719927D01*
X158661258Y-101715000D01*
X158838742Y-101715000D01*
X158863512Y-101719927D01*
G37*
G36*
X155760823Y-101777313D02*
G01*
X155921242Y-101825976D01*
X155990155Y-101862811D01*
X156069078Y-101904996D01*
X156198659Y-102011341D01*
X156305004Y-102140922D01*
X156305005Y-102140924D01*
X156384024Y-102288758D01*
X156432687Y-102449177D01*
X156449117Y-102616000D01*
X156432687Y-102782823D01*
X156384024Y-102943242D01*
X156313114Y-103075906D01*
X156305004Y-103091078D01*
X156198659Y-103220659D01*
X156069078Y-103327004D01*
X156069076Y-103327005D01*
X155921242Y-103406024D01*
X155760823Y-103454687D01*
X155635804Y-103467000D01*
X154752196Y-103467000D01*
X154627177Y-103454687D01*
X154466758Y-103406024D01*
X154318924Y-103327005D01*
X154318922Y-103327004D01*
X154189341Y-103220659D01*
X154082996Y-103091078D01*
X154074886Y-103075906D01*
X154003976Y-102943242D01*
X153955313Y-102782823D01*
X153938883Y-102616000D01*
X153955313Y-102449177D01*
X154003976Y-102288758D01*
X154082995Y-102140924D01*
X154082996Y-102140922D01*
X154189341Y-102011341D01*
X154318922Y-101904996D01*
X154397845Y-101862811D01*
X154466758Y-101825976D01*
X154627177Y-101777313D01*
X154752196Y-101765000D01*
X155635804Y-101765000D01*
X155760823Y-101777313D01*
G37*
G36*
X145600823Y-101777313D02*
G01*
X145761242Y-101825976D01*
X145830155Y-101862811D01*
X145909078Y-101904996D01*
X146038659Y-102011341D01*
X146145004Y-102140922D01*
X146145005Y-102140924D01*
X146224024Y-102288758D01*
X146272687Y-102449177D01*
X146289117Y-102616000D01*
X146272687Y-102782823D01*
X146224024Y-102943242D01*
X146153114Y-103075906D01*
X146145004Y-103091078D01*
X146038659Y-103220659D01*
X145909078Y-103327004D01*
X145909076Y-103327005D01*
X145761242Y-103406024D01*
X145600823Y-103454687D01*
X145475804Y-103467000D01*
X144592196Y-103467000D01*
X144467177Y-103454687D01*
X144306758Y-103406024D01*
X144158924Y-103327005D01*
X144158922Y-103327004D01*
X144029341Y-103220659D01*
X143922996Y-103091078D01*
X143914886Y-103075906D01*
X143843976Y-102943242D01*
X143795313Y-102782823D01*
X143778883Y-102616000D01*
X143795313Y-102449177D01*
X143843976Y-102288758D01*
X143922995Y-102140924D01*
X143922996Y-102140922D01*
X144029341Y-102011341D01*
X144158922Y-101904996D01*
X144237845Y-101862811D01*
X144306758Y-101825976D01*
X144467177Y-101777313D01*
X144592196Y-101765000D01*
X145475804Y-101765000D01*
X145600823Y-101777313D01*
G37*
G36*
X104253512Y-100703927D02*
G01*
X104402812Y-100733624D01*
X104566784Y-100801544D01*
X104714354Y-100900147D01*
X104826605Y-101012398D01*
X104845536Y-101027934D01*
X104867147Y-101039485D01*
X104890596Y-101046598D01*
X104914982Y-101049000D01*
X106941000Y-101049000D01*
X106941000Y-102151000D01*
X104914982Y-102151000D01*
X104890596Y-102153402D01*
X104867147Y-102160515D01*
X104845536Y-102172066D01*
X104826605Y-102187602D01*
X104714354Y-102299853D01*
X104566784Y-102398456D01*
X104402812Y-102466376D01*
X104253512Y-102496073D01*
X104228742Y-102501000D01*
X104051258Y-102501000D01*
X104026488Y-102496073D01*
X103877188Y-102466376D01*
X103713216Y-102398456D01*
X103565646Y-102299853D01*
X103440147Y-102174354D01*
X103341544Y-102026784D01*
X103273624Y-101862812D01*
X103239000Y-101688741D01*
X103239000Y-101511259D01*
X103273624Y-101337188D01*
X103341544Y-101173216D01*
X103440147Y-101025646D01*
X103565646Y-100900147D01*
X103713216Y-100801544D01*
X103877188Y-100733624D01*
X104026488Y-100703927D01*
X104051258Y-100699000D01*
X104228742Y-100699000D01*
X104253512Y-100703927D01*
G37*
G36*
X101713512Y-100703927D02*
G01*
X101862812Y-100733624D01*
X102026784Y-100801544D01*
X102174354Y-100900147D01*
X102299853Y-101025646D01*
X102398456Y-101173216D01*
X102466376Y-101337188D01*
X102501000Y-101511259D01*
X102501000Y-101688741D01*
X102466376Y-101862812D01*
X102398456Y-102026784D01*
X102299853Y-102174354D01*
X102174354Y-102299853D01*
X102026784Y-102398456D01*
X101862812Y-102466376D01*
X101713512Y-102496073D01*
X101688742Y-102501000D01*
X101511258Y-102501000D01*
X101486488Y-102496073D01*
X101337188Y-102466376D01*
X101173216Y-102398456D01*
X101025646Y-102299853D01*
X100913395Y-102187602D01*
X100894464Y-102172066D01*
X100872853Y-102160515D01*
X100849404Y-102153402D01*
X100825018Y-102151000D01*
X98799000Y-102151000D01*
X98799000Y-101049000D01*
X100825018Y-101049000D01*
X100849404Y-101046598D01*
X100872853Y-101039485D01*
X100894464Y-101027934D01*
X100913395Y-101012398D01*
X101025646Y-100900147D01*
X101173216Y-100801544D01*
X101337188Y-100733624D01*
X101486488Y-100703927D01*
X101511258Y-100699000D01*
X101688742Y-100699000D01*
X101713512Y-100703927D01*
G37*
G36*
X158863512Y-99179927D02*
G01*
X159012812Y-99209624D01*
X159176784Y-99277544D01*
X159324354Y-99376147D01*
X159449853Y-99501646D01*
X159548456Y-99649216D01*
X159616376Y-99813188D01*
X159651000Y-99987259D01*
X159651000Y-100164741D01*
X159616376Y-100338812D01*
X159548456Y-100502784D01*
X159449853Y-100650354D01*
X159324354Y-100775853D01*
X159176784Y-100874456D01*
X159012812Y-100942376D01*
X158863512Y-100972073D01*
X158838742Y-100977000D01*
X158661258Y-100977000D01*
X158636488Y-100972073D01*
X158487188Y-100942376D01*
X158323216Y-100874456D01*
X158175646Y-100775853D01*
X158050147Y-100650354D01*
X157951544Y-100502784D01*
X157883624Y-100338812D01*
X157849000Y-100164741D01*
X157849000Y-99987259D01*
X157883624Y-99813188D01*
X157951544Y-99649216D01*
X158050147Y-99501646D01*
X158175646Y-99376147D01*
X158323216Y-99277544D01*
X158487188Y-99209624D01*
X158636488Y-99179927D01*
X158661258Y-99175000D01*
X158838742Y-99175000D01*
X158863512Y-99179927D01*
G37*
G36*
X145600823Y-99237313D02*
G01*
X145761242Y-99285976D01*
X145830155Y-99322811D01*
X145909078Y-99364996D01*
X146038659Y-99471341D01*
X146145004Y-99600922D01*
X146145005Y-99600924D01*
X146224024Y-99748758D01*
X146272687Y-99909177D01*
X146289117Y-100076000D01*
X146272687Y-100242823D01*
X146224024Y-100403242D01*
X146153114Y-100535906D01*
X146145004Y-100551078D01*
X146038659Y-100680659D01*
X145909078Y-100787004D01*
X145909076Y-100787005D01*
X145761242Y-100866024D01*
X145600823Y-100914687D01*
X145475804Y-100927000D01*
X144592196Y-100927000D01*
X144467177Y-100914687D01*
X144306758Y-100866024D01*
X144158924Y-100787005D01*
X144158922Y-100787004D01*
X144029341Y-100680659D01*
X143922996Y-100551078D01*
X143914886Y-100535906D01*
X143843976Y-100403242D01*
X143795313Y-100242823D01*
X143778883Y-100076000D01*
X143795313Y-99909177D01*
X143843976Y-99748758D01*
X143922995Y-99600924D01*
X143922996Y-99600922D01*
X144029341Y-99471341D01*
X144158922Y-99364996D01*
X144237845Y-99322811D01*
X144306758Y-99285976D01*
X144467177Y-99237313D01*
X144592196Y-99225000D01*
X145475804Y-99225000D01*
X145600823Y-99237313D01*
G37*
G36*
X155760823Y-99237313D02*
G01*
X155921242Y-99285976D01*
X155990155Y-99322811D01*
X156069078Y-99364996D01*
X156198659Y-99471341D01*
X156305004Y-99600922D01*
X156305005Y-99600924D01*
X156384024Y-99748758D01*
X156432687Y-99909177D01*
X156449117Y-100076000D01*
X156432687Y-100242823D01*
X156384024Y-100403242D01*
X156313114Y-100535906D01*
X156305004Y-100551078D01*
X156198659Y-100680659D01*
X156069078Y-100787004D01*
X156069076Y-100787005D01*
X155921242Y-100866024D01*
X155760823Y-100914687D01*
X155635804Y-100927000D01*
X154752196Y-100927000D01*
X154627177Y-100914687D01*
X154466758Y-100866024D01*
X154318924Y-100787005D01*
X154318922Y-100787004D01*
X154189341Y-100680659D01*
X154082996Y-100551078D01*
X154074886Y-100535906D01*
X154003976Y-100403242D01*
X153955313Y-100242823D01*
X153938883Y-100076000D01*
X153955313Y-99909177D01*
X154003976Y-99748758D01*
X154082995Y-99600924D01*
X154082996Y-99600922D01*
X154189341Y-99471341D01*
X154318922Y-99364996D01*
X154397845Y-99322811D01*
X154466758Y-99285976D01*
X154627177Y-99237313D01*
X154752196Y-99225000D01*
X155635804Y-99225000D01*
X155760823Y-99237313D01*
G37*
G36*
X101713512Y-98163927D02*
G01*
X101862812Y-98193624D01*
X102026784Y-98261544D01*
X102174354Y-98360147D01*
X102299853Y-98485646D01*
X102398456Y-98633216D01*
X102466376Y-98797188D01*
X102501000Y-98971259D01*
X102501000Y-99148741D01*
X102466376Y-99322812D01*
X102398456Y-99486784D01*
X102299853Y-99634354D01*
X102174354Y-99759853D01*
X102026784Y-99858456D01*
X101862812Y-99926376D01*
X101713512Y-99956073D01*
X101688742Y-99961000D01*
X101511258Y-99961000D01*
X101486488Y-99956073D01*
X101337188Y-99926376D01*
X101173216Y-99858456D01*
X101025646Y-99759853D01*
X100913395Y-99647602D01*
X100894464Y-99632066D01*
X100872853Y-99620515D01*
X100849404Y-99613402D01*
X100825018Y-99611000D01*
X98799000Y-99611000D01*
X98799000Y-98509000D01*
X100825018Y-98509000D01*
X100849404Y-98506598D01*
X100872853Y-98499485D01*
X100894464Y-98487934D01*
X100913395Y-98472398D01*
X101025646Y-98360147D01*
X101173216Y-98261544D01*
X101337188Y-98193624D01*
X101486488Y-98163927D01*
X101511258Y-98159000D01*
X101688742Y-98159000D01*
X101713512Y-98163927D01*
G37*
G36*
X104253512Y-98163927D02*
G01*
X104402812Y-98193624D01*
X104566784Y-98261544D01*
X104714354Y-98360147D01*
X104826605Y-98472398D01*
X104845536Y-98487934D01*
X104867147Y-98499485D01*
X104890596Y-98506598D01*
X104914982Y-98509000D01*
X106941000Y-98509000D01*
X106941000Y-99611000D01*
X104914982Y-99611000D01*
X104890596Y-99613402D01*
X104867147Y-99620515D01*
X104845536Y-99632066D01*
X104826605Y-99647602D01*
X104714354Y-99759853D01*
X104566784Y-99858456D01*
X104402812Y-99926376D01*
X104253512Y-99956073D01*
X104228742Y-99961000D01*
X104051258Y-99961000D01*
X104026488Y-99956073D01*
X103877188Y-99926376D01*
X103713216Y-99858456D01*
X103565646Y-99759853D01*
X103440147Y-99634354D01*
X103341544Y-99486784D01*
X103273624Y-99322812D01*
X103239000Y-99148741D01*
X103239000Y-98971259D01*
X103273624Y-98797188D01*
X103341544Y-98633216D01*
X103440147Y-98485646D01*
X103565646Y-98360147D01*
X103713216Y-98261544D01*
X103877188Y-98193624D01*
X104026488Y-98163927D01*
X104051258Y-98159000D01*
X104228742Y-98159000D01*
X104253512Y-98163927D01*
G37*
G36*
X158863512Y-96639927D02*
G01*
X159012812Y-96669624D01*
X159176784Y-96737544D01*
X159324354Y-96836147D01*
X159449853Y-96961646D01*
X159548456Y-97109216D01*
X159616376Y-97273188D01*
X159651000Y-97447259D01*
X159651000Y-97624741D01*
X159616376Y-97798812D01*
X159548456Y-97962784D01*
X159449853Y-98110354D01*
X159324354Y-98235853D01*
X159176784Y-98334456D01*
X159012812Y-98402376D01*
X158863512Y-98432073D01*
X158838742Y-98437000D01*
X158661258Y-98437000D01*
X158636488Y-98432073D01*
X158487188Y-98402376D01*
X158323216Y-98334456D01*
X158175646Y-98235853D01*
X158050147Y-98110354D01*
X157951544Y-97962784D01*
X157883624Y-97798812D01*
X157849000Y-97624741D01*
X157849000Y-97447259D01*
X157883624Y-97273188D01*
X157951544Y-97109216D01*
X158050147Y-96961646D01*
X158175646Y-96836147D01*
X158323216Y-96737544D01*
X158487188Y-96669624D01*
X158636488Y-96639927D01*
X158661258Y-96635000D01*
X158838742Y-96635000D01*
X158863512Y-96639927D01*
G37*
G36*
X145600823Y-96697313D02*
G01*
X145761242Y-96745976D01*
X145830155Y-96782811D01*
X145909078Y-96824996D01*
X146038659Y-96931341D01*
X146145004Y-97060922D01*
X146145005Y-97060924D01*
X146224024Y-97208758D01*
X146272687Y-97369177D01*
X146289117Y-97536000D01*
X146272687Y-97702823D01*
X146224024Y-97863242D01*
X146153114Y-97995906D01*
X146145004Y-98011078D01*
X146038659Y-98140659D01*
X145909078Y-98247004D01*
X145909076Y-98247005D01*
X145761242Y-98326024D01*
X145600823Y-98374687D01*
X145475804Y-98387000D01*
X144592196Y-98387000D01*
X144467177Y-98374687D01*
X144306758Y-98326024D01*
X144158924Y-98247005D01*
X144158922Y-98247004D01*
X144029341Y-98140659D01*
X143922996Y-98011078D01*
X143914886Y-97995906D01*
X143843976Y-97863242D01*
X143795313Y-97702823D01*
X143778883Y-97536000D01*
X143795313Y-97369177D01*
X143843976Y-97208758D01*
X143922995Y-97060924D01*
X143922996Y-97060922D01*
X144029341Y-96931341D01*
X144158922Y-96824996D01*
X144237845Y-96782811D01*
X144306758Y-96745976D01*
X144467177Y-96697313D01*
X144592196Y-96685000D01*
X145475804Y-96685000D01*
X145600823Y-96697313D01*
G37*
G36*
X155760823Y-96697313D02*
G01*
X155921242Y-96745976D01*
X155990155Y-96782811D01*
X156069078Y-96824996D01*
X156198659Y-96931341D01*
X156305004Y-97060922D01*
X156305005Y-97060924D01*
X156384024Y-97208758D01*
X156432687Y-97369177D01*
X156449117Y-97536000D01*
X156432687Y-97702823D01*
X156384024Y-97863242D01*
X156313114Y-97995906D01*
X156305004Y-98011078D01*
X156198659Y-98140659D01*
X156069078Y-98247004D01*
X156069076Y-98247005D01*
X155921242Y-98326024D01*
X155760823Y-98374687D01*
X155635804Y-98387000D01*
X154752196Y-98387000D01*
X154627177Y-98374687D01*
X154466758Y-98326024D01*
X154318924Y-98247005D01*
X154318922Y-98247004D01*
X154189341Y-98140659D01*
X154082996Y-98011078D01*
X154074886Y-97995906D01*
X154003976Y-97863242D01*
X153955313Y-97702823D01*
X153938883Y-97536000D01*
X153955313Y-97369177D01*
X154003976Y-97208758D01*
X154082995Y-97060924D01*
X154082996Y-97060922D01*
X154189341Y-96931341D01*
X154318922Y-96824996D01*
X154397845Y-96782811D01*
X154466758Y-96745976D01*
X154627177Y-96697313D01*
X154752196Y-96685000D01*
X155635804Y-96685000D01*
X155760823Y-96697313D01*
G37*
G36*
X101713512Y-95623927D02*
G01*
X101862812Y-95653624D01*
X102026784Y-95721544D01*
X102174354Y-95820147D01*
X102299853Y-95945646D01*
X102398456Y-96093216D01*
X102466376Y-96257188D01*
X102501000Y-96431259D01*
X102501000Y-96608741D01*
X102466376Y-96782812D01*
X102398456Y-96946784D01*
X102299853Y-97094354D01*
X102174354Y-97219853D01*
X102026784Y-97318456D01*
X101862812Y-97386376D01*
X101713512Y-97416073D01*
X101688742Y-97421000D01*
X101511258Y-97421000D01*
X101486488Y-97416073D01*
X101337188Y-97386376D01*
X101173216Y-97318456D01*
X101025646Y-97219853D01*
X100913395Y-97107602D01*
X100894464Y-97092066D01*
X100872853Y-97080515D01*
X100849404Y-97073402D01*
X100825018Y-97071000D01*
X98799000Y-97071000D01*
X98799000Y-95969000D01*
X100825018Y-95969000D01*
X100849404Y-95966598D01*
X100872853Y-95959485D01*
X100894464Y-95947934D01*
X100913395Y-95932398D01*
X101025646Y-95820147D01*
X101173216Y-95721544D01*
X101337188Y-95653624D01*
X101486488Y-95623927D01*
X101511258Y-95619000D01*
X101688742Y-95619000D01*
X101713512Y-95623927D01*
G37*
G36*
X104253512Y-95623927D02*
G01*
X104402812Y-95653624D01*
X104566784Y-95721544D01*
X104714354Y-95820147D01*
X104826605Y-95932398D01*
X104845536Y-95947934D01*
X104867147Y-95959485D01*
X104890596Y-95966598D01*
X104914982Y-95969000D01*
X106941000Y-95969000D01*
X106941000Y-97071000D01*
X104914982Y-97071000D01*
X104890596Y-97073402D01*
X104867147Y-97080515D01*
X104845536Y-97092066D01*
X104826605Y-97107602D01*
X104714354Y-97219853D01*
X104566784Y-97318456D01*
X104402812Y-97386376D01*
X104253512Y-97416073D01*
X104228742Y-97421000D01*
X104051258Y-97421000D01*
X104026488Y-97416073D01*
X103877188Y-97386376D01*
X103713216Y-97318456D01*
X103565646Y-97219853D01*
X103440147Y-97094354D01*
X103341544Y-96946784D01*
X103273624Y-96782812D01*
X103239000Y-96608741D01*
X103239000Y-96431259D01*
X103273624Y-96257188D01*
X103341544Y-96093216D01*
X103440147Y-95945646D01*
X103565646Y-95820147D01*
X103713216Y-95721544D01*
X103877188Y-95653624D01*
X104026488Y-95623927D01*
X104051258Y-95619000D01*
X104228742Y-95619000D01*
X104253512Y-95623927D01*
G37*
G36*
X158863512Y-94099927D02*
G01*
X159012812Y-94129624D01*
X159176784Y-94197544D01*
X159324354Y-94296147D01*
X159449853Y-94421646D01*
X159548456Y-94569216D01*
X159616376Y-94733188D01*
X159651000Y-94907259D01*
X159651000Y-95084741D01*
X159616376Y-95258812D01*
X159548456Y-95422784D01*
X159449853Y-95570354D01*
X159324354Y-95695853D01*
X159176784Y-95794456D01*
X159012812Y-95862376D01*
X158863512Y-95892073D01*
X158838742Y-95897000D01*
X158661258Y-95897000D01*
X158636488Y-95892073D01*
X158487188Y-95862376D01*
X158323216Y-95794456D01*
X158175646Y-95695853D01*
X158050147Y-95570354D01*
X157951544Y-95422784D01*
X157883624Y-95258812D01*
X157849000Y-95084741D01*
X157849000Y-94907259D01*
X157883624Y-94733188D01*
X157951544Y-94569216D01*
X158050147Y-94421646D01*
X158175646Y-94296147D01*
X158323216Y-94197544D01*
X158487188Y-94129624D01*
X158636488Y-94099927D01*
X158661258Y-94095000D01*
X158838742Y-94095000D01*
X158863512Y-94099927D01*
G37*
G36*
X155760823Y-94157313D02*
G01*
X155921242Y-94205976D01*
X155990155Y-94242811D01*
X156069078Y-94284996D01*
X156198659Y-94391341D01*
X156305004Y-94520922D01*
X156305005Y-94520924D01*
X156384024Y-94668758D01*
X156432687Y-94829177D01*
X156449117Y-94996000D01*
X156432687Y-95162823D01*
X156384024Y-95323242D01*
X156313114Y-95455906D01*
X156305004Y-95471078D01*
X156198659Y-95600659D01*
X156069078Y-95707004D01*
X156069076Y-95707005D01*
X155921242Y-95786024D01*
X155760823Y-95834687D01*
X155635804Y-95847000D01*
X154752196Y-95847000D01*
X154627177Y-95834687D01*
X154466758Y-95786024D01*
X154318924Y-95707005D01*
X154318922Y-95707004D01*
X154189341Y-95600659D01*
X154082996Y-95471078D01*
X154074886Y-95455906D01*
X154003976Y-95323242D01*
X153955313Y-95162823D01*
X153938883Y-94996000D01*
X153955313Y-94829177D01*
X154003976Y-94668758D01*
X154082995Y-94520924D01*
X154082996Y-94520922D01*
X154189341Y-94391341D01*
X154318922Y-94284996D01*
X154397845Y-94242811D01*
X154466758Y-94205976D01*
X154627177Y-94157313D01*
X154752196Y-94145000D01*
X155635804Y-94145000D01*
X155760823Y-94157313D01*
G37*
G36*
X145600823Y-94157313D02*
G01*
X145761242Y-94205976D01*
X145830155Y-94242811D01*
X145909078Y-94284996D01*
X146038659Y-94391341D01*
X146145004Y-94520922D01*
X146145005Y-94520924D01*
X146224024Y-94668758D01*
X146272687Y-94829177D01*
X146289117Y-94996000D01*
X146272687Y-95162823D01*
X146224024Y-95323242D01*
X146153114Y-95455906D01*
X146145004Y-95471078D01*
X146038659Y-95600659D01*
X145909078Y-95707004D01*
X145909076Y-95707005D01*
X145761242Y-95786024D01*
X145600823Y-95834687D01*
X145475804Y-95847000D01*
X144592196Y-95847000D01*
X144467177Y-95834687D01*
X144306758Y-95786024D01*
X144158924Y-95707005D01*
X144158922Y-95707004D01*
X144029341Y-95600659D01*
X143922996Y-95471078D01*
X143914886Y-95455906D01*
X143843976Y-95323242D01*
X143795313Y-95162823D01*
X143778883Y-94996000D01*
X143795313Y-94829177D01*
X143843976Y-94668758D01*
X143922995Y-94520924D01*
X143922996Y-94520922D01*
X144029341Y-94391341D01*
X144158922Y-94284996D01*
X144237845Y-94242811D01*
X144306758Y-94205976D01*
X144467177Y-94157313D01*
X144592196Y-94145000D01*
X145475804Y-94145000D01*
X145600823Y-94157313D01*
G37*
G36*
X101713512Y-93083927D02*
G01*
X101862812Y-93113624D01*
X102026784Y-93181544D01*
X102174354Y-93280147D01*
X102299853Y-93405646D01*
X102398456Y-93553216D01*
X102466376Y-93717188D01*
X102501000Y-93891259D01*
X102501000Y-94068741D01*
X102466376Y-94242812D01*
X102398456Y-94406784D01*
X102299853Y-94554354D01*
X102174354Y-94679853D01*
X102026784Y-94778456D01*
X101862812Y-94846376D01*
X101713512Y-94876073D01*
X101688742Y-94881000D01*
X101511258Y-94881000D01*
X101486488Y-94876073D01*
X101337188Y-94846376D01*
X101173216Y-94778456D01*
X101025646Y-94679853D01*
X100913395Y-94567602D01*
X100894464Y-94552066D01*
X100872853Y-94540515D01*
X100849404Y-94533402D01*
X100825018Y-94531000D01*
X98799000Y-94531000D01*
X98799000Y-93429000D01*
X100825018Y-93429000D01*
X100849404Y-93426598D01*
X100872853Y-93419485D01*
X100894464Y-93407934D01*
X100913395Y-93392398D01*
X101025646Y-93280147D01*
X101173216Y-93181544D01*
X101337188Y-93113624D01*
X101486488Y-93083927D01*
X101511258Y-93079000D01*
X101688742Y-93079000D01*
X101713512Y-93083927D01*
G37*
G36*
X104253512Y-93083927D02*
G01*
X104402812Y-93113624D01*
X104566784Y-93181544D01*
X104714354Y-93280147D01*
X104826605Y-93392398D01*
X104845536Y-93407934D01*
X104867147Y-93419485D01*
X104890596Y-93426598D01*
X104914982Y-93429000D01*
X106941000Y-93429000D01*
X106941000Y-94531000D01*
X104914982Y-94531000D01*
X104890596Y-94533402D01*
X104867147Y-94540515D01*
X104845536Y-94552066D01*
X104826605Y-94567602D01*
X104714354Y-94679853D01*
X104566784Y-94778456D01*
X104402812Y-94846376D01*
X104253512Y-94876073D01*
X104228742Y-94881000D01*
X104051258Y-94881000D01*
X104026488Y-94876073D01*
X103877188Y-94846376D01*
X103713216Y-94778456D01*
X103565646Y-94679853D01*
X103440147Y-94554354D01*
X103341544Y-94406784D01*
X103273624Y-94242812D01*
X103239000Y-94068741D01*
X103239000Y-93891259D01*
X103273624Y-93717188D01*
X103341544Y-93553216D01*
X103440147Y-93405646D01*
X103565646Y-93280147D01*
X103713216Y-93181544D01*
X103877188Y-93113624D01*
X104026488Y-93083927D01*
X104051258Y-93079000D01*
X104228742Y-93079000D01*
X104253512Y-93083927D01*
G37*
G36*
X158863512Y-91559927D02*
G01*
X159012812Y-91589624D01*
X159176784Y-91657544D01*
X159324354Y-91756147D01*
X159449853Y-91881646D01*
X159548456Y-92029216D01*
X159616376Y-92193188D01*
X159651000Y-92367259D01*
X159651000Y-92544741D01*
X159616376Y-92718812D01*
X159548456Y-92882784D01*
X159449853Y-93030354D01*
X159324354Y-93155853D01*
X159176784Y-93254456D01*
X159012812Y-93322376D01*
X158863512Y-93352073D01*
X158838742Y-93357000D01*
X158661258Y-93357000D01*
X158636488Y-93352073D01*
X158487188Y-93322376D01*
X158323216Y-93254456D01*
X158175646Y-93155853D01*
X158050147Y-93030354D01*
X157951544Y-92882784D01*
X157883624Y-92718812D01*
X157849000Y-92544741D01*
X157849000Y-92367259D01*
X157883624Y-92193188D01*
X157951544Y-92029216D01*
X158050147Y-91881646D01*
X158175646Y-91756147D01*
X158323216Y-91657544D01*
X158487188Y-91589624D01*
X158636488Y-91559927D01*
X158661258Y-91555000D01*
X158838742Y-91555000D01*
X158863512Y-91559927D01*
G37*
G36*
X155760823Y-91617313D02*
G01*
X155921242Y-91665976D01*
X155990155Y-91702811D01*
X156069078Y-91744996D01*
X156198659Y-91851341D01*
X156305004Y-91980922D01*
X156305005Y-91980924D01*
X156384024Y-92128758D01*
X156432687Y-92289177D01*
X156449117Y-92456000D01*
X156432687Y-92622823D01*
X156384024Y-92783242D01*
X156313114Y-92915906D01*
X156305004Y-92931078D01*
X156198659Y-93060659D01*
X156069078Y-93167004D01*
X156069076Y-93167005D01*
X155921242Y-93246024D01*
X155760823Y-93294687D01*
X155635804Y-93307000D01*
X154752196Y-93307000D01*
X154627177Y-93294687D01*
X154466758Y-93246024D01*
X154318924Y-93167005D01*
X154318922Y-93167004D01*
X154189341Y-93060659D01*
X154082996Y-92931078D01*
X154074886Y-92915906D01*
X154003976Y-92783242D01*
X153955313Y-92622823D01*
X153938883Y-92456000D01*
X153955313Y-92289177D01*
X154003976Y-92128758D01*
X154082995Y-91980924D01*
X154082996Y-91980922D01*
X154189341Y-91851341D01*
X154318922Y-91744996D01*
X154397845Y-91702811D01*
X154466758Y-91665976D01*
X154627177Y-91617313D01*
X154752196Y-91605000D01*
X155635804Y-91605000D01*
X155760823Y-91617313D01*
G37*
G36*
X145600823Y-91617313D02*
G01*
X145761242Y-91665976D01*
X145830155Y-91702811D01*
X145909078Y-91744996D01*
X146038659Y-91851341D01*
X146145004Y-91980922D01*
X146145005Y-91980924D01*
X146224024Y-92128758D01*
X146272687Y-92289177D01*
X146289117Y-92456000D01*
X146272687Y-92622823D01*
X146224024Y-92783242D01*
X146153114Y-92915906D01*
X146145004Y-92931078D01*
X146038659Y-93060659D01*
X145909078Y-93167004D01*
X145909076Y-93167005D01*
X145761242Y-93246024D01*
X145600823Y-93294687D01*
X145475804Y-93307000D01*
X144592196Y-93307000D01*
X144467177Y-93294687D01*
X144306758Y-93246024D01*
X144158924Y-93167005D01*
X144158922Y-93167004D01*
X144029341Y-93060659D01*
X143922996Y-92931078D01*
X143914886Y-92915906D01*
X143843976Y-92783242D01*
X143795313Y-92622823D01*
X143778883Y-92456000D01*
X143795313Y-92289177D01*
X143843976Y-92128758D01*
X143922995Y-91980924D01*
X143922996Y-91980922D01*
X144029341Y-91851341D01*
X144158922Y-91744996D01*
X144237845Y-91702811D01*
X144306758Y-91665976D01*
X144467177Y-91617313D01*
X144592196Y-91605000D01*
X145475804Y-91605000D01*
X145600823Y-91617313D01*
G37*
G36*
X101713512Y-90543927D02*
G01*
X101862812Y-90573624D01*
X102026784Y-90641544D01*
X102174354Y-90740147D01*
X102299853Y-90865646D01*
X102398456Y-91013216D01*
X102466376Y-91177188D01*
X102501000Y-91351259D01*
X102501000Y-91528741D01*
X102466376Y-91702812D01*
X102398456Y-91866784D01*
X102299853Y-92014354D01*
X102174354Y-92139853D01*
X102026784Y-92238456D01*
X101862812Y-92306376D01*
X101713512Y-92336073D01*
X101688742Y-92341000D01*
X101511258Y-92341000D01*
X101486488Y-92336073D01*
X101337188Y-92306376D01*
X101173216Y-92238456D01*
X101025646Y-92139853D01*
X100913395Y-92027602D01*
X100894464Y-92012066D01*
X100872853Y-92000515D01*
X100849404Y-91993402D01*
X100825018Y-91991000D01*
X98799000Y-91991000D01*
X98799000Y-90889000D01*
X100825018Y-90889000D01*
X100849404Y-90886598D01*
X100872853Y-90879485D01*
X100894464Y-90867934D01*
X100913395Y-90852398D01*
X101025646Y-90740147D01*
X101173216Y-90641544D01*
X101337188Y-90573624D01*
X101486488Y-90543927D01*
X101511258Y-90539000D01*
X101688742Y-90539000D01*
X101713512Y-90543927D01*
G37*
G36*
X104253512Y-90543927D02*
G01*
X104402812Y-90573624D01*
X104566784Y-90641544D01*
X104714354Y-90740147D01*
X104826605Y-90852398D01*
X104845536Y-90867934D01*
X104867147Y-90879485D01*
X104890596Y-90886598D01*
X104914982Y-90889000D01*
X106941000Y-90889000D01*
X106941000Y-91991000D01*
X104914982Y-91991000D01*
X104890596Y-91993402D01*
X104867147Y-92000515D01*
X104845536Y-92012066D01*
X104826605Y-92027602D01*
X104714354Y-92139853D01*
X104566784Y-92238456D01*
X104402812Y-92306376D01*
X104253512Y-92336073D01*
X104228742Y-92341000D01*
X104051258Y-92341000D01*
X104026488Y-92336073D01*
X103877188Y-92306376D01*
X103713216Y-92238456D01*
X103565646Y-92139853D01*
X103440147Y-92014354D01*
X103341544Y-91866784D01*
X103273624Y-91702812D01*
X103239000Y-91528741D01*
X103239000Y-91351259D01*
X103273624Y-91177188D01*
X103341544Y-91013216D01*
X103440147Y-90865646D01*
X103565646Y-90740147D01*
X103713216Y-90641544D01*
X103877188Y-90573624D01*
X104026488Y-90543927D01*
X104051258Y-90539000D01*
X104228742Y-90539000D01*
X104253512Y-90543927D01*
G37*
G36*
X158863512Y-89019927D02*
G01*
X159012812Y-89049624D01*
X159176784Y-89117544D01*
X159324354Y-89216147D01*
X159449853Y-89341646D01*
X159548456Y-89489216D01*
X159616376Y-89653188D01*
X159651000Y-89827259D01*
X159651000Y-90004741D01*
X159616376Y-90178812D01*
X159548456Y-90342784D01*
X159449853Y-90490354D01*
X159324354Y-90615853D01*
X159176784Y-90714456D01*
X159012812Y-90782376D01*
X158863512Y-90812073D01*
X158838742Y-90817000D01*
X158661258Y-90817000D01*
X158636488Y-90812073D01*
X158487188Y-90782376D01*
X158323216Y-90714456D01*
X158175646Y-90615853D01*
X158050147Y-90490354D01*
X157951544Y-90342784D01*
X157883624Y-90178812D01*
X157849000Y-90004741D01*
X157849000Y-89827259D01*
X157883624Y-89653188D01*
X157951544Y-89489216D01*
X158050147Y-89341646D01*
X158175646Y-89216147D01*
X158323216Y-89117544D01*
X158487188Y-89049624D01*
X158636488Y-89019927D01*
X158661258Y-89015000D01*
X158838742Y-89015000D01*
X158863512Y-89019927D01*
G37*
G36*
X155760823Y-89077313D02*
G01*
X155921242Y-89125976D01*
X155990155Y-89162811D01*
X156069078Y-89204996D01*
X156198659Y-89311341D01*
X156305004Y-89440922D01*
X156305005Y-89440924D01*
X156384024Y-89588758D01*
X156432687Y-89749177D01*
X156449117Y-89916000D01*
X156432687Y-90082823D01*
X156384024Y-90243242D01*
X156313114Y-90375906D01*
X156305004Y-90391078D01*
X156198659Y-90520659D01*
X156069078Y-90627004D01*
X156069076Y-90627005D01*
X155921242Y-90706024D01*
X155760823Y-90754687D01*
X155635804Y-90767000D01*
X154752196Y-90767000D01*
X154627177Y-90754687D01*
X154466758Y-90706024D01*
X154318924Y-90627005D01*
X154318922Y-90627004D01*
X154189341Y-90520659D01*
X154082996Y-90391078D01*
X154074886Y-90375906D01*
X154003976Y-90243242D01*
X153955313Y-90082823D01*
X153938883Y-89916000D01*
X153955313Y-89749177D01*
X154003976Y-89588758D01*
X154082995Y-89440924D01*
X154082996Y-89440922D01*
X154189341Y-89311341D01*
X154318922Y-89204996D01*
X154397845Y-89162811D01*
X154466758Y-89125976D01*
X154627177Y-89077313D01*
X154752196Y-89065000D01*
X155635804Y-89065000D01*
X155760823Y-89077313D01*
G37*
G36*
X145600823Y-89077313D02*
G01*
X145761242Y-89125976D01*
X145830155Y-89162811D01*
X145909078Y-89204996D01*
X146038659Y-89311341D01*
X146145004Y-89440922D01*
X146145005Y-89440924D01*
X146224024Y-89588758D01*
X146272687Y-89749177D01*
X146289117Y-89916000D01*
X146272687Y-90082823D01*
X146224024Y-90243242D01*
X146153114Y-90375906D01*
X146145004Y-90391078D01*
X146038659Y-90520659D01*
X145909078Y-90627004D01*
X145909076Y-90627005D01*
X145761242Y-90706024D01*
X145600823Y-90754687D01*
X145475804Y-90767000D01*
X144592196Y-90767000D01*
X144467177Y-90754687D01*
X144306758Y-90706024D01*
X144158924Y-90627005D01*
X144158922Y-90627004D01*
X144029341Y-90520659D01*
X143922996Y-90391078D01*
X143914886Y-90375906D01*
X143843976Y-90243242D01*
X143795313Y-90082823D01*
X143778883Y-89916000D01*
X143795313Y-89749177D01*
X143843976Y-89588758D01*
X143922995Y-89440924D01*
X143922996Y-89440922D01*
X144029341Y-89311341D01*
X144158922Y-89204996D01*
X144237845Y-89162811D01*
X144306758Y-89125976D01*
X144467177Y-89077313D01*
X144592196Y-89065000D01*
X145475804Y-89065000D01*
X145600823Y-89077313D01*
G37*
G36*
X104253512Y-88003927D02*
G01*
X104402812Y-88033624D01*
X104566784Y-88101544D01*
X104714354Y-88200147D01*
X104826605Y-88312398D01*
X104845536Y-88327934D01*
X104867147Y-88339485D01*
X104890596Y-88346598D01*
X104914982Y-88349000D01*
X106941000Y-88349000D01*
X106941000Y-89451000D01*
X104914982Y-89451000D01*
X104890596Y-89453402D01*
X104867147Y-89460515D01*
X104845536Y-89472066D01*
X104826605Y-89487602D01*
X104714354Y-89599853D01*
X104566784Y-89698456D01*
X104402812Y-89766376D01*
X104253512Y-89796073D01*
X104228742Y-89801000D01*
X104051258Y-89801000D01*
X104026488Y-89796073D01*
X103877188Y-89766376D01*
X103713216Y-89698456D01*
X103565646Y-89599853D01*
X103440147Y-89474354D01*
X103341544Y-89326784D01*
X103273624Y-89162812D01*
X103239000Y-88988741D01*
X103239000Y-88811259D01*
X103273624Y-88637188D01*
X103341544Y-88473216D01*
X103440147Y-88325646D01*
X103565646Y-88200147D01*
X103713216Y-88101544D01*
X103877188Y-88033624D01*
X104026488Y-88003927D01*
X104051258Y-87999000D01*
X104228742Y-87999000D01*
X104253512Y-88003927D01*
G37*
G36*
X101713512Y-88003927D02*
G01*
X101862812Y-88033624D01*
X102026784Y-88101544D01*
X102174354Y-88200147D01*
X102299853Y-88325646D01*
X102398456Y-88473216D01*
X102466376Y-88637188D01*
X102501000Y-88811259D01*
X102501000Y-88988741D01*
X102466376Y-89162812D01*
X102398456Y-89326784D01*
X102299853Y-89474354D01*
X102174354Y-89599853D01*
X102026784Y-89698456D01*
X101862812Y-89766376D01*
X101713512Y-89796073D01*
X101688742Y-89801000D01*
X101511258Y-89801000D01*
X101486488Y-89796073D01*
X101337188Y-89766376D01*
X101173216Y-89698456D01*
X101025646Y-89599853D01*
X100913395Y-89487602D01*
X100894464Y-89472066D01*
X100872853Y-89460515D01*
X100849404Y-89453402D01*
X100825018Y-89451000D01*
X98799000Y-89451000D01*
X98799000Y-88349000D01*
X100825018Y-88349000D01*
X100849404Y-88346598D01*
X100872853Y-88339485D01*
X100894464Y-88327934D01*
X100913395Y-88312398D01*
X101025646Y-88200147D01*
X101173216Y-88101544D01*
X101337188Y-88033624D01*
X101486488Y-88003927D01*
X101511258Y-87999000D01*
X101688742Y-87999000D01*
X101713512Y-88003927D01*
G37*
G36*
X158863512Y-86479927D02*
G01*
X159012812Y-86509624D01*
X159176784Y-86577544D01*
X159324354Y-86676147D01*
X159449853Y-86801646D01*
X159548456Y-86949216D01*
X159616376Y-87113188D01*
X159651000Y-87287259D01*
X159651000Y-87464741D01*
X159616376Y-87638812D01*
X159548456Y-87802784D01*
X159449853Y-87950354D01*
X159324354Y-88075853D01*
X159176784Y-88174456D01*
X159012812Y-88242376D01*
X158863512Y-88272073D01*
X158838742Y-88277000D01*
X158661258Y-88277000D01*
X158636488Y-88272073D01*
X158487188Y-88242376D01*
X158323216Y-88174456D01*
X158175646Y-88075853D01*
X158050147Y-87950354D01*
X157951544Y-87802784D01*
X157883624Y-87638812D01*
X157849000Y-87464741D01*
X157849000Y-87287259D01*
X157883624Y-87113188D01*
X157951544Y-86949216D01*
X158050147Y-86801646D01*
X158175646Y-86676147D01*
X158323216Y-86577544D01*
X158487188Y-86509624D01*
X158636488Y-86479927D01*
X158661258Y-86475000D01*
X158838742Y-86475000D01*
X158863512Y-86479927D01*
G37*
G36*
X145600823Y-86537313D02*
G01*
X145761242Y-86585976D01*
X145830155Y-86622811D01*
X145909078Y-86664996D01*
X146038659Y-86771341D01*
X146145004Y-86900922D01*
X146145005Y-86900924D01*
X146224024Y-87048758D01*
X146272687Y-87209177D01*
X146289117Y-87376000D01*
X146272687Y-87542823D01*
X146224024Y-87703242D01*
X146153114Y-87835906D01*
X146145004Y-87851078D01*
X146038659Y-87980659D01*
X145909078Y-88087004D01*
X145909076Y-88087005D01*
X145761242Y-88166024D01*
X145600823Y-88214687D01*
X145475804Y-88227000D01*
X144592196Y-88227000D01*
X144467177Y-88214687D01*
X144306758Y-88166024D01*
X144158924Y-88087005D01*
X144158922Y-88087004D01*
X144029341Y-87980659D01*
X143922996Y-87851078D01*
X143914886Y-87835906D01*
X143843976Y-87703242D01*
X143795313Y-87542823D01*
X143778883Y-87376000D01*
X143795313Y-87209177D01*
X143843976Y-87048758D01*
X143922995Y-86900924D01*
X143922996Y-86900922D01*
X144029341Y-86771341D01*
X144158922Y-86664996D01*
X144237845Y-86622811D01*
X144306758Y-86585976D01*
X144467177Y-86537313D01*
X144592196Y-86525000D01*
X145475804Y-86525000D01*
X145600823Y-86537313D01*
G37*
G36*
X155760823Y-86537313D02*
G01*
X155921242Y-86585976D01*
X155990155Y-86622811D01*
X156069078Y-86664996D01*
X156198659Y-86771341D01*
X156305004Y-86900922D01*
X156305005Y-86900924D01*
X156384024Y-87048758D01*
X156432687Y-87209177D01*
X156449117Y-87376000D01*
X156432687Y-87542823D01*
X156384024Y-87703242D01*
X156313114Y-87835906D01*
X156305004Y-87851078D01*
X156198659Y-87980659D01*
X156069078Y-88087004D01*
X156069076Y-88087005D01*
X155921242Y-88166024D01*
X155760823Y-88214687D01*
X155635804Y-88227000D01*
X154752196Y-88227000D01*
X154627177Y-88214687D01*
X154466758Y-88166024D01*
X154318924Y-88087005D01*
X154318922Y-88087004D01*
X154189341Y-87980659D01*
X154082996Y-87851078D01*
X154074886Y-87835906D01*
X154003976Y-87703242D01*
X153955313Y-87542823D01*
X153938883Y-87376000D01*
X153955313Y-87209177D01*
X154003976Y-87048758D01*
X154082995Y-86900924D01*
X154082996Y-86900922D01*
X154189341Y-86771341D01*
X154318922Y-86664996D01*
X154397845Y-86622811D01*
X154466758Y-86585976D01*
X154627177Y-86537313D01*
X154752196Y-86525000D01*
X155635804Y-86525000D01*
X155760823Y-86537313D01*
G37*
G36*
X101713512Y-85463927D02*
G01*
X101862812Y-85493624D01*
X102026784Y-85561544D01*
X102174354Y-85660147D01*
X102299853Y-85785646D01*
X102398456Y-85933216D01*
X102466376Y-86097188D01*
X102501000Y-86271259D01*
X102501000Y-86448741D01*
X102466376Y-86622812D01*
X102398456Y-86786784D01*
X102299853Y-86934354D01*
X102174354Y-87059853D01*
X102026784Y-87158456D01*
X101862812Y-87226376D01*
X101713512Y-87256073D01*
X101688742Y-87261000D01*
X101511258Y-87261000D01*
X101486488Y-87256073D01*
X101337188Y-87226376D01*
X101173216Y-87158456D01*
X101025646Y-87059853D01*
X100913395Y-86947602D01*
X100894464Y-86932066D01*
X100872853Y-86920515D01*
X100849404Y-86913402D01*
X100825018Y-86911000D01*
X98799000Y-86911000D01*
X98799000Y-85809000D01*
X100825018Y-85809000D01*
X100849404Y-85806598D01*
X100872853Y-85799485D01*
X100894464Y-85787934D01*
X100913395Y-85772398D01*
X101025646Y-85660147D01*
X101173216Y-85561544D01*
X101337188Y-85493624D01*
X101486488Y-85463927D01*
X101511258Y-85459000D01*
X101688742Y-85459000D01*
X101713512Y-85463927D01*
G37*
G36*
X104253512Y-85463927D02*
G01*
X104402812Y-85493624D01*
X104566784Y-85561544D01*
X104714354Y-85660147D01*
X104826605Y-85772398D01*
X104845536Y-85787934D01*
X104867147Y-85799485D01*
X104890596Y-85806598D01*
X104914982Y-85809000D01*
X106941000Y-85809000D01*
X106941000Y-86911000D01*
X104914982Y-86911000D01*
X104890596Y-86913402D01*
X104867147Y-86920515D01*
X104845536Y-86932066D01*
X104826605Y-86947602D01*
X104714354Y-87059853D01*
X104566784Y-87158456D01*
X104402812Y-87226376D01*
X104253512Y-87256073D01*
X104228742Y-87261000D01*
X104051258Y-87261000D01*
X104026488Y-87256073D01*
X103877188Y-87226376D01*
X103713216Y-87158456D01*
X103565646Y-87059853D01*
X103440147Y-86934354D01*
X103341544Y-86786784D01*
X103273624Y-86622812D01*
X103239000Y-86448741D01*
X103239000Y-86271259D01*
X103273624Y-86097188D01*
X103341544Y-85933216D01*
X103440147Y-85785646D01*
X103565646Y-85660147D01*
X103713216Y-85561544D01*
X103877188Y-85493624D01*
X104026488Y-85463927D01*
X104051258Y-85459000D01*
X104228742Y-85459000D01*
X104253512Y-85463927D01*
G37*
G36*
X158863512Y-83939927D02*
G01*
X159012812Y-83969624D01*
X159176784Y-84037544D01*
X159324354Y-84136147D01*
X159449853Y-84261646D01*
X159548456Y-84409216D01*
X159616376Y-84573188D01*
X159651000Y-84747259D01*
X159651000Y-84924741D01*
X159616376Y-85098812D01*
X159548456Y-85262784D01*
X159449853Y-85410354D01*
X159324354Y-85535853D01*
X159176784Y-85634456D01*
X159012812Y-85702376D01*
X158863512Y-85732073D01*
X158838742Y-85737000D01*
X158661258Y-85737000D01*
X158636488Y-85732073D01*
X158487188Y-85702376D01*
X158323216Y-85634456D01*
X158175646Y-85535853D01*
X158050147Y-85410354D01*
X157951544Y-85262784D01*
X157883624Y-85098812D01*
X157849000Y-84924741D01*
X157849000Y-84747259D01*
X157883624Y-84573188D01*
X157951544Y-84409216D01*
X158050147Y-84261646D01*
X158175646Y-84136147D01*
X158323216Y-84037544D01*
X158487188Y-83969624D01*
X158636488Y-83939927D01*
X158661258Y-83935000D01*
X158838742Y-83935000D01*
X158863512Y-83939927D01*
G37*
G36*
X145600823Y-83997313D02*
G01*
X145761242Y-84045976D01*
X145830155Y-84082811D01*
X145909078Y-84124996D01*
X146038659Y-84231341D01*
X146145004Y-84360922D01*
X146145005Y-84360924D01*
X146224024Y-84508758D01*
X146272687Y-84669177D01*
X146289117Y-84836000D01*
X146272687Y-85002823D01*
X146224024Y-85163242D01*
X146153114Y-85295906D01*
X146145004Y-85311078D01*
X146038659Y-85440659D01*
X145909078Y-85547004D01*
X145909076Y-85547005D01*
X145761242Y-85626024D01*
X145600823Y-85674687D01*
X145475804Y-85687000D01*
X144592196Y-85687000D01*
X144467177Y-85674687D01*
X144306758Y-85626024D01*
X144158924Y-85547005D01*
X144158922Y-85547004D01*
X144029341Y-85440659D01*
X143922996Y-85311078D01*
X143914886Y-85295906D01*
X143843976Y-85163242D01*
X143795313Y-85002823D01*
X143778883Y-84836000D01*
X143795313Y-84669177D01*
X143843976Y-84508758D01*
X143922995Y-84360924D01*
X143922996Y-84360922D01*
X144029341Y-84231341D01*
X144158922Y-84124996D01*
X144237845Y-84082811D01*
X144306758Y-84045976D01*
X144467177Y-83997313D01*
X144592196Y-83985000D01*
X145475804Y-83985000D01*
X145600823Y-83997313D01*
G37*
G36*
X155760823Y-83997313D02*
G01*
X155921242Y-84045976D01*
X155990155Y-84082811D01*
X156069078Y-84124996D01*
X156198659Y-84231341D01*
X156305004Y-84360922D01*
X156305005Y-84360924D01*
X156384024Y-84508758D01*
X156432687Y-84669177D01*
X156449117Y-84836000D01*
X156432687Y-85002823D01*
X156384024Y-85163242D01*
X156313114Y-85295906D01*
X156305004Y-85311078D01*
X156198659Y-85440659D01*
X156069078Y-85547004D01*
X156069076Y-85547005D01*
X155921242Y-85626024D01*
X155760823Y-85674687D01*
X155635804Y-85687000D01*
X154752196Y-85687000D01*
X154627177Y-85674687D01*
X154466758Y-85626024D01*
X154318924Y-85547005D01*
X154318922Y-85547004D01*
X154189341Y-85440659D01*
X154082996Y-85311078D01*
X154074886Y-85295906D01*
X154003976Y-85163242D01*
X153955313Y-85002823D01*
X153938883Y-84836000D01*
X153955313Y-84669177D01*
X154003976Y-84508758D01*
X154082995Y-84360924D01*
X154082996Y-84360922D01*
X154189341Y-84231341D01*
X154318922Y-84124996D01*
X154397845Y-84082811D01*
X154466758Y-84045976D01*
X154627177Y-83997313D01*
X154752196Y-83985000D01*
X155635804Y-83985000D01*
X155760823Y-83997313D01*
G37*
G36*
X104253512Y-82923927D02*
G01*
X104402812Y-82953624D01*
X104566784Y-83021544D01*
X104714354Y-83120147D01*
X104826605Y-83232398D01*
X104845536Y-83247934D01*
X104867147Y-83259485D01*
X104890596Y-83266598D01*
X104914982Y-83269000D01*
X106941000Y-83269000D01*
X106941000Y-84371000D01*
X104914982Y-84371000D01*
X104890596Y-84373402D01*
X104867147Y-84380515D01*
X104845536Y-84392066D01*
X104826605Y-84407602D01*
X104714354Y-84519853D01*
X104566784Y-84618456D01*
X104402812Y-84686376D01*
X104253512Y-84716073D01*
X104228742Y-84721000D01*
X104051258Y-84721000D01*
X104026488Y-84716073D01*
X103877188Y-84686376D01*
X103713216Y-84618456D01*
X103565646Y-84519853D01*
X103440147Y-84394354D01*
X103341544Y-84246784D01*
X103273624Y-84082812D01*
X103239000Y-83908741D01*
X103239000Y-83731259D01*
X103273624Y-83557188D01*
X103341544Y-83393216D01*
X103440147Y-83245646D01*
X103565646Y-83120147D01*
X103713216Y-83021544D01*
X103877188Y-82953624D01*
X104026488Y-82923927D01*
X104051258Y-82919000D01*
X104228742Y-82919000D01*
X104253512Y-82923927D01*
G37*
G36*
X101713512Y-82923927D02*
G01*
X101862812Y-82953624D01*
X102026784Y-83021544D01*
X102174354Y-83120147D01*
X102299853Y-83245646D01*
X102398456Y-83393216D01*
X102466376Y-83557188D01*
X102501000Y-83731259D01*
X102501000Y-83908741D01*
X102466376Y-84082812D01*
X102398456Y-84246784D01*
X102299853Y-84394354D01*
X102174354Y-84519853D01*
X102026784Y-84618456D01*
X101862812Y-84686376D01*
X101713512Y-84716073D01*
X101688742Y-84721000D01*
X101511258Y-84721000D01*
X101486488Y-84716073D01*
X101337188Y-84686376D01*
X101173216Y-84618456D01*
X101025646Y-84519853D01*
X100913395Y-84407602D01*
X100894464Y-84392066D01*
X100872853Y-84380515D01*
X100849404Y-84373402D01*
X100825018Y-84371000D01*
X98799000Y-84371000D01*
X98799000Y-83269000D01*
X100825018Y-83269000D01*
X100849404Y-83266598D01*
X100872853Y-83259485D01*
X100894464Y-83247934D01*
X100913395Y-83232398D01*
X101025646Y-83120147D01*
X101173216Y-83021544D01*
X101337188Y-82953624D01*
X101486488Y-82923927D01*
X101511258Y-82919000D01*
X101688742Y-82919000D01*
X101713512Y-82923927D01*
G37*
G36*
X104253512Y-80383927D02*
G01*
X104402812Y-80413624D01*
X104566784Y-80481544D01*
X104714354Y-80580147D01*
X104826605Y-80692398D01*
X104845536Y-80707934D01*
X104867147Y-80719485D01*
X104890596Y-80726598D01*
X104914982Y-80729000D01*
X106941000Y-80729000D01*
X106941000Y-81831000D01*
X104914982Y-81831000D01*
X104890596Y-81833402D01*
X104867147Y-81840515D01*
X104845536Y-81852066D01*
X104826605Y-81867602D01*
X104714354Y-81979853D01*
X104566784Y-82078456D01*
X104402812Y-82146376D01*
X104253512Y-82176073D01*
X104228742Y-82181000D01*
X104051258Y-82181000D01*
X104026488Y-82176073D01*
X103877188Y-82146376D01*
X103713216Y-82078456D01*
X103565646Y-81979853D01*
X103440147Y-81854354D01*
X103341544Y-81706784D01*
X103273624Y-81542812D01*
X103239000Y-81368741D01*
X103239000Y-81191259D01*
X103273624Y-81017188D01*
X103341544Y-80853216D01*
X103440147Y-80705646D01*
X103565646Y-80580147D01*
X103713216Y-80481544D01*
X103877188Y-80413624D01*
X104026488Y-80383927D01*
X104051258Y-80379000D01*
X104228742Y-80379000D01*
X104253512Y-80383927D01*
G37*
G36*
X102501000Y-82181000D02*
G01*
X100699000Y-82181000D01*
X100699000Y-81955999D01*
X100696598Y-81931613D01*
X100689485Y-81908164D01*
X100677934Y-81886553D01*
X100662389Y-81867611D01*
X100643447Y-81852066D01*
X100621836Y-81840515D01*
X100598387Y-81833402D01*
X100574001Y-81831000D01*
X98799000Y-81831000D01*
X98799000Y-80729000D01*
X100574001Y-80729000D01*
X100598387Y-80726598D01*
X100621836Y-80719485D01*
X100643447Y-80707934D01*
X100662389Y-80692389D01*
X100677934Y-80673447D01*
X100689485Y-80651836D01*
X100696598Y-80628387D01*
X100699000Y-80604001D01*
X100699000Y-80379000D01*
X102501000Y-80379000D01*
X102501000Y-82181000D01*
G37*
M02*
