G04 #@! TF.GenerationSoftware,KiCad,Pcbnew,5.1.5*
G04 #@! TF.CreationDate,2020-02-08T16:24:25+09:00*
G04 #@! TF.ProjectId,linearccd,6c696e65-6172-4636-9364-2e6b69636164,rev?*
G04 #@! TF.SameCoordinates,Original*
G04 #@! TF.FileFunction,Paste,Top*
G04 #@! TF.FilePolarity,Positive*
%FSLAX46Y46*%
G04 Gerber Fmt 4.6, Leading zero omitted, Abs format (unit mm)*
G04 Created by KiCad (PCBNEW 5.1.5) date 2020-02-08 16:24:25*
%MOMM*%
%LPD*%
G04 APERTURE LIST*
%ADD10R,1.000000X2.500000*%
%ADD11C,0.100000*%
%ADD12R,1.900000X1.000000*%
%ADD13R,0.900000X0.800000*%
G04 APERTURE END LIST*
D10*
X154432000Y-121540000D03*
X149352000Y-121540000D03*
X151892000Y-124840000D03*
D11*
G36*
X112169703Y-110190722D02*
G01*
X112184264Y-110192882D01*
X112198543Y-110196459D01*
X112212403Y-110201418D01*
X112225710Y-110207712D01*
X112238336Y-110215280D01*
X112250159Y-110224048D01*
X112261066Y-110233934D01*
X112270952Y-110244841D01*
X112279720Y-110256664D01*
X112287288Y-110269290D01*
X112293582Y-110282597D01*
X112298541Y-110296457D01*
X112302118Y-110310736D01*
X112304278Y-110325297D01*
X112305000Y-110340000D01*
X112305000Y-110640000D01*
X112304278Y-110654703D01*
X112302118Y-110669264D01*
X112298541Y-110683543D01*
X112293582Y-110697403D01*
X112287288Y-110710710D01*
X112279720Y-110723336D01*
X112270952Y-110735159D01*
X112261066Y-110746066D01*
X112250159Y-110755952D01*
X112238336Y-110764720D01*
X112225710Y-110772288D01*
X112212403Y-110778582D01*
X112198543Y-110783541D01*
X112184264Y-110787118D01*
X112169703Y-110789278D01*
X112155000Y-110790000D01*
X110655000Y-110790000D01*
X110640297Y-110789278D01*
X110625736Y-110787118D01*
X110611457Y-110783541D01*
X110597597Y-110778582D01*
X110584290Y-110772288D01*
X110571664Y-110764720D01*
X110559841Y-110755952D01*
X110548934Y-110746066D01*
X110539048Y-110735159D01*
X110530280Y-110723336D01*
X110522712Y-110710710D01*
X110516418Y-110697403D01*
X110511459Y-110683543D01*
X110507882Y-110669264D01*
X110505722Y-110654703D01*
X110505000Y-110640000D01*
X110505000Y-110340000D01*
X110505722Y-110325297D01*
X110507882Y-110310736D01*
X110511459Y-110296457D01*
X110516418Y-110282597D01*
X110522712Y-110269290D01*
X110530280Y-110256664D01*
X110539048Y-110244841D01*
X110548934Y-110233934D01*
X110559841Y-110224048D01*
X110571664Y-110215280D01*
X110584290Y-110207712D01*
X110597597Y-110201418D01*
X110611457Y-110196459D01*
X110625736Y-110192882D01*
X110640297Y-110190722D01*
X110655000Y-110190000D01*
X112155000Y-110190000D01*
X112169703Y-110190722D01*
G37*
G36*
X112169703Y-111460722D02*
G01*
X112184264Y-111462882D01*
X112198543Y-111466459D01*
X112212403Y-111471418D01*
X112225710Y-111477712D01*
X112238336Y-111485280D01*
X112250159Y-111494048D01*
X112261066Y-111503934D01*
X112270952Y-111514841D01*
X112279720Y-111526664D01*
X112287288Y-111539290D01*
X112293582Y-111552597D01*
X112298541Y-111566457D01*
X112302118Y-111580736D01*
X112304278Y-111595297D01*
X112305000Y-111610000D01*
X112305000Y-111910000D01*
X112304278Y-111924703D01*
X112302118Y-111939264D01*
X112298541Y-111953543D01*
X112293582Y-111967403D01*
X112287288Y-111980710D01*
X112279720Y-111993336D01*
X112270952Y-112005159D01*
X112261066Y-112016066D01*
X112250159Y-112025952D01*
X112238336Y-112034720D01*
X112225710Y-112042288D01*
X112212403Y-112048582D01*
X112198543Y-112053541D01*
X112184264Y-112057118D01*
X112169703Y-112059278D01*
X112155000Y-112060000D01*
X110655000Y-112060000D01*
X110640297Y-112059278D01*
X110625736Y-112057118D01*
X110611457Y-112053541D01*
X110597597Y-112048582D01*
X110584290Y-112042288D01*
X110571664Y-112034720D01*
X110559841Y-112025952D01*
X110548934Y-112016066D01*
X110539048Y-112005159D01*
X110530280Y-111993336D01*
X110522712Y-111980710D01*
X110516418Y-111967403D01*
X110511459Y-111953543D01*
X110507882Y-111939264D01*
X110505722Y-111924703D01*
X110505000Y-111910000D01*
X110505000Y-111610000D01*
X110505722Y-111595297D01*
X110507882Y-111580736D01*
X110511459Y-111566457D01*
X110516418Y-111552597D01*
X110522712Y-111539290D01*
X110530280Y-111526664D01*
X110539048Y-111514841D01*
X110548934Y-111503934D01*
X110559841Y-111494048D01*
X110571664Y-111485280D01*
X110584290Y-111477712D01*
X110597597Y-111471418D01*
X110611457Y-111466459D01*
X110625736Y-111462882D01*
X110640297Y-111460722D01*
X110655000Y-111460000D01*
X112155000Y-111460000D01*
X112169703Y-111460722D01*
G37*
G36*
X112169703Y-112730722D02*
G01*
X112184264Y-112732882D01*
X112198543Y-112736459D01*
X112212403Y-112741418D01*
X112225710Y-112747712D01*
X112238336Y-112755280D01*
X112250159Y-112764048D01*
X112261066Y-112773934D01*
X112270952Y-112784841D01*
X112279720Y-112796664D01*
X112287288Y-112809290D01*
X112293582Y-112822597D01*
X112298541Y-112836457D01*
X112302118Y-112850736D01*
X112304278Y-112865297D01*
X112305000Y-112880000D01*
X112305000Y-113180000D01*
X112304278Y-113194703D01*
X112302118Y-113209264D01*
X112298541Y-113223543D01*
X112293582Y-113237403D01*
X112287288Y-113250710D01*
X112279720Y-113263336D01*
X112270952Y-113275159D01*
X112261066Y-113286066D01*
X112250159Y-113295952D01*
X112238336Y-113304720D01*
X112225710Y-113312288D01*
X112212403Y-113318582D01*
X112198543Y-113323541D01*
X112184264Y-113327118D01*
X112169703Y-113329278D01*
X112155000Y-113330000D01*
X110655000Y-113330000D01*
X110640297Y-113329278D01*
X110625736Y-113327118D01*
X110611457Y-113323541D01*
X110597597Y-113318582D01*
X110584290Y-113312288D01*
X110571664Y-113304720D01*
X110559841Y-113295952D01*
X110548934Y-113286066D01*
X110539048Y-113275159D01*
X110530280Y-113263336D01*
X110522712Y-113250710D01*
X110516418Y-113237403D01*
X110511459Y-113223543D01*
X110507882Y-113209264D01*
X110505722Y-113194703D01*
X110505000Y-113180000D01*
X110505000Y-112880000D01*
X110505722Y-112865297D01*
X110507882Y-112850736D01*
X110511459Y-112836457D01*
X110516418Y-112822597D01*
X110522712Y-112809290D01*
X110530280Y-112796664D01*
X110539048Y-112784841D01*
X110548934Y-112773934D01*
X110559841Y-112764048D01*
X110571664Y-112755280D01*
X110584290Y-112747712D01*
X110597597Y-112741418D01*
X110611457Y-112736459D01*
X110625736Y-112732882D01*
X110640297Y-112730722D01*
X110655000Y-112730000D01*
X112155000Y-112730000D01*
X112169703Y-112730722D01*
G37*
G36*
X112169703Y-114000722D02*
G01*
X112184264Y-114002882D01*
X112198543Y-114006459D01*
X112212403Y-114011418D01*
X112225710Y-114017712D01*
X112238336Y-114025280D01*
X112250159Y-114034048D01*
X112261066Y-114043934D01*
X112270952Y-114054841D01*
X112279720Y-114066664D01*
X112287288Y-114079290D01*
X112293582Y-114092597D01*
X112298541Y-114106457D01*
X112302118Y-114120736D01*
X112304278Y-114135297D01*
X112305000Y-114150000D01*
X112305000Y-114450000D01*
X112304278Y-114464703D01*
X112302118Y-114479264D01*
X112298541Y-114493543D01*
X112293582Y-114507403D01*
X112287288Y-114520710D01*
X112279720Y-114533336D01*
X112270952Y-114545159D01*
X112261066Y-114556066D01*
X112250159Y-114565952D01*
X112238336Y-114574720D01*
X112225710Y-114582288D01*
X112212403Y-114588582D01*
X112198543Y-114593541D01*
X112184264Y-114597118D01*
X112169703Y-114599278D01*
X112155000Y-114600000D01*
X110655000Y-114600000D01*
X110640297Y-114599278D01*
X110625736Y-114597118D01*
X110611457Y-114593541D01*
X110597597Y-114588582D01*
X110584290Y-114582288D01*
X110571664Y-114574720D01*
X110559841Y-114565952D01*
X110548934Y-114556066D01*
X110539048Y-114545159D01*
X110530280Y-114533336D01*
X110522712Y-114520710D01*
X110516418Y-114507403D01*
X110511459Y-114493543D01*
X110507882Y-114479264D01*
X110505722Y-114464703D01*
X110505000Y-114450000D01*
X110505000Y-114150000D01*
X110505722Y-114135297D01*
X110507882Y-114120736D01*
X110511459Y-114106457D01*
X110516418Y-114092597D01*
X110522712Y-114079290D01*
X110530280Y-114066664D01*
X110539048Y-114054841D01*
X110548934Y-114043934D01*
X110559841Y-114034048D01*
X110571664Y-114025280D01*
X110584290Y-114017712D01*
X110597597Y-114011418D01*
X110611457Y-114006459D01*
X110625736Y-114002882D01*
X110640297Y-114000722D01*
X110655000Y-114000000D01*
X112155000Y-114000000D01*
X112169703Y-114000722D01*
G37*
G36*
X112169703Y-115270722D02*
G01*
X112184264Y-115272882D01*
X112198543Y-115276459D01*
X112212403Y-115281418D01*
X112225710Y-115287712D01*
X112238336Y-115295280D01*
X112250159Y-115304048D01*
X112261066Y-115313934D01*
X112270952Y-115324841D01*
X112279720Y-115336664D01*
X112287288Y-115349290D01*
X112293582Y-115362597D01*
X112298541Y-115376457D01*
X112302118Y-115390736D01*
X112304278Y-115405297D01*
X112305000Y-115420000D01*
X112305000Y-115720000D01*
X112304278Y-115734703D01*
X112302118Y-115749264D01*
X112298541Y-115763543D01*
X112293582Y-115777403D01*
X112287288Y-115790710D01*
X112279720Y-115803336D01*
X112270952Y-115815159D01*
X112261066Y-115826066D01*
X112250159Y-115835952D01*
X112238336Y-115844720D01*
X112225710Y-115852288D01*
X112212403Y-115858582D01*
X112198543Y-115863541D01*
X112184264Y-115867118D01*
X112169703Y-115869278D01*
X112155000Y-115870000D01*
X110655000Y-115870000D01*
X110640297Y-115869278D01*
X110625736Y-115867118D01*
X110611457Y-115863541D01*
X110597597Y-115858582D01*
X110584290Y-115852288D01*
X110571664Y-115844720D01*
X110559841Y-115835952D01*
X110548934Y-115826066D01*
X110539048Y-115815159D01*
X110530280Y-115803336D01*
X110522712Y-115790710D01*
X110516418Y-115777403D01*
X110511459Y-115763543D01*
X110507882Y-115749264D01*
X110505722Y-115734703D01*
X110505000Y-115720000D01*
X110505000Y-115420000D01*
X110505722Y-115405297D01*
X110507882Y-115390736D01*
X110511459Y-115376457D01*
X110516418Y-115362597D01*
X110522712Y-115349290D01*
X110530280Y-115336664D01*
X110539048Y-115324841D01*
X110548934Y-115313934D01*
X110559841Y-115304048D01*
X110571664Y-115295280D01*
X110584290Y-115287712D01*
X110597597Y-115281418D01*
X110611457Y-115276459D01*
X110625736Y-115272882D01*
X110640297Y-115270722D01*
X110655000Y-115270000D01*
X112155000Y-115270000D01*
X112169703Y-115270722D01*
G37*
G36*
X112169703Y-116540722D02*
G01*
X112184264Y-116542882D01*
X112198543Y-116546459D01*
X112212403Y-116551418D01*
X112225710Y-116557712D01*
X112238336Y-116565280D01*
X112250159Y-116574048D01*
X112261066Y-116583934D01*
X112270952Y-116594841D01*
X112279720Y-116606664D01*
X112287288Y-116619290D01*
X112293582Y-116632597D01*
X112298541Y-116646457D01*
X112302118Y-116660736D01*
X112304278Y-116675297D01*
X112305000Y-116690000D01*
X112305000Y-116990000D01*
X112304278Y-117004703D01*
X112302118Y-117019264D01*
X112298541Y-117033543D01*
X112293582Y-117047403D01*
X112287288Y-117060710D01*
X112279720Y-117073336D01*
X112270952Y-117085159D01*
X112261066Y-117096066D01*
X112250159Y-117105952D01*
X112238336Y-117114720D01*
X112225710Y-117122288D01*
X112212403Y-117128582D01*
X112198543Y-117133541D01*
X112184264Y-117137118D01*
X112169703Y-117139278D01*
X112155000Y-117140000D01*
X110655000Y-117140000D01*
X110640297Y-117139278D01*
X110625736Y-117137118D01*
X110611457Y-117133541D01*
X110597597Y-117128582D01*
X110584290Y-117122288D01*
X110571664Y-117114720D01*
X110559841Y-117105952D01*
X110548934Y-117096066D01*
X110539048Y-117085159D01*
X110530280Y-117073336D01*
X110522712Y-117060710D01*
X110516418Y-117047403D01*
X110511459Y-117033543D01*
X110507882Y-117019264D01*
X110505722Y-117004703D01*
X110505000Y-116990000D01*
X110505000Y-116690000D01*
X110505722Y-116675297D01*
X110507882Y-116660736D01*
X110511459Y-116646457D01*
X110516418Y-116632597D01*
X110522712Y-116619290D01*
X110530280Y-116606664D01*
X110539048Y-116594841D01*
X110548934Y-116583934D01*
X110559841Y-116574048D01*
X110571664Y-116565280D01*
X110584290Y-116557712D01*
X110597597Y-116551418D01*
X110611457Y-116546459D01*
X110625736Y-116542882D01*
X110640297Y-116540722D01*
X110655000Y-116540000D01*
X112155000Y-116540000D01*
X112169703Y-116540722D01*
G37*
G36*
X112169703Y-117810722D02*
G01*
X112184264Y-117812882D01*
X112198543Y-117816459D01*
X112212403Y-117821418D01*
X112225710Y-117827712D01*
X112238336Y-117835280D01*
X112250159Y-117844048D01*
X112261066Y-117853934D01*
X112270952Y-117864841D01*
X112279720Y-117876664D01*
X112287288Y-117889290D01*
X112293582Y-117902597D01*
X112298541Y-117916457D01*
X112302118Y-117930736D01*
X112304278Y-117945297D01*
X112305000Y-117960000D01*
X112305000Y-118260000D01*
X112304278Y-118274703D01*
X112302118Y-118289264D01*
X112298541Y-118303543D01*
X112293582Y-118317403D01*
X112287288Y-118330710D01*
X112279720Y-118343336D01*
X112270952Y-118355159D01*
X112261066Y-118366066D01*
X112250159Y-118375952D01*
X112238336Y-118384720D01*
X112225710Y-118392288D01*
X112212403Y-118398582D01*
X112198543Y-118403541D01*
X112184264Y-118407118D01*
X112169703Y-118409278D01*
X112155000Y-118410000D01*
X110655000Y-118410000D01*
X110640297Y-118409278D01*
X110625736Y-118407118D01*
X110611457Y-118403541D01*
X110597597Y-118398582D01*
X110584290Y-118392288D01*
X110571664Y-118384720D01*
X110559841Y-118375952D01*
X110548934Y-118366066D01*
X110539048Y-118355159D01*
X110530280Y-118343336D01*
X110522712Y-118330710D01*
X110516418Y-118317403D01*
X110511459Y-118303543D01*
X110507882Y-118289264D01*
X110505722Y-118274703D01*
X110505000Y-118260000D01*
X110505000Y-117960000D01*
X110505722Y-117945297D01*
X110507882Y-117930736D01*
X110511459Y-117916457D01*
X110516418Y-117902597D01*
X110522712Y-117889290D01*
X110530280Y-117876664D01*
X110539048Y-117864841D01*
X110548934Y-117853934D01*
X110559841Y-117844048D01*
X110571664Y-117835280D01*
X110584290Y-117827712D01*
X110597597Y-117821418D01*
X110611457Y-117816459D01*
X110625736Y-117812882D01*
X110640297Y-117810722D01*
X110655000Y-117810000D01*
X112155000Y-117810000D01*
X112169703Y-117810722D01*
G37*
G36*
X112169703Y-119080722D02*
G01*
X112184264Y-119082882D01*
X112198543Y-119086459D01*
X112212403Y-119091418D01*
X112225710Y-119097712D01*
X112238336Y-119105280D01*
X112250159Y-119114048D01*
X112261066Y-119123934D01*
X112270952Y-119134841D01*
X112279720Y-119146664D01*
X112287288Y-119159290D01*
X112293582Y-119172597D01*
X112298541Y-119186457D01*
X112302118Y-119200736D01*
X112304278Y-119215297D01*
X112305000Y-119230000D01*
X112305000Y-119530000D01*
X112304278Y-119544703D01*
X112302118Y-119559264D01*
X112298541Y-119573543D01*
X112293582Y-119587403D01*
X112287288Y-119600710D01*
X112279720Y-119613336D01*
X112270952Y-119625159D01*
X112261066Y-119636066D01*
X112250159Y-119645952D01*
X112238336Y-119654720D01*
X112225710Y-119662288D01*
X112212403Y-119668582D01*
X112198543Y-119673541D01*
X112184264Y-119677118D01*
X112169703Y-119679278D01*
X112155000Y-119680000D01*
X110655000Y-119680000D01*
X110640297Y-119679278D01*
X110625736Y-119677118D01*
X110611457Y-119673541D01*
X110597597Y-119668582D01*
X110584290Y-119662288D01*
X110571664Y-119654720D01*
X110559841Y-119645952D01*
X110548934Y-119636066D01*
X110539048Y-119625159D01*
X110530280Y-119613336D01*
X110522712Y-119600710D01*
X110516418Y-119587403D01*
X110511459Y-119573543D01*
X110507882Y-119559264D01*
X110505722Y-119544703D01*
X110505000Y-119530000D01*
X110505000Y-119230000D01*
X110505722Y-119215297D01*
X110507882Y-119200736D01*
X110511459Y-119186457D01*
X110516418Y-119172597D01*
X110522712Y-119159290D01*
X110530280Y-119146664D01*
X110539048Y-119134841D01*
X110548934Y-119123934D01*
X110559841Y-119114048D01*
X110571664Y-119105280D01*
X110584290Y-119097712D01*
X110597597Y-119091418D01*
X110611457Y-119086459D01*
X110625736Y-119082882D01*
X110640297Y-119080722D01*
X110655000Y-119080000D01*
X112155000Y-119080000D01*
X112169703Y-119080722D01*
G37*
G36*
X112169703Y-120350722D02*
G01*
X112184264Y-120352882D01*
X112198543Y-120356459D01*
X112212403Y-120361418D01*
X112225710Y-120367712D01*
X112238336Y-120375280D01*
X112250159Y-120384048D01*
X112261066Y-120393934D01*
X112270952Y-120404841D01*
X112279720Y-120416664D01*
X112287288Y-120429290D01*
X112293582Y-120442597D01*
X112298541Y-120456457D01*
X112302118Y-120470736D01*
X112304278Y-120485297D01*
X112305000Y-120500000D01*
X112305000Y-120800000D01*
X112304278Y-120814703D01*
X112302118Y-120829264D01*
X112298541Y-120843543D01*
X112293582Y-120857403D01*
X112287288Y-120870710D01*
X112279720Y-120883336D01*
X112270952Y-120895159D01*
X112261066Y-120906066D01*
X112250159Y-120915952D01*
X112238336Y-120924720D01*
X112225710Y-120932288D01*
X112212403Y-120938582D01*
X112198543Y-120943541D01*
X112184264Y-120947118D01*
X112169703Y-120949278D01*
X112155000Y-120950000D01*
X110655000Y-120950000D01*
X110640297Y-120949278D01*
X110625736Y-120947118D01*
X110611457Y-120943541D01*
X110597597Y-120938582D01*
X110584290Y-120932288D01*
X110571664Y-120924720D01*
X110559841Y-120915952D01*
X110548934Y-120906066D01*
X110539048Y-120895159D01*
X110530280Y-120883336D01*
X110522712Y-120870710D01*
X110516418Y-120857403D01*
X110511459Y-120843543D01*
X110507882Y-120829264D01*
X110505722Y-120814703D01*
X110505000Y-120800000D01*
X110505000Y-120500000D01*
X110505722Y-120485297D01*
X110507882Y-120470736D01*
X110511459Y-120456457D01*
X110516418Y-120442597D01*
X110522712Y-120429290D01*
X110530280Y-120416664D01*
X110539048Y-120404841D01*
X110548934Y-120393934D01*
X110559841Y-120384048D01*
X110571664Y-120375280D01*
X110584290Y-120367712D01*
X110597597Y-120361418D01*
X110611457Y-120356459D01*
X110625736Y-120352882D01*
X110640297Y-120350722D01*
X110655000Y-120350000D01*
X112155000Y-120350000D01*
X112169703Y-120350722D01*
G37*
G36*
X112169703Y-121620722D02*
G01*
X112184264Y-121622882D01*
X112198543Y-121626459D01*
X112212403Y-121631418D01*
X112225710Y-121637712D01*
X112238336Y-121645280D01*
X112250159Y-121654048D01*
X112261066Y-121663934D01*
X112270952Y-121674841D01*
X112279720Y-121686664D01*
X112287288Y-121699290D01*
X112293582Y-121712597D01*
X112298541Y-121726457D01*
X112302118Y-121740736D01*
X112304278Y-121755297D01*
X112305000Y-121770000D01*
X112305000Y-122070000D01*
X112304278Y-122084703D01*
X112302118Y-122099264D01*
X112298541Y-122113543D01*
X112293582Y-122127403D01*
X112287288Y-122140710D01*
X112279720Y-122153336D01*
X112270952Y-122165159D01*
X112261066Y-122176066D01*
X112250159Y-122185952D01*
X112238336Y-122194720D01*
X112225710Y-122202288D01*
X112212403Y-122208582D01*
X112198543Y-122213541D01*
X112184264Y-122217118D01*
X112169703Y-122219278D01*
X112155000Y-122220000D01*
X110655000Y-122220000D01*
X110640297Y-122219278D01*
X110625736Y-122217118D01*
X110611457Y-122213541D01*
X110597597Y-122208582D01*
X110584290Y-122202288D01*
X110571664Y-122194720D01*
X110559841Y-122185952D01*
X110548934Y-122176066D01*
X110539048Y-122165159D01*
X110530280Y-122153336D01*
X110522712Y-122140710D01*
X110516418Y-122127403D01*
X110511459Y-122113543D01*
X110507882Y-122099264D01*
X110505722Y-122084703D01*
X110505000Y-122070000D01*
X110505000Y-121770000D01*
X110505722Y-121755297D01*
X110507882Y-121740736D01*
X110511459Y-121726457D01*
X110516418Y-121712597D01*
X110522712Y-121699290D01*
X110530280Y-121686664D01*
X110539048Y-121674841D01*
X110548934Y-121663934D01*
X110559841Y-121654048D01*
X110571664Y-121645280D01*
X110584290Y-121637712D01*
X110597597Y-121631418D01*
X110611457Y-121626459D01*
X110625736Y-121622882D01*
X110640297Y-121620722D01*
X110655000Y-121620000D01*
X112155000Y-121620000D01*
X112169703Y-121620722D01*
G37*
G36*
X112169703Y-122890722D02*
G01*
X112184264Y-122892882D01*
X112198543Y-122896459D01*
X112212403Y-122901418D01*
X112225710Y-122907712D01*
X112238336Y-122915280D01*
X112250159Y-122924048D01*
X112261066Y-122933934D01*
X112270952Y-122944841D01*
X112279720Y-122956664D01*
X112287288Y-122969290D01*
X112293582Y-122982597D01*
X112298541Y-122996457D01*
X112302118Y-123010736D01*
X112304278Y-123025297D01*
X112305000Y-123040000D01*
X112305000Y-123340000D01*
X112304278Y-123354703D01*
X112302118Y-123369264D01*
X112298541Y-123383543D01*
X112293582Y-123397403D01*
X112287288Y-123410710D01*
X112279720Y-123423336D01*
X112270952Y-123435159D01*
X112261066Y-123446066D01*
X112250159Y-123455952D01*
X112238336Y-123464720D01*
X112225710Y-123472288D01*
X112212403Y-123478582D01*
X112198543Y-123483541D01*
X112184264Y-123487118D01*
X112169703Y-123489278D01*
X112155000Y-123490000D01*
X110655000Y-123490000D01*
X110640297Y-123489278D01*
X110625736Y-123487118D01*
X110611457Y-123483541D01*
X110597597Y-123478582D01*
X110584290Y-123472288D01*
X110571664Y-123464720D01*
X110559841Y-123455952D01*
X110548934Y-123446066D01*
X110539048Y-123435159D01*
X110530280Y-123423336D01*
X110522712Y-123410710D01*
X110516418Y-123397403D01*
X110511459Y-123383543D01*
X110507882Y-123369264D01*
X110505722Y-123354703D01*
X110505000Y-123340000D01*
X110505000Y-123040000D01*
X110505722Y-123025297D01*
X110507882Y-123010736D01*
X110511459Y-122996457D01*
X110516418Y-122982597D01*
X110522712Y-122969290D01*
X110530280Y-122956664D01*
X110539048Y-122944841D01*
X110548934Y-122933934D01*
X110559841Y-122924048D01*
X110571664Y-122915280D01*
X110584290Y-122907712D01*
X110597597Y-122901418D01*
X110611457Y-122896459D01*
X110625736Y-122892882D01*
X110640297Y-122890722D01*
X110655000Y-122890000D01*
X112155000Y-122890000D01*
X112169703Y-122890722D01*
G37*
G36*
X112169703Y-124160722D02*
G01*
X112184264Y-124162882D01*
X112198543Y-124166459D01*
X112212403Y-124171418D01*
X112225710Y-124177712D01*
X112238336Y-124185280D01*
X112250159Y-124194048D01*
X112261066Y-124203934D01*
X112270952Y-124214841D01*
X112279720Y-124226664D01*
X112287288Y-124239290D01*
X112293582Y-124252597D01*
X112298541Y-124266457D01*
X112302118Y-124280736D01*
X112304278Y-124295297D01*
X112305000Y-124310000D01*
X112305000Y-124610000D01*
X112304278Y-124624703D01*
X112302118Y-124639264D01*
X112298541Y-124653543D01*
X112293582Y-124667403D01*
X112287288Y-124680710D01*
X112279720Y-124693336D01*
X112270952Y-124705159D01*
X112261066Y-124716066D01*
X112250159Y-124725952D01*
X112238336Y-124734720D01*
X112225710Y-124742288D01*
X112212403Y-124748582D01*
X112198543Y-124753541D01*
X112184264Y-124757118D01*
X112169703Y-124759278D01*
X112155000Y-124760000D01*
X110655000Y-124760000D01*
X110640297Y-124759278D01*
X110625736Y-124757118D01*
X110611457Y-124753541D01*
X110597597Y-124748582D01*
X110584290Y-124742288D01*
X110571664Y-124734720D01*
X110559841Y-124725952D01*
X110548934Y-124716066D01*
X110539048Y-124705159D01*
X110530280Y-124693336D01*
X110522712Y-124680710D01*
X110516418Y-124667403D01*
X110511459Y-124653543D01*
X110507882Y-124639264D01*
X110505722Y-124624703D01*
X110505000Y-124610000D01*
X110505000Y-124310000D01*
X110505722Y-124295297D01*
X110507882Y-124280736D01*
X110511459Y-124266457D01*
X110516418Y-124252597D01*
X110522712Y-124239290D01*
X110530280Y-124226664D01*
X110539048Y-124214841D01*
X110548934Y-124203934D01*
X110559841Y-124194048D01*
X110571664Y-124185280D01*
X110584290Y-124177712D01*
X110597597Y-124171418D01*
X110611457Y-124166459D01*
X110625736Y-124162882D01*
X110640297Y-124160722D01*
X110655000Y-124160000D01*
X112155000Y-124160000D01*
X112169703Y-124160722D01*
G37*
G36*
X112169703Y-125430722D02*
G01*
X112184264Y-125432882D01*
X112198543Y-125436459D01*
X112212403Y-125441418D01*
X112225710Y-125447712D01*
X112238336Y-125455280D01*
X112250159Y-125464048D01*
X112261066Y-125473934D01*
X112270952Y-125484841D01*
X112279720Y-125496664D01*
X112287288Y-125509290D01*
X112293582Y-125522597D01*
X112298541Y-125536457D01*
X112302118Y-125550736D01*
X112304278Y-125565297D01*
X112305000Y-125580000D01*
X112305000Y-125880000D01*
X112304278Y-125894703D01*
X112302118Y-125909264D01*
X112298541Y-125923543D01*
X112293582Y-125937403D01*
X112287288Y-125950710D01*
X112279720Y-125963336D01*
X112270952Y-125975159D01*
X112261066Y-125986066D01*
X112250159Y-125995952D01*
X112238336Y-126004720D01*
X112225710Y-126012288D01*
X112212403Y-126018582D01*
X112198543Y-126023541D01*
X112184264Y-126027118D01*
X112169703Y-126029278D01*
X112155000Y-126030000D01*
X110655000Y-126030000D01*
X110640297Y-126029278D01*
X110625736Y-126027118D01*
X110611457Y-126023541D01*
X110597597Y-126018582D01*
X110584290Y-126012288D01*
X110571664Y-126004720D01*
X110559841Y-125995952D01*
X110548934Y-125986066D01*
X110539048Y-125975159D01*
X110530280Y-125963336D01*
X110522712Y-125950710D01*
X110516418Y-125937403D01*
X110511459Y-125923543D01*
X110507882Y-125909264D01*
X110505722Y-125894703D01*
X110505000Y-125880000D01*
X110505000Y-125580000D01*
X110505722Y-125565297D01*
X110507882Y-125550736D01*
X110511459Y-125536457D01*
X110516418Y-125522597D01*
X110522712Y-125509290D01*
X110530280Y-125496664D01*
X110539048Y-125484841D01*
X110548934Y-125473934D01*
X110559841Y-125464048D01*
X110571664Y-125455280D01*
X110584290Y-125447712D01*
X110597597Y-125441418D01*
X110611457Y-125436459D01*
X110625736Y-125432882D01*
X110640297Y-125430722D01*
X110655000Y-125430000D01*
X112155000Y-125430000D01*
X112169703Y-125430722D01*
G37*
G36*
X112169703Y-126700722D02*
G01*
X112184264Y-126702882D01*
X112198543Y-126706459D01*
X112212403Y-126711418D01*
X112225710Y-126717712D01*
X112238336Y-126725280D01*
X112250159Y-126734048D01*
X112261066Y-126743934D01*
X112270952Y-126754841D01*
X112279720Y-126766664D01*
X112287288Y-126779290D01*
X112293582Y-126792597D01*
X112298541Y-126806457D01*
X112302118Y-126820736D01*
X112304278Y-126835297D01*
X112305000Y-126850000D01*
X112305000Y-127150000D01*
X112304278Y-127164703D01*
X112302118Y-127179264D01*
X112298541Y-127193543D01*
X112293582Y-127207403D01*
X112287288Y-127220710D01*
X112279720Y-127233336D01*
X112270952Y-127245159D01*
X112261066Y-127256066D01*
X112250159Y-127265952D01*
X112238336Y-127274720D01*
X112225710Y-127282288D01*
X112212403Y-127288582D01*
X112198543Y-127293541D01*
X112184264Y-127297118D01*
X112169703Y-127299278D01*
X112155000Y-127300000D01*
X110655000Y-127300000D01*
X110640297Y-127299278D01*
X110625736Y-127297118D01*
X110611457Y-127293541D01*
X110597597Y-127288582D01*
X110584290Y-127282288D01*
X110571664Y-127274720D01*
X110559841Y-127265952D01*
X110548934Y-127256066D01*
X110539048Y-127245159D01*
X110530280Y-127233336D01*
X110522712Y-127220710D01*
X110516418Y-127207403D01*
X110511459Y-127193543D01*
X110507882Y-127179264D01*
X110505722Y-127164703D01*
X110505000Y-127150000D01*
X110505000Y-126850000D01*
X110505722Y-126835297D01*
X110507882Y-126820736D01*
X110511459Y-126806457D01*
X110516418Y-126792597D01*
X110522712Y-126779290D01*
X110530280Y-126766664D01*
X110539048Y-126754841D01*
X110548934Y-126743934D01*
X110559841Y-126734048D01*
X110571664Y-126725280D01*
X110584290Y-126717712D01*
X110597597Y-126711418D01*
X110611457Y-126706459D01*
X110625736Y-126702882D01*
X110640297Y-126700722D01*
X110655000Y-126700000D01*
X112155000Y-126700000D01*
X112169703Y-126700722D01*
G37*
G36*
X121769703Y-126700722D02*
G01*
X121784264Y-126702882D01*
X121798543Y-126706459D01*
X121812403Y-126711418D01*
X121825710Y-126717712D01*
X121838336Y-126725280D01*
X121850159Y-126734048D01*
X121861066Y-126743934D01*
X121870952Y-126754841D01*
X121879720Y-126766664D01*
X121887288Y-126779290D01*
X121893582Y-126792597D01*
X121898541Y-126806457D01*
X121902118Y-126820736D01*
X121904278Y-126835297D01*
X121905000Y-126850000D01*
X121905000Y-127150000D01*
X121904278Y-127164703D01*
X121902118Y-127179264D01*
X121898541Y-127193543D01*
X121893582Y-127207403D01*
X121887288Y-127220710D01*
X121879720Y-127233336D01*
X121870952Y-127245159D01*
X121861066Y-127256066D01*
X121850159Y-127265952D01*
X121838336Y-127274720D01*
X121825710Y-127282288D01*
X121812403Y-127288582D01*
X121798543Y-127293541D01*
X121784264Y-127297118D01*
X121769703Y-127299278D01*
X121755000Y-127300000D01*
X120255000Y-127300000D01*
X120240297Y-127299278D01*
X120225736Y-127297118D01*
X120211457Y-127293541D01*
X120197597Y-127288582D01*
X120184290Y-127282288D01*
X120171664Y-127274720D01*
X120159841Y-127265952D01*
X120148934Y-127256066D01*
X120139048Y-127245159D01*
X120130280Y-127233336D01*
X120122712Y-127220710D01*
X120116418Y-127207403D01*
X120111459Y-127193543D01*
X120107882Y-127179264D01*
X120105722Y-127164703D01*
X120105000Y-127150000D01*
X120105000Y-126850000D01*
X120105722Y-126835297D01*
X120107882Y-126820736D01*
X120111459Y-126806457D01*
X120116418Y-126792597D01*
X120122712Y-126779290D01*
X120130280Y-126766664D01*
X120139048Y-126754841D01*
X120148934Y-126743934D01*
X120159841Y-126734048D01*
X120171664Y-126725280D01*
X120184290Y-126717712D01*
X120197597Y-126711418D01*
X120211457Y-126706459D01*
X120225736Y-126702882D01*
X120240297Y-126700722D01*
X120255000Y-126700000D01*
X121755000Y-126700000D01*
X121769703Y-126700722D01*
G37*
G36*
X121769703Y-125430722D02*
G01*
X121784264Y-125432882D01*
X121798543Y-125436459D01*
X121812403Y-125441418D01*
X121825710Y-125447712D01*
X121838336Y-125455280D01*
X121850159Y-125464048D01*
X121861066Y-125473934D01*
X121870952Y-125484841D01*
X121879720Y-125496664D01*
X121887288Y-125509290D01*
X121893582Y-125522597D01*
X121898541Y-125536457D01*
X121902118Y-125550736D01*
X121904278Y-125565297D01*
X121905000Y-125580000D01*
X121905000Y-125880000D01*
X121904278Y-125894703D01*
X121902118Y-125909264D01*
X121898541Y-125923543D01*
X121893582Y-125937403D01*
X121887288Y-125950710D01*
X121879720Y-125963336D01*
X121870952Y-125975159D01*
X121861066Y-125986066D01*
X121850159Y-125995952D01*
X121838336Y-126004720D01*
X121825710Y-126012288D01*
X121812403Y-126018582D01*
X121798543Y-126023541D01*
X121784264Y-126027118D01*
X121769703Y-126029278D01*
X121755000Y-126030000D01*
X120255000Y-126030000D01*
X120240297Y-126029278D01*
X120225736Y-126027118D01*
X120211457Y-126023541D01*
X120197597Y-126018582D01*
X120184290Y-126012288D01*
X120171664Y-126004720D01*
X120159841Y-125995952D01*
X120148934Y-125986066D01*
X120139048Y-125975159D01*
X120130280Y-125963336D01*
X120122712Y-125950710D01*
X120116418Y-125937403D01*
X120111459Y-125923543D01*
X120107882Y-125909264D01*
X120105722Y-125894703D01*
X120105000Y-125880000D01*
X120105000Y-125580000D01*
X120105722Y-125565297D01*
X120107882Y-125550736D01*
X120111459Y-125536457D01*
X120116418Y-125522597D01*
X120122712Y-125509290D01*
X120130280Y-125496664D01*
X120139048Y-125484841D01*
X120148934Y-125473934D01*
X120159841Y-125464048D01*
X120171664Y-125455280D01*
X120184290Y-125447712D01*
X120197597Y-125441418D01*
X120211457Y-125436459D01*
X120225736Y-125432882D01*
X120240297Y-125430722D01*
X120255000Y-125430000D01*
X121755000Y-125430000D01*
X121769703Y-125430722D01*
G37*
G36*
X121769703Y-124160722D02*
G01*
X121784264Y-124162882D01*
X121798543Y-124166459D01*
X121812403Y-124171418D01*
X121825710Y-124177712D01*
X121838336Y-124185280D01*
X121850159Y-124194048D01*
X121861066Y-124203934D01*
X121870952Y-124214841D01*
X121879720Y-124226664D01*
X121887288Y-124239290D01*
X121893582Y-124252597D01*
X121898541Y-124266457D01*
X121902118Y-124280736D01*
X121904278Y-124295297D01*
X121905000Y-124310000D01*
X121905000Y-124610000D01*
X121904278Y-124624703D01*
X121902118Y-124639264D01*
X121898541Y-124653543D01*
X121893582Y-124667403D01*
X121887288Y-124680710D01*
X121879720Y-124693336D01*
X121870952Y-124705159D01*
X121861066Y-124716066D01*
X121850159Y-124725952D01*
X121838336Y-124734720D01*
X121825710Y-124742288D01*
X121812403Y-124748582D01*
X121798543Y-124753541D01*
X121784264Y-124757118D01*
X121769703Y-124759278D01*
X121755000Y-124760000D01*
X120255000Y-124760000D01*
X120240297Y-124759278D01*
X120225736Y-124757118D01*
X120211457Y-124753541D01*
X120197597Y-124748582D01*
X120184290Y-124742288D01*
X120171664Y-124734720D01*
X120159841Y-124725952D01*
X120148934Y-124716066D01*
X120139048Y-124705159D01*
X120130280Y-124693336D01*
X120122712Y-124680710D01*
X120116418Y-124667403D01*
X120111459Y-124653543D01*
X120107882Y-124639264D01*
X120105722Y-124624703D01*
X120105000Y-124610000D01*
X120105000Y-124310000D01*
X120105722Y-124295297D01*
X120107882Y-124280736D01*
X120111459Y-124266457D01*
X120116418Y-124252597D01*
X120122712Y-124239290D01*
X120130280Y-124226664D01*
X120139048Y-124214841D01*
X120148934Y-124203934D01*
X120159841Y-124194048D01*
X120171664Y-124185280D01*
X120184290Y-124177712D01*
X120197597Y-124171418D01*
X120211457Y-124166459D01*
X120225736Y-124162882D01*
X120240297Y-124160722D01*
X120255000Y-124160000D01*
X121755000Y-124160000D01*
X121769703Y-124160722D01*
G37*
G36*
X121769703Y-122890722D02*
G01*
X121784264Y-122892882D01*
X121798543Y-122896459D01*
X121812403Y-122901418D01*
X121825710Y-122907712D01*
X121838336Y-122915280D01*
X121850159Y-122924048D01*
X121861066Y-122933934D01*
X121870952Y-122944841D01*
X121879720Y-122956664D01*
X121887288Y-122969290D01*
X121893582Y-122982597D01*
X121898541Y-122996457D01*
X121902118Y-123010736D01*
X121904278Y-123025297D01*
X121905000Y-123040000D01*
X121905000Y-123340000D01*
X121904278Y-123354703D01*
X121902118Y-123369264D01*
X121898541Y-123383543D01*
X121893582Y-123397403D01*
X121887288Y-123410710D01*
X121879720Y-123423336D01*
X121870952Y-123435159D01*
X121861066Y-123446066D01*
X121850159Y-123455952D01*
X121838336Y-123464720D01*
X121825710Y-123472288D01*
X121812403Y-123478582D01*
X121798543Y-123483541D01*
X121784264Y-123487118D01*
X121769703Y-123489278D01*
X121755000Y-123490000D01*
X120255000Y-123490000D01*
X120240297Y-123489278D01*
X120225736Y-123487118D01*
X120211457Y-123483541D01*
X120197597Y-123478582D01*
X120184290Y-123472288D01*
X120171664Y-123464720D01*
X120159841Y-123455952D01*
X120148934Y-123446066D01*
X120139048Y-123435159D01*
X120130280Y-123423336D01*
X120122712Y-123410710D01*
X120116418Y-123397403D01*
X120111459Y-123383543D01*
X120107882Y-123369264D01*
X120105722Y-123354703D01*
X120105000Y-123340000D01*
X120105000Y-123040000D01*
X120105722Y-123025297D01*
X120107882Y-123010736D01*
X120111459Y-122996457D01*
X120116418Y-122982597D01*
X120122712Y-122969290D01*
X120130280Y-122956664D01*
X120139048Y-122944841D01*
X120148934Y-122933934D01*
X120159841Y-122924048D01*
X120171664Y-122915280D01*
X120184290Y-122907712D01*
X120197597Y-122901418D01*
X120211457Y-122896459D01*
X120225736Y-122892882D01*
X120240297Y-122890722D01*
X120255000Y-122890000D01*
X121755000Y-122890000D01*
X121769703Y-122890722D01*
G37*
G36*
X121769703Y-121620722D02*
G01*
X121784264Y-121622882D01*
X121798543Y-121626459D01*
X121812403Y-121631418D01*
X121825710Y-121637712D01*
X121838336Y-121645280D01*
X121850159Y-121654048D01*
X121861066Y-121663934D01*
X121870952Y-121674841D01*
X121879720Y-121686664D01*
X121887288Y-121699290D01*
X121893582Y-121712597D01*
X121898541Y-121726457D01*
X121902118Y-121740736D01*
X121904278Y-121755297D01*
X121905000Y-121770000D01*
X121905000Y-122070000D01*
X121904278Y-122084703D01*
X121902118Y-122099264D01*
X121898541Y-122113543D01*
X121893582Y-122127403D01*
X121887288Y-122140710D01*
X121879720Y-122153336D01*
X121870952Y-122165159D01*
X121861066Y-122176066D01*
X121850159Y-122185952D01*
X121838336Y-122194720D01*
X121825710Y-122202288D01*
X121812403Y-122208582D01*
X121798543Y-122213541D01*
X121784264Y-122217118D01*
X121769703Y-122219278D01*
X121755000Y-122220000D01*
X120255000Y-122220000D01*
X120240297Y-122219278D01*
X120225736Y-122217118D01*
X120211457Y-122213541D01*
X120197597Y-122208582D01*
X120184290Y-122202288D01*
X120171664Y-122194720D01*
X120159841Y-122185952D01*
X120148934Y-122176066D01*
X120139048Y-122165159D01*
X120130280Y-122153336D01*
X120122712Y-122140710D01*
X120116418Y-122127403D01*
X120111459Y-122113543D01*
X120107882Y-122099264D01*
X120105722Y-122084703D01*
X120105000Y-122070000D01*
X120105000Y-121770000D01*
X120105722Y-121755297D01*
X120107882Y-121740736D01*
X120111459Y-121726457D01*
X120116418Y-121712597D01*
X120122712Y-121699290D01*
X120130280Y-121686664D01*
X120139048Y-121674841D01*
X120148934Y-121663934D01*
X120159841Y-121654048D01*
X120171664Y-121645280D01*
X120184290Y-121637712D01*
X120197597Y-121631418D01*
X120211457Y-121626459D01*
X120225736Y-121622882D01*
X120240297Y-121620722D01*
X120255000Y-121620000D01*
X121755000Y-121620000D01*
X121769703Y-121620722D01*
G37*
G36*
X121769703Y-120350722D02*
G01*
X121784264Y-120352882D01*
X121798543Y-120356459D01*
X121812403Y-120361418D01*
X121825710Y-120367712D01*
X121838336Y-120375280D01*
X121850159Y-120384048D01*
X121861066Y-120393934D01*
X121870952Y-120404841D01*
X121879720Y-120416664D01*
X121887288Y-120429290D01*
X121893582Y-120442597D01*
X121898541Y-120456457D01*
X121902118Y-120470736D01*
X121904278Y-120485297D01*
X121905000Y-120500000D01*
X121905000Y-120800000D01*
X121904278Y-120814703D01*
X121902118Y-120829264D01*
X121898541Y-120843543D01*
X121893582Y-120857403D01*
X121887288Y-120870710D01*
X121879720Y-120883336D01*
X121870952Y-120895159D01*
X121861066Y-120906066D01*
X121850159Y-120915952D01*
X121838336Y-120924720D01*
X121825710Y-120932288D01*
X121812403Y-120938582D01*
X121798543Y-120943541D01*
X121784264Y-120947118D01*
X121769703Y-120949278D01*
X121755000Y-120950000D01*
X120255000Y-120950000D01*
X120240297Y-120949278D01*
X120225736Y-120947118D01*
X120211457Y-120943541D01*
X120197597Y-120938582D01*
X120184290Y-120932288D01*
X120171664Y-120924720D01*
X120159841Y-120915952D01*
X120148934Y-120906066D01*
X120139048Y-120895159D01*
X120130280Y-120883336D01*
X120122712Y-120870710D01*
X120116418Y-120857403D01*
X120111459Y-120843543D01*
X120107882Y-120829264D01*
X120105722Y-120814703D01*
X120105000Y-120800000D01*
X120105000Y-120500000D01*
X120105722Y-120485297D01*
X120107882Y-120470736D01*
X120111459Y-120456457D01*
X120116418Y-120442597D01*
X120122712Y-120429290D01*
X120130280Y-120416664D01*
X120139048Y-120404841D01*
X120148934Y-120393934D01*
X120159841Y-120384048D01*
X120171664Y-120375280D01*
X120184290Y-120367712D01*
X120197597Y-120361418D01*
X120211457Y-120356459D01*
X120225736Y-120352882D01*
X120240297Y-120350722D01*
X120255000Y-120350000D01*
X121755000Y-120350000D01*
X121769703Y-120350722D01*
G37*
G36*
X121769703Y-119080722D02*
G01*
X121784264Y-119082882D01*
X121798543Y-119086459D01*
X121812403Y-119091418D01*
X121825710Y-119097712D01*
X121838336Y-119105280D01*
X121850159Y-119114048D01*
X121861066Y-119123934D01*
X121870952Y-119134841D01*
X121879720Y-119146664D01*
X121887288Y-119159290D01*
X121893582Y-119172597D01*
X121898541Y-119186457D01*
X121902118Y-119200736D01*
X121904278Y-119215297D01*
X121905000Y-119230000D01*
X121905000Y-119530000D01*
X121904278Y-119544703D01*
X121902118Y-119559264D01*
X121898541Y-119573543D01*
X121893582Y-119587403D01*
X121887288Y-119600710D01*
X121879720Y-119613336D01*
X121870952Y-119625159D01*
X121861066Y-119636066D01*
X121850159Y-119645952D01*
X121838336Y-119654720D01*
X121825710Y-119662288D01*
X121812403Y-119668582D01*
X121798543Y-119673541D01*
X121784264Y-119677118D01*
X121769703Y-119679278D01*
X121755000Y-119680000D01*
X120255000Y-119680000D01*
X120240297Y-119679278D01*
X120225736Y-119677118D01*
X120211457Y-119673541D01*
X120197597Y-119668582D01*
X120184290Y-119662288D01*
X120171664Y-119654720D01*
X120159841Y-119645952D01*
X120148934Y-119636066D01*
X120139048Y-119625159D01*
X120130280Y-119613336D01*
X120122712Y-119600710D01*
X120116418Y-119587403D01*
X120111459Y-119573543D01*
X120107882Y-119559264D01*
X120105722Y-119544703D01*
X120105000Y-119530000D01*
X120105000Y-119230000D01*
X120105722Y-119215297D01*
X120107882Y-119200736D01*
X120111459Y-119186457D01*
X120116418Y-119172597D01*
X120122712Y-119159290D01*
X120130280Y-119146664D01*
X120139048Y-119134841D01*
X120148934Y-119123934D01*
X120159841Y-119114048D01*
X120171664Y-119105280D01*
X120184290Y-119097712D01*
X120197597Y-119091418D01*
X120211457Y-119086459D01*
X120225736Y-119082882D01*
X120240297Y-119080722D01*
X120255000Y-119080000D01*
X121755000Y-119080000D01*
X121769703Y-119080722D01*
G37*
G36*
X121769703Y-117810722D02*
G01*
X121784264Y-117812882D01*
X121798543Y-117816459D01*
X121812403Y-117821418D01*
X121825710Y-117827712D01*
X121838336Y-117835280D01*
X121850159Y-117844048D01*
X121861066Y-117853934D01*
X121870952Y-117864841D01*
X121879720Y-117876664D01*
X121887288Y-117889290D01*
X121893582Y-117902597D01*
X121898541Y-117916457D01*
X121902118Y-117930736D01*
X121904278Y-117945297D01*
X121905000Y-117960000D01*
X121905000Y-118260000D01*
X121904278Y-118274703D01*
X121902118Y-118289264D01*
X121898541Y-118303543D01*
X121893582Y-118317403D01*
X121887288Y-118330710D01*
X121879720Y-118343336D01*
X121870952Y-118355159D01*
X121861066Y-118366066D01*
X121850159Y-118375952D01*
X121838336Y-118384720D01*
X121825710Y-118392288D01*
X121812403Y-118398582D01*
X121798543Y-118403541D01*
X121784264Y-118407118D01*
X121769703Y-118409278D01*
X121755000Y-118410000D01*
X120255000Y-118410000D01*
X120240297Y-118409278D01*
X120225736Y-118407118D01*
X120211457Y-118403541D01*
X120197597Y-118398582D01*
X120184290Y-118392288D01*
X120171664Y-118384720D01*
X120159841Y-118375952D01*
X120148934Y-118366066D01*
X120139048Y-118355159D01*
X120130280Y-118343336D01*
X120122712Y-118330710D01*
X120116418Y-118317403D01*
X120111459Y-118303543D01*
X120107882Y-118289264D01*
X120105722Y-118274703D01*
X120105000Y-118260000D01*
X120105000Y-117960000D01*
X120105722Y-117945297D01*
X120107882Y-117930736D01*
X120111459Y-117916457D01*
X120116418Y-117902597D01*
X120122712Y-117889290D01*
X120130280Y-117876664D01*
X120139048Y-117864841D01*
X120148934Y-117853934D01*
X120159841Y-117844048D01*
X120171664Y-117835280D01*
X120184290Y-117827712D01*
X120197597Y-117821418D01*
X120211457Y-117816459D01*
X120225736Y-117812882D01*
X120240297Y-117810722D01*
X120255000Y-117810000D01*
X121755000Y-117810000D01*
X121769703Y-117810722D01*
G37*
G36*
X121769703Y-116540722D02*
G01*
X121784264Y-116542882D01*
X121798543Y-116546459D01*
X121812403Y-116551418D01*
X121825710Y-116557712D01*
X121838336Y-116565280D01*
X121850159Y-116574048D01*
X121861066Y-116583934D01*
X121870952Y-116594841D01*
X121879720Y-116606664D01*
X121887288Y-116619290D01*
X121893582Y-116632597D01*
X121898541Y-116646457D01*
X121902118Y-116660736D01*
X121904278Y-116675297D01*
X121905000Y-116690000D01*
X121905000Y-116990000D01*
X121904278Y-117004703D01*
X121902118Y-117019264D01*
X121898541Y-117033543D01*
X121893582Y-117047403D01*
X121887288Y-117060710D01*
X121879720Y-117073336D01*
X121870952Y-117085159D01*
X121861066Y-117096066D01*
X121850159Y-117105952D01*
X121838336Y-117114720D01*
X121825710Y-117122288D01*
X121812403Y-117128582D01*
X121798543Y-117133541D01*
X121784264Y-117137118D01*
X121769703Y-117139278D01*
X121755000Y-117140000D01*
X120255000Y-117140000D01*
X120240297Y-117139278D01*
X120225736Y-117137118D01*
X120211457Y-117133541D01*
X120197597Y-117128582D01*
X120184290Y-117122288D01*
X120171664Y-117114720D01*
X120159841Y-117105952D01*
X120148934Y-117096066D01*
X120139048Y-117085159D01*
X120130280Y-117073336D01*
X120122712Y-117060710D01*
X120116418Y-117047403D01*
X120111459Y-117033543D01*
X120107882Y-117019264D01*
X120105722Y-117004703D01*
X120105000Y-116990000D01*
X120105000Y-116690000D01*
X120105722Y-116675297D01*
X120107882Y-116660736D01*
X120111459Y-116646457D01*
X120116418Y-116632597D01*
X120122712Y-116619290D01*
X120130280Y-116606664D01*
X120139048Y-116594841D01*
X120148934Y-116583934D01*
X120159841Y-116574048D01*
X120171664Y-116565280D01*
X120184290Y-116557712D01*
X120197597Y-116551418D01*
X120211457Y-116546459D01*
X120225736Y-116542882D01*
X120240297Y-116540722D01*
X120255000Y-116540000D01*
X121755000Y-116540000D01*
X121769703Y-116540722D01*
G37*
G36*
X121769703Y-115270722D02*
G01*
X121784264Y-115272882D01*
X121798543Y-115276459D01*
X121812403Y-115281418D01*
X121825710Y-115287712D01*
X121838336Y-115295280D01*
X121850159Y-115304048D01*
X121861066Y-115313934D01*
X121870952Y-115324841D01*
X121879720Y-115336664D01*
X121887288Y-115349290D01*
X121893582Y-115362597D01*
X121898541Y-115376457D01*
X121902118Y-115390736D01*
X121904278Y-115405297D01*
X121905000Y-115420000D01*
X121905000Y-115720000D01*
X121904278Y-115734703D01*
X121902118Y-115749264D01*
X121898541Y-115763543D01*
X121893582Y-115777403D01*
X121887288Y-115790710D01*
X121879720Y-115803336D01*
X121870952Y-115815159D01*
X121861066Y-115826066D01*
X121850159Y-115835952D01*
X121838336Y-115844720D01*
X121825710Y-115852288D01*
X121812403Y-115858582D01*
X121798543Y-115863541D01*
X121784264Y-115867118D01*
X121769703Y-115869278D01*
X121755000Y-115870000D01*
X120255000Y-115870000D01*
X120240297Y-115869278D01*
X120225736Y-115867118D01*
X120211457Y-115863541D01*
X120197597Y-115858582D01*
X120184290Y-115852288D01*
X120171664Y-115844720D01*
X120159841Y-115835952D01*
X120148934Y-115826066D01*
X120139048Y-115815159D01*
X120130280Y-115803336D01*
X120122712Y-115790710D01*
X120116418Y-115777403D01*
X120111459Y-115763543D01*
X120107882Y-115749264D01*
X120105722Y-115734703D01*
X120105000Y-115720000D01*
X120105000Y-115420000D01*
X120105722Y-115405297D01*
X120107882Y-115390736D01*
X120111459Y-115376457D01*
X120116418Y-115362597D01*
X120122712Y-115349290D01*
X120130280Y-115336664D01*
X120139048Y-115324841D01*
X120148934Y-115313934D01*
X120159841Y-115304048D01*
X120171664Y-115295280D01*
X120184290Y-115287712D01*
X120197597Y-115281418D01*
X120211457Y-115276459D01*
X120225736Y-115272882D01*
X120240297Y-115270722D01*
X120255000Y-115270000D01*
X121755000Y-115270000D01*
X121769703Y-115270722D01*
G37*
G36*
X121769703Y-114000722D02*
G01*
X121784264Y-114002882D01*
X121798543Y-114006459D01*
X121812403Y-114011418D01*
X121825710Y-114017712D01*
X121838336Y-114025280D01*
X121850159Y-114034048D01*
X121861066Y-114043934D01*
X121870952Y-114054841D01*
X121879720Y-114066664D01*
X121887288Y-114079290D01*
X121893582Y-114092597D01*
X121898541Y-114106457D01*
X121902118Y-114120736D01*
X121904278Y-114135297D01*
X121905000Y-114150000D01*
X121905000Y-114450000D01*
X121904278Y-114464703D01*
X121902118Y-114479264D01*
X121898541Y-114493543D01*
X121893582Y-114507403D01*
X121887288Y-114520710D01*
X121879720Y-114533336D01*
X121870952Y-114545159D01*
X121861066Y-114556066D01*
X121850159Y-114565952D01*
X121838336Y-114574720D01*
X121825710Y-114582288D01*
X121812403Y-114588582D01*
X121798543Y-114593541D01*
X121784264Y-114597118D01*
X121769703Y-114599278D01*
X121755000Y-114600000D01*
X120255000Y-114600000D01*
X120240297Y-114599278D01*
X120225736Y-114597118D01*
X120211457Y-114593541D01*
X120197597Y-114588582D01*
X120184290Y-114582288D01*
X120171664Y-114574720D01*
X120159841Y-114565952D01*
X120148934Y-114556066D01*
X120139048Y-114545159D01*
X120130280Y-114533336D01*
X120122712Y-114520710D01*
X120116418Y-114507403D01*
X120111459Y-114493543D01*
X120107882Y-114479264D01*
X120105722Y-114464703D01*
X120105000Y-114450000D01*
X120105000Y-114150000D01*
X120105722Y-114135297D01*
X120107882Y-114120736D01*
X120111459Y-114106457D01*
X120116418Y-114092597D01*
X120122712Y-114079290D01*
X120130280Y-114066664D01*
X120139048Y-114054841D01*
X120148934Y-114043934D01*
X120159841Y-114034048D01*
X120171664Y-114025280D01*
X120184290Y-114017712D01*
X120197597Y-114011418D01*
X120211457Y-114006459D01*
X120225736Y-114002882D01*
X120240297Y-114000722D01*
X120255000Y-114000000D01*
X121755000Y-114000000D01*
X121769703Y-114000722D01*
G37*
G36*
X121769703Y-112730722D02*
G01*
X121784264Y-112732882D01*
X121798543Y-112736459D01*
X121812403Y-112741418D01*
X121825710Y-112747712D01*
X121838336Y-112755280D01*
X121850159Y-112764048D01*
X121861066Y-112773934D01*
X121870952Y-112784841D01*
X121879720Y-112796664D01*
X121887288Y-112809290D01*
X121893582Y-112822597D01*
X121898541Y-112836457D01*
X121902118Y-112850736D01*
X121904278Y-112865297D01*
X121905000Y-112880000D01*
X121905000Y-113180000D01*
X121904278Y-113194703D01*
X121902118Y-113209264D01*
X121898541Y-113223543D01*
X121893582Y-113237403D01*
X121887288Y-113250710D01*
X121879720Y-113263336D01*
X121870952Y-113275159D01*
X121861066Y-113286066D01*
X121850159Y-113295952D01*
X121838336Y-113304720D01*
X121825710Y-113312288D01*
X121812403Y-113318582D01*
X121798543Y-113323541D01*
X121784264Y-113327118D01*
X121769703Y-113329278D01*
X121755000Y-113330000D01*
X120255000Y-113330000D01*
X120240297Y-113329278D01*
X120225736Y-113327118D01*
X120211457Y-113323541D01*
X120197597Y-113318582D01*
X120184290Y-113312288D01*
X120171664Y-113304720D01*
X120159841Y-113295952D01*
X120148934Y-113286066D01*
X120139048Y-113275159D01*
X120130280Y-113263336D01*
X120122712Y-113250710D01*
X120116418Y-113237403D01*
X120111459Y-113223543D01*
X120107882Y-113209264D01*
X120105722Y-113194703D01*
X120105000Y-113180000D01*
X120105000Y-112880000D01*
X120105722Y-112865297D01*
X120107882Y-112850736D01*
X120111459Y-112836457D01*
X120116418Y-112822597D01*
X120122712Y-112809290D01*
X120130280Y-112796664D01*
X120139048Y-112784841D01*
X120148934Y-112773934D01*
X120159841Y-112764048D01*
X120171664Y-112755280D01*
X120184290Y-112747712D01*
X120197597Y-112741418D01*
X120211457Y-112736459D01*
X120225736Y-112732882D01*
X120240297Y-112730722D01*
X120255000Y-112730000D01*
X121755000Y-112730000D01*
X121769703Y-112730722D01*
G37*
G36*
X121769703Y-111460722D02*
G01*
X121784264Y-111462882D01*
X121798543Y-111466459D01*
X121812403Y-111471418D01*
X121825710Y-111477712D01*
X121838336Y-111485280D01*
X121850159Y-111494048D01*
X121861066Y-111503934D01*
X121870952Y-111514841D01*
X121879720Y-111526664D01*
X121887288Y-111539290D01*
X121893582Y-111552597D01*
X121898541Y-111566457D01*
X121902118Y-111580736D01*
X121904278Y-111595297D01*
X121905000Y-111610000D01*
X121905000Y-111910000D01*
X121904278Y-111924703D01*
X121902118Y-111939264D01*
X121898541Y-111953543D01*
X121893582Y-111967403D01*
X121887288Y-111980710D01*
X121879720Y-111993336D01*
X121870952Y-112005159D01*
X121861066Y-112016066D01*
X121850159Y-112025952D01*
X121838336Y-112034720D01*
X121825710Y-112042288D01*
X121812403Y-112048582D01*
X121798543Y-112053541D01*
X121784264Y-112057118D01*
X121769703Y-112059278D01*
X121755000Y-112060000D01*
X120255000Y-112060000D01*
X120240297Y-112059278D01*
X120225736Y-112057118D01*
X120211457Y-112053541D01*
X120197597Y-112048582D01*
X120184290Y-112042288D01*
X120171664Y-112034720D01*
X120159841Y-112025952D01*
X120148934Y-112016066D01*
X120139048Y-112005159D01*
X120130280Y-111993336D01*
X120122712Y-111980710D01*
X120116418Y-111967403D01*
X120111459Y-111953543D01*
X120107882Y-111939264D01*
X120105722Y-111924703D01*
X120105000Y-111910000D01*
X120105000Y-111610000D01*
X120105722Y-111595297D01*
X120107882Y-111580736D01*
X120111459Y-111566457D01*
X120116418Y-111552597D01*
X120122712Y-111539290D01*
X120130280Y-111526664D01*
X120139048Y-111514841D01*
X120148934Y-111503934D01*
X120159841Y-111494048D01*
X120171664Y-111485280D01*
X120184290Y-111477712D01*
X120197597Y-111471418D01*
X120211457Y-111466459D01*
X120225736Y-111462882D01*
X120240297Y-111460722D01*
X120255000Y-111460000D01*
X121755000Y-111460000D01*
X121769703Y-111460722D01*
G37*
G36*
X121769703Y-110190722D02*
G01*
X121784264Y-110192882D01*
X121798543Y-110196459D01*
X121812403Y-110201418D01*
X121825710Y-110207712D01*
X121838336Y-110215280D01*
X121850159Y-110224048D01*
X121861066Y-110233934D01*
X121870952Y-110244841D01*
X121879720Y-110256664D01*
X121887288Y-110269290D01*
X121893582Y-110282597D01*
X121898541Y-110296457D01*
X121902118Y-110310736D01*
X121904278Y-110325297D01*
X121905000Y-110340000D01*
X121905000Y-110640000D01*
X121904278Y-110654703D01*
X121902118Y-110669264D01*
X121898541Y-110683543D01*
X121893582Y-110697403D01*
X121887288Y-110710710D01*
X121879720Y-110723336D01*
X121870952Y-110735159D01*
X121861066Y-110746066D01*
X121850159Y-110755952D01*
X121838336Y-110764720D01*
X121825710Y-110772288D01*
X121812403Y-110778582D01*
X121798543Y-110783541D01*
X121784264Y-110787118D01*
X121769703Y-110789278D01*
X121755000Y-110790000D01*
X120255000Y-110790000D01*
X120240297Y-110789278D01*
X120225736Y-110787118D01*
X120211457Y-110783541D01*
X120197597Y-110778582D01*
X120184290Y-110772288D01*
X120171664Y-110764720D01*
X120159841Y-110755952D01*
X120148934Y-110746066D01*
X120139048Y-110735159D01*
X120130280Y-110723336D01*
X120122712Y-110710710D01*
X120116418Y-110697403D01*
X120111459Y-110683543D01*
X120107882Y-110669264D01*
X120105722Y-110654703D01*
X120105000Y-110640000D01*
X120105000Y-110340000D01*
X120105722Y-110325297D01*
X120107882Y-110310736D01*
X120111459Y-110296457D01*
X120116418Y-110282597D01*
X120122712Y-110269290D01*
X120130280Y-110256664D01*
X120139048Y-110244841D01*
X120148934Y-110233934D01*
X120159841Y-110224048D01*
X120171664Y-110215280D01*
X120184290Y-110207712D01*
X120197597Y-110201418D01*
X120211457Y-110196459D01*
X120225736Y-110192882D01*
X120240297Y-110190722D01*
X120255000Y-110190000D01*
X121755000Y-110190000D01*
X121769703Y-110190722D01*
G37*
G36*
X151063505Y-100466204D02*
G01*
X151087773Y-100469804D01*
X151111572Y-100475765D01*
X151134671Y-100484030D01*
X151156850Y-100494520D01*
X151177893Y-100507132D01*
X151197599Y-100521747D01*
X151215777Y-100538223D01*
X151232253Y-100556401D01*
X151246868Y-100576107D01*
X151259480Y-100597150D01*
X151269970Y-100619329D01*
X151278235Y-100642428D01*
X151284196Y-100666227D01*
X151287796Y-100690495D01*
X151289000Y-100714999D01*
X151289000Y-102465001D01*
X151287796Y-102489505D01*
X151284196Y-102513773D01*
X151278235Y-102537572D01*
X151269970Y-102560671D01*
X151259480Y-102582850D01*
X151246868Y-102603893D01*
X151232253Y-102623599D01*
X151215777Y-102641777D01*
X151197599Y-102658253D01*
X151177893Y-102672868D01*
X151156850Y-102685480D01*
X151134671Y-102695970D01*
X151111572Y-102704235D01*
X151087773Y-102710196D01*
X151063505Y-102713796D01*
X151039001Y-102715000D01*
X149188999Y-102715000D01*
X149164495Y-102713796D01*
X149140227Y-102710196D01*
X149116428Y-102704235D01*
X149093329Y-102695970D01*
X149071150Y-102685480D01*
X149050107Y-102672868D01*
X149030401Y-102658253D01*
X149012223Y-102641777D01*
X148995747Y-102623599D01*
X148981132Y-102603893D01*
X148968520Y-102582850D01*
X148958030Y-102560671D01*
X148949765Y-102537572D01*
X148943804Y-102513773D01*
X148940204Y-102489505D01*
X148939000Y-102465001D01*
X148939000Y-100714999D01*
X148940204Y-100690495D01*
X148943804Y-100666227D01*
X148949765Y-100642428D01*
X148958030Y-100619329D01*
X148968520Y-100597150D01*
X148981132Y-100576107D01*
X148995747Y-100556401D01*
X149012223Y-100538223D01*
X149030401Y-100521747D01*
X149050107Y-100507132D01*
X149071150Y-100494520D01*
X149093329Y-100484030D01*
X149116428Y-100475765D01*
X149140227Y-100469804D01*
X149164495Y-100466204D01*
X149188999Y-100465000D01*
X151039001Y-100465000D01*
X151063505Y-100466204D01*
G37*
G36*
X151063505Y-105566204D02*
G01*
X151087773Y-105569804D01*
X151111572Y-105575765D01*
X151134671Y-105584030D01*
X151156850Y-105594520D01*
X151177893Y-105607132D01*
X151197599Y-105621747D01*
X151215777Y-105638223D01*
X151232253Y-105656401D01*
X151246868Y-105676107D01*
X151259480Y-105697150D01*
X151269970Y-105719329D01*
X151278235Y-105742428D01*
X151284196Y-105766227D01*
X151287796Y-105790495D01*
X151289000Y-105814999D01*
X151289000Y-107565001D01*
X151287796Y-107589505D01*
X151284196Y-107613773D01*
X151278235Y-107637572D01*
X151269970Y-107660671D01*
X151259480Y-107682850D01*
X151246868Y-107703893D01*
X151232253Y-107723599D01*
X151215777Y-107741777D01*
X151197599Y-107758253D01*
X151177893Y-107772868D01*
X151156850Y-107785480D01*
X151134671Y-107795970D01*
X151111572Y-107804235D01*
X151087773Y-107810196D01*
X151063505Y-107813796D01*
X151039001Y-107815000D01*
X149188999Y-107815000D01*
X149164495Y-107813796D01*
X149140227Y-107810196D01*
X149116428Y-107804235D01*
X149093329Y-107795970D01*
X149071150Y-107785480D01*
X149050107Y-107772868D01*
X149030401Y-107758253D01*
X149012223Y-107741777D01*
X148995747Y-107723599D01*
X148981132Y-107703893D01*
X148968520Y-107682850D01*
X148958030Y-107660671D01*
X148949765Y-107637572D01*
X148943804Y-107613773D01*
X148940204Y-107589505D01*
X148939000Y-107565001D01*
X148939000Y-105814999D01*
X148940204Y-105790495D01*
X148943804Y-105766227D01*
X148949765Y-105742428D01*
X148958030Y-105719329D01*
X148968520Y-105697150D01*
X148981132Y-105676107D01*
X148995747Y-105656401D01*
X149012223Y-105638223D01*
X149030401Y-105621747D01*
X149050107Y-105607132D01*
X149071150Y-105594520D01*
X149093329Y-105584030D01*
X149116428Y-105575765D01*
X149140227Y-105569804D01*
X149164495Y-105566204D01*
X149188999Y-105565000D01*
X151039001Y-105565000D01*
X151063505Y-105566204D01*
G37*
G36*
X119980142Y-128841174D02*
G01*
X120003803Y-128844684D01*
X120027007Y-128850496D01*
X120049529Y-128858554D01*
X120071153Y-128868782D01*
X120091670Y-128881079D01*
X120110883Y-128895329D01*
X120128607Y-128911393D01*
X120144671Y-128929117D01*
X120158921Y-128948330D01*
X120171218Y-128968847D01*
X120181446Y-128990471D01*
X120189504Y-129012993D01*
X120195316Y-129036197D01*
X120198826Y-129059858D01*
X120200000Y-129083750D01*
X120200000Y-129996250D01*
X120198826Y-130020142D01*
X120195316Y-130043803D01*
X120189504Y-130067007D01*
X120181446Y-130089529D01*
X120171218Y-130111153D01*
X120158921Y-130131670D01*
X120144671Y-130150883D01*
X120128607Y-130168607D01*
X120110883Y-130184671D01*
X120091670Y-130198921D01*
X120071153Y-130211218D01*
X120049529Y-130221446D01*
X120027007Y-130229504D01*
X120003803Y-130235316D01*
X119980142Y-130238826D01*
X119956250Y-130240000D01*
X119468750Y-130240000D01*
X119444858Y-130238826D01*
X119421197Y-130235316D01*
X119397993Y-130229504D01*
X119375471Y-130221446D01*
X119353847Y-130211218D01*
X119333330Y-130198921D01*
X119314117Y-130184671D01*
X119296393Y-130168607D01*
X119280329Y-130150883D01*
X119266079Y-130131670D01*
X119253782Y-130111153D01*
X119243554Y-130089529D01*
X119235496Y-130067007D01*
X119229684Y-130043803D01*
X119226174Y-130020142D01*
X119225000Y-129996250D01*
X119225000Y-129083750D01*
X119226174Y-129059858D01*
X119229684Y-129036197D01*
X119235496Y-129012993D01*
X119243554Y-128990471D01*
X119253782Y-128968847D01*
X119266079Y-128948330D01*
X119280329Y-128929117D01*
X119296393Y-128911393D01*
X119314117Y-128895329D01*
X119333330Y-128881079D01*
X119353847Y-128868782D01*
X119375471Y-128858554D01*
X119397993Y-128850496D01*
X119421197Y-128844684D01*
X119444858Y-128841174D01*
X119468750Y-128840000D01*
X119956250Y-128840000D01*
X119980142Y-128841174D01*
G37*
G36*
X121855142Y-128841174D02*
G01*
X121878803Y-128844684D01*
X121902007Y-128850496D01*
X121924529Y-128858554D01*
X121946153Y-128868782D01*
X121966670Y-128881079D01*
X121985883Y-128895329D01*
X122003607Y-128911393D01*
X122019671Y-128929117D01*
X122033921Y-128948330D01*
X122046218Y-128968847D01*
X122056446Y-128990471D01*
X122064504Y-129012993D01*
X122070316Y-129036197D01*
X122073826Y-129059858D01*
X122075000Y-129083750D01*
X122075000Y-129996250D01*
X122073826Y-130020142D01*
X122070316Y-130043803D01*
X122064504Y-130067007D01*
X122056446Y-130089529D01*
X122046218Y-130111153D01*
X122033921Y-130131670D01*
X122019671Y-130150883D01*
X122003607Y-130168607D01*
X121985883Y-130184671D01*
X121966670Y-130198921D01*
X121946153Y-130211218D01*
X121924529Y-130221446D01*
X121902007Y-130229504D01*
X121878803Y-130235316D01*
X121855142Y-130238826D01*
X121831250Y-130240000D01*
X121343750Y-130240000D01*
X121319858Y-130238826D01*
X121296197Y-130235316D01*
X121272993Y-130229504D01*
X121250471Y-130221446D01*
X121228847Y-130211218D01*
X121208330Y-130198921D01*
X121189117Y-130184671D01*
X121171393Y-130168607D01*
X121155329Y-130150883D01*
X121141079Y-130131670D01*
X121128782Y-130111153D01*
X121118554Y-130089529D01*
X121110496Y-130067007D01*
X121104684Y-130043803D01*
X121101174Y-130020142D01*
X121100000Y-129996250D01*
X121100000Y-129083750D01*
X121101174Y-129059858D01*
X121104684Y-129036197D01*
X121110496Y-129012993D01*
X121118554Y-128990471D01*
X121128782Y-128968847D01*
X121141079Y-128948330D01*
X121155329Y-128929117D01*
X121171393Y-128911393D01*
X121189117Y-128895329D01*
X121208330Y-128881079D01*
X121228847Y-128868782D01*
X121250471Y-128858554D01*
X121272993Y-128850496D01*
X121296197Y-128844684D01*
X121319858Y-128841174D01*
X121343750Y-128840000D01*
X121831250Y-128840000D01*
X121855142Y-128841174D01*
G37*
G36*
X151063505Y-96178204D02*
G01*
X151087773Y-96181804D01*
X151111572Y-96187765D01*
X151134671Y-96196030D01*
X151156850Y-96206520D01*
X151177893Y-96219132D01*
X151197599Y-96233747D01*
X151215777Y-96250223D01*
X151232253Y-96268401D01*
X151246868Y-96288107D01*
X151259480Y-96309150D01*
X151269970Y-96331329D01*
X151278235Y-96354428D01*
X151284196Y-96378227D01*
X151287796Y-96402495D01*
X151289000Y-96426999D01*
X151289000Y-98177001D01*
X151287796Y-98201505D01*
X151284196Y-98225773D01*
X151278235Y-98249572D01*
X151269970Y-98272671D01*
X151259480Y-98294850D01*
X151246868Y-98315893D01*
X151232253Y-98335599D01*
X151215777Y-98353777D01*
X151197599Y-98370253D01*
X151177893Y-98384868D01*
X151156850Y-98397480D01*
X151134671Y-98407970D01*
X151111572Y-98416235D01*
X151087773Y-98422196D01*
X151063505Y-98425796D01*
X151039001Y-98427000D01*
X149188999Y-98427000D01*
X149164495Y-98425796D01*
X149140227Y-98422196D01*
X149116428Y-98416235D01*
X149093329Y-98407970D01*
X149071150Y-98397480D01*
X149050107Y-98384868D01*
X149030401Y-98370253D01*
X149012223Y-98353777D01*
X148995747Y-98335599D01*
X148981132Y-98315893D01*
X148968520Y-98294850D01*
X148958030Y-98272671D01*
X148949765Y-98249572D01*
X148943804Y-98225773D01*
X148940204Y-98201505D01*
X148939000Y-98177001D01*
X148939000Y-96426999D01*
X148940204Y-96402495D01*
X148943804Y-96378227D01*
X148949765Y-96354428D01*
X148958030Y-96331329D01*
X148968520Y-96309150D01*
X148981132Y-96288107D01*
X148995747Y-96268401D01*
X149012223Y-96250223D01*
X149030401Y-96233747D01*
X149050107Y-96219132D01*
X149071150Y-96206520D01*
X149093329Y-96196030D01*
X149116428Y-96187765D01*
X149140227Y-96181804D01*
X149164495Y-96178204D01*
X149188999Y-96177000D01*
X151039001Y-96177000D01*
X151063505Y-96178204D01*
G37*
G36*
X151063505Y-91078204D02*
G01*
X151087773Y-91081804D01*
X151111572Y-91087765D01*
X151134671Y-91096030D01*
X151156850Y-91106520D01*
X151177893Y-91119132D01*
X151197599Y-91133747D01*
X151215777Y-91150223D01*
X151232253Y-91168401D01*
X151246868Y-91188107D01*
X151259480Y-91209150D01*
X151269970Y-91231329D01*
X151278235Y-91254428D01*
X151284196Y-91278227D01*
X151287796Y-91302495D01*
X151289000Y-91326999D01*
X151289000Y-93077001D01*
X151287796Y-93101505D01*
X151284196Y-93125773D01*
X151278235Y-93149572D01*
X151269970Y-93172671D01*
X151259480Y-93194850D01*
X151246868Y-93215893D01*
X151232253Y-93235599D01*
X151215777Y-93253777D01*
X151197599Y-93270253D01*
X151177893Y-93284868D01*
X151156850Y-93297480D01*
X151134671Y-93307970D01*
X151111572Y-93316235D01*
X151087773Y-93322196D01*
X151063505Y-93325796D01*
X151039001Y-93327000D01*
X149188999Y-93327000D01*
X149164495Y-93325796D01*
X149140227Y-93322196D01*
X149116428Y-93316235D01*
X149093329Y-93307970D01*
X149071150Y-93297480D01*
X149050107Y-93284868D01*
X149030401Y-93270253D01*
X149012223Y-93253777D01*
X148995747Y-93235599D01*
X148981132Y-93215893D01*
X148968520Y-93194850D01*
X148958030Y-93172671D01*
X148949765Y-93149572D01*
X148943804Y-93125773D01*
X148940204Y-93101505D01*
X148939000Y-93077001D01*
X148939000Y-91326999D01*
X148940204Y-91302495D01*
X148943804Y-91278227D01*
X148949765Y-91254428D01*
X148958030Y-91231329D01*
X148968520Y-91209150D01*
X148981132Y-91188107D01*
X148995747Y-91168401D01*
X149012223Y-91150223D01*
X149030401Y-91133747D01*
X149050107Y-91119132D01*
X149071150Y-91106520D01*
X149093329Y-91096030D01*
X149116428Y-91087765D01*
X149140227Y-91081804D01*
X149164495Y-91078204D01*
X149188999Y-91077000D01*
X151039001Y-91077000D01*
X151063505Y-91078204D01*
G37*
G36*
X150594142Y-89175674D02*
G01*
X150617803Y-89179184D01*
X150641007Y-89184996D01*
X150663529Y-89193054D01*
X150685153Y-89203282D01*
X150705670Y-89215579D01*
X150724883Y-89229829D01*
X150742607Y-89245893D01*
X150758671Y-89263617D01*
X150772921Y-89282830D01*
X150785218Y-89303347D01*
X150795446Y-89324971D01*
X150803504Y-89347493D01*
X150809316Y-89370697D01*
X150812826Y-89394358D01*
X150814000Y-89418250D01*
X150814000Y-89905750D01*
X150812826Y-89929642D01*
X150809316Y-89953303D01*
X150803504Y-89976507D01*
X150795446Y-89999029D01*
X150785218Y-90020653D01*
X150772921Y-90041170D01*
X150758671Y-90060383D01*
X150742607Y-90078107D01*
X150724883Y-90094171D01*
X150705670Y-90108421D01*
X150685153Y-90120718D01*
X150663529Y-90130946D01*
X150641007Y-90139004D01*
X150617803Y-90144816D01*
X150594142Y-90148326D01*
X150570250Y-90149500D01*
X149657750Y-90149500D01*
X149633858Y-90148326D01*
X149610197Y-90144816D01*
X149586993Y-90139004D01*
X149564471Y-90130946D01*
X149542847Y-90120718D01*
X149522330Y-90108421D01*
X149503117Y-90094171D01*
X149485393Y-90078107D01*
X149469329Y-90060383D01*
X149455079Y-90041170D01*
X149442782Y-90020653D01*
X149432554Y-89999029D01*
X149424496Y-89976507D01*
X149418684Y-89953303D01*
X149415174Y-89929642D01*
X149414000Y-89905750D01*
X149414000Y-89418250D01*
X149415174Y-89394358D01*
X149418684Y-89370697D01*
X149424496Y-89347493D01*
X149432554Y-89324971D01*
X149442782Y-89303347D01*
X149455079Y-89282830D01*
X149469329Y-89263617D01*
X149485393Y-89245893D01*
X149503117Y-89229829D01*
X149522330Y-89215579D01*
X149542847Y-89203282D01*
X149564471Y-89193054D01*
X149586993Y-89184996D01*
X149610197Y-89179184D01*
X149633858Y-89175674D01*
X149657750Y-89174500D01*
X150570250Y-89174500D01*
X150594142Y-89175674D01*
G37*
G36*
X150594142Y-87300674D02*
G01*
X150617803Y-87304184D01*
X150641007Y-87309996D01*
X150663529Y-87318054D01*
X150685153Y-87328282D01*
X150705670Y-87340579D01*
X150724883Y-87354829D01*
X150742607Y-87370893D01*
X150758671Y-87388617D01*
X150772921Y-87407830D01*
X150785218Y-87428347D01*
X150795446Y-87449971D01*
X150803504Y-87472493D01*
X150809316Y-87495697D01*
X150812826Y-87519358D01*
X150814000Y-87543250D01*
X150814000Y-88030750D01*
X150812826Y-88054642D01*
X150809316Y-88078303D01*
X150803504Y-88101507D01*
X150795446Y-88124029D01*
X150785218Y-88145653D01*
X150772921Y-88166170D01*
X150758671Y-88185383D01*
X150742607Y-88203107D01*
X150724883Y-88219171D01*
X150705670Y-88233421D01*
X150685153Y-88245718D01*
X150663529Y-88255946D01*
X150641007Y-88264004D01*
X150617803Y-88269816D01*
X150594142Y-88273326D01*
X150570250Y-88274500D01*
X149657750Y-88274500D01*
X149633858Y-88273326D01*
X149610197Y-88269816D01*
X149586993Y-88264004D01*
X149564471Y-88255946D01*
X149542847Y-88245718D01*
X149522330Y-88233421D01*
X149503117Y-88219171D01*
X149485393Y-88203107D01*
X149469329Y-88185383D01*
X149455079Y-88166170D01*
X149442782Y-88145653D01*
X149432554Y-88124029D01*
X149424496Y-88101507D01*
X149418684Y-88078303D01*
X149415174Y-88054642D01*
X149414000Y-88030750D01*
X149414000Y-87543250D01*
X149415174Y-87519358D01*
X149418684Y-87495697D01*
X149424496Y-87472493D01*
X149432554Y-87449971D01*
X149442782Y-87428347D01*
X149455079Y-87407830D01*
X149469329Y-87388617D01*
X149485393Y-87370893D01*
X149503117Y-87354829D01*
X149522330Y-87340579D01*
X149542847Y-87328282D01*
X149564471Y-87318054D01*
X149586993Y-87309996D01*
X149610197Y-87304184D01*
X149633858Y-87300674D01*
X149657750Y-87299500D01*
X150570250Y-87299500D01*
X150594142Y-87300674D01*
G37*
G36*
X139164142Y-108890674D02*
G01*
X139187803Y-108894184D01*
X139211007Y-108899996D01*
X139233529Y-108908054D01*
X139255153Y-108918282D01*
X139275670Y-108930579D01*
X139294883Y-108944829D01*
X139312607Y-108960893D01*
X139328671Y-108978617D01*
X139342921Y-108997830D01*
X139355218Y-109018347D01*
X139365446Y-109039971D01*
X139373504Y-109062493D01*
X139379316Y-109085697D01*
X139382826Y-109109358D01*
X139384000Y-109133250D01*
X139384000Y-109620750D01*
X139382826Y-109644642D01*
X139379316Y-109668303D01*
X139373504Y-109691507D01*
X139365446Y-109714029D01*
X139355218Y-109735653D01*
X139342921Y-109756170D01*
X139328671Y-109775383D01*
X139312607Y-109793107D01*
X139294883Y-109809171D01*
X139275670Y-109823421D01*
X139255153Y-109835718D01*
X139233529Y-109845946D01*
X139211007Y-109854004D01*
X139187803Y-109859816D01*
X139164142Y-109863326D01*
X139140250Y-109864500D01*
X138227750Y-109864500D01*
X138203858Y-109863326D01*
X138180197Y-109859816D01*
X138156993Y-109854004D01*
X138134471Y-109845946D01*
X138112847Y-109835718D01*
X138092330Y-109823421D01*
X138073117Y-109809171D01*
X138055393Y-109793107D01*
X138039329Y-109775383D01*
X138025079Y-109756170D01*
X138012782Y-109735653D01*
X138002554Y-109714029D01*
X137994496Y-109691507D01*
X137988684Y-109668303D01*
X137985174Y-109644642D01*
X137984000Y-109620750D01*
X137984000Y-109133250D01*
X137985174Y-109109358D01*
X137988684Y-109085697D01*
X137994496Y-109062493D01*
X138002554Y-109039971D01*
X138012782Y-109018347D01*
X138025079Y-108997830D01*
X138039329Y-108978617D01*
X138055393Y-108960893D01*
X138073117Y-108944829D01*
X138092330Y-108930579D01*
X138112847Y-108918282D01*
X138134471Y-108908054D01*
X138156993Y-108899996D01*
X138180197Y-108894184D01*
X138203858Y-108890674D01*
X138227750Y-108889500D01*
X139140250Y-108889500D01*
X139164142Y-108890674D01*
G37*
G36*
X139164142Y-110765674D02*
G01*
X139187803Y-110769184D01*
X139211007Y-110774996D01*
X139233529Y-110783054D01*
X139255153Y-110793282D01*
X139275670Y-110805579D01*
X139294883Y-110819829D01*
X139312607Y-110835893D01*
X139328671Y-110853617D01*
X139342921Y-110872830D01*
X139355218Y-110893347D01*
X139365446Y-110914971D01*
X139373504Y-110937493D01*
X139379316Y-110960697D01*
X139382826Y-110984358D01*
X139384000Y-111008250D01*
X139384000Y-111495750D01*
X139382826Y-111519642D01*
X139379316Y-111543303D01*
X139373504Y-111566507D01*
X139365446Y-111589029D01*
X139355218Y-111610653D01*
X139342921Y-111631170D01*
X139328671Y-111650383D01*
X139312607Y-111668107D01*
X139294883Y-111684171D01*
X139275670Y-111698421D01*
X139255153Y-111710718D01*
X139233529Y-111720946D01*
X139211007Y-111729004D01*
X139187803Y-111734816D01*
X139164142Y-111738326D01*
X139140250Y-111739500D01*
X138227750Y-111739500D01*
X138203858Y-111738326D01*
X138180197Y-111734816D01*
X138156993Y-111729004D01*
X138134471Y-111720946D01*
X138112847Y-111710718D01*
X138092330Y-111698421D01*
X138073117Y-111684171D01*
X138055393Y-111668107D01*
X138039329Y-111650383D01*
X138025079Y-111631170D01*
X138012782Y-111610653D01*
X138002554Y-111589029D01*
X137994496Y-111566507D01*
X137988684Y-111543303D01*
X137985174Y-111519642D01*
X137984000Y-111495750D01*
X137984000Y-111008250D01*
X137985174Y-110984358D01*
X137988684Y-110960697D01*
X137994496Y-110937493D01*
X138002554Y-110914971D01*
X138012782Y-110893347D01*
X138025079Y-110872830D01*
X138039329Y-110853617D01*
X138055393Y-110835893D01*
X138073117Y-110819829D01*
X138092330Y-110805579D01*
X138112847Y-110793282D01*
X138134471Y-110783054D01*
X138156993Y-110774996D01*
X138180197Y-110769184D01*
X138203858Y-110765674D01*
X138227750Y-110764500D01*
X139140250Y-110764500D01*
X139164142Y-110765674D01*
G37*
G36*
X139633505Y-112668204D02*
G01*
X139657773Y-112671804D01*
X139681572Y-112677765D01*
X139704671Y-112686030D01*
X139726850Y-112696520D01*
X139747893Y-112709132D01*
X139767599Y-112723747D01*
X139785777Y-112740223D01*
X139802253Y-112758401D01*
X139816868Y-112778107D01*
X139829480Y-112799150D01*
X139839970Y-112821329D01*
X139848235Y-112844428D01*
X139854196Y-112868227D01*
X139857796Y-112892495D01*
X139859000Y-112916999D01*
X139859000Y-114667001D01*
X139857796Y-114691505D01*
X139854196Y-114715773D01*
X139848235Y-114739572D01*
X139839970Y-114762671D01*
X139829480Y-114784850D01*
X139816868Y-114805893D01*
X139802253Y-114825599D01*
X139785777Y-114843777D01*
X139767599Y-114860253D01*
X139747893Y-114874868D01*
X139726850Y-114887480D01*
X139704671Y-114897970D01*
X139681572Y-114906235D01*
X139657773Y-114912196D01*
X139633505Y-114915796D01*
X139609001Y-114917000D01*
X137758999Y-114917000D01*
X137734495Y-114915796D01*
X137710227Y-114912196D01*
X137686428Y-114906235D01*
X137663329Y-114897970D01*
X137641150Y-114887480D01*
X137620107Y-114874868D01*
X137600401Y-114860253D01*
X137582223Y-114843777D01*
X137565747Y-114825599D01*
X137551132Y-114805893D01*
X137538520Y-114784850D01*
X137528030Y-114762671D01*
X137519765Y-114739572D01*
X137513804Y-114715773D01*
X137510204Y-114691505D01*
X137509000Y-114667001D01*
X137509000Y-112916999D01*
X137510204Y-112892495D01*
X137513804Y-112868227D01*
X137519765Y-112844428D01*
X137528030Y-112821329D01*
X137538520Y-112799150D01*
X137551132Y-112778107D01*
X137565747Y-112758401D01*
X137582223Y-112740223D01*
X137600401Y-112723747D01*
X137620107Y-112709132D01*
X137641150Y-112696520D01*
X137663329Y-112686030D01*
X137686428Y-112677765D01*
X137710227Y-112671804D01*
X137734495Y-112668204D01*
X137758999Y-112667000D01*
X139609001Y-112667000D01*
X139633505Y-112668204D01*
G37*
G36*
X139633505Y-117768204D02*
G01*
X139657773Y-117771804D01*
X139681572Y-117777765D01*
X139704671Y-117786030D01*
X139726850Y-117796520D01*
X139747893Y-117809132D01*
X139767599Y-117823747D01*
X139785777Y-117840223D01*
X139802253Y-117858401D01*
X139816868Y-117878107D01*
X139829480Y-117899150D01*
X139839970Y-117921329D01*
X139848235Y-117944428D01*
X139854196Y-117968227D01*
X139857796Y-117992495D01*
X139859000Y-118016999D01*
X139859000Y-119767001D01*
X139857796Y-119791505D01*
X139854196Y-119815773D01*
X139848235Y-119839572D01*
X139839970Y-119862671D01*
X139829480Y-119884850D01*
X139816868Y-119905893D01*
X139802253Y-119925599D01*
X139785777Y-119943777D01*
X139767599Y-119960253D01*
X139747893Y-119974868D01*
X139726850Y-119987480D01*
X139704671Y-119997970D01*
X139681572Y-120006235D01*
X139657773Y-120012196D01*
X139633505Y-120015796D01*
X139609001Y-120017000D01*
X137758999Y-120017000D01*
X137734495Y-120015796D01*
X137710227Y-120012196D01*
X137686428Y-120006235D01*
X137663329Y-119997970D01*
X137641150Y-119987480D01*
X137620107Y-119974868D01*
X137600401Y-119960253D01*
X137582223Y-119943777D01*
X137565747Y-119925599D01*
X137551132Y-119905893D01*
X137538520Y-119884850D01*
X137528030Y-119862671D01*
X137519765Y-119839572D01*
X137513804Y-119815773D01*
X137510204Y-119791505D01*
X137509000Y-119767001D01*
X137509000Y-118016999D01*
X137510204Y-117992495D01*
X137513804Y-117968227D01*
X137519765Y-117944428D01*
X137528030Y-117921329D01*
X137538520Y-117899150D01*
X137551132Y-117878107D01*
X137565747Y-117858401D01*
X137582223Y-117840223D01*
X137600401Y-117823747D01*
X137620107Y-117809132D01*
X137641150Y-117796520D01*
X137663329Y-117786030D01*
X137686428Y-117777765D01*
X137710227Y-117771804D01*
X137734495Y-117768204D01*
X137758999Y-117767000D01*
X139609001Y-117767000D01*
X139633505Y-117768204D01*
G37*
G36*
X126883505Y-124810204D02*
G01*
X126907773Y-124813804D01*
X126931572Y-124819765D01*
X126954671Y-124828030D01*
X126976850Y-124838520D01*
X126997893Y-124851132D01*
X127017599Y-124865747D01*
X127035777Y-124882223D01*
X127052253Y-124900401D01*
X127066868Y-124920107D01*
X127079480Y-124941150D01*
X127089970Y-124963329D01*
X127098235Y-124986428D01*
X127104196Y-125010227D01*
X127107796Y-125034495D01*
X127109000Y-125058999D01*
X127109000Y-126909001D01*
X127107796Y-126933505D01*
X127104196Y-126957773D01*
X127098235Y-126981572D01*
X127089970Y-127004671D01*
X127079480Y-127026850D01*
X127066868Y-127047893D01*
X127052253Y-127067599D01*
X127035777Y-127085777D01*
X127017599Y-127102253D01*
X126997893Y-127116868D01*
X126976850Y-127129480D01*
X126954671Y-127139970D01*
X126931572Y-127148235D01*
X126907773Y-127154196D01*
X126883505Y-127157796D01*
X126859001Y-127159000D01*
X125108999Y-127159000D01*
X125084495Y-127157796D01*
X125060227Y-127154196D01*
X125036428Y-127148235D01*
X125013329Y-127139970D01*
X124991150Y-127129480D01*
X124970107Y-127116868D01*
X124950401Y-127102253D01*
X124932223Y-127085777D01*
X124915747Y-127067599D01*
X124901132Y-127047893D01*
X124888520Y-127026850D01*
X124878030Y-127004671D01*
X124869765Y-126981572D01*
X124863804Y-126957773D01*
X124860204Y-126933505D01*
X124859000Y-126909001D01*
X124859000Y-125058999D01*
X124860204Y-125034495D01*
X124863804Y-125010227D01*
X124869765Y-124986428D01*
X124878030Y-124963329D01*
X124888520Y-124941150D01*
X124901132Y-124920107D01*
X124915747Y-124900401D01*
X124932223Y-124882223D01*
X124950401Y-124865747D01*
X124970107Y-124851132D01*
X124991150Y-124838520D01*
X125013329Y-124828030D01*
X125036428Y-124819765D01*
X125060227Y-124813804D01*
X125084495Y-124810204D01*
X125108999Y-124809000D01*
X126859001Y-124809000D01*
X126883505Y-124810204D01*
G37*
G36*
X131983505Y-124810204D02*
G01*
X132007773Y-124813804D01*
X132031572Y-124819765D01*
X132054671Y-124828030D01*
X132076850Y-124838520D01*
X132097893Y-124851132D01*
X132117599Y-124865747D01*
X132135777Y-124882223D01*
X132152253Y-124900401D01*
X132166868Y-124920107D01*
X132179480Y-124941150D01*
X132189970Y-124963329D01*
X132198235Y-124986428D01*
X132204196Y-125010227D01*
X132207796Y-125034495D01*
X132209000Y-125058999D01*
X132209000Y-126909001D01*
X132207796Y-126933505D01*
X132204196Y-126957773D01*
X132198235Y-126981572D01*
X132189970Y-127004671D01*
X132179480Y-127026850D01*
X132166868Y-127047893D01*
X132152253Y-127067599D01*
X132135777Y-127085777D01*
X132117599Y-127102253D01*
X132097893Y-127116868D01*
X132076850Y-127129480D01*
X132054671Y-127139970D01*
X132031572Y-127148235D01*
X132007773Y-127154196D01*
X131983505Y-127157796D01*
X131959001Y-127159000D01*
X130208999Y-127159000D01*
X130184495Y-127157796D01*
X130160227Y-127154196D01*
X130136428Y-127148235D01*
X130113329Y-127139970D01*
X130091150Y-127129480D01*
X130070107Y-127116868D01*
X130050401Y-127102253D01*
X130032223Y-127085777D01*
X130015747Y-127067599D01*
X130001132Y-127047893D01*
X129988520Y-127026850D01*
X129978030Y-127004671D01*
X129969765Y-126981572D01*
X129963804Y-126957773D01*
X129960204Y-126933505D01*
X129959000Y-126909001D01*
X129959000Y-125058999D01*
X129960204Y-125034495D01*
X129963804Y-125010227D01*
X129969765Y-124986428D01*
X129978030Y-124963329D01*
X129988520Y-124941150D01*
X130001132Y-124920107D01*
X130015747Y-124900401D01*
X130032223Y-124882223D01*
X130050401Y-124865747D01*
X130070107Y-124851132D01*
X130091150Y-124838520D01*
X130113329Y-124828030D01*
X130136428Y-124819765D01*
X130160227Y-124813804D01*
X130184495Y-124810204D01*
X130208999Y-124809000D01*
X131959001Y-124809000D01*
X131983505Y-124810204D01*
G37*
G36*
X123924142Y-122957674D02*
G01*
X123947803Y-122961184D01*
X123971007Y-122966996D01*
X123993529Y-122975054D01*
X124015153Y-122985282D01*
X124035670Y-122997579D01*
X124054883Y-123011829D01*
X124072607Y-123027893D01*
X124088671Y-123045617D01*
X124102921Y-123064830D01*
X124115218Y-123085347D01*
X124125446Y-123106971D01*
X124133504Y-123129493D01*
X124139316Y-123152697D01*
X124142826Y-123176358D01*
X124144000Y-123200250D01*
X124144000Y-123687750D01*
X124142826Y-123711642D01*
X124139316Y-123735303D01*
X124133504Y-123758507D01*
X124125446Y-123781029D01*
X124115218Y-123802653D01*
X124102921Y-123823170D01*
X124088671Y-123842383D01*
X124072607Y-123860107D01*
X124054883Y-123876171D01*
X124035670Y-123890421D01*
X124015153Y-123902718D01*
X123993529Y-123912946D01*
X123971007Y-123921004D01*
X123947803Y-123926816D01*
X123924142Y-123930326D01*
X123900250Y-123931500D01*
X122987750Y-123931500D01*
X122963858Y-123930326D01*
X122940197Y-123926816D01*
X122916993Y-123921004D01*
X122894471Y-123912946D01*
X122872847Y-123902718D01*
X122852330Y-123890421D01*
X122833117Y-123876171D01*
X122815393Y-123860107D01*
X122799329Y-123842383D01*
X122785079Y-123823170D01*
X122772782Y-123802653D01*
X122762554Y-123781029D01*
X122754496Y-123758507D01*
X122748684Y-123735303D01*
X122745174Y-123711642D01*
X122744000Y-123687750D01*
X122744000Y-123200250D01*
X122745174Y-123176358D01*
X122748684Y-123152697D01*
X122754496Y-123129493D01*
X122762554Y-123106971D01*
X122772782Y-123085347D01*
X122785079Y-123064830D01*
X122799329Y-123045617D01*
X122815393Y-123027893D01*
X122833117Y-123011829D01*
X122852330Y-122997579D01*
X122872847Y-122985282D01*
X122894471Y-122975054D01*
X122916993Y-122966996D01*
X122940197Y-122961184D01*
X122963858Y-122957674D01*
X122987750Y-122956500D01*
X123900250Y-122956500D01*
X123924142Y-122957674D01*
G37*
G36*
X123924142Y-124832674D02*
G01*
X123947803Y-124836184D01*
X123971007Y-124841996D01*
X123993529Y-124850054D01*
X124015153Y-124860282D01*
X124035670Y-124872579D01*
X124054883Y-124886829D01*
X124072607Y-124902893D01*
X124088671Y-124920617D01*
X124102921Y-124939830D01*
X124115218Y-124960347D01*
X124125446Y-124981971D01*
X124133504Y-125004493D01*
X124139316Y-125027697D01*
X124142826Y-125051358D01*
X124144000Y-125075250D01*
X124144000Y-125562750D01*
X124142826Y-125586642D01*
X124139316Y-125610303D01*
X124133504Y-125633507D01*
X124125446Y-125656029D01*
X124115218Y-125677653D01*
X124102921Y-125698170D01*
X124088671Y-125717383D01*
X124072607Y-125735107D01*
X124054883Y-125751171D01*
X124035670Y-125765421D01*
X124015153Y-125777718D01*
X123993529Y-125787946D01*
X123971007Y-125796004D01*
X123947803Y-125801816D01*
X123924142Y-125805326D01*
X123900250Y-125806500D01*
X122987750Y-125806500D01*
X122963858Y-125805326D01*
X122940197Y-125801816D01*
X122916993Y-125796004D01*
X122894471Y-125787946D01*
X122872847Y-125777718D01*
X122852330Y-125765421D01*
X122833117Y-125751171D01*
X122815393Y-125735107D01*
X122799329Y-125717383D01*
X122785079Y-125698170D01*
X122772782Y-125677653D01*
X122762554Y-125656029D01*
X122754496Y-125633507D01*
X122748684Y-125610303D01*
X122745174Y-125586642D01*
X122744000Y-125562750D01*
X122744000Y-125075250D01*
X122745174Y-125051358D01*
X122748684Y-125027697D01*
X122754496Y-125004493D01*
X122762554Y-124981971D01*
X122772782Y-124960347D01*
X122785079Y-124939830D01*
X122799329Y-124920617D01*
X122815393Y-124902893D01*
X122833117Y-124886829D01*
X122852330Y-124872579D01*
X122872847Y-124860282D01*
X122894471Y-124850054D01*
X122916993Y-124841996D01*
X122940197Y-124836184D01*
X122963858Y-124832674D01*
X122987750Y-124831500D01*
X123900250Y-124831500D01*
X123924142Y-124832674D01*
G37*
G36*
X126300142Y-115506174D02*
G01*
X126323803Y-115509684D01*
X126347007Y-115515496D01*
X126369529Y-115523554D01*
X126391153Y-115533782D01*
X126411670Y-115546079D01*
X126430883Y-115560329D01*
X126448607Y-115576393D01*
X126464671Y-115594117D01*
X126478921Y-115613330D01*
X126491218Y-115633847D01*
X126501446Y-115655471D01*
X126509504Y-115677993D01*
X126515316Y-115701197D01*
X126518826Y-115724858D01*
X126520000Y-115748750D01*
X126520000Y-116661250D01*
X126518826Y-116685142D01*
X126515316Y-116708803D01*
X126509504Y-116732007D01*
X126501446Y-116754529D01*
X126491218Y-116776153D01*
X126478921Y-116796670D01*
X126464671Y-116815883D01*
X126448607Y-116833607D01*
X126430883Y-116849671D01*
X126411670Y-116863921D01*
X126391153Y-116876218D01*
X126369529Y-116886446D01*
X126347007Y-116894504D01*
X126323803Y-116900316D01*
X126300142Y-116903826D01*
X126276250Y-116905000D01*
X125788750Y-116905000D01*
X125764858Y-116903826D01*
X125741197Y-116900316D01*
X125717993Y-116894504D01*
X125695471Y-116886446D01*
X125673847Y-116876218D01*
X125653330Y-116863921D01*
X125634117Y-116849671D01*
X125616393Y-116833607D01*
X125600329Y-116815883D01*
X125586079Y-116796670D01*
X125573782Y-116776153D01*
X125563554Y-116754529D01*
X125555496Y-116732007D01*
X125549684Y-116708803D01*
X125546174Y-116685142D01*
X125545000Y-116661250D01*
X125545000Y-115748750D01*
X125546174Y-115724858D01*
X125549684Y-115701197D01*
X125555496Y-115677993D01*
X125563554Y-115655471D01*
X125573782Y-115633847D01*
X125586079Y-115613330D01*
X125600329Y-115594117D01*
X125616393Y-115576393D01*
X125634117Y-115560329D01*
X125653330Y-115546079D01*
X125673847Y-115533782D01*
X125695471Y-115523554D01*
X125717993Y-115515496D01*
X125741197Y-115509684D01*
X125764858Y-115506174D01*
X125788750Y-115505000D01*
X126276250Y-115505000D01*
X126300142Y-115506174D01*
G37*
G36*
X124425142Y-115506174D02*
G01*
X124448803Y-115509684D01*
X124472007Y-115515496D01*
X124494529Y-115523554D01*
X124516153Y-115533782D01*
X124536670Y-115546079D01*
X124555883Y-115560329D01*
X124573607Y-115576393D01*
X124589671Y-115594117D01*
X124603921Y-115613330D01*
X124616218Y-115633847D01*
X124626446Y-115655471D01*
X124634504Y-115677993D01*
X124640316Y-115701197D01*
X124643826Y-115724858D01*
X124645000Y-115748750D01*
X124645000Y-116661250D01*
X124643826Y-116685142D01*
X124640316Y-116708803D01*
X124634504Y-116732007D01*
X124626446Y-116754529D01*
X124616218Y-116776153D01*
X124603921Y-116796670D01*
X124589671Y-116815883D01*
X124573607Y-116833607D01*
X124555883Y-116849671D01*
X124536670Y-116863921D01*
X124516153Y-116876218D01*
X124494529Y-116886446D01*
X124472007Y-116894504D01*
X124448803Y-116900316D01*
X124425142Y-116903826D01*
X124401250Y-116905000D01*
X123913750Y-116905000D01*
X123889858Y-116903826D01*
X123866197Y-116900316D01*
X123842993Y-116894504D01*
X123820471Y-116886446D01*
X123798847Y-116876218D01*
X123778330Y-116863921D01*
X123759117Y-116849671D01*
X123741393Y-116833607D01*
X123725329Y-116815883D01*
X123711079Y-116796670D01*
X123698782Y-116776153D01*
X123688554Y-116754529D01*
X123680496Y-116732007D01*
X123674684Y-116708803D01*
X123671174Y-116685142D01*
X123670000Y-116661250D01*
X123670000Y-115748750D01*
X123671174Y-115724858D01*
X123674684Y-115701197D01*
X123680496Y-115677993D01*
X123688554Y-115655471D01*
X123698782Y-115633847D01*
X123711079Y-115613330D01*
X123725329Y-115594117D01*
X123741393Y-115576393D01*
X123759117Y-115560329D01*
X123778330Y-115546079D01*
X123798847Y-115533782D01*
X123820471Y-115523554D01*
X123842993Y-115515496D01*
X123866197Y-115509684D01*
X123889858Y-115506174D01*
X123913750Y-115505000D01*
X124401250Y-115505000D01*
X124425142Y-115506174D01*
G37*
G36*
X129814505Y-129001204D02*
G01*
X129838773Y-129004804D01*
X129862572Y-129010765D01*
X129885671Y-129019030D01*
X129907850Y-129029520D01*
X129928893Y-129042132D01*
X129948599Y-129056747D01*
X129966777Y-129073223D01*
X129983253Y-129091401D01*
X129997868Y-129111107D01*
X130010480Y-129132150D01*
X130020970Y-129154329D01*
X130029235Y-129177428D01*
X130035196Y-129201227D01*
X130038796Y-129225495D01*
X130040000Y-129249999D01*
X130040000Y-131100001D01*
X130038796Y-131124505D01*
X130035196Y-131148773D01*
X130029235Y-131172572D01*
X130020970Y-131195671D01*
X130010480Y-131217850D01*
X129997868Y-131238893D01*
X129983253Y-131258599D01*
X129966777Y-131276777D01*
X129948599Y-131293253D01*
X129928893Y-131307868D01*
X129907850Y-131320480D01*
X129885671Y-131330970D01*
X129862572Y-131339235D01*
X129838773Y-131345196D01*
X129814505Y-131348796D01*
X129790001Y-131350000D01*
X128039999Y-131350000D01*
X128015495Y-131348796D01*
X127991227Y-131345196D01*
X127967428Y-131339235D01*
X127944329Y-131330970D01*
X127922150Y-131320480D01*
X127901107Y-131307868D01*
X127881401Y-131293253D01*
X127863223Y-131276777D01*
X127846747Y-131258599D01*
X127832132Y-131238893D01*
X127819520Y-131217850D01*
X127809030Y-131195671D01*
X127800765Y-131172572D01*
X127794804Y-131148773D01*
X127791204Y-131124505D01*
X127790000Y-131100001D01*
X127790000Y-129249999D01*
X127791204Y-129225495D01*
X127794804Y-129201227D01*
X127800765Y-129177428D01*
X127809030Y-129154329D01*
X127819520Y-129132150D01*
X127832132Y-129111107D01*
X127846747Y-129091401D01*
X127863223Y-129073223D01*
X127881401Y-129056747D01*
X127901107Y-129042132D01*
X127922150Y-129029520D01*
X127944329Y-129019030D01*
X127967428Y-129010765D01*
X127991227Y-129004804D01*
X128015495Y-129001204D01*
X128039999Y-129000000D01*
X129790001Y-129000000D01*
X129814505Y-129001204D01*
G37*
G36*
X124714505Y-129001204D02*
G01*
X124738773Y-129004804D01*
X124762572Y-129010765D01*
X124785671Y-129019030D01*
X124807850Y-129029520D01*
X124828893Y-129042132D01*
X124848599Y-129056747D01*
X124866777Y-129073223D01*
X124883253Y-129091401D01*
X124897868Y-129111107D01*
X124910480Y-129132150D01*
X124920970Y-129154329D01*
X124929235Y-129177428D01*
X124935196Y-129201227D01*
X124938796Y-129225495D01*
X124940000Y-129249999D01*
X124940000Y-131100001D01*
X124938796Y-131124505D01*
X124935196Y-131148773D01*
X124929235Y-131172572D01*
X124920970Y-131195671D01*
X124910480Y-131217850D01*
X124897868Y-131238893D01*
X124883253Y-131258599D01*
X124866777Y-131276777D01*
X124848599Y-131293253D01*
X124828893Y-131307868D01*
X124807850Y-131320480D01*
X124785671Y-131330970D01*
X124762572Y-131339235D01*
X124738773Y-131345196D01*
X124714505Y-131348796D01*
X124690001Y-131350000D01*
X122939999Y-131350000D01*
X122915495Y-131348796D01*
X122891227Y-131345196D01*
X122867428Y-131339235D01*
X122844329Y-131330970D01*
X122822150Y-131320480D01*
X122801107Y-131307868D01*
X122781401Y-131293253D01*
X122763223Y-131276777D01*
X122746747Y-131258599D01*
X122732132Y-131238893D01*
X122719520Y-131217850D01*
X122709030Y-131195671D01*
X122700765Y-131172572D01*
X122694804Y-131148773D01*
X122691204Y-131124505D01*
X122690000Y-131100001D01*
X122690000Y-129249999D01*
X122691204Y-129225495D01*
X122694804Y-129201227D01*
X122700765Y-129177428D01*
X122709030Y-129154329D01*
X122719520Y-129132150D01*
X122732132Y-129111107D01*
X122746747Y-129091401D01*
X122763223Y-129073223D01*
X122781401Y-129056747D01*
X122801107Y-129042132D01*
X122822150Y-129029520D01*
X122844329Y-129019030D01*
X122867428Y-129010765D01*
X122891227Y-129004804D01*
X122915495Y-129001204D01*
X122939999Y-129000000D01*
X124690001Y-129000000D01*
X124714505Y-129001204D01*
G37*
G36*
X125997642Y-120586174D02*
G01*
X126021303Y-120589684D01*
X126044507Y-120595496D01*
X126067029Y-120603554D01*
X126088653Y-120613782D01*
X126109170Y-120626079D01*
X126128383Y-120640329D01*
X126146107Y-120656393D01*
X126162171Y-120674117D01*
X126176421Y-120693330D01*
X126188718Y-120713847D01*
X126198946Y-120735471D01*
X126207004Y-120757993D01*
X126212816Y-120781197D01*
X126216326Y-120804858D01*
X126217500Y-120828750D01*
X126217500Y-121741250D01*
X126216326Y-121765142D01*
X126212816Y-121788803D01*
X126207004Y-121812007D01*
X126198946Y-121834529D01*
X126188718Y-121856153D01*
X126176421Y-121876670D01*
X126162171Y-121895883D01*
X126146107Y-121913607D01*
X126128383Y-121929671D01*
X126109170Y-121943921D01*
X126088653Y-121956218D01*
X126067029Y-121966446D01*
X126044507Y-121974504D01*
X126021303Y-121980316D01*
X125997642Y-121983826D01*
X125973750Y-121985000D01*
X125486250Y-121985000D01*
X125462358Y-121983826D01*
X125438697Y-121980316D01*
X125415493Y-121974504D01*
X125392971Y-121966446D01*
X125371347Y-121956218D01*
X125350830Y-121943921D01*
X125331617Y-121929671D01*
X125313893Y-121913607D01*
X125297829Y-121895883D01*
X125283579Y-121876670D01*
X125271282Y-121856153D01*
X125261054Y-121834529D01*
X125252996Y-121812007D01*
X125247184Y-121788803D01*
X125243674Y-121765142D01*
X125242500Y-121741250D01*
X125242500Y-120828750D01*
X125243674Y-120804858D01*
X125247184Y-120781197D01*
X125252996Y-120757993D01*
X125261054Y-120735471D01*
X125271282Y-120713847D01*
X125283579Y-120693330D01*
X125297829Y-120674117D01*
X125313893Y-120656393D01*
X125331617Y-120640329D01*
X125350830Y-120626079D01*
X125371347Y-120613782D01*
X125392971Y-120603554D01*
X125415493Y-120595496D01*
X125438697Y-120589684D01*
X125462358Y-120586174D01*
X125486250Y-120585000D01*
X125973750Y-120585000D01*
X125997642Y-120586174D01*
G37*
G36*
X127872642Y-120586174D02*
G01*
X127896303Y-120589684D01*
X127919507Y-120595496D01*
X127942029Y-120603554D01*
X127963653Y-120613782D01*
X127984170Y-120626079D01*
X128003383Y-120640329D01*
X128021107Y-120656393D01*
X128037171Y-120674117D01*
X128051421Y-120693330D01*
X128063718Y-120713847D01*
X128073946Y-120735471D01*
X128082004Y-120757993D01*
X128087816Y-120781197D01*
X128091326Y-120804858D01*
X128092500Y-120828750D01*
X128092500Y-121741250D01*
X128091326Y-121765142D01*
X128087816Y-121788803D01*
X128082004Y-121812007D01*
X128073946Y-121834529D01*
X128063718Y-121856153D01*
X128051421Y-121876670D01*
X128037171Y-121895883D01*
X128021107Y-121913607D01*
X128003383Y-121929671D01*
X127984170Y-121943921D01*
X127963653Y-121956218D01*
X127942029Y-121966446D01*
X127919507Y-121974504D01*
X127896303Y-121980316D01*
X127872642Y-121983826D01*
X127848750Y-121985000D01*
X127361250Y-121985000D01*
X127337358Y-121983826D01*
X127313697Y-121980316D01*
X127290493Y-121974504D01*
X127267971Y-121966446D01*
X127246347Y-121956218D01*
X127225830Y-121943921D01*
X127206617Y-121929671D01*
X127188893Y-121913607D01*
X127172829Y-121895883D01*
X127158579Y-121876670D01*
X127146282Y-121856153D01*
X127136054Y-121834529D01*
X127127996Y-121812007D01*
X127122184Y-121788803D01*
X127118674Y-121765142D01*
X127117500Y-121741250D01*
X127117500Y-120828750D01*
X127118674Y-120804858D01*
X127122184Y-120781197D01*
X127127996Y-120757993D01*
X127136054Y-120735471D01*
X127146282Y-120713847D01*
X127158579Y-120693330D01*
X127172829Y-120674117D01*
X127188893Y-120656393D01*
X127206617Y-120640329D01*
X127225830Y-120626079D01*
X127246347Y-120613782D01*
X127267971Y-120603554D01*
X127290493Y-120595496D01*
X127313697Y-120589684D01*
X127337358Y-120586174D01*
X127361250Y-120585000D01*
X127848750Y-120585000D01*
X127872642Y-120586174D01*
G37*
G36*
X126027642Y-118046174D02*
G01*
X126051303Y-118049684D01*
X126074507Y-118055496D01*
X126097029Y-118063554D01*
X126118653Y-118073782D01*
X126139170Y-118086079D01*
X126158383Y-118100329D01*
X126176107Y-118116393D01*
X126192171Y-118134117D01*
X126206421Y-118153330D01*
X126218718Y-118173847D01*
X126228946Y-118195471D01*
X126237004Y-118217993D01*
X126242816Y-118241197D01*
X126246326Y-118264858D01*
X126247500Y-118288750D01*
X126247500Y-119201250D01*
X126246326Y-119225142D01*
X126242816Y-119248803D01*
X126237004Y-119272007D01*
X126228946Y-119294529D01*
X126218718Y-119316153D01*
X126206421Y-119336670D01*
X126192171Y-119355883D01*
X126176107Y-119373607D01*
X126158383Y-119389671D01*
X126139170Y-119403921D01*
X126118653Y-119416218D01*
X126097029Y-119426446D01*
X126074507Y-119434504D01*
X126051303Y-119440316D01*
X126027642Y-119443826D01*
X126003750Y-119445000D01*
X125516250Y-119445000D01*
X125492358Y-119443826D01*
X125468697Y-119440316D01*
X125445493Y-119434504D01*
X125422971Y-119426446D01*
X125401347Y-119416218D01*
X125380830Y-119403921D01*
X125361617Y-119389671D01*
X125343893Y-119373607D01*
X125327829Y-119355883D01*
X125313579Y-119336670D01*
X125301282Y-119316153D01*
X125291054Y-119294529D01*
X125282996Y-119272007D01*
X125277184Y-119248803D01*
X125273674Y-119225142D01*
X125272500Y-119201250D01*
X125272500Y-118288750D01*
X125273674Y-118264858D01*
X125277184Y-118241197D01*
X125282996Y-118217993D01*
X125291054Y-118195471D01*
X125301282Y-118173847D01*
X125313579Y-118153330D01*
X125327829Y-118134117D01*
X125343893Y-118116393D01*
X125361617Y-118100329D01*
X125380830Y-118086079D01*
X125401347Y-118073782D01*
X125422971Y-118063554D01*
X125445493Y-118055496D01*
X125468697Y-118049684D01*
X125492358Y-118046174D01*
X125516250Y-118045000D01*
X126003750Y-118045000D01*
X126027642Y-118046174D01*
G37*
G36*
X127902642Y-118046174D02*
G01*
X127926303Y-118049684D01*
X127949507Y-118055496D01*
X127972029Y-118063554D01*
X127993653Y-118073782D01*
X128014170Y-118086079D01*
X128033383Y-118100329D01*
X128051107Y-118116393D01*
X128067171Y-118134117D01*
X128081421Y-118153330D01*
X128093718Y-118173847D01*
X128103946Y-118195471D01*
X128112004Y-118217993D01*
X128117816Y-118241197D01*
X128121326Y-118264858D01*
X128122500Y-118288750D01*
X128122500Y-119201250D01*
X128121326Y-119225142D01*
X128117816Y-119248803D01*
X128112004Y-119272007D01*
X128103946Y-119294529D01*
X128093718Y-119316153D01*
X128081421Y-119336670D01*
X128067171Y-119355883D01*
X128051107Y-119373607D01*
X128033383Y-119389671D01*
X128014170Y-119403921D01*
X127993653Y-119416218D01*
X127972029Y-119426446D01*
X127949507Y-119434504D01*
X127926303Y-119440316D01*
X127902642Y-119443826D01*
X127878750Y-119445000D01*
X127391250Y-119445000D01*
X127367358Y-119443826D01*
X127343697Y-119440316D01*
X127320493Y-119434504D01*
X127297971Y-119426446D01*
X127276347Y-119416218D01*
X127255830Y-119403921D01*
X127236617Y-119389671D01*
X127218893Y-119373607D01*
X127202829Y-119355883D01*
X127188579Y-119336670D01*
X127176282Y-119316153D01*
X127166054Y-119294529D01*
X127157996Y-119272007D01*
X127152184Y-119248803D01*
X127148674Y-119225142D01*
X127147500Y-119201250D01*
X127147500Y-118288750D01*
X127148674Y-118264858D01*
X127152184Y-118241197D01*
X127157996Y-118217993D01*
X127166054Y-118195471D01*
X127176282Y-118173847D01*
X127188579Y-118153330D01*
X127202829Y-118134117D01*
X127218893Y-118116393D01*
X127236617Y-118100329D01*
X127255830Y-118086079D01*
X127276347Y-118073782D01*
X127297971Y-118063554D01*
X127320493Y-118055496D01*
X127343697Y-118049684D01*
X127367358Y-118046174D01*
X127391250Y-118045000D01*
X127878750Y-118045000D01*
X127902642Y-118046174D01*
G37*
G36*
X131759505Y-121451204D02*
G01*
X131783773Y-121454804D01*
X131807572Y-121460765D01*
X131830671Y-121469030D01*
X131852850Y-121479520D01*
X131873893Y-121492132D01*
X131893599Y-121506747D01*
X131911777Y-121523223D01*
X131928253Y-121541401D01*
X131942868Y-121561107D01*
X131955480Y-121582150D01*
X131965970Y-121604329D01*
X131974235Y-121627428D01*
X131980196Y-121651227D01*
X131983796Y-121675495D01*
X131985000Y-121699999D01*
X131985000Y-123450001D01*
X131983796Y-123474505D01*
X131980196Y-123498773D01*
X131974235Y-123522572D01*
X131965970Y-123545671D01*
X131955480Y-123567850D01*
X131942868Y-123588893D01*
X131928253Y-123608599D01*
X131911777Y-123626777D01*
X131893599Y-123643253D01*
X131873893Y-123657868D01*
X131852850Y-123670480D01*
X131830671Y-123680970D01*
X131807572Y-123689235D01*
X131783773Y-123695196D01*
X131759505Y-123698796D01*
X131735001Y-123700000D01*
X129884999Y-123700000D01*
X129860495Y-123698796D01*
X129836227Y-123695196D01*
X129812428Y-123689235D01*
X129789329Y-123680970D01*
X129767150Y-123670480D01*
X129746107Y-123657868D01*
X129726401Y-123643253D01*
X129708223Y-123626777D01*
X129691747Y-123608599D01*
X129677132Y-123588893D01*
X129664520Y-123567850D01*
X129654030Y-123545671D01*
X129645765Y-123522572D01*
X129639804Y-123498773D01*
X129636204Y-123474505D01*
X129635000Y-123450001D01*
X129635000Y-121699999D01*
X129636204Y-121675495D01*
X129639804Y-121651227D01*
X129645765Y-121627428D01*
X129654030Y-121604329D01*
X129664520Y-121582150D01*
X129677132Y-121561107D01*
X129691747Y-121541401D01*
X129708223Y-121523223D01*
X129726401Y-121506747D01*
X129746107Y-121492132D01*
X129767150Y-121479520D01*
X129789329Y-121469030D01*
X129812428Y-121460765D01*
X129836227Y-121454804D01*
X129860495Y-121451204D01*
X129884999Y-121450000D01*
X131735001Y-121450000D01*
X131759505Y-121451204D01*
G37*
G36*
X131759505Y-116351204D02*
G01*
X131783773Y-116354804D01*
X131807572Y-116360765D01*
X131830671Y-116369030D01*
X131852850Y-116379520D01*
X131873893Y-116392132D01*
X131893599Y-116406747D01*
X131911777Y-116423223D01*
X131928253Y-116441401D01*
X131942868Y-116461107D01*
X131955480Y-116482150D01*
X131965970Y-116504329D01*
X131974235Y-116527428D01*
X131980196Y-116551227D01*
X131983796Y-116575495D01*
X131985000Y-116599999D01*
X131985000Y-118350001D01*
X131983796Y-118374505D01*
X131980196Y-118398773D01*
X131974235Y-118422572D01*
X131965970Y-118445671D01*
X131955480Y-118467850D01*
X131942868Y-118488893D01*
X131928253Y-118508599D01*
X131911777Y-118526777D01*
X131893599Y-118543253D01*
X131873893Y-118557868D01*
X131852850Y-118570480D01*
X131830671Y-118580970D01*
X131807572Y-118589235D01*
X131783773Y-118595196D01*
X131759505Y-118598796D01*
X131735001Y-118600000D01*
X129884999Y-118600000D01*
X129860495Y-118598796D01*
X129836227Y-118595196D01*
X129812428Y-118589235D01*
X129789329Y-118580970D01*
X129767150Y-118570480D01*
X129746107Y-118557868D01*
X129726401Y-118543253D01*
X129708223Y-118526777D01*
X129691747Y-118508599D01*
X129677132Y-118488893D01*
X129664520Y-118467850D01*
X129654030Y-118445671D01*
X129645765Y-118422572D01*
X129639804Y-118398773D01*
X129636204Y-118374505D01*
X129635000Y-118350001D01*
X129635000Y-116599999D01*
X129636204Y-116575495D01*
X129639804Y-116551227D01*
X129645765Y-116527428D01*
X129654030Y-116504329D01*
X129664520Y-116482150D01*
X129677132Y-116461107D01*
X129691747Y-116441401D01*
X129708223Y-116423223D01*
X129726401Y-116406747D01*
X129746107Y-116392132D01*
X129767150Y-116379520D01*
X129789329Y-116369030D01*
X129812428Y-116360765D01*
X129836227Y-116354804D01*
X129860495Y-116351204D01*
X129884999Y-116350000D01*
X131735001Y-116350000D01*
X131759505Y-116351204D01*
G37*
G36*
X134465142Y-118318674D02*
G01*
X134488803Y-118322184D01*
X134512007Y-118327996D01*
X134534529Y-118336054D01*
X134556153Y-118346282D01*
X134576670Y-118358579D01*
X134595883Y-118372829D01*
X134613607Y-118388893D01*
X134629671Y-118406617D01*
X134643921Y-118425830D01*
X134656218Y-118446347D01*
X134666446Y-118467971D01*
X134674504Y-118490493D01*
X134680316Y-118513697D01*
X134683826Y-118537358D01*
X134685000Y-118561250D01*
X134685000Y-119048750D01*
X134683826Y-119072642D01*
X134680316Y-119096303D01*
X134674504Y-119119507D01*
X134666446Y-119142029D01*
X134656218Y-119163653D01*
X134643921Y-119184170D01*
X134629671Y-119203383D01*
X134613607Y-119221107D01*
X134595883Y-119237171D01*
X134576670Y-119251421D01*
X134556153Y-119263718D01*
X134534529Y-119273946D01*
X134512007Y-119282004D01*
X134488803Y-119287816D01*
X134465142Y-119291326D01*
X134441250Y-119292500D01*
X133528750Y-119292500D01*
X133504858Y-119291326D01*
X133481197Y-119287816D01*
X133457993Y-119282004D01*
X133435471Y-119273946D01*
X133413847Y-119263718D01*
X133393330Y-119251421D01*
X133374117Y-119237171D01*
X133356393Y-119221107D01*
X133340329Y-119203383D01*
X133326079Y-119184170D01*
X133313782Y-119163653D01*
X133303554Y-119142029D01*
X133295496Y-119119507D01*
X133289684Y-119096303D01*
X133286174Y-119072642D01*
X133285000Y-119048750D01*
X133285000Y-118561250D01*
X133286174Y-118537358D01*
X133289684Y-118513697D01*
X133295496Y-118490493D01*
X133303554Y-118467971D01*
X133313782Y-118446347D01*
X133326079Y-118425830D01*
X133340329Y-118406617D01*
X133356393Y-118388893D01*
X133374117Y-118372829D01*
X133393330Y-118358579D01*
X133413847Y-118346282D01*
X133435471Y-118336054D01*
X133457993Y-118327996D01*
X133481197Y-118322184D01*
X133504858Y-118318674D01*
X133528750Y-118317500D01*
X134441250Y-118317500D01*
X134465142Y-118318674D01*
G37*
G36*
X134465142Y-120193674D02*
G01*
X134488803Y-120197184D01*
X134512007Y-120202996D01*
X134534529Y-120211054D01*
X134556153Y-120221282D01*
X134576670Y-120233579D01*
X134595883Y-120247829D01*
X134613607Y-120263893D01*
X134629671Y-120281617D01*
X134643921Y-120300830D01*
X134656218Y-120321347D01*
X134666446Y-120342971D01*
X134674504Y-120365493D01*
X134680316Y-120388697D01*
X134683826Y-120412358D01*
X134685000Y-120436250D01*
X134685000Y-120923750D01*
X134683826Y-120947642D01*
X134680316Y-120971303D01*
X134674504Y-120994507D01*
X134666446Y-121017029D01*
X134656218Y-121038653D01*
X134643921Y-121059170D01*
X134629671Y-121078383D01*
X134613607Y-121096107D01*
X134595883Y-121112171D01*
X134576670Y-121126421D01*
X134556153Y-121138718D01*
X134534529Y-121148946D01*
X134512007Y-121157004D01*
X134488803Y-121162816D01*
X134465142Y-121166326D01*
X134441250Y-121167500D01*
X133528750Y-121167500D01*
X133504858Y-121166326D01*
X133481197Y-121162816D01*
X133457993Y-121157004D01*
X133435471Y-121148946D01*
X133413847Y-121138718D01*
X133393330Y-121126421D01*
X133374117Y-121112171D01*
X133356393Y-121096107D01*
X133340329Y-121078383D01*
X133326079Y-121059170D01*
X133313782Y-121038653D01*
X133303554Y-121017029D01*
X133295496Y-120994507D01*
X133289684Y-120971303D01*
X133286174Y-120947642D01*
X133285000Y-120923750D01*
X133285000Y-120436250D01*
X133286174Y-120412358D01*
X133289684Y-120388697D01*
X133295496Y-120365493D01*
X133303554Y-120342971D01*
X133313782Y-120321347D01*
X133326079Y-120300830D01*
X133340329Y-120281617D01*
X133356393Y-120263893D01*
X133374117Y-120247829D01*
X133393330Y-120233579D01*
X133413847Y-120221282D01*
X133435471Y-120211054D01*
X133457993Y-120202996D01*
X133481197Y-120197184D01*
X133504858Y-120193674D01*
X133528750Y-120192500D01*
X134441250Y-120192500D01*
X134465142Y-120193674D01*
G37*
G36*
X121855142Y-107251174D02*
G01*
X121878803Y-107254684D01*
X121902007Y-107260496D01*
X121924529Y-107268554D01*
X121946153Y-107278782D01*
X121966670Y-107291079D01*
X121985883Y-107305329D01*
X122003607Y-107321393D01*
X122019671Y-107339117D01*
X122033921Y-107358330D01*
X122046218Y-107378847D01*
X122056446Y-107400471D01*
X122064504Y-107422993D01*
X122070316Y-107446197D01*
X122073826Y-107469858D01*
X122075000Y-107493750D01*
X122075000Y-108406250D01*
X122073826Y-108430142D01*
X122070316Y-108453803D01*
X122064504Y-108477007D01*
X122056446Y-108499529D01*
X122046218Y-108521153D01*
X122033921Y-108541670D01*
X122019671Y-108560883D01*
X122003607Y-108578607D01*
X121985883Y-108594671D01*
X121966670Y-108608921D01*
X121946153Y-108621218D01*
X121924529Y-108631446D01*
X121902007Y-108639504D01*
X121878803Y-108645316D01*
X121855142Y-108648826D01*
X121831250Y-108650000D01*
X121343750Y-108650000D01*
X121319858Y-108648826D01*
X121296197Y-108645316D01*
X121272993Y-108639504D01*
X121250471Y-108631446D01*
X121228847Y-108621218D01*
X121208330Y-108608921D01*
X121189117Y-108594671D01*
X121171393Y-108578607D01*
X121155329Y-108560883D01*
X121141079Y-108541670D01*
X121128782Y-108521153D01*
X121118554Y-108499529D01*
X121110496Y-108477007D01*
X121104684Y-108453803D01*
X121101174Y-108430142D01*
X121100000Y-108406250D01*
X121100000Y-107493750D01*
X121101174Y-107469858D01*
X121104684Y-107446197D01*
X121110496Y-107422993D01*
X121118554Y-107400471D01*
X121128782Y-107378847D01*
X121141079Y-107358330D01*
X121155329Y-107339117D01*
X121171393Y-107321393D01*
X121189117Y-107305329D01*
X121208330Y-107291079D01*
X121228847Y-107278782D01*
X121250471Y-107268554D01*
X121272993Y-107260496D01*
X121296197Y-107254684D01*
X121319858Y-107251174D01*
X121343750Y-107250000D01*
X121831250Y-107250000D01*
X121855142Y-107251174D01*
G37*
G36*
X119980142Y-107251174D02*
G01*
X120003803Y-107254684D01*
X120027007Y-107260496D01*
X120049529Y-107268554D01*
X120071153Y-107278782D01*
X120091670Y-107291079D01*
X120110883Y-107305329D01*
X120128607Y-107321393D01*
X120144671Y-107339117D01*
X120158921Y-107358330D01*
X120171218Y-107378847D01*
X120181446Y-107400471D01*
X120189504Y-107422993D01*
X120195316Y-107446197D01*
X120198826Y-107469858D01*
X120200000Y-107493750D01*
X120200000Y-108406250D01*
X120198826Y-108430142D01*
X120195316Y-108453803D01*
X120189504Y-108477007D01*
X120181446Y-108499529D01*
X120171218Y-108521153D01*
X120158921Y-108541670D01*
X120144671Y-108560883D01*
X120128607Y-108578607D01*
X120110883Y-108594671D01*
X120091670Y-108608921D01*
X120071153Y-108621218D01*
X120049529Y-108631446D01*
X120027007Y-108639504D01*
X120003803Y-108645316D01*
X119980142Y-108648826D01*
X119956250Y-108650000D01*
X119468750Y-108650000D01*
X119444858Y-108648826D01*
X119421197Y-108645316D01*
X119397993Y-108639504D01*
X119375471Y-108631446D01*
X119353847Y-108621218D01*
X119333330Y-108608921D01*
X119314117Y-108594671D01*
X119296393Y-108578607D01*
X119280329Y-108560883D01*
X119266079Y-108541670D01*
X119253782Y-108521153D01*
X119243554Y-108499529D01*
X119235496Y-108477007D01*
X119229684Y-108453803D01*
X119226174Y-108430142D01*
X119225000Y-108406250D01*
X119225000Y-107493750D01*
X119226174Y-107469858D01*
X119229684Y-107446197D01*
X119235496Y-107422993D01*
X119243554Y-107400471D01*
X119253782Y-107378847D01*
X119266079Y-107358330D01*
X119280329Y-107339117D01*
X119296393Y-107321393D01*
X119314117Y-107305329D01*
X119333330Y-107291079D01*
X119353847Y-107278782D01*
X119375471Y-107268554D01*
X119397993Y-107260496D01*
X119421197Y-107254684D01*
X119444858Y-107251174D01*
X119468750Y-107250000D01*
X119956250Y-107250000D01*
X119980142Y-107251174D01*
G37*
G36*
X122204505Y-103601204D02*
G01*
X122228773Y-103604804D01*
X122252572Y-103610765D01*
X122275671Y-103619030D01*
X122297850Y-103629520D01*
X122318893Y-103642132D01*
X122338599Y-103656747D01*
X122356777Y-103673223D01*
X122373253Y-103691401D01*
X122387868Y-103711107D01*
X122400480Y-103732150D01*
X122410970Y-103754329D01*
X122419235Y-103777428D01*
X122425196Y-103801227D01*
X122428796Y-103825495D01*
X122430000Y-103849999D01*
X122430000Y-105700001D01*
X122428796Y-105724505D01*
X122425196Y-105748773D01*
X122419235Y-105772572D01*
X122410970Y-105795671D01*
X122400480Y-105817850D01*
X122387868Y-105838893D01*
X122373253Y-105858599D01*
X122356777Y-105876777D01*
X122338599Y-105893253D01*
X122318893Y-105907868D01*
X122297850Y-105920480D01*
X122275671Y-105930970D01*
X122252572Y-105939235D01*
X122228773Y-105945196D01*
X122204505Y-105948796D01*
X122180001Y-105950000D01*
X120429999Y-105950000D01*
X120405495Y-105948796D01*
X120381227Y-105945196D01*
X120357428Y-105939235D01*
X120334329Y-105930970D01*
X120312150Y-105920480D01*
X120291107Y-105907868D01*
X120271401Y-105893253D01*
X120253223Y-105876777D01*
X120236747Y-105858599D01*
X120222132Y-105838893D01*
X120209520Y-105817850D01*
X120199030Y-105795671D01*
X120190765Y-105772572D01*
X120184804Y-105748773D01*
X120181204Y-105724505D01*
X120180000Y-105700001D01*
X120180000Y-103849999D01*
X120181204Y-103825495D01*
X120184804Y-103801227D01*
X120190765Y-103777428D01*
X120199030Y-103754329D01*
X120209520Y-103732150D01*
X120222132Y-103711107D01*
X120236747Y-103691401D01*
X120253223Y-103673223D01*
X120271401Y-103656747D01*
X120291107Y-103642132D01*
X120312150Y-103629520D01*
X120334329Y-103619030D01*
X120357428Y-103610765D01*
X120381227Y-103604804D01*
X120405495Y-103601204D01*
X120429999Y-103600000D01*
X122180001Y-103600000D01*
X122204505Y-103601204D01*
G37*
G36*
X117104505Y-103601204D02*
G01*
X117128773Y-103604804D01*
X117152572Y-103610765D01*
X117175671Y-103619030D01*
X117197850Y-103629520D01*
X117218893Y-103642132D01*
X117238599Y-103656747D01*
X117256777Y-103673223D01*
X117273253Y-103691401D01*
X117287868Y-103711107D01*
X117300480Y-103732150D01*
X117310970Y-103754329D01*
X117319235Y-103777428D01*
X117325196Y-103801227D01*
X117328796Y-103825495D01*
X117330000Y-103849999D01*
X117330000Y-105700001D01*
X117328796Y-105724505D01*
X117325196Y-105748773D01*
X117319235Y-105772572D01*
X117310970Y-105795671D01*
X117300480Y-105817850D01*
X117287868Y-105838893D01*
X117273253Y-105858599D01*
X117256777Y-105876777D01*
X117238599Y-105893253D01*
X117218893Y-105907868D01*
X117197850Y-105920480D01*
X117175671Y-105930970D01*
X117152572Y-105939235D01*
X117128773Y-105945196D01*
X117104505Y-105948796D01*
X117080001Y-105950000D01*
X115329999Y-105950000D01*
X115305495Y-105948796D01*
X115281227Y-105945196D01*
X115257428Y-105939235D01*
X115234329Y-105930970D01*
X115212150Y-105920480D01*
X115191107Y-105907868D01*
X115171401Y-105893253D01*
X115153223Y-105876777D01*
X115136747Y-105858599D01*
X115122132Y-105838893D01*
X115109520Y-105817850D01*
X115099030Y-105795671D01*
X115090765Y-105772572D01*
X115084804Y-105748773D01*
X115081204Y-105724505D01*
X115080000Y-105700001D01*
X115080000Y-103849999D01*
X115081204Y-103825495D01*
X115084804Y-103801227D01*
X115090765Y-103777428D01*
X115099030Y-103754329D01*
X115109520Y-103732150D01*
X115122132Y-103711107D01*
X115136747Y-103691401D01*
X115153223Y-103673223D01*
X115171401Y-103656747D01*
X115191107Y-103642132D01*
X115212150Y-103629520D01*
X115234329Y-103619030D01*
X115257428Y-103610765D01*
X115281227Y-103604804D01*
X115305495Y-103601204D01*
X115329999Y-103600000D01*
X117080001Y-103600000D01*
X117104505Y-103601204D01*
G37*
D12*
X139064000Y-130302000D03*
X139064000Y-125222000D03*
X135764000Y-127762000D03*
D13*
X116872000Y-99126000D03*
X116872000Y-101026000D03*
X118872000Y-100076000D03*
X118872000Y-96012000D03*
X116872000Y-96962000D03*
X116872000Y-95062000D03*
X116856000Y-90998000D03*
X116856000Y-92898000D03*
X118856000Y-91948000D03*
D11*
G36*
X110582142Y-101917174D02*
G01*
X110605803Y-101920684D01*
X110629007Y-101926496D01*
X110651529Y-101934554D01*
X110673153Y-101944782D01*
X110693670Y-101957079D01*
X110712883Y-101971329D01*
X110730607Y-101987393D01*
X110746671Y-102005117D01*
X110760921Y-102024330D01*
X110773218Y-102044847D01*
X110783446Y-102066471D01*
X110791504Y-102088993D01*
X110797316Y-102112197D01*
X110800826Y-102135858D01*
X110802000Y-102159750D01*
X110802000Y-103072250D01*
X110800826Y-103096142D01*
X110797316Y-103119803D01*
X110791504Y-103143007D01*
X110783446Y-103165529D01*
X110773218Y-103187153D01*
X110760921Y-103207670D01*
X110746671Y-103226883D01*
X110730607Y-103244607D01*
X110712883Y-103260671D01*
X110693670Y-103274921D01*
X110673153Y-103287218D01*
X110651529Y-103297446D01*
X110629007Y-103305504D01*
X110605803Y-103311316D01*
X110582142Y-103314826D01*
X110558250Y-103316000D01*
X110070750Y-103316000D01*
X110046858Y-103314826D01*
X110023197Y-103311316D01*
X109999993Y-103305504D01*
X109977471Y-103297446D01*
X109955847Y-103287218D01*
X109935330Y-103274921D01*
X109916117Y-103260671D01*
X109898393Y-103244607D01*
X109882329Y-103226883D01*
X109868079Y-103207670D01*
X109855782Y-103187153D01*
X109845554Y-103165529D01*
X109837496Y-103143007D01*
X109831684Y-103119803D01*
X109828174Y-103096142D01*
X109827000Y-103072250D01*
X109827000Y-102159750D01*
X109828174Y-102135858D01*
X109831684Y-102112197D01*
X109837496Y-102088993D01*
X109845554Y-102066471D01*
X109855782Y-102044847D01*
X109868079Y-102024330D01*
X109882329Y-102005117D01*
X109898393Y-101987393D01*
X109916117Y-101971329D01*
X109935330Y-101957079D01*
X109955847Y-101944782D01*
X109977471Y-101934554D01*
X109999993Y-101926496D01*
X110023197Y-101920684D01*
X110046858Y-101917174D01*
X110070750Y-101916000D01*
X110558250Y-101916000D01*
X110582142Y-101917174D01*
G37*
G36*
X112457142Y-101917174D02*
G01*
X112480803Y-101920684D01*
X112504007Y-101926496D01*
X112526529Y-101934554D01*
X112548153Y-101944782D01*
X112568670Y-101957079D01*
X112587883Y-101971329D01*
X112605607Y-101987393D01*
X112621671Y-102005117D01*
X112635921Y-102024330D01*
X112648218Y-102044847D01*
X112658446Y-102066471D01*
X112666504Y-102088993D01*
X112672316Y-102112197D01*
X112675826Y-102135858D01*
X112677000Y-102159750D01*
X112677000Y-103072250D01*
X112675826Y-103096142D01*
X112672316Y-103119803D01*
X112666504Y-103143007D01*
X112658446Y-103165529D01*
X112648218Y-103187153D01*
X112635921Y-103207670D01*
X112621671Y-103226883D01*
X112605607Y-103244607D01*
X112587883Y-103260671D01*
X112568670Y-103274921D01*
X112548153Y-103287218D01*
X112526529Y-103297446D01*
X112504007Y-103305504D01*
X112480803Y-103311316D01*
X112457142Y-103314826D01*
X112433250Y-103316000D01*
X111945750Y-103316000D01*
X111921858Y-103314826D01*
X111898197Y-103311316D01*
X111874993Y-103305504D01*
X111852471Y-103297446D01*
X111830847Y-103287218D01*
X111810330Y-103274921D01*
X111791117Y-103260671D01*
X111773393Y-103244607D01*
X111757329Y-103226883D01*
X111743079Y-103207670D01*
X111730782Y-103187153D01*
X111720554Y-103165529D01*
X111712496Y-103143007D01*
X111706684Y-103119803D01*
X111703174Y-103096142D01*
X111702000Y-103072250D01*
X111702000Y-102159750D01*
X111703174Y-102135858D01*
X111706684Y-102112197D01*
X111712496Y-102088993D01*
X111720554Y-102066471D01*
X111730782Y-102044847D01*
X111743079Y-102024330D01*
X111757329Y-102005117D01*
X111773393Y-101987393D01*
X111791117Y-101971329D01*
X111810330Y-101957079D01*
X111830847Y-101944782D01*
X111852471Y-101934554D01*
X111874993Y-101926496D01*
X111898197Y-101920684D01*
X111921858Y-101917174D01*
X111945750Y-101916000D01*
X112433250Y-101916000D01*
X112457142Y-101917174D01*
G37*
G36*
X112535642Y-99885174D02*
G01*
X112559303Y-99888684D01*
X112582507Y-99894496D01*
X112605029Y-99902554D01*
X112626653Y-99912782D01*
X112647170Y-99925079D01*
X112666383Y-99939329D01*
X112684107Y-99955393D01*
X112700171Y-99973117D01*
X112714421Y-99992330D01*
X112726718Y-100012847D01*
X112736946Y-100034471D01*
X112745004Y-100056993D01*
X112750816Y-100080197D01*
X112754326Y-100103858D01*
X112755500Y-100127750D01*
X112755500Y-101040250D01*
X112754326Y-101064142D01*
X112750816Y-101087803D01*
X112745004Y-101111007D01*
X112736946Y-101133529D01*
X112726718Y-101155153D01*
X112714421Y-101175670D01*
X112700171Y-101194883D01*
X112684107Y-101212607D01*
X112666383Y-101228671D01*
X112647170Y-101242921D01*
X112626653Y-101255218D01*
X112605029Y-101265446D01*
X112582507Y-101273504D01*
X112559303Y-101279316D01*
X112535642Y-101282826D01*
X112511750Y-101284000D01*
X112024250Y-101284000D01*
X112000358Y-101282826D01*
X111976697Y-101279316D01*
X111953493Y-101273504D01*
X111930971Y-101265446D01*
X111909347Y-101255218D01*
X111888830Y-101242921D01*
X111869617Y-101228671D01*
X111851893Y-101212607D01*
X111835829Y-101194883D01*
X111821579Y-101175670D01*
X111809282Y-101155153D01*
X111799054Y-101133529D01*
X111790996Y-101111007D01*
X111785184Y-101087803D01*
X111781674Y-101064142D01*
X111780500Y-101040250D01*
X111780500Y-100127750D01*
X111781674Y-100103858D01*
X111785184Y-100080197D01*
X111790996Y-100056993D01*
X111799054Y-100034471D01*
X111809282Y-100012847D01*
X111821579Y-99992330D01*
X111835829Y-99973117D01*
X111851893Y-99955393D01*
X111869617Y-99939329D01*
X111888830Y-99925079D01*
X111909347Y-99912782D01*
X111930971Y-99902554D01*
X111953493Y-99894496D01*
X111976697Y-99888684D01*
X112000358Y-99885174D01*
X112024250Y-99884000D01*
X112511750Y-99884000D01*
X112535642Y-99885174D01*
G37*
G36*
X110660642Y-99885174D02*
G01*
X110684303Y-99888684D01*
X110707507Y-99894496D01*
X110730029Y-99902554D01*
X110751653Y-99912782D01*
X110772170Y-99925079D01*
X110791383Y-99939329D01*
X110809107Y-99955393D01*
X110825171Y-99973117D01*
X110839421Y-99992330D01*
X110851718Y-100012847D01*
X110861946Y-100034471D01*
X110870004Y-100056993D01*
X110875816Y-100080197D01*
X110879326Y-100103858D01*
X110880500Y-100127750D01*
X110880500Y-101040250D01*
X110879326Y-101064142D01*
X110875816Y-101087803D01*
X110870004Y-101111007D01*
X110861946Y-101133529D01*
X110851718Y-101155153D01*
X110839421Y-101175670D01*
X110825171Y-101194883D01*
X110809107Y-101212607D01*
X110791383Y-101228671D01*
X110772170Y-101242921D01*
X110751653Y-101255218D01*
X110730029Y-101265446D01*
X110707507Y-101273504D01*
X110684303Y-101279316D01*
X110660642Y-101282826D01*
X110636750Y-101284000D01*
X110149250Y-101284000D01*
X110125358Y-101282826D01*
X110101697Y-101279316D01*
X110078493Y-101273504D01*
X110055971Y-101265446D01*
X110034347Y-101255218D01*
X110013830Y-101242921D01*
X109994617Y-101228671D01*
X109976893Y-101212607D01*
X109960829Y-101194883D01*
X109946579Y-101175670D01*
X109934282Y-101155153D01*
X109924054Y-101133529D01*
X109915996Y-101111007D01*
X109910184Y-101087803D01*
X109906674Y-101064142D01*
X109905500Y-101040250D01*
X109905500Y-100127750D01*
X109906674Y-100103858D01*
X109910184Y-100080197D01*
X109915996Y-100056993D01*
X109924054Y-100034471D01*
X109934282Y-100012847D01*
X109946579Y-99992330D01*
X109960829Y-99973117D01*
X109976893Y-99955393D01*
X109994617Y-99939329D01*
X110013830Y-99925079D01*
X110034347Y-99912782D01*
X110055971Y-99902554D01*
X110078493Y-99894496D01*
X110101697Y-99888684D01*
X110125358Y-99885174D01*
X110149250Y-99884000D01*
X110636750Y-99884000D01*
X110660642Y-99885174D01*
G37*
G36*
X110582142Y-97853174D02*
G01*
X110605803Y-97856684D01*
X110629007Y-97862496D01*
X110651529Y-97870554D01*
X110673153Y-97880782D01*
X110693670Y-97893079D01*
X110712883Y-97907329D01*
X110730607Y-97923393D01*
X110746671Y-97941117D01*
X110760921Y-97960330D01*
X110773218Y-97980847D01*
X110783446Y-98002471D01*
X110791504Y-98024993D01*
X110797316Y-98048197D01*
X110800826Y-98071858D01*
X110802000Y-98095750D01*
X110802000Y-99008250D01*
X110800826Y-99032142D01*
X110797316Y-99055803D01*
X110791504Y-99079007D01*
X110783446Y-99101529D01*
X110773218Y-99123153D01*
X110760921Y-99143670D01*
X110746671Y-99162883D01*
X110730607Y-99180607D01*
X110712883Y-99196671D01*
X110693670Y-99210921D01*
X110673153Y-99223218D01*
X110651529Y-99233446D01*
X110629007Y-99241504D01*
X110605803Y-99247316D01*
X110582142Y-99250826D01*
X110558250Y-99252000D01*
X110070750Y-99252000D01*
X110046858Y-99250826D01*
X110023197Y-99247316D01*
X109999993Y-99241504D01*
X109977471Y-99233446D01*
X109955847Y-99223218D01*
X109935330Y-99210921D01*
X109916117Y-99196671D01*
X109898393Y-99180607D01*
X109882329Y-99162883D01*
X109868079Y-99143670D01*
X109855782Y-99123153D01*
X109845554Y-99101529D01*
X109837496Y-99079007D01*
X109831684Y-99055803D01*
X109828174Y-99032142D01*
X109827000Y-99008250D01*
X109827000Y-98095750D01*
X109828174Y-98071858D01*
X109831684Y-98048197D01*
X109837496Y-98024993D01*
X109845554Y-98002471D01*
X109855782Y-97980847D01*
X109868079Y-97960330D01*
X109882329Y-97941117D01*
X109898393Y-97923393D01*
X109916117Y-97907329D01*
X109935330Y-97893079D01*
X109955847Y-97880782D01*
X109977471Y-97870554D01*
X109999993Y-97862496D01*
X110023197Y-97856684D01*
X110046858Y-97853174D01*
X110070750Y-97852000D01*
X110558250Y-97852000D01*
X110582142Y-97853174D01*
G37*
G36*
X112457142Y-97853174D02*
G01*
X112480803Y-97856684D01*
X112504007Y-97862496D01*
X112526529Y-97870554D01*
X112548153Y-97880782D01*
X112568670Y-97893079D01*
X112587883Y-97907329D01*
X112605607Y-97923393D01*
X112621671Y-97941117D01*
X112635921Y-97960330D01*
X112648218Y-97980847D01*
X112658446Y-98002471D01*
X112666504Y-98024993D01*
X112672316Y-98048197D01*
X112675826Y-98071858D01*
X112677000Y-98095750D01*
X112677000Y-99008250D01*
X112675826Y-99032142D01*
X112672316Y-99055803D01*
X112666504Y-99079007D01*
X112658446Y-99101529D01*
X112648218Y-99123153D01*
X112635921Y-99143670D01*
X112621671Y-99162883D01*
X112605607Y-99180607D01*
X112587883Y-99196671D01*
X112568670Y-99210921D01*
X112548153Y-99223218D01*
X112526529Y-99233446D01*
X112504007Y-99241504D01*
X112480803Y-99247316D01*
X112457142Y-99250826D01*
X112433250Y-99252000D01*
X111945750Y-99252000D01*
X111921858Y-99250826D01*
X111898197Y-99247316D01*
X111874993Y-99241504D01*
X111852471Y-99233446D01*
X111830847Y-99223218D01*
X111810330Y-99210921D01*
X111791117Y-99196671D01*
X111773393Y-99180607D01*
X111757329Y-99162883D01*
X111743079Y-99143670D01*
X111730782Y-99123153D01*
X111720554Y-99101529D01*
X111712496Y-99079007D01*
X111706684Y-99055803D01*
X111703174Y-99032142D01*
X111702000Y-99008250D01*
X111702000Y-98095750D01*
X111703174Y-98071858D01*
X111706684Y-98048197D01*
X111712496Y-98024993D01*
X111720554Y-98002471D01*
X111730782Y-97980847D01*
X111743079Y-97960330D01*
X111757329Y-97941117D01*
X111773393Y-97923393D01*
X111791117Y-97907329D01*
X111810330Y-97893079D01*
X111830847Y-97880782D01*
X111852471Y-97870554D01*
X111874993Y-97862496D01*
X111898197Y-97856684D01*
X111921858Y-97853174D01*
X111945750Y-97852000D01*
X112433250Y-97852000D01*
X112457142Y-97853174D01*
G37*
G36*
X121171642Y-100901174D02*
G01*
X121195303Y-100904684D01*
X121218507Y-100910496D01*
X121241029Y-100918554D01*
X121262653Y-100928782D01*
X121283170Y-100941079D01*
X121302383Y-100955329D01*
X121320107Y-100971393D01*
X121336171Y-100989117D01*
X121350421Y-101008330D01*
X121362718Y-101028847D01*
X121372946Y-101050471D01*
X121381004Y-101072993D01*
X121386816Y-101096197D01*
X121390326Y-101119858D01*
X121391500Y-101143750D01*
X121391500Y-102056250D01*
X121390326Y-102080142D01*
X121386816Y-102103803D01*
X121381004Y-102127007D01*
X121372946Y-102149529D01*
X121362718Y-102171153D01*
X121350421Y-102191670D01*
X121336171Y-102210883D01*
X121320107Y-102228607D01*
X121302383Y-102244671D01*
X121283170Y-102258921D01*
X121262653Y-102271218D01*
X121241029Y-102281446D01*
X121218507Y-102289504D01*
X121195303Y-102295316D01*
X121171642Y-102298826D01*
X121147750Y-102300000D01*
X120660250Y-102300000D01*
X120636358Y-102298826D01*
X120612697Y-102295316D01*
X120589493Y-102289504D01*
X120566971Y-102281446D01*
X120545347Y-102271218D01*
X120524830Y-102258921D01*
X120505617Y-102244671D01*
X120487893Y-102228607D01*
X120471829Y-102210883D01*
X120457579Y-102191670D01*
X120445282Y-102171153D01*
X120435054Y-102149529D01*
X120426996Y-102127007D01*
X120421184Y-102103803D01*
X120417674Y-102080142D01*
X120416500Y-102056250D01*
X120416500Y-101143750D01*
X120417674Y-101119858D01*
X120421184Y-101096197D01*
X120426996Y-101072993D01*
X120435054Y-101050471D01*
X120445282Y-101028847D01*
X120457579Y-101008330D01*
X120471829Y-100989117D01*
X120487893Y-100971393D01*
X120505617Y-100955329D01*
X120524830Y-100941079D01*
X120545347Y-100928782D01*
X120566971Y-100918554D01*
X120589493Y-100910496D01*
X120612697Y-100904684D01*
X120636358Y-100901174D01*
X120660250Y-100900000D01*
X121147750Y-100900000D01*
X121171642Y-100901174D01*
G37*
G36*
X123046642Y-100901174D02*
G01*
X123070303Y-100904684D01*
X123093507Y-100910496D01*
X123116029Y-100918554D01*
X123137653Y-100928782D01*
X123158170Y-100941079D01*
X123177383Y-100955329D01*
X123195107Y-100971393D01*
X123211171Y-100989117D01*
X123225421Y-101008330D01*
X123237718Y-101028847D01*
X123247946Y-101050471D01*
X123256004Y-101072993D01*
X123261816Y-101096197D01*
X123265326Y-101119858D01*
X123266500Y-101143750D01*
X123266500Y-102056250D01*
X123265326Y-102080142D01*
X123261816Y-102103803D01*
X123256004Y-102127007D01*
X123247946Y-102149529D01*
X123237718Y-102171153D01*
X123225421Y-102191670D01*
X123211171Y-102210883D01*
X123195107Y-102228607D01*
X123177383Y-102244671D01*
X123158170Y-102258921D01*
X123137653Y-102271218D01*
X123116029Y-102281446D01*
X123093507Y-102289504D01*
X123070303Y-102295316D01*
X123046642Y-102298826D01*
X123022750Y-102300000D01*
X122535250Y-102300000D01*
X122511358Y-102298826D01*
X122487697Y-102295316D01*
X122464493Y-102289504D01*
X122441971Y-102281446D01*
X122420347Y-102271218D01*
X122399830Y-102258921D01*
X122380617Y-102244671D01*
X122362893Y-102228607D01*
X122346829Y-102210883D01*
X122332579Y-102191670D01*
X122320282Y-102171153D01*
X122310054Y-102149529D01*
X122301996Y-102127007D01*
X122296184Y-102103803D01*
X122292674Y-102080142D01*
X122291500Y-102056250D01*
X122291500Y-101143750D01*
X122292674Y-101119858D01*
X122296184Y-101096197D01*
X122301996Y-101072993D01*
X122310054Y-101050471D01*
X122320282Y-101028847D01*
X122332579Y-101008330D01*
X122346829Y-100989117D01*
X122362893Y-100971393D01*
X122380617Y-100955329D01*
X122399830Y-100941079D01*
X122420347Y-100928782D01*
X122441971Y-100918554D01*
X122464493Y-100910496D01*
X122487697Y-100904684D01*
X122511358Y-100901174D01*
X122535250Y-100900000D01*
X123022750Y-100900000D01*
X123046642Y-100901174D01*
G37*
G36*
X123046642Y-97345174D02*
G01*
X123070303Y-97348684D01*
X123093507Y-97354496D01*
X123116029Y-97362554D01*
X123137653Y-97372782D01*
X123158170Y-97385079D01*
X123177383Y-97399329D01*
X123195107Y-97415393D01*
X123211171Y-97433117D01*
X123225421Y-97452330D01*
X123237718Y-97472847D01*
X123247946Y-97494471D01*
X123256004Y-97516993D01*
X123261816Y-97540197D01*
X123265326Y-97563858D01*
X123266500Y-97587750D01*
X123266500Y-98500250D01*
X123265326Y-98524142D01*
X123261816Y-98547803D01*
X123256004Y-98571007D01*
X123247946Y-98593529D01*
X123237718Y-98615153D01*
X123225421Y-98635670D01*
X123211171Y-98654883D01*
X123195107Y-98672607D01*
X123177383Y-98688671D01*
X123158170Y-98702921D01*
X123137653Y-98715218D01*
X123116029Y-98725446D01*
X123093507Y-98733504D01*
X123070303Y-98739316D01*
X123046642Y-98742826D01*
X123022750Y-98744000D01*
X122535250Y-98744000D01*
X122511358Y-98742826D01*
X122487697Y-98739316D01*
X122464493Y-98733504D01*
X122441971Y-98725446D01*
X122420347Y-98715218D01*
X122399830Y-98702921D01*
X122380617Y-98688671D01*
X122362893Y-98672607D01*
X122346829Y-98654883D01*
X122332579Y-98635670D01*
X122320282Y-98615153D01*
X122310054Y-98593529D01*
X122301996Y-98571007D01*
X122296184Y-98547803D01*
X122292674Y-98524142D01*
X122291500Y-98500250D01*
X122291500Y-97587750D01*
X122292674Y-97563858D01*
X122296184Y-97540197D01*
X122301996Y-97516993D01*
X122310054Y-97494471D01*
X122320282Y-97472847D01*
X122332579Y-97452330D01*
X122346829Y-97433117D01*
X122362893Y-97415393D01*
X122380617Y-97399329D01*
X122399830Y-97385079D01*
X122420347Y-97372782D01*
X122441971Y-97362554D01*
X122464493Y-97354496D01*
X122487697Y-97348684D01*
X122511358Y-97345174D01*
X122535250Y-97344000D01*
X123022750Y-97344000D01*
X123046642Y-97345174D01*
G37*
G36*
X121171642Y-97345174D02*
G01*
X121195303Y-97348684D01*
X121218507Y-97354496D01*
X121241029Y-97362554D01*
X121262653Y-97372782D01*
X121283170Y-97385079D01*
X121302383Y-97399329D01*
X121320107Y-97415393D01*
X121336171Y-97433117D01*
X121350421Y-97452330D01*
X121362718Y-97472847D01*
X121372946Y-97494471D01*
X121381004Y-97516993D01*
X121386816Y-97540197D01*
X121390326Y-97563858D01*
X121391500Y-97587750D01*
X121391500Y-98500250D01*
X121390326Y-98524142D01*
X121386816Y-98547803D01*
X121381004Y-98571007D01*
X121372946Y-98593529D01*
X121362718Y-98615153D01*
X121350421Y-98635670D01*
X121336171Y-98654883D01*
X121320107Y-98672607D01*
X121302383Y-98688671D01*
X121283170Y-98702921D01*
X121262653Y-98715218D01*
X121241029Y-98725446D01*
X121218507Y-98733504D01*
X121195303Y-98739316D01*
X121171642Y-98742826D01*
X121147750Y-98744000D01*
X120660250Y-98744000D01*
X120636358Y-98742826D01*
X120612697Y-98739316D01*
X120589493Y-98733504D01*
X120566971Y-98725446D01*
X120545347Y-98715218D01*
X120524830Y-98702921D01*
X120505617Y-98688671D01*
X120487893Y-98672607D01*
X120471829Y-98654883D01*
X120457579Y-98635670D01*
X120445282Y-98615153D01*
X120435054Y-98593529D01*
X120426996Y-98571007D01*
X120421184Y-98547803D01*
X120417674Y-98524142D01*
X120416500Y-98500250D01*
X120416500Y-97587750D01*
X120417674Y-97563858D01*
X120421184Y-97540197D01*
X120426996Y-97516993D01*
X120435054Y-97494471D01*
X120445282Y-97472847D01*
X120457579Y-97452330D01*
X120471829Y-97433117D01*
X120487893Y-97415393D01*
X120505617Y-97399329D01*
X120524830Y-97385079D01*
X120545347Y-97372782D01*
X120566971Y-97362554D01*
X120589493Y-97354496D01*
X120612697Y-97348684D01*
X120636358Y-97345174D01*
X120660250Y-97344000D01*
X121147750Y-97344000D01*
X121171642Y-97345174D01*
G37*
G36*
X121171642Y-93281174D02*
G01*
X121195303Y-93284684D01*
X121218507Y-93290496D01*
X121241029Y-93298554D01*
X121262653Y-93308782D01*
X121283170Y-93321079D01*
X121302383Y-93335329D01*
X121320107Y-93351393D01*
X121336171Y-93369117D01*
X121350421Y-93388330D01*
X121362718Y-93408847D01*
X121372946Y-93430471D01*
X121381004Y-93452993D01*
X121386816Y-93476197D01*
X121390326Y-93499858D01*
X121391500Y-93523750D01*
X121391500Y-94436250D01*
X121390326Y-94460142D01*
X121386816Y-94483803D01*
X121381004Y-94507007D01*
X121372946Y-94529529D01*
X121362718Y-94551153D01*
X121350421Y-94571670D01*
X121336171Y-94590883D01*
X121320107Y-94608607D01*
X121302383Y-94624671D01*
X121283170Y-94638921D01*
X121262653Y-94651218D01*
X121241029Y-94661446D01*
X121218507Y-94669504D01*
X121195303Y-94675316D01*
X121171642Y-94678826D01*
X121147750Y-94680000D01*
X120660250Y-94680000D01*
X120636358Y-94678826D01*
X120612697Y-94675316D01*
X120589493Y-94669504D01*
X120566971Y-94661446D01*
X120545347Y-94651218D01*
X120524830Y-94638921D01*
X120505617Y-94624671D01*
X120487893Y-94608607D01*
X120471829Y-94590883D01*
X120457579Y-94571670D01*
X120445282Y-94551153D01*
X120435054Y-94529529D01*
X120426996Y-94507007D01*
X120421184Y-94483803D01*
X120417674Y-94460142D01*
X120416500Y-94436250D01*
X120416500Y-93523750D01*
X120417674Y-93499858D01*
X120421184Y-93476197D01*
X120426996Y-93452993D01*
X120435054Y-93430471D01*
X120445282Y-93408847D01*
X120457579Y-93388330D01*
X120471829Y-93369117D01*
X120487893Y-93351393D01*
X120505617Y-93335329D01*
X120524830Y-93321079D01*
X120545347Y-93308782D01*
X120566971Y-93298554D01*
X120589493Y-93290496D01*
X120612697Y-93284684D01*
X120636358Y-93281174D01*
X120660250Y-93280000D01*
X121147750Y-93280000D01*
X121171642Y-93281174D01*
G37*
G36*
X123046642Y-93281174D02*
G01*
X123070303Y-93284684D01*
X123093507Y-93290496D01*
X123116029Y-93298554D01*
X123137653Y-93308782D01*
X123158170Y-93321079D01*
X123177383Y-93335329D01*
X123195107Y-93351393D01*
X123211171Y-93369117D01*
X123225421Y-93388330D01*
X123237718Y-93408847D01*
X123247946Y-93430471D01*
X123256004Y-93452993D01*
X123261816Y-93476197D01*
X123265326Y-93499858D01*
X123266500Y-93523750D01*
X123266500Y-94436250D01*
X123265326Y-94460142D01*
X123261816Y-94483803D01*
X123256004Y-94507007D01*
X123247946Y-94529529D01*
X123237718Y-94551153D01*
X123225421Y-94571670D01*
X123211171Y-94590883D01*
X123195107Y-94608607D01*
X123177383Y-94624671D01*
X123158170Y-94638921D01*
X123137653Y-94651218D01*
X123116029Y-94661446D01*
X123093507Y-94669504D01*
X123070303Y-94675316D01*
X123046642Y-94678826D01*
X123022750Y-94680000D01*
X122535250Y-94680000D01*
X122511358Y-94678826D01*
X122487697Y-94675316D01*
X122464493Y-94669504D01*
X122441971Y-94661446D01*
X122420347Y-94651218D01*
X122399830Y-94638921D01*
X122380617Y-94624671D01*
X122362893Y-94608607D01*
X122346829Y-94590883D01*
X122332579Y-94571670D01*
X122320282Y-94551153D01*
X122310054Y-94529529D01*
X122301996Y-94507007D01*
X122296184Y-94483803D01*
X122292674Y-94460142D01*
X122291500Y-94436250D01*
X122291500Y-93523750D01*
X122292674Y-93499858D01*
X122296184Y-93476197D01*
X122301996Y-93452993D01*
X122310054Y-93430471D01*
X122320282Y-93408847D01*
X122332579Y-93388330D01*
X122346829Y-93369117D01*
X122362893Y-93351393D01*
X122380617Y-93335329D01*
X122399830Y-93321079D01*
X122420347Y-93308782D01*
X122441971Y-93298554D01*
X122464493Y-93290496D01*
X122487697Y-93284684D01*
X122511358Y-93281174D01*
X122535250Y-93280000D01*
X123022750Y-93280000D01*
X123046642Y-93281174D01*
G37*
G36*
X124884642Y-99377174D02*
G01*
X124908303Y-99380684D01*
X124931507Y-99386496D01*
X124954029Y-99394554D01*
X124975653Y-99404782D01*
X124996170Y-99417079D01*
X125015383Y-99431329D01*
X125033107Y-99447393D01*
X125049171Y-99465117D01*
X125063421Y-99484330D01*
X125075718Y-99504847D01*
X125085946Y-99526471D01*
X125094004Y-99548993D01*
X125099816Y-99572197D01*
X125103326Y-99595858D01*
X125104500Y-99619750D01*
X125104500Y-100532250D01*
X125103326Y-100556142D01*
X125099816Y-100579803D01*
X125094004Y-100603007D01*
X125085946Y-100625529D01*
X125075718Y-100647153D01*
X125063421Y-100667670D01*
X125049171Y-100686883D01*
X125033107Y-100704607D01*
X125015383Y-100720671D01*
X124996170Y-100734921D01*
X124975653Y-100747218D01*
X124954029Y-100757446D01*
X124931507Y-100765504D01*
X124908303Y-100771316D01*
X124884642Y-100774826D01*
X124860750Y-100776000D01*
X124373250Y-100776000D01*
X124349358Y-100774826D01*
X124325697Y-100771316D01*
X124302493Y-100765504D01*
X124279971Y-100757446D01*
X124258347Y-100747218D01*
X124237830Y-100734921D01*
X124218617Y-100720671D01*
X124200893Y-100704607D01*
X124184829Y-100686883D01*
X124170579Y-100667670D01*
X124158282Y-100647153D01*
X124148054Y-100625529D01*
X124139996Y-100603007D01*
X124134184Y-100579803D01*
X124130674Y-100556142D01*
X124129500Y-100532250D01*
X124129500Y-99619750D01*
X124130674Y-99595858D01*
X124134184Y-99572197D01*
X124139996Y-99548993D01*
X124148054Y-99526471D01*
X124158282Y-99504847D01*
X124170579Y-99484330D01*
X124184829Y-99465117D01*
X124200893Y-99447393D01*
X124218617Y-99431329D01*
X124237830Y-99417079D01*
X124258347Y-99404782D01*
X124279971Y-99394554D01*
X124302493Y-99386496D01*
X124325697Y-99380684D01*
X124349358Y-99377174D01*
X124373250Y-99376000D01*
X124860750Y-99376000D01*
X124884642Y-99377174D01*
G37*
G36*
X126759642Y-99377174D02*
G01*
X126783303Y-99380684D01*
X126806507Y-99386496D01*
X126829029Y-99394554D01*
X126850653Y-99404782D01*
X126871170Y-99417079D01*
X126890383Y-99431329D01*
X126908107Y-99447393D01*
X126924171Y-99465117D01*
X126938421Y-99484330D01*
X126950718Y-99504847D01*
X126960946Y-99526471D01*
X126969004Y-99548993D01*
X126974816Y-99572197D01*
X126978326Y-99595858D01*
X126979500Y-99619750D01*
X126979500Y-100532250D01*
X126978326Y-100556142D01*
X126974816Y-100579803D01*
X126969004Y-100603007D01*
X126960946Y-100625529D01*
X126950718Y-100647153D01*
X126938421Y-100667670D01*
X126924171Y-100686883D01*
X126908107Y-100704607D01*
X126890383Y-100720671D01*
X126871170Y-100734921D01*
X126850653Y-100747218D01*
X126829029Y-100757446D01*
X126806507Y-100765504D01*
X126783303Y-100771316D01*
X126759642Y-100774826D01*
X126735750Y-100776000D01*
X126248250Y-100776000D01*
X126224358Y-100774826D01*
X126200697Y-100771316D01*
X126177493Y-100765504D01*
X126154971Y-100757446D01*
X126133347Y-100747218D01*
X126112830Y-100734921D01*
X126093617Y-100720671D01*
X126075893Y-100704607D01*
X126059829Y-100686883D01*
X126045579Y-100667670D01*
X126033282Y-100647153D01*
X126023054Y-100625529D01*
X126014996Y-100603007D01*
X126009184Y-100579803D01*
X126005674Y-100556142D01*
X126004500Y-100532250D01*
X126004500Y-99619750D01*
X126005674Y-99595858D01*
X126009184Y-99572197D01*
X126014996Y-99548993D01*
X126023054Y-99526471D01*
X126033282Y-99504847D01*
X126045579Y-99484330D01*
X126059829Y-99465117D01*
X126075893Y-99447393D01*
X126093617Y-99431329D01*
X126112830Y-99417079D01*
X126133347Y-99404782D01*
X126154971Y-99394554D01*
X126177493Y-99386496D01*
X126200697Y-99380684D01*
X126224358Y-99377174D01*
X126248250Y-99376000D01*
X126735750Y-99376000D01*
X126759642Y-99377174D01*
G37*
G36*
X124806142Y-95313174D02*
G01*
X124829803Y-95316684D01*
X124853007Y-95322496D01*
X124875529Y-95330554D01*
X124897153Y-95340782D01*
X124917670Y-95353079D01*
X124936883Y-95367329D01*
X124954607Y-95383393D01*
X124970671Y-95401117D01*
X124984921Y-95420330D01*
X124997218Y-95440847D01*
X125007446Y-95462471D01*
X125015504Y-95484993D01*
X125021316Y-95508197D01*
X125024826Y-95531858D01*
X125026000Y-95555750D01*
X125026000Y-96468250D01*
X125024826Y-96492142D01*
X125021316Y-96515803D01*
X125015504Y-96539007D01*
X125007446Y-96561529D01*
X124997218Y-96583153D01*
X124984921Y-96603670D01*
X124970671Y-96622883D01*
X124954607Y-96640607D01*
X124936883Y-96656671D01*
X124917670Y-96670921D01*
X124897153Y-96683218D01*
X124875529Y-96693446D01*
X124853007Y-96701504D01*
X124829803Y-96707316D01*
X124806142Y-96710826D01*
X124782250Y-96712000D01*
X124294750Y-96712000D01*
X124270858Y-96710826D01*
X124247197Y-96707316D01*
X124223993Y-96701504D01*
X124201471Y-96693446D01*
X124179847Y-96683218D01*
X124159330Y-96670921D01*
X124140117Y-96656671D01*
X124122393Y-96640607D01*
X124106329Y-96622883D01*
X124092079Y-96603670D01*
X124079782Y-96583153D01*
X124069554Y-96561529D01*
X124061496Y-96539007D01*
X124055684Y-96515803D01*
X124052174Y-96492142D01*
X124051000Y-96468250D01*
X124051000Y-95555750D01*
X124052174Y-95531858D01*
X124055684Y-95508197D01*
X124061496Y-95484993D01*
X124069554Y-95462471D01*
X124079782Y-95440847D01*
X124092079Y-95420330D01*
X124106329Y-95401117D01*
X124122393Y-95383393D01*
X124140117Y-95367329D01*
X124159330Y-95353079D01*
X124179847Y-95340782D01*
X124201471Y-95330554D01*
X124223993Y-95322496D01*
X124247197Y-95316684D01*
X124270858Y-95313174D01*
X124294750Y-95312000D01*
X124782250Y-95312000D01*
X124806142Y-95313174D01*
G37*
G36*
X126681142Y-95313174D02*
G01*
X126704803Y-95316684D01*
X126728007Y-95322496D01*
X126750529Y-95330554D01*
X126772153Y-95340782D01*
X126792670Y-95353079D01*
X126811883Y-95367329D01*
X126829607Y-95383393D01*
X126845671Y-95401117D01*
X126859921Y-95420330D01*
X126872218Y-95440847D01*
X126882446Y-95462471D01*
X126890504Y-95484993D01*
X126896316Y-95508197D01*
X126899826Y-95531858D01*
X126901000Y-95555750D01*
X126901000Y-96468250D01*
X126899826Y-96492142D01*
X126896316Y-96515803D01*
X126890504Y-96539007D01*
X126882446Y-96561529D01*
X126872218Y-96583153D01*
X126859921Y-96603670D01*
X126845671Y-96622883D01*
X126829607Y-96640607D01*
X126811883Y-96656671D01*
X126792670Y-96670921D01*
X126772153Y-96683218D01*
X126750529Y-96693446D01*
X126728007Y-96701504D01*
X126704803Y-96707316D01*
X126681142Y-96710826D01*
X126657250Y-96712000D01*
X126169750Y-96712000D01*
X126145858Y-96710826D01*
X126122197Y-96707316D01*
X126098993Y-96701504D01*
X126076471Y-96693446D01*
X126054847Y-96683218D01*
X126034330Y-96670921D01*
X126015117Y-96656671D01*
X125997393Y-96640607D01*
X125981329Y-96622883D01*
X125967079Y-96603670D01*
X125954782Y-96583153D01*
X125944554Y-96561529D01*
X125936496Y-96539007D01*
X125930684Y-96515803D01*
X125927174Y-96492142D01*
X125926000Y-96468250D01*
X125926000Y-95555750D01*
X125927174Y-95531858D01*
X125930684Y-95508197D01*
X125936496Y-95484993D01*
X125944554Y-95462471D01*
X125954782Y-95440847D01*
X125967079Y-95420330D01*
X125981329Y-95401117D01*
X125997393Y-95383393D01*
X126015117Y-95367329D01*
X126034330Y-95353079D01*
X126054847Y-95340782D01*
X126076471Y-95330554D01*
X126098993Y-95322496D01*
X126122197Y-95316684D01*
X126145858Y-95313174D01*
X126169750Y-95312000D01*
X126657250Y-95312000D01*
X126681142Y-95313174D01*
G37*
G36*
X124727642Y-91249174D02*
G01*
X124751303Y-91252684D01*
X124774507Y-91258496D01*
X124797029Y-91266554D01*
X124818653Y-91276782D01*
X124839170Y-91289079D01*
X124858383Y-91303329D01*
X124876107Y-91319393D01*
X124892171Y-91337117D01*
X124906421Y-91356330D01*
X124918718Y-91376847D01*
X124928946Y-91398471D01*
X124937004Y-91420993D01*
X124942816Y-91444197D01*
X124946326Y-91467858D01*
X124947500Y-91491750D01*
X124947500Y-92404250D01*
X124946326Y-92428142D01*
X124942816Y-92451803D01*
X124937004Y-92475007D01*
X124928946Y-92497529D01*
X124918718Y-92519153D01*
X124906421Y-92539670D01*
X124892171Y-92558883D01*
X124876107Y-92576607D01*
X124858383Y-92592671D01*
X124839170Y-92606921D01*
X124818653Y-92619218D01*
X124797029Y-92629446D01*
X124774507Y-92637504D01*
X124751303Y-92643316D01*
X124727642Y-92646826D01*
X124703750Y-92648000D01*
X124216250Y-92648000D01*
X124192358Y-92646826D01*
X124168697Y-92643316D01*
X124145493Y-92637504D01*
X124122971Y-92629446D01*
X124101347Y-92619218D01*
X124080830Y-92606921D01*
X124061617Y-92592671D01*
X124043893Y-92576607D01*
X124027829Y-92558883D01*
X124013579Y-92539670D01*
X124001282Y-92519153D01*
X123991054Y-92497529D01*
X123982996Y-92475007D01*
X123977184Y-92451803D01*
X123973674Y-92428142D01*
X123972500Y-92404250D01*
X123972500Y-91491750D01*
X123973674Y-91467858D01*
X123977184Y-91444197D01*
X123982996Y-91420993D01*
X123991054Y-91398471D01*
X124001282Y-91376847D01*
X124013579Y-91356330D01*
X124027829Y-91337117D01*
X124043893Y-91319393D01*
X124061617Y-91303329D01*
X124080830Y-91289079D01*
X124101347Y-91276782D01*
X124122971Y-91266554D01*
X124145493Y-91258496D01*
X124168697Y-91252684D01*
X124192358Y-91249174D01*
X124216250Y-91248000D01*
X124703750Y-91248000D01*
X124727642Y-91249174D01*
G37*
G36*
X126602642Y-91249174D02*
G01*
X126626303Y-91252684D01*
X126649507Y-91258496D01*
X126672029Y-91266554D01*
X126693653Y-91276782D01*
X126714170Y-91289079D01*
X126733383Y-91303329D01*
X126751107Y-91319393D01*
X126767171Y-91337117D01*
X126781421Y-91356330D01*
X126793718Y-91376847D01*
X126803946Y-91398471D01*
X126812004Y-91420993D01*
X126817816Y-91444197D01*
X126821326Y-91467858D01*
X126822500Y-91491750D01*
X126822500Y-92404250D01*
X126821326Y-92428142D01*
X126817816Y-92451803D01*
X126812004Y-92475007D01*
X126803946Y-92497529D01*
X126793718Y-92519153D01*
X126781421Y-92539670D01*
X126767171Y-92558883D01*
X126751107Y-92576607D01*
X126733383Y-92592671D01*
X126714170Y-92606921D01*
X126693653Y-92619218D01*
X126672029Y-92629446D01*
X126649507Y-92637504D01*
X126626303Y-92643316D01*
X126602642Y-92646826D01*
X126578750Y-92648000D01*
X126091250Y-92648000D01*
X126067358Y-92646826D01*
X126043697Y-92643316D01*
X126020493Y-92637504D01*
X125997971Y-92629446D01*
X125976347Y-92619218D01*
X125955830Y-92606921D01*
X125936617Y-92592671D01*
X125918893Y-92576607D01*
X125902829Y-92558883D01*
X125888579Y-92539670D01*
X125876282Y-92519153D01*
X125866054Y-92497529D01*
X125857996Y-92475007D01*
X125852184Y-92451803D01*
X125848674Y-92428142D01*
X125847500Y-92404250D01*
X125847500Y-91491750D01*
X125848674Y-91467858D01*
X125852184Y-91444197D01*
X125857996Y-91420993D01*
X125866054Y-91398471D01*
X125876282Y-91376847D01*
X125888579Y-91356330D01*
X125902829Y-91337117D01*
X125918893Y-91319393D01*
X125936617Y-91303329D01*
X125955830Y-91289079D01*
X125976347Y-91276782D01*
X125997971Y-91266554D01*
X126020493Y-91258496D01*
X126043697Y-91252684D01*
X126067358Y-91249174D01*
X126091250Y-91248000D01*
X126578750Y-91248000D01*
X126602642Y-91249174D01*
G37*
G36*
X133068142Y-106544674D02*
G01*
X133091803Y-106548184D01*
X133115007Y-106553996D01*
X133137529Y-106562054D01*
X133159153Y-106572282D01*
X133179670Y-106584579D01*
X133198883Y-106598829D01*
X133216607Y-106614893D01*
X133232671Y-106632617D01*
X133246921Y-106651830D01*
X133259218Y-106672347D01*
X133269446Y-106693971D01*
X133277504Y-106716493D01*
X133283316Y-106739697D01*
X133286826Y-106763358D01*
X133288000Y-106787250D01*
X133288000Y-107274750D01*
X133286826Y-107298642D01*
X133283316Y-107322303D01*
X133277504Y-107345507D01*
X133269446Y-107368029D01*
X133259218Y-107389653D01*
X133246921Y-107410170D01*
X133232671Y-107429383D01*
X133216607Y-107447107D01*
X133198883Y-107463171D01*
X133179670Y-107477421D01*
X133159153Y-107489718D01*
X133137529Y-107499946D01*
X133115007Y-107508004D01*
X133091803Y-107513816D01*
X133068142Y-107517326D01*
X133044250Y-107518500D01*
X132131750Y-107518500D01*
X132107858Y-107517326D01*
X132084197Y-107513816D01*
X132060993Y-107508004D01*
X132038471Y-107499946D01*
X132016847Y-107489718D01*
X131996330Y-107477421D01*
X131977117Y-107463171D01*
X131959393Y-107447107D01*
X131943329Y-107429383D01*
X131929079Y-107410170D01*
X131916782Y-107389653D01*
X131906554Y-107368029D01*
X131898496Y-107345507D01*
X131892684Y-107322303D01*
X131889174Y-107298642D01*
X131888000Y-107274750D01*
X131888000Y-106787250D01*
X131889174Y-106763358D01*
X131892684Y-106739697D01*
X131898496Y-106716493D01*
X131906554Y-106693971D01*
X131916782Y-106672347D01*
X131929079Y-106651830D01*
X131943329Y-106632617D01*
X131959393Y-106614893D01*
X131977117Y-106598829D01*
X131996330Y-106584579D01*
X132016847Y-106572282D01*
X132038471Y-106562054D01*
X132060993Y-106553996D01*
X132084197Y-106548184D01*
X132107858Y-106544674D01*
X132131750Y-106543500D01*
X133044250Y-106543500D01*
X133068142Y-106544674D01*
G37*
G36*
X133068142Y-104669674D02*
G01*
X133091803Y-104673184D01*
X133115007Y-104678996D01*
X133137529Y-104687054D01*
X133159153Y-104697282D01*
X133179670Y-104709579D01*
X133198883Y-104723829D01*
X133216607Y-104739893D01*
X133232671Y-104757617D01*
X133246921Y-104776830D01*
X133259218Y-104797347D01*
X133269446Y-104818971D01*
X133277504Y-104841493D01*
X133283316Y-104864697D01*
X133286826Y-104888358D01*
X133288000Y-104912250D01*
X133288000Y-105399750D01*
X133286826Y-105423642D01*
X133283316Y-105447303D01*
X133277504Y-105470507D01*
X133269446Y-105493029D01*
X133259218Y-105514653D01*
X133246921Y-105535170D01*
X133232671Y-105554383D01*
X133216607Y-105572107D01*
X133198883Y-105588171D01*
X133179670Y-105602421D01*
X133159153Y-105614718D01*
X133137529Y-105624946D01*
X133115007Y-105633004D01*
X133091803Y-105638816D01*
X133068142Y-105642326D01*
X133044250Y-105643500D01*
X132131750Y-105643500D01*
X132107858Y-105642326D01*
X132084197Y-105638816D01*
X132060993Y-105633004D01*
X132038471Y-105624946D01*
X132016847Y-105614718D01*
X131996330Y-105602421D01*
X131977117Y-105588171D01*
X131959393Y-105572107D01*
X131943329Y-105554383D01*
X131929079Y-105535170D01*
X131916782Y-105514653D01*
X131906554Y-105493029D01*
X131898496Y-105470507D01*
X131892684Y-105447303D01*
X131889174Y-105423642D01*
X131888000Y-105399750D01*
X131888000Y-104912250D01*
X131889174Y-104888358D01*
X131892684Y-104864697D01*
X131898496Y-104841493D01*
X131906554Y-104818971D01*
X131916782Y-104797347D01*
X131929079Y-104776830D01*
X131943329Y-104757617D01*
X131959393Y-104739893D01*
X131977117Y-104723829D01*
X131996330Y-104709579D01*
X132016847Y-104697282D01*
X132038471Y-104687054D01*
X132060993Y-104678996D01*
X132084197Y-104673184D01*
X132107858Y-104669674D01*
X132131750Y-104668500D01*
X133044250Y-104668500D01*
X133068142Y-104669674D01*
G37*
G36*
X128496142Y-106701674D02*
G01*
X128519803Y-106705184D01*
X128543007Y-106710996D01*
X128565529Y-106719054D01*
X128587153Y-106729282D01*
X128607670Y-106741579D01*
X128626883Y-106755829D01*
X128644607Y-106771893D01*
X128660671Y-106789617D01*
X128674921Y-106808830D01*
X128687218Y-106829347D01*
X128697446Y-106850971D01*
X128705504Y-106873493D01*
X128711316Y-106896697D01*
X128714826Y-106920358D01*
X128716000Y-106944250D01*
X128716000Y-107431750D01*
X128714826Y-107455642D01*
X128711316Y-107479303D01*
X128705504Y-107502507D01*
X128697446Y-107525029D01*
X128687218Y-107546653D01*
X128674921Y-107567170D01*
X128660671Y-107586383D01*
X128644607Y-107604107D01*
X128626883Y-107620171D01*
X128607670Y-107634421D01*
X128587153Y-107646718D01*
X128565529Y-107656946D01*
X128543007Y-107665004D01*
X128519803Y-107670816D01*
X128496142Y-107674326D01*
X128472250Y-107675500D01*
X127559750Y-107675500D01*
X127535858Y-107674326D01*
X127512197Y-107670816D01*
X127488993Y-107665004D01*
X127466471Y-107656946D01*
X127444847Y-107646718D01*
X127424330Y-107634421D01*
X127405117Y-107620171D01*
X127387393Y-107604107D01*
X127371329Y-107586383D01*
X127357079Y-107567170D01*
X127344782Y-107546653D01*
X127334554Y-107525029D01*
X127326496Y-107502507D01*
X127320684Y-107479303D01*
X127317174Y-107455642D01*
X127316000Y-107431750D01*
X127316000Y-106944250D01*
X127317174Y-106920358D01*
X127320684Y-106896697D01*
X127326496Y-106873493D01*
X127334554Y-106850971D01*
X127344782Y-106829347D01*
X127357079Y-106808830D01*
X127371329Y-106789617D01*
X127387393Y-106771893D01*
X127405117Y-106755829D01*
X127424330Y-106741579D01*
X127444847Y-106729282D01*
X127466471Y-106719054D01*
X127488993Y-106710996D01*
X127512197Y-106705184D01*
X127535858Y-106701674D01*
X127559750Y-106700500D01*
X128472250Y-106700500D01*
X128496142Y-106701674D01*
G37*
G36*
X128496142Y-104826674D02*
G01*
X128519803Y-104830184D01*
X128543007Y-104835996D01*
X128565529Y-104844054D01*
X128587153Y-104854282D01*
X128607670Y-104866579D01*
X128626883Y-104880829D01*
X128644607Y-104896893D01*
X128660671Y-104914617D01*
X128674921Y-104933830D01*
X128687218Y-104954347D01*
X128697446Y-104975971D01*
X128705504Y-104998493D01*
X128711316Y-105021697D01*
X128714826Y-105045358D01*
X128716000Y-105069250D01*
X128716000Y-105556750D01*
X128714826Y-105580642D01*
X128711316Y-105604303D01*
X128705504Y-105627507D01*
X128697446Y-105650029D01*
X128687218Y-105671653D01*
X128674921Y-105692170D01*
X128660671Y-105711383D01*
X128644607Y-105729107D01*
X128626883Y-105745171D01*
X128607670Y-105759421D01*
X128587153Y-105771718D01*
X128565529Y-105781946D01*
X128543007Y-105790004D01*
X128519803Y-105795816D01*
X128496142Y-105799326D01*
X128472250Y-105800500D01*
X127559750Y-105800500D01*
X127535858Y-105799326D01*
X127512197Y-105795816D01*
X127488993Y-105790004D01*
X127466471Y-105781946D01*
X127444847Y-105771718D01*
X127424330Y-105759421D01*
X127405117Y-105745171D01*
X127387393Y-105729107D01*
X127371329Y-105711383D01*
X127357079Y-105692170D01*
X127344782Y-105671653D01*
X127334554Y-105650029D01*
X127326496Y-105627507D01*
X127320684Y-105604303D01*
X127317174Y-105580642D01*
X127316000Y-105556750D01*
X127316000Y-105069250D01*
X127317174Y-105045358D01*
X127320684Y-105021697D01*
X127326496Y-104998493D01*
X127334554Y-104975971D01*
X127344782Y-104954347D01*
X127357079Y-104933830D01*
X127371329Y-104914617D01*
X127387393Y-104896893D01*
X127405117Y-104880829D01*
X127424330Y-104866579D01*
X127444847Y-104854282D01*
X127466471Y-104844054D01*
X127488993Y-104835996D01*
X127512197Y-104830184D01*
X127535858Y-104826674D01*
X127559750Y-104825500D01*
X128472250Y-104825500D01*
X128496142Y-104826674D01*
G37*
G36*
X125956142Y-108304174D02*
G01*
X125979803Y-108307684D01*
X126003007Y-108313496D01*
X126025529Y-108321554D01*
X126047153Y-108331782D01*
X126067670Y-108344079D01*
X126086883Y-108358329D01*
X126104607Y-108374393D01*
X126120671Y-108392117D01*
X126134921Y-108411330D01*
X126147218Y-108431847D01*
X126157446Y-108453471D01*
X126165504Y-108475993D01*
X126171316Y-108499197D01*
X126174826Y-108522858D01*
X126176000Y-108546750D01*
X126176000Y-109034250D01*
X126174826Y-109058142D01*
X126171316Y-109081803D01*
X126165504Y-109105007D01*
X126157446Y-109127529D01*
X126147218Y-109149153D01*
X126134921Y-109169670D01*
X126120671Y-109188883D01*
X126104607Y-109206607D01*
X126086883Y-109222671D01*
X126067670Y-109236921D01*
X126047153Y-109249218D01*
X126025529Y-109259446D01*
X126003007Y-109267504D01*
X125979803Y-109273316D01*
X125956142Y-109276826D01*
X125932250Y-109278000D01*
X125019750Y-109278000D01*
X124995858Y-109276826D01*
X124972197Y-109273316D01*
X124948993Y-109267504D01*
X124926471Y-109259446D01*
X124904847Y-109249218D01*
X124884330Y-109236921D01*
X124865117Y-109222671D01*
X124847393Y-109206607D01*
X124831329Y-109188883D01*
X124817079Y-109169670D01*
X124804782Y-109149153D01*
X124794554Y-109127529D01*
X124786496Y-109105007D01*
X124780684Y-109081803D01*
X124777174Y-109058142D01*
X124776000Y-109034250D01*
X124776000Y-108546750D01*
X124777174Y-108522858D01*
X124780684Y-108499197D01*
X124786496Y-108475993D01*
X124794554Y-108453471D01*
X124804782Y-108431847D01*
X124817079Y-108411330D01*
X124831329Y-108392117D01*
X124847393Y-108374393D01*
X124865117Y-108358329D01*
X124884330Y-108344079D01*
X124904847Y-108331782D01*
X124926471Y-108321554D01*
X124948993Y-108313496D01*
X124972197Y-108307684D01*
X124995858Y-108304174D01*
X125019750Y-108303000D01*
X125932250Y-108303000D01*
X125956142Y-108304174D01*
G37*
G36*
X125956142Y-110179174D02*
G01*
X125979803Y-110182684D01*
X126003007Y-110188496D01*
X126025529Y-110196554D01*
X126047153Y-110206782D01*
X126067670Y-110219079D01*
X126086883Y-110233329D01*
X126104607Y-110249393D01*
X126120671Y-110267117D01*
X126134921Y-110286330D01*
X126147218Y-110306847D01*
X126157446Y-110328471D01*
X126165504Y-110350993D01*
X126171316Y-110374197D01*
X126174826Y-110397858D01*
X126176000Y-110421750D01*
X126176000Y-110909250D01*
X126174826Y-110933142D01*
X126171316Y-110956803D01*
X126165504Y-110980007D01*
X126157446Y-111002529D01*
X126147218Y-111024153D01*
X126134921Y-111044670D01*
X126120671Y-111063883D01*
X126104607Y-111081607D01*
X126086883Y-111097671D01*
X126067670Y-111111921D01*
X126047153Y-111124218D01*
X126025529Y-111134446D01*
X126003007Y-111142504D01*
X125979803Y-111148316D01*
X125956142Y-111151826D01*
X125932250Y-111153000D01*
X125019750Y-111153000D01*
X124995858Y-111151826D01*
X124972197Y-111148316D01*
X124948993Y-111142504D01*
X124926471Y-111134446D01*
X124904847Y-111124218D01*
X124884330Y-111111921D01*
X124865117Y-111097671D01*
X124847393Y-111081607D01*
X124831329Y-111063883D01*
X124817079Y-111044670D01*
X124804782Y-111024153D01*
X124794554Y-111002529D01*
X124786496Y-110980007D01*
X124780684Y-110956803D01*
X124777174Y-110933142D01*
X124776000Y-110909250D01*
X124776000Y-110421750D01*
X124777174Y-110397858D01*
X124780684Y-110374197D01*
X124786496Y-110350993D01*
X124794554Y-110328471D01*
X124804782Y-110306847D01*
X124817079Y-110286330D01*
X124831329Y-110267117D01*
X124847393Y-110249393D01*
X124865117Y-110233329D01*
X124884330Y-110219079D01*
X124904847Y-110206782D01*
X124926471Y-110196554D01*
X124948993Y-110188496D01*
X124972197Y-110182684D01*
X124995858Y-110179174D01*
X125019750Y-110178000D01*
X125932250Y-110178000D01*
X125956142Y-110179174D01*
G37*
G36*
X125956142Y-106623174D02*
G01*
X125979803Y-106626684D01*
X126003007Y-106632496D01*
X126025529Y-106640554D01*
X126047153Y-106650782D01*
X126067670Y-106663079D01*
X126086883Y-106677329D01*
X126104607Y-106693393D01*
X126120671Y-106711117D01*
X126134921Y-106730330D01*
X126147218Y-106750847D01*
X126157446Y-106772471D01*
X126165504Y-106794993D01*
X126171316Y-106818197D01*
X126174826Y-106841858D01*
X126176000Y-106865750D01*
X126176000Y-107353250D01*
X126174826Y-107377142D01*
X126171316Y-107400803D01*
X126165504Y-107424007D01*
X126157446Y-107446529D01*
X126147218Y-107468153D01*
X126134921Y-107488670D01*
X126120671Y-107507883D01*
X126104607Y-107525607D01*
X126086883Y-107541671D01*
X126067670Y-107555921D01*
X126047153Y-107568218D01*
X126025529Y-107578446D01*
X126003007Y-107586504D01*
X125979803Y-107592316D01*
X125956142Y-107595826D01*
X125932250Y-107597000D01*
X125019750Y-107597000D01*
X124995858Y-107595826D01*
X124972197Y-107592316D01*
X124948993Y-107586504D01*
X124926471Y-107578446D01*
X124904847Y-107568218D01*
X124884330Y-107555921D01*
X124865117Y-107541671D01*
X124847393Y-107525607D01*
X124831329Y-107507883D01*
X124817079Y-107488670D01*
X124804782Y-107468153D01*
X124794554Y-107446529D01*
X124786496Y-107424007D01*
X124780684Y-107400803D01*
X124777174Y-107377142D01*
X124776000Y-107353250D01*
X124776000Y-106865750D01*
X124777174Y-106841858D01*
X124780684Y-106818197D01*
X124786496Y-106794993D01*
X124794554Y-106772471D01*
X124804782Y-106750847D01*
X124817079Y-106730330D01*
X124831329Y-106711117D01*
X124847393Y-106693393D01*
X124865117Y-106677329D01*
X124884330Y-106663079D01*
X124904847Y-106650782D01*
X124926471Y-106640554D01*
X124948993Y-106632496D01*
X124972197Y-106626684D01*
X124995858Y-106623174D01*
X125019750Y-106622000D01*
X125932250Y-106622000D01*
X125956142Y-106623174D01*
G37*
G36*
X125956142Y-104748174D02*
G01*
X125979803Y-104751684D01*
X126003007Y-104757496D01*
X126025529Y-104765554D01*
X126047153Y-104775782D01*
X126067670Y-104788079D01*
X126086883Y-104802329D01*
X126104607Y-104818393D01*
X126120671Y-104836117D01*
X126134921Y-104855330D01*
X126147218Y-104875847D01*
X126157446Y-104897471D01*
X126165504Y-104919993D01*
X126171316Y-104943197D01*
X126174826Y-104966858D01*
X126176000Y-104990750D01*
X126176000Y-105478250D01*
X126174826Y-105502142D01*
X126171316Y-105525803D01*
X126165504Y-105549007D01*
X126157446Y-105571529D01*
X126147218Y-105593153D01*
X126134921Y-105613670D01*
X126120671Y-105632883D01*
X126104607Y-105650607D01*
X126086883Y-105666671D01*
X126067670Y-105680921D01*
X126047153Y-105693218D01*
X126025529Y-105703446D01*
X126003007Y-105711504D01*
X125979803Y-105717316D01*
X125956142Y-105720826D01*
X125932250Y-105722000D01*
X125019750Y-105722000D01*
X124995858Y-105720826D01*
X124972197Y-105717316D01*
X124948993Y-105711504D01*
X124926471Y-105703446D01*
X124904847Y-105693218D01*
X124884330Y-105680921D01*
X124865117Y-105666671D01*
X124847393Y-105650607D01*
X124831329Y-105632883D01*
X124817079Y-105613670D01*
X124804782Y-105593153D01*
X124794554Y-105571529D01*
X124786496Y-105549007D01*
X124780684Y-105525803D01*
X124777174Y-105502142D01*
X124776000Y-105478250D01*
X124776000Y-104990750D01*
X124777174Y-104966858D01*
X124780684Y-104943197D01*
X124786496Y-104919993D01*
X124794554Y-104897471D01*
X124804782Y-104875847D01*
X124817079Y-104855330D01*
X124831329Y-104836117D01*
X124847393Y-104818393D01*
X124865117Y-104802329D01*
X124884330Y-104788079D01*
X124904847Y-104775782D01*
X124926471Y-104765554D01*
X124948993Y-104757496D01*
X124972197Y-104751684D01*
X124995858Y-104748174D01*
X125019750Y-104747000D01*
X125932250Y-104747000D01*
X125956142Y-104748174D01*
G37*
G36*
X124376642Y-113601174D02*
G01*
X124400303Y-113604684D01*
X124423507Y-113610496D01*
X124446029Y-113618554D01*
X124467653Y-113628782D01*
X124488170Y-113641079D01*
X124507383Y-113655329D01*
X124525107Y-113671393D01*
X124541171Y-113689117D01*
X124555421Y-113708330D01*
X124567718Y-113728847D01*
X124577946Y-113750471D01*
X124586004Y-113772993D01*
X124591816Y-113796197D01*
X124595326Y-113819858D01*
X124596500Y-113843750D01*
X124596500Y-114756250D01*
X124595326Y-114780142D01*
X124591816Y-114803803D01*
X124586004Y-114827007D01*
X124577946Y-114849529D01*
X124567718Y-114871153D01*
X124555421Y-114891670D01*
X124541171Y-114910883D01*
X124525107Y-114928607D01*
X124507383Y-114944671D01*
X124488170Y-114958921D01*
X124467653Y-114971218D01*
X124446029Y-114981446D01*
X124423507Y-114989504D01*
X124400303Y-114995316D01*
X124376642Y-114998826D01*
X124352750Y-115000000D01*
X123865250Y-115000000D01*
X123841358Y-114998826D01*
X123817697Y-114995316D01*
X123794493Y-114989504D01*
X123771971Y-114981446D01*
X123750347Y-114971218D01*
X123729830Y-114958921D01*
X123710617Y-114944671D01*
X123692893Y-114928607D01*
X123676829Y-114910883D01*
X123662579Y-114891670D01*
X123650282Y-114871153D01*
X123640054Y-114849529D01*
X123631996Y-114827007D01*
X123626184Y-114803803D01*
X123622674Y-114780142D01*
X123621500Y-114756250D01*
X123621500Y-113843750D01*
X123622674Y-113819858D01*
X123626184Y-113796197D01*
X123631996Y-113772993D01*
X123640054Y-113750471D01*
X123650282Y-113728847D01*
X123662579Y-113708330D01*
X123676829Y-113689117D01*
X123692893Y-113671393D01*
X123710617Y-113655329D01*
X123729830Y-113641079D01*
X123750347Y-113628782D01*
X123771971Y-113618554D01*
X123794493Y-113610496D01*
X123817697Y-113604684D01*
X123841358Y-113601174D01*
X123865250Y-113600000D01*
X124352750Y-113600000D01*
X124376642Y-113601174D01*
G37*
G36*
X126251642Y-113601174D02*
G01*
X126275303Y-113604684D01*
X126298507Y-113610496D01*
X126321029Y-113618554D01*
X126342653Y-113628782D01*
X126363170Y-113641079D01*
X126382383Y-113655329D01*
X126400107Y-113671393D01*
X126416171Y-113689117D01*
X126430421Y-113708330D01*
X126442718Y-113728847D01*
X126452946Y-113750471D01*
X126461004Y-113772993D01*
X126466816Y-113796197D01*
X126470326Y-113819858D01*
X126471500Y-113843750D01*
X126471500Y-114756250D01*
X126470326Y-114780142D01*
X126466816Y-114803803D01*
X126461004Y-114827007D01*
X126452946Y-114849529D01*
X126442718Y-114871153D01*
X126430421Y-114891670D01*
X126416171Y-114910883D01*
X126400107Y-114928607D01*
X126382383Y-114944671D01*
X126363170Y-114958921D01*
X126342653Y-114971218D01*
X126321029Y-114981446D01*
X126298507Y-114989504D01*
X126275303Y-114995316D01*
X126251642Y-114998826D01*
X126227750Y-115000000D01*
X125740250Y-115000000D01*
X125716358Y-114998826D01*
X125692697Y-114995316D01*
X125669493Y-114989504D01*
X125646971Y-114981446D01*
X125625347Y-114971218D01*
X125604830Y-114958921D01*
X125585617Y-114944671D01*
X125567893Y-114928607D01*
X125551829Y-114910883D01*
X125537579Y-114891670D01*
X125525282Y-114871153D01*
X125515054Y-114849529D01*
X125506996Y-114827007D01*
X125501184Y-114803803D01*
X125497674Y-114780142D01*
X125496500Y-114756250D01*
X125496500Y-113843750D01*
X125497674Y-113819858D01*
X125501184Y-113796197D01*
X125506996Y-113772993D01*
X125515054Y-113750471D01*
X125525282Y-113728847D01*
X125537579Y-113708330D01*
X125551829Y-113689117D01*
X125567893Y-113671393D01*
X125585617Y-113655329D01*
X125604830Y-113641079D01*
X125625347Y-113628782D01*
X125646971Y-113618554D01*
X125669493Y-113610496D01*
X125692697Y-113604684D01*
X125716358Y-113601174D01*
X125740250Y-113600000D01*
X126227750Y-113600000D01*
X126251642Y-113601174D01*
G37*
G36*
X131460703Y-109047722D02*
G01*
X131475264Y-109049882D01*
X131489543Y-109053459D01*
X131503403Y-109058418D01*
X131516710Y-109064712D01*
X131529336Y-109072280D01*
X131541159Y-109081048D01*
X131552066Y-109090934D01*
X131561952Y-109101841D01*
X131570720Y-109113664D01*
X131578288Y-109126290D01*
X131584582Y-109139597D01*
X131589541Y-109153457D01*
X131593118Y-109167736D01*
X131595278Y-109182297D01*
X131596000Y-109197000D01*
X131596000Y-109497000D01*
X131595278Y-109511703D01*
X131593118Y-109526264D01*
X131589541Y-109540543D01*
X131584582Y-109554403D01*
X131578288Y-109567710D01*
X131570720Y-109580336D01*
X131561952Y-109592159D01*
X131552066Y-109603066D01*
X131541159Y-109612952D01*
X131529336Y-109621720D01*
X131516710Y-109629288D01*
X131503403Y-109635582D01*
X131489543Y-109640541D01*
X131475264Y-109644118D01*
X131460703Y-109646278D01*
X131446000Y-109647000D01*
X129796000Y-109647000D01*
X129781297Y-109646278D01*
X129766736Y-109644118D01*
X129752457Y-109640541D01*
X129738597Y-109635582D01*
X129725290Y-109629288D01*
X129712664Y-109621720D01*
X129700841Y-109612952D01*
X129689934Y-109603066D01*
X129680048Y-109592159D01*
X129671280Y-109580336D01*
X129663712Y-109567710D01*
X129657418Y-109554403D01*
X129652459Y-109540543D01*
X129648882Y-109526264D01*
X129646722Y-109511703D01*
X129646000Y-109497000D01*
X129646000Y-109197000D01*
X129646722Y-109182297D01*
X129648882Y-109167736D01*
X129652459Y-109153457D01*
X129657418Y-109139597D01*
X129663712Y-109126290D01*
X129671280Y-109113664D01*
X129680048Y-109101841D01*
X129689934Y-109090934D01*
X129700841Y-109081048D01*
X129712664Y-109072280D01*
X129725290Y-109064712D01*
X129738597Y-109058418D01*
X129752457Y-109053459D01*
X129766736Y-109049882D01*
X129781297Y-109047722D01*
X129796000Y-109047000D01*
X131446000Y-109047000D01*
X131460703Y-109047722D01*
G37*
G36*
X131460703Y-110317722D02*
G01*
X131475264Y-110319882D01*
X131489543Y-110323459D01*
X131503403Y-110328418D01*
X131516710Y-110334712D01*
X131529336Y-110342280D01*
X131541159Y-110351048D01*
X131552066Y-110360934D01*
X131561952Y-110371841D01*
X131570720Y-110383664D01*
X131578288Y-110396290D01*
X131584582Y-110409597D01*
X131589541Y-110423457D01*
X131593118Y-110437736D01*
X131595278Y-110452297D01*
X131596000Y-110467000D01*
X131596000Y-110767000D01*
X131595278Y-110781703D01*
X131593118Y-110796264D01*
X131589541Y-110810543D01*
X131584582Y-110824403D01*
X131578288Y-110837710D01*
X131570720Y-110850336D01*
X131561952Y-110862159D01*
X131552066Y-110873066D01*
X131541159Y-110882952D01*
X131529336Y-110891720D01*
X131516710Y-110899288D01*
X131503403Y-110905582D01*
X131489543Y-110910541D01*
X131475264Y-110914118D01*
X131460703Y-110916278D01*
X131446000Y-110917000D01*
X129796000Y-110917000D01*
X129781297Y-110916278D01*
X129766736Y-110914118D01*
X129752457Y-110910541D01*
X129738597Y-110905582D01*
X129725290Y-110899288D01*
X129712664Y-110891720D01*
X129700841Y-110882952D01*
X129689934Y-110873066D01*
X129680048Y-110862159D01*
X129671280Y-110850336D01*
X129663712Y-110837710D01*
X129657418Y-110824403D01*
X129652459Y-110810543D01*
X129648882Y-110796264D01*
X129646722Y-110781703D01*
X129646000Y-110767000D01*
X129646000Y-110467000D01*
X129646722Y-110452297D01*
X129648882Y-110437736D01*
X129652459Y-110423457D01*
X129657418Y-110409597D01*
X129663712Y-110396290D01*
X129671280Y-110383664D01*
X129680048Y-110371841D01*
X129689934Y-110360934D01*
X129700841Y-110351048D01*
X129712664Y-110342280D01*
X129725290Y-110334712D01*
X129738597Y-110328418D01*
X129752457Y-110323459D01*
X129766736Y-110319882D01*
X129781297Y-110317722D01*
X129796000Y-110317000D01*
X131446000Y-110317000D01*
X131460703Y-110317722D01*
G37*
G36*
X131460703Y-111587722D02*
G01*
X131475264Y-111589882D01*
X131489543Y-111593459D01*
X131503403Y-111598418D01*
X131516710Y-111604712D01*
X131529336Y-111612280D01*
X131541159Y-111621048D01*
X131552066Y-111630934D01*
X131561952Y-111641841D01*
X131570720Y-111653664D01*
X131578288Y-111666290D01*
X131584582Y-111679597D01*
X131589541Y-111693457D01*
X131593118Y-111707736D01*
X131595278Y-111722297D01*
X131596000Y-111737000D01*
X131596000Y-112037000D01*
X131595278Y-112051703D01*
X131593118Y-112066264D01*
X131589541Y-112080543D01*
X131584582Y-112094403D01*
X131578288Y-112107710D01*
X131570720Y-112120336D01*
X131561952Y-112132159D01*
X131552066Y-112143066D01*
X131541159Y-112152952D01*
X131529336Y-112161720D01*
X131516710Y-112169288D01*
X131503403Y-112175582D01*
X131489543Y-112180541D01*
X131475264Y-112184118D01*
X131460703Y-112186278D01*
X131446000Y-112187000D01*
X129796000Y-112187000D01*
X129781297Y-112186278D01*
X129766736Y-112184118D01*
X129752457Y-112180541D01*
X129738597Y-112175582D01*
X129725290Y-112169288D01*
X129712664Y-112161720D01*
X129700841Y-112152952D01*
X129689934Y-112143066D01*
X129680048Y-112132159D01*
X129671280Y-112120336D01*
X129663712Y-112107710D01*
X129657418Y-112094403D01*
X129652459Y-112080543D01*
X129648882Y-112066264D01*
X129646722Y-112051703D01*
X129646000Y-112037000D01*
X129646000Y-111737000D01*
X129646722Y-111722297D01*
X129648882Y-111707736D01*
X129652459Y-111693457D01*
X129657418Y-111679597D01*
X129663712Y-111666290D01*
X129671280Y-111653664D01*
X129680048Y-111641841D01*
X129689934Y-111630934D01*
X129700841Y-111621048D01*
X129712664Y-111612280D01*
X129725290Y-111604712D01*
X129738597Y-111598418D01*
X129752457Y-111593459D01*
X129766736Y-111589882D01*
X129781297Y-111587722D01*
X129796000Y-111587000D01*
X131446000Y-111587000D01*
X131460703Y-111587722D01*
G37*
G36*
X131460703Y-112857722D02*
G01*
X131475264Y-112859882D01*
X131489543Y-112863459D01*
X131503403Y-112868418D01*
X131516710Y-112874712D01*
X131529336Y-112882280D01*
X131541159Y-112891048D01*
X131552066Y-112900934D01*
X131561952Y-112911841D01*
X131570720Y-112923664D01*
X131578288Y-112936290D01*
X131584582Y-112949597D01*
X131589541Y-112963457D01*
X131593118Y-112977736D01*
X131595278Y-112992297D01*
X131596000Y-113007000D01*
X131596000Y-113307000D01*
X131595278Y-113321703D01*
X131593118Y-113336264D01*
X131589541Y-113350543D01*
X131584582Y-113364403D01*
X131578288Y-113377710D01*
X131570720Y-113390336D01*
X131561952Y-113402159D01*
X131552066Y-113413066D01*
X131541159Y-113422952D01*
X131529336Y-113431720D01*
X131516710Y-113439288D01*
X131503403Y-113445582D01*
X131489543Y-113450541D01*
X131475264Y-113454118D01*
X131460703Y-113456278D01*
X131446000Y-113457000D01*
X129796000Y-113457000D01*
X129781297Y-113456278D01*
X129766736Y-113454118D01*
X129752457Y-113450541D01*
X129738597Y-113445582D01*
X129725290Y-113439288D01*
X129712664Y-113431720D01*
X129700841Y-113422952D01*
X129689934Y-113413066D01*
X129680048Y-113402159D01*
X129671280Y-113390336D01*
X129663712Y-113377710D01*
X129657418Y-113364403D01*
X129652459Y-113350543D01*
X129648882Y-113336264D01*
X129646722Y-113321703D01*
X129646000Y-113307000D01*
X129646000Y-113007000D01*
X129646722Y-112992297D01*
X129648882Y-112977736D01*
X129652459Y-112963457D01*
X129657418Y-112949597D01*
X129663712Y-112936290D01*
X129671280Y-112923664D01*
X129680048Y-112911841D01*
X129689934Y-112900934D01*
X129700841Y-112891048D01*
X129712664Y-112882280D01*
X129725290Y-112874712D01*
X129738597Y-112868418D01*
X129752457Y-112863459D01*
X129766736Y-112859882D01*
X129781297Y-112857722D01*
X129796000Y-112857000D01*
X131446000Y-112857000D01*
X131460703Y-112857722D01*
G37*
G36*
X136410703Y-112857722D02*
G01*
X136425264Y-112859882D01*
X136439543Y-112863459D01*
X136453403Y-112868418D01*
X136466710Y-112874712D01*
X136479336Y-112882280D01*
X136491159Y-112891048D01*
X136502066Y-112900934D01*
X136511952Y-112911841D01*
X136520720Y-112923664D01*
X136528288Y-112936290D01*
X136534582Y-112949597D01*
X136539541Y-112963457D01*
X136543118Y-112977736D01*
X136545278Y-112992297D01*
X136546000Y-113007000D01*
X136546000Y-113307000D01*
X136545278Y-113321703D01*
X136543118Y-113336264D01*
X136539541Y-113350543D01*
X136534582Y-113364403D01*
X136528288Y-113377710D01*
X136520720Y-113390336D01*
X136511952Y-113402159D01*
X136502066Y-113413066D01*
X136491159Y-113422952D01*
X136479336Y-113431720D01*
X136466710Y-113439288D01*
X136453403Y-113445582D01*
X136439543Y-113450541D01*
X136425264Y-113454118D01*
X136410703Y-113456278D01*
X136396000Y-113457000D01*
X134746000Y-113457000D01*
X134731297Y-113456278D01*
X134716736Y-113454118D01*
X134702457Y-113450541D01*
X134688597Y-113445582D01*
X134675290Y-113439288D01*
X134662664Y-113431720D01*
X134650841Y-113422952D01*
X134639934Y-113413066D01*
X134630048Y-113402159D01*
X134621280Y-113390336D01*
X134613712Y-113377710D01*
X134607418Y-113364403D01*
X134602459Y-113350543D01*
X134598882Y-113336264D01*
X134596722Y-113321703D01*
X134596000Y-113307000D01*
X134596000Y-113007000D01*
X134596722Y-112992297D01*
X134598882Y-112977736D01*
X134602459Y-112963457D01*
X134607418Y-112949597D01*
X134613712Y-112936290D01*
X134621280Y-112923664D01*
X134630048Y-112911841D01*
X134639934Y-112900934D01*
X134650841Y-112891048D01*
X134662664Y-112882280D01*
X134675290Y-112874712D01*
X134688597Y-112868418D01*
X134702457Y-112863459D01*
X134716736Y-112859882D01*
X134731297Y-112857722D01*
X134746000Y-112857000D01*
X136396000Y-112857000D01*
X136410703Y-112857722D01*
G37*
G36*
X136410703Y-111587722D02*
G01*
X136425264Y-111589882D01*
X136439543Y-111593459D01*
X136453403Y-111598418D01*
X136466710Y-111604712D01*
X136479336Y-111612280D01*
X136491159Y-111621048D01*
X136502066Y-111630934D01*
X136511952Y-111641841D01*
X136520720Y-111653664D01*
X136528288Y-111666290D01*
X136534582Y-111679597D01*
X136539541Y-111693457D01*
X136543118Y-111707736D01*
X136545278Y-111722297D01*
X136546000Y-111737000D01*
X136546000Y-112037000D01*
X136545278Y-112051703D01*
X136543118Y-112066264D01*
X136539541Y-112080543D01*
X136534582Y-112094403D01*
X136528288Y-112107710D01*
X136520720Y-112120336D01*
X136511952Y-112132159D01*
X136502066Y-112143066D01*
X136491159Y-112152952D01*
X136479336Y-112161720D01*
X136466710Y-112169288D01*
X136453403Y-112175582D01*
X136439543Y-112180541D01*
X136425264Y-112184118D01*
X136410703Y-112186278D01*
X136396000Y-112187000D01*
X134746000Y-112187000D01*
X134731297Y-112186278D01*
X134716736Y-112184118D01*
X134702457Y-112180541D01*
X134688597Y-112175582D01*
X134675290Y-112169288D01*
X134662664Y-112161720D01*
X134650841Y-112152952D01*
X134639934Y-112143066D01*
X134630048Y-112132159D01*
X134621280Y-112120336D01*
X134613712Y-112107710D01*
X134607418Y-112094403D01*
X134602459Y-112080543D01*
X134598882Y-112066264D01*
X134596722Y-112051703D01*
X134596000Y-112037000D01*
X134596000Y-111737000D01*
X134596722Y-111722297D01*
X134598882Y-111707736D01*
X134602459Y-111693457D01*
X134607418Y-111679597D01*
X134613712Y-111666290D01*
X134621280Y-111653664D01*
X134630048Y-111641841D01*
X134639934Y-111630934D01*
X134650841Y-111621048D01*
X134662664Y-111612280D01*
X134675290Y-111604712D01*
X134688597Y-111598418D01*
X134702457Y-111593459D01*
X134716736Y-111589882D01*
X134731297Y-111587722D01*
X134746000Y-111587000D01*
X136396000Y-111587000D01*
X136410703Y-111587722D01*
G37*
G36*
X136410703Y-110317722D02*
G01*
X136425264Y-110319882D01*
X136439543Y-110323459D01*
X136453403Y-110328418D01*
X136466710Y-110334712D01*
X136479336Y-110342280D01*
X136491159Y-110351048D01*
X136502066Y-110360934D01*
X136511952Y-110371841D01*
X136520720Y-110383664D01*
X136528288Y-110396290D01*
X136534582Y-110409597D01*
X136539541Y-110423457D01*
X136543118Y-110437736D01*
X136545278Y-110452297D01*
X136546000Y-110467000D01*
X136546000Y-110767000D01*
X136545278Y-110781703D01*
X136543118Y-110796264D01*
X136539541Y-110810543D01*
X136534582Y-110824403D01*
X136528288Y-110837710D01*
X136520720Y-110850336D01*
X136511952Y-110862159D01*
X136502066Y-110873066D01*
X136491159Y-110882952D01*
X136479336Y-110891720D01*
X136466710Y-110899288D01*
X136453403Y-110905582D01*
X136439543Y-110910541D01*
X136425264Y-110914118D01*
X136410703Y-110916278D01*
X136396000Y-110917000D01*
X134746000Y-110917000D01*
X134731297Y-110916278D01*
X134716736Y-110914118D01*
X134702457Y-110910541D01*
X134688597Y-110905582D01*
X134675290Y-110899288D01*
X134662664Y-110891720D01*
X134650841Y-110882952D01*
X134639934Y-110873066D01*
X134630048Y-110862159D01*
X134621280Y-110850336D01*
X134613712Y-110837710D01*
X134607418Y-110824403D01*
X134602459Y-110810543D01*
X134598882Y-110796264D01*
X134596722Y-110781703D01*
X134596000Y-110767000D01*
X134596000Y-110467000D01*
X134596722Y-110452297D01*
X134598882Y-110437736D01*
X134602459Y-110423457D01*
X134607418Y-110409597D01*
X134613712Y-110396290D01*
X134621280Y-110383664D01*
X134630048Y-110371841D01*
X134639934Y-110360934D01*
X134650841Y-110351048D01*
X134662664Y-110342280D01*
X134675290Y-110334712D01*
X134688597Y-110328418D01*
X134702457Y-110323459D01*
X134716736Y-110319882D01*
X134731297Y-110317722D01*
X134746000Y-110317000D01*
X136396000Y-110317000D01*
X136410703Y-110317722D01*
G37*
G36*
X136410703Y-109047722D02*
G01*
X136425264Y-109049882D01*
X136439543Y-109053459D01*
X136453403Y-109058418D01*
X136466710Y-109064712D01*
X136479336Y-109072280D01*
X136491159Y-109081048D01*
X136502066Y-109090934D01*
X136511952Y-109101841D01*
X136520720Y-109113664D01*
X136528288Y-109126290D01*
X136534582Y-109139597D01*
X136539541Y-109153457D01*
X136543118Y-109167736D01*
X136545278Y-109182297D01*
X136546000Y-109197000D01*
X136546000Y-109497000D01*
X136545278Y-109511703D01*
X136543118Y-109526264D01*
X136539541Y-109540543D01*
X136534582Y-109554403D01*
X136528288Y-109567710D01*
X136520720Y-109580336D01*
X136511952Y-109592159D01*
X136502066Y-109603066D01*
X136491159Y-109612952D01*
X136479336Y-109621720D01*
X136466710Y-109629288D01*
X136453403Y-109635582D01*
X136439543Y-109640541D01*
X136425264Y-109644118D01*
X136410703Y-109646278D01*
X136396000Y-109647000D01*
X134746000Y-109647000D01*
X134731297Y-109646278D01*
X134716736Y-109644118D01*
X134702457Y-109640541D01*
X134688597Y-109635582D01*
X134675290Y-109629288D01*
X134662664Y-109621720D01*
X134650841Y-109612952D01*
X134639934Y-109603066D01*
X134630048Y-109592159D01*
X134621280Y-109580336D01*
X134613712Y-109567710D01*
X134607418Y-109554403D01*
X134602459Y-109540543D01*
X134598882Y-109526264D01*
X134596722Y-109511703D01*
X134596000Y-109497000D01*
X134596000Y-109197000D01*
X134596722Y-109182297D01*
X134598882Y-109167736D01*
X134602459Y-109153457D01*
X134607418Y-109139597D01*
X134613712Y-109126290D01*
X134621280Y-109113664D01*
X134630048Y-109101841D01*
X134639934Y-109090934D01*
X134650841Y-109081048D01*
X134662664Y-109072280D01*
X134675290Y-109064712D01*
X134688597Y-109058418D01*
X134702457Y-109053459D01*
X134716736Y-109049882D01*
X134731297Y-109047722D01*
X134746000Y-109047000D01*
X136396000Y-109047000D01*
X136410703Y-109047722D01*
G37*
M02*
