G04 #@! TF.GenerationSoftware,KiCad,Pcbnew,5.1.5*
G04 #@! TF.CreationDate,2020-02-08T16:24:25+09:00*
G04 #@! TF.ProjectId,linearccd,6c696e65-6172-4636-9364-2e6b69636164,rev?*
G04 #@! TF.SameCoordinates,Original*
G04 #@! TF.FileFunction,Soldermask,Top*
G04 #@! TF.FilePolarity,Negative*
%FSLAX46Y46*%
G04 Gerber Fmt 4.6, Leading zero omitted, Abs format (unit mm)*
G04 Created by KiCad (PCBNEW 5.1.5) date 2020-02-08 16:24:25*
%MOMM*%
%LPD*%
G04 APERTURE LIST*
%ADD10C,0.100000*%
G04 APERTURE END LIST*
D10*
G36*
X129958786Y-128952746D02*
G01*
X129989461Y-128962051D01*
X130017729Y-128977161D01*
X130042506Y-128997494D01*
X130062839Y-129022271D01*
X130077949Y-129050539D01*
X130087254Y-129081214D01*
X130091000Y-129119251D01*
X130091000Y-131230749D01*
X130087254Y-131268786D01*
X130077949Y-131299461D01*
X130062839Y-131327729D01*
X130042506Y-131352506D01*
X130017729Y-131372839D01*
X129989461Y-131387949D01*
X129958786Y-131397254D01*
X129920749Y-131401000D01*
X127909251Y-131401000D01*
X127871214Y-131397254D01*
X127840539Y-131387949D01*
X127812271Y-131372839D01*
X127787494Y-131352506D01*
X127767161Y-131327729D01*
X127752051Y-131299461D01*
X127742746Y-131268786D01*
X127739000Y-131230749D01*
X127739000Y-129119251D01*
X127742746Y-129081214D01*
X127752051Y-129050539D01*
X127767161Y-129022271D01*
X127787494Y-128997494D01*
X127812271Y-128977161D01*
X127840539Y-128962051D01*
X127871214Y-128952746D01*
X127909251Y-128949000D01*
X129920749Y-128949000D01*
X129958786Y-128952746D01*
G37*
G36*
X124858786Y-128952746D02*
G01*
X124889461Y-128962051D01*
X124917729Y-128977161D01*
X124942506Y-128997494D01*
X124962839Y-129022271D01*
X124977949Y-129050539D01*
X124987254Y-129081214D01*
X124991000Y-129119251D01*
X124991000Y-131230749D01*
X124987254Y-131268786D01*
X124977949Y-131299461D01*
X124962839Y-131327729D01*
X124942506Y-131352506D01*
X124917729Y-131372839D01*
X124889461Y-131387949D01*
X124858786Y-131397254D01*
X124820749Y-131401000D01*
X122809251Y-131401000D01*
X122771214Y-131397254D01*
X122740539Y-131387949D01*
X122712271Y-131372839D01*
X122687494Y-131352506D01*
X122667161Y-131327729D01*
X122652051Y-131299461D01*
X122642746Y-131268786D01*
X122639000Y-131230749D01*
X122639000Y-129119251D01*
X122642746Y-129081214D01*
X122652051Y-129050539D01*
X122667161Y-129022271D01*
X122687494Y-128997494D01*
X122712271Y-128977161D01*
X122740539Y-128962051D01*
X122771214Y-128952746D01*
X122809251Y-128949000D01*
X124820749Y-128949000D01*
X124858786Y-128952746D01*
G37*
G36*
X138315000Y-129626001D02*
G01*
X138317402Y-129650387D01*
X138324515Y-129673836D01*
X138336066Y-129695447D01*
X138351611Y-129714389D01*
X138370553Y-129729934D01*
X138392164Y-129741485D01*
X138415613Y-129748598D01*
X138439999Y-129751000D01*
X140065000Y-129751000D01*
X140065000Y-130853000D01*
X138439999Y-130853000D01*
X138415613Y-130855402D01*
X138392164Y-130862515D01*
X138370553Y-130874066D01*
X138351611Y-130889611D01*
X138336066Y-130908553D01*
X138324515Y-130930164D01*
X138317402Y-130953613D01*
X138315000Y-130977999D01*
X138315000Y-131203000D01*
X136513000Y-131203000D01*
X136513000Y-129401000D01*
X138315000Y-129401000D01*
X138315000Y-129626001D01*
G37*
G36*
X104253512Y-128643927D02*
G01*
X104402812Y-128673624D01*
X104566784Y-128741544D01*
X104714354Y-128840147D01*
X104839853Y-128965646D01*
X104938456Y-129113216D01*
X105006376Y-129277188D01*
X105041000Y-129451259D01*
X105041000Y-129628741D01*
X105006376Y-129802812D01*
X104938456Y-129966784D01*
X104839853Y-130114354D01*
X104714354Y-130239853D01*
X104566784Y-130338456D01*
X104402812Y-130406376D01*
X104253512Y-130436073D01*
X104228742Y-130441000D01*
X104051258Y-130441000D01*
X104026488Y-130436073D01*
X103877188Y-130406376D01*
X103713216Y-130338456D01*
X103565646Y-130239853D01*
X103440147Y-130114354D01*
X103341544Y-129966784D01*
X103273624Y-129802812D01*
X103239000Y-129628741D01*
X103239000Y-129451259D01*
X103273624Y-129277188D01*
X103341544Y-129113216D01*
X103440147Y-128965646D01*
X103565646Y-128840147D01*
X103713216Y-128741544D01*
X103877188Y-128673624D01*
X104026488Y-128643927D01*
X104051258Y-128639000D01*
X104228742Y-128639000D01*
X104253512Y-128643927D01*
G37*
G36*
X101713512Y-128643927D02*
G01*
X101862812Y-128673624D01*
X102026784Y-128741544D01*
X102174354Y-128840147D01*
X102299853Y-128965646D01*
X102398456Y-129113216D01*
X102466376Y-129277188D01*
X102501000Y-129451259D01*
X102501000Y-129628741D01*
X102466376Y-129802812D01*
X102398456Y-129966784D01*
X102299853Y-130114354D01*
X102174354Y-130239853D01*
X102026784Y-130338456D01*
X101862812Y-130406376D01*
X101713512Y-130436073D01*
X101688742Y-130441000D01*
X101511258Y-130441000D01*
X101486488Y-130436073D01*
X101337188Y-130406376D01*
X101173216Y-130338456D01*
X101025646Y-130239853D01*
X100900147Y-130114354D01*
X100801544Y-129966784D01*
X100733624Y-129802812D01*
X100699000Y-129628741D01*
X100699000Y-129451259D01*
X100733624Y-129277188D01*
X100801544Y-129113216D01*
X100900147Y-128965646D01*
X101025646Y-128840147D01*
X101173216Y-128741544D01*
X101337188Y-128673624D01*
X101486488Y-128643927D01*
X101511258Y-128639000D01*
X101688742Y-128639000D01*
X101713512Y-128643927D01*
G37*
G36*
X121959468Y-128793565D02*
G01*
X121998138Y-128805296D01*
X122033777Y-128824346D01*
X122065017Y-128849983D01*
X122090654Y-128881223D01*
X122109704Y-128916862D01*
X122121435Y-128955532D01*
X122126000Y-129001888D01*
X122126000Y-130078112D01*
X122121435Y-130124468D01*
X122109704Y-130163138D01*
X122090654Y-130198777D01*
X122065017Y-130230017D01*
X122033777Y-130255654D01*
X121998138Y-130274704D01*
X121959468Y-130286435D01*
X121913112Y-130291000D01*
X121261888Y-130291000D01*
X121215532Y-130286435D01*
X121176862Y-130274704D01*
X121141223Y-130255654D01*
X121109983Y-130230017D01*
X121084346Y-130198777D01*
X121065296Y-130163138D01*
X121053565Y-130124468D01*
X121049000Y-130078112D01*
X121049000Y-129001888D01*
X121053565Y-128955532D01*
X121065296Y-128916862D01*
X121084346Y-128881223D01*
X121109983Y-128849983D01*
X121141223Y-128824346D01*
X121176862Y-128805296D01*
X121215532Y-128793565D01*
X121261888Y-128789000D01*
X121913112Y-128789000D01*
X121959468Y-128793565D01*
G37*
G36*
X120084468Y-128793565D02*
G01*
X120123138Y-128805296D01*
X120158777Y-128824346D01*
X120190017Y-128849983D01*
X120215654Y-128881223D01*
X120234704Y-128916862D01*
X120246435Y-128955532D01*
X120251000Y-129001888D01*
X120251000Y-130078112D01*
X120246435Y-130124468D01*
X120234704Y-130163138D01*
X120215654Y-130198777D01*
X120190017Y-130230017D01*
X120158777Y-130255654D01*
X120123138Y-130274704D01*
X120084468Y-130286435D01*
X120038112Y-130291000D01*
X119386888Y-130291000D01*
X119340532Y-130286435D01*
X119301862Y-130274704D01*
X119266223Y-130255654D01*
X119234983Y-130230017D01*
X119209346Y-130198777D01*
X119190296Y-130163138D01*
X119178565Y-130124468D01*
X119174000Y-130078112D01*
X119174000Y-129001888D01*
X119178565Y-128955532D01*
X119190296Y-128916862D01*
X119209346Y-128881223D01*
X119234983Y-128849983D01*
X119266223Y-128824346D01*
X119301862Y-128805296D01*
X119340532Y-128793565D01*
X119386888Y-128789000D01*
X120038112Y-128789000D01*
X120084468Y-128793565D01*
G37*
G36*
X137527512Y-126865927D02*
G01*
X137676812Y-126895624D01*
X137840784Y-126963544D01*
X137988354Y-127062147D01*
X138113853Y-127187646D01*
X138212456Y-127335216D01*
X138280376Y-127499188D01*
X138315000Y-127673259D01*
X138315000Y-127850741D01*
X138280376Y-128024812D01*
X138212456Y-128188784D01*
X138113853Y-128336354D01*
X137988354Y-128461853D01*
X137840784Y-128560456D01*
X137676812Y-128628376D01*
X137527512Y-128658073D01*
X137502742Y-128663000D01*
X137325258Y-128663000D01*
X137300488Y-128658073D01*
X137151188Y-128628376D01*
X136987216Y-128560456D01*
X136839646Y-128461853D01*
X136727395Y-128349602D01*
X136708464Y-128334066D01*
X136686853Y-128322515D01*
X136663404Y-128315402D01*
X136639018Y-128313000D01*
X134763000Y-128313000D01*
X134763000Y-127211000D01*
X136639018Y-127211000D01*
X136663404Y-127208598D01*
X136686853Y-127201485D01*
X136708464Y-127189934D01*
X136727395Y-127174398D01*
X136839646Y-127062147D01*
X136987216Y-126963544D01*
X137151188Y-126895624D01*
X137300488Y-126865927D01*
X137325258Y-126861000D01*
X137502742Y-126861000D01*
X137527512Y-126865927D01*
G37*
G36*
X104253512Y-126103927D02*
G01*
X104402812Y-126133624D01*
X104566784Y-126201544D01*
X104714354Y-126300147D01*
X104839853Y-126425646D01*
X104938456Y-126573216D01*
X105006376Y-126737188D01*
X105041000Y-126911259D01*
X105041000Y-127088741D01*
X105006376Y-127262812D01*
X104938456Y-127426784D01*
X104839853Y-127574354D01*
X104714354Y-127699853D01*
X104566784Y-127798456D01*
X104402812Y-127866376D01*
X104253512Y-127896073D01*
X104228742Y-127901000D01*
X104051258Y-127901000D01*
X104026488Y-127896073D01*
X103877188Y-127866376D01*
X103713216Y-127798456D01*
X103565646Y-127699853D01*
X103440147Y-127574354D01*
X103341544Y-127426784D01*
X103273624Y-127262812D01*
X103239000Y-127088741D01*
X103239000Y-126911259D01*
X103273624Y-126737188D01*
X103341544Y-126573216D01*
X103440147Y-126425646D01*
X103565646Y-126300147D01*
X103713216Y-126201544D01*
X103877188Y-126133624D01*
X104026488Y-126103927D01*
X104051258Y-126099000D01*
X104228742Y-126099000D01*
X104253512Y-126103927D01*
G37*
G36*
X101713512Y-126103927D02*
G01*
X101862812Y-126133624D01*
X102026784Y-126201544D01*
X102174354Y-126300147D01*
X102299853Y-126425646D01*
X102398456Y-126573216D01*
X102466376Y-126737188D01*
X102501000Y-126911259D01*
X102501000Y-127088741D01*
X102466376Y-127262812D01*
X102398456Y-127426784D01*
X102299853Y-127574354D01*
X102174354Y-127699853D01*
X102026784Y-127798456D01*
X101862812Y-127866376D01*
X101713512Y-127896073D01*
X101688742Y-127901000D01*
X101511258Y-127901000D01*
X101486488Y-127896073D01*
X101337188Y-127866376D01*
X101173216Y-127798456D01*
X101025646Y-127699853D01*
X100900147Y-127574354D01*
X100801544Y-127426784D01*
X100733624Y-127262812D01*
X100699000Y-127088741D01*
X100699000Y-126911259D01*
X100733624Y-126737188D01*
X100801544Y-126573216D01*
X100900147Y-126425646D01*
X101025646Y-126300147D01*
X101173216Y-126201544D01*
X101337188Y-126133624D01*
X101486488Y-126103927D01*
X101511258Y-126099000D01*
X101688742Y-126099000D01*
X101713512Y-126103927D01*
G37*
G36*
X121864928Y-126651764D02*
G01*
X121886009Y-126658160D01*
X121905445Y-126668548D01*
X121922476Y-126682524D01*
X121936452Y-126699555D01*
X121946840Y-126718991D01*
X121953236Y-126740072D01*
X121956000Y-126768140D01*
X121956000Y-127231860D01*
X121953236Y-127259928D01*
X121946840Y-127281009D01*
X121936452Y-127300445D01*
X121922476Y-127317476D01*
X121905445Y-127331452D01*
X121886009Y-127341840D01*
X121864928Y-127348236D01*
X121836860Y-127351000D01*
X120173140Y-127351000D01*
X120145072Y-127348236D01*
X120123991Y-127341840D01*
X120104555Y-127331452D01*
X120087524Y-127317476D01*
X120073548Y-127300445D01*
X120063160Y-127281009D01*
X120056764Y-127259928D01*
X120054000Y-127231860D01*
X120054000Y-126768140D01*
X120056764Y-126740072D01*
X120063160Y-126718991D01*
X120073548Y-126699555D01*
X120087524Y-126682524D01*
X120104555Y-126668548D01*
X120123991Y-126658160D01*
X120145072Y-126651764D01*
X120173140Y-126649000D01*
X121836860Y-126649000D01*
X121864928Y-126651764D01*
G37*
G36*
X112264928Y-126651764D02*
G01*
X112286009Y-126658160D01*
X112305445Y-126668548D01*
X112322476Y-126682524D01*
X112336452Y-126699555D01*
X112346840Y-126718991D01*
X112353236Y-126740072D01*
X112356000Y-126768140D01*
X112356000Y-127231860D01*
X112353236Y-127259928D01*
X112346840Y-127281009D01*
X112336452Y-127300445D01*
X112322476Y-127317476D01*
X112305445Y-127331452D01*
X112286009Y-127341840D01*
X112264928Y-127348236D01*
X112236860Y-127351000D01*
X110573140Y-127351000D01*
X110545072Y-127348236D01*
X110523991Y-127341840D01*
X110504555Y-127331452D01*
X110487524Y-127317476D01*
X110473548Y-127300445D01*
X110463160Y-127281009D01*
X110456764Y-127259928D01*
X110454000Y-127231860D01*
X110454000Y-126768140D01*
X110456764Y-126740072D01*
X110463160Y-126718991D01*
X110473548Y-126699555D01*
X110487524Y-126682524D01*
X110504555Y-126668548D01*
X110523991Y-126658160D01*
X110545072Y-126651764D01*
X110573140Y-126649000D01*
X112236860Y-126649000D01*
X112264928Y-126651764D01*
G37*
G36*
X127027786Y-124761746D02*
G01*
X127058461Y-124771051D01*
X127086729Y-124786161D01*
X127111506Y-124806494D01*
X127131839Y-124831271D01*
X127146949Y-124859539D01*
X127156254Y-124890214D01*
X127160000Y-124928251D01*
X127160000Y-127039749D01*
X127156254Y-127077786D01*
X127146949Y-127108461D01*
X127131839Y-127136729D01*
X127111506Y-127161506D01*
X127086729Y-127181839D01*
X127058461Y-127196949D01*
X127027786Y-127206254D01*
X126989749Y-127210000D01*
X124978251Y-127210000D01*
X124940214Y-127206254D01*
X124909539Y-127196949D01*
X124881271Y-127181839D01*
X124856494Y-127161506D01*
X124836161Y-127136729D01*
X124821051Y-127108461D01*
X124811746Y-127077786D01*
X124808000Y-127039749D01*
X124808000Y-124928251D01*
X124811746Y-124890214D01*
X124821051Y-124859539D01*
X124836161Y-124831271D01*
X124856494Y-124806494D01*
X124881271Y-124786161D01*
X124909539Y-124771051D01*
X124940214Y-124761746D01*
X124978251Y-124758000D01*
X126989749Y-124758000D01*
X127027786Y-124761746D01*
G37*
G36*
X132127786Y-124761746D02*
G01*
X132158461Y-124771051D01*
X132186729Y-124786161D01*
X132211506Y-124806494D01*
X132231839Y-124831271D01*
X132246949Y-124859539D01*
X132256254Y-124890214D01*
X132260000Y-124928251D01*
X132260000Y-127039749D01*
X132256254Y-127077786D01*
X132246949Y-127108461D01*
X132231839Y-127136729D01*
X132211506Y-127161506D01*
X132186729Y-127181839D01*
X132158461Y-127196949D01*
X132127786Y-127206254D01*
X132089749Y-127210000D01*
X130078251Y-127210000D01*
X130040214Y-127206254D01*
X130009539Y-127196949D01*
X129981271Y-127181839D01*
X129956494Y-127161506D01*
X129936161Y-127136729D01*
X129921051Y-127108461D01*
X129911746Y-127077786D01*
X129908000Y-127039749D01*
X129908000Y-124928251D01*
X129911746Y-124890214D01*
X129921051Y-124859539D01*
X129936161Y-124831271D01*
X129956494Y-124806494D01*
X129981271Y-124786161D01*
X130009539Y-124771051D01*
X130040214Y-124761746D01*
X130078251Y-124758000D01*
X132089749Y-124758000D01*
X132127786Y-124761746D01*
G37*
G36*
X152129142Y-122408242D02*
G01*
X152277101Y-122469529D01*
X152410255Y-122558499D01*
X152523501Y-122671745D01*
X152612471Y-122804899D01*
X152673758Y-122952858D01*
X152705000Y-123109925D01*
X152705000Y-123270075D01*
X152673758Y-123427142D01*
X152612471Y-123575101D01*
X152523501Y-123708255D01*
X152479611Y-123752145D01*
X152464066Y-123771087D01*
X152452515Y-123792698D01*
X152445402Y-123816147D01*
X152443000Y-123840533D01*
X152443000Y-126141000D01*
X151341000Y-126141000D01*
X151341000Y-123840533D01*
X151338598Y-123816147D01*
X151331485Y-123792698D01*
X151319934Y-123771087D01*
X151304389Y-123752145D01*
X151260499Y-123708255D01*
X151171529Y-123575101D01*
X151110242Y-123427142D01*
X151079000Y-123270075D01*
X151079000Y-123109925D01*
X151110242Y-122952858D01*
X151171529Y-122804899D01*
X151260499Y-122671745D01*
X151373745Y-122558499D01*
X151506899Y-122469529D01*
X151654858Y-122408242D01*
X151811925Y-122377000D01*
X151972075Y-122377000D01*
X152129142Y-122408242D01*
G37*
G36*
X137527512Y-124325927D02*
G01*
X137676812Y-124355624D01*
X137840784Y-124423544D01*
X137988354Y-124522147D01*
X138100605Y-124634398D01*
X138119536Y-124649934D01*
X138141147Y-124661485D01*
X138164596Y-124668598D01*
X138188982Y-124671000D01*
X140065000Y-124671000D01*
X140065000Y-125773000D01*
X138188982Y-125773000D01*
X138164596Y-125775402D01*
X138141147Y-125782515D01*
X138119536Y-125794066D01*
X138100605Y-125809602D01*
X137988354Y-125921853D01*
X137840784Y-126020456D01*
X137676812Y-126088376D01*
X137527512Y-126118073D01*
X137502742Y-126123000D01*
X137325258Y-126123000D01*
X137300488Y-126118073D01*
X137151188Y-126088376D01*
X136987216Y-126020456D01*
X136839646Y-125921853D01*
X136714147Y-125796354D01*
X136615544Y-125648784D01*
X136547624Y-125484812D01*
X136513000Y-125310741D01*
X136513000Y-125133259D01*
X136547624Y-124959188D01*
X136615544Y-124795216D01*
X136714147Y-124647646D01*
X136839646Y-124522147D01*
X136987216Y-124423544D01*
X137151188Y-124355624D01*
X137300488Y-124325927D01*
X137325258Y-124321000D01*
X137502742Y-124321000D01*
X137527512Y-124325927D01*
G37*
G36*
X112264928Y-125381764D02*
G01*
X112286009Y-125388160D01*
X112305445Y-125398548D01*
X112322476Y-125412524D01*
X112336452Y-125429555D01*
X112346840Y-125448991D01*
X112353236Y-125470072D01*
X112356000Y-125498140D01*
X112356000Y-125961860D01*
X112353236Y-125989928D01*
X112346840Y-126011009D01*
X112336452Y-126030445D01*
X112322476Y-126047476D01*
X112305445Y-126061452D01*
X112286009Y-126071840D01*
X112264928Y-126078236D01*
X112236860Y-126081000D01*
X110573140Y-126081000D01*
X110545072Y-126078236D01*
X110523991Y-126071840D01*
X110504555Y-126061452D01*
X110487524Y-126047476D01*
X110473548Y-126030445D01*
X110463160Y-126011009D01*
X110456764Y-125989928D01*
X110454000Y-125961860D01*
X110454000Y-125498140D01*
X110456764Y-125470072D01*
X110463160Y-125448991D01*
X110473548Y-125429555D01*
X110487524Y-125412524D01*
X110504555Y-125398548D01*
X110523991Y-125388160D01*
X110545072Y-125381764D01*
X110573140Y-125379000D01*
X112236860Y-125379000D01*
X112264928Y-125381764D01*
G37*
G36*
X121864928Y-125381764D02*
G01*
X121886009Y-125388160D01*
X121905445Y-125398548D01*
X121922476Y-125412524D01*
X121936452Y-125429555D01*
X121946840Y-125448991D01*
X121953236Y-125470072D01*
X121956000Y-125498140D01*
X121956000Y-125961860D01*
X121953236Y-125989928D01*
X121946840Y-126011009D01*
X121936452Y-126030445D01*
X121922476Y-126047476D01*
X121905445Y-126061452D01*
X121886009Y-126071840D01*
X121864928Y-126078236D01*
X121836860Y-126081000D01*
X120173140Y-126081000D01*
X120145072Y-126078236D01*
X120123991Y-126071840D01*
X120104555Y-126061452D01*
X120087524Y-126047476D01*
X120073548Y-126030445D01*
X120063160Y-126011009D01*
X120056764Y-125989928D01*
X120054000Y-125961860D01*
X120054000Y-125498140D01*
X120056764Y-125470072D01*
X120063160Y-125448991D01*
X120073548Y-125429555D01*
X120087524Y-125412524D01*
X120104555Y-125398548D01*
X120123991Y-125388160D01*
X120145072Y-125381764D01*
X120173140Y-125379000D01*
X121836860Y-125379000D01*
X121864928Y-125381764D01*
G37*
G36*
X124028468Y-124785065D02*
G01*
X124067138Y-124796796D01*
X124102777Y-124815846D01*
X124134017Y-124841483D01*
X124159654Y-124872723D01*
X124178704Y-124908362D01*
X124190435Y-124947032D01*
X124195000Y-124993388D01*
X124195000Y-125644612D01*
X124190435Y-125690968D01*
X124178704Y-125729638D01*
X124159654Y-125765277D01*
X124134017Y-125796517D01*
X124102777Y-125822154D01*
X124067138Y-125841204D01*
X124028468Y-125852935D01*
X123982112Y-125857500D01*
X122905888Y-125857500D01*
X122859532Y-125852935D01*
X122820862Y-125841204D01*
X122785223Y-125822154D01*
X122753983Y-125796517D01*
X122728346Y-125765277D01*
X122709296Y-125729638D01*
X122697565Y-125690968D01*
X122693000Y-125644612D01*
X122693000Y-124993388D01*
X122697565Y-124947032D01*
X122709296Y-124908362D01*
X122728346Y-124872723D01*
X122753983Y-124841483D01*
X122785223Y-124815846D01*
X122820862Y-124796796D01*
X122859532Y-124785065D01*
X122905888Y-124780500D01*
X123982112Y-124780500D01*
X124028468Y-124785065D01*
G37*
G36*
X104253512Y-123563927D02*
G01*
X104402812Y-123593624D01*
X104566784Y-123661544D01*
X104714354Y-123760147D01*
X104839853Y-123885646D01*
X104938456Y-124033216D01*
X105006376Y-124197188D01*
X105041000Y-124371259D01*
X105041000Y-124548741D01*
X105006376Y-124722812D01*
X104938456Y-124886784D01*
X104839853Y-125034354D01*
X104714354Y-125159853D01*
X104566784Y-125258456D01*
X104402812Y-125326376D01*
X104253512Y-125356073D01*
X104228742Y-125361000D01*
X104051258Y-125361000D01*
X104026488Y-125356073D01*
X103877188Y-125326376D01*
X103713216Y-125258456D01*
X103565646Y-125159853D01*
X103440147Y-125034354D01*
X103341544Y-124886784D01*
X103273624Y-124722812D01*
X103239000Y-124548741D01*
X103239000Y-124371259D01*
X103273624Y-124197188D01*
X103341544Y-124033216D01*
X103440147Y-123885646D01*
X103565646Y-123760147D01*
X103713216Y-123661544D01*
X103877188Y-123593624D01*
X104026488Y-123563927D01*
X104051258Y-123559000D01*
X104228742Y-123559000D01*
X104253512Y-123563927D01*
G37*
G36*
X101713512Y-123563927D02*
G01*
X101862812Y-123593624D01*
X102026784Y-123661544D01*
X102174354Y-123760147D01*
X102299853Y-123885646D01*
X102398456Y-124033216D01*
X102466376Y-124197188D01*
X102501000Y-124371259D01*
X102501000Y-124548741D01*
X102466376Y-124722812D01*
X102398456Y-124886784D01*
X102299853Y-125034354D01*
X102174354Y-125159853D01*
X102026784Y-125258456D01*
X101862812Y-125326376D01*
X101713512Y-125356073D01*
X101688742Y-125361000D01*
X101511258Y-125361000D01*
X101486488Y-125356073D01*
X101337188Y-125326376D01*
X101173216Y-125258456D01*
X101025646Y-125159853D01*
X100900147Y-125034354D01*
X100801544Y-124886784D01*
X100733624Y-124722812D01*
X100699000Y-124548741D01*
X100699000Y-124371259D01*
X100733624Y-124197188D01*
X100801544Y-124033216D01*
X100900147Y-123885646D01*
X101025646Y-123760147D01*
X101173216Y-123661544D01*
X101337188Y-123593624D01*
X101486488Y-123563927D01*
X101511258Y-123559000D01*
X101688742Y-123559000D01*
X101713512Y-123563927D01*
G37*
G36*
X121864928Y-124111764D02*
G01*
X121886009Y-124118160D01*
X121905445Y-124128548D01*
X121922476Y-124142524D01*
X121936452Y-124159555D01*
X121946840Y-124178991D01*
X121953236Y-124200072D01*
X121956000Y-124228140D01*
X121956000Y-124691860D01*
X121953236Y-124719928D01*
X121946840Y-124741009D01*
X121936452Y-124760445D01*
X121922476Y-124777476D01*
X121905445Y-124791452D01*
X121886009Y-124801840D01*
X121864928Y-124808236D01*
X121836860Y-124811000D01*
X120173140Y-124811000D01*
X120145072Y-124808236D01*
X120123991Y-124801840D01*
X120104555Y-124791452D01*
X120087524Y-124777476D01*
X120073548Y-124760445D01*
X120063160Y-124741009D01*
X120056764Y-124719928D01*
X120054000Y-124691860D01*
X120054000Y-124228140D01*
X120056764Y-124200072D01*
X120063160Y-124178991D01*
X120073548Y-124159555D01*
X120087524Y-124142524D01*
X120104555Y-124128548D01*
X120123991Y-124118160D01*
X120145072Y-124111764D01*
X120173140Y-124109000D01*
X121836860Y-124109000D01*
X121864928Y-124111764D01*
G37*
G36*
X112264928Y-124111764D02*
G01*
X112286009Y-124118160D01*
X112305445Y-124128548D01*
X112322476Y-124142524D01*
X112336452Y-124159555D01*
X112346840Y-124178991D01*
X112353236Y-124200072D01*
X112356000Y-124228140D01*
X112356000Y-124691860D01*
X112353236Y-124719928D01*
X112346840Y-124741009D01*
X112336452Y-124760445D01*
X112322476Y-124777476D01*
X112305445Y-124791452D01*
X112286009Y-124801840D01*
X112264928Y-124808236D01*
X112236860Y-124811000D01*
X110573140Y-124811000D01*
X110545072Y-124808236D01*
X110523991Y-124801840D01*
X110504555Y-124791452D01*
X110487524Y-124777476D01*
X110473548Y-124760445D01*
X110463160Y-124741009D01*
X110456764Y-124719928D01*
X110454000Y-124691860D01*
X110454000Y-124228140D01*
X110456764Y-124200072D01*
X110463160Y-124178991D01*
X110473548Y-124159555D01*
X110487524Y-124142524D01*
X110504555Y-124128548D01*
X110523991Y-124118160D01*
X110545072Y-124111764D01*
X110573140Y-124109000D01*
X112236860Y-124109000D01*
X112264928Y-124111764D01*
G37*
G36*
X149903000Y-122539467D02*
G01*
X149905402Y-122563853D01*
X149912515Y-122587302D01*
X149924066Y-122608913D01*
X149939611Y-122627855D01*
X149983501Y-122671745D01*
X150072471Y-122804899D01*
X150133758Y-122952858D01*
X150165000Y-123109925D01*
X150165000Y-123270075D01*
X150133758Y-123427142D01*
X150072471Y-123575101D01*
X149983501Y-123708255D01*
X149870255Y-123821501D01*
X149737101Y-123910471D01*
X149589142Y-123971758D01*
X149432075Y-124003000D01*
X149271925Y-124003000D01*
X149114858Y-123971758D01*
X148966899Y-123910471D01*
X148833745Y-123821501D01*
X148720499Y-123708255D01*
X148631529Y-123575101D01*
X148570242Y-123427142D01*
X148539000Y-123270075D01*
X148539000Y-123109925D01*
X148570242Y-122952858D01*
X148631529Y-122804899D01*
X148720499Y-122671745D01*
X148764389Y-122627855D01*
X148779934Y-122608913D01*
X148791485Y-122587302D01*
X148798598Y-122563853D01*
X148801000Y-122539467D01*
X148801000Y-120239000D01*
X149903000Y-120239000D01*
X149903000Y-122539467D01*
G37*
G36*
X154983000Y-122539467D02*
G01*
X154985402Y-122563853D01*
X154992515Y-122587302D01*
X155004066Y-122608913D01*
X155019611Y-122627855D01*
X155063501Y-122671745D01*
X155152471Y-122804899D01*
X155213758Y-122952858D01*
X155245000Y-123109925D01*
X155245000Y-123270075D01*
X155213758Y-123427142D01*
X155152471Y-123575101D01*
X155063501Y-123708255D01*
X154950255Y-123821501D01*
X154817101Y-123910471D01*
X154669142Y-123971758D01*
X154512075Y-124003000D01*
X154351925Y-124003000D01*
X154194858Y-123971758D01*
X154046899Y-123910471D01*
X153913745Y-123821501D01*
X153800499Y-123708255D01*
X153711529Y-123575101D01*
X153650242Y-123427142D01*
X153619000Y-123270075D01*
X153619000Y-123109925D01*
X153650242Y-122952858D01*
X153711529Y-122804899D01*
X153800499Y-122671745D01*
X153844389Y-122627855D01*
X153859934Y-122608913D01*
X153871485Y-122587302D01*
X153878598Y-122563853D01*
X153881000Y-122539467D01*
X153881000Y-120239000D01*
X154983000Y-120239000D01*
X154983000Y-122539467D01*
G37*
G36*
X124028468Y-122910065D02*
G01*
X124067138Y-122921796D01*
X124102777Y-122940846D01*
X124134017Y-122966483D01*
X124159654Y-122997723D01*
X124178704Y-123033362D01*
X124190435Y-123072032D01*
X124195000Y-123118388D01*
X124195000Y-123769612D01*
X124190435Y-123815968D01*
X124178704Y-123854638D01*
X124159654Y-123890277D01*
X124134017Y-123921517D01*
X124102777Y-123947154D01*
X124067138Y-123966204D01*
X124028468Y-123977935D01*
X123982112Y-123982500D01*
X122905888Y-123982500D01*
X122859532Y-123977935D01*
X122820862Y-123966204D01*
X122785223Y-123947154D01*
X122753983Y-123921517D01*
X122728346Y-123890277D01*
X122709296Y-123854638D01*
X122697565Y-123815968D01*
X122693000Y-123769612D01*
X122693000Y-123118388D01*
X122697565Y-123072032D01*
X122709296Y-123033362D01*
X122728346Y-122997723D01*
X122753983Y-122966483D01*
X122785223Y-122940846D01*
X122820862Y-122921796D01*
X122859532Y-122910065D01*
X122905888Y-122905500D01*
X123982112Y-122905500D01*
X124028468Y-122910065D01*
G37*
G36*
X131903786Y-121402746D02*
G01*
X131934461Y-121412051D01*
X131962729Y-121427161D01*
X131987506Y-121447494D01*
X132007839Y-121472271D01*
X132022949Y-121500539D01*
X132032254Y-121531214D01*
X132036000Y-121569251D01*
X132036000Y-123580749D01*
X132032254Y-123618786D01*
X132022949Y-123649461D01*
X132007839Y-123677729D01*
X131987506Y-123702506D01*
X131962729Y-123722839D01*
X131934461Y-123737949D01*
X131903786Y-123747254D01*
X131865749Y-123751000D01*
X129754251Y-123751000D01*
X129716214Y-123747254D01*
X129685539Y-123737949D01*
X129657271Y-123722839D01*
X129632494Y-123702506D01*
X129612161Y-123677729D01*
X129597051Y-123649461D01*
X129587746Y-123618786D01*
X129584000Y-123580749D01*
X129584000Y-121569251D01*
X129587746Y-121531214D01*
X129597051Y-121500539D01*
X129612161Y-121472271D01*
X129632494Y-121447494D01*
X129657271Y-121427161D01*
X129685539Y-121412051D01*
X129716214Y-121402746D01*
X129754251Y-121399000D01*
X131865749Y-121399000D01*
X131903786Y-121402746D01*
G37*
G36*
X121864928Y-122841764D02*
G01*
X121886009Y-122848160D01*
X121905445Y-122858548D01*
X121922476Y-122872524D01*
X121936452Y-122889555D01*
X121946840Y-122908991D01*
X121953236Y-122930072D01*
X121956000Y-122958140D01*
X121956000Y-123421860D01*
X121953236Y-123449928D01*
X121946840Y-123471009D01*
X121936452Y-123490445D01*
X121922476Y-123507476D01*
X121905445Y-123521452D01*
X121886009Y-123531840D01*
X121864928Y-123538236D01*
X121836860Y-123541000D01*
X120173140Y-123541000D01*
X120145072Y-123538236D01*
X120123991Y-123531840D01*
X120104555Y-123521452D01*
X120087524Y-123507476D01*
X120073548Y-123490445D01*
X120063160Y-123471009D01*
X120056764Y-123449928D01*
X120054000Y-123421860D01*
X120054000Y-122958140D01*
X120056764Y-122930072D01*
X120063160Y-122908991D01*
X120073548Y-122889555D01*
X120087524Y-122872524D01*
X120104555Y-122858548D01*
X120123991Y-122848160D01*
X120145072Y-122841764D01*
X120173140Y-122839000D01*
X121836860Y-122839000D01*
X121864928Y-122841764D01*
G37*
G36*
X112264928Y-122841764D02*
G01*
X112286009Y-122848160D01*
X112305445Y-122858548D01*
X112322476Y-122872524D01*
X112336452Y-122889555D01*
X112346840Y-122908991D01*
X112353236Y-122930072D01*
X112356000Y-122958140D01*
X112356000Y-123421860D01*
X112353236Y-123449928D01*
X112346840Y-123471009D01*
X112336452Y-123490445D01*
X112322476Y-123507476D01*
X112305445Y-123521452D01*
X112286009Y-123531840D01*
X112264928Y-123538236D01*
X112236860Y-123541000D01*
X110573140Y-123541000D01*
X110545072Y-123538236D01*
X110523991Y-123531840D01*
X110504555Y-123521452D01*
X110487524Y-123507476D01*
X110473548Y-123490445D01*
X110463160Y-123471009D01*
X110456764Y-123449928D01*
X110454000Y-123421860D01*
X110454000Y-122958140D01*
X110456764Y-122930072D01*
X110463160Y-122908991D01*
X110473548Y-122889555D01*
X110487524Y-122872524D01*
X110504555Y-122858548D01*
X110523991Y-122848160D01*
X110545072Y-122841764D01*
X110573140Y-122839000D01*
X112236860Y-122839000D01*
X112264928Y-122841764D01*
G37*
G36*
X101713512Y-121023927D02*
G01*
X101862812Y-121053624D01*
X102026784Y-121121544D01*
X102174354Y-121220147D01*
X102299853Y-121345646D01*
X102398456Y-121493216D01*
X102466376Y-121657188D01*
X102501000Y-121831259D01*
X102501000Y-122008741D01*
X102466376Y-122182812D01*
X102398456Y-122346784D01*
X102299853Y-122494354D01*
X102174354Y-122619853D01*
X102026784Y-122718456D01*
X101862812Y-122786376D01*
X101713512Y-122816073D01*
X101688742Y-122821000D01*
X101511258Y-122821000D01*
X101486488Y-122816073D01*
X101337188Y-122786376D01*
X101173216Y-122718456D01*
X101025646Y-122619853D01*
X100900147Y-122494354D01*
X100801544Y-122346784D01*
X100733624Y-122182812D01*
X100699000Y-122008741D01*
X100699000Y-121831259D01*
X100733624Y-121657188D01*
X100801544Y-121493216D01*
X100900147Y-121345646D01*
X101025646Y-121220147D01*
X101173216Y-121121544D01*
X101337188Y-121053624D01*
X101486488Y-121023927D01*
X101511258Y-121019000D01*
X101688742Y-121019000D01*
X101713512Y-121023927D01*
G37*
G36*
X104253512Y-121023927D02*
G01*
X104402812Y-121053624D01*
X104566784Y-121121544D01*
X104714354Y-121220147D01*
X104839853Y-121345646D01*
X104938456Y-121493216D01*
X105006376Y-121657188D01*
X105041000Y-121831259D01*
X105041000Y-122008741D01*
X105006376Y-122182812D01*
X104938456Y-122346784D01*
X104839853Y-122494354D01*
X104714354Y-122619853D01*
X104566784Y-122718456D01*
X104402812Y-122786376D01*
X104253512Y-122816073D01*
X104228742Y-122821000D01*
X104051258Y-122821000D01*
X104026488Y-122816073D01*
X103877188Y-122786376D01*
X103713216Y-122718456D01*
X103565646Y-122619853D01*
X103440147Y-122494354D01*
X103341544Y-122346784D01*
X103273624Y-122182812D01*
X103239000Y-122008741D01*
X103239000Y-121831259D01*
X103273624Y-121657188D01*
X103341544Y-121493216D01*
X103440147Y-121345646D01*
X103565646Y-121220147D01*
X103713216Y-121121544D01*
X103877188Y-121053624D01*
X104026488Y-121023927D01*
X104051258Y-121019000D01*
X104228742Y-121019000D01*
X104253512Y-121023927D01*
G37*
G36*
X121864928Y-121571764D02*
G01*
X121886009Y-121578160D01*
X121905445Y-121588548D01*
X121922476Y-121602524D01*
X121936452Y-121619555D01*
X121946840Y-121638991D01*
X121953236Y-121660072D01*
X121956000Y-121688140D01*
X121956000Y-122151860D01*
X121953236Y-122179928D01*
X121946840Y-122201009D01*
X121936452Y-122220445D01*
X121922476Y-122237476D01*
X121905445Y-122251452D01*
X121886009Y-122261840D01*
X121864928Y-122268236D01*
X121836860Y-122271000D01*
X120173140Y-122271000D01*
X120145072Y-122268236D01*
X120123991Y-122261840D01*
X120104555Y-122251452D01*
X120087524Y-122237476D01*
X120073548Y-122220445D01*
X120063160Y-122201009D01*
X120056764Y-122179928D01*
X120054000Y-122151860D01*
X120054000Y-121688140D01*
X120056764Y-121660072D01*
X120063160Y-121638991D01*
X120073548Y-121619555D01*
X120087524Y-121602524D01*
X120104555Y-121588548D01*
X120123991Y-121578160D01*
X120145072Y-121571764D01*
X120173140Y-121569000D01*
X121836860Y-121569000D01*
X121864928Y-121571764D01*
G37*
G36*
X112264928Y-121571764D02*
G01*
X112286009Y-121578160D01*
X112305445Y-121588548D01*
X112322476Y-121602524D01*
X112336452Y-121619555D01*
X112346840Y-121638991D01*
X112353236Y-121660072D01*
X112356000Y-121688140D01*
X112356000Y-122151860D01*
X112353236Y-122179928D01*
X112346840Y-122201009D01*
X112336452Y-122220445D01*
X112322476Y-122237476D01*
X112305445Y-122251452D01*
X112286009Y-122261840D01*
X112264928Y-122268236D01*
X112236860Y-122271000D01*
X110573140Y-122271000D01*
X110545072Y-122268236D01*
X110523991Y-122261840D01*
X110504555Y-122251452D01*
X110487524Y-122237476D01*
X110473548Y-122220445D01*
X110463160Y-122201009D01*
X110456764Y-122179928D01*
X110454000Y-122151860D01*
X110454000Y-121688140D01*
X110456764Y-121660072D01*
X110463160Y-121638991D01*
X110473548Y-121619555D01*
X110487524Y-121602524D01*
X110504555Y-121588548D01*
X110523991Y-121578160D01*
X110545072Y-121571764D01*
X110573140Y-121569000D01*
X112236860Y-121569000D01*
X112264928Y-121571764D01*
G37*
G36*
X127976968Y-120538565D02*
G01*
X128015638Y-120550296D01*
X128051277Y-120569346D01*
X128082517Y-120594983D01*
X128108154Y-120626223D01*
X128127204Y-120661862D01*
X128138935Y-120700532D01*
X128143500Y-120746888D01*
X128143500Y-121823112D01*
X128138935Y-121869468D01*
X128127204Y-121908138D01*
X128108154Y-121943777D01*
X128082517Y-121975017D01*
X128051277Y-122000654D01*
X128015638Y-122019704D01*
X127976968Y-122031435D01*
X127930612Y-122036000D01*
X127279388Y-122036000D01*
X127233032Y-122031435D01*
X127194362Y-122019704D01*
X127158723Y-122000654D01*
X127127483Y-121975017D01*
X127101846Y-121943777D01*
X127082796Y-121908138D01*
X127071065Y-121869468D01*
X127066500Y-121823112D01*
X127066500Y-120746888D01*
X127071065Y-120700532D01*
X127082796Y-120661862D01*
X127101846Y-120626223D01*
X127127483Y-120594983D01*
X127158723Y-120569346D01*
X127194362Y-120550296D01*
X127233032Y-120538565D01*
X127279388Y-120534000D01*
X127930612Y-120534000D01*
X127976968Y-120538565D01*
G37*
G36*
X126101968Y-120538565D02*
G01*
X126140638Y-120550296D01*
X126176277Y-120569346D01*
X126207517Y-120594983D01*
X126233154Y-120626223D01*
X126252204Y-120661862D01*
X126263935Y-120700532D01*
X126268500Y-120746888D01*
X126268500Y-121823112D01*
X126263935Y-121869468D01*
X126252204Y-121908138D01*
X126233154Y-121943777D01*
X126207517Y-121975017D01*
X126176277Y-122000654D01*
X126140638Y-122019704D01*
X126101968Y-122031435D01*
X126055612Y-122036000D01*
X125404388Y-122036000D01*
X125358032Y-122031435D01*
X125319362Y-122019704D01*
X125283723Y-122000654D01*
X125252483Y-121975017D01*
X125226846Y-121943777D01*
X125207796Y-121908138D01*
X125196065Y-121869468D01*
X125191500Y-121823112D01*
X125191500Y-120746888D01*
X125196065Y-120700532D01*
X125207796Y-120661862D01*
X125226846Y-120626223D01*
X125252483Y-120594983D01*
X125283723Y-120569346D01*
X125319362Y-120550296D01*
X125358032Y-120538565D01*
X125404388Y-120534000D01*
X126055612Y-120534000D01*
X126101968Y-120538565D01*
G37*
G36*
X134569468Y-120146065D02*
G01*
X134608138Y-120157796D01*
X134643777Y-120176846D01*
X134675017Y-120202483D01*
X134700654Y-120233723D01*
X134719704Y-120269362D01*
X134731435Y-120308032D01*
X134736000Y-120354388D01*
X134736000Y-121005612D01*
X134731435Y-121051968D01*
X134719704Y-121090638D01*
X134700654Y-121126277D01*
X134675017Y-121157517D01*
X134643777Y-121183154D01*
X134608138Y-121202204D01*
X134569468Y-121213935D01*
X134523112Y-121218500D01*
X133446888Y-121218500D01*
X133400532Y-121213935D01*
X133361862Y-121202204D01*
X133326223Y-121183154D01*
X133294983Y-121157517D01*
X133269346Y-121126277D01*
X133250296Y-121090638D01*
X133238565Y-121051968D01*
X133234000Y-121005612D01*
X133234000Y-120354388D01*
X133238565Y-120308032D01*
X133250296Y-120269362D01*
X133269346Y-120233723D01*
X133294983Y-120202483D01*
X133326223Y-120176846D01*
X133361862Y-120157796D01*
X133400532Y-120146065D01*
X133446888Y-120141500D01*
X134523112Y-120141500D01*
X134569468Y-120146065D01*
G37*
G36*
X112264928Y-120301764D02*
G01*
X112286009Y-120308160D01*
X112305445Y-120318548D01*
X112322476Y-120332524D01*
X112336452Y-120349555D01*
X112346840Y-120368991D01*
X112353236Y-120390072D01*
X112356000Y-120418140D01*
X112356000Y-120881860D01*
X112353236Y-120909928D01*
X112346840Y-120931009D01*
X112336452Y-120950445D01*
X112322476Y-120967476D01*
X112305445Y-120981452D01*
X112286009Y-120991840D01*
X112264928Y-120998236D01*
X112236860Y-121001000D01*
X110573140Y-121001000D01*
X110545072Y-120998236D01*
X110523991Y-120991840D01*
X110504555Y-120981452D01*
X110487524Y-120967476D01*
X110473548Y-120950445D01*
X110463160Y-120931009D01*
X110456764Y-120909928D01*
X110454000Y-120881860D01*
X110454000Y-120418140D01*
X110456764Y-120390072D01*
X110463160Y-120368991D01*
X110473548Y-120349555D01*
X110487524Y-120332524D01*
X110504555Y-120318548D01*
X110523991Y-120308160D01*
X110545072Y-120301764D01*
X110573140Y-120299000D01*
X112236860Y-120299000D01*
X112264928Y-120301764D01*
G37*
G36*
X121864928Y-120301764D02*
G01*
X121886009Y-120308160D01*
X121905445Y-120318548D01*
X121922476Y-120332524D01*
X121936452Y-120349555D01*
X121946840Y-120368991D01*
X121953236Y-120390072D01*
X121956000Y-120418140D01*
X121956000Y-120881860D01*
X121953236Y-120909928D01*
X121946840Y-120931009D01*
X121936452Y-120950445D01*
X121922476Y-120967476D01*
X121905445Y-120981452D01*
X121886009Y-120991840D01*
X121864928Y-120998236D01*
X121836860Y-121001000D01*
X120173140Y-121001000D01*
X120145072Y-120998236D01*
X120123991Y-120991840D01*
X120104555Y-120981452D01*
X120087524Y-120967476D01*
X120073548Y-120950445D01*
X120063160Y-120931009D01*
X120056764Y-120909928D01*
X120054000Y-120881860D01*
X120054000Y-120418140D01*
X120056764Y-120390072D01*
X120063160Y-120368991D01*
X120073548Y-120349555D01*
X120087524Y-120332524D01*
X120104555Y-120318548D01*
X120123991Y-120308160D01*
X120145072Y-120301764D01*
X120173140Y-120299000D01*
X121836860Y-120299000D01*
X121864928Y-120301764D01*
G37*
G36*
X101709967Y-118483222D02*
G01*
X101862812Y-118513624D01*
X102026784Y-118581544D01*
X102174354Y-118680147D01*
X102299853Y-118805646D01*
X102398456Y-118953216D01*
X102466376Y-119117188D01*
X102501000Y-119291259D01*
X102501000Y-119468741D01*
X102466376Y-119642812D01*
X102398456Y-119806784D01*
X102299853Y-119954354D01*
X102174354Y-120079853D01*
X102026784Y-120178456D01*
X101862812Y-120246376D01*
X101713512Y-120276073D01*
X101688742Y-120281000D01*
X101511258Y-120281000D01*
X101486488Y-120276073D01*
X101337188Y-120246376D01*
X101173216Y-120178456D01*
X101025646Y-120079853D01*
X100900147Y-119954354D01*
X100801544Y-119806784D01*
X100733624Y-119642812D01*
X100699000Y-119468741D01*
X100699000Y-119291259D01*
X100733624Y-119117188D01*
X100801544Y-118953216D01*
X100900147Y-118805646D01*
X101025646Y-118680147D01*
X101173216Y-118581544D01*
X101337188Y-118513624D01*
X101490033Y-118483222D01*
X101511258Y-118479000D01*
X101688742Y-118479000D01*
X101709967Y-118483222D01*
G37*
G36*
X104249967Y-118483222D02*
G01*
X104402812Y-118513624D01*
X104566784Y-118581544D01*
X104714354Y-118680147D01*
X104839853Y-118805646D01*
X104938456Y-118953216D01*
X105006376Y-119117188D01*
X105041000Y-119291259D01*
X105041000Y-119468741D01*
X105006376Y-119642812D01*
X104938456Y-119806784D01*
X104839853Y-119954354D01*
X104714354Y-120079853D01*
X104566784Y-120178456D01*
X104402812Y-120246376D01*
X104253512Y-120276073D01*
X104228742Y-120281000D01*
X104051258Y-120281000D01*
X104026488Y-120276073D01*
X103877188Y-120246376D01*
X103713216Y-120178456D01*
X103565646Y-120079853D01*
X103440147Y-119954354D01*
X103341544Y-119806784D01*
X103273624Y-119642812D01*
X103239000Y-119468741D01*
X103239000Y-119291259D01*
X103273624Y-119117188D01*
X103341544Y-118953216D01*
X103440147Y-118805646D01*
X103565646Y-118680147D01*
X103713216Y-118581544D01*
X103877188Y-118513624D01*
X104030033Y-118483222D01*
X104051258Y-118479000D01*
X104228742Y-118479000D01*
X104249967Y-118483222D01*
G37*
G36*
X139777786Y-117719746D02*
G01*
X139808461Y-117729051D01*
X139836729Y-117744161D01*
X139861506Y-117764494D01*
X139881839Y-117789271D01*
X139896949Y-117817539D01*
X139906254Y-117848214D01*
X139910000Y-117886251D01*
X139910000Y-119897749D01*
X139906254Y-119935786D01*
X139896949Y-119966461D01*
X139881839Y-119994729D01*
X139861506Y-120019506D01*
X139836729Y-120039839D01*
X139808461Y-120054949D01*
X139777786Y-120064254D01*
X139739749Y-120068000D01*
X137628251Y-120068000D01*
X137590214Y-120064254D01*
X137559539Y-120054949D01*
X137531271Y-120039839D01*
X137506494Y-120019506D01*
X137486161Y-119994729D01*
X137471051Y-119966461D01*
X137461746Y-119935786D01*
X137458000Y-119897749D01*
X137458000Y-117886251D01*
X137461746Y-117848214D01*
X137471051Y-117817539D01*
X137486161Y-117789271D01*
X137506494Y-117764494D01*
X137531271Y-117744161D01*
X137559539Y-117729051D01*
X137590214Y-117719746D01*
X137628251Y-117716000D01*
X139739749Y-117716000D01*
X139777786Y-117719746D01*
G37*
G36*
X112264928Y-119031764D02*
G01*
X112286009Y-119038160D01*
X112305445Y-119048548D01*
X112322476Y-119062524D01*
X112336452Y-119079555D01*
X112346840Y-119098991D01*
X112353236Y-119120072D01*
X112356000Y-119148140D01*
X112356000Y-119611860D01*
X112353236Y-119639928D01*
X112346840Y-119661009D01*
X112336452Y-119680445D01*
X112322476Y-119697476D01*
X112305445Y-119711452D01*
X112286009Y-119721840D01*
X112264928Y-119728236D01*
X112236860Y-119731000D01*
X110573140Y-119731000D01*
X110545072Y-119728236D01*
X110523991Y-119721840D01*
X110504555Y-119711452D01*
X110487524Y-119697476D01*
X110473548Y-119680445D01*
X110463160Y-119661009D01*
X110456764Y-119639928D01*
X110454000Y-119611860D01*
X110454000Y-119148140D01*
X110456764Y-119120072D01*
X110463160Y-119098991D01*
X110473548Y-119079555D01*
X110487524Y-119062524D01*
X110504555Y-119048548D01*
X110523991Y-119038160D01*
X110545072Y-119031764D01*
X110573140Y-119029000D01*
X112236860Y-119029000D01*
X112264928Y-119031764D01*
G37*
G36*
X121864928Y-119031764D02*
G01*
X121886009Y-119038160D01*
X121905445Y-119048548D01*
X121922476Y-119062524D01*
X121936452Y-119079555D01*
X121946840Y-119098991D01*
X121953236Y-119120072D01*
X121956000Y-119148140D01*
X121956000Y-119611860D01*
X121953236Y-119639928D01*
X121946840Y-119661009D01*
X121936452Y-119680445D01*
X121922476Y-119697476D01*
X121905445Y-119711452D01*
X121886009Y-119721840D01*
X121864928Y-119728236D01*
X121836860Y-119731000D01*
X120173140Y-119731000D01*
X120145072Y-119728236D01*
X120123991Y-119721840D01*
X120104555Y-119711452D01*
X120087524Y-119697476D01*
X120073548Y-119680445D01*
X120063160Y-119661009D01*
X120056764Y-119639928D01*
X120054000Y-119611860D01*
X120054000Y-119148140D01*
X120056764Y-119120072D01*
X120063160Y-119098991D01*
X120073548Y-119079555D01*
X120087524Y-119062524D01*
X120104555Y-119048548D01*
X120123991Y-119038160D01*
X120145072Y-119031764D01*
X120173140Y-119029000D01*
X121836860Y-119029000D01*
X121864928Y-119031764D01*
G37*
G36*
X126131968Y-117998565D02*
G01*
X126170638Y-118010296D01*
X126206277Y-118029346D01*
X126237517Y-118054983D01*
X126263154Y-118086223D01*
X126282204Y-118121862D01*
X126293935Y-118160532D01*
X126298500Y-118206888D01*
X126298500Y-119283112D01*
X126293935Y-119329468D01*
X126282204Y-119368138D01*
X126263154Y-119403777D01*
X126237517Y-119435017D01*
X126206277Y-119460654D01*
X126170638Y-119479704D01*
X126131968Y-119491435D01*
X126085612Y-119496000D01*
X125434388Y-119496000D01*
X125388032Y-119491435D01*
X125349362Y-119479704D01*
X125313723Y-119460654D01*
X125282483Y-119435017D01*
X125256846Y-119403777D01*
X125237796Y-119368138D01*
X125226065Y-119329468D01*
X125221500Y-119283112D01*
X125221500Y-118206888D01*
X125226065Y-118160532D01*
X125237796Y-118121862D01*
X125256846Y-118086223D01*
X125282483Y-118054983D01*
X125313723Y-118029346D01*
X125349362Y-118010296D01*
X125388032Y-117998565D01*
X125434388Y-117994000D01*
X126085612Y-117994000D01*
X126131968Y-117998565D01*
G37*
G36*
X128006968Y-117998565D02*
G01*
X128045638Y-118010296D01*
X128081277Y-118029346D01*
X128112517Y-118054983D01*
X128138154Y-118086223D01*
X128157204Y-118121862D01*
X128168935Y-118160532D01*
X128173500Y-118206888D01*
X128173500Y-119283112D01*
X128168935Y-119329468D01*
X128157204Y-119368138D01*
X128138154Y-119403777D01*
X128112517Y-119435017D01*
X128081277Y-119460654D01*
X128045638Y-119479704D01*
X128006968Y-119491435D01*
X127960612Y-119496000D01*
X127309388Y-119496000D01*
X127263032Y-119491435D01*
X127224362Y-119479704D01*
X127188723Y-119460654D01*
X127157483Y-119435017D01*
X127131846Y-119403777D01*
X127112796Y-119368138D01*
X127101065Y-119329468D01*
X127096500Y-119283112D01*
X127096500Y-118206888D01*
X127101065Y-118160532D01*
X127112796Y-118121862D01*
X127131846Y-118086223D01*
X127157483Y-118054983D01*
X127188723Y-118029346D01*
X127224362Y-118010296D01*
X127263032Y-117998565D01*
X127309388Y-117994000D01*
X127960612Y-117994000D01*
X128006968Y-117998565D01*
G37*
G36*
X134569468Y-118271065D02*
G01*
X134608138Y-118282796D01*
X134643777Y-118301846D01*
X134675017Y-118327483D01*
X134700654Y-118358723D01*
X134719704Y-118394362D01*
X134731435Y-118433032D01*
X134736000Y-118479388D01*
X134736000Y-119130612D01*
X134731435Y-119176968D01*
X134719704Y-119215638D01*
X134700654Y-119251277D01*
X134675017Y-119282517D01*
X134643777Y-119308154D01*
X134608138Y-119327204D01*
X134569468Y-119338935D01*
X134523112Y-119343500D01*
X133446888Y-119343500D01*
X133400532Y-119338935D01*
X133361862Y-119327204D01*
X133326223Y-119308154D01*
X133294983Y-119282517D01*
X133269346Y-119251277D01*
X133250296Y-119215638D01*
X133238565Y-119176968D01*
X133234000Y-119130612D01*
X133234000Y-118479388D01*
X133238565Y-118433032D01*
X133250296Y-118394362D01*
X133269346Y-118358723D01*
X133294983Y-118327483D01*
X133326223Y-118301846D01*
X133361862Y-118282796D01*
X133400532Y-118271065D01*
X133446888Y-118266500D01*
X134523112Y-118266500D01*
X134569468Y-118271065D01*
G37*
G36*
X131903786Y-116302746D02*
G01*
X131934461Y-116312051D01*
X131962729Y-116327161D01*
X131987506Y-116347494D01*
X132007839Y-116372271D01*
X132022949Y-116400539D01*
X132032254Y-116431214D01*
X132036000Y-116469251D01*
X132036000Y-118480749D01*
X132032254Y-118518786D01*
X132022949Y-118549461D01*
X132007839Y-118577729D01*
X131987506Y-118602506D01*
X131962729Y-118622839D01*
X131934461Y-118637949D01*
X131903786Y-118647254D01*
X131865749Y-118651000D01*
X129754251Y-118651000D01*
X129716214Y-118647254D01*
X129685539Y-118637949D01*
X129657271Y-118622839D01*
X129632494Y-118602506D01*
X129612161Y-118577729D01*
X129597051Y-118549461D01*
X129587746Y-118518786D01*
X129584000Y-118480749D01*
X129584000Y-116469251D01*
X129587746Y-116431214D01*
X129597051Y-116400539D01*
X129612161Y-116372271D01*
X129632494Y-116347494D01*
X129657271Y-116327161D01*
X129685539Y-116312051D01*
X129716214Y-116302746D01*
X129754251Y-116299000D01*
X131865749Y-116299000D01*
X131903786Y-116302746D01*
G37*
G36*
X112264928Y-117761764D02*
G01*
X112286009Y-117768160D01*
X112305445Y-117778548D01*
X112322476Y-117792524D01*
X112336452Y-117809555D01*
X112346840Y-117828991D01*
X112353236Y-117850072D01*
X112356000Y-117878140D01*
X112356000Y-118341860D01*
X112353236Y-118369928D01*
X112346840Y-118391009D01*
X112336452Y-118410445D01*
X112322476Y-118427476D01*
X112305445Y-118441452D01*
X112286009Y-118451840D01*
X112264928Y-118458236D01*
X112236860Y-118461000D01*
X110573140Y-118461000D01*
X110545072Y-118458236D01*
X110523991Y-118451840D01*
X110504555Y-118441452D01*
X110487524Y-118427476D01*
X110473548Y-118410445D01*
X110463160Y-118391009D01*
X110456764Y-118369928D01*
X110454000Y-118341860D01*
X110454000Y-117878140D01*
X110456764Y-117850072D01*
X110463160Y-117828991D01*
X110473548Y-117809555D01*
X110487524Y-117792524D01*
X110504555Y-117778548D01*
X110523991Y-117768160D01*
X110545072Y-117761764D01*
X110573140Y-117759000D01*
X112236860Y-117759000D01*
X112264928Y-117761764D01*
G37*
G36*
X121864928Y-117761764D02*
G01*
X121886009Y-117768160D01*
X121905445Y-117778548D01*
X121922476Y-117792524D01*
X121936452Y-117809555D01*
X121946840Y-117828991D01*
X121953236Y-117850072D01*
X121956000Y-117878140D01*
X121956000Y-118341860D01*
X121953236Y-118369928D01*
X121946840Y-118391009D01*
X121936452Y-118410445D01*
X121922476Y-118427476D01*
X121905445Y-118441452D01*
X121886009Y-118451840D01*
X121864928Y-118458236D01*
X121836860Y-118461000D01*
X120173140Y-118461000D01*
X120145072Y-118458236D01*
X120123991Y-118451840D01*
X120104555Y-118441452D01*
X120087524Y-118427476D01*
X120073548Y-118410445D01*
X120063160Y-118391009D01*
X120056764Y-118369928D01*
X120054000Y-118341860D01*
X120054000Y-117878140D01*
X120056764Y-117850072D01*
X120063160Y-117828991D01*
X120073548Y-117809555D01*
X120087524Y-117792524D01*
X120104555Y-117778548D01*
X120123991Y-117768160D01*
X120145072Y-117761764D01*
X120173140Y-117759000D01*
X121836860Y-117759000D01*
X121864928Y-117761764D01*
G37*
G36*
X104253512Y-115943927D02*
G01*
X104402812Y-115973624D01*
X104566784Y-116041544D01*
X104714354Y-116140147D01*
X104839853Y-116265646D01*
X104938456Y-116413216D01*
X105006376Y-116577188D01*
X105041000Y-116751259D01*
X105041000Y-116928741D01*
X105006376Y-117102812D01*
X104938456Y-117266784D01*
X104839853Y-117414354D01*
X104714354Y-117539853D01*
X104566784Y-117638456D01*
X104402812Y-117706376D01*
X104254416Y-117735893D01*
X104228742Y-117741000D01*
X104051258Y-117741000D01*
X104025584Y-117735893D01*
X103877188Y-117706376D01*
X103713216Y-117638456D01*
X103565646Y-117539853D01*
X103440147Y-117414354D01*
X103341544Y-117266784D01*
X103273624Y-117102812D01*
X103239000Y-116928741D01*
X103239000Y-116751259D01*
X103273624Y-116577188D01*
X103341544Y-116413216D01*
X103440147Y-116265646D01*
X103565646Y-116140147D01*
X103713216Y-116041544D01*
X103877188Y-115973624D01*
X104026488Y-115943927D01*
X104051258Y-115939000D01*
X104228742Y-115939000D01*
X104253512Y-115943927D01*
G37*
G36*
X101713512Y-115943927D02*
G01*
X101862812Y-115973624D01*
X102026784Y-116041544D01*
X102174354Y-116140147D01*
X102299853Y-116265646D01*
X102398456Y-116413216D01*
X102466376Y-116577188D01*
X102501000Y-116751259D01*
X102501000Y-116928741D01*
X102466376Y-117102812D01*
X102398456Y-117266784D01*
X102299853Y-117414354D01*
X102174354Y-117539853D01*
X102026784Y-117638456D01*
X101862812Y-117706376D01*
X101714416Y-117735893D01*
X101688742Y-117741000D01*
X101511258Y-117741000D01*
X101485584Y-117735893D01*
X101337188Y-117706376D01*
X101173216Y-117638456D01*
X101025646Y-117539853D01*
X100900147Y-117414354D01*
X100801544Y-117266784D01*
X100733624Y-117102812D01*
X100699000Y-116928741D01*
X100699000Y-116751259D01*
X100733624Y-116577188D01*
X100801544Y-116413216D01*
X100900147Y-116265646D01*
X101025646Y-116140147D01*
X101173216Y-116041544D01*
X101337188Y-115973624D01*
X101486488Y-115943927D01*
X101511258Y-115939000D01*
X101688742Y-115939000D01*
X101713512Y-115943927D01*
G37*
G36*
X121864928Y-116491764D02*
G01*
X121886009Y-116498160D01*
X121905445Y-116508548D01*
X121922476Y-116522524D01*
X121936452Y-116539555D01*
X121946840Y-116558991D01*
X121953236Y-116580072D01*
X121956000Y-116608140D01*
X121956000Y-117071860D01*
X121953236Y-117099928D01*
X121946840Y-117121009D01*
X121936452Y-117140445D01*
X121922476Y-117157476D01*
X121905445Y-117171452D01*
X121886009Y-117181840D01*
X121864928Y-117188236D01*
X121836860Y-117191000D01*
X120173140Y-117191000D01*
X120145072Y-117188236D01*
X120123991Y-117181840D01*
X120104555Y-117171452D01*
X120087524Y-117157476D01*
X120073548Y-117140445D01*
X120063160Y-117121009D01*
X120056764Y-117099928D01*
X120054000Y-117071860D01*
X120054000Y-116608140D01*
X120056764Y-116580072D01*
X120063160Y-116558991D01*
X120073548Y-116539555D01*
X120087524Y-116522524D01*
X120104555Y-116508548D01*
X120123991Y-116498160D01*
X120145072Y-116491764D01*
X120173140Y-116489000D01*
X121836860Y-116489000D01*
X121864928Y-116491764D01*
G37*
G36*
X112264928Y-116491764D02*
G01*
X112286009Y-116498160D01*
X112305445Y-116508548D01*
X112322476Y-116522524D01*
X112336452Y-116539555D01*
X112346840Y-116558991D01*
X112353236Y-116580072D01*
X112356000Y-116608140D01*
X112356000Y-117071860D01*
X112353236Y-117099928D01*
X112346840Y-117121009D01*
X112336452Y-117140445D01*
X112322476Y-117157476D01*
X112305445Y-117171452D01*
X112286009Y-117181840D01*
X112264928Y-117188236D01*
X112236860Y-117191000D01*
X110573140Y-117191000D01*
X110545072Y-117188236D01*
X110523991Y-117181840D01*
X110504555Y-117171452D01*
X110487524Y-117157476D01*
X110473548Y-117140445D01*
X110463160Y-117121009D01*
X110456764Y-117099928D01*
X110454000Y-117071860D01*
X110454000Y-116608140D01*
X110456764Y-116580072D01*
X110463160Y-116558991D01*
X110473548Y-116539555D01*
X110487524Y-116522524D01*
X110504555Y-116508548D01*
X110523991Y-116498160D01*
X110545072Y-116491764D01*
X110573140Y-116489000D01*
X112236860Y-116489000D01*
X112264928Y-116491764D01*
G37*
G36*
X124529468Y-115458565D02*
G01*
X124568138Y-115470296D01*
X124603777Y-115489346D01*
X124635017Y-115514983D01*
X124660654Y-115546223D01*
X124679704Y-115581862D01*
X124691435Y-115620532D01*
X124696000Y-115666888D01*
X124696000Y-116743112D01*
X124691435Y-116789468D01*
X124679704Y-116828138D01*
X124660654Y-116863777D01*
X124635017Y-116895017D01*
X124603777Y-116920654D01*
X124568138Y-116939704D01*
X124529468Y-116951435D01*
X124483112Y-116956000D01*
X123831888Y-116956000D01*
X123785532Y-116951435D01*
X123746862Y-116939704D01*
X123711223Y-116920654D01*
X123679983Y-116895017D01*
X123654346Y-116863777D01*
X123635296Y-116828138D01*
X123623565Y-116789468D01*
X123619000Y-116743112D01*
X123619000Y-115666888D01*
X123623565Y-115620532D01*
X123635296Y-115581862D01*
X123654346Y-115546223D01*
X123679983Y-115514983D01*
X123711223Y-115489346D01*
X123746862Y-115470296D01*
X123785532Y-115458565D01*
X123831888Y-115454000D01*
X124483112Y-115454000D01*
X124529468Y-115458565D01*
G37*
G36*
X126404468Y-115458565D02*
G01*
X126443138Y-115470296D01*
X126478777Y-115489346D01*
X126510017Y-115514983D01*
X126535654Y-115546223D01*
X126554704Y-115581862D01*
X126566435Y-115620532D01*
X126571000Y-115666888D01*
X126571000Y-116743112D01*
X126566435Y-116789468D01*
X126554704Y-116828138D01*
X126535654Y-116863777D01*
X126510017Y-116895017D01*
X126478777Y-116920654D01*
X126443138Y-116939704D01*
X126404468Y-116951435D01*
X126358112Y-116956000D01*
X125706888Y-116956000D01*
X125660532Y-116951435D01*
X125621862Y-116939704D01*
X125586223Y-116920654D01*
X125554983Y-116895017D01*
X125529346Y-116863777D01*
X125510296Y-116828138D01*
X125498565Y-116789468D01*
X125494000Y-116743112D01*
X125494000Y-115666888D01*
X125498565Y-115620532D01*
X125510296Y-115581862D01*
X125529346Y-115546223D01*
X125554983Y-115514983D01*
X125586223Y-115489346D01*
X125621862Y-115470296D01*
X125660532Y-115458565D01*
X125706888Y-115454000D01*
X126358112Y-115454000D01*
X126404468Y-115458565D01*
G37*
G36*
X121864928Y-115221764D02*
G01*
X121886009Y-115228160D01*
X121905445Y-115238548D01*
X121922476Y-115252524D01*
X121936452Y-115269555D01*
X121946840Y-115288991D01*
X121953236Y-115310072D01*
X121956000Y-115338140D01*
X121956000Y-115801860D01*
X121953236Y-115829928D01*
X121946840Y-115851009D01*
X121936452Y-115870445D01*
X121922476Y-115887476D01*
X121905445Y-115901452D01*
X121886009Y-115911840D01*
X121864928Y-115918236D01*
X121836860Y-115921000D01*
X120173140Y-115921000D01*
X120145072Y-115918236D01*
X120123991Y-115911840D01*
X120104555Y-115901452D01*
X120087524Y-115887476D01*
X120073548Y-115870445D01*
X120063160Y-115851009D01*
X120056764Y-115829928D01*
X120054000Y-115801860D01*
X120054000Y-115338140D01*
X120056764Y-115310072D01*
X120063160Y-115288991D01*
X120073548Y-115269555D01*
X120087524Y-115252524D01*
X120104555Y-115238548D01*
X120123991Y-115228160D01*
X120145072Y-115221764D01*
X120173140Y-115219000D01*
X121836860Y-115219000D01*
X121864928Y-115221764D01*
G37*
G36*
X112264928Y-115221764D02*
G01*
X112286009Y-115228160D01*
X112305445Y-115238548D01*
X112322476Y-115252524D01*
X112336452Y-115269555D01*
X112346840Y-115288991D01*
X112353236Y-115310072D01*
X112356000Y-115338140D01*
X112356000Y-115801860D01*
X112353236Y-115829928D01*
X112346840Y-115851009D01*
X112336452Y-115870445D01*
X112322476Y-115887476D01*
X112305445Y-115901452D01*
X112286009Y-115911840D01*
X112264928Y-115918236D01*
X112236860Y-115921000D01*
X110573140Y-115921000D01*
X110545072Y-115918236D01*
X110523991Y-115911840D01*
X110504555Y-115901452D01*
X110487524Y-115887476D01*
X110473548Y-115870445D01*
X110463160Y-115851009D01*
X110456764Y-115829928D01*
X110454000Y-115801860D01*
X110454000Y-115338140D01*
X110456764Y-115310072D01*
X110463160Y-115288991D01*
X110473548Y-115269555D01*
X110487524Y-115252524D01*
X110504555Y-115238548D01*
X110523991Y-115228160D01*
X110545072Y-115221764D01*
X110573140Y-115219000D01*
X112236860Y-115219000D01*
X112264928Y-115221764D01*
G37*
G36*
X104253512Y-113403927D02*
G01*
X104402812Y-113433624D01*
X104566784Y-113501544D01*
X104714354Y-113600147D01*
X104839853Y-113725646D01*
X104938456Y-113873216D01*
X105006376Y-114037188D01*
X105041000Y-114211259D01*
X105041000Y-114388741D01*
X105006376Y-114562812D01*
X104938456Y-114726784D01*
X104839853Y-114874354D01*
X104714354Y-114999853D01*
X104566784Y-115098456D01*
X104402812Y-115166376D01*
X104253512Y-115196073D01*
X104228742Y-115201000D01*
X104051258Y-115201000D01*
X104026488Y-115196073D01*
X103877188Y-115166376D01*
X103713216Y-115098456D01*
X103565646Y-114999853D01*
X103440147Y-114874354D01*
X103341544Y-114726784D01*
X103273624Y-114562812D01*
X103239000Y-114388741D01*
X103239000Y-114211259D01*
X103273624Y-114037188D01*
X103341544Y-113873216D01*
X103440147Y-113725646D01*
X103565646Y-113600147D01*
X103713216Y-113501544D01*
X103877188Y-113433624D01*
X104026488Y-113403927D01*
X104051258Y-113399000D01*
X104228742Y-113399000D01*
X104253512Y-113403927D01*
G37*
G36*
X101713512Y-113403927D02*
G01*
X101862812Y-113433624D01*
X102026784Y-113501544D01*
X102174354Y-113600147D01*
X102299853Y-113725646D01*
X102398456Y-113873216D01*
X102466376Y-114037188D01*
X102501000Y-114211259D01*
X102501000Y-114388741D01*
X102466376Y-114562812D01*
X102398456Y-114726784D01*
X102299853Y-114874354D01*
X102174354Y-114999853D01*
X102026784Y-115098456D01*
X101862812Y-115166376D01*
X101713512Y-115196073D01*
X101688742Y-115201000D01*
X101511258Y-115201000D01*
X101486488Y-115196073D01*
X101337188Y-115166376D01*
X101173216Y-115098456D01*
X101025646Y-114999853D01*
X100900147Y-114874354D01*
X100801544Y-114726784D01*
X100733624Y-114562812D01*
X100699000Y-114388741D01*
X100699000Y-114211259D01*
X100733624Y-114037188D01*
X100801544Y-113873216D01*
X100900147Y-113725646D01*
X101025646Y-113600147D01*
X101173216Y-113501544D01*
X101337188Y-113433624D01*
X101486488Y-113403927D01*
X101511258Y-113399000D01*
X101688742Y-113399000D01*
X101713512Y-113403927D01*
G37*
G36*
X126355968Y-113553565D02*
G01*
X126394638Y-113565296D01*
X126430277Y-113584346D01*
X126461517Y-113609983D01*
X126487154Y-113641223D01*
X126506204Y-113676862D01*
X126517935Y-113715532D01*
X126522500Y-113761888D01*
X126522500Y-114838112D01*
X126517935Y-114884468D01*
X126506204Y-114923138D01*
X126487154Y-114958777D01*
X126461517Y-114990017D01*
X126430277Y-115015654D01*
X126394638Y-115034704D01*
X126355968Y-115046435D01*
X126309612Y-115051000D01*
X125658388Y-115051000D01*
X125612032Y-115046435D01*
X125573362Y-115034704D01*
X125537723Y-115015654D01*
X125506483Y-114990017D01*
X125480846Y-114958777D01*
X125461796Y-114923138D01*
X125450065Y-114884468D01*
X125445500Y-114838112D01*
X125445500Y-113761888D01*
X125450065Y-113715532D01*
X125461796Y-113676862D01*
X125480846Y-113641223D01*
X125506483Y-113609983D01*
X125537723Y-113584346D01*
X125573362Y-113565296D01*
X125612032Y-113553565D01*
X125658388Y-113549000D01*
X126309612Y-113549000D01*
X126355968Y-113553565D01*
G37*
G36*
X124480968Y-113553565D02*
G01*
X124519638Y-113565296D01*
X124555277Y-113584346D01*
X124586517Y-113609983D01*
X124612154Y-113641223D01*
X124631204Y-113676862D01*
X124642935Y-113715532D01*
X124647500Y-113761888D01*
X124647500Y-114838112D01*
X124642935Y-114884468D01*
X124631204Y-114923138D01*
X124612154Y-114958777D01*
X124586517Y-114990017D01*
X124555277Y-115015654D01*
X124519638Y-115034704D01*
X124480968Y-115046435D01*
X124434612Y-115051000D01*
X123783388Y-115051000D01*
X123737032Y-115046435D01*
X123698362Y-115034704D01*
X123662723Y-115015654D01*
X123631483Y-114990017D01*
X123605846Y-114958777D01*
X123586796Y-114923138D01*
X123575065Y-114884468D01*
X123570500Y-114838112D01*
X123570500Y-113761888D01*
X123575065Y-113715532D01*
X123586796Y-113676862D01*
X123605846Y-113641223D01*
X123631483Y-113609983D01*
X123662723Y-113584346D01*
X123698362Y-113565296D01*
X123737032Y-113553565D01*
X123783388Y-113549000D01*
X124434612Y-113549000D01*
X124480968Y-113553565D01*
G37*
G36*
X139777786Y-112619746D02*
G01*
X139808461Y-112629051D01*
X139836729Y-112644161D01*
X139861506Y-112664494D01*
X139881839Y-112689271D01*
X139896949Y-112717539D01*
X139906254Y-112748214D01*
X139910000Y-112786251D01*
X139910000Y-114797749D01*
X139906254Y-114835786D01*
X139896949Y-114866461D01*
X139881839Y-114894729D01*
X139861506Y-114919506D01*
X139836729Y-114939839D01*
X139808461Y-114954949D01*
X139777786Y-114964254D01*
X139739749Y-114968000D01*
X137628251Y-114968000D01*
X137590214Y-114964254D01*
X137559539Y-114954949D01*
X137531271Y-114939839D01*
X137506494Y-114919506D01*
X137486161Y-114894729D01*
X137471051Y-114866461D01*
X137461746Y-114835786D01*
X137458000Y-114797749D01*
X137458000Y-112786251D01*
X137461746Y-112748214D01*
X137471051Y-112717539D01*
X137486161Y-112689271D01*
X137506494Y-112664494D01*
X137531271Y-112644161D01*
X137559539Y-112629051D01*
X137590214Y-112619746D01*
X137628251Y-112616000D01*
X139739749Y-112616000D01*
X139777786Y-112619746D01*
G37*
G36*
X112264928Y-113951764D02*
G01*
X112286009Y-113958160D01*
X112305445Y-113968548D01*
X112322476Y-113982524D01*
X112336452Y-113999555D01*
X112346840Y-114018991D01*
X112353236Y-114040072D01*
X112356000Y-114068140D01*
X112356000Y-114531860D01*
X112353236Y-114559928D01*
X112346840Y-114581009D01*
X112336452Y-114600445D01*
X112322476Y-114617476D01*
X112305445Y-114631452D01*
X112286009Y-114641840D01*
X112264928Y-114648236D01*
X112236860Y-114651000D01*
X110573140Y-114651000D01*
X110545072Y-114648236D01*
X110523991Y-114641840D01*
X110504555Y-114631452D01*
X110487524Y-114617476D01*
X110473548Y-114600445D01*
X110463160Y-114581009D01*
X110456764Y-114559928D01*
X110454000Y-114531860D01*
X110454000Y-114068140D01*
X110456764Y-114040072D01*
X110463160Y-114018991D01*
X110473548Y-113999555D01*
X110487524Y-113982524D01*
X110504555Y-113968548D01*
X110523991Y-113958160D01*
X110545072Y-113951764D01*
X110573140Y-113949000D01*
X112236860Y-113949000D01*
X112264928Y-113951764D01*
G37*
G36*
X121864928Y-113951764D02*
G01*
X121886009Y-113958160D01*
X121905445Y-113968548D01*
X121922476Y-113982524D01*
X121936452Y-113999555D01*
X121946840Y-114018991D01*
X121953236Y-114040072D01*
X121956000Y-114068140D01*
X121956000Y-114531860D01*
X121953236Y-114559928D01*
X121946840Y-114581009D01*
X121936452Y-114600445D01*
X121922476Y-114617476D01*
X121905445Y-114631452D01*
X121886009Y-114641840D01*
X121864928Y-114648236D01*
X121836860Y-114651000D01*
X120173140Y-114651000D01*
X120145072Y-114648236D01*
X120123991Y-114641840D01*
X120104555Y-114631452D01*
X120087524Y-114617476D01*
X120073548Y-114600445D01*
X120063160Y-114581009D01*
X120056764Y-114559928D01*
X120054000Y-114531860D01*
X120054000Y-114068140D01*
X120056764Y-114040072D01*
X120063160Y-114018991D01*
X120073548Y-113999555D01*
X120087524Y-113982524D01*
X120104555Y-113968548D01*
X120123991Y-113958160D01*
X120145072Y-113951764D01*
X120173140Y-113949000D01*
X121836860Y-113949000D01*
X121864928Y-113951764D01*
G37*
G36*
X131555928Y-112808764D02*
G01*
X131577009Y-112815160D01*
X131596445Y-112825548D01*
X131613476Y-112839524D01*
X131627452Y-112856555D01*
X131637840Y-112875991D01*
X131644236Y-112897072D01*
X131647000Y-112925140D01*
X131647000Y-113388860D01*
X131644236Y-113416928D01*
X131637840Y-113438009D01*
X131627452Y-113457445D01*
X131613476Y-113474476D01*
X131596445Y-113488452D01*
X131577009Y-113498840D01*
X131555928Y-113505236D01*
X131527860Y-113508000D01*
X129714140Y-113508000D01*
X129686072Y-113505236D01*
X129664991Y-113498840D01*
X129645555Y-113488452D01*
X129628524Y-113474476D01*
X129614548Y-113457445D01*
X129604160Y-113438009D01*
X129597764Y-113416928D01*
X129595000Y-113388860D01*
X129595000Y-112925140D01*
X129597764Y-112897072D01*
X129604160Y-112875991D01*
X129614548Y-112856555D01*
X129628524Y-112839524D01*
X129645555Y-112825548D01*
X129664991Y-112815160D01*
X129686072Y-112808764D01*
X129714140Y-112806000D01*
X131527860Y-112806000D01*
X131555928Y-112808764D01*
G37*
G36*
X136505928Y-112808764D02*
G01*
X136527009Y-112815160D01*
X136546445Y-112825548D01*
X136563476Y-112839524D01*
X136577452Y-112856555D01*
X136587840Y-112875991D01*
X136594236Y-112897072D01*
X136597000Y-112925140D01*
X136597000Y-113388860D01*
X136594236Y-113416928D01*
X136587840Y-113438009D01*
X136577452Y-113457445D01*
X136563476Y-113474476D01*
X136546445Y-113488452D01*
X136527009Y-113498840D01*
X136505928Y-113505236D01*
X136477860Y-113508000D01*
X134664140Y-113508000D01*
X134636072Y-113505236D01*
X134614991Y-113498840D01*
X134595555Y-113488452D01*
X134578524Y-113474476D01*
X134564548Y-113457445D01*
X134554160Y-113438009D01*
X134547764Y-113416928D01*
X134545000Y-113388860D01*
X134545000Y-112925140D01*
X134547764Y-112897072D01*
X134554160Y-112875991D01*
X134564548Y-112856555D01*
X134578524Y-112839524D01*
X134595555Y-112825548D01*
X134614991Y-112815160D01*
X134636072Y-112808764D01*
X134664140Y-112806000D01*
X136477860Y-112806000D01*
X136505928Y-112808764D01*
G37*
G36*
X112264928Y-112681764D02*
G01*
X112286009Y-112688160D01*
X112305445Y-112698548D01*
X112322476Y-112712524D01*
X112336452Y-112729555D01*
X112346840Y-112748991D01*
X112353236Y-112770072D01*
X112356000Y-112798140D01*
X112356000Y-113261860D01*
X112353236Y-113289928D01*
X112346840Y-113311009D01*
X112336452Y-113330445D01*
X112322476Y-113347476D01*
X112305445Y-113361452D01*
X112286009Y-113371840D01*
X112264928Y-113378236D01*
X112236860Y-113381000D01*
X110573140Y-113381000D01*
X110545072Y-113378236D01*
X110523991Y-113371840D01*
X110504555Y-113361452D01*
X110487524Y-113347476D01*
X110473548Y-113330445D01*
X110463160Y-113311009D01*
X110456764Y-113289928D01*
X110454000Y-113261860D01*
X110454000Y-112798140D01*
X110456764Y-112770072D01*
X110463160Y-112748991D01*
X110473548Y-112729555D01*
X110487524Y-112712524D01*
X110504555Y-112698548D01*
X110523991Y-112688160D01*
X110545072Y-112681764D01*
X110573140Y-112679000D01*
X112236860Y-112679000D01*
X112264928Y-112681764D01*
G37*
G36*
X121864928Y-112681764D02*
G01*
X121886009Y-112688160D01*
X121905445Y-112698548D01*
X121922476Y-112712524D01*
X121936452Y-112729555D01*
X121946840Y-112748991D01*
X121953236Y-112770072D01*
X121956000Y-112798140D01*
X121956000Y-113261860D01*
X121953236Y-113289928D01*
X121946840Y-113311009D01*
X121936452Y-113330445D01*
X121922476Y-113347476D01*
X121905445Y-113361452D01*
X121886009Y-113371840D01*
X121864928Y-113378236D01*
X121836860Y-113381000D01*
X120173140Y-113381000D01*
X120145072Y-113378236D01*
X120123991Y-113371840D01*
X120104555Y-113361452D01*
X120087524Y-113347476D01*
X120073548Y-113330445D01*
X120063160Y-113311009D01*
X120056764Y-113289928D01*
X120054000Y-113261860D01*
X120054000Y-112798140D01*
X120056764Y-112770072D01*
X120063160Y-112748991D01*
X120073548Y-112729555D01*
X120087524Y-112712524D01*
X120104555Y-112698548D01*
X120123991Y-112688160D01*
X120145072Y-112681764D01*
X120173140Y-112679000D01*
X121836860Y-112679000D01*
X121864928Y-112681764D01*
G37*
G36*
X104253512Y-110863927D02*
G01*
X104402812Y-110893624D01*
X104566784Y-110961544D01*
X104714354Y-111060147D01*
X104839853Y-111185646D01*
X104938456Y-111333216D01*
X105006376Y-111497188D01*
X105041000Y-111671259D01*
X105041000Y-111848741D01*
X105006376Y-112022812D01*
X104938456Y-112186784D01*
X104839853Y-112334354D01*
X104714354Y-112459853D01*
X104566784Y-112558456D01*
X104402812Y-112626376D01*
X104253512Y-112656073D01*
X104228742Y-112661000D01*
X104051258Y-112661000D01*
X104026488Y-112656073D01*
X103877188Y-112626376D01*
X103713216Y-112558456D01*
X103565646Y-112459853D01*
X103440147Y-112334354D01*
X103341544Y-112186784D01*
X103273624Y-112022812D01*
X103239000Y-111848741D01*
X103239000Y-111671259D01*
X103273624Y-111497188D01*
X103341544Y-111333216D01*
X103440147Y-111185646D01*
X103565646Y-111060147D01*
X103713216Y-110961544D01*
X103877188Y-110893624D01*
X104026488Y-110863927D01*
X104051258Y-110859000D01*
X104228742Y-110859000D01*
X104253512Y-110863927D01*
G37*
G36*
X101713512Y-110863927D02*
G01*
X101862812Y-110893624D01*
X102026784Y-110961544D01*
X102174354Y-111060147D01*
X102299853Y-111185646D01*
X102398456Y-111333216D01*
X102466376Y-111497188D01*
X102501000Y-111671259D01*
X102501000Y-111848741D01*
X102466376Y-112022812D01*
X102398456Y-112186784D01*
X102299853Y-112334354D01*
X102174354Y-112459853D01*
X102026784Y-112558456D01*
X101862812Y-112626376D01*
X101713512Y-112656073D01*
X101688742Y-112661000D01*
X101511258Y-112661000D01*
X101486488Y-112656073D01*
X101337188Y-112626376D01*
X101173216Y-112558456D01*
X101025646Y-112459853D01*
X100900147Y-112334354D01*
X100801544Y-112186784D01*
X100733624Y-112022812D01*
X100699000Y-111848741D01*
X100699000Y-111671259D01*
X100733624Y-111497188D01*
X100801544Y-111333216D01*
X100900147Y-111185646D01*
X101025646Y-111060147D01*
X101173216Y-110961544D01*
X101337188Y-110893624D01*
X101486488Y-110863927D01*
X101511258Y-110859000D01*
X101688742Y-110859000D01*
X101713512Y-110863927D01*
G37*
G36*
X136505928Y-111538764D02*
G01*
X136527009Y-111545160D01*
X136546445Y-111555548D01*
X136563476Y-111569524D01*
X136577452Y-111586555D01*
X136587840Y-111605991D01*
X136594236Y-111627072D01*
X136597000Y-111655140D01*
X136597000Y-112118860D01*
X136594236Y-112146928D01*
X136587840Y-112168009D01*
X136577452Y-112187445D01*
X136563476Y-112204476D01*
X136546445Y-112218452D01*
X136527009Y-112228840D01*
X136505928Y-112235236D01*
X136477860Y-112238000D01*
X134664140Y-112238000D01*
X134636072Y-112235236D01*
X134614991Y-112228840D01*
X134595555Y-112218452D01*
X134578524Y-112204476D01*
X134564548Y-112187445D01*
X134554160Y-112168009D01*
X134547764Y-112146928D01*
X134545000Y-112118860D01*
X134545000Y-111655140D01*
X134547764Y-111627072D01*
X134554160Y-111605991D01*
X134564548Y-111586555D01*
X134578524Y-111569524D01*
X134595555Y-111555548D01*
X134614991Y-111545160D01*
X134636072Y-111538764D01*
X134664140Y-111536000D01*
X136477860Y-111536000D01*
X136505928Y-111538764D01*
G37*
G36*
X131555928Y-111538764D02*
G01*
X131577009Y-111545160D01*
X131596445Y-111555548D01*
X131613476Y-111569524D01*
X131627452Y-111586555D01*
X131637840Y-111605991D01*
X131644236Y-111627072D01*
X131647000Y-111655140D01*
X131647000Y-112118860D01*
X131644236Y-112146928D01*
X131637840Y-112168009D01*
X131627452Y-112187445D01*
X131613476Y-112204476D01*
X131596445Y-112218452D01*
X131577009Y-112228840D01*
X131555928Y-112235236D01*
X131527860Y-112238000D01*
X129714140Y-112238000D01*
X129686072Y-112235236D01*
X129664991Y-112228840D01*
X129645555Y-112218452D01*
X129628524Y-112204476D01*
X129614548Y-112187445D01*
X129604160Y-112168009D01*
X129597764Y-112146928D01*
X129595000Y-112118860D01*
X129595000Y-111655140D01*
X129597764Y-111627072D01*
X129604160Y-111605991D01*
X129614548Y-111586555D01*
X129628524Y-111569524D01*
X129645555Y-111555548D01*
X129664991Y-111545160D01*
X129686072Y-111538764D01*
X129714140Y-111536000D01*
X131527860Y-111536000D01*
X131555928Y-111538764D01*
G37*
G36*
X121864928Y-111411764D02*
G01*
X121886009Y-111418160D01*
X121905445Y-111428548D01*
X121922476Y-111442524D01*
X121936452Y-111459555D01*
X121946840Y-111478991D01*
X121953236Y-111500072D01*
X121956000Y-111528140D01*
X121956000Y-111991860D01*
X121953236Y-112019928D01*
X121946840Y-112041009D01*
X121936452Y-112060445D01*
X121922476Y-112077476D01*
X121905445Y-112091452D01*
X121886009Y-112101840D01*
X121864928Y-112108236D01*
X121836860Y-112111000D01*
X120173140Y-112111000D01*
X120145072Y-112108236D01*
X120123991Y-112101840D01*
X120104555Y-112091452D01*
X120087524Y-112077476D01*
X120073548Y-112060445D01*
X120063160Y-112041009D01*
X120056764Y-112019928D01*
X120054000Y-111991860D01*
X120054000Y-111528140D01*
X120056764Y-111500072D01*
X120063160Y-111478991D01*
X120073548Y-111459555D01*
X120087524Y-111442524D01*
X120104555Y-111428548D01*
X120123991Y-111418160D01*
X120145072Y-111411764D01*
X120173140Y-111409000D01*
X121836860Y-111409000D01*
X121864928Y-111411764D01*
G37*
G36*
X112264928Y-111411764D02*
G01*
X112286009Y-111418160D01*
X112305445Y-111428548D01*
X112322476Y-111442524D01*
X112336452Y-111459555D01*
X112346840Y-111478991D01*
X112353236Y-111500072D01*
X112356000Y-111528140D01*
X112356000Y-111991860D01*
X112353236Y-112019928D01*
X112346840Y-112041009D01*
X112336452Y-112060445D01*
X112322476Y-112077476D01*
X112305445Y-112091452D01*
X112286009Y-112101840D01*
X112264928Y-112108236D01*
X112236860Y-112111000D01*
X110573140Y-112111000D01*
X110545072Y-112108236D01*
X110523991Y-112101840D01*
X110504555Y-112091452D01*
X110487524Y-112077476D01*
X110473548Y-112060445D01*
X110463160Y-112041009D01*
X110456764Y-112019928D01*
X110454000Y-111991860D01*
X110454000Y-111528140D01*
X110456764Y-111500072D01*
X110463160Y-111478991D01*
X110473548Y-111459555D01*
X110487524Y-111442524D01*
X110504555Y-111428548D01*
X110523991Y-111418160D01*
X110545072Y-111411764D01*
X110573140Y-111409000D01*
X112236860Y-111409000D01*
X112264928Y-111411764D01*
G37*
G36*
X139268468Y-110718065D02*
G01*
X139307138Y-110729796D01*
X139342777Y-110748846D01*
X139374017Y-110774483D01*
X139399654Y-110805723D01*
X139418704Y-110841362D01*
X139430435Y-110880032D01*
X139435000Y-110926388D01*
X139435000Y-111577612D01*
X139430435Y-111623968D01*
X139418704Y-111662638D01*
X139399654Y-111698277D01*
X139374017Y-111729517D01*
X139342777Y-111755154D01*
X139307138Y-111774204D01*
X139268468Y-111785935D01*
X139222112Y-111790500D01*
X138145888Y-111790500D01*
X138099532Y-111785935D01*
X138060862Y-111774204D01*
X138025223Y-111755154D01*
X137993983Y-111729517D01*
X137968346Y-111698277D01*
X137949296Y-111662638D01*
X137937565Y-111623968D01*
X137933000Y-111577612D01*
X137933000Y-110926388D01*
X137937565Y-110880032D01*
X137949296Y-110841362D01*
X137968346Y-110805723D01*
X137993983Y-110774483D01*
X138025223Y-110748846D01*
X138060862Y-110729796D01*
X138099532Y-110718065D01*
X138145888Y-110713500D01*
X139222112Y-110713500D01*
X139268468Y-110718065D01*
G37*
G36*
X126060468Y-110131565D02*
G01*
X126099138Y-110143296D01*
X126134777Y-110162346D01*
X126166017Y-110187983D01*
X126191654Y-110219223D01*
X126210704Y-110254862D01*
X126222435Y-110293532D01*
X126227000Y-110339888D01*
X126227000Y-110991112D01*
X126222435Y-111037468D01*
X126210704Y-111076138D01*
X126191654Y-111111777D01*
X126166017Y-111143017D01*
X126134777Y-111168654D01*
X126099138Y-111187704D01*
X126060468Y-111199435D01*
X126014112Y-111204000D01*
X124937888Y-111204000D01*
X124891532Y-111199435D01*
X124852862Y-111187704D01*
X124817223Y-111168654D01*
X124785983Y-111143017D01*
X124760346Y-111111777D01*
X124741296Y-111076138D01*
X124729565Y-111037468D01*
X124725000Y-110991112D01*
X124725000Y-110339888D01*
X124729565Y-110293532D01*
X124741296Y-110254862D01*
X124760346Y-110219223D01*
X124785983Y-110187983D01*
X124817223Y-110162346D01*
X124852862Y-110143296D01*
X124891532Y-110131565D01*
X124937888Y-110127000D01*
X126014112Y-110127000D01*
X126060468Y-110131565D01*
G37*
G36*
X159651000Y-111137000D02*
G01*
X157849000Y-111137000D01*
X157849000Y-109335000D01*
X159651000Y-109335000D01*
X159651000Y-111137000D01*
G37*
G36*
X155760823Y-109397313D02*
G01*
X155921242Y-109445976D01*
X155990155Y-109482811D01*
X156069078Y-109524996D01*
X156198659Y-109631341D01*
X156305004Y-109760922D01*
X156305005Y-109760924D01*
X156384024Y-109908758D01*
X156432687Y-110069177D01*
X156449117Y-110236000D01*
X156432687Y-110402823D01*
X156384024Y-110563242D01*
X156329366Y-110665500D01*
X156305004Y-110711078D01*
X156198659Y-110840659D01*
X156069078Y-110947004D01*
X156069076Y-110947005D01*
X155921242Y-111026024D01*
X155760823Y-111074687D01*
X155635804Y-111087000D01*
X154752196Y-111087000D01*
X154627177Y-111074687D01*
X154466758Y-111026024D01*
X154318924Y-110947005D01*
X154318922Y-110947004D01*
X154189341Y-110840659D01*
X154082996Y-110711078D01*
X154058634Y-110665500D01*
X154003976Y-110563242D01*
X153955313Y-110402823D01*
X153938883Y-110236000D01*
X153955313Y-110069177D01*
X154003976Y-109908758D01*
X154082995Y-109760924D01*
X154082996Y-109760922D01*
X154189341Y-109631341D01*
X154318922Y-109524996D01*
X154397845Y-109482811D01*
X154466758Y-109445976D01*
X154627177Y-109397313D01*
X154752196Y-109385000D01*
X155635804Y-109385000D01*
X155760823Y-109397313D01*
G37*
G36*
X146285000Y-111087000D02*
G01*
X143783000Y-111087000D01*
X143783000Y-109385000D01*
X146285000Y-109385000D01*
X146285000Y-111087000D01*
G37*
G36*
X136505928Y-110268764D02*
G01*
X136527009Y-110275160D01*
X136546445Y-110285548D01*
X136563476Y-110299524D01*
X136577452Y-110316555D01*
X136587840Y-110335991D01*
X136594236Y-110357072D01*
X136597000Y-110385140D01*
X136597000Y-110848860D01*
X136594236Y-110876928D01*
X136587840Y-110898009D01*
X136577452Y-110917445D01*
X136563476Y-110934476D01*
X136546445Y-110948452D01*
X136527009Y-110958840D01*
X136505928Y-110965236D01*
X136477860Y-110968000D01*
X134664140Y-110968000D01*
X134636072Y-110965236D01*
X134614991Y-110958840D01*
X134595555Y-110948452D01*
X134578524Y-110934476D01*
X134564548Y-110917445D01*
X134554160Y-110898009D01*
X134547764Y-110876928D01*
X134545000Y-110848860D01*
X134545000Y-110385140D01*
X134547764Y-110357072D01*
X134554160Y-110335991D01*
X134564548Y-110316555D01*
X134578524Y-110299524D01*
X134595555Y-110285548D01*
X134614991Y-110275160D01*
X134636072Y-110268764D01*
X134664140Y-110266000D01*
X136477860Y-110266000D01*
X136505928Y-110268764D01*
G37*
G36*
X131555928Y-110268764D02*
G01*
X131577009Y-110275160D01*
X131596445Y-110285548D01*
X131613476Y-110299524D01*
X131627452Y-110316555D01*
X131637840Y-110335991D01*
X131644236Y-110357072D01*
X131647000Y-110385140D01*
X131647000Y-110848860D01*
X131644236Y-110876928D01*
X131637840Y-110898009D01*
X131627452Y-110917445D01*
X131613476Y-110934476D01*
X131596445Y-110948452D01*
X131577009Y-110958840D01*
X131555928Y-110965236D01*
X131527860Y-110968000D01*
X129714140Y-110968000D01*
X129686072Y-110965236D01*
X129664991Y-110958840D01*
X129645555Y-110948452D01*
X129628524Y-110934476D01*
X129614548Y-110917445D01*
X129604160Y-110898009D01*
X129597764Y-110876928D01*
X129595000Y-110848860D01*
X129595000Y-110385140D01*
X129597764Y-110357072D01*
X129604160Y-110335991D01*
X129614548Y-110316555D01*
X129628524Y-110299524D01*
X129645555Y-110285548D01*
X129664991Y-110275160D01*
X129686072Y-110268764D01*
X129714140Y-110266000D01*
X131527860Y-110266000D01*
X131555928Y-110268764D01*
G37*
G36*
X121864928Y-110141764D02*
G01*
X121886009Y-110148160D01*
X121905445Y-110158548D01*
X121922476Y-110172524D01*
X121936452Y-110189555D01*
X121946840Y-110208991D01*
X121953236Y-110230072D01*
X121956000Y-110258140D01*
X121956000Y-110721860D01*
X121953236Y-110749928D01*
X121946840Y-110771009D01*
X121936452Y-110790445D01*
X121922476Y-110807476D01*
X121905445Y-110821452D01*
X121886009Y-110831840D01*
X121864928Y-110838236D01*
X121836860Y-110841000D01*
X120173140Y-110841000D01*
X120145072Y-110838236D01*
X120123991Y-110831840D01*
X120104555Y-110821452D01*
X120087524Y-110807476D01*
X120073548Y-110790445D01*
X120063160Y-110771009D01*
X120056764Y-110749928D01*
X120054000Y-110721860D01*
X120054000Y-110258140D01*
X120056764Y-110230072D01*
X120063160Y-110208991D01*
X120073548Y-110189555D01*
X120087524Y-110172524D01*
X120104555Y-110158548D01*
X120123991Y-110148160D01*
X120145072Y-110141764D01*
X120173140Y-110139000D01*
X121836860Y-110139000D01*
X121864928Y-110141764D01*
G37*
G36*
X112264928Y-110141764D02*
G01*
X112286009Y-110148160D01*
X112305445Y-110158548D01*
X112322476Y-110172524D01*
X112336452Y-110189555D01*
X112346840Y-110208991D01*
X112353236Y-110230072D01*
X112356000Y-110258140D01*
X112356000Y-110721860D01*
X112353236Y-110749928D01*
X112346840Y-110771009D01*
X112336452Y-110790445D01*
X112322476Y-110807476D01*
X112305445Y-110821452D01*
X112286009Y-110831840D01*
X112264928Y-110838236D01*
X112236860Y-110841000D01*
X110573140Y-110841000D01*
X110545072Y-110838236D01*
X110523991Y-110831840D01*
X110504555Y-110821452D01*
X110487524Y-110807476D01*
X110473548Y-110790445D01*
X110463160Y-110771009D01*
X110456764Y-110749928D01*
X110454000Y-110721860D01*
X110454000Y-110258140D01*
X110456764Y-110230072D01*
X110463160Y-110208991D01*
X110473548Y-110189555D01*
X110487524Y-110172524D01*
X110504555Y-110158548D01*
X110523991Y-110148160D01*
X110545072Y-110141764D01*
X110573140Y-110139000D01*
X112236860Y-110139000D01*
X112264928Y-110141764D01*
G37*
G36*
X101713512Y-108323927D02*
G01*
X101862812Y-108353624D01*
X102026784Y-108421544D01*
X102174354Y-108520147D01*
X102299853Y-108645646D01*
X102398456Y-108793216D01*
X102466376Y-108957188D01*
X102489610Y-109073997D01*
X102501000Y-109131258D01*
X102501000Y-109308742D01*
X102497878Y-109324435D01*
X102466376Y-109482812D01*
X102398456Y-109646784D01*
X102299853Y-109794354D01*
X102174354Y-109919853D01*
X102026784Y-110018456D01*
X101862812Y-110086376D01*
X101713512Y-110116073D01*
X101688742Y-110121000D01*
X101511258Y-110121000D01*
X101486488Y-110116073D01*
X101337188Y-110086376D01*
X101173216Y-110018456D01*
X101025646Y-109919853D01*
X100900147Y-109794354D01*
X100801544Y-109646784D01*
X100733624Y-109482812D01*
X100702122Y-109324435D01*
X100699000Y-109308742D01*
X100699000Y-109131258D01*
X100710390Y-109073997D01*
X100733624Y-108957188D01*
X100801544Y-108793216D01*
X100900147Y-108645646D01*
X101025646Y-108520147D01*
X101173216Y-108421544D01*
X101337188Y-108353624D01*
X101486488Y-108323927D01*
X101511258Y-108319000D01*
X101688742Y-108319000D01*
X101713512Y-108323927D01*
G37*
G36*
X104253512Y-108323927D02*
G01*
X104402812Y-108353624D01*
X104566784Y-108421544D01*
X104714354Y-108520147D01*
X104839853Y-108645646D01*
X104938456Y-108793216D01*
X105006376Y-108957188D01*
X105029610Y-109073997D01*
X105041000Y-109131258D01*
X105041000Y-109308742D01*
X105037878Y-109324435D01*
X105006376Y-109482812D01*
X104938456Y-109646784D01*
X104839853Y-109794354D01*
X104714354Y-109919853D01*
X104566784Y-110018456D01*
X104402812Y-110086376D01*
X104253512Y-110116073D01*
X104228742Y-110121000D01*
X104051258Y-110121000D01*
X104026488Y-110116073D01*
X103877188Y-110086376D01*
X103713216Y-110018456D01*
X103565646Y-109919853D01*
X103440147Y-109794354D01*
X103341544Y-109646784D01*
X103273624Y-109482812D01*
X103242122Y-109324435D01*
X103239000Y-109308742D01*
X103239000Y-109131258D01*
X103250390Y-109073997D01*
X103273624Y-108957188D01*
X103341544Y-108793216D01*
X103440147Y-108645646D01*
X103565646Y-108520147D01*
X103713216Y-108421544D01*
X103877188Y-108353624D01*
X104026488Y-108323927D01*
X104051258Y-108319000D01*
X104228742Y-108319000D01*
X104253512Y-108323927D01*
G37*
G36*
X139268468Y-108843065D02*
G01*
X139307138Y-108854796D01*
X139342777Y-108873846D01*
X139374017Y-108899483D01*
X139399654Y-108930723D01*
X139418704Y-108966362D01*
X139430435Y-109005032D01*
X139435000Y-109051388D01*
X139435000Y-109702612D01*
X139430435Y-109748968D01*
X139418704Y-109787638D01*
X139399654Y-109823277D01*
X139374017Y-109854517D01*
X139342777Y-109880154D01*
X139307138Y-109899204D01*
X139268468Y-109910935D01*
X139222112Y-109915500D01*
X138145888Y-109915500D01*
X138099532Y-109910935D01*
X138060862Y-109899204D01*
X138025223Y-109880154D01*
X137993983Y-109854517D01*
X137968346Y-109823277D01*
X137949296Y-109787638D01*
X137937565Y-109748968D01*
X137933000Y-109702612D01*
X137933000Y-109051388D01*
X137937565Y-109005032D01*
X137949296Y-108966362D01*
X137968346Y-108930723D01*
X137993983Y-108899483D01*
X138025223Y-108873846D01*
X138060862Y-108854796D01*
X138099532Y-108843065D01*
X138145888Y-108838500D01*
X139222112Y-108838500D01*
X139268468Y-108843065D01*
G37*
G36*
X136505928Y-108998764D02*
G01*
X136527009Y-109005160D01*
X136546445Y-109015548D01*
X136563476Y-109029524D01*
X136577452Y-109046555D01*
X136587840Y-109065991D01*
X136594236Y-109087072D01*
X136597000Y-109115140D01*
X136597000Y-109578860D01*
X136594236Y-109606928D01*
X136587840Y-109628009D01*
X136577452Y-109647445D01*
X136563476Y-109664476D01*
X136546445Y-109678452D01*
X136527009Y-109688840D01*
X136505928Y-109695236D01*
X136477860Y-109698000D01*
X134664140Y-109698000D01*
X134636072Y-109695236D01*
X134614991Y-109688840D01*
X134595555Y-109678452D01*
X134578524Y-109664476D01*
X134564548Y-109647445D01*
X134554160Y-109628009D01*
X134547764Y-109606928D01*
X134545000Y-109578860D01*
X134545000Y-109115140D01*
X134547764Y-109087072D01*
X134554160Y-109065991D01*
X134564548Y-109046555D01*
X134578524Y-109029524D01*
X134595555Y-109015548D01*
X134614991Y-109005160D01*
X134636072Y-108998764D01*
X134664140Y-108996000D01*
X136477860Y-108996000D01*
X136505928Y-108998764D01*
G37*
G36*
X131555928Y-108998764D02*
G01*
X131577009Y-109005160D01*
X131596445Y-109015548D01*
X131613476Y-109029524D01*
X131627452Y-109046555D01*
X131637840Y-109065991D01*
X131644236Y-109087072D01*
X131647000Y-109115140D01*
X131647000Y-109578860D01*
X131644236Y-109606928D01*
X131637840Y-109628009D01*
X131627452Y-109647445D01*
X131613476Y-109664476D01*
X131596445Y-109678452D01*
X131577009Y-109688840D01*
X131555928Y-109695236D01*
X131527860Y-109698000D01*
X129714140Y-109698000D01*
X129686072Y-109695236D01*
X129664991Y-109688840D01*
X129645555Y-109678452D01*
X129628524Y-109664476D01*
X129614548Y-109647445D01*
X129604160Y-109628009D01*
X129597764Y-109606928D01*
X129595000Y-109578860D01*
X129595000Y-109115140D01*
X129597764Y-109087072D01*
X129604160Y-109065991D01*
X129614548Y-109046555D01*
X129628524Y-109029524D01*
X129645555Y-109015548D01*
X129664991Y-109005160D01*
X129686072Y-108998764D01*
X129714140Y-108996000D01*
X131527860Y-108996000D01*
X131555928Y-108998764D01*
G37*
G36*
X126060468Y-108256565D02*
G01*
X126099138Y-108268296D01*
X126134777Y-108287346D01*
X126166017Y-108312983D01*
X126191654Y-108344223D01*
X126210704Y-108379862D01*
X126222435Y-108418532D01*
X126227000Y-108464888D01*
X126227000Y-109116112D01*
X126222435Y-109162468D01*
X126210704Y-109201138D01*
X126191654Y-109236777D01*
X126166017Y-109268017D01*
X126134777Y-109293654D01*
X126099138Y-109312704D01*
X126060468Y-109324435D01*
X126014112Y-109329000D01*
X124937888Y-109329000D01*
X124891532Y-109324435D01*
X124852862Y-109312704D01*
X124817223Y-109293654D01*
X124785983Y-109268017D01*
X124760346Y-109236777D01*
X124741296Y-109201138D01*
X124729565Y-109162468D01*
X124725000Y-109116112D01*
X124725000Y-108464888D01*
X124729565Y-108418532D01*
X124741296Y-108379862D01*
X124760346Y-108344223D01*
X124785983Y-108312983D01*
X124817223Y-108287346D01*
X124852862Y-108268296D01*
X124891532Y-108256565D01*
X124937888Y-108252000D01*
X126014112Y-108252000D01*
X126060468Y-108256565D01*
G37*
G36*
X121959468Y-107203565D02*
G01*
X121998138Y-107215296D01*
X122033777Y-107234346D01*
X122065017Y-107259983D01*
X122090654Y-107291223D01*
X122109704Y-107326862D01*
X122121435Y-107365532D01*
X122126000Y-107411888D01*
X122126000Y-108488112D01*
X122121435Y-108534468D01*
X122109704Y-108573138D01*
X122090654Y-108608777D01*
X122065017Y-108640017D01*
X122033777Y-108665654D01*
X121998138Y-108684704D01*
X121959468Y-108696435D01*
X121913112Y-108701000D01*
X121261888Y-108701000D01*
X121215532Y-108696435D01*
X121176862Y-108684704D01*
X121141223Y-108665654D01*
X121109983Y-108640017D01*
X121084346Y-108608777D01*
X121065296Y-108573138D01*
X121053565Y-108534468D01*
X121049000Y-108488112D01*
X121049000Y-107411888D01*
X121053565Y-107365532D01*
X121065296Y-107326862D01*
X121084346Y-107291223D01*
X121109983Y-107259983D01*
X121141223Y-107234346D01*
X121176862Y-107215296D01*
X121215532Y-107203565D01*
X121261888Y-107199000D01*
X121913112Y-107199000D01*
X121959468Y-107203565D01*
G37*
G36*
X120084468Y-107203565D02*
G01*
X120123138Y-107215296D01*
X120158777Y-107234346D01*
X120190017Y-107259983D01*
X120215654Y-107291223D01*
X120234704Y-107326862D01*
X120246435Y-107365532D01*
X120251000Y-107411888D01*
X120251000Y-108488112D01*
X120246435Y-108534468D01*
X120234704Y-108573138D01*
X120215654Y-108608777D01*
X120190017Y-108640017D01*
X120158777Y-108665654D01*
X120123138Y-108684704D01*
X120084468Y-108696435D01*
X120038112Y-108701000D01*
X119386888Y-108701000D01*
X119340532Y-108696435D01*
X119301862Y-108684704D01*
X119266223Y-108665654D01*
X119234983Y-108640017D01*
X119209346Y-108608777D01*
X119190296Y-108573138D01*
X119178565Y-108534468D01*
X119174000Y-108488112D01*
X119174000Y-107411888D01*
X119178565Y-107365532D01*
X119190296Y-107326862D01*
X119209346Y-107291223D01*
X119234983Y-107259983D01*
X119266223Y-107234346D01*
X119301862Y-107215296D01*
X119340532Y-107203565D01*
X119386888Y-107199000D01*
X120038112Y-107199000D01*
X120084468Y-107203565D01*
G37*
G36*
X158863512Y-106799927D02*
G01*
X159012812Y-106829624D01*
X159176784Y-106897544D01*
X159324354Y-106996147D01*
X159449853Y-107121646D01*
X159548456Y-107269216D01*
X159616376Y-107433188D01*
X159638890Y-107546376D01*
X159650485Y-107604667D01*
X159651000Y-107607259D01*
X159651000Y-107784741D01*
X159616376Y-107958812D01*
X159548456Y-108122784D01*
X159449853Y-108270354D01*
X159324354Y-108395853D01*
X159176784Y-108494456D01*
X159012812Y-108562376D01*
X158863512Y-108592073D01*
X158838742Y-108597000D01*
X158661258Y-108597000D01*
X158636488Y-108592073D01*
X158487188Y-108562376D01*
X158323216Y-108494456D01*
X158175646Y-108395853D01*
X158050147Y-108270354D01*
X157951544Y-108122784D01*
X157883624Y-107958812D01*
X157849000Y-107784741D01*
X157849000Y-107607259D01*
X157849516Y-107604667D01*
X157861110Y-107546376D01*
X157883624Y-107433188D01*
X157951544Y-107269216D01*
X158050147Y-107121646D01*
X158175646Y-106996147D01*
X158323216Y-106897544D01*
X158487188Y-106829624D01*
X158636488Y-106799927D01*
X158661258Y-106795000D01*
X158838742Y-106795000D01*
X158863512Y-106799927D01*
G37*
G36*
X155760823Y-106857313D02*
G01*
X155921242Y-106905976D01*
X155945140Y-106918750D01*
X156069078Y-106984996D01*
X156198659Y-107091341D01*
X156305004Y-107220922D01*
X156305005Y-107220924D01*
X156384024Y-107368758D01*
X156432687Y-107529177D01*
X156449117Y-107696000D01*
X156432687Y-107862823D01*
X156384024Y-108023242D01*
X156313114Y-108155906D01*
X156305004Y-108171078D01*
X156198659Y-108300659D01*
X156069078Y-108407004D01*
X156069076Y-108407005D01*
X155921242Y-108486024D01*
X155760823Y-108534687D01*
X155635804Y-108547000D01*
X154752196Y-108547000D01*
X154627177Y-108534687D01*
X154466758Y-108486024D01*
X154318924Y-108407005D01*
X154318922Y-108407004D01*
X154189341Y-108300659D01*
X154082996Y-108171078D01*
X154074886Y-108155906D01*
X154003976Y-108023242D01*
X153955313Y-107862823D01*
X153938883Y-107696000D01*
X153955313Y-107529177D01*
X154003976Y-107368758D01*
X154082995Y-107220924D01*
X154082996Y-107220922D01*
X154189341Y-107091341D01*
X154318922Y-106984996D01*
X154442860Y-106918750D01*
X154466758Y-106905976D01*
X154627177Y-106857313D01*
X154752196Y-106845000D01*
X155635804Y-106845000D01*
X155760823Y-106857313D01*
G37*
G36*
X145600823Y-106857313D02*
G01*
X145761242Y-106905976D01*
X145785140Y-106918750D01*
X145909078Y-106984996D01*
X146038659Y-107091341D01*
X146145004Y-107220922D01*
X146145005Y-107220924D01*
X146224024Y-107368758D01*
X146272687Y-107529177D01*
X146289117Y-107696000D01*
X146272687Y-107862823D01*
X146224024Y-108023242D01*
X146153114Y-108155906D01*
X146145004Y-108171078D01*
X146038659Y-108300659D01*
X145909078Y-108407004D01*
X145909076Y-108407005D01*
X145761242Y-108486024D01*
X145600823Y-108534687D01*
X145475804Y-108547000D01*
X144592196Y-108547000D01*
X144467177Y-108534687D01*
X144306758Y-108486024D01*
X144158924Y-108407005D01*
X144158922Y-108407004D01*
X144029341Y-108300659D01*
X143922996Y-108171078D01*
X143914886Y-108155906D01*
X143843976Y-108023242D01*
X143795313Y-107862823D01*
X143778883Y-107696000D01*
X143795313Y-107529177D01*
X143843976Y-107368758D01*
X143922995Y-107220924D01*
X143922996Y-107220922D01*
X144029341Y-107091341D01*
X144158922Y-106984996D01*
X144282860Y-106918750D01*
X144306758Y-106905976D01*
X144467177Y-106857313D01*
X144592196Y-106845000D01*
X145475804Y-106845000D01*
X145600823Y-106857313D01*
G37*
G36*
X151207786Y-105517746D02*
G01*
X151238461Y-105527051D01*
X151266729Y-105542161D01*
X151291506Y-105562494D01*
X151311839Y-105587271D01*
X151326949Y-105615539D01*
X151336254Y-105646214D01*
X151340000Y-105684251D01*
X151340000Y-107695749D01*
X151336254Y-107733786D01*
X151326949Y-107764461D01*
X151311839Y-107792729D01*
X151291506Y-107817506D01*
X151266729Y-107837839D01*
X151238461Y-107852949D01*
X151207786Y-107862254D01*
X151169749Y-107866000D01*
X149058251Y-107866000D01*
X149020214Y-107862254D01*
X148989539Y-107852949D01*
X148961271Y-107837839D01*
X148936494Y-107817506D01*
X148916161Y-107792729D01*
X148901051Y-107764461D01*
X148891746Y-107733786D01*
X148888000Y-107695749D01*
X148888000Y-105684251D01*
X148891746Y-105646214D01*
X148901051Y-105615539D01*
X148916161Y-105587271D01*
X148936494Y-105562494D01*
X148961271Y-105542161D01*
X148989539Y-105527051D01*
X149020214Y-105517746D01*
X149058251Y-105514000D01*
X151169749Y-105514000D01*
X151207786Y-105517746D01*
G37*
G36*
X128600468Y-106654065D02*
G01*
X128639138Y-106665796D01*
X128674777Y-106684846D01*
X128706017Y-106710483D01*
X128731654Y-106741723D01*
X128750704Y-106777362D01*
X128762435Y-106816032D01*
X128767000Y-106862388D01*
X128767000Y-107513612D01*
X128762435Y-107559968D01*
X128750704Y-107598638D01*
X128731654Y-107634277D01*
X128706017Y-107665517D01*
X128674777Y-107691154D01*
X128639138Y-107710204D01*
X128600468Y-107721935D01*
X128554112Y-107726500D01*
X127477888Y-107726500D01*
X127431532Y-107721935D01*
X127392862Y-107710204D01*
X127357223Y-107691154D01*
X127325983Y-107665517D01*
X127300346Y-107634277D01*
X127281296Y-107598638D01*
X127269565Y-107559968D01*
X127265000Y-107513612D01*
X127265000Y-106862388D01*
X127269565Y-106816032D01*
X127281296Y-106777362D01*
X127300346Y-106741723D01*
X127325983Y-106710483D01*
X127357223Y-106684846D01*
X127392862Y-106665796D01*
X127431532Y-106654065D01*
X127477888Y-106649500D01*
X128554112Y-106649500D01*
X128600468Y-106654065D01*
G37*
G36*
X126060468Y-106575565D02*
G01*
X126099138Y-106587296D01*
X126134777Y-106606346D01*
X126166017Y-106631983D01*
X126191654Y-106663223D01*
X126210704Y-106698862D01*
X126222435Y-106737532D01*
X126227000Y-106783888D01*
X126227000Y-107435112D01*
X126222435Y-107481468D01*
X126210704Y-107520138D01*
X126191654Y-107555777D01*
X126166017Y-107587017D01*
X126134777Y-107612654D01*
X126099138Y-107631704D01*
X126060468Y-107643435D01*
X126014112Y-107648000D01*
X124937888Y-107648000D01*
X124891532Y-107643435D01*
X124852862Y-107631704D01*
X124817223Y-107612654D01*
X124785983Y-107587017D01*
X124760346Y-107555777D01*
X124741296Y-107520138D01*
X124729565Y-107481468D01*
X124725000Y-107435112D01*
X124725000Y-106783888D01*
X124729565Y-106737532D01*
X124741296Y-106698862D01*
X124760346Y-106663223D01*
X124785983Y-106631983D01*
X124817223Y-106606346D01*
X124852862Y-106587296D01*
X124891532Y-106575565D01*
X124937888Y-106571000D01*
X126014112Y-106571000D01*
X126060468Y-106575565D01*
G37*
G36*
X104253512Y-105783927D02*
G01*
X104402812Y-105813624D01*
X104566784Y-105881544D01*
X104714354Y-105980147D01*
X104839853Y-106105646D01*
X104938456Y-106253216D01*
X105006376Y-106417188D01*
X105030382Y-106537877D01*
X105038000Y-106576174D01*
X105041000Y-106591259D01*
X105041000Y-106768741D01*
X105006376Y-106942812D01*
X104938456Y-107106784D01*
X104839853Y-107254354D01*
X104714354Y-107379853D01*
X104566784Y-107478456D01*
X104402812Y-107546376D01*
X104253512Y-107576073D01*
X104228742Y-107581000D01*
X104051258Y-107581000D01*
X104026488Y-107576073D01*
X103877188Y-107546376D01*
X103713216Y-107478456D01*
X103565646Y-107379853D01*
X103440147Y-107254354D01*
X103341544Y-107106784D01*
X103273624Y-106942812D01*
X103239000Y-106768741D01*
X103239000Y-106591259D01*
X103242001Y-106576174D01*
X103249618Y-106537877D01*
X103273624Y-106417188D01*
X103341544Y-106253216D01*
X103440147Y-106105646D01*
X103565646Y-105980147D01*
X103713216Y-105881544D01*
X103877188Y-105813624D01*
X104026488Y-105783927D01*
X104051258Y-105779000D01*
X104228742Y-105779000D01*
X104253512Y-105783927D01*
G37*
G36*
X101713512Y-105783927D02*
G01*
X101862812Y-105813624D01*
X102026784Y-105881544D01*
X102174354Y-105980147D01*
X102299853Y-106105646D01*
X102398456Y-106253216D01*
X102466376Y-106417188D01*
X102490382Y-106537877D01*
X102498000Y-106576174D01*
X102501000Y-106591259D01*
X102501000Y-106768741D01*
X102466376Y-106942812D01*
X102398456Y-107106784D01*
X102299853Y-107254354D01*
X102174354Y-107379853D01*
X102026784Y-107478456D01*
X101862812Y-107546376D01*
X101713512Y-107576073D01*
X101688742Y-107581000D01*
X101511258Y-107581000D01*
X101486488Y-107576073D01*
X101337188Y-107546376D01*
X101173216Y-107478456D01*
X101025646Y-107379853D01*
X100900147Y-107254354D01*
X100801544Y-107106784D01*
X100733624Y-106942812D01*
X100699000Y-106768741D01*
X100699000Y-106591259D01*
X100702001Y-106576174D01*
X100709618Y-106537877D01*
X100733624Y-106417188D01*
X100801544Y-106253216D01*
X100900147Y-106105646D01*
X101025646Y-105980147D01*
X101173216Y-105881544D01*
X101337188Y-105813624D01*
X101486488Y-105783927D01*
X101511258Y-105779000D01*
X101688742Y-105779000D01*
X101713512Y-105783927D01*
G37*
G36*
X133172468Y-106497065D02*
G01*
X133211138Y-106508796D01*
X133246777Y-106527846D01*
X133278017Y-106553483D01*
X133303654Y-106584723D01*
X133322704Y-106620362D01*
X133334435Y-106659032D01*
X133339000Y-106705388D01*
X133339000Y-107356612D01*
X133334435Y-107402968D01*
X133322704Y-107441638D01*
X133303654Y-107477277D01*
X133278017Y-107508517D01*
X133246777Y-107534154D01*
X133211138Y-107553204D01*
X133172468Y-107564935D01*
X133126112Y-107569500D01*
X132049888Y-107569500D01*
X132003532Y-107564935D01*
X131964862Y-107553204D01*
X131929223Y-107534154D01*
X131897983Y-107508517D01*
X131872346Y-107477277D01*
X131853296Y-107441638D01*
X131841565Y-107402968D01*
X131837000Y-107356612D01*
X131837000Y-106705388D01*
X131841565Y-106659032D01*
X131853296Y-106620362D01*
X131872346Y-106584723D01*
X131897983Y-106553483D01*
X131929223Y-106527846D01*
X131964862Y-106508796D01*
X132003532Y-106497065D01*
X132049888Y-106492500D01*
X133126112Y-106492500D01*
X133172468Y-106497065D01*
G37*
G36*
X158863512Y-104259927D02*
G01*
X159012812Y-104289624D01*
X159176784Y-104357544D01*
X159324354Y-104456147D01*
X159449853Y-104581646D01*
X159548456Y-104729216D01*
X159616376Y-104893188D01*
X159651000Y-105067259D01*
X159651000Y-105244741D01*
X159616376Y-105418812D01*
X159548456Y-105582784D01*
X159449853Y-105730354D01*
X159324354Y-105855853D01*
X159176784Y-105954456D01*
X159012812Y-106022376D01*
X158863512Y-106052073D01*
X158838742Y-106057000D01*
X158661258Y-106057000D01*
X158636488Y-106052073D01*
X158487188Y-106022376D01*
X158323216Y-105954456D01*
X158175646Y-105855853D01*
X158050147Y-105730354D01*
X157951544Y-105582784D01*
X157883624Y-105418812D01*
X157849000Y-105244741D01*
X157849000Y-105067259D01*
X157883624Y-104893188D01*
X157951544Y-104729216D01*
X158050147Y-104581646D01*
X158175646Y-104456147D01*
X158323216Y-104357544D01*
X158487188Y-104289624D01*
X158636488Y-104259927D01*
X158661258Y-104255000D01*
X158838742Y-104255000D01*
X158863512Y-104259927D01*
G37*
G36*
X155760823Y-104317313D02*
G01*
X155921242Y-104365976D01*
X155990155Y-104402811D01*
X156069078Y-104444996D01*
X156198659Y-104551341D01*
X156305004Y-104680922D01*
X156305005Y-104680924D01*
X156384024Y-104828758D01*
X156384025Y-104828761D01*
X156385682Y-104834222D01*
X156432687Y-104989177D01*
X156449117Y-105156000D01*
X156432687Y-105322823D01*
X156432686Y-105322825D01*
X156384519Y-105481612D01*
X156384024Y-105483242D01*
X156328419Y-105587271D01*
X156305004Y-105631078D01*
X156198659Y-105760659D01*
X156069078Y-105867004D01*
X156069076Y-105867005D01*
X155921242Y-105946024D01*
X155760823Y-105994687D01*
X155635804Y-106007000D01*
X154752196Y-106007000D01*
X154627177Y-105994687D01*
X154466758Y-105946024D01*
X154318924Y-105867005D01*
X154318922Y-105867004D01*
X154189341Y-105760659D01*
X154082996Y-105631078D01*
X154059581Y-105587271D01*
X154003976Y-105483242D01*
X154003482Y-105481612D01*
X153955314Y-105322825D01*
X153955313Y-105322823D01*
X153938883Y-105156000D01*
X153955313Y-104989177D01*
X154002318Y-104834222D01*
X154003975Y-104828761D01*
X154003976Y-104828758D01*
X154082995Y-104680924D01*
X154082996Y-104680922D01*
X154189341Y-104551341D01*
X154318922Y-104444996D01*
X154397845Y-104402811D01*
X154466758Y-104365976D01*
X154627177Y-104317313D01*
X154752196Y-104305000D01*
X155635804Y-104305000D01*
X155760823Y-104317313D01*
G37*
G36*
X145600823Y-104317313D02*
G01*
X145761242Y-104365976D01*
X145830155Y-104402811D01*
X145909078Y-104444996D01*
X146038659Y-104551341D01*
X146145004Y-104680922D01*
X146145005Y-104680924D01*
X146224024Y-104828758D01*
X146224025Y-104828761D01*
X146225682Y-104834222D01*
X146272687Y-104989177D01*
X146289117Y-105156000D01*
X146272687Y-105322823D01*
X146272686Y-105322825D01*
X146224519Y-105481612D01*
X146224024Y-105483242D01*
X146168419Y-105587271D01*
X146145004Y-105631078D01*
X146038659Y-105760659D01*
X145909078Y-105867004D01*
X145909076Y-105867005D01*
X145761242Y-105946024D01*
X145600823Y-105994687D01*
X145475804Y-106007000D01*
X144592196Y-106007000D01*
X144467177Y-105994687D01*
X144306758Y-105946024D01*
X144158924Y-105867005D01*
X144158922Y-105867004D01*
X144029341Y-105760659D01*
X143922996Y-105631078D01*
X143899581Y-105587271D01*
X143843976Y-105483242D01*
X143843482Y-105481612D01*
X143795314Y-105322825D01*
X143795313Y-105322823D01*
X143778883Y-105156000D01*
X143795313Y-104989177D01*
X143842318Y-104834222D01*
X143843975Y-104828761D01*
X143843976Y-104828758D01*
X143922995Y-104680924D01*
X143922996Y-104680922D01*
X144029341Y-104551341D01*
X144158922Y-104444996D01*
X144237845Y-104402811D01*
X144306758Y-104365976D01*
X144467177Y-104317313D01*
X144592196Y-104305000D01*
X145475804Y-104305000D01*
X145600823Y-104317313D01*
G37*
G36*
X122348786Y-103552746D02*
G01*
X122379461Y-103562051D01*
X122407729Y-103577161D01*
X122432506Y-103597494D01*
X122452839Y-103622271D01*
X122467949Y-103650539D01*
X122477254Y-103681214D01*
X122481000Y-103719251D01*
X122481000Y-105830749D01*
X122477254Y-105868786D01*
X122467949Y-105899461D01*
X122452839Y-105927729D01*
X122432506Y-105952506D01*
X122407729Y-105972839D01*
X122379461Y-105987949D01*
X122348786Y-105997254D01*
X122310749Y-106001000D01*
X120299251Y-106001000D01*
X120261214Y-105997254D01*
X120230539Y-105987949D01*
X120202271Y-105972839D01*
X120177494Y-105952506D01*
X120157161Y-105927729D01*
X120142051Y-105899461D01*
X120132746Y-105868786D01*
X120129000Y-105830749D01*
X120129000Y-103719251D01*
X120132746Y-103681214D01*
X120142051Y-103650539D01*
X120157161Y-103622271D01*
X120177494Y-103597494D01*
X120202271Y-103577161D01*
X120230539Y-103562051D01*
X120261214Y-103552746D01*
X120299251Y-103549000D01*
X122310749Y-103549000D01*
X122348786Y-103552746D01*
G37*
G36*
X117248786Y-103552746D02*
G01*
X117279461Y-103562051D01*
X117307729Y-103577161D01*
X117332506Y-103597494D01*
X117352839Y-103622271D01*
X117367949Y-103650539D01*
X117377254Y-103681214D01*
X117381000Y-103719251D01*
X117381000Y-105830749D01*
X117377254Y-105868786D01*
X117367949Y-105899461D01*
X117352839Y-105927729D01*
X117332506Y-105952506D01*
X117307729Y-105972839D01*
X117279461Y-105987949D01*
X117248786Y-105997254D01*
X117210749Y-106001000D01*
X115199251Y-106001000D01*
X115161214Y-105997254D01*
X115130539Y-105987949D01*
X115102271Y-105972839D01*
X115077494Y-105952506D01*
X115057161Y-105927729D01*
X115042051Y-105899461D01*
X115032746Y-105868786D01*
X115029000Y-105830749D01*
X115029000Y-103719251D01*
X115032746Y-103681214D01*
X115042051Y-103650539D01*
X115057161Y-103622271D01*
X115077494Y-103597494D01*
X115102271Y-103577161D01*
X115130539Y-103562051D01*
X115161214Y-103552746D01*
X115199251Y-103549000D01*
X117210749Y-103549000D01*
X117248786Y-103552746D01*
G37*
G36*
X128600468Y-104779065D02*
G01*
X128639138Y-104790796D01*
X128674777Y-104809846D01*
X128706017Y-104835483D01*
X128731654Y-104866723D01*
X128750704Y-104902362D01*
X128762435Y-104941032D01*
X128767000Y-104987388D01*
X128767000Y-105638612D01*
X128762435Y-105684968D01*
X128750704Y-105723638D01*
X128731654Y-105759277D01*
X128706017Y-105790517D01*
X128674777Y-105816154D01*
X128639138Y-105835204D01*
X128600468Y-105846935D01*
X128554112Y-105851500D01*
X127477888Y-105851500D01*
X127431532Y-105846935D01*
X127392862Y-105835204D01*
X127357223Y-105816154D01*
X127325983Y-105790517D01*
X127300346Y-105759277D01*
X127281296Y-105723638D01*
X127269565Y-105684968D01*
X127265000Y-105638612D01*
X127265000Y-104987388D01*
X127269565Y-104941032D01*
X127281296Y-104902362D01*
X127300346Y-104866723D01*
X127325983Y-104835483D01*
X127357223Y-104809846D01*
X127392862Y-104790796D01*
X127431532Y-104779065D01*
X127477888Y-104774500D01*
X128554112Y-104774500D01*
X128600468Y-104779065D01*
G37*
G36*
X126060468Y-104700565D02*
G01*
X126099138Y-104712296D01*
X126134777Y-104731346D01*
X126166017Y-104756983D01*
X126191654Y-104788223D01*
X126210704Y-104823862D01*
X126222435Y-104862532D01*
X126227000Y-104908888D01*
X126227000Y-105560112D01*
X126222435Y-105606468D01*
X126210704Y-105645138D01*
X126191654Y-105680777D01*
X126166017Y-105712017D01*
X126134777Y-105737654D01*
X126099138Y-105756704D01*
X126060468Y-105768435D01*
X126014112Y-105773000D01*
X124937888Y-105773000D01*
X124891532Y-105768435D01*
X124852862Y-105756704D01*
X124817223Y-105737654D01*
X124785983Y-105712017D01*
X124760346Y-105680777D01*
X124741296Y-105645138D01*
X124729565Y-105606468D01*
X124725000Y-105560112D01*
X124725000Y-104908888D01*
X124729565Y-104862532D01*
X124741296Y-104823862D01*
X124760346Y-104788223D01*
X124785983Y-104756983D01*
X124817223Y-104731346D01*
X124852862Y-104712296D01*
X124891532Y-104700565D01*
X124937888Y-104696000D01*
X126014112Y-104696000D01*
X126060468Y-104700565D01*
G37*
G36*
X133172468Y-104622065D02*
G01*
X133211138Y-104633796D01*
X133246777Y-104652846D01*
X133278017Y-104678483D01*
X133303654Y-104709723D01*
X133322704Y-104745362D01*
X133334435Y-104784032D01*
X133339000Y-104830388D01*
X133339000Y-105481612D01*
X133334435Y-105527968D01*
X133322704Y-105566638D01*
X133303654Y-105602277D01*
X133278017Y-105633517D01*
X133246777Y-105659154D01*
X133211138Y-105678204D01*
X133172468Y-105689935D01*
X133126112Y-105694500D01*
X132049888Y-105694500D01*
X132003532Y-105689935D01*
X131964862Y-105678204D01*
X131929223Y-105659154D01*
X131897983Y-105633517D01*
X131872346Y-105602277D01*
X131853296Y-105566638D01*
X131841565Y-105527968D01*
X131837000Y-105481612D01*
X131837000Y-104830388D01*
X131841565Y-104784032D01*
X131853296Y-104745362D01*
X131872346Y-104709723D01*
X131897983Y-104678483D01*
X131929223Y-104652846D01*
X131964862Y-104633796D01*
X132003532Y-104622065D01*
X132049888Y-104617500D01*
X133126112Y-104617500D01*
X133172468Y-104622065D01*
G37*
G36*
X101713512Y-103243927D02*
G01*
X101862812Y-103273624D01*
X102026784Y-103341544D01*
X102174354Y-103440147D01*
X102299853Y-103565646D01*
X102398456Y-103713216D01*
X102466376Y-103877188D01*
X102501000Y-104051259D01*
X102501000Y-104228741D01*
X102466376Y-104402812D01*
X102398456Y-104566784D01*
X102299853Y-104714354D01*
X102174354Y-104839853D01*
X102026784Y-104938456D01*
X101862812Y-105006376D01*
X101713512Y-105036073D01*
X101688742Y-105041000D01*
X101511258Y-105041000D01*
X101486488Y-105036073D01*
X101337188Y-105006376D01*
X101173216Y-104938456D01*
X101025646Y-104839853D01*
X100900147Y-104714354D01*
X100801544Y-104566784D01*
X100733624Y-104402812D01*
X100699000Y-104228741D01*
X100699000Y-104051259D01*
X100733624Y-103877188D01*
X100801544Y-103713216D01*
X100900147Y-103565646D01*
X101025646Y-103440147D01*
X101173216Y-103341544D01*
X101337188Y-103273624D01*
X101486488Y-103243927D01*
X101511258Y-103239000D01*
X101688742Y-103239000D01*
X101713512Y-103243927D01*
G37*
G36*
X104253512Y-103243927D02*
G01*
X104402812Y-103273624D01*
X104566784Y-103341544D01*
X104714354Y-103440147D01*
X104839853Y-103565646D01*
X104938456Y-103713216D01*
X105006376Y-103877188D01*
X105041000Y-104051259D01*
X105041000Y-104228741D01*
X105006376Y-104402812D01*
X104938456Y-104566784D01*
X104839853Y-104714354D01*
X104714354Y-104839853D01*
X104566784Y-104938456D01*
X104402812Y-105006376D01*
X104253512Y-105036073D01*
X104228742Y-105041000D01*
X104051258Y-105041000D01*
X104026488Y-105036073D01*
X103877188Y-105006376D01*
X103713216Y-104938456D01*
X103565646Y-104839853D01*
X103440147Y-104714354D01*
X103341544Y-104566784D01*
X103273624Y-104402812D01*
X103239000Y-104228741D01*
X103239000Y-104051259D01*
X103273624Y-103877188D01*
X103341544Y-103713216D01*
X103440147Y-103565646D01*
X103565646Y-103440147D01*
X103713216Y-103341544D01*
X103877188Y-103273624D01*
X104026488Y-103243927D01*
X104051258Y-103239000D01*
X104228742Y-103239000D01*
X104253512Y-103243927D01*
G37*
G36*
X158863512Y-101719927D02*
G01*
X159012812Y-101749624D01*
X159176784Y-101817544D01*
X159324354Y-101916147D01*
X159449853Y-102041646D01*
X159548456Y-102189216D01*
X159616376Y-102353188D01*
X159651000Y-102527259D01*
X159651000Y-102704741D01*
X159616376Y-102878812D01*
X159548456Y-103042784D01*
X159449853Y-103190354D01*
X159324354Y-103315853D01*
X159176784Y-103414456D01*
X159012812Y-103482376D01*
X158863512Y-103512073D01*
X158838742Y-103517000D01*
X158661258Y-103517000D01*
X158636488Y-103512073D01*
X158487188Y-103482376D01*
X158323216Y-103414456D01*
X158175646Y-103315853D01*
X158050147Y-103190354D01*
X157951544Y-103042784D01*
X157883624Y-102878812D01*
X157849000Y-102704741D01*
X157849000Y-102527259D01*
X157883624Y-102353188D01*
X157951544Y-102189216D01*
X158050147Y-102041646D01*
X158175646Y-101916147D01*
X158323216Y-101817544D01*
X158487188Y-101749624D01*
X158636488Y-101719927D01*
X158661258Y-101715000D01*
X158838742Y-101715000D01*
X158863512Y-101719927D01*
G37*
G36*
X145600823Y-101777313D02*
G01*
X145761242Y-101825976D01*
X145864738Y-101881296D01*
X145909078Y-101904996D01*
X146038659Y-102011341D01*
X146145004Y-102140922D01*
X146145005Y-102140924D01*
X146224024Y-102288758D01*
X146272687Y-102449177D01*
X146289117Y-102616000D01*
X146272687Y-102782823D01*
X146224024Y-102943242D01*
X146153114Y-103075906D01*
X146145004Y-103091078D01*
X146038659Y-103220659D01*
X145909078Y-103327004D01*
X145909076Y-103327005D01*
X145761242Y-103406024D01*
X145600823Y-103454687D01*
X145475804Y-103467000D01*
X144592196Y-103467000D01*
X144467177Y-103454687D01*
X144306758Y-103406024D01*
X144158924Y-103327005D01*
X144158922Y-103327004D01*
X144029341Y-103220659D01*
X143922996Y-103091078D01*
X143914886Y-103075906D01*
X143843976Y-102943242D01*
X143795313Y-102782823D01*
X143778883Y-102616000D01*
X143795313Y-102449177D01*
X143843976Y-102288758D01*
X143922995Y-102140924D01*
X143922996Y-102140922D01*
X144029341Y-102011341D01*
X144158922Y-101904996D01*
X144203262Y-101881296D01*
X144306758Y-101825976D01*
X144467177Y-101777313D01*
X144592196Y-101765000D01*
X145475804Y-101765000D01*
X145600823Y-101777313D01*
G37*
G36*
X155760823Y-101777313D02*
G01*
X155921242Y-101825976D01*
X156024738Y-101881296D01*
X156069078Y-101904996D01*
X156198659Y-102011341D01*
X156305004Y-102140922D01*
X156305005Y-102140924D01*
X156384024Y-102288758D01*
X156432687Y-102449177D01*
X156449117Y-102616000D01*
X156432687Y-102782823D01*
X156384024Y-102943242D01*
X156313114Y-103075906D01*
X156305004Y-103091078D01*
X156198659Y-103220659D01*
X156069078Y-103327004D01*
X156069076Y-103327005D01*
X155921242Y-103406024D01*
X155760823Y-103454687D01*
X155635804Y-103467000D01*
X154752196Y-103467000D01*
X154627177Y-103454687D01*
X154466758Y-103406024D01*
X154318924Y-103327005D01*
X154318922Y-103327004D01*
X154189341Y-103220659D01*
X154082996Y-103091078D01*
X154074886Y-103075906D01*
X154003976Y-102943242D01*
X153955313Y-102782823D01*
X153938883Y-102616000D01*
X153955313Y-102449177D01*
X154003976Y-102288758D01*
X154082995Y-102140924D01*
X154082996Y-102140922D01*
X154189341Y-102011341D01*
X154318922Y-101904996D01*
X154363262Y-101881296D01*
X154466758Y-101825976D01*
X154627177Y-101777313D01*
X154752196Y-101765000D01*
X155635804Y-101765000D01*
X155760823Y-101777313D01*
G37*
G36*
X112561468Y-101869565D02*
G01*
X112600138Y-101881296D01*
X112635777Y-101900346D01*
X112667017Y-101925983D01*
X112692654Y-101957223D01*
X112711704Y-101992862D01*
X112723435Y-102031532D01*
X112728000Y-102077888D01*
X112728000Y-103154112D01*
X112723435Y-103200468D01*
X112711704Y-103239138D01*
X112692654Y-103274777D01*
X112667017Y-103306017D01*
X112635777Y-103331654D01*
X112600138Y-103350704D01*
X112561468Y-103362435D01*
X112515112Y-103367000D01*
X111863888Y-103367000D01*
X111817532Y-103362435D01*
X111778862Y-103350704D01*
X111743223Y-103331654D01*
X111711983Y-103306017D01*
X111686346Y-103274777D01*
X111667296Y-103239138D01*
X111655565Y-103200468D01*
X111651000Y-103154112D01*
X111651000Y-102077888D01*
X111655565Y-102031532D01*
X111667296Y-101992862D01*
X111686346Y-101957223D01*
X111711983Y-101925983D01*
X111743223Y-101900346D01*
X111778862Y-101881296D01*
X111817532Y-101869565D01*
X111863888Y-101865000D01*
X112515112Y-101865000D01*
X112561468Y-101869565D01*
G37*
G36*
X110686468Y-101869565D02*
G01*
X110725138Y-101881296D01*
X110760777Y-101900346D01*
X110792017Y-101925983D01*
X110817654Y-101957223D01*
X110836704Y-101992862D01*
X110848435Y-102031532D01*
X110853000Y-102077888D01*
X110853000Y-103154112D01*
X110848435Y-103200468D01*
X110836704Y-103239138D01*
X110817654Y-103274777D01*
X110792017Y-103306017D01*
X110760777Y-103331654D01*
X110725138Y-103350704D01*
X110686468Y-103362435D01*
X110640112Y-103367000D01*
X109988888Y-103367000D01*
X109942532Y-103362435D01*
X109903862Y-103350704D01*
X109868223Y-103331654D01*
X109836983Y-103306017D01*
X109811346Y-103274777D01*
X109792296Y-103239138D01*
X109780565Y-103200468D01*
X109776000Y-103154112D01*
X109776000Y-102077888D01*
X109780565Y-102031532D01*
X109792296Y-101992862D01*
X109811346Y-101957223D01*
X109836983Y-101925983D01*
X109868223Y-101900346D01*
X109903862Y-101881296D01*
X109942532Y-101869565D01*
X109988888Y-101865000D01*
X110640112Y-101865000D01*
X110686468Y-101869565D01*
G37*
G36*
X151207786Y-100417746D02*
G01*
X151238461Y-100427051D01*
X151266729Y-100442161D01*
X151291506Y-100462494D01*
X151311839Y-100487271D01*
X151326949Y-100515539D01*
X151336254Y-100546214D01*
X151340000Y-100584251D01*
X151340000Y-102595749D01*
X151336254Y-102633786D01*
X151326949Y-102664461D01*
X151311839Y-102692729D01*
X151291506Y-102717506D01*
X151266729Y-102737839D01*
X151238461Y-102752949D01*
X151207786Y-102762254D01*
X151169749Y-102766000D01*
X149058251Y-102766000D01*
X149020214Y-102762254D01*
X148989539Y-102752949D01*
X148961271Y-102737839D01*
X148936494Y-102717506D01*
X148916161Y-102692729D01*
X148901051Y-102664461D01*
X148891746Y-102633786D01*
X148888000Y-102595749D01*
X148888000Y-100584251D01*
X148891746Y-100546214D01*
X148901051Y-100515539D01*
X148916161Y-100487271D01*
X148936494Y-100462494D01*
X148961271Y-100442161D01*
X148989539Y-100427051D01*
X149020214Y-100417746D01*
X149058251Y-100414000D01*
X151169749Y-100414000D01*
X151207786Y-100417746D01*
G37*
G36*
X104253512Y-100703927D02*
G01*
X104402812Y-100733624D01*
X104566784Y-100801544D01*
X104714354Y-100900147D01*
X104839853Y-101025646D01*
X104938456Y-101173216D01*
X105006376Y-101337188D01*
X105041000Y-101511259D01*
X105041000Y-101688741D01*
X105006376Y-101862812D01*
X104938456Y-102026784D01*
X104839853Y-102174354D01*
X104714354Y-102299853D01*
X104566784Y-102398456D01*
X104402812Y-102466376D01*
X104253512Y-102496073D01*
X104228742Y-102501000D01*
X104051258Y-102501000D01*
X104026488Y-102496073D01*
X103877188Y-102466376D01*
X103713216Y-102398456D01*
X103565646Y-102299853D01*
X103440147Y-102174354D01*
X103341544Y-102026784D01*
X103273624Y-101862812D01*
X103239000Y-101688741D01*
X103239000Y-101511259D01*
X103273624Y-101337188D01*
X103341544Y-101173216D01*
X103440147Y-101025646D01*
X103565646Y-100900147D01*
X103713216Y-100801544D01*
X103877188Y-100733624D01*
X104026488Y-100703927D01*
X104051258Y-100699000D01*
X104228742Y-100699000D01*
X104253512Y-100703927D01*
G37*
G36*
X101713512Y-100703927D02*
G01*
X101862812Y-100733624D01*
X102026784Y-100801544D01*
X102174354Y-100900147D01*
X102299853Y-101025646D01*
X102398456Y-101173216D01*
X102466376Y-101337188D01*
X102501000Y-101511259D01*
X102501000Y-101688741D01*
X102466376Y-101862812D01*
X102398456Y-102026784D01*
X102299853Y-102174354D01*
X102174354Y-102299853D01*
X102026784Y-102398456D01*
X101862812Y-102466376D01*
X101713512Y-102496073D01*
X101688742Y-102501000D01*
X101511258Y-102501000D01*
X101486488Y-102496073D01*
X101337188Y-102466376D01*
X101173216Y-102398456D01*
X101025646Y-102299853D01*
X100900147Y-102174354D01*
X100801544Y-102026784D01*
X100733624Y-101862812D01*
X100699000Y-101688741D01*
X100699000Y-101511259D01*
X100733624Y-101337188D01*
X100801544Y-101173216D01*
X100900147Y-101025646D01*
X101025646Y-100900147D01*
X101173216Y-100801544D01*
X101337188Y-100733624D01*
X101486488Y-100703927D01*
X101511258Y-100699000D01*
X101688742Y-100699000D01*
X101713512Y-100703927D01*
G37*
G36*
X123150968Y-100853565D02*
G01*
X123189638Y-100865296D01*
X123225277Y-100884346D01*
X123256517Y-100909983D01*
X123282154Y-100941223D01*
X123301204Y-100976862D01*
X123312935Y-101015532D01*
X123317500Y-101061888D01*
X123317500Y-102138112D01*
X123312935Y-102184468D01*
X123301204Y-102223138D01*
X123282154Y-102258777D01*
X123256517Y-102290017D01*
X123225277Y-102315654D01*
X123189638Y-102334704D01*
X123150968Y-102346435D01*
X123104612Y-102351000D01*
X122453388Y-102351000D01*
X122407032Y-102346435D01*
X122368362Y-102334704D01*
X122332723Y-102315654D01*
X122301483Y-102290017D01*
X122275846Y-102258777D01*
X122256796Y-102223138D01*
X122245065Y-102184468D01*
X122240500Y-102138112D01*
X122240500Y-101061888D01*
X122245065Y-101015532D01*
X122256796Y-100976862D01*
X122275846Y-100941223D01*
X122301483Y-100909983D01*
X122332723Y-100884346D01*
X122368362Y-100865296D01*
X122407032Y-100853565D01*
X122453388Y-100849000D01*
X123104612Y-100849000D01*
X123150968Y-100853565D01*
G37*
G36*
X121275968Y-100853565D02*
G01*
X121314638Y-100865296D01*
X121350277Y-100884346D01*
X121381517Y-100909983D01*
X121407154Y-100941223D01*
X121426204Y-100976862D01*
X121437935Y-101015532D01*
X121442500Y-101061888D01*
X121442500Y-102138112D01*
X121437935Y-102184468D01*
X121426204Y-102223138D01*
X121407154Y-102258777D01*
X121381517Y-102290017D01*
X121350277Y-102315654D01*
X121314638Y-102334704D01*
X121275968Y-102346435D01*
X121229612Y-102351000D01*
X120578388Y-102351000D01*
X120532032Y-102346435D01*
X120493362Y-102334704D01*
X120457723Y-102315654D01*
X120426483Y-102290017D01*
X120400846Y-102258777D01*
X120381796Y-102223138D01*
X120370065Y-102184468D01*
X120365500Y-102138112D01*
X120365500Y-101061888D01*
X120370065Y-101015532D01*
X120381796Y-100976862D01*
X120400846Y-100941223D01*
X120426483Y-100909983D01*
X120457723Y-100884346D01*
X120493362Y-100865296D01*
X120532032Y-100853565D01*
X120578388Y-100849000D01*
X121229612Y-100849000D01*
X121275968Y-100853565D01*
G37*
G36*
X117373000Y-101477000D02*
G01*
X116371000Y-101477000D01*
X116371000Y-100575000D01*
X117373000Y-100575000D01*
X117373000Y-101477000D01*
G37*
G36*
X112639968Y-99837565D02*
G01*
X112678638Y-99849296D01*
X112714277Y-99868346D01*
X112745517Y-99893983D01*
X112771154Y-99925223D01*
X112790204Y-99960862D01*
X112801935Y-99999532D01*
X112806500Y-100045888D01*
X112806500Y-101122112D01*
X112801935Y-101168468D01*
X112790204Y-101207138D01*
X112771154Y-101242777D01*
X112745517Y-101274017D01*
X112714277Y-101299654D01*
X112678638Y-101318704D01*
X112639968Y-101330435D01*
X112593612Y-101335000D01*
X111942388Y-101335000D01*
X111896032Y-101330435D01*
X111857362Y-101318704D01*
X111821723Y-101299654D01*
X111790483Y-101274017D01*
X111764846Y-101242777D01*
X111745796Y-101207138D01*
X111734065Y-101168468D01*
X111729500Y-101122112D01*
X111729500Y-100045888D01*
X111734065Y-99999532D01*
X111745796Y-99960862D01*
X111764846Y-99925223D01*
X111790483Y-99893983D01*
X111821723Y-99868346D01*
X111857362Y-99849296D01*
X111896032Y-99837565D01*
X111942388Y-99833000D01*
X112593612Y-99833000D01*
X112639968Y-99837565D01*
G37*
G36*
X110764968Y-99837565D02*
G01*
X110803638Y-99849296D01*
X110839277Y-99868346D01*
X110870517Y-99893983D01*
X110896154Y-99925223D01*
X110915204Y-99960862D01*
X110926935Y-99999532D01*
X110931500Y-100045888D01*
X110931500Y-101122112D01*
X110926935Y-101168468D01*
X110915204Y-101207138D01*
X110896154Y-101242777D01*
X110870517Y-101274017D01*
X110839277Y-101299654D01*
X110803638Y-101318704D01*
X110764968Y-101330435D01*
X110718612Y-101335000D01*
X110067388Y-101335000D01*
X110021032Y-101330435D01*
X109982362Y-101318704D01*
X109946723Y-101299654D01*
X109915483Y-101274017D01*
X109889846Y-101242777D01*
X109870796Y-101207138D01*
X109859065Y-101168468D01*
X109854500Y-101122112D01*
X109854500Y-100045888D01*
X109859065Y-99999532D01*
X109870796Y-99960862D01*
X109889846Y-99925223D01*
X109915483Y-99893983D01*
X109946723Y-99868346D01*
X109982362Y-99849296D01*
X110021032Y-99837565D01*
X110067388Y-99833000D01*
X110718612Y-99833000D01*
X110764968Y-99837565D01*
G37*
G36*
X158863512Y-99179927D02*
G01*
X159012812Y-99209624D01*
X159176784Y-99277544D01*
X159324354Y-99376147D01*
X159449853Y-99501646D01*
X159548456Y-99649216D01*
X159616376Y-99813188D01*
X159651000Y-99987259D01*
X159651000Y-100164741D01*
X159616376Y-100338812D01*
X159548456Y-100502784D01*
X159449853Y-100650354D01*
X159324354Y-100775853D01*
X159176784Y-100874456D01*
X159012812Y-100942376D01*
X158863512Y-100972073D01*
X158838742Y-100977000D01*
X158661258Y-100977000D01*
X158636488Y-100972073D01*
X158487188Y-100942376D01*
X158323216Y-100874456D01*
X158175646Y-100775853D01*
X158050147Y-100650354D01*
X157951544Y-100502784D01*
X157883624Y-100338812D01*
X157849000Y-100164741D01*
X157849000Y-99987259D01*
X157883624Y-99813188D01*
X157951544Y-99649216D01*
X158050147Y-99501646D01*
X158175646Y-99376147D01*
X158323216Y-99277544D01*
X158487188Y-99209624D01*
X158636488Y-99179927D01*
X158661258Y-99175000D01*
X158838742Y-99175000D01*
X158863512Y-99179927D01*
G37*
G36*
X155760823Y-99237313D02*
G01*
X155921242Y-99285976D01*
X156024738Y-99341296D01*
X156069078Y-99364996D01*
X156198659Y-99471341D01*
X156305004Y-99600922D01*
X156305005Y-99600924D01*
X156384024Y-99748758D01*
X156432687Y-99909177D01*
X156449117Y-100076000D01*
X156432687Y-100242823D01*
X156384024Y-100403242D01*
X156324000Y-100515539D01*
X156305004Y-100551078D01*
X156198659Y-100680659D01*
X156069078Y-100787004D01*
X156069076Y-100787005D01*
X155921242Y-100866024D01*
X155760823Y-100914687D01*
X155635804Y-100927000D01*
X154752196Y-100927000D01*
X154627177Y-100914687D01*
X154466758Y-100866024D01*
X154318924Y-100787005D01*
X154318922Y-100787004D01*
X154189341Y-100680659D01*
X154082996Y-100551078D01*
X154064000Y-100515539D01*
X154003976Y-100403242D01*
X153955313Y-100242823D01*
X153938883Y-100076000D01*
X153955313Y-99909177D01*
X154003976Y-99748758D01*
X154082995Y-99600924D01*
X154082996Y-99600922D01*
X154189341Y-99471341D01*
X154318922Y-99364996D01*
X154363262Y-99341296D01*
X154466758Y-99285976D01*
X154627177Y-99237313D01*
X154752196Y-99225000D01*
X155635804Y-99225000D01*
X155760823Y-99237313D01*
G37*
G36*
X145600823Y-99237313D02*
G01*
X145761242Y-99285976D01*
X145864738Y-99341296D01*
X145909078Y-99364996D01*
X146038659Y-99471341D01*
X146145004Y-99600922D01*
X146145005Y-99600924D01*
X146224024Y-99748758D01*
X146272687Y-99909177D01*
X146289117Y-100076000D01*
X146272687Y-100242823D01*
X146224024Y-100403242D01*
X146164000Y-100515539D01*
X146145004Y-100551078D01*
X146038659Y-100680659D01*
X145909078Y-100787004D01*
X145909076Y-100787005D01*
X145761242Y-100866024D01*
X145600823Y-100914687D01*
X145475804Y-100927000D01*
X144592196Y-100927000D01*
X144467177Y-100914687D01*
X144306758Y-100866024D01*
X144158924Y-100787005D01*
X144158922Y-100787004D01*
X144029341Y-100680659D01*
X143922996Y-100551078D01*
X143904000Y-100515539D01*
X143843976Y-100403242D01*
X143795313Y-100242823D01*
X143778883Y-100076000D01*
X143795313Y-99909177D01*
X143843976Y-99748758D01*
X143922995Y-99600924D01*
X143922996Y-99600922D01*
X144029341Y-99471341D01*
X144158922Y-99364996D01*
X144203262Y-99341296D01*
X144306758Y-99285976D01*
X144467177Y-99237313D01*
X144592196Y-99225000D01*
X145475804Y-99225000D01*
X145600823Y-99237313D01*
G37*
G36*
X124988968Y-99329565D02*
G01*
X125027638Y-99341296D01*
X125063277Y-99360346D01*
X125094517Y-99385983D01*
X125120154Y-99417223D01*
X125139204Y-99452862D01*
X125150935Y-99491532D01*
X125155500Y-99537888D01*
X125155500Y-100614112D01*
X125150935Y-100660468D01*
X125139204Y-100699138D01*
X125120154Y-100734777D01*
X125094517Y-100766017D01*
X125063277Y-100791654D01*
X125027638Y-100810704D01*
X124988968Y-100822435D01*
X124942612Y-100827000D01*
X124291388Y-100827000D01*
X124245032Y-100822435D01*
X124206362Y-100810704D01*
X124170723Y-100791654D01*
X124139483Y-100766017D01*
X124113846Y-100734777D01*
X124094796Y-100699138D01*
X124083065Y-100660468D01*
X124078500Y-100614112D01*
X124078500Y-99537888D01*
X124083065Y-99491532D01*
X124094796Y-99452862D01*
X124113846Y-99417223D01*
X124139483Y-99385983D01*
X124170723Y-99360346D01*
X124206362Y-99341296D01*
X124245032Y-99329565D01*
X124291388Y-99325000D01*
X124942612Y-99325000D01*
X124988968Y-99329565D01*
G37*
G36*
X126863968Y-99329565D02*
G01*
X126902638Y-99341296D01*
X126938277Y-99360346D01*
X126969517Y-99385983D01*
X126995154Y-99417223D01*
X127014204Y-99452862D01*
X127025935Y-99491532D01*
X127030500Y-99537888D01*
X127030500Y-100614112D01*
X127025935Y-100660468D01*
X127014204Y-100699138D01*
X126995154Y-100734777D01*
X126969517Y-100766017D01*
X126938277Y-100791654D01*
X126902638Y-100810704D01*
X126863968Y-100822435D01*
X126817612Y-100827000D01*
X126166388Y-100827000D01*
X126120032Y-100822435D01*
X126081362Y-100810704D01*
X126045723Y-100791654D01*
X126014483Y-100766017D01*
X125988846Y-100734777D01*
X125969796Y-100699138D01*
X125958065Y-100660468D01*
X125953500Y-100614112D01*
X125953500Y-99537888D01*
X125958065Y-99491532D01*
X125969796Y-99452862D01*
X125988846Y-99417223D01*
X126014483Y-99385983D01*
X126045723Y-99360346D01*
X126081362Y-99341296D01*
X126120032Y-99329565D01*
X126166388Y-99325000D01*
X126817612Y-99325000D01*
X126863968Y-99329565D01*
G37*
G36*
X119373000Y-100527000D02*
G01*
X118371000Y-100527000D01*
X118371000Y-99625000D01*
X119373000Y-99625000D01*
X119373000Y-100527000D01*
G37*
G36*
X101713512Y-98163927D02*
G01*
X101862812Y-98193624D01*
X102026784Y-98261544D01*
X102174354Y-98360147D01*
X102299853Y-98485646D01*
X102398456Y-98633216D01*
X102466376Y-98797188D01*
X102501000Y-98971259D01*
X102501000Y-99148741D01*
X102466376Y-99322812D01*
X102398456Y-99486784D01*
X102299853Y-99634354D01*
X102174354Y-99759853D01*
X102026784Y-99858456D01*
X101862812Y-99926376D01*
X101713512Y-99956073D01*
X101688742Y-99961000D01*
X101511258Y-99961000D01*
X101486488Y-99956073D01*
X101337188Y-99926376D01*
X101173216Y-99858456D01*
X101025646Y-99759853D01*
X100900147Y-99634354D01*
X100801544Y-99486784D01*
X100733624Y-99322812D01*
X100699000Y-99148741D01*
X100699000Y-98971259D01*
X100733624Y-98797188D01*
X100801544Y-98633216D01*
X100900147Y-98485646D01*
X101025646Y-98360147D01*
X101173216Y-98261544D01*
X101337188Y-98193624D01*
X101486488Y-98163927D01*
X101511258Y-98159000D01*
X101688742Y-98159000D01*
X101713512Y-98163927D01*
G37*
G36*
X104253512Y-98163927D02*
G01*
X104402812Y-98193624D01*
X104566784Y-98261544D01*
X104714354Y-98360147D01*
X104839853Y-98485646D01*
X104938456Y-98633216D01*
X105006376Y-98797188D01*
X105041000Y-98971259D01*
X105041000Y-99148741D01*
X105006376Y-99322812D01*
X104938456Y-99486784D01*
X104839853Y-99634354D01*
X104714354Y-99759853D01*
X104566784Y-99858456D01*
X104402812Y-99926376D01*
X104253512Y-99956073D01*
X104228742Y-99961000D01*
X104051258Y-99961000D01*
X104026488Y-99956073D01*
X103877188Y-99926376D01*
X103713216Y-99858456D01*
X103565646Y-99759853D01*
X103440147Y-99634354D01*
X103341544Y-99486784D01*
X103273624Y-99322812D01*
X103239000Y-99148741D01*
X103239000Y-98971259D01*
X103273624Y-98797188D01*
X103341544Y-98633216D01*
X103440147Y-98485646D01*
X103565646Y-98360147D01*
X103713216Y-98261544D01*
X103877188Y-98193624D01*
X104026488Y-98163927D01*
X104051258Y-98159000D01*
X104228742Y-98159000D01*
X104253512Y-98163927D01*
G37*
G36*
X117373000Y-99577000D02*
G01*
X116371000Y-99577000D01*
X116371000Y-98675000D01*
X117373000Y-98675000D01*
X117373000Y-99577000D01*
G37*
G36*
X110686468Y-97805565D02*
G01*
X110725138Y-97817296D01*
X110760777Y-97836346D01*
X110792017Y-97861983D01*
X110817654Y-97893223D01*
X110836704Y-97928862D01*
X110848435Y-97967532D01*
X110853000Y-98013888D01*
X110853000Y-99090112D01*
X110848435Y-99136468D01*
X110836704Y-99175138D01*
X110817654Y-99210777D01*
X110792017Y-99242017D01*
X110760777Y-99267654D01*
X110725138Y-99286704D01*
X110686468Y-99298435D01*
X110640112Y-99303000D01*
X109988888Y-99303000D01*
X109942532Y-99298435D01*
X109903862Y-99286704D01*
X109868223Y-99267654D01*
X109836983Y-99242017D01*
X109811346Y-99210777D01*
X109792296Y-99175138D01*
X109780565Y-99136468D01*
X109776000Y-99090112D01*
X109776000Y-98013888D01*
X109780565Y-97967532D01*
X109792296Y-97928862D01*
X109811346Y-97893223D01*
X109836983Y-97861983D01*
X109868223Y-97836346D01*
X109903862Y-97817296D01*
X109942532Y-97805565D01*
X109988888Y-97801000D01*
X110640112Y-97801000D01*
X110686468Y-97805565D01*
G37*
G36*
X112561468Y-97805565D02*
G01*
X112600138Y-97817296D01*
X112635777Y-97836346D01*
X112667017Y-97861983D01*
X112692654Y-97893223D01*
X112711704Y-97928862D01*
X112723435Y-97967532D01*
X112728000Y-98013888D01*
X112728000Y-99090112D01*
X112723435Y-99136468D01*
X112711704Y-99175138D01*
X112692654Y-99210777D01*
X112667017Y-99242017D01*
X112635777Y-99267654D01*
X112600138Y-99286704D01*
X112561468Y-99298435D01*
X112515112Y-99303000D01*
X111863888Y-99303000D01*
X111817532Y-99298435D01*
X111778862Y-99286704D01*
X111743223Y-99267654D01*
X111711983Y-99242017D01*
X111686346Y-99210777D01*
X111667296Y-99175138D01*
X111655565Y-99136468D01*
X111651000Y-99090112D01*
X111651000Y-98013888D01*
X111655565Y-97967532D01*
X111667296Y-97928862D01*
X111686346Y-97893223D01*
X111711983Y-97861983D01*
X111743223Y-97836346D01*
X111778862Y-97817296D01*
X111817532Y-97805565D01*
X111863888Y-97801000D01*
X112515112Y-97801000D01*
X112561468Y-97805565D01*
G37*
G36*
X121275968Y-97297565D02*
G01*
X121314638Y-97309296D01*
X121350277Y-97328346D01*
X121381517Y-97353983D01*
X121407154Y-97385223D01*
X121426204Y-97420862D01*
X121437935Y-97459532D01*
X121442500Y-97505888D01*
X121442500Y-98582112D01*
X121437935Y-98628468D01*
X121426204Y-98667138D01*
X121407154Y-98702777D01*
X121381517Y-98734017D01*
X121350277Y-98759654D01*
X121314638Y-98778704D01*
X121275968Y-98790435D01*
X121229612Y-98795000D01*
X120578388Y-98795000D01*
X120532032Y-98790435D01*
X120493362Y-98778704D01*
X120457723Y-98759654D01*
X120426483Y-98734017D01*
X120400846Y-98702777D01*
X120381796Y-98667138D01*
X120370065Y-98628468D01*
X120365500Y-98582112D01*
X120365500Y-97505888D01*
X120370065Y-97459532D01*
X120381796Y-97420862D01*
X120400846Y-97385223D01*
X120426483Y-97353983D01*
X120457723Y-97328346D01*
X120493362Y-97309296D01*
X120532032Y-97297565D01*
X120578388Y-97293000D01*
X121229612Y-97293000D01*
X121275968Y-97297565D01*
G37*
G36*
X123150968Y-97297565D02*
G01*
X123189638Y-97309296D01*
X123225277Y-97328346D01*
X123256517Y-97353983D01*
X123282154Y-97385223D01*
X123301204Y-97420862D01*
X123312935Y-97459532D01*
X123317500Y-97505888D01*
X123317500Y-98582112D01*
X123312935Y-98628468D01*
X123301204Y-98667138D01*
X123282154Y-98702777D01*
X123256517Y-98734017D01*
X123225277Y-98759654D01*
X123189638Y-98778704D01*
X123150968Y-98790435D01*
X123104612Y-98795000D01*
X122453388Y-98795000D01*
X122407032Y-98790435D01*
X122368362Y-98778704D01*
X122332723Y-98759654D01*
X122301483Y-98734017D01*
X122275846Y-98702777D01*
X122256796Y-98667138D01*
X122245065Y-98628468D01*
X122240500Y-98582112D01*
X122240500Y-97505888D01*
X122245065Y-97459532D01*
X122256796Y-97420862D01*
X122275846Y-97385223D01*
X122301483Y-97353983D01*
X122332723Y-97328346D01*
X122368362Y-97309296D01*
X122407032Y-97297565D01*
X122453388Y-97293000D01*
X123104612Y-97293000D01*
X123150968Y-97297565D01*
G37*
G36*
X151207786Y-96129746D02*
G01*
X151238461Y-96139051D01*
X151266729Y-96154161D01*
X151291506Y-96174494D01*
X151311839Y-96199271D01*
X151326949Y-96227539D01*
X151336254Y-96258214D01*
X151340000Y-96296251D01*
X151340000Y-98307749D01*
X151336254Y-98345786D01*
X151326949Y-98376461D01*
X151311839Y-98404729D01*
X151291506Y-98429506D01*
X151266729Y-98449839D01*
X151238461Y-98464949D01*
X151207786Y-98474254D01*
X151169749Y-98478000D01*
X149058251Y-98478000D01*
X149020214Y-98474254D01*
X148989539Y-98464949D01*
X148961271Y-98449839D01*
X148936494Y-98429506D01*
X148916161Y-98404729D01*
X148901051Y-98376461D01*
X148891746Y-98345786D01*
X148888000Y-98307749D01*
X148888000Y-96296251D01*
X148891746Y-96258214D01*
X148901051Y-96227539D01*
X148916161Y-96199271D01*
X148936494Y-96174494D01*
X148961271Y-96154161D01*
X148989539Y-96139051D01*
X149020214Y-96129746D01*
X149058251Y-96126000D01*
X151169749Y-96126000D01*
X151207786Y-96129746D01*
G37*
G36*
X158863512Y-96639927D02*
G01*
X159012812Y-96669624D01*
X159176784Y-96737544D01*
X159324354Y-96836147D01*
X159449853Y-96961646D01*
X159548456Y-97109216D01*
X159616376Y-97273188D01*
X159651000Y-97447259D01*
X159651000Y-97624741D01*
X159616376Y-97798812D01*
X159548456Y-97962784D01*
X159449853Y-98110354D01*
X159324354Y-98235853D01*
X159176784Y-98334456D01*
X159012812Y-98402376D01*
X158863512Y-98432073D01*
X158838742Y-98437000D01*
X158661258Y-98437000D01*
X158636488Y-98432073D01*
X158487188Y-98402376D01*
X158323216Y-98334456D01*
X158175646Y-98235853D01*
X158050147Y-98110354D01*
X157951544Y-97962784D01*
X157883624Y-97798812D01*
X157849000Y-97624741D01*
X157849000Y-97447259D01*
X157883624Y-97273188D01*
X157951544Y-97109216D01*
X158050147Y-96961646D01*
X158175646Y-96836147D01*
X158323216Y-96737544D01*
X158487188Y-96669624D01*
X158636488Y-96639927D01*
X158661258Y-96635000D01*
X158838742Y-96635000D01*
X158863512Y-96639927D01*
G37*
G36*
X155760823Y-96697313D02*
G01*
X155921242Y-96745976D01*
X155990155Y-96782811D01*
X156069078Y-96824996D01*
X156198659Y-96931341D01*
X156305004Y-97060922D01*
X156305005Y-97060924D01*
X156384024Y-97208758D01*
X156432687Y-97369177D01*
X156449117Y-97536000D01*
X156432687Y-97702823D01*
X156384024Y-97863242D01*
X156328451Y-97967212D01*
X156305004Y-98011078D01*
X156198659Y-98140659D01*
X156069078Y-98247004D01*
X156069076Y-98247005D01*
X155921242Y-98326024D01*
X155760823Y-98374687D01*
X155635804Y-98387000D01*
X154752196Y-98387000D01*
X154627177Y-98374687D01*
X154466758Y-98326024D01*
X154318924Y-98247005D01*
X154318922Y-98247004D01*
X154189341Y-98140659D01*
X154082996Y-98011078D01*
X154059549Y-97967212D01*
X154003976Y-97863242D01*
X153955313Y-97702823D01*
X153938883Y-97536000D01*
X153955313Y-97369177D01*
X154003976Y-97208758D01*
X154082995Y-97060924D01*
X154082996Y-97060922D01*
X154189341Y-96931341D01*
X154318922Y-96824996D01*
X154397845Y-96782811D01*
X154466758Y-96745976D01*
X154627177Y-96697313D01*
X154752196Y-96685000D01*
X155635804Y-96685000D01*
X155760823Y-96697313D01*
G37*
G36*
X145600823Y-96697313D02*
G01*
X145761242Y-96745976D01*
X145830155Y-96782811D01*
X145909078Y-96824996D01*
X146038659Y-96931341D01*
X146145004Y-97060922D01*
X146145005Y-97060924D01*
X146224024Y-97208758D01*
X146272687Y-97369177D01*
X146289117Y-97536000D01*
X146272687Y-97702823D01*
X146224024Y-97863242D01*
X146168451Y-97967212D01*
X146145004Y-98011078D01*
X146038659Y-98140659D01*
X145909078Y-98247004D01*
X145909076Y-98247005D01*
X145761242Y-98326024D01*
X145600823Y-98374687D01*
X145475804Y-98387000D01*
X144592196Y-98387000D01*
X144467177Y-98374687D01*
X144306758Y-98326024D01*
X144158924Y-98247005D01*
X144158922Y-98247004D01*
X144029341Y-98140659D01*
X143922996Y-98011078D01*
X143899549Y-97967212D01*
X143843976Y-97863242D01*
X143795313Y-97702823D01*
X143778883Y-97536000D01*
X143795313Y-97369177D01*
X143843976Y-97208758D01*
X143922995Y-97060924D01*
X143922996Y-97060922D01*
X144029341Y-96931341D01*
X144158922Y-96824996D01*
X144237845Y-96782811D01*
X144306758Y-96745976D01*
X144467177Y-96697313D01*
X144592196Y-96685000D01*
X145475804Y-96685000D01*
X145600823Y-96697313D01*
G37*
G36*
X104253512Y-95623927D02*
G01*
X104402812Y-95653624D01*
X104566784Y-95721544D01*
X104714354Y-95820147D01*
X104839853Y-95945646D01*
X104938456Y-96093216D01*
X105006376Y-96257188D01*
X105041000Y-96431259D01*
X105041000Y-96608741D01*
X105006376Y-96782812D01*
X104938456Y-96946784D01*
X104839853Y-97094354D01*
X104714354Y-97219853D01*
X104566784Y-97318456D01*
X104402812Y-97386376D01*
X104253512Y-97416073D01*
X104228742Y-97421000D01*
X104051258Y-97421000D01*
X104026488Y-97416073D01*
X103877188Y-97386376D01*
X103713216Y-97318456D01*
X103565646Y-97219853D01*
X103440147Y-97094354D01*
X103341544Y-96946784D01*
X103273624Y-96782812D01*
X103239000Y-96608741D01*
X103239000Y-96431259D01*
X103273624Y-96257188D01*
X103341544Y-96093216D01*
X103440147Y-95945646D01*
X103565646Y-95820147D01*
X103713216Y-95721544D01*
X103877188Y-95653624D01*
X104026488Y-95623927D01*
X104051258Y-95619000D01*
X104228742Y-95619000D01*
X104253512Y-95623927D01*
G37*
G36*
X101713512Y-95623927D02*
G01*
X101862812Y-95653624D01*
X102026784Y-95721544D01*
X102174354Y-95820147D01*
X102299853Y-95945646D01*
X102398456Y-96093216D01*
X102466376Y-96257188D01*
X102501000Y-96431259D01*
X102501000Y-96608741D01*
X102466376Y-96782812D01*
X102398456Y-96946784D01*
X102299853Y-97094354D01*
X102174354Y-97219853D01*
X102026784Y-97318456D01*
X101862812Y-97386376D01*
X101713512Y-97416073D01*
X101688742Y-97421000D01*
X101511258Y-97421000D01*
X101486488Y-97416073D01*
X101337188Y-97386376D01*
X101173216Y-97318456D01*
X101025646Y-97219853D01*
X100900147Y-97094354D01*
X100801544Y-96946784D01*
X100733624Y-96782812D01*
X100699000Y-96608741D01*
X100699000Y-96431259D01*
X100733624Y-96257188D01*
X100801544Y-96093216D01*
X100900147Y-95945646D01*
X101025646Y-95820147D01*
X101173216Y-95721544D01*
X101337188Y-95653624D01*
X101486488Y-95623927D01*
X101511258Y-95619000D01*
X101688742Y-95619000D01*
X101713512Y-95623927D01*
G37*
G36*
X117373000Y-97413000D02*
G01*
X116371000Y-97413000D01*
X116371000Y-96511000D01*
X117373000Y-96511000D01*
X117373000Y-97413000D01*
G37*
G36*
X124910468Y-95265565D02*
G01*
X124949138Y-95277296D01*
X124984777Y-95296346D01*
X125016017Y-95321983D01*
X125041654Y-95353223D01*
X125060704Y-95388862D01*
X125072435Y-95427532D01*
X125077000Y-95473888D01*
X125077000Y-96550112D01*
X125072435Y-96596468D01*
X125060704Y-96635138D01*
X125041654Y-96670777D01*
X125016017Y-96702017D01*
X124984777Y-96727654D01*
X124949138Y-96746704D01*
X124910468Y-96758435D01*
X124864112Y-96763000D01*
X124212888Y-96763000D01*
X124166532Y-96758435D01*
X124127862Y-96746704D01*
X124092223Y-96727654D01*
X124060983Y-96702017D01*
X124035346Y-96670777D01*
X124016296Y-96635138D01*
X124004565Y-96596468D01*
X124000000Y-96550112D01*
X124000000Y-95473888D01*
X124004565Y-95427532D01*
X124016296Y-95388862D01*
X124035346Y-95353223D01*
X124060983Y-95321983D01*
X124092223Y-95296346D01*
X124127862Y-95277296D01*
X124166532Y-95265565D01*
X124212888Y-95261000D01*
X124864112Y-95261000D01*
X124910468Y-95265565D01*
G37*
G36*
X126785468Y-95265565D02*
G01*
X126824138Y-95277296D01*
X126859777Y-95296346D01*
X126891017Y-95321983D01*
X126916654Y-95353223D01*
X126935704Y-95388862D01*
X126947435Y-95427532D01*
X126952000Y-95473888D01*
X126952000Y-96550112D01*
X126947435Y-96596468D01*
X126935704Y-96635138D01*
X126916654Y-96670777D01*
X126891017Y-96702017D01*
X126859777Y-96727654D01*
X126824138Y-96746704D01*
X126785468Y-96758435D01*
X126739112Y-96763000D01*
X126087888Y-96763000D01*
X126041532Y-96758435D01*
X126002862Y-96746704D01*
X125967223Y-96727654D01*
X125935983Y-96702017D01*
X125910346Y-96670777D01*
X125891296Y-96635138D01*
X125879565Y-96596468D01*
X125875000Y-96550112D01*
X125875000Y-95473888D01*
X125879565Y-95427532D01*
X125891296Y-95388862D01*
X125910346Y-95353223D01*
X125935983Y-95321983D01*
X125967223Y-95296346D01*
X126002862Y-95277296D01*
X126041532Y-95265565D01*
X126087888Y-95261000D01*
X126739112Y-95261000D01*
X126785468Y-95265565D01*
G37*
G36*
X119373000Y-96463000D02*
G01*
X118371000Y-96463000D01*
X118371000Y-95561000D01*
X119373000Y-95561000D01*
X119373000Y-96463000D01*
G37*
G36*
X158863512Y-94099927D02*
G01*
X159012812Y-94129624D01*
X159176784Y-94197544D01*
X159324354Y-94296147D01*
X159449853Y-94421646D01*
X159548456Y-94569216D01*
X159616376Y-94733188D01*
X159651000Y-94907259D01*
X159651000Y-95084741D01*
X159616376Y-95258812D01*
X159548456Y-95422784D01*
X159449853Y-95570354D01*
X159324354Y-95695853D01*
X159176784Y-95794456D01*
X159012812Y-95862376D01*
X158863512Y-95892073D01*
X158838742Y-95897000D01*
X158661258Y-95897000D01*
X158636488Y-95892073D01*
X158487188Y-95862376D01*
X158323216Y-95794456D01*
X158175646Y-95695853D01*
X158050147Y-95570354D01*
X157951544Y-95422784D01*
X157883624Y-95258812D01*
X157849000Y-95084741D01*
X157849000Y-94907259D01*
X157883624Y-94733188D01*
X157951544Y-94569216D01*
X158050147Y-94421646D01*
X158175646Y-94296147D01*
X158323216Y-94197544D01*
X158487188Y-94129624D01*
X158636488Y-94099927D01*
X158661258Y-94095000D01*
X158838742Y-94095000D01*
X158863512Y-94099927D01*
G37*
G36*
X145600823Y-94157313D02*
G01*
X145761242Y-94205976D01*
X145830155Y-94242811D01*
X145909078Y-94284996D01*
X146038659Y-94391341D01*
X146145004Y-94520922D01*
X146145005Y-94520924D01*
X146224024Y-94668758D01*
X146272687Y-94829177D01*
X146289117Y-94996000D01*
X146272687Y-95162823D01*
X146224024Y-95323242D01*
X146168451Y-95427212D01*
X146145004Y-95471078D01*
X146038659Y-95600659D01*
X145909078Y-95707004D01*
X145909076Y-95707005D01*
X145761242Y-95786024D01*
X145600823Y-95834687D01*
X145475804Y-95847000D01*
X144592196Y-95847000D01*
X144467177Y-95834687D01*
X144306758Y-95786024D01*
X144158924Y-95707005D01*
X144158922Y-95707004D01*
X144029341Y-95600659D01*
X143922996Y-95471078D01*
X143899549Y-95427212D01*
X143843976Y-95323242D01*
X143795313Y-95162823D01*
X143778883Y-94996000D01*
X143795313Y-94829177D01*
X143843976Y-94668758D01*
X143922995Y-94520924D01*
X143922996Y-94520922D01*
X144029341Y-94391341D01*
X144158922Y-94284996D01*
X144237845Y-94242811D01*
X144306758Y-94205976D01*
X144467177Y-94157313D01*
X144592196Y-94145000D01*
X145475804Y-94145000D01*
X145600823Y-94157313D01*
G37*
G36*
X155760823Y-94157313D02*
G01*
X155921242Y-94205976D01*
X155990155Y-94242811D01*
X156069078Y-94284996D01*
X156198659Y-94391341D01*
X156305004Y-94520922D01*
X156305005Y-94520924D01*
X156384024Y-94668758D01*
X156432687Y-94829177D01*
X156449117Y-94996000D01*
X156432687Y-95162823D01*
X156384024Y-95323242D01*
X156328451Y-95427212D01*
X156305004Y-95471078D01*
X156198659Y-95600659D01*
X156069078Y-95707004D01*
X156069076Y-95707005D01*
X155921242Y-95786024D01*
X155760823Y-95834687D01*
X155635804Y-95847000D01*
X154752196Y-95847000D01*
X154627177Y-95834687D01*
X154466758Y-95786024D01*
X154318924Y-95707005D01*
X154318922Y-95707004D01*
X154189341Y-95600659D01*
X154082996Y-95471078D01*
X154059549Y-95427212D01*
X154003976Y-95323242D01*
X153955313Y-95162823D01*
X153938883Y-94996000D01*
X153955313Y-94829177D01*
X154003976Y-94668758D01*
X154082995Y-94520924D01*
X154082996Y-94520922D01*
X154189341Y-94391341D01*
X154318922Y-94284996D01*
X154397845Y-94242811D01*
X154466758Y-94205976D01*
X154627177Y-94157313D01*
X154752196Y-94145000D01*
X155635804Y-94145000D01*
X155760823Y-94157313D01*
G37*
G36*
X117373000Y-95513000D02*
G01*
X116371000Y-95513000D01*
X116371000Y-94611000D01*
X117373000Y-94611000D01*
X117373000Y-95513000D01*
G37*
G36*
X104253512Y-93083927D02*
G01*
X104402812Y-93113624D01*
X104566784Y-93181544D01*
X104714354Y-93280147D01*
X104839853Y-93405646D01*
X104938456Y-93553216D01*
X105006376Y-93717188D01*
X105041000Y-93891259D01*
X105041000Y-94068741D01*
X105006376Y-94242812D01*
X104938456Y-94406784D01*
X104839853Y-94554354D01*
X104714354Y-94679853D01*
X104566784Y-94778456D01*
X104402812Y-94846376D01*
X104253512Y-94876073D01*
X104228742Y-94881000D01*
X104051258Y-94881000D01*
X104026488Y-94876073D01*
X103877188Y-94846376D01*
X103713216Y-94778456D01*
X103565646Y-94679853D01*
X103440147Y-94554354D01*
X103341544Y-94406784D01*
X103273624Y-94242812D01*
X103239000Y-94068741D01*
X103239000Y-93891259D01*
X103273624Y-93717188D01*
X103341544Y-93553216D01*
X103440147Y-93405646D01*
X103565646Y-93280147D01*
X103713216Y-93181544D01*
X103877188Y-93113624D01*
X104026488Y-93083927D01*
X104051258Y-93079000D01*
X104228742Y-93079000D01*
X104253512Y-93083927D01*
G37*
G36*
X101713512Y-93083927D02*
G01*
X101862812Y-93113624D01*
X102026784Y-93181544D01*
X102174354Y-93280147D01*
X102299853Y-93405646D01*
X102398456Y-93553216D01*
X102466376Y-93717188D01*
X102501000Y-93891259D01*
X102501000Y-94068741D01*
X102466376Y-94242812D01*
X102398456Y-94406784D01*
X102299853Y-94554354D01*
X102174354Y-94679853D01*
X102026784Y-94778456D01*
X101862812Y-94846376D01*
X101713512Y-94876073D01*
X101688742Y-94881000D01*
X101511258Y-94881000D01*
X101486488Y-94876073D01*
X101337188Y-94846376D01*
X101173216Y-94778456D01*
X101025646Y-94679853D01*
X100900147Y-94554354D01*
X100801544Y-94406784D01*
X100733624Y-94242812D01*
X100699000Y-94068741D01*
X100699000Y-93891259D01*
X100733624Y-93717188D01*
X100801544Y-93553216D01*
X100900147Y-93405646D01*
X101025646Y-93280147D01*
X101173216Y-93181544D01*
X101337188Y-93113624D01*
X101486488Y-93083927D01*
X101511258Y-93079000D01*
X101688742Y-93079000D01*
X101713512Y-93083927D01*
G37*
G36*
X123150968Y-93233565D02*
G01*
X123189638Y-93245296D01*
X123225277Y-93264346D01*
X123256517Y-93289983D01*
X123282154Y-93321223D01*
X123301204Y-93356862D01*
X123312935Y-93395532D01*
X123317500Y-93441888D01*
X123317500Y-94518112D01*
X123312935Y-94564468D01*
X123301204Y-94603138D01*
X123282154Y-94638777D01*
X123256517Y-94670017D01*
X123225277Y-94695654D01*
X123189638Y-94714704D01*
X123150968Y-94726435D01*
X123104612Y-94731000D01*
X122453388Y-94731000D01*
X122407032Y-94726435D01*
X122368362Y-94714704D01*
X122332723Y-94695654D01*
X122301483Y-94670017D01*
X122275846Y-94638777D01*
X122256796Y-94603138D01*
X122245065Y-94564468D01*
X122240500Y-94518112D01*
X122240500Y-93441888D01*
X122245065Y-93395532D01*
X122256796Y-93356862D01*
X122275846Y-93321223D01*
X122301483Y-93289983D01*
X122332723Y-93264346D01*
X122368362Y-93245296D01*
X122407032Y-93233565D01*
X122453388Y-93229000D01*
X123104612Y-93229000D01*
X123150968Y-93233565D01*
G37*
G36*
X121275968Y-93233565D02*
G01*
X121314638Y-93245296D01*
X121350277Y-93264346D01*
X121381517Y-93289983D01*
X121407154Y-93321223D01*
X121426204Y-93356862D01*
X121437935Y-93395532D01*
X121442500Y-93441888D01*
X121442500Y-94518112D01*
X121437935Y-94564468D01*
X121426204Y-94603138D01*
X121407154Y-94638777D01*
X121381517Y-94670017D01*
X121350277Y-94695654D01*
X121314638Y-94714704D01*
X121275968Y-94726435D01*
X121229612Y-94731000D01*
X120578388Y-94731000D01*
X120532032Y-94726435D01*
X120493362Y-94714704D01*
X120457723Y-94695654D01*
X120426483Y-94670017D01*
X120400846Y-94638777D01*
X120381796Y-94603138D01*
X120370065Y-94564468D01*
X120365500Y-94518112D01*
X120365500Y-93441888D01*
X120370065Y-93395532D01*
X120381796Y-93356862D01*
X120400846Y-93321223D01*
X120426483Y-93289983D01*
X120457723Y-93264346D01*
X120493362Y-93245296D01*
X120532032Y-93233565D01*
X120578388Y-93229000D01*
X121229612Y-93229000D01*
X121275968Y-93233565D01*
G37*
G36*
X151207786Y-91029746D02*
G01*
X151238461Y-91039051D01*
X151266729Y-91054161D01*
X151291506Y-91074494D01*
X151311839Y-91099271D01*
X151326949Y-91127539D01*
X151336254Y-91158214D01*
X151340000Y-91196251D01*
X151340000Y-93207749D01*
X151336254Y-93245786D01*
X151326949Y-93276461D01*
X151311839Y-93304729D01*
X151291506Y-93329506D01*
X151266729Y-93349839D01*
X151238461Y-93364949D01*
X151207786Y-93374254D01*
X151169749Y-93378000D01*
X149058251Y-93378000D01*
X149020214Y-93374254D01*
X148989539Y-93364949D01*
X148961271Y-93349839D01*
X148936494Y-93329506D01*
X148916161Y-93304729D01*
X148901051Y-93276461D01*
X148891746Y-93245786D01*
X148888000Y-93207749D01*
X148888000Y-91196251D01*
X148891746Y-91158214D01*
X148901051Y-91127539D01*
X148916161Y-91099271D01*
X148936494Y-91074494D01*
X148961271Y-91054161D01*
X148989539Y-91039051D01*
X149020214Y-91029746D01*
X149058251Y-91026000D01*
X151169749Y-91026000D01*
X151207786Y-91029746D01*
G37*
G36*
X158863512Y-91559927D02*
G01*
X159012812Y-91589624D01*
X159176784Y-91657544D01*
X159324354Y-91756147D01*
X159449853Y-91881646D01*
X159548456Y-92029216D01*
X159616376Y-92193188D01*
X159651000Y-92367259D01*
X159651000Y-92544741D01*
X159616376Y-92718812D01*
X159548456Y-92882784D01*
X159449853Y-93030354D01*
X159324354Y-93155853D01*
X159176784Y-93254456D01*
X159012812Y-93322376D01*
X158863512Y-93352073D01*
X158838742Y-93357000D01*
X158661258Y-93357000D01*
X158636488Y-93352073D01*
X158487188Y-93322376D01*
X158323216Y-93254456D01*
X158175646Y-93155853D01*
X158050147Y-93030354D01*
X157951544Y-92882784D01*
X157883624Y-92718812D01*
X157849000Y-92544741D01*
X157849000Y-92367259D01*
X157883624Y-92193188D01*
X157951544Y-92029216D01*
X158050147Y-91881646D01*
X158175646Y-91756147D01*
X158323216Y-91657544D01*
X158487188Y-91589624D01*
X158636488Y-91559927D01*
X158661258Y-91555000D01*
X158838742Y-91555000D01*
X158863512Y-91559927D01*
G37*
G36*
X117357000Y-93349000D02*
G01*
X116355000Y-93349000D01*
X116355000Y-92447000D01*
X117357000Y-92447000D01*
X117357000Y-93349000D01*
G37*
G36*
X155760823Y-91617313D02*
G01*
X155921242Y-91665976D01*
X155990155Y-91702811D01*
X156069078Y-91744996D01*
X156198659Y-91851341D01*
X156305004Y-91980922D01*
X156305005Y-91980924D01*
X156384024Y-92128758D01*
X156432687Y-92289177D01*
X156449117Y-92456000D01*
X156432687Y-92622823D01*
X156384024Y-92783242D01*
X156313114Y-92915906D01*
X156305004Y-92931078D01*
X156198659Y-93060659D01*
X156069078Y-93167004D01*
X156053906Y-93175114D01*
X155921242Y-93246024D01*
X155760823Y-93294687D01*
X155635804Y-93307000D01*
X154752196Y-93307000D01*
X154627177Y-93294687D01*
X154466758Y-93246024D01*
X154334094Y-93175114D01*
X154318922Y-93167004D01*
X154189341Y-93060659D01*
X154082996Y-92931078D01*
X154074886Y-92915906D01*
X154003976Y-92783242D01*
X153955313Y-92622823D01*
X153938883Y-92456000D01*
X153955313Y-92289177D01*
X154003976Y-92128758D01*
X154082995Y-91980924D01*
X154082996Y-91980922D01*
X154189341Y-91851341D01*
X154318922Y-91744996D01*
X154397845Y-91702811D01*
X154466758Y-91665976D01*
X154627177Y-91617313D01*
X154752196Y-91605000D01*
X155635804Y-91605000D01*
X155760823Y-91617313D01*
G37*
G36*
X145600823Y-91617313D02*
G01*
X145761242Y-91665976D01*
X145830155Y-91702811D01*
X145909078Y-91744996D01*
X146038659Y-91851341D01*
X146145004Y-91980922D01*
X146145005Y-91980924D01*
X146224024Y-92128758D01*
X146272687Y-92289177D01*
X146289117Y-92456000D01*
X146272687Y-92622823D01*
X146224024Y-92783242D01*
X146153114Y-92915906D01*
X146145004Y-92931078D01*
X146038659Y-93060659D01*
X145909078Y-93167004D01*
X145893906Y-93175114D01*
X145761242Y-93246024D01*
X145600823Y-93294687D01*
X145475804Y-93307000D01*
X144592196Y-93307000D01*
X144467177Y-93294687D01*
X144306758Y-93246024D01*
X144174094Y-93175114D01*
X144158922Y-93167004D01*
X144029341Y-93060659D01*
X143922996Y-92931078D01*
X143914886Y-92915906D01*
X143843976Y-92783242D01*
X143795313Y-92622823D01*
X143778883Y-92456000D01*
X143795313Y-92289177D01*
X143843976Y-92128758D01*
X143922995Y-91980924D01*
X143922996Y-91980922D01*
X144029341Y-91851341D01*
X144158922Y-91744996D01*
X144237845Y-91702811D01*
X144306758Y-91665976D01*
X144467177Y-91617313D01*
X144592196Y-91605000D01*
X145475804Y-91605000D01*
X145600823Y-91617313D01*
G37*
G36*
X124831968Y-91201565D02*
G01*
X124870638Y-91213296D01*
X124906277Y-91232346D01*
X124937517Y-91257983D01*
X124963154Y-91289223D01*
X124982204Y-91324862D01*
X124993935Y-91363532D01*
X124998500Y-91409888D01*
X124998500Y-92486112D01*
X124993935Y-92532468D01*
X124982204Y-92571138D01*
X124963154Y-92606777D01*
X124937517Y-92638017D01*
X124906277Y-92663654D01*
X124870638Y-92682704D01*
X124831968Y-92694435D01*
X124785612Y-92699000D01*
X124134388Y-92699000D01*
X124088032Y-92694435D01*
X124049362Y-92682704D01*
X124013723Y-92663654D01*
X123982483Y-92638017D01*
X123956846Y-92606777D01*
X123937796Y-92571138D01*
X123926065Y-92532468D01*
X123921500Y-92486112D01*
X123921500Y-91409888D01*
X123926065Y-91363532D01*
X123937796Y-91324862D01*
X123956846Y-91289223D01*
X123982483Y-91257983D01*
X124013723Y-91232346D01*
X124049362Y-91213296D01*
X124088032Y-91201565D01*
X124134388Y-91197000D01*
X124785612Y-91197000D01*
X124831968Y-91201565D01*
G37*
G36*
X126706968Y-91201565D02*
G01*
X126745638Y-91213296D01*
X126781277Y-91232346D01*
X126812517Y-91257983D01*
X126838154Y-91289223D01*
X126857204Y-91324862D01*
X126868935Y-91363532D01*
X126873500Y-91409888D01*
X126873500Y-92486112D01*
X126868935Y-92532468D01*
X126857204Y-92571138D01*
X126838154Y-92606777D01*
X126812517Y-92638017D01*
X126781277Y-92663654D01*
X126745638Y-92682704D01*
X126706968Y-92694435D01*
X126660612Y-92699000D01*
X126009388Y-92699000D01*
X125963032Y-92694435D01*
X125924362Y-92682704D01*
X125888723Y-92663654D01*
X125857483Y-92638017D01*
X125831846Y-92606777D01*
X125812796Y-92571138D01*
X125801065Y-92532468D01*
X125796500Y-92486112D01*
X125796500Y-91409888D01*
X125801065Y-91363532D01*
X125812796Y-91324862D01*
X125831846Y-91289223D01*
X125857483Y-91257983D01*
X125888723Y-91232346D01*
X125924362Y-91213296D01*
X125963032Y-91201565D01*
X126009388Y-91197000D01*
X126660612Y-91197000D01*
X126706968Y-91201565D01*
G37*
G36*
X119357000Y-92399000D02*
G01*
X118355000Y-92399000D01*
X118355000Y-91497000D01*
X119357000Y-91497000D01*
X119357000Y-92399000D01*
G37*
G36*
X104253512Y-90543927D02*
G01*
X104402812Y-90573624D01*
X104566784Y-90641544D01*
X104714354Y-90740147D01*
X104839853Y-90865646D01*
X104938456Y-91013216D01*
X105006376Y-91177188D01*
X105041000Y-91351259D01*
X105041000Y-91528741D01*
X105006376Y-91702812D01*
X104938456Y-91866784D01*
X104839853Y-92014354D01*
X104714354Y-92139853D01*
X104566784Y-92238456D01*
X104402812Y-92306376D01*
X104253512Y-92336073D01*
X104228742Y-92341000D01*
X104051258Y-92341000D01*
X104026488Y-92336073D01*
X103877188Y-92306376D01*
X103713216Y-92238456D01*
X103565646Y-92139853D01*
X103440147Y-92014354D01*
X103341544Y-91866784D01*
X103273624Y-91702812D01*
X103239000Y-91528741D01*
X103239000Y-91351259D01*
X103273624Y-91177188D01*
X103341544Y-91013216D01*
X103440147Y-90865646D01*
X103565646Y-90740147D01*
X103713216Y-90641544D01*
X103877188Y-90573624D01*
X104026488Y-90543927D01*
X104051258Y-90539000D01*
X104228742Y-90539000D01*
X104253512Y-90543927D01*
G37*
G36*
X101713512Y-90543927D02*
G01*
X101862812Y-90573624D01*
X102026784Y-90641544D01*
X102174354Y-90740147D01*
X102299853Y-90865646D01*
X102398456Y-91013216D01*
X102466376Y-91177188D01*
X102501000Y-91351259D01*
X102501000Y-91528741D01*
X102466376Y-91702812D01*
X102398456Y-91866784D01*
X102299853Y-92014354D01*
X102174354Y-92139853D01*
X102026784Y-92238456D01*
X101862812Y-92306376D01*
X101713512Y-92336073D01*
X101688742Y-92341000D01*
X101511258Y-92341000D01*
X101486488Y-92336073D01*
X101337188Y-92306376D01*
X101173216Y-92238456D01*
X101025646Y-92139853D01*
X100900147Y-92014354D01*
X100801544Y-91866784D01*
X100733624Y-91702812D01*
X100699000Y-91528741D01*
X100699000Y-91351259D01*
X100733624Y-91177188D01*
X100801544Y-91013216D01*
X100900147Y-90865646D01*
X101025646Y-90740147D01*
X101173216Y-90641544D01*
X101337188Y-90573624D01*
X101486488Y-90543927D01*
X101511258Y-90539000D01*
X101688742Y-90539000D01*
X101713512Y-90543927D01*
G37*
G36*
X117357000Y-91449000D02*
G01*
X116355000Y-91449000D01*
X116355000Y-90547000D01*
X117357000Y-90547000D01*
X117357000Y-91449000D01*
G37*
G36*
X158863512Y-89019927D02*
G01*
X159012812Y-89049624D01*
X159176784Y-89117544D01*
X159324354Y-89216147D01*
X159449853Y-89341646D01*
X159548456Y-89489216D01*
X159616376Y-89653188D01*
X159651000Y-89827259D01*
X159651000Y-90004741D01*
X159616376Y-90178812D01*
X159548456Y-90342784D01*
X159449853Y-90490354D01*
X159324354Y-90615853D01*
X159176784Y-90714456D01*
X159012812Y-90782376D01*
X158863512Y-90812073D01*
X158838742Y-90817000D01*
X158661258Y-90817000D01*
X158636488Y-90812073D01*
X158487188Y-90782376D01*
X158323216Y-90714456D01*
X158175646Y-90615853D01*
X158050147Y-90490354D01*
X157951544Y-90342784D01*
X157883624Y-90178812D01*
X157849000Y-90004741D01*
X157849000Y-89827259D01*
X157883624Y-89653188D01*
X157951544Y-89489216D01*
X158050147Y-89341646D01*
X158175646Y-89216147D01*
X158323216Y-89117544D01*
X158487188Y-89049624D01*
X158636488Y-89019927D01*
X158661258Y-89015000D01*
X158838742Y-89015000D01*
X158863512Y-89019927D01*
G37*
G36*
X145600823Y-89077313D02*
G01*
X145761242Y-89125976D01*
X145822737Y-89158846D01*
X145909078Y-89204996D01*
X146038659Y-89311341D01*
X146145004Y-89440922D01*
X146145005Y-89440924D01*
X146224024Y-89588758D01*
X146272687Y-89749177D01*
X146289117Y-89916000D01*
X146272687Y-90082823D01*
X146224024Y-90243242D01*
X146153114Y-90375906D01*
X146145004Y-90391078D01*
X146038659Y-90520659D01*
X145909078Y-90627004D01*
X145909076Y-90627005D01*
X145761242Y-90706024D01*
X145600823Y-90754687D01*
X145475804Y-90767000D01*
X144592196Y-90767000D01*
X144467177Y-90754687D01*
X144306758Y-90706024D01*
X144158924Y-90627005D01*
X144158922Y-90627004D01*
X144029341Y-90520659D01*
X143922996Y-90391078D01*
X143914886Y-90375906D01*
X143843976Y-90243242D01*
X143795313Y-90082823D01*
X143778883Y-89916000D01*
X143795313Y-89749177D01*
X143843976Y-89588758D01*
X143922995Y-89440924D01*
X143922996Y-89440922D01*
X144029341Y-89311341D01*
X144158922Y-89204996D01*
X144245263Y-89158846D01*
X144306758Y-89125976D01*
X144467177Y-89077313D01*
X144592196Y-89065000D01*
X145475804Y-89065000D01*
X145600823Y-89077313D01*
G37*
G36*
X155760823Y-89077313D02*
G01*
X155921242Y-89125976D01*
X155982737Y-89158846D01*
X156069078Y-89204996D01*
X156198659Y-89311341D01*
X156305004Y-89440922D01*
X156305005Y-89440924D01*
X156384024Y-89588758D01*
X156432687Y-89749177D01*
X156449117Y-89916000D01*
X156432687Y-90082823D01*
X156384024Y-90243242D01*
X156313114Y-90375906D01*
X156305004Y-90391078D01*
X156198659Y-90520659D01*
X156069078Y-90627004D01*
X156069076Y-90627005D01*
X155921242Y-90706024D01*
X155760823Y-90754687D01*
X155635804Y-90767000D01*
X154752196Y-90767000D01*
X154627177Y-90754687D01*
X154466758Y-90706024D01*
X154318924Y-90627005D01*
X154318922Y-90627004D01*
X154189341Y-90520659D01*
X154082996Y-90391078D01*
X154074886Y-90375906D01*
X154003976Y-90243242D01*
X153955313Y-90082823D01*
X153938883Y-89916000D01*
X153955313Y-89749177D01*
X154003976Y-89588758D01*
X154082995Y-89440924D01*
X154082996Y-89440922D01*
X154189341Y-89311341D01*
X154318922Y-89204996D01*
X154405263Y-89158846D01*
X154466758Y-89125976D01*
X154627177Y-89077313D01*
X154752196Y-89065000D01*
X155635804Y-89065000D01*
X155760823Y-89077313D01*
G37*
G36*
X150698468Y-89128065D02*
G01*
X150737138Y-89139796D01*
X150772777Y-89158846D01*
X150804017Y-89184483D01*
X150829654Y-89215723D01*
X150848704Y-89251362D01*
X150860435Y-89290032D01*
X150865000Y-89336388D01*
X150865000Y-89987612D01*
X150860435Y-90033968D01*
X150848704Y-90072638D01*
X150829654Y-90108277D01*
X150804017Y-90139517D01*
X150772777Y-90165154D01*
X150737138Y-90184204D01*
X150698468Y-90195935D01*
X150652112Y-90200500D01*
X149575888Y-90200500D01*
X149529532Y-90195935D01*
X149490862Y-90184204D01*
X149455223Y-90165154D01*
X149423983Y-90139517D01*
X149398346Y-90108277D01*
X149379296Y-90072638D01*
X149367565Y-90033968D01*
X149363000Y-89987612D01*
X149363000Y-89336388D01*
X149367565Y-89290032D01*
X149379296Y-89251362D01*
X149398346Y-89215723D01*
X149423983Y-89184483D01*
X149455223Y-89158846D01*
X149490862Y-89139796D01*
X149529532Y-89128065D01*
X149575888Y-89123500D01*
X150652112Y-89123500D01*
X150698468Y-89128065D01*
G37*
G36*
X101713512Y-88003927D02*
G01*
X101862812Y-88033624D01*
X102026784Y-88101544D01*
X102174354Y-88200147D01*
X102299853Y-88325646D01*
X102398456Y-88473216D01*
X102466376Y-88637188D01*
X102501000Y-88811259D01*
X102501000Y-88988741D01*
X102466376Y-89162812D01*
X102398456Y-89326784D01*
X102299853Y-89474354D01*
X102174354Y-89599853D01*
X102026784Y-89698456D01*
X101862812Y-89766376D01*
X101713512Y-89796073D01*
X101688742Y-89801000D01*
X101511258Y-89801000D01*
X101486488Y-89796073D01*
X101337188Y-89766376D01*
X101173216Y-89698456D01*
X101025646Y-89599853D01*
X100900147Y-89474354D01*
X100801544Y-89326784D01*
X100733624Y-89162812D01*
X100699000Y-88988741D01*
X100699000Y-88811259D01*
X100733624Y-88637188D01*
X100801544Y-88473216D01*
X100900147Y-88325646D01*
X101025646Y-88200147D01*
X101173216Y-88101544D01*
X101337188Y-88033624D01*
X101486488Y-88003927D01*
X101511258Y-87999000D01*
X101688742Y-87999000D01*
X101713512Y-88003927D01*
G37*
G36*
X104253512Y-88003927D02*
G01*
X104402812Y-88033624D01*
X104566784Y-88101544D01*
X104714354Y-88200147D01*
X104839853Y-88325646D01*
X104938456Y-88473216D01*
X105006376Y-88637188D01*
X105041000Y-88811259D01*
X105041000Y-88988741D01*
X105006376Y-89162812D01*
X104938456Y-89326784D01*
X104839853Y-89474354D01*
X104714354Y-89599853D01*
X104566784Y-89698456D01*
X104402812Y-89766376D01*
X104253512Y-89796073D01*
X104228742Y-89801000D01*
X104051258Y-89801000D01*
X104026488Y-89796073D01*
X103877188Y-89766376D01*
X103713216Y-89698456D01*
X103565646Y-89599853D01*
X103440147Y-89474354D01*
X103341544Y-89326784D01*
X103273624Y-89162812D01*
X103239000Y-88988741D01*
X103239000Y-88811259D01*
X103273624Y-88637188D01*
X103341544Y-88473216D01*
X103440147Y-88325646D01*
X103565646Y-88200147D01*
X103713216Y-88101544D01*
X103877188Y-88033624D01*
X104026488Y-88003927D01*
X104051258Y-87999000D01*
X104228742Y-87999000D01*
X104253512Y-88003927D01*
G37*
G36*
X150698468Y-87253065D02*
G01*
X150737138Y-87264796D01*
X150772777Y-87283846D01*
X150804017Y-87309483D01*
X150829654Y-87340723D01*
X150848704Y-87376362D01*
X150860435Y-87415032D01*
X150865000Y-87461388D01*
X150865000Y-88112612D01*
X150860435Y-88158968D01*
X150848704Y-88197638D01*
X150829654Y-88233277D01*
X150804017Y-88264517D01*
X150772777Y-88290154D01*
X150737138Y-88309204D01*
X150698468Y-88320935D01*
X150652112Y-88325500D01*
X149575888Y-88325500D01*
X149529532Y-88320935D01*
X149490862Y-88309204D01*
X149455223Y-88290154D01*
X149423983Y-88264517D01*
X149398346Y-88233277D01*
X149379296Y-88197638D01*
X149367565Y-88158968D01*
X149363000Y-88112612D01*
X149363000Y-87461388D01*
X149367565Y-87415032D01*
X149379296Y-87376362D01*
X149398346Y-87340723D01*
X149423983Y-87309483D01*
X149455223Y-87283846D01*
X149490862Y-87264796D01*
X149529532Y-87253065D01*
X149575888Y-87248500D01*
X150652112Y-87248500D01*
X150698468Y-87253065D01*
G37*
G36*
X158863512Y-86479927D02*
G01*
X159012812Y-86509624D01*
X159176784Y-86577544D01*
X159324354Y-86676147D01*
X159449853Y-86801646D01*
X159548456Y-86949216D01*
X159616376Y-87113188D01*
X159644320Y-87253674D01*
X159651000Y-87287258D01*
X159651000Y-87464742D01*
X159646073Y-87489512D01*
X159616376Y-87638812D01*
X159548456Y-87802784D01*
X159449853Y-87950354D01*
X159324354Y-88075853D01*
X159176784Y-88174456D01*
X159012812Y-88242376D01*
X158863512Y-88272073D01*
X158838742Y-88277000D01*
X158661258Y-88277000D01*
X158636488Y-88272073D01*
X158487188Y-88242376D01*
X158323216Y-88174456D01*
X158175646Y-88075853D01*
X158050147Y-87950354D01*
X157951544Y-87802784D01*
X157883624Y-87638812D01*
X157853927Y-87489512D01*
X157849000Y-87464742D01*
X157849000Y-87287258D01*
X157855680Y-87253674D01*
X157883624Y-87113188D01*
X157951544Y-86949216D01*
X158050147Y-86801646D01*
X158175646Y-86676147D01*
X158323216Y-86577544D01*
X158487188Y-86509624D01*
X158636488Y-86479927D01*
X158661258Y-86475000D01*
X158838742Y-86475000D01*
X158863512Y-86479927D01*
G37*
G36*
X145600823Y-86537313D02*
G01*
X145761242Y-86585976D01*
X145830155Y-86622811D01*
X145909078Y-86664996D01*
X146038659Y-86771341D01*
X146145004Y-86900922D01*
X146145005Y-86900924D01*
X146224024Y-87048758D01*
X146272687Y-87209177D01*
X146289117Y-87376000D01*
X146272687Y-87542823D01*
X146224024Y-87703242D01*
X146153114Y-87835906D01*
X146145004Y-87851078D01*
X146038659Y-87980659D01*
X145909078Y-88087004D01*
X145909076Y-88087005D01*
X145761242Y-88166024D01*
X145600823Y-88214687D01*
X145475804Y-88227000D01*
X144592196Y-88227000D01*
X144467177Y-88214687D01*
X144306758Y-88166024D01*
X144158924Y-88087005D01*
X144158922Y-88087004D01*
X144029341Y-87980659D01*
X143922996Y-87851078D01*
X143914886Y-87835906D01*
X143843976Y-87703242D01*
X143795313Y-87542823D01*
X143778883Y-87376000D01*
X143795313Y-87209177D01*
X143843976Y-87048758D01*
X143922995Y-86900924D01*
X143922996Y-86900922D01*
X144029341Y-86771341D01*
X144158922Y-86664996D01*
X144237845Y-86622811D01*
X144306758Y-86585976D01*
X144467177Y-86537313D01*
X144592196Y-86525000D01*
X145475804Y-86525000D01*
X145600823Y-86537313D01*
G37*
G36*
X155760823Y-86537313D02*
G01*
X155921242Y-86585976D01*
X155990155Y-86622811D01*
X156069078Y-86664996D01*
X156198659Y-86771341D01*
X156305004Y-86900922D01*
X156305005Y-86900924D01*
X156384024Y-87048758D01*
X156432687Y-87209177D01*
X156449117Y-87376000D01*
X156432687Y-87542823D01*
X156384024Y-87703242D01*
X156313114Y-87835906D01*
X156305004Y-87851078D01*
X156198659Y-87980659D01*
X156069078Y-88087004D01*
X156069076Y-88087005D01*
X155921242Y-88166024D01*
X155760823Y-88214687D01*
X155635804Y-88227000D01*
X154752196Y-88227000D01*
X154627177Y-88214687D01*
X154466758Y-88166024D01*
X154318924Y-88087005D01*
X154318922Y-88087004D01*
X154189341Y-87980659D01*
X154082996Y-87851078D01*
X154074886Y-87835906D01*
X154003976Y-87703242D01*
X153955313Y-87542823D01*
X153938883Y-87376000D01*
X153955313Y-87209177D01*
X154003976Y-87048758D01*
X154082995Y-86900924D01*
X154082996Y-86900922D01*
X154189341Y-86771341D01*
X154318922Y-86664996D01*
X154397845Y-86622811D01*
X154466758Y-86585976D01*
X154627177Y-86537313D01*
X154752196Y-86525000D01*
X155635804Y-86525000D01*
X155760823Y-86537313D01*
G37*
G36*
X104253512Y-85463927D02*
G01*
X104402812Y-85493624D01*
X104566784Y-85561544D01*
X104714354Y-85660147D01*
X104839853Y-85785646D01*
X104938456Y-85933216D01*
X105006376Y-86097188D01*
X105041000Y-86271259D01*
X105041000Y-86448741D01*
X105006376Y-86622812D01*
X104938456Y-86786784D01*
X104839853Y-86934354D01*
X104714354Y-87059853D01*
X104566784Y-87158456D01*
X104402812Y-87226376D01*
X104265572Y-87253674D01*
X104228742Y-87261000D01*
X104051258Y-87261000D01*
X104014428Y-87253674D01*
X103877188Y-87226376D01*
X103713216Y-87158456D01*
X103565646Y-87059853D01*
X103440147Y-86934354D01*
X103341544Y-86786784D01*
X103273624Y-86622812D01*
X103239000Y-86448741D01*
X103239000Y-86271259D01*
X103273624Y-86097188D01*
X103341544Y-85933216D01*
X103440147Y-85785646D01*
X103565646Y-85660147D01*
X103713216Y-85561544D01*
X103877188Y-85493624D01*
X104026488Y-85463927D01*
X104051258Y-85459000D01*
X104228742Y-85459000D01*
X104253512Y-85463927D01*
G37*
G36*
X101713512Y-85463927D02*
G01*
X101862812Y-85493624D01*
X102026784Y-85561544D01*
X102174354Y-85660147D01*
X102299853Y-85785646D01*
X102398456Y-85933216D01*
X102466376Y-86097188D01*
X102501000Y-86271259D01*
X102501000Y-86448741D01*
X102466376Y-86622812D01*
X102398456Y-86786784D01*
X102299853Y-86934354D01*
X102174354Y-87059853D01*
X102026784Y-87158456D01*
X101862812Y-87226376D01*
X101725572Y-87253674D01*
X101688742Y-87261000D01*
X101511258Y-87261000D01*
X101474428Y-87253674D01*
X101337188Y-87226376D01*
X101173216Y-87158456D01*
X101025646Y-87059853D01*
X100900147Y-86934354D01*
X100801544Y-86786784D01*
X100733624Y-86622812D01*
X100699000Y-86448741D01*
X100699000Y-86271259D01*
X100733624Y-86097188D01*
X100801544Y-85933216D01*
X100900147Y-85785646D01*
X101025646Y-85660147D01*
X101173216Y-85561544D01*
X101337188Y-85493624D01*
X101486488Y-85463927D01*
X101511258Y-85459000D01*
X101688742Y-85459000D01*
X101713512Y-85463927D01*
G37*
G36*
X158863512Y-83939927D02*
G01*
X159012812Y-83969624D01*
X159176784Y-84037544D01*
X159324354Y-84136147D01*
X159449853Y-84261646D01*
X159548456Y-84409216D01*
X159616376Y-84573188D01*
X159651000Y-84747259D01*
X159651000Y-84924741D01*
X159616376Y-85098812D01*
X159548456Y-85262784D01*
X159449853Y-85410354D01*
X159324354Y-85535853D01*
X159176784Y-85634456D01*
X159012812Y-85702376D01*
X158863512Y-85732073D01*
X158838742Y-85737000D01*
X158661258Y-85737000D01*
X158636488Y-85732073D01*
X158487188Y-85702376D01*
X158323216Y-85634456D01*
X158175646Y-85535853D01*
X158050147Y-85410354D01*
X157951544Y-85262784D01*
X157883624Y-85098812D01*
X157849000Y-84924741D01*
X157849000Y-84747259D01*
X157883624Y-84573188D01*
X157951544Y-84409216D01*
X158050147Y-84261646D01*
X158175646Y-84136147D01*
X158323216Y-84037544D01*
X158487188Y-83969624D01*
X158636488Y-83939927D01*
X158661258Y-83935000D01*
X158838742Y-83935000D01*
X158863512Y-83939927D01*
G37*
G36*
X155760823Y-83997313D02*
G01*
X155921242Y-84045976D01*
X155990155Y-84082811D01*
X156069078Y-84124996D01*
X156198659Y-84231341D01*
X156305004Y-84360922D01*
X156305005Y-84360924D01*
X156384024Y-84508758D01*
X156432687Y-84669177D01*
X156449117Y-84836000D01*
X156432687Y-85002823D01*
X156384024Y-85163242D01*
X156313114Y-85295906D01*
X156305004Y-85311078D01*
X156198659Y-85440659D01*
X156069078Y-85547004D01*
X156069076Y-85547005D01*
X155921242Y-85626024D01*
X155760823Y-85674687D01*
X155635804Y-85687000D01*
X154752196Y-85687000D01*
X154627177Y-85674687D01*
X154466758Y-85626024D01*
X154318924Y-85547005D01*
X154318922Y-85547004D01*
X154189341Y-85440659D01*
X154082996Y-85311078D01*
X154074886Y-85295906D01*
X154003976Y-85163242D01*
X153955313Y-85002823D01*
X153938883Y-84836000D01*
X153955313Y-84669177D01*
X154003976Y-84508758D01*
X154082995Y-84360924D01*
X154082996Y-84360922D01*
X154189341Y-84231341D01*
X154318922Y-84124996D01*
X154397845Y-84082811D01*
X154466758Y-84045976D01*
X154627177Y-83997313D01*
X154752196Y-83985000D01*
X155635804Y-83985000D01*
X155760823Y-83997313D01*
G37*
G36*
X145600823Y-83997313D02*
G01*
X145761242Y-84045976D01*
X145830155Y-84082811D01*
X145909078Y-84124996D01*
X146038659Y-84231341D01*
X146145004Y-84360922D01*
X146145005Y-84360924D01*
X146224024Y-84508758D01*
X146272687Y-84669177D01*
X146289117Y-84836000D01*
X146272687Y-85002823D01*
X146224024Y-85163242D01*
X146153114Y-85295906D01*
X146145004Y-85311078D01*
X146038659Y-85440659D01*
X145909078Y-85547004D01*
X145909076Y-85547005D01*
X145761242Y-85626024D01*
X145600823Y-85674687D01*
X145475804Y-85687000D01*
X144592196Y-85687000D01*
X144467177Y-85674687D01*
X144306758Y-85626024D01*
X144158924Y-85547005D01*
X144158922Y-85547004D01*
X144029341Y-85440659D01*
X143922996Y-85311078D01*
X143914886Y-85295906D01*
X143843976Y-85163242D01*
X143795313Y-85002823D01*
X143778883Y-84836000D01*
X143795313Y-84669177D01*
X143843976Y-84508758D01*
X143922995Y-84360924D01*
X143922996Y-84360922D01*
X144029341Y-84231341D01*
X144158922Y-84124996D01*
X144237845Y-84082811D01*
X144306758Y-84045976D01*
X144467177Y-83997313D01*
X144592196Y-83985000D01*
X145475804Y-83985000D01*
X145600823Y-83997313D01*
G37*
G36*
X101713512Y-82923927D02*
G01*
X101862812Y-82953624D01*
X102026784Y-83021544D01*
X102174354Y-83120147D01*
X102299853Y-83245646D01*
X102398456Y-83393216D01*
X102466376Y-83557188D01*
X102501000Y-83731259D01*
X102501000Y-83908741D01*
X102466376Y-84082812D01*
X102398456Y-84246784D01*
X102299853Y-84394354D01*
X102174354Y-84519853D01*
X102026784Y-84618456D01*
X101862812Y-84686376D01*
X101713512Y-84716073D01*
X101688742Y-84721000D01*
X101511258Y-84721000D01*
X101486488Y-84716073D01*
X101337188Y-84686376D01*
X101173216Y-84618456D01*
X101025646Y-84519853D01*
X100900147Y-84394354D01*
X100801544Y-84246784D01*
X100733624Y-84082812D01*
X100699000Y-83908741D01*
X100699000Y-83731259D01*
X100733624Y-83557188D01*
X100801544Y-83393216D01*
X100900147Y-83245646D01*
X101025646Y-83120147D01*
X101173216Y-83021544D01*
X101337188Y-82953624D01*
X101486488Y-82923927D01*
X101511258Y-82919000D01*
X101688742Y-82919000D01*
X101713512Y-82923927D01*
G37*
G36*
X104253512Y-82923927D02*
G01*
X104402812Y-82953624D01*
X104566784Y-83021544D01*
X104714354Y-83120147D01*
X104839853Y-83245646D01*
X104938456Y-83393216D01*
X105006376Y-83557188D01*
X105041000Y-83731259D01*
X105041000Y-83908741D01*
X105006376Y-84082812D01*
X104938456Y-84246784D01*
X104839853Y-84394354D01*
X104714354Y-84519853D01*
X104566784Y-84618456D01*
X104402812Y-84686376D01*
X104253512Y-84716073D01*
X104228742Y-84721000D01*
X104051258Y-84721000D01*
X104026488Y-84716073D01*
X103877188Y-84686376D01*
X103713216Y-84618456D01*
X103565646Y-84519853D01*
X103440147Y-84394354D01*
X103341544Y-84246784D01*
X103273624Y-84082812D01*
X103239000Y-83908741D01*
X103239000Y-83731259D01*
X103273624Y-83557188D01*
X103341544Y-83393216D01*
X103440147Y-83245646D01*
X103565646Y-83120147D01*
X103713216Y-83021544D01*
X103877188Y-82953624D01*
X104026488Y-82923927D01*
X104051258Y-82919000D01*
X104228742Y-82919000D01*
X104253512Y-82923927D01*
G37*
G36*
X102501000Y-82181000D02*
G01*
X100699000Y-82181000D01*
X100699000Y-80379000D01*
X102501000Y-80379000D01*
X102501000Y-82181000D01*
G37*
G36*
X104253512Y-80383927D02*
G01*
X104402812Y-80413624D01*
X104566784Y-80481544D01*
X104714354Y-80580147D01*
X104839853Y-80705646D01*
X104938456Y-80853216D01*
X105006376Y-81017188D01*
X105041000Y-81191259D01*
X105041000Y-81368741D01*
X105006376Y-81542812D01*
X104938456Y-81706784D01*
X104839853Y-81854354D01*
X104714354Y-81979853D01*
X104566784Y-82078456D01*
X104402812Y-82146376D01*
X104253512Y-82176073D01*
X104228742Y-82181000D01*
X104051258Y-82181000D01*
X104026488Y-82176073D01*
X103877188Y-82146376D01*
X103713216Y-82078456D01*
X103565646Y-81979853D01*
X103440147Y-81854354D01*
X103341544Y-81706784D01*
X103273624Y-81542812D01*
X103239000Y-81368741D01*
X103239000Y-81191259D01*
X103273624Y-81017188D01*
X103341544Y-80853216D01*
X103440147Y-80705646D01*
X103565646Y-80580147D01*
X103713216Y-80481544D01*
X103877188Y-80413624D01*
X104026488Y-80383927D01*
X104051258Y-80379000D01*
X104228742Y-80379000D01*
X104253512Y-80383927D01*
G37*
M02*
