M48
; DRILL file {KiCad 5.1.5} date Sat 08 Feb 2020 04:24:33 PM JST
; FORMAT={-:-/ absolute / inch / decimal}
; #@! TF.CreationDate,2020-02-08T16:24:33+09:00
; #@! TF.GenerationSoftware,Kicad,Pcbnew,5.1.5
FMAT,2
INCH
T1C0.0157
T2C0.0300
T3C0.0315
T4C0.0394
%
G90
G05
T1
X3.875Y-4.1
X3.875Y-4.4
X3.875Y-4.5
X3.875Y-4.6
X3.875Y-4.8
X3.875Y-4.9
X3.875Y-5.0
X3.88Y-4.0
X4.22Y-4.2
X4.24Y-4.0
X4.24Y-4.1
X4.25Y-4.4
X4.25Y-4.5
X4.25Y-4.6
X4.25Y-4.8
X4.25Y-4.9
X4.25Y-5.0
X4.575Y-3.675
X4.575Y-3.825
X4.6Y-4.025
X4.65Y-4.85
X4.7Y-4.8
X4.71Y-4.9
X4.72Y-4.1
X4.86Y-3.68
X4.88Y-3.86
X4.92Y-3.66
X4.98Y-3.74
X4.98Y-4.28
X5.02Y-3.6
X5.02Y-3.94
X5.08Y-4.72
X5.1Y-4.36
X5.2404Y-3.9804
X5.3Y-5.03
X5.3374Y-4.28
X5.48Y-5.17
X5.52Y-4.93
X5.81Y-4.05
X5.88Y-4.72
X5.97Y-4.54
T2
X5.88Y-4.85
X5.98Y-4.85
X6.08Y-4.85
T3
X5.71Y-3.34
X5.71Y-3.44
X5.71Y-3.54
X5.71Y-3.64
X5.71Y-3.74
X5.71Y-3.84
X5.71Y-3.94
X5.71Y-4.04
X5.71Y-4.14
X5.71Y-4.24
X5.71Y-4.34
X6.11Y-3.34
X6.11Y-3.44
X6.11Y-3.54
X6.11Y-3.64
X6.11Y-3.74
X6.11Y-3.84
X6.11Y-3.94
X6.11Y-4.04
X6.11Y-4.14
X6.11Y-4.24
X6.11Y-4.34
T4
X5.41Y-4.93
X5.41Y-5.03
X5.41Y-5.13
X6.25Y-3.34
X6.25Y-3.44
X6.25Y-3.54
X6.25Y-3.64
X6.25Y-3.74
X6.25Y-3.84
X6.25Y-3.94
X6.25Y-4.04
X6.25Y-4.14
X6.25Y-4.24
X6.25Y-4.34
X4.0Y-3.2
X4.0Y-3.3
X4.0Y-3.4
X4.0Y-3.5
X4.0Y-3.6
X4.0Y-3.7
X4.0Y-3.8
X4.0Y-3.9
X4.0Y-4.0
X4.0Y-4.1
X4.0Y-4.2
X4.0Y-4.3
X4.0Y-4.4
X4.0Y-4.5
X4.0Y-4.6
X4.0Y-4.7
X4.0Y-4.8
X4.0Y-4.9
X4.0Y-5.0
X4.0Y-5.1
X4.1Y-3.2
X4.1Y-3.3
X4.1Y-3.4
X4.1Y-3.5
X4.1Y-3.6
X4.1Y-3.7
X4.1Y-3.8
X4.1Y-3.9
X4.1Y-4.0
X4.1Y-4.1
X4.1Y-4.2
X4.1Y-4.3
X4.1Y-4.4
X4.1Y-4.5
X4.1Y-4.6
X4.1Y-4.7
X4.1Y-4.8
X4.1Y-4.9
X4.1Y-5.0
X4.1Y-5.1
T0
M30
