G04 #@! TF.GenerationSoftware,KiCad,Pcbnew,5.1.5*
G04 #@! TF.CreationDate,2020-02-08T16:24:25+09:00*
G04 #@! TF.ProjectId,linearccd,6c696e65-6172-4636-9364-2e6b69636164,rev?*
G04 #@! TF.SameCoordinates,Original*
G04 #@! TF.FileFunction,Copper,L2,Bot*
G04 #@! TF.FilePolarity,Positive*
%FSLAX46Y46*%
G04 Gerber Fmt 4.6, Leading zero omitted, Abs format (unit mm)*
G04 Created by KiCad (PCBNEW 5.1.5) date 2020-02-08 16:24:25*
%MOMM*%
%LPD*%
G04 APERTURE LIST*
%ADD10C,1.524000*%
%ADD11R,2.400000X1.600000*%
%ADD12O,2.400000X1.600000*%
%ADD13O,1.700000X1.700000*%
%ADD14R,1.700000X1.700000*%
%ADD15R,3.000000X1.000000*%
%ADD16C,0.800000*%
%ADD17C,0.250000*%
%ADD18C,0.254000*%
G04 APERTURE END LIST*
D10*
X154432000Y-123190000D03*
X151892000Y-123190000D03*
X149352000Y-123190000D03*
D11*
X145034000Y-110236000D03*
D12*
X155194000Y-84836000D03*
X145034000Y-107696000D03*
X155194000Y-87376000D03*
X145034000Y-105156000D03*
X155194000Y-89916000D03*
X145034000Y-102616000D03*
X155194000Y-92456000D03*
X145034000Y-100076000D03*
X155194000Y-94996000D03*
X145034000Y-97536000D03*
X155194000Y-97536000D03*
X145034000Y-94996000D03*
X155194000Y-100076000D03*
X145034000Y-92456000D03*
X155194000Y-102616000D03*
X145034000Y-89916000D03*
X155194000Y-105156000D03*
X145034000Y-87376000D03*
X155194000Y-107696000D03*
X145034000Y-84836000D03*
X155194000Y-110236000D03*
D13*
X137414000Y-125222000D03*
X137414000Y-127762000D03*
D14*
X137414000Y-130302000D03*
D13*
X104140000Y-129540000D03*
X101600000Y-129540000D03*
X104140000Y-127000000D03*
X101600000Y-127000000D03*
X104140000Y-124460000D03*
X101600000Y-124460000D03*
X104140000Y-121920000D03*
X101600000Y-121920000D03*
X104140000Y-119380000D03*
X101600000Y-119380000D03*
X104140000Y-116840000D03*
X101600000Y-116840000D03*
X104140000Y-114300000D03*
X101600000Y-114300000D03*
X104140000Y-111760000D03*
X101600000Y-111760000D03*
X104140000Y-109220000D03*
X101600000Y-109220000D03*
X104140000Y-106680000D03*
X101600000Y-106680000D03*
X104140000Y-104140000D03*
X101600000Y-104140000D03*
X104140000Y-101600000D03*
X101600000Y-101600000D03*
X104140000Y-99060000D03*
X101600000Y-99060000D03*
X104140000Y-96520000D03*
X101600000Y-96520000D03*
X104140000Y-93980000D03*
X101600000Y-93980000D03*
X104140000Y-91440000D03*
X101600000Y-91440000D03*
X104140000Y-88900000D03*
X101600000Y-88900000D03*
X104140000Y-86360000D03*
X101600000Y-86360000D03*
X104140000Y-83820000D03*
X101600000Y-83820000D03*
X104140000Y-81280000D03*
D14*
X101600000Y-81280000D03*
X158750000Y-110236000D03*
D13*
X158750000Y-107696000D03*
X158750000Y-105156000D03*
X158750000Y-102616000D03*
X158750000Y-100076000D03*
X158750000Y-97536000D03*
X158750000Y-94996000D03*
X158750000Y-92456000D03*
X158750000Y-89916000D03*
X158750000Y-87376000D03*
X158750000Y-84836000D03*
D15*
X100350000Y-81280000D03*
X105390000Y-81280000D03*
X100350000Y-83820000D03*
X105390000Y-83820000D03*
X100350000Y-86360000D03*
X105390000Y-86360000D03*
X100350000Y-88900000D03*
X105390000Y-88900000D03*
X100350000Y-91440000D03*
X105390000Y-91440000D03*
X100350000Y-93980000D03*
X105390000Y-93980000D03*
X100350000Y-96520000D03*
X105390000Y-96520000D03*
X100350000Y-99060000D03*
X105390000Y-99060000D03*
X100350000Y-101600000D03*
X105390000Y-101600000D03*
X100350000Y-104140000D03*
X105390000Y-104140000D03*
X100350000Y-106680000D03*
X105390000Y-106680000D03*
X100350000Y-109220000D03*
X105390000Y-109220000D03*
X100350000Y-111760000D03*
X105390000Y-111760000D03*
X100350000Y-114300000D03*
X105390000Y-114300000D03*
X100350000Y-116840000D03*
X105390000Y-116840000D03*
X100350000Y-119380000D03*
X105390000Y-119380000D03*
X100350000Y-121920000D03*
X105390000Y-121920000D03*
X100350000Y-124460000D03*
X105390000Y-124460000D03*
X100350000Y-127000000D03*
X105390000Y-127000000D03*
X100350000Y-129540000D03*
X105390000Y-129540000D03*
D16*
X116840000Y-102235000D03*
X116205000Y-97155000D03*
X116205000Y-93345000D03*
X123444000Y-93472000D03*
X123952000Y-98044000D03*
X129032000Y-119888000D03*
X119888000Y-104140000D03*
X149352000Y-119888000D03*
X127508000Y-100076000D03*
X135571000Y-108712000D03*
X126492000Y-94996000D03*
X127508000Y-91440000D03*
X147574000Y-102870000D03*
X151638000Y-115316000D03*
X139192000Y-131318000D03*
X118110000Y-123190000D03*
X140208000Y-125222000D03*
X119380000Y-121920000D03*
X134620000Y-127762000D03*
X119634000Y-124460000D03*
X124968000Y-92964000D03*
X98552000Y-101600000D03*
X107696000Y-104140000D03*
X98425000Y-124460000D03*
X98425000Y-121920000D03*
X107950000Y-124460000D03*
X98425000Y-116840000D03*
X107950000Y-121920000D03*
X98425000Y-114300000D03*
X107950000Y-116840000D03*
X98425000Y-111760000D03*
X107950000Y-114300000D03*
X107188000Y-106680000D03*
X107950000Y-111760000D03*
X98425000Y-127000000D03*
X98425000Y-104140000D03*
X133105010Y-101101010D03*
X107696000Y-101600000D03*
X129540000Y-110744000D03*
X126492000Y-108712000D03*
X107950000Y-127000000D03*
D17*
X105390000Y-99060000D02*
X100350000Y-99060000D01*
X105390000Y-109220000D02*
X100350000Y-109220000D01*
X103640000Y-119380000D02*
X100350000Y-119380000D01*
X105390000Y-119380000D02*
X103640000Y-119380000D01*
X100350000Y-129540000D02*
X105390000Y-129540000D01*
X105390000Y-88900000D02*
X100350000Y-88900000D01*
X116205000Y-97155000D02*
X109855000Y-97155000D01*
X107950000Y-99060000D02*
X105390000Y-99060000D01*
X109855000Y-97155000D02*
X107950000Y-99060000D01*
X116205000Y-97155000D02*
X115570000Y-97155000D01*
X107315000Y-88900000D02*
X105390000Y-88900000D01*
X115570000Y-97155000D02*
X107315000Y-88900000D01*
X156464000Y-120470000D02*
X155882000Y-119888000D01*
X100350000Y-82030000D02*
X100350000Y-83820000D01*
X100350000Y-81280000D02*
X100350000Y-82030000D01*
X100489999Y-80104999D02*
X100350000Y-80244998D01*
X106800001Y-80104999D02*
X100489999Y-80104999D01*
X100350000Y-80244998D02*
X100350000Y-81280000D01*
X118364000Y-102616000D02*
X118364000Y-91668998D01*
X118364000Y-91668998D02*
X106800001Y-80104999D01*
X119888000Y-104140000D02*
X118364000Y-102616000D01*
X125096410Y-109474000D02*
X131192410Y-115570000D01*
X125096410Y-109474000D02*
X122682000Y-109474000D01*
X119888000Y-106680000D02*
X119888000Y-104140000D01*
X122682000Y-109474000D02*
X119888000Y-106680000D01*
X131192410Y-115570000D02*
X147320000Y-115570000D01*
X147320000Y-115570000D02*
X149352000Y-117602000D01*
X149352000Y-117602000D02*
X149352000Y-119888000D01*
X127508000Y-100076000D02*
X121920000Y-100076000D01*
X121920000Y-100076000D02*
X120396000Y-98552000D01*
X127508000Y-100584000D02*
X127508000Y-100076000D01*
X135571000Y-108712000D02*
X135571000Y-108647000D01*
X135571000Y-108647000D02*
X127508000Y-100584000D01*
X120396000Y-98552000D02*
X120396000Y-96012000D01*
X121412000Y-94996000D02*
X120396000Y-96012000D01*
X126492000Y-94996000D02*
X121412000Y-94996000D01*
X120396000Y-93472000D02*
X120396000Y-96012000D01*
X127508000Y-91440000D02*
X121920000Y-91440000D01*
X121920000Y-91440000D02*
X120396000Y-93472000D01*
X155194000Y-110236000D02*
X155194000Y-111760000D01*
X155194000Y-111760000D02*
X151638000Y-115316000D01*
X139192000Y-131318000D02*
X138792001Y-131717999D01*
X125367999Y-131717999D02*
X118110000Y-124460000D01*
X138792001Y-131717999D02*
X125367999Y-131717999D01*
X118110000Y-124460000D02*
X118110000Y-123190000D01*
X140208000Y-125222000D02*
X136906000Y-121920000D01*
X136906000Y-121920000D02*
X119380000Y-121920000D01*
X134620000Y-127762000D02*
X122936000Y-127762000D01*
X122936000Y-127762000D02*
X119634000Y-124460000D01*
X124968000Y-92964000D02*
X131064000Y-92964000D01*
X145034000Y-100076000D02*
X139700000Y-100076000D01*
X132588000Y-92964000D02*
X131064000Y-92964000D01*
X139700000Y-100076000D02*
X132588000Y-92964000D01*
X146304000Y-100076000D02*
X145034000Y-100076000D01*
X146484000Y-100076000D02*
X146304000Y-100076000D01*
X147609010Y-98950990D02*
X146484000Y-100076000D01*
X158750000Y-97536000D02*
X157335010Y-98950990D01*
X157335010Y-98950990D02*
X147609010Y-98950990D01*
X157624990Y-88790990D02*
X151274990Y-88790990D01*
X158750000Y-89916000D02*
X157624990Y-88790990D01*
X147320000Y-84836000D02*
X145034000Y-84836000D01*
X151274990Y-88790990D02*
X147320000Y-84836000D01*
X98552000Y-101600000D02*
X100350000Y-101600000D01*
X107696000Y-104140000D02*
X105390000Y-104140000D01*
X98425000Y-124460000D02*
X100350000Y-124460000D01*
X98425000Y-121920000D02*
X100350000Y-121920000D01*
X107950000Y-124460000D02*
X105390000Y-124460000D01*
X98425000Y-116840000D02*
X100350000Y-116840000D01*
X107950000Y-121920000D02*
X105390000Y-121920000D01*
X98425000Y-114300000D02*
X100350000Y-114300000D01*
X107950000Y-116840000D02*
X105390000Y-116840000D01*
X98425000Y-111760000D02*
X100350000Y-111760000D01*
X107950000Y-114300000D02*
X105390000Y-114300000D01*
X107188000Y-106680000D02*
X105390000Y-106680000D01*
X107950000Y-111760000D02*
X105390000Y-111760000D01*
X98425000Y-127000000D02*
X100350000Y-127000000D01*
X98425000Y-104140000D02*
X100350000Y-104140000D01*
X107696000Y-101600000D02*
X105390000Y-101600000D01*
X129540000Y-110744000D02*
X127508000Y-108712000D01*
X127508000Y-108712000D02*
X126492000Y-108712000D01*
X107950000Y-127000000D02*
X105390000Y-127000000D01*
D18*
G36*
X100065723Y-79470025D02*
G01*
X99949998Y-79564998D01*
X99926199Y-79593998D01*
X99839001Y-79681196D01*
X99809999Y-79704997D01*
X99754871Y-79772172D01*
X99715026Y-79820722D01*
X99672938Y-79899463D01*
X99644454Y-79952752D01*
X99600997Y-80096013D01*
X99596475Y-80141928D01*
X98850000Y-80141928D01*
X98725518Y-80154188D01*
X98605820Y-80190498D01*
X98495506Y-80249463D01*
X98398815Y-80328815D01*
X98319463Y-80425506D01*
X98260498Y-80535820D01*
X98224188Y-80655518D01*
X98211928Y-80780000D01*
X98211928Y-81780000D01*
X98224188Y-81904482D01*
X98260498Y-82024180D01*
X98319463Y-82134494D01*
X98398815Y-82231185D01*
X98495506Y-82310537D01*
X98605820Y-82369502D01*
X98725518Y-82405812D01*
X98850000Y-82418072D01*
X99590000Y-82418072D01*
X99590000Y-82681928D01*
X98850000Y-82681928D01*
X98725518Y-82694188D01*
X98605820Y-82730498D01*
X98495506Y-82789463D01*
X98398815Y-82868815D01*
X98319463Y-82965506D01*
X98260498Y-83075820D01*
X98224188Y-83195518D01*
X98211928Y-83320000D01*
X98211928Y-84320000D01*
X98224188Y-84444482D01*
X98260498Y-84564180D01*
X98319463Y-84674494D01*
X98398815Y-84771185D01*
X98495506Y-84850537D01*
X98605820Y-84909502D01*
X98725518Y-84945812D01*
X98850000Y-84958072D01*
X100637965Y-84958072D01*
X100653368Y-84973475D01*
X100827760Y-85090000D01*
X100653368Y-85206525D01*
X100637965Y-85221928D01*
X98850000Y-85221928D01*
X98725518Y-85234188D01*
X98605820Y-85270498D01*
X98495506Y-85329463D01*
X98398815Y-85408815D01*
X98319463Y-85505506D01*
X98260498Y-85615820D01*
X98224188Y-85735518D01*
X98211928Y-85860000D01*
X98211928Y-86860000D01*
X98224188Y-86984482D01*
X98260498Y-87104180D01*
X98319463Y-87214494D01*
X98398815Y-87311185D01*
X98495506Y-87390537D01*
X98605820Y-87449502D01*
X98725518Y-87485812D01*
X98850000Y-87498072D01*
X100637965Y-87498072D01*
X100653368Y-87513475D01*
X100827760Y-87630000D01*
X100653368Y-87746525D01*
X100446525Y-87953368D01*
X100284010Y-88196589D01*
X100223000Y-88343881D01*
X100223000Y-87923750D01*
X100064250Y-87765000D01*
X98850000Y-87761928D01*
X98725518Y-87774188D01*
X98605820Y-87810498D01*
X98495506Y-87869463D01*
X98398815Y-87948815D01*
X98319463Y-88045506D01*
X98260498Y-88155820D01*
X98224188Y-88275518D01*
X98211928Y-88400000D01*
X98215000Y-88614250D01*
X98373750Y-88773000D01*
X100115000Y-88773000D01*
X100115000Y-89027000D01*
X98373750Y-89027000D01*
X98215000Y-89185750D01*
X98211928Y-89400000D01*
X98224188Y-89524482D01*
X98260498Y-89644180D01*
X98319463Y-89754494D01*
X98398815Y-89851185D01*
X98495506Y-89930537D01*
X98605820Y-89989502D01*
X98725518Y-90025812D01*
X98850000Y-90038072D01*
X100064250Y-90035000D01*
X100223000Y-89876250D01*
X100223000Y-89456119D01*
X100284010Y-89603411D01*
X100446525Y-89846632D01*
X100653368Y-90053475D01*
X100827760Y-90170000D01*
X100653368Y-90286525D01*
X100637965Y-90301928D01*
X98850000Y-90301928D01*
X98725518Y-90314188D01*
X98605820Y-90350498D01*
X98495506Y-90409463D01*
X98398815Y-90488815D01*
X98319463Y-90585506D01*
X98260498Y-90695820D01*
X98224188Y-90815518D01*
X98211928Y-90940000D01*
X98211928Y-91940000D01*
X98224188Y-92064482D01*
X98260498Y-92184180D01*
X98319463Y-92294494D01*
X98398815Y-92391185D01*
X98495506Y-92470537D01*
X98605820Y-92529502D01*
X98725518Y-92565812D01*
X98850000Y-92578072D01*
X100637965Y-92578072D01*
X100653368Y-92593475D01*
X100827760Y-92710000D01*
X100653368Y-92826525D01*
X100637965Y-92841928D01*
X98850000Y-92841928D01*
X98725518Y-92854188D01*
X98605820Y-92890498D01*
X98495506Y-92949463D01*
X98398815Y-93028815D01*
X98319463Y-93125506D01*
X98260498Y-93235820D01*
X98224188Y-93355518D01*
X98211928Y-93480000D01*
X98211928Y-94480000D01*
X98224188Y-94604482D01*
X98260498Y-94724180D01*
X98319463Y-94834494D01*
X98398815Y-94931185D01*
X98495506Y-95010537D01*
X98605820Y-95069502D01*
X98725518Y-95105812D01*
X98850000Y-95118072D01*
X100637965Y-95118072D01*
X100653368Y-95133475D01*
X100827760Y-95250000D01*
X100653368Y-95366525D01*
X100637965Y-95381928D01*
X98850000Y-95381928D01*
X98725518Y-95394188D01*
X98605820Y-95430498D01*
X98495506Y-95489463D01*
X98398815Y-95568815D01*
X98319463Y-95665506D01*
X98260498Y-95775820D01*
X98224188Y-95895518D01*
X98211928Y-96020000D01*
X98211928Y-97020000D01*
X98224188Y-97144482D01*
X98260498Y-97264180D01*
X98319463Y-97374494D01*
X98398815Y-97471185D01*
X98495506Y-97550537D01*
X98605820Y-97609502D01*
X98725518Y-97645812D01*
X98850000Y-97658072D01*
X100637965Y-97658072D01*
X100653368Y-97673475D01*
X100827760Y-97790000D01*
X100653368Y-97906525D01*
X100446525Y-98113368D01*
X100284010Y-98356589D01*
X100223000Y-98503881D01*
X100223000Y-98083750D01*
X100064250Y-97925000D01*
X98850000Y-97921928D01*
X98725518Y-97934188D01*
X98605820Y-97970498D01*
X98495506Y-98029463D01*
X98398815Y-98108815D01*
X98319463Y-98205506D01*
X98260498Y-98315820D01*
X98224188Y-98435518D01*
X98211928Y-98560000D01*
X98215000Y-98774250D01*
X98373750Y-98933000D01*
X100115000Y-98933000D01*
X100115000Y-99187000D01*
X98373750Y-99187000D01*
X98215000Y-99345750D01*
X98211928Y-99560000D01*
X98224188Y-99684482D01*
X98260498Y-99804180D01*
X98319463Y-99914494D01*
X98398815Y-100011185D01*
X98495506Y-100090537D01*
X98605820Y-100149502D01*
X98725518Y-100185812D01*
X98850000Y-100198072D01*
X100064250Y-100195000D01*
X100223000Y-100036250D01*
X100223000Y-99616119D01*
X100284010Y-99763411D01*
X100446525Y-100006632D01*
X100653368Y-100213475D01*
X100827760Y-100330000D01*
X100653368Y-100446525D01*
X100637965Y-100461928D01*
X98850000Y-100461928D01*
X98725518Y-100474188D01*
X98605820Y-100510498D01*
X98503856Y-100565000D01*
X98450061Y-100565000D01*
X98250102Y-100604774D01*
X98061744Y-100682795D01*
X97892226Y-100796063D01*
X97748063Y-100940226D01*
X97634795Y-101109744D01*
X97556774Y-101298102D01*
X97517000Y-101498061D01*
X97517000Y-101701939D01*
X97556774Y-101901898D01*
X97634795Y-102090256D01*
X97748063Y-102259774D01*
X97892226Y-102403937D01*
X98061744Y-102517205D01*
X98250102Y-102595226D01*
X98450061Y-102635000D01*
X98503856Y-102635000D01*
X98605820Y-102689502D01*
X98725518Y-102725812D01*
X98850000Y-102738072D01*
X100637965Y-102738072D01*
X100653368Y-102753475D01*
X100827760Y-102870000D01*
X100653368Y-102986525D01*
X100637965Y-103001928D01*
X98850000Y-103001928D01*
X98725518Y-103014188D01*
X98605820Y-103050498D01*
X98503856Y-103105000D01*
X98323061Y-103105000D01*
X98123102Y-103144774D01*
X97934744Y-103222795D01*
X97765226Y-103336063D01*
X97621063Y-103480226D01*
X97507795Y-103649744D01*
X97429774Y-103838102D01*
X97390000Y-104038061D01*
X97390000Y-104241939D01*
X97429774Y-104441898D01*
X97507795Y-104630256D01*
X97621063Y-104799774D01*
X97765226Y-104943937D01*
X97934744Y-105057205D01*
X98123102Y-105135226D01*
X98323061Y-105175000D01*
X98503856Y-105175000D01*
X98605820Y-105229502D01*
X98725518Y-105265812D01*
X98850000Y-105278072D01*
X100637965Y-105278072D01*
X100653368Y-105293475D01*
X100827760Y-105410000D01*
X100653368Y-105526525D01*
X100637965Y-105541928D01*
X98850000Y-105541928D01*
X98725518Y-105554188D01*
X98605820Y-105590498D01*
X98495506Y-105649463D01*
X98398815Y-105728815D01*
X98319463Y-105825506D01*
X98260498Y-105935820D01*
X98224188Y-106055518D01*
X98211928Y-106180000D01*
X98211928Y-107180000D01*
X98224188Y-107304482D01*
X98260498Y-107424180D01*
X98319463Y-107534494D01*
X98398815Y-107631185D01*
X98495506Y-107710537D01*
X98605820Y-107769502D01*
X98725518Y-107805812D01*
X98850000Y-107818072D01*
X100637965Y-107818072D01*
X100653368Y-107833475D01*
X100827760Y-107950000D01*
X100653368Y-108066525D01*
X100446525Y-108273368D01*
X100284010Y-108516589D01*
X100223000Y-108663881D01*
X100223000Y-108243750D01*
X100064250Y-108085000D01*
X98850000Y-108081928D01*
X98725518Y-108094188D01*
X98605820Y-108130498D01*
X98495506Y-108189463D01*
X98398815Y-108268815D01*
X98319463Y-108365506D01*
X98260498Y-108475820D01*
X98224188Y-108595518D01*
X98211928Y-108720000D01*
X98215000Y-108934250D01*
X98373750Y-109093000D01*
X100115000Y-109093000D01*
X100115000Y-109347000D01*
X98373750Y-109347000D01*
X98215000Y-109505750D01*
X98211928Y-109720000D01*
X98224188Y-109844482D01*
X98260498Y-109964180D01*
X98319463Y-110074494D01*
X98398815Y-110171185D01*
X98495506Y-110250537D01*
X98605820Y-110309502D01*
X98725518Y-110345812D01*
X98850000Y-110358072D01*
X100064250Y-110355000D01*
X100223000Y-110196250D01*
X100223000Y-109776119D01*
X100284010Y-109923411D01*
X100446525Y-110166632D01*
X100653368Y-110373475D01*
X100827760Y-110490000D01*
X100653368Y-110606525D01*
X100637965Y-110621928D01*
X98850000Y-110621928D01*
X98725518Y-110634188D01*
X98605820Y-110670498D01*
X98503856Y-110725000D01*
X98323061Y-110725000D01*
X98123102Y-110764774D01*
X97934744Y-110842795D01*
X97765226Y-110956063D01*
X97621063Y-111100226D01*
X97507795Y-111269744D01*
X97429774Y-111458102D01*
X97390000Y-111658061D01*
X97390000Y-111861939D01*
X97429774Y-112061898D01*
X97507795Y-112250256D01*
X97621063Y-112419774D01*
X97765226Y-112563937D01*
X97934744Y-112677205D01*
X98123102Y-112755226D01*
X98323061Y-112795000D01*
X98503856Y-112795000D01*
X98605820Y-112849502D01*
X98725518Y-112885812D01*
X98850000Y-112898072D01*
X100637965Y-112898072D01*
X100653368Y-112913475D01*
X100827760Y-113030000D01*
X100653368Y-113146525D01*
X100637965Y-113161928D01*
X98850000Y-113161928D01*
X98725518Y-113174188D01*
X98605820Y-113210498D01*
X98503856Y-113265000D01*
X98323061Y-113265000D01*
X98123102Y-113304774D01*
X97934744Y-113382795D01*
X97765226Y-113496063D01*
X97621063Y-113640226D01*
X97507795Y-113809744D01*
X97429774Y-113998102D01*
X97390000Y-114198061D01*
X97390000Y-114401939D01*
X97429774Y-114601898D01*
X97507795Y-114790256D01*
X97621063Y-114959774D01*
X97765226Y-115103937D01*
X97934744Y-115217205D01*
X98123102Y-115295226D01*
X98323061Y-115335000D01*
X98503856Y-115335000D01*
X98605820Y-115389502D01*
X98725518Y-115425812D01*
X98850000Y-115438072D01*
X100637965Y-115438072D01*
X100653368Y-115453475D01*
X100827760Y-115570000D01*
X100653368Y-115686525D01*
X100637965Y-115701928D01*
X98850000Y-115701928D01*
X98725518Y-115714188D01*
X98605820Y-115750498D01*
X98503856Y-115805000D01*
X98323061Y-115805000D01*
X98123102Y-115844774D01*
X97934744Y-115922795D01*
X97765226Y-116036063D01*
X97621063Y-116180226D01*
X97507795Y-116349744D01*
X97429774Y-116538102D01*
X97390000Y-116738061D01*
X97390000Y-116941939D01*
X97429774Y-117141898D01*
X97507795Y-117330256D01*
X97621063Y-117499774D01*
X97765226Y-117643937D01*
X97934744Y-117757205D01*
X98123102Y-117835226D01*
X98323061Y-117875000D01*
X98503856Y-117875000D01*
X98605820Y-117929502D01*
X98725518Y-117965812D01*
X98850000Y-117978072D01*
X100637965Y-117978072D01*
X100653368Y-117993475D01*
X100827760Y-118110000D01*
X100653368Y-118226525D01*
X100446525Y-118433368D01*
X100284010Y-118676589D01*
X100223000Y-118823881D01*
X100223000Y-118403750D01*
X100064250Y-118245000D01*
X98850000Y-118241928D01*
X98725518Y-118254188D01*
X98605820Y-118290498D01*
X98495506Y-118349463D01*
X98398815Y-118428815D01*
X98319463Y-118525506D01*
X98260498Y-118635820D01*
X98224188Y-118755518D01*
X98211928Y-118880000D01*
X98215000Y-119094250D01*
X98373750Y-119253000D01*
X100115000Y-119253000D01*
X100115000Y-119507000D01*
X98373750Y-119507000D01*
X98215000Y-119665750D01*
X98211928Y-119880000D01*
X98224188Y-120004482D01*
X98260498Y-120124180D01*
X98319463Y-120234494D01*
X98398815Y-120331185D01*
X98495506Y-120410537D01*
X98605820Y-120469502D01*
X98725518Y-120505812D01*
X98850000Y-120518072D01*
X100064250Y-120515000D01*
X100223000Y-120356250D01*
X100223000Y-119936119D01*
X100284010Y-120083411D01*
X100446525Y-120326632D01*
X100653368Y-120533475D01*
X100827760Y-120650000D01*
X100653368Y-120766525D01*
X100637965Y-120781928D01*
X98850000Y-120781928D01*
X98725518Y-120794188D01*
X98605820Y-120830498D01*
X98503856Y-120885000D01*
X98323061Y-120885000D01*
X98123102Y-120924774D01*
X97934744Y-121002795D01*
X97765226Y-121116063D01*
X97621063Y-121260226D01*
X97507795Y-121429744D01*
X97429774Y-121618102D01*
X97390000Y-121818061D01*
X97390000Y-122021939D01*
X97429774Y-122221898D01*
X97507795Y-122410256D01*
X97621063Y-122579774D01*
X97765226Y-122723937D01*
X97934744Y-122837205D01*
X98123102Y-122915226D01*
X98323061Y-122955000D01*
X98503856Y-122955000D01*
X98605820Y-123009502D01*
X98725518Y-123045812D01*
X98850000Y-123058072D01*
X100637965Y-123058072D01*
X100653368Y-123073475D01*
X100827760Y-123190000D01*
X100653368Y-123306525D01*
X100637965Y-123321928D01*
X98850000Y-123321928D01*
X98725518Y-123334188D01*
X98605820Y-123370498D01*
X98503856Y-123425000D01*
X98323061Y-123425000D01*
X98123102Y-123464774D01*
X97934744Y-123542795D01*
X97765226Y-123656063D01*
X97621063Y-123800226D01*
X97507795Y-123969744D01*
X97429774Y-124158102D01*
X97390000Y-124358061D01*
X97390000Y-124561939D01*
X97429774Y-124761898D01*
X97507795Y-124950256D01*
X97621063Y-125119774D01*
X97765226Y-125263937D01*
X97934744Y-125377205D01*
X98123102Y-125455226D01*
X98323061Y-125495000D01*
X98503856Y-125495000D01*
X98605820Y-125549502D01*
X98725518Y-125585812D01*
X98850000Y-125598072D01*
X100637965Y-125598072D01*
X100653368Y-125613475D01*
X100827760Y-125730000D01*
X100653368Y-125846525D01*
X100637965Y-125861928D01*
X98850000Y-125861928D01*
X98725518Y-125874188D01*
X98605820Y-125910498D01*
X98503856Y-125965000D01*
X98323061Y-125965000D01*
X98123102Y-126004774D01*
X97934744Y-126082795D01*
X97765226Y-126196063D01*
X97621063Y-126340226D01*
X97507795Y-126509744D01*
X97429774Y-126698102D01*
X97390000Y-126898061D01*
X97390000Y-127101939D01*
X97429774Y-127301898D01*
X97507795Y-127490256D01*
X97621063Y-127659774D01*
X97765226Y-127803937D01*
X97934744Y-127917205D01*
X98123102Y-127995226D01*
X98323061Y-128035000D01*
X98503856Y-128035000D01*
X98605820Y-128089502D01*
X98725518Y-128125812D01*
X98850000Y-128138072D01*
X100637965Y-128138072D01*
X100653368Y-128153475D01*
X100827760Y-128270000D01*
X100653368Y-128386525D01*
X100446525Y-128593368D01*
X100284010Y-128836589D01*
X100223000Y-128983881D01*
X100223000Y-128563750D01*
X100064250Y-128405000D01*
X98850000Y-128401928D01*
X98725518Y-128414188D01*
X98605820Y-128450498D01*
X98495506Y-128509463D01*
X98398815Y-128588815D01*
X98319463Y-128685506D01*
X98260498Y-128795820D01*
X98224188Y-128915518D01*
X98211928Y-129040000D01*
X98215000Y-129254250D01*
X98373750Y-129413000D01*
X100115000Y-129413000D01*
X100115000Y-129667000D01*
X98373750Y-129667000D01*
X98215000Y-129825750D01*
X98211928Y-130040000D01*
X98224188Y-130164482D01*
X98260498Y-130284180D01*
X98319463Y-130394494D01*
X98398815Y-130491185D01*
X98495506Y-130570537D01*
X98605820Y-130629502D01*
X98725518Y-130665812D01*
X98850000Y-130678072D01*
X100064250Y-130675000D01*
X100223000Y-130516250D01*
X100223000Y-130096119D01*
X100284010Y-130243411D01*
X100446525Y-130486632D01*
X100653368Y-130693475D01*
X100896589Y-130855990D01*
X101166842Y-130967932D01*
X101453740Y-131025000D01*
X101746260Y-131025000D01*
X102033158Y-130967932D01*
X102303411Y-130855990D01*
X102546632Y-130693475D01*
X102753475Y-130486632D01*
X102870000Y-130312240D01*
X102986525Y-130486632D01*
X103193368Y-130693475D01*
X103436589Y-130855990D01*
X103706842Y-130967932D01*
X103993740Y-131025000D01*
X104286260Y-131025000D01*
X104573158Y-130967932D01*
X104843411Y-130855990D01*
X105086632Y-130693475D01*
X105293475Y-130486632D01*
X105455990Y-130243411D01*
X105517000Y-130096119D01*
X105517000Y-130516250D01*
X105675750Y-130675000D01*
X106890000Y-130678072D01*
X107014482Y-130665812D01*
X107134180Y-130629502D01*
X107244494Y-130570537D01*
X107341185Y-130491185D01*
X107420537Y-130394494D01*
X107479502Y-130284180D01*
X107515812Y-130164482D01*
X107528072Y-130040000D01*
X107525000Y-129825750D01*
X107366250Y-129667000D01*
X105625000Y-129667000D01*
X105625000Y-129413000D01*
X107366250Y-129413000D01*
X107525000Y-129254250D01*
X107528072Y-129040000D01*
X107515812Y-128915518D01*
X107479502Y-128795820D01*
X107420537Y-128685506D01*
X107341185Y-128588815D01*
X107244494Y-128509463D01*
X107134180Y-128450498D01*
X107014482Y-128414188D01*
X106890000Y-128401928D01*
X105675750Y-128405000D01*
X105517000Y-128563750D01*
X105517000Y-128983881D01*
X105455990Y-128836589D01*
X105293475Y-128593368D01*
X105086632Y-128386525D01*
X104912240Y-128270000D01*
X105086632Y-128153475D01*
X105102035Y-128138072D01*
X106890000Y-128138072D01*
X107014482Y-128125812D01*
X107134180Y-128089502D01*
X107244494Y-128030537D01*
X107341185Y-127951185D01*
X107401184Y-127878076D01*
X107459744Y-127917205D01*
X107648102Y-127995226D01*
X107848061Y-128035000D01*
X108051939Y-128035000D01*
X108251898Y-127995226D01*
X108440256Y-127917205D01*
X108609774Y-127803937D01*
X108753937Y-127659774D01*
X108867205Y-127490256D01*
X108945226Y-127301898D01*
X108985000Y-127101939D01*
X108985000Y-126898061D01*
X108945226Y-126698102D01*
X108867205Y-126509744D01*
X108753937Y-126340226D01*
X108609774Y-126196063D01*
X108440256Y-126082795D01*
X108251898Y-126004774D01*
X108051939Y-125965000D01*
X107848061Y-125965000D01*
X107648102Y-126004774D01*
X107459744Y-126082795D01*
X107401184Y-126121924D01*
X107341185Y-126048815D01*
X107244494Y-125969463D01*
X107134180Y-125910498D01*
X107014482Y-125874188D01*
X106890000Y-125861928D01*
X105102035Y-125861928D01*
X105086632Y-125846525D01*
X104912240Y-125730000D01*
X105086632Y-125613475D01*
X105102035Y-125598072D01*
X106890000Y-125598072D01*
X107014482Y-125585812D01*
X107134180Y-125549502D01*
X107244494Y-125490537D01*
X107341185Y-125411185D01*
X107401184Y-125338076D01*
X107459744Y-125377205D01*
X107648102Y-125455226D01*
X107848061Y-125495000D01*
X108051939Y-125495000D01*
X108251898Y-125455226D01*
X108440256Y-125377205D01*
X108609774Y-125263937D01*
X108753937Y-125119774D01*
X108867205Y-124950256D01*
X108945226Y-124761898D01*
X108985000Y-124561939D01*
X108985000Y-124358061D01*
X108945226Y-124158102D01*
X108867205Y-123969744D01*
X108753937Y-123800226D01*
X108609774Y-123656063D01*
X108440256Y-123542795D01*
X108251898Y-123464774D01*
X108051939Y-123425000D01*
X107848061Y-123425000D01*
X107648102Y-123464774D01*
X107459744Y-123542795D01*
X107401184Y-123581924D01*
X107341185Y-123508815D01*
X107244494Y-123429463D01*
X107134180Y-123370498D01*
X107014482Y-123334188D01*
X106890000Y-123321928D01*
X105102035Y-123321928D01*
X105086632Y-123306525D01*
X104912240Y-123190000D01*
X105086632Y-123073475D01*
X105102035Y-123058072D01*
X106890000Y-123058072D01*
X107014482Y-123045812D01*
X107134180Y-123009502D01*
X107244494Y-122950537D01*
X107341185Y-122871185D01*
X107401184Y-122798076D01*
X107459744Y-122837205D01*
X107648102Y-122915226D01*
X107848061Y-122955000D01*
X108051939Y-122955000D01*
X108251898Y-122915226D01*
X108440256Y-122837205D01*
X108609774Y-122723937D01*
X108753937Y-122579774D01*
X108867205Y-122410256D01*
X108945226Y-122221898D01*
X108985000Y-122021939D01*
X108985000Y-121818061D01*
X108945226Y-121618102D01*
X108867205Y-121429744D01*
X108753937Y-121260226D01*
X108609774Y-121116063D01*
X108440256Y-121002795D01*
X108251898Y-120924774D01*
X108051939Y-120885000D01*
X107848061Y-120885000D01*
X107648102Y-120924774D01*
X107459744Y-121002795D01*
X107401184Y-121041924D01*
X107341185Y-120968815D01*
X107244494Y-120889463D01*
X107134180Y-120830498D01*
X107014482Y-120794188D01*
X106890000Y-120781928D01*
X105102035Y-120781928D01*
X105086632Y-120766525D01*
X104912240Y-120650000D01*
X105086632Y-120533475D01*
X105293475Y-120326632D01*
X105455990Y-120083411D01*
X105517000Y-119936119D01*
X105517000Y-120356250D01*
X105675750Y-120515000D01*
X106890000Y-120518072D01*
X107014482Y-120505812D01*
X107134180Y-120469502D01*
X107244494Y-120410537D01*
X107341185Y-120331185D01*
X107420537Y-120234494D01*
X107479502Y-120124180D01*
X107515812Y-120004482D01*
X107528072Y-119880000D01*
X107525000Y-119665750D01*
X107366250Y-119507000D01*
X105625000Y-119507000D01*
X105625000Y-119253000D01*
X107366250Y-119253000D01*
X107525000Y-119094250D01*
X107528072Y-118880000D01*
X107515812Y-118755518D01*
X107479502Y-118635820D01*
X107420537Y-118525506D01*
X107341185Y-118428815D01*
X107244494Y-118349463D01*
X107134180Y-118290498D01*
X107014482Y-118254188D01*
X106890000Y-118241928D01*
X105675750Y-118245000D01*
X105517000Y-118403750D01*
X105517000Y-118823881D01*
X105455990Y-118676589D01*
X105293475Y-118433368D01*
X105086632Y-118226525D01*
X104912240Y-118110000D01*
X105086632Y-117993475D01*
X105102035Y-117978072D01*
X106890000Y-117978072D01*
X107014482Y-117965812D01*
X107134180Y-117929502D01*
X107244494Y-117870537D01*
X107341185Y-117791185D01*
X107401184Y-117718076D01*
X107459744Y-117757205D01*
X107648102Y-117835226D01*
X107848061Y-117875000D01*
X108051939Y-117875000D01*
X108251898Y-117835226D01*
X108440256Y-117757205D01*
X108609774Y-117643937D01*
X108753937Y-117499774D01*
X108867205Y-117330256D01*
X108945226Y-117141898D01*
X108985000Y-116941939D01*
X108985000Y-116738061D01*
X108945226Y-116538102D01*
X108867205Y-116349744D01*
X108753937Y-116180226D01*
X108609774Y-116036063D01*
X108440256Y-115922795D01*
X108251898Y-115844774D01*
X108051939Y-115805000D01*
X107848061Y-115805000D01*
X107648102Y-115844774D01*
X107459744Y-115922795D01*
X107401184Y-115961924D01*
X107341185Y-115888815D01*
X107244494Y-115809463D01*
X107134180Y-115750498D01*
X107014482Y-115714188D01*
X106890000Y-115701928D01*
X105102035Y-115701928D01*
X105086632Y-115686525D01*
X104912240Y-115570000D01*
X105086632Y-115453475D01*
X105102035Y-115438072D01*
X106890000Y-115438072D01*
X107014482Y-115425812D01*
X107134180Y-115389502D01*
X107244494Y-115330537D01*
X107341185Y-115251185D01*
X107401184Y-115178076D01*
X107459744Y-115217205D01*
X107648102Y-115295226D01*
X107848061Y-115335000D01*
X108051939Y-115335000D01*
X108251898Y-115295226D01*
X108440256Y-115217205D01*
X108609774Y-115103937D01*
X108753937Y-114959774D01*
X108867205Y-114790256D01*
X108945226Y-114601898D01*
X108985000Y-114401939D01*
X108985000Y-114198061D01*
X108945226Y-113998102D01*
X108867205Y-113809744D01*
X108753937Y-113640226D01*
X108609774Y-113496063D01*
X108440256Y-113382795D01*
X108251898Y-113304774D01*
X108051939Y-113265000D01*
X107848061Y-113265000D01*
X107648102Y-113304774D01*
X107459744Y-113382795D01*
X107401184Y-113421924D01*
X107341185Y-113348815D01*
X107244494Y-113269463D01*
X107134180Y-113210498D01*
X107014482Y-113174188D01*
X106890000Y-113161928D01*
X105102035Y-113161928D01*
X105086632Y-113146525D01*
X104912240Y-113030000D01*
X105086632Y-112913475D01*
X105102035Y-112898072D01*
X106890000Y-112898072D01*
X107014482Y-112885812D01*
X107134180Y-112849502D01*
X107244494Y-112790537D01*
X107341185Y-112711185D01*
X107401184Y-112638076D01*
X107459744Y-112677205D01*
X107648102Y-112755226D01*
X107848061Y-112795000D01*
X108051939Y-112795000D01*
X108251898Y-112755226D01*
X108440256Y-112677205D01*
X108609774Y-112563937D01*
X108753937Y-112419774D01*
X108867205Y-112250256D01*
X108945226Y-112061898D01*
X108985000Y-111861939D01*
X108985000Y-111658061D01*
X108945226Y-111458102D01*
X108867205Y-111269744D01*
X108753937Y-111100226D01*
X108609774Y-110956063D01*
X108440256Y-110842795D01*
X108251898Y-110764774D01*
X108051939Y-110725000D01*
X107848061Y-110725000D01*
X107648102Y-110764774D01*
X107459744Y-110842795D01*
X107401184Y-110881924D01*
X107341185Y-110808815D01*
X107244494Y-110729463D01*
X107134180Y-110670498D01*
X107014482Y-110634188D01*
X106890000Y-110621928D01*
X105102035Y-110621928D01*
X105086632Y-110606525D01*
X104912240Y-110490000D01*
X105086632Y-110373475D01*
X105293475Y-110166632D01*
X105455990Y-109923411D01*
X105517000Y-109776119D01*
X105517000Y-110196250D01*
X105675750Y-110355000D01*
X106890000Y-110358072D01*
X107014482Y-110345812D01*
X107134180Y-110309502D01*
X107244494Y-110250537D01*
X107341185Y-110171185D01*
X107420537Y-110074494D01*
X107479502Y-109964180D01*
X107515812Y-109844482D01*
X107528072Y-109720000D01*
X107525000Y-109505750D01*
X107366250Y-109347000D01*
X105625000Y-109347000D01*
X105625000Y-109093000D01*
X107366250Y-109093000D01*
X107525000Y-108934250D01*
X107528072Y-108720000D01*
X107515812Y-108595518D01*
X107479502Y-108475820D01*
X107420537Y-108365506D01*
X107341185Y-108268815D01*
X107244494Y-108189463D01*
X107134180Y-108130498D01*
X107014482Y-108094188D01*
X106890000Y-108081928D01*
X105675750Y-108085000D01*
X105517000Y-108243750D01*
X105517000Y-108663881D01*
X105455990Y-108516589D01*
X105293475Y-108273368D01*
X105086632Y-108066525D01*
X104912240Y-107950000D01*
X105086632Y-107833475D01*
X105102035Y-107818072D01*
X106890000Y-107818072D01*
X107014482Y-107805812D01*
X107134180Y-107769502D01*
X107236144Y-107715000D01*
X107289939Y-107715000D01*
X107489898Y-107675226D01*
X107678256Y-107597205D01*
X107847774Y-107483937D01*
X107991937Y-107339774D01*
X108105205Y-107170256D01*
X108183226Y-106981898D01*
X108223000Y-106781939D01*
X108223000Y-106578061D01*
X108183226Y-106378102D01*
X108105205Y-106189744D01*
X107991937Y-106020226D01*
X107847774Y-105876063D01*
X107678256Y-105762795D01*
X107489898Y-105684774D01*
X107289939Y-105645000D01*
X107236144Y-105645000D01*
X107134180Y-105590498D01*
X107014482Y-105554188D01*
X106890000Y-105541928D01*
X105102035Y-105541928D01*
X105086632Y-105526525D01*
X104912240Y-105410000D01*
X105086632Y-105293475D01*
X105102035Y-105278072D01*
X106890000Y-105278072D01*
X107014482Y-105265812D01*
X107134180Y-105229502D01*
X107244494Y-105170537D01*
X107323271Y-105105887D01*
X107394102Y-105135226D01*
X107594061Y-105175000D01*
X107797939Y-105175000D01*
X107997898Y-105135226D01*
X108186256Y-105057205D01*
X108355774Y-104943937D01*
X108499937Y-104799774D01*
X108613205Y-104630256D01*
X108691226Y-104441898D01*
X108731000Y-104241939D01*
X108731000Y-104038061D01*
X108691226Y-103838102D01*
X108613205Y-103649744D01*
X108499937Y-103480226D01*
X108355774Y-103336063D01*
X108186256Y-103222795D01*
X107997898Y-103144774D01*
X107797939Y-103105000D01*
X107594061Y-103105000D01*
X107394102Y-103144774D01*
X107323271Y-103174113D01*
X107244494Y-103109463D01*
X107134180Y-103050498D01*
X107014482Y-103014188D01*
X106890000Y-103001928D01*
X105102035Y-103001928D01*
X105086632Y-102986525D01*
X104912240Y-102870000D01*
X105086632Y-102753475D01*
X105102035Y-102738072D01*
X106890000Y-102738072D01*
X107014482Y-102725812D01*
X107134180Y-102689502D01*
X107244494Y-102630537D01*
X107323271Y-102565887D01*
X107394102Y-102595226D01*
X107594061Y-102635000D01*
X107797939Y-102635000D01*
X107997898Y-102595226D01*
X108186256Y-102517205D01*
X108355774Y-102403937D01*
X108499937Y-102259774D01*
X108613205Y-102090256D01*
X108691226Y-101901898D01*
X108731000Y-101701939D01*
X108731000Y-101498061D01*
X108691226Y-101298102D01*
X108613205Y-101109744D01*
X108499937Y-100940226D01*
X108355774Y-100796063D01*
X108186256Y-100682795D01*
X107997898Y-100604774D01*
X107797939Y-100565000D01*
X107594061Y-100565000D01*
X107394102Y-100604774D01*
X107323271Y-100634113D01*
X107244494Y-100569463D01*
X107134180Y-100510498D01*
X107014482Y-100474188D01*
X106890000Y-100461928D01*
X105102035Y-100461928D01*
X105086632Y-100446525D01*
X104912240Y-100330000D01*
X105086632Y-100213475D01*
X105293475Y-100006632D01*
X105455990Y-99763411D01*
X105517000Y-99616119D01*
X105517000Y-100036250D01*
X105675750Y-100195000D01*
X106890000Y-100198072D01*
X107014482Y-100185812D01*
X107134180Y-100149502D01*
X107244494Y-100090537D01*
X107341185Y-100011185D01*
X107420537Y-99914494D01*
X107479502Y-99804180D01*
X107515812Y-99684482D01*
X107528072Y-99560000D01*
X107525000Y-99345750D01*
X107366250Y-99187000D01*
X105625000Y-99187000D01*
X105625000Y-98933000D01*
X107366250Y-98933000D01*
X107525000Y-98774250D01*
X107528072Y-98560000D01*
X107515812Y-98435518D01*
X107479502Y-98315820D01*
X107420537Y-98205506D01*
X107341185Y-98108815D01*
X107244494Y-98029463D01*
X107134180Y-97970498D01*
X107014482Y-97934188D01*
X106890000Y-97921928D01*
X105675750Y-97925000D01*
X105517000Y-98083750D01*
X105517000Y-98503881D01*
X105455990Y-98356589D01*
X105293475Y-98113368D01*
X105086632Y-97906525D01*
X104912240Y-97790000D01*
X105086632Y-97673475D01*
X105102035Y-97658072D01*
X106890000Y-97658072D01*
X107014482Y-97645812D01*
X107134180Y-97609502D01*
X107244494Y-97550537D01*
X107341185Y-97471185D01*
X107420537Y-97374494D01*
X107479502Y-97264180D01*
X107515812Y-97144482D01*
X107528072Y-97020000D01*
X107528072Y-96020000D01*
X107515812Y-95895518D01*
X107479502Y-95775820D01*
X107420537Y-95665506D01*
X107341185Y-95568815D01*
X107244494Y-95489463D01*
X107134180Y-95430498D01*
X107014482Y-95394188D01*
X106890000Y-95381928D01*
X105102035Y-95381928D01*
X105086632Y-95366525D01*
X104912240Y-95250000D01*
X105086632Y-95133475D01*
X105102035Y-95118072D01*
X106890000Y-95118072D01*
X107014482Y-95105812D01*
X107134180Y-95069502D01*
X107244494Y-95010537D01*
X107341185Y-94931185D01*
X107420537Y-94834494D01*
X107479502Y-94724180D01*
X107515812Y-94604482D01*
X107528072Y-94480000D01*
X107528072Y-93480000D01*
X107515812Y-93355518D01*
X107479502Y-93235820D01*
X107420537Y-93125506D01*
X107341185Y-93028815D01*
X107244494Y-92949463D01*
X107134180Y-92890498D01*
X107014482Y-92854188D01*
X106890000Y-92841928D01*
X105102035Y-92841928D01*
X105086632Y-92826525D01*
X104912240Y-92710000D01*
X105086632Y-92593475D01*
X105102035Y-92578072D01*
X106890000Y-92578072D01*
X107014482Y-92565812D01*
X107134180Y-92529502D01*
X107244494Y-92470537D01*
X107341185Y-92391185D01*
X107420537Y-92294494D01*
X107479502Y-92184180D01*
X107515812Y-92064482D01*
X107528072Y-91940000D01*
X107528072Y-90940000D01*
X107515812Y-90815518D01*
X107479502Y-90695820D01*
X107420537Y-90585506D01*
X107341185Y-90488815D01*
X107244494Y-90409463D01*
X107134180Y-90350498D01*
X107014482Y-90314188D01*
X106890000Y-90301928D01*
X105102035Y-90301928D01*
X105086632Y-90286525D01*
X104912240Y-90170000D01*
X105086632Y-90053475D01*
X105293475Y-89846632D01*
X105455990Y-89603411D01*
X105517000Y-89456119D01*
X105517000Y-89876250D01*
X105675750Y-90035000D01*
X106890000Y-90038072D01*
X107014482Y-90025812D01*
X107134180Y-89989502D01*
X107244494Y-89930537D01*
X107341185Y-89851185D01*
X107420537Y-89754494D01*
X107479502Y-89644180D01*
X107515812Y-89524482D01*
X107528072Y-89400000D01*
X107525000Y-89185750D01*
X107366250Y-89027000D01*
X105625000Y-89027000D01*
X105625000Y-88773000D01*
X107366250Y-88773000D01*
X107525000Y-88614250D01*
X107528072Y-88400000D01*
X107515812Y-88275518D01*
X107479502Y-88155820D01*
X107420537Y-88045506D01*
X107341185Y-87948815D01*
X107244494Y-87869463D01*
X107134180Y-87810498D01*
X107014482Y-87774188D01*
X106890000Y-87761928D01*
X105675750Y-87765000D01*
X105517000Y-87923750D01*
X105517000Y-88343881D01*
X105455990Y-88196589D01*
X105293475Y-87953368D01*
X105086632Y-87746525D01*
X104912240Y-87630000D01*
X105086632Y-87513475D01*
X105102035Y-87498072D01*
X106890000Y-87498072D01*
X107014482Y-87485812D01*
X107134180Y-87449502D01*
X107244494Y-87390537D01*
X107341185Y-87311185D01*
X107420537Y-87214494D01*
X107479502Y-87104180D01*
X107515812Y-86984482D01*
X107528072Y-86860000D01*
X107528072Y-85860000D01*
X107515812Y-85735518D01*
X107479502Y-85615820D01*
X107420537Y-85505506D01*
X107341185Y-85408815D01*
X107244494Y-85329463D01*
X107134180Y-85270498D01*
X107014482Y-85234188D01*
X106890000Y-85221928D01*
X105102035Y-85221928D01*
X105086632Y-85206525D01*
X104912240Y-85090000D01*
X105086632Y-84973475D01*
X105102035Y-84958072D01*
X106890000Y-84958072D01*
X107014482Y-84945812D01*
X107134180Y-84909502D01*
X107244494Y-84850537D01*
X107341185Y-84771185D01*
X107420537Y-84674494D01*
X107479502Y-84564180D01*
X107515812Y-84444482D01*
X107528072Y-84320000D01*
X107528072Y-83320000D01*
X107515812Y-83195518D01*
X107479502Y-83075820D01*
X107420537Y-82965506D01*
X107341185Y-82868815D01*
X107244494Y-82789463D01*
X107134180Y-82730498D01*
X107014482Y-82694188D01*
X106890000Y-82681928D01*
X105102035Y-82681928D01*
X105086632Y-82666525D01*
X104912240Y-82550000D01*
X105086632Y-82433475D01*
X105102035Y-82418072D01*
X106890000Y-82418072D01*
X107014482Y-82405812D01*
X107134180Y-82369502D01*
X107244494Y-82310537D01*
X107341185Y-82231185D01*
X107420537Y-82134494D01*
X107479502Y-82024180D01*
X107515812Y-81904482D01*
X107516607Y-81896406D01*
X117604001Y-91983801D01*
X117604000Y-102578678D01*
X117600324Y-102616000D01*
X117604000Y-102653322D01*
X117604000Y-102653332D01*
X117614997Y-102764985D01*
X117632902Y-102824010D01*
X117658454Y-102908246D01*
X117729026Y-103040276D01*
X117768871Y-103088826D01*
X117823999Y-103156001D01*
X117853002Y-103179803D01*
X118853000Y-104179802D01*
X118853000Y-104241939D01*
X118892774Y-104441898D01*
X118970795Y-104630256D01*
X119084063Y-104799774D01*
X119128001Y-104843712D01*
X119128000Y-106642677D01*
X119124324Y-106680000D01*
X119128000Y-106717322D01*
X119128000Y-106717332D01*
X119138997Y-106828985D01*
X119169360Y-106929080D01*
X119182454Y-106972246D01*
X119253026Y-107104276D01*
X119285785Y-107144192D01*
X119347999Y-107220001D01*
X119377003Y-107243804D01*
X122118200Y-109985002D01*
X122141999Y-110014001D01*
X122257724Y-110108974D01*
X122389753Y-110179546D01*
X122533014Y-110223003D01*
X122644667Y-110234000D01*
X122644675Y-110234000D01*
X122682000Y-110237676D01*
X122719325Y-110234000D01*
X124781609Y-110234000D01*
X130628610Y-116081002D01*
X130652409Y-116110001D01*
X130681407Y-116133799D01*
X130768133Y-116204974D01*
X130900163Y-116275546D01*
X131043424Y-116319003D01*
X131155077Y-116330000D01*
X131155087Y-116330000D01*
X131192410Y-116333676D01*
X131229733Y-116330000D01*
X147005199Y-116330000D01*
X148592000Y-117916802D01*
X148592001Y-119184288D01*
X148548063Y-119228226D01*
X148434795Y-119397744D01*
X148356774Y-119586102D01*
X148317000Y-119786061D01*
X148317000Y-119989939D01*
X148356774Y-120189898D01*
X148434795Y-120378256D01*
X148548063Y-120547774D01*
X148692226Y-120691937D01*
X148861744Y-120805205D01*
X149050102Y-120883226D01*
X149250061Y-120923000D01*
X149453939Y-120923000D01*
X149653898Y-120883226D01*
X149842256Y-120805205D01*
X150011774Y-120691937D01*
X150155937Y-120547774D01*
X150269205Y-120378256D01*
X150347226Y-120189898D01*
X150387000Y-119989939D01*
X150387000Y-119786061D01*
X150347226Y-119586102D01*
X150269205Y-119397744D01*
X150155937Y-119228226D01*
X150112000Y-119184289D01*
X150112000Y-117639323D01*
X150115676Y-117602000D01*
X150112000Y-117564677D01*
X150112000Y-117564667D01*
X150101003Y-117453014D01*
X150057546Y-117309753D01*
X149986975Y-117177725D01*
X149986974Y-117177723D01*
X149915799Y-117090997D01*
X149892001Y-117061999D01*
X149863004Y-117038202D01*
X148038863Y-115214061D01*
X150603000Y-115214061D01*
X150603000Y-115417939D01*
X150642774Y-115617898D01*
X150720795Y-115806256D01*
X150834063Y-115975774D01*
X150978226Y-116119937D01*
X151147744Y-116233205D01*
X151336102Y-116311226D01*
X151536061Y-116351000D01*
X151739939Y-116351000D01*
X151939898Y-116311226D01*
X152128256Y-116233205D01*
X152297774Y-116119937D01*
X152441937Y-115975774D01*
X152555205Y-115806256D01*
X152633226Y-115617898D01*
X152673000Y-115417939D01*
X152673000Y-115355801D01*
X155705008Y-112323795D01*
X155734001Y-112300001D01*
X155757795Y-112271008D01*
X155757799Y-112271004D01*
X155828973Y-112184277D01*
X155828974Y-112184276D01*
X155899546Y-112052247D01*
X155943003Y-111908986D01*
X155954000Y-111797333D01*
X155954000Y-111797324D01*
X155957676Y-111760001D01*
X155954000Y-111722678D01*
X155954000Y-111626366D01*
X156145808Y-111568182D01*
X156395101Y-111434932D01*
X156613608Y-111255608D01*
X156792932Y-111037101D01*
X156926182Y-110787808D01*
X157008236Y-110517309D01*
X157035943Y-110236000D01*
X157008236Y-109954691D01*
X156926182Y-109684192D01*
X156792932Y-109434899D01*
X156752802Y-109386000D01*
X157261928Y-109386000D01*
X157261928Y-111086000D01*
X157274188Y-111210482D01*
X157310498Y-111330180D01*
X157369463Y-111440494D01*
X157448815Y-111537185D01*
X157545506Y-111616537D01*
X157655820Y-111675502D01*
X157775518Y-111711812D01*
X157900000Y-111724072D01*
X159600000Y-111724072D01*
X159724482Y-111711812D01*
X159844180Y-111675502D01*
X159954494Y-111616537D01*
X160051185Y-111537185D01*
X160130537Y-111440494D01*
X160189502Y-111330180D01*
X160225812Y-111210482D01*
X160238072Y-111086000D01*
X160238072Y-109386000D01*
X160225812Y-109261518D01*
X160189502Y-109141820D01*
X160130537Y-109031506D01*
X160051185Y-108934815D01*
X159954494Y-108855463D01*
X159844180Y-108796498D01*
X159763534Y-108772034D01*
X159847588Y-108696269D01*
X160021641Y-108462920D01*
X160146825Y-108200099D01*
X160191476Y-108052890D01*
X160070155Y-107823000D01*
X158877000Y-107823000D01*
X158877000Y-107843000D01*
X158623000Y-107843000D01*
X158623000Y-107823000D01*
X157429845Y-107823000D01*
X157308524Y-108052890D01*
X157353175Y-108200099D01*
X157478359Y-108462920D01*
X157652412Y-108696269D01*
X157736466Y-108772034D01*
X157655820Y-108796498D01*
X157545506Y-108855463D01*
X157448815Y-108934815D01*
X157369463Y-109031506D01*
X157310498Y-109141820D01*
X157274188Y-109261518D01*
X157261928Y-109386000D01*
X156752802Y-109386000D01*
X156613608Y-109216392D01*
X156395101Y-109037068D01*
X156262142Y-108966000D01*
X156395101Y-108894932D01*
X156613608Y-108715608D01*
X156792932Y-108497101D01*
X156926182Y-108247808D01*
X157008236Y-107977309D01*
X157035943Y-107696000D01*
X157008236Y-107414691D01*
X156926182Y-107144192D01*
X156792932Y-106894899D01*
X156613608Y-106676392D01*
X156395101Y-106497068D01*
X156262142Y-106426000D01*
X156395101Y-106354932D01*
X156613608Y-106175608D01*
X156792932Y-105957101D01*
X156926182Y-105707808D01*
X157008236Y-105437309D01*
X157035943Y-105156000D01*
X157021538Y-105009740D01*
X157265000Y-105009740D01*
X157265000Y-105302260D01*
X157322068Y-105589158D01*
X157434010Y-105859411D01*
X157596525Y-106102632D01*
X157803368Y-106309475D01*
X157985534Y-106431195D01*
X157868645Y-106500822D01*
X157652412Y-106695731D01*
X157478359Y-106929080D01*
X157353175Y-107191901D01*
X157308524Y-107339110D01*
X157429845Y-107569000D01*
X158623000Y-107569000D01*
X158623000Y-107549000D01*
X158877000Y-107549000D01*
X158877000Y-107569000D01*
X160070155Y-107569000D01*
X160191476Y-107339110D01*
X160146825Y-107191901D01*
X160021641Y-106929080D01*
X159847588Y-106695731D01*
X159631355Y-106500822D01*
X159514466Y-106431195D01*
X159696632Y-106309475D01*
X159903475Y-106102632D01*
X160065990Y-105859411D01*
X160177932Y-105589158D01*
X160235000Y-105302260D01*
X160235000Y-105009740D01*
X160177932Y-104722842D01*
X160065990Y-104452589D01*
X159903475Y-104209368D01*
X159696632Y-104002525D01*
X159514466Y-103880805D01*
X159631355Y-103811178D01*
X159847588Y-103616269D01*
X160021641Y-103382920D01*
X160146825Y-103120099D01*
X160191476Y-102972890D01*
X160070155Y-102743000D01*
X158877000Y-102743000D01*
X158877000Y-102763000D01*
X158623000Y-102763000D01*
X158623000Y-102743000D01*
X157429845Y-102743000D01*
X157308524Y-102972890D01*
X157353175Y-103120099D01*
X157478359Y-103382920D01*
X157652412Y-103616269D01*
X157868645Y-103811178D01*
X157985534Y-103880805D01*
X157803368Y-104002525D01*
X157596525Y-104209368D01*
X157434010Y-104452589D01*
X157322068Y-104722842D01*
X157265000Y-105009740D01*
X157021538Y-105009740D01*
X157008236Y-104874691D01*
X156926182Y-104604192D01*
X156792932Y-104354899D01*
X156613608Y-104136392D01*
X156395101Y-103957068D01*
X156267259Y-103888735D01*
X156496839Y-103738601D01*
X156698500Y-103540895D01*
X156857715Y-103307646D01*
X156968367Y-103047818D01*
X156985904Y-102965039D01*
X156863915Y-102743000D01*
X155321000Y-102743000D01*
X155321000Y-102763000D01*
X155067000Y-102763000D01*
X155067000Y-102743000D01*
X153524085Y-102743000D01*
X153402096Y-102965039D01*
X153419633Y-103047818D01*
X153530285Y-103307646D01*
X153689500Y-103540895D01*
X153891161Y-103738601D01*
X154120741Y-103888735D01*
X153992899Y-103957068D01*
X153774392Y-104136392D01*
X153595068Y-104354899D01*
X153461818Y-104604192D01*
X153379764Y-104874691D01*
X153352057Y-105156000D01*
X153379764Y-105437309D01*
X153461818Y-105707808D01*
X153595068Y-105957101D01*
X153774392Y-106175608D01*
X153992899Y-106354932D01*
X154125858Y-106426000D01*
X153992899Y-106497068D01*
X153774392Y-106676392D01*
X153595068Y-106894899D01*
X153461818Y-107144192D01*
X153379764Y-107414691D01*
X153352057Y-107696000D01*
X153379764Y-107977309D01*
X153461818Y-108247808D01*
X153595068Y-108497101D01*
X153774392Y-108715608D01*
X153992899Y-108894932D01*
X154125858Y-108966000D01*
X153992899Y-109037068D01*
X153774392Y-109216392D01*
X153595068Y-109434899D01*
X153461818Y-109684192D01*
X153379764Y-109954691D01*
X153352057Y-110236000D01*
X153379764Y-110517309D01*
X153461818Y-110787808D01*
X153595068Y-111037101D01*
X153774392Y-111255608D01*
X153992899Y-111434932D01*
X154242192Y-111568182D01*
X154294997Y-111584200D01*
X151598199Y-114281000D01*
X151536061Y-114281000D01*
X151336102Y-114320774D01*
X151147744Y-114398795D01*
X150978226Y-114512063D01*
X150834063Y-114656226D01*
X150720795Y-114825744D01*
X150642774Y-115014102D01*
X150603000Y-115214061D01*
X148038863Y-115214061D01*
X147883804Y-115059003D01*
X147860001Y-115029999D01*
X147744276Y-114935026D01*
X147612247Y-114864454D01*
X147468986Y-114820997D01*
X147357333Y-114810000D01*
X147357322Y-114810000D01*
X147320000Y-114806324D01*
X147282678Y-114810000D01*
X131507212Y-114810000D01*
X126444211Y-109747000D01*
X126593939Y-109747000D01*
X126793898Y-109707226D01*
X126982256Y-109629205D01*
X127151774Y-109515937D01*
X127194455Y-109473256D01*
X128505000Y-110783802D01*
X128505000Y-110845939D01*
X128544774Y-111045898D01*
X128622795Y-111234256D01*
X128736063Y-111403774D01*
X128880226Y-111547937D01*
X129049744Y-111661205D01*
X129238102Y-111739226D01*
X129438061Y-111779000D01*
X129641939Y-111779000D01*
X129841898Y-111739226D01*
X130030256Y-111661205D01*
X130199774Y-111547937D01*
X130343937Y-111403774D01*
X130457205Y-111234256D01*
X130535226Y-111045898D01*
X130575000Y-110845939D01*
X130575000Y-110642061D01*
X130535226Y-110442102D01*
X130457205Y-110253744D01*
X130343937Y-110084226D01*
X130199774Y-109940063D01*
X130030256Y-109826795D01*
X129841898Y-109748774D01*
X129641939Y-109709000D01*
X129579802Y-109709000D01*
X128071804Y-108201003D01*
X128048001Y-108171999D01*
X127932276Y-108077026D01*
X127800247Y-108006454D01*
X127656986Y-107962997D01*
X127545333Y-107952000D01*
X127545322Y-107952000D01*
X127508000Y-107948324D01*
X127470678Y-107952000D01*
X127195711Y-107952000D01*
X127151774Y-107908063D01*
X126982256Y-107794795D01*
X126793898Y-107716774D01*
X126593939Y-107677000D01*
X126390061Y-107677000D01*
X126190102Y-107716774D01*
X126001744Y-107794795D01*
X125832226Y-107908063D01*
X125688063Y-108052226D01*
X125574795Y-108221744D01*
X125496774Y-108410102D01*
X125457000Y-108610061D01*
X125457000Y-108804985D01*
X125388657Y-108768454D01*
X125245396Y-108724997D01*
X125133743Y-108714000D01*
X125133732Y-108714000D01*
X125096410Y-108710324D01*
X125059088Y-108714000D01*
X122996802Y-108714000D01*
X120648000Y-106365199D01*
X120648000Y-104843711D01*
X120691937Y-104799774D01*
X120805205Y-104630256D01*
X120883226Y-104441898D01*
X120923000Y-104241939D01*
X120923000Y-104038061D01*
X120883226Y-103838102D01*
X120805205Y-103649744D01*
X120691937Y-103480226D01*
X120547774Y-103336063D01*
X120378256Y-103222795D01*
X120189898Y-103144774D01*
X119989939Y-103105000D01*
X119927802Y-103105000D01*
X119124000Y-102301199D01*
X119124000Y-96012000D01*
X119632324Y-96012000D01*
X119636001Y-96049332D01*
X119636000Y-98514677D01*
X119632324Y-98552000D01*
X119636000Y-98589322D01*
X119636000Y-98589332D01*
X119646997Y-98700985D01*
X119677641Y-98802005D01*
X119690454Y-98844246D01*
X119761026Y-98976276D01*
X119800871Y-99024826D01*
X119855999Y-99092001D01*
X119885002Y-99115803D01*
X121356205Y-100587008D01*
X121379999Y-100616001D01*
X121408992Y-100639795D01*
X121408996Y-100639799D01*
X121461388Y-100682795D01*
X121495724Y-100710974D01*
X121627753Y-100781546D01*
X121771014Y-100825003D01*
X121882667Y-100836000D01*
X121882676Y-100836000D01*
X121919999Y-100839676D01*
X121957322Y-100836000D01*
X126790246Y-100836000D01*
X126802454Y-100876246D01*
X126873026Y-101008276D01*
X126912871Y-101056826D01*
X126967999Y-101124001D01*
X126997003Y-101147804D01*
X134536000Y-108686802D01*
X134536000Y-108813939D01*
X134575774Y-109013898D01*
X134653795Y-109202256D01*
X134767063Y-109371774D01*
X134911226Y-109515937D01*
X135080744Y-109629205D01*
X135269102Y-109707226D01*
X135469061Y-109747000D01*
X135672939Y-109747000D01*
X135872898Y-109707226D01*
X136061256Y-109629205D01*
X136230774Y-109515937D01*
X136310711Y-109436000D01*
X143195928Y-109436000D01*
X143195928Y-111036000D01*
X143208188Y-111160482D01*
X143244498Y-111280180D01*
X143303463Y-111390494D01*
X143382815Y-111487185D01*
X143479506Y-111566537D01*
X143589820Y-111625502D01*
X143709518Y-111661812D01*
X143834000Y-111674072D01*
X146234000Y-111674072D01*
X146358482Y-111661812D01*
X146478180Y-111625502D01*
X146588494Y-111566537D01*
X146685185Y-111487185D01*
X146764537Y-111390494D01*
X146823502Y-111280180D01*
X146859812Y-111160482D01*
X146872072Y-111036000D01*
X146872072Y-109436000D01*
X146859812Y-109311518D01*
X146823502Y-109191820D01*
X146764537Y-109081506D01*
X146685185Y-108984815D01*
X146588494Y-108905463D01*
X146478180Y-108846498D01*
X146358482Y-108810188D01*
X146346613Y-108809019D01*
X146538500Y-108620895D01*
X146697715Y-108387646D01*
X146808367Y-108127818D01*
X146825904Y-108045039D01*
X146703915Y-107823000D01*
X145161000Y-107823000D01*
X145161000Y-107843000D01*
X144907000Y-107843000D01*
X144907000Y-107823000D01*
X143364085Y-107823000D01*
X143242096Y-108045039D01*
X143259633Y-108127818D01*
X143370285Y-108387646D01*
X143529500Y-108620895D01*
X143721387Y-108809019D01*
X143709518Y-108810188D01*
X143589820Y-108846498D01*
X143479506Y-108905463D01*
X143382815Y-108984815D01*
X143303463Y-109081506D01*
X143244498Y-109191820D01*
X143208188Y-109311518D01*
X143195928Y-109436000D01*
X136310711Y-109436000D01*
X136374937Y-109371774D01*
X136488205Y-109202256D01*
X136566226Y-109013898D01*
X136606000Y-108813939D01*
X136606000Y-108610061D01*
X136566226Y-108410102D01*
X136488205Y-108221744D01*
X136374937Y-108052226D01*
X136230774Y-107908063D01*
X136061256Y-107794795D01*
X135872898Y-107716774D01*
X135676513Y-107677711D01*
X133503841Y-105505039D01*
X143242096Y-105505039D01*
X143259633Y-105587818D01*
X143370285Y-105847646D01*
X143529500Y-106080895D01*
X143731161Y-106278601D01*
X143956559Y-106426000D01*
X143731161Y-106573399D01*
X143529500Y-106771105D01*
X143370285Y-107004354D01*
X143259633Y-107264182D01*
X143242096Y-107346961D01*
X143364085Y-107569000D01*
X144907000Y-107569000D01*
X144907000Y-105283000D01*
X145161000Y-105283000D01*
X145161000Y-107569000D01*
X146703915Y-107569000D01*
X146825904Y-107346961D01*
X146808367Y-107264182D01*
X146697715Y-107004354D01*
X146538500Y-106771105D01*
X146336839Y-106573399D01*
X146111441Y-106426000D01*
X146336839Y-106278601D01*
X146538500Y-106080895D01*
X146697715Y-105847646D01*
X146808367Y-105587818D01*
X146825904Y-105505039D01*
X146703915Y-105283000D01*
X145161000Y-105283000D01*
X144907000Y-105283000D01*
X143364085Y-105283000D01*
X143242096Y-105505039D01*
X133503841Y-105505039D01*
X128997873Y-100999071D01*
X132070010Y-100999071D01*
X132070010Y-101202949D01*
X132109784Y-101402908D01*
X132187805Y-101591266D01*
X132301073Y-101760784D01*
X132445236Y-101904947D01*
X132614754Y-102018215D01*
X132803112Y-102096236D01*
X133003071Y-102136010D01*
X133206949Y-102136010D01*
X133406908Y-102096236D01*
X133595266Y-102018215D01*
X133764784Y-101904947D01*
X133908947Y-101760784D01*
X134022215Y-101591266D01*
X134100236Y-101402908D01*
X134140010Y-101202949D01*
X134140010Y-100999071D01*
X134100236Y-100799112D01*
X134022215Y-100610754D01*
X133908947Y-100441236D01*
X133764784Y-100297073D01*
X133595266Y-100183805D01*
X133406908Y-100105784D01*
X133206949Y-100066010D01*
X133003071Y-100066010D01*
X132803112Y-100105784D01*
X132614754Y-100183805D01*
X132445236Y-100297073D01*
X132301073Y-100441236D01*
X132187805Y-100610754D01*
X132109784Y-100799112D01*
X132070010Y-100999071D01*
X128997873Y-100999071D01*
X128466167Y-100467366D01*
X128503226Y-100377898D01*
X128543000Y-100177939D01*
X128543000Y-99974061D01*
X128503226Y-99774102D01*
X128425205Y-99585744D01*
X128311937Y-99416226D01*
X128167774Y-99272063D01*
X127998256Y-99158795D01*
X127809898Y-99080774D01*
X127609939Y-99041000D01*
X127406061Y-99041000D01*
X127206102Y-99080774D01*
X127017744Y-99158795D01*
X126848226Y-99272063D01*
X126804289Y-99316000D01*
X122234803Y-99316000D01*
X121156000Y-98237199D01*
X121156000Y-96326801D01*
X121726802Y-95756000D01*
X125788289Y-95756000D01*
X125832226Y-95799937D01*
X126001744Y-95913205D01*
X126190102Y-95991226D01*
X126390061Y-96031000D01*
X126593939Y-96031000D01*
X126793898Y-95991226D01*
X126982256Y-95913205D01*
X127151774Y-95799937D01*
X127295937Y-95655774D01*
X127409205Y-95486256D01*
X127487226Y-95297898D01*
X127527000Y-95097939D01*
X127527000Y-94894061D01*
X127487226Y-94694102D01*
X127409205Y-94505744D01*
X127295937Y-94336226D01*
X127151774Y-94192063D01*
X126982256Y-94078795D01*
X126793898Y-94000774D01*
X126593939Y-93961000D01*
X126390061Y-93961000D01*
X126190102Y-94000774D01*
X126001744Y-94078795D01*
X125832226Y-94192063D01*
X125788289Y-94236000D01*
X121449322Y-94236000D01*
X121412000Y-94232324D01*
X121374677Y-94236000D01*
X121374667Y-94236000D01*
X121263014Y-94246997D01*
X121156000Y-94279459D01*
X121156000Y-93725333D01*
X122300000Y-92200000D01*
X124268289Y-92200000D01*
X124164063Y-92304226D01*
X124050795Y-92473744D01*
X123972774Y-92662102D01*
X123933000Y-92862061D01*
X123933000Y-93065939D01*
X123972774Y-93265898D01*
X124050795Y-93454256D01*
X124164063Y-93623774D01*
X124308226Y-93767937D01*
X124477744Y-93881205D01*
X124666102Y-93959226D01*
X124866061Y-93999000D01*
X125069939Y-93999000D01*
X125269898Y-93959226D01*
X125458256Y-93881205D01*
X125627774Y-93767937D01*
X125671711Y-93724000D01*
X132273199Y-93724000D01*
X139136201Y-100587003D01*
X139159999Y-100616001D01*
X139275724Y-100710974D01*
X139407753Y-100781546D01*
X139551014Y-100825003D01*
X139662667Y-100836000D01*
X139662677Y-100836000D01*
X139700000Y-100839676D01*
X139737323Y-100836000D01*
X143413099Y-100836000D01*
X143435068Y-100877101D01*
X143614392Y-101095608D01*
X143832899Y-101274932D01*
X143965858Y-101346000D01*
X143832899Y-101417068D01*
X143614392Y-101596392D01*
X143435068Y-101814899D01*
X143301818Y-102064192D01*
X143219764Y-102334691D01*
X143192057Y-102616000D01*
X143219764Y-102897309D01*
X143301818Y-103167808D01*
X143435068Y-103417101D01*
X143614392Y-103635608D01*
X143832899Y-103814932D01*
X143960741Y-103883265D01*
X143731161Y-104033399D01*
X143529500Y-104231105D01*
X143370285Y-104464354D01*
X143259633Y-104724182D01*
X143242096Y-104806961D01*
X143364085Y-105029000D01*
X144907000Y-105029000D01*
X144907000Y-105009000D01*
X145161000Y-105009000D01*
X145161000Y-105029000D01*
X146703915Y-105029000D01*
X146825904Y-104806961D01*
X146808367Y-104724182D01*
X146697715Y-104464354D01*
X146538500Y-104231105D01*
X146336839Y-104033399D01*
X146107259Y-103883265D01*
X146235101Y-103814932D01*
X146453608Y-103635608D01*
X146632932Y-103417101D01*
X146660418Y-103365678D01*
X146770063Y-103529774D01*
X146914226Y-103673937D01*
X147083744Y-103787205D01*
X147272102Y-103865226D01*
X147472061Y-103905000D01*
X147675939Y-103905000D01*
X147875898Y-103865226D01*
X148064256Y-103787205D01*
X148233774Y-103673937D01*
X148377937Y-103529774D01*
X148491205Y-103360256D01*
X148569226Y-103171898D01*
X148609000Y-102971939D01*
X148609000Y-102768061D01*
X148569226Y-102568102D01*
X148491205Y-102379744D01*
X148377937Y-102210226D01*
X148233774Y-102066063D01*
X148064256Y-101952795D01*
X147875898Y-101874774D01*
X147675939Y-101835000D01*
X147472061Y-101835000D01*
X147272102Y-101874774D01*
X147083744Y-101952795D01*
X146914226Y-102066063D01*
X146801074Y-102179215D01*
X146766182Y-102064192D01*
X146632932Y-101814899D01*
X146453608Y-101596392D01*
X146235101Y-101417068D01*
X146102142Y-101346000D01*
X146235101Y-101274932D01*
X146453608Y-101095608D01*
X146632932Y-100877101D01*
X146666157Y-100814941D01*
X146776247Y-100781546D01*
X146908276Y-100710974D01*
X147024001Y-100616001D01*
X147047803Y-100586998D01*
X147923813Y-99710990D01*
X153405154Y-99710990D01*
X153379764Y-99794691D01*
X153352057Y-100076000D01*
X153379764Y-100357309D01*
X153461818Y-100627808D01*
X153595068Y-100877101D01*
X153774392Y-101095608D01*
X153992899Y-101274932D01*
X154120741Y-101343265D01*
X153891161Y-101493399D01*
X153689500Y-101691105D01*
X153530285Y-101924354D01*
X153419633Y-102184182D01*
X153402096Y-102266961D01*
X153524085Y-102489000D01*
X155067000Y-102489000D01*
X155067000Y-102469000D01*
X155321000Y-102469000D01*
X155321000Y-102489000D01*
X156863915Y-102489000D01*
X156985904Y-102266961D01*
X156968367Y-102184182D01*
X156857715Y-101924354D01*
X156698500Y-101691105D01*
X156496839Y-101493399D01*
X156267259Y-101343265D01*
X156395101Y-101274932D01*
X156613608Y-101095608D01*
X156792932Y-100877101D01*
X156926182Y-100627808D01*
X156985309Y-100432890D01*
X157308524Y-100432890D01*
X157353175Y-100580099D01*
X157478359Y-100842920D01*
X157652412Y-101076269D01*
X157868645Y-101271178D01*
X157994255Y-101346000D01*
X157868645Y-101420822D01*
X157652412Y-101615731D01*
X157478359Y-101849080D01*
X157353175Y-102111901D01*
X157308524Y-102259110D01*
X157429845Y-102489000D01*
X158623000Y-102489000D01*
X158623000Y-100203000D01*
X158877000Y-100203000D01*
X158877000Y-102489000D01*
X160070155Y-102489000D01*
X160191476Y-102259110D01*
X160146825Y-102111901D01*
X160021641Y-101849080D01*
X159847588Y-101615731D01*
X159631355Y-101420822D01*
X159505745Y-101346000D01*
X159631355Y-101271178D01*
X159847588Y-101076269D01*
X160021641Y-100842920D01*
X160146825Y-100580099D01*
X160191476Y-100432890D01*
X160070155Y-100203000D01*
X158877000Y-100203000D01*
X158623000Y-100203000D01*
X157429845Y-100203000D01*
X157308524Y-100432890D01*
X156985309Y-100432890D01*
X157008236Y-100357309D01*
X157035943Y-100076000D01*
X157008236Y-99794691D01*
X156982846Y-99710990D01*
X157297688Y-99710990D01*
X157310601Y-99712262D01*
X157308524Y-99719110D01*
X157429845Y-99949000D01*
X158623000Y-99949000D01*
X158623000Y-99929000D01*
X158877000Y-99929000D01*
X158877000Y-99949000D01*
X160070155Y-99949000D01*
X160191476Y-99719110D01*
X160146825Y-99571901D01*
X160021641Y-99309080D01*
X159847588Y-99075731D01*
X159631355Y-98880822D01*
X159514466Y-98811195D01*
X159696632Y-98689475D01*
X159903475Y-98482632D01*
X160065990Y-98239411D01*
X160177932Y-97969158D01*
X160235000Y-97682260D01*
X160235000Y-97389740D01*
X160177932Y-97102842D01*
X160065990Y-96832589D01*
X159903475Y-96589368D01*
X159696632Y-96382525D01*
X159522240Y-96266000D01*
X159696632Y-96149475D01*
X159903475Y-95942632D01*
X160065990Y-95699411D01*
X160177932Y-95429158D01*
X160235000Y-95142260D01*
X160235000Y-94849740D01*
X160177932Y-94562842D01*
X160065990Y-94292589D01*
X159903475Y-94049368D01*
X159696632Y-93842525D01*
X159514466Y-93720805D01*
X159631355Y-93651178D01*
X159847588Y-93456269D01*
X160021641Y-93222920D01*
X160146825Y-92960099D01*
X160191476Y-92812890D01*
X160070155Y-92583000D01*
X158877000Y-92583000D01*
X158877000Y-92603000D01*
X158623000Y-92603000D01*
X158623000Y-92583000D01*
X157429845Y-92583000D01*
X157308524Y-92812890D01*
X157353175Y-92960099D01*
X157478359Y-93222920D01*
X157652412Y-93456269D01*
X157868645Y-93651178D01*
X157985534Y-93720805D01*
X157803368Y-93842525D01*
X157596525Y-94049368D01*
X157434010Y-94292589D01*
X157322068Y-94562842D01*
X157265000Y-94849740D01*
X157265000Y-95142260D01*
X157322068Y-95429158D01*
X157434010Y-95699411D01*
X157596525Y-95942632D01*
X157803368Y-96149475D01*
X157977760Y-96266000D01*
X157803368Y-96382525D01*
X157596525Y-96589368D01*
X157434010Y-96832589D01*
X157322068Y-97102842D01*
X157265000Y-97389740D01*
X157265000Y-97682260D01*
X157308791Y-97902408D01*
X157020209Y-98190990D01*
X156873326Y-98190990D01*
X156968367Y-97967818D01*
X156985904Y-97885039D01*
X156863915Y-97663000D01*
X155321000Y-97663000D01*
X155321000Y-97683000D01*
X155067000Y-97683000D01*
X155067000Y-97663000D01*
X153524085Y-97663000D01*
X153402096Y-97885039D01*
X153419633Y-97967818D01*
X153514674Y-98190990D01*
X147646332Y-98190990D01*
X147609009Y-98187314D01*
X147571686Y-98190990D01*
X147571677Y-98190990D01*
X147460024Y-98201987D01*
X147316763Y-98245444D01*
X147184734Y-98316016D01*
X147184732Y-98316017D01*
X147184733Y-98316017D01*
X147098006Y-98387191D01*
X147098002Y-98387195D01*
X147069009Y-98410989D01*
X147045215Y-98439982D01*
X146439986Y-99045212D01*
X146235101Y-98877068D01*
X146102142Y-98806000D01*
X146235101Y-98734932D01*
X146453608Y-98555608D01*
X146632932Y-98337101D01*
X146766182Y-98087808D01*
X146848236Y-97817309D01*
X146875943Y-97536000D01*
X146848236Y-97254691D01*
X146766182Y-96984192D01*
X146632932Y-96734899D01*
X146453608Y-96516392D01*
X146235101Y-96337068D01*
X146102142Y-96266000D01*
X146235101Y-96194932D01*
X146453608Y-96015608D01*
X146632932Y-95797101D01*
X146766182Y-95547808D01*
X146827690Y-95345039D01*
X153402096Y-95345039D01*
X153419633Y-95427818D01*
X153530285Y-95687646D01*
X153689500Y-95920895D01*
X153891161Y-96118601D01*
X154116559Y-96266000D01*
X153891161Y-96413399D01*
X153689500Y-96611105D01*
X153530285Y-96844354D01*
X153419633Y-97104182D01*
X153402096Y-97186961D01*
X153524085Y-97409000D01*
X155067000Y-97409000D01*
X155067000Y-95123000D01*
X155321000Y-95123000D01*
X155321000Y-97409000D01*
X156863915Y-97409000D01*
X156985904Y-97186961D01*
X156968367Y-97104182D01*
X156857715Y-96844354D01*
X156698500Y-96611105D01*
X156496839Y-96413399D01*
X156271441Y-96266000D01*
X156496839Y-96118601D01*
X156698500Y-95920895D01*
X156857715Y-95687646D01*
X156968367Y-95427818D01*
X156985904Y-95345039D01*
X156863915Y-95123000D01*
X155321000Y-95123000D01*
X155067000Y-95123000D01*
X153524085Y-95123000D01*
X153402096Y-95345039D01*
X146827690Y-95345039D01*
X146848236Y-95277309D01*
X146875943Y-94996000D01*
X146848236Y-94714691D01*
X146766182Y-94444192D01*
X146632932Y-94194899D01*
X146453608Y-93976392D01*
X146235101Y-93797068D01*
X146102142Y-93726000D01*
X146235101Y-93654932D01*
X146453608Y-93475608D01*
X146632932Y-93257101D01*
X146766182Y-93007808D01*
X146848236Y-92737309D01*
X146875943Y-92456000D01*
X146848236Y-92174691D01*
X146766182Y-91904192D01*
X146632932Y-91654899D01*
X146453608Y-91436392D01*
X146235101Y-91257068D01*
X146102142Y-91186000D01*
X146235101Y-91114932D01*
X146453608Y-90935608D01*
X146632932Y-90717101D01*
X146766182Y-90467808D01*
X146848236Y-90197309D01*
X146875943Y-89916000D01*
X146848236Y-89634691D01*
X146766182Y-89364192D01*
X146632932Y-89114899D01*
X146453608Y-88896392D01*
X146235101Y-88717068D01*
X146102142Y-88646000D01*
X146235101Y-88574932D01*
X146453608Y-88395608D01*
X146632932Y-88177101D01*
X146766182Y-87927808D01*
X146848236Y-87657309D01*
X146875943Y-87376000D01*
X146848236Y-87094691D01*
X146766182Y-86824192D01*
X146632932Y-86574899D01*
X146453608Y-86356392D01*
X146235101Y-86177068D01*
X146102142Y-86106000D01*
X146235101Y-86034932D01*
X146453608Y-85855608D01*
X146632932Y-85637101D01*
X146654901Y-85596000D01*
X147005199Y-85596000D01*
X150711195Y-89301998D01*
X150734989Y-89330991D01*
X150763982Y-89354785D01*
X150763986Y-89354789D01*
X150819077Y-89400000D01*
X150850714Y-89425964D01*
X150982743Y-89496536D01*
X151126004Y-89539993D01*
X151237657Y-89550990D01*
X151237666Y-89550990D01*
X151274989Y-89554666D01*
X151312312Y-89550990D01*
X153405154Y-89550990D01*
X153379764Y-89634691D01*
X153352057Y-89916000D01*
X153379764Y-90197309D01*
X153461818Y-90467808D01*
X153595068Y-90717101D01*
X153774392Y-90935608D01*
X153992899Y-91114932D01*
X154125858Y-91186000D01*
X153992899Y-91257068D01*
X153774392Y-91436392D01*
X153595068Y-91654899D01*
X153461818Y-91904192D01*
X153379764Y-92174691D01*
X153352057Y-92456000D01*
X153379764Y-92737309D01*
X153461818Y-93007808D01*
X153595068Y-93257101D01*
X153774392Y-93475608D01*
X153992899Y-93654932D01*
X154120741Y-93723265D01*
X153891161Y-93873399D01*
X153689500Y-94071105D01*
X153530285Y-94304354D01*
X153419633Y-94564182D01*
X153402096Y-94646961D01*
X153524085Y-94869000D01*
X155067000Y-94869000D01*
X155067000Y-94849000D01*
X155321000Y-94849000D01*
X155321000Y-94869000D01*
X156863915Y-94869000D01*
X156985904Y-94646961D01*
X156968367Y-94564182D01*
X156857715Y-94304354D01*
X156698500Y-94071105D01*
X156496839Y-93873399D01*
X156267259Y-93723265D01*
X156395101Y-93654932D01*
X156613608Y-93475608D01*
X156792932Y-93257101D01*
X156926182Y-93007808D01*
X157008236Y-92737309D01*
X157035943Y-92456000D01*
X157008236Y-92174691D01*
X156926182Y-91904192D01*
X156792932Y-91654899D01*
X156613608Y-91436392D01*
X156395101Y-91257068D01*
X156262142Y-91186000D01*
X156395101Y-91114932D01*
X156613608Y-90935608D01*
X156792932Y-90717101D01*
X156926182Y-90467808D01*
X157008236Y-90197309D01*
X157035943Y-89916000D01*
X157008236Y-89634691D01*
X156982846Y-89550990D01*
X157308512Y-89550990D01*
X157265000Y-89769740D01*
X157265000Y-90062260D01*
X157322068Y-90349158D01*
X157434010Y-90619411D01*
X157596525Y-90862632D01*
X157803368Y-91069475D01*
X157985534Y-91191195D01*
X157868645Y-91260822D01*
X157652412Y-91455731D01*
X157478359Y-91689080D01*
X157353175Y-91951901D01*
X157308524Y-92099110D01*
X157429845Y-92329000D01*
X158623000Y-92329000D01*
X158623000Y-92309000D01*
X158877000Y-92309000D01*
X158877000Y-92329000D01*
X160070155Y-92329000D01*
X160191476Y-92099110D01*
X160146825Y-91951901D01*
X160021641Y-91689080D01*
X159847588Y-91455731D01*
X159631355Y-91260822D01*
X159514466Y-91191195D01*
X159696632Y-91069475D01*
X159903475Y-90862632D01*
X160065990Y-90619411D01*
X160177932Y-90349158D01*
X160235000Y-90062260D01*
X160235000Y-89769740D01*
X160177932Y-89482842D01*
X160065990Y-89212589D01*
X159903475Y-88969368D01*
X159696632Y-88762525D01*
X159522240Y-88646000D01*
X159696632Y-88529475D01*
X159903475Y-88322632D01*
X160065990Y-88079411D01*
X160177932Y-87809158D01*
X160235000Y-87522260D01*
X160235000Y-87229740D01*
X160177932Y-86942842D01*
X160065990Y-86672589D01*
X159903475Y-86429368D01*
X159696632Y-86222525D01*
X159522240Y-86106000D01*
X159696632Y-85989475D01*
X159903475Y-85782632D01*
X160065990Y-85539411D01*
X160177932Y-85269158D01*
X160235000Y-84982260D01*
X160235000Y-84689740D01*
X160177932Y-84402842D01*
X160065990Y-84132589D01*
X159903475Y-83889368D01*
X159696632Y-83682525D01*
X159453411Y-83520010D01*
X159183158Y-83408068D01*
X158896260Y-83351000D01*
X158603740Y-83351000D01*
X158316842Y-83408068D01*
X158046589Y-83520010D01*
X157803368Y-83682525D01*
X157596525Y-83889368D01*
X157434010Y-84132589D01*
X157322068Y-84402842D01*
X157265000Y-84689740D01*
X157265000Y-84982260D01*
X157322068Y-85269158D01*
X157434010Y-85539411D01*
X157596525Y-85782632D01*
X157803368Y-85989475D01*
X157977760Y-86106000D01*
X157803368Y-86222525D01*
X157596525Y-86429368D01*
X157434010Y-86672589D01*
X157322068Y-86942842D01*
X157265000Y-87229740D01*
X157265000Y-87522260D01*
X157322068Y-87809158D01*
X157413953Y-88030990D01*
X156871030Y-88030990D01*
X156926182Y-87927808D01*
X157008236Y-87657309D01*
X157035943Y-87376000D01*
X157008236Y-87094691D01*
X156926182Y-86824192D01*
X156792932Y-86574899D01*
X156613608Y-86356392D01*
X156395101Y-86177068D01*
X156267259Y-86108735D01*
X156496839Y-85958601D01*
X156698500Y-85760895D01*
X156857715Y-85527646D01*
X156968367Y-85267818D01*
X156985904Y-85185039D01*
X156863915Y-84963000D01*
X155321000Y-84963000D01*
X155321000Y-84983000D01*
X155067000Y-84983000D01*
X155067000Y-84963000D01*
X153524085Y-84963000D01*
X153402096Y-85185039D01*
X153419633Y-85267818D01*
X153530285Y-85527646D01*
X153689500Y-85760895D01*
X153891161Y-85958601D01*
X154120741Y-86108735D01*
X153992899Y-86177068D01*
X153774392Y-86356392D01*
X153595068Y-86574899D01*
X153461818Y-86824192D01*
X153379764Y-87094691D01*
X153352057Y-87376000D01*
X153379764Y-87657309D01*
X153461818Y-87927808D01*
X153516970Y-88030990D01*
X151589793Y-88030990D01*
X148045763Y-84486961D01*
X153402096Y-84486961D01*
X153524085Y-84709000D01*
X155067000Y-84709000D01*
X155067000Y-83401000D01*
X155321000Y-83401000D01*
X155321000Y-84709000D01*
X156863915Y-84709000D01*
X156985904Y-84486961D01*
X156968367Y-84404182D01*
X156857715Y-84144354D01*
X156698500Y-83911105D01*
X156496839Y-83713399D01*
X156260483Y-83558834D01*
X155998514Y-83453350D01*
X155721000Y-83401000D01*
X155321000Y-83401000D01*
X155067000Y-83401000D01*
X154667000Y-83401000D01*
X154389486Y-83453350D01*
X154127517Y-83558834D01*
X153891161Y-83713399D01*
X153689500Y-83911105D01*
X153530285Y-84144354D01*
X153419633Y-84404182D01*
X153402096Y-84486961D01*
X148045763Y-84486961D01*
X147883804Y-84325003D01*
X147860001Y-84295999D01*
X147744276Y-84201026D01*
X147612247Y-84130454D01*
X147468986Y-84086997D01*
X147357333Y-84076000D01*
X147357322Y-84076000D01*
X147320000Y-84072324D01*
X147282678Y-84076000D01*
X146654901Y-84076000D01*
X146632932Y-84034899D01*
X146453608Y-83816392D01*
X146235101Y-83637068D01*
X145985808Y-83503818D01*
X145715309Y-83421764D01*
X145504492Y-83401000D01*
X144563508Y-83401000D01*
X144352691Y-83421764D01*
X144082192Y-83503818D01*
X143832899Y-83637068D01*
X143614392Y-83816392D01*
X143435068Y-84034899D01*
X143301818Y-84284192D01*
X143219764Y-84554691D01*
X143192057Y-84836000D01*
X143219764Y-85117309D01*
X143301818Y-85387808D01*
X143435068Y-85637101D01*
X143614392Y-85855608D01*
X143832899Y-86034932D01*
X143965858Y-86106000D01*
X143832899Y-86177068D01*
X143614392Y-86356392D01*
X143435068Y-86574899D01*
X143301818Y-86824192D01*
X143219764Y-87094691D01*
X143192057Y-87376000D01*
X143219764Y-87657309D01*
X143301818Y-87927808D01*
X143435068Y-88177101D01*
X143614392Y-88395608D01*
X143832899Y-88574932D01*
X143965858Y-88646000D01*
X143832899Y-88717068D01*
X143614392Y-88896392D01*
X143435068Y-89114899D01*
X143301818Y-89364192D01*
X143219764Y-89634691D01*
X143192057Y-89916000D01*
X143219764Y-90197309D01*
X143301818Y-90467808D01*
X143435068Y-90717101D01*
X143614392Y-90935608D01*
X143832899Y-91114932D01*
X143965858Y-91186000D01*
X143832899Y-91257068D01*
X143614392Y-91436392D01*
X143435068Y-91654899D01*
X143301818Y-91904192D01*
X143219764Y-92174691D01*
X143192057Y-92456000D01*
X143219764Y-92737309D01*
X143301818Y-93007808D01*
X143435068Y-93257101D01*
X143614392Y-93475608D01*
X143832899Y-93654932D01*
X143965858Y-93726000D01*
X143832899Y-93797068D01*
X143614392Y-93976392D01*
X143435068Y-94194899D01*
X143301818Y-94444192D01*
X143219764Y-94714691D01*
X143192057Y-94996000D01*
X143219764Y-95277309D01*
X143301818Y-95547808D01*
X143435068Y-95797101D01*
X143614392Y-96015608D01*
X143832899Y-96194932D01*
X143965858Y-96266000D01*
X143832899Y-96337068D01*
X143614392Y-96516392D01*
X143435068Y-96734899D01*
X143301818Y-96984192D01*
X143219764Y-97254691D01*
X143192057Y-97536000D01*
X143219764Y-97817309D01*
X143301818Y-98087808D01*
X143435068Y-98337101D01*
X143614392Y-98555608D01*
X143832899Y-98734932D01*
X143965858Y-98806000D01*
X143832899Y-98877068D01*
X143614392Y-99056392D01*
X143435068Y-99274899D01*
X143413099Y-99316000D01*
X140014802Y-99316000D01*
X133151804Y-92453003D01*
X133128001Y-92423999D01*
X133012276Y-92329026D01*
X132880247Y-92258454D01*
X132736986Y-92214997D01*
X132625333Y-92204000D01*
X132625322Y-92204000D01*
X132588000Y-92200324D01*
X132550678Y-92204000D01*
X128207711Y-92204000D01*
X128311937Y-92099774D01*
X128425205Y-91930256D01*
X128503226Y-91741898D01*
X128543000Y-91541939D01*
X128543000Y-91338061D01*
X128503226Y-91138102D01*
X128425205Y-90949744D01*
X128311937Y-90780226D01*
X128167774Y-90636063D01*
X127998256Y-90522795D01*
X127809898Y-90444774D01*
X127609939Y-90405000D01*
X127406061Y-90405000D01*
X127206102Y-90444774D01*
X127017744Y-90522795D01*
X126848226Y-90636063D01*
X126804289Y-90680000D01*
X121978103Y-90680000D01*
X121961563Y-90677456D01*
X121903411Y-90680000D01*
X121882667Y-90680000D01*
X121866091Y-90681633D01*
X121811999Y-90683999D01*
X121791758Y-90688954D01*
X121771014Y-90690997D01*
X121719180Y-90706720D01*
X121666586Y-90719595D01*
X121647702Y-90728403D01*
X121627753Y-90734454D01*
X121579991Y-90759983D01*
X121530911Y-90782875D01*
X121514101Y-90795203D01*
X121495724Y-90805026D01*
X121453863Y-90839380D01*
X121410189Y-90871410D01*
X121396110Y-90886777D01*
X121379999Y-90899999D01*
X121345648Y-90941856D01*
X121334399Y-90954134D01*
X121321956Y-90970724D01*
X121285026Y-91015724D01*
X121277136Y-91030484D01*
X119797971Y-93002707D01*
X119761026Y-93047725D01*
X119735492Y-93095495D01*
X119707407Y-93141787D01*
X119700282Y-93161367D01*
X119690454Y-93179754D01*
X119674733Y-93231579D01*
X119656215Y-93282470D01*
X119653046Y-93303074D01*
X119646997Y-93323015D01*
X119641688Y-93376916D01*
X119633456Y-93430437D01*
X119636000Y-93488589D01*
X119636001Y-95974667D01*
X119632324Y-96012000D01*
X119124000Y-96012000D01*
X119124000Y-91706320D01*
X119127676Y-91668997D01*
X119124000Y-91631674D01*
X119124000Y-91631665D01*
X119113003Y-91520012D01*
X119069546Y-91376751D01*
X118998974Y-91244722D01*
X118904001Y-91128997D01*
X118875003Y-91105199D01*
X107363805Y-79594002D01*
X107340002Y-79564998D01*
X107224277Y-79470025D01*
X107093271Y-79400000D01*
X160630000Y-79400000D01*
X160630001Y-131420000D01*
X140226988Y-131420000D01*
X140227000Y-131419939D01*
X140227000Y-131216061D01*
X140187226Y-131016102D01*
X140109205Y-130827744D01*
X139995937Y-130658226D01*
X139851774Y-130514063D01*
X139682256Y-130400795D01*
X139493898Y-130322774D01*
X139293939Y-130283000D01*
X139090061Y-130283000D01*
X138902072Y-130320393D01*
X138902072Y-129452000D01*
X138889812Y-129327518D01*
X138853502Y-129207820D01*
X138794537Y-129097506D01*
X138715185Y-129000815D01*
X138618494Y-128921463D01*
X138508180Y-128862498D01*
X138435620Y-128840487D01*
X138567475Y-128708632D01*
X138729990Y-128465411D01*
X138841932Y-128195158D01*
X138899000Y-127908260D01*
X138899000Y-127615740D01*
X138841932Y-127328842D01*
X138729990Y-127058589D01*
X138567475Y-126815368D01*
X138360632Y-126608525D01*
X138186240Y-126492000D01*
X138360632Y-126375475D01*
X138567475Y-126168632D01*
X138729990Y-125925411D01*
X138841932Y-125655158D01*
X138899000Y-125368260D01*
X138899000Y-125075740D01*
X138877164Y-124965966D01*
X139173000Y-125261802D01*
X139173000Y-125323939D01*
X139212774Y-125523898D01*
X139290795Y-125712256D01*
X139404063Y-125881774D01*
X139548226Y-126025937D01*
X139717744Y-126139205D01*
X139906102Y-126217226D01*
X140106061Y-126257000D01*
X140309939Y-126257000D01*
X140509898Y-126217226D01*
X140698256Y-126139205D01*
X140867774Y-126025937D01*
X141011937Y-125881774D01*
X141125205Y-125712256D01*
X141203226Y-125523898D01*
X141243000Y-125323939D01*
X141243000Y-125120061D01*
X141203226Y-124920102D01*
X141125205Y-124731744D01*
X141011937Y-124562226D01*
X140867774Y-124418063D01*
X140698256Y-124304795D01*
X140509898Y-124226774D01*
X140309939Y-124187000D01*
X140247802Y-124187000D01*
X139113210Y-123052408D01*
X147955000Y-123052408D01*
X147955000Y-123327592D01*
X148008686Y-123597490D01*
X148113995Y-123851727D01*
X148266880Y-124080535D01*
X148461465Y-124275120D01*
X148690273Y-124428005D01*
X148944510Y-124533314D01*
X149214408Y-124587000D01*
X149489592Y-124587000D01*
X149759490Y-124533314D01*
X150013727Y-124428005D01*
X150242535Y-124275120D01*
X150362090Y-124155565D01*
X151106040Y-124155565D01*
X151173020Y-124395656D01*
X151422048Y-124512756D01*
X151689135Y-124579023D01*
X151964017Y-124591910D01*
X152236133Y-124550922D01*
X152495023Y-124457636D01*
X152610980Y-124395656D01*
X152677960Y-124155565D01*
X151892000Y-123369605D01*
X151106040Y-124155565D01*
X150362090Y-124155565D01*
X150437120Y-124080535D01*
X150590005Y-123851727D01*
X150619692Y-123780057D01*
X150624364Y-123793023D01*
X150686344Y-123908980D01*
X150926435Y-123975960D01*
X151712395Y-123190000D01*
X152071605Y-123190000D01*
X152857565Y-123975960D01*
X153097656Y-123908980D01*
X153161485Y-123773240D01*
X153193995Y-123851727D01*
X153346880Y-124080535D01*
X153541465Y-124275120D01*
X153770273Y-124428005D01*
X154024510Y-124533314D01*
X154294408Y-124587000D01*
X154569592Y-124587000D01*
X154839490Y-124533314D01*
X155093727Y-124428005D01*
X155322535Y-124275120D01*
X155517120Y-124080535D01*
X155670005Y-123851727D01*
X155775314Y-123597490D01*
X155829000Y-123327592D01*
X155829000Y-123052408D01*
X155775314Y-122782510D01*
X155670005Y-122528273D01*
X155517120Y-122299465D01*
X155322535Y-122104880D01*
X155093727Y-121951995D01*
X154839490Y-121846686D01*
X154569592Y-121793000D01*
X154294408Y-121793000D01*
X154024510Y-121846686D01*
X153770273Y-121951995D01*
X153541465Y-122104880D01*
X153346880Y-122299465D01*
X153193995Y-122528273D01*
X153164308Y-122599943D01*
X153159636Y-122586977D01*
X153097656Y-122471020D01*
X152857565Y-122404040D01*
X152071605Y-123190000D01*
X151712395Y-123190000D01*
X150926435Y-122404040D01*
X150686344Y-122471020D01*
X150622515Y-122606760D01*
X150590005Y-122528273D01*
X150437120Y-122299465D01*
X150362090Y-122224435D01*
X151106040Y-122224435D01*
X151892000Y-123010395D01*
X152677960Y-122224435D01*
X152610980Y-121984344D01*
X152361952Y-121867244D01*
X152094865Y-121800977D01*
X151819983Y-121788090D01*
X151547867Y-121829078D01*
X151288977Y-121922364D01*
X151173020Y-121984344D01*
X151106040Y-122224435D01*
X150362090Y-122224435D01*
X150242535Y-122104880D01*
X150013727Y-121951995D01*
X149759490Y-121846686D01*
X149489592Y-121793000D01*
X149214408Y-121793000D01*
X148944510Y-121846686D01*
X148690273Y-121951995D01*
X148461465Y-122104880D01*
X148266880Y-122299465D01*
X148113995Y-122528273D01*
X148008686Y-122782510D01*
X147955000Y-123052408D01*
X139113210Y-123052408D01*
X137469804Y-121409003D01*
X137446001Y-121379999D01*
X137330276Y-121285026D01*
X137198247Y-121214454D01*
X137054986Y-121170997D01*
X136943333Y-121160000D01*
X136943322Y-121160000D01*
X136906000Y-121156324D01*
X136868678Y-121160000D01*
X120083711Y-121160000D01*
X120039774Y-121116063D01*
X119870256Y-121002795D01*
X119681898Y-120924774D01*
X119481939Y-120885000D01*
X119278061Y-120885000D01*
X119078102Y-120924774D01*
X118889744Y-121002795D01*
X118720226Y-121116063D01*
X118576063Y-121260226D01*
X118462795Y-121429744D01*
X118384774Y-121618102D01*
X118345000Y-121818061D01*
X118345000Y-122021939D01*
X118378039Y-122188039D01*
X118211939Y-122155000D01*
X118008061Y-122155000D01*
X117808102Y-122194774D01*
X117619744Y-122272795D01*
X117450226Y-122386063D01*
X117306063Y-122530226D01*
X117192795Y-122699744D01*
X117114774Y-122888102D01*
X117075000Y-123088061D01*
X117075000Y-123291939D01*
X117114774Y-123491898D01*
X117192795Y-123680256D01*
X117306063Y-123849774D01*
X117350000Y-123893711D01*
X117350000Y-124422677D01*
X117346324Y-124460000D01*
X117350000Y-124497322D01*
X117350000Y-124497332D01*
X117360997Y-124608985D01*
X117398235Y-124731744D01*
X117404454Y-124752246D01*
X117475026Y-124884276D01*
X117504428Y-124920102D01*
X117569999Y-125000001D01*
X117599003Y-125023804D01*
X123995198Y-131420000D01*
X97180000Y-131420000D01*
X97180000Y-79400000D01*
X100196729Y-79400000D01*
X100065723Y-79470025D01*
G37*
X100065723Y-79470025D02*
X99949998Y-79564998D01*
X99926199Y-79593998D01*
X99839001Y-79681196D01*
X99809999Y-79704997D01*
X99754871Y-79772172D01*
X99715026Y-79820722D01*
X99672938Y-79899463D01*
X99644454Y-79952752D01*
X99600997Y-80096013D01*
X99596475Y-80141928D01*
X98850000Y-80141928D01*
X98725518Y-80154188D01*
X98605820Y-80190498D01*
X98495506Y-80249463D01*
X98398815Y-80328815D01*
X98319463Y-80425506D01*
X98260498Y-80535820D01*
X98224188Y-80655518D01*
X98211928Y-80780000D01*
X98211928Y-81780000D01*
X98224188Y-81904482D01*
X98260498Y-82024180D01*
X98319463Y-82134494D01*
X98398815Y-82231185D01*
X98495506Y-82310537D01*
X98605820Y-82369502D01*
X98725518Y-82405812D01*
X98850000Y-82418072D01*
X99590000Y-82418072D01*
X99590000Y-82681928D01*
X98850000Y-82681928D01*
X98725518Y-82694188D01*
X98605820Y-82730498D01*
X98495506Y-82789463D01*
X98398815Y-82868815D01*
X98319463Y-82965506D01*
X98260498Y-83075820D01*
X98224188Y-83195518D01*
X98211928Y-83320000D01*
X98211928Y-84320000D01*
X98224188Y-84444482D01*
X98260498Y-84564180D01*
X98319463Y-84674494D01*
X98398815Y-84771185D01*
X98495506Y-84850537D01*
X98605820Y-84909502D01*
X98725518Y-84945812D01*
X98850000Y-84958072D01*
X100637965Y-84958072D01*
X100653368Y-84973475D01*
X100827760Y-85090000D01*
X100653368Y-85206525D01*
X100637965Y-85221928D01*
X98850000Y-85221928D01*
X98725518Y-85234188D01*
X98605820Y-85270498D01*
X98495506Y-85329463D01*
X98398815Y-85408815D01*
X98319463Y-85505506D01*
X98260498Y-85615820D01*
X98224188Y-85735518D01*
X98211928Y-85860000D01*
X98211928Y-86860000D01*
X98224188Y-86984482D01*
X98260498Y-87104180D01*
X98319463Y-87214494D01*
X98398815Y-87311185D01*
X98495506Y-87390537D01*
X98605820Y-87449502D01*
X98725518Y-87485812D01*
X98850000Y-87498072D01*
X100637965Y-87498072D01*
X100653368Y-87513475D01*
X100827760Y-87630000D01*
X100653368Y-87746525D01*
X100446525Y-87953368D01*
X100284010Y-88196589D01*
X100223000Y-88343881D01*
X100223000Y-87923750D01*
X100064250Y-87765000D01*
X98850000Y-87761928D01*
X98725518Y-87774188D01*
X98605820Y-87810498D01*
X98495506Y-87869463D01*
X98398815Y-87948815D01*
X98319463Y-88045506D01*
X98260498Y-88155820D01*
X98224188Y-88275518D01*
X98211928Y-88400000D01*
X98215000Y-88614250D01*
X98373750Y-88773000D01*
X100115000Y-88773000D01*
X100115000Y-89027000D01*
X98373750Y-89027000D01*
X98215000Y-89185750D01*
X98211928Y-89400000D01*
X98224188Y-89524482D01*
X98260498Y-89644180D01*
X98319463Y-89754494D01*
X98398815Y-89851185D01*
X98495506Y-89930537D01*
X98605820Y-89989502D01*
X98725518Y-90025812D01*
X98850000Y-90038072D01*
X100064250Y-90035000D01*
X100223000Y-89876250D01*
X100223000Y-89456119D01*
X100284010Y-89603411D01*
X100446525Y-89846632D01*
X100653368Y-90053475D01*
X100827760Y-90170000D01*
X100653368Y-90286525D01*
X100637965Y-90301928D01*
X98850000Y-90301928D01*
X98725518Y-90314188D01*
X98605820Y-90350498D01*
X98495506Y-90409463D01*
X98398815Y-90488815D01*
X98319463Y-90585506D01*
X98260498Y-90695820D01*
X98224188Y-90815518D01*
X98211928Y-90940000D01*
X98211928Y-91940000D01*
X98224188Y-92064482D01*
X98260498Y-92184180D01*
X98319463Y-92294494D01*
X98398815Y-92391185D01*
X98495506Y-92470537D01*
X98605820Y-92529502D01*
X98725518Y-92565812D01*
X98850000Y-92578072D01*
X100637965Y-92578072D01*
X100653368Y-92593475D01*
X100827760Y-92710000D01*
X100653368Y-92826525D01*
X100637965Y-92841928D01*
X98850000Y-92841928D01*
X98725518Y-92854188D01*
X98605820Y-92890498D01*
X98495506Y-92949463D01*
X98398815Y-93028815D01*
X98319463Y-93125506D01*
X98260498Y-93235820D01*
X98224188Y-93355518D01*
X98211928Y-93480000D01*
X98211928Y-94480000D01*
X98224188Y-94604482D01*
X98260498Y-94724180D01*
X98319463Y-94834494D01*
X98398815Y-94931185D01*
X98495506Y-95010537D01*
X98605820Y-95069502D01*
X98725518Y-95105812D01*
X98850000Y-95118072D01*
X100637965Y-95118072D01*
X100653368Y-95133475D01*
X100827760Y-95250000D01*
X100653368Y-95366525D01*
X100637965Y-95381928D01*
X98850000Y-95381928D01*
X98725518Y-95394188D01*
X98605820Y-95430498D01*
X98495506Y-95489463D01*
X98398815Y-95568815D01*
X98319463Y-95665506D01*
X98260498Y-95775820D01*
X98224188Y-95895518D01*
X98211928Y-96020000D01*
X98211928Y-97020000D01*
X98224188Y-97144482D01*
X98260498Y-97264180D01*
X98319463Y-97374494D01*
X98398815Y-97471185D01*
X98495506Y-97550537D01*
X98605820Y-97609502D01*
X98725518Y-97645812D01*
X98850000Y-97658072D01*
X100637965Y-97658072D01*
X100653368Y-97673475D01*
X100827760Y-97790000D01*
X100653368Y-97906525D01*
X100446525Y-98113368D01*
X100284010Y-98356589D01*
X100223000Y-98503881D01*
X100223000Y-98083750D01*
X100064250Y-97925000D01*
X98850000Y-97921928D01*
X98725518Y-97934188D01*
X98605820Y-97970498D01*
X98495506Y-98029463D01*
X98398815Y-98108815D01*
X98319463Y-98205506D01*
X98260498Y-98315820D01*
X98224188Y-98435518D01*
X98211928Y-98560000D01*
X98215000Y-98774250D01*
X98373750Y-98933000D01*
X100115000Y-98933000D01*
X100115000Y-99187000D01*
X98373750Y-99187000D01*
X98215000Y-99345750D01*
X98211928Y-99560000D01*
X98224188Y-99684482D01*
X98260498Y-99804180D01*
X98319463Y-99914494D01*
X98398815Y-100011185D01*
X98495506Y-100090537D01*
X98605820Y-100149502D01*
X98725518Y-100185812D01*
X98850000Y-100198072D01*
X100064250Y-100195000D01*
X100223000Y-100036250D01*
X100223000Y-99616119D01*
X100284010Y-99763411D01*
X100446525Y-100006632D01*
X100653368Y-100213475D01*
X100827760Y-100330000D01*
X100653368Y-100446525D01*
X100637965Y-100461928D01*
X98850000Y-100461928D01*
X98725518Y-100474188D01*
X98605820Y-100510498D01*
X98503856Y-100565000D01*
X98450061Y-100565000D01*
X98250102Y-100604774D01*
X98061744Y-100682795D01*
X97892226Y-100796063D01*
X97748063Y-100940226D01*
X97634795Y-101109744D01*
X97556774Y-101298102D01*
X97517000Y-101498061D01*
X97517000Y-101701939D01*
X97556774Y-101901898D01*
X97634795Y-102090256D01*
X97748063Y-102259774D01*
X97892226Y-102403937D01*
X98061744Y-102517205D01*
X98250102Y-102595226D01*
X98450061Y-102635000D01*
X98503856Y-102635000D01*
X98605820Y-102689502D01*
X98725518Y-102725812D01*
X98850000Y-102738072D01*
X100637965Y-102738072D01*
X100653368Y-102753475D01*
X100827760Y-102870000D01*
X100653368Y-102986525D01*
X100637965Y-103001928D01*
X98850000Y-103001928D01*
X98725518Y-103014188D01*
X98605820Y-103050498D01*
X98503856Y-103105000D01*
X98323061Y-103105000D01*
X98123102Y-103144774D01*
X97934744Y-103222795D01*
X97765226Y-103336063D01*
X97621063Y-103480226D01*
X97507795Y-103649744D01*
X97429774Y-103838102D01*
X97390000Y-104038061D01*
X97390000Y-104241939D01*
X97429774Y-104441898D01*
X97507795Y-104630256D01*
X97621063Y-104799774D01*
X97765226Y-104943937D01*
X97934744Y-105057205D01*
X98123102Y-105135226D01*
X98323061Y-105175000D01*
X98503856Y-105175000D01*
X98605820Y-105229502D01*
X98725518Y-105265812D01*
X98850000Y-105278072D01*
X100637965Y-105278072D01*
X100653368Y-105293475D01*
X100827760Y-105410000D01*
X100653368Y-105526525D01*
X100637965Y-105541928D01*
X98850000Y-105541928D01*
X98725518Y-105554188D01*
X98605820Y-105590498D01*
X98495506Y-105649463D01*
X98398815Y-105728815D01*
X98319463Y-105825506D01*
X98260498Y-105935820D01*
X98224188Y-106055518D01*
X98211928Y-106180000D01*
X98211928Y-107180000D01*
X98224188Y-107304482D01*
X98260498Y-107424180D01*
X98319463Y-107534494D01*
X98398815Y-107631185D01*
X98495506Y-107710537D01*
X98605820Y-107769502D01*
X98725518Y-107805812D01*
X98850000Y-107818072D01*
X100637965Y-107818072D01*
X100653368Y-107833475D01*
X100827760Y-107950000D01*
X100653368Y-108066525D01*
X100446525Y-108273368D01*
X100284010Y-108516589D01*
X100223000Y-108663881D01*
X100223000Y-108243750D01*
X100064250Y-108085000D01*
X98850000Y-108081928D01*
X98725518Y-108094188D01*
X98605820Y-108130498D01*
X98495506Y-108189463D01*
X98398815Y-108268815D01*
X98319463Y-108365506D01*
X98260498Y-108475820D01*
X98224188Y-108595518D01*
X98211928Y-108720000D01*
X98215000Y-108934250D01*
X98373750Y-109093000D01*
X100115000Y-109093000D01*
X100115000Y-109347000D01*
X98373750Y-109347000D01*
X98215000Y-109505750D01*
X98211928Y-109720000D01*
X98224188Y-109844482D01*
X98260498Y-109964180D01*
X98319463Y-110074494D01*
X98398815Y-110171185D01*
X98495506Y-110250537D01*
X98605820Y-110309502D01*
X98725518Y-110345812D01*
X98850000Y-110358072D01*
X100064250Y-110355000D01*
X100223000Y-110196250D01*
X100223000Y-109776119D01*
X100284010Y-109923411D01*
X100446525Y-110166632D01*
X100653368Y-110373475D01*
X100827760Y-110490000D01*
X100653368Y-110606525D01*
X100637965Y-110621928D01*
X98850000Y-110621928D01*
X98725518Y-110634188D01*
X98605820Y-110670498D01*
X98503856Y-110725000D01*
X98323061Y-110725000D01*
X98123102Y-110764774D01*
X97934744Y-110842795D01*
X97765226Y-110956063D01*
X97621063Y-111100226D01*
X97507795Y-111269744D01*
X97429774Y-111458102D01*
X97390000Y-111658061D01*
X97390000Y-111861939D01*
X97429774Y-112061898D01*
X97507795Y-112250256D01*
X97621063Y-112419774D01*
X97765226Y-112563937D01*
X97934744Y-112677205D01*
X98123102Y-112755226D01*
X98323061Y-112795000D01*
X98503856Y-112795000D01*
X98605820Y-112849502D01*
X98725518Y-112885812D01*
X98850000Y-112898072D01*
X100637965Y-112898072D01*
X100653368Y-112913475D01*
X100827760Y-113030000D01*
X100653368Y-113146525D01*
X100637965Y-113161928D01*
X98850000Y-113161928D01*
X98725518Y-113174188D01*
X98605820Y-113210498D01*
X98503856Y-113265000D01*
X98323061Y-113265000D01*
X98123102Y-113304774D01*
X97934744Y-113382795D01*
X97765226Y-113496063D01*
X97621063Y-113640226D01*
X97507795Y-113809744D01*
X97429774Y-113998102D01*
X97390000Y-114198061D01*
X97390000Y-114401939D01*
X97429774Y-114601898D01*
X97507795Y-114790256D01*
X97621063Y-114959774D01*
X97765226Y-115103937D01*
X97934744Y-115217205D01*
X98123102Y-115295226D01*
X98323061Y-115335000D01*
X98503856Y-115335000D01*
X98605820Y-115389502D01*
X98725518Y-115425812D01*
X98850000Y-115438072D01*
X100637965Y-115438072D01*
X100653368Y-115453475D01*
X100827760Y-115570000D01*
X100653368Y-115686525D01*
X100637965Y-115701928D01*
X98850000Y-115701928D01*
X98725518Y-115714188D01*
X98605820Y-115750498D01*
X98503856Y-115805000D01*
X98323061Y-115805000D01*
X98123102Y-115844774D01*
X97934744Y-115922795D01*
X97765226Y-116036063D01*
X97621063Y-116180226D01*
X97507795Y-116349744D01*
X97429774Y-116538102D01*
X97390000Y-116738061D01*
X97390000Y-116941939D01*
X97429774Y-117141898D01*
X97507795Y-117330256D01*
X97621063Y-117499774D01*
X97765226Y-117643937D01*
X97934744Y-117757205D01*
X98123102Y-117835226D01*
X98323061Y-117875000D01*
X98503856Y-117875000D01*
X98605820Y-117929502D01*
X98725518Y-117965812D01*
X98850000Y-117978072D01*
X100637965Y-117978072D01*
X100653368Y-117993475D01*
X100827760Y-118110000D01*
X100653368Y-118226525D01*
X100446525Y-118433368D01*
X100284010Y-118676589D01*
X100223000Y-118823881D01*
X100223000Y-118403750D01*
X100064250Y-118245000D01*
X98850000Y-118241928D01*
X98725518Y-118254188D01*
X98605820Y-118290498D01*
X98495506Y-118349463D01*
X98398815Y-118428815D01*
X98319463Y-118525506D01*
X98260498Y-118635820D01*
X98224188Y-118755518D01*
X98211928Y-118880000D01*
X98215000Y-119094250D01*
X98373750Y-119253000D01*
X100115000Y-119253000D01*
X100115000Y-119507000D01*
X98373750Y-119507000D01*
X98215000Y-119665750D01*
X98211928Y-119880000D01*
X98224188Y-120004482D01*
X98260498Y-120124180D01*
X98319463Y-120234494D01*
X98398815Y-120331185D01*
X98495506Y-120410537D01*
X98605820Y-120469502D01*
X98725518Y-120505812D01*
X98850000Y-120518072D01*
X100064250Y-120515000D01*
X100223000Y-120356250D01*
X100223000Y-119936119D01*
X100284010Y-120083411D01*
X100446525Y-120326632D01*
X100653368Y-120533475D01*
X100827760Y-120650000D01*
X100653368Y-120766525D01*
X100637965Y-120781928D01*
X98850000Y-120781928D01*
X98725518Y-120794188D01*
X98605820Y-120830498D01*
X98503856Y-120885000D01*
X98323061Y-120885000D01*
X98123102Y-120924774D01*
X97934744Y-121002795D01*
X97765226Y-121116063D01*
X97621063Y-121260226D01*
X97507795Y-121429744D01*
X97429774Y-121618102D01*
X97390000Y-121818061D01*
X97390000Y-122021939D01*
X97429774Y-122221898D01*
X97507795Y-122410256D01*
X97621063Y-122579774D01*
X97765226Y-122723937D01*
X97934744Y-122837205D01*
X98123102Y-122915226D01*
X98323061Y-122955000D01*
X98503856Y-122955000D01*
X98605820Y-123009502D01*
X98725518Y-123045812D01*
X98850000Y-123058072D01*
X100637965Y-123058072D01*
X100653368Y-123073475D01*
X100827760Y-123190000D01*
X100653368Y-123306525D01*
X100637965Y-123321928D01*
X98850000Y-123321928D01*
X98725518Y-123334188D01*
X98605820Y-123370498D01*
X98503856Y-123425000D01*
X98323061Y-123425000D01*
X98123102Y-123464774D01*
X97934744Y-123542795D01*
X97765226Y-123656063D01*
X97621063Y-123800226D01*
X97507795Y-123969744D01*
X97429774Y-124158102D01*
X97390000Y-124358061D01*
X97390000Y-124561939D01*
X97429774Y-124761898D01*
X97507795Y-124950256D01*
X97621063Y-125119774D01*
X97765226Y-125263937D01*
X97934744Y-125377205D01*
X98123102Y-125455226D01*
X98323061Y-125495000D01*
X98503856Y-125495000D01*
X98605820Y-125549502D01*
X98725518Y-125585812D01*
X98850000Y-125598072D01*
X100637965Y-125598072D01*
X100653368Y-125613475D01*
X100827760Y-125730000D01*
X100653368Y-125846525D01*
X100637965Y-125861928D01*
X98850000Y-125861928D01*
X98725518Y-125874188D01*
X98605820Y-125910498D01*
X98503856Y-125965000D01*
X98323061Y-125965000D01*
X98123102Y-126004774D01*
X97934744Y-126082795D01*
X97765226Y-126196063D01*
X97621063Y-126340226D01*
X97507795Y-126509744D01*
X97429774Y-126698102D01*
X97390000Y-126898061D01*
X97390000Y-127101939D01*
X97429774Y-127301898D01*
X97507795Y-127490256D01*
X97621063Y-127659774D01*
X97765226Y-127803937D01*
X97934744Y-127917205D01*
X98123102Y-127995226D01*
X98323061Y-128035000D01*
X98503856Y-128035000D01*
X98605820Y-128089502D01*
X98725518Y-128125812D01*
X98850000Y-128138072D01*
X100637965Y-128138072D01*
X100653368Y-128153475D01*
X100827760Y-128270000D01*
X100653368Y-128386525D01*
X100446525Y-128593368D01*
X100284010Y-128836589D01*
X100223000Y-128983881D01*
X100223000Y-128563750D01*
X100064250Y-128405000D01*
X98850000Y-128401928D01*
X98725518Y-128414188D01*
X98605820Y-128450498D01*
X98495506Y-128509463D01*
X98398815Y-128588815D01*
X98319463Y-128685506D01*
X98260498Y-128795820D01*
X98224188Y-128915518D01*
X98211928Y-129040000D01*
X98215000Y-129254250D01*
X98373750Y-129413000D01*
X100115000Y-129413000D01*
X100115000Y-129667000D01*
X98373750Y-129667000D01*
X98215000Y-129825750D01*
X98211928Y-130040000D01*
X98224188Y-130164482D01*
X98260498Y-130284180D01*
X98319463Y-130394494D01*
X98398815Y-130491185D01*
X98495506Y-130570537D01*
X98605820Y-130629502D01*
X98725518Y-130665812D01*
X98850000Y-130678072D01*
X100064250Y-130675000D01*
X100223000Y-130516250D01*
X100223000Y-130096119D01*
X100284010Y-130243411D01*
X100446525Y-130486632D01*
X100653368Y-130693475D01*
X100896589Y-130855990D01*
X101166842Y-130967932D01*
X101453740Y-131025000D01*
X101746260Y-131025000D01*
X102033158Y-130967932D01*
X102303411Y-130855990D01*
X102546632Y-130693475D01*
X102753475Y-130486632D01*
X102870000Y-130312240D01*
X102986525Y-130486632D01*
X103193368Y-130693475D01*
X103436589Y-130855990D01*
X103706842Y-130967932D01*
X103993740Y-131025000D01*
X104286260Y-131025000D01*
X104573158Y-130967932D01*
X104843411Y-130855990D01*
X105086632Y-130693475D01*
X105293475Y-130486632D01*
X105455990Y-130243411D01*
X105517000Y-130096119D01*
X105517000Y-130516250D01*
X105675750Y-130675000D01*
X106890000Y-130678072D01*
X107014482Y-130665812D01*
X107134180Y-130629502D01*
X107244494Y-130570537D01*
X107341185Y-130491185D01*
X107420537Y-130394494D01*
X107479502Y-130284180D01*
X107515812Y-130164482D01*
X107528072Y-130040000D01*
X107525000Y-129825750D01*
X107366250Y-129667000D01*
X105625000Y-129667000D01*
X105625000Y-129413000D01*
X107366250Y-129413000D01*
X107525000Y-129254250D01*
X107528072Y-129040000D01*
X107515812Y-128915518D01*
X107479502Y-128795820D01*
X107420537Y-128685506D01*
X107341185Y-128588815D01*
X107244494Y-128509463D01*
X107134180Y-128450498D01*
X107014482Y-128414188D01*
X106890000Y-128401928D01*
X105675750Y-128405000D01*
X105517000Y-128563750D01*
X105517000Y-128983881D01*
X105455990Y-128836589D01*
X105293475Y-128593368D01*
X105086632Y-128386525D01*
X104912240Y-128270000D01*
X105086632Y-128153475D01*
X105102035Y-128138072D01*
X106890000Y-128138072D01*
X107014482Y-128125812D01*
X107134180Y-128089502D01*
X107244494Y-128030537D01*
X107341185Y-127951185D01*
X107401184Y-127878076D01*
X107459744Y-127917205D01*
X107648102Y-127995226D01*
X107848061Y-128035000D01*
X108051939Y-128035000D01*
X108251898Y-127995226D01*
X108440256Y-127917205D01*
X108609774Y-127803937D01*
X108753937Y-127659774D01*
X108867205Y-127490256D01*
X108945226Y-127301898D01*
X108985000Y-127101939D01*
X108985000Y-126898061D01*
X108945226Y-126698102D01*
X108867205Y-126509744D01*
X108753937Y-126340226D01*
X108609774Y-126196063D01*
X108440256Y-126082795D01*
X108251898Y-126004774D01*
X108051939Y-125965000D01*
X107848061Y-125965000D01*
X107648102Y-126004774D01*
X107459744Y-126082795D01*
X107401184Y-126121924D01*
X107341185Y-126048815D01*
X107244494Y-125969463D01*
X107134180Y-125910498D01*
X107014482Y-125874188D01*
X106890000Y-125861928D01*
X105102035Y-125861928D01*
X105086632Y-125846525D01*
X104912240Y-125730000D01*
X105086632Y-125613475D01*
X105102035Y-125598072D01*
X106890000Y-125598072D01*
X107014482Y-125585812D01*
X107134180Y-125549502D01*
X107244494Y-125490537D01*
X107341185Y-125411185D01*
X107401184Y-125338076D01*
X107459744Y-125377205D01*
X107648102Y-125455226D01*
X107848061Y-125495000D01*
X108051939Y-125495000D01*
X108251898Y-125455226D01*
X108440256Y-125377205D01*
X108609774Y-125263937D01*
X108753937Y-125119774D01*
X108867205Y-124950256D01*
X108945226Y-124761898D01*
X108985000Y-124561939D01*
X108985000Y-124358061D01*
X108945226Y-124158102D01*
X108867205Y-123969744D01*
X108753937Y-123800226D01*
X108609774Y-123656063D01*
X108440256Y-123542795D01*
X108251898Y-123464774D01*
X108051939Y-123425000D01*
X107848061Y-123425000D01*
X107648102Y-123464774D01*
X107459744Y-123542795D01*
X107401184Y-123581924D01*
X107341185Y-123508815D01*
X107244494Y-123429463D01*
X107134180Y-123370498D01*
X107014482Y-123334188D01*
X106890000Y-123321928D01*
X105102035Y-123321928D01*
X105086632Y-123306525D01*
X104912240Y-123190000D01*
X105086632Y-123073475D01*
X105102035Y-123058072D01*
X106890000Y-123058072D01*
X107014482Y-123045812D01*
X107134180Y-123009502D01*
X107244494Y-122950537D01*
X107341185Y-122871185D01*
X107401184Y-122798076D01*
X107459744Y-122837205D01*
X107648102Y-122915226D01*
X107848061Y-122955000D01*
X108051939Y-122955000D01*
X108251898Y-122915226D01*
X108440256Y-122837205D01*
X108609774Y-122723937D01*
X108753937Y-122579774D01*
X108867205Y-122410256D01*
X108945226Y-122221898D01*
X108985000Y-122021939D01*
X108985000Y-121818061D01*
X108945226Y-121618102D01*
X108867205Y-121429744D01*
X108753937Y-121260226D01*
X108609774Y-121116063D01*
X108440256Y-121002795D01*
X108251898Y-120924774D01*
X108051939Y-120885000D01*
X107848061Y-120885000D01*
X107648102Y-120924774D01*
X107459744Y-121002795D01*
X107401184Y-121041924D01*
X107341185Y-120968815D01*
X107244494Y-120889463D01*
X107134180Y-120830498D01*
X107014482Y-120794188D01*
X106890000Y-120781928D01*
X105102035Y-120781928D01*
X105086632Y-120766525D01*
X104912240Y-120650000D01*
X105086632Y-120533475D01*
X105293475Y-120326632D01*
X105455990Y-120083411D01*
X105517000Y-119936119D01*
X105517000Y-120356250D01*
X105675750Y-120515000D01*
X106890000Y-120518072D01*
X107014482Y-120505812D01*
X107134180Y-120469502D01*
X107244494Y-120410537D01*
X107341185Y-120331185D01*
X107420537Y-120234494D01*
X107479502Y-120124180D01*
X107515812Y-120004482D01*
X107528072Y-119880000D01*
X107525000Y-119665750D01*
X107366250Y-119507000D01*
X105625000Y-119507000D01*
X105625000Y-119253000D01*
X107366250Y-119253000D01*
X107525000Y-119094250D01*
X107528072Y-118880000D01*
X107515812Y-118755518D01*
X107479502Y-118635820D01*
X107420537Y-118525506D01*
X107341185Y-118428815D01*
X107244494Y-118349463D01*
X107134180Y-118290498D01*
X107014482Y-118254188D01*
X106890000Y-118241928D01*
X105675750Y-118245000D01*
X105517000Y-118403750D01*
X105517000Y-118823881D01*
X105455990Y-118676589D01*
X105293475Y-118433368D01*
X105086632Y-118226525D01*
X104912240Y-118110000D01*
X105086632Y-117993475D01*
X105102035Y-117978072D01*
X106890000Y-117978072D01*
X107014482Y-117965812D01*
X107134180Y-117929502D01*
X107244494Y-117870537D01*
X107341185Y-117791185D01*
X107401184Y-117718076D01*
X107459744Y-117757205D01*
X107648102Y-117835226D01*
X107848061Y-117875000D01*
X108051939Y-117875000D01*
X108251898Y-117835226D01*
X108440256Y-117757205D01*
X108609774Y-117643937D01*
X108753937Y-117499774D01*
X108867205Y-117330256D01*
X108945226Y-117141898D01*
X108985000Y-116941939D01*
X108985000Y-116738061D01*
X108945226Y-116538102D01*
X108867205Y-116349744D01*
X108753937Y-116180226D01*
X108609774Y-116036063D01*
X108440256Y-115922795D01*
X108251898Y-115844774D01*
X108051939Y-115805000D01*
X107848061Y-115805000D01*
X107648102Y-115844774D01*
X107459744Y-115922795D01*
X107401184Y-115961924D01*
X107341185Y-115888815D01*
X107244494Y-115809463D01*
X107134180Y-115750498D01*
X107014482Y-115714188D01*
X106890000Y-115701928D01*
X105102035Y-115701928D01*
X105086632Y-115686525D01*
X104912240Y-115570000D01*
X105086632Y-115453475D01*
X105102035Y-115438072D01*
X106890000Y-115438072D01*
X107014482Y-115425812D01*
X107134180Y-115389502D01*
X107244494Y-115330537D01*
X107341185Y-115251185D01*
X107401184Y-115178076D01*
X107459744Y-115217205D01*
X107648102Y-115295226D01*
X107848061Y-115335000D01*
X108051939Y-115335000D01*
X108251898Y-115295226D01*
X108440256Y-115217205D01*
X108609774Y-115103937D01*
X108753937Y-114959774D01*
X108867205Y-114790256D01*
X108945226Y-114601898D01*
X108985000Y-114401939D01*
X108985000Y-114198061D01*
X108945226Y-113998102D01*
X108867205Y-113809744D01*
X108753937Y-113640226D01*
X108609774Y-113496063D01*
X108440256Y-113382795D01*
X108251898Y-113304774D01*
X108051939Y-113265000D01*
X107848061Y-113265000D01*
X107648102Y-113304774D01*
X107459744Y-113382795D01*
X107401184Y-113421924D01*
X107341185Y-113348815D01*
X107244494Y-113269463D01*
X107134180Y-113210498D01*
X107014482Y-113174188D01*
X106890000Y-113161928D01*
X105102035Y-113161928D01*
X105086632Y-113146525D01*
X104912240Y-113030000D01*
X105086632Y-112913475D01*
X105102035Y-112898072D01*
X106890000Y-112898072D01*
X107014482Y-112885812D01*
X107134180Y-112849502D01*
X107244494Y-112790537D01*
X107341185Y-112711185D01*
X107401184Y-112638076D01*
X107459744Y-112677205D01*
X107648102Y-112755226D01*
X107848061Y-112795000D01*
X108051939Y-112795000D01*
X108251898Y-112755226D01*
X108440256Y-112677205D01*
X108609774Y-112563937D01*
X108753937Y-112419774D01*
X108867205Y-112250256D01*
X108945226Y-112061898D01*
X108985000Y-111861939D01*
X108985000Y-111658061D01*
X108945226Y-111458102D01*
X108867205Y-111269744D01*
X108753937Y-111100226D01*
X108609774Y-110956063D01*
X108440256Y-110842795D01*
X108251898Y-110764774D01*
X108051939Y-110725000D01*
X107848061Y-110725000D01*
X107648102Y-110764774D01*
X107459744Y-110842795D01*
X107401184Y-110881924D01*
X107341185Y-110808815D01*
X107244494Y-110729463D01*
X107134180Y-110670498D01*
X107014482Y-110634188D01*
X106890000Y-110621928D01*
X105102035Y-110621928D01*
X105086632Y-110606525D01*
X104912240Y-110490000D01*
X105086632Y-110373475D01*
X105293475Y-110166632D01*
X105455990Y-109923411D01*
X105517000Y-109776119D01*
X105517000Y-110196250D01*
X105675750Y-110355000D01*
X106890000Y-110358072D01*
X107014482Y-110345812D01*
X107134180Y-110309502D01*
X107244494Y-110250537D01*
X107341185Y-110171185D01*
X107420537Y-110074494D01*
X107479502Y-109964180D01*
X107515812Y-109844482D01*
X107528072Y-109720000D01*
X107525000Y-109505750D01*
X107366250Y-109347000D01*
X105625000Y-109347000D01*
X105625000Y-109093000D01*
X107366250Y-109093000D01*
X107525000Y-108934250D01*
X107528072Y-108720000D01*
X107515812Y-108595518D01*
X107479502Y-108475820D01*
X107420537Y-108365506D01*
X107341185Y-108268815D01*
X107244494Y-108189463D01*
X107134180Y-108130498D01*
X107014482Y-108094188D01*
X106890000Y-108081928D01*
X105675750Y-108085000D01*
X105517000Y-108243750D01*
X105517000Y-108663881D01*
X105455990Y-108516589D01*
X105293475Y-108273368D01*
X105086632Y-108066525D01*
X104912240Y-107950000D01*
X105086632Y-107833475D01*
X105102035Y-107818072D01*
X106890000Y-107818072D01*
X107014482Y-107805812D01*
X107134180Y-107769502D01*
X107236144Y-107715000D01*
X107289939Y-107715000D01*
X107489898Y-107675226D01*
X107678256Y-107597205D01*
X107847774Y-107483937D01*
X107991937Y-107339774D01*
X108105205Y-107170256D01*
X108183226Y-106981898D01*
X108223000Y-106781939D01*
X108223000Y-106578061D01*
X108183226Y-106378102D01*
X108105205Y-106189744D01*
X107991937Y-106020226D01*
X107847774Y-105876063D01*
X107678256Y-105762795D01*
X107489898Y-105684774D01*
X107289939Y-105645000D01*
X107236144Y-105645000D01*
X107134180Y-105590498D01*
X107014482Y-105554188D01*
X106890000Y-105541928D01*
X105102035Y-105541928D01*
X105086632Y-105526525D01*
X104912240Y-105410000D01*
X105086632Y-105293475D01*
X105102035Y-105278072D01*
X106890000Y-105278072D01*
X107014482Y-105265812D01*
X107134180Y-105229502D01*
X107244494Y-105170537D01*
X107323271Y-105105887D01*
X107394102Y-105135226D01*
X107594061Y-105175000D01*
X107797939Y-105175000D01*
X107997898Y-105135226D01*
X108186256Y-105057205D01*
X108355774Y-104943937D01*
X108499937Y-104799774D01*
X108613205Y-104630256D01*
X108691226Y-104441898D01*
X108731000Y-104241939D01*
X108731000Y-104038061D01*
X108691226Y-103838102D01*
X108613205Y-103649744D01*
X108499937Y-103480226D01*
X108355774Y-103336063D01*
X108186256Y-103222795D01*
X107997898Y-103144774D01*
X107797939Y-103105000D01*
X107594061Y-103105000D01*
X107394102Y-103144774D01*
X107323271Y-103174113D01*
X107244494Y-103109463D01*
X107134180Y-103050498D01*
X107014482Y-103014188D01*
X106890000Y-103001928D01*
X105102035Y-103001928D01*
X105086632Y-102986525D01*
X104912240Y-102870000D01*
X105086632Y-102753475D01*
X105102035Y-102738072D01*
X106890000Y-102738072D01*
X107014482Y-102725812D01*
X107134180Y-102689502D01*
X107244494Y-102630537D01*
X107323271Y-102565887D01*
X107394102Y-102595226D01*
X107594061Y-102635000D01*
X107797939Y-102635000D01*
X107997898Y-102595226D01*
X108186256Y-102517205D01*
X108355774Y-102403937D01*
X108499937Y-102259774D01*
X108613205Y-102090256D01*
X108691226Y-101901898D01*
X108731000Y-101701939D01*
X108731000Y-101498061D01*
X108691226Y-101298102D01*
X108613205Y-101109744D01*
X108499937Y-100940226D01*
X108355774Y-100796063D01*
X108186256Y-100682795D01*
X107997898Y-100604774D01*
X107797939Y-100565000D01*
X107594061Y-100565000D01*
X107394102Y-100604774D01*
X107323271Y-100634113D01*
X107244494Y-100569463D01*
X107134180Y-100510498D01*
X107014482Y-100474188D01*
X106890000Y-100461928D01*
X105102035Y-100461928D01*
X105086632Y-100446525D01*
X104912240Y-100330000D01*
X105086632Y-100213475D01*
X105293475Y-100006632D01*
X105455990Y-99763411D01*
X105517000Y-99616119D01*
X105517000Y-100036250D01*
X105675750Y-100195000D01*
X106890000Y-100198072D01*
X107014482Y-100185812D01*
X107134180Y-100149502D01*
X107244494Y-100090537D01*
X107341185Y-100011185D01*
X107420537Y-99914494D01*
X107479502Y-99804180D01*
X107515812Y-99684482D01*
X107528072Y-99560000D01*
X107525000Y-99345750D01*
X107366250Y-99187000D01*
X105625000Y-99187000D01*
X105625000Y-98933000D01*
X107366250Y-98933000D01*
X107525000Y-98774250D01*
X107528072Y-98560000D01*
X107515812Y-98435518D01*
X107479502Y-98315820D01*
X107420537Y-98205506D01*
X107341185Y-98108815D01*
X107244494Y-98029463D01*
X107134180Y-97970498D01*
X107014482Y-97934188D01*
X106890000Y-97921928D01*
X105675750Y-97925000D01*
X105517000Y-98083750D01*
X105517000Y-98503881D01*
X105455990Y-98356589D01*
X105293475Y-98113368D01*
X105086632Y-97906525D01*
X104912240Y-97790000D01*
X105086632Y-97673475D01*
X105102035Y-97658072D01*
X106890000Y-97658072D01*
X107014482Y-97645812D01*
X107134180Y-97609502D01*
X107244494Y-97550537D01*
X107341185Y-97471185D01*
X107420537Y-97374494D01*
X107479502Y-97264180D01*
X107515812Y-97144482D01*
X107528072Y-97020000D01*
X107528072Y-96020000D01*
X107515812Y-95895518D01*
X107479502Y-95775820D01*
X107420537Y-95665506D01*
X107341185Y-95568815D01*
X107244494Y-95489463D01*
X107134180Y-95430498D01*
X107014482Y-95394188D01*
X106890000Y-95381928D01*
X105102035Y-95381928D01*
X105086632Y-95366525D01*
X104912240Y-95250000D01*
X105086632Y-95133475D01*
X105102035Y-95118072D01*
X106890000Y-95118072D01*
X107014482Y-95105812D01*
X107134180Y-95069502D01*
X107244494Y-95010537D01*
X107341185Y-94931185D01*
X107420537Y-94834494D01*
X107479502Y-94724180D01*
X107515812Y-94604482D01*
X107528072Y-94480000D01*
X107528072Y-93480000D01*
X107515812Y-93355518D01*
X107479502Y-93235820D01*
X107420537Y-93125506D01*
X107341185Y-93028815D01*
X107244494Y-92949463D01*
X107134180Y-92890498D01*
X107014482Y-92854188D01*
X106890000Y-92841928D01*
X105102035Y-92841928D01*
X105086632Y-92826525D01*
X104912240Y-92710000D01*
X105086632Y-92593475D01*
X105102035Y-92578072D01*
X106890000Y-92578072D01*
X107014482Y-92565812D01*
X107134180Y-92529502D01*
X107244494Y-92470537D01*
X107341185Y-92391185D01*
X107420537Y-92294494D01*
X107479502Y-92184180D01*
X107515812Y-92064482D01*
X107528072Y-91940000D01*
X107528072Y-90940000D01*
X107515812Y-90815518D01*
X107479502Y-90695820D01*
X107420537Y-90585506D01*
X107341185Y-90488815D01*
X107244494Y-90409463D01*
X107134180Y-90350498D01*
X107014482Y-90314188D01*
X106890000Y-90301928D01*
X105102035Y-90301928D01*
X105086632Y-90286525D01*
X104912240Y-90170000D01*
X105086632Y-90053475D01*
X105293475Y-89846632D01*
X105455990Y-89603411D01*
X105517000Y-89456119D01*
X105517000Y-89876250D01*
X105675750Y-90035000D01*
X106890000Y-90038072D01*
X107014482Y-90025812D01*
X107134180Y-89989502D01*
X107244494Y-89930537D01*
X107341185Y-89851185D01*
X107420537Y-89754494D01*
X107479502Y-89644180D01*
X107515812Y-89524482D01*
X107528072Y-89400000D01*
X107525000Y-89185750D01*
X107366250Y-89027000D01*
X105625000Y-89027000D01*
X105625000Y-88773000D01*
X107366250Y-88773000D01*
X107525000Y-88614250D01*
X107528072Y-88400000D01*
X107515812Y-88275518D01*
X107479502Y-88155820D01*
X107420537Y-88045506D01*
X107341185Y-87948815D01*
X107244494Y-87869463D01*
X107134180Y-87810498D01*
X107014482Y-87774188D01*
X106890000Y-87761928D01*
X105675750Y-87765000D01*
X105517000Y-87923750D01*
X105517000Y-88343881D01*
X105455990Y-88196589D01*
X105293475Y-87953368D01*
X105086632Y-87746525D01*
X104912240Y-87630000D01*
X105086632Y-87513475D01*
X105102035Y-87498072D01*
X106890000Y-87498072D01*
X107014482Y-87485812D01*
X107134180Y-87449502D01*
X107244494Y-87390537D01*
X107341185Y-87311185D01*
X107420537Y-87214494D01*
X107479502Y-87104180D01*
X107515812Y-86984482D01*
X107528072Y-86860000D01*
X107528072Y-85860000D01*
X107515812Y-85735518D01*
X107479502Y-85615820D01*
X107420537Y-85505506D01*
X107341185Y-85408815D01*
X107244494Y-85329463D01*
X107134180Y-85270498D01*
X107014482Y-85234188D01*
X106890000Y-85221928D01*
X105102035Y-85221928D01*
X105086632Y-85206525D01*
X104912240Y-85090000D01*
X105086632Y-84973475D01*
X105102035Y-84958072D01*
X106890000Y-84958072D01*
X107014482Y-84945812D01*
X107134180Y-84909502D01*
X107244494Y-84850537D01*
X107341185Y-84771185D01*
X107420537Y-84674494D01*
X107479502Y-84564180D01*
X107515812Y-84444482D01*
X107528072Y-84320000D01*
X107528072Y-83320000D01*
X107515812Y-83195518D01*
X107479502Y-83075820D01*
X107420537Y-82965506D01*
X107341185Y-82868815D01*
X107244494Y-82789463D01*
X107134180Y-82730498D01*
X107014482Y-82694188D01*
X106890000Y-82681928D01*
X105102035Y-82681928D01*
X105086632Y-82666525D01*
X104912240Y-82550000D01*
X105086632Y-82433475D01*
X105102035Y-82418072D01*
X106890000Y-82418072D01*
X107014482Y-82405812D01*
X107134180Y-82369502D01*
X107244494Y-82310537D01*
X107341185Y-82231185D01*
X107420537Y-82134494D01*
X107479502Y-82024180D01*
X107515812Y-81904482D01*
X107516607Y-81896406D01*
X117604001Y-91983801D01*
X117604000Y-102578678D01*
X117600324Y-102616000D01*
X117604000Y-102653322D01*
X117604000Y-102653332D01*
X117614997Y-102764985D01*
X117632902Y-102824010D01*
X117658454Y-102908246D01*
X117729026Y-103040276D01*
X117768871Y-103088826D01*
X117823999Y-103156001D01*
X117853002Y-103179803D01*
X118853000Y-104179802D01*
X118853000Y-104241939D01*
X118892774Y-104441898D01*
X118970795Y-104630256D01*
X119084063Y-104799774D01*
X119128001Y-104843712D01*
X119128000Y-106642677D01*
X119124324Y-106680000D01*
X119128000Y-106717322D01*
X119128000Y-106717332D01*
X119138997Y-106828985D01*
X119169360Y-106929080D01*
X119182454Y-106972246D01*
X119253026Y-107104276D01*
X119285785Y-107144192D01*
X119347999Y-107220001D01*
X119377003Y-107243804D01*
X122118200Y-109985002D01*
X122141999Y-110014001D01*
X122257724Y-110108974D01*
X122389753Y-110179546D01*
X122533014Y-110223003D01*
X122644667Y-110234000D01*
X122644675Y-110234000D01*
X122682000Y-110237676D01*
X122719325Y-110234000D01*
X124781609Y-110234000D01*
X130628610Y-116081002D01*
X130652409Y-116110001D01*
X130681407Y-116133799D01*
X130768133Y-116204974D01*
X130900163Y-116275546D01*
X131043424Y-116319003D01*
X131155077Y-116330000D01*
X131155087Y-116330000D01*
X131192410Y-116333676D01*
X131229733Y-116330000D01*
X147005199Y-116330000D01*
X148592000Y-117916802D01*
X148592001Y-119184288D01*
X148548063Y-119228226D01*
X148434795Y-119397744D01*
X148356774Y-119586102D01*
X148317000Y-119786061D01*
X148317000Y-119989939D01*
X148356774Y-120189898D01*
X148434795Y-120378256D01*
X148548063Y-120547774D01*
X148692226Y-120691937D01*
X148861744Y-120805205D01*
X149050102Y-120883226D01*
X149250061Y-120923000D01*
X149453939Y-120923000D01*
X149653898Y-120883226D01*
X149842256Y-120805205D01*
X150011774Y-120691937D01*
X150155937Y-120547774D01*
X150269205Y-120378256D01*
X150347226Y-120189898D01*
X150387000Y-119989939D01*
X150387000Y-119786061D01*
X150347226Y-119586102D01*
X150269205Y-119397744D01*
X150155937Y-119228226D01*
X150112000Y-119184289D01*
X150112000Y-117639323D01*
X150115676Y-117602000D01*
X150112000Y-117564677D01*
X150112000Y-117564667D01*
X150101003Y-117453014D01*
X150057546Y-117309753D01*
X149986975Y-117177725D01*
X149986974Y-117177723D01*
X149915799Y-117090997D01*
X149892001Y-117061999D01*
X149863004Y-117038202D01*
X148038863Y-115214061D01*
X150603000Y-115214061D01*
X150603000Y-115417939D01*
X150642774Y-115617898D01*
X150720795Y-115806256D01*
X150834063Y-115975774D01*
X150978226Y-116119937D01*
X151147744Y-116233205D01*
X151336102Y-116311226D01*
X151536061Y-116351000D01*
X151739939Y-116351000D01*
X151939898Y-116311226D01*
X152128256Y-116233205D01*
X152297774Y-116119937D01*
X152441937Y-115975774D01*
X152555205Y-115806256D01*
X152633226Y-115617898D01*
X152673000Y-115417939D01*
X152673000Y-115355801D01*
X155705008Y-112323795D01*
X155734001Y-112300001D01*
X155757795Y-112271008D01*
X155757799Y-112271004D01*
X155828973Y-112184277D01*
X155828974Y-112184276D01*
X155899546Y-112052247D01*
X155943003Y-111908986D01*
X155954000Y-111797333D01*
X155954000Y-111797324D01*
X155957676Y-111760001D01*
X155954000Y-111722678D01*
X155954000Y-111626366D01*
X156145808Y-111568182D01*
X156395101Y-111434932D01*
X156613608Y-111255608D01*
X156792932Y-111037101D01*
X156926182Y-110787808D01*
X157008236Y-110517309D01*
X157035943Y-110236000D01*
X157008236Y-109954691D01*
X156926182Y-109684192D01*
X156792932Y-109434899D01*
X156752802Y-109386000D01*
X157261928Y-109386000D01*
X157261928Y-111086000D01*
X157274188Y-111210482D01*
X157310498Y-111330180D01*
X157369463Y-111440494D01*
X157448815Y-111537185D01*
X157545506Y-111616537D01*
X157655820Y-111675502D01*
X157775518Y-111711812D01*
X157900000Y-111724072D01*
X159600000Y-111724072D01*
X159724482Y-111711812D01*
X159844180Y-111675502D01*
X159954494Y-111616537D01*
X160051185Y-111537185D01*
X160130537Y-111440494D01*
X160189502Y-111330180D01*
X160225812Y-111210482D01*
X160238072Y-111086000D01*
X160238072Y-109386000D01*
X160225812Y-109261518D01*
X160189502Y-109141820D01*
X160130537Y-109031506D01*
X160051185Y-108934815D01*
X159954494Y-108855463D01*
X159844180Y-108796498D01*
X159763534Y-108772034D01*
X159847588Y-108696269D01*
X160021641Y-108462920D01*
X160146825Y-108200099D01*
X160191476Y-108052890D01*
X160070155Y-107823000D01*
X158877000Y-107823000D01*
X158877000Y-107843000D01*
X158623000Y-107843000D01*
X158623000Y-107823000D01*
X157429845Y-107823000D01*
X157308524Y-108052890D01*
X157353175Y-108200099D01*
X157478359Y-108462920D01*
X157652412Y-108696269D01*
X157736466Y-108772034D01*
X157655820Y-108796498D01*
X157545506Y-108855463D01*
X157448815Y-108934815D01*
X157369463Y-109031506D01*
X157310498Y-109141820D01*
X157274188Y-109261518D01*
X157261928Y-109386000D01*
X156752802Y-109386000D01*
X156613608Y-109216392D01*
X156395101Y-109037068D01*
X156262142Y-108966000D01*
X156395101Y-108894932D01*
X156613608Y-108715608D01*
X156792932Y-108497101D01*
X156926182Y-108247808D01*
X157008236Y-107977309D01*
X157035943Y-107696000D01*
X157008236Y-107414691D01*
X156926182Y-107144192D01*
X156792932Y-106894899D01*
X156613608Y-106676392D01*
X156395101Y-106497068D01*
X156262142Y-106426000D01*
X156395101Y-106354932D01*
X156613608Y-106175608D01*
X156792932Y-105957101D01*
X156926182Y-105707808D01*
X157008236Y-105437309D01*
X157035943Y-105156000D01*
X157021538Y-105009740D01*
X157265000Y-105009740D01*
X157265000Y-105302260D01*
X157322068Y-105589158D01*
X157434010Y-105859411D01*
X157596525Y-106102632D01*
X157803368Y-106309475D01*
X157985534Y-106431195D01*
X157868645Y-106500822D01*
X157652412Y-106695731D01*
X157478359Y-106929080D01*
X157353175Y-107191901D01*
X157308524Y-107339110D01*
X157429845Y-107569000D01*
X158623000Y-107569000D01*
X158623000Y-107549000D01*
X158877000Y-107549000D01*
X158877000Y-107569000D01*
X160070155Y-107569000D01*
X160191476Y-107339110D01*
X160146825Y-107191901D01*
X160021641Y-106929080D01*
X159847588Y-106695731D01*
X159631355Y-106500822D01*
X159514466Y-106431195D01*
X159696632Y-106309475D01*
X159903475Y-106102632D01*
X160065990Y-105859411D01*
X160177932Y-105589158D01*
X160235000Y-105302260D01*
X160235000Y-105009740D01*
X160177932Y-104722842D01*
X160065990Y-104452589D01*
X159903475Y-104209368D01*
X159696632Y-104002525D01*
X159514466Y-103880805D01*
X159631355Y-103811178D01*
X159847588Y-103616269D01*
X160021641Y-103382920D01*
X160146825Y-103120099D01*
X160191476Y-102972890D01*
X160070155Y-102743000D01*
X158877000Y-102743000D01*
X158877000Y-102763000D01*
X158623000Y-102763000D01*
X158623000Y-102743000D01*
X157429845Y-102743000D01*
X157308524Y-102972890D01*
X157353175Y-103120099D01*
X157478359Y-103382920D01*
X157652412Y-103616269D01*
X157868645Y-103811178D01*
X157985534Y-103880805D01*
X157803368Y-104002525D01*
X157596525Y-104209368D01*
X157434010Y-104452589D01*
X157322068Y-104722842D01*
X157265000Y-105009740D01*
X157021538Y-105009740D01*
X157008236Y-104874691D01*
X156926182Y-104604192D01*
X156792932Y-104354899D01*
X156613608Y-104136392D01*
X156395101Y-103957068D01*
X156267259Y-103888735D01*
X156496839Y-103738601D01*
X156698500Y-103540895D01*
X156857715Y-103307646D01*
X156968367Y-103047818D01*
X156985904Y-102965039D01*
X156863915Y-102743000D01*
X155321000Y-102743000D01*
X155321000Y-102763000D01*
X155067000Y-102763000D01*
X155067000Y-102743000D01*
X153524085Y-102743000D01*
X153402096Y-102965039D01*
X153419633Y-103047818D01*
X153530285Y-103307646D01*
X153689500Y-103540895D01*
X153891161Y-103738601D01*
X154120741Y-103888735D01*
X153992899Y-103957068D01*
X153774392Y-104136392D01*
X153595068Y-104354899D01*
X153461818Y-104604192D01*
X153379764Y-104874691D01*
X153352057Y-105156000D01*
X153379764Y-105437309D01*
X153461818Y-105707808D01*
X153595068Y-105957101D01*
X153774392Y-106175608D01*
X153992899Y-106354932D01*
X154125858Y-106426000D01*
X153992899Y-106497068D01*
X153774392Y-106676392D01*
X153595068Y-106894899D01*
X153461818Y-107144192D01*
X153379764Y-107414691D01*
X153352057Y-107696000D01*
X153379764Y-107977309D01*
X153461818Y-108247808D01*
X153595068Y-108497101D01*
X153774392Y-108715608D01*
X153992899Y-108894932D01*
X154125858Y-108966000D01*
X153992899Y-109037068D01*
X153774392Y-109216392D01*
X153595068Y-109434899D01*
X153461818Y-109684192D01*
X153379764Y-109954691D01*
X153352057Y-110236000D01*
X153379764Y-110517309D01*
X153461818Y-110787808D01*
X153595068Y-111037101D01*
X153774392Y-111255608D01*
X153992899Y-111434932D01*
X154242192Y-111568182D01*
X154294997Y-111584200D01*
X151598199Y-114281000D01*
X151536061Y-114281000D01*
X151336102Y-114320774D01*
X151147744Y-114398795D01*
X150978226Y-114512063D01*
X150834063Y-114656226D01*
X150720795Y-114825744D01*
X150642774Y-115014102D01*
X150603000Y-115214061D01*
X148038863Y-115214061D01*
X147883804Y-115059003D01*
X147860001Y-115029999D01*
X147744276Y-114935026D01*
X147612247Y-114864454D01*
X147468986Y-114820997D01*
X147357333Y-114810000D01*
X147357322Y-114810000D01*
X147320000Y-114806324D01*
X147282678Y-114810000D01*
X131507212Y-114810000D01*
X126444211Y-109747000D01*
X126593939Y-109747000D01*
X126793898Y-109707226D01*
X126982256Y-109629205D01*
X127151774Y-109515937D01*
X127194455Y-109473256D01*
X128505000Y-110783802D01*
X128505000Y-110845939D01*
X128544774Y-111045898D01*
X128622795Y-111234256D01*
X128736063Y-111403774D01*
X128880226Y-111547937D01*
X129049744Y-111661205D01*
X129238102Y-111739226D01*
X129438061Y-111779000D01*
X129641939Y-111779000D01*
X129841898Y-111739226D01*
X130030256Y-111661205D01*
X130199774Y-111547937D01*
X130343937Y-111403774D01*
X130457205Y-111234256D01*
X130535226Y-111045898D01*
X130575000Y-110845939D01*
X130575000Y-110642061D01*
X130535226Y-110442102D01*
X130457205Y-110253744D01*
X130343937Y-110084226D01*
X130199774Y-109940063D01*
X130030256Y-109826795D01*
X129841898Y-109748774D01*
X129641939Y-109709000D01*
X129579802Y-109709000D01*
X128071804Y-108201003D01*
X128048001Y-108171999D01*
X127932276Y-108077026D01*
X127800247Y-108006454D01*
X127656986Y-107962997D01*
X127545333Y-107952000D01*
X127545322Y-107952000D01*
X127508000Y-107948324D01*
X127470678Y-107952000D01*
X127195711Y-107952000D01*
X127151774Y-107908063D01*
X126982256Y-107794795D01*
X126793898Y-107716774D01*
X126593939Y-107677000D01*
X126390061Y-107677000D01*
X126190102Y-107716774D01*
X126001744Y-107794795D01*
X125832226Y-107908063D01*
X125688063Y-108052226D01*
X125574795Y-108221744D01*
X125496774Y-108410102D01*
X125457000Y-108610061D01*
X125457000Y-108804985D01*
X125388657Y-108768454D01*
X125245396Y-108724997D01*
X125133743Y-108714000D01*
X125133732Y-108714000D01*
X125096410Y-108710324D01*
X125059088Y-108714000D01*
X122996802Y-108714000D01*
X120648000Y-106365199D01*
X120648000Y-104843711D01*
X120691937Y-104799774D01*
X120805205Y-104630256D01*
X120883226Y-104441898D01*
X120923000Y-104241939D01*
X120923000Y-104038061D01*
X120883226Y-103838102D01*
X120805205Y-103649744D01*
X120691937Y-103480226D01*
X120547774Y-103336063D01*
X120378256Y-103222795D01*
X120189898Y-103144774D01*
X119989939Y-103105000D01*
X119927802Y-103105000D01*
X119124000Y-102301199D01*
X119124000Y-96012000D01*
X119632324Y-96012000D01*
X119636001Y-96049332D01*
X119636000Y-98514677D01*
X119632324Y-98552000D01*
X119636000Y-98589322D01*
X119636000Y-98589332D01*
X119646997Y-98700985D01*
X119677641Y-98802005D01*
X119690454Y-98844246D01*
X119761026Y-98976276D01*
X119800871Y-99024826D01*
X119855999Y-99092001D01*
X119885002Y-99115803D01*
X121356205Y-100587008D01*
X121379999Y-100616001D01*
X121408992Y-100639795D01*
X121408996Y-100639799D01*
X121461388Y-100682795D01*
X121495724Y-100710974D01*
X121627753Y-100781546D01*
X121771014Y-100825003D01*
X121882667Y-100836000D01*
X121882676Y-100836000D01*
X121919999Y-100839676D01*
X121957322Y-100836000D01*
X126790246Y-100836000D01*
X126802454Y-100876246D01*
X126873026Y-101008276D01*
X126912871Y-101056826D01*
X126967999Y-101124001D01*
X126997003Y-101147804D01*
X134536000Y-108686802D01*
X134536000Y-108813939D01*
X134575774Y-109013898D01*
X134653795Y-109202256D01*
X134767063Y-109371774D01*
X134911226Y-109515937D01*
X135080744Y-109629205D01*
X135269102Y-109707226D01*
X135469061Y-109747000D01*
X135672939Y-109747000D01*
X135872898Y-109707226D01*
X136061256Y-109629205D01*
X136230774Y-109515937D01*
X136310711Y-109436000D01*
X143195928Y-109436000D01*
X143195928Y-111036000D01*
X143208188Y-111160482D01*
X143244498Y-111280180D01*
X143303463Y-111390494D01*
X143382815Y-111487185D01*
X143479506Y-111566537D01*
X143589820Y-111625502D01*
X143709518Y-111661812D01*
X143834000Y-111674072D01*
X146234000Y-111674072D01*
X146358482Y-111661812D01*
X146478180Y-111625502D01*
X146588494Y-111566537D01*
X146685185Y-111487185D01*
X146764537Y-111390494D01*
X146823502Y-111280180D01*
X146859812Y-111160482D01*
X146872072Y-111036000D01*
X146872072Y-109436000D01*
X146859812Y-109311518D01*
X146823502Y-109191820D01*
X146764537Y-109081506D01*
X146685185Y-108984815D01*
X146588494Y-108905463D01*
X146478180Y-108846498D01*
X146358482Y-108810188D01*
X146346613Y-108809019D01*
X146538500Y-108620895D01*
X146697715Y-108387646D01*
X146808367Y-108127818D01*
X146825904Y-108045039D01*
X146703915Y-107823000D01*
X145161000Y-107823000D01*
X145161000Y-107843000D01*
X144907000Y-107843000D01*
X144907000Y-107823000D01*
X143364085Y-107823000D01*
X143242096Y-108045039D01*
X143259633Y-108127818D01*
X143370285Y-108387646D01*
X143529500Y-108620895D01*
X143721387Y-108809019D01*
X143709518Y-108810188D01*
X143589820Y-108846498D01*
X143479506Y-108905463D01*
X143382815Y-108984815D01*
X143303463Y-109081506D01*
X143244498Y-109191820D01*
X143208188Y-109311518D01*
X143195928Y-109436000D01*
X136310711Y-109436000D01*
X136374937Y-109371774D01*
X136488205Y-109202256D01*
X136566226Y-109013898D01*
X136606000Y-108813939D01*
X136606000Y-108610061D01*
X136566226Y-108410102D01*
X136488205Y-108221744D01*
X136374937Y-108052226D01*
X136230774Y-107908063D01*
X136061256Y-107794795D01*
X135872898Y-107716774D01*
X135676513Y-107677711D01*
X133503841Y-105505039D01*
X143242096Y-105505039D01*
X143259633Y-105587818D01*
X143370285Y-105847646D01*
X143529500Y-106080895D01*
X143731161Y-106278601D01*
X143956559Y-106426000D01*
X143731161Y-106573399D01*
X143529500Y-106771105D01*
X143370285Y-107004354D01*
X143259633Y-107264182D01*
X143242096Y-107346961D01*
X143364085Y-107569000D01*
X144907000Y-107569000D01*
X144907000Y-105283000D01*
X145161000Y-105283000D01*
X145161000Y-107569000D01*
X146703915Y-107569000D01*
X146825904Y-107346961D01*
X146808367Y-107264182D01*
X146697715Y-107004354D01*
X146538500Y-106771105D01*
X146336839Y-106573399D01*
X146111441Y-106426000D01*
X146336839Y-106278601D01*
X146538500Y-106080895D01*
X146697715Y-105847646D01*
X146808367Y-105587818D01*
X146825904Y-105505039D01*
X146703915Y-105283000D01*
X145161000Y-105283000D01*
X144907000Y-105283000D01*
X143364085Y-105283000D01*
X143242096Y-105505039D01*
X133503841Y-105505039D01*
X128997873Y-100999071D01*
X132070010Y-100999071D01*
X132070010Y-101202949D01*
X132109784Y-101402908D01*
X132187805Y-101591266D01*
X132301073Y-101760784D01*
X132445236Y-101904947D01*
X132614754Y-102018215D01*
X132803112Y-102096236D01*
X133003071Y-102136010D01*
X133206949Y-102136010D01*
X133406908Y-102096236D01*
X133595266Y-102018215D01*
X133764784Y-101904947D01*
X133908947Y-101760784D01*
X134022215Y-101591266D01*
X134100236Y-101402908D01*
X134140010Y-101202949D01*
X134140010Y-100999071D01*
X134100236Y-100799112D01*
X134022215Y-100610754D01*
X133908947Y-100441236D01*
X133764784Y-100297073D01*
X133595266Y-100183805D01*
X133406908Y-100105784D01*
X133206949Y-100066010D01*
X133003071Y-100066010D01*
X132803112Y-100105784D01*
X132614754Y-100183805D01*
X132445236Y-100297073D01*
X132301073Y-100441236D01*
X132187805Y-100610754D01*
X132109784Y-100799112D01*
X132070010Y-100999071D01*
X128997873Y-100999071D01*
X128466167Y-100467366D01*
X128503226Y-100377898D01*
X128543000Y-100177939D01*
X128543000Y-99974061D01*
X128503226Y-99774102D01*
X128425205Y-99585744D01*
X128311937Y-99416226D01*
X128167774Y-99272063D01*
X127998256Y-99158795D01*
X127809898Y-99080774D01*
X127609939Y-99041000D01*
X127406061Y-99041000D01*
X127206102Y-99080774D01*
X127017744Y-99158795D01*
X126848226Y-99272063D01*
X126804289Y-99316000D01*
X122234803Y-99316000D01*
X121156000Y-98237199D01*
X121156000Y-96326801D01*
X121726802Y-95756000D01*
X125788289Y-95756000D01*
X125832226Y-95799937D01*
X126001744Y-95913205D01*
X126190102Y-95991226D01*
X126390061Y-96031000D01*
X126593939Y-96031000D01*
X126793898Y-95991226D01*
X126982256Y-95913205D01*
X127151774Y-95799937D01*
X127295937Y-95655774D01*
X127409205Y-95486256D01*
X127487226Y-95297898D01*
X127527000Y-95097939D01*
X127527000Y-94894061D01*
X127487226Y-94694102D01*
X127409205Y-94505744D01*
X127295937Y-94336226D01*
X127151774Y-94192063D01*
X126982256Y-94078795D01*
X126793898Y-94000774D01*
X126593939Y-93961000D01*
X126390061Y-93961000D01*
X126190102Y-94000774D01*
X126001744Y-94078795D01*
X125832226Y-94192063D01*
X125788289Y-94236000D01*
X121449322Y-94236000D01*
X121412000Y-94232324D01*
X121374677Y-94236000D01*
X121374667Y-94236000D01*
X121263014Y-94246997D01*
X121156000Y-94279459D01*
X121156000Y-93725333D01*
X122300000Y-92200000D01*
X124268289Y-92200000D01*
X124164063Y-92304226D01*
X124050795Y-92473744D01*
X123972774Y-92662102D01*
X123933000Y-92862061D01*
X123933000Y-93065939D01*
X123972774Y-93265898D01*
X124050795Y-93454256D01*
X124164063Y-93623774D01*
X124308226Y-93767937D01*
X124477744Y-93881205D01*
X124666102Y-93959226D01*
X124866061Y-93999000D01*
X125069939Y-93999000D01*
X125269898Y-93959226D01*
X125458256Y-93881205D01*
X125627774Y-93767937D01*
X125671711Y-93724000D01*
X132273199Y-93724000D01*
X139136201Y-100587003D01*
X139159999Y-100616001D01*
X139275724Y-100710974D01*
X139407753Y-100781546D01*
X139551014Y-100825003D01*
X139662667Y-100836000D01*
X139662677Y-100836000D01*
X139700000Y-100839676D01*
X139737323Y-100836000D01*
X143413099Y-100836000D01*
X143435068Y-100877101D01*
X143614392Y-101095608D01*
X143832899Y-101274932D01*
X143965858Y-101346000D01*
X143832899Y-101417068D01*
X143614392Y-101596392D01*
X143435068Y-101814899D01*
X143301818Y-102064192D01*
X143219764Y-102334691D01*
X143192057Y-102616000D01*
X143219764Y-102897309D01*
X143301818Y-103167808D01*
X143435068Y-103417101D01*
X143614392Y-103635608D01*
X143832899Y-103814932D01*
X143960741Y-103883265D01*
X143731161Y-104033399D01*
X143529500Y-104231105D01*
X143370285Y-104464354D01*
X143259633Y-104724182D01*
X143242096Y-104806961D01*
X143364085Y-105029000D01*
X144907000Y-105029000D01*
X144907000Y-105009000D01*
X145161000Y-105009000D01*
X145161000Y-105029000D01*
X146703915Y-105029000D01*
X146825904Y-104806961D01*
X146808367Y-104724182D01*
X146697715Y-104464354D01*
X146538500Y-104231105D01*
X146336839Y-104033399D01*
X146107259Y-103883265D01*
X146235101Y-103814932D01*
X146453608Y-103635608D01*
X146632932Y-103417101D01*
X146660418Y-103365678D01*
X146770063Y-103529774D01*
X146914226Y-103673937D01*
X147083744Y-103787205D01*
X147272102Y-103865226D01*
X147472061Y-103905000D01*
X147675939Y-103905000D01*
X147875898Y-103865226D01*
X148064256Y-103787205D01*
X148233774Y-103673937D01*
X148377937Y-103529774D01*
X148491205Y-103360256D01*
X148569226Y-103171898D01*
X148609000Y-102971939D01*
X148609000Y-102768061D01*
X148569226Y-102568102D01*
X148491205Y-102379744D01*
X148377937Y-102210226D01*
X148233774Y-102066063D01*
X148064256Y-101952795D01*
X147875898Y-101874774D01*
X147675939Y-101835000D01*
X147472061Y-101835000D01*
X147272102Y-101874774D01*
X147083744Y-101952795D01*
X146914226Y-102066063D01*
X146801074Y-102179215D01*
X146766182Y-102064192D01*
X146632932Y-101814899D01*
X146453608Y-101596392D01*
X146235101Y-101417068D01*
X146102142Y-101346000D01*
X146235101Y-101274932D01*
X146453608Y-101095608D01*
X146632932Y-100877101D01*
X146666157Y-100814941D01*
X146776247Y-100781546D01*
X146908276Y-100710974D01*
X147024001Y-100616001D01*
X147047803Y-100586998D01*
X147923813Y-99710990D01*
X153405154Y-99710990D01*
X153379764Y-99794691D01*
X153352057Y-100076000D01*
X153379764Y-100357309D01*
X153461818Y-100627808D01*
X153595068Y-100877101D01*
X153774392Y-101095608D01*
X153992899Y-101274932D01*
X154120741Y-101343265D01*
X153891161Y-101493399D01*
X153689500Y-101691105D01*
X153530285Y-101924354D01*
X153419633Y-102184182D01*
X153402096Y-102266961D01*
X153524085Y-102489000D01*
X155067000Y-102489000D01*
X155067000Y-102469000D01*
X155321000Y-102469000D01*
X155321000Y-102489000D01*
X156863915Y-102489000D01*
X156985904Y-102266961D01*
X156968367Y-102184182D01*
X156857715Y-101924354D01*
X156698500Y-101691105D01*
X156496839Y-101493399D01*
X156267259Y-101343265D01*
X156395101Y-101274932D01*
X156613608Y-101095608D01*
X156792932Y-100877101D01*
X156926182Y-100627808D01*
X156985309Y-100432890D01*
X157308524Y-100432890D01*
X157353175Y-100580099D01*
X157478359Y-100842920D01*
X157652412Y-101076269D01*
X157868645Y-101271178D01*
X157994255Y-101346000D01*
X157868645Y-101420822D01*
X157652412Y-101615731D01*
X157478359Y-101849080D01*
X157353175Y-102111901D01*
X157308524Y-102259110D01*
X157429845Y-102489000D01*
X158623000Y-102489000D01*
X158623000Y-100203000D01*
X158877000Y-100203000D01*
X158877000Y-102489000D01*
X160070155Y-102489000D01*
X160191476Y-102259110D01*
X160146825Y-102111901D01*
X160021641Y-101849080D01*
X159847588Y-101615731D01*
X159631355Y-101420822D01*
X159505745Y-101346000D01*
X159631355Y-101271178D01*
X159847588Y-101076269D01*
X160021641Y-100842920D01*
X160146825Y-100580099D01*
X160191476Y-100432890D01*
X160070155Y-100203000D01*
X158877000Y-100203000D01*
X158623000Y-100203000D01*
X157429845Y-100203000D01*
X157308524Y-100432890D01*
X156985309Y-100432890D01*
X157008236Y-100357309D01*
X157035943Y-100076000D01*
X157008236Y-99794691D01*
X156982846Y-99710990D01*
X157297688Y-99710990D01*
X157310601Y-99712262D01*
X157308524Y-99719110D01*
X157429845Y-99949000D01*
X158623000Y-99949000D01*
X158623000Y-99929000D01*
X158877000Y-99929000D01*
X158877000Y-99949000D01*
X160070155Y-99949000D01*
X160191476Y-99719110D01*
X160146825Y-99571901D01*
X160021641Y-99309080D01*
X159847588Y-99075731D01*
X159631355Y-98880822D01*
X159514466Y-98811195D01*
X159696632Y-98689475D01*
X159903475Y-98482632D01*
X160065990Y-98239411D01*
X160177932Y-97969158D01*
X160235000Y-97682260D01*
X160235000Y-97389740D01*
X160177932Y-97102842D01*
X160065990Y-96832589D01*
X159903475Y-96589368D01*
X159696632Y-96382525D01*
X159522240Y-96266000D01*
X159696632Y-96149475D01*
X159903475Y-95942632D01*
X160065990Y-95699411D01*
X160177932Y-95429158D01*
X160235000Y-95142260D01*
X160235000Y-94849740D01*
X160177932Y-94562842D01*
X160065990Y-94292589D01*
X159903475Y-94049368D01*
X159696632Y-93842525D01*
X159514466Y-93720805D01*
X159631355Y-93651178D01*
X159847588Y-93456269D01*
X160021641Y-93222920D01*
X160146825Y-92960099D01*
X160191476Y-92812890D01*
X160070155Y-92583000D01*
X158877000Y-92583000D01*
X158877000Y-92603000D01*
X158623000Y-92603000D01*
X158623000Y-92583000D01*
X157429845Y-92583000D01*
X157308524Y-92812890D01*
X157353175Y-92960099D01*
X157478359Y-93222920D01*
X157652412Y-93456269D01*
X157868645Y-93651178D01*
X157985534Y-93720805D01*
X157803368Y-93842525D01*
X157596525Y-94049368D01*
X157434010Y-94292589D01*
X157322068Y-94562842D01*
X157265000Y-94849740D01*
X157265000Y-95142260D01*
X157322068Y-95429158D01*
X157434010Y-95699411D01*
X157596525Y-95942632D01*
X157803368Y-96149475D01*
X157977760Y-96266000D01*
X157803368Y-96382525D01*
X157596525Y-96589368D01*
X157434010Y-96832589D01*
X157322068Y-97102842D01*
X157265000Y-97389740D01*
X157265000Y-97682260D01*
X157308791Y-97902408D01*
X157020209Y-98190990D01*
X156873326Y-98190990D01*
X156968367Y-97967818D01*
X156985904Y-97885039D01*
X156863915Y-97663000D01*
X155321000Y-97663000D01*
X155321000Y-97683000D01*
X155067000Y-97683000D01*
X155067000Y-97663000D01*
X153524085Y-97663000D01*
X153402096Y-97885039D01*
X153419633Y-97967818D01*
X153514674Y-98190990D01*
X147646332Y-98190990D01*
X147609009Y-98187314D01*
X147571686Y-98190990D01*
X147571677Y-98190990D01*
X147460024Y-98201987D01*
X147316763Y-98245444D01*
X147184734Y-98316016D01*
X147184732Y-98316017D01*
X147184733Y-98316017D01*
X147098006Y-98387191D01*
X147098002Y-98387195D01*
X147069009Y-98410989D01*
X147045215Y-98439982D01*
X146439986Y-99045212D01*
X146235101Y-98877068D01*
X146102142Y-98806000D01*
X146235101Y-98734932D01*
X146453608Y-98555608D01*
X146632932Y-98337101D01*
X146766182Y-98087808D01*
X146848236Y-97817309D01*
X146875943Y-97536000D01*
X146848236Y-97254691D01*
X146766182Y-96984192D01*
X146632932Y-96734899D01*
X146453608Y-96516392D01*
X146235101Y-96337068D01*
X146102142Y-96266000D01*
X146235101Y-96194932D01*
X146453608Y-96015608D01*
X146632932Y-95797101D01*
X146766182Y-95547808D01*
X146827690Y-95345039D01*
X153402096Y-95345039D01*
X153419633Y-95427818D01*
X153530285Y-95687646D01*
X153689500Y-95920895D01*
X153891161Y-96118601D01*
X154116559Y-96266000D01*
X153891161Y-96413399D01*
X153689500Y-96611105D01*
X153530285Y-96844354D01*
X153419633Y-97104182D01*
X153402096Y-97186961D01*
X153524085Y-97409000D01*
X155067000Y-97409000D01*
X155067000Y-95123000D01*
X155321000Y-95123000D01*
X155321000Y-97409000D01*
X156863915Y-97409000D01*
X156985904Y-97186961D01*
X156968367Y-97104182D01*
X156857715Y-96844354D01*
X156698500Y-96611105D01*
X156496839Y-96413399D01*
X156271441Y-96266000D01*
X156496839Y-96118601D01*
X156698500Y-95920895D01*
X156857715Y-95687646D01*
X156968367Y-95427818D01*
X156985904Y-95345039D01*
X156863915Y-95123000D01*
X155321000Y-95123000D01*
X155067000Y-95123000D01*
X153524085Y-95123000D01*
X153402096Y-95345039D01*
X146827690Y-95345039D01*
X146848236Y-95277309D01*
X146875943Y-94996000D01*
X146848236Y-94714691D01*
X146766182Y-94444192D01*
X146632932Y-94194899D01*
X146453608Y-93976392D01*
X146235101Y-93797068D01*
X146102142Y-93726000D01*
X146235101Y-93654932D01*
X146453608Y-93475608D01*
X146632932Y-93257101D01*
X146766182Y-93007808D01*
X146848236Y-92737309D01*
X146875943Y-92456000D01*
X146848236Y-92174691D01*
X146766182Y-91904192D01*
X146632932Y-91654899D01*
X146453608Y-91436392D01*
X146235101Y-91257068D01*
X146102142Y-91186000D01*
X146235101Y-91114932D01*
X146453608Y-90935608D01*
X146632932Y-90717101D01*
X146766182Y-90467808D01*
X146848236Y-90197309D01*
X146875943Y-89916000D01*
X146848236Y-89634691D01*
X146766182Y-89364192D01*
X146632932Y-89114899D01*
X146453608Y-88896392D01*
X146235101Y-88717068D01*
X146102142Y-88646000D01*
X146235101Y-88574932D01*
X146453608Y-88395608D01*
X146632932Y-88177101D01*
X146766182Y-87927808D01*
X146848236Y-87657309D01*
X146875943Y-87376000D01*
X146848236Y-87094691D01*
X146766182Y-86824192D01*
X146632932Y-86574899D01*
X146453608Y-86356392D01*
X146235101Y-86177068D01*
X146102142Y-86106000D01*
X146235101Y-86034932D01*
X146453608Y-85855608D01*
X146632932Y-85637101D01*
X146654901Y-85596000D01*
X147005199Y-85596000D01*
X150711195Y-89301998D01*
X150734989Y-89330991D01*
X150763982Y-89354785D01*
X150763986Y-89354789D01*
X150819077Y-89400000D01*
X150850714Y-89425964D01*
X150982743Y-89496536D01*
X151126004Y-89539993D01*
X151237657Y-89550990D01*
X151237666Y-89550990D01*
X151274989Y-89554666D01*
X151312312Y-89550990D01*
X153405154Y-89550990D01*
X153379764Y-89634691D01*
X153352057Y-89916000D01*
X153379764Y-90197309D01*
X153461818Y-90467808D01*
X153595068Y-90717101D01*
X153774392Y-90935608D01*
X153992899Y-91114932D01*
X154125858Y-91186000D01*
X153992899Y-91257068D01*
X153774392Y-91436392D01*
X153595068Y-91654899D01*
X153461818Y-91904192D01*
X153379764Y-92174691D01*
X153352057Y-92456000D01*
X153379764Y-92737309D01*
X153461818Y-93007808D01*
X153595068Y-93257101D01*
X153774392Y-93475608D01*
X153992899Y-93654932D01*
X154120741Y-93723265D01*
X153891161Y-93873399D01*
X153689500Y-94071105D01*
X153530285Y-94304354D01*
X153419633Y-94564182D01*
X153402096Y-94646961D01*
X153524085Y-94869000D01*
X155067000Y-94869000D01*
X155067000Y-94849000D01*
X155321000Y-94849000D01*
X155321000Y-94869000D01*
X156863915Y-94869000D01*
X156985904Y-94646961D01*
X156968367Y-94564182D01*
X156857715Y-94304354D01*
X156698500Y-94071105D01*
X156496839Y-93873399D01*
X156267259Y-93723265D01*
X156395101Y-93654932D01*
X156613608Y-93475608D01*
X156792932Y-93257101D01*
X156926182Y-93007808D01*
X157008236Y-92737309D01*
X157035943Y-92456000D01*
X157008236Y-92174691D01*
X156926182Y-91904192D01*
X156792932Y-91654899D01*
X156613608Y-91436392D01*
X156395101Y-91257068D01*
X156262142Y-91186000D01*
X156395101Y-91114932D01*
X156613608Y-90935608D01*
X156792932Y-90717101D01*
X156926182Y-90467808D01*
X157008236Y-90197309D01*
X157035943Y-89916000D01*
X157008236Y-89634691D01*
X156982846Y-89550990D01*
X157308512Y-89550990D01*
X157265000Y-89769740D01*
X157265000Y-90062260D01*
X157322068Y-90349158D01*
X157434010Y-90619411D01*
X157596525Y-90862632D01*
X157803368Y-91069475D01*
X157985534Y-91191195D01*
X157868645Y-91260822D01*
X157652412Y-91455731D01*
X157478359Y-91689080D01*
X157353175Y-91951901D01*
X157308524Y-92099110D01*
X157429845Y-92329000D01*
X158623000Y-92329000D01*
X158623000Y-92309000D01*
X158877000Y-92309000D01*
X158877000Y-92329000D01*
X160070155Y-92329000D01*
X160191476Y-92099110D01*
X160146825Y-91951901D01*
X160021641Y-91689080D01*
X159847588Y-91455731D01*
X159631355Y-91260822D01*
X159514466Y-91191195D01*
X159696632Y-91069475D01*
X159903475Y-90862632D01*
X160065990Y-90619411D01*
X160177932Y-90349158D01*
X160235000Y-90062260D01*
X160235000Y-89769740D01*
X160177932Y-89482842D01*
X160065990Y-89212589D01*
X159903475Y-88969368D01*
X159696632Y-88762525D01*
X159522240Y-88646000D01*
X159696632Y-88529475D01*
X159903475Y-88322632D01*
X160065990Y-88079411D01*
X160177932Y-87809158D01*
X160235000Y-87522260D01*
X160235000Y-87229740D01*
X160177932Y-86942842D01*
X160065990Y-86672589D01*
X159903475Y-86429368D01*
X159696632Y-86222525D01*
X159522240Y-86106000D01*
X159696632Y-85989475D01*
X159903475Y-85782632D01*
X160065990Y-85539411D01*
X160177932Y-85269158D01*
X160235000Y-84982260D01*
X160235000Y-84689740D01*
X160177932Y-84402842D01*
X160065990Y-84132589D01*
X159903475Y-83889368D01*
X159696632Y-83682525D01*
X159453411Y-83520010D01*
X159183158Y-83408068D01*
X158896260Y-83351000D01*
X158603740Y-83351000D01*
X158316842Y-83408068D01*
X158046589Y-83520010D01*
X157803368Y-83682525D01*
X157596525Y-83889368D01*
X157434010Y-84132589D01*
X157322068Y-84402842D01*
X157265000Y-84689740D01*
X157265000Y-84982260D01*
X157322068Y-85269158D01*
X157434010Y-85539411D01*
X157596525Y-85782632D01*
X157803368Y-85989475D01*
X157977760Y-86106000D01*
X157803368Y-86222525D01*
X157596525Y-86429368D01*
X157434010Y-86672589D01*
X157322068Y-86942842D01*
X157265000Y-87229740D01*
X157265000Y-87522260D01*
X157322068Y-87809158D01*
X157413953Y-88030990D01*
X156871030Y-88030990D01*
X156926182Y-87927808D01*
X157008236Y-87657309D01*
X157035943Y-87376000D01*
X157008236Y-87094691D01*
X156926182Y-86824192D01*
X156792932Y-86574899D01*
X156613608Y-86356392D01*
X156395101Y-86177068D01*
X156267259Y-86108735D01*
X156496839Y-85958601D01*
X156698500Y-85760895D01*
X156857715Y-85527646D01*
X156968367Y-85267818D01*
X156985904Y-85185039D01*
X156863915Y-84963000D01*
X155321000Y-84963000D01*
X155321000Y-84983000D01*
X155067000Y-84983000D01*
X155067000Y-84963000D01*
X153524085Y-84963000D01*
X153402096Y-85185039D01*
X153419633Y-85267818D01*
X153530285Y-85527646D01*
X153689500Y-85760895D01*
X153891161Y-85958601D01*
X154120741Y-86108735D01*
X153992899Y-86177068D01*
X153774392Y-86356392D01*
X153595068Y-86574899D01*
X153461818Y-86824192D01*
X153379764Y-87094691D01*
X153352057Y-87376000D01*
X153379764Y-87657309D01*
X153461818Y-87927808D01*
X153516970Y-88030990D01*
X151589793Y-88030990D01*
X148045763Y-84486961D01*
X153402096Y-84486961D01*
X153524085Y-84709000D01*
X155067000Y-84709000D01*
X155067000Y-83401000D01*
X155321000Y-83401000D01*
X155321000Y-84709000D01*
X156863915Y-84709000D01*
X156985904Y-84486961D01*
X156968367Y-84404182D01*
X156857715Y-84144354D01*
X156698500Y-83911105D01*
X156496839Y-83713399D01*
X156260483Y-83558834D01*
X155998514Y-83453350D01*
X155721000Y-83401000D01*
X155321000Y-83401000D01*
X155067000Y-83401000D01*
X154667000Y-83401000D01*
X154389486Y-83453350D01*
X154127517Y-83558834D01*
X153891161Y-83713399D01*
X153689500Y-83911105D01*
X153530285Y-84144354D01*
X153419633Y-84404182D01*
X153402096Y-84486961D01*
X148045763Y-84486961D01*
X147883804Y-84325003D01*
X147860001Y-84295999D01*
X147744276Y-84201026D01*
X147612247Y-84130454D01*
X147468986Y-84086997D01*
X147357333Y-84076000D01*
X147357322Y-84076000D01*
X147320000Y-84072324D01*
X147282678Y-84076000D01*
X146654901Y-84076000D01*
X146632932Y-84034899D01*
X146453608Y-83816392D01*
X146235101Y-83637068D01*
X145985808Y-83503818D01*
X145715309Y-83421764D01*
X145504492Y-83401000D01*
X144563508Y-83401000D01*
X144352691Y-83421764D01*
X144082192Y-83503818D01*
X143832899Y-83637068D01*
X143614392Y-83816392D01*
X143435068Y-84034899D01*
X143301818Y-84284192D01*
X143219764Y-84554691D01*
X143192057Y-84836000D01*
X143219764Y-85117309D01*
X143301818Y-85387808D01*
X143435068Y-85637101D01*
X143614392Y-85855608D01*
X143832899Y-86034932D01*
X143965858Y-86106000D01*
X143832899Y-86177068D01*
X143614392Y-86356392D01*
X143435068Y-86574899D01*
X143301818Y-86824192D01*
X143219764Y-87094691D01*
X143192057Y-87376000D01*
X143219764Y-87657309D01*
X143301818Y-87927808D01*
X143435068Y-88177101D01*
X143614392Y-88395608D01*
X143832899Y-88574932D01*
X143965858Y-88646000D01*
X143832899Y-88717068D01*
X143614392Y-88896392D01*
X143435068Y-89114899D01*
X143301818Y-89364192D01*
X143219764Y-89634691D01*
X143192057Y-89916000D01*
X143219764Y-90197309D01*
X143301818Y-90467808D01*
X143435068Y-90717101D01*
X143614392Y-90935608D01*
X143832899Y-91114932D01*
X143965858Y-91186000D01*
X143832899Y-91257068D01*
X143614392Y-91436392D01*
X143435068Y-91654899D01*
X143301818Y-91904192D01*
X143219764Y-92174691D01*
X143192057Y-92456000D01*
X143219764Y-92737309D01*
X143301818Y-93007808D01*
X143435068Y-93257101D01*
X143614392Y-93475608D01*
X143832899Y-93654932D01*
X143965858Y-93726000D01*
X143832899Y-93797068D01*
X143614392Y-93976392D01*
X143435068Y-94194899D01*
X143301818Y-94444192D01*
X143219764Y-94714691D01*
X143192057Y-94996000D01*
X143219764Y-95277309D01*
X143301818Y-95547808D01*
X143435068Y-95797101D01*
X143614392Y-96015608D01*
X143832899Y-96194932D01*
X143965858Y-96266000D01*
X143832899Y-96337068D01*
X143614392Y-96516392D01*
X143435068Y-96734899D01*
X143301818Y-96984192D01*
X143219764Y-97254691D01*
X143192057Y-97536000D01*
X143219764Y-97817309D01*
X143301818Y-98087808D01*
X143435068Y-98337101D01*
X143614392Y-98555608D01*
X143832899Y-98734932D01*
X143965858Y-98806000D01*
X143832899Y-98877068D01*
X143614392Y-99056392D01*
X143435068Y-99274899D01*
X143413099Y-99316000D01*
X140014802Y-99316000D01*
X133151804Y-92453003D01*
X133128001Y-92423999D01*
X133012276Y-92329026D01*
X132880247Y-92258454D01*
X132736986Y-92214997D01*
X132625333Y-92204000D01*
X132625322Y-92204000D01*
X132588000Y-92200324D01*
X132550678Y-92204000D01*
X128207711Y-92204000D01*
X128311937Y-92099774D01*
X128425205Y-91930256D01*
X128503226Y-91741898D01*
X128543000Y-91541939D01*
X128543000Y-91338061D01*
X128503226Y-91138102D01*
X128425205Y-90949744D01*
X128311937Y-90780226D01*
X128167774Y-90636063D01*
X127998256Y-90522795D01*
X127809898Y-90444774D01*
X127609939Y-90405000D01*
X127406061Y-90405000D01*
X127206102Y-90444774D01*
X127017744Y-90522795D01*
X126848226Y-90636063D01*
X126804289Y-90680000D01*
X121978103Y-90680000D01*
X121961563Y-90677456D01*
X121903411Y-90680000D01*
X121882667Y-90680000D01*
X121866091Y-90681633D01*
X121811999Y-90683999D01*
X121791758Y-90688954D01*
X121771014Y-90690997D01*
X121719180Y-90706720D01*
X121666586Y-90719595D01*
X121647702Y-90728403D01*
X121627753Y-90734454D01*
X121579991Y-90759983D01*
X121530911Y-90782875D01*
X121514101Y-90795203D01*
X121495724Y-90805026D01*
X121453863Y-90839380D01*
X121410189Y-90871410D01*
X121396110Y-90886777D01*
X121379999Y-90899999D01*
X121345648Y-90941856D01*
X121334399Y-90954134D01*
X121321956Y-90970724D01*
X121285026Y-91015724D01*
X121277136Y-91030484D01*
X119797971Y-93002707D01*
X119761026Y-93047725D01*
X119735492Y-93095495D01*
X119707407Y-93141787D01*
X119700282Y-93161367D01*
X119690454Y-93179754D01*
X119674733Y-93231579D01*
X119656215Y-93282470D01*
X119653046Y-93303074D01*
X119646997Y-93323015D01*
X119641688Y-93376916D01*
X119633456Y-93430437D01*
X119636000Y-93488589D01*
X119636001Y-95974667D01*
X119632324Y-96012000D01*
X119124000Y-96012000D01*
X119124000Y-91706320D01*
X119127676Y-91668997D01*
X119124000Y-91631674D01*
X119124000Y-91631665D01*
X119113003Y-91520012D01*
X119069546Y-91376751D01*
X118998974Y-91244722D01*
X118904001Y-91128997D01*
X118875003Y-91105199D01*
X107363805Y-79594002D01*
X107340002Y-79564998D01*
X107224277Y-79470025D01*
X107093271Y-79400000D01*
X160630000Y-79400000D01*
X160630001Y-131420000D01*
X140226988Y-131420000D01*
X140227000Y-131419939D01*
X140227000Y-131216061D01*
X140187226Y-131016102D01*
X140109205Y-130827744D01*
X139995937Y-130658226D01*
X139851774Y-130514063D01*
X139682256Y-130400795D01*
X139493898Y-130322774D01*
X139293939Y-130283000D01*
X139090061Y-130283000D01*
X138902072Y-130320393D01*
X138902072Y-129452000D01*
X138889812Y-129327518D01*
X138853502Y-129207820D01*
X138794537Y-129097506D01*
X138715185Y-129000815D01*
X138618494Y-128921463D01*
X138508180Y-128862498D01*
X138435620Y-128840487D01*
X138567475Y-128708632D01*
X138729990Y-128465411D01*
X138841932Y-128195158D01*
X138899000Y-127908260D01*
X138899000Y-127615740D01*
X138841932Y-127328842D01*
X138729990Y-127058589D01*
X138567475Y-126815368D01*
X138360632Y-126608525D01*
X138186240Y-126492000D01*
X138360632Y-126375475D01*
X138567475Y-126168632D01*
X138729990Y-125925411D01*
X138841932Y-125655158D01*
X138899000Y-125368260D01*
X138899000Y-125075740D01*
X138877164Y-124965966D01*
X139173000Y-125261802D01*
X139173000Y-125323939D01*
X139212774Y-125523898D01*
X139290795Y-125712256D01*
X139404063Y-125881774D01*
X139548226Y-126025937D01*
X139717744Y-126139205D01*
X139906102Y-126217226D01*
X140106061Y-126257000D01*
X140309939Y-126257000D01*
X140509898Y-126217226D01*
X140698256Y-126139205D01*
X140867774Y-126025937D01*
X141011937Y-125881774D01*
X141125205Y-125712256D01*
X141203226Y-125523898D01*
X141243000Y-125323939D01*
X141243000Y-125120061D01*
X141203226Y-124920102D01*
X141125205Y-124731744D01*
X141011937Y-124562226D01*
X140867774Y-124418063D01*
X140698256Y-124304795D01*
X140509898Y-124226774D01*
X140309939Y-124187000D01*
X140247802Y-124187000D01*
X139113210Y-123052408D01*
X147955000Y-123052408D01*
X147955000Y-123327592D01*
X148008686Y-123597490D01*
X148113995Y-123851727D01*
X148266880Y-124080535D01*
X148461465Y-124275120D01*
X148690273Y-124428005D01*
X148944510Y-124533314D01*
X149214408Y-124587000D01*
X149489592Y-124587000D01*
X149759490Y-124533314D01*
X150013727Y-124428005D01*
X150242535Y-124275120D01*
X150362090Y-124155565D01*
X151106040Y-124155565D01*
X151173020Y-124395656D01*
X151422048Y-124512756D01*
X151689135Y-124579023D01*
X151964017Y-124591910D01*
X152236133Y-124550922D01*
X152495023Y-124457636D01*
X152610980Y-124395656D01*
X152677960Y-124155565D01*
X151892000Y-123369605D01*
X151106040Y-124155565D01*
X150362090Y-124155565D01*
X150437120Y-124080535D01*
X150590005Y-123851727D01*
X150619692Y-123780057D01*
X150624364Y-123793023D01*
X150686344Y-123908980D01*
X150926435Y-123975960D01*
X151712395Y-123190000D01*
X152071605Y-123190000D01*
X152857565Y-123975960D01*
X153097656Y-123908980D01*
X153161485Y-123773240D01*
X153193995Y-123851727D01*
X153346880Y-124080535D01*
X153541465Y-124275120D01*
X153770273Y-124428005D01*
X154024510Y-124533314D01*
X154294408Y-124587000D01*
X154569592Y-124587000D01*
X154839490Y-124533314D01*
X155093727Y-124428005D01*
X155322535Y-124275120D01*
X155517120Y-124080535D01*
X155670005Y-123851727D01*
X155775314Y-123597490D01*
X155829000Y-123327592D01*
X155829000Y-123052408D01*
X155775314Y-122782510D01*
X155670005Y-122528273D01*
X155517120Y-122299465D01*
X155322535Y-122104880D01*
X155093727Y-121951995D01*
X154839490Y-121846686D01*
X154569592Y-121793000D01*
X154294408Y-121793000D01*
X154024510Y-121846686D01*
X153770273Y-121951995D01*
X153541465Y-122104880D01*
X153346880Y-122299465D01*
X153193995Y-122528273D01*
X153164308Y-122599943D01*
X153159636Y-122586977D01*
X153097656Y-122471020D01*
X152857565Y-122404040D01*
X152071605Y-123190000D01*
X151712395Y-123190000D01*
X150926435Y-122404040D01*
X150686344Y-122471020D01*
X150622515Y-122606760D01*
X150590005Y-122528273D01*
X150437120Y-122299465D01*
X150362090Y-122224435D01*
X151106040Y-122224435D01*
X151892000Y-123010395D01*
X152677960Y-122224435D01*
X152610980Y-121984344D01*
X152361952Y-121867244D01*
X152094865Y-121800977D01*
X151819983Y-121788090D01*
X151547867Y-121829078D01*
X151288977Y-121922364D01*
X151173020Y-121984344D01*
X151106040Y-122224435D01*
X150362090Y-122224435D01*
X150242535Y-122104880D01*
X150013727Y-121951995D01*
X149759490Y-121846686D01*
X149489592Y-121793000D01*
X149214408Y-121793000D01*
X148944510Y-121846686D01*
X148690273Y-121951995D01*
X148461465Y-122104880D01*
X148266880Y-122299465D01*
X148113995Y-122528273D01*
X148008686Y-122782510D01*
X147955000Y-123052408D01*
X139113210Y-123052408D01*
X137469804Y-121409003D01*
X137446001Y-121379999D01*
X137330276Y-121285026D01*
X137198247Y-121214454D01*
X137054986Y-121170997D01*
X136943333Y-121160000D01*
X136943322Y-121160000D01*
X136906000Y-121156324D01*
X136868678Y-121160000D01*
X120083711Y-121160000D01*
X120039774Y-121116063D01*
X119870256Y-121002795D01*
X119681898Y-120924774D01*
X119481939Y-120885000D01*
X119278061Y-120885000D01*
X119078102Y-120924774D01*
X118889744Y-121002795D01*
X118720226Y-121116063D01*
X118576063Y-121260226D01*
X118462795Y-121429744D01*
X118384774Y-121618102D01*
X118345000Y-121818061D01*
X118345000Y-122021939D01*
X118378039Y-122188039D01*
X118211939Y-122155000D01*
X118008061Y-122155000D01*
X117808102Y-122194774D01*
X117619744Y-122272795D01*
X117450226Y-122386063D01*
X117306063Y-122530226D01*
X117192795Y-122699744D01*
X117114774Y-122888102D01*
X117075000Y-123088061D01*
X117075000Y-123291939D01*
X117114774Y-123491898D01*
X117192795Y-123680256D01*
X117306063Y-123849774D01*
X117350000Y-123893711D01*
X117350000Y-124422677D01*
X117346324Y-124460000D01*
X117350000Y-124497322D01*
X117350000Y-124497332D01*
X117360997Y-124608985D01*
X117398235Y-124731744D01*
X117404454Y-124752246D01*
X117475026Y-124884276D01*
X117504428Y-124920102D01*
X117569999Y-125000001D01*
X117599003Y-125023804D01*
X123995198Y-131420000D01*
X97180000Y-131420000D01*
X97180000Y-79400000D01*
X100196729Y-79400000D01*
X100065723Y-79470025D01*
M02*
