G04 #@! TF.FileFunction,Legend,Bot*
%FSLAX46Y46*%
G04 Gerber Fmt 4.6, Leading zero omitted, Abs format (unit mm)*
G04 Created by KiCad (PCBNEW (2015-11-24 BZR 6329)-product) date Wed 21 Sep 2016 04:06:59 AM EDT*
%MOMM*%
G01*
G04 APERTURE LIST*
%ADD10C,0.100000*%
%ADD11C,0.300000*%
G04 APERTURE END LIST*
D10*
D11*
X146643428Y-104397714D02*
X146757714Y-104454857D01*
X146986285Y-104454857D01*
X147100571Y-104397714D01*
X147157714Y-104283429D01*
X147157714Y-103826286D01*
X147100571Y-103712000D01*
X146986285Y-103654857D01*
X146757714Y-103654857D01*
X146643428Y-103712000D01*
X146586285Y-103826286D01*
X146586285Y-103940571D01*
X147157714Y-104054857D01*
X146129143Y-104397714D02*
X146014857Y-104454857D01*
X145786285Y-104454857D01*
X145672000Y-104397714D01*
X145614857Y-104283429D01*
X145614857Y-104226286D01*
X145672000Y-104112000D01*
X145786285Y-104054857D01*
X145957714Y-104054857D01*
X146072000Y-103997714D01*
X146129143Y-103883429D01*
X146129143Y-103826286D01*
X146072000Y-103712000D01*
X145957714Y-103654857D01*
X145786285Y-103654857D01*
X145672000Y-103712000D01*
X145100571Y-103654857D02*
X145100571Y-104854857D01*
X145100571Y-103712000D02*
X144986285Y-103654857D01*
X144757714Y-103654857D01*
X144643428Y-103712000D01*
X144586285Y-103769143D01*
X144529142Y-103883429D01*
X144529142Y-104226286D01*
X144586285Y-104340571D01*
X144643428Y-104397714D01*
X144757714Y-104454857D01*
X144986285Y-104454857D01*
X145100571Y-104397714D01*
X143500571Y-103654857D02*
X143500571Y-104454857D01*
X144014857Y-103654857D02*
X144014857Y-104283429D01*
X143957714Y-104397714D01*
X143843428Y-104454857D01*
X143672000Y-104454857D01*
X143557714Y-104397714D01*
X143500571Y-104340571D01*
X142986286Y-104397714D02*
X142872000Y-104454857D01*
X142643428Y-104454857D01*
X142529143Y-104397714D01*
X142472000Y-104283429D01*
X142472000Y-104226286D01*
X142529143Y-104112000D01*
X142643428Y-104054857D01*
X142814857Y-104054857D01*
X142929143Y-103997714D01*
X142986286Y-103883429D01*
X142986286Y-103826286D01*
X142929143Y-103712000D01*
X142814857Y-103654857D01*
X142643428Y-103654857D01*
X142529143Y-103712000D01*
X141957714Y-104454857D02*
X141957714Y-103254857D01*
X141957714Y-103712000D02*
X141843428Y-103654857D01*
X141614857Y-103654857D01*
X141500571Y-103712000D01*
X141443428Y-103769143D01*
X141386285Y-103883429D01*
X141386285Y-104226286D01*
X141443428Y-104340571D01*
X141500571Y-104397714D01*
X141614857Y-104454857D01*
X141843428Y-104454857D01*
X141957714Y-104397714D01*
X148757714Y-105806286D02*
X148586285Y-105863429D01*
X148529142Y-105920571D01*
X148471999Y-106034857D01*
X148471999Y-106206286D01*
X148529142Y-106320571D01*
X148586285Y-106377714D01*
X148700571Y-106434857D01*
X149157714Y-106434857D01*
X149157714Y-105234857D01*
X148757714Y-105234857D01*
X148643428Y-105292000D01*
X148586285Y-105349143D01*
X148529142Y-105463429D01*
X148529142Y-105577714D01*
X148586285Y-105692000D01*
X148643428Y-105749143D01*
X148757714Y-105806286D01*
X149157714Y-105806286D01*
X147957714Y-106434857D02*
X147957714Y-105234857D01*
X147557714Y-106092000D01*
X147157714Y-105234857D01*
X147157714Y-106434857D01*
X146586285Y-105806286D02*
X146186285Y-105806286D01*
X146014856Y-106434857D02*
X146586285Y-106434857D01*
X146586285Y-105234857D01*
X146014856Y-105234857D01*
X145557714Y-105349143D02*
X145500571Y-105292000D01*
X145386285Y-105234857D01*
X145100571Y-105234857D01*
X144986285Y-105292000D01*
X144929142Y-105349143D01*
X144871999Y-105463429D01*
X144871999Y-105577714D01*
X144929142Y-105749143D01*
X145614856Y-106434857D01*
X144871999Y-106434857D01*
X144186285Y-105749143D02*
X144300571Y-105692000D01*
X144357714Y-105634857D01*
X144414857Y-105520571D01*
X144414857Y-105463429D01*
X144357714Y-105349143D01*
X144300571Y-105292000D01*
X144186285Y-105234857D01*
X143957714Y-105234857D01*
X143843428Y-105292000D01*
X143786285Y-105349143D01*
X143729142Y-105463429D01*
X143729142Y-105520571D01*
X143786285Y-105634857D01*
X143843428Y-105692000D01*
X143957714Y-105749143D01*
X144186285Y-105749143D01*
X144300571Y-105806286D01*
X144357714Y-105863429D01*
X144414857Y-105977714D01*
X144414857Y-106206286D01*
X144357714Y-106320571D01*
X144300571Y-106377714D01*
X144186285Y-106434857D01*
X143957714Y-106434857D01*
X143843428Y-106377714D01*
X143786285Y-106320571D01*
X143729142Y-106206286D01*
X143729142Y-105977714D01*
X143786285Y-105863429D01*
X143843428Y-105806286D01*
X143957714Y-105749143D01*
X142986285Y-105234857D02*
X142872000Y-105234857D01*
X142757714Y-105292000D01*
X142700571Y-105349143D01*
X142643428Y-105463429D01*
X142586285Y-105692000D01*
X142586285Y-105977714D01*
X142643428Y-106206286D01*
X142700571Y-106320571D01*
X142757714Y-106377714D01*
X142872000Y-106434857D01*
X142986285Y-106434857D01*
X143100571Y-106377714D01*
X143157714Y-106320571D01*
X143214857Y-106206286D01*
X143272000Y-105977714D01*
X143272000Y-105692000D01*
X143214857Y-105463429D01*
X143157714Y-105349143D01*
X143100571Y-105292000D01*
X142986285Y-105234857D01*
X141157714Y-106434857D02*
X141157714Y-105234857D01*
X140586285Y-105634857D02*
X140586285Y-106434857D01*
X140586285Y-105749143D02*
X140529142Y-105692000D01*
X140414856Y-105634857D01*
X140243428Y-105634857D01*
X140129142Y-105692000D01*
X140071999Y-105806286D01*
X140071999Y-106434857D01*
X139671999Y-105634857D02*
X139214856Y-105634857D01*
X139500571Y-105234857D02*
X139500571Y-106263429D01*
X139443428Y-106377714D01*
X139329142Y-106434857D01*
X139214856Y-106434857D01*
M02*
