G04 #@! TF.FileFunction,Copper,L1,Top,Signal*
%FSLAX46Y46*%
G04 Gerber Fmt 4.6, Leading zero omitted, Abs format (unit mm)*
G04 Created by KiCad (PCBNEW (2015-11-24 BZR 6329)-product) date Wed 21 Sep 2016 04:02:30 AM EDT*
%MOMM*%
G01*
G04 APERTURE LIST*
%ADD10C,0.100000*%
%ADD11R,1.500000X1.250000*%
%ADD12R,1.727200X1.727200*%
%ADD13O,1.727200X1.727200*%
%ADD14R,1.200000X0.900000*%
%ADD15R,0.500000X0.350000*%
%ADD16C,0.600000*%
%ADD17C,0.250000*%
%ADD18C,0.254000*%
G04 APERTURE END LIST*
D10*
D11*
X142728000Y-102616000D03*
X140228000Y-102616000D03*
D12*
X140462000Y-93726000D03*
D13*
X140462000Y-96266000D03*
X143002000Y-93726000D03*
X143002000Y-96266000D03*
X145542000Y-93726000D03*
X145542000Y-96266000D03*
X148082000Y-93726000D03*
X148082000Y-96266000D03*
D14*
X148674000Y-101346000D03*
X146474000Y-101346000D03*
X148674000Y-99568000D03*
X146474000Y-99568000D03*
D15*
X145297000Y-104672000D03*
X145297000Y-105322000D03*
X145297000Y-105972000D03*
X145297000Y-106622000D03*
X143247000Y-106622000D03*
X143247000Y-105972000D03*
X143247000Y-105322000D03*
X143247000Y-104672000D03*
D16*
X146050000Y-105156000D03*
X148590000Y-102616000D03*
X143764000Y-102616000D03*
D17*
X145297000Y-105322000D02*
X145884000Y-105322000D01*
X145884000Y-105322000D02*
X146050000Y-105156000D01*
X142728000Y-102616000D02*
X143764000Y-102616000D01*
X148674000Y-102532000D02*
X148674000Y-101346000D01*
X148590000Y-102616000D02*
X148674000Y-102532000D01*
X143247000Y-104672000D02*
X143247000Y-103135000D01*
X143247000Y-103135000D02*
X142728000Y-102616000D01*
X143247000Y-105972000D02*
X142548000Y-105972000D01*
X142470000Y-104672000D02*
X143247000Y-104672000D01*
X142240000Y-104902000D02*
X142470000Y-104672000D01*
X142240000Y-105664000D02*
X142240000Y-104902000D01*
X142548000Y-105972000D02*
X142240000Y-105664000D01*
X148674000Y-99568000D02*
X148674000Y-98468000D01*
X149606000Y-95250000D02*
X148082000Y-93726000D01*
X149606000Y-97536000D02*
X149606000Y-95250000D01*
X148674000Y-98468000D02*
X149606000Y-97536000D01*
X148674000Y-101092000D02*
X148674000Y-99568000D01*
X145297000Y-105972000D02*
X146504000Y-105972000D01*
X145288000Y-100584000D02*
X145288000Y-102362000D01*
X145288000Y-100584000D02*
X146304000Y-99568000D01*
X145796000Y-102870000D02*
X145288000Y-102362000D01*
X146500002Y-102870000D02*
X145796000Y-102870000D01*
X146812000Y-103181998D02*
X146500002Y-102870000D01*
X146812000Y-105664000D02*
X146812000Y-103181998D01*
X146504000Y-105972000D02*
X146812000Y-105664000D01*
X146474000Y-99568000D02*
X146474000Y-99230000D01*
X146474000Y-99230000D02*
X145796000Y-98552000D01*
X141732000Y-94996000D02*
X140462000Y-93726000D01*
X141732000Y-97536000D02*
X141732000Y-94996000D01*
X142748000Y-98552000D02*
X141732000Y-97536000D01*
X145796000Y-98552000D02*
X142748000Y-98552000D01*
X146474000Y-99568000D02*
X146304000Y-99568000D01*
X145297000Y-106622000D02*
X146616000Y-106622000D01*
X147320000Y-102192000D02*
X146474000Y-101346000D01*
X147320000Y-105918000D02*
X147320000Y-102192000D01*
X146616000Y-106622000D02*
X147320000Y-105918000D01*
X146474000Y-101346000D02*
X146812000Y-101346000D01*
X146812000Y-101346000D02*
X147574000Y-100584000D01*
X144272000Y-94996000D02*
X143002000Y-93726000D01*
X144272000Y-97282000D02*
X144272000Y-94996000D01*
X145034000Y-98044000D02*
X144272000Y-97282000D01*
X146812000Y-98044000D02*
X145034000Y-98044000D01*
X147574000Y-98806000D02*
X146812000Y-98044000D01*
X147574000Y-100584000D02*
X147574000Y-98806000D01*
D18*
G36*
X149404000Y-94332408D02*
X149259169Y-94187577D01*
X149350983Y-93726000D01*
X149256243Y-93249712D01*
X148986448Y-92845935D01*
X148582671Y-92576140D01*
X148106383Y-92481400D01*
X148057617Y-92481400D01*
X147581329Y-92576140D01*
X147177552Y-92845935D01*
X146907757Y-93249712D01*
X146813017Y-93726000D01*
X146907757Y-94202288D01*
X147177552Y-94606065D01*
X147581329Y-94875860D01*
X148057617Y-94970600D01*
X148106383Y-94970600D01*
X148527285Y-94886877D01*
X149100000Y-95459592D01*
X149100000Y-95574849D01*
X148837199Y-95276690D01*
X148401120Y-95062995D01*
X148209000Y-95123135D01*
X148209000Y-96139000D01*
X148229000Y-96139000D01*
X148229000Y-96393000D01*
X148209000Y-96393000D01*
X148209000Y-97408865D01*
X148401120Y-97469005D01*
X148837199Y-97255310D01*
X149100000Y-96957151D01*
X149100000Y-97326408D01*
X148316204Y-98110204D01*
X148206517Y-98274362D01*
X148168000Y-98468000D01*
X148168000Y-98729536D01*
X148074000Y-98729536D01*
X148065123Y-98731206D01*
X148041483Y-98612362D01*
X147931796Y-98448204D01*
X147169796Y-97686204D01*
X147005638Y-97576517D01*
X146812000Y-97538000D01*
X145243592Y-97538000D01*
X145141347Y-97435755D01*
X145517617Y-97510600D01*
X145566383Y-97510600D01*
X146042671Y-97415860D01*
X146446448Y-97146065D01*
X146716243Y-96742288D01*
X146747506Y-96585118D01*
X146879007Y-96585118D01*
X147005695Y-96891001D01*
X147326801Y-97255310D01*
X147762880Y-97469005D01*
X147955000Y-97408865D01*
X147955000Y-96393000D01*
X146939688Y-96393000D01*
X146879007Y-96585118D01*
X146747506Y-96585118D01*
X146810983Y-96266000D01*
X146747507Y-95946882D01*
X146879007Y-95946882D01*
X146939688Y-96139000D01*
X147955000Y-96139000D01*
X147955000Y-95123135D01*
X147762880Y-95062995D01*
X147326801Y-95276690D01*
X147005695Y-95640999D01*
X146879007Y-95946882D01*
X146747507Y-95946882D01*
X146716243Y-95789712D01*
X146446448Y-95385935D01*
X146042671Y-95116140D01*
X145566383Y-95021400D01*
X145517617Y-95021400D01*
X145041329Y-95116140D01*
X144778000Y-95292091D01*
X144778000Y-94996000D01*
X144739483Y-94802362D01*
X144629796Y-94638204D01*
X144179169Y-94187577D01*
X144270983Y-93726000D01*
X144273017Y-93726000D01*
X144367757Y-94202288D01*
X144637552Y-94606065D01*
X145041329Y-94875860D01*
X145517617Y-94970600D01*
X145566383Y-94970600D01*
X146042671Y-94875860D01*
X146446448Y-94606065D01*
X146716243Y-94202288D01*
X146810983Y-93726000D01*
X146716243Y-93249712D01*
X146446448Y-92845935D01*
X146042671Y-92576140D01*
X145566383Y-92481400D01*
X145517617Y-92481400D01*
X145041329Y-92576140D01*
X144637552Y-92845935D01*
X144367757Y-93249712D01*
X144273017Y-93726000D01*
X144270983Y-93726000D01*
X144176243Y-93249712D01*
X143906448Y-92845935D01*
X143502671Y-92576140D01*
X143026383Y-92481400D01*
X142977617Y-92481400D01*
X142501329Y-92576140D01*
X142097552Y-92845935D01*
X141827757Y-93249712D01*
X141733017Y-93726000D01*
X141827757Y-94202288D01*
X142097552Y-94606065D01*
X142501329Y-94875860D01*
X142977617Y-94970600D01*
X143026383Y-94970600D01*
X143447285Y-94886877D01*
X143766000Y-95205592D01*
X143766000Y-95292091D01*
X143502671Y-95116140D01*
X143026383Y-95021400D01*
X142977617Y-95021400D01*
X142501329Y-95116140D01*
X142238000Y-95292091D01*
X142238000Y-94996000D01*
X142199483Y-94802362D01*
X142089796Y-94638204D01*
X141714064Y-94262472D01*
X141714064Y-92862400D01*
X141687497Y-92721210D01*
X141604054Y-92591535D01*
X141476734Y-92504541D01*
X141325600Y-92473936D01*
X139598400Y-92473936D01*
X139457210Y-92500503D01*
X139327535Y-92583946D01*
X139240541Y-92711266D01*
X139209936Y-92862400D01*
X139209936Y-94589600D01*
X139236503Y-94730790D01*
X139319946Y-94860465D01*
X139447266Y-94947459D01*
X139598400Y-94978064D01*
X140998472Y-94978064D01*
X141226000Y-95205592D01*
X141226000Y-95292091D01*
X140962671Y-95116140D01*
X140486383Y-95021400D01*
X140437617Y-95021400D01*
X139961329Y-95116140D01*
X139557552Y-95385935D01*
X139287757Y-95789712D01*
X139193017Y-96266000D01*
X139287757Y-96742288D01*
X139557552Y-97146065D01*
X139961329Y-97415860D01*
X140437617Y-97510600D01*
X140486383Y-97510600D01*
X140962671Y-97415860D01*
X141226000Y-97239909D01*
X141226000Y-97536000D01*
X141264517Y-97729638D01*
X141374204Y-97893796D01*
X142390204Y-98909796D01*
X142554362Y-99019483D01*
X142748000Y-99058000D01*
X145497686Y-99058000D01*
X145485536Y-99118000D01*
X145485536Y-99670872D01*
X144930204Y-100226204D01*
X144820517Y-100390362D01*
X144782000Y-100584000D01*
X144782000Y-102362000D01*
X144820517Y-102555638D01*
X144930204Y-102719796D01*
X145438204Y-103227796D01*
X145602362Y-103337483D01*
X145796000Y-103376000D01*
X146290410Y-103376000D01*
X146306000Y-103391590D01*
X146306000Y-104524924D01*
X146186054Y-104475118D01*
X145928000Y-104474893D01*
X145928000Y-104421215D01*
X145869996Y-104281181D01*
X145762820Y-104174004D01*
X145622786Y-104116000D01*
X145517250Y-104116000D01*
X145422000Y-104211250D01*
X145422000Y-104584500D01*
X145444000Y-104584500D01*
X145444000Y-104758536D01*
X145047000Y-104758536D01*
X145041877Y-104759500D01*
X144761250Y-104759500D01*
X144666000Y-104854750D01*
X144666000Y-104922785D01*
X144693580Y-104989369D01*
X144689141Y-104995866D01*
X144658536Y-105147000D01*
X144658536Y-105497000D01*
X144685103Y-105638190D01*
X144689605Y-105645187D01*
X144689141Y-105645866D01*
X144658536Y-105797000D01*
X144658536Y-106147000D01*
X144685103Y-106288190D01*
X144689605Y-106295187D01*
X144689141Y-106295866D01*
X144658536Y-106447000D01*
X144658536Y-106732000D01*
X143805250Y-106732000D01*
X143782750Y-106709500D01*
X143372000Y-106709500D01*
X143372000Y-106732000D01*
X143122000Y-106732000D01*
X143122000Y-106709500D01*
X142711250Y-106709500D01*
X142688750Y-106732000D01*
X139140000Y-106732000D01*
X139140000Y-103420596D01*
X139155004Y-103456819D01*
X139262180Y-103563996D01*
X139402214Y-103622000D01*
X140005750Y-103622000D01*
X140101000Y-103526750D01*
X140101000Y-102743000D01*
X140355000Y-102743000D01*
X140355000Y-103526750D01*
X140450250Y-103622000D01*
X141053786Y-103622000D01*
X141193820Y-103563996D01*
X141300996Y-103456819D01*
X141359000Y-103316785D01*
X141359000Y-102838250D01*
X141263750Y-102743000D01*
X140355000Y-102743000D01*
X140101000Y-102743000D01*
X140081000Y-102743000D01*
X140081000Y-102489000D01*
X140101000Y-102489000D01*
X140101000Y-101705250D01*
X140355000Y-101705250D01*
X140355000Y-102489000D01*
X141263750Y-102489000D01*
X141359000Y-102393750D01*
X141359000Y-101991000D01*
X141589536Y-101991000D01*
X141589536Y-103241000D01*
X141616103Y-103382190D01*
X141699546Y-103511865D01*
X141826866Y-103598859D01*
X141978000Y-103629464D01*
X142741000Y-103629464D01*
X142741000Y-104166000D01*
X142470000Y-104166000D01*
X142276362Y-104204517D01*
X142112204Y-104314204D01*
X141882204Y-104544204D01*
X141772517Y-104708362D01*
X141734000Y-104902000D01*
X141734000Y-105664000D01*
X141772517Y-105857638D01*
X141882204Y-106021796D01*
X142190204Y-106329796D01*
X142354362Y-106439483D01*
X142548000Y-106478000D01*
X142654750Y-106478000D01*
X142711250Y-106534500D01*
X142992240Y-106534500D01*
X142997000Y-106535464D01*
X143497000Y-106535464D01*
X143502123Y-106534500D01*
X143782750Y-106534500D01*
X143878000Y-106439250D01*
X143878000Y-106371215D01*
X143850420Y-106304631D01*
X143854859Y-106298134D01*
X143885464Y-106147000D01*
X143885464Y-105797000D01*
X143858897Y-105655810D01*
X143849597Y-105641357D01*
X143878000Y-105572785D01*
X143878000Y-105504750D01*
X143782750Y-105409500D01*
X143501760Y-105409500D01*
X143497000Y-105408536D01*
X143100000Y-105408536D01*
X143100000Y-105235464D01*
X143497000Y-105235464D01*
X143502123Y-105234500D01*
X143782750Y-105234500D01*
X143878000Y-105139250D01*
X143878000Y-105071215D01*
X143850420Y-105004631D01*
X143854859Y-104998134D01*
X143885464Y-104847000D01*
X143885464Y-104497000D01*
X143871204Y-104421215D01*
X144666000Y-104421215D01*
X144666000Y-104489250D01*
X144761250Y-104584500D01*
X145172000Y-104584500D01*
X145172000Y-104211250D01*
X145076750Y-104116000D01*
X144971214Y-104116000D01*
X144831180Y-104174004D01*
X144724004Y-104281181D01*
X144666000Y-104421215D01*
X143871204Y-104421215D01*
X143858897Y-104355810D01*
X143775454Y-104226135D01*
X143753000Y-104210793D01*
X143753000Y-103513402D01*
X143835859Y-103392134D01*
X143855108Y-103297080D01*
X143898865Y-103297118D01*
X144149252Y-103193661D01*
X144340987Y-103002259D01*
X144444882Y-102752054D01*
X144445118Y-102481135D01*
X144341661Y-102230748D01*
X144150259Y-102039013D01*
X143900054Y-101935118D01*
X143855942Y-101935080D01*
X143839897Y-101849810D01*
X143756454Y-101720135D01*
X143629134Y-101633141D01*
X143478000Y-101602536D01*
X141978000Y-101602536D01*
X141836810Y-101629103D01*
X141707135Y-101712546D01*
X141620141Y-101839866D01*
X141589536Y-101991000D01*
X141359000Y-101991000D01*
X141359000Y-101915215D01*
X141300996Y-101775181D01*
X141193820Y-101668004D01*
X141053786Y-101610000D01*
X140450250Y-101610000D01*
X140355000Y-101705250D01*
X140101000Y-101705250D01*
X140005750Y-101610000D01*
X139402214Y-101610000D01*
X139262180Y-101668004D01*
X139155004Y-101775181D01*
X139140000Y-101811404D01*
X139140000Y-92404000D01*
X149404000Y-92404000D01*
X149404000Y-94332408D01*
X149404000Y-94332408D01*
G37*
X149404000Y-94332408D02*
X149259169Y-94187577D01*
X149350983Y-93726000D01*
X149256243Y-93249712D01*
X148986448Y-92845935D01*
X148582671Y-92576140D01*
X148106383Y-92481400D01*
X148057617Y-92481400D01*
X147581329Y-92576140D01*
X147177552Y-92845935D01*
X146907757Y-93249712D01*
X146813017Y-93726000D01*
X146907757Y-94202288D01*
X147177552Y-94606065D01*
X147581329Y-94875860D01*
X148057617Y-94970600D01*
X148106383Y-94970600D01*
X148527285Y-94886877D01*
X149100000Y-95459592D01*
X149100000Y-95574849D01*
X148837199Y-95276690D01*
X148401120Y-95062995D01*
X148209000Y-95123135D01*
X148209000Y-96139000D01*
X148229000Y-96139000D01*
X148229000Y-96393000D01*
X148209000Y-96393000D01*
X148209000Y-97408865D01*
X148401120Y-97469005D01*
X148837199Y-97255310D01*
X149100000Y-96957151D01*
X149100000Y-97326408D01*
X148316204Y-98110204D01*
X148206517Y-98274362D01*
X148168000Y-98468000D01*
X148168000Y-98729536D01*
X148074000Y-98729536D01*
X148065123Y-98731206D01*
X148041483Y-98612362D01*
X147931796Y-98448204D01*
X147169796Y-97686204D01*
X147005638Y-97576517D01*
X146812000Y-97538000D01*
X145243592Y-97538000D01*
X145141347Y-97435755D01*
X145517617Y-97510600D01*
X145566383Y-97510600D01*
X146042671Y-97415860D01*
X146446448Y-97146065D01*
X146716243Y-96742288D01*
X146747506Y-96585118D01*
X146879007Y-96585118D01*
X147005695Y-96891001D01*
X147326801Y-97255310D01*
X147762880Y-97469005D01*
X147955000Y-97408865D01*
X147955000Y-96393000D01*
X146939688Y-96393000D01*
X146879007Y-96585118D01*
X146747506Y-96585118D01*
X146810983Y-96266000D01*
X146747507Y-95946882D01*
X146879007Y-95946882D01*
X146939688Y-96139000D01*
X147955000Y-96139000D01*
X147955000Y-95123135D01*
X147762880Y-95062995D01*
X147326801Y-95276690D01*
X147005695Y-95640999D01*
X146879007Y-95946882D01*
X146747507Y-95946882D01*
X146716243Y-95789712D01*
X146446448Y-95385935D01*
X146042671Y-95116140D01*
X145566383Y-95021400D01*
X145517617Y-95021400D01*
X145041329Y-95116140D01*
X144778000Y-95292091D01*
X144778000Y-94996000D01*
X144739483Y-94802362D01*
X144629796Y-94638204D01*
X144179169Y-94187577D01*
X144270983Y-93726000D01*
X144273017Y-93726000D01*
X144367757Y-94202288D01*
X144637552Y-94606065D01*
X145041329Y-94875860D01*
X145517617Y-94970600D01*
X145566383Y-94970600D01*
X146042671Y-94875860D01*
X146446448Y-94606065D01*
X146716243Y-94202288D01*
X146810983Y-93726000D01*
X146716243Y-93249712D01*
X146446448Y-92845935D01*
X146042671Y-92576140D01*
X145566383Y-92481400D01*
X145517617Y-92481400D01*
X145041329Y-92576140D01*
X144637552Y-92845935D01*
X144367757Y-93249712D01*
X144273017Y-93726000D01*
X144270983Y-93726000D01*
X144176243Y-93249712D01*
X143906448Y-92845935D01*
X143502671Y-92576140D01*
X143026383Y-92481400D01*
X142977617Y-92481400D01*
X142501329Y-92576140D01*
X142097552Y-92845935D01*
X141827757Y-93249712D01*
X141733017Y-93726000D01*
X141827757Y-94202288D01*
X142097552Y-94606065D01*
X142501329Y-94875860D01*
X142977617Y-94970600D01*
X143026383Y-94970600D01*
X143447285Y-94886877D01*
X143766000Y-95205592D01*
X143766000Y-95292091D01*
X143502671Y-95116140D01*
X143026383Y-95021400D01*
X142977617Y-95021400D01*
X142501329Y-95116140D01*
X142238000Y-95292091D01*
X142238000Y-94996000D01*
X142199483Y-94802362D01*
X142089796Y-94638204D01*
X141714064Y-94262472D01*
X141714064Y-92862400D01*
X141687497Y-92721210D01*
X141604054Y-92591535D01*
X141476734Y-92504541D01*
X141325600Y-92473936D01*
X139598400Y-92473936D01*
X139457210Y-92500503D01*
X139327535Y-92583946D01*
X139240541Y-92711266D01*
X139209936Y-92862400D01*
X139209936Y-94589600D01*
X139236503Y-94730790D01*
X139319946Y-94860465D01*
X139447266Y-94947459D01*
X139598400Y-94978064D01*
X140998472Y-94978064D01*
X141226000Y-95205592D01*
X141226000Y-95292091D01*
X140962671Y-95116140D01*
X140486383Y-95021400D01*
X140437617Y-95021400D01*
X139961329Y-95116140D01*
X139557552Y-95385935D01*
X139287757Y-95789712D01*
X139193017Y-96266000D01*
X139287757Y-96742288D01*
X139557552Y-97146065D01*
X139961329Y-97415860D01*
X140437617Y-97510600D01*
X140486383Y-97510600D01*
X140962671Y-97415860D01*
X141226000Y-97239909D01*
X141226000Y-97536000D01*
X141264517Y-97729638D01*
X141374204Y-97893796D01*
X142390204Y-98909796D01*
X142554362Y-99019483D01*
X142748000Y-99058000D01*
X145497686Y-99058000D01*
X145485536Y-99118000D01*
X145485536Y-99670872D01*
X144930204Y-100226204D01*
X144820517Y-100390362D01*
X144782000Y-100584000D01*
X144782000Y-102362000D01*
X144820517Y-102555638D01*
X144930204Y-102719796D01*
X145438204Y-103227796D01*
X145602362Y-103337483D01*
X145796000Y-103376000D01*
X146290410Y-103376000D01*
X146306000Y-103391590D01*
X146306000Y-104524924D01*
X146186054Y-104475118D01*
X145928000Y-104474893D01*
X145928000Y-104421215D01*
X145869996Y-104281181D01*
X145762820Y-104174004D01*
X145622786Y-104116000D01*
X145517250Y-104116000D01*
X145422000Y-104211250D01*
X145422000Y-104584500D01*
X145444000Y-104584500D01*
X145444000Y-104758536D01*
X145047000Y-104758536D01*
X145041877Y-104759500D01*
X144761250Y-104759500D01*
X144666000Y-104854750D01*
X144666000Y-104922785D01*
X144693580Y-104989369D01*
X144689141Y-104995866D01*
X144658536Y-105147000D01*
X144658536Y-105497000D01*
X144685103Y-105638190D01*
X144689605Y-105645187D01*
X144689141Y-105645866D01*
X144658536Y-105797000D01*
X144658536Y-106147000D01*
X144685103Y-106288190D01*
X144689605Y-106295187D01*
X144689141Y-106295866D01*
X144658536Y-106447000D01*
X144658536Y-106732000D01*
X143805250Y-106732000D01*
X143782750Y-106709500D01*
X143372000Y-106709500D01*
X143372000Y-106732000D01*
X143122000Y-106732000D01*
X143122000Y-106709500D01*
X142711250Y-106709500D01*
X142688750Y-106732000D01*
X139140000Y-106732000D01*
X139140000Y-103420596D01*
X139155004Y-103456819D01*
X139262180Y-103563996D01*
X139402214Y-103622000D01*
X140005750Y-103622000D01*
X140101000Y-103526750D01*
X140101000Y-102743000D01*
X140355000Y-102743000D01*
X140355000Y-103526750D01*
X140450250Y-103622000D01*
X141053786Y-103622000D01*
X141193820Y-103563996D01*
X141300996Y-103456819D01*
X141359000Y-103316785D01*
X141359000Y-102838250D01*
X141263750Y-102743000D01*
X140355000Y-102743000D01*
X140101000Y-102743000D01*
X140081000Y-102743000D01*
X140081000Y-102489000D01*
X140101000Y-102489000D01*
X140101000Y-101705250D01*
X140355000Y-101705250D01*
X140355000Y-102489000D01*
X141263750Y-102489000D01*
X141359000Y-102393750D01*
X141359000Y-101991000D01*
X141589536Y-101991000D01*
X141589536Y-103241000D01*
X141616103Y-103382190D01*
X141699546Y-103511865D01*
X141826866Y-103598859D01*
X141978000Y-103629464D01*
X142741000Y-103629464D01*
X142741000Y-104166000D01*
X142470000Y-104166000D01*
X142276362Y-104204517D01*
X142112204Y-104314204D01*
X141882204Y-104544204D01*
X141772517Y-104708362D01*
X141734000Y-104902000D01*
X141734000Y-105664000D01*
X141772517Y-105857638D01*
X141882204Y-106021796D01*
X142190204Y-106329796D01*
X142354362Y-106439483D01*
X142548000Y-106478000D01*
X142654750Y-106478000D01*
X142711250Y-106534500D01*
X142992240Y-106534500D01*
X142997000Y-106535464D01*
X143497000Y-106535464D01*
X143502123Y-106534500D01*
X143782750Y-106534500D01*
X143878000Y-106439250D01*
X143878000Y-106371215D01*
X143850420Y-106304631D01*
X143854859Y-106298134D01*
X143885464Y-106147000D01*
X143885464Y-105797000D01*
X143858897Y-105655810D01*
X143849597Y-105641357D01*
X143878000Y-105572785D01*
X143878000Y-105504750D01*
X143782750Y-105409500D01*
X143501760Y-105409500D01*
X143497000Y-105408536D01*
X143100000Y-105408536D01*
X143100000Y-105235464D01*
X143497000Y-105235464D01*
X143502123Y-105234500D01*
X143782750Y-105234500D01*
X143878000Y-105139250D01*
X143878000Y-105071215D01*
X143850420Y-105004631D01*
X143854859Y-104998134D01*
X143885464Y-104847000D01*
X143885464Y-104497000D01*
X143871204Y-104421215D01*
X144666000Y-104421215D01*
X144666000Y-104489250D01*
X144761250Y-104584500D01*
X145172000Y-104584500D01*
X145172000Y-104211250D01*
X145076750Y-104116000D01*
X144971214Y-104116000D01*
X144831180Y-104174004D01*
X144724004Y-104281181D01*
X144666000Y-104421215D01*
X143871204Y-104421215D01*
X143858897Y-104355810D01*
X143775454Y-104226135D01*
X143753000Y-104210793D01*
X143753000Y-103513402D01*
X143835859Y-103392134D01*
X143855108Y-103297080D01*
X143898865Y-103297118D01*
X144149252Y-103193661D01*
X144340987Y-103002259D01*
X144444882Y-102752054D01*
X144445118Y-102481135D01*
X144341661Y-102230748D01*
X144150259Y-102039013D01*
X143900054Y-101935118D01*
X143855942Y-101935080D01*
X143839897Y-101849810D01*
X143756454Y-101720135D01*
X143629134Y-101633141D01*
X143478000Y-101602536D01*
X141978000Y-101602536D01*
X141836810Y-101629103D01*
X141707135Y-101712546D01*
X141620141Y-101839866D01*
X141589536Y-101991000D01*
X141359000Y-101991000D01*
X141359000Y-101915215D01*
X141300996Y-101775181D01*
X141193820Y-101668004D01*
X141053786Y-101610000D01*
X140450250Y-101610000D01*
X140355000Y-101705250D01*
X140101000Y-101705250D01*
X140005750Y-101610000D01*
X139402214Y-101610000D01*
X139262180Y-101668004D01*
X139155004Y-101775181D01*
X139140000Y-101811404D01*
X139140000Y-92404000D01*
X149404000Y-92404000D01*
X149404000Y-94332408D01*
M02*
