G04 #@! TF.FileFunction,Copper,L1,Top,Signal*
%FSLAX46Y46*%
G04 Gerber Fmt 4.6, Leading zero omitted, Abs format (unit mm)*
G04 Created by KiCad (PCBNEW (2015-11-24 BZR 6329)-product) date Sun 25 Sep 2016 11:26:43 PM EDT*
%MOMM*%
G01*
G04 APERTURE LIST*
%ADD10C,0.100000*%
%ADD11C,0.002540*%
%ADD12R,1.727200X1.727200*%
%ADD13O,1.727200X1.727200*%
%ADD14R,0.600000X0.500000*%
%ADD15R,0.500000X0.600000*%
%ADD16R,3.000000X0.600000*%
%ADD17C,2.200000*%
%ADD18C,1.501140*%
%ADD19C,2.999740*%
%ADD20C,1.200000*%
%ADD21R,0.900000X1.200000*%
%ADD22R,2.032000X2.032000*%
%ADD23O,2.032000X2.032000*%
%ADD24R,1.000000X3.000000*%
%ADD25R,0.600000X1.000760*%
%ADD26R,1.000000X1.250000*%
%ADD27R,0.250000X0.700000*%
%ADD28R,0.700000X0.250000*%
%ADD29R,1.725000X1.725000*%
%ADD30R,0.800000X1.100000*%
%ADD31R,1.727200X2.032000*%
%ADD32O,1.727200X2.032000*%
%ADD33R,1.250000X1.000000*%
%ADD34R,1.143000X0.508000*%
%ADD35C,1.422400*%
%ADD36R,0.750000X0.800000*%
%ADD37R,0.500000X0.900000*%
%ADD38C,0.600000*%
%ADD39C,0.250000*%
%ADD40C,0.700000*%
%ADD41C,0.254000*%
G04 APERTURE END LIST*
D10*
D11*
G36*
X169679747Y-100181506D02*
X169671765Y-101166895D01*
X169673347Y-101190902D01*
X169678528Y-101214219D01*
X169686990Y-101236509D01*
X169698411Y-101257437D01*
X169712472Y-101276665D01*
X169728852Y-101293857D01*
X169747230Y-101308678D01*
X169767287Y-101320791D01*
X169788702Y-101329859D01*
X169811155Y-101335547D01*
X169834326Y-101337518D01*
X169857498Y-101335547D01*
X169879952Y-101329859D01*
X169901368Y-101320791D01*
X169921426Y-101308678D01*
X169939806Y-101293857D01*
X169956186Y-101276665D01*
X169970247Y-101257437D01*
X169981667Y-101236509D01*
X169990128Y-101214219D01*
X169995308Y-101190902D01*
X169996886Y-101166895D01*
X170006366Y-100496483D01*
X172310795Y-100482010D01*
X173394528Y-100482010D01*
X173420268Y-100481313D01*
X173445856Y-100478533D01*
X173471147Y-100473729D01*
X173495991Y-100466961D01*
X173520242Y-100458288D01*
X173543751Y-100447770D01*
X173566370Y-100435465D01*
X173587953Y-100421434D01*
X173608350Y-100405735D01*
X173627415Y-100388428D01*
X173644989Y-100369611D01*
X173660974Y-100349437D01*
X173675310Y-100328056D01*
X173687933Y-100305612D01*
X173698783Y-100282255D01*
X173707799Y-100258129D01*
X173714918Y-100233383D01*
X173720079Y-100208163D01*
X173723221Y-100182616D01*
X173724281Y-100156890D01*
X173723221Y-100131164D01*
X173720079Y-100105617D01*
X173714918Y-100080397D01*
X173707799Y-100055651D01*
X173698783Y-100031525D01*
X173687933Y-100008168D01*
X173675310Y-99985724D01*
X173660974Y-99964343D01*
X173644989Y-99944169D01*
X173627415Y-99925352D01*
X173608350Y-99908045D01*
X173587953Y-99892346D01*
X173566370Y-99878315D01*
X173543751Y-99866010D01*
X173520242Y-99855491D01*
X173495991Y-99846818D01*
X173471147Y-99840050D01*
X173445856Y-99835247D01*
X173420268Y-99832467D01*
X173394528Y-99831770D01*
X172332806Y-99831770D01*
X172310795Y-99831770D01*
X170007862Y-99831770D01*
X169982123Y-99832467D01*
X169956534Y-99835247D01*
X169931244Y-99840051D01*
X169906399Y-99846819D01*
X169882149Y-99855492D01*
X169858640Y-99866010D01*
X169836021Y-99878315D01*
X169814438Y-99892346D01*
X169794041Y-99908045D01*
X169774977Y-99925352D01*
X169757402Y-99944169D01*
X169741416Y-99964343D01*
X169727081Y-99985724D01*
X169714457Y-100008168D01*
X169703607Y-100031525D01*
X169694592Y-100055651D01*
X169687474Y-100080397D01*
X169682313Y-100105617D01*
X169679171Y-100131164D01*
X169678110Y-100156890D01*
X169679747Y-100181506D01*
X169679747Y-100181506D01*
G37*
X169679747Y-100181506D02*
X169671765Y-101166895D01*
X169673347Y-101190902D01*
X169678528Y-101214219D01*
X169686990Y-101236509D01*
X169698411Y-101257437D01*
X169712472Y-101276665D01*
X169728852Y-101293857D01*
X169747230Y-101308678D01*
X169767287Y-101320791D01*
X169788702Y-101329859D01*
X169811155Y-101335547D01*
X169834326Y-101337518D01*
X169857498Y-101335547D01*
X169879952Y-101329859D01*
X169901368Y-101320791D01*
X169921426Y-101308678D01*
X169939806Y-101293857D01*
X169956186Y-101276665D01*
X169970247Y-101257437D01*
X169981667Y-101236509D01*
X169990128Y-101214219D01*
X169995308Y-101190902D01*
X169996886Y-101166895D01*
X170006366Y-100496483D01*
X172310795Y-100482010D01*
X173394528Y-100482010D01*
X173420268Y-100481313D01*
X173445856Y-100478533D01*
X173471147Y-100473729D01*
X173495991Y-100466961D01*
X173520242Y-100458288D01*
X173543751Y-100447770D01*
X173566370Y-100435465D01*
X173587953Y-100421434D01*
X173608350Y-100405735D01*
X173627415Y-100388428D01*
X173644989Y-100369611D01*
X173660974Y-100349437D01*
X173675310Y-100328056D01*
X173687933Y-100305612D01*
X173698783Y-100282255D01*
X173707799Y-100258129D01*
X173714918Y-100233383D01*
X173720079Y-100208163D01*
X173723221Y-100182616D01*
X173724281Y-100156890D01*
X173723221Y-100131164D01*
X173720079Y-100105617D01*
X173714918Y-100080397D01*
X173707799Y-100055651D01*
X173698783Y-100031525D01*
X173687933Y-100008168D01*
X173675310Y-99985724D01*
X173660974Y-99964343D01*
X173644989Y-99944169D01*
X173627415Y-99925352D01*
X173608350Y-99908045D01*
X173587953Y-99892346D01*
X173566370Y-99878315D01*
X173543751Y-99866010D01*
X173520242Y-99855491D01*
X173495991Y-99846818D01*
X173471147Y-99840050D01*
X173445856Y-99835247D01*
X173420268Y-99832467D01*
X173394528Y-99831770D01*
X172332806Y-99831770D01*
X172310795Y-99831770D01*
X170007862Y-99831770D01*
X169982123Y-99832467D01*
X169956534Y-99835247D01*
X169931244Y-99840051D01*
X169906399Y-99846819D01*
X169882149Y-99855492D01*
X169858640Y-99866010D01*
X169836021Y-99878315D01*
X169814438Y-99892346D01*
X169794041Y-99908045D01*
X169774977Y-99925352D01*
X169757402Y-99944169D01*
X169741416Y-99964343D01*
X169727081Y-99985724D01*
X169714457Y-100008168D01*
X169703607Y-100031525D01*
X169694592Y-100055651D01*
X169687474Y-100080397D01*
X169682313Y-100105617D01*
X169679171Y-100131164D01*
X169678110Y-100156890D01*
X169679747Y-100181506D01*
G36*
X177049178Y-99817067D02*
X177022712Y-99818681D01*
X176996468Y-99822397D01*
X176970591Y-99828154D01*
X176945230Y-99835888D01*
X176920530Y-99845539D01*
X176896640Y-99857044D01*
X176873706Y-99870340D01*
X176851876Y-99885366D01*
X176831295Y-99902060D01*
X176812111Y-99920359D01*
X176793115Y-99942415D01*
X176777531Y-99965561D01*
X176764936Y-99989622D01*
X176754910Y-100014422D01*
X176747029Y-100039785D01*
X176740870Y-100065536D01*
X176736013Y-100091499D01*
X176732034Y-100117499D01*
X176728510Y-100143359D01*
X176725021Y-100168905D01*
X176721142Y-100193961D01*
X176716453Y-100218350D01*
X176716453Y-107611444D01*
X176717197Y-107638255D01*
X176720103Y-107664909D01*
X176725112Y-107691253D01*
X176732161Y-107717132D01*
X176741192Y-107742393D01*
X176752143Y-107766882D01*
X176764953Y-107790444D01*
X176779562Y-107812925D01*
X176795909Y-107834173D01*
X176813935Y-107854031D01*
X176833537Y-107872338D01*
X176854551Y-107888989D01*
X176876824Y-107903922D01*
X176900203Y-107917071D01*
X176924534Y-107928373D01*
X176949664Y-107937764D01*
X176975441Y-107945179D01*
X177001711Y-107950555D01*
X177028322Y-107953828D01*
X177055120Y-107954933D01*
X177081919Y-107953828D01*
X177108530Y-107950555D01*
X177134801Y-107945179D01*
X177160579Y-107937764D01*
X177185709Y-107928373D01*
X177210040Y-107917071D01*
X177233418Y-107903922D01*
X177255690Y-107888989D01*
X177276703Y-107872338D01*
X177296304Y-107854031D01*
X177314333Y-107834173D01*
X177330687Y-107812925D01*
X177345303Y-107790444D01*
X177358121Y-107766882D01*
X177369078Y-107742393D01*
X177378112Y-107717132D01*
X177385162Y-107691253D01*
X177390166Y-107664909D01*
X177393061Y-107638255D01*
X177393786Y-107611444D01*
X177393786Y-100499444D01*
X183218856Y-100499444D01*
X183218856Y-101041310D01*
X179358053Y-101041310D01*
X179331497Y-101042398D01*
X179305123Y-101045612D01*
X179279080Y-101050893D01*
X179253518Y-101058178D01*
X179228586Y-101067405D01*
X179204432Y-101078513D01*
X179181207Y-101091439D01*
X179159059Y-101106122D01*
X179138137Y-101122500D01*
X179118591Y-101140511D01*
X179100580Y-101160057D01*
X179084201Y-101180979D01*
X179069518Y-101203127D01*
X179056592Y-101226353D01*
X179045484Y-101250506D01*
X179036256Y-101275439D01*
X179028971Y-101301002D01*
X179023689Y-101327045D01*
X179020474Y-101353420D01*
X179019386Y-101379977D01*
X179019386Y-102599177D01*
X179020474Y-102625733D01*
X179023689Y-102652108D01*
X179028971Y-102678150D01*
X179036256Y-102703713D01*
X179045484Y-102728645D01*
X179056592Y-102752799D01*
X179069518Y-102776025D01*
X179084201Y-102798173D01*
X179100580Y-102819094D01*
X179118591Y-102838640D01*
X179138137Y-102856651D01*
X179159059Y-102873030D01*
X179181207Y-102887713D01*
X179204432Y-102900640D01*
X179228586Y-102911748D01*
X179253518Y-102920975D01*
X179279080Y-102928260D01*
X179305123Y-102933541D01*
X179331497Y-102936757D01*
X179358053Y-102937844D01*
X183218856Y-102937844D01*
X183218856Y-103479710D01*
X179358053Y-103479710D01*
X179331497Y-103480798D01*
X179305123Y-103484012D01*
X179279080Y-103489293D01*
X179253518Y-103496578D01*
X179228586Y-103505805D01*
X179204432Y-103516913D01*
X179181207Y-103529839D01*
X179159059Y-103544522D01*
X179138137Y-103560900D01*
X179118591Y-103578911D01*
X179100580Y-103598457D01*
X179084201Y-103619379D01*
X179069518Y-103641527D01*
X179056592Y-103664753D01*
X179045484Y-103688906D01*
X179036256Y-103713839D01*
X179028971Y-103739402D01*
X179023689Y-103765445D01*
X179020474Y-103791820D01*
X179019386Y-103818377D01*
X179019386Y-105037577D01*
X179020474Y-105064133D01*
X179023689Y-105090508D01*
X179028971Y-105116550D01*
X179036256Y-105142113D01*
X179045484Y-105167045D01*
X179056592Y-105191199D01*
X179069518Y-105214425D01*
X179084201Y-105236573D01*
X179100580Y-105257494D01*
X179118591Y-105277040D01*
X179138137Y-105295052D01*
X179159059Y-105311430D01*
X179181207Y-105326113D01*
X179204432Y-105339040D01*
X179228586Y-105350148D01*
X179253518Y-105359375D01*
X179279080Y-105366660D01*
X179305123Y-105371941D01*
X179331497Y-105375157D01*
X179358053Y-105376244D01*
X183218856Y-105376244D01*
X183218856Y-105918110D01*
X179358053Y-105918110D01*
X179331497Y-105919198D01*
X179305123Y-105922412D01*
X179279080Y-105927693D01*
X179253518Y-105934978D01*
X179228586Y-105944205D01*
X179204432Y-105955313D01*
X179181207Y-105968239D01*
X179159059Y-105982922D01*
X179138137Y-105999300D01*
X179118591Y-106017311D01*
X179100580Y-106036857D01*
X179084201Y-106057779D01*
X179069518Y-106079927D01*
X179056592Y-106103153D01*
X179045484Y-106127306D01*
X179036256Y-106152239D01*
X179028971Y-106177802D01*
X179023689Y-106203845D01*
X179020474Y-106230220D01*
X179019386Y-106256777D01*
X179019386Y-107419250D01*
X179016030Y-107445890D01*
X179014862Y-107472700D01*
X179015839Y-107499521D01*
X179018917Y-107526192D01*
X179024052Y-107552554D01*
X179031200Y-107578446D01*
X179040316Y-107603709D01*
X179051357Y-107628181D01*
X179064278Y-107651705D01*
X179079036Y-107674118D01*
X179095586Y-107695262D01*
X179105730Y-107707122D01*
X179120962Y-107722355D01*
X179140463Y-107739907D01*
X179161296Y-107755822D01*
X179183315Y-107770053D01*
X179206371Y-107782555D01*
X179230318Y-107793279D01*
X179255009Y-107802179D01*
X179280296Y-107809207D01*
X179306032Y-107814318D01*
X179332069Y-107817464D01*
X179358262Y-107818598D01*
X179384462Y-107817674D01*
X179410522Y-107814644D01*
X183218831Y-107814644D01*
X183218831Y-111675444D01*
X183219575Y-111702255D01*
X183222481Y-111728909D01*
X183227489Y-111755253D01*
X183234539Y-111781132D01*
X183243569Y-111806393D01*
X183254520Y-111830882D01*
X183267330Y-111854444D01*
X183281939Y-111876925D01*
X183298287Y-111898173D01*
X183316313Y-111918031D01*
X183335915Y-111936338D01*
X183356928Y-111952989D01*
X183379200Y-111967922D01*
X183402578Y-111981071D01*
X183426909Y-111992373D01*
X183452039Y-112001764D01*
X183477817Y-112009179D01*
X183504087Y-112014556D01*
X183530699Y-112017828D01*
X183557498Y-112018933D01*
X183584296Y-112017828D01*
X183610907Y-112014556D01*
X183637178Y-112009179D01*
X183662955Y-112001764D01*
X183688086Y-111992373D01*
X183712417Y-111981071D01*
X183735795Y-111967922D01*
X183758067Y-111952989D01*
X183779081Y-111936338D01*
X183798683Y-111918031D01*
X183816711Y-111898173D01*
X183833063Y-111876925D01*
X183847679Y-111854444D01*
X183860496Y-111830882D01*
X183871453Y-111806393D01*
X183880487Y-111781132D01*
X183887538Y-111755253D01*
X183892542Y-111728909D01*
X183895438Y-111702255D01*
X183896165Y-111675444D01*
X183896165Y-107475977D01*
X183895077Y-107449420D01*
X183891862Y-107423045D01*
X183886581Y-107397002D01*
X183879296Y-107371439D01*
X183870069Y-107346506D01*
X183858961Y-107322353D01*
X183846035Y-107299127D01*
X183831352Y-107276979D01*
X183814974Y-107256057D01*
X183796962Y-107236511D01*
X183777417Y-107218500D01*
X183756495Y-107202122D01*
X183734347Y-107187439D01*
X183711121Y-107174513D01*
X183686967Y-107163405D01*
X183662035Y-107154178D01*
X183636472Y-107146893D01*
X183610429Y-107141612D01*
X183584055Y-107138398D01*
X183557498Y-107137310D01*
X179696695Y-107137310D01*
X179696695Y-106595444D01*
X183557498Y-106595444D01*
X183584055Y-106594357D01*
X183610429Y-106591141D01*
X183636472Y-106585860D01*
X183662035Y-106578575D01*
X183686967Y-106569348D01*
X183711121Y-106558240D01*
X183734347Y-106545313D01*
X183756495Y-106530630D01*
X183777417Y-106514252D01*
X183796962Y-106496240D01*
X183814974Y-106476694D01*
X183831352Y-106455773D01*
X183846035Y-106433625D01*
X183858961Y-106410399D01*
X183870069Y-106386245D01*
X183879296Y-106361313D01*
X183886581Y-106335750D01*
X183891862Y-106309708D01*
X183895077Y-106283333D01*
X183896165Y-106256777D01*
X183896165Y-105037577D01*
X183895077Y-105011020D01*
X183891862Y-104984645D01*
X183886581Y-104958602D01*
X183879296Y-104933039D01*
X183870069Y-104908106D01*
X183858961Y-104883953D01*
X183846035Y-104860727D01*
X183831352Y-104838579D01*
X183814974Y-104817657D01*
X183796962Y-104798111D01*
X183777417Y-104780100D01*
X183756495Y-104763722D01*
X183734347Y-104749039D01*
X183711121Y-104736113D01*
X183686967Y-104725005D01*
X183662035Y-104715778D01*
X183636472Y-104708493D01*
X183610429Y-104703212D01*
X183584055Y-104699998D01*
X183557498Y-104698910D01*
X179696695Y-104698910D01*
X179696695Y-104157044D01*
X183557498Y-104157044D01*
X183584055Y-104155957D01*
X183610429Y-104152741D01*
X183636472Y-104147460D01*
X183662035Y-104140175D01*
X183686967Y-104130948D01*
X183711121Y-104119840D01*
X183734347Y-104106913D01*
X183756495Y-104092230D01*
X183777417Y-104075852D01*
X183796962Y-104057840D01*
X183814974Y-104038294D01*
X183831352Y-104017373D01*
X183846035Y-103995225D01*
X183858961Y-103971999D01*
X183870069Y-103947845D01*
X183879296Y-103922913D01*
X183886581Y-103897350D01*
X183891862Y-103871308D01*
X183895077Y-103844933D01*
X183896165Y-103818377D01*
X183896165Y-102599177D01*
X183895083Y-102572620D01*
X183891873Y-102546245D01*
X183886596Y-102520202D01*
X183879314Y-102494639D01*
X183870089Y-102469706D01*
X183858982Y-102445553D01*
X183846056Y-102422327D01*
X183831374Y-102400179D01*
X183814995Y-102379257D01*
X183796984Y-102359711D01*
X183777438Y-102341700D01*
X183756517Y-102325322D01*
X183734369Y-102310639D01*
X183711143Y-102297713D01*
X183686989Y-102286605D01*
X183662057Y-102277378D01*
X183636495Y-102270093D01*
X183610452Y-102264812D01*
X183584078Y-102261598D01*
X183557522Y-102260510D01*
X179696720Y-102260510D01*
X179696720Y-101718644D01*
X183557522Y-101718644D01*
X183584078Y-101717557D01*
X183610452Y-101714341D01*
X183636495Y-101709060D01*
X183662057Y-101701775D01*
X183686989Y-101692548D01*
X183711143Y-101681440D01*
X183734369Y-101668513D01*
X183756517Y-101653830D01*
X183777438Y-101637452D01*
X183796984Y-101619440D01*
X183814995Y-101599894D01*
X183831374Y-101578973D01*
X183846057Y-101556825D01*
X183858984Y-101533599D01*
X183870092Y-101509445D01*
X183879319Y-101484513D01*
X183886605Y-101458950D01*
X183891886Y-101432908D01*
X183895101Y-101406533D01*
X183896189Y-101379977D01*
X183896189Y-100160777D01*
X183895101Y-100134220D01*
X183891886Y-100107845D01*
X183886605Y-100081802D01*
X183879319Y-100056239D01*
X183870092Y-100031306D01*
X183858984Y-100007153D01*
X183846057Y-99983927D01*
X183831374Y-99961779D01*
X183814995Y-99940857D01*
X183796984Y-99921311D01*
X183777438Y-99903300D01*
X183756517Y-99886922D01*
X183734369Y-99872239D01*
X183711143Y-99859313D01*
X183686989Y-99848205D01*
X183662057Y-99838978D01*
X183636495Y-99831693D01*
X183610452Y-99826412D01*
X183584078Y-99823198D01*
X183557522Y-99822110D01*
X177110154Y-99822110D01*
X177089029Y-99819132D01*
X177068340Y-99818036D01*
X177049178Y-99817067D01*
X177049178Y-99817067D01*
G37*
X177049178Y-99817067D02*
X177022712Y-99818681D01*
X176996468Y-99822397D01*
X176970591Y-99828154D01*
X176945230Y-99835888D01*
X176920530Y-99845539D01*
X176896640Y-99857044D01*
X176873706Y-99870340D01*
X176851876Y-99885366D01*
X176831295Y-99902060D01*
X176812111Y-99920359D01*
X176793115Y-99942415D01*
X176777531Y-99965561D01*
X176764936Y-99989622D01*
X176754910Y-100014422D01*
X176747029Y-100039785D01*
X176740870Y-100065536D01*
X176736013Y-100091499D01*
X176732034Y-100117499D01*
X176728510Y-100143359D01*
X176725021Y-100168905D01*
X176721142Y-100193961D01*
X176716453Y-100218350D01*
X176716453Y-107611444D01*
X176717197Y-107638255D01*
X176720103Y-107664909D01*
X176725112Y-107691253D01*
X176732161Y-107717132D01*
X176741192Y-107742393D01*
X176752143Y-107766882D01*
X176764953Y-107790444D01*
X176779562Y-107812925D01*
X176795909Y-107834173D01*
X176813935Y-107854031D01*
X176833537Y-107872338D01*
X176854551Y-107888989D01*
X176876824Y-107903922D01*
X176900203Y-107917071D01*
X176924534Y-107928373D01*
X176949664Y-107937764D01*
X176975441Y-107945179D01*
X177001711Y-107950555D01*
X177028322Y-107953828D01*
X177055120Y-107954933D01*
X177081919Y-107953828D01*
X177108530Y-107950555D01*
X177134801Y-107945179D01*
X177160579Y-107937764D01*
X177185709Y-107928373D01*
X177210040Y-107917071D01*
X177233418Y-107903922D01*
X177255690Y-107888989D01*
X177276703Y-107872338D01*
X177296304Y-107854031D01*
X177314333Y-107834173D01*
X177330687Y-107812925D01*
X177345303Y-107790444D01*
X177358121Y-107766882D01*
X177369078Y-107742393D01*
X177378112Y-107717132D01*
X177385162Y-107691253D01*
X177390166Y-107664909D01*
X177393061Y-107638255D01*
X177393786Y-107611444D01*
X177393786Y-100499444D01*
X183218856Y-100499444D01*
X183218856Y-101041310D01*
X179358053Y-101041310D01*
X179331497Y-101042398D01*
X179305123Y-101045612D01*
X179279080Y-101050893D01*
X179253518Y-101058178D01*
X179228586Y-101067405D01*
X179204432Y-101078513D01*
X179181207Y-101091439D01*
X179159059Y-101106122D01*
X179138137Y-101122500D01*
X179118591Y-101140511D01*
X179100580Y-101160057D01*
X179084201Y-101180979D01*
X179069518Y-101203127D01*
X179056592Y-101226353D01*
X179045484Y-101250506D01*
X179036256Y-101275439D01*
X179028971Y-101301002D01*
X179023689Y-101327045D01*
X179020474Y-101353420D01*
X179019386Y-101379977D01*
X179019386Y-102599177D01*
X179020474Y-102625733D01*
X179023689Y-102652108D01*
X179028971Y-102678150D01*
X179036256Y-102703713D01*
X179045484Y-102728645D01*
X179056592Y-102752799D01*
X179069518Y-102776025D01*
X179084201Y-102798173D01*
X179100580Y-102819094D01*
X179118591Y-102838640D01*
X179138137Y-102856651D01*
X179159059Y-102873030D01*
X179181207Y-102887713D01*
X179204432Y-102900640D01*
X179228586Y-102911748D01*
X179253518Y-102920975D01*
X179279080Y-102928260D01*
X179305123Y-102933541D01*
X179331497Y-102936757D01*
X179358053Y-102937844D01*
X183218856Y-102937844D01*
X183218856Y-103479710D01*
X179358053Y-103479710D01*
X179331497Y-103480798D01*
X179305123Y-103484012D01*
X179279080Y-103489293D01*
X179253518Y-103496578D01*
X179228586Y-103505805D01*
X179204432Y-103516913D01*
X179181207Y-103529839D01*
X179159059Y-103544522D01*
X179138137Y-103560900D01*
X179118591Y-103578911D01*
X179100580Y-103598457D01*
X179084201Y-103619379D01*
X179069518Y-103641527D01*
X179056592Y-103664753D01*
X179045484Y-103688906D01*
X179036256Y-103713839D01*
X179028971Y-103739402D01*
X179023689Y-103765445D01*
X179020474Y-103791820D01*
X179019386Y-103818377D01*
X179019386Y-105037577D01*
X179020474Y-105064133D01*
X179023689Y-105090508D01*
X179028971Y-105116550D01*
X179036256Y-105142113D01*
X179045484Y-105167045D01*
X179056592Y-105191199D01*
X179069518Y-105214425D01*
X179084201Y-105236573D01*
X179100580Y-105257494D01*
X179118591Y-105277040D01*
X179138137Y-105295052D01*
X179159059Y-105311430D01*
X179181207Y-105326113D01*
X179204432Y-105339040D01*
X179228586Y-105350148D01*
X179253518Y-105359375D01*
X179279080Y-105366660D01*
X179305123Y-105371941D01*
X179331497Y-105375157D01*
X179358053Y-105376244D01*
X183218856Y-105376244D01*
X183218856Y-105918110D01*
X179358053Y-105918110D01*
X179331497Y-105919198D01*
X179305123Y-105922412D01*
X179279080Y-105927693D01*
X179253518Y-105934978D01*
X179228586Y-105944205D01*
X179204432Y-105955313D01*
X179181207Y-105968239D01*
X179159059Y-105982922D01*
X179138137Y-105999300D01*
X179118591Y-106017311D01*
X179100580Y-106036857D01*
X179084201Y-106057779D01*
X179069518Y-106079927D01*
X179056592Y-106103153D01*
X179045484Y-106127306D01*
X179036256Y-106152239D01*
X179028971Y-106177802D01*
X179023689Y-106203845D01*
X179020474Y-106230220D01*
X179019386Y-106256777D01*
X179019386Y-107419250D01*
X179016030Y-107445890D01*
X179014862Y-107472700D01*
X179015839Y-107499521D01*
X179018917Y-107526192D01*
X179024052Y-107552554D01*
X179031200Y-107578446D01*
X179040316Y-107603709D01*
X179051357Y-107628181D01*
X179064278Y-107651705D01*
X179079036Y-107674118D01*
X179095586Y-107695262D01*
X179105730Y-107707122D01*
X179120962Y-107722355D01*
X179140463Y-107739907D01*
X179161296Y-107755822D01*
X179183315Y-107770053D01*
X179206371Y-107782555D01*
X179230318Y-107793279D01*
X179255009Y-107802179D01*
X179280296Y-107809207D01*
X179306032Y-107814318D01*
X179332069Y-107817464D01*
X179358262Y-107818598D01*
X179384462Y-107817674D01*
X179410522Y-107814644D01*
X183218831Y-107814644D01*
X183218831Y-111675444D01*
X183219575Y-111702255D01*
X183222481Y-111728909D01*
X183227489Y-111755253D01*
X183234539Y-111781132D01*
X183243569Y-111806393D01*
X183254520Y-111830882D01*
X183267330Y-111854444D01*
X183281939Y-111876925D01*
X183298287Y-111898173D01*
X183316313Y-111918031D01*
X183335915Y-111936338D01*
X183356928Y-111952989D01*
X183379200Y-111967922D01*
X183402578Y-111981071D01*
X183426909Y-111992373D01*
X183452039Y-112001764D01*
X183477817Y-112009179D01*
X183504087Y-112014556D01*
X183530699Y-112017828D01*
X183557498Y-112018933D01*
X183584296Y-112017828D01*
X183610907Y-112014556D01*
X183637178Y-112009179D01*
X183662955Y-112001764D01*
X183688086Y-111992373D01*
X183712417Y-111981071D01*
X183735795Y-111967922D01*
X183758067Y-111952989D01*
X183779081Y-111936338D01*
X183798683Y-111918031D01*
X183816711Y-111898173D01*
X183833063Y-111876925D01*
X183847679Y-111854444D01*
X183860496Y-111830882D01*
X183871453Y-111806393D01*
X183880487Y-111781132D01*
X183887538Y-111755253D01*
X183892542Y-111728909D01*
X183895438Y-111702255D01*
X183896165Y-111675444D01*
X183896165Y-107475977D01*
X183895077Y-107449420D01*
X183891862Y-107423045D01*
X183886581Y-107397002D01*
X183879296Y-107371439D01*
X183870069Y-107346506D01*
X183858961Y-107322353D01*
X183846035Y-107299127D01*
X183831352Y-107276979D01*
X183814974Y-107256057D01*
X183796962Y-107236511D01*
X183777417Y-107218500D01*
X183756495Y-107202122D01*
X183734347Y-107187439D01*
X183711121Y-107174513D01*
X183686967Y-107163405D01*
X183662035Y-107154178D01*
X183636472Y-107146893D01*
X183610429Y-107141612D01*
X183584055Y-107138398D01*
X183557498Y-107137310D01*
X179696695Y-107137310D01*
X179696695Y-106595444D01*
X183557498Y-106595444D01*
X183584055Y-106594357D01*
X183610429Y-106591141D01*
X183636472Y-106585860D01*
X183662035Y-106578575D01*
X183686967Y-106569348D01*
X183711121Y-106558240D01*
X183734347Y-106545313D01*
X183756495Y-106530630D01*
X183777417Y-106514252D01*
X183796962Y-106496240D01*
X183814974Y-106476694D01*
X183831352Y-106455773D01*
X183846035Y-106433625D01*
X183858961Y-106410399D01*
X183870069Y-106386245D01*
X183879296Y-106361313D01*
X183886581Y-106335750D01*
X183891862Y-106309708D01*
X183895077Y-106283333D01*
X183896165Y-106256777D01*
X183896165Y-105037577D01*
X183895077Y-105011020D01*
X183891862Y-104984645D01*
X183886581Y-104958602D01*
X183879296Y-104933039D01*
X183870069Y-104908106D01*
X183858961Y-104883953D01*
X183846035Y-104860727D01*
X183831352Y-104838579D01*
X183814974Y-104817657D01*
X183796962Y-104798111D01*
X183777417Y-104780100D01*
X183756495Y-104763722D01*
X183734347Y-104749039D01*
X183711121Y-104736113D01*
X183686967Y-104725005D01*
X183662035Y-104715778D01*
X183636472Y-104708493D01*
X183610429Y-104703212D01*
X183584055Y-104699998D01*
X183557498Y-104698910D01*
X179696695Y-104698910D01*
X179696695Y-104157044D01*
X183557498Y-104157044D01*
X183584055Y-104155957D01*
X183610429Y-104152741D01*
X183636472Y-104147460D01*
X183662035Y-104140175D01*
X183686967Y-104130948D01*
X183711121Y-104119840D01*
X183734347Y-104106913D01*
X183756495Y-104092230D01*
X183777417Y-104075852D01*
X183796962Y-104057840D01*
X183814974Y-104038294D01*
X183831352Y-104017373D01*
X183846035Y-103995225D01*
X183858961Y-103971999D01*
X183870069Y-103947845D01*
X183879296Y-103922913D01*
X183886581Y-103897350D01*
X183891862Y-103871308D01*
X183895077Y-103844933D01*
X183896165Y-103818377D01*
X183896165Y-102599177D01*
X183895083Y-102572620D01*
X183891873Y-102546245D01*
X183886596Y-102520202D01*
X183879314Y-102494639D01*
X183870089Y-102469706D01*
X183858982Y-102445553D01*
X183846056Y-102422327D01*
X183831374Y-102400179D01*
X183814995Y-102379257D01*
X183796984Y-102359711D01*
X183777438Y-102341700D01*
X183756517Y-102325322D01*
X183734369Y-102310639D01*
X183711143Y-102297713D01*
X183686989Y-102286605D01*
X183662057Y-102277378D01*
X183636495Y-102270093D01*
X183610452Y-102264812D01*
X183584078Y-102261598D01*
X183557522Y-102260510D01*
X179696720Y-102260510D01*
X179696720Y-101718644D01*
X183557522Y-101718644D01*
X183584078Y-101717557D01*
X183610452Y-101714341D01*
X183636495Y-101709060D01*
X183662057Y-101701775D01*
X183686989Y-101692548D01*
X183711143Y-101681440D01*
X183734369Y-101668513D01*
X183756517Y-101653830D01*
X183777438Y-101637452D01*
X183796984Y-101619440D01*
X183814995Y-101599894D01*
X183831374Y-101578973D01*
X183846057Y-101556825D01*
X183858984Y-101533599D01*
X183870092Y-101509445D01*
X183879319Y-101484513D01*
X183886605Y-101458950D01*
X183891886Y-101432908D01*
X183895101Y-101406533D01*
X183896189Y-101379977D01*
X183896189Y-100160777D01*
X183895101Y-100134220D01*
X183891886Y-100107845D01*
X183886605Y-100081802D01*
X183879319Y-100056239D01*
X183870092Y-100031306D01*
X183858984Y-100007153D01*
X183846057Y-99983927D01*
X183831374Y-99961779D01*
X183814995Y-99940857D01*
X183796984Y-99921311D01*
X183777438Y-99903300D01*
X183756517Y-99886922D01*
X183734369Y-99872239D01*
X183711143Y-99859313D01*
X183686989Y-99848205D01*
X183662057Y-99838978D01*
X183636495Y-99831693D01*
X183610452Y-99826412D01*
X183584078Y-99823198D01*
X183557522Y-99822110D01*
X177110154Y-99822110D01*
X177089029Y-99819132D01*
X177068340Y-99818036D01*
X177049178Y-99817067D01*
G36*
X174478262Y-99831770D02*
X174452523Y-99832467D01*
X174426934Y-99835247D01*
X174401644Y-99840051D01*
X174376799Y-99846819D01*
X174352549Y-99855492D01*
X174329040Y-99866010D01*
X174306420Y-99878315D01*
X174284838Y-99892346D01*
X174264440Y-99908045D01*
X174245376Y-99925352D01*
X174227801Y-99944169D01*
X174211816Y-99964343D01*
X174197481Y-99985724D01*
X174184857Y-100008168D01*
X174174007Y-100031525D01*
X174164992Y-100055651D01*
X174157873Y-100080397D01*
X174152712Y-100105617D01*
X174149570Y-100131164D01*
X174148509Y-100156890D01*
X174149570Y-100182616D01*
X174152712Y-100208163D01*
X174157873Y-100233383D01*
X174164992Y-100258129D01*
X174174007Y-100282255D01*
X174184857Y-100305612D01*
X174197481Y-100328056D01*
X174211816Y-100349437D01*
X174227801Y-100369611D01*
X174245376Y-100388428D01*
X174264440Y-100405735D01*
X174284838Y-100421434D01*
X174306420Y-100435465D01*
X174329040Y-100447770D01*
X174352549Y-100458289D01*
X174376799Y-100466962D01*
X174401644Y-100473730D01*
X174426934Y-100478533D01*
X174452523Y-100481313D01*
X174478262Y-100482010D01*
X176374795Y-100482010D01*
X176385380Y-100482120D01*
X176399215Y-100482200D01*
X176416072Y-100482251D01*
X176435724Y-100482275D01*
X176457944Y-100482273D01*
X176482505Y-100482245D01*
X176509180Y-100482195D01*
X176537742Y-100482122D01*
X176567963Y-100482029D01*
X176599616Y-100481916D01*
X176632475Y-100481785D01*
X176666312Y-100481637D01*
X176700899Y-100481474D01*
X176736010Y-100481296D01*
X176771418Y-100481106D01*
X176806895Y-100480905D01*
X176842214Y-100480693D01*
X176877148Y-100480473D01*
X176911471Y-100480245D01*
X176944954Y-100480011D01*
X176977370Y-100479772D01*
X177008493Y-100479530D01*
X177038096Y-100479286D01*
X177065950Y-100479041D01*
X177091830Y-100478797D01*
X177115507Y-100478555D01*
X177136755Y-100478316D01*
X177155347Y-100478081D01*
X177171055Y-100477853D01*
X177186102Y-100474722D01*
X177199137Y-100466254D01*
X177210302Y-100453070D01*
X177219742Y-100435792D01*
X177227601Y-100415039D01*
X177234021Y-100391433D01*
X177239148Y-100365595D01*
X177243124Y-100338145D01*
X177246094Y-100309704D01*
X177248201Y-100280894D01*
X177249590Y-100252335D01*
X177250404Y-100224649D01*
X177250786Y-100198455D01*
X177250881Y-100174375D01*
X177250833Y-100153030D01*
X177250785Y-100135041D01*
X177252404Y-100124542D01*
X177257046Y-100112950D01*
X177264389Y-100100384D01*
X177274112Y-100086967D01*
X177285894Y-100072821D01*
X177299413Y-100058066D01*
X177314347Y-100042825D01*
X177330375Y-100027220D01*
X177347175Y-100011370D01*
X177364425Y-99995399D01*
X177381805Y-99979428D01*
X177398992Y-99963578D01*
X177415665Y-99947971D01*
X177431503Y-99932729D01*
X177446183Y-99917973D01*
X177459385Y-99903825D01*
X177470786Y-99890406D01*
X177480065Y-99877837D01*
X177486901Y-99866242D01*
X177490973Y-99855740D01*
X177491957Y-99846454D01*
X177489534Y-99838505D01*
X177483380Y-99832015D01*
X177473176Y-99827106D01*
X177458599Y-99823898D01*
X177439327Y-99822514D01*
X177430901Y-99822403D01*
X177419298Y-99822337D01*
X177404695Y-99822314D01*
X177387269Y-99822332D01*
X177367196Y-99822389D01*
X177344653Y-99822483D01*
X177319815Y-99822612D01*
X177292860Y-99822772D01*
X177263964Y-99822963D01*
X177233303Y-99823182D01*
X177201054Y-99823426D01*
X177167394Y-99823694D01*
X177132498Y-99823983D01*
X177096543Y-99824292D01*
X177059706Y-99824618D01*
X177022163Y-99824958D01*
X176984091Y-99825311D01*
X176945666Y-99825674D01*
X176907064Y-99826046D01*
X176868463Y-99826424D01*
X176830038Y-99826805D01*
X176791965Y-99827189D01*
X176754422Y-99827571D01*
X176717585Y-99827952D01*
X176681630Y-99828327D01*
X176646734Y-99828695D01*
X176613073Y-99829054D01*
X176580824Y-99829402D01*
X176550163Y-99829736D01*
X176521267Y-99830054D01*
X176494311Y-99830355D01*
X176469473Y-99830635D01*
X176446929Y-99830893D01*
X176426856Y-99831126D01*
X176409429Y-99831333D01*
X176394826Y-99831510D01*
X176383222Y-99831657D01*
X176374795Y-99831771D01*
X174478262Y-99831770D01*
X174478262Y-99831770D01*
G37*
X174478262Y-99831770D02*
X174452523Y-99832467D01*
X174426934Y-99835247D01*
X174401644Y-99840051D01*
X174376799Y-99846819D01*
X174352549Y-99855492D01*
X174329040Y-99866010D01*
X174306420Y-99878315D01*
X174284838Y-99892346D01*
X174264440Y-99908045D01*
X174245376Y-99925352D01*
X174227801Y-99944169D01*
X174211816Y-99964343D01*
X174197481Y-99985724D01*
X174184857Y-100008168D01*
X174174007Y-100031525D01*
X174164992Y-100055651D01*
X174157873Y-100080397D01*
X174152712Y-100105617D01*
X174149570Y-100131164D01*
X174148509Y-100156890D01*
X174149570Y-100182616D01*
X174152712Y-100208163D01*
X174157873Y-100233383D01*
X174164992Y-100258129D01*
X174174007Y-100282255D01*
X174184857Y-100305612D01*
X174197481Y-100328056D01*
X174211816Y-100349437D01*
X174227801Y-100369611D01*
X174245376Y-100388428D01*
X174264440Y-100405735D01*
X174284838Y-100421434D01*
X174306420Y-100435465D01*
X174329040Y-100447770D01*
X174352549Y-100458289D01*
X174376799Y-100466962D01*
X174401644Y-100473730D01*
X174426934Y-100478533D01*
X174452523Y-100481313D01*
X174478262Y-100482010D01*
X176374795Y-100482010D01*
X176385380Y-100482120D01*
X176399215Y-100482200D01*
X176416072Y-100482251D01*
X176435724Y-100482275D01*
X176457944Y-100482273D01*
X176482505Y-100482245D01*
X176509180Y-100482195D01*
X176537742Y-100482122D01*
X176567963Y-100482029D01*
X176599616Y-100481916D01*
X176632475Y-100481785D01*
X176666312Y-100481637D01*
X176700899Y-100481474D01*
X176736010Y-100481296D01*
X176771418Y-100481106D01*
X176806895Y-100480905D01*
X176842214Y-100480693D01*
X176877148Y-100480473D01*
X176911471Y-100480245D01*
X176944954Y-100480011D01*
X176977370Y-100479772D01*
X177008493Y-100479530D01*
X177038096Y-100479286D01*
X177065950Y-100479041D01*
X177091830Y-100478797D01*
X177115507Y-100478555D01*
X177136755Y-100478316D01*
X177155347Y-100478081D01*
X177171055Y-100477853D01*
X177186102Y-100474722D01*
X177199137Y-100466254D01*
X177210302Y-100453070D01*
X177219742Y-100435792D01*
X177227601Y-100415039D01*
X177234021Y-100391433D01*
X177239148Y-100365595D01*
X177243124Y-100338145D01*
X177246094Y-100309704D01*
X177248201Y-100280894D01*
X177249590Y-100252335D01*
X177250404Y-100224649D01*
X177250786Y-100198455D01*
X177250881Y-100174375D01*
X177250833Y-100153030D01*
X177250785Y-100135041D01*
X177252404Y-100124542D01*
X177257046Y-100112950D01*
X177264389Y-100100384D01*
X177274112Y-100086967D01*
X177285894Y-100072821D01*
X177299413Y-100058066D01*
X177314347Y-100042825D01*
X177330375Y-100027220D01*
X177347175Y-100011370D01*
X177364425Y-99995399D01*
X177381805Y-99979428D01*
X177398992Y-99963578D01*
X177415665Y-99947971D01*
X177431503Y-99932729D01*
X177446183Y-99917973D01*
X177459385Y-99903825D01*
X177470786Y-99890406D01*
X177480065Y-99877837D01*
X177486901Y-99866242D01*
X177490973Y-99855740D01*
X177491957Y-99846454D01*
X177489534Y-99838505D01*
X177483380Y-99832015D01*
X177473176Y-99827106D01*
X177458599Y-99823898D01*
X177439327Y-99822514D01*
X177430901Y-99822403D01*
X177419298Y-99822337D01*
X177404695Y-99822314D01*
X177387269Y-99822332D01*
X177367196Y-99822389D01*
X177344653Y-99822483D01*
X177319815Y-99822612D01*
X177292860Y-99822772D01*
X177263964Y-99822963D01*
X177233303Y-99823182D01*
X177201054Y-99823426D01*
X177167394Y-99823694D01*
X177132498Y-99823983D01*
X177096543Y-99824292D01*
X177059706Y-99824618D01*
X177022163Y-99824958D01*
X176984091Y-99825311D01*
X176945666Y-99825674D01*
X176907064Y-99826046D01*
X176868463Y-99826424D01*
X176830038Y-99826805D01*
X176791965Y-99827189D01*
X176754422Y-99827571D01*
X176717585Y-99827952D01*
X176681630Y-99828327D01*
X176646734Y-99828695D01*
X176613073Y-99829054D01*
X176580824Y-99829402D01*
X176550163Y-99829736D01*
X176521267Y-99830054D01*
X176494311Y-99830355D01*
X176469473Y-99830635D01*
X176446929Y-99830893D01*
X176426856Y-99831126D01*
X176409429Y-99831333D01*
X176394826Y-99831510D01*
X176383222Y-99831657D01*
X176374795Y-99831771D01*
X174478262Y-99831770D01*
D12*
X148500000Y-109800000D03*
D13*
X148500000Y-112340000D03*
X151040000Y-109800000D03*
X151040000Y-112340000D03*
X153580000Y-109800000D03*
X153580000Y-112340000D03*
X156120000Y-109800000D03*
X156120000Y-112340000D03*
D14*
X173370000Y-100170000D03*
X174470000Y-100170000D03*
D15*
X173440000Y-99530000D03*
X173440000Y-98430000D03*
D16*
X165225000Y-109095000D03*
X165225000Y-110365000D03*
X165225000Y-111635000D03*
X165225000Y-112905000D03*
X171575000Y-112905000D03*
X171575000Y-111635000D03*
X171575000Y-110365000D03*
X171575000Y-109095000D03*
D17*
X179000000Y-98500000D03*
X179000000Y-113500000D03*
X127500000Y-113500000D03*
X127500000Y-98500000D03*
D18*
X126700000Y-102450000D03*
X126700000Y-104950000D03*
X126700000Y-106960000D03*
X126700000Y-109450000D03*
D19*
X124600000Y-100100000D03*
X124600000Y-111800000D03*
D20*
X124600000Y-103700000D03*
X124600000Y-108200000D03*
D21*
X145000000Y-102900000D03*
X145000000Y-100700000D03*
X150400000Y-102900000D03*
X150400000Y-105100000D03*
D22*
X140525000Y-106675000D03*
D23*
X140525000Y-104135000D03*
D24*
X146600000Y-99600000D03*
X148600000Y-99600000D03*
D25*
X146650040Y-105100480D03*
X147600000Y-105100480D03*
X148549960Y-105100480D03*
X148549960Y-102300000D03*
X146650040Y-102300000D03*
D14*
X174250000Y-103500000D03*
X175350000Y-103500000D03*
D15*
X175450000Y-107900000D03*
X175450000Y-109000000D03*
D26*
X169610000Y-98790000D03*
X167610000Y-98790000D03*
D15*
X174630000Y-99530000D03*
X174630000Y-98430000D03*
D14*
X160450000Y-102600000D03*
X161550000Y-102600000D03*
X175360000Y-102240000D03*
X174260000Y-102240000D03*
X161550000Y-104000000D03*
X160450000Y-104000000D03*
X161550000Y-105400000D03*
X160450000Y-105400000D03*
D27*
X170350000Y-101400000D03*
X169850000Y-101400000D03*
X169350000Y-101400000D03*
X168850000Y-101400000D03*
X168350000Y-101400000D03*
X167850000Y-101400000D03*
X167350000Y-101400000D03*
X166850000Y-101400000D03*
D28*
X166200000Y-102050000D03*
X166200000Y-102550000D03*
X166200000Y-103050000D03*
X166200000Y-103550000D03*
X166200000Y-104050000D03*
X166200000Y-104550000D03*
X166200000Y-105050000D03*
X166200000Y-105550000D03*
D27*
X166850000Y-106200000D03*
X167350000Y-106200000D03*
X167850000Y-106200000D03*
X168350000Y-106200000D03*
X168850000Y-106200000D03*
X169350000Y-106200000D03*
X169850000Y-106200000D03*
X170350000Y-106200000D03*
D28*
X171000000Y-105550000D03*
X171000000Y-105050000D03*
X171000000Y-104550000D03*
X171000000Y-104050000D03*
X171000000Y-103550000D03*
X171000000Y-103050000D03*
X171000000Y-102550000D03*
X171000000Y-102050000D03*
D29*
X167737500Y-104662500D03*
X169462500Y-104662500D03*
X167737500Y-102937500D03*
X169462500Y-102937500D03*
D30*
X174200000Y-104900000D03*
X175300000Y-104900000D03*
X174200000Y-106400000D03*
X175300000Y-106400000D03*
D31*
X156400000Y-99800000D03*
D32*
X153860000Y-99800000D03*
X151320000Y-99800000D03*
D33*
X140275000Y-99025000D03*
X140275000Y-101025000D03*
D34*
X137475000Y-99030000D03*
X137475000Y-101570000D03*
X137475000Y-102840000D03*
X137475000Y-104110000D03*
X137475000Y-105380000D03*
X137475000Y-106650000D03*
X137475000Y-107920000D03*
X131125000Y-107920000D03*
X131125000Y-106650000D03*
X131125000Y-105380000D03*
X131125000Y-104110000D03*
X131125000Y-102840000D03*
X131125000Y-101570000D03*
X131125000Y-100300000D03*
X131125000Y-99030000D03*
X137475000Y-100300000D03*
D35*
X138800000Y-111950000D03*
X133720000Y-111950000D03*
D36*
X143150000Y-111925000D03*
X143150000Y-110425000D03*
X129275000Y-111925000D03*
X129275000Y-110425000D03*
D37*
X162850000Y-109500000D03*
X161350000Y-109500000D03*
D26*
X160798000Y-110744000D03*
X162798000Y-110744000D03*
D38*
X144200000Y-105200000D03*
X174730000Y-97880000D03*
X163050000Y-111900000D03*
X160274000Y-111506000D03*
X166770000Y-98900000D03*
X175650000Y-102325000D03*
X167737500Y-104662500D03*
X160325000Y-104375000D03*
X158050000Y-104250000D03*
X169462500Y-102937500D03*
X174600000Y-107575000D03*
X175900000Y-109625000D03*
X171600000Y-108500000D03*
X163900000Y-108100000D03*
X166624000Y-106934000D03*
X158750000Y-109350000D03*
X170110000Y-99450000D03*
X172870000Y-101820000D03*
X169330000Y-98030000D03*
X164870000Y-99510000D03*
X172000000Y-103250000D03*
X172650000Y-106300000D03*
X129850000Y-100350000D03*
X172600000Y-105200000D03*
X129800000Y-101525000D03*
X177010000Y-107620000D03*
X163068000Y-106172000D03*
X165100000Y-107696000D03*
X162800000Y-103550000D03*
X166116000Y-107696000D03*
X164592000Y-101600000D03*
X161798000Y-112014000D03*
X161900000Y-109500000D03*
X163576000Y-101854000D03*
X175450000Y-110800000D03*
X175450000Y-112575000D03*
X154900000Y-103600000D03*
X163875000Y-99525000D03*
X154200000Y-102150000D03*
X151650000Y-104725000D03*
X150900000Y-107600000D03*
X154100000Y-105700000D03*
X155250000Y-102250000D03*
X161290000Y-106680000D03*
X169926000Y-110490000D03*
X167132000Y-107696000D03*
X167500000Y-111300000D03*
X167500000Y-109000000D03*
X169200000Y-111400000D03*
X169000000Y-107800000D03*
X172590000Y-112760000D03*
X172700000Y-108200000D03*
X161570000Y-102210000D03*
X172000000Y-101910000D03*
D39*
X148549960Y-105100480D02*
X148549960Y-106050040D01*
X148549960Y-106050040D02*
X147900000Y-106700000D01*
X146650040Y-105100480D02*
X144299520Y-105100480D01*
X144299520Y-105100480D02*
X144200000Y-105200000D01*
X145000000Y-102900000D02*
X145000000Y-104400000D01*
X145000000Y-104400000D02*
X144200000Y-105200000D01*
X144200000Y-105200000D02*
X144200000Y-106250000D01*
X144400000Y-106450000D02*
X144200000Y-106250000D01*
X144400000Y-106450000D02*
X144650000Y-106700000D01*
X144650000Y-106700000D02*
X146400000Y-106700000D01*
X147900000Y-106700000D02*
X146400000Y-106700000D01*
X174630000Y-98430000D02*
X174630000Y-97980000D01*
X174630000Y-97980000D02*
X174730000Y-97880000D01*
X160798000Y-110744000D02*
X160798000Y-110982000D01*
X160798000Y-110982000D02*
X160274000Y-111506000D01*
X160798000Y-110744000D02*
X160782000Y-110744000D01*
X160782000Y-110744000D02*
X160274000Y-111252000D01*
X167610000Y-98790000D02*
X166880000Y-98790000D01*
X166880000Y-98790000D02*
X166770000Y-98900000D01*
X175350000Y-102625000D02*
X175650000Y-102325000D01*
X175350000Y-102625000D02*
X175350000Y-103500000D01*
X160450000Y-104000000D02*
X160450000Y-104250000D01*
X160450000Y-104250000D02*
X160325000Y-104375000D01*
X167737500Y-102937500D02*
X169462500Y-102937500D01*
X169462500Y-102937500D02*
X169462500Y-104662500D01*
X176225000Y-109950000D02*
X175900000Y-109625000D01*
X176225000Y-111300000D02*
X176225000Y-109950000D01*
X175775000Y-111750000D02*
X176225000Y-111300000D01*
X174350000Y-111750000D02*
X175775000Y-111750000D01*
X173800000Y-112300000D02*
X174350000Y-111750000D01*
X165700000Y-112905000D02*
X165855000Y-112750000D01*
X175350000Y-103500000D02*
X175375000Y-103525000D01*
X174200000Y-106400000D02*
X174275000Y-106475000D01*
X174275000Y-106475000D02*
X174275000Y-107250000D01*
X174275000Y-107250000D02*
X174600000Y-107575000D01*
X175900000Y-109625000D02*
X175900000Y-109450000D01*
X175900000Y-109450000D02*
X175450000Y-109000000D01*
X167350000Y-99050000D02*
X167550000Y-98850000D01*
X167300000Y-99100000D02*
X167550000Y-98850000D01*
X171575000Y-108525000D02*
X171575000Y-109095000D01*
X171600000Y-108500000D02*
X171575000Y-108525000D01*
X162700000Y-108700000D02*
X162700000Y-109350000D01*
X162700000Y-109350000D02*
X162850000Y-109500000D01*
X163900000Y-108100000D02*
X163300000Y-108100000D01*
X162700000Y-108700000D02*
X161532000Y-108700000D01*
X163300000Y-108100000D02*
X162700000Y-108700000D01*
X162850000Y-109500000D02*
X162850000Y-110692000D01*
X162850000Y-110692000D02*
X162798000Y-110744000D01*
X162850000Y-109500000D02*
X162850000Y-109184000D01*
X163068000Y-110744000D02*
X162798000Y-110744000D01*
X163310000Y-110232000D02*
X162798000Y-110744000D01*
X163900000Y-108100000D02*
X163912000Y-108088000D01*
X166850000Y-106200000D02*
X166850000Y-106708000D01*
X166850000Y-106708000D02*
X166624000Y-106934000D01*
X160450000Y-105400000D02*
X160450000Y-107618000D01*
X160450000Y-107618000D02*
X161532000Y-108700000D01*
X161532000Y-108700000D02*
X161544000Y-108712000D01*
X159388000Y-108712000D02*
X158750000Y-109350000D01*
X161544000Y-108712000D02*
X160450000Y-108712000D01*
X160450000Y-108712000D02*
X159388000Y-108712000D01*
X170110000Y-99450000D02*
X169610000Y-98950000D01*
X169610000Y-98950000D02*
X169610000Y-98790000D01*
X170350000Y-101400000D02*
X170350000Y-101250002D01*
X170350000Y-101250002D02*
X170510002Y-101090000D01*
X170510002Y-101090000D02*
X172070000Y-101090000D01*
X172070000Y-101090000D02*
X172800000Y-101820000D01*
X172800000Y-101820000D02*
X172870000Y-101820000D01*
X167350000Y-101400000D02*
X167350000Y-100950002D01*
X166020000Y-100660000D02*
X164870000Y-99510000D01*
X167059998Y-100660000D02*
X166020000Y-100660000D01*
X167350000Y-100950002D02*
X167059998Y-100660000D01*
X169350000Y-101400000D02*
X169350000Y-99050000D01*
X169350000Y-99050000D02*
X169610000Y-98790000D01*
X163100000Y-98850000D02*
X164210000Y-98850000D01*
X163100000Y-98850000D02*
X162750000Y-99200000D01*
X162750000Y-99200000D02*
X159400000Y-102550000D01*
X159400000Y-102600000D02*
X159400000Y-102550000D01*
X169330000Y-98030000D02*
X169610000Y-98310000D01*
X164210000Y-98850000D02*
X164870000Y-99510000D01*
X169610000Y-98310000D02*
X169610000Y-98790000D01*
X169550000Y-98850000D02*
X169450000Y-98750000D01*
X169550000Y-98850000D02*
X169525000Y-98825000D01*
X171700000Y-108495000D02*
X171100000Y-109095000D01*
X140525000Y-106675000D02*
X141300000Y-106675000D01*
X141300000Y-106675000D02*
X143175000Y-104800000D01*
X143175000Y-104800000D02*
X143175000Y-98950000D01*
X143175000Y-98950000D02*
X144825000Y-97300000D01*
X144825000Y-97300000D02*
X150300000Y-97300000D01*
X150300000Y-97300000D02*
X151320000Y-98320000D01*
X151320000Y-98320000D02*
X151320000Y-99800000D01*
X166200000Y-103050000D02*
X164200000Y-103050000D01*
X162650000Y-102650000D02*
X162050000Y-103250000D01*
X163800000Y-102650000D02*
X162650000Y-102650000D01*
X164200000Y-103050000D02*
X163800000Y-102650000D01*
X159400000Y-102600000D02*
X160450000Y-102600000D01*
X162100000Y-103250000D02*
X162050000Y-103250000D01*
X162050000Y-103250000D02*
X160800000Y-103250000D01*
X160800000Y-103250000D02*
X160450000Y-102900000D01*
X160450000Y-102900000D02*
X160450000Y-102600000D01*
X171800000Y-103050000D02*
X171000000Y-103050000D01*
X172000000Y-103250000D02*
X171800000Y-103050000D01*
X169350000Y-101400000D02*
X169350000Y-101100000D01*
X159300000Y-102600000D02*
X159400000Y-102600000D01*
X169350000Y-101400000D02*
X168850000Y-101400000D01*
X169350000Y-101400000D02*
X169350000Y-100950000D01*
X160450000Y-105400000D02*
X159450000Y-105400000D01*
X159450000Y-105400000D02*
X159350000Y-105300000D01*
X159300000Y-105250000D02*
X159300000Y-102600000D01*
X159350000Y-105300000D02*
X159300000Y-105250000D01*
X171000000Y-103550000D02*
X171000000Y-103050000D01*
X150400000Y-102900000D02*
X151320000Y-101980000D01*
X151320000Y-101980000D02*
X151320000Y-99800000D01*
X150400000Y-102900000D02*
X158500000Y-102900000D01*
X158800000Y-102600000D02*
X159300000Y-102600000D01*
X158500000Y-102900000D02*
X158800000Y-102600000D01*
X150400000Y-102900000D02*
X149149960Y-102900000D01*
X149149960Y-102900000D02*
X148549960Y-102300000D01*
X148549960Y-102300000D02*
X148549960Y-99650040D01*
X148549960Y-99650040D02*
X148600000Y-99600000D01*
X133720000Y-111950000D02*
X133720000Y-110515000D01*
X133720000Y-110515000D02*
X131125000Y-107920000D01*
X133720000Y-111950000D02*
X129300000Y-111950000D01*
X129300000Y-111950000D02*
X129275000Y-111925000D01*
X146650040Y-102300000D02*
X146650040Y-99650040D01*
X146650040Y-99650040D02*
X146600000Y-99600000D01*
X131125000Y-104110000D02*
X127540000Y-104110000D01*
X127540000Y-104110000D02*
X126700000Y-104950000D01*
X131125000Y-105380000D02*
X128280000Y-105380000D01*
X128280000Y-105380000D02*
X126700000Y-106960000D01*
X126700860Y-106959140D02*
X126700000Y-106960000D01*
X171900000Y-105550000D02*
X171000000Y-105550000D01*
X171900000Y-105550000D02*
X172650000Y-106300000D01*
X129900000Y-100300000D02*
X131125000Y-100300000D01*
X129850000Y-100350000D02*
X129900000Y-100300000D01*
X172450000Y-105050000D02*
X172600000Y-105200000D01*
X172450000Y-105050000D02*
X171000000Y-105050000D01*
X129845000Y-101570000D02*
X131125000Y-101570000D01*
X129800000Y-101525000D02*
X129845000Y-101570000D01*
D40*
X174470000Y-100170000D02*
X177020000Y-100170000D01*
X177020000Y-100170000D02*
X177010000Y-100180000D01*
X177010000Y-100180000D02*
X177010000Y-107620000D01*
D39*
X169850000Y-100950000D02*
X169850000Y-101400000D01*
X174250000Y-103500000D02*
X174250000Y-104850000D01*
X174250000Y-104850000D02*
X174200000Y-104900000D01*
X174250000Y-103500000D02*
X173800000Y-103500000D01*
X173250000Y-104050000D02*
X171000000Y-104050000D01*
X173800000Y-103500000D02*
X173250000Y-104050000D01*
X174200000Y-104900000D02*
X174100000Y-104900000D01*
X174200000Y-103550000D02*
X174250000Y-103500000D01*
X174450000Y-104950000D02*
X174500000Y-105000000D01*
X173400000Y-107300000D02*
X174400000Y-108300000D01*
X171000000Y-104550000D02*
X172950000Y-104550000D01*
X173400000Y-105000000D02*
X173400000Y-107300000D01*
X172950000Y-104550000D02*
X173400000Y-105000000D01*
X175050000Y-108300000D02*
X175450000Y-107900000D01*
X174400000Y-108300000D02*
X175050000Y-108300000D01*
X175450000Y-107900000D02*
X175450000Y-106550000D01*
X175450000Y-106550000D02*
X175300000Y-106400000D01*
X175550000Y-106550000D02*
X175600000Y-106500000D01*
X164592000Y-107696000D02*
X163068000Y-106172000D01*
X165100000Y-107696000D02*
X164592000Y-107696000D01*
X165350000Y-103550000D02*
X164300000Y-103550000D01*
X166200000Y-103550000D02*
X165350000Y-103550000D01*
X164300000Y-103550000D02*
X162800000Y-103550000D01*
X165608000Y-107188000D02*
X166116000Y-107696000D01*
X165976000Y-105550000D02*
X165608000Y-105918000D01*
X165608000Y-105918000D02*
X165608000Y-107188000D01*
X165976000Y-105550000D02*
X166200000Y-105550000D01*
X166200000Y-102050000D02*
X165042000Y-102050000D01*
X165042000Y-102050000D02*
X164592000Y-101600000D01*
X161900000Y-109500000D02*
X161350000Y-109500000D01*
X161900000Y-109500000D02*
X160274000Y-109474000D01*
X158750000Y-112522000D02*
X161290000Y-112522000D01*
X161290000Y-112522000D02*
X161798000Y-112014000D01*
X158496000Y-112268000D02*
X158750000Y-112522000D01*
X158496000Y-111252000D02*
X158496000Y-112268000D01*
X160274000Y-109474000D02*
X158496000Y-111252000D01*
X164575998Y-102599998D02*
X166200000Y-102599998D01*
X163830000Y-101854000D02*
X164575998Y-102599998D01*
X163576000Y-101854000D02*
X163830000Y-101854000D01*
X166200000Y-102599998D02*
X166200000Y-102550000D01*
X170925000Y-106875000D02*
X172275000Y-106875000D01*
X172275000Y-106875000D02*
X172525000Y-107125000D01*
X172525000Y-107100000D02*
X172525000Y-107125000D01*
X175325000Y-112575000D02*
X173800000Y-114100000D01*
X172525000Y-107125000D02*
X174900000Y-109500000D01*
X174900000Y-109500000D02*
X174900000Y-110250000D01*
X174900000Y-110250000D02*
X175450000Y-110800000D01*
X175450000Y-112575000D02*
X175325000Y-112575000D01*
X173800000Y-114100000D02*
X163400000Y-114100000D01*
X163400000Y-114100000D02*
X158550000Y-114100000D01*
X158550000Y-114100000D02*
X152900000Y-114100000D01*
X152900000Y-114100000D02*
X149350000Y-114100000D01*
X149350000Y-114100000D02*
X147950000Y-114100000D01*
X147950000Y-114100000D02*
X147150000Y-113300000D01*
X147150000Y-113300000D02*
X147150000Y-110700000D01*
X147150000Y-110700000D02*
X148050000Y-109800000D01*
X148050000Y-109800000D02*
X148500000Y-109800000D01*
X170350000Y-106200000D02*
X170350000Y-106300000D01*
X170350000Y-106300000D02*
X170925000Y-106875000D01*
X170925000Y-106875000D02*
X170950000Y-106900000D01*
X151775000Y-106725000D02*
X154900000Y-103600000D01*
X163875000Y-99525000D02*
X165750000Y-101400000D01*
X165750000Y-101400000D02*
X166850000Y-101400000D01*
X151775000Y-106725000D02*
X151700000Y-106800000D01*
X151700000Y-109140000D02*
X151040000Y-109800000D01*
X151700000Y-106800000D02*
X151700000Y-109140000D01*
X151740000Y-106760000D02*
X151775000Y-106725000D01*
X168350000Y-100800000D02*
X168350000Y-100460000D01*
X163349998Y-97250000D02*
X159249998Y-101350000D01*
X159249998Y-101350000D02*
X155000000Y-101350000D01*
X155000000Y-101350000D02*
X154200000Y-102150000D01*
X151650000Y-104725000D02*
X151600000Y-104775000D01*
X151600000Y-104775000D02*
X151600000Y-106050000D01*
X151600000Y-106050000D02*
X150900000Y-106750000D01*
X150900000Y-106750000D02*
X150900000Y-107600000D01*
X168350000Y-100800000D02*
X168350000Y-101400000D01*
X167810000Y-97250000D02*
X163349998Y-97250000D01*
X168640000Y-98080000D02*
X167810000Y-97250000D01*
X168640000Y-100170000D02*
X168640000Y-98080000D01*
X168350000Y-100460000D02*
X168640000Y-100170000D01*
X167850000Y-101400000D02*
X167850000Y-100790000D01*
X164680000Y-98320000D02*
X162930000Y-98320000D01*
X166560000Y-100200000D02*
X164680000Y-98320000D01*
X167260000Y-100200000D02*
X166560000Y-100200000D01*
X167850000Y-100790000D02*
X167260000Y-100200000D01*
X156050000Y-107650000D02*
X157050000Y-107650000D01*
X154100000Y-105700000D02*
X156050000Y-107650000D01*
X155650000Y-101850000D02*
X155250000Y-102250000D01*
X159400000Y-101850000D02*
X155650000Y-101850000D01*
X162930000Y-98320000D02*
X159400000Y-101850000D01*
X154499998Y-113649998D02*
X153580000Y-112730000D01*
X157300002Y-113649998D02*
X154499998Y-113649998D01*
X157650000Y-113300000D02*
X157300002Y-113649998D01*
X157050000Y-107650000D02*
X157650000Y-108250000D01*
X157650000Y-108250000D02*
X157650000Y-113300000D01*
X153580000Y-112730000D02*
X153580000Y-112340000D01*
X163936000Y-105050000D02*
X163576000Y-105410000D01*
X163576000Y-105410000D02*
X162814000Y-105410000D01*
X162814000Y-105410000D02*
X161290000Y-106680000D01*
X163936000Y-105050000D02*
X166200000Y-105050000D01*
X171000000Y-102550000D02*
X173220000Y-102550000D01*
X173530000Y-102240000D02*
X174260000Y-102240000D01*
X173220000Y-102550000D02*
X173530000Y-102240000D01*
X166200000Y-104050000D02*
X163399998Y-104050000D01*
X162125000Y-104000000D02*
X161550000Y-104000000D01*
X162350000Y-104225000D02*
X162125000Y-104000000D01*
X163224998Y-104225000D02*
X162350000Y-104225000D01*
X163399998Y-104050000D02*
X163224998Y-104225000D01*
X166200000Y-104550000D02*
X163700000Y-104550000D01*
X162200000Y-104750000D02*
X161550000Y-105400000D01*
X163500000Y-104750000D02*
X162200000Y-104750000D01*
X163700000Y-104550000D02*
X163500000Y-104750000D01*
X167350000Y-107478000D02*
X167132000Y-107696000D01*
X167350000Y-106200000D02*
X167350000Y-107478000D01*
X170051000Y-110365000D02*
X171575000Y-110365000D01*
X169926000Y-110490000D02*
X170051000Y-110365000D01*
X172087000Y-110365000D02*
X171100000Y-110365000D01*
X172212000Y-110490000D02*
X172087000Y-110365000D01*
X171100000Y-110365000D02*
X170510000Y-110365000D01*
X171765000Y-110365000D02*
X171100000Y-110365000D01*
X167850000Y-106200000D02*
X167850000Y-108650000D01*
X167165000Y-111635000D02*
X165225000Y-111635000D01*
X167500000Y-111300000D02*
X167165000Y-111635000D01*
X167850000Y-108650000D02*
X167500000Y-109000000D01*
X165700000Y-111635000D02*
X164975000Y-111635000D01*
X167894000Y-106244000D02*
X167850000Y-106200000D01*
X167894000Y-109728000D02*
X167132000Y-109728000D01*
X168350000Y-106200000D02*
X168350000Y-109272000D01*
X166499000Y-109095000D02*
X165700000Y-109095000D01*
X167132000Y-109728000D02*
X166499000Y-109095000D01*
X168350000Y-109272000D02*
X167894000Y-109728000D01*
X165700000Y-109095000D02*
X166305000Y-109095000D01*
X169200000Y-111400000D02*
X169435000Y-111635000D01*
X171575000Y-111635000D02*
X169435000Y-111635000D01*
X168850000Y-107550000D02*
X168850000Y-106200000D01*
X168850000Y-107550000D02*
X169000000Y-107800000D01*
X165225000Y-110365000D02*
X167935000Y-110365000D01*
X169350000Y-107150000D02*
X169800000Y-107600000D01*
X169800000Y-107600000D02*
X169800000Y-108000000D01*
X169350000Y-107150000D02*
X169350000Y-106200000D01*
X168900000Y-108900000D02*
X169800000Y-108000000D01*
X168900000Y-109400000D02*
X168900000Y-108900000D01*
X167935000Y-110365000D02*
X168900000Y-109400000D01*
X169850000Y-106200000D02*
X169850000Y-106750000D01*
X172495000Y-112665000D02*
X171575000Y-112905000D01*
X172590000Y-112760000D02*
X172495000Y-112665000D01*
X171900000Y-107400000D02*
X172700000Y-108200000D01*
X170500000Y-107400000D02*
X171900000Y-107400000D01*
X169850000Y-106750000D02*
X170500000Y-107400000D01*
X171100000Y-112905000D02*
X170430000Y-112905000D01*
X169850000Y-106249998D02*
X169850000Y-106200000D01*
X171000000Y-102050000D02*
X171860000Y-102050000D01*
X161570000Y-102210000D02*
X161550000Y-102230000D01*
X161550000Y-102230000D02*
X161550000Y-102600000D01*
X171860000Y-102050000D02*
X172000000Y-101910000D01*
X138800000Y-111950000D02*
X137350000Y-111950000D01*
X132050000Y-106650000D02*
X131125000Y-106650000D01*
X137350000Y-111950000D02*
X132050000Y-106650000D01*
X138800000Y-111950000D02*
X143125000Y-111950000D01*
X143125000Y-111950000D02*
X143150000Y-111925000D01*
X140275000Y-99025000D02*
X141189000Y-99025000D01*
X141986000Y-102674000D02*
X140525000Y-104135000D01*
X141986000Y-99822000D02*
X141986000Y-102674000D01*
X141189000Y-99025000D02*
X141986000Y-99822000D01*
X137475000Y-99030000D02*
X136174000Y-99030000D01*
X132364000Y-102840000D02*
X131125000Y-102840000D01*
X136174000Y-99030000D02*
X132364000Y-102840000D01*
X140275000Y-99025000D02*
X137480000Y-99025000D01*
X137480000Y-99025000D02*
X137475000Y-99030000D01*
D41*
G36*
X145829135Y-97821546D02*
X145742141Y-97948866D01*
X145711536Y-98100000D01*
X145711536Y-99822721D01*
X145665819Y-99777004D01*
X145525785Y-99719000D01*
X145222250Y-99719000D01*
X145127000Y-99814250D01*
X145127000Y-100573000D01*
X145147000Y-100573000D01*
X145147000Y-100827000D01*
X145127000Y-100827000D01*
X145127000Y-101585750D01*
X145222250Y-101681000D01*
X145525785Y-101681000D01*
X145665819Y-101622996D01*
X145772996Y-101515820D01*
X145830503Y-101376985D01*
X145948866Y-101457859D01*
X146100000Y-101488464D01*
X146129996Y-101488464D01*
X146079175Y-101521166D01*
X145992181Y-101648486D01*
X145961576Y-101799620D01*
X145961576Y-102800380D01*
X145988143Y-102941570D01*
X146071586Y-103071245D01*
X146198906Y-103158239D01*
X146350040Y-103188844D01*
X146950040Y-103188844D01*
X147091230Y-103162277D01*
X147220905Y-103078834D01*
X147307899Y-102951514D01*
X147338504Y-102800380D01*
X147338504Y-101799620D01*
X147311937Y-101658430D01*
X147228494Y-101528755D01*
X147156040Y-101479249D01*
X147156040Y-101477919D01*
X147241190Y-101461897D01*
X147370865Y-101378454D01*
X147457859Y-101251134D01*
X147488464Y-101100000D01*
X147488464Y-98100000D01*
X147461897Y-97958810D01*
X147378454Y-97829135D01*
X147344595Y-97806000D01*
X147853294Y-97806000D01*
X147829135Y-97821546D01*
X147742141Y-97948866D01*
X147711536Y-98100000D01*
X147711536Y-101100000D01*
X147738103Y-101241190D01*
X147821546Y-101370865D01*
X147948866Y-101457859D01*
X148043960Y-101477116D01*
X148043960Y-101479427D01*
X147979095Y-101521166D01*
X147892101Y-101648486D01*
X147861496Y-101799620D01*
X147861496Y-102800380D01*
X147888063Y-102941570D01*
X147971506Y-103071245D01*
X148098826Y-103158239D01*
X148249960Y-103188844D01*
X148723212Y-103188844D01*
X148792164Y-103257796D01*
X148956322Y-103367483D01*
X149149960Y-103406000D01*
X149561536Y-103406000D01*
X149561536Y-103500000D01*
X149588103Y-103641190D01*
X149671546Y-103770865D01*
X149798866Y-103857859D01*
X149950000Y-103888464D01*
X150850000Y-103888464D01*
X150991190Y-103861897D01*
X151120865Y-103778454D01*
X151207859Y-103651134D01*
X151238464Y-103500000D01*
X151238464Y-103406000D01*
X154243179Y-103406000D01*
X154219118Y-103463946D01*
X154219030Y-103565378D01*
X152106000Y-105678408D01*
X152106000Y-105232036D01*
X152226987Y-105111259D01*
X152330882Y-104861054D01*
X152331118Y-104590135D01*
X152227661Y-104339748D01*
X152036259Y-104148013D01*
X151786054Y-104044118D01*
X151515135Y-104043882D01*
X151264748Y-104147339D01*
X151150352Y-104261536D01*
X151065819Y-104177004D01*
X150925785Y-104119000D01*
X150622250Y-104119000D01*
X150527000Y-104214250D01*
X150527000Y-104973000D01*
X150547000Y-104973000D01*
X150547000Y-105227000D01*
X150527000Y-105227000D01*
X150527000Y-105985750D01*
X150622250Y-106081000D01*
X150853408Y-106081000D01*
X150542204Y-106392204D01*
X150432517Y-106556362D01*
X150394000Y-106750000D01*
X150394000Y-107142877D01*
X150323013Y-107213741D01*
X150219118Y-107463946D01*
X150218882Y-107734865D01*
X150322339Y-107985252D01*
X150513741Y-108176987D01*
X150763946Y-108280882D01*
X151034865Y-108281118D01*
X151194000Y-108215365D01*
X151194000Y-108581183D01*
X151064383Y-108555400D01*
X151015617Y-108555400D01*
X150539329Y-108650140D01*
X150135552Y-108919935D01*
X149865757Y-109323712D01*
X149771017Y-109800000D01*
X149865757Y-110276288D01*
X150135552Y-110680065D01*
X150539329Y-110949860D01*
X151015617Y-111044600D01*
X151064383Y-111044600D01*
X151540671Y-110949860D01*
X151944448Y-110680065D01*
X152214243Y-110276288D01*
X152308983Y-109800000D01*
X152311017Y-109800000D01*
X152405757Y-110276288D01*
X152675552Y-110680065D01*
X153079329Y-110949860D01*
X153555617Y-111044600D01*
X153604383Y-111044600D01*
X154080671Y-110949860D01*
X154484448Y-110680065D01*
X154754243Y-110276288D01*
X154848983Y-109800000D01*
X154754243Y-109323712D01*
X154484448Y-108919935D01*
X154080671Y-108650140D01*
X153604383Y-108555400D01*
X153555617Y-108555400D01*
X153079329Y-108650140D01*
X152675552Y-108919935D01*
X152405757Y-109323712D01*
X152311017Y-109800000D01*
X152308983Y-109800000D01*
X152214243Y-109323712D01*
X152179731Y-109272062D01*
X152206000Y-109140000D01*
X152206000Y-107009592D01*
X153418915Y-105796677D01*
X153418882Y-105834865D01*
X153522339Y-106085252D01*
X153713741Y-106276987D01*
X153963946Y-106380882D01*
X154065378Y-106380970D01*
X155692204Y-108007796D01*
X155856362Y-108117483D01*
X156050000Y-108156000D01*
X156840408Y-108156000D01*
X157144000Y-108459592D01*
X157144000Y-109098857D01*
X157024448Y-108919935D01*
X156620671Y-108650140D01*
X156144383Y-108555400D01*
X156095617Y-108555400D01*
X155619329Y-108650140D01*
X155215552Y-108919935D01*
X154945757Y-109323712D01*
X154851017Y-109800000D01*
X154945757Y-110276288D01*
X155215552Y-110680065D01*
X155619329Y-110949860D01*
X156095617Y-111044600D01*
X156144383Y-111044600D01*
X156620671Y-110949860D01*
X157024448Y-110680065D01*
X157144000Y-110501143D01*
X157144000Y-111655657D01*
X156875199Y-111350690D01*
X156439120Y-111136995D01*
X156247000Y-111197135D01*
X156247000Y-112213000D01*
X156267000Y-112213000D01*
X156267000Y-112467000D01*
X156247000Y-112467000D01*
X156247000Y-112487000D01*
X155993000Y-112487000D01*
X155993000Y-112467000D01*
X154977688Y-112467000D01*
X154917007Y-112659118D01*
X155043695Y-112965001D01*
X155201465Y-113143998D01*
X154709590Y-113143998D01*
X154605095Y-113039503D01*
X154754243Y-112816288D01*
X154848983Y-112340000D01*
X154785507Y-112020882D01*
X154917007Y-112020882D01*
X154977688Y-112213000D01*
X155993000Y-112213000D01*
X155993000Y-111197135D01*
X155800880Y-111136995D01*
X155364801Y-111350690D01*
X155043695Y-111714999D01*
X154917007Y-112020882D01*
X154785507Y-112020882D01*
X154754243Y-111863712D01*
X154484448Y-111459935D01*
X154080671Y-111190140D01*
X153604383Y-111095400D01*
X153555617Y-111095400D01*
X153079329Y-111190140D01*
X152675552Y-111459935D01*
X152405757Y-111863712D01*
X152311017Y-112340000D01*
X152405757Y-112816288D01*
X152675552Y-113220065D01*
X153079329Y-113489860D01*
X153555617Y-113584600D01*
X153604383Y-113584600D01*
X153699990Y-113565582D01*
X153728408Y-113594000D01*
X148159592Y-113594000D01*
X148069388Y-113503796D01*
X148475617Y-113584600D01*
X148524383Y-113584600D01*
X149000671Y-113489860D01*
X149404448Y-113220065D01*
X149674243Y-112816288D01*
X149768983Y-112340000D01*
X149771017Y-112340000D01*
X149865757Y-112816288D01*
X150135552Y-113220065D01*
X150539329Y-113489860D01*
X151015617Y-113584600D01*
X151064383Y-113584600D01*
X151540671Y-113489860D01*
X151944448Y-113220065D01*
X152214243Y-112816288D01*
X152308983Y-112340000D01*
X152214243Y-111863712D01*
X151944448Y-111459935D01*
X151540671Y-111190140D01*
X151064383Y-111095400D01*
X151015617Y-111095400D01*
X150539329Y-111190140D01*
X150135552Y-111459935D01*
X149865757Y-111863712D01*
X149771017Y-112340000D01*
X149768983Y-112340000D01*
X149674243Y-111863712D01*
X149404448Y-111459935D01*
X149000671Y-111190140D01*
X148524383Y-111095400D01*
X148475617Y-111095400D01*
X147999329Y-111190140D01*
X147656000Y-111419545D01*
X147656000Y-111052064D01*
X149363600Y-111052064D01*
X149504790Y-111025497D01*
X149634465Y-110942054D01*
X149721459Y-110814734D01*
X149752064Y-110663600D01*
X149752064Y-108936400D01*
X149725497Y-108795210D01*
X149642054Y-108665535D01*
X149514734Y-108578541D01*
X149363600Y-108547936D01*
X147636400Y-108547936D01*
X147495210Y-108574503D01*
X147365535Y-108657946D01*
X147278541Y-108785266D01*
X147247936Y-108936400D01*
X147247936Y-109886472D01*
X146792204Y-110342204D01*
X146682517Y-110506362D01*
X146644000Y-110700000D01*
X146644000Y-113300000D01*
X146682517Y-113493638D01*
X146792204Y-113657796D01*
X147592204Y-114457796D01*
X147756362Y-114567483D01*
X147950000Y-114606000D01*
X173800000Y-114606000D01*
X173993638Y-114567483D01*
X174157796Y-114457796D01*
X175359670Y-113255922D01*
X175584865Y-113256118D01*
X175835252Y-113152661D01*
X176026987Y-112961259D01*
X176130882Y-112711054D01*
X176131118Y-112440135D01*
X176027661Y-112189748D01*
X175836259Y-111998013D01*
X175586054Y-111894118D01*
X175315135Y-111893882D01*
X175064748Y-111997339D01*
X174873013Y-112188741D01*
X174785916Y-112398492D01*
X173590408Y-113594000D01*
X158050423Y-113594000D01*
X158117483Y-113493638D01*
X158156000Y-113300000D01*
X158156000Y-113127250D01*
X163344000Y-113127250D01*
X163344000Y-113280785D01*
X163402004Y-113420819D01*
X163509180Y-113527996D01*
X163649214Y-113586000D01*
X165002750Y-113586000D01*
X165098000Y-113490750D01*
X165098000Y-113032000D01*
X165352000Y-113032000D01*
X165352000Y-113490750D01*
X165447250Y-113586000D01*
X166800786Y-113586000D01*
X166940820Y-113527996D01*
X167047996Y-113420819D01*
X167106000Y-113280785D01*
X167106000Y-113127250D01*
X167010750Y-113032000D01*
X165352000Y-113032000D01*
X165098000Y-113032000D01*
X163439250Y-113032000D01*
X163344000Y-113127250D01*
X158156000Y-113127250D01*
X158156000Y-112643592D01*
X158392204Y-112879796D01*
X158556362Y-112989483D01*
X158750000Y-113028000D01*
X161290000Y-113028000D01*
X161483638Y-112989483D01*
X161647796Y-112879796D01*
X161832561Y-112695031D01*
X161932865Y-112695118D01*
X162183252Y-112591661D01*
X162374987Y-112400259D01*
X162478882Y-112150054D01*
X162479118Y-111879135D01*
X162428845Y-111757464D01*
X163298000Y-111757464D01*
X163336536Y-111750213D01*
X163336536Y-111935000D01*
X163363103Y-112076190D01*
X163446546Y-112205865D01*
X163539561Y-112269420D01*
X163509180Y-112282004D01*
X163402004Y-112389181D01*
X163344000Y-112529215D01*
X163344000Y-112682750D01*
X163439250Y-112778000D01*
X165098000Y-112778000D01*
X165098000Y-112758000D01*
X165352000Y-112758000D01*
X165352000Y-112778000D01*
X167010750Y-112778000D01*
X167106000Y-112682750D01*
X167106000Y-112529215D01*
X167047996Y-112389181D01*
X166940820Y-112282004D01*
X166909497Y-112269030D01*
X166995865Y-112213454D01*
X167045371Y-112141000D01*
X167165000Y-112141000D01*
X167358638Y-112102483D01*
X167522796Y-111992796D01*
X167534561Y-111981031D01*
X167634865Y-111981118D01*
X167885252Y-111877661D01*
X168076987Y-111686259D01*
X168180882Y-111436054D01*
X168181118Y-111165135D01*
X168077661Y-110914748D01*
X168017589Y-110854572D01*
X168128638Y-110832483D01*
X168292796Y-110722796D01*
X169257796Y-109757796D01*
X169367483Y-109593638D01*
X169406000Y-109400000D01*
X169406000Y-109109592D01*
X169686536Y-108829056D01*
X169686536Y-109395000D01*
X169713103Y-109536190D01*
X169796546Y-109665865D01*
X169891187Y-109730530D01*
X169804135Y-109786546D01*
X169787984Y-109810184D01*
X169540748Y-109912339D01*
X169349013Y-110103741D01*
X169245118Y-110353946D01*
X169244882Y-110624865D01*
X169283807Y-110719072D01*
X169065135Y-110718882D01*
X168814748Y-110822339D01*
X168623013Y-111013741D01*
X168519118Y-111263946D01*
X168518882Y-111534865D01*
X168622339Y-111785252D01*
X168813741Y-111976987D01*
X169063946Y-112080882D01*
X169209223Y-112081009D01*
X169241362Y-112102483D01*
X169435000Y-112141000D01*
X169754807Y-112141000D01*
X169796546Y-112205865D01*
X169891187Y-112270530D01*
X169804135Y-112326546D01*
X169717141Y-112453866D01*
X169686536Y-112605000D01*
X169686536Y-113205000D01*
X169713103Y-113346190D01*
X169796546Y-113475865D01*
X169923866Y-113562859D01*
X170075000Y-113593464D01*
X173075000Y-113593464D01*
X173216190Y-113566897D01*
X173345865Y-113483454D01*
X173432859Y-113356134D01*
X173463464Y-113205000D01*
X173463464Y-112605000D01*
X173436897Y-112463810D01*
X173353454Y-112334135D01*
X173258813Y-112269470D01*
X173345865Y-112213454D01*
X173432859Y-112086134D01*
X173463464Y-111935000D01*
X173463464Y-111335000D01*
X173436897Y-111193810D01*
X173353454Y-111064135D01*
X173258813Y-110999470D01*
X173345865Y-110943454D01*
X173432859Y-110816134D01*
X173463464Y-110665000D01*
X173463464Y-110065000D01*
X173436897Y-109923810D01*
X173353454Y-109794135D01*
X173258813Y-109729470D01*
X173345865Y-109673454D01*
X173432859Y-109546134D01*
X173463464Y-109395000D01*
X173463464Y-108795000D01*
X173459769Y-108775361D01*
X174394000Y-109709592D01*
X174394000Y-110250000D01*
X174432517Y-110443638D01*
X174542204Y-110607796D01*
X174768969Y-110834561D01*
X174768882Y-110934865D01*
X174872339Y-111185252D01*
X175063741Y-111376987D01*
X175313946Y-111480882D01*
X175584865Y-111481118D01*
X175835252Y-111377661D01*
X176026987Y-111186259D01*
X176130882Y-110936054D01*
X176131118Y-110665135D01*
X176027661Y-110414748D01*
X175836259Y-110223013D01*
X175586054Y-110119118D01*
X175484622Y-110119030D01*
X175406000Y-110040408D01*
X175406000Y-109500000D01*
X175367483Y-109306362D01*
X175325000Y-109242782D01*
X175325000Y-109127000D01*
X175575000Y-109127000D01*
X175575000Y-109585750D01*
X175670250Y-109681000D01*
X175775785Y-109681000D01*
X175915819Y-109622996D01*
X176022996Y-109515820D01*
X176081000Y-109375786D01*
X176081000Y-109222250D01*
X175985750Y-109127000D01*
X175575000Y-109127000D01*
X175325000Y-109127000D01*
X175303000Y-109127000D01*
X175303000Y-108873000D01*
X175325000Y-108873000D01*
X175325000Y-108853000D01*
X175575000Y-108853000D01*
X175575000Y-108873000D01*
X175985750Y-108873000D01*
X176081000Y-108777750D01*
X176081000Y-108624214D01*
X176022996Y-108484180D01*
X175989702Y-108450886D01*
X176057859Y-108351134D01*
X176088464Y-108200000D01*
X176088464Y-107600000D01*
X176061897Y-107458810D01*
X175978454Y-107329135D01*
X175956000Y-107313793D01*
X175956000Y-107238019D01*
X175970865Y-107228454D01*
X176057859Y-107101134D01*
X176088464Y-106950000D01*
X176088464Y-106588159D01*
X176106000Y-106500000D01*
X176088464Y-106411841D01*
X176088464Y-105850000D01*
X176061897Y-105708810D01*
X176027397Y-105655195D01*
X176081000Y-105525785D01*
X176081000Y-105122250D01*
X175985750Y-105027000D01*
X175427000Y-105027000D01*
X175427000Y-105047000D01*
X175173000Y-105047000D01*
X175173000Y-105027000D01*
X175153000Y-105027000D01*
X175153000Y-104773000D01*
X175173000Y-104773000D01*
X175173000Y-104085750D01*
X175194500Y-104064250D01*
X175427000Y-104064250D01*
X175427000Y-104773000D01*
X175985750Y-104773000D01*
X176081000Y-104677750D01*
X176081000Y-104274215D01*
X176022996Y-104134181D01*
X175915820Y-104027004D01*
X175912986Y-104025830D01*
X175972996Y-103965819D01*
X176031000Y-103825785D01*
X176031000Y-103720250D01*
X175935750Y-103625000D01*
X175477000Y-103625000D01*
X175477000Y-104014250D01*
X175427000Y-104064250D01*
X175194500Y-104064250D01*
X175223000Y-104035750D01*
X175223000Y-103625000D01*
X175203000Y-103625000D01*
X175203000Y-103375000D01*
X175223000Y-103375000D01*
X175223000Y-102964250D01*
X175477000Y-102964250D01*
X175477000Y-103375000D01*
X175935750Y-103375000D01*
X176031000Y-103279750D01*
X176031000Y-103174215D01*
X175972996Y-103034181D01*
X175865820Y-102927004D01*
X175730614Y-102871000D01*
X175735786Y-102871000D01*
X175875820Y-102812996D01*
X175982996Y-102705819D01*
X176041000Y-102565785D01*
X176041000Y-102460250D01*
X175945750Y-102365000D01*
X175487000Y-102365000D01*
X175487000Y-102775750D01*
X175580250Y-102869000D01*
X175572250Y-102869000D01*
X175477000Y-102964250D01*
X175223000Y-102964250D01*
X175129750Y-102871000D01*
X175137750Y-102871000D01*
X175233000Y-102775750D01*
X175233000Y-102365000D01*
X175213000Y-102365000D01*
X175213000Y-102115000D01*
X175233000Y-102115000D01*
X175233000Y-101704250D01*
X175487000Y-101704250D01*
X175487000Y-102115000D01*
X175945750Y-102115000D01*
X176041000Y-102019750D01*
X176041000Y-101914215D01*
X175982996Y-101774181D01*
X175875820Y-101667004D01*
X175735786Y-101609000D01*
X175582250Y-101609000D01*
X175487000Y-101704250D01*
X175233000Y-101704250D01*
X175137750Y-101609000D01*
X174984214Y-101609000D01*
X174844180Y-101667004D01*
X174810886Y-101700298D01*
X174711134Y-101632141D01*
X174560000Y-101601536D01*
X173960000Y-101601536D01*
X173818810Y-101628103D01*
X173689135Y-101711546D01*
X173673793Y-101734000D01*
X173551075Y-101734000D01*
X173551118Y-101685135D01*
X173447661Y-101434748D01*
X173256259Y-101243013D01*
X173006054Y-101139118D01*
X172834561Y-101138969D01*
X172559872Y-100864280D01*
X173394528Y-100864280D01*
X173399688Y-100863254D01*
X173404875Y-100864140D01*
X173430615Y-100863443D01*
X173445921Y-100859965D01*
X173461557Y-100861347D01*
X173487145Y-100858567D01*
X173501816Y-100853955D01*
X173517192Y-100854088D01*
X173542483Y-100849284D01*
X173556520Y-100843611D01*
X173571623Y-100842558D01*
X173596467Y-100835790D01*
X173609886Y-100829103D01*
X173624719Y-100826905D01*
X173648970Y-100818232D01*
X173661788Y-100810551D01*
X173675342Y-100807459D01*
X173811190Y-100781897D01*
X173921186Y-100711117D01*
X174018866Y-100777859D01*
X174119845Y-100798308D01*
X174190258Y-100845356D01*
X174470000Y-100901000D01*
X176279000Y-100901000D01*
X176279000Y-107620000D01*
X176334644Y-107899742D01*
X176493105Y-108136895D01*
X176730258Y-108295356D01*
X177010000Y-108351000D01*
X177083645Y-108336351D01*
X177097668Y-108335773D01*
X177112926Y-108332079D01*
X177128584Y-108333239D01*
X177155196Y-108329966D01*
X177169795Y-108325149D01*
X177185168Y-108325064D01*
X177211439Y-108319688D01*
X177225393Y-108313818D01*
X177240475Y-108312552D01*
X177266253Y-108305138D01*
X177279586Y-108298257D01*
X177294394Y-108295848D01*
X177299000Y-108294127D01*
X177299000Y-114744000D01*
X128350107Y-114744000D01*
X128754799Y-114340015D01*
X128980743Y-113795882D01*
X128981257Y-113206703D01*
X128766264Y-112686382D01*
X128900000Y-112713464D01*
X129650000Y-112713464D01*
X129791190Y-112686897D01*
X129920865Y-112603454D01*
X130007859Y-112476134D01*
X130011936Y-112456000D01*
X132747313Y-112456000D01*
X132793538Y-112567873D01*
X133100511Y-112875382D01*
X133501795Y-113042010D01*
X133936299Y-113042389D01*
X134337873Y-112876462D01*
X134645382Y-112569489D01*
X134812010Y-112168205D01*
X134812389Y-111733701D01*
X134646462Y-111332127D01*
X134339489Y-111024618D01*
X134226000Y-110977493D01*
X134226000Y-110515000D01*
X134187483Y-110321362D01*
X134077796Y-110157204D01*
X132084964Y-108164372D01*
X132084964Y-107666000D01*
X132058397Y-107524810D01*
X131974954Y-107395135D01*
X131847634Y-107308141D01*
X131734712Y-107285274D01*
X131837690Y-107265897D01*
X131906212Y-107221804D01*
X136992204Y-112307796D01*
X137156362Y-112417483D01*
X137350000Y-112456000D01*
X137827313Y-112456000D01*
X137873538Y-112567873D01*
X138180511Y-112875382D01*
X138581795Y-113042010D01*
X139016299Y-113042389D01*
X139417873Y-112876462D01*
X139725382Y-112569489D01*
X139772507Y-112456000D01*
X142411186Y-112456000D01*
X142413103Y-112466190D01*
X142496546Y-112595865D01*
X142623866Y-112682859D01*
X142775000Y-112713464D01*
X143525000Y-112713464D01*
X143666190Y-112686897D01*
X143795865Y-112603454D01*
X143882859Y-112476134D01*
X143913464Y-112325000D01*
X143913464Y-111525000D01*
X143886897Y-111383810D01*
X143803454Y-111254135D01*
X143683103Y-111171903D01*
X143740819Y-111147996D01*
X143847996Y-111040820D01*
X143906000Y-110900786D01*
X143906000Y-110647250D01*
X143810750Y-110552000D01*
X143277000Y-110552000D01*
X143277000Y-110572000D01*
X143023000Y-110572000D01*
X143023000Y-110552000D01*
X142489250Y-110552000D01*
X142394000Y-110647250D01*
X142394000Y-110900786D01*
X142452004Y-111040820D01*
X142559181Y-111147996D01*
X142618867Y-111172719D01*
X142504135Y-111246546D01*
X142417141Y-111373866D01*
X142402939Y-111444000D01*
X139772687Y-111444000D01*
X139726462Y-111332127D01*
X139419489Y-111024618D01*
X139018205Y-110857990D01*
X138583701Y-110857611D01*
X138182127Y-111023538D01*
X137874618Y-111330511D01*
X137827493Y-111444000D01*
X137559592Y-111444000D01*
X136064806Y-109949214D01*
X142394000Y-109949214D01*
X142394000Y-110202750D01*
X142489250Y-110298000D01*
X143023000Y-110298000D01*
X143023000Y-109739250D01*
X143277000Y-109739250D01*
X143277000Y-110298000D01*
X143810750Y-110298000D01*
X143906000Y-110202750D01*
X143906000Y-109949214D01*
X143847996Y-109809180D01*
X143740819Y-109702004D01*
X143600785Y-109644000D01*
X143372250Y-109644000D01*
X143277000Y-109739250D01*
X143023000Y-109739250D01*
X142927750Y-109644000D01*
X142699215Y-109644000D01*
X142559181Y-109702004D01*
X142452004Y-109809180D01*
X142394000Y-109949214D01*
X136064806Y-109949214D01*
X132407796Y-106292204D01*
X132243638Y-106182517D01*
X132050000Y-106144000D01*
X131987093Y-106144000D01*
X131974954Y-106125135D01*
X131847634Y-106038141D01*
X131734712Y-106015274D01*
X131837690Y-105995897D01*
X131967365Y-105912454D01*
X132054359Y-105785134D01*
X132084964Y-105634000D01*
X132084964Y-105126000D01*
X132058397Y-104984810D01*
X131974954Y-104855135D01*
X131847634Y-104768141D01*
X131734712Y-104745274D01*
X131837690Y-104725897D01*
X131967365Y-104642454D01*
X132054359Y-104515134D01*
X132084964Y-104364000D01*
X132084964Y-103856000D01*
X132058397Y-103714810D01*
X131974954Y-103585135D01*
X131847634Y-103498141D01*
X131734712Y-103475274D01*
X131837690Y-103455897D01*
X131967365Y-103372454D01*
X131985440Y-103346000D01*
X132364000Y-103346000D01*
X132557638Y-103307483D01*
X132721796Y-103197796D01*
X136383592Y-99536000D01*
X136612907Y-99536000D01*
X136625046Y-99554865D01*
X136752366Y-99641859D01*
X136865288Y-99664726D01*
X136762310Y-99684103D01*
X136632635Y-99767546D01*
X136545641Y-99894866D01*
X136515036Y-100046000D01*
X136515036Y-100554000D01*
X136541603Y-100695190D01*
X136625046Y-100824865D01*
X136752366Y-100911859D01*
X136865288Y-100934726D01*
X136762310Y-100954103D01*
X136632635Y-101037546D01*
X136545641Y-101164866D01*
X136515036Y-101316000D01*
X136515036Y-101824000D01*
X136541603Y-101965190D01*
X136625046Y-102094865D01*
X136752366Y-102181859D01*
X136865288Y-102204726D01*
X136762310Y-102224103D01*
X136632635Y-102307546D01*
X136545641Y-102434866D01*
X136515036Y-102586000D01*
X136515036Y-103094000D01*
X136541603Y-103235190D01*
X136625046Y-103364865D01*
X136752366Y-103451859D01*
X136865288Y-103474726D01*
X136762310Y-103494103D01*
X136632635Y-103577546D01*
X136545641Y-103704866D01*
X136515036Y-103856000D01*
X136515036Y-104364000D01*
X136541603Y-104505190D01*
X136625046Y-104634865D01*
X136752366Y-104721859D01*
X136865288Y-104744726D01*
X136762310Y-104764103D01*
X136632635Y-104847546D01*
X136545641Y-104974866D01*
X136515036Y-105126000D01*
X136515036Y-105634000D01*
X136541603Y-105775190D01*
X136625046Y-105904865D01*
X136752366Y-105991859D01*
X136865288Y-106014726D01*
X136762310Y-106034103D01*
X136632635Y-106117546D01*
X136545641Y-106244866D01*
X136515036Y-106396000D01*
X136515036Y-106904000D01*
X136541603Y-107045190D01*
X136625046Y-107174865D01*
X136752366Y-107261859D01*
X136865288Y-107284726D01*
X136762310Y-107304103D01*
X136632635Y-107387546D01*
X136545641Y-107514866D01*
X136515036Y-107666000D01*
X136515036Y-108174000D01*
X136541603Y-108315190D01*
X136625046Y-108444865D01*
X136752366Y-108531859D01*
X136903500Y-108562464D01*
X138046500Y-108562464D01*
X138187690Y-108535897D01*
X138317365Y-108452454D01*
X138404359Y-108325134D01*
X138434964Y-108174000D01*
X138434964Y-107666000D01*
X138408397Y-107524810D01*
X138324954Y-107395135D01*
X138197634Y-107308141D01*
X138084712Y-107285274D01*
X138187690Y-107265897D01*
X138317365Y-107182454D01*
X138404359Y-107055134D01*
X138434964Y-106904000D01*
X138434964Y-106396000D01*
X138408397Y-106254810D01*
X138324954Y-106125135D01*
X138197634Y-106038141D01*
X138084712Y-106015274D01*
X138187690Y-105995897D01*
X138317365Y-105912454D01*
X138404359Y-105785134D01*
X138434964Y-105634000D01*
X138434964Y-105126000D01*
X138408397Y-104984810D01*
X138324954Y-104855135D01*
X138197634Y-104768141D01*
X138084712Y-104745274D01*
X138187690Y-104725897D01*
X138317365Y-104642454D01*
X138404359Y-104515134D01*
X138434964Y-104364000D01*
X138434964Y-103856000D01*
X138408397Y-103714810D01*
X138324954Y-103585135D01*
X138197634Y-103498141D01*
X138084712Y-103475274D01*
X138187690Y-103455897D01*
X138317365Y-103372454D01*
X138404359Y-103245134D01*
X138434964Y-103094000D01*
X138434964Y-102586000D01*
X138408397Y-102444810D01*
X138324954Y-102315135D01*
X138197634Y-102228141D01*
X138084712Y-102205274D01*
X138187690Y-102185897D01*
X138317365Y-102102454D01*
X138404359Y-101975134D01*
X138434964Y-101824000D01*
X138434964Y-101316000D01*
X138422028Y-101247250D01*
X139269000Y-101247250D01*
X139269000Y-101600786D01*
X139327004Y-101740820D01*
X139434181Y-101847996D01*
X139574215Y-101906000D01*
X140052750Y-101906000D01*
X140148000Y-101810750D01*
X140148000Y-101152000D01*
X140402000Y-101152000D01*
X140402000Y-101810750D01*
X140497250Y-101906000D01*
X140975785Y-101906000D01*
X141115819Y-101847996D01*
X141222996Y-101740820D01*
X141281000Y-101600786D01*
X141281000Y-101247250D01*
X141185750Y-101152000D01*
X140402000Y-101152000D01*
X140148000Y-101152000D01*
X139364250Y-101152000D01*
X139269000Y-101247250D01*
X138422028Y-101247250D01*
X138408397Y-101174810D01*
X138324954Y-101045135D01*
X138197634Y-100958141D01*
X138084712Y-100935274D01*
X138187690Y-100915897D01*
X138317365Y-100832454D01*
X138404359Y-100705134D01*
X138434964Y-100554000D01*
X138434964Y-100449214D01*
X139269000Y-100449214D01*
X139269000Y-100802750D01*
X139364250Y-100898000D01*
X140148000Y-100898000D01*
X140148000Y-100239250D01*
X140402000Y-100239250D01*
X140402000Y-100898000D01*
X141185750Y-100898000D01*
X141281000Y-100802750D01*
X141281000Y-100449214D01*
X141222996Y-100309180D01*
X141115819Y-100202004D01*
X140975785Y-100144000D01*
X140497250Y-100144000D01*
X140402000Y-100239250D01*
X140148000Y-100239250D01*
X140052750Y-100144000D01*
X139574215Y-100144000D01*
X139434181Y-100202004D01*
X139327004Y-100309180D01*
X139269000Y-100449214D01*
X138434964Y-100449214D01*
X138434964Y-100046000D01*
X138408397Y-99904810D01*
X138324954Y-99775135D01*
X138197634Y-99688141D01*
X138084712Y-99665274D01*
X138187690Y-99645897D01*
X138317365Y-99562454D01*
X138338857Y-99531000D01*
X139262665Y-99531000D01*
X139288103Y-99666190D01*
X139371546Y-99795865D01*
X139498866Y-99882859D01*
X139650000Y-99913464D01*
X140900000Y-99913464D01*
X141041190Y-99886897D01*
X141170865Y-99803454D01*
X141203743Y-99755335D01*
X141480000Y-100031592D01*
X141480000Y-102464408D01*
X141100269Y-102844139D01*
X141059609Y-102816971D01*
X140525000Y-102710631D01*
X139990391Y-102816971D01*
X139537172Y-103119803D01*
X139234340Y-103573022D01*
X139128000Y-104107631D01*
X139128000Y-104162369D01*
X139234340Y-104696978D01*
X139537172Y-105150197D01*
X139717272Y-105270536D01*
X139509000Y-105270536D01*
X139367810Y-105297103D01*
X139238135Y-105380546D01*
X139151141Y-105507866D01*
X139120536Y-105659000D01*
X139120536Y-107691000D01*
X139147103Y-107832190D01*
X139230546Y-107961865D01*
X139357866Y-108048859D01*
X139509000Y-108079464D01*
X141541000Y-108079464D01*
X141682190Y-108052897D01*
X141811865Y-107969454D01*
X141898859Y-107842134D01*
X141929464Y-107691000D01*
X141929464Y-106761128D01*
X143519024Y-105171568D01*
X143518882Y-105334865D01*
X143622339Y-105585252D01*
X143694000Y-105657038D01*
X143694000Y-106250000D01*
X143732517Y-106443638D01*
X143842204Y-106607796D01*
X144292204Y-107057796D01*
X144456362Y-107167483D01*
X144650000Y-107206000D01*
X147900000Y-107206000D01*
X148093638Y-107167483D01*
X148257796Y-107057796D01*
X148907756Y-106407836D01*
X149017443Y-106243678D01*
X149055960Y-106050040D01*
X149055960Y-105921053D01*
X149120825Y-105879314D01*
X149207819Y-105751994D01*
X149238424Y-105600860D01*
X149238424Y-105322250D01*
X149569000Y-105322250D01*
X149569000Y-105775786D01*
X149627004Y-105915820D01*
X149734181Y-106022996D01*
X149874215Y-106081000D01*
X150177750Y-106081000D01*
X150273000Y-105985750D01*
X150273000Y-105227000D01*
X149664250Y-105227000D01*
X149569000Y-105322250D01*
X149238424Y-105322250D01*
X149238424Y-104600100D01*
X149211857Y-104458910D01*
X149189531Y-104424214D01*
X149569000Y-104424214D01*
X149569000Y-104877750D01*
X149664250Y-104973000D01*
X150273000Y-104973000D01*
X150273000Y-104214250D01*
X150177750Y-104119000D01*
X149874215Y-104119000D01*
X149734181Y-104177004D01*
X149627004Y-104284180D01*
X149569000Y-104424214D01*
X149189531Y-104424214D01*
X149128414Y-104329235D01*
X149001094Y-104242241D01*
X148849960Y-104211636D01*
X148249960Y-104211636D01*
X148108770Y-104238203D01*
X148074752Y-104260093D01*
X147975786Y-104219100D01*
X147822250Y-104219100D01*
X147727000Y-104314350D01*
X147727000Y-104973480D01*
X147747000Y-104973480D01*
X147747000Y-105227480D01*
X147727000Y-105227480D01*
X147727000Y-105886610D01*
X147822250Y-105981860D01*
X147902548Y-105981860D01*
X147690408Y-106194000D01*
X144859592Y-106194000D01*
X144706000Y-106040408D01*
X144706000Y-105657123D01*
X144756731Y-105606480D01*
X145962633Y-105606480D01*
X145988143Y-105742050D01*
X146071586Y-105871725D01*
X146198906Y-105958719D01*
X146350040Y-105989324D01*
X146950040Y-105989324D01*
X147091230Y-105962757D01*
X147125248Y-105940867D01*
X147224214Y-105981860D01*
X147377750Y-105981860D01*
X147473000Y-105886610D01*
X147473000Y-105227480D01*
X147453000Y-105227480D01*
X147453000Y-104973480D01*
X147473000Y-104973480D01*
X147473000Y-104314350D01*
X147377750Y-104219100D01*
X147224214Y-104219100D01*
X147126526Y-104259564D01*
X147101174Y-104242241D01*
X146950040Y-104211636D01*
X146350040Y-104211636D01*
X146208850Y-104238203D01*
X146079175Y-104321646D01*
X145992181Y-104448966D01*
X145962714Y-104594480D01*
X145466920Y-104594480D01*
X145467483Y-104593638D01*
X145506000Y-104400000D01*
X145506000Y-103877927D01*
X145591190Y-103861897D01*
X145720865Y-103778454D01*
X145807859Y-103651134D01*
X145838464Y-103500000D01*
X145838464Y-102300000D01*
X145811897Y-102158810D01*
X145728454Y-102029135D01*
X145601134Y-101942141D01*
X145450000Y-101911536D01*
X144550000Y-101911536D01*
X144408810Y-101938103D01*
X144279135Y-102021546D01*
X144192141Y-102148866D01*
X144161536Y-102300000D01*
X144161536Y-103500000D01*
X144188103Y-103641190D01*
X144271546Y-103770865D01*
X144398866Y-103857859D01*
X144494000Y-103877124D01*
X144494000Y-104190408D01*
X144165439Y-104518969D01*
X144065135Y-104518882D01*
X143814748Y-104622339D01*
X143681000Y-104755855D01*
X143681000Y-100922250D01*
X144169000Y-100922250D01*
X144169000Y-101375786D01*
X144227004Y-101515820D01*
X144334181Y-101622996D01*
X144474215Y-101681000D01*
X144777750Y-101681000D01*
X144873000Y-101585750D01*
X144873000Y-100827000D01*
X144264250Y-100827000D01*
X144169000Y-100922250D01*
X143681000Y-100922250D01*
X143681000Y-100024214D01*
X144169000Y-100024214D01*
X144169000Y-100477750D01*
X144264250Y-100573000D01*
X144873000Y-100573000D01*
X144873000Y-99814250D01*
X144777750Y-99719000D01*
X144474215Y-99719000D01*
X144334181Y-99777004D01*
X144227004Y-99884180D01*
X144169000Y-100024214D01*
X143681000Y-100024214D01*
X143681000Y-99159592D01*
X145034592Y-97806000D01*
X145853294Y-97806000D01*
X145829135Y-97821546D01*
X145829135Y-97821546D01*
G37*
X145829135Y-97821546D02*
X145742141Y-97948866D01*
X145711536Y-98100000D01*
X145711536Y-99822721D01*
X145665819Y-99777004D01*
X145525785Y-99719000D01*
X145222250Y-99719000D01*
X145127000Y-99814250D01*
X145127000Y-100573000D01*
X145147000Y-100573000D01*
X145147000Y-100827000D01*
X145127000Y-100827000D01*
X145127000Y-101585750D01*
X145222250Y-101681000D01*
X145525785Y-101681000D01*
X145665819Y-101622996D01*
X145772996Y-101515820D01*
X145830503Y-101376985D01*
X145948866Y-101457859D01*
X146100000Y-101488464D01*
X146129996Y-101488464D01*
X146079175Y-101521166D01*
X145992181Y-101648486D01*
X145961576Y-101799620D01*
X145961576Y-102800380D01*
X145988143Y-102941570D01*
X146071586Y-103071245D01*
X146198906Y-103158239D01*
X146350040Y-103188844D01*
X146950040Y-103188844D01*
X147091230Y-103162277D01*
X147220905Y-103078834D01*
X147307899Y-102951514D01*
X147338504Y-102800380D01*
X147338504Y-101799620D01*
X147311937Y-101658430D01*
X147228494Y-101528755D01*
X147156040Y-101479249D01*
X147156040Y-101477919D01*
X147241190Y-101461897D01*
X147370865Y-101378454D01*
X147457859Y-101251134D01*
X147488464Y-101100000D01*
X147488464Y-98100000D01*
X147461897Y-97958810D01*
X147378454Y-97829135D01*
X147344595Y-97806000D01*
X147853294Y-97806000D01*
X147829135Y-97821546D01*
X147742141Y-97948866D01*
X147711536Y-98100000D01*
X147711536Y-101100000D01*
X147738103Y-101241190D01*
X147821546Y-101370865D01*
X147948866Y-101457859D01*
X148043960Y-101477116D01*
X148043960Y-101479427D01*
X147979095Y-101521166D01*
X147892101Y-101648486D01*
X147861496Y-101799620D01*
X147861496Y-102800380D01*
X147888063Y-102941570D01*
X147971506Y-103071245D01*
X148098826Y-103158239D01*
X148249960Y-103188844D01*
X148723212Y-103188844D01*
X148792164Y-103257796D01*
X148956322Y-103367483D01*
X149149960Y-103406000D01*
X149561536Y-103406000D01*
X149561536Y-103500000D01*
X149588103Y-103641190D01*
X149671546Y-103770865D01*
X149798866Y-103857859D01*
X149950000Y-103888464D01*
X150850000Y-103888464D01*
X150991190Y-103861897D01*
X151120865Y-103778454D01*
X151207859Y-103651134D01*
X151238464Y-103500000D01*
X151238464Y-103406000D01*
X154243179Y-103406000D01*
X154219118Y-103463946D01*
X154219030Y-103565378D01*
X152106000Y-105678408D01*
X152106000Y-105232036D01*
X152226987Y-105111259D01*
X152330882Y-104861054D01*
X152331118Y-104590135D01*
X152227661Y-104339748D01*
X152036259Y-104148013D01*
X151786054Y-104044118D01*
X151515135Y-104043882D01*
X151264748Y-104147339D01*
X151150352Y-104261536D01*
X151065819Y-104177004D01*
X150925785Y-104119000D01*
X150622250Y-104119000D01*
X150527000Y-104214250D01*
X150527000Y-104973000D01*
X150547000Y-104973000D01*
X150547000Y-105227000D01*
X150527000Y-105227000D01*
X150527000Y-105985750D01*
X150622250Y-106081000D01*
X150853408Y-106081000D01*
X150542204Y-106392204D01*
X150432517Y-106556362D01*
X150394000Y-106750000D01*
X150394000Y-107142877D01*
X150323013Y-107213741D01*
X150219118Y-107463946D01*
X150218882Y-107734865D01*
X150322339Y-107985252D01*
X150513741Y-108176987D01*
X150763946Y-108280882D01*
X151034865Y-108281118D01*
X151194000Y-108215365D01*
X151194000Y-108581183D01*
X151064383Y-108555400D01*
X151015617Y-108555400D01*
X150539329Y-108650140D01*
X150135552Y-108919935D01*
X149865757Y-109323712D01*
X149771017Y-109800000D01*
X149865757Y-110276288D01*
X150135552Y-110680065D01*
X150539329Y-110949860D01*
X151015617Y-111044600D01*
X151064383Y-111044600D01*
X151540671Y-110949860D01*
X151944448Y-110680065D01*
X152214243Y-110276288D01*
X152308983Y-109800000D01*
X152311017Y-109800000D01*
X152405757Y-110276288D01*
X152675552Y-110680065D01*
X153079329Y-110949860D01*
X153555617Y-111044600D01*
X153604383Y-111044600D01*
X154080671Y-110949860D01*
X154484448Y-110680065D01*
X154754243Y-110276288D01*
X154848983Y-109800000D01*
X154754243Y-109323712D01*
X154484448Y-108919935D01*
X154080671Y-108650140D01*
X153604383Y-108555400D01*
X153555617Y-108555400D01*
X153079329Y-108650140D01*
X152675552Y-108919935D01*
X152405757Y-109323712D01*
X152311017Y-109800000D01*
X152308983Y-109800000D01*
X152214243Y-109323712D01*
X152179731Y-109272062D01*
X152206000Y-109140000D01*
X152206000Y-107009592D01*
X153418915Y-105796677D01*
X153418882Y-105834865D01*
X153522339Y-106085252D01*
X153713741Y-106276987D01*
X153963946Y-106380882D01*
X154065378Y-106380970D01*
X155692204Y-108007796D01*
X155856362Y-108117483D01*
X156050000Y-108156000D01*
X156840408Y-108156000D01*
X157144000Y-108459592D01*
X157144000Y-109098857D01*
X157024448Y-108919935D01*
X156620671Y-108650140D01*
X156144383Y-108555400D01*
X156095617Y-108555400D01*
X155619329Y-108650140D01*
X155215552Y-108919935D01*
X154945757Y-109323712D01*
X154851017Y-109800000D01*
X154945757Y-110276288D01*
X155215552Y-110680065D01*
X155619329Y-110949860D01*
X156095617Y-111044600D01*
X156144383Y-111044600D01*
X156620671Y-110949860D01*
X157024448Y-110680065D01*
X157144000Y-110501143D01*
X157144000Y-111655657D01*
X156875199Y-111350690D01*
X156439120Y-111136995D01*
X156247000Y-111197135D01*
X156247000Y-112213000D01*
X156267000Y-112213000D01*
X156267000Y-112467000D01*
X156247000Y-112467000D01*
X156247000Y-112487000D01*
X155993000Y-112487000D01*
X155993000Y-112467000D01*
X154977688Y-112467000D01*
X154917007Y-112659118D01*
X155043695Y-112965001D01*
X155201465Y-113143998D01*
X154709590Y-113143998D01*
X154605095Y-113039503D01*
X154754243Y-112816288D01*
X154848983Y-112340000D01*
X154785507Y-112020882D01*
X154917007Y-112020882D01*
X154977688Y-112213000D01*
X155993000Y-112213000D01*
X155993000Y-111197135D01*
X155800880Y-111136995D01*
X155364801Y-111350690D01*
X155043695Y-111714999D01*
X154917007Y-112020882D01*
X154785507Y-112020882D01*
X154754243Y-111863712D01*
X154484448Y-111459935D01*
X154080671Y-111190140D01*
X153604383Y-111095400D01*
X153555617Y-111095400D01*
X153079329Y-111190140D01*
X152675552Y-111459935D01*
X152405757Y-111863712D01*
X152311017Y-112340000D01*
X152405757Y-112816288D01*
X152675552Y-113220065D01*
X153079329Y-113489860D01*
X153555617Y-113584600D01*
X153604383Y-113584600D01*
X153699990Y-113565582D01*
X153728408Y-113594000D01*
X148159592Y-113594000D01*
X148069388Y-113503796D01*
X148475617Y-113584600D01*
X148524383Y-113584600D01*
X149000671Y-113489860D01*
X149404448Y-113220065D01*
X149674243Y-112816288D01*
X149768983Y-112340000D01*
X149771017Y-112340000D01*
X149865757Y-112816288D01*
X150135552Y-113220065D01*
X150539329Y-113489860D01*
X151015617Y-113584600D01*
X151064383Y-113584600D01*
X151540671Y-113489860D01*
X151944448Y-113220065D01*
X152214243Y-112816288D01*
X152308983Y-112340000D01*
X152214243Y-111863712D01*
X151944448Y-111459935D01*
X151540671Y-111190140D01*
X151064383Y-111095400D01*
X151015617Y-111095400D01*
X150539329Y-111190140D01*
X150135552Y-111459935D01*
X149865757Y-111863712D01*
X149771017Y-112340000D01*
X149768983Y-112340000D01*
X149674243Y-111863712D01*
X149404448Y-111459935D01*
X149000671Y-111190140D01*
X148524383Y-111095400D01*
X148475617Y-111095400D01*
X147999329Y-111190140D01*
X147656000Y-111419545D01*
X147656000Y-111052064D01*
X149363600Y-111052064D01*
X149504790Y-111025497D01*
X149634465Y-110942054D01*
X149721459Y-110814734D01*
X149752064Y-110663600D01*
X149752064Y-108936400D01*
X149725497Y-108795210D01*
X149642054Y-108665535D01*
X149514734Y-108578541D01*
X149363600Y-108547936D01*
X147636400Y-108547936D01*
X147495210Y-108574503D01*
X147365535Y-108657946D01*
X147278541Y-108785266D01*
X147247936Y-108936400D01*
X147247936Y-109886472D01*
X146792204Y-110342204D01*
X146682517Y-110506362D01*
X146644000Y-110700000D01*
X146644000Y-113300000D01*
X146682517Y-113493638D01*
X146792204Y-113657796D01*
X147592204Y-114457796D01*
X147756362Y-114567483D01*
X147950000Y-114606000D01*
X173800000Y-114606000D01*
X173993638Y-114567483D01*
X174157796Y-114457796D01*
X175359670Y-113255922D01*
X175584865Y-113256118D01*
X175835252Y-113152661D01*
X176026987Y-112961259D01*
X176130882Y-112711054D01*
X176131118Y-112440135D01*
X176027661Y-112189748D01*
X175836259Y-111998013D01*
X175586054Y-111894118D01*
X175315135Y-111893882D01*
X175064748Y-111997339D01*
X174873013Y-112188741D01*
X174785916Y-112398492D01*
X173590408Y-113594000D01*
X158050423Y-113594000D01*
X158117483Y-113493638D01*
X158156000Y-113300000D01*
X158156000Y-113127250D01*
X163344000Y-113127250D01*
X163344000Y-113280785D01*
X163402004Y-113420819D01*
X163509180Y-113527996D01*
X163649214Y-113586000D01*
X165002750Y-113586000D01*
X165098000Y-113490750D01*
X165098000Y-113032000D01*
X165352000Y-113032000D01*
X165352000Y-113490750D01*
X165447250Y-113586000D01*
X166800786Y-113586000D01*
X166940820Y-113527996D01*
X167047996Y-113420819D01*
X167106000Y-113280785D01*
X167106000Y-113127250D01*
X167010750Y-113032000D01*
X165352000Y-113032000D01*
X165098000Y-113032000D01*
X163439250Y-113032000D01*
X163344000Y-113127250D01*
X158156000Y-113127250D01*
X158156000Y-112643592D01*
X158392204Y-112879796D01*
X158556362Y-112989483D01*
X158750000Y-113028000D01*
X161290000Y-113028000D01*
X161483638Y-112989483D01*
X161647796Y-112879796D01*
X161832561Y-112695031D01*
X161932865Y-112695118D01*
X162183252Y-112591661D01*
X162374987Y-112400259D01*
X162478882Y-112150054D01*
X162479118Y-111879135D01*
X162428845Y-111757464D01*
X163298000Y-111757464D01*
X163336536Y-111750213D01*
X163336536Y-111935000D01*
X163363103Y-112076190D01*
X163446546Y-112205865D01*
X163539561Y-112269420D01*
X163509180Y-112282004D01*
X163402004Y-112389181D01*
X163344000Y-112529215D01*
X163344000Y-112682750D01*
X163439250Y-112778000D01*
X165098000Y-112778000D01*
X165098000Y-112758000D01*
X165352000Y-112758000D01*
X165352000Y-112778000D01*
X167010750Y-112778000D01*
X167106000Y-112682750D01*
X167106000Y-112529215D01*
X167047996Y-112389181D01*
X166940820Y-112282004D01*
X166909497Y-112269030D01*
X166995865Y-112213454D01*
X167045371Y-112141000D01*
X167165000Y-112141000D01*
X167358638Y-112102483D01*
X167522796Y-111992796D01*
X167534561Y-111981031D01*
X167634865Y-111981118D01*
X167885252Y-111877661D01*
X168076987Y-111686259D01*
X168180882Y-111436054D01*
X168181118Y-111165135D01*
X168077661Y-110914748D01*
X168017589Y-110854572D01*
X168128638Y-110832483D01*
X168292796Y-110722796D01*
X169257796Y-109757796D01*
X169367483Y-109593638D01*
X169406000Y-109400000D01*
X169406000Y-109109592D01*
X169686536Y-108829056D01*
X169686536Y-109395000D01*
X169713103Y-109536190D01*
X169796546Y-109665865D01*
X169891187Y-109730530D01*
X169804135Y-109786546D01*
X169787984Y-109810184D01*
X169540748Y-109912339D01*
X169349013Y-110103741D01*
X169245118Y-110353946D01*
X169244882Y-110624865D01*
X169283807Y-110719072D01*
X169065135Y-110718882D01*
X168814748Y-110822339D01*
X168623013Y-111013741D01*
X168519118Y-111263946D01*
X168518882Y-111534865D01*
X168622339Y-111785252D01*
X168813741Y-111976987D01*
X169063946Y-112080882D01*
X169209223Y-112081009D01*
X169241362Y-112102483D01*
X169435000Y-112141000D01*
X169754807Y-112141000D01*
X169796546Y-112205865D01*
X169891187Y-112270530D01*
X169804135Y-112326546D01*
X169717141Y-112453866D01*
X169686536Y-112605000D01*
X169686536Y-113205000D01*
X169713103Y-113346190D01*
X169796546Y-113475865D01*
X169923866Y-113562859D01*
X170075000Y-113593464D01*
X173075000Y-113593464D01*
X173216190Y-113566897D01*
X173345865Y-113483454D01*
X173432859Y-113356134D01*
X173463464Y-113205000D01*
X173463464Y-112605000D01*
X173436897Y-112463810D01*
X173353454Y-112334135D01*
X173258813Y-112269470D01*
X173345865Y-112213454D01*
X173432859Y-112086134D01*
X173463464Y-111935000D01*
X173463464Y-111335000D01*
X173436897Y-111193810D01*
X173353454Y-111064135D01*
X173258813Y-110999470D01*
X173345865Y-110943454D01*
X173432859Y-110816134D01*
X173463464Y-110665000D01*
X173463464Y-110065000D01*
X173436897Y-109923810D01*
X173353454Y-109794135D01*
X173258813Y-109729470D01*
X173345865Y-109673454D01*
X173432859Y-109546134D01*
X173463464Y-109395000D01*
X173463464Y-108795000D01*
X173459769Y-108775361D01*
X174394000Y-109709592D01*
X174394000Y-110250000D01*
X174432517Y-110443638D01*
X174542204Y-110607796D01*
X174768969Y-110834561D01*
X174768882Y-110934865D01*
X174872339Y-111185252D01*
X175063741Y-111376987D01*
X175313946Y-111480882D01*
X175584865Y-111481118D01*
X175835252Y-111377661D01*
X176026987Y-111186259D01*
X176130882Y-110936054D01*
X176131118Y-110665135D01*
X176027661Y-110414748D01*
X175836259Y-110223013D01*
X175586054Y-110119118D01*
X175484622Y-110119030D01*
X175406000Y-110040408D01*
X175406000Y-109500000D01*
X175367483Y-109306362D01*
X175325000Y-109242782D01*
X175325000Y-109127000D01*
X175575000Y-109127000D01*
X175575000Y-109585750D01*
X175670250Y-109681000D01*
X175775785Y-109681000D01*
X175915819Y-109622996D01*
X176022996Y-109515820D01*
X176081000Y-109375786D01*
X176081000Y-109222250D01*
X175985750Y-109127000D01*
X175575000Y-109127000D01*
X175325000Y-109127000D01*
X175303000Y-109127000D01*
X175303000Y-108873000D01*
X175325000Y-108873000D01*
X175325000Y-108853000D01*
X175575000Y-108853000D01*
X175575000Y-108873000D01*
X175985750Y-108873000D01*
X176081000Y-108777750D01*
X176081000Y-108624214D01*
X176022996Y-108484180D01*
X175989702Y-108450886D01*
X176057859Y-108351134D01*
X176088464Y-108200000D01*
X176088464Y-107600000D01*
X176061897Y-107458810D01*
X175978454Y-107329135D01*
X175956000Y-107313793D01*
X175956000Y-107238019D01*
X175970865Y-107228454D01*
X176057859Y-107101134D01*
X176088464Y-106950000D01*
X176088464Y-106588159D01*
X176106000Y-106500000D01*
X176088464Y-106411841D01*
X176088464Y-105850000D01*
X176061897Y-105708810D01*
X176027397Y-105655195D01*
X176081000Y-105525785D01*
X176081000Y-105122250D01*
X175985750Y-105027000D01*
X175427000Y-105027000D01*
X175427000Y-105047000D01*
X175173000Y-105047000D01*
X175173000Y-105027000D01*
X175153000Y-105027000D01*
X175153000Y-104773000D01*
X175173000Y-104773000D01*
X175173000Y-104085750D01*
X175194500Y-104064250D01*
X175427000Y-104064250D01*
X175427000Y-104773000D01*
X175985750Y-104773000D01*
X176081000Y-104677750D01*
X176081000Y-104274215D01*
X176022996Y-104134181D01*
X175915820Y-104027004D01*
X175912986Y-104025830D01*
X175972996Y-103965819D01*
X176031000Y-103825785D01*
X176031000Y-103720250D01*
X175935750Y-103625000D01*
X175477000Y-103625000D01*
X175477000Y-104014250D01*
X175427000Y-104064250D01*
X175194500Y-104064250D01*
X175223000Y-104035750D01*
X175223000Y-103625000D01*
X175203000Y-103625000D01*
X175203000Y-103375000D01*
X175223000Y-103375000D01*
X175223000Y-102964250D01*
X175477000Y-102964250D01*
X175477000Y-103375000D01*
X175935750Y-103375000D01*
X176031000Y-103279750D01*
X176031000Y-103174215D01*
X175972996Y-103034181D01*
X175865820Y-102927004D01*
X175730614Y-102871000D01*
X175735786Y-102871000D01*
X175875820Y-102812996D01*
X175982996Y-102705819D01*
X176041000Y-102565785D01*
X176041000Y-102460250D01*
X175945750Y-102365000D01*
X175487000Y-102365000D01*
X175487000Y-102775750D01*
X175580250Y-102869000D01*
X175572250Y-102869000D01*
X175477000Y-102964250D01*
X175223000Y-102964250D01*
X175129750Y-102871000D01*
X175137750Y-102871000D01*
X175233000Y-102775750D01*
X175233000Y-102365000D01*
X175213000Y-102365000D01*
X175213000Y-102115000D01*
X175233000Y-102115000D01*
X175233000Y-101704250D01*
X175487000Y-101704250D01*
X175487000Y-102115000D01*
X175945750Y-102115000D01*
X176041000Y-102019750D01*
X176041000Y-101914215D01*
X175982996Y-101774181D01*
X175875820Y-101667004D01*
X175735786Y-101609000D01*
X175582250Y-101609000D01*
X175487000Y-101704250D01*
X175233000Y-101704250D01*
X175137750Y-101609000D01*
X174984214Y-101609000D01*
X174844180Y-101667004D01*
X174810886Y-101700298D01*
X174711134Y-101632141D01*
X174560000Y-101601536D01*
X173960000Y-101601536D01*
X173818810Y-101628103D01*
X173689135Y-101711546D01*
X173673793Y-101734000D01*
X173551075Y-101734000D01*
X173551118Y-101685135D01*
X173447661Y-101434748D01*
X173256259Y-101243013D01*
X173006054Y-101139118D01*
X172834561Y-101138969D01*
X172559872Y-100864280D01*
X173394528Y-100864280D01*
X173399688Y-100863254D01*
X173404875Y-100864140D01*
X173430615Y-100863443D01*
X173445921Y-100859965D01*
X173461557Y-100861347D01*
X173487145Y-100858567D01*
X173501816Y-100853955D01*
X173517192Y-100854088D01*
X173542483Y-100849284D01*
X173556520Y-100843611D01*
X173571623Y-100842558D01*
X173596467Y-100835790D01*
X173609886Y-100829103D01*
X173624719Y-100826905D01*
X173648970Y-100818232D01*
X173661788Y-100810551D01*
X173675342Y-100807459D01*
X173811190Y-100781897D01*
X173921186Y-100711117D01*
X174018866Y-100777859D01*
X174119845Y-100798308D01*
X174190258Y-100845356D01*
X174470000Y-100901000D01*
X176279000Y-100901000D01*
X176279000Y-107620000D01*
X176334644Y-107899742D01*
X176493105Y-108136895D01*
X176730258Y-108295356D01*
X177010000Y-108351000D01*
X177083645Y-108336351D01*
X177097668Y-108335773D01*
X177112926Y-108332079D01*
X177128584Y-108333239D01*
X177155196Y-108329966D01*
X177169795Y-108325149D01*
X177185168Y-108325064D01*
X177211439Y-108319688D01*
X177225393Y-108313818D01*
X177240475Y-108312552D01*
X177266253Y-108305138D01*
X177279586Y-108298257D01*
X177294394Y-108295848D01*
X177299000Y-108294127D01*
X177299000Y-114744000D01*
X128350107Y-114744000D01*
X128754799Y-114340015D01*
X128980743Y-113795882D01*
X128981257Y-113206703D01*
X128766264Y-112686382D01*
X128900000Y-112713464D01*
X129650000Y-112713464D01*
X129791190Y-112686897D01*
X129920865Y-112603454D01*
X130007859Y-112476134D01*
X130011936Y-112456000D01*
X132747313Y-112456000D01*
X132793538Y-112567873D01*
X133100511Y-112875382D01*
X133501795Y-113042010D01*
X133936299Y-113042389D01*
X134337873Y-112876462D01*
X134645382Y-112569489D01*
X134812010Y-112168205D01*
X134812389Y-111733701D01*
X134646462Y-111332127D01*
X134339489Y-111024618D01*
X134226000Y-110977493D01*
X134226000Y-110515000D01*
X134187483Y-110321362D01*
X134077796Y-110157204D01*
X132084964Y-108164372D01*
X132084964Y-107666000D01*
X132058397Y-107524810D01*
X131974954Y-107395135D01*
X131847634Y-107308141D01*
X131734712Y-107285274D01*
X131837690Y-107265897D01*
X131906212Y-107221804D01*
X136992204Y-112307796D01*
X137156362Y-112417483D01*
X137350000Y-112456000D01*
X137827313Y-112456000D01*
X137873538Y-112567873D01*
X138180511Y-112875382D01*
X138581795Y-113042010D01*
X139016299Y-113042389D01*
X139417873Y-112876462D01*
X139725382Y-112569489D01*
X139772507Y-112456000D01*
X142411186Y-112456000D01*
X142413103Y-112466190D01*
X142496546Y-112595865D01*
X142623866Y-112682859D01*
X142775000Y-112713464D01*
X143525000Y-112713464D01*
X143666190Y-112686897D01*
X143795865Y-112603454D01*
X143882859Y-112476134D01*
X143913464Y-112325000D01*
X143913464Y-111525000D01*
X143886897Y-111383810D01*
X143803454Y-111254135D01*
X143683103Y-111171903D01*
X143740819Y-111147996D01*
X143847996Y-111040820D01*
X143906000Y-110900786D01*
X143906000Y-110647250D01*
X143810750Y-110552000D01*
X143277000Y-110552000D01*
X143277000Y-110572000D01*
X143023000Y-110572000D01*
X143023000Y-110552000D01*
X142489250Y-110552000D01*
X142394000Y-110647250D01*
X142394000Y-110900786D01*
X142452004Y-111040820D01*
X142559181Y-111147996D01*
X142618867Y-111172719D01*
X142504135Y-111246546D01*
X142417141Y-111373866D01*
X142402939Y-111444000D01*
X139772687Y-111444000D01*
X139726462Y-111332127D01*
X139419489Y-111024618D01*
X139018205Y-110857990D01*
X138583701Y-110857611D01*
X138182127Y-111023538D01*
X137874618Y-111330511D01*
X137827493Y-111444000D01*
X137559592Y-111444000D01*
X136064806Y-109949214D01*
X142394000Y-109949214D01*
X142394000Y-110202750D01*
X142489250Y-110298000D01*
X143023000Y-110298000D01*
X143023000Y-109739250D01*
X143277000Y-109739250D01*
X143277000Y-110298000D01*
X143810750Y-110298000D01*
X143906000Y-110202750D01*
X143906000Y-109949214D01*
X143847996Y-109809180D01*
X143740819Y-109702004D01*
X143600785Y-109644000D01*
X143372250Y-109644000D01*
X143277000Y-109739250D01*
X143023000Y-109739250D01*
X142927750Y-109644000D01*
X142699215Y-109644000D01*
X142559181Y-109702004D01*
X142452004Y-109809180D01*
X142394000Y-109949214D01*
X136064806Y-109949214D01*
X132407796Y-106292204D01*
X132243638Y-106182517D01*
X132050000Y-106144000D01*
X131987093Y-106144000D01*
X131974954Y-106125135D01*
X131847634Y-106038141D01*
X131734712Y-106015274D01*
X131837690Y-105995897D01*
X131967365Y-105912454D01*
X132054359Y-105785134D01*
X132084964Y-105634000D01*
X132084964Y-105126000D01*
X132058397Y-104984810D01*
X131974954Y-104855135D01*
X131847634Y-104768141D01*
X131734712Y-104745274D01*
X131837690Y-104725897D01*
X131967365Y-104642454D01*
X132054359Y-104515134D01*
X132084964Y-104364000D01*
X132084964Y-103856000D01*
X132058397Y-103714810D01*
X131974954Y-103585135D01*
X131847634Y-103498141D01*
X131734712Y-103475274D01*
X131837690Y-103455897D01*
X131967365Y-103372454D01*
X131985440Y-103346000D01*
X132364000Y-103346000D01*
X132557638Y-103307483D01*
X132721796Y-103197796D01*
X136383592Y-99536000D01*
X136612907Y-99536000D01*
X136625046Y-99554865D01*
X136752366Y-99641859D01*
X136865288Y-99664726D01*
X136762310Y-99684103D01*
X136632635Y-99767546D01*
X136545641Y-99894866D01*
X136515036Y-100046000D01*
X136515036Y-100554000D01*
X136541603Y-100695190D01*
X136625046Y-100824865D01*
X136752366Y-100911859D01*
X136865288Y-100934726D01*
X136762310Y-100954103D01*
X136632635Y-101037546D01*
X136545641Y-101164866D01*
X136515036Y-101316000D01*
X136515036Y-101824000D01*
X136541603Y-101965190D01*
X136625046Y-102094865D01*
X136752366Y-102181859D01*
X136865288Y-102204726D01*
X136762310Y-102224103D01*
X136632635Y-102307546D01*
X136545641Y-102434866D01*
X136515036Y-102586000D01*
X136515036Y-103094000D01*
X136541603Y-103235190D01*
X136625046Y-103364865D01*
X136752366Y-103451859D01*
X136865288Y-103474726D01*
X136762310Y-103494103D01*
X136632635Y-103577546D01*
X136545641Y-103704866D01*
X136515036Y-103856000D01*
X136515036Y-104364000D01*
X136541603Y-104505190D01*
X136625046Y-104634865D01*
X136752366Y-104721859D01*
X136865288Y-104744726D01*
X136762310Y-104764103D01*
X136632635Y-104847546D01*
X136545641Y-104974866D01*
X136515036Y-105126000D01*
X136515036Y-105634000D01*
X136541603Y-105775190D01*
X136625046Y-105904865D01*
X136752366Y-105991859D01*
X136865288Y-106014726D01*
X136762310Y-106034103D01*
X136632635Y-106117546D01*
X136545641Y-106244866D01*
X136515036Y-106396000D01*
X136515036Y-106904000D01*
X136541603Y-107045190D01*
X136625046Y-107174865D01*
X136752366Y-107261859D01*
X136865288Y-107284726D01*
X136762310Y-107304103D01*
X136632635Y-107387546D01*
X136545641Y-107514866D01*
X136515036Y-107666000D01*
X136515036Y-108174000D01*
X136541603Y-108315190D01*
X136625046Y-108444865D01*
X136752366Y-108531859D01*
X136903500Y-108562464D01*
X138046500Y-108562464D01*
X138187690Y-108535897D01*
X138317365Y-108452454D01*
X138404359Y-108325134D01*
X138434964Y-108174000D01*
X138434964Y-107666000D01*
X138408397Y-107524810D01*
X138324954Y-107395135D01*
X138197634Y-107308141D01*
X138084712Y-107285274D01*
X138187690Y-107265897D01*
X138317365Y-107182454D01*
X138404359Y-107055134D01*
X138434964Y-106904000D01*
X138434964Y-106396000D01*
X138408397Y-106254810D01*
X138324954Y-106125135D01*
X138197634Y-106038141D01*
X138084712Y-106015274D01*
X138187690Y-105995897D01*
X138317365Y-105912454D01*
X138404359Y-105785134D01*
X138434964Y-105634000D01*
X138434964Y-105126000D01*
X138408397Y-104984810D01*
X138324954Y-104855135D01*
X138197634Y-104768141D01*
X138084712Y-104745274D01*
X138187690Y-104725897D01*
X138317365Y-104642454D01*
X138404359Y-104515134D01*
X138434964Y-104364000D01*
X138434964Y-103856000D01*
X138408397Y-103714810D01*
X138324954Y-103585135D01*
X138197634Y-103498141D01*
X138084712Y-103475274D01*
X138187690Y-103455897D01*
X138317365Y-103372454D01*
X138404359Y-103245134D01*
X138434964Y-103094000D01*
X138434964Y-102586000D01*
X138408397Y-102444810D01*
X138324954Y-102315135D01*
X138197634Y-102228141D01*
X138084712Y-102205274D01*
X138187690Y-102185897D01*
X138317365Y-102102454D01*
X138404359Y-101975134D01*
X138434964Y-101824000D01*
X138434964Y-101316000D01*
X138422028Y-101247250D01*
X139269000Y-101247250D01*
X139269000Y-101600786D01*
X139327004Y-101740820D01*
X139434181Y-101847996D01*
X139574215Y-101906000D01*
X140052750Y-101906000D01*
X140148000Y-101810750D01*
X140148000Y-101152000D01*
X140402000Y-101152000D01*
X140402000Y-101810750D01*
X140497250Y-101906000D01*
X140975785Y-101906000D01*
X141115819Y-101847996D01*
X141222996Y-101740820D01*
X141281000Y-101600786D01*
X141281000Y-101247250D01*
X141185750Y-101152000D01*
X140402000Y-101152000D01*
X140148000Y-101152000D01*
X139364250Y-101152000D01*
X139269000Y-101247250D01*
X138422028Y-101247250D01*
X138408397Y-101174810D01*
X138324954Y-101045135D01*
X138197634Y-100958141D01*
X138084712Y-100935274D01*
X138187690Y-100915897D01*
X138317365Y-100832454D01*
X138404359Y-100705134D01*
X138434964Y-100554000D01*
X138434964Y-100449214D01*
X139269000Y-100449214D01*
X139269000Y-100802750D01*
X139364250Y-100898000D01*
X140148000Y-100898000D01*
X140148000Y-100239250D01*
X140402000Y-100239250D01*
X140402000Y-100898000D01*
X141185750Y-100898000D01*
X141281000Y-100802750D01*
X141281000Y-100449214D01*
X141222996Y-100309180D01*
X141115819Y-100202004D01*
X140975785Y-100144000D01*
X140497250Y-100144000D01*
X140402000Y-100239250D01*
X140148000Y-100239250D01*
X140052750Y-100144000D01*
X139574215Y-100144000D01*
X139434181Y-100202004D01*
X139327004Y-100309180D01*
X139269000Y-100449214D01*
X138434964Y-100449214D01*
X138434964Y-100046000D01*
X138408397Y-99904810D01*
X138324954Y-99775135D01*
X138197634Y-99688141D01*
X138084712Y-99665274D01*
X138187690Y-99645897D01*
X138317365Y-99562454D01*
X138338857Y-99531000D01*
X139262665Y-99531000D01*
X139288103Y-99666190D01*
X139371546Y-99795865D01*
X139498866Y-99882859D01*
X139650000Y-99913464D01*
X140900000Y-99913464D01*
X141041190Y-99886897D01*
X141170865Y-99803454D01*
X141203743Y-99755335D01*
X141480000Y-100031592D01*
X141480000Y-102464408D01*
X141100269Y-102844139D01*
X141059609Y-102816971D01*
X140525000Y-102710631D01*
X139990391Y-102816971D01*
X139537172Y-103119803D01*
X139234340Y-103573022D01*
X139128000Y-104107631D01*
X139128000Y-104162369D01*
X139234340Y-104696978D01*
X139537172Y-105150197D01*
X139717272Y-105270536D01*
X139509000Y-105270536D01*
X139367810Y-105297103D01*
X139238135Y-105380546D01*
X139151141Y-105507866D01*
X139120536Y-105659000D01*
X139120536Y-107691000D01*
X139147103Y-107832190D01*
X139230546Y-107961865D01*
X139357866Y-108048859D01*
X139509000Y-108079464D01*
X141541000Y-108079464D01*
X141682190Y-108052897D01*
X141811865Y-107969454D01*
X141898859Y-107842134D01*
X141929464Y-107691000D01*
X141929464Y-106761128D01*
X143519024Y-105171568D01*
X143518882Y-105334865D01*
X143622339Y-105585252D01*
X143694000Y-105657038D01*
X143694000Y-106250000D01*
X143732517Y-106443638D01*
X143842204Y-106607796D01*
X144292204Y-107057796D01*
X144456362Y-107167483D01*
X144650000Y-107206000D01*
X147900000Y-107206000D01*
X148093638Y-107167483D01*
X148257796Y-107057796D01*
X148907756Y-106407836D01*
X149017443Y-106243678D01*
X149055960Y-106050040D01*
X149055960Y-105921053D01*
X149120825Y-105879314D01*
X149207819Y-105751994D01*
X149238424Y-105600860D01*
X149238424Y-105322250D01*
X149569000Y-105322250D01*
X149569000Y-105775786D01*
X149627004Y-105915820D01*
X149734181Y-106022996D01*
X149874215Y-106081000D01*
X150177750Y-106081000D01*
X150273000Y-105985750D01*
X150273000Y-105227000D01*
X149664250Y-105227000D01*
X149569000Y-105322250D01*
X149238424Y-105322250D01*
X149238424Y-104600100D01*
X149211857Y-104458910D01*
X149189531Y-104424214D01*
X149569000Y-104424214D01*
X149569000Y-104877750D01*
X149664250Y-104973000D01*
X150273000Y-104973000D01*
X150273000Y-104214250D01*
X150177750Y-104119000D01*
X149874215Y-104119000D01*
X149734181Y-104177004D01*
X149627004Y-104284180D01*
X149569000Y-104424214D01*
X149189531Y-104424214D01*
X149128414Y-104329235D01*
X149001094Y-104242241D01*
X148849960Y-104211636D01*
X148249960Y-104211636D01*
X148108770Y-104238203D01*
X148074752Y-104260093D01*
X147975786Y-104219100D01*
X147822250Y-104219100D01*
X147727000Y-104314350D01*
X147727000Y-104973480D01*
X147747000Y-104973480D01*
X147747000Y-105227480D01*
X147727000Y-105227480D01*
X147727000Y-105886610D01*
X147822250Y-105981860D01*
X147902548Y-105981860D01*
X147690408Y-106194000D01*
X144859592Y-106194000D01*
X144706000Y-106040408D01*
X144706000Y-105657123D01*
X144756731Y-105606480D01*
X145962633Y-105606480D01*
X145988143Y-105742050D01*
X146071586Y-105871725D01*
X146198906Y-105958719D01*
X146350040Y-105989324D01*
X146950040Y-105989324D01*
X147091230Y-105962757D01*
X147125248Y-105940867D01*
X147224214Y-105981860D01*
X147377750Y-105981860D01*
X147473000Y-105886610D01*
X147473000Y-105227480D01*
X147453000Y-105227480D01*
X147453000Y-104973480D01*
X147473000Y-104973480D01*
X147473000Y-104314350D01*
X147377750Y-104219100D01*
X147224214Y-104219100D01*
X147126526Y-104259564D01*
X147101174Y-104242241D01*
X146950040Y-104211636D01*
X146350040Y-104211636D01*
X146208850Y-104238203D01*
X146079175Y-104321646D01*
X145992181Y-104448966D01*
X145962714Y-104594480D01*
X145466920Y-104594480D01*
X145467483Y-104593638D01*
X145506000Y-104400000D01*
X145506000Y-103877927D01*
X145591190Y-103861897D01*
X145720865Y-103778454D01*
X145807859Y-103651134D01*
X145838464Y-103500000D01*
X145838464Y-102300000D01*
X145811897Y-102158810D01*
X145728454Y-102029135D01*
X145601134Y-101942141D01*
X145450000Y-101911536D01*
X144550000Y-101911536D01*
X144408810Y-101938103D01*
X144279135Y-102021546D01*
X144192141Y-102148866D01*
X144161536Y-102300000D01*
X144161536Y-103500000D01*
X144188103Y-103641190D01*
X144271546Y-103770865D01*
X144398866Y-103857859D01*
X144494000Y-103877124D01*
X144494000Y-104190408D01*
X144165439Y-104518969D01*
X144065135Y-104518882D01*
X143814748Y-104622339D01*
X143681000Y-104755855D01*
X143681000Y-100922250D01*
X144169000Y-100922250D01*
X144169000Y-101375786D01*
X144227004Y-101515820D01*
X144334181Y-101622996D01*
X144474215Y-101681000D01*
X144777750Y-101681000D01*
X144873000Y-101585750D01*
X144873000Y-100827000D01*
X144264250Y-100827000D01*
X144169000Y-100922250D01*
X143681000Y-100922250D01*
X143681000Y-100024214D01*
X144169000Y-100024214D01*
X144169000Y-100477750D01*
X144264250Y-100573000D01*
X144873000Y-100573000D01*
X144873000Y-99814250D01*
X144777750Y-99719000D01*
X144474215Y-99719000D01*
X144334181Y-99777004D01*
X144227004Y-99884180D01*
X144169000Y-100024214D01*
X143681000Y-100024214D01*
X143681000Y-99159592D01*
X145034592Y-97806000D01*
X145853294Y-97806000D01*
X145829135Y-97821546D01*
G36*
X126245201Y-97659985D02*
X126019257Y-98204118D01*
X126018743Y-98793297D01*
X126101085Y-98992579D01*
X125975350Y-98904256D01*
X124779605Y-100100000D01*
X125975350Y-101295744D01*
X126222709Y-101121986D01*
X126490285Y-100423209D01*
X126470082Y-99675225D01*
X126391736Y-99486081D01*
X126659985Y-99754799D01*
X127204118Y-99980743D01*
X127793297Y-99981257D01*
X128337823Y-99756263D01*
X128754799Y-99340015D01*
X128980743Y-98795882D01*
X128980826Y-98700214D01*
X130172500Y-98700214D01*
X130172500Y-98807750D01*
X130267750Y-98903000D01*
X130998000Y-98903000D01*
X130998000Y-98490250D01*
X131252000Y-98490250D01*
X131252000Y-98903000D01*
X131982250Y-98903000D01*
X132077500Y-98807750D01*
X132077500Y-98700214D01*
X132019496Y-98560180D01*
X131912319Y-98453004D01*
X131772285Y-98395000D01*
X131347250Y-98395000D01*
X131252000Y-98490250D01*
X130998000Y-98490250D01*
X130902750Y-98395000D01*
X130477715Y-98395000D01*
X130337681Y-98453004D01*
X130230504Y-98560180D01*
X130172500Y-98700214D01*
X128980826Y-98700214D01*
X128981257Y-98206703D01*
X128756263Y-97662177D01*
X128350795Y-97256000D01*
X144153408Y-97256000D01*
X142817204Y-98592204D01*
X142707517Y-98756362D01*
X142669000Y-98950000D01*
X142669000Y-104590408D01*
X141839743Y-105419665D01*
X141819454Y-105388135D01*
X141692134Y-105301141D01*
X141541000Y-105270536D01*
X141332728Y-105270536D01*
X141512828Y-105150197D01*
X141815660Y-104696978D01*
X141922000Y-104162369D01*
X141922000Y-104107631D01*
X141815660Y-103573022D01*
X141810417Y-103565175D01*
X142343796Y-103031796D01*
X142453483Y-102867638D01*
X142492000Y-102674000D01*
X142492000Y-99822000D01*
X142453483Y-99628362D01*
X142343796Y-99464204D01*
X141546796Y-98667204D01*
X141382638Y-98557517D01*
X141288464Y-98538785D01*
X141288464Y-98525000D01*
X141261897Y-98383810D01*
X141178454Y-98254135D01*
X141051134Y-98167141D01*
X140900000Y-98136536D01*
X139650000Y-98136536D01*
X139508810Y-98163103D01*
X139379135Y-98246546D01*
X139292141Y-98373866D01*
X139262751Y-98519000D01*
X138333876Y-98519000D01*
X138324954Y-98505135D01*
X138197634Y-98418141D01*
X138046500Y-98387536D01*
X136903500Y-98387536D01*
X136762310Y-98414103D01*
X136632635Y-98497546D01*
X136614560Y-98524000D01*
X136174000Y-98524000D01*
X135980362Y-98562517D01*
X135872168Y-98634810D01*
X135816204Y-98672204D01*
X132154408Y-102334000D01*
X131987093Y-102334000D01*
X131974954Y-102315135D01*
X131847634Y-102228141D01*
X131734712Y-102205274D01*
X131837690Y-102185897D01*
X131967365Y-102102454D01*
X132054359Y-101975134D01*
X132084964Y-101824000D01*
X132084964Y-101316000D01*
X132058397Y-101174810D01*
X131974954Y-101045135D01*
X131847634Y-100958141D01*
X131734712Y-100935274D01*
X131837690Y-100915897D01*
X131967365Y-100832454D01*
X132054359Y-100705134D01*
X132084964Y-100554000D01*
X132084964Y-100046000D01*
X132058397Y-99904810D01*
X131974954Y-99775135D01*
X131847634Y-99688141D01*
X131733359Y-99665000D01*
X131772285Y-99665000D01*
X131912319Y-99606996D01*
X132019496Y-99499820D01*
X132077500Y-99359786D01*
X132077500Y-99252250D01*
X131982250Y-99157000D01*
X131252000Y-99157000D01*
X131252000Y-99177000D01*
X130998000Y-99177000D01*
X130998000Y-99157000D01*
X130267750Y-99157000D01*
X130172500Y-99252250D01*
X130172500Y-99359786D01*
X130230504Y-99499820D01*
X130337681Y-99606996D01*
X130477715Y-99665000D01*
X130513833Y-99665000D01*
X130412310Y-99684103D01*
X130282635Y-99767546D01*
X130264560Y-99794000D01*
X130257210Y-99794000D01*
X130236259Y-99773013D01*
X129986054Y-99669118D01*
X129715135Y-99668882D01*
X129464748Y-99772339D01*
X129273013Y-99963741D01*
X129169118Y-100213946D01*
X129168882Y-100484865D01*
X129272339Y-100735252D01*
X129463741Y-100926987D01*
X129463872Y-100927041D01*
X129414748Y-100947339D01*
X129223013Y-101138741D01*
X129119118Y-101388946D01*
X129118882Y-101659865D01*
X129222339Y-101910252D01*
X129413741Y-102101987D01*
X129663946Y-102205882D01*
X129934865Y-102206118D01*
X130185252Y-102102661D01*
X130211959Y-102076000D01*
X130262907Y-102076000D01*
X130275046Y-102094865D01*
X130402366Y-102181859D01*
X130515288Y-102204726D01*
X130412310Y-102224103D01*
X130282635Y-102307546D01*
X130195641Y-102434866D01*
X130165036Y-102586000D01*
X130165036Y-103094000D01*
X130191603Y-103235190D01*
X130275046Y-103364865D01*
X130402366Y-103451859D01*
X130515288Y-103474726D01*
X130412310Y-103494103D01*
X130282635Y-103577546D01*
X130264560Y-103604000D01*
X127540000Y-103604000D01*
X127346362Y-103642517D01*
X127182204Y-103752204D01*
X127060119Y-103874289D01*
X126926071Y-103818627D01*
X126475904Y-103818234D01*
X126059854Y-103990142D01*
X125741261Y-104308180D01*
X125568627Y-104723929D01*
X125568234Y-105174096D01*
X125740142Y-105590146D01*
X126058180Y-105908739D01*
X126169348Y-105954900D01*
X126059854Y-106000142D01*
X125741261Y-106318180D01*
X125568627Y-106733929D01*
X125568234Y-107184096D01*
X125740142Y-107600146D01*
X126058180Y-107918739D01*
X126473929Y-108091373D01*
X126924096Y-108091766D01*
X127340146Y-107919858D01*
X127658739Y-107601820D01*
X127831373Y-107186071D01*
X127831766Y-106735904D01*
X127775606Y-106599986D01*
X128489592Y-105886000D01*
X130262907Y-105886000D01*
X130275046Y-105904865D01*
X130402366Y-105991859D01*
X130515288Y-106014726D01*
X130412310Y-106034103D01*
X130282635Y-106117546D01*
X130195641Y-106244866D01*
X130165036Y-106396000D01*
X130165036Y-106904000D01*
X130191603Y-107045190D01*
X130275046Y-107174865D01*
X130402366Y-107261859D01*
X130515288Y-107284726D01*
X130412310Y-107304103D01*
X130282635Y-107387546D01*
X130195641Y-107514866D01*
X130165036Y-107666000D01*
X130165036Y-108174000D01*
X130191603Y-108315190D01*
X130275046Y-108444865D01*
X130402366Y-108531859D01*
X130553500Y-108562464D01*
X131051872Y-108562464D01*
X133214000Y-110724592D01*
X133214000Y-110977313D01*
X133102127Y-111023538D01*
X132794618Y-111330511D01*
X132747493Y-111444000D01*
X130023223Y-111444000D01*
X130011897Y-111383810D01*
X129928454Y-111254135D01*
X129808103Y-111171903D01*
X129865819Y-111147996D01*
X129972996Y-111040820D01*
X130031000Y-110900786D01*
X130031000Y-110647250D01*
X129935750Y-110552000D01*
X129402000Y-110552000D01*
X129402000Y-110572000D01*
X129148000Y-110572000D01*
X129148000Y-110552000D01*
X128614250Y-110552000D01*
X128519000Y-110647250D01*
X128519000Y-110900786D01*
X128577004Y-111040820D01*
X128684181Y-111147996D01*
X128743867Y-111172719D01*
X128629135Y-111246546D01*
X128542141Y-111373866D01*
X128511536Y-111525000D01*
X128511536Y-112325000D01*
X128532873Y-112438397D01*
X128340015Y-112245201D01*
X127795882Y-112019257D01*
X127206703Y-112018743D01*
X126662177Y-112243737D01*
X126309210Y-112596088D01*
X126490285Y-112123209D01*
X126470082Y-111375225D01*
X126222709Y-110778014D01*
X125975350Y-110604256D01*
X124779605Y-111800000D01*
X125975350Y-112995744D01*
X126159493Y-112866392D01*
X126019257Y-113204118D01*
X126018743Y-113793297D01*
X126243737Y-114337823D01*
X126649205Y-114744000D01*
X124044911Y-114744000D01*
X123412555Y-114618216D01*
X122914544Y-114285456D01*
X122581784Y-113787445D01*
X122460031Y-113175350D01*
X123404256Y-113175350D01*
X123578014Y-113422709D01*
X124276791Y-113690285D01*
X125024775Y-113670082D01*
X125621986Y-113422709D01*
X125795744Y-113175350D01*
X124600000Y-111979605D01*
X123404256Y-113175350D01*
X122460031Y-113175350D01*
X122456000Y-113155088D01*
X122456000Y-111476791D01*
X122709715Y-111476791D01*
X122729918Y-112224775D01*
X122977291Y-112821986D01*
X123224650Y-112995744D01*
X124420395Y-111800000D01*
X123224650Y-110604256D01*
X122977291Y-110778014D01*
X122709715Y-111476791D01*
X122456000Y-111476791D01*
X122456000Y-110424650D01*
X123404256Y-110424650D01*
X124600000Y-111620395D01*
X125795744Y-110424650D01*
X125621986Y-110177291D01*
X124923209Y-109909715D01*
X124175225Y-109929918D01*
X123578014Y-110177291D01*
X123404256Y-110424650D01*
X122456000Y-110424650D01*
X122456000Y-109674096D01*
X125568234Y-109674096D01*
X125740142Y-110090146D01*
X126058180Y-110408739D01*
X126473929Y-110581373D01*
X126924096Y-110581766D01*
X127340146Y-110409858D01*
X127658739Y-110091820D01*
X127717954Y-109949214D01*
X128519000Y-109949214D01*
X128519000Y-110202750D01*
X128614250Y-110298000D01*
X129148000Y-110298000D01*
X129148000Y-109739250D01*
X129402000Y-109739250D01*
X129402000Y-110298000D01*
X129935750Y-110298000D01*
X130031000Y-110202750D01*
X130031000Y-109949214D01*
X129972996Y-109809180D01*
X129865819Y-109702004D01*
X129725785Y-109644000D01*
X129497250Y-109644000D01*
X129402000Y-109739250D01*
X129148000Y-109739250D01*
X129052750Y-109644000D01*
X128824215Y-109644000D01*
X128684181Y-109702004D01*
X128577004Y-109809180D01*
X128519000Y-109949214D01*
X127717954Y-109949214D01*
X127831373Y-109676071D01*
X127831766Y-109225904D01*
X127659858Y-108809854D01*
X127341820Y-108491261D01*
X126926071Y-108318627D01*
X126475904Y-108318234D01*
X126059854Y-108490142D01*
X125741261Y-108808180D01*
X125568627Y-109223929D01*
X125568234Y-109674096D01*
X122456000Y-109674096D01*
X122456000Y-108394277D01*
X123618830Y-108394277D01*
X123767864Y-108754966D01*
X124043583Y-109031166D01*
X124404011Y-109180829D01*
X124794277Y-109181170D01*
X125154966Y-109032136D01*
X125431166Y-108756417D01*
X125580829Y-108395989D01*
X125581170Y-108005723D01*
X125432136Y-107645034D01*
X125156417Y-107368834D01*
X124795989Y-107219171D01*
X124405723Y-107218830D01*
X124045034Y-107367864D01*
X123768834Y-107643583D01*
X123619171Y-108004011D01*
X123618830Y-108394277D01*
X122456000Y-108394277D01*
X122456000Y-103894277D01*
X123618830Y-103894277D01*
X123767864Y-104254966D01*
X124043583Y-104531166D01*
X124404011Y-104680829D01*
X124794277Y-104681170D01*
X125154966Y-104532136D01*
X125431166Y-104256417D01*
X125580829Y-103895989D01*
X125581170Y-103505723D01*
X125489086Y-103282861D01*
X126046744Y-103282861D01*
X126128715Y-103452371D01*
X126555793Y-103594691D01*
X127004824Y-103562743D01*
X127271285Y-103452371D01*
X127353256Y-103282861D01*
X126700000Y-102629605D01*
X126046744Y-103282861D01*
X125489086Y-103282861D01*
X125432136Y-103145034D01*
X125156417Y-102868834D01*
X124795989Y-102719171D01*
X124405723Y-102718830D01*
X124045034Y-102867864D01*
X123768834Y-103143583D01*
X123619171Y-103504011D01*
X123618830Y-103894277D01*
X122456000Y-103894277D01*
X122456000Y-102305793D01*
X125555309Y-102305793D01*
X125587257Y-102754824D01*
X125697629Y-103021285D01*
X125867139Y-103103256D01*
X126520395Y-102450000D01*
X126879605Y-102450000D01*
X127532861Y-103103256D01*
X127702371Y-103021285D01*
X127844691Y-102594207D01*
X127812743Y-102145176D01*
X127702371Y-101878715D01*
X127532861Y-101796744D01*
X126879605Y-102450000D01*
X126520395Y-102450000D01*
X125867139Y-101796744D01*
X125697629Y-101878715D01*
X125555309Y-102305793D01*
X122456000Y-102305793D01*
X122456000Y-101475350D01*
X123404256Y-101475350D01*
X123578014Y-101722709D01*
X124276791Y-101990285D01*
X125024775Y-101970082D01*
X125621986Y-101722709D01*
X125696143Y-101617139D01*
X126046744Y-101617139D01*
X126700000Y-102270395D01*
X127353256Y-101617139D01*
X127271285Y-101447629D01*
X126844207Y-101305309D01*
X126395176Y-101337257D01*
X126128715Y-101447629D01*
X126046744Y-101617139D01*
X125696143Y-101617139D01*
X125795744Y-101475350D01*
X124600000Y-100279605D01*
X123404256Y-101475350D01*
X122456000Y-101475350D01*
X122456000Y-99776791D01*
X122709715Y-99776791D01*
X122729918Y-100524775D01*
X122977291Y-101121986D01*
X123224650Y-101295744D01*
X124420395Y-100100000D01*
X123224650Y-98904256D01*
X122977291Y-99078014D01*
X122709715Y-99776791D01*
X122456000Y-99776791D01*
X122456000Y-98844912D01*
X122479921Y-98724650D01*
X123404256Y-98724650D01*
X124600000Y-99920395D01*
X125795744Y-98724650D01*
X125621986Y-98477291D01*
X124923209Y-98209715D01*
X124175225Y-98229918D01*
X123578014Y-98477291D01*
X123404256Y-98724650D01*
X122479921Y-98724650D01*
X122581784Y-98212555D01*
X122914544Y-97714544D01*
X123412555Y-97381784D01*
X124044911Y-97256000D01*
X126649893Y-97256000D01*
X126245201Y-97659985D01*
X126245201Y-97659985D01*
G37*
X126245201Y-97659985D02*
X126019257Y-98204118D01*
X126018743Y-98793297D01*
X126101085Y-98992579D01*
X125975350Y-98904256D01*
X124779605Y-100100000D01*
X125975350Y-101295744D01*
X126222709Y-101121986D01*
X126490285Y-100423209D01*
X126470082Y-99675225D01*
X126391736Y-99486081D01*
X126659985Y-99754799D01*
X127204118Y-99980743D01*
X127793297Y-99981257D01*
X128337823Y-99756263D01*
X128754799Y-99340015D01*
X128980743Y-98795882D01*
X128980826Y-98700214D01*
X130172500Y-98700214D01*
X130172500Y-98807750D01*
X130267750Y-98903000D01*
X130998000Y-98903000D01*
X130998000Y-98490250D01*
X131252000Y-98490250D01*
X131252000Y-98903000D01*
X131982250Y-98903000D01*
X132077500Y-98807750D01*
X132077500Y-98700214D01*
X132019496Y-98560180D01*
X131912319Y-98453004D01*
X131772285Y-98395000D01*
X131347250Y-98395000D01*
X131252000Y-98490250D01*
X130998000Y-98490250D01*
X130902750Y-98395000D01*
X130477715Y-98395000D01*
X130337681Y-98453004D01*
X130230504Y-98560180D01*
X130172500Y-98700214D01*
X128980826Y-98700214D01*
X128981257Y-98206703D01*
X128756263Y-97662177D01*
X128350795Y-97256000D01*
X144153408Y-97256000D01*
X142817204Y-98592204D01*
X142707517Y-98756362D01*
X142669000Y-98950000D01*
X142669000Y-104590408D01*
X141839743Y-105419665D01*
X141819454Y-105388135D01*
X141692134Y-105301141D01*
X141541000Y-105270536D01*
X141332728Y-105270536D01*
X141512828Y-105150197D01*
X141815660Y-104696978D01*
X141922000Y-104162369D01*
X141922000Y-104107631D01*
X141815660Y-103573022D01*
X141810417Y-103565175D01*
X142343796Y-103031796D01*
X142453483Y-102867638D01*
X142492000Y-102674000D01*
X142492000Y-99822000D01*
X142453483Y-99628362D01*
X142343796Y-99464204D01*
X141546796Y-98667204D01*
X141382638Y-98557517D01*
X141288464Y-98538785D01*
X141288464Y-98525000D01*
X141261897Y-98383810D01*
X141178454Y-98254135D01*
X141051134Y-98167141D01*
X140900000Y-98136536D01*
X139650000Y-98136536D01*
X139508810Y-98163103D01*
X139379135Y-98246546D01*
X139292141Y-98373866D01*
X139262751Y-98519000D01*
X138333876Y-98519000D01*
X138324954Y-98505135D01*
X138197634Y-98418141D01*
X138046500Y-98387536D01*
X136903500Y-98387536D01*
X136762310Y-98414103D01*
X136632635Y-98497546D01*
X136614560Y-98524000D01*
X136174000Y-98524000D01*
X135980362Y-98562517D01*
X135872168Y-98634810D01*
X135816204Y-98672204D01*
X132154408Y-102334000D01*
X131987093Y-102334000D01*
X131974954Y-102315135D01*
X131847634Y-102228141D01*
X131734712Y-102205274D01*
X131837690Y-102185897D01*
X131967365Y-102102454D01*
X132054359Y-101975134D01*
X132084964Y-101824000D01*
X132084964Y-101316000D01*
X132058397Y-101174810D01*
X131974954Y-101045135D01*
X131847634Y-100958141D01*
X131734712Y-100935274D01*
X131837690Y-100915897D01*
X131967365Y-100832454D01*
X132054359Y-100705134D01*
X132084964Y-100554000D01*
X132084964Y-100046000D01*
X132058397Y-99904810D01*
X131974954Y-99775135D01*
X131847634Y-99688141D01*
X131733359Y-99665000D01*
X131772285Y-99665000D01*
X131912319Y-99606996D01*
X132019496Y-99499820D01*
X132077500Y-99359786D01*
X132077500Y-99252250D01*
X131982250Y-99157000D01*
X131252000Y-99157000D01*
X131252000Y-99177000D01*
X130998000Y-99177000D01*
X130998000Y-99157000D01*
X130267750Y-99157000D01*
X130172500Y-99252250D01*
X130172500Y-99359786D01*
X130230504Y-99499820D01*
X130337681Y-99606996D01*
X130477715Y-99665000D01*
X130513833Y-99665000D01*
X130412310Y-99684103D01*
X130282635Y-99767546D01*
X130264560Y-99794000D01*
X130257210Y-99794000D01*
X130236259Y-99773013D01*
X129986054Y-99669118D01*
X129715135Y-99668882D01*
X129464748Y-99772339D01*
X129273013Y-99963741D01*
X129169118Y-100213946D01*
X129168882Y-100484865D01*
X129272339Y-100735252D01*
X129463741Y-100926987D01*
X129463872Y-100927041D01*
X129414748Y-100947339D01*
X129223013Y-101138741D01*
X129119118Y-101388946D01*
X129118882Y-101659865D01*
X129222339Y-101910252D01*
X129413741Y-102101987D01*
X129663946Y-102205882D01*
X129934865Y-102206118D01*
X130185252Y-102102661D01*
X130211959Y-102076000D01*
X130262907Y-102076000D01*
X130275046Y-102094865D01*
X130402366Y-102181859D01*
X130515288Y-102204726D01*
X130412310Y-102224103D01*
X130282635Y-102307546D01*
X130195641Y-102434866D01*
X130165036Y-102586000D01*
X130165036Y-103094000D01*
X130191603Y-103235190D01*
X130275046Y-103364865D01*
X130402366Y-103451859D01*
X130515288Y-103474726D01*
X130412310Y-103494103D01*
X130282635Y-103577546D01*
X130264560Y-103604000D01*
X127540000Y-103604000D01*
X127346362Y-103642517D01*
X127182204Y-103752204D01*
X127060119Y-103874289D01*
X126926071Y-103818627D01*
X126475904Y-103818234D01*
X126059854Y-103990142D01*
X125741261Y-104308180D01*
X125568627Y-104723929D01*
X125568234Y-105174096D01*
X125740142Y-105590146D01*
X126058180Y-105908739D01*
X126169348Y-105954900D01*
X126059854Y-106000142D01*
X125741261Y-106318180D01*
X125568627Y-106733929D01*
X125568234Y-107184096D01*
X125740142Y-107600146D01*
X126058180Y-107918739D01*
X126473929Y-108091373D01*
X126924096Y-108091766D01*
X127340146Y-107919858D01*
X127658739Y-107601820D01*
X127831373Y-107186071D01*
X127831766Y-106735904D01*
X127775606Y-106599986D01*
X128489592Y-105886000D01*
X130262907Y-105886000D01*
X130275046Y-105904865D01*
X130402366Y-105991859D01*
X130515288Y-106014726D01*
X130412310Y-106034103D01*
X130282635Y-106117546D01*
X130195641Y-106244866D01*
X130165036Y-106396000D01*
X130165036Y-106904000D01*
X130191603Y-107045190D01*
X130275046Y-107174865D01*
X130402366Y-107261859D01*
X130515288Y-107284726D01*
X130412310Y-107304103D01*
X130282635Y-107387546D01*
X130195641Y-107514866D01*
X130165036Y-107666000D01*
X130165036Y-108174000D01*
X130191603Y-108315190D01*
X130275046Y-108444865D01*
X130402366Y-108531859D01*
X130553500Y-108562464D01*
X131051872Y-108562464D01*
X133214000Y-110724592D01*
X133214000Y-110977313D01*
X133102127Y-111023538D01*
X132794618Y-111330511D01*
X132747493Y-111444000D01*
X130023223Y-111444000D01*
X130011897Y-111383810D01*
X129928454Y-111254135D01*
X129808103Y-111171903D01*
X129865819Y-111147996D01*
X129972996Y-111040820D01*
X130031000Y-110900786D01*
X130031000Y-110647250D01*
X129935750Y-110552000D01*
X129402000Y-110552000D01*
X129402000Y-110572000D01*
X129148000Y-110572000D01*
X129148000Y-110552000D01*
X128614250Y-110552000D01*
X128519000Y-110647250D01*
X128519000Y-110900786D01*
X128577004Y-111040820D01*
X128684181Y-111147996D01*
X128743867Y-111172719D01*
X128629135Y-111246546D01*
X128542141Y-111373866D01*
X128511536Y-111525000D01*
X128511536Y-112325000D01*
X128532873Y-112438397D01*
X128340015Y-112245201D01*
X127795882Y-112019257D01*
X127206703Y-112018743D01*
X126662177Y-112243737D01*
X126309210Y-112596088D01*
X126490285Y-112123209D01*
X126470082Y-111375225D01*
X126222709Y-110778014D01*
X125975350Y-110604256D01*
X124779605Y-111800000D01*
X125975350Y-112995744D01*
X126159493Y-112866392D01*
X126019257Y-113204118D01*
X126018743Y-113793297D01*
X126243737Y-114337823D01*
X126649205Y-114744000D01*
X124044911Y-114744000D01*
X123412555Y-114618216D01*
X122914544Y-114285456D01*
X122581784Y-113787445D01*
X122460031Y-113175350D01*
X123404256Y-113175350D01*
X123578014Y-113422709D01*
X124276791Y-113690285D01*
X125024775Y-113670082D01*
X125621986Y-113422709D01*
X125795744Y-113175350D01*
X124600000Y-111979605D01*
X123404256Y-113175350D01*
X122460031Y-113175350D01*
X122456000Y-113155088D01*
X122456000Y-111476791D01*
X122709715Y-111476791D01*
X122729918Y-112224775D01*
X122977291Y-112821986D01*
X123224650Y-112995744D01*
X124420395Y-111800000D01*
X123224650Y-110604256D01*
X122977291Y-110778014D01*
X122709715Y-111476791D01*
X122456000Y-111476791D01*
X122456000Y-110424650D01*
X123404256Y-110424650D01*
X124600000Y-111620395D01*
X125795744Y-110424650D01*
X125621986Y-110177291D01*
X124923209Y-109909715D01*
X124175225Y-109929918D01*
X123578014Y-110177291D01*
X123404256Y-110424650D01*
X122456000Y-110424650D01*
X122456000Y-109674096D01*
X125568234Y-109674096D01*
X125740142Y-110090146D01*
X126058180Y-110408739D01*
X126473929Y-110581373D01*
X126924096Y-110581766D01*
X127340146Y-110409858D01*
X127658739Y-110091820D01*
X127717954Y-109949214D01*
X128519000Y-109949214D01*
X128519000Y-110202750D01*
X128614250Y-110298000D01*
X129148000Y-110298000D01*
X129148000Y-109739250D01*
X129402000Y-109739250D01*
X129402000Y-110298000D01*
X129935750Y-110298000D01*
X130031000Y-110202750D01*
X130031000Y-109949214D01*
X129972996Y-109809180D01*
X129865819Y-109702004D01*
X129725785Y-109644000D01*
X129497250Y-109644000D01*
X129402000Y-109739250D01*
X129148000Y-109739250D01*
X129052750Y-109644000D01*
X128824215Y-109644000D01*
X128684181Y-109702004D01*
X128577004Y-109809180D01*
X128519000Y-109949214D01*
X127717954Y-109949214D01*
X127831373Y-109676071D01*
X127831766Y-109225904D01*
X127659858Y-108809854D01*
X127341820Y-108491261D01*
X126926071Y-108318627D01*
X126475904Y-108318234D01*
X126059854Y-108490142D01*
X125741261Y-108808180D01*
X125568627Y-109223929D01*
X125568234Y-109674096D01*
X122456000Y-109674096D01*
X122456000Y-108394277D01*
X123618830Y-108394277D01*
X123767864Y-108754966D01*
X124043583Y-109031166D01*
X124404011Y-109180829D01*
X124794277Y-109181170D01*
X125154966Y-109032136D01*
X125431166Y-108756417D01*
X125580829Y-108395989D01*
X125581170Y-108005723D01*
X125432136Y-107645034D01*
X125156417Y-107368834D01*
X124795989Y-107219171D01*
X124405723Y-107218830D01*
X124045034Y-107367864D01*
X123768834Y-107643583D01*
X123619171Y-108004011D01*
X123618830Y-108394277D01*
X122456000Y-108394277D01*
X122456000Y-103894277D01*
X123618830Y-103894277D01*
X123767864Y-104254966D01*
X124043583Y-104531166D01*
X124404011Y-104680829D01*
X124794277Y-104681170D01*
X125154966Y-104532136D01*
X125431166Y-104256417D01*
X125580829Y-103895989D01*
X125581170Y-103505723D01*
X125489086Y-103282861D01*
X126046744Y-103282861D01*
X126128715Y-103452371D01*
X126555793Y-103594691D01*
X127004824Y-103562743D01*
X127271285Y-103452371D01*
X127353256Y-103282861D01*
X126700000Y-102629605D01*
X126046744Y-103282861D01*
X125489086Y-103282861D01*
X125432136Y-103145034D01*
X125156417Y-102868834D01*
X124795989Y-102719171D01*
X124405723Y-102718830D01*
X124045034Y-102867864D01*
X123768834Y-103143583D01*
X123619171Y-103504011D01*
X123618830Y-103894277D01*
X122456000Y-103894277D01*
X122456000Y-102305793D01*
X125555309Y-102305793D01*
X125587257Y-102754824D01*
X125697629Y-103021285D01*
X125867139Y-103103256D01*
X126520395Y-102450000D01*
X126879605Y-102450000D01*
X127532861Y-103103256D01*
X127702371Y-103021285D01*
X127844691Y-102594207D01*
X127812743Y-102145176D01*
X127702371Y-101878715D01*
X127532861Y-101796744D01*
X126879605Y-102450000D01*
X126520395Y-102450000D01*
X125867139Y-101796744D01*
X125697629Y-101878715D01*
X125555309Y-102305793D01*
X122456000Y-102305793D01*
X122456000Y-101475350D01*
X123404256Y-101475350D01*
X123578014Y-101722709D01*
X124276791Y-101990285D01*
X125024775Y-101970082D01*
X125621986Y-101722709D01*
X125696143Y-101617139D01*
X126046744Y-101617139D01*
X126700000Y-102270395D01*
X127353256Y-101617139D01*
X127271285Y-101447629D01*
X126844207Y-101305309D01*
X126395176Y-101337257D01*
X126128715Y-101447629D01*
X126046744Y-101617139D01*
X125696143Y-101617139D01*
X125795744Y-101475350D01*
X124600000Y-100279605D01*
X123404256Y-101475350D01*
X122456000Y-101475350D01*
X122456000Y-99776791D01*
X122709715Y-99776791D01*
X122729918Y-100524775D01*
X122977291Y-101121986D01*
X123224650Y-101295744D01*
X124420395Y-100100000D01*
X123224650Y-98904256D01*
X122977291Y-99078014D01*
X122709715Y-99776791D01*
X122456000Y-99776791D01*
X122456000Y-98844912D01*
X122479921Y-98724650D01*
X123404256Y-98724650D01*
X124600000Y-99920395D01*
X125795744Y-98724650D01*
X125621986Y-98477291D01*
X124923209Y-98209715D01*
X124175225Y-98229918D01*
X123578014Y-98477291D01*
X123404256Y-98724650D01*
X122479921Y-98724650D01*
X122581784Y-98212555D01*
X122914544Y-97714544D01*
X123412555Y-97381784D01*
X124044911Y-97256000D01*
X126649893Y-97256000D01*
X126245201Y-97659985D01*
G36*
X161909536Y-110181009D02*
X161909536Y-111333097D01*
X161679000Y-111332896D01*
X161679000Y-110966250D01*
X161583750Y-110871000D01*
X160925000Y-110871000D01*
X160925000Y-111654750D01*
X161020250Y-111750000D01*
X161170246Y-111750000D01*
X161117118Y-111877946D01*
X161117030Y-111979378D01*
X161080408Y-112016000D01*
X159002000Y-112016000D01*
X159002000Y-111461592D01*
X159497342Y-110966250D01*
X159917000Y-110966250D01*
X159917000Y-111444785D01*
X159975004Y-111584819D01*
X160082180Y-111691996D01*
X160222214Y-111750000D01*
X160575750Y-111750000D01*
X160671000Y-111654750D01*
X160671000Y-110871000D01*
X160012250Y-110871000D01*
X159917000Y-110966250D01*
X159497342Y-110966250D01*
X159929421Y-110534171D01*
X160012250Y-110617000D01*
X160671000Y-110617000D01*
X160671000Y-110597000D01*
X160925000Y-110597000D01*
X160925000Y-110617000D01*
X161583750Y-110617000D01*
X161679000Y-110521750D01*
X161679000Y-110323599D01*
X161741190Y-110311897D01*
X161870865Y-110228454D01*
X161903287Y-110181003D01*
X161909536Y-110181009D01*
X161909536Y-110181009D01*
G37*
X161909536Y-110181009D02*
X161909536Y-111333097D01*
X161679000Y-111332896D01*
X161679000Y-110966250D01*
X161583750Y-110871000D01*
X160925000Y-110871000D01*
X160925000Y-111654750D01*
X161020250Y-111750000D01*
X161170246Y-111750000D01*
X161117118Y-111877946D01*
X161117030Y-111979378D01*
X161080408Y-112016000D01*
X159002000Y-112016000D01*
X159002000Y-111461592D01*
X159497342Y-110966250D01*
X159917000Y-110966250D01*
X159917000Y-111444785D01*
X159975004Y-111584819D01*
X160082180Y-111691996D01*
X160222214Y-111750000D01*
X160575750Y-111750000D01*
X160671000Y-111654750D01*
X160671000Y-110871000D01*
X160012250Y-110871000D01*
X159917000Y-110966250D01*
X159497342Y-110966250D01*
X159929421Y-110534171D01*
X160012250Y-110617000D01*
X160671000Y-110617000D01*
X160671000Y-110597000D01*
X160925000Y-110597000D01*
X160925000Y-110617000D01*
X161583750Y-110617000D01*
X161679000Y-110521750D01*
X161679000Y-110323599D01*
X161741190Y-110311897D01*
X161870865Y-110228454D01*
X161903287Y-110181003D01*
X161909536Y-110181009D01*
G36*
X158794000Y-105250000D02*
X158832517Y-105443638D01*
X158942204Y-105607796D01*
X159092204Y-105757796D01*
X159256362Y-105867483D01*
X159450000Y-105906000D01*
X159861981Y-105906000D01*
X159871546Y-105920865D01*
X159944000Y-105970371D01*
X159944000Y-107618000D01*
X159982517Y-107811638D01*
X160092204Y-107975796D01*
X160322408Y-108206000D01*
X159388000Y-108206000D01*
X159194362Y-108244517D01*
X159030204Y-108354204D01*
X158715439Y-108668969D01*
X158615135Y-108668882D01*
X158364748Y-108772339D01*
X158173013Y-108963741D01*
X158156000Y-109004713D01*
X158156000Y-108250000D01*
X158117483Y-108056362D01*
X158007796Y-107892204D01*
X157407796Y-107292204D01*
X157243638Y-107182517D01*
X157050000Y-107144000D01*
X156259592Y-107144000D01*
X154781031Y-105665439D01*
X154781118Y-105565135D01*
X154677661Y-105314748D01*
X154486259Y-105123013D01*
X154236054Y-105019118D01*
X154196508Y-105019084D01*
X154934561Y-104281031D01*
X155034865Y-104281118D01*
X155285252Y-104177661D01*
X155476987Y-103986259D01*
X155580882Y-103736054D01*
X155581118Y-103465135D01*
X155556684Y-103406000D01*
X158500000Y-103406000D01*
X158693638Y-103367483D01*
X158794000Y-103300423D01*
X158794000Y-105250000D01*
X158794000Y-105250000D01*
G37*
X158794000Y-105250000D02*
X158832517Y-105443638D01*
X158942204Y-105607796D01*
X159092204Y-105757796D01*
X159256362Y-105867483D01*
X159450000Y-105906000D01*
X159861981Y-105906000D01*
X159871546Y-105920865D01*
X159944000Y-105970371D01*
X159944000Y-107618000D01*
X159982517Y-107811638D01*
X160092204Y-107975796D01*
X160322408Y-108206000D01*
X159388000Y-108206000D01*
X159194362Y-108244517D01*
X159030204Y-108354204D01*
X158715439Y-108668969D01*
X158615135Y-108668882D01*
X158364748Y-108772339D01*
X158173013Y-108963741D01*
X158156000Y-109004713D01*
X158156000Y-108250000D01*
X158117483Y-108056362D01*
X158007796Y-107892204D01*
X157407796Y-107292204D01*
X157243638Y-107182517D01*
X157050000Y-107144000D01*
X156259592Y-107144000D01*
X154781031Y-105665439D01*
X154781118Y-105565135D01*
X154677661Y-105314748D01*
X154486259Y-105123013D01*
X154236054Y-105019118D01*
X154196508Y-105019084D01*
X154934561Y-104281031D01*
X155034865Y-104281118D01*
X155285252Y-104177661D01*
X155476987Y-103986259D01*
X155580882Y-103736054D01*
X155581118Y-103465135D01*
X155556684Y-103406000D01*
X158500000Y-103406000D01*
X158693638Y-103367483D01*
X158794000Y-103300423D01*
X158794000Y-105250000D01*
G36*
X174327000Y-106273000D02*
X174347000Y-106273000D01*
X174347000Y-106527000D01*
X174327000Y-106527000D01*
X174327000Y-107235750D01*
X174422250Y-107331000D01*
X174675786Y-107331000D01*
X174742370Y-107303420D01*
X174748866Y-107307859D01*
X174900000Y-107338464D01*
X174917575Y-107338464D01*
X174842141Y-107448866D01*
X174811536Y-107600000D01*
X174811536Y-107794000D01*
X174609592Y-107794000D01*
X174062171Y-107246579D01*
X174073000Y-107235750D01*
X174073000Y-106527000D01*
X174053000Y-106527000D01*
X174053000Y-106273000D01*
X174073000Y-106273000D01*
X174073000Y-106253000D01*
X174327000Y-106253000D01*
X174327000Y-106273000D01*
X174327000Y-106273000D01*
G37*
X174327000Y-106273000D02*
X174347000Y-106273000D01*
X174347000Y-106527000D01*
X174327000Y-106527000D01*
X174327000Y-107235750D01*
X174422250Y-107331000D01*
X174675786Y-107331000D01*
X174742370Y-107303420D01*
X174748866Y-107307859D01*
X174900000Y-107338464D01*
X174917575Y-107338464D01*
X174842141Y-107448866D01*
X174811536Y-107600000D01*
X174811536Y-107794000D01*
X174609592Y-107794000D01*
X174062171Y-107246579D01*
X174073000Y-107235750D01*
X174073000Y-106527000D01*
X174053000Y-106527000D01*
X174053000Y-106273000D01*
X174073000Y-106273000D01*
X174073000Y-106253000D01*
X174327000Y-106253000D01*
X174327000Y-106273000D01*
G36*
X160577000Y-103875000D02*
X160597000Y-103875000D01*
X160597000Y-104125000D01*
X160577000Y-104125000D01*
X160577000Y-104535750D01*
X160672250Y-104631000D01*
X160825786Y-104631000D01*
X160965820Y-104572996D01*
X160999114Y-104539702D01*
X161098866Y-104607859D01*
X161250000Y-104638464D01*
X161595944Y-104638464D01*
X161472872Y-104761536D01*
X161250000Y-104761536D01*
X161108810Y-104788103D01*
X160998814Y-104858883D01*
X160901134Y-104792141D01*
X160750000Y-104761536D01*
X160150000Y-104761536D01*
X160008810Y-104788103D01*
X159879135Y-104871546D01*
X159863793Y-104894000D01*
X159806000Y-104894000D01*
X159806000Y-104415111D01*
X159827004Y-104465819D01*
X159934180Y-104572996D01*
X160074214Y-104631000D01*
X160227750Y-104631000D01*
X160323000Y-104535750D01*
X160323000Y-104125000D01*
X160303000Y-104125000D01*
X160303000Y-103875000D01*
X160323000Y-103875000D01*
X160323000Y-103853000D01*
X160577000Y-103853000D01*
X160577000Y-103875000D01*
X160577000Y-103875000D01*
G37*
X160577000Y-103875000D02*
X160597000Y-103875000D01*
X160597000Y-104125000D01*
X160577000Y-104125000D01*
X160577000Y-104535750D01*
X160672250Y-104631000D01*
X160825786Y-104631000D01*
X160965820Y-104572996D01*
X160999114Y-104539702D01*
X161098866Y-104607859D01*
X161250000Y-104638464D01*
X161595944Y-104638464D01*
X161472872Y-104761536D01*
X161250000Y-104761536D01*
X161108810Y-104788103D01*
X160998814Y-104858883D01*
X160901134Y-104792141D01*
X160750000Y-104761536D01*
X160150000Y-104761536D01*
X160008810Y-104788103D01*
X159879135Y-104871546D01*
X159863793Y-104894000D01*
X159806000Y-104894000D01*
X159806000Y-104415111D01*
X159827004Y-104465819D01*
X159934180Y-104572996D01*
X160074214Y-104631000D01*
X160227750Y-104631000D01*
X160323000Y-104535750D01*
X160323000Y-104125000D01*
X160303000Y-104125000D01*
X160303000Y-103875000D01*
X160323000Y-103875000D01*
X160323000Y-103853000D01*
X160577000Y-103853000D01*
X160577000Y-103875000D01*
G36*
X167864500Y-102810500D02*
X169335500Y-102810500D01*
X169335500Y-102790500D01*
X169589500Y-102790500D01*
X169589500Y-102810500D01*
X169609500Y-102810500D01*
X169609500Y-103064500D01*
X169589500Y-103064500D01*
X169589500Y-104535500D01*
X169609500Y-104535500D01*
X169609500Y-104789500D01*
X169589500Y-104789500D01*
X169589500Y-104809500D01*
X169335500Y-104809500D01*
X169335500Y-104789500D01*
X167864500Y-104789500D01*
X167864500Y-104809500D01*
X167610500Y-104809500D01*
X167610500Y-104789500D01*
X167590500Y-104789500D01*
X167590500Y-104535500D01*
X167610500Y-104535500D01*
X167610500Y-103064500D01*
X167864500Y-103064500D01*
X167864500Y-104535500D01*
X169335500Y-104535500D01*
X169335500Y-103064500D01*
X167864500Y-103064500D01*
X167610500Y-103064500D01*
X167590500Y-103064500D01*
X167590500Y-102810500D01*
X167610500Y-102810500D01*
X167610500Y-102790500D01*
X167864500Y-102790500D01*
X167864500Y-102810500D01*
X167864500Y-102810500D01*
G37*
X167864500Y-102810500D02*
X169335500Y-102810500D01*
X169335500Y-102790500D01*
X169589500Y-102790500D01*
X169589500Y-102810500D01*
X169609500Y-102810500D01*
X169609500Y-103064500D01*
X169589500Y-103064500D01*
X169589500Y-104535500D01*
X169609500Y-104535500D01*
X169609500Y-104789500D01*
X169589500Y-104789500D01*
X169589500Y-104809500D01*
X169335500Y-104809500D01*
X169335500Y-104789500D01*
X167864500Y-104789500D01*
X167864500Y-104809500D01*
X167610500Y-104809500D01*
X167610500Y-104789500D01*
X167590500Y-104789500D01*
X167590500Y-104535500D01*
X167610500Y-104535500D01*
X167610500Y-103064500D01*
X167864500Y-103064500D01*
X167864500Y-104535500D01*
X169335500Y-104535500D01*
X169335500Y-103064500D01*
X167864500Y-103064500D01*
X167610500Y-103064500D01*
X167590500Y-103064500D01*
X167590500Y-102810500D01*
X167610500Y-102810500D01*
X167610500Y-102790500D01*
X167864500Y-102790500D01*
X167864500Y-102810500D01*
G36*
X159040406Y-100844000D02*
X157644600Y-100844000D01*
X157644600Y-100022250D01*
X157549350Y-99927000D01*
X156527000Y-99927000D01*
X156527000Y-99947000D01*
X156273000Y-99947000D01*
X156273000Y-99927000D01*
X155250650Y-99927000D01*
X155155400Y-100022250D01*
X155155400Y-100844000D01*
X155000000Y-100844000D01*
X154806362Y-100882517D01*
X154642204Y-100992204D01*
X154165439Y-101468969D01*
X154065135Y-101468882D01*
X153814748Y-101572339D01*
X153623013Y-101763741D01*
X153519118Y-102013946D01*
X153518882Y-102284865D01*
X153563975Y-102394000D01*
X151621592Y-102394000D01*
X151677796Y-102337796D01*
X151787483Y-102173638D01*
X151826000Y-101980000D01*
X151826000Y-101109776D01*
X152200065Y-100859834D01*
X152469860Y-100456057D01*
X152564600Y-99979769D01*
X152564600Y-99620231D01*
X152615400Y-99620231D01*
X152615400Y-99979769D01*
X152710140Y-100456057D01*
X152979935Y-100859834D01*
X153383712Y-101129629D01*
X153860000Y-101224369D01*
X154336288Y-101129629D01*
X154740065Y-100859834D01*
X155009860Y-100456057D01*
X155104600Y-99979769D01*
X155104600Y-99620231D01*
X155009860Y-99143943D01*
X154740065Y-98740166D01*
X154692247Y-98708215D01*
X155155400Y-98708215D01*
X155155400Y-99577750D01*
X155250650Y-99673000D01*
X156273000Y-99673000D01*
X156273000Y-98498250D01*
X156527000Y-98498250D01*
X156527000Y-99673000D01*
X157549350Y-99673000D01*
X157644600Y-99577750D01*
X157644600Y-98708215D01*
X157586596Y-98568181D01*
X157479420Y-98461004D01*
X157339386Y-98403000D01*
X156622250Y-98403000D01*
X156527000Y-98498250D01*
X156273000Y-98498250D01*
X156177750Y-98403000D01*
X155460614Y-98403000D01*
X155320580Y-98461004D01*
X155213404Y-98568181D01*
X155155400Y-98708215D01*
X154692247Y-98708215D01*
X154336288Y-98470371D01*
X153860000Y-98375631D01*
X153383712Y-98470371D01*
X152979935Y-98740166D01*
X152710140Y-99143943D01*
X152615400Y-99620231D01*
X152564600Y-99620231D01*
X152469860Y-99143943D01*
X152200065Y-98740166D01*
X151826000Y-98490224D01*
X151826000Y-98320000D01*
X151787483Y-98126362D01*
X151677796Y-97962204D01*
X150971592Y-97256000D01*
X162628406Y-97256000D01*
X159040406Y-100844000D01*
X159040406Y-100844000D01*
G37*
X159040406Y-100844000D02*
X157644600Y-100844000D01*
X157644600Y-100022250D01*
X157549350Y-99927000D01*
X156527000Y-99927000D01*
X156527000Y-99947000D01*
X156273000Y-99947000D01*
X156273000Y-99927000D01*
X155250650Y-99927000D01*
X155155400Y-100022250D01*
X155155400Y-100844000D01*
X155000000Y-100844000D01*
X154806362Y-100882517D01*
X154642204Y-100992204D01*
X154165439Y-101468969D01*
X154065135Y-101468882D01*
X153814748Y-101572339D01*
X153623013Y-101763741D01*
X153519118Y-102013946D01*
X153518882Y-102284865D01*
X153563975Y-102394000D01*
X151621592Y-102394000D01*
X151677796Y-102337796D01*
X151787483Y-102173638D01*
X151826000Y-101980000D01*
X151826000Y-101109776D01*
X152200065Y-100859834D01*
X152469860Y-100456057D01*
X152564600Y-99979769D01*
X152564600Y-99620231D01*
X152615400Y-99620231D01*
X152615400Y-99979769D01*
X152710140Y-100456057D01*
X152979935Y-100859834D01*
X153383712Y-101129629D01*
X153860000Y-101224369D01*
X154336288Y-101129629D01*
X154740065Y-100859834D01*
X155009860Y-100456057D01*
X155104600Y-99979769D01*
X155104600Y-99620231D01*
X155009860Y-99143943D01*
X154740065Y-98740166D01*
X154692247Y-98708215D01*
X155155400Y-98708215D01*
X155155400Y-99577750D01*
X155250650Y-99673000D01*
X156273000Y-99673000D01*
X156273000Y-98498250D01*
X156527000Y-98498250D01*
X156527000Y-99673000D01*
X157549350Y-99673000D01*
X157644600Y-99577750D01*
X157644600Y-98708215D01*
X157586596Y-98568181D01*
X157479420Y-98461004D01*
X157339386Y-98403000D01*
X156622250Y-98403000D01*
X156527000Y-98498250D01*
X156273000Y-98498250D01*
X156177750Y-98403000D01*
X155460614Y-98403000D01*
X155320580Y-98461004D01*
X155213404Y-98568181D01*
X155155400Y-98708215D01*
X154692247Y-98708215D01*
X154336288Y-98470371D01*
X153860000Y-98375631D01*
X153383712Y-98470371D01*
X152979935Y-98740166D01*
X152710140Y-99143943D01*
X152615400Y-99620231D01*
X152564600Y-99620231D01*
X152469860Y-99143943D01*
X152200065Y-98740166D01*
X151826000Y-98490224D01*
X151826000Y-98320000D01*
X151787483Y-98126362D01*
X151677796Y-97962204D01*
X150971592Y-97256000D01*
X162628406Y-97256000D01*
X159040406Y-100844000D01*
G36*
X167737000Y-97892592D02*
X167737000Y-98663000D01*
X167757000Y-98663000D01*
X167757000Y-98917000D01*
X167737000Y-98917000D01*
X167737000Y-99700750D01*
X167832250Y-99796000D01*
X168134000Y-99796000D01*
X168134000Y-99960408D01*
X167992204Y-100102204D01*
X167946379Y-100170787D01*
X167617796Y-99842204D01*
X167453638Y-99732517D01*
X167451632Y-99732118D01*
X167483000Y-99700750D01*
X167483000Y-98917000D01*
X166824250Y-98917000D01*
X166729000Y-99012250D01*
X166729000Y-99490785D01*
X166787004Y-99630819D01*
X166850184Y-99694000D01*
X166769592Y-99694000D01*
X165164807Y-98089215D01*
X166729000Y-98089215D01*
X166729000Y-98567750D01*
X166824250Y-98663000D01*
X167483000Y-98663000D01*
X167483000Y-97879250D01*
X167387750Y-97784000D01*
X167034214Y-97784000D01*
X166894180Y-97842004D01*
X166787004Y-97949181D01*
X166729000Y-98089215D01*
X165164807Y-98089215D01*
X165037796Y-97962204D01*
X164873638Y-97852517D01*
X164680000Y-97814000D01*
X163501590Y-97814000D01*
X163559590Y-97756000D01*
X167600408Y-97756000D01*
X167737000Y-97892592D01*
X167737000Y-97892592D01*
G37*
X167737000Y-97892592D02*
X167737000Y-98663000D01*
X167757000Y-98663000D01*
X167757000Y-98917000D01*
X167737000Y-98917000D01*
X167737000Y-99700750D01*
X167832250Y-99796000D01*
X168134000Y-99796000D01*
X168134000Y-99960408D01*
X167992204Y-100102204D01*
X167946379Y-100170787D01*
X167617796Y-99842204D01*
X167453638Y-99732517D01*
X167451632Y-99732118D01*
X167483000Y-99700750D01*
X167483000Y-98917000D01*
X166824250Y-98917000D01*
X166729000Y-99012250D01*
X166729000Y-99490785D01*
X166787004Y-99630819D01*
X166850184Y-99694000D01*
X166769592Y-99694000D01*
X165164807Y-98089215D01*
X166729000Y-98089215D01*
X166729000Y-98567750D01*
X166824250Y-98663000D01*
X167483000Y-98663000D01*
X167483000Y-97879250D01*
X167387750Y-97784000D01*
X167034214Y-97784000D01*
X166894180Y-97842004D01*
X166787004Y-97949181D01*
X166729000Y-98089215D01*
X165164807Y-98089215D01*
X165037796Y-97962204D01*
X164873638Y-97852517D01*
X164680000Y-97814000D01*
X163501590Y-97814000D01*
X163559590Y-97756000D01*
X167600408Y-97756000D01*
X167737000Y-97892592D01*
G36*
X177299000Y-99439840D02*
X177118847Y-99439840D01*
X177109251Y-99437397D01*
X177088562Y-99436301D01*
X177088098Y-99436368D01*
X177087646Y-99436254D01*
X177068484Y-99435285D01*
X177047213Y-99438409D01*
X177025909Y-99435506D01*
X176999443Y-99437120D01*
X176992297Y-99439000D01*
X175268464Y-99439000D01*
X175268464Y-99230000D01*
X175241897Y-99088810D01*
X175170680Y-98978135D01*
X175202996Y-98945820D01*
X175261000Y-98805786D01*
X175261000Y-98652250D01*
X175165750Y-98557000D01*
X174755000Y-98557000D01*
X174755000Y-98577000D01*
X174505000Y-98577000D01*
X174505000Y-98557000D01*
X174094250Y-98557000D01*
X174035000Y-98616250D01*
X173975750Y-98557000D01*
X173565000Y-98557000D01*
X173565000Y-98577000D01*
X173315000Y-98577000D01*
X173315000Y-98557000D01*
X172904250Y-98557000D01*
X172809000Y-98652250D01*
X172809000Y-98805786D01*
X172867004Y-98945820D01*
X172900298Y-98979114D01*
X172832141Y-99078866D01*
X172801536Y-99230000D01*
X172801536Y-99449500D01*
X170791001Y-99449500D01*
X170791118Y-99315135D01*
X170687661Y-99064748D01*
X170498464Y-98875222D01*
X170498464Y-98165000D01*
X170477618Y-98054214D01*
X172809000Y-98054214D01*
X172809000Y-98207750D01*
X172904250Y-98303000D01*
X173315000Y-98303000D01*
X173315000Y-97844250D01*
X173565000Y-97844250D01*
X173565000Y-98303000D01*
X173975750Y-98303000D01*
X174035000Y-98243750D01*
X174094250Y-98303000D01*
X174505000Y-98303000D01*
X174505000Y-97844250D01*
X174755000Y-97844250D01*
X174755000Y-98303000D01*
X175165750Y-98303000D01*
X175261000Y-98207750D01*
X175261000Y-98054214D01*
X175202996Y-97914180D01*
X175095819Y-97807004D01*
X174955785Y-97749000D01*
X174850250Y-97749000D01*
X174755000Y-97844250D01*
X174505000Y-97844250D01*
X174409750Y-97749000D01*
X174304215Y-97749000D01*
X174164181Y-97807004D01*
X174057004Y-97914180D01*
X174035000Y-97967302D01*
X174012996Y-97914180D01*
X173905819Y-97807004D01*
X173765785Y-97749000D01*
X173660250Y-97749000D01*
X173565000Y-97844250D01*
X173315000Y-97844250D01*
X173219750Y-97749000D01*
X173114215Y-97749000D01*
X172974181Y-97807004D01*
X172867004Y-97914180D01*
X172809000Y-98054214D01*
X170477618Y-98054214D01*
X170471897Y-98023810D01*
X170388454Y-97894135D01*
X170261134Y-97807141D01*
X170110000Y-97776536D01*
X169962114Y-97776536D01*
X169907661Y-97644748D01*
X169716259Y-97453013D01*
X169466054Y-97349118D01*
X169195135Y-97348882D01*
X168944748Y-97452339D01*
X168836245Y-97560653D01*
X168531592Y-97256000D01*
X177299000Y-97256000D01*
X177299000Y-99439840D01*
X177299000Y-99439840D01*
G37*
X177299000Y-99439840D02*
X177118847Y-99439840D01*
X177109251Y-99437397D01*
X177088562Y-99436301D01*
X177088098Y-99436368D01*
X177087646Y-99436254D01*
X177068484Y-99435285D01*
X177047213Y-99438409D01*
X177025909Y-99435506D01*
X176999443Y-99437120D01*
X176992297Y-99439000D01*
X175268464Y-99439000D01*
X175268464Y-99230000D01*
X175241897Y-99088810D01*
X175170680Y-98978135D01*
X175202996Y-98945820D01*
X175261000Y-98805786D01*
X175261000Y-98652250D01*
X175165750Y-98557000D01*
X174755000Y-98557000D01*
X174755000Y-98577000D01*
X174505000Y-98577000D01*
X174505000Y-98557000D01*
X174094250Y-98557000D01*
X174035000Y-98616250D01*
X173975750Y-98557000D01*
X173565000Y-98557000D01*
X173565000Y-98577000D01*
X173315000Y-98577000D01*
X173315000Y-98557000D01*
X172904250Y-98557000D01*
X172809000Y-98652250D01*
X172809000Y-98805786D01*
X172867004Y-98945820D01*
X172900298Y-98979114D01*
X172832141Y-99078866D01*
X172801536Y-99230000D01*
X172801536Y-99449500D01*
X170791001Y-99449500D01*
X170791118Y-99315135D01*
X170687661Y-99064748D01*
X170498464Y-98875222D01*
X170498464Y-98165000D01*
X170477618Y-98054214D01*
X172809000Y-98054214D01*
X172809000Y-98207750D01*
X172904250Y-98303000D01*
X173315000Y-98303000D01*
X173315000Y-97844250D01*
X173565000Y-97844250D01*
X173565000Y-98303000D01*
X173975750Y-98303000D01*
X174035000Y-98243750D01*
X174094250Y-98303000D01*
X174505000Y-98303000D01*
X174505000Y-97844250D01*
X174755000Y-97844250D01*
X174755000Y-98303000D01*
X175165750Y-98303000D01*
X175261000Y-98207750D01*
X175261000Y-98054214D01*
X175202996Y-97914180D01*
X175095819Y-97807004D01*
X174955785Y-97749000D01*
X174850250Y-97749000D01*
X174755000Y-97844250D01*
X174505000Y-97844250D01*
X174409750Y-97749000D01*
X174304215Y-97749000D01*
X174164181Y-97807004D01*
X174057004Y-97914180D01*
X174035000Y-97967302D01*
X174012996Y-97914180D01*
X173905819Y-97807004D01*
X173765785Y-97749000D01*
X173660250Y-97749000D01*
X173565000Y-97844250D01*
X173315000Y-97844250D01*
X173219750Y-97749000D01*
X173114215Y-97749000D01*
X172974181Y-97807004D01*
X172867004Y-97914180D01*
X172809000Y-98054214D01*
X170477618Y-98054214D01*
X170471897Y-98023810D01*
X170388454Y-97894135D01*
X170261134Y-97807141D01*
X170110000Y-97776536D01*
X169962114Y-97776536D01*
X169907661Y-97644748D01*
X169716259Y-97453013D01*
X169466054Y-97349118D01*
X169195135Y-97348882D01*
X168944748Y-97452339D01*
X168836245Y-97560653D01*
X168531592Y-97256000D01*
X177299000Y-97256000D01*
X177299000Y-99439840D01*
M02*
