M48
;DRILL file {KiCad (2015-11-24 BZR 6329)-product} date Thu 30 Jun 2016 09:23:39 AM EDT
;FORMAT={-:-/ absolute / inch / decimal}
FMAT,2
INCH,TZ
T1C0.016
T2C0.030
T3C0.039
T4C0.040
T5C0.043
T6C0.083
T7C0.098
%
G90
G05
M72
T1
X5.1102Y-3.997
X5.1122Y-3.9508
X5.6772Y-4.1417
X5.9409Y-4.2362
X5.9705Y-4.123
X6.0669Y-4.1614
X6.0709Y-4.0217
X6.0984Y-4.0787
X6.1122Y-4.0256
X6.2224Y-4.1043
X6.2343Y-4.3445
X6.25Y-4.3051
X6.31Y-4.39
X6.312Y-4.1093
X6.35Y-4.2
X6.35Y-4.31
X6.361Y-4.024
X6.37Y-4.41
X6.4094Y-4.0768
X6.4193Y-4.4055
X6.42Y-4.18
X6.4295Y-4.2805
X6.44Y-4.01
X6.44Y-4.34
X6.4518Y-3.9183
X6.48Y-4.
X6.4909Y-3.9177
X6.5Y-4.24
X6.54Y-4.24
X6.56Y-4.21
X6.5657Y-3.8937
X6.58Y-4.24
X6.6038Y-4.1206
X6.6535Y-4.2441
X6.6665Y-3.8594
X6.6718Y-4.0527
X6.6972Y-3.9154
X6.7303Y-4.2087
X6.7598Y-4.185
X6.7717Y-4.0122
X6.7717Y-4.065
X6.78Y-4.35
X6.7874Y-4.252
X6.7923Y-4.2165
X6.7953Y-4.1417
X6.7972Y-4.185
X6.8059Y-4.0087
X6.811Y-4.4213
X6.8602Y-3.8602
X6.874Y-4.2352
X6.9075Y-4.3622
X6.9075Y-4.4321
X6.9154Y-4.0285
X6.9252Y-4.3159
X6.9504Y-4.252
T2
X5.2646Y-4.4075
X5.4646Y-4.4075
T3
X4.9882Y-4.0335
X4.9882Y-4.1319
X4.9882Y-4.211
X4.9882Y-4.3091
T4
X5.5325Y-4.0998
X5.5325Y-4.1998
X5.8465Y-4.3228
X5.8465Y-4.4228
X5.9465Y-4.3228
X5.9465Y-4.4228
X5.9575Y-3.9291
X6.0465Y-4.3228
X6.0465Y-4.4228
X6.0575Y-3.9291
X6.1465Y-4.3228
X6.1465Y-4.4228
X6.1575Y-3.9291
T5
X4.9055Y-4.0827
X4.9055Y-4.2598
T6
X5.0197Y-3.878
X5.0197Y-4.4685
X7.0472Y-3.878
X7.0472Y-4.4685
T7
X4.9055Y-3.9409
X4.9055Y-4.4016
T0
M30
