G04 #@! TF.FileFunction,Copper,L2,Bot,Signal*
%FSLAX46Y46*%
G04 Gerber Fmt 4.6, Leading zero omitted, Abs format (unit mm)*
G04 Created by KiCad (PCBNEW (2015-11-24 BZR 6329)-product) date Fri 06 May 2016 02:50:07 AM EDT*
%MOMM*%
G01*
G04 APERTURE LIST*
%ADD10C,0.100000*%
%ADD11C,1.501140*%
%ADD12C,2.999740*%
%ADD13C,1.200000*%
%ADD14R,2.032000X2.032000*%
%ADD15O,2.032000X2.032000*%
%ADD16R,0.800000X1.500000*%
%ADD17R,1.400000X1.900000*%
%ADD18R,1.800000X1.400000*%
%ADD19R,1.727200X1.727200*%
%ADD20O,1.727200X1.727200*%
%ADD21R,1.727200X2.032000*%
%ADD22O,1.727200X2.032000*%
%ADD23C,0.600000*%
%ADD24C,0.250000*%
%ADD25C,0.254000*%
G04 APERTURE END LIST*
D10*
D11*
X126700000Y-102450000D03*
X126700000Y-104950000D03*
X126700000Y-106960000D03*
X126700000Y-109450000D03*
D12*
X124600000Y-100100000D03*
X124600000Y-111800000D03*
D13*
X124600000Y-103700000D03*
X124600000Y-108200000D03*
D14*
X142600000Y-112200000D03*
D15*
X140060000Y-112200000D03*
D16*
X165600000Y-109250000D03*
D17*
X159850000Y-113300000D03*
X173000000Y-112300000D03*
D18*
X165700000Y-99150000D03*
X171400000Y-99150000D03*
D16*
X164500000Y-109350000D03*
X166700000Y-109350000D03*
X167800000Y-109550000D03*
X168900000Y-109350000D03*
X170000000Y-109550000D03*
X171100000Y-109350000D03*
X172200000Y-109350000D03*
D19*
X149200000Y-109800000D03*
D20*
X149200000Y-112340000D03*
X151740000Y-109800000D03*
X151740000Y-112340000D03*
X154280000Y-109800000D03*
X154280000Y-112340000D03*
X156820000Y-109800000D03*
X156820000Y-112340000D03*
D21*
X156400000Y-99800000D03*
D22*
X153860000Y-99800000D03*
X151320000Y-99800000D03*
D23*
X144200000Y-105200000D03*
X176600000Y-108400000D03*
X175650000Y-102325000D03*
X167737500Y-104662500D03*
X160325000Y-104375000D03*
X158050000Y-104250000D03*
X169462500Y-102937500D03*
X168450000Y-111775000D03*
X173000000Y-112300000D03*
X163575000Y-111975000D03*
X166875000Y-112575000D03*
X174025000Y-98325000D03*
X169525000Y-98000000D03*
X174600000Y-107575000D03*
X175900000Y-109625000D03*
X161200000Y-112800000D03*
X159625000Y-109700000D03*
X172000000Y-103250000D03*
X170600000Y-101300000D03*
X167500000Y-99450000D03*
X169200000Y-100950000D03*
X172950000Y-110750000D03*
X165500000Y-106250000D03*
X172650000Y-106300000D03*
X142400000Y-100300000D03*
X172600000Y-105200000D03*
X140000000Y-99700000D03*
X162800000Y-103550000D03*
X163925000Y-106200000D03*
X165000000Y-101900000D03*
X164100000Y-101875000D03*
X171800000Y-106350000D03*
X171200000Y-108200000D03*
X172525000Y-107100000D03*
X175450000Y-112575000D03*
X175450000Y-110800000D03*
X170950000Y-106900000D03*
X163875000Y-99525000D03*
X154900000Y-103600000D03*
X150900000Y-107600000D03*
X151650000Y-104725000D03*
X154200000Y-102150000D03*
X155250000Y-102250000D03*
X154100000Y-105700000D03*
X163925000Y-105275000D03*
X169100000Y-112525000D03*
X169850000Y-111150000D03*
X169000000Y-107800000D03*
X172400000Y-108000000D03*
X162000000Y-102000000D03*
X171400000Y-101600000D03*
D24*
X126850000Y-109600000D02*
X128200000Y-109600000D01*
X144200000Y-105200000D02*
X132600000Y-105200000D01*
X132600000Y-105200000D02*
X128200000Y-109600000D01*
X126850000Y-109600000D02*
X126700000Y-109450000D01*
X167737500Y-104662500D02*
X167462500Y-104662500D01*
X167750000Y-104675000D02*
X167737500Y-104662500D01*
X161425000Y-103275000D02*
X160325000Y-104375000D01*
X161900000Y-103275000D02*
X161425000Y-103275000D01*
X162500000Y-102675000D02*
X161900000Y-103275000D01*
X163225000Y-102675000D02*
X162500000Y-102675000D01*
X163325000Y-102775000D02*
X163225000Y-102675000D01*
X165575000Y-102775000D02*
X163325000Y-102775000D01*
X167462500Y-104662500D02*
X165575000Y-102775000D01*
X160325000Y-104375000D02*
X160200000Y-104250000D01*
X160200000Y-104250000D02*
X158050000Y-104250000D01*
X169462500Y-102937500D02*
X169475000Y-102950000D01*
X168450000Y-111525000D02*
X168450000Y-111775000D01*
X168450000Y-110875000D02*
X168450000Y-111775000D01*
X168825000Y-110525000D02*
X168450000Y-110875000D01*
X169500000Y-110525000D02*
X168825000Y-110525000D01*
X170000000Y-110075000D02*
X169500000Y-110525000D01*
X170000000Y-109550000D02*
X170000000Y-110075000D01*
X170000000Y-109550000D02*
X170000000Y-110050000D01*
X166875000Y-112575000D02*
X166875000Y-109525000D01*
X166875000Y-109525000D02*
X166700000Y-109350000D01*
X169525000Y-98000000D02*
X169850000Y-97675000D01*
X173375000Y-97675000D02*
X174025000Y-98325000D01*
X173300000Y-97675000D02*
X173375000Y-97675000D01*
X169850000Y-97675000D02*
X173300000Y-97675000D01*
X169525000Y-98000000D02*
X169500000Y-98000000D01*
X174600000Y-107575000D02*
X174600000Y-108325000D01*
X174600000Y-108325000D02*
X175900000Y-109625000D01*
X159850000Y-113300000D02*
X160700000Y-113300000D01*
X160700000Y-113300000D02*
X161200000Y-112800000D01*
X156820000Y-109800000D02*
X159525000Y-109800000D01*
X159525000Y-109800000D02*
X159625000Y-109700000D01*
X170600000Y-101300000D02*
X170600000Y-101200000D01*
X172250000Y-103000000D02*
X172000000Y-103250000D01*
X172250000Y-100950000D02*
X172250000Y-103000000D01*
X171900000Y-100600000D02*
X172250000Y-100950000D01*
X171200000Y-100600000D02*
X171900000Y-100600000D01*
X170600000Y-101200000D02*
X171200000Y-100600000D01*
X170250000Y-100950000D02*
X169200000Y-100950000D01*
X170600000Y-101300000D02*
X170250000Y-100950000D01*
X168700000Y-100650000D02*
X167500000Y-99450000D01*
X168900000Y-100650000D02*
X168700000Y-100650000D01*
X169200000Y-100950000D02*
X168900000Y-100650000D01*
X167800000Y-112300000D02*
X167800000Y-109550000D01*
X168700000Y-113200000D02*
X167800000Y-112300000D01*
X169450000Y-113200000D02*
X168700000Y-113200000D01*
X171700000Y-110950000D02*
X169450000Y-113200000D01*
X172750000Y-110950000D02*
X171700000Y-110950000D01*
X172950000Y-110750000D02*
X172750000Y-110950000D01*
X167800000Y-109550000D02*
X167800000Y-108300000D01*
X166050000Y-106800000D02*
X165500000Y-106250000D01*
X166300000Y-106800000D02*
X166050000Y-106800000D01*
X167800000Y-108300000D02*
X166300000Y-106800000D01*
X152100000Y-106400000D02*
X152175000Y-106400000D01*
X172650000Y-106300000D02*
X173350000Y-106975000D01*
X174200000Y-109900000D02*
X174200000Y-113400000D01*
X173350000Y-109050000D02*
X174200000Y-109900000D01*
X173350000Y-106975000D02*
X173350000Y-109050000D01*
X142400000Y-100300000D02*
X148500000Y-106400000D01*
X155225000Y-106400000D02*
X161800000Y-106400000D01*
X148500000Y-106400000D02*
X152100000Y-106400000D01*
X161800000Y-106400000D02*
X163600000Y-108200000D01*
X163600000Y-108200000D02*
X163600000Y-110300000D01*
X163600000Y-110300000D02*
X167100000Y-113800000D01*
X167100000Y-113800000D02*
X173800000Y-113800000D01*
X173800000Y-113800000D02*
X174200000Y-113400000D01*
X155000000Y-106400000D02*
X155225000Y-106400000D01*
X154325000Y-107075000D02*
X155000000Y-106400000D01*
X152850000Y-107075000D02*
X154325000Y-107075000D01*
X152175000Y-106400000D02*
X152850000Y-107075000D01*
X155200000Y-106900000D02*
X154525000Y-107575000D01*
X161500000Y-106900000D02*
X155200000Y-106900000D01*
X163081801Y-108481801D02*
X161500000Y-106900000D01*
X163081801Y-110481801D02*
X163081801Y-108481801D01*
X166900000Y-114300000D02*
X163081801Y-110481801D01*
X174000000Y-114300000D02*
X166900000Y-114300000D01*
X174700000Y-113600000D02*
X174000000Y-114300000D01*
X173900000Y-106525000D02*
X173900000Y-108775000D01*
X173900000Y-108775000D02*
X174700000Y-109575000D01*
X174700000Y-109575000D02*
X174700000Y-113600000D01*
X172600000Y-105200000D02*
X173900000Y-106525000D01*
X152650000Y-107575000D02*
X151975000Y-106900000D01*
X154525000Y-107575000D02*
X152650000Y-107575000D01*
X152025000Y-106900000D02*
X151975000Y-106900000D01*
X151975000Y-106900000D02*
X148100000Y-106900000D01*
X148100000Y-106900000D02*
X140900000Y-99700000D01*
X140900000Y-99700000D02*
X140000000Y-99700000D01*
X164600000Y-106700000D02*
X164600000Y-103550000D01*
X165600000Y-107700000D02*
X164600000Y-106700000D01*
X165600000Y-107850000D02*
X165600000Y-107700000D01*
X164600000Y-103550000D02*
X162800000Y-103550000D01*
X162800000Y-103600000D02*
X162800000Y-103550000D01*
X165600000Y-107800000D02*
X165600000Y-107850000D01*
X165600000Y-107850000D02*
X165600000Y-109250000D01*
X163925000Y-106200000D02*
X163900000Y-107800000D01*
X164500000Y-108400000D02*
X164500000Y-109350000D01*
X163900000Y-107800000D02*
X164500000Y-108400000D01*
X163925000Y-106200000D02*
X163925000Y-106200000D01*
X167800000Y-107600000D02*
X167800000Y-106875000D01*
X167800000Y-102800000D02*
X166900000Y-101900000D01*
X166900000Y-101900000D02*
X165000000Y-101900000D01*
X167800000Y-107600000D02*
X168800000Y-108600000D01*
X167800000Y-103400000D02*
X167800000Y-102800000D01*
X168925000Y-104525000D02*
X167800000Y-103400000D01*
X168925000Y-105750000D02*
X168925000Y-104525000D01*
X167800000Y-106875000D02*
X168925000Y-105750000D01*
X168900000Y-109350000D02*
X168800000Y-109250000D01*
X168800000Y-109250000D02*
X168800000Y-108800000D01*
X168800000Y-108800000D02*
X168800000Y-108600000D01*
X171100000Y-109350000D02*
X171100000Y-108300000D01*
X164400000Y-101200000D02*
X164100000Y-101875000D01*
X167400000Y-101200000D02*
X164400000Y-101200000D01*
X168400000Y-102200000D02*
X167400000Y-101200000D01*
X168400000Y-103000000D02*
X168400000Y-102200000D01*
X171800000Y-106350000D02*
X168400000Y-103000000D01*
X171100000Y-108300000D02*
X171200000Y-108200000D01*
X175450000Y-112450000D02*
X175450000Y-112575000D01*
X175450000Y-110800000D02*
X175450000Y-112450000D01*
X170950000Y-106900000D02*
X171100000Y-107050000D01*
X171100000Y-107050000D02*
X172500000Y-107050000D01*
X160525000Y-99525000D02*
X163875000Y-99525000D01*
X157900000Y-102150000D02*
X160525000Y-99525000D01*
X156350000Y-102150000D02*
X157900000Y-102150000D01*
X154900000Y-103600000D02*
X156350000Y-102150000D01*
X151740000Y-113510000D02*
X151740000Y-112340000D01*
X151100000Y-114150000D02*
X151740000Y-113510000D01*
X148350000Y-114150000D02*
X151100000Y-114150000D01*
X147800000Y-113600000D02*
X148350000Y-114150000D01*
X147800000Y-108450000D02*
X147800000Y-113600000D01*
X148350000Y-107900000D02*
X147800000Y-108450000D01*
X150600000Y-107900000D02*
X148350000Y-107900000D01*
X150900000Y-107600000D02*
X150600000Y-107900000D01*
X151650000Y-104700000D02*
X151650000Y-104725000D01*
X154200000Y-102150000D02*
X151650000Y-104700000D01*
X155250000Y-102250000D02*
X154100000Y-103400000D01*
X154100000Y-103400000D02*
X154100000Y-105700000D01*
X153860000Y-99800000D02*
X153860000Y-100915000D01*
X163275000Y-105925000D02*
X163925000Y-105275000D01*
X154775000Y-105925000D02*
X163275000Y-105925000D01*
X154200000Y-106500000D02*
X154775000Y-105925000D01*
X152975000Y-106500000D02*
X154200000Y-106500000D01*
X152375000Y-105900000D02*
X152975000Y-106500000D01*
X151675000Y-105900000D02*
X152375000Y-105900000D01*
X150775000Y-105000000D02*
X151675000Y-105900000D01*
X150775000Y-104000000D02*
X150775000Y-105000000D01*
X153860000Y-100915000D02*
X150775000Y-104000000D01*
X169875000Y-111700000D02*
X169100000Y-112525000D01*
X169875000Y-111175000D02*
X169875000Y-111700000D01*
X169850000Y-111150000D02*
X169875000Y-111175000D01*
X169400000Y-108200000D02*
X170250000Y-108200000D01*
X170250000Y-108200000D02*
X170950000Y-107550000D01*
X170950000Y-107550000D02*
X171900000Y-107550000D01*
X171900000Y-107550000D02*
X172400000Y-108000000D01*
X169000000Y-107800000D02*
X169400000Y-108200000D01*
X171400000Y-101600000D02*
X170725000Y-102275000D01*
X163850000Y-100200000D02*
X162000000Y-102000000D01*
X167250000Y-100200000D02*
X163850000Y-100200000D01*
X167700000Y-100600000D02*
X167250000Y-100200000D01*
X167975000Y-100875000D02*
X167700000Y-100600000D01*
X168000000Y-100875000D02*
X167975000Y-100875000D01*
X169350000Y-102225000D02*
X168000000Y-100875000D01*
X169350000Y-102275000D02*
X169350000Y-102225000D01*
X170725000Y-102275000D02*
X169350000Y-102275000D01*
X171400000Y-101550000D02*
X171400000Y-101600000D01*
X171400000Y-101600000D02*
X171400000Y-101400000D01*
D25*
G36*
X176973000Y-114744000D02*
X174228783Y-114744000D01*
X174357796Y-114657796D01*
X175057796Y-113957796D01*
X175167483Y-113793638D01*
X175206000Y-113600000D01*
X175206000Y-113211059D01*
X175313946Y-113255882D01*
X175584865Y-113256118D01*
X175835252Y-113152661D01*
X176026987Y-112961259D01*
X176130882Y-112711054D01*
X176131118Y-112440135D01*
X176027661Y-112189748D01*
X175956000Y-112117962D01*
X175956000Y-111257123D01*
X176026987Y-111186259D01*
X176130882Y-110936054D01*
X176131118Y-110665135D01*
X176027661Y-110414748D01*
X175836259Y-110223013D01*
X175586054Y-110119118D01*
X175315135Y-110118882D01*
X175206000Y-110163975D01*
X175206000Y-109575000D01*
X175167483Y-109381362D01*
X175057796Y-109217204D01*
X174406000Y-108565408D01*
X174406000Y-106525000D01*
X174387204Y-106430508D01*
X174369306Y-106335823D01*
X174367962Y-106333769D01*
X174367483Y-106331362D01*
X174313957Y-106251255D01*
X174261187Y-106170627D01*
X173281025Y-105171617D01*
X173281118Y-105065135D01*
X173177661Y-104814748D01*
X172986259Y-104623013D01*
X172736054Y-104519118D01*
X172465135Y-104518882D01*
X172214748Y-104622339D01*
X172023013Y-104813741D01*
X171919118Y-105063946D01*
X171918882Y-105334865D01*
X172022339Y-105585252D01*
X172211876Y-105775119D01*
X172200098Y-105786876D01*
X172186259Y-105773013D01*
X171936054Y-105669118D01*
X171829813Y-105669025D01*
X168906000Y-102788209D01*
X168906000Y-102503783D01*
X168992204Y-102632796D01*
X169156362Y-102742483D01*
X169350000Y-102781000D01*
X170725000Y-102781000D01*
X170918638Y-102742483D01*
X171082796Y-102632796D01*
X171434561Y-102281031D01*
X171534865Y-102281118D01*
X171744000Y-102194706D01*
X171744000Y-102618934D01*
X171614748Y-102672339D01*
X171423013Y-102863741D01*
X171319118Y-103113946D01*
X171318882Y-103384865D01*
X171422339Y-103635252D01*
X171613741Y-103826987D01*
X171863946Y-103930882D01*
X172134865Y-103931118D01*
X172385252Y-103827661D01*
X172576987Y-103636259D01*
X172680882Y-103386054D01*
X172681002Y-103248236D01*
X172717483Y-103193638D01*
X172756000Y-103000000D01*
X172756000Y-100950000D01*
X172717483Y-100756362D01*
X172607796Y-100592204D01*
X172257796Y-100242204D01*
X172252199Y-100238464D01*
X172300000Y-100238464D01*
X172441190Y-100211897D01*
X172570865Y-100128454D01*
X172657859Y-100001134D01*
X172688464Y-99850000D01*
X172688464Y-98450000D01*
X172661897Y-98308810D01*
X172578454Y-98179135D01*
X172451134Y-98092141D01*
X172300000Y-98061536D01*
X170500000Y-98061536D01*
X170358810Y-98088103D01*
X170229135Y-98171546D01*
X170142141Y-98298866D01*
X170111536Y-98450000D01*
X170111536Y-99850000D01*
X170138103Y-99991190D01*
X170221546Y-100120865D01*
X170348866Y-100207859D01*
X170500000Y-100238464D01*
X170847801Y-100238464D01*
X170842204Y-100242204D01*
X170538504Y-100545904D01*
X170443638Y-100482517D01*
X170250000Y-100444000D01*
X169657123Y-100444000D01*
X169586259Y-100373013D01*
X169336054Y-100269118D01*
X169223098Y-100269020D01*
X169093638Y-100182517D01*
X168911974Y-100146382D01*
X168181031Y-99415439D01*
X168181118Y-99315135D01*
X168077661Y-99064748D01*
X167886259Y-98873013D01*
X167636054Y-98769118D01*
X167365135Y-98768882D01*
X167114748Y-98872339D01*
X166988464Y-98998404D01*
X166988464Y-98450000D01*
X166961897Y-98308810D01*
X166878454Y-98179135D01*
X166751134Y-98092141D01*
X166600000Y-98061536D01*
X164800000Y-98061536D01*
X164658810Y-98088103D01*
X164529135Y-98171546D01*
X164442141Y-98298866D01*
X164411536Y-98450000D01*
X164411536Y-99098551D01*
X164261259Y-98948013D01*
X164011054Y-98844118D01*
X163740135Y-98843882D01*
X163489748Y-98947339D01*
X163417962Y-99019000D01*
X160525000Y-99019000D01*
X160331362Y-99057517D01*
X160209802Y-99138741D01*
X160167204Y-99167204D01*
X157690408Y-101644000D01*
X156350000Y-101644000D01*
X156156362Y-101682517D01*
X156044117Y-101757517D01*
X155992204Y-101792204D01*
X155854560Y-101929848D01*
X155827661Y-101864748D01*
X155636259Y-101673013D01*
X155386054Y-101569118D01*
X155115135Y-101568882D01*
X154864748Y-101672339D01*
X154774924Y-101762007D01*
X154586259Y-101573013D01*
X154336054Y-101469118D01*
X154065135Y-101468882D01*
X153991133Y-101499459D01*
X154217796Y-101272796D01*
X154309958Y-101134866D01*
X154336288Y-101129629D01*
X154740065Y-100859834D01*
X155009860Y-100456057D01*
X155096149Y-100022250D01*
X155155400Y-100022250D01*
X155155400Y-100891785D01*
X155213404Y-101031819D01*
X155320580Y-101138996D01*
X155460614Y-101197000D01*
X156177750Y-101197000D01*
X156273000Y-101101750D01*
X156273000Y-99927000D01*
X156527000Y-99927000D01*
X156527000Y-101101750D01*
X156622250Y-101197000D01*
X157339386Y-101197000D01*
X157479420Y-101138996D01*
X157586596Y-101031819D01*
X157644600Y-100891785D01*
X157644600Y-100022250D01*
X157549350Y-99927000D01*
X156527000Y-99927000D01*
X156273000Y-99927000D01*
X155250650Y-99927000D01*
X155155400Y-100022250D01*
X155096149Y-100022250D01*
X155104600Y-99979769D01*
X155104600Y-99620231D01*
X155009860Y-99143943D01*
X154740065Y-98740166D01*
X154692247Y-98708215D01*
X155155400Y-98708215D01*
X155155400Y-99577750D01*
X155250650Y-99673000D01*
X156273000Y-99673000D01*
X156273000Y-98498250D01*
X156527000Y-98498250D01*
X156527000Y-99673000D01*
X157549350Y-99673000D01*
X157644600Y-99577750D01*
X157644600Y-98708215D01*
X157586596Y-98568181D01*
X157479420Y-98461004D01*
X157339386Y-98403000D01*
X156622250Y-98403000D01*
X156527000Y-98498250D01*
X156273000Y-98498250D01*
X156177750Y-98403000D01*
X155460614Y-98403000D01*
X155320580Y-98461004D01*
X155213404Y-98568181D01*
X155155400Y-98708215D01*
X154692247Y-98708215D01*
X154336288Y-98470371D01*
X153860000Y-98375631D01*
X153383712Y-98470371D01*
X152979935Y-98740166D01*
X152710140Y-99143943D01*
X152615400Y-99620231D01*
X152615400Y-99979769D01*
X152710140Y-100456057D01*
X152979935Y-100859834D01*
X153111599Y-100947809D01*
X150417204Y-103642204D01*
X150307517Y-103806362D01*
X150269000Y-104000000D01*
X150269000Y-105000000D01*
X150307517Y-105193638D01*
X150417204Y-105357796D01*
X150953408Y-105894000D01*
X148709592Y-105894000D01*
X143081031Y-100265439D01*
X143081118Y-100165135D01*
X142977661Y-99914748D01*
X142786259Y-99723013D01*
X142538735Y-99620231D01*
X150075400Y-99620231D01*
X150075400Y-99979769D01*
X150170140Y-100456057D01*
X150439935Y-100859834D01*
X150843712Y-101129629D01*
X151320000Y-101224369D01*
X151796288Y-101129629D01*
X152200065Y-100859834D01*
X152469860Y-100456057D01*
X152564600Y-99979769D01*
X152564600Y-99620231D01*
X152469860Y-99143943D01*
X152200065Y-98740166D01*
X151796288Y-98470371D01*
X151320000Y-98375631D01*
X150843712Y-98470371D01*
X150439935Y-98740166D01*
X150170140Y-99143943D01*
X150075400Y-99620231D01*
X142538735Y-99620231D01*
X142536054Y-99619118D01*
X142265135Y-99618882D01*
X142014748Y-99722339D01*
X141826176Y-99910584D01*
X141257796Y-99342204D01*
X141093638Y-99232517D01*
X140900000Y-99194000D01*
X140457123Y-99194000D01*
X140386259Y-99123013D01*
X140136054Y-99019118D01*
X139865135Y-99018882D01*
X139614748Y-99122339D01*
X139423013Y-99313741D01*
X139319118Y-99563946D01*
X139318882Y-99834865D01*
X139422339Y-100085252D01*
X139613741Y-100276987D01*
X139863946Y-100380882D01*
X140134865Y-100381118D01*
X140385252Y-100277661D01*
X140457038Y-100206000D01*
X140690408Y-100206000D01*
X147742204Y-107257796D01*
X147906362Y-107367483D01*
X148100000Y-107406000D01*
X148289672Y-107406000D01*
X148156362Y-107432517D01*
X147992204Y-107542204D01*
X147442204Y-108092204D01*
X147332517Y-108256362D01*
X147294000Y-108450000D01*
X147294000Y-113600000D01*
X147332517Y-113793638D01*
X147442204Y-113957796D01*
X147992204Y-114507796D01*
X148156362Y-114617483D01*
X148350000Y-114656000D01*
X151100000Y-114656000D01*
X151293638Y-114617483D01*
X151457796Y-114507796D01*
X152097796Y-113867796D01*
X152148305Y-113792204D01*
X152207483Y-113703638D01*
X152246000Y-113510000D01*
X152246000Y-113486299D01*
X152644448Y-113220065D01*
X152914243Y-112816288D01*
X153008983Y-112340000D01*
X153011017Y-112340000D01*
X153105757Y-112816288D01*
X153375552Y-113220065D01*
X153779329Y-113489860D01*
X154255617Y-113584600D01*
X154304383Y-113584600D01*
X154780671Y-113489860D01*
X155184448Y-113220065D01*
X155454243Y-112816288D01*
X155485506Y-112659118D01*
X155617007Y-112659118D01*
X155743695Y-112965001D01*
X156064801Y-113329310D01*
X156500880Y-113543005D01*
X156693000Y-113482865D01*
X156693000Y-112467000D01*
X156947000Y-112467000D01*
X156947000Y-113482865D01*
X157139120Y-113543005D01*
X157181473Y-113522250D01*
X158769000Y-113522250D01*
X158769000Y-114325785D01*
X158827004Y-114465819D01*
X158934180Y-114572996D01*
X159074214Y-114631000D01*
X159627750Y-114631000D01*
X159723000Y-114535750D01*
X159723000Y-113427000D01*
X159977000Y-113427000D01*
X159977000Y-114535750D01*
X160072250Y-114631000D01*
X160625786Y-114631000D01*
X160765820Y-114572996D01*
X160872996Y-114465819D01*
X160931000Y-114325785D01*
X160931000Y-113522250D01*
X160835750Y-113427000D01*
X159977000Y-113427000D01*
X159723000Y-113427000D01*
X158864250Y-113427000D01*
X158769000Y-113522250D01*
X157181473Y-113522250D01*
X157575199Y-113329310D01*
X157896305Y-112965001D01*
X158022993Y-112659118D01*
X157962312Y-112467000D01*
X156947000Y-112467000D01*
X156693000Y-112467000D01*
X155677688Y-112467000D01*
X155617007Y-112659118D01*
X155485506Y-112659118D01*
X155548983Y-112340000D01*
X155535898Y-112274215D01*
X158769000Y-112274215D01*
X158769000Y-113077750D01*
X158864250Y-113173000D01*
X159723000Y-113173000D01*
X159723000Y-112064250D01*
X159977000Y-112064250D01*
X159977000Y-113173000D01*
X160835750Y-113173000D01*
X160931000Y-113077750D01*
X160931000Y-112274215D01*
X160872996Y-112134181D01*
X160765820Y-112027004D01*
X160625786Y-111969000D01*
X160072250Y-111969000D01*
X159977000Y-112064250D01*
X159723000Y-112064250D01*
X159627750Y-111969000D01*
X159074214Y-111969000D01*
X158934180Y-112027004D01*
X158827004Y-112134181D01*
X158769000Y-112274215D01*
X155535898Y-112274215D01*
X155485507Y-112020882D01*
X155617007Y-112020882D01*
X155677688Y-112213000D01*
X156693000Y-112213000D01*
X156693000Y-111197135D01*
X156947000Y-111197135D01*
X156947000Y-112213000D01*
X157962312Y-112213000D01*
X158022993Y-112020882D01*
X157896305Y-111714999D01*
X157575199Y-111350690D01*
X157139120Y-111136995D01*
X156947000Y-111197135D01*
X156693000Y-111197135D01*
X156500880Y-111136995D01*
X156064801Y-111350690D01*
X155743695Y-111714999D01*
X155617007Y-112020882D01*
X155485507Y-112020882D01*
X155454243Y-111863712D01*
X155184448Y-111459935D01*
X154780671Y-111190140D01*
X154304383Y-111095400D01*
X154255617Y-111095400D01*
X153779329Y-111190140D01*
X153375552Y-111459935D01*
X153105757Y-111863712D01*
X153011017Y-112340000D01*
X153008983Y-112340000D01*
X152914243Y-111863712D01*
X152644448Y-111459935D01*
X152240671Y-111190140D01*
X151764383Y-111095400D01*
X151715617Y-111095400D01*
X151239329Y-111190140D01*
X150835552Y-111459935D01*
X150565757Y-111863712D01*
X150471017Y-112340000D01*
X150565757Y-112816288D01*
X150835552Y-113220065D01*
X151122566Y-113411842D01*
X150890408Y-113644000D01*
X148559592Y-113644000D01*
X148306000Y-113390408D01*
X148306000Y-113227046D01*
X148699329Y-113489860D01*
X149175617Y-113584600D01*
X149224383Y-113584600D01*
X149700671Y-113489860D01*
X150104448Y-113220065D01*
X150374243Y-112816288D01*
X150468983Y-112340000D01*
X150374243Y-111863712D01*
X150104448Y-111459935D01*
X149700671Y-111190140D01*
X149224383Y-111095400D01*
X149175617Y-111095400D01*
X148699329Y-111190140D01*
X148306000Y-111452954D01*
X148306000Y-111045908D01*
X148336400Y-111052064D01*
X150063600Y-111052064D01*
X150204790Y-111025497D01*
X150334465Y-110942054D01*
X150421459Y-110814734D01*
X150452064Y-110663600D01*
X150452064Y-109800000D01*
X150471017Y-109800000D01*
X150565757Y-110276288D01*
X150835552Y-110680065D01*
X151239329Y-110949860D01*
X151715617Y-111044600D01*
X151764383Y-111044600D01*
X152240671Y-110949860D01*
X152644448Y-110680065D01*
X152914243Y-110276288D01*
X153008983Y-109800000D01*
X153011017Y-109800000D01*
X153105757Y-110276288D01*
X153375552Y-110680065D01*
X153779329Y-110949860D01*
X154255617Y-111044600D01*
X154304383Y-111044600D01*
X154780671Y-110949860D01*
X155184448Y-110680065D01*
X155454243Y-110276288D01*
X155548983Y-109800000D01*
X155551017Y-109800000D01*
X155645757Y-110276288D01*
X155915552Y-110680065D01*
X156319329Y-110949860D01*
X156795617Y-111044600D01*
X156844383Y-111044600D01*
X157320671Y-110949860D01*
X157724448Y-110680065D01*
X157974390Y-110306000D01*
X159308612Y-110306000D01*
X159488946Y-110380882D01*
X159759865Y-110381118D01*
X160010252Y-110277661D01*
X160201987Y-110086259D01*
X160305882Y-109836054D01*
X160306118Y-109565135D01*
X160202661Y-109314748D01*
X160011259Y-109123013D01*
X159761054Y-109019118D01*
X159490135Y-109018882D01*
X159239748Y-109122339D01*
X159067788Y-109294000D01*
X157974390Y-109294000D01*
X157724448Y-108919935D01*
X157320671Y-108650140D01*
X156844383Y-108555400D01*
X156795617Y-108555400D01*
X156319329Y-108650140D01*
X155915552Y-108919935D01*
X155645757Y-109323712D01*
X155551017Y-109800000D01*
X155548983Y-109800000D01*
X155454243Y-109323712D01*
X155184448Y-108919935D01*
X154780671Y-108650140D01*
X154304383Y-108555400D01*
X154255617Y-108555400D01*
X153779329Y-108650140D01*
X153375552Y-108919935D01*
X153105757Y-109323712D01*
X153011017Y-109800000D01*
X153008983Y-109800000D01*
X152914243Y-109323712D01*
X152644448Y-108919935D01*
X152240671Y-108650140D01*
X151764383Y-108555400D01*
X151715617Y-108555400D01*
X151239329Y-108650140D01*
X150835552Y-108919935D01*
X150565757Y-109323712D01*
X150471017Y-109800000D01*
X150452064Y-109800000D01*
X150452064Y-108936400D01*
X150425497Y-108795210D01*
X150342054Y-108665535D01*
X150214734Y-108578541D01*
X150063600Y-108547936D01*
X148417656Y-108547936D01*
X148559592Y-108406000D01*
X150600000Y-108406000D01*
X150793638Y-108367483D01*
X150923038Y-108281021D01*
X151034865Y-108281118D01*
X151285252Y-108177661D01*
X151476987Y-107986259D01*
X151580882Y-107736054D01*
X151581118Y-107465135D01*
X151556684Y-107406000D01*
X151765408Y-107406000D01*
X152292204Y-107932796D01*
X152456362Y-108042483D01*
X152650000Y-108081000D01*
X154525000Y-108081000D01*
X154718638Y-108042483D01*
X154882796Y-107932796D01*
X155409592Y-107406000D01*
X161290408Y-107406000D01*
X162575801Y-108691393D01*
X162575801Y-110481801D01*
X162614318Y-110675439D01*
X162724005Y-110839597D01*
X166542204Y-114657796D01*
X166671217Y-114744000D01*
X124044911Y-114744000D01*
X123412555Y-114618216D01*
X122914544Y-114285456D01*
X122581784Y-113787445D01*
X122527000Y-113512028D01*
X122527000Y-113175350D01*
X123404256Y-113175350D01*
X123578014Y-113422709D01*
X124276791Y-113690285D01*
X125024775Y-113670082D01*
X125621986Y-113422709D01*
X125795744Y-113175350D01*
X124600000Y-111979605D01*
X123404256Y-113175350D01*
X122527000Y-113175350D01*
X122527000Y-111476791D01*
X122709715Y-111476791D01*
X122729918Y-112224775D01*
X122977291Y-112821986D01*
X123224650Y-112995744D01*
X124420395Y-111800000D01*
X124779605Y-111800000D01*
X125975350Y-112995744D01*
X126222709Y-112821986D01*
X126460880Y-112200000D01*
X138635631Y-112200000D01*
X138741971Y-112734609D01*
X139044803Y-113187828D01*
X139498022Y-113490660D01*
X140032631Y-113597000D01*
X140087369Y-113597000D01*
X140621978Y-113490660D01*
X141075197Y-113187828D01*
X141195536Y-113007728D01*
X141195536Y-113216000D01*
X141222103Y-113357190D01*
X141305546Y-113486865D01*
X141432866Y-113573859D01*
X141584000Y-113604464D01*
X143616000Y-113604464D01*
X143757190Y-113577897D01*
X143886865Y-113494454D01*
X143973859Y-113367134D01*
X144004464Y-113216000D01*
X144004464Y-111184000D01*
X143977897Y-111042810D01*
X143894454Y-110913135D01*
X143767134Y-110826141D01*
X143616000Y-110795536D01*
X141584000Y-110795536D01*
X141442810Y-110822103D01*
X141313135Y-110905546D01*
X141226141Y-111032866D01*
X141195536Y-111184000D01*
X141195536Y-111392272D01*
X141075197Y-111212172D01*
X140621978Y-110909340D01*
X140087369Y-110803000D01*
X140032631Y-110803000D01*
X139498022Y-110909340D01*
X139044803Y-111212172D01*
X138741971Y-111665391D01*
X138635631Y-112200000D01*
X126460880Y-112200000D01*
X126490285Y-112123209D01*
X126470082Y-111375225D01*
X126222709Y-110778014D01*
X125975350Y-110604256D01*
X124779605Y-111800000D01*
X124420395Y-111800000D01*
X123224650Y-110604256D01*
X122977291Y-110778014D01*
X122709715Y-111476791D01*
X122527000Y-111476791D01*
X122527000Y-110424650D01*
X123404256Y-110424650D01*
X124600000Y-111620395D01*
X125795744Y-110424650D01*
X125621986Y-110177291D01*
X124923209Y-109909715D01*
X124175225Y-109929918D01*
X123578014Y-110177291D01*
X123404256Y-110424650D01*
X122527000Y-110424650D01*
X122527000Y-109674096D01*
X125568234Y-109674096D01*
X125740142Y-110090146D01*
X126058180Y-110408739D01*
X126473929Y-110581373D01*
X126924096Y-110581766D01*
X127340146Y-110409858D01*
X127644534Y-110106000D01*
X128200000Y-110106000D01*
X128393638Y-110067483D01*
X128557796Y-109957796D01*
X132809592Y-105706000D01*
X143742877Y-105706000D01*
X143813741Y-105776987D01*
X144063946Y-105880882D01*
X144334865Y-105881118D01*
X144585252Y-105777661D01*
X144776987Y-105586259D01*
X144880882Y-105336054D01*
X144881118Y-105065135D01*
X144777661Y-104814748D01*
X144586259Y-104623013D01*
X144336054Y-104519118D01*
X144065135Y-104518882D01*
X143814748Y-104622339D01*
X143742962Y-104694000D01*
X132600000Y-104694000D01*
X132406362Y-104732517D01*
X132294117Y-104807517D01*
X132242204Y-104842204D01*
X127990408Y-109094000D01*
X127777264Y-109094000D01*
X127659858Y-108809854D01*
X127341820Y-108491261D01*
X126926071Y-108318627D01*
X126475904Y-108318234D01*
X126059854Y-108490142D01*
X125741261Y-108808180D01*
X125568627Y-109223929D01*
X125568234Y-109674096D01*
X122527000Y-109674096D01*
X122527000Y-108394277D01*
X123618830Y-108394277D01*
X123767864Y-108754966D01*
X124043583Y-109031166D01*
X124404011Y-109180829D01*
X124794277Y-109181170D01*
X125154966Y-109032136D01*
X125431166Y-108756417D01*
X125580829Y-108395989D01*
X125581170Y-108005723D01*
X125432136Y-107645034D01*
X125156417Y-107368834D01*
X124795989Y-107219171D01*
X124405723Y-107218830D01*
X124045034Y-107367864D01*
X123768834Y-107643583D01*
X123619171Y-108004011D01*
X123618830Y-108394277D01*
X122527000Y-108394277D01*
X122527000Y-105174096D01*
X125568234Y-105174096D01*
X125740142Y-105590146D01*
X126058180Y-105908739D01*
X126169348Y-105954900D01*
X126059854Y-106000142D01*
X125741261Y-106318180D01*
X125568627Y-106733929D01*
X125568234Y-107184096D01*
X125740142Y-107600146D01*
X126058180Y-107918739D01*
X126473929Y-108091373D01*
X126924096Y-108091766D01*
X127340146Y-107919858D01*
X127658739Y-107601820D01*
X127831373Y-107186071D01*
X127831766Y-106735904D01*
X127659858Y-106319854D01*
X127341820Y-106001261D01*
X127230652Y-105955100D01*
X127340146Y-105909858D01*
X127658739Y-105591820D01*
X127831373Y-105176071D01*
X127831766Y-104725904D01*
X127659858Y-104309854D01*
X127341820Y-103991261D01*
X126926071Y-103818627D01*
X126475904Y-103818234D01*
X126059854Y-103990142D01*
X125741261Y-104308180D01*
X125568627Y-104723929D01*
X125568234Y-105174096D01*
X122527000Y-105174096D01*
X122527000Y-103894277D01*
X123618830Y-103894277D01*
X123767864Y-104254966D01*
X124043583Y-104531166D01*
X124404011Y-104680829D01*
X124794277Y-104681170D01*
X125154966Y-104532136D01*
X125431166Y-104256417D01*
X125580829Y-103895989D01*
X125581170Y-103505723D01*
X125489086Y-103282861D01*
X126046744Y-103282861D01*
X126128715Y-103452371D01*
X126555793Y-103594691D01*
X127004824Y-103562743D01*
X127271285Y-103452371D01*
X127353256Y-103282861D01*
X126700000Y-102629605D01*
X126046744Y-103282861D01*
X125489086Y-103282861D01*
X125432136Y-103145034D01*
X125156417Y-102868834D01*
X124795989Y-102719171D01*
X124405723Y-102718830D01*
X124045034Y-102867864D01*
X123768834Y-103143583D01*
X123619171Y-103504011D01*
X123618830Y-103894277D01*
X122527000Y-103894277D01*
X122527000Y-102305793D01*
X125555309Y-102305793D01*
X125587257Y-102754824D01*
X125697629Y-103021285D01*
X125867139Y-103103256D01*
X126520395Y-102450000D01*
X126879605Y-102450000D01*
X127532861Y-103103256D01*
X127702371Y-103021285D01*
X127844691Y-102594207D01*
X127812743Y-102145176D01*
X127702371Y-101878715D01*
X127532861Y-101796744D01*
X126879605Y-102450000D01*
X126520395Y-102450000D01*
X125867139Y-101796744D01*
X125697629Y-101878715D01*
X125555309Y-102305793D01*
X122527000Y-102305793D01*
X122527000Y-101475350D01*
X123404256Y-101475350D01*
X123578014Y-101722709D01*
X124276791Y-101990285D01*
X125024775Y-101970082D01*
X125621986Y-101722709D01*
X125696143Y-101617139D01*
X126046744Y-101617139D01*
X126700000Y-102270395D01*
X127353256Y-101617139D01*
X127271285Y-101447629D01*
X126844207Y-101305309D01*
X126395176Y-101337257D01*
X126128715Y-101447629D01*
X126046744Y-101617139D01*
X125696143Y-101617139D01*
X125795744Y-101475350D01*
X124600000Y-100279605D01*
X123404256Y-101475350D01*
X122527000Y-101475350D01*
X122527000Y-99776791D01*
X122709715Y-99776791D01*
X122729918Y-100524775D01*
X122977291Y-101121986D01*
X123224650Y-101295744D01*
X124420395Y-100100000D01*
X124779605Y-100100000D01*
X125975350Y-101295744D01*
X126222709Y-101121986D01*
X126490285Y-100423209D01*
X126470082Y-99675225D01*
X126222709Y-99078014D01*
X125975350Y-98904256D01*
X124779605Y-100100000D01*
X124420395Y-100100000D01*
X123224650Y-98904256D01*
X122977291Y-99078014D01*
X122709715Y-99776791D01*
X122527000Y-99776791D01*
X122527000Y-98724650D01*
X123404256Y-98724650D01*
X124600000Y-99920395D01*
X125795744Y-98724650D01*
X125621986Y-98477291D01*
X124923209Y-98209715D01*
X124175225Y-98229918D01*
X123578014Y-98477291D01*
X123404256Y-98724650D01*
X122527000Y-98724650D01*
X122527000Y-98487972D01*
X122581784Y-98212555D01*
X122914544Y-97714544D01*
X123412555Y-97381784D01*
X124044911Y-97256000D01*
X176973000Y-97256000D01*
X176973000Y-114744000D01*
X176973000Y-114744000D01*
G37*
X176973000Y-114744000D02*
X174228783Y-114744000D01*
X174357796Y-114657796D01*
X175057796Y-113957796D01*
X175167483Y-113793638D01*
X175206000Y-113600000D01*
X175206000Y-113211059D01*
X175313946Y-113255882D01*
X175584865Y-113256118D01*
X175835252Y-113152661D01*
X176026987Y-112961259D01*
X176130882Y-112711054D01*
X176131118Y-112440135D01*
X176027661Y-112189748D01*
X175956000Y-112117962D01*
X175956000Y-111257123D01*
X176026987Y-111186259D01*
X176130882Y-110936054D01*
X176131118Y-110665135D01*
X176027661Y-110414748D01*
X175836259Y-110223013D01*
X175586054Y-110119118D01*
X175315135Y-110118882D01*
X175206000Y-110163975D01*
X175206000Y-109575000D01*
X175167483Y-109381362D01*
X175057796Y-109217204D01*
X174406000Y-108565408D01*
X174406000Y-106525000D01*
X174387204Y-106430508D01*
X174369306Y-106335823D01*
X174367962Y-106333769D01*
X174367483Y-106331362D01*
X174313957Y-106251255D01*
X174261187Y-106170627D01*
X173281025Y-105171617D01*
X173281118Y-105065135D01*
X173177661Y-104814748D01*
X172986259Y-104623013D01*
X172736054Y-104519118D01*
X172465135Y-104518882D01*
X172214748Y-104622339D01*
X172023013Y-104813741D01*
X171919118Y-105063946D01*
X171918882Y-105334865D01*
X172022339Y-105585252D01*
X172211876Y-105775119D01*
X172200098Y-105786876D01*
X172186259Y-105773013D01*
X171936054Y-105669118D01*
X171829813Y-105669025D01*
X168906000Y-102788209D01*
X168906000Y-102503783D01*
X168992204Y-102632796D01*
X169156362Y-102742483D01*
X169350000Y-102781000D01*
X170725000Y-102781000D01*
X170918638Y-102742483D01*
X171082796Y-102632796D01*
X171434561Y-102281031D01*
X171534865Y-102281118D01*
X171744000Y-102194706D01*
X171744000Y-102618934D01*
X171614748Y-102672339D01*
X171423013Y-102863741D01*
X171319118Y-103113946D01*
X171318882Y-103384865D01*
X171422339Y-103635252D01*
X171613741Y-103826987D01*
X171863946Y-103930882D01*
X172134865Y-103931118D01*
X172385252Y-103827661D01*
X172576987Y-103636259D01*
X172680882Y-103386054D01*
X172681002Y-103248236D01*
X172717483Y-103193638D01*
X172756000Y-103000000D01*
X172756000Y-100950000D01*
X172717483Y-100756362D01*
X172607796Y-100592204D01*
X172257796Y-100242204D01*
X172252199Y-100238464D01*
X172300000Y-100238464D01*
X172441190Y-100211897D01*
X172570865Y-100128454D01*
X172657859Y-100001134D01*
X172688464Y-99850000D01*
X172688464Y-98450000D01*
X172661897Y-98308810D01*
X172578454Y-98179135D01*
X172451134Y-98092141D01*
X172300000Y-98061536D01*
X170500000Y-98061536D01*
X170358810Y-98088103D01*
X170229135Y-98171546D01*
X170142141Y-98298866D01*
X170111536Y-98450000D01*
X170111536Y-99850000D01*
X170138103Y-99991190D01*
X170221546Y-100120865D01*
X170348866Y-100207859D01*
X170500000Y-100238464D01*
X170847801Y-100238464D01*
X170842204Y-100242204D01*
X170538504Y-100545904D01*
X170443638Y-100482517D01*
X170250000Y-100444000D01*
X169657123Y-100444000D01*
X169586259Y-100373013D01*
X169336054Y-100269118D01*
X169223098Y-100269020D01*
X169093638Y-100182517D01*
X168911974Y-100146382D01*
X168181031Y-99415439D01*
X168181118Y-99315135D01*
X168077661Y-99064748D01*
X167886259Y-98873013D01*
X167636054Y-98769118D01*
X167365135Y-98768882D01*
X167114748Y-98872339D01*
X166988464Y-98998404D01*
X166988464Y-98450000D01*
X166961897Y-98308810D01*
X166878454Y-98179135D01*
X166751134Y-98092141D01*
X166600000Y-98061536D01*
X164800000Y-98061536D01*
X164658810Y-98088103D01*
X164529135Y-98171546D01*
X164442141Y-98298866D01*
X164411536Y-98450000D01*
X164411536Y-99098551D01*
X164261259Y-98948013D01*
X164011054Y-98844118D01*
X163740135Y-98843882D01*
X163489748Y-98947339D01*
X163417962Y-99019000D01*
X160525000Y-99019000D01*
X160331362Y-99057517D01*
X160209802Y-99138741D01*
X160167204Y-99167204D01*
X157690408Y-101644000D01*
X156350000Y-101644000D01*
X156156362Y-101682517D01*
X156044117Y-101757517D01*
X155992204Y-101792204D01*
X155854560Y-101929848D01*
X155827661Y-101864748D01*
X155636259Y-101673013D01*
X155386054Y-101569118D01*
X155115135Y-101568882D01*
X154864748Y-101672339D01*
X154774924Y-101762007D01*
X154586259Y-101573013D01*
X154336054Y-101469118D01*
X154065135Y-101468882D01*
X153991133Y-101499459D01*
X154217796Y-101272796D01*
X154309958Y-101134866D01*
X154336288Y-101129629D01*
X154740065Y-100859834D01*
X155009860Y-100456057D01*
X155096149Y-100022250D01*
X155155400Y-100022250D01*
X155155400Y-100891785D01*
X155213404Y-101031819D01*
X155320580Y-101138996D01*
X155460614Y-101197000D01*
X156177750Y-101197000D01*
X156273000Y-101101750D01*
X156273000Y-99927000D01*
X156527000Y-99927000D01*
X156527000Y-101101750D01*
X156622250Y-101197000D01*
X157339386Y-101197000D01*
X157479420Y-101138996D01*
X157586596Y-101031819D01*
X157644600Y-100891785D01*
X157644600Y-100022250D01*
X157549350Y-99927000D01*
X156527000Y-99927000D01*
X156273000Y-99927000D01*
X155250650Y-99927000D01*
X155155400Y-100022250D01*
X155096149Y-100022250D01*
X155104600Y-99979769D01*
X155104600Y-99620231D01*
X155009860Y-99143943D01*
X154740065Y-98740166D01*
X154692247Y-98708215D01*
X155155400Y-98708215D01*
X155155400Y-99577750D01*
X155250650Y-99673000D01*
X156273000Y-99673000D01*
X156273000Y-98498250D01*
X156527000Y-98498250D01*
X156527000Y-99673000D01*
X157549350Y-99673000D01*
X157644600Y-99577750D01*
X157644600Y-98708215D01*
X157586596Y-98568181D01*
X157479420Y-98461004D01*
X157339386Y-98403000D01*
X156622250Y-98403000D01*
X156527000Y-98498250D01*
X156273000Y-98498250D01*
X156177750Y-98403000D01*
X155460614Y-98403000D01*
X155320580Y-98461004D01*
X155213404Y-98568181D01*
X155155400Y-98708215D01*
X154692247Y-98708215D01*
X154336288Y-98470371D01*
X153860000Y-98375631D01*
X153383712Y-98470371D01*
X152979935Y-98740166D01*
X152710140Y-99143943D01*
X152615400Y-99620231D01*
X152615400Y-99979769D01*
X152710140Y-100456057D01*
X152979935Y-100859834D01*
X153111599Y-100947809D01*
X150417204Y-103642204D01*
X150307517Y-103806362D01*
X150269000Y-104000000D01*
X150269000Y-105000000D01*
X150307517Y-105193638D01*
X150417204Y-105357796D01*
X150953408Y-105894000D01*
X148709592Y-105894000D01*
X143081031Y-100265439D01*
X143081118Y-100165135D01*
X142977661Y-99914748D01*
X142786259Y-99723013D01*
X142538735Y-99620231D01*
X150075400Y-99620231D01*
X150075400Y-99979769D01*
X150170140Y-100456057D01*
X150439935Y-100859834D01*
X150843712Y-101129629D01*
X151320000Y-101224369D01*
X151796288Y-101129629D01*
X152200065Y-100859834D01*
X152469860Y-100456057D01*
X152564600Y-99979769D01*
X152564600Y-99620231D01*
X152469860Y-99143943D01*
X152200065Y-98740166D01*
X151796288Y-98470371D01*
X151320000Y-98375631D01*
X150843712Y-98470371D01*
X150439935Y-98740166D01*
X150170140Y-99143943D01*
X150075400Y-99620231D01*
X142538735Y-99620231D01*
X142536054Y-99619118D01*
X142265135Y-99618882D01*
X142014748Y-99722339D01*
X141826176Y-99910584D01*
X141257796Y-99342204D01*
X141093638Y-99232517D01*
X140900000Y-99194000D01*
X140457123Y-99194000D01*
X140386259Y-99123013D01*
X140136054Y-99019118D01*
X139865135Y-99018882D01*
X139614748Y-99122339D01*
X139423013Y-99313741D01*
X139319118Y-99563946D01*
X139318882Y-99834865D01*
X139422339Y-100085252D01*
X139613741Y-100276987D01*
X139863946Y-100380882D01*
X140134865Y-100381118D01*
X140385252Y-100277661D01*
X140457038Y-100206000D01*
X140690408Y-100206000D01*
X147742204Y-107257796D01*
X147906362Y-107367483D01*
X148100000Y-107406000D01*
X148289672Y-107406000D01*
X148156362Y-107432517D01*
X147992204Y-107542204D01*
X147442204Y-108092204D01*
X147332517Y-108256362D01*
X147294000Y-108450000D01*
X147294000Y-113600000D01*
X147332517Y-113793638D01*
X147442204Y-113957796D01*
X147992204Y-114507796D01*
X148156362Y-114617483D01*
X148350000Y-114656000D01*
X151100000Y-114656000D01*
X151293638Y-114617483D01*
X151457796Y-114507796D01*
X152097796Y-113867796D01*
X152148305Y-113792204D01*
X152207483Y-113703638D01*
X152246000Y-113510000D01*
X152246000Y-113486299D01*
X152644448Y-113220065D01*
X152914243Y-112816288D01*
X153008983Y-112340000D01*
X153011017Y-112340000D01*
X153105757Y-112816288D01*
X153375552Y-113220065D01*
X153779329Y-113489860D01*
X154255617Y-113584600D01*
X154304383Y-113584600D01*
X154780671Y-113489860D01*
X155184448Y-113220065D01*
X155454243Y-112816288D01*
X155485506Y-112659118D01*
X155617007Y-112659118D01*
X155743695Y-112965001D01*
X156064801Y-113329310D01*
X156500880Y-113543005D01*
X156693000Y-113482865D01*
X156693000Y-112467000D01*
X156947000Y-112467000D01*
X156947000Y-113482865D01*
X157139120Y-113543005D01*
X157181473Y-113522250D01*
X158769000Y-113522250D01*
X158769000Y-114325785D01*
X158827004Y-114465819D01*
X158934180Y-114572996D01*
X159074214Y-114631000D01*
X159627750Y-114631000D01*
X159723000Y-114535750D01*
X159723000Y-113427000D01*
X159977000Y-113427000D01*
X159977000Y-114535750D01*
X160072250Y-114631000D01*
X160625786Y-114631000D01*
X160765820Y-114572996D01*
X160872996Y-114465819D01*
X160931000Y-114325785D01*
X160931000Y-113522250D01*
X160835750Y-113427000D01*
X159977000Y-113427000D01*
X159723000Y-113427000D01*
X158864250Y-113427000D01*
X158769000Y-113522250D01*
X157181473Y-113522250D01*
X157575199Y-113329310D01*
X157896305Y-112965001D01*
X158022993Y-112659118D01*
X157962312Y-112467000D01*
X156947000Y-112467000D01*
X156693000Y-112467000D01*
X155677688Y-112467000D01*
X155617007Y-112659118D01*
X155485506Y-112659118D01*
X155548983Y-112340000D01*
X155535898Y-112274215D01*
X158769000Y-112274215D01*
X158769000Y-113077750D01*
X158864250Y-113173000D01*
X159723000Y-113173000D01*
X159723000Y-112064250D01*
X159977000Y-112064250D01*
X159977000Y-113173000D01*
X160835750Y-113173000D01*
X160931000Y-113077750D01*
X160931000Y-112274215D01*
X160872996Y-112134181D01*
X160765820Y-112027004D01*
X160625786Y-111969000D01*
X160072250Y-111969000D01*
X159977000Y-112064250D01*
X159723000Y-112064250D01*
X159627750Y-111969000D01*
X159074214Y-111969000D01*
X158934180Y-112027004D01*
X158827004Y-112134181D01*
X158769000Y-112274215D01*
X155535898Y-112274215D01*
X155485507Y-112020882D01*
X155617007Y-112020882D01*
X155677688Y-112213000D01*
X156693000Y-112213000D01*
X156693000Y-111197135D01*
X156947000Y-111197135D01*
X156947000Y-112213000D01*
X157962312Y-112213000D01*
X158022993Y-112020882D01*
X157896305Y-111714999D01*
X157575199Y-111350690D01*
X157139120Y-111136995D01*
X156947000Y-111197135D01*
X156693000Y-111197135D01*
X156500880Y-111136995D01*
X156064801Y-111350690D01*
X155743695Y-111714999D01*
X155617007Y-112020882D01*
X155485507Y-112020882D01*
X155454243Y-111863712D01*
X155184448Y-111459935D01*
X154780671Y-111190140D01*
X154304383Y-111095400D01*
X154255617Y-111095400D01*
X153779329Y-111190140D01*
X153375552Y-111459935D01*
X153105757Y-111863712D01*
X153011017Y-112340000D01*
X153008983Y-112340000D01*
X152914243Y-111863712D01*
X152644448Y-111459935D01*
X152240671Y-111190140D01*
X151764383Y-111095400D01*
X151715617Y-111095400D01*
X151239329Y-111190140D01*
X150835552Y-111459935D01*
X150565757Y-111863712D01*
X150471017Y-112340000D01*
X150565757Y-112816288D01*
X150835552Y-113220065D01*
X151122566Y-113411842D01*
X150890408Y-113644000D01*
X148559592Y-113644000D01*
X148306000Y-113390408D01*
X148306000Y-113227046D01*
X148699329Y-113489860D01*
X149175617Y-113584600D01*
X149224383Y-113584600D01*
X149700671Y-113489860D01*
X150104448Y-113220065D01*
X150374243Y-112816288D01*
X150468983Y-112340000D01*
X150374243Y-111863712D01*
X150104448Y-111459935D01*
X149700671Y-111190140D01*
X149224383Y-111095400D01*
X149175617Y-111095400D01*
X148699329Y-111190140D01*
X148306000Y-111452954D01*
X148306000Y-111045908D01*
X148336400Y-111052064D01*
X150063600Y-111052064D01*
X150204790Y-111025497D01*
X150334465Y-110942054D01*
X150421459Y-110814734D01*
X150452064Y-110663600D01*
X150452064Y-109800000D01*
X150471017Y-109800000D01*
X150565757Y-110276288D01*
X150835552Y-110680065D01*
X151239329Y-110949860D01*
X151715617Y-111044600D01*
X151764383Y-111044600D01*
X152240671Y-110949860D01*
X152644448Y-110680065D01*
X152914243Y-110276288D01*
X153008983Y-109800000D01*
X153011017Y-109800000D01*
X153105757Y-110276288D01*
X153375552Y-110680065D01*
X153779329Y-110949860D01*
X154255617Y-111044600D01*
X154304383Y-111044600D01*
X154780671Y-110949860D01*
X155184448Y-110680065D01*
X155454243Y-110276288D01*
X155548983Y-109800000D01*
X155551017Y-109800000D01*
X155645757Y-110276288D01*
X155915552Y-110680065D01*
X156319329Y-110949860D01*
X156795617Y-111044600D01*
X156844383Y-111044600D01*
X157320671Y-110949860D01*
X157724448Y-110680065D01*
X157974390Y-110306000D01*
X159308612Y-110306000D01*
X159488946Y-110380882D01*
X159759865Y-110381118D01*
X160010252Y-110277661D01*
X160201987Y-110086259D01*
X160305882Y-109836054D01*
X160306118Y-109565135D01*
X160202661Y-109314748D01*
X160011259Y-109123013D01*
X159761054Y-109019118D01*
X159490135Y-109018882D01*
X159239748Y-109122339D01*
X159067788Y-109294000D01*
X157974390Y-109294000D01*
X157724448Y-108919935D01*
X157320671Y-108650140D01*
X156844383Y-108555400D01*
X156795617Y-108555400D01*
X156319329Y-108650140D01*
X155915552Y-108919935D01*
X155645757Y-109323712D01*
X155551017Y-109800000D01*
X155548983Y-109800000D01*
X155454243Y-109323712D01*
X155184448Y-108919935D01*
X154780671Y-108650140D01*
X154304383Y-108555400D01*
X154255617Y-108555400D01*
X153779329Y-108650140D01*
X153375552Y-108919935D01*
X153105757Y-109323712D01*
X153011017Y-109800000D01*
X153008983Y-109800000D01*
X152914243Y-109323712D01*
X152644448Y-108919935D01*
X152240671Y-108650140D01*
X151764383Y-108555400D01*
X151715617Y-108555400D01*
X151239329Y-108650140D01*
X150835552Y-108919935D01*
X150565757Y-109323712D01*
X150471017Y-109800000D01*
X150452064Y-109800000D01*
X150452064Y-108936400D01*
X150425497Y-108795210D01*
X150342054Y-108665535D01*
X150214734Y-108578541D01*
X150063600Y-108547936D01*
X148417656Y-108547936D01*
X148559592Y-108406000D01*
X150600000Y-108406000D01*
X150793638Y-108367483D01*
X150923038Y-108281021D01*
X151034865Y-108281118D01*
X151285252Y-108177661D01*
X151476987Y-107986259D01*
X151580882Y-107736054D01*
X151581118Y-107465135D01*
X151556684Y-107406000D01*
X151765408Y-107406000D01*
X152292204Y-107932796D01*
X152456362Y-108042483D01*
X152650000Y-108081000D01*
X154525000Y-108081000D01*
X154718638Y-108042483D01*
X154882796Y-107932796D01*
X155409592Y-107406000D01*
X161290408Y-107406000D01*
X162575801Y-108691393D01*
X162575801Y-110481801D01*
X162614318Y-110675439D01*
X162724005Y-110839597D01*
X166542204Y-114657796D01*
X166671217Y-114744000D01*
X124044911Y-114744000D01*
X123412555Y-114618216D01*
X122914544Y-114285456D01*
X122581784Y-113787445D01*
X122527000Y-113512028D01*
X122527000Y-113175350D01*
X123404256Y-113175350D01*
X123578014Y-113422709D01*
X124276791Y-113690285D01*
X125024775Y-113670082D01*
X125621986Y-113422709D01*
X125795744Y-113175350D01*
X124600000Y-111979605D01*
X123404256Y-113175350D01*
X122527000Y-113175350D01*
X122527000Y-111476791D01*
X122709715Y-111476791D01*
X122729918Y-112224775D01*
X122977291Y-112821986D01*
X123224650Y-112995744D01*
X124420395Y-111800000D01*
X124779605Y-111800000D01*
X125975350Y-112995744D01*
X126222709Y-112821986D01*
X126460880Y-112200000D01*
X138635631Y-112200000D01*
X138741971Y-112734609D01*
X139044803Y-113187828D01*
X139498022Y-113490660D01*
X140032631Y-113597000D01*
X140087369Y-113597000D01*
X140621978Y-113490660D01*
X141075197Y-113187828D01*
X141195536Y-113007728D01*
X141195536Y-113216000D01*
X141222103Y-113357190D01*
X141305546Y-113486865D01*
X141432866Y-113573859D01*
X141584000Y-113604464D01*
X143616000Y-113604464D01*
X143757190Y-113577897D01*
X143886865Y-113494454D01*
X143973859Y-113367134D01*
X144004464Y-113216000D01*
X144004464Y-111184000D01*
X143977897Y-111042810D01*
X143894454Y-110913135D01*
X143767134Y-110826141D01*
X143616000Y-110795536D01*
X141584000Y-110795536D01*
X141442810Y-110822103D01*
X141313135Y-110905546D01*
X141226141Y-111032866D01*
X141195536Y-111184000D01*
X141195536Y-111392272D01*
X141075197Y-111212172D01*
X140621978Y-110909340D01*
X140087369Y-110803000D01*
X140032631Y-110803000D01*
X139498022Y-110909340D01*
X139044803Y-111212172D01*
X138741971Y-111665391D01*
X138635631Y-112200000D01*
X126460880Y-112200000D01*
X126490285Y-112123209D01*
X126470082Y-111375225D01*
X126222709Y-110778014D01*
X125975350Y-110604256D01*
X124779605Y-111800000D01*
X124420395Y-111800000D01*
X123224650Y-110604256D01*
X122977291Y-110778014D01*
X122709715Y-111476791D01*
X122527000Y-111476791D01*
X122527000Y-110424650D01*
X123404256Y-110424650D01*
X124600000Y-111620395D01*
X125795744Y-110424650D01*
X125621986Y-110177291D01*
X124923209Y-109909715D01*
X124175225Y-109929918D01*
X123578014Y-110177291D01*
X123404256Y-110424650D01*
X122527000Y-110424650D01*
X122527000Y-109674096D01*
X125568234Y-109674096D01*
X125740142Y-110090146D01*
X126058180Y-110408739D01*
X126473929Y-110581373D01*
X126924096Y-110581766D01*
X127340146Y-110409858D01*
X127644534Y-110106000D01*
X128200000Y-110106000D01*
X128393638Y-110067483D01*
X128557796Y-109957796D01*
X132809592Y-105706000D01*
X143742877Y-105706000D01*
X143813741Y-105776987D01*
X144063946Y-105880882D01*
X144334865Y-105881118D01*
X144585252Y-105777661D01*
X144776987Y-105586259D01*
X144880882Y-105336054D01*
X144881118Y-105065135D01*
X144777661Y-104814748D01*
X144586259Y-104623013D01*
X144336054Y-104519118D01*
X144065135Y-104518882D01*
X143814748Y-104622339D01*
X143742962Y-104694000D01*
X132600000Y-104694000D01*
X132406362Y-104732517D01*
X132294117Y-104807517D01*
X132242204Y-104842204D01*
X127990408Y-109094000D01*
X127777264Y-109094000D01*
X127659858Y-108809854D01*
X127341820Y-108491261D01*
X126926071Y-108318627D01*
X126475904Y-108318234D01*
X126059854Y-108490142D01*
X125741261Y-108808180D01*
X125568627Y-109223929D01*
X125568234Y-109674096D01*
X122527000Y-109674096D01*
X122527000Y-108394277D01*
X123618830Y-108394277D01*
X123767864Y-108754966D01*
X124043583Y-109031166D01*
X124404011Y-109180829D01*
X124794277Y-109181170D01*
X125154966Y-109032136D01*
X125431166Y-108756417D01*
X125580829Y-108395989D01*
X125581170Y-108005723D01*
X125432136Y-107645034D01*
X125156417Y-107368834D01*
X124795989Y-107219171D01*
X124405723Y-107218830D01*
X124045034Y-107367864D01*
X123768834Y-107643583D01*
X123619171Y-108004011D01*
X123618830Y-108394277D01*
X122527000Y-108394277D01*
X122527000Y-105174096D01*
X125568234Y-105174096D01*
X125740142Y-105590146D01*
X126058180Y-105908739D01*
X126169348Y-105954900D01*
X126059854Y-106000142D01*
X125741261Y-106318180D01*
X125568627Y-106733929D01*
X125568234Y-107184096D01*
X125740142Y-107600146D01*
X126058180Y-107918739D01*
X126473929Y-108091373D01*
X126924096Y-108091766D01*
X127340146Y-107919858D01*
X127658739Y-107601820D01*
X127831373Y-107186071D01*
X127831766Y-106735904D01*
X127659858Y-106319854D01*
X127341820Y-106001261D01*
X127230652Y-105955100D01*
X127340146Y-105909858D01*
X127658739Y-105591820D01*
X127831373Y-105176071D01*
X127831766Y-104725904D01*
X127659858Y-104309854D01*
X127341820Y-103991261D01*
X126926071Y-103818627D01*
X126475904Y-103818234D01*
X126059854Y-103990142D01*
X125741261Y-104308180D01*
X125568627Y-104723929D01*
X125568234Y-105174096D01*
X122527000Y-105174096D01*
X122527000Y-103894277D01*
X123618830Y-103894277D01*
X123767864Y-104254966D01*
X124043583Y-104531166D01*
X124404011Y-104680829D01*
X124794277Y-104681170D01*
X125154966Y-104532136D01*
X125431166Y-104256417D01*
X125580829Y-103895989D01*
X125581170Y-103505723D01*
X125489086Y-103282861D01*
X126046744Y-103282861D01*
X126128715Y-103452371D01*
X126555793Y-103594691D01*
X127004824Y-103562743D01*
X127271285Y-103452371D01*
X127353256Y-103282861D01*
X126700000Y-102629605D01*
X126046744Y-103282861D01*
X125489086Y-103282861D01*
X125432136Y-103145034D01*
X125156417Y-102868834D01*
X124795989Y-102719171D01*
X124405723Y-102718830D01*
X124045034Y-102867864D01*
X123768834Y-103143583D01*
X123619171Y-103504011D01*
X123618830Y-103894277D01*
X122527000Y-103894277D01*
X122527000Y-102305793D01*
X125555309Y-102305793D01*
X125587257Y-102754824D01*
X125697629Y-103021285D01*
X125867139Y-103103256D01*
X126520395Y-102450000D01*
X126879605Y-102450000D01*
X127532861Y-103103256D01*
X127702371Y-103021285D01*
X127844691Y-102594207D01*
X127812743Y-102145176D01*
X127702371Y-101878715D01*
X127532861Y-101796744D01*
X126879605Y-102450000D01*
X126520395Y-102450000D01*
X125867139Y-101796744D01*
X125697629Y-101878715D01*
X125555309Y-102305793D01*
X122527000Y-102305793D01*
X122527000Y-101475350D01*
X123404256Y-101475350D01*
X123578014Y-101722709D01*
X124276791Y-101990285D01*
X125024775Y-101970082D01*
X125621986Y-101722709D01*
X125696143Y-101617139D01*
X126046744Y-101617139D01*
X126700000Y-102270395D01*
X127353256Y-101617139D01*
X127271285Y-101447629D01*
X126844207Y-101305309D01*
X126395176Y-101337257D01*
X126128715Y-101447629D01*
X126046744Y-101617139D01*
X125696143Y-101617139D01*
X125795744Y-101475350D01*
X124600000Y-100279605D01*
X123404256Y-101475350D01*
X122527000Y-101475350D01*
X122527000Y-99776791D01*
X122709715Y-99776791D01*
X122729918Y-100524775D01*
X122977291Y-101121986D01*
X123224650Y-101295744D01*
X124420395Y-100100000D01*
X124779605Y-100100000D01*
X125975350Y-101295744D01*
X126222709Y-101121986D01*
X126490285Y-100423209D01*
X126470082Y-99675225D01*
X126222709Y-99078014D01*
X125975350Y-98904256D01*
X124779605Y-100100000D01*
X124420395Y-100100000D01*
X123224650Y-98904256D01*
X122977291Y-99078014D01*
X122709715Y-99776791D01*
X122527000Y-99776791D01*
X122527000Y-98724650D01*
X123404256Y-98724650D01*
X124600000Y-99920395D01*
X125795744Y-98724650D01*
X125621986Y-98477291D01*
X124923209Y-98209715D01*
X124175225Y-98229918D01*
X123578014Y-98477291D01*
X123404256Y-98724650D01*
X122527000Y-98724650D01*
X122527000Y-98487972D01*
X122581784Y-98212555D01*
X122914544Y-97714544D01*
X123412555Y-97381784D01*
X124044911Y-97256000D01*
X176973000Y-97256000D01*
X176973000Y-114744000D01*
G36*
X166050000Y-107306000D02*
X166090408Y-107306000D01*
X167003408Y-108219000D01*
X166922250Y-108219000D01*
X166827000Y-108314250D01*
X166827000Y-109223000D01*
X166847000Y-109223000D01*
X166847000Y-109477000D01*
X166827000Y-109477000D01*
X166827000Y-110385750D01*
X166922250Y-110481000D01*
X167063720Y-110481000D01*
X167121546Y-110570865D01*
X167248866Y-110657859D01*
X167294000Y-110666999D01*
X167294000Y-112300000D01*
X167332517Y-112493638D01*
X167442204Y-112657796D01*
X168078408Y-113294000D01*
X167309592Y-113294000D01*
X164504056Y-110488464D01*
X164900000Y-110488464D01*
X165041190Y-110461897D01*
X165166007Y-110381580D01*
X165200000Y-110388464D01*
X166000000Y-110388464D01*
X166041786Y-110380601D01*
X166084180Y-110422996D01*
X166224214Y-110481000D01*
X166477750Y-110481000D01*
X166573000Y-110385750D01*
X166573000Y-109477000D01*
X166553000Y-109477000D01*
X166553000Y-109223000D01*
X166573000Y-109223000D01*
X166573000Y-108314250D01*
X166477750Y-108219000D01*
X166263621Y-108219000D01*
X166151134Y-108142141D01*
X166106000Y-108133001D01*
X166106000Y-107700000D01*
X166067483Y-107506362D01*
X165957796Y-107342204D01*
X165889708Y-107274116D01*
X166050000Y-107306000D01*
X166050000Y-107306000D01*
G37*
X166050000Y-107306000D02*
X166090408Y-107306000D01*
X167003408Y-108219000D01*
X166922250Y-108219000D01*
X166827000Y-108314250D01*
X166827000Y-109223000D01*
X166847000Y-109223000D01*
X166847000Y-109477000D01*
X166827000Y-109477000D01*
X166827000Y-110385750D01*
X166922250Y-110481000D01*
X167063720Y-110481000D01*
X167121546Y-110570865D01*
X167248866Y-110657859D01*
X167294000Y-110666999D01*
X167294000Y-112300000D01*
X167332517Y-112493638D01*
X167442204Y-112657796D01*
X168078408Y-113294000D01*
X167309592Y-113294000D01*
X164504056Y-110488464D01*
X164900000Y-110488464D01*
X165041190Y-110461897D01*
X165166007Y-110381580D01*
X165200000Y-110388464D01*
X166000000Y-110388464D01*
X166041786Y-110380601D01*
X166084180Y-110422996D01*
X166224214Y-110481000D01*
X166477750Y-110481000D01*
X166573000Y-110385750D01*
X166573000Y-109477000D01*
X166553000Y-109477000D01*
X166553000Y-109223000D01*
X166573000Y-109223000D01*
X166573000Y-108314250D01*
X166477750Y-108219000D01*
X166263621Y-108219000D01*
X166151134Y-108142141D01*
X166106000Y-108133001D01*
X166106000Y-107700000D01*
X166067483Y-107506362D01*
X165957796Y-107342204D01*
X165889708Y-107274116D01*
X166050000Y-107306000D01*
G36*
X171919000Y-112077750D02*
X172014250Y-112173000D01*
X172873000Y-112173000D01*
X172873000Y-112153000D01*
X173127000Y-112153000D01*
X173127000Y-112173000D01*
X173147000Y-112173000D01*
X173147000Y-112427000D01*
X173127000Y-112427000D01*
X173127000Y-112447000D01*
X172873000Y-112447000D01*
X172873000Y-112427000D01*
X172014250Y-112427000D01*
X171919000Y-112522250D01*
X171919000Y-113294000D01*
X170071592Y-113294000D01*
X171909592Y-111456000D01*
X171919000Y-111456000D01*
X171919000Y-112077750D01*
X171919000Y-112077750D01*
G37*
X171919000Y-112077750D02*
X172014250Y-112173000D01*
X172873000Y-112173000D01*
X172873000Y-112153000D01*
X173127000Y-112153000D01*
X173127000Y-112173000D01*
X173147000Y-112173000D01*
X173147000Y-112427000D01*
X173127000Y-112427000D01*
X173127000Y-112447000D01*
X172873000Y-112447000D01*
X172873000Y-112427000D01*
X172014250Y-112427000D01*
X171919000Y-112522250D01*
X171919000Y-113294000D01*
X170071592Y-113294000D01*
X171909592Y-111456000D01*
X171919000Y-111456000D01*
X171919000Y-112077750D01*
G36*
X169277004Y-110515819D02*
X169384180Y-110622996D01*
X169405257Y-110631726D01*
X169273013Y-110763741D01*
X169169118Y-111013946D01*
X169168882Y-111284865D01*
X169272339Y-111535252D01*
X169304888Y-111567857D01*
X169045526Y-111843952D01*
X168965135Y-111843882D01*
X168714748Y-111947339D01*
X168523013Y-112138741D01*
X168473521Y-112257929D01*
X168306000Y-112090408D01*
X168306000Y-110668519D01*
X168341190Y-110661897D01*
X168470865Y-110578454D01*
X168532353Y-110488464D01*
X169265673Y-110488464D01*
X169277004Y-110515819D01*
X169277004Y-110515819D01*
G37*
X169277004Y-110515819D02*
X169384180Y-110622996D01*
X169405257Y-110631726D01*
X169273013Y-110763741D01*
X169169118Y-111013946D01*
X169168882Y-111284865D01*
X169272339Y-111535252D01*
X169304888Y-111567857D01*
X169045526Y-111843952D01*
X168965135Y-111843882D01*
X168714748Y-111947339D01*
X168523013Y-112138741D01*
X168473521Y-112257929D01*
X168306000Y-112090408D01*
X168306000Y-110668519D01*
X168341190Y-110661897D01*
X168470865Y-110578454D01*
X168532353Y-110488464D01*
X169265673Y-110488464D01*
X169277004Y-110515819D01*
G36*
X170127000Y-109423000D02*
X170147000Y-109423000D01*
X170147000Y-109677000D01*
X170127000Y-109677000D01*
X170127000Y-109697000D01*
X169873000Y-109697000D01*
X169873000Y-109677000D01*
X169853000Y-109677000D01*
X169853000Y-109423000D01*
X169873000Y-109423000D01*
X169873000Y-109403000D01*
X170127000Y-109403000D01*
X170127000Y-109423000D01*
X170127000Y-109423000D01*
G37*
X170127000Y-109423000D02*
X170147000Y-109423000D01*
X170147000Y-109677000D01*
X170127000Y-109677000D01*
X170127000Y-109697000D01*
X169873000Y-109697000D01*
X169873000Y-109677000D01*
X169853000Y-109677000D01*
X169853000Y-109423000D01*
X169873000Y-109423000D01*
X169873000Y-109403000D01*
X170127000Y-109403000D01*
X170127000Y-109423000D01*
G36*
X161974341Y-101318977D02*
X161865135Y-101318882D01*
X161614748Y-101422339D01*
X161423013Y-101613741D01*
X161319118Y-101863946D01*
X161318882Y-102134865D01*
X161422339Y-102385252D01*
X161613741Y-102576987D01*
X161863946Y-102680882D01*
X162134865Y-102681118D01*
X162385252Y-102577661D01*
X162576987Y-102386259D01*
X162680882Y-102136054D01*
X162680963Y-102043430D01*
X164055543Y-100706000D01*
X164339672Y-100706000D01*
X164309396Y-100712022D01*
X164218356Y-100727727D01*
X164212803Y-100731236D01*
X164206362Y-100732517D01*
X164129554Y-100783838D01*
X164051452Y-100833189D01*
X164047665Y-100838555D01*
X164042204Y-100842204D01*
X163990883Y-100919011D01*
X163937611Y-100994494D01*
X163822868Y-101252665D01*
X163714748Y-101297339D01*
X163523013Y-101488741D01*
X163419118Y-101738946D01*
X163418882Y-102009865D01*
X163522339Y-102260252D01*
X163713741Y-102451987D01*
X163963946Y-102555882D01*
X164234865Y-102556118D01*
X164485252Y-102452661D01*
X164537445Y-102400558D01*
X164613741Y-102476987D01*
X164863946Y-102580882D01*
X165134865Y-102581118D01*
X165385252Y-102477661D01*
X165457038Y-102406000D01*
X166690408Y-102406000D01*
X167294000Y-103009592D01*
X167294000Y-103400000D01*
X167332517Y-103593638D01*
X167442204Y-103757796D01*
X168419000Y-104734592D01*
X168419000Y-105540408D01*
X167442204Y-106517204D01*
X167332517Y-106681362D01*
X167294000Y-106875000D01*
X167294000Y-107078408D01*
X166657796Y-106442204D01*
X166493638Y-106332517D01*
X166300000Y-106294000D01*
X166259592Y-106294000D01*
X166181031Y-106215439D01*
X166181118Y-106115135D01*
X166077661Y-105864748D01*
X165886259Y-105673013D01*
X165636054Y-105569118D01*
X165365135Y-105568882D01*
X165114748Y-105672339D01*
X165106000Y-105681072D01*
X165106000Y-103550000D01*
X165067483Y-103356362D01*
X164957796Y-103192204D01*
X164793638Y-103082517D01*
X164600000Y-103044000D01*
X163257123Y-103044000D01*
X163186259Y-102973013D01*
X162936054Y-102869118D01*
X162665135Y-102868882D01*
X162414748Y-102972339D01*
X162223013Y-103163741D01*
X162119118Y-103413946D01*
X162118882Y-103684865D01*
X162222339Y-103935252D01*
X162413741Y-104126987D01*
X162663946Y-104230882D01*
X162934865Y-104231118D01*
X163185252Y-104127661D01*
X163257038Y-104056000D01*
X164094000Y-104056000D01*
X164094000Y-104607798D01*
X164061054Y-104594118D01*
X163790135Y-104593882D01*
X163539748Y-104697339D01*
X163348013Y-104888741D01*
X163244118Y-105138946D01*
X163244030Y-105240378D01*
X163065408Y-105419000D01*
X154775000Y-105419000D01*
X154724858Y-105428974D01*
X154677661Y-105314748D01*
X154606000Y-105242962D01*
X154606000Y-104215297D01*
X154763946Y-104280882D01*
X155034865Y-104281118D01*
X155285252Y-104177661D01*
X155476987Y-103986259D01*
X155580882Y-103736054D01*
X155580970Y-103634622D01*
X156559592Y-102656000D01*
X157900000Y-102656000D01*
X158093638Y-102617483D01*
X158257796Y-102507796D01*
X160734592Y-100031000D01*
X163298095Y-100031000D01*
X161974341Y-101318977D01*
X161974341Y-101318977D01*
G37*
X161974341Y-101318977D02*
X161865135Y-101318882D01*
X161614748Y-101422339D01*
X161423013Y-101613741D01*
X161319118Y-101863946D01*
X161318882Y-102134865D01*
X161422339Y-102385252D01*
X161613741Y-102576987D01*
X161863946Y-102680882D01*
X162134865Y-102681118D01*
X162385252Y-102577661D01*
X162576987Y-102386259D01*
X162680882Y-102136054D01*
X162680963Y-102043430D01*
X164055543Y-100706000D01*
X164339672Y-100706000D01*
X164309396Y-100712022D01*
X164218356Y-100727727D01*
X164212803Y-100731236D01*
X164206362Y-100732517D01*
X164129554Y-100783838D01*
X164051452Y-100833189D01*
X164047665Y-100838555D01*
X164042204Y-100842204D01*
X163990883Y-100919011D01*
X163937611Y-100994494D01*
X163822868Y-101252665D01*
X163714748Y-101297339D01*
X163523013Y-101488741D01*
X163419118Y-101738946D01*
X163418882Y-102009865D01*
X163522339Y-102260252D01*
X163713741Y-102451987D01*
X163963946Y-102555882D01*
X164234865Y-102556118D01*
X164485252Y-102452661D01*
X164537445Y-102400558D01*
X164613741Y-102476987D01*
X164863946Y-102580882D01*
X165134865Y-102581118D01*
X165385252Y-102477661D01*
X165457038Y-102406000D01*
X166690408Y-102406000D01*
X167294000Y-103009592D01*
X167294000Y-103400000D01*
X167332517Y-103593638D01*
X167442204Y-103757796D01*
X168419000Y-104734592D01*
X168419000Y-105540408D01*
X167442204Y-106517204D01*
X167332517Y-106681362D01*
X167294000Y-106875000D01*
X167294000Y-107078408D01*
X166657796Y-106442204D01*
X166493638Y-106332517D01*
X166300000Y-106294000D01*
X166259592Y-106294000D01*
X166181031Y-106215439D01*
X166181118Y-106115135D01*
X166077661Y-105864748D01*
X165886259Y-105673013D01*
X165636054Y-105569118D01*
X165365135Y-105568882D01*
X165114748Y-105672339D01*
X165106000Y-105681072D01*
X165106000Y-103550000D01*
X165067483Y-103356362D01*
X164957796Y-103192204D01*
X164793638Y-103082517D01*
X164600000Y-103044000D01*
X163257123Y-103044000D01*
X163186259Y-102973013D01*
X162936054Y-102869118D01*
X162665135Y-102868882D01*
X162414748Y-102972339D01*
X162223013Y-103163741D01*
X162119118Y-103413946D01*
X162118882Y-103684865D01*
X162222339Y-103935252D01*
X162413741Y-104126987D01*
X162663946Y-104230882D01*
X162934865Y-104231118D01*
X163185252Y-104127661D01*
X163257038Y-104056000D01*
X164094000Y-104056000D01*
X164094000Y-104607798D01*
X164061054Y-104594118D01*
X163790135Y-104593882D01*
X163539748Y-104697339D01*
X163348013Y-104888741D01*
X163244118Y-105138946D01*
X163244030Y-105240378D01*
X163065408Y-105419000D01*
X154775000Y-105419000D01*
X154724858Y-105428974D01*
X154677661Y-105314748D01*
X154606000Y-105242962D01*
X154606000Y-104215297D01*
X154763946Y-104280882D01*
X155034865Y-104281118D01*
X155285252Y-104177661D01*
X155476987Y-103986259D01*
X155580882Y-103736054D01*
X155580970Y-103634622D01*
X156559592Y-102656000D01*
X157900000Y-102656000D01*
X158093638Y-102617483D01*
X158257796Y-102507796D01*
X160734592Y-100031000D01*
X163298095Y-100031000D01*
X161974341Y-101318977D01*
M02*
