G04 #@! TF.FileFunction,Legend,Bot*
%FSLAX46Y46*%
G04 Gerber Fmt 4.6, Leading zero omitted, Abs format (unit mm)*
G04 Created by KiCad (PCBNEW (2015-11-24 BZR 6329)-product) date Thu 30 Jun 2016 09:23:37 AM EDT*
%MOMM*%
G01*
G04 APERTURE LIST*
%ADD10C,0.100000*%
%ADD11C,0.300000*%
%ADD12C,0.150000*%
G04 APERTURE END LIST*
D10*
D11*
X148176571Y-99737143D02*
X148319428Y-99808571D01*
X148605142Y-99808571D01*
X148747999Y-99737143D01*
X148819428Y-99594286D01*
X148819428Y-99022857D01*
X148747999Y-98880000D01*
X148605142Y-98808571D01*
X148319428Y-98808571D01*
X148176571Y-98880000D01*
X148105142Y-99022857D01*
X148105142Y-99165714D01*
X148819428Y-99308571D01*
X147533714Y-99737143D02*
X147390857Y-99808571D01*
X147105142Y-99808571D01*
X146962285Y-99737143D01*
X146890857Y-99594286D01*
X146890857Y-99522857D01*
X146962285Y-99380000D01*
X147105142Y-99308571D01*
X147319428Y-99308571D01*
X147462285Y-99237143D01*
X147533714Y-99094286D01*
X147533714Y-99022857D01*
X147462285Y-98880000D01*
X147319428Y-98808571D01*
X147105142Y-98808571D01*
X146962285Y-98880000D01*
X146247999Y-98808571D02*
X146247999Y-100308571D01*
X146247999Y-98880000D02*
X146105142Y-98808571D01*
X145819428Y-98808571D01*
X145676571Y-98880000D01*
X145605142Y-98951429D01*
X145533713Y-99094286D01*
X145533713Y-99522857D01*
X145605142Y-99665714D01*
X145676571Y-99737143D01*
X145819428Y-99808571D01*
X146105142Y-99808571D01*
X146247999Y-99737143D01*
X144247999Y-98808571D02*
X144247999Y-99808571D01*
X144890856Y-98808571D02*
X144890856Y-99594286D01*
X144819428Y-99737143D01*
X144676570Y-99808571D01*
X144462285Y-99808571D01*
X144319428Y-99737143D01*
X144247999Y-99665714D01*
X143605142Y-99737143D02*
X143462285Y-99808571D01*
X143176570Y-99808571D01*
X143033713Y-99737143D01*
X142962285Y-99594286D01*
X142962285Y-99522857D01*
X143033713Y-99380000D01*
X143176570Y-99308571D01*
X143390856Y-99308571D01*
X143533713Y-99237143D01*
X143605142Y-99094286D01*
X143605142Y-99022857D01*
X143533713Y-98880000D01*
X143390856Y-98808571D01*
X143176570Y-98808571D01*
X143033713Y-98880000D01*
X142319427Y-99808571D02*
X142319427Y-98308571D01*
X142319427Y-98880000D02*
X142176570Y-98808571D01*
X141890856Y-98808571D01*
X141747999Y-98880000D01*
X141676570Y-98951429D01*
X141605141Y-99094286D01*
X141605141Y-99522857D01*
X141676570Y-99665714D01*
X141747999Y-99737143D01*
X141890856Y-99808571D01*
X142176570Y-99808571D01*
X142319427Y-99737143D01*
X139819427Y-99808571D02*
X139819427Y-98808571D01*
X139819427Y-99094286D02*
X139747999Y-98951429D01*
X139676570Y-98880000D01*
X139533713Y-98808571D01*
X139390856Y-98808571D01*
X138105142Y-99808571D02*
X138962285Y-99808571D01*
X138533713Y-99808571D02*
X138533713Y-98308571D01*
X138676570Y-98522857D01*
X138819428Y-98665714D01*
X138962285Y-98737143D01*
X136676571Y-99808571D02*
X137533714Y-99808571D01*
X137105142Y-99808571D02*
X137105142Y-98308571D01*
X137247999Y-98522857D01*
X137390857Y-98665714D01*
X137533714Y-98737143D01*
X153426571Y-100708571D02*
X153069428Y-102208571D01*
X152783714Y-101137143D01*
X152498000Y-102208571D01*
X152140857Y-100708571D01*
X151569428Y-102208571D02*
X151569428Y-100708571D01*
X150926571Y-102208571D02*
X150926571Y-101422857D01*
X150998000Y-101280000D01*
X151140857Y-101208571D01*
X151355142Y-101208571D01*
X151498000Y-101280000D01*
X151569428Y-101351429D01*
X150212285Y-102208571D02*
X150212285Y-101208571D01*
X150212285Y-100708571D02*
X150283714Y-100780000D01*
X150212285Y-100851429D01*
X150140857Y-100780000D01*
X150212285Y-100708571D01*
X150212285Y-100851429D01*
X149712285Y-101208571D02*
X149140856Y-101208571D01*
X149497999Y-100708571D02*
X149497999Y-101994286D01*
X149426571Y-102137143D01*
X149283713Y-102208571D01*
X149140856Y-102208571D01*
X148069428Y-102137143D02*
X148212285Y-102208571D01*
X148497999Y-102208571D01*
X148640856Y-102137143D01*
X148712285Y-101994286D01*
X148712285Y-101422857D01*
X148640856Y-101280000D01*
X148497999Y-101208571D01*
X148212285Y-101208571D01*
X148069428Y-101280000D01*
X147997999Y-101422857D01*
X147997999Y-101565714D01*
X148712285Y-101708571D01*
X147569428Y-101208571D02*
X146997999Y-101208571D01*
X147355142Y-102208571D02*
X147355142Y-100922857D01*
X147283714Y-100780000D01*
X147140856Y-100708571D01*
X146997999Y-100708571D01*
X146283713Y-102208571D02*
X146426571Y-102137143D01*
X146497999Y-102065714D01*
X146569428Y-101922857D01*
X146569428Y-101494286D01*
X146497999Y-101351429D01*
X146426571Y-101280000D01*
X146283713Y-101208571D01*
X146069428Y-101208571D01*
X145926571Y-101280000D01*
X145855142Y-101351429D01*
X145783713Y-101494286D01*
X145783713Y-101922857D01*
X145855142Y-102065714D01*
X145926571Y-102137143D01*
X146069428Y-102208571D01*
X146283713Y-102208571D01*
X145140856Y-102208571D02*
X145140856Y-101208571D01*
X145140856Y-101494286D02*
X145069428Y-101351429D01*
X144997999Y-101280000D01*
X144855142Y-101208571D01*
X144712285Y-101208571D01*
X143569428Y-102208571D02*
X143569428Y-100708571D01*
X143569428Y-102137143D02*
X143712285Y-102208571D01*
X143997999Y-102208571D01*
X144140857Y-102137143D01*
X144212285Y-102065714D01*
X144283714Y-101922857D01*
X144283714Y-101494286D01*
X144212285Y-101351429D01*
X144140857Y-101280000D01*
X143997999Y-101208571D01*
X143712285Y-101208571D01*
X143569428Y-101280000D01*
X140855142Y-102208571D02*
X141355142Y-101494286D01*
X141712285Y-102208571D02*
X141712285Y-100708571D01*
X141140857Y-100708571D01*
X140997999Y-100780000D01*
X140926571Y-100851429D01*
X140855142Y-100994286D01*
X140855142Y-101208571D01*
X140926571Y-101351429D01*
X140997999Y-101422857D01*
X141140857Y-101494286D01*
X141712285Y-101494286D01*
X139640857Y-102137143D02*
X139783714Y-102208571D01*
X140069428Y-102208571D01*
X140212285Y-102137143D01*
X140283714Y-101994286D01*
X140283714Y-101422857D01*
X140212285Y-101280000D01*
X140069428Y-101208571D01*
X139783714Y-101208571D01*
X139640857Y-101280000D01*
X139569428Y-101422857D01*
X139569428Y-101565714D01*
X140283714Y-101708571D01*
X138998000Y-102137143D02*
X138855143Y-102208571D01*
X138569428Y-102208571D01*
X138426571Y-102137143D01*
X138355143Y-101994286D01*
X138355143Y-101922857D01*
X138426571Y-101780000D01*
X138569428Y-101708571D01*
X138783714Y-101708571D01*
X138926571Y-101637143D01*
X138998000Y-101494286D01*
X138998000Y-101422857D01*
X138926571Y-101280000D01*
X138783714Y-101208571D01*
X138569428Y-101208571D01*
X138426571Y-101280000D01*
X137140857Y-102137143D02*
X137283714Y-102208571D01*
X137569428Y-102208571D01*
X137712285Y-102137143D01*
X137783714Y-101994286D01*
X137783714Y-101422857D01*
X137712285Y-101280000D01*
X137569428Y-101208571D01*
X137283714Y-101208571D01*
X137140857Y-101280000D01*
X137069428Y-101422857D01*
X137069428Y-101565714D01*
X137783714Y-101708571D01*
X135783714Y-102208571D02*
X135783714Y-101422857D01*
X135855143Y-101280000D01*
X135998000Y-101208571D01*
X136283714Y-101208571D01*
X136426571Y-101280000D01*
X135783714Y-102137143D02*
X135926571Y-102208571D01*
X136283714Y-102208571D01*
X136426571Y-102137143D01*
X136498000Y-101994286D01*
X136498000Y-101851429D01*
X136426571Y-101708571D01*
X136283714Y-101637143D01*
X135926571Y-101637143D01*
X135783714Y-101565714D01*
X135069428Y-102208571D02*
X135069428Y-101208571D01*
X135069428Y-101494286D02*
X134998000Y-101351429D01*
X134926571Y-101280000D01*
X134783714Y-101208571D01*
X134640857Y-101208571D01*
X133498000Y-102137143D02*
X133640857Y-102208571D01*
X133926571Y-102208571D01*
X134069429Y-102137143D01*
X134140857Y-102065714D01*
X134212286Y-101922857D01*
X134212286Y-101494286D01*
X134140857Y-101351429D01*
X134069429Y-101280000D01*
X133926571Y-101208571D01*
X133640857Y-101208571D01*
X133498000Y-101280000D01*
X132855143Y-102208571D02*
X132855143Y-100708571D01*
X132212286Y-102208571D02*
X132212286Y-101422857D01*
X132283715Y-101280000D01*
X132426572Y-101208571D01*
X132640857Y-101208571D01*
X132783715Y-101280000D01*
X132855143Y-101351429D01*
D12*
X158120000Y-96974000D02*
X158120000Y-113474000D01*
X158120000Y-113474000D02*
X172870000Y-113474000D01*
X172870000Y-113474000D02*
X173370000Y-113474000D01*
X173370000Y-113474000D02*
X173370000Y-96974000D01*
X173370000Y-96974000D02*
X158120000Y-96974000D01*
X166370000Y-100974000D02*
X166370000Y-105974000D01*
X166370000Y-105974000D02*
X167370000Y-104974000D01*
X167370000Y-104974000D02*
X166370000Y-105974000D01*
X166370000Y-105974000D02*
X165370000Y-104974000D01*
M02*
