G04 #@! TF.FileFunction,Copper,L1,Top,Signal*
%FSLAX46Y46*%
G04 Gerber Fmt 4.6, Leading zero omitted, Abs format (unit mm)*
G04 Created by KiCad (PCBNEW (2015-11-24 BZR 6329)-product) date Thu 05 May 2016 01:06:23 PM EDT*
%MOMM*%
G01*
G04 APERTURE LIST*
%ADD10C,0.100000*%
%ADD11R,0.450000X1.750000*%
%ADD12C,1.501140*%
%ADD13C,2.999740*%
%ADD14C,1.200000*%
%ADD15R,0.900000X1.200000*%
%ADD16R,1.200000X0.900000*%
%ADD17R,2.032000X2.032000*%
%ADD18O,2.032000X2.032000*%
%ADD19R,1.000000X3.000000*%
%ADD20R,1.300000X1.500000*%
%ADD21R,0.600000X1.000760*%
%ADD22R,4.000000X0.700000*%
%ADD23R,0.700000X2.000000*%
%ADD24R,8.000000X0.700000*%
%ADD25R,0.700000X1.500000*%
%ADD26R,0.700000X4.000000*%
%ADD27R,0.700000X7.000000*%
%ADD28R,0.600000X0.500000*%
%ADD29R,0.500000X0.600000*%
%ADD30R,1.000000X1.250000*%
%ADD31R,0.250000X0.700000*%
%ADD32R,0.700000X0.250000*%
%ADD33R,1.725000X1.725000*%
%ADD34R,1.550000X0.600000*%
%ADD35R,0.800000X1.100000*%
%ADD36R,1.727200X1.727200*%
%ADD37O,1.727200X1.727200*%
%ADD38R,1.727200X2.032000*%
%ADD39O,1.727200X2.032000*%
%ADD40C,0.600000*%
%ADD41C,0.250000*%
%ADD42C,0.254000*%
G04 APERTURE END LIST*
D10*
D11*
X142025000Y-101800000D03*
X141375000Y-101800000D03*
X140725000Y-101800000D03*
X140075000Y-101800000D03*
X139425000Y-101800000D03*
X138775000Y-101800000D03*
X138125000Y-101800000D03*
X137475000Y-101800000D03*
X136825000Y-101800000D03*
X136175000Y-101800000D03*
X135525000Y-101800000D03*
X134875000Y-101800000D03*
X134225000Y-101800000D03*
X133575000Y-101800000D03*
X133575000Y-109000000D03*
X134225000Y-109000000D03*
X134875000Y-109000000D03*
X135525000Y-109000000D03*
X136175000Y-109000000D03*
X136825000Y-109000000D03*
X137475000Y-109000000D03*
X138125000Y-109000000D03*
X138775000Y-109000000D03*
X139425000Y-109000000D03*
X140075000Y-109000000D03*
X140725000Y-109000000D03*
X141375000Y-109000000D03*
X142025000Y-109000000D03*
D12*
X126700000Y-102450000D03*
X126700000Y-104950000D03*
X126700000Y-106960000D03*
X126700000Y-109450000D03*
D13*
X124600000Y-100100000D03*
X124600000Y-111800000D03*
D14*
X124600000Y-103700000D03*
X124600000Y-108200000D03*
D15*
X145000000Y-102900000D03*
X145000000Y-100700000D03*
X150400000Y-102900000D03*
X150400000Y-105100000D03*
X146400000Y-106700000D03*
X146400000Y-108900000D03*
D16*
X135100000Y-111800000D03*
X137300000Y-111800000D03*
D17*
X142600000Y-112200000D03*
D18*
X140060000Y-112200000D03*
D19*
X146600000Y-99600000D03*
X148600000Y-99600000D03*
D20*
X144400000Y-106450000D03*
X144400000Y-109150000D03*
D21*
X146650040Y-105100480D03*
X147600000Y-105100480D03*
X148549960Y-105100480D03*
X148549960Y-102300000D03*
X146650040Y-102300000D03*
D22*
X180600000Y-110000000D03*
D23*
X178950000Y-109200000D03*
X182250000Y-107750000D03*
D22*
X180600000Y-108500000D03*
D23*
X178950000Y-106300000D03*
D22*
X180600000Y-107000000D03*
D23*
X182250000Y-104800000D03*
D22*
X180600000Y-105500000D03*
D23*
X178950000Y-103400000D03*
D24*
X178600000Y-101050000D03*
D22*
X180600000Y-102500000D03*
D25*
X182250000Y-101850000D03*
D22*
X180600000Y-104050000D03*
D26*
X182250000Y-111650000D03*
D27*
X176600000Y-104900000D03*
D28*
X172650000Y-101000000D03*
X173750000Y-101000000D03*
X174250000Y-103500000D03*
X175350000Y-103500000D03*
D29*
X175450000Y-107900000D03*
X175450000Y-109000000D03*
D30*
X167550000Y-98850000D03*
X169550000Y-98850000D03*
D29*
X174000000Y-100150000D03*
X174000000Y-99050000D03*
X172400000Y-100150000D03*
X172400000Y-99050000D03*
D28*
X160450000Y-102600000D03*
X161550000Y-102600000D03*
D29*
X172950000Y-103350000D03*
X172950000Y-102250000D03*
D28*
X161550000Y-104000000D03*
X160450000Y-104000000D03*
X161550000Y-105400000D03*
X160450000Y-105400000D03*
D31*
X170350000Y-101400000D03*
X169850000Y-101400000D03*
X169350000Y-101400000D03*
X168850000Y-101400000D03*
X168350000Y-101400000D03*
X167850000Y-101400000D03*
X167350000Y-101400000D03*
X166850000Y-101400000D03*
D32*
X166200000Y-102050000D03*
X166200000Y-102550000D03*
X166200000Y-103050000D03*
X166200000Y-103550000D03*
X166200000Y-104050000D03*
X166200000Y-104550000D03*
X166200000Y-105050000D03*
X166200000Y-105550000D03*
D31*
X166850000Y-106200000D03*
X167350000Y-106200000D03*
X167850000Y-106200000D03*
X168350000Y-106200000D03*
X168850000Y-106200000D03*
X169350000Y-106200000D03*
X169850000Y-106200000D03*
X170350000Y-106200000D03*
D32*
X171000000Y-105550000D03*
X171000000Y-105050000D03*
X171000000Y-104550000D03*
X171000000Y-104050000D03*
X171000000Y-103550000D03*
X171000000Y-103050000D03*
X171000000Y-102550000D03*
X171000000Y-102050000D03*
D33*
X167737500Y-104662500D03*
X169462500Y-104662500D03*
X167737500Y-102937500D03*
X169462500Y-102937500D03*
D34*
X165700000Y-109095000D03*
X165700000Y-110365000D03*
X165700000Y-111635000D03*
X165700000Y-112905000D03*
X171100000Y-112905000D03*
X171100000Y-111635000D03*
X171100000Y-110365000D03*
X171100000Y-109095000D03*
D35*
X174200000Y-104900000D03*
X175300000Y-104900000D03*
X174200000Y-106400000D03*
X175300000Y-106400000D03*
D36*
X149200000Y-109800000D03*
D37*
X149200000Y-112340000D03*
X151740000Y-109800000D03*
X151740000Y-112340000D03*
X154280000Y-109800000D03*
X154280000Y-112340000D03*
X156820000Y-109800000D03*
X156820000Y-112340000D03*
D38*
X156400000Y-99800000D03*
D39*
X153860000Y-99800000D03*
X151320000Y-99800000D03*
D40*
X144200000Y-105200000D03*
X175650000Y-102325000D03*
X167737500Y-104662500D03*
X160325000Y-104375000D03*
X158050000Y-104250000D03*
X169462500Y-102937500D03*
X168450000Y-111775000D03*
X173000000Y-112300000D03*
X163575000Y-111975000D03*
X166875000Y-112575000D03*
X174025000Y-98325000D03*
X169525000Y-98000000D03*
X174600000Y-107575000D03*
X175900000Y-109625000D03*
X161200000Y-112800000D03*
X159625000Y-109700000D03*
X172000000Y-103250000D03*
X170600000Y-101300000D03*
X167500000Y-99450000D03*
X169200000Y-100950000D03*
X172950000Y-110750000D03*
X165500000Y-106250000D03*
X172650000Y-106300000D03*
X142400000Y-100300000D03*
X172600000Y-105200000D03*
X140000000Y-99700000D03*
X162800000Y-103550000D03*
X163925000Y-106200000D03*
X165000000Y-101900000D03*
X164100000Y-101875000D03*
X171800000Y-106350000D03*
X171200000Y-108200000D03*
X172525000Y-107100000D03*
X175450000Y-112575000D03*
X175450000Y-110800000D03*
X170950000Y-106900000D03*
X163875000Y-99525000D03*
X154900000Y-103600000D03*
X150900000Y-107600000D03*
X151650000Y-104725000D03*
X154200000Y-102150000D03*
X155250000Y-102250000D03*
X154100000Y-105700000D03*
X163925000Y-105275000D03*
X169100000Y-112525000D03*
X169850000Y-111150000D03*
X169000000Y-107800000D03*
X172400000Y-108000000D03*
X162000000Y-102000000D03*
X171400000Y-101600000D03*
D41*
X140000000Y-104000000D02*
X140075000Y-103925000D01*
X148549960Y-105100480D02*
X148549960Y-106050040D01*
X147900000Y-106700000D02*
X146400000Y-106700000D01*
X148549960Y-106050040D02*
X147900000Y-106700000D01*
X146650040Y-105100480D02*
X144299520Y-105100480D01*
X144299520Y-105100480D02*
X144200000Y-105200000D01*
X145000000Y-102900000D02*
X145000000Y-104400000D01*
X145000000Y-104400000D02*
X144200000Y-105200000D01*
X144200000Y-105200000D02*
X144200000Y-106250000D01*
X144400000Y-106450000D02*
X144200000Y-106250000D01*
X144400000Y-106450000D02*
X144650000Y-106700000D01*
X144650000Y-106700000D02*
X146400000Y-106700000D01*
X172950000Y-103350000D02*
X173375000Y-103350000D01*
X175350000Y-102625000D02*
X175650000Y-102325000D01*
X175350000Y-102625000D02*
X175350000Y-103500000D01*
X175000000Y-102325000D02*
X175650000Y-102325000D01*
X174550000Y-102775000D02*
X175000000Y-102325000D01*
X173950000Y-102775000D02*
X174550000Y-102775000D01*
X173375000Y-103350000D02*
X173950000Y-102775000D01*
X160450000Y-104000000D02*
X160450000Y-104250000D01*
X160450000Y-104250000D02*
X160325000Y-104375000D01*
X167737500Y-102937500D02*
X169462500Y-102937500D01*
X169462500Y-102937500D02*
X169462500Y-104662500D01*
X168450000Y-111775000D02*
X168450000Y-111750000D01*
X173000000Y-112300000D02*
X173800000Y-112300000D01*
X176225000Y-109950000D02*
X175900000Y-109625000D01*
X176225000Y-111300000D02*
X176225000Y-109950000D01*
X175775000Y-111750000D02*
X176225000Y-111300000D01*
X174350000Y-111750000D02*
X175775000Y-111750000D01*
X173800000Y-112300000D02*
X174350000Y-111750000D01*
X165700000Y-112905000D02*
X164505000Y-112905000D01*
X164505000Y-112905000D02*
X163575000Y-111975000D01*
X165700000Y-112905000D02*
X165855000Y-112750000D01*
X165855000Y-112750000D02*
X166700000Y-112750000D01*
X166700000Y-112750000D02*
X166875000Y-112575000D01*
X174025000Y-98325000D02*
X174025000Y-99025000D01*
X174025000Y-99025000D02*
X174000000Y-99050000D01*
X169550000Y-98850000D02*
X169525000Y-98825000D01*
X169525000Y-98825000D02*
X169525000Y-98000000D01*
X175350000Y-103500000D02*
X175375000Y-103525000D01*
X174200000Y-106400000D02*
X174275000Y-106475000D01*
X174275000Y-106475000D02*
X174275000Y-107250000D01*
X174275000Y-107250000D02*
X174600000Y-107575000D01*
X175900000Y-109625000D02*
X175900000Y-109450000D01*
X175900000Y-109450000D02*
X175450000Y-109000000D01*
X161200000Y-112800000D02*
X161250000Y-112800000D01*
X166200000Y-103050000D02*
X164200000Y-103050000D01*
X162650000Y-102650000D02*
X162050000Y-103250000D01*
X163800000Y-102650000D02*
X162650000Y-102650000D01*
X164200000Y-103050000D02*
X163800000Y-102650000D01*
X160450000Y-108875000D02*
X160450000Y-105400000D01*
X159625000Y-109700000D02*
X160450000Y-108875000D01*
X165500000Y-106250000D02*
X165500000Y-106525000D01*
X162500000Y-106050000D02*
X161100000Y-106050000D01*
X161100000Y-106050000D02*
X160450000Y-105400000D01*
X163425000Y-106975000D02*
X162500000Y-106050000D01*
X165050000Y-106975000D02*
X163425000Y-106975000D01*
X165500000Y-106525000D02*
X165050000Y-106975000D01*
X159400000Y-102600000D02*
X160450000Y-102600000D01*
X162100000Y-103250000D02*
X162050000Y-103250000D01*
X162050000Y-103250000D02*
X160800000Y-103250000D01*
X160800000Y-103250000D02*
X160450000Y-102900000D01*
X160450000Y-102900000D02*
X160450000Y-102600000D01*
X171800000Y-103050000D02*
X171000000Y-103050000D01*
X172000000Y-103250000D02*
X171800000Y-103050000D01*
X170350000Y-101400000D02*
X170500000Y-101400000D01*
X170500000Y-101400000D02*
X170600000Y-101300000D01*
X169350000Y-101400000D02*
X169350000Y-101100000D01*
X169350000Y-101100000D02*
X169200000Y-100950000D01*
X167500000Y-99450000D02*
X167550000Y-99400000D01*
X167550000Y-99400000D02*
X167550000Y-98850000D01*
X167350000Y-101400000D02*
X167350000Y-99050000D01*
X167350000Y-99050000D02*
X167550000Y-98850000D01*
X164150000Y-98850000D02*
X163100000Y-98850000D01*
X159300000Y-102600000D02*
X159400000Y-102600000D01*
X159400000Y-102600000D02*
X159400000Y-102550000D01*
X162750000Y-99200000D02*
X159400000Y-102550000D01*
X164150000Y-98850000D02*
X167550000Y-98850000D01*
X163100000Y-98850000D02*
X162750000Y-99200000D01*
X169350000Y-101400000D02*
X168850000Y-101400000D01*
X169350000Y-101400000D02*
X169350000Y-100950000D01*
X171100000Y-109095000D02*
X172245000Y-109095000D01*
X172950000Y-109800000D02*
X172950000Y-110750000D01*
X172245000Y-109095000D02*
X172950000Y-109800000D01*
X160450000Y-105400000D02*
X159450000Y-105400000D01*
X159450000Y-105400000D02*
X159350000Y-105300000D01*
X159300000Y-105250000D02*
X159300000Y-102600000D01*
X159350000Y-105300000D02*
X159300000Y-105250000D01*
X166850000Y-106200000D02*
X165550000Y-106200000D01*
X165550000Y-106200000D02*
X165500000Y-106250000D01*
X171000000Y-103550000D02*
X171000000Y-103050000D01*
X167300000Y-99100000D02*
X167550000Y-98850000D01*
X150400000Y-102900000D02*
X151320000Y-101980000D01*
X151320000Y-101980000D02*
X151320000Y-99800000D01*
X150400000Y-102900000D02*
X158500000Y-102900000D01*
X158800000Y-102600000D02*
X159300000Y-102600000D01*
X158500000Y-102900000D02*
X158800000Y-102600000D01*
X150400000Y-102900000D02*
X149149960Y-102900000D01*
X149149960Y-102900000D02*
X148549960Y-102300000D01*
X148549960Y-102300000D02*
X148549960Y-99650040D01*
X148549960Y-99650040D02*
X148600000Y-99600000D01*
X140075000Y-101800000D02*
X140075000Y-103125000D01*
X134875000Y-106125000D02*
X137000000Y-104000000D01*
X134875000Y-106125000D02*
X134875000Y-109000000D01*
X139200000Y-104000000D02*
X137000000Y-104000000D01*
X140075000Y-103125000D02*
X139200000Y-104000000D01*
X134875000Y-109000000D02*
X134875000Y-111575000D01*
X134875000Y-111575000D02*
X135100000Y-111800000D01*
X142600000Y-112200000D02*
X144400000Y-110400000D01*
X144400000Y-110400000D02*
X144400000Y-109150000D01*
X140060000Y-112200000D02*
X140000000Y-112200000D01*
X140000000Y-112200000D02*
X138400000Y-110600000D01*
X138400000Y-110600000D02*
X137000000Y-110600000D01*
X137000000Y-110600000D02*
X136825000Y-110425000D01*
X136825000Y-110425000D02*
X136825000Y-109000000D01*
X146650040Y-102300000D02*
X146650040Y-99650040D01*
X146650040Y-99650040D02*
X146600000Y-99600000D01*
X128800000Y-106400000D02*
X127600000Y-105200000D01*
X132000000Y-109600000D02*
X128800000Y-106400000D01*
X133400000Y-109600000D02*
X132000000Y-109600000D01*
X127600000Y-105200000D02*
X126950000Y-105200000D01*
X126950000Y-105200000D02*
X126700000Y-104950000D01*
X133575000Y-109000000D02*
X133575000Y-109425000D01*
X133575000Y-109425000D02*
X133400000Y-109600000D01*
X126700860Y-106959140D02*
X128559140Y-106959140D01*
X134225000Y-110175000D02*
X133800000Y-110600000D01*
X133800000Y-110600000D02*
X132200000Y-110600000D01*
X132200000Y-110600000D02*
X128559140Y-106959140D01*
X134225000Y-110175000D02*
X134225000Y-109000000D01*
X126700860Y-106959140D02*
X126700000Y-106960000D01*
X171900000Y-105550000D02*
X172650000Y-106300000D01*
X142025000Y-101800000D02*
X142025000Y-100675000D01*
X142025000Y-100675000D02*
X142400000Y-100300000D01*
X171900000Y-105550000D02*
X171000000Y-105550000D01*
X171050000Y-105600000D02*
X171000000Y-105550000D01*
X171000000Y-105050000D02*
X172450000Y-105050000D01*
X172450000Y-105050000D02*
X172600000Y-105200000D01*
X140000000Y-99700000D02*
X139425000Y-100275000D01*
X139425000Y-101800000D02*
X139425000Y-100275000D01*
X174000000Y-100150000D02*
X174000000Y-100750000D01*
X174000000Y-100750000D02*
X173750000Y-101000000D01*
X172400000Y-100150000D02*
X172400000Y-100750000D01*
X172400000Y-100750000D02*
X172650000Y-101000000D01*
X172650000Y-101000000D02*
X171600000Y-101000000D01*
X169850000Y-100950000D02*
X169850000Y-101400000D01*
X170200000Y-100600000D02*
X169850000Y-100950000D01*
X171200000Y-100600000D02*
X170200000Y-100600000D01*
X171600000Y-101000000D02*
X171200000Y-100600000D01*
X174200000Y-104900000D02*
X174100000Y-104900000D01*
X174100000Y-104900000D02*
X173250000Y-104050000D01*
X173250000Y-104050000D02*
X171000000Y-104050000D01*
X174200000Y-104900000D02*
X174200000Y-103550000D01*
X174200000Y-103550000D02*
X174250000Y-103500000D01*
X174450000Y-104950000D02*
X174500000Y-105000000D01*
X175450000Y-107900000D02*
X175050000Y-108300000D01*
X172950000Y-104550000D02*
X173400000Y-105000000D01*
X173400000Y-105000000D02*
X173400000Y-107300000D01*
X172950000Y-104550000D02*
X171000000Y-104550000D01*
X174325000Y-108225000D02*
X173400000Y-107300000D01*
X174325000Y-108300000D02*
X174325000Y-108225000D01*
X175050000Y-108300000D02*
X174325000Y-108300000D01*
X175450000Y-107900000D02*
X175450000Y-106550000D01*
X175450000Y-106550000D02*
X175300000Y-106400000D01*
X175550000Y-106550000D02*
X175600000Y-106500000D01*
X165350000Y-103550000D02*
X164300000Y-103550000D01*
X166200000Y-103550000D02*
X165350000Y-103550000D01*
X164300000Y-103550000D02*
X162800000Y-103550000D01*
X164850000Y-105550000D02*
X164075000Y-106100000D01*
X166200000Y-105550000D02*
X164850000Y-105550000D01*
X163925000Y-106200000D02*
X163975000Y-106150000D01*
X165000000Y-101900000D02*
X165150000Y-102050000D01*
X166200000Y-102050000D02*
X165150000Y-102050000D01*
X166200000Y-102550000D02*
X164550000Y-102550000D01*
X164550000Y-102550000D02*
X164250000Y-102025000D01*
X164250000Y-102025000D02*
X164100000Y-101875000D01*
X164100000Y-101875000D02*
X164250000Y-102025000D01*
X171800000Y-107600000D02*
X171800000Y-106350000D01*
X171200000Y-108200000D02*
X171800000Y-107600000D01*
X175000000Y-110350000D02*
X175450000Y-110800000D01*
X149200000Y-109800000D02*
X148050000Y-109800000D01*
X147150000Y-110700000D02*
X148050000Y-109800000D01*
X147150000Y-113300000D02*
X147150000Y-110700000D01*
X147950000Y-114100000D02*
X147150000Y-113300000D01*
X149350000Y-114100000D02*
X147950000Y-114100000D01*
X152900000Y-114100000D02*
X149350000Y-114100000D01*
X158550000Y-114100000D02*
X152900000Y-114100000D01*
X163400000Y-114100000D02*
X158550000Y-114100000D01*
X173800000Y-114100000D02*
X163400000Y-114100000D01*
X175000000Y-112900000D02*
X173800000Y-114100000D01*
X173600000Y-108950000D02*
X175000000Y-110350000D01*
X173044301Y-108394301D02*
X173044301Y-107669301D01*
X173044301Y-107669301D02*
X173044301Y-107619301D01*
X173044301Y-107619301D02*
X172525000Y-107100000D01*
X173600000Y-108950000D02*
X173044301Y-108394301D01*
X175125000Y-112900000D02*
X175000000Y-112900000D01*
X175450000Y-112575000D02*
X175125000Y-112900000D01*
X170350000Y-106200000D02*
X170350000Y-106300000D01*
X170350000Y-106300000D02*
X170950000Y-106900000D01*
X151740000Y-109800000D02*
X151740000Y-106760000D01*
X165750000Y-101400000D02*
X166850000Y-101400000D01*
X163875000Y-99525000D02*
X165750000Y-101400000D01*
X151740000Y-106760000D02*
X154900000Y-103600000D01*
X168350000Y-101400000D02*
X168350000Y-100800000D01*
X150900000Y-106750000D02*
X150900000Y-107600000D01*
X151600000Y-106050000D02*
X150900000Y-106750000D01*
X151600000Y-104775000D02*
X151600000Y-106050000D01*
X151650000Y-104725000D02*
X151600000Y-104775000D01*
X155000000Y-101350000D02*
X154200000Y-102150000D01*
X159249998Y-101350000D02*
X155000000Y-101350000D01*
X163349998Y-97250000D02*
X159249998Y-101350000D01*
X169900000Y-97250000D02*
X163349998Y-97250000D01*
X170650000Y-98000000D02*
X169900000Y-97250000D01*
X170650000Y-99400000D02*
X170650000Y-98000000D01*
X170150000Y-99900000D02*
X170650000Y-99400000D01*
X169250000Y-99900000D02*
X170150000Y-99900000D01*
X168350000Y-100800000D02*
X169250000Y-99900000D01*
X158450000Y-108000000D02*
X158425000Y-108000000D01*
X167850000Y-100350000D02*
X168450000Y-99750000D01*
X168450000Y-99750000D02*
X168450000Y-97900000D01*
X168450000Y-97900000D02*
X168300000Y-97750000D01*
X168300000Y-97750000D02*
X163500000Y-97750000D01*
X163500000Y-97750000D02*
X159400000Y-101850000D01*
X159400000Y-101850000D02*
X155650000Y-101850000D01*
X155650000Y-101850000D02*
X155250000Y-102250000D01*
X154100000Y-105700000D02*
X156050000Y-107650000D01*
X158450000Y-108000000D02*
X158450000Y-113300000D01*
X158450000Y-113300000D02*
X158100002Y-113649998D01*
X158100002Y-113649998D02*
X155589998Y-113649998D01*
X154280000Y-112340000D02*
X155589998Y-113649998D01*
X167850000Y-100350000D02*
X167850000Y-101400000D01*
X158075000Y-107650000D02*
X156050000Y-107650000D01*
X158425000Y-108000000D02*
X158075000Y-107650000D01*
X164150000Y-105050000D02*
X166200000Y-105050000D01*
X163925000Y-105275000D02*
X164150000Y-105050000D01*
X172950000Y-102250000D02*
X172200000Y-102250000D01*
X171650000Y-102550000D02*
X171000000Y-102550000D01*
X171950000Y-102250000D02*
X171650000Y-102550000D01*
X172200000Y-102250000D02*
X171950000Y-102250000D01*
X166200000Y-104050000D02*
X163399998Y-104050000D01*
X162125000Y-104000000D02*
X161550000Y-104000000D01*
X162350000Y-104225000D02*
X162125000Y-104000000D01*
X163224998Y-104225000D02*
X162350000Y-104225000D01*
X163399998Y-104050000D02*
X163224998Y-104225000D01*
X166200000Y-104550000D02*
X163700000Y-104550000D01*
X162200000Y-104750000D02*
X161550000Y-105400000D01*
X163500000Y-104750000D02*
X162200000Y-104750000D01*
X163700000Y-104550000D02*
X163500000Y-104750000D01*
X171100000Y-110365000D02*
X170510000Y-110365000D01*
X170510000Y-110365000D02*
X169850000Y-111150000D01*
X167400000Y-113600000D02*
X168000000Y-113600000D01*
X164212500Y-113612500D02*
X167400000Y-113600000D01*
X164212500Y-113612500D02*
X162637500Y-112037500D01*
X168025000Y-113600000D02*
X168000000Y-113600000D01*
X169100000Y-112525000D02*
X168025000Y-113600000D01*
X162637500Y-112037500D02*
X162625000Y-112025000D01*
X167350000Y-106650000D02*
X166450002Y-107549998D01*
X166450002Y-107549998D02*
X163650002Y-107549998D01*
X163650002Y-107549998D02*
X163000000Y-108200000D01*
X167350000Y-106650000D02*
X167350000Y-106200000D01*
X162625000Y-108575000D02*
X163000000Y-108200000D01*
X162625000Y-112025000D02*
X162625000Y-108575000D01*
X162612500Y-112012500D02*
X162637500Y-112037500D01*
X171765000Y-110365000D02*
X171100000Y-110365000D01*
X164000000Y-108000000D02*
X166800000Y-108000000D01*
X164435000Y-111635000D02*
X163600000Y-110800000D01*
X163600000Y-110800000D02*
X163600000Y-108400000D01*
X163600000Y-108400000D02*
X164000000Y-108000000D01*
X165700000Y-111635000D02*
X164435000Y-111635000D01*
X167850000Y-106913602D02*
X167200000Y-107563602D01*
X167850000Y-106913602D02*
X167850000Y-106200000D01*
X167200000Y-107600000D02*
X167200000Y-107563602D01*
X166800000Y-108000000D02*
X167200000Y-107600000D01*
X168350000Y-107050000D02*
X167800000Y-107600000D01*
X168350000Y-106200000D02*
X168350000Y-107050000D01*
X167305000Y-109095000D02*
X165700000Y-109095000D01*
X167800000Y-108600000D02*
X167305000Y-109095000D01*
X167800000Y-107600000D02*
X167800000Y-108600000D01*
X165700000Y-109095000D02*
X166305000Y-109095000D01*
X173400000Y-109400000D02*
X173413602Y-109400000D01*
X172400000Y-108400000D02*
X173400000Y-109400000D01*
X173415000Y-111635000D02*
X171100000Y-111635000D01*
X173750000Y-111300000D02*
X173415000Y-111635000D01*
X173750000Y-109736398D02*
X173750000Y-111300000D01*
X173413602Y-109400000D02*
X173750000Y-109736398D01*
X172400000Y-108400000D02*
X172400000Y-108000000D01*
X168850000Y-107550000D02*
X169000000Y-107800000D01*
X168850000Y-107550000D02*
X168850000Y-106200000D01*
X172600000Y-108600000D02*
X172400000Y-108400000D01*
X172400000Y-108400000D02*
X172400000Y-108400000D01*
X169350000Y-106200000D02*
X169350000Y-107150000D01*
X168635000Y-110365000D02*
X165700000Y-110365000D01*
X169399998Y-109600002D02*
X168635000Y-110365000D01*
X169399998Y-108400002D02*
X169399998Y-109600002D01*
X169800000Y-108000000D02*
X169399998Y-108400002D01*
X169800000Y-107600000D02*
X169800000Y-108000000D01*
X169350000Y-107150000D02*
X169800000Y-107600000D01*
X165700000Y-110365000D02*
X166435000Y-110365000D01*
X169750000Y-112225000D02*
X169750000Y-112200000D01*
X169850000Y-110200000D02*
X169850000Y-109600002D01*
X169200000Y-110850000D02*
X169850000Y-110200000D01*
X169200000Y-111650000D02*
X169200000Y-110850000D01*
X169750000Y-112200000D02*
X169200000Y-111650000D01*
X171100000Y-112905000D02*
X170430000Y-112905000D01*
X170430000Y-112905000D02*
X169750000Y-112225000D01*
X169750000Y-112225000D02*
X169825000Y-112300000D01*
X169825000Y-109825000D02*
X169850000Y-109800000D01*
X169850000Y-109600002D02*
X169850000Y-109800000D01*
X169850000Y-108800000D02*
X169850000Y-109600002D01*
X169850000Y-108800000D02*
X170300000Y-108250000D01*
X170250000Y-107200000D02*
X169850000Y-106800000D01*
X169850000Y-106800000D02*
X169850000Y-106249998D01*
X170300000Y-107350000D02*
X170250000Y-107200000D01*
X170300000Y-108250000D02*
X170300000Y-107350000D01*
X169850000Y-108800000D02*
X169850000Y-108750000D01*
X169850000Y-106249998D02*
X169850000Y-106200000D01*
X162000000Y-102000000D02*
X161550000Y-102600000D01*
X171400000Y-101600000D02*
X171400000Y-101650000D01*
X171000000Y-102050000D02*
X171400000Y-101650000D01*
D42*
G36*
X159040406Y-100844000D02*
X157644600Y-100844000D01*
X157644600Y-100022250D01*
X157549350Y-99927000D01*
X156527000Y-99927000D01*
X156527000Y-99947000D01*
X156273000Y-99947000D01*
X156273000Y-99927000D01*
X155250650Y-99927000D01*
X155155400Y-100022250D01*
X155155400Y-100844000D01*
X155000000Y-100844000D01*
X154806362Y-100882517D01*
X154642204Y-100992204D01*
X154165439Y-101468969D01*
X154065135Y-101468882D01*
X153814748Y-101572339D01*
X153623013Y-101763741D01*
X153519118Y-102013946D01*
X153518882Y-102284865D01*
X153563975Y-102394000D01*
X151621592Y-102394000D01*
X151677796Y-102337796D01*
X151787483Y-102173638D01*
X151826000Y-101980000D01*
X151826000Y-101109776D01*
X152200065Y-100859834D01*
X152469860Y-100456057D01*
X152564600Y-99979769D01*
X152564600Y-99620231D01*
X152615400Y-99620231D01*
X152615400Y-99979769D01*
X152710140Y-100456057D01*
X152979935Y-100859834D01*
X153383712Y-101129629D01*
X153860000Y-101224369D01*
X154336288Y-101129629D01*
X154740065Y-100859834D01*
X155009860Y-100456057D01*
X155104600Y-99979769D01*
X155104600Y-99620231D01*
X155009860Y-99143943D01*
X154740065Y-98740166D01*
X154692247Y-98708215D01*
X155155400Y-98708215D01*
X155155400Y-99577750D01*
X155250650Y-99673000D01*
X156273000Y-99673000D01*
X156273000Y-98498250D01*
X156527000Y-98498250D01*
X156527000Y-99673000D01*
X157549350Y-99673000D01*
X157644600Y-99577750D01*
X157644600Y-98708215D01*
X157586596Y-98568181D01*
X157479420Y-98461004D01*
X157339386Y-98403000D01*
X156622250Y-98403000D01*
X156527000Y-98498250D01*
X156273000Y-98498250D01*
X156177750Y-98403000D01*
X155460614Y-98403000D01*
X155320580Y-98461004D01*
X155213404Y-98568181D01*
X155155400Y-98708215D01*
X154692247Y-98708215D01*
X154336288Y-98470371D01*
X153860000Y-98375631D01*
X153383712Y-98470371D01*
X152979935Y-98740166D01*
X152710140Y-99143943D01*
X152615400Y-99620231D01*
X152564600Y-99620231D01*
X152469860Y-99143943D01*
X152200065Y-98740166D01*
X151796288Y-98470371D01*
X151320000Y-98375631D01*
X150843712Y-98470371D01*
X150439935Y-98740166D01*
X150170140Y-99143943D01*
X150075400Y-99620231D01*
X150075400Y-99979769D01*
X150170140Y-100456057D01*
X150439935Y-100859834D01*
X150814000Y-101109776D01*
X150814000Y-101770408D01*
X150672872Y-101911536D01*
X149950000Y-101911536D01*
X149808810Y-101938103D01*
X149679135Y-102021546D01*
X149592141Y-102148866D01*
X149561536Y-102300000D01*
X149561536Y-102394000D01*
X149359552Y-102394000D01*
X149238424Y-102272872D01*
X149238424Y-101799620D01*
X149211857Y-101658430D01*
X149128414Y-101528755D01*
X149069446Y-101488464D01*
X149100000Y-101488464D01*
X149241190Y-101461897D01*
X149370865Y-101378454D01*
X149457859Y-101251134D01*
X149488464Y-101100000D01*
X149488464Y-98100000D01*
X149461897Y-97958810D01*
X149378454Y-97829135D01*
X149251134Y-97742141D01*
X149100000Y-97711536D01*
X148100000Y-97711536D01*
X147958810Y-97738103D01*
X147829135Y-97821546D01*
X147742141Y-97948866D01*
X147711536Y-98100000D01*
X147711536Y-101100000D01*
X147738103Y-101241190D01*
X147821546Y-101370865D01*
X147948866Y-101457859D01*
X148043960Y-101477116D01*
X148043960Y-101479427D01*
X147979095Y-101521166D01*
X147892101Y-101648486D01*
X147861496Y-101799620D01*
X147861496Y-102800380D01*
X147888063Y-102941570D01*
X147971506Y-103071245D01*
X148098826Y-103158239D01*
X148249960Y-103188844D01*
X148723212Y-103188844D01*
X148792164Y-103257796D01*
X148956322Y-103367483D01*
X149149960Y-103406000D01*
X149561536Y-103406000D01*
X149561536Y-103500000D01*
X149588103Y-103641190D01*
X149671546Y-103770865D01*
X149798866Y-103857859D01*
X149950000Y-103888464D01*
X150850000Y-103888464D01*
X150991190Y-103861897D01*
X151120865Y-103778454D01*
X151207859Y-103651134D01*
X151238464Y-103500000D01*
X151238464Y-103406000D01*
X154243179Y-103406000D01*
X154219118Y-103463946D01*
X154219030Y-103565378D01*
X152106000Y-105678408D01*
X152106000Y-105232036D01*
X152226987Y-105111259D01*
X152330882Y-104861054D01*
X152331118Y-104590135D01*
X152227661Y-104339748D01*
X152036259Y-104148013D01*
X151786054Y-104044118D01*
X151515135Y-104043882D01*
X151264748Y-104147339D01*
X151150352Y-104261536D01*
X151065819Y-104177004D01*
X150925785Y-104119000D01*
X150622250Y-104119000D01*
X150527000Y-104214250D01*
X150527000Y-104973000D01*
X150547000Y-104973000D01*
X150547000Y-105227000D01*
X150527000Y-105227000D01*
X150527000Y-105985750D01*
X150622250Y-106081000D01*
X150853408Y-106081000D01*
X150542204Y-106392204D01*
X150432517Y-106556362D01*
X150394000Y-106750000D01*
X150394000Y-107142877D01*
X150323013Y-107213741D01*
X150219118Y-107463946D01*
X150218882Y-107734865D01*
X150322339Y-107985252D01*
X150513741Y-108176987D01*
X150763946Y-108280882D01*
X151034865Y-108281118D01*
X151234000Y-108198838D01*
X151234000Y-108653701D01*
X150835552Y-108919935D01*
X150565757Y-109323712D01*
X150471017Y-109800000D01*
X150565757Y-110276288D01*
X150835552Y-110680065D01*
X151239329Y-110949860D01*
X151715617Y-111044600D01*
X151764383Y-111044600D01*
X152240671Y-110949860D01*
X152644448Y-110680065D01*
X152914243Y-110276288D01*
X153008983Y-109800000D01*
X153011017Y-109800000D01*
X153105757Y-110276288D01*
X153375552Y-110680065D01*
X153779329Y-110949860D01*
X154255617Y-111044600D01*
X154304383Y-111044600D01*
X154780671Y-110949860D01*
X155184448Y-110680065D01*
X155454243Y-110276288D01*
X155548983Y-109800000D01*
X155454243Y-109323712D01*
X155184448Y-108919935D01*
X154780671Y-108650140D01*
X154304383Y-108555400D01*
X154255617Y-108555400D01*
X153779329Y-108650140D01*
X153375552Y-108919935D01*
X153105757Y-109323712D01*
X153011017Y-109800000D01*
X153008983Y-109800000D01*
X152914243Y-109323712D01*
X152644448Y-108919935D01*
X152246000Y-108653701D01*
X152246000Y-106969592D01*
X153418915Y-105796677D01*
X153418882Y-105834865D01*
X153522339Y-106085252D01*
X153713741Y-106276987D01*
X153963946Y-106380882D01*
X154065378Y-106380970D01*
X155692204Y-108007796D01*
X155856362Y-108117483D01*
X156050000Y-108156000D01*
X157865408Y-108156000D01*
X157944000Y-108234592D01*
X157944000Y-109248518D01*
X157724448Y-108919935D01*
X157320671Y-108650140D01*
X156844383Y-108555400D01*
X156795617Y-108555400D01*
X156319329Y-108650140D01*
X155915552Y-108919935D01*
X155645757Y-109323712D01*
X155551017Y-109800000D01*
X155645757Y-110276288D01*
X155915552Y-110680065D01*
X156319329Y-110949860D01*
X156795617Y-111044600D01*
X156844383Y-111044600D01*
X157320671Y-110949860D01*
X157724448Y-110680065D01*
X157944000Y-110351482D01*
X157944000Y-111830157D01*
X157896305Y-111714999D01*
X157575199Y-111350690D01*
X157139120Y-111136995D01*
X156947000Y-111197135D01*
X156947000Y-112213000D01*
X156967000Y-112213000D01*
X156967000Y-112467000D01*
X156947000Y-112467000D01*
X156947000Y-112487000D01*
X156693000Y-112487000D01*
X156693000Y-112467000D01*
X155677688Y-112467000D01*
X155617007Y-112659118D01*
X155743695Y-112965001D01*
X155901465Y-113143998D01*
X155799590Y-113143998D01*
X155457169Y-112801577D01*
X155548983Y-112340000D01*
X155485507Y-112020882D01*
X155617007Y-112020882D01*
X155677688Y-112213000D01*
X156693000Y-112213000D01*
X156693000Y-111197135D01*
X156500880Y-111136995D01*
X156064801Y-111350690D01*
X155743695Y-111714999D01*
X155617007Y-112020882D01*
X155485507Y-112020882D01*
X155454243Y-111863712D01*
X155184448Y-111459935D01*
X154780671Y-111190140D01*
X154304383Y-111095400D01*
X154255617Y-111095400D01*
X153779329Y-111190140D01*
X153375552Y-111459935D01*
X153105757Y-111863712D01*
X153011017Y-112340000D01*
X153105757Y-112816288D01*
X153375552Y-113220065D01*
X153779329Y-113489860D01*
X154255617Y-113584600D01*
X154304383Y-113584600D01*
X154725285Y-113500877D01*
X154818408Y-113594000D01*
X148159592Y-113594000D01*
X147656000Y-113090408D01*
X147656000Y-112340000D01*
X147931017Y-112340000D01*
X148025757Y-112816288D01*
X148295552Y-113220065D01*
X148699329Y-113489860D01*
X149175617Y-113584600D01*
X149224383Y-113584600D01*
X149700671Y-113489860D01*
X150104448Y-113220065D01*
X150374243Y-112816288D01*
X150468983Y-112340000D01*
X150471017Y-112340000D01*
X150565757Y-112816288D01*
X150835552Y-113220065D01*
X151239329Y-113489860D01*
X151715617Y-113584600D01*
X151764383Y-113584600D01*
X152240671Y-113489860D01*
X152644448Y-113220065D01*
X152914243Y-112816288D01*
X153008983Y-112340000D01*
X152914243Y-111863712D01*
X152644448Y-111459935D01*
X152240671Y-111190140D01*
X151764383Y-111095400D01*
X151715617Y-111095400D01*
X151239329Y-111190140D01*
X150835552Y-111459935D01*
X150565757Y-111863712D01*
X150471017Y-112340000D01*
X150468983Y-112340000D01*
X150374243Y-111863712D01*
X150104448Y-111459935D01*
X149700671Y-111190140D01*
X149224383Y-111095400D01*
X149175617Y-111095400D01*
X148699329Y-111190140D01*
X148295552Y-111459935D01*
X148025757Y-111863712D01*
X147931017Y-112340000D01*
X147656000Y-112340000D01*
X147656000Y-110909592D01*
X147947936Y-110617656D01*
X147947936Y-110663600D01*
X147974503Y-110804790D01*
X148057946Y-110934465D01*
X148185266Y-111021459D01*
X148336400Y-111052064D01*
X150063600Y-111052064D01*
X150204790Y-111025497D01*
X150334465Y-110942054D01*
X150421459Y-110814734D01*
X150452064Y-110663600D01*
X150452064Y-108936400D01*
X150425497Y-108795210D01*
X150342054Y-108665535D01*
X150214734Y-108578541D01*
X150063600Y-108547936D01*
X148336400Y-108547936D01*
X148195210Y-108574503D01*
X148065535Y-108657946D01*
X147978541Y-108785266D01*
X147947936Y-108936400D01*
X147947936Y-109314302D01*
X147856362Y-109332517D01*
X147692204Y-109442204D01*
X146792204Y-110342204D01*
X146682517Y-110506362D01*
X146644000Y-110700000D01*
X146644000Y-113300000D01*
X146682517Y-113493638D01*
X146792204Y-113657796D01*
X147592204Y-114457796D01*
X147756362Y-114567483D01*
X147950000Y-114606000D01*
X173800000Y-114606000D01*
X173993638Y-114567483D01*
X174157796Y-114457796D01*
X175230596Y-113384996D01*
X175318638Y-113367483D01*
X175482796Y-113257796D01*
X175484561Y-113256031D01*
X175584865Y-113256118D01*
X175823000Y-113157723D01*
X175823000Y-114744000D01*
X124044911Y-114744000D01*
X123412555Y-114618216D01*
X122914544Y-114285456D01*
X122581784Y-113787445D01*
X122527000Y-113512028D01*
X122527000Y-113175350D01*
X123404256Y-113175350D01*
X123578014Y-113422709D01*
X124276791Y-113690285D01*
X125024775Y-113670082D01*
X125621986Y-113422709D01*
X125795744Y-113175350D01*
X124600000Y-111979605D01*
X123404256Y-113175350D01*
X122527000Y-113175350D01*
X122527000Y-111476791D01*
X122709715Y-111476791D01*
X122729918Y-112224775D01*
X122977291Y-112821986D01*
X123224650Y-112995744D01*
X124420395Y-111800000D01*
X124779605Y-111800000D01*
X125975350Y-112995744D01*
X126222709Y-112821986D01*
X126490285Y-112123209D01*
X126470082Y-111375225D01*
X126222709Y-110778014D01*
X125975350Y-110604256D01*
X124779605Y-111800000D01*
X124420395Y-111800000D01*
X123224650Y-110604256D01*
X122977291Y-110778014D01*
X122709715Y-111476791D01*
X122527000Y-111476791D01*
X122527000Y-110424650D01*
X123404256Y-110424650D01*
X124600000Y-111620395D01*
X125795744Y-110424650D01*
X125621986Y-110177291D01*
X124923209Y-109909715D01*
X124175225Y-109929918D01*
X123578014Y-110177291D01*
X123404256Y-110424650D01*
X122527000Y-110424650D01*
X122527000Y-109674096D01*
X125568234Y-109674096D01*
X125740142Y-110090146D01*
X126058180Y-110408739D01*
X126473929Y-110581373D01*
X126924096Y-110581766D01*
X127340146Y-110409858D01*
X127658739Y-110091820D01*
X127831373Y-109676071D01*
X127831766Y-109225904D01*
X127659858Y-108809854D01*
X127341820Y-108491261D01*
X126926071Y-108318627D01*
X126475904Y-108318234D01*
X126059854Y-108490142D01*
X125741261Y-108808180D01*
X125568627Y-109223929D01*
X125568234Y-109674096D01*
X122527000Y-109674096D01*
X122527000Y-108394277D01*
X123618830Y-108394277D01*
X123767864Y-108754966D01*
X124043583Y-109031166D01*
X124404011Y-109180829D01*
X124794277Y-109181170D01*
X125154966Y-109032136D01*
X125431166Y-108756417D01*
X125580829Y-108395989D01*
X125581170Y-108005723D01*
X125432136Y-107645034D01*
X125156417Y-107368834D01*
X124795989Y-107219171D01*
X124405723Y-107218830D01*
X124045034Y-107367864D01*
X123768834Y-107643583D01*
X123619171Y-108004011D01*
X123618830Y-108394277D01*
X122527000Y-108394277D01*
X122527000Y-105174096D01*
X125568234Y-105174096D01*
X125740142Y-105590146D01*
X126058180Y-105908739D01*
X126169348Y-105954900D01*
X126059854Y-106000142D01*
X125741261Y-106318180D01*
X125568627Y-106733929D01*
X125568234Y-107184096D01*
X125740142Y-107600146D01*
X126058180Y-107918739D01*
X126473929Y-108091373D01*
X126924096Y-108091766D01*
X127340146Y-107919858D01*
X127658739Y-107601820D01*
X127715493Y-107465140D01*
X128349548Y-107465140D01*
X131842204Y-110957796D01*
X132006362Y-111067483D01*
X132200000Y-111106000D01*
X133800000Y-111106000D01*
X133993638Y-111067483D01*
X134157796Y-110957796D01*
X134369000Y-110746592D01*
X134369000Y-110986186D01*
X134358810Y-110988103D01*
X134229135Y-111071546D01*
X134142141Y-111198866D01*
X134111536Y-111350000D01*
X134111536Y-112250000D01*
X134138103Y-112391190D01*
X134221546Y-112520865D01*
X134348866Y-112607859D01*
X134500000Y-112638464D01*
X135700000Y-112638464D01*
X135841190Y-112611897D01*
X135970865Y-112528454D01*
X136057859Y-112401134D01*
X136088464Y-112250000D01*
X136088464Y-112022250D01*
X136319000Y-112022250D01*
X136319000Y-112325785D01*
X136377004Y-112465819D01*
X136484180Y-112572996D01*
X136624214Y-112631000D01*
X137077750Y-112631000D01*
X137173000Y-112535750D01*
X137173000Y-111927000D01*
X137427000Y-111927000D01*
X137427000Y-112535750D01*
X137522250Y-112631000D01*
X137975786Y-112631000D01*
X138115820Y-112572996D01*
X138222996Y-112465819D01*
X138281000Y-112325785D01*
X138281000Y-112022250D01*
X138185750Y-111927000D01*
X137427000Y-111927000D01*
X137173000Y-111927000D01*
X136414250Y-111927000D01*
X136319000Y-112022250D01*
X136088464Y-112022250D01*
X136088464Y-111350000D01*
X136061897Y-111208810D01*
X135978454Y-111079135D01*
X135851134Y-110992141D01*
X135700000Y-110961536D01*
X135381000Y-110961536D01*
X135381000Y-110192250D01*
X135412500Y-110160750D01*
X135412500Y-110092519D01*
X135457859Y-110026134D01*
X135488464Y-109875000D01*
X135488464Y-108125000D01*
X135561536Y-108125000D01*
X135561536Y-109875000D01*
X135588103Y-110016190D01*
X135637500Y-110092956D01*
X135637500Y-110160750D01*
X135732750Y-110256000D01*
X135825785Y-110256000D01*
X135854469Y-110244119D01*
X135950000Y-110263464D01*
X136319000Y-110263464D01*
X136319000Y-110425000D01*
X136357517Y-110618638D01*
X136467204Y-110782796D01*
X136642204Y-110957796D01*
X136658972Y-110969000D01*
X136624214Y-110969000D01*
X136484180Y-111027004D01*
X136377004Y-111134181D01*
X136319000Y-111274215D01*
X136319000Y-111577750D01*
X136414250Y-111673000D01*
X137173000Y-111673000D01*
X137173000Y-111653000D01*
X137427000Y-111653000D01*
X137427000Y-111673000D01*
X138185750Y-111673000D01*
X138281000Y-111577750D01*
X138281000Y-111274215D01*
X138226112Y-111141704D01*
X138745106Y-111660698D01*
X138741971Y-111665391D01*
X138635631Y-112200000D01*
X138741971Y-112734609D01*
X139044803Y-113187828D01*
X139498022Y-113490660D01*
X140032631Y-113597000D01*
X140087369Y-113597000D01*
X140621978Y-113490660D01*
X141075197Y-113187828D01*
X141195536Y-113007728D01*
X141195536Y-113216000D01*
X141222103Y-113357190D01*
X141305546Y-113486865D01*
X141432866Y-113573859D01*
X141584000Y-113604464D01*
X143616000Y-113604464D01*
X143757190Y-113577897D01*
X143886865Y-113494454D01*
X143973859Y-113367134D01*
X144004464Y-113216000D01*
X144004464Y-111511128D01*
X144757796Y-110757796D01*
X144867483Y-110593638D01*
X144906000Y-110400000D01*
X144906000Y-110288464D01*
X145050000Y-110288464D01*
X145191190Y-110261897D01*
X145320865Y-110178454D01*
X145407859Y-110051134D01*
X145438464Y-109900000D01*
X145438464Y-109122250D01*
X145569000Y-109122250D01*
X145569000Y-109575786D01*
X145627004Y-109715820D01*
X145734181Y-109822996D01*
X145874215Y-109881000D01*
X146177750Y-109881000D01*
X146273000Y-109785750D01*
X146273000Y-109027000D01*
X146527000Y-109027000D01*
X146527000Y-109785750D01*
X146622250Y-109881000D01*
X146925785Y-109881000D01*
X147065819Y-109822996D01*
X147172996Y-109715820D01*
X147231000Y-109575786D01*
X147231000Y-109122250D01*
X147135750Y-109027000D01*
X146527000Y-109027000D01*
X146273000Y-109027000D01*
X145664250Y-109027000D01*
X145569000Y-109122250D01*
X145438464Y-109122250D01*
X145438464Y-108400000D01*
X145411897Y-108258810D01*
X145389636Y-108224214D01*
X145569000Y-108224214D01*
X145569000Y-108677750D01*
X145664250Y-108773000D01*
X146273000Y-108773000D01*
X146273000Y-108014250D01*
X146527000Y-108014250D01*
X146527000Y-108773000D01*
X147135750Y-108773000D01*
X147231000Y-108677750D01*
X147231000Y-108224214D01*
X147172996Y-108084180D01*
X147065819Y-107977004D01*
X146925785Y-107919000D01*
X146622250Y-107919000D01*
X146527000Y-108014250D01*
X146273000Y-108014250D01*
X146177750Y-107919000D01*
X145874215Y-107919000D01*
X145734181Y-107977004D01*
X145627004Y-108084180D01*
X145569000Y-108224214D01*
X145389636Y-108224214D01*
X145328454Y-108129135D01*
X145201134Y-108042141D01*
X145050000Y-108011536D01*
X143750000Y-108011536D01*
X143608810Y-108038103D01*
X143479135Y-108121546D01*
X143392141Y-108248866D01*
X143361536Y-108400000D01*
X143361536Y-109900000D01*
X143388103Y-110041190D01*
X143471546Y-110170865D01*
X143598866Y-110257859D01*
X143750000Y-110288464D01*
X143795944Y-110288464D01*
X143288872Y-110795536D01*
X141584000Y-110795536D01*
X141442810Y-110822103D01*
X141313135Y-110905546D01*
X141226141Y-111032866D01*
X141195536Y-111184000D01*
X141195536Y-111392272D01*
X141075197Y-111212172D01*
X140621978Y-110909340D01*
X140087369Y-110803000D01*
X140032631Y-110803000D01*
X139498022Y-110909340D01*
X139454208Y-110938616D01*
X138779056Y-110263464D01*
X139000000Y-110263464D01*
X139103670Y-110243957D01*
X139200000Y-110263464D01*
X139650000Y-110263464D01*
X139747805Y-110245061D01*
X139774215Y-110256000D01*
X139867250Y-110256000D01*
X139962500Y-110160750D01*
X139962500Y-110092519D01*
X140007859Y-110026134D01*
X140038464Y-109875000D01*
X140038464Y-109222250D01*
X140119000Y-109222250D01*
X140119000Y-109950786D01*
X140177004Y-110090820D01*
X140187500Y-110101316D01*
X140187500Y-110160750D01*
X140282750Y-110256000D01*
X140375785Y-110256000D01*
X140400000Y-110245970D01*
X140424215Y-110256000D01*
X140517250Y-110256000D01*
X140612500Y-110160750D01*
X140612500Y-110101316D01*
X140622996Y-110090820D01*
X140681000Y-109950786D01*
X140681000Y-109222250D01*
X140612500Y-109153750D01*
X140612500Y-109127000D01*
X140187500Y-109127000D01*
X140187500Y-109153750D01*
X140119000Y-109222250D01*
X140038464Y-109222250D01*
X140038464Y-108125000D01*
X140024204Y-108049214D01*
X140119000Y-108049214D01*
X140119000Y-108777750D01*
X140187500Y-108846250D01*
X140187500Y-108873000D01*
X140612500Y-108873000D01*
X140612500Y-108846250D01*
X140681000Y-108777750D01*
X140681000Y-108125000D01*
X140761536Y-108125000D01*
X140761536Y-109875000D01*
X140788103Y-110016190D01*
X140837500Y-110092956D01*
X140837500Y-110160750D01*
X140932750Y-110256000D01*
X141025785Y-110256000D01*
X141054469Y-110244119D01*
X141150000Y-110263464D01*
X141600000Y-110263464D01*
X141703670Y-110243957D01*
X141800000Y-110263464D01*
X142250000Y-110263464D01*
X142391190Y-110236897D01*
X142520865Y-110153454D01*
X142607859Y-110026134D01*
X142638464Y-109875000D01*
X142638464Y-108125000D01*
X142611897Y-107983810D01*
X142528454Y-107854135D01*
X142401134Y-107767141D01*
X142250000Y-107736536D01*
X141800000Y-107736536D01*
X141696330Y-107756043D01*
X141600000Y-107736536D01*
X141150000Y-107736536D01*
X141052195Y-107754939D01*
X141025785Y-107744000D01*
X140932750Y-107744000D01*
X140837500Y-107839250D01*
X140837500Y-107907481D01*
X140792141Y-107973866D01*
X140761536Y-108125000D01*
X140681000Y-108125000D01*
X140681000Y-108049214D01*
X140622996Y-107909180D01*
X140612500Y-107898684D01*
X140612500Y-107839250D01*
X140517250Y-107744000D01*
X140424215Y-107744000D01*
X140400000Y-107754030D01*
X140375785Y-107744000D01*
X140282750Y-107744000D01*
X140187500Y-107839250D01*
X140187500Y-107898684D01*
X140177004Y-107909180D01*
X140119000Y-108049214D01*
X140024204Y-108049214D01*
X140011897Y-107983810D01*
X139962500Y-107907044D01*
X139962500Y-107839250D01*
X139867250Y-107744000D01*
X139774215Y-107744000D01*
X139745531Y-107755881D01*
X139650000Y-107736536D01*
X139200000Y-107736536D01*
X139096330Y-107756043D01*
X139000000Y-107736536D01*
X138550000Y-107736536D01*
X138446330Y-107756043D01*
X138350000Y-107736536D01*
X137900000Y-107736536D01*
X137802195Y-107754939D01*
X137775785Y-107744000D01*
X137682750Y-107744000D01*
X137587500Y-107839250D01*
X137587500Y-107907481D01*
X137542141Y-107973866D01*
X137511536Y-108125000D01*
X137511536Y-109147000D01*
X137438464Y-109147000D01*
X137438464Y-108125000D01*
X137411897Y-107983810D01*
X137362500Y-107907044D01*
X137362500Y-107839250D01*
X137267250Y-107744000D01*
X137174215Y-107744000D01*
X137145531Y-107755881D01*
X137050000Y-107736536D01*
X136600000Y-107736536D01*
X136496330Y-107756043D01*
X136400000Y-107736536D01*
X135950000Y-107736536D01*
X135852195Y-107754939D01*
X135825785Y-107744000D01*
X135732750Y-107744000D01*
X135637500Y-107839250D01*
X135637500Y-107907481D01*
X135592141Y-107973866D01*
X135561536Y-108125000D01*
X135488464Y-108125000D01*
X135461897Y-107983810D01*
X135412500Y-107907044D01*
X135412500Y-107839250D01*
X135381000Y-107807750D01*
X135381000Y-106334592D01*
X136015592Y-105700000D01*
X143361536Y-105700000D01*
X143361536Y-107200000D01*
X143388103Y-107341190D01*
X143471546Y-107470865D01*
X143598866Y-107557859D01*
X143750000Y-107588464D01*
X145050000Y-107588464D01*
X145191190Y-107561897D01*
X145320865Y-107478454D01*
X145407859Y-107351134D01*
X145437249Y-107206000D01*
X145561536Y-107206000D01*
X145561536Y-107300000D01*
X145588103Y-107441190D01*
X145671546Y-107570865D01*
X145798866Y-107657859D01*
X145950000Y-107688464D01*
X146850000Y-107688464D01*
X146991190Y-107661897D01*
X147120865Y-107578454D01*
X147207859Y-107451134D01*
X147238464Y-107300000D01*
X147238464Y-107206000D01*
X147900000Y-107206000D01*
X148093638Y-107167483D01*
X148257796Y-107057796D01*
X148907756Y-106407836D01*
X149017443Y-106243678D01*
X149055960Y-106050040D01*
X149055960Y-105921053D01*
X149120825Y-105879314D01*
X149207819Y-105751994D01*
X149238424Y-105600860D01*
X149238424Y-105322250D01*
X149569000Y-105322250D01*
X149569000Y-105775786D01*
X149627004Y-105915820D01*
X149734181Y-106022996D01*
X149874215Y-106081000D01*
X150177750Y-106081000D01*
X150273000Y-105985750D01*
X150273000Y-105227000D01*
X149664250Y-105227000D01*
X149569000Y-105322250D01*
X149238424Y-105322250D01*
X149238424Y-104600100D01*
X149211857Y-104458910D01*
X149189531Y-104424214D01*
X149569000Y-104424214D01*
X149569000Y-104877750D01*
X149664250Y-104973000D01*
X150273000Y-104973000D01*
X150273000Y-104214250D01*
X150177750Y-104119000D01*
X149874215Y-104119000D01*
X149734181Y-104177004D01*
X149627004Y-104284180D01*
X149569000Y-104424214D01*
X149189531Y-104424214D01*
X149128414Y-104329235D01*
X149001094Y-104242241D01*
X148849960Y-104211636D01*
X148249960Y-104211636D01*
X148108770Y-104238203D01*
X148074752Y-104260093D01*
X147975786Y-104219100D01*
X147822250Y-104219100D01*
X147727000Y-104314350D01*
X147727000Y-104973480D01*
X147747000Y-104973480D01*
X147747000Y-105227480D01*
X147727000Y-105227480D01*
X147727000Y-105886610D01*
X147822250Y-105981860D01*
X147902548Y-105981860D01*
X147690408Y-106194000D01*
X147238464Y-106194000D01*
X147238464Y-106100000D01*
X147215560Y-105978275D01*
X147224214Y-105981860D01*
X147377750Y-105981860D01*
X147473000Y-105886610D01*
X147473000Y-105227480D01*
X147453000Y-105227480D01*
X147453000Y-104973480D01*
X147473000Y-104973480D01*
X147473000Y-104314350D01*
X147377750Y-104219100D01*
X147224214Y-104219100D01*
X147126526Y-104259564D01*
X147101174Y-104242241D01*
X146950040Y-104211636D01*
X146350040Y-104211636D01*
X146208850Y-104238203D01*
X146079175Y-104321646D01*
X145992181Y-104448966D01*
X145962714Y-104594480D01*
X145466920Y-104594480D01*
X145467483Y-104593638D01*
X145506000Y-104400000D01*
X145506000Y-103877927D01*
X145591190Y-103861897D01*
X145720865Y-103778454D01*
X145807859Y-103651134D01*
X145838464Y-103500000D01*
X145838464Y-102300000D01*
X145811897Y-102158810D01*
X145728454Y-102029135D01*
X145601134Y-101942141D01*
X145450000Y-101911536D01*
X144550000Y-101911536D01*
X144408810Y-101938103D01*
X144279135Y-102021546D01*
X144192141Y-102148866D01*
X144161536Y-102300000D01*
X144161536Y-103500000D01*
X144188103Y-103641190D01*
X144271546Y-103770865D01*
X144398866Y-103857859D01*
X144494000Y-103877124D01*
X144494000Y-104190408D01*
X144165439Y-104518969D01*
X144065135Y-104518882D01*
X143814748Y-104622339D01*
X143623013Y-104813741D01*
X143519118Y-105063946D01*
X143518882Y-105334865D01*
X143538827Y-105383136D01*
X143479135Y-105421546D01*
X143392141Y-105548866D01*
X143361536Y-105700000D01*
X136015592Y-105700000D01*
X137209592Y-104506000D01*
X139200000Y-104506000D01*
X139393638Y-104467483D01*
X139557796Y-104357796D01*
X139608395Y-104307197D01*
X139642204Y-104357796D01*
X139806362Y-104467483D01*
X140000000Y-104506000D01*
X140193638Y-104467483D01*
X140357796Y-104357796D01*
X140432796Y-104282796D01*
X140542483Y-104118638D01*
X140581000Y-103925000D01*
X140542483Y-103731362D01*
X140432796Y-103567204D01*
X140382197Y-103533395D01*
X140432796Y-103482796D01*
X140542483Y-103318638D01*
X140581000Y-103125000D01*
X140581000Y-103063464D01*
X140950000Y-103063464D01*
X141053670Y-103043957D01*
X141150000Y-103063464D01*
X141600000Y-103063464D01*
X141703670Y-103043957D01*
X141800000Y-103063464D01*
X142250000Y-103063464D01*
X142391190Y-103036897D01*
X142520865Y-102953454D01*
X142607859Y-102826134D01*
X142638464Y-102675000D01*
X142638464Y-100938312D01*
X142677337Y-100922250D01*
X144169000Y-100922250D01*
X144169000Y-101375786D01*
X144227004Y-101515820D01*
X144334181Y-101622996D01*
X144474215Y-101681000D01*
X144777750Y-101681000D01*
X144873000Y-101585750D01*
X144873000Y-100827000D01*
X144264250Y-100827000D01*
X144169000Y-100922250D01*
X142677337Y-100922250D01*
X142785252Y-100877661D01*
X142976987Y-100686259D01*
X143080882Y-100436054D01*
X143081118Y-100165135D01*
X143022892Y-100024214D01*
X144169000Y-100024214D01*
X144169000Y-100477750D01*
X144264250Y-100573000D01*
X144873000Y-100573000D01*
X144873000Y-99814250D01*
X145127000Y-99814250D01*
X145127000Y-100573000D01*
X145147000Y-100573000D01*
X145147000Y-100827000D01*
X145127000Y-100827000D01*
X145127000Y-101585750D01*
X145222250Y-101681000D01*
X145525785Y-101681000D01*
X145665819Y-101622996D01*
X145772996Y-101515820D01*
X145830503Y-101376985D01*
X145948866Y-101457859D01*
X146100000Y-101488464D01*
X146129996Y-101488464D01*
X146079175Y-101521166D01*
X145992181Y-101648486D01*
X145961576Y-101799620D01*
X145961576Y-102800380D01*
X145988143Y-102941570D01*
X146071586Y-103071245D01*
X146198906Y-103158239D01*
X146350040Y-103188844D01*
X146950040Y-103188844D01*
X147091230Y-103162277D01*
X147220905Y-103078834D01*
X147307899Y-102951514D01*
X147338504Y-102800380D01*
X147338504Y-101799620D01*
X147311937Y-101658430D01*
X147228494Y-101528755D01*
X147156040Y-101479249D01*
X147156040Y-101477919D01*
X147241190Y-101461897D01*
X147370865Y-101378454D01*
X147457859Y-101251134D01*
X147488464Y-101100000D01*
X147488464Y-98100000D01*
X147461897Y-97958810D01*
X147378454Y-97829135D01*
X147251134Y-97742141D01*
X147100000Y-97711536D01*
X146100000Y-97711536D01*
X145958810Y-97738103D01*
X145829135Y-97821546D01*
X145742141Y-97948866D01*
X145711536Y-98100000D01*
X145711536Y-99822721D01*
X145665819Y-99777004D01*
X145525785Y-99719000D01*
X145222250Y-99719000D01*
X145127000Y-99814250D01*
X144873000Y-99814250D01*
X144777750Y-99719000D01*
X144474215Y-99719000D01*
X144334181Y-99777004D01*
X144227004Y-99884180D01*
X144169000Y-100024214D01*
X143022892Y-100024214D01*
X142977661Y-99914748D01*
X142786259Y-99723013D01*
X142536054Y-99619118D01*
X142265135Y-99618882D01*
X142014748Y-99722339D01*
X141823013Y-99913741D01*
X141719118Y-100163946D01*
X141719030Y-100265378D01*
X141667204Y-100317204D01*
X141557517Y-100481362D01*
X141546542Y-100536536D01*
X141150000Y-100536536D01*
X141046330Y-100556043D01*
X140950000Y-100536536D01*
X140500000Y-100536536D01*
X140396330Y-100556043D01*
X140300000Y-100536536D01*
X139931000Y-100536536D01*
X139931000Y-100484592D01*
X140034561Y-100381031D01*
X140134865Y-100381118D01*
X140385252Y-100277661D01*
X140576987Y-100086259D01*
X140680882Y-99836054D01*
X140681118Y-99565135D01*
X140577661Y-99314748D01*
X140386259Y-99123013D01*
X140136054Y-99019118D01*
X139865135Y-99018882D01*
X139614748Y-99122339D01*
X139423013Y-99313741D01*
X139319118Y-99563946D01*
X139319030Y-99665378D01*
X139067204Y-99917204D01*
X138957517Y-100081362D01*
X138919000Y-100275000D01*
X138919000Y-100536536D01*
X138550000Y-100536536D01*
X138452195Y-100554939D01*
X138425785Y-100544000D01*
X138332750Y-100544000D01*
X138237500Y-100639250D01*
X138237500Y-100707481D01*
X138192141Y-100773866D01*
X138161536Y-100925000D01*
X138161536Y-102675000D01*
X138188103Y-102816190D01*
X138237500Y-102892956D01*
X138237500Y-102960750D01*
X138332750Y-103056000D01*
X138425785Y-103056000D01*
X138454469Y-103044119D01*
X138550000Y-103063464D01*
X139000000Y-103063464D01*
X139103670Y-103043957D01*
X139200000Y-103063464D01*
X139420944Y-103063464D01*
X138990408Y-103494000D01*
X137000000Y-103494000D01*
X136806362Y-103532517D01*
X136642204Y-103642204D01*
X134517204Y-105767204D01*
X134407517Y-105931362D01*
X134369000Y-106125000D01*
X134369000Y-107736536D01*
X134000000Y-107736536D01*
X133896330Y-107756043D01*
X133800000Y-107736536D01*
X133350000Y-107736536D01*
X133208810Y-107763103D01*
X133079135Y-107846546D01*
X132992141Y-107973866D01*
X132961536Y-108125000D01*
X132961536Y-109094000D01*
X132209592Y-109094000D01*
X127957796Y-104842204D01*
X127831738Y-104757975D01*
X127831766Y-104725904D01*
X127659858Y-104309854D01*
X127341820Y-103991261D01*
X126926071Y-103818627D01*
X126475904Y-103818234D01*
X126059854Y-103990142D01*
X125741261Y-104308180D01*
X125568627Y-104723929D01*
X125568234Y-105174096D01*
X122527000Y-105174096D01*
X122527000Y-103894277D01*
X123618830Y-103894277D01*
X123767864Y-104254966D01*
X124043583Y-104531166D01*
X124404011Y-104680829D01*
X124794277Y-104681170D01*
X125154966Y-104532136D01*
X125431166Y-104256417D01*
X125580829Y-103895989D01*
X125581170Y-103505723D01*
X125489086Y-103282861D01*
X126046744Y-103282861D01*
X126128715Y-103452371D01*
X126555793Y-103594691D01*
X127004824Y-103562743D01*
X127271285Y-103452371D01*
X127353256Y-103282861D01*
X126700000Y-102629605D01*
X126046744Y-103282861D01*
X125489086Y-103282861D01*
X125432136Y-103145034D01*
X125156417Y-102868834D01*
X124795989Y-102719171D01*
X124405723Y-102718830D01*
X124045034Y-102867864D01*
X123768834Y-103143583D01*
X123619171Y-103504011D01*
X123618830Y-103894277D01*
X122527000Y-103894277D01*
X122527000Y-102305793D01*
X125555309Y-102305793D01*
X125587257Y-102754824D01*
X125697629Y-103021285D01*
X125867139Y-103103256D01*
X126520395Y-102450000D01*
X126879605Y-102450000D01*
X127532861Y-103103256D01*
X127702371Y-103021285D01*
X127844691Y-102594207D01*
X127812743Y-102145176D01*
X127702371Y-101878715D01*
X127532861Y-101796744D01*
X126879605Y-102450000D01*
X126520395Y-102450000D01*
X125867139Y-101796744D01*
X125697629Y-101878715D01*
X125555309Y-102305793D01*
X122527000Y-102305793D01*
X122527000Y-101475350D01*
X123404256Y-101475350D01*
X123578014Y-101722709D01*
X124276791Y-101990285D01*
X125024775Y-101970082D01*
X125621986Y-101722709D01*
X125696143Y-101617139D01*
X126046744Y-101617139D01*
X126700000Y-102270395D01*
X127353256Y-101617139D01*
X127271285Y-101447629D01*
X126844207Y-101305309D01*
X126395176Y-101337257D01*
X126128715Y-101447629D01*
X126046744Y-101617139D01*
X125696143Y-101617139D01*
X125795744Y-101475350D01*
X124600000Y-100279605D01*
X123404256Y-101475350D01*
X122527000Y-101475350D01*
X122527000Y-99776791D01*
X122709715Y-99776791D01*
X122729918Y-100524775D01*
X122977291Y-101121986D01*
X123224650Y-101295744D01*
X124420395Y-100100000D01*
X124779605Y-100100000D01*
X125975350Y-101295744D01*
X126222709Y-101121986D01*
X126298138Y-100925000D01*
X132961536Y-100925000D01*
X132961536Y-102675000D01*
X132988103Y-102816190D01*
X133071546Y-102945865D01*
X133198866Y-103032859D01*
X133350000Y-103063464D01*
X133800000Y-103063464D01*
X133903670Y-103043957D01*
X134000000Y-103063464D01*
X134450000Y-103063464D01*
X134553670Y-103043957D01*
X134650000Y-103063464D01*
X135100000Y-103063464D01*
X135203670Y-103043957D01*
X135300000Y-103063464D01*
X135750000Y-103063464D01*
X135853670Y-103043957D01*
X135950000Y-103063464D01*
X136400000Y-103063464D01*
X136503670Y-103043957D01*
X136600000Y-103063464D01*
X137050000Y-103063464D01*
X137153670Y-103043957D01*
X137250000Y-103063464D01*
X137700000Y-103063464D01*
X137797805Y-103045061D01*
X137824215Y-103056000D01*
X137917250Y-103056000D01*
X138012500Y-102960750D01*
X138012500Y-102892519D01*
X138057859Y-102826134D01*
X138088464Y-102675000D01*
X138088464Y-100925000D01*
X138061897Y-100783810D01*
X138012500Y-100707044D01*
X138012500Y-100639250D01*
X137917250Y-100544000D01*
X137824215Y-100544000D01*
X137795531Y-100555881D01*
X137700000Y-100536536D01*
X137250000Y-100536536D01*
X137146330Y-100556043D01*
X137050000Y-100536536D01*
X136600000Y-100536536D01*
X136496330Y-100556043D01*
X136400000Y-100536536D01*
X135950000Y-100536536D01*
X135846330Y-100556043D01*
X135750000Y-100536536D01*
X135300000Y-100536536D01*
X135196330Y-100556043D01*
X135100000Y-100536536D01*
X134650000Y-100536536D01*
X134546330Y-100556043D01*
X134450000Y-100536536D01*
X134000000Y-100536536D01*
X133896330Y-100556043D01*
X133800000Y-100536536D01*
X133350000Y-100536536D01*
X133208810Y-100563103D01*
X133079135Y-100646546D01*
X132992141Y-100773866D01*
X132961536Y-100925000D01*
X126298138Y-100925000D01*
X126490285Y-100423209D01*
X126470082Y-99675225D01*
X126222709Y-99078014D01*
X125975350Y-98904256D01*
X124779605Y-100100000D01*
X124420395Y-100100000D01*
X123224650Y-98904256D01*
X122977291Y-99078014D01*
X122709715Y-99776791D01*
X122527000Y-99776791D01*
X122527000Y-98724650D01*
X123404256Y-98724650D01*
X124600000Y-99920395D01*
X125795744Y-98724650D01*
X125621986Y-98477291D01*
X124923209Y-98209715D01*
X124175225Y-98229918D01*
X123578014Y-98477291D01*
X123404256Y-98724650D01*
X122527000Y-98724650D01*
X122527000Y-98487972D01*
X122581784Y-98212555D01*
X122914544Y-97714544D01*
X123412555Y-97381784D01*
X124044911Y-97256000D01*
X162628406Y-97256000D01*
X159040406Y-100844000D01*
X159040406Y-100844000D01*
G37*
X159040406Y-100844000D02*
X157644600Y-100844000D01*
X157644600Y-100022250D01*
X157549350Y-99927000D01*
X156527000Y-99927000D01*
X156527000Y-99947000D01*
X156273000Y-99947000D01*
X156273000Y-99927000D01*
X155250650Y-99927000D01*
X155155400Y-100022250D01*
X155155400Y-100844000D01*
X155000000Y-100844000D01*
X154806362Y-100882517D01*
X154642204Y-100992204D01*
X154165439Y-101468969D01*
X154065135Y-101468882D01*
X153814748Y-101572339D01*
X153623013Y-101763741D01*
X153519118Y-102013946D01*
X153518882Y-102284865D01*
X153563975Y-102394000D01*
X151621592Y-102394000D01*
X151677796Y-102337796D01*
X151787483Y-102173638D01*
X151826000Y-101980000D01*
X151826000Y-101109776D01*
X152200065Y-100859834D01*
X152469860Y-100456057D01*
X152564600Y-99979769D01*
X152564600Y-99620231D01*
X152615400Y-99620231D01*
X152615400Y-99979769D01*
X152710140Y-100456057D01*
X152979935Y-100859834D01*
X153383712Y-101129629D01*
X153860000Y-101224369D01*
X154336288Y-101129629D01*
X154740065Y-100859834D01*
X155009860Y-100456057D01*
X155104600Y-99979769D01*
X155104600Y-99620231D01*
X155009860Y-99143943D01*
X154740065Y-98740166D01*
X154692247Y-98708215D01*
X155155400Y-98708215D01*
X155155400Y-99577750D01*
X155250650Y-99673000D01*
X156273000Y-99673000D01*
X156273000Y-98498250D01*
X156527000Y-98498250D01*
X156527000Y-99673000D01*
X157549350Y-99673000D01*
X157644600Y-99577750D01*
X157644600Y-98708215D01*
X157586596Y-98568181D01*
X157479420Y-98461004D01*
X157339386Y-98403000D01*
X156622250Y-98403000D01*
X156527000Y-98498250D01*
X156273000Y-98498250D01*
X156177750Y-98403000D01*
X155460614Y-98403000D01*
X155320580Y-98461004D01*
X155213404Y-98568181D01*
X155155400Y-98708215D01*
X154692247Y-98708215D01*
X154336288Y-98470371D01*
X153860000Y-98375631D01*
X153383712Y-98470371D01*
X152979935Y-98740166D01*
X152710140Y-99143943D01*
X152615400Y-99620231D01*
X152564600Y-99620231D01*
X152469860Y-99143943D01*
X152200065Y-98740166D01*
X151796288Y-98470371D01*
X151320000Y-98375631D01*
X150843712Y-98470371D01*
X150439935Y-98740166D01*
X150170140Y-99143943D01*
X150075400Y-99620231D01*
X150075400Y-99979769D01*
X150170140Y-100456057D01*
X150439935Y-100859834D01*
X150814000Y-101109776D01*
X150814000Y-101770408D01*
X150672872Y-101911536D01*
X149950000Y-101911536D01*
X149808810Y-101938103D01*
X149679135Y-102021546D01*
X149592141Y-102148866D01*
X149561536Y-102300000D01*
X149561536Y-102394000D01*
X149359552Y-102394000D01*
X149238424Y-102272872D01*
X149238424Y-101799620D01*
X149211857Y-101658430D01*
X149128414Y-101528755D01*
X149069446Y-101488464D01*
X149100000Y-101488464D01*
X149241190Y-101461897D01*
X149370865Y-101378454D01*
X149457859Y-101251134D01*
X149488464Y-101100000D01*
X149488464Y-98100000D01*
X149461897Y-97958810D01*
X149378454Y-97829135D01*
X149251134Y-97742141D01*
X149100000Y-97711536D01*
X148100000Y-97711536D01*
X147958810Y-97738103D01*
X147829135Y-97821546D01*
X147742141Y-97948866D01*
X147711536Y-98100000D01*
X147711536Y-101100000D01*
X147738103Y-101241190D01*
X147821546Y-101370865D01*
X147948866Y-101457859D01*
X148043960Y-101477116D01*
X148043960Y-101479427D01*
X147979095Y-101521166D01*
X147892101Y-101648486D01*
X147861496Y-101799620D01*
X147861496Y-102800380D01*
X147888063Y-102941570D01*
X147971506Y-103071245D01*
X148098826Y-103158239D01*
X148249960Y-103188844D01*
X148723212Y-103188844D01*
X148792164Y-103257796D01*
X148956322Y-103367483D01*
X149149960Y-103406000D01*
X149561536Y-103406000D01*
X149561536Y-103500000D01*
X149588103Y-103641190D01*
X149671546Y-103770865D01*
X149798866Y-103857859D01*
X149950000Y-103888464D01*
X150850000Y-103888464D01*
X150991190Y-103861897D01*
X151120865Y-103778454D01*
X151207859Y-103651134D01*
X151238464Y-103500000D01*
X151238464Y-103406000D01*
X154243179Y-103406000D01*
X154219118Y-103463946D01*
X154219030Y-103565378D01*
X152106000Y-105678408D01*
X152106000Y-105232036D01*
X152226987Y-105111259D01*
X152330882Y-104861054D01*
X152331118Y-104590135D01*
X152227661Y-104339748D01*
X152036259Y-104148013D01*
X151786054Y-104044118D01*
X151515135Y-104043882D01*
X151264748Y-104147339D01*
X151150352Y-104261536D01*
X151065819Y-104177004D01*
X150925785Y-104119000D01*
X150622250Y-104119000D01*
X150527000Y-104214250D01*
X150527000Y-104973000D01*
X150547000Y-104973000D01*
X150547000Y-105227000D01*
X150527000Y-105227000D01*
X150527000Y-105985750D01*
X150622250Y-106081000D01*
X150853408Y-106081000D01*
X150542204Y-106392204D01*
X150432517Y-106556362D01*
X150394000Y-106750000D01*
X150394000Y-107142877D01*
X150323013Y-107213741D01*
X150219118Y-107463946D01*
X150218882Y-107734865D01*
X150322339Y-107985252D01*
X150513741Y-108176987D01*
X150763946Y-108280882D01*
X151034865Y-108281118D01*
X151234000Y-108198838D01*
X151234000Y-108653701D01*
X150835552Y-108919935D01*
X150565757Y-109323712D01*
X150471017Y-109800000D01*
X150565757Y-110276288D01*
X150835552Y-110680065D01*
X151239329Y-110949860D01*
X151715617Y-111044600D01*
X151764383Y-111044600D01*
X152240671Y-110949860D01*
X152644448Y-110680065D01*
X152914243Y-110276288D01*
X153008983Y-109800000D01*
X153011017Y-109800000D01*
X153105757Y-110276288D01*
X153375552Y-110680065D01*
X153779329Y-110949860D01*
X154255617Y-111044600D01*
X154304383Y-111044600D01*
X154780671Y-110949860D01*
X155184448Y-110680065D01*
X155454243Y-110276288D01*
X155548983Y-109800000D01*
X155454243Y-109323712D01*
X155184448Y-108919935D01*
X154780671Y-108650140D01*
X154304383Y-108555400D01*
X154255617Y-108555400D01*
X153779329Y-108650140D01*
X153375552Y-108919935D01*
X153105757Y-109323712D01*
X153011017Y-109800000D01*
X153008983Y-109800000D01*
X152914243Y-109323712D01*
X152644448Y-108919935D01*
X152246000Y-108653701D01*
X152246000Y-106969592D01*
X153418915Y-105796677D01*
X153418882Y-105834865D01*
X153522339Y-106085252D01*
X153713741Y-106276987D01*
X153963946Y-106380882D01*
X154065378Y-106380970D01*
X155692204Y-108007796D01*
X155856362Y-108117483D01*
X156050000Y-108156000D01*
X157865408Y-108156000D01*
X157944000Y-108234592D01*
X157944000Y-109248518D01*
X157724448Y-108919935D01*
X157320671Y-108650140D01*
X156844383Y-108555400D01*
X156795617Y-108555400D01*
X156319329Y-108650140D01*
X155915552Y-108919935D01*
X155645757Y-109323712D01*
X155551017Y-109800000D01*
X155645757Y-110276288D01*
X155915552Y-110680065D01*
X156319329Y-110949860D01*
X156795617Y-111044600D01*
X156844383Y-111044600D01*
X157320671Y-110949860D01*
X157724448Y-110680065D01*
X157944000Y-110351482D01*
X157944000Y-111830157D01*
X157896305Y-111714999D01*
X157575199Y-111350690D01*
X157139120Y-111136995D01*
X156947000Y-111197135D01*
X156947000Y-112213000D01*
X156967000Y-112213000D01*
X156967000Y-112467000D01*
X156947000Y-112467000D01*
X156947000Y-112487000D01*
X156693000Y-112487000D01*
X156693000Y-112467000D01*
X155677688Y-112467000D01*
X155617007Y-112659118D01*
X155743695Y-112965001D01*
X155901465Y-113143998D01*
X155799590Y-113143998D01*
X155457169Y-112801577D01*
X155548983Y-112340000D01*
X155485507Y-112020882D01*
X155617007Y-112020882D01*
X155677688Y-112213000D01*
X156693000Y-112213000D01*
X156693000Y-111197135D01*
X156500880Y-111136995D01*
X156064801Y-111350690D01*
X155743695Y-111714999D01*
X155617007Y-112020882D01*
X155485507Y-112020882D01*
X155454243Y-111863712D01*
X155184448Y-111459935D01*
X154780671Y-111190140D01*
X154304383Y-111095400D01*
X154255617Y-111095400D01*
X153779329Y-111190140D01*
X153375552Y-111459935D01*
X153105757Y-111863712D01*
X153011017Y-112340000D01*
X153105757Y-112816288D01*
X153375552Y-113220065D01*
X153779329Y-113489860D01*
X154255617Y-113584600D01*
X154304383Y-113584600D01*
X154725285Y-113500877D01*
X154818408Y-113594000D01*
X148159592Y-113594000D01*
X147656000Y-113090408D01*
X147656000Y-112340000D01*
X147931017Y-112340000D01*
X148025757Y-112816288D01*
X148295552Y-113220065D01*
X148699329Y-113489860D01*
X149175617Y-113584600D01*
X149224383Y-113584600D01*
X149700671Y-113489860D01*
X150104448Y-113220065D01*
X150374243Y-112816288D01*
X150468983Y-112340000D01*
X150471017Y-112340000D01*
X150565757Y-112816288D01*
X150835552Y-113220065D01*
X151239329Y-113489860D01*
X151715617Y-113584600D01*
X151764383Y-113584600D01*
X152240671Y-113489860D01*
X152644448Y-113220065D01*
X152914243Y-112816288D01*
X153008983Y-112340000D01*
X152914243Y-111863712D01*
X152644448Y-111459935D01*
X152240671Y-111190140D01*
X151764383Y-111095400D01*
X151715617Y-111095400D01*
X151239329Y-111190140D01*
X150835552Y-111459935D01*
X150565757Y-111863712D01*
X150471017Y-112340000D01*
X150468983Y-112340000D01*
X150374243Y-111863712D01*
X150104448Y-111459935D01*
X149700671Y-111190140D01*
X149224383Y-111095400D01*
X149175617Y-111095400D01*
X148699329Y-111190140D01*
X148295552Y-111459935D01*
X148025757Y-111863712D01*
X147931017Y-112340000D01*
X147656000Y-112340000D01*
X147656000Y-110909592D01*
X147947936Y-110617656D01*
X147947936Y-110663600D01*
X147974503Y-110804790D01*
X148057946Y-110934465D01*
X148185266Y-111021459D01*
X148336400Y-111052064D01*
X150063600Y-111052064D01*
X150204790Y-111025497D01*
X150334465Y-110942054D01*
X150421459Y-110814734D01*
X150452064Y-110663600D01*
X150452064Y-108936400D01*
X150425497Y-108795210D01*
X150342054Y-108665535D01*
X150214734Y-108578541D01*
X150063600Y-108547936D01*
X148336400Y-108547936D01*
X148195210Y-108574503D01*
X148065535Y-108657946D01*
X147978541Y-108785266D01*
X147947936Y-108936400D01*
X147947936Y-109314302D01*
X147856362Y-109332517D01*
X147692204Y-109442204D01*
X146792204Y-110342204D01*
X146682517Y-110506362D01*
X146644000Y-110700000D01*
X146644000Y-113300000D01*
X146682517Y-113493638D01*
X146792204Y-113657796D01*
X147592204Y-114457796D01*
X147756362Y-114567483D01*
X147950000Y-114606000D01*
X173800000Y-114606000D01*
X173993638Y-114567483D01*
X174157796Y-114457796D01*
X175230596Y-113384996D01*
X175318638Y-113367483D01*
X175482796Y-113257796D01*
X175484561Y-113256031D01*
X175584865Y-113256118D01*
X175823000Y-113157723D01*
X175823000Y-114744000D01*
X124044911Y-114744000D01*
X123412555Y-114618216D01*
X122914544Y-114285456D01*
X122581784Y-113787445D01*
X122527000Y-113512028D01*
X122527000Y-113175350D01*
X123404256Y-113175350D01*
X123578014Y-113422709D01*
X124276791Y-113690285D01*
X125024775Y-113670082D01*
X125621986Y-113422709D01*
X125795744Y-113175350D01*
X124600000Y-111979605D01*
X123404256Y-113175350D01*
X122527000Y-113175350D01*
X122527000Y-111476791D01*
X122709715Y-111476791D01*
X122729918Y-112224775D01*
X122977291Y-112821986D01*
X123224650Y-112995744D01*
X124420395Y-111800000D01*
X124779605Y-111800000D01*
X125975350Y-112995744D01*
X126222709Y-112821986D01*
X126490285Y-112123209D01*
X126470082Y-111375225D01*
X126222709Y-110778014D01*
X125975350Y-110604256D01*
X124779605Y-111800000D01*
X124420395Y-111800000D01*
X123224650Y-110604256D01*
X122977291Y-110778014D01*
X122709715Y-111476791D01*
X122527000Y-111476791D01*
X122527000Y-110424650D01*
X123404256Y-110424650D01*
X124600000Y-111620395D01*
X125795744Y-110424650D01*
X125621986Y-110177291D01*
X124923209Y-109909715D01*
X124175225Y-109929918D01*
X123578014Y-110177291D01*
X123404256Y-110424650D01*
X122527000Y-110424650D01*
X122527000Y-109674096D01*
X125568234Y-109674096D01*
X125740142Y-110090146D01*
X126058180Y-110408739D01*
X126473929Y-110581373D01*
X126924096Y-110581766D01*
X127340146Y-110409858D01*
X127658739Y-110091820D01*
X127831373Y-109676071D01*
X127831766Y-109225904D01*
X127659858Y-108809854D01*
X127341820Y-108491261D01*
X126926071Y-108318627D01*
X126475904Y-108318234D01*
X126059854Y-108490142D01*
X125741261Y-108808180D01*
X125568627Y-109223929D01*
X125568234Y-109674096D01*
X122527000Y-109674096D01*
X122527000Y-108394277D01*
X123618830Y-108394277D01*
X123767864Y-108754966D01*
X124043583Y-109031166D01*
X124404011Y-109180829D01*
X124794277Y-109181170D01*
X125154966Y-109032136D01*
X125431166Y-108756417D01*
X125580829Y-108395989D01*
X125581170Y-108005723D01*
X125432136Y-107645034D01*
X125156417Y-107368834D01*
X124795989Y-107219171D01*
X124405723Y-107218830D01*
X124045034Y-107367864D01*
X123768834Y-107643583D01*
X123619171Y-108004011D01*
X123618830Y-108394277D01*
X122527000Y-108394277D01*
X122527000Y-105174096D01*
X125568234Y-105174096D01*
X125740142Y-105590146D01*
X126058180Y-105908739D01*
X126169348Y-105954900D01*
X126059854Y-106000142D01*
X125741261Y-106318180D01*
X125568627Y-106733929D01*
X125568234Y-107184096D01*
X125740142Y-107600146D01*
X126058180Y-107918739D01*
X126473929Y-108091373D01*
X126924096Y-108091766D01*
X127340146Y-107919858D01*
X127658739Y-107601820D01*
X127715493Y-107465140D01*
X128349548Y-107465140D01*
X131842204Y-110957796D01*
X132006362Y-111067483D01*
X132200000Y-111106000D01*
X133800000Y-111106000D01*
X133993638Y-111067483D01*
X134157796Y-110957796D01*
X134369000Y-110746592D01*
X134369000Y-110986186D01*
X134358810Y-110988103D01*
X134229135Y-111071546D01*
X134142141Y-111198866D01*
X134111536Y-111350000D01*
X134111536Y-112250000D01*
X134138103Y-112391190D01*
X134221546Y-112520865D01*
X134348866Y-112607859D01*
X134500000Y-112638464D01*
X135700000Y-112638464D01*
X135841190Y-112611897D01*
X135970865Y-112528454D01*
X136057859Y-112401134D01*
X136088464Y-112250000D01*
X136088464Y-112022250D01*
X136319000Y-112022250D01*
X136319000Y-112325785D01*
X136377004Y-112465819D01*
X136484180Y-112572996D01*
X136624214Y-112631000D01*
X137077750Y-112631000D01*
X137173000Y-112535750D01*
X137173000Y-111927000D01*
X137427000Y-111927000D01*
X137427000Y-112535750D01*
X137522250Y-112631000D01*
X137975786Y-112631000D01*
X138115820Y-112572996D01*
X138222996Y-112465819D01*
X138281000Y-112325785D01*
X138281000Y-112022250D01*
X138185750Y-111927000D01*
X137427000Y-111927000D01*
X137173000Y-111927000D01*
X136414250Y-111927000D01*
X136319000Y-112022250D01*
X136088464Y-112022250D01*
X136088464Y-111350000D01*
X136061897Y-111208810D01*
X135978454Y-111079135D01*
X135851134Y-110992141D01*
X135700000Y-110961536D01*
X135381000Y-110961536D01*
X135381000Y-110192250D01*
X135412500Y-110160750D01*
X135412500Y-110092519D01*
X135457859Y-110026134D01*
X135488464Y-109875000D01*
X135488464Y-108125000D01*
X135561536Y-108125000D01*
X135561536Y-109875000D01*
X135588103Y-110016190D01*
X135637500Y-110092956D01*
X135637500Y-110160750D01*
X135732750Y-110256000D01*
X135825785Y-110256000D01*
X135854469Y-110244119D01*
X135950000Y-110263464D01*
X136319000Y-110263464D01*
X136319000Y-110425000D01*
X136357517Y-110618638D01*
X136467204Y-110782796D01*
X136642204Y-110957796D01*
X136658972Y-110969000D01*
X136624214Y-110969000D01*
X136484180Y-111027004D01*
X136377004Y-111134181D01*
X136319000Y-111274215D01*
X136319000Y-111577750D01*
X136414250Y-111673000D01*
X137173000Y-111673000D01*
X137173000Y-111653000D01*
X137427000Y-111653000D01*
X137427000Y-111673000D01*
X138185750Y-111673000D01*
X138281000Y-111577750D01*
X138281000Y-111274215D01*
X138226112Y-111141704D01*
X138745106Y-111660698D01*
X138741971Y-111665391D01*
X138635631Y-112200000D01*
X138741971Y-112734609D01*
X139044803Y-113187828D01*
X139498022Y-113490660D01*
X140032631Y-113597000D01*
X140087369Y-113597000D01*
X140621978Y-113490660D01*
X141075197Y-113187828D01*
X141195536Y-113007728D01*
X141195536Y-113216000D01*
X141222103Y-113357190D01*
X141305546Y-113486865D01*
X141432866Y-113573859D01*
X141584000Y-113604464D01*
X143616000Y-113604464D01*
X143757190Y-113577897D01*
X143886865Y-113494454D01*
X143973859Y-113367134D01*
X144004464Y-113216000D01*
X144004464Y-111511128D01*
X144757796Y-110757796D01*
X144867483Y-110593638D01*
X144906000Y-110400000D01*
X144906000Y-110288464D01*
X145050000Y-110288464D01*
X145191190Y-110261897D01*
X145320865Y-110178454D01*
X145407859Y-110051134D01*
X145438464Y-109900000D01*
X145438464Y-109122250D01*
X145569000Y-109122250D01*
X145569000Y-109575786D01*
X145627004Y-109715820D01*
X145734181Y-109822996D01*
X145874215Y-109881000D01*
X146177750Y-109881000D01*
X146273000Y-109785750D01*
X146273000Y-109027000D01*
X146527000Y-109027000D01*
X146527000Y-109785750D01*
X146622250Y-109881000D01*
X146925785Y-109881000D01*
X147065819Y-109822996D01*
X147172996Y-109715820D01*
X147231000Y-109575786D01*
X147231000Y-109122250D01*
X147135750Y-109027000D01*
X146527000Y-109027000D01*
X146273000Y-109027000D01*
X145664250Y-109027000D01*
X145569000Y-109122250D01*
X145438464Y-109122250D01*
X145438464Y-108400000D01*
X145411897Y-108258810D01*
X145389636Y-108224214D01*
X145569000Y-108224214D01*
X145569000Y-108677750D01*
X145664250Y-108773000D01*
X146273000Y-108773000D01*
X146273000Y-108014250D01*
X146527000Y-108014250D01*
X146527000Y-108773000D01*
X147135750Y-108773000D01*
X147231000Y-108677750D01*
X147231000Y-108224214D01*
X147172996Y-108084180D01*
X147065819Y-107977004D01*
X146925785Y-107919000D01*
X146622250Y-107919000D01*
X146527000Y-108014250D01*
X146273000Y-108014250D01*
X146177750Y-107919000D01*
X145874215Y-107919000D01*
X145734181Y-107977004D01*
X145627004Y-108084180D01*
X145569000Y-108224214D01*
X145389636Y-108224214D01*
X145328454Y-108129135D01*
X145201134Y-108042141D01*
X145050000Y-108011536D01*
X143750000Y-108011536D01*
X143608810Y-108038103D01*
X143479135Y-108121546D01*
X143392141Y-108248866D01*
X143361536Y-108400000D01*
X143361536Y-109900000D01*
X143388103Y-110041190D01*
X143471546Y-110170865D01*
X143598866Y-110257859D01*
X143750000Y-110288464D01*
X143795944Y-110288464D01*
X143288872Y-110795536D01*
X141584000Y-110795536D01*
X141442810Y-110822103D01*
X141313135Y-110905546D01*
X141226141Y-111032866D01*
X141195536Y-111184000D01*
X141195536Y-111392272D01*
X141075197Y-111212172D01*
X140621978Y-110909340D01*
X140087369Y-110803000D01*
X140032631Y-110803000D01*
X139498022Y-110909340D01*
X139454208Y-110938616D01*
X138779056Y-110263464D01*
X139000000Y-110263464D01*
X139103670Y-110243957D01*
X139200000Y-110263464D01*
X139650000Y-110263464D01*
X139747805Y-110245061D01*
X139774215Y-110256000D01*
X139867250Y-110256000D01*
X139962500Y-110160750D01*
X139962500Y-110092519D01*
X140007859Y-110026134D01*
X140038464Y-109875000D01*
X140038464Y-109222250D01*
X140119000Y-109222250D01*
X140119000Y-109950786D01*
X140177004Y-110090820D01*
X140187500Y-110101316D01*
X140187500Y-110160750D01*
X140282750Y-110256000D01*
X140375785Y-110256000D01*
X140400000Y-110245970D01*
X140424215Y-110256000D01*
X140517250Y-110256000D01*
X140612500Y-110160750D01*
X140612500Y-110101316D01*
X140622996Y-110090820D01*
X140681000Y-109950786D01*
X140681000Y-109222250D01*
X140612500Y-109153750D01*
X140612500Y-109127000D01*
X140187500Y-109127000D01*
X140187500Y-109153750D01*
X140119000Y-109222250D01*
X140038464Y-109222250D01*
X140038464Y-108125000D01*
X140024204Y-108049214D01*
X140119000Y-108049214D01*
X140119000Y-108777750D01*
X140187500Y-108846250D01*
X140187500Y-108873000D01*
X140612500Y-108873000D01*
X140612500Y-108846250D01*
X140681000Y-108777750D01*
X140681000Y-108125000D01*
X140761536Y-108125000D01*
X140761536Y-109875000D01*
X140788103Y-110016190D01*
X140837500Y-110092956D01*
X140837500Y-110160750D01*
X140932750Y-110256000D01*
X141025785Y-110256000D01*
X141054469Y-110244119D01*
X141150000Y-110263464D01*
X141600000Y-110263464D01*
X141703670Y-110243957D01*
X141800000Y-110263464D01*
X142250000Y-110263464D01*
X142391190Y-110236897D01*
X142520865Y-110153454D01*
X142607859Y-110026134D01*
X142638464Y-109875000D01*
X142638464Y-108125000D01*
X142611897Y-107983810D01*
X142528454Y-107854135D01*
X142401134Y-107767141D01*
X142250000Y-107736536D01*
X141800000Y-107736536D01*
X141696330Y-107756043D01*
X141600000Y-107736536D01*
X141150000Y-107736536D01*
X141052195Y-107754939D01*
X141025785Y-107744000D01*
X140932750Y-107744000D01*
X140837500Y-107839250D01*
X140837500Y-107907481D01*
X140792141Y-107973866D01*
X140761536Y-108125000D01*
X140681000Y-108125000D01*
X140681000Y-108049214D01*
X140622996Y-107909180D01*
X140612500Y-107898684D01*
X140612500Y-107839250D01*
X140517250Y-107744000D01*
X140424215Y-107744000D01*
X140400000Y-107754030D01*
X140375785Y-107744000D01*
X140282750Y-107744000D01*
X140187500Y-107839250D01*
X140187500Y-107898684D01*
X140177004Y-107909180D01*
X140119000Y-108049214D01*
X140024204Y-108049214D01*
X140011897Y-107983810D01*
X139962500Y-107907044D01*
X139962500Y-107839250D01*
X139867250Y-107744000D01*
X139774215Y-107744000D01*
X139745531Y-107755881D01*
X139650000Y-107736536D01*
X139200000Y-107736536D01*
X139096330Y-107756043D01*
X139000000Y-107736536D01*
X138550000Y-107736536D01*
X138446330Y-107756043D01*
X138350000Y-107736536D01*
X137900000Y-107736536D01*
X137802195Y-107754939D01*
X137775785Y-107744000D01*
X137682750Y-107744000D01*
X137587500Y-107839250D01*
X137587500Y-107907481D01*
X137542141Y-107973866D01*
X137511536Y-108125000D01*
X137511536Y-109147000D01*
X137438464Y-109147000D01*
X137438464Y-108125000D01*
X137411897Y-107983810D01*
X137362500Y-107907044D01*
X137362500Y-107839250D01*
X137267250Y-107744000D01*
X137174215Y-107744000D01*
X137145531Y-107755881D01*
X137050000Y-107736536D01*
X136600000Y-107736536D01*
X136496330Y-107756043D01*
X136400000Y-107736536D01*
X135950000Y-107736536D01*
X135852195Y-107754939D01*
X135825785Y-107744000D01*
X135732750Y-107744000D01*
X135637500Y-107839250D01*
X135637500Y-107907481D01*
X135592141Y-107973866D01*
X135561536Y-108125000D01*
X135488464Y-108125000D01*
X135461897Y-107983810D01*
X135412500Y-107907044D01*
X135412500Y-107839250D01*
X135381000Y-107807750D01*
X135381000Y-106334592D01*
X136015592Y-105700000D01*
X143361536Y-105700000D01*
X143361536Y-107200000D01*
X143388103Y-107341190D01*
X143471546Y-107470865D01*
X143598866Y-107557859D01*
X143750000Y-107588464D01*
X145050000Y-107588464D01*
X145191190Y-107561897D01*
X145320865Y-107478454D01*
X145407859Y-107351134D01*
X145437249Y-107206000D01*
X145561536Y-107206000D01*
X145561536Y-107300000D01*
X145588103Y-107441190D01*
X145671546Y-107570865D01*
X145798866Y-107657859D01*
X145950000Y-107688464D01*
X146850000Y-107688464D01*
X146991190Y-107661897D01*
X147120865Y-107578454D01*
X147207859Y-107451134D01*
X147238464Y-107300000D01*
X147238464Y-107206000D01*
X147900000Y-107206000D01*
X148093638Y-107167483D01*
X148257796Y-107057796D01*
X148907756Y-106407836D01*
X149017443Y-106243678D01*
X149055960Y-106050040D01*
X149055960Y-105921053D01*
X149120825Y-105879314D01*
X149207819Y-105751994D01*
X149238424Y-105600860D01*
X149238424Y-105322250D01*
X149569000Y-105322250D01*
X149569000Y-105775786D01*
X149627004Y-105915820D01*
X149734181Y-106022996D01*
X149874215Y-106081000D01*
X150177750Y-106081000D01*
X150273000Y-105985750D01*
X150273000Y-105227000D01*
X149664250Y-105227000D01*
X149569000Y-105322250D01*
X149238424Y-105322250D01*
X149238424Y-104600100D01*
X149211857Y-104458910D01*
X149189531Y-104424214D01*
X149569000Y-104424214D01*
X149569000Y-104877750D01*
X149664250Y-104973000D01*
X150273000Y-104973000D01*
X150273000Y-104214250D01*
X150177750Y-104119000D01*
X149874215Y-104119000D01*
X149734181Y-104177004D01*
X149627004Y-104284180D01*
X149569000Y-104424214D01*
X149189531Y-104424214D01*
X149128414Y-104329235D01*
X149001094Y-104242241D01*
X148849960Y-104211636D01*
X148249960Y-104211636D01*
X148108770Y-104238203D01*
X148074752Y-104260093D01*
X147975786Y-104219100D01*
X147822250Y-104219100D01*
X147727000Y-104314350D01*
X147727000Y-104973480D01*
X147747000Y-104973480D01*
X147747000Y-105227480D01*
X147727000Y-105227480D01*
X147727000Y-105886610D01*
X147822250Y-105981860D01*
X147902548Y-105981860D01*
X147690408Y-106194000D01*
X147238464Y-106194000D01*
X147238464Y-106100000D01*
X147215560Y-105978275D01*
X147224214Y-105981860D01*
X147377750Y-105981860D01*
X147473000Y-105886610D01*
X147473000Y-105227480D01*
X147453000Y-105227480D01*
X147453000Y-104973480D01*
X147473000Y-104973480D01*
X147473000Y-104314350D01*
X147377750Y-104219100D01*
X147224214Y-104219100D01*
X147126526Y-104259564D01*
X147101174Y-104242241D01*
X146950040Y-104211636D01*
X146350040Y-104211636D01*
X146208850Y-104238203D01*
X146079175Y-104321646D01*
X145992181Y-104448966D01*
X145962714Y-104594480D01*
X145466920Y-104594480D01*
X145467483Y-104593638D01*
X145506000Y-104400000D01*
X145506000Y-103877927D01*
X145591190Y-103861897D01*
X145720865Y-103778454D01*
X145807859Y-103651134D01*
X145838464Y-103500000D01*
X145838464Y-102300000D01*
X145811897Y-102158810D01*
X145728454Y-102029135D01*
X145601134Y-101942141D01*
X145450000Y-101911536D01*
X144550000Y-101911536D01*
X144408810Y-101938103D01*
X144279135Y-102021546D01*
X144192141Y-102148866D01*
X144161536Y-102300000D01*
X144161536Y-103500000D01*
X144188103Y-103641190D01*
X144271546Y-103770865D01*
X144398866Y-103857859D01*
X144494000Y-103877124D01*
X144494000Y-104190408D01*
X144165439Y-104518969D01*
X144065135Y-104518882D01*
X143814748Y-104622339D01*
X143623013Y-104813741D01*
X143519118Y-105063946D01*
X143518882Y-105334865D01*
X143538827Y-105383136D01*
X143479135Y-105421546D01*
X143392141Y-105548866D01*
X143361536Y-105700000D01*
X136015592Y-105700000D01*
X137209592Y-104506000D01*
X139200000Y-104506000D01*
X139393638Y-104467483D01*
X139557796Y-104357796D01*
X139608395Y-104307197D01*
X139642204Y-104357796D01*
X139806362Y-104467483D01*
X140000000Y-104506000D01*
X140193638Y-104467483D01*
X140357796Y-104357796D01*
X140432796Y-104282796D01*
X140542483Y-104118638D01*
X140581000Y-103925000D01*
X140542483Y-103731362D01*
X140432796Y-103567204D01*
X140382197Y-103533395D01*
X140432796Y-103482796D01*
X140542483Y-103318638D01*
X140581000Y-103125000D01*
X140581000Y-103063464D01*
X140950000Y-103063464D01*
X141053670Y-103043957D01*
X141150000Y-103063464D01*
X141600000Y-103063464D01*
X141703670Y-103043957D01*
X141800000Y-103063464D01*
X142250000Y-103063464D01*
X142391190Y-103036897D01*
X142520865Y-102953454D01*
X142607859Y-102826134D01*
X142638464Y-102675000D01*
X142638464Y-100938312D01*
X142677337Y-100922250D01*
X144169000Y-100922250D01*
X144169000Y-101375786D01*
X144227004Y-101515820D01*
X144334181Y-101622996D01*
X144474215Y-101681000D01*
X144777750Y-101681000D01*
X144873000Y-101585750D01*
X144873000Y-100827000D01*
X144264250Y-100827000D01*
X144169000Y-100922250D01*
X142677337Y-100922250D01*
X142785252Y-100877661D01*
X142976987Y-100686259D01*
X143080882Y-100436054D01*
X143081118Y-100165135D01*
X143022892Y-100024214D01*
X144169000Y-100024214D01*
X144169000Y-100477750D01*
X144264250Y-100573000D01*
X144873000Y-100573000D01*
X144873000Y-99814250D01*
X145127000Y-99814250D01*
X145127000Y-100573000D01*
X145147000Y-100573000D01*
X145147000Y-100827000D01*
X145127000Y-100827000D01*
X145127000Y-101585750D01*
X145222250Y-101681000D01*
X145525785Y-101681000D01*
X145665819Y-101622996D01*
X145772996Y-101515820D01*
X145830503Y-101376985D01*
X145948866Y-101457859D01*
X146100000Y-101488464D01*
X146129996Y-101488464D01*
X146079175Y-101521166D01*
X145992181Y-101648486D01*
X145961576Y-101799620D01*
X145961576Y-102800380D01*
X145988143Y-102941570D01*
X146071586Y-103071245D01*
X146198906Y-103158239D01*
X146350040Y-103188844D01*
X146950040Y-103188844D01*
X147091230Y-103162277D01*
X147220905Y-103078834D01*
X147307899Y-102951514D01*
X147338504Y-102800380D01*
X147338504Y-101799620D01*
X147311937Y-101658430D01*
X147228494Y-101528755D01*
X147156040Y-101479249D01*
X147156040Y-101477919D01*
X147241190Y-101461897D01*
X147370865Y-101378454D01*
X147457859Y-101251134D01*
X147488464Y-101100000D01*
X147488464Y-98100000D01*
X147461897Y-97958810D01*
X147378454Y-97829135D01*
X147251134Y-97742141D01*
X147100000Y-97711536D01*
X146100000Y-97711536D01*
X145958810Y-97738103D01*
X145829135Y-97821546D01*
X145742141Y-97948866D01*
X145711536Y-98100000D01*
X145711536Y-99822721D01*
X145665819Y-99777004D01*
X145525785Y-99719000D01*
X145222250Y-99719000D01*
X145127000Y-99814250D01*
X144873000Y-99814250D01*
X144777750Y-99719000D01*
X144474215Y-99719000D01*
X144334181Y-99777004D01*
X144227004Y-99884180D01*
X144169000Y-100024214D01*
X143022892Y-100024214D01*
X142977661Y-99914748D01*
X142786259Y-99723013D01*
X142536054Y-99619118D01*
X142265135Y-99618882D01*
X142014748Y-99722339D01*
X141823013Y-99913741D01*
X141719118Y-100163946D01*
X141719030Y-100265378D01*
X141667204Y-100317204D01*
X141557517Y-100481362D01*
X141546542Y-100536536D01*
X141150000Y-100536536D01*
X141046330Y-100556043D01*
X140950000Y-100536536D01*
X140500000Y-100536536D01*
X140396330Y-100556043D01*
X140300000Y-100536536D01*
X139931000Y-100536536D01*
X139931000Y-100484592D01*
X140034561Y-100381031D01*
X140134865Y-100381118D01*
X140385252Y-100277661D01*
X140576987Y-100086259D01*
X140680882Y-99836054D01*
X140681118Y-99565135D01*
X140577661Y-99314748D01*
X140386259Y-99123013D01*
X140136054Y-99019118D01*
X139865135Y-99018882D01*
X139614748Y-99122339D01*
X139423013Y-99313741D01*
X139319118Y-99563946D01*
X139319030Y-99665378D01*
X139067204Y-99917204D01*
X138957517Y-100081362D01*
X138919000Y-100275000D01*
X138919000Y-100536536D01*
X138550000Y-100536536D01*
X138452195Y-100554939D01*
X138425785Y-100544000D01*
X138332750Y-100544000D01*
X138237500Y-100639250D01*
X138237500Y-100707481D01*
X138192141Y-100773866D01*
X138161536Y-100925000D01*
X138161536Y-102675000D01*
X138188103Y-102816190D01*
X138237500Y-102892956D01*
X138237500Y-102960750D01*
X138332750Y-103056000D01*
X138425785Y-103056000D01*
X138454469Y-103044119D01*
X138550000Y-103063464D01*
X139000000Y-103063464D01*
X139103670Y-103043957D01*
X139200000Y-103063464D01*
X139420944Y-103063464D01*
X138990408Y-103494000D01*
X137000000Y-103494000D01*
X136806362Y-103532517D01*
X136642204Y-103642204D01*
X134517204Y-105767204D01*
X134407517Y-105931362D01*
X134369000Y-106125000D01*
X134369000Y-107736536D01*
X134000000Y-107736536D01*
X133896330Y-107756043D01*
X133800000Y-107736536D01*
X133350000Y-107736536D01*
X133208810Y-107763103D01*
X133079135Y-107846546D01*
X132992141Y-107973866D01*
X132961536Y-108125000D01*
X132961536Y-109094000D01*
X132209592Y-109094000D01*
X127957796Y-104842204D01*
X127831738Y-104757975D01*
X127831766Y-104725904D01*
X127659858Y-104309854D01*
X127341820Y-103991261D01*
X126926071Y-103818627D01*
X126475904Y-103818234D01*
X126059854Y-103990142D01*
X125741261Y-104308180D01*
X125568627Y-104723929D01*
X125568234Y-105174096D01*
X122527000Y-105174096D01*
X122527000Y-103894277D01*
X123618830Y-103894277D01*
X123767864Y-104254966D01*
X124043583Y-104531166D01*
X124404011Y-104680829D01*
X124794277Y-104681170D01*
X125154966Y-104532136D01*
X125431166Y-104256417D01*
X125580829Y-103895989D01*
X125581170Y-103505723D01*
X125489086Y-103282861D01*
X126046744Y-103282861D01*
X126128715Y-103452371D01*
X126555793Y-103594691D01*
X127004824Y-103562743D01*
X127271285Y-103452371D01*
X127353256Y-103282861D01*
X126700000Y-102629605D01*
X126046744Y-103282861D01*
X125489086Y-103282861D01*
X125432136Y-103145034D01*
X125156417Y-102868834D01*
X124795989Y-102719171D01*
X124405723Y-102718830D01*
X124045034Y-102867864D01*
X123768834Y-103143583D01*
X123619171Y-103504011D01*
X123618830Y-103894277D01*
X122527000Y-103894277D01*
X122527000Y-102305793D01*
X125555309Y-102305793D01*
X125587257Y-102754824D01*
X125697629Y-103021285D01*
X125867139Y-103103256D01*
X126520395Y-102450000D01*
X126879605Y-102450000D01*
X127532861Y-103103256D01*
X127702371Y-103021285D01*
X127844691Y-102594207D01*
X127812743Y-102145176D01*
X127702371Y-101878715D01*
X127532861Y-101796744D01*
X126879605Y-102450000D01*
X126520395Y-102450000D01*
X125867139Y-101796744D01*
X125697629Y-101878715D01*
X125555309Y-102305793D01*
X122527000Y-102305793D01*
X122527000Y-101475350D01*
X123404256Y-101475350D01*
X123578014Y-101722709D01*
X124276791Y-101990285D01*
X125024775Y-101970082D01*
X125621986Y-101722709D01*
X125696143Y-101617139D01*
X126046744Y-101617139D01*
X126700000Y-102270395D01*
X127353256Y-101617139D01*
X127271285Y-101447629D01*
X126844207Y-101305309D01*
X126395176Y-101337257D01*
X126128715Y-101447629D01*
X126046744Y-101617139D01*
X125696143Y-101617139D01*
X125795744Y-101475350D01*
X124600000Y-100279605D01*
X123404256Y-101475350D01*
X122527000Y-101475350D01*
X122527000Y-99776791D01*
X122709715Y-99776791D01*
X122729918Y-100524775D01*
X122977291Y-101121986D01*
X123224650Y-101295744D01*
X124420395Y-100100000D01*
X124779605Y-100100000D01*
X125975350Y-101295744D01*
X126222709Y-101121986D01*
X126298138Y-100925000D01*
X132961536Y-100925000D01*
X132961536Y-102675000D01*
X132988103Y-102816190D01*
X133071546Y-102945865D01*
X133198866Y-103032859D01*
X133350000Y-103063464D01*
X133800000Y-103063464D01*
X133903670Y-103043957D01*
X134000000Y-103063464D01*
X134450000Y-103063464D01*
X134553670Y-103043957D01*
X134650000Y-103063464D01*
X135100000Y-103063464D01*
X135203670Y-103043957D01*
X135300000Y-103063464D01*
X135750000Y-103063464D01*
X135853670Y-103043957D01*
X135950000Y-103063464D01*
X136400000Y-103063464D01*
X136503670Y-103043957D01*
X136600000Y-103063464D01*
X137050000Y-103063464D01*
X137153670Y-103043957D01*
X137250000Y-103063464D01*
X137700000Y-103063464D01*
X137797805Y-103045061D01*
X137824215Y-103056000D01*
X137917250Y-103056000D01*
X138012500Y-102960750D01*
X138012500Y-102892519D01*
X138057859Y-102826134D01*
X138088464Y-102675000D01*
X138088464Y-100925000D01*
X138061897Y-100783810D01*
X138012500Y-100707044D01*
X138012500Y-100639250D01*
X137917250Y-100544000D01*
X137824215Y-100544000D01*
X137795531Y-100555881D01*
X137700000Y-100536536D01*
X137250000Y-100536536D01*
X137146330Y-100556043D01*
X137050000Y-100536536D01*
X136600000Y-100536536D01*
X136496330Y-100556043D01*
X136400000Y-100536536D01*
X135950000Y-100536536D01*
X135846330Y-100556043D01*
X135750000Y-100536536D01*
X135300000Y-100536536D01*
X135196330Y-100556043D01*
X135100000Y-100536536D01*
X134650000Y-100536536D01*
X134546330Y-100556043D01*
X134450000Y-100536536D01*
X134000000Y-100536536D01*
X133896330Y-100556043D01*
X133800000Y-100536536D01*
X133350000Y-100536536D01*
X133208810Y-100563103D01*
X133079135Y-100646546D01*
X132992141Y-100773866D01*
X132961536Y-100925000D01*
X126298138Y-100925000D01*
X126490285Y-100423209D01*
X126470082Y-99675225D01*
X126222709Y-99078014D01*
X125975350Y-98904256D01*
X124779605Y-100100000D01*
X124420395Y-100100000D01*
X123224650Y-98904256D01*
X122977291Y-99078014D01*
X122709715Y-99776791D01*
X122527000Y-99776791D01*
X122527000Y-98724650D01*
X123404256Y-98724650D01*
X124600000Y-99920395D01*
X125795744Y-98724650D01*
X125621986Y-98477291D01*
X124923209Y-98209715D01*
X124175225Y-98229918D01*
X123578014Y-98477291D01*
X123404256Y-98724650D01*
X122527000Y-98724650D01*
X122527000Y-98487972D01*
X122581784Y-98212555D01*
X122914544Y-97714544D01*
X123412555Y-97381784D01*
X124044911Y-97256000D01*
X162628406Y-97256000D01*
X159040406Y-100844000D01*
G36*
X161100000Y-106556000D02*
X162290408Y-106556000D01*
X163067204Y-107332796D01*
X163117803Y-107366605D01*
X162267204Y-108217204D01*
X162157517Y-108381362D01*
X162119000Y-108575000D01*
X162119000Y-111949658D01*
X162106500Y-112012500D01*
X162145017Y-112206138D01*
X162254704Y-112370296D01*
X163478408Y-113594000D01*
X158850423Y-113594000D01*
X158917483Y-113493638D01*
X158956000Y-113300000D01*
X158956000Y-109864193D01*
X159047339Y-110085252D01*
X159238741Y-110276987D01*
X159488946Y-110380882D01*
X159759865Y-110381118D01*
X160010252Y-110277661D01*
X160201987Y-110086259D01*
X160305882Y-109836054D01*
X160305970Y-109734622D01*
X160807796Y-109232796D01*
X160917483Y-109068638D01*
X160956000Y-108875000D01*
X160956000Y-106527357D01*
X161100000Y-106556000D01*
X161100000Y-106556000D01*
G37*
X161100000Y-106556000D02*
X162290408Y-106556000D01*
X163067204Y-107332796D01*
X163117803Y-107366605D01*
X162267204Y-108217204D01*
X162157517Y-108381362D01*
X162119000Y-108575000D01*
X162119000Y-111949658D01*
X162106500Y-112012500D01*
X162145017Y-112206138D01*
X162254704Y-112370296D01*
X163478408Y-113594000D01*
X158850423Y-113594000D01*
X158917483Y-113493638D01*
X158956000Y-113300000D01*
X158956000Y-109864193D01*
X159047339Y-110085252D01*
X159238741Y-110276987D01*
X159488946Y-110380882D01*
X159759865Y-110381118D01*
X160010252Y-110277661D01*
X160201987Y-110086259D01*
X160305882Y-109836054D01*
X160305970Y-109734622D01*
X160807796Y-109232796D01*
X160917483Y-109068638D01*
X160956000Y-108875000D01*
X160956000Y-106527357D01*
X161100000Y-106556000D01*
G36*
X174768969Y-110834561D02*
X174768882Y-110934865D01*
X174872339Y-111185252D01*
X175063741Y-111376987D01*
X175313946Y-111480882D01*
X175584865Y-111481118D01*
X175823000Y-111382723D01*
X175823000Y-111992507D01*
X175586054Y-111894118D01*
X175315135Y-111893882D01*
X175064748Y-111997339D01*
X174873013Y-112188741D01*
X174769118Y-112438946D01*
X174769102Y-112457413D01*
X174642204Y-112542204D01*
X173590408Y-113594000D01*
X168746592Y-113594000D01*
X169134561Y-113206031D01*
X169234865Y-113206118D01*
X169485252Y-113102661D01*
X169676987Y-112911259D01*
X169689803Y-112880395D01*
X169936536Y-113127128D01*
X169936536Y-113205000D01*
X169963103Y-113346190D01*
X170046546Y-113475865D01*
X170173866Y-113562859D01*
X170325000Y-113593464D01*
X171875000Y-113593464D01*
X172016190Y-113566897D01*
X172145865Y-113483454D01*
X172232859Y-113356134D01*
X172263464Y-113205000D01*
X172263464Y-112605000D01*
X172236897Y-112463810D01*
X172153454Y-112334135D01*
X172058813Y-112269470D01*
X172145865Y-112213454D01*
X172195371Y-112141000D01*
X173415000Y-112141000D01*
X173608638Y-112102483D01*
X173772796Y-111992796D01*
X174107796Y-111657796D01*
X174124744Y-111632432D01*
X174217483Y-111493638D01*
X174256000Y-111300000D01*
X174256000Y-110321592D01*
X174768969Y-110834561D01*
X174768969Y-110834561D01*
G37*
X174768969Y-110834561D02*
X174768882Y-110934865D01*
X174872339Y-111185252D01*
X175063741Y-111376987D01*
X175313946Y-111480882D01*
X175584865Y-111481118D01*
X175823000Y-111382723D01*
X175823000Y-111992507D01*
X175586054Y-111894118D01*
X175315135Y-111893882D01*
X175064748Y-111997339D01*
X174873013Y-112188741D01*
X174769118Y-112438946D01*
X174769102Y-112457413D01*
X174642204Y-112542204D01*
X173590408Y-113594000D01*
X168746592Y-113594000D01*
X169134561Y-113206031D01*
X169234865Y-113206118D01*
X169485252Y-113102661D01*
X169676987Y-112911259D01*
X169689803Y-112880395D01*
X169936536Y-113127128D01*
X169936536Y-113205000D01*
X169963103Y-113346190D01*
X170046546Y-113475865D01*
X170173866Y-113562859D01*
X170325000Y-113593464D01*
X171875000Y-113593464D01*
X172016190Y-113566897D01*
X172145865Y-113483454D01*
X172232859Y-113356134D01*
X172263464Y-113205000D01*
X172263464Y-112605000D01*
X172236897Y-112463810D01*
X172153454Y-112334135D01*
X172058813Y-112269470D01*
X172145865Y-112213454D01*
X172195371Y-112141000D01*
X173415000Y-112141000D01*
X173608638Y-112102483D01*
X173772796Y-111992796D01*
X174107796Y-111657796D01*
X174124744Y-111632432D01*
X174217483Y-111493638D01*
X174256000Y-111300000D01*
X174256000Y-110321592D01*
X174768969Y-110834561D01*
G36*
X168694000Y-111650000D02*
X168732517Y-111843638D01*
X168782972Y-111919150D01*
X168714748Y-111947339D01*
X168523013Y-112138741D01*
X168419118Y-112388946D01*
X168419030Y-112490378D01*
X167815408Y-113094000D01*
X167400000Y-113094000D01*
X167399008Y-113094197D01*
X167398016Y-113094004D01*
X166825001Y-113096251D01*
X166760750Y-113032000D01*
X165827000Y-113032000D01*
X165827000Y-113052000D01*
X165573000Y-113052000D01*
X165573000Y-113032000D01*
X164639250Y-113032000D01*
X164566141Y-113105109D01*
X164421270Y-113105678D01*
X163131000Y-111815408D01*
X163131000Y-110986012D01*
X163132517Y-110993638D01*
X163242204Y-111157796D01*
X164077204Y-111992796D01*
X164241362Y-112102483D01*
X164435000Y-112141000D01*
X164604807Y-112141000D01*
X164646546Y-112205865D01*
X164739561Y-112269420D01*
X164709180Y-112282004D01*
X164602004Y-112389181D01*
X164544000Y-112529215D01*
X164544000Y-112682750D01*
X164639250Y-112778000D01*
X165573000Y-112778000D01*
X165573000Y-112758000D01*
X165827000Y-112758000D01*
X165827000Y-112778000D01*
X166760750Y-112778000D01*
X166856000Y-112682750D01*
X166856000Y-112529215D01*
X166797996Y-112389181D01*
X166690820Y-112282004D01*
X166659497Y-112269030D01*
X166745865Y-112213454D01*
X166832859Y-112086134D01*
X166863464Y-111935000D01*
X166863464Y-111335000D01*
X166836897Y-111193810D01*
X166753454Y-111064135D01*
X166658813Y-110999470D01*
X166745865Y-110943454D01*
X166795371Y-110871000D01*
X168635000Y-110871000D01*
X168694000Y-110859264D01*
X168694000Y-111650000D01*
X168694000Y-111650000D01*
G37*
X168694000Y-111650000D02*
X168732517Y-111843638D01*
X168782972Y-111919150D01*
X168714748Y-111947339D01*
X168523013Y-112138741D01*
X168419118Y-112388946D01*
X168419030Y-112490378D01*
X167815408Y-113094000D01*
X167400000Y-113094000D01*
X167399008Y-113094197D01*
X167398016Y-113094004D01*
X166825001Y-113096251D01*
X166760750Y-113032000D01*
X165827000Y-113032000D01*
X165827000Y-113052000D01*
X165573000Y-113052000D01*
X165573000Y-113032000D01*
X164639250Y-113032000D01*
X164566141Y-113105109D01*
X164421270Y-113105678D01*
X163131000Y-111815408D01*
X163131000Y-110986012D01*
X163132517Y-110993638D01*
X163242204Y-111157796D01*
X164077204Y-111992796D01*
X164241362Y-112102483D01*
X164435000Y-112141000D01*
X164604807Y-112141000D01*
X164646546Y-112205865D01*
X164739561Y-112269420D01*
X164709180Y-112282004D01*
X164602004Y-112389181D01*
X164544000Y-112529215D01*
X164544000Y-112682750D01*
X164639250Y-112778000D01*
X165573000Y-112778000D01*
X165573000Y-112758000D01*
X165827000Y-112758000D01*
X165827000Y-112778000D01*
X166760750Y-112778000D01*
X166856000Y-112682750D01*
X166856000Y-112529215D01*
X166797996Y-112389181D01*
X166690820Y-112282004D01*
X166659497Y-112269030D01*
X166745865Y-112213454D01*
X166832859Y-112086134D01*
X166863464Y-111935000D01*
X166863464Y-111335000D01*
X166836897Y-111193810D01*
X166753454Y-111064135D01*
X166658813Y-110999470D01*
X166745865Y-110943454D01*
X166795371Y-110871000D01*
X168635000Y-110871000D01*
X168694000Y-110859264D01*
X168694000Y-111650000D01*
G36*
X174325000Y-108806000D02*
X174847250Y-108806000D01*
X174914250Y-108873000D01*
X175325000Y-108873000D01*
X175325000Y-108853000D01*
X175575000Y-108853000D01*
X175575000Y-108873000D01*
X175597000Y-108873000D01*
X175597000Y-109127000D01*
X175575000Y-109127000D01*
X175575000Y-109585750D01*
X175670250Y-109681000D01*
X175775785Y-109681000D01*
X175823000Y-109661443D01*
X175823000Y-110217507D01*
X175586054Y-110119118D01*
X175484622Y-110119030D01*
X174991704Y-109626112D01*
X175124215Y-109681000D01*
X175229750Y-109681000D01*
X175325000Y-109585750D01*
X175325000Y-109127000D01*
X174914250Y-109127000D01*
X174819000Y-109222250D01*
X174819000Y-109375786D01*
X174873887Y-109508295D01*
X174133500Y-108767908D01*
X174325000Y-108806000D01*
X174325000Y-108806000D01*
G37*
X174325000Y-108806000D02*
X174847250Y-108806000D01*
X174914250Y-108873000D01*
X175325000Y-108873000D01*
X175325000Y-108853000D01*
X175575000Y-108853000D01*
X175575000Y-108873000D01*
X175597000Y-108873000D01*
X175597000Y-109127000D01*
X175575000Y-109127000D01*
X175575000Y-109585750D01*
X175670250Y-109681000D01*
X175775785Y-109681000D01*
X175823000Y-109661443D01*
X175823000Y-110217507D01*
X175586054Y-110119118D01*
X175484622Y-110119030D01*
X174991704Y-109626112D01*
X175124215Y-109681000D01*
X175229750Y-109681000D01*
X175325000Y-109585750D01*
X175325000Y-109127000D01*
X174914250Y-109127000D01*
X174819000Y-109222250D01*
X174819000Y-109375786D01*
X174873887Y-109508295D01*
X174133500Y-108767908D01*
X174325000Y-108806000D01*
G36*
X158794000Y-105250000D02*
X158832517Y-105443638D01*
X158942204Y-105607796D01*
X159092204Y-105757796D01*
X159256362Y-105867483D01*
X159450000Y-105906000D01*
X159861981Y-105906000D01*
X159871546Y-105920865D01*
X159944000Y-105970371D01*
X159944000Y-108665408D01*
X159590439Y-109018969D01*
X159490135Y-109018882D01*
X159239748Y-109122339D01*
X159048013Y-109313741D01*
X158956000Y-109535331D01*
X158956000Y-108000000D01*
X158917483Y-107806362D01*
X158807796Y-107642204D01*
X158732454Y-107591862D01*
X158432796Y-107292204D01*
X158268638Y-107182517D01*
X158075000Y-107144000D01*
X156259592Y-107144000D01*
X154781031Y-105665439D01*
X154781118Y-105565135D01*
X154677661Y-105314748D01*
X154486259Y-105123013D01*
X154236054Y-105019118D01*
X154196508Y-105019084D01*
X154934561Y-104281031D01*
X155034865Y-104281118D01*
X155285252Y-104177661D01*
X155476987Y-103986259D01*
X155580882Y-103736054D01*
X155581118Y-103465135D01*
X155556684Y-103406000D01*
X158500000Y-103406000D01*
X158693638Y-103367483D01*
X158794000Y-103300423D01*
X158794000Y-105250000D01*
X158794000Y-105250000D01*
G37*
X158794000Y-105250000D02*
X158832517Y-105443638D01*
X158942204Y-105607796D01*
X159092204Y-105757796D01*
X159256362Y-105867483D01*
X159450000Y-105906000D01*
X159861981Y-105906000D01*
X159871546Y-105920865D01*
X159944000Y-105970371D01*
X159944000Y-108665408D01*
X159590439Y-109018969D01*
X159490135Y-109018882D01*
X159239748Y-109122339D01*
X159048013Y-109313741D01*
X158956000Y-109535331D01*
X158956000Y-108000000D01*
X158917483Y-107806362D01*
X158807796Y-107642204D01*
X158732454Y-107591862D01*
X158432796Y-107292204D01*
X158268638Y-107182517D01*
X158075000Y-107144000D01*
X156259592Y-107144000D01*
X154781031Y-105665439D01*
X154781118Y-105565135D01*
X154677661Y-105314748D01*
X154486259Y-105123013D01*
X154236054Y-105019118D01*
X154196508Y-105019084D01*
X154934561Y-104281031D01*
X155034865Y-104281118D01*
X155285252Y-104177661D01*
X155476987Y-103986259D01*
X155580882Y-103736054D01*
X155581118Y-103465135D01*
X155556684Y-103406000D01*
X158500000Y-103406000D01*
X158693638Y-103367483D01*
X158794000Y-103300423D01*
X158794000Y-105250000D01*
G36*
X174327000Y-106273000D02*
X174347000Y-106273000D01*
X174347000Y-106527000D01*
X174327000Y-106527000D01*
X174327000Y-107235750D01*
X174422250Y-107331000D01*
X174675786Y-107331000D01*
X174742370Y-107303420D01*
X174748866Y-107307859D01*
X174900000Y-107338464D01*
X174917575Y-107338464D01*
X174842141Y-107448866D01*
X174811536Y-107600000D01*
X174811536Y-107794000D01*
X174609592Y-107794000D01*
X174062171Y-107246579D01*
X174073000Y-107235750D01*
X174073000Y-106527000D01*
X174053000Y-106527000D01*
X174053000Y-106273000D01*
X174073000Y-106273000D01*
X174073000Y-106253000D01*
X174327000Y-106253000D01*
X174327000Y-106273000D01*
X174327000Y-106273000D01*
G37*
X174327000Y-106273000D02*
X174347000Y-106273000D01*
X174347000Y-106527000D01*
X174327000Y-106527000D01*
X174327000Y-107235750D01*
X174422250Y-107331000D01*
X174675786Y-107331000D01*
X174742370Y-107303420D01*
X174748866Y-107307859D01*
X174900000Y-107338464D01*
X174917575Y-107338464D01*
X174842141Y-107448866D01*
X174811536Y-107600000D01*
X174811536Y-107794000D01*
X174609592Y-107794000D01*
X174062171Y-107246579D01*
X174073000Y-107235750D01*
X174073000Y-106527000D01*
X174053000Y-106527000D01*
X174053000Y-106273000D01*
X174073000Y-106273000D01*
X174073000Y-106253000D01*
X174327000Y-106253000D01*
X174327000Y-106273000D01*
G36*
X174321546Y-101670865D02*
X174448866Y-101757859D01*
X174600000Y-101788464D01*
X175823000Y-101788464D01*
X175823000Y-102909268D01*
X175725786Y-102869000D01*
X175572250Y-102869000D01*
X175477000Y-102964250D01*
X175477000Y-103375000D01*
X175497000Y-103375000D01*
X175497000Y-103625000D01*
X175477000Y-103625000D01*
X175477000Y-104014250D01*
X175427000Y-104064250D01*
X175427000Y-104773000D01*
X175447000Y-104773000D01*
X175447000Y-105027000D01*
X175427000Y-105027000D01*
X175427000Y-105047000D01*
X175173000Y-105047000D01*
X175173000Y-105027000D01*
X175153000Y-105027000D01*
X175153000Y-104773000D01*
X175173000Y-104773000D01*
X175173000Y-104085750D01*
X175223000Y-104035750D01*
X175223000Y-103625000D01*
X175203000Y-103625000D01*
X175203000Y-103375000D01*
X175223000Y-103375000D01*
X175223000Y-102964250D01*
X175127750Y-102869000D01*
X174974214Y-102869000D01*
X174834180Y-102927004D01*
X174800886Y-102960298D01*
X174701134Y-102892141D01*
X174550000Y-102861536D01*
X173950000Y-102861536D01*
X173808810Y-102888103D01*
X173679135Y-102971546D01*
X173592141Y-103098866D01*
X173567004Y-103222998D01*
X173485752Y-103222998D01*
X173581000Y-103127750D01*
X173581000Y-102974214D01*
X173522996Y-102834180D01*
X173489702Y-102800886D01*
X173557859Y-102701134D01*
X173588464Y-102550000D01*
X173588464Y-101950000D01*
X173561897Y-101808810D01*
X173478454Y-101679135D01*
X173405843Y-101629522D01*
X173450000Y-101638464D01*
X174050000Y-101638464D01*
X174191190Y-101611897D01*
X174256542Y-101569845D01*
X174321546Y-101670865D01*
X174321546Y-101670865D01*
G37*
X174321546Y-101670865D02*
X174448866Y-101757859D01*
X174600000Y-101788464D01*
X175823000Y-101788464D01*
X175823000Y-102909268D01*
X175725786Y-102869000D01*
X175572250Y-102869000D01*
X175477000Y-102964250D01*
X175477000Y-103375000D01*
X175497000Y-103375000D01*
X175497000Y-103625000D01*
X175477000Y-103625000D01*
X175477000Y-104014250D01*
X175427000Y-104064250D01*
X175427000Y-104773000D01*
X175447000Y-104773000D01*
X175447000Y-105027000D01*
X175427000Y-105027000D01*
X175427000Y-105047000D01*
X175173000Y-105047000D01*
X175173000Y-105027000D01*
X175153000Y-105027000D01*
X175153000Y-104773000D01*
X175173000Y-104773000D01*
X175173000Y-104085750D01*
X175223000Y-104035750D01*
X175223000Y-103625000D01*
X175203000Y-103625000D01*
X175203000Y-103375000D01*
X175223000Y-103375000D01*
X175223000Y-102964250D01*
X175127750Y-102869000D01*
X174974214Y-102869000D01*
X174834180Y-102927004D01*
X174800886Y-102960298D01*
X174701134Y-102892141D01*
X174550000Y-102861536D01*
X173950000Y-102861536D01*
X173808810Y-102888103D01*
X173679135Y-102971546D01*
X173592141Y-103098866D01*
X173567004Y-103222998D01*
X173485752Y-103222998D01*
X173581000Y-103127750D01*
X173581000Y-102974214D01*
X173522996Y-102834180D01*
X173489702Y-102800886D01*
X173557859Y-102701134D01*
X173588464Y-102550000D01*
X173588464Y-101950000D01*
X173561897Y-101808810D01*
X173478454Y-101679135D01*
X173405843Y-101629522D01*
X173450000Y-101638464D01*
X174050000Y-101638464D01*
X174191190Y-101611897D01*
X174256542Y-101569845D01*
X174321546Y-101670865D01*
G36*
X160577000Y-103875000D02*
X160597000Y-103875000D01*
X160597000Y-104125000D01*
X160577000Y-104125000D01*
X160577000Y-104535750D01*
X160672250Y-104631000D01*
X160825786Y-104631000D01*
X160965820Y-104572996D01*
X160999114Y-104539702D01*
X161098866Y-104607859D01*
X161250000Y-104638464D01*
X161595944Y-104638464D01*
X161472872Y-104761536D01*
X161250000Y-104761536D01*
X161108810Y-104788103D01*
X160998814Y-104858883D01*
X160901134Y-104792141D01*
X160750000Y-104761536D01*
X160150000Y-104761536D01*
X160008810Y-104788103D01*
X159879135Y-104871546D01*
X159863793Y-104894000D01*
X159806000Y-104894000D01*
X159806000Y-104415111D01*
X159827004Y-104465819D01*
X159934180Y-104572996D01*
X160074214Y-104631000D01*
X160227750Y-104631000D01*
X160323000Y-104535750D01*
X160323000Y-104125000D01*
X160303000Y-104125000D01*
X160303000Y-103875000D01*
X160323000Y-103875000D01*
X160323000Y-103853000D01*
X160577000Y-103853000D01*
X160577000Y-103875000D01*
X160577000Y-103875000D01*
G37*
X160577000Y-103875000D02*
X160597000Y-103875000D01*
X160597000Y-104125000D01*
X160577000Y-104125000D01*
X160577000Y-104535750D01*
X160672250Y-104631000D01*
X160825786Y-104631000D01*
X160965820Y-104572996D01*
X160999114Y-104539702D01*
X161098866Y-104607859D01*
X161250000Y-104638464D01*
X161595944Y-104638464D01*
X161472872Y-104761536D01*
X161250000Y-104761536D01*
X161108810Y-104788103D01*
X160998814Y-104858883D01*
X160901134Y-104792141D01*
X160750000Y-104761536D01*
X160150000Y-104761536D01*
X160008810Y-104788103D01*
X159879135Y-104871546D01*
X159863793Y-104894000D01*
X159806000Y-104894000D01*
X159806000Y-104415111D01*
X159827004Y-104465819D01*
X159934180Y-104572996D01*
X160074214Y-104631000D01*
X160227750Y-104631000D01*
X160323000Y-104535750D01*
X160323000Y-104125000D01*
X160303000Y-104125000D01*
X160303000Y-103875000D01*
X160323000Y-103875000D01*
X160323000Y-103853000D01*
X160577000Y-103853000D01*
X160577000Y-103875000D01*
G36*
X167864500Y-102810500D02*
X169335500Y-102810500D01*
X169335500Y-102790500D01*
X169589500Y-102790500D01*
X169589500Y-102810500D01*
X169609500Y-102810500D01*
X169609500Y-103064500D01*
X169589500Y-103064500D01*
X169589500Y-104535500D01*
X169609500Y-104535500D01*
X169609500Y-104789500D01*
X169589500Y-104789500D01*
X169589500Y-104809500D01*
X169335500Y-104809500D01*
X169335500Y-104789500D01*
X167864500Y-104789500D01*
X167864500Y-104809500D01*
X167610500Y-104809500D01*
X167610500Y-104789500D01*
X167590500Y-104789500D01*
X167590500Y-104535500D01*
X167610500Y-104535500D01*
X167610500Y-103064500D01*
X167864500Y-103064500D01*
X167864500Y-104535500D01*
X169335500Y-104535500D01*
X169335500Y-103064500D01*
X167864500Y-103064500D01*
X167610500Y-103064500D01*
X167590500Y-103064500D01*
X167590500Y-102810500D01*
X167610500Y-102810500D01*
X167610500Y-102790500D01*
X167864500Y-102790500D01*
X167864500Y-102810500D01*
X167864500Y-102810500D01*
G37*
X167864500Y-102810500D02*
X169335500Y-102810500D01*
X169335500Y-102790500D01*
X169589500Y-102790500D01*
X169589500Y-102810500D01*
X169609500Y-102810500D01*
X169609500Y-103064500D01*
X169589500Y-103064500D01*
X169589500Y-104535500D01*
X169609500Y-104535500D01*
X169609500Y-104789500D01*
X169589500Y-104789500D01*
X169589500Y-104809500D01*
X169335500Y-104809500D01*
X169335500Y-104789500D01*
X167864500Y-104789500D01*
X167864500Y-104809500D01*
X167610500Y-104809500D01*
X167610500Y-104789500D01*
X167590500Y-104789500D01*
X167590500Y-104535500D01*
X167610500Y-104535500D01*
X167610500Y-103064500D01*
X167864500Y-103064500D01*
X167864500Y-104535500D01*
X169335500Y-104535500D01*
X169335500Y-103064500D01*
X167864500Y-103064500D01*
X167610500Y-103064500D01*
X167590500Y-103064500D01*
X167590500Y-102810500D01*
X167610500Y-102810500D01*
X167610500Y-102790500D01*
X167864500Y-102790500D01*
X167864500Y-102810500D01*
G36*
X173075000Y-103223000D02*
X173097000Y-103223000D01*
X173097000Y-103477000D01*
X173075000Y-103477000D01*
X173075000Y-103497000D01*
X172825000Y-103497000D01*
X172825000Y-103477000D01*
X172803000Y-103477000D01*
X172803000Y-103223000D01*
X172825000Y-103223000D01*
X172825000Y-103203000D01*
X173075000Y-103203000D01*
X173075000Y-103223000D01*
X173075000Y-103223000D01*
G37*
X173075000Y-103223000D02*
X173097000Y-103223000D01*
X173097000Y-103477000D01*
X173075000Y-103477000D01*
X173075000Y-103497000D01*
X172825000Y-103497000D01*
X172825000Y-103477000D01*
X172803000Y-103477000D01*
X172803000Y-103223000D01*
X172825000Y-103223000D01*
X172825000Y-103203000D01*
X173075000Y-103203000D01*
X173075000Y-103223000D01*
G36*
X175823000Y-100311536D02*
X174638464Y-100311536D01*
X174638464Y-99850000D01*
X174611897Y-99708810D01*
X174540680Y-99598135D01*
X174572996Y-99565820D01*
X174631000Y-99425786D01*
X174631000Y-99272250D01*
X174535750Y-99177000D01*
X174125000Y-99177000D01*
X174125000Y-99197000D01*
X173875000Y-99197000D01*
X173875000Y-99177000D01*
X173464250Y-99177000D01*
X173369000Y-99272250D01*
X173369000Y-99425786D01*
X173427004Y-99565820D01*
X173460298Y-99599114D01*
X173392141Y-99698866D01*
X173361536Y-99850000D01*
X173361536Y-100378182D01*
X173308810Y-100388103D01*
X173198814Y-100458883D01*
X173101134Y-100392141D01*
X173038464Y-100379450D01*
X173038464Y-99850000D01*
X173011897Y-99708810D01*
X172940680Y-99598135D01*
X172972996Y-99565820D01*
X173031000Y-99425786D01*
X173031000Y-99272250D01*
X172935750Y-99177000D01*
X172525000Y-99177000D01*
X172525000Y-99197000D01*
X172275000Y-99197000D01*
X172275000Y-99177000D01*
X171864250Y-99177000D01*
X171769000Y-99272250D01*
X171769000Y-99425786D01*
X171827004Y-99565820D01*
X171860298Y-99599114D01*
X171792141Y-99698866D01*
X171761536Y-99850000D01*
X171761536Y-100445944D01*
X171557796Y-100242204D01*
X171393638Y-100132517D01*
X171200000Y-100094000D01*
X170671592Y-100094000D01*
X171007796Y-99757796D01*
X171117483Y-99593638D01*
X171156000Y-99400000D01*
X171156000Y-98674214D01*
X171769000Y-98674214D01*
X171769000Y-98827750D01*
X171864250Y-98923000D01*
X172275000Y-98923000D01*
X172275000Y-98464250D01*
X172525000Y-98464250D01*
X172525000Y-98923000D01*
X172935750Y-98923000D01*
X173031000Y-98827750D01*
X173031000Y-98674214D01*
X173369000Y-98674214D01*
X173369000Y-98827750D01*
X173464250Y-98923000D01*
X173875000Y-98923000D01*
X173875000Y-98464250D01*
X174125000Y-98464250D01*
X174125000Y-98923000D01*
X174535750Y-98923000D01*
X174631000Y-98827750D01*
X174631000Y-98674214D01*
X174572996Y-98534180D01*
X174465819Y-98427004D01*
X174325785Y-98369000D01*
X174220250Y-98369000D01*
X174125000Y-98464250D01*
X173875000Y-98464250D01*
X173779750Y-98369000D01*
X173674215Y-98369000D01*
X173534181Y-98427004D01*
X173427004Y-98534180D01*
X173369000Y-98674214D01*
X173031000Y-98674214D01*
X172972996Y-98534180D01*
X172865819Y-98427004D01*
X172725785Y-98369000D01*
X172620250Y-98369000D01*
X172525000Y-98464250D01*
X172275000Y-98464250D01*
X172179750Y-98369000D01*
X172074215Y-98369000D01*
X171934181Y-98427004D01*
X171827004Y-98534180D01*
X171769000Y-98674214D01*
X171156000Y-98674214D01*
X171156000Y-98000000D01*
X171117483Y-97806362D01*
X171007796Y-97642204D01*
X170621592Y-97256000D01*
X175823000Y-97256000D01*
X175823000Y-100311536D01*
X175823000Y-100311536D01*
G37*
X175823000Y-100311536D02*
X174638464Y-100311536D01*
X174638464Y-99850000D01*
X174611897Y-99708810D01*
X174540680Y-99598135D01*
X174572996Y-99565820D01*
X174631000Y-99425786D01*
X174631000Y-99272250D01*
X174535750Y-99177000D01*
X174125000Y-99177000D01*
X174125000Y-99197000D01*
X173875000Y-99197000D01*
X173875000Y-99177000D01*
X173464250Y-99177000D01*
X173369000Y-99272250D01*
X173369000Y-99425786D01*
X173427004Y-99565820D01*
X173460298Y-99599114D01*
X173392141Y-99698866D01*
X173361536Y-99850000D01*
X173361536Y-100378182D01*
X173308810Y-100388103D01*
X173198814Y-100458883D01*
X173101134Y-100392141D01*
X173038464Y-100379450D01*
X173038464Y-99850000D01*
X173011897Y-99708810D01*
X172940680Y-99598135D01*
X172972996Y-99565820D01*
X173031000Y-99425786D01*
X173031000Y-99272250D01*
X172935750Y-99177000D01*
X172525000Y-99177000D01*
X172525000Y-99197000D01*
X172275000Y-99197000D01*
X172275000Y-99177000D01*
X171864250Y-99177000D01*
X171769000Y-99272250D01*
X171769000Y-99425786D01*
X171827004Y-99565820D01*
X171860298Y-99599114D01*
X171792141Y-99698866D01*
X171761536Y-99850000D01*
X171761536Y-100445944D01*
X171557796Y-100242204D01*
X171393638Y-100132517D01*
X171200000Y-100094000D01*
X170671592Y-100094000D01*
X171007796Y-99757796D01*
X171117483Y-99593638D01*
X171156000Y-99400000D01*
X171156000Y-98674214D01*
X171769000Y-98674214D01*
X171769000Y-98827750D01*
X171864250Y-98923000D01*
X172275000Y-98923000D01*
X172275000Y-98464250D01*
X172525000Y-98464250D01*
X172525000Y-98923000D01*
X172935750Y-98923000D01*
X173031000Y-98827750D01*
X173031000Y-98674214D01*
X173369000Y-98674214D01*
X173369000Y-98827750D01*
X173464250Y-98923000D01*
X173875000Y-98923000D01*
X173875000Y-98464250D01*
X174125000Y-98464250D01*
X174125000Y-98923000D01*
X174535750Y-98923000D01*
X174631000Y-98827750D01*
X174631000Y-98674214D01*
X174572996Y-98534180D01*
X174465819Y-98427004D01*
X174325785Y-98369000D01*
X174220250Y-98369000D01*
X174125000Y-98464250D01*
X173875000Y-98464250D01*
X173779750Y-98369000D01*
X173674215Y-98369000D01*
X173534181Y-98427004D01*
X173427004Y-98534180D01*
X173369000Y-98674214D01*
X173031000Y-98674214D01*
X172972996Y-98534180D01*
X172865819Y-98427004D01*
X172725785Y-98369000D01*
X172620250Y-98369000D01*
X172525000Y-98464250D01*
X172275000Y-98464250D01*
X172179750Y-98369000D01*
X172074215Y-98369000D01*
X171934181Y-98427004D01*
X171827004Y-98534180D01*
X171769000Y-98674214D01*
X171156000Y-98674214D01*
X171156000Y-98000000D01*
X171117483Y-97806362D01*
X171007796Y-97642204D01*
X170621592Y-97256000D01*
X175823000Y-97256000D01*
X175823000Y-100311536D01*
G36*
X169778408Y-97844000D02*
X169772250Y-97844000D01*
X169677000Y-97939250D01*
X169677000Y-98723000D01*
X169697000Y-98723000D01*
X169697000Y-98977000D01*
X169677000Y-98977000D01*
X169677000Y-98997000D01*
X169423000Y-98997000D01*
X169423000Y-98977000D01*
X169403000Y-98977000D01*
X169403000Y-98723000D01*
X169423000Y-98723000D01*
X169423000Y-97939250D01*
X169327750Y-97844000D01*
X168974214Y-97844000D01*
X168947095Y-97855233D01*
X168927357Y-97756000D01*
X169690408Y-97756000D01*
X169778408Y-97844000D01*
X169778408Y-97844000D01*
G37*
X169778408Y-97844000D02*
X169772250Y-97844000D01*
X169677000Y-97939250D01*
X169677000Y-98723000D01*
X169697000Y-98723000D01*
X169697000Y-98977000D01*
X169677000Y-98977000D01*
X169677000Y-98997000D01*
X169423000Y-98997000D01*
X169423000Y-98977000D01*
X169403000Y-98977000D01*
X169403000Y-98723000D01*
X169423000Y-98723000D01*
X169423000Y-97939250D01*
X169327750Y-97844000D01*
X168974214Y-97844000D01*
X168947095Y-97855233D01*
X168927357Y-97756000D01*
X169690408Y-97756000D01*
X169778408Y-97844000D01*
M02*
