G04 #@! TF.FileFunction,Copper,L1,Top,Signal*
%FSLAX46Y46*%
G04 Gerber Fmt 4.6, Leading zero omitted, Abs format (unit mm)*
G04 Created by KiCad (PCBNEW (2015-11-24 BZR 6329)-product) date Sun 08 May 2016 02:02:47 AM EDT*
%MOMM*%
G01*
G04 APERTURE LIST*
%ADD10C,0.100000*%
%ADD11C,1.501140*%
%ADD12C,2.999740*%
%ADD13C,1.200000*%
%ADD14R,0.900000X1.200000*%
%ADD15R,2.032000X2.032000*%
%ADD16O,2.032000X2.032000*%
%ADD17R,1.000000X3.000000*%
%ADD18R,0.600000X1.000760*%
%ADD19R,4.000000X0.700000*%
%ADD20R,0.700000X2.000000*%
%ADD21R,8.000000X0.700000*%
%ADD22R,0.700000X1.500000*%
%ADD23R,0.700000X4.000000*%
%ADD24R,0.700000X7.000000*%
%ADD25R,0.600000X0.500000*%
%ADD26R,0.500000X0.600000*%
%ADD27R,1.000000X1.250000*%
%ADD28R,0.250000X0.700000*%
%ADD29R,0.700000X0.250000*%
%ADD30R,1.725000X1.725000*%
%ADD31R,1.550000X0.600000*%
%ADD32R,0.800000X1.100000*%
%ADD33R,1.727200X1.727200*%
%ADD34O,1.727200X1.727200*%
%ADD35R,1.727200X2.032000*%
%ADD36O,1.727200X2.032000*%
%ADD37R,1.250000X1.000000*%
%ADD38R,1.143000X0.508000*%
%ADD39C,1.422400*%
%ADD40R,0.750000X0.800000*%
%ADD41C,0.600000*%
%ADD42C,0.250000*%
%ADD43C,0.700000*%
%ADD44C,0.254000*%
G04 APERTURE END LIST*
D10*
D11*
X126700000Y-102450000D03*
X126700000Y-104950000D03*
X126700000Y-106960000D03*
X126700000Y-109450000D03*
D12*
X124600000Y-100100000D03*
X124600000Y-111800000D03*
D13*
X124600000Y-103700000D03*
X124600000Y-108200000D03*
D14*
X145000000Y-102900000D03*
X145000000Y-100700000D03*
X150400000Y-102900000D03*
X150400000Y-105100000D03*
D15*
X140525000Y-106675000D03*
D16*
X140525000Y-104135000D03*
D17*
X146600000Y-99600000D03*
X148600000Y-99600000D03*
D18*
X146650040Y-105100480D03*
X147600000Y-105100480D03*
X148549960Y-105100480D03*
X148549960Y-102300000D03*
X146650040Y-102300000D03*
D19*
X180600000Y-110000000D03*
D20*
X178950000Y-109200000D03*
X182250000Y-107750000D03*
D19*
X180600000Y-108500000D03*
D20*
X178950000Y-106300000D03*
D19*
X180600000Y-107000000D03*
D20*
X182250000Y-104800000D03*
D19*
X180600000Y-105500000D03*
D20*
X178950000Y-103400000D03*
D21*
X178600000Y-101050000D03*
D19*
X180600000Y-102500000D03*
D22*
X182250000Y-101850000D03*
D19*
X180600000Y-104050000D03*
D23*
X182250000Y-111650000D03*
D24*
X176600000Y-104900000D03*
D25*
X172650000Y-101000000D03*
X173750000Y-101000000D03*
X174250000Y-103500000D03*
X175350000Y-103500000D03*
D26*
X175450000Y-107900000D03*
X175450000Y-109000000D03*
D27*
X167550000Y-98850000D03*
X169550000Y-98850000D03*
D26*
X174000000Y-99800000D03*
X174000000Y-98700000D03*
X172400000Y-99800000D03*
X172400000Y-98700000D03*
D25*
X160450000Y-102600000D03*
X161550000Y-102600000D03*
D26*
X172950000Y-103350000D03*
X172950000Y-102250000D03*
D25*
X161550000Y-104000000D03*
X160450000Y-104000000D03*
X161550000Y-105400000D03*
X160450000Y-105400000D03*
D28*
X170350000Y-101400000D03*
X169850000Y-101400000D03*
X169350000Y-101400000D03*
X168850000Y-101400000D03*
X168350000Y-101400000D03*
X167850000Y-101400000D03*
X167350000Y-101400000D03*
X166850000Y-101400000D03*
D29*
X166200000Y-102050000D03*
X166200000Y-102550000D03*
X166200000Y-103050000D03*
X166200000Y-103550000D03*
X166200000Y-104050000D03*
X166200000Y-104550000D03*
X166200000Y-105050000D03*
X166200000Y-105550000D03*
D28*
X166850000Y-106200000D03*
X167350000Y-106200000D03*
X167850000Y-106200000D03*
X168350000Y-106200000D03*
X168850000Y-106200000D03*
X169350000Y-106200000D03*
X169850000Y-106200000D03*
X170350000Y-106200000D03*
D29*
X171000000Y-105550000D03*
X171000000Y-105050000D03*
X171000000Y-104550000D03*
X171000000Y-104050000D03*
X171000000Y-103550000D03*
X171000000Y-103050000D03*
X171000000Y-102550000D03*
X171000000Y-102050000D03*
D30*
X167737500Y-104662500D03*
X169462500Y-104662500D03*
X167737500Y-102937500D03*
X169462500Y-102937500D03*
D31*
X165700000Y-109095000D03*
X165700000Y-110365000D03*
X165700000Y-111635000D03*
X165700000Y-112905000D03*
X171100000Y-112905000D03*
X171100000Y-111635000D03*
X171100000Y-110365000D03*
X171100000Y-109095000D03*
D32*
X174200000Y-104900000D03*
X175300000Y-104900000D03*
X174200000Y-106400000D03*
X175300000Y-106400000D03*
D33*
X149200000Y-109800000D03*
D34*
X149200000Y-112340000D03*
X151740000Y-109800000D03*
X151740000Y-112340000D03*
X154280000Y-109800000D03*
X154280000Y-112340000D03*
X156820000Y-109800000D03*
X156820000Y-112340000D03*
D35*
X156400000Y-99800000D03*
D36*
X153860000Y-99800000D03*
X151320000Y-99800000D03*
D37*
X140275000Y-99025000D03*
X140275000Y-101025000D03*
D38*
X137475000Y-99030000D03*
X137475000Y-101570000D03*
X137475000Y-102840000D03*
X137475000Y-104110000D03*
X137475000Y-105380000D03*
X137475000Y-106650000D03*
X137475000Y-107920000D03*
X131125000Y-107920000D03*
X131125000Y-106650000D03*
X131125000Y-105380000D03*
X131125000Y-104110000D03*
X131125000Y-102840000D03*
X131125000Y-101570000D03*
X131125000Y-100300000D03*
X131125000Y-99030000D03*
X137475000Y-100300000D03*
D39*
X138800000Y-111950000D03*
X133720000Y-111950000D03*
D40*
X143150000Y-111925000D03*
X143150000Y-110425000D03*
X129275000Y-111925000D03*
X129275000Y-110425000D03*
D41*
X144200000Y-105200000D03*
X176600000Y-108400000D03*
X175650000Y-102325000D03*
X167737500Y-104662500D03*
X160325000Y-104375000D03*
X158050000Y-104250000D03*
X169462500Y-102937500D03*
X168450000Y-111775000D03*
X173000000Y-112300000D03*
X163575000Y-111975000D03*
X166875000Y-112575000D03*
X174025000Y-98325000D03*
X169525000Y-98000000D03*
X174600000Y-107575000D03*
X175900000Y-109625000D03*
X161200000Y-112800000D03*
X159625000Y-109700000D03*
X172000000Y-103250000D03*
X170600000Y-101300000D03*
X167500000Y-99450000D03*
X169200000Y-100950000D03*
X172950000Y-110750000D03*
X165500000Y-106250000D03*
X129850000Y-100350000D03*
X172650000Y-106300000D03*
X129800000Y-101525000D03*
X172600000Y-105200000D03*
X162800000Y-103550000D03*
X163925000Y-106200000D03*
X165000000Y-101900000D03*
X164100000Y-101875000D03*
X171800000Y-106350000D03*
X171200000Y-108200000D03*
X172525000Y-107100000D03*
X175450000Y-112575000D03*
X175450000Y-110800000D03*
X170950000Y-106900000D03*
X163875000Y-99525000D03*
X154900000Y-103600000D03*
X150900000Y-107600000D03*
X151650000Y-104725000D03*
X154200000Y-102150000D03*
X155250000Y-102250000D03*
X154100000Y-105700000D03*
X163925000Y-105275000D03*
X169100000Y-112525000D03*
X169850000Y-111150000D03*
X169000000Y-107800000D03*
X172400000Y-108000000D03*
X162000000Y-102000000D03*
X171400000Y-101600000D03*
D42*
X148549960Y-105100480D02*
X148549960Y-106050040D01*
X148549960Y-106050040D02*
X147900000Y-106700000D01*
X146650040Y-105100480D02*
X144299520Y-105100480D01*
X144299520Y-105100480D02*
X144200000Y-105200000D01*
X145000000Y-102900000D02*
X145000000Y-104400000D01*
X145000000Y-104400000D02*
X144200000Y-105200000D01*
X144200000Y-105200000D02*
X144200000Y-106250000D01*
X144400000Y-106450000D02*
X144200000Y-106250000D01*
X144400000Y-106450000D02*
X144650000Y-106700000D01*
X144650000Y-106700000D02*
X146400000Y-106700000D01*
X147900000Y-106700000D02*
X146400000Y-106700000D01*
X176600000Y-104900000D02*
X176600000Y-108400000D01*
X172950000Y-103350000D02*
X173375000Y-103350000D01*
X175350000Y-102625000D02*
X175650000Y-102325000D01*
X175350000Y-102625000D02*
X175350000Y-103500000D01*
X175000000Y-102325000D02*
X175650000Y-102325000D01*
X174550000Y-102775000D02*
X175000000Y-102325000D01*
X173950000Y-102775000D02*
X174550000Y-102775000D01*
X173375000Y-103350000D02*
X173950000Y-102775000D01*
X160450000Y-104000000D02*
X160450000Y-104250000D01*
X160450000Y-104250000D02*
X160325000Y-104375000D01*
X167737500Y-102937500D02*
X169462500Y-102937500D01*
X169462500Y-102937500D02*
X169462500Y-104662500D01*
X168450000Y-111775000D02*
X168450000Y-111750000D01*
X173000000Y-112300000D02*
X173800000Y-112300000D01*
X176225000Y-109950000D02*
X175900000Y-109625000D01*
X176225000Y-111300000D02*
X176225000Y-109950000D01*
X175775000Y-111750000D02*
X176225000Y-111300000D01*
X174350000Y-111750000D02*
X175775000Y-111750000D01*
X173800000Y-112300000D02*
X174350000Y-111750000D01*
X165700000Y-112905000D02*
X164505000Y-112905000D01*
X164505000Y-112905000D02*
X163575000Y-111975000D01*
X165700000Y-112905000D02*
X165855000Y-112750000D01*
X165855000Y-112750000D02*
X166700000Y-112750000D01*
X166700000Y-112750000D02*
X166875000Y-112575000D01*
X174025000Y-98325000D02*
X174025000Y-98675000D01*
X174025000Y-98675000D02*
X174000000Y-98700000D01*
X169550000Y-98850000D02*
X169525000Y-98825000D01*
X169525000Y-98825000D02*
X169525000Y-98000000D01*
X175350000Y-103500000D02*
X175375000Y-103525000D01*
X174200000Y-106400000D02*
X174275000Y-106475000D01*
X174275000Y-106475000D02*
X174275000Y-107250000D01*
X174275000Y-107250000D02*
X174600000Y-107575000D01*
X175900000Y-109625000D02*
X175900000Y-109450000D01*
X175900000Y-109450000D02*
X175450000Y-109000000D01*
X161200000Y-112800000D02*
X161250000Y-112800000D01*
X140525000Y-106675000D02*
X141300000Y-106675000D01*
X141300000Y-106675000D02*
X143175000Y-104800000D01*
X143175000Y-104800000D02*
X143175000Y-98950000D01*
X143175000Y-98950000D02*
X144825000Y-97300000D01*
X144825000Y-97300000D02*
X150300000Y-97300000D01*
X150300000Y-97300000D02*
X151320000Y-98320000D01*
X151320000Y-98320000D02*
X151320000Y-99800000D01*
X166200000Y-103050000D02*
X164200000Y-103050000D01*
X162650000Y-102650000D02*
X162050000Y-103250000D01*
X163800000Y-102650000D02*
X162650000Y-102650000D01*
X164200000Y-103050000D02*
X163800000Y-102650000D01*
X160450000Y-108875000D02*
X160450000Y-105400000D01*
X159625000Y-109700000D02*
X160450000Y-108875000D01*
X165500000Y-106250000D02*
X165500000Y-106525000D01*
X162500000Y-106050000D02*
X161100000Y-106050000D01*
X161100000Y-106050000D02*
X160450000Y-105400000D01*
X163425000Y-106975000D02*
X162500000Y-106050000D01*
X165050000Y-106975000D02*
X163425000Y-106975000D01*
X165500000Y-106525000D02*
X165050000Y-106975000D01*
X159400000Y-102600000D02*
X160450000Y-102600000D01*
X162100000Y-103250000D02*
X162050000Y-103250000D01*
X162050000Y-103250000D02*
X160800000Y-103250000D01*
X160800000Y-103250000D02*
X160450000Y-102900000D01*
X160450000Y-102900000D02*
X160450000Y-102600000D01*
X171800000Y-103050000D02*
X171000000Y-103050000D01*
X172000000Y-103250000D02*
X171800000Y-103050000D01*
X170350000Y-101400000D02*
X170500000Y-101400000D01*
X170500000Y-101400000D02*
X170600000Y-101300000D01*
X169350000Y-101400000D02*
X169350000Y-101100000D01*
X169350000Y-101100000D02*
X169200000Y-100950000D01*
X167500000Y-99450000D02*
X167550000Y-99400000D01*
X167550000Y-99400000D02*
X167550000Y-98850000D01*
X167350000Y-101400000D02*
X167350000Y-99050000D01*
X167350000Y-99050000D02*
X167550000Y-98850000D01*
X164150000Y-98850000D02*
X163100000Y-98850000D01*
X159300000Y-102600000D02*
X159400000Y-102600000D01*
X159400000Y-102600000D02*
X159400000Y-102550000D01*
X162750000Y-99200000D02*
X159400000Y-102550000D01*
X164150000Y-98850000D02*
X167550000Y-98850000D01*
X163100000Y-98850000D02*
X162750000Y-99200000D01*
X169350000Y-101400000D02*
X168850000Y-101400000D01*
X169350000Y-101400000D02*
X169350000Y-100950000D01*
X171100000Y-109095000D02*
X172245000Y-109095000D01*
X172950000Y-109800000D02*
X172950000Y-110750000D01*
X172245000Y-109095000D02*
X172950000Y-109800000D01*
X160450000Y-105400000D02*
X159450000Y-105400000D01*
X159450000Y-105400000D02*
X159350000Y-105300000D01*
X159300000Y-105250000D02*
X159300000Y-102600000D01*
X159350000Y-105300000D02*
X159300000Y-105250000D01*
X166850000Y-106200000D02*
X165550000Y-106200000D01*
X165550000Y-106200000D02*
X165500000Y-106250000D01*
X171000000Y-103550000D02*
X171000000Y-103050000D01*
X167300000Y-99100000D02*
X167550000Y-98850000D01*
X150400000Y-102900000D02*
X151320000Y-101980000D01*
X151320000Y-101980000D02*
X151320000Y-99800000D01*
X150400000Y-102900000D02*
X158500000Y-102900000D01*
X158800000Y-102600000D02*
X159300000Y-102600000D01*
X158500000Y-102900000D02*
X158800000Y-102600000D01*
X150400000Y-102900000D02*
X149149960Y-102900000D01*
X149149960Y-102900000D02*
X148549960Y-102300000D01*
X148549960Y-102300000D02*
X148549960Y-99650040D01*
X148549960Y-99650040D02*
X148600000Y-99600000D01*
X133720000Y-111950000D02*
X133720000Y-110515000D01*
X133720000Y-110515000D02*
X131125000Y-107920000D01*
X133720000Y-111950000D02*
X129300000Y-111950000D01*
X129300000Y-111950000D02*
X129275000Y-111925000D01*
X146650040Y-102300000D02*
X146650040Y-99650040D01*
X146650040Y-99650040D02*
X146600000Y-99600000D01*
X131125000Y-104110000D02*
X127540000Y-104110000D01*
X127540000Y-104110000D02*
X126700000Y-104950000D01*
X131125000Y-105380000D02*
X128280000Y-105380000D01*
X128280000Y-105380000D02*
X126700000Y-106960000D01*
X126700860Y-106959140D02*
X126700000Y-106960000D01*
X129900000Y-100300000D02*
X131125000Y-100300000D01*
X129850000Y-100350000D02*
X129900000Y-100300000D01*
X171900000Y-105550000D02*
X172650000Y-106300000D01*
X171900000Y-105550000D02*
X171000000Y-105550000D01*
X129845000Y-101570000D02*
X131125000Y-101570000D01*
X129800000Y-101525000D02*
X129845000Y-101570000D01*
X171000000Y-105050000D02*
X172450000Y-105050000D01*
X172450000Y-105050000D02*
X172600000Y-105200000D01*
X174000000Y-99800000D02*
X174000000Y-100750000D01*
X174000000Y-100750000D02*
X173750000Y-101000000D01*
X178600000Y-101050000D02*
X173800000Y-101050000D01*
X173800000Y-101050000D02*
X173750000Y-101000000D01*
D43*
X173750000Y-101000000D02*
X174575000Y-101000000D01*
D42*
X173800000Y-101050000D02*
X173750000Y-101000000D01*
X172400000Y-99800000D02*
X172400000Y-100750000D01*
X172400000Y-100750000D02*
X172650000Y-101000000D01*
X172650000Y-101000000D02*
X171600000Y-101000000D01*
X171600000Y-101000000D02*
X171200000Y-100600000D01*
X171200000Y-100600000D02*
X170200000Y-100600000D01*
X170200000Y-100600000D02*
X169850000Y-100950000D01*
X169850000Y-100950000D02*
X169850000Y-101400000D01*
X174200000Y-104900000D02*
X174100000Y-104900000D01*
X174100000Y-104900000D02*
X173250000Y-104050000D01*
X173250000Y-104050000D02*
X171000000Y-104050000D01*
X174200000Y-104900000D02*
X174200000Y-103550000D01*
X174200000Y-103550000D02*
X174250000Y-103500000D01*
X174450000Y-104950000D02*
X174500000Y-105000000D01*
X175450000Y-107900000D02*
X175050000Y-108300000D01*
X172950000Y-104550000D02*
X173400000Y-105000000D01*
X173400000Y-105000000D02*
X173400000Y-107300000D01*
X172950000Y-104550000D02*
X171000000Y-104550000D01*
X174325000Y-108225000D02*
X173400000Y-107300000D01*
X174325000Y-108300000D02*
X174325000Y-108225000D01*
X175050000Y-108300000D02*
X174325000Y-108300000D01*
X175450000Y-107900000D02*
X175450000Y-106550000D01*
X175450000Y-106550000D02*
X175300000Y-106400000D01*
X175550000Y-106550000D02*
X175600000Y-106500000D01*
X165350000Y-103550000D02*
X164300000Y-103550000D01*
X166200000Y-103550000D02*
X165350000Y-103550000D01*
X164300000Y-103550000D02*
X162800000Y-103550000D01*
X164850000Y-105550000D02*
X164075000Y-106100000D01*
X166200000Y-105550000D02*
X164850000Y-105550000D01*
X163925000Y-106200000D02*
X163975000Y-106150000D01*
X165000000Y-101900000D02*
X165150000Y-102050000D01*
X166200000Y-102050000D02*
X165150000Y-102050000D01*
X166200000Y-102550000D02*
X164550000Y-102550000D01*
X164550000Y-102550000D02*
X164250000Y-102025000D01*
X164250000Y-102025000D02*
X164100000Y-101875000D01*
X164100000Y-101875000D02*
X164250000Y-102025000D01*
X171800000Y-107600000D02*
X171800000Y-106350000D01*
X171200000Y-108200000D02*
X171800000Y-107600000D01*
X175000000Y-110350000D02*
X175450000Y-110800000D01*
X149200000Y-109800000D02*
X148050000Y-109800000D01*
X147150000Y-110700000D02*
X148050000Y-109800000D01*
X147150000Y-113300000D02*
X147150000Y-110700000D01*
X147950000Y-114100000D02*
X147150000Y-113300000D01*
X149350000Y-114100000D02*
X147950000Y-114100000D01*
X152900000Y-114100000D02*
X149350000Y-114100000D01*
X158550000Y-114100000D02*
X152900000Y-114100000D01*
X163400000Y-114100000D02*
X158550000Y-114100000D01*
X173800000Y-114100000D02*
X163400000Y-114100000D01*
X175000000Y-112900000D02*
X173800000Y-114100000D01*
X173600000Y-108950000D02*
X175000000Y-110350000D01*
X173044301Y-108394301D02*
X173044301Y-107669301D01*
X173044301Y-107669301D02*
X173044301Y-107619301D01*
X173044301Y-107619301D02*
X172525000Y-107100000D01*
X173600000Y-108950000D02*
X173044301Y-108394301D01*
X175125000Y-112900000D02*
X175000000Y-112900000D01*
X175450000Y-112575000D02*
X175125000Y-112900000D01*
X170350000Y-106200000D02*
X170350000Y-106300000D01*
X170350000Y-106300000D02*
X170950000Y-106900000D01*
X151740000Y-109800000D02*
X151740000Y-106760000D01*
X165750000Y-101400000D02*
X166850000Y-101400000D01*
X163875000Y-99525000D02*
X165750000Y-101400000D01*
X151740000Y-106760000D02*
X154900000Y-103600000D01*
X168350000Y-101400000D02*
X168350000Y-100800000D01*
X150900000Y-106750000D02*
X150900000Y-107600000D01*
X151600000Y-106050000D02*
X150900000Y-106750000D01*
X151600000Y-104775000D02*
X151600000Y-106050000D01*
X151650000Y-104725000D02*
X151600000Y-104775000D01*
X155000000Y-101350000D02*
X154200000Y-102150000D01*
X159249998Y-101350000D02*
X155000000Y-101350000D01*
X163349998Y-97250000D02*
X159249998Y-101350000D01*
X169900000Y-97250000D02*
X163349998Y-97250000D01*
X170650000Y-98000000D02*
X169900000Y-97250000D01*
X170650000Y-99400000D02*
X170650000Y-98000000D01*
X170150000Y-99900000D02*
X170650000Y-99400000D01*
X169250000Y-99900000D02*
X170150000Y-99900000D01*
X168350000Y-100800000D02*
X169250000Y-99900000D01*
X158450000Y-108000000D02*
X158425000Y-108000000D01*
X167850000Y-100350000D02*
X168450000Y-99750000D01*
X168450000Y-99750000D02*
X168450000Y-97900000D01*
X168450000Y-97900000D02*
X168300000Y-97750000D01*
X168300000Y-97750000D02*
X163500000Y-97750000D01*
X163500000Y-97750000D02*
X159400000Y-101850000D01*
X159400000Y-101850000D02*
X155650000Y-101850000D01*
X155650000Y-101850000D02*
X155250000Y-102250000D01*
X154100000Y-105700000D02*
X156050000Y-107650000D01*
X158450000Y-108000000D02*
X158450000Y-113300000D01*
X158450000Y-113300000D02*
X158100002Y-113649998D01*
X158100002Y-113649998D02*
X155589998Y-113649998D01*
X154280000Y-112340000D02*
X155589998Y-113649998D01*
X167850000Y-100350000D02*
X167850000Y-101400000D01*
X158075000Y-107650000D02*
X156050000Y-107650000D01*
X158425000Y-108000000D02*
X158075000Y-107650000D01*
X164150000Y-105050000D02*
X166200000Y-105050000D01*
X163925000Y-105275000D02*
X164150000Y-105050000D01*
X172950000Y-102250000D02*
X172200000Y-102250000D01*
X171650000Y-102550000D02*
X171000000Y-102550000D01*
X171950000Y-102250000D02*
X171650000Y-102550000D01*
X172200000Y-102250000D02*
X171950000Y-102250000D01*
X166200000Y-104050000D02*
X163399998Y-104050000D01*
X162125000Y-104000000D02*
X161550000Y-104000000D01*
X162350000Y-104225000D02*
X162125000Y-104000000D01*
X163224998Y-104225000D02*
X162350000Y-104225000D01*
X163399998Y-104050000D02*
X163224998Y-104225000D01*
X166200000Y-104550000D02*
X163700000Y-104550000D01*
X162200000Y-104750000D02*
X161550000Y-105400000D01*
X163500000Y-104750000D02*
X162200000Y-104750000D01*
X163700000Y-104550000D02*
X163500000Y-104750000D01*
X171100000Y-110365000D02*
X170510000Y-110365000D01*
X170510000Y-110365000D02*
X169850000Y-111150000D01*
X167400000Y-113600000D02*
X168000000Y-113600000D01*
X164212500Y-113612500D02*
X167400000Y-113600000D01*
X164212500Y-113612500D02*
X162637500Y-112037500D01*
X168025000Y-113600000D02*
X168000000Y-113600000D01*
X169100000Y-112525000D02*
X168025000Y-113600000D01*
X162637500Y-112037500D02*
X162625000Y-112025000D01*
X167350000Y-106650000D02*
X166450002Y-107549998D01*
X166450002Y-107549998D02*
X163650002Y-107549998D01*
X163650002Y-107549998D02*
X163000000Y-108200000D01*
X167350000Y-106650000D02*
X167350000Y-106200000D01*
X162625000Y-108575000D02*
X163000000Y-108200000D01*
X162625000Y-112025000D02*
X162625000Y-108575000D01*
X162612500Y-112012500D02*
X162637500Y-112037500D01*
X171765000Y-110365000D02*
X171100000Y-110365000D01*
X164000000Y-108000000D02*
X166800000Y-108000000D01*
X164435000Y-111635000D02*
X163600000Y-110800000D01*
X163600000Y-110800000D02*
X163600000Y-108400000D01*
X163600000Y-108400000D02*
X164000000Y-108000000D01*
X165700000Y-111635000D02*
X164435000Y-111635000D01*
X167850000Y-106913602D02*
X167200000Y-107563602D01*
X167850000Y-106913602D02*
X167850000Y-106200000D01*
X167200000Y-107600000D02*
X167200000Y-107563602D01*
X166800000Y-108000000D02*
X167200000Y-107600000D01*
X168350000Y-107050000D02*
X167800000Y-107600000D01*
X168350000Y-106200000D02*
X168350000Y-107050000D01*
X167305000Y-109095000D02*
X165700000Y-109095000D01*
X167800000Y-108600000D02*
X167305000Y-109095000D01*
X167800000Y-107600000D02*
X167800000Y-108600000D01*
X165700000Y-109095000D02*
X166305000Y-109095000D01*
X173400000Y-109400000D02*
X173413602Y-109400000D01*
X172400000Y-108400000D02*
X173400000Y-109400000D01*
X173415000Y-111635000D02*
X171100000Y-111635000D01*
X173750000Y-111300000D02*
X173415000Y-111635000D01*
X173750000Y-109736398D02*
X173750000Y-111300000D01*
X173413602Y-109400000D02*
X173750000Y-109736398D01*
X172400000Y-108400000D02*
X172400000Y-108000000D01*
X168850000Y-107550000D02*
X169000000Y-107800000D01*
X168850000Y-107550000D02*
X168850000Y-106200000D01*
X172600000Y-108600000D02*
X172400000Y-108400000D01*
X172400000Y-108400000D02*
X172400000Y-108400000D01*
X169350000Y-106200000D02*
X169350000Y-107150000D01*
X168635000Y-110365000D02*
X165700000Y-110365000D01*
X169399998Y-109600002D02*
X168635000Y-110365000D01*
X169399998Y-108400002D02*
X169399998Y-109600002D01*
X169800000Y-108000000D02*
X169399998Y-108400002D01*
X169800000Y-107600000D02*
X169800000Y-108000000D01*
X169350000Y-107150000D02*
X169800000Y-107600000D01*
X165700000Y-110365000D02*
X166435000Y-110365000D01*
X169750000Y-112225000D02*
X169750000Y-112200000D01*
X169850000Y-110200000D02*
X169850000Y-109600002D01*
X169200000Y-110850000D02*
X169850000Y-110200000D01*
X169200000Y-111650000D02*
X169200000Y-110850000D01*
X169750000Y-112200000D02*
X169200000Y-111650000D01*
X171100000Y-112905000D02*
X170430000Y-112905000D01*
X170430000Y-112905000D02*
X169750000Y-112225000D01*
X169750000Y-112225000D02*
X169825000Y-112300000D01*
X169825000Y-109825000D02*
X169850000Y-109800000D01*
X169850000Y-109600002D02*
X169850000Y-109800000D01*
X169850000Y-108800000D02*
X169850000Y-109600002D01*
X169850000Y-108800000D02*
X170300000Y-108250000D01*
X170250000Y-107200000D02*
X169850000Y-106800000D01*
X169850000Y-106800000D02*
X169850000Y-106249998D01*
X170300000Y-107350000D02*
X170250000Y-107200000D01*
X170300000Y-108250000D02*
X170300000Y-107350000D01*
X169850000Y-108800000D02*
X169850000Y-108750000D01*
X169850000Y-106249998D02*
X169850000Y-106200000D01*
X162000000Y-102000000D02*
X161550000Y-102600000D01*
X171400000Y-101600000D02*
X171400000Y-101650000D01*
X171000000Y-102050000D02*
X171400000Y-101650000D01*
X138800000Y-111950000D02*
X137350000Y-111950000D01*
X132050000Y-106650000D02*
X131125000Y-106650000D01*
X137350000Y-111950000D02*
X132050000Y-106650000D01*
X138800000Y-111950000D02*
X143125000Y-111950000D01*
X143125000Y-111950000D02*
X143150000Y-111925000D01*
X140275000Y-99025000D02*
X141189000Y-99025000D01*
X141986000Y-102674000D02*
X140525000Y-104135000D01*
X141986000Y-99822000D02*
X141986000Y-102674000D01*
X141189000Y-99025000D02*
X141986000Y-99822000D01*
X137475000Y-99030000D02*
X136174000Y-99030000D01*
X132364000Y-102840000D02*
X131125000Y-102840000D01*
X136174000Y-99030000D02*
X132364000Y-102840000D01*
X140275000Y-99025000D02*
X137480000Y-99025000D01*
X137480000Y-99025000D02*
X137475000Y-99030000D01*
D44*
G36*
X142817204Y-98592204D02*
X142707517Y-98756362D01*
X142669000Y-98950000D01*
X142669000Y-104590408D01*
X141839743Y-105419665D01*
X141819454Y-105388135D01*
X141692134Y-105301141D01*
X141541000Y-105270536D01*
X141332728Y-105270536D01*
X141512828Y-105150197D01*
X141815660Y-104696978D01*
X141922000Y-104162369D01*
X141922000Y-104107631D01*
X141815660Y-103573022D01*
X141810417Y-103565175D01*
X142343796Y-103031796D01*
X142453483Y-102867638D01*
X142492000Y-102674000D01*
X142492000Y-99822000D01*
X142453483Y-99628362D01*
X142343796Y-99464204D01*
X141546796Y-98667204D01*
X141382638Y-98557517D01*
X141288464Y-98538785D01*
X141288464Y-98525000D01*
X141261897Y-98383810D01*
X141178454Y-98254135D01*
X141051134Y-98167141D01*
X140900000Y-98136536D01*
X139650000Y-98136536D01*
X139508810Y-98163103D01*
X139379135Y-98246546D01*
X139292141Y-98373866D01*
X139262751Y-98519000D01*
X138333876Y-98519000D01*
X138324954Y-98505135D01*
X138197634Y-98418141D01*
X138046500Y-98387536D01*
X136903500Y-98387536D01*
X136762310Y-98414103D01*
X136632635Y-98497546D01*
X136614560Y-98524000D01*
X136174000Y-98524000D01*
X135980362Y-98562517D01*
X135882734Y-98627750D01*
X135816204Y-98672204D01*
X132154408Y-102334000D01*
X131987093Y-102334000D01*
X131974954Y-102315135D01*
X131847634Y-102228141D01*
X131734712Y-102205274D01*
X131837690Y-102185897D01*
X131967365Y-102102454D01*
X132054359Y-101975134D01*
X132084964Y-101824000D01*
X132084964Y-101316000D01*
X132058397Y-101174810D01*
X131974954Y-101045135D01*
X131847634Y-100958141D01*
X131734712Y-100935274D01*
X131837690Y-100915897D01*
X131967365Y-100832454D01*
X132054359Y-100705134D01*
X132084964Y-100554000D01*
X132084964Y-100046000D01*
X132058397Y-99904810D01*
X131974954Y-99775135D01*
X131847634Y-99688141D01*
X131733359Y-99665000D01*
X131772285Y-99665000D01*
X131912319Y-99606996D01*
X132019496Y-99499820D01*
X132077500Y-99359786D01*
X132077500Y-99252250D01*
X131982250Y-99157000D01*
X131252000Y-99157000D01*
X131252000Y-99177000D01*
X130998000Y-99177000D01*
X130998000Y-99157000D01*
X130267750Y-99157000D01*
X130172500Y-99252250D01*
X130172500Y-99359786D01*
X130230504Y-99499820D01*
X130337681Y-99606996D01*
X130477715Y-99665000D01*
X130513833Y-99665000D01*
X130412310Y-99684103D01*
X130282635Y-99767546D01*
X130264560Y-99794000D01*
X130257210Y-99794000D01*
X130236259Y-99773013D01*
X129986054Y-99669118D01*
X129715135Y-99668882D01*
X129464748Y-99772339D01*
X129273013Y-99963741D01*
X129169118Y-100213946D01*
X129168882Y-100484865D01*
X129272339Y-100735252D01*
X129463741Y-100926987D01*
X129463872Y-100927041D01*
X129414748Y-100947339D01*
X129223013Y-101138741D01*
X129119118Y-101388946D01*
X129118882Y-101659865D01*
X129222339Y-101910252D01*
X129413741Y-102101987D01*
X129663946Y-102205882D01*
X129934865Y-102206118D01*
X130185252Y-102102661D01*
X130211959Y-102076000D01*
X130262907Y-102076000D01*
X130275046Y-102094865D01*
X130402366Y-102181859D01*
X130515288Y-102204726D01*
X130412310Y-102224103D01*
X130282635Y-102307546D01*
X130195641Y-102434866D01*
X130165036Y-102586000D01*
X130165036Y-103094000D01*
X130191603Y-103235190D01*
X130275046Y-103364865D01*
X130402366Y-103451859D01*
X130515288Y-103474726D01*
X130412310Y-103494103D01*
X130282635Y-103577546D01*
X130264560Y-103604000D01*
X127540000Y-103604000D01*
X127346362Y-103642517D01*
X127182204Y-103752204D01*
X127060119Y-103874289D01*
X126926071Y-103818627D01*
X126475904Y-103818234D01*
X126059854Y-103990142D01*
X125741261Y-104308180D01*
X125568627Y-104723929D01*
X125568234Y-105174096D01*
X125740142Y-105590146D01*
X126058180Y-105908739D01*
X126169348Y-105954900D01*
X126059854Y-106000142D01*
X125741261Y-106318180D01*
X125568627Y-106733929D01*
X125568234Y-107184096D01*
X125740142Y-107600146D01*
X126058180Y-107918739D01*
X126473929Y-108091373D01*
X126924096Y-108091766D01*
X127340146Y-107919858D01*
X127658739Y-107601820D01*
X127831373Y-107186071D01*
X127831766Y-106735904D01*
X127775606Y-106599986D01*
X128489592Y-105886000D01*
X130262907Y-105886000D01*
X130275046Y-105904865D01*
X130402366Y-105991859D01*
X130515288Y-106014726D01*
X130412310Y-106034103D01*
X130282635Y-106117546D01*
X130195641Y-106244866D01*
X130165036Y-106396000D01*
X130165036Y-106904000D01*
X130191603Y-107045190D01*
X130275046Y-107174865D01*
X130402366Y-107261859D01*
X130515288Y-107284726D01*
X130412310Y-107304103D01*
X130282635Y-107387546D01*
X130195641Y-107514866D01*
X130165036Y-107666000D01*
X130165036Y-108174000D01*
X130191603Y-108315190D01*
X130275046Y-108444865D01*
X130402366Y-108531859D01*
X130553500Y-108562464D01*
X131051872Y-108562464D01*
X133214000Y-110724592D01*
X133214000Y-110977313D01*
X133102127Y-111023538D01*
X132794618Y-111330511D01*
X132747493Y-111444000D01*
X130023223Y-111444000D01*
X130011897Y-111383810D01*
X129928454Y-111254135D01*
X129808103Y-111171903D01*
X129865819Y-111147996D01*
X129972996Y-111040820D01*
X130031000Y-110900786D01*
X130031000Y-110647250D01*
X129935750Y-110552000D01*
X129402000Y-110552000D01*
X129402000Y-110572000D01*
X129148000Y-110572000D01*
X129148000Y-110552000D01*
X128614250Y-110552000D01*
X128519000Y-110647250D01*
X128519000Y-110900786D01*
X128577004Y-111040820D01*
X128684181Y-111147996D01*
X128743867Y-111172719D01*
X128629135Y-111246546D01*
X128542141Y-111373866D01*
X128511536Y-111525000D01*
X128511536Y-112325000D01*
X128538103Y-112466190D01*
X128621546Y-112595865D01*
X128748866Y-112682859D01*
X128900000Y-112713464D01*
X129650000Y-112713464D01*
X129791190Y-112686897D01*
X129920865Y-112603454D01*
X130007859Y-112476134D01*
X130011936Y-112456000D01*
X132747313Y-112456000D01*
X132793538Y-112567873D01*
X133100511Y-112875382D01*
X133501795Y-113042010D01*
X133936299Y-113042389D01*
X134337873Y-112876462D01*
X134645382Y-112569489D01*
X134812010Y-112168205D01*
X134812389Y-111733701D01*
X134646462Y-111332127D01*
X134339489Y-111024618D01*
X134226000Y-110977493D01*
X134226000Y-110515000D01*
X134187483Y-110321362D01*
X134077796Y-110157204D01*
X132084964Y-108164372D01*
X132084964Y-107666000D01*
X132058397Y-107524810D01*
X131974954Y-107395135D01*
X131847634Y-107308141D01*
X131734712Y-107285274D01*
X131837690Y-107265897D01*
X131906212Y-107221804D01*
X136992204Y-112307796D01*
X137156362Y-112417483D01*
X137350000Y-112456000D01*
X137827313Y-112456000D01*
X137873538Y-112567873D01*
X138180511Y-112875382D01*
X138581795Y-113042010D01*
X139016299Y-113042389D01*
X139417873Y-112876462D01*
X139725382Y-112569489D01*
X139772507Y-112456000D01*
X142411186Y-112456000D01*
X142413103Y-112466190D01*
X142496546Y-112595865D01*
X142623866Y-112682859D01*
X142775000Y-112713464D01*
X143525000Y-112713464D01*
X143666190Y-112686897D01*
X143795865Y-112603454D01*
X143882859Y-112476134D01*
X143913464Y-112325000D01*
X143913464Y-111525000D01*
X143886897Y-111383810D01*
X143803454Y-111254135D01*
X143683103Y-111171903D01*
X143740819Y-111147996D01*
X143847996Y-111040820D01*
X143906000Y-110900786D01*
X143906000Y-110647250D01*
X143810750Y-110552000D01*
X143277000Y-110552000D01*
X143277000Y-110572000D01*
X143023000Y-110572000D01*
X143023000Y-110552000D01*
X142489250Y-110552000D01*
X142394000Y-110647250D01*
X142394000Y-110900786D01*
X142452004Y-111040820D01*
X142559181Y-111147996D01*
X142618867Y-111172719D01*
X142504135Y-111246546D01*
X142417141Y-111373866D01*
X142402939Y-111444000D01*
X139772687Y-111444000D01*
X139726462Y-111332127D01*
X139419489Y-111024618D01*
X139018205Y-110857990D01*
X138583701Y-110857611D01*
X138182127Y-111023538D01*
X137874618Y-111330511D01*
X137827493Y-111444000D01*
X137559592Y-111444000D01*
X136064806Y-109949214D01*
X142394000Y-109949214D01*
X142394000Y-110202750D01*
X142489250Y-110298000D01*
X143023000Y-110298000D01*
X143023000Y-109739250D01*
X143277000Y-109739250D01*
X143277000Y-110298000D01*
X143810750Y-110298000D01*
X143906000Y-110202750D01*
X143906000Y-109949214D01*
X143847996Y-109809180D01*
X143740819Y-109702004D01*
X143600785Y-109644000D01*
X143372250Y-109644000D01*
X143277000Y-109739250D01*
X143023000Y-109739250D01*
X142927750Y-109644000D01*
X142699215Y-109644000D01*
X142559181Y-109702004D01*
X142452004Y-109809180D01*
X142394000Y-109949214D01*
X136064806Y-109949214D01*
X132407796Y-106292204D01*
X132243638Y-106182517D01*
X132050000Y-106144000D01*
X131987093Y-106144000D01*
X131974954Y-106125135D01*
X131847634Y-106038141D01*
X131734712Y-106015274D01*
X131837690Y-105995897D01*
X131967365Y-105912454D01*
X132054359Y-105785134D01*
X132084964Y-105634000D01*
X132084964Y-105126000D01*
X132058397Y-104984810D01*
X131974954Y-104855135D01*
X131847634Y-104768141D01*
X131734712Y-104745274D01*
X131837690Y-104725897D01*
X131967365Y-104642454D01*
X132054359Y-104515134D01*
X132084964Y-104364000D01*
X132084964Y-103856000D01*
X132058397Y-103714810D01*
X131974954Y-103585135D01*
X131847634Y-103498141D01*
X131734712Y-103475274D01*
X131837690Y-103455897D01*
X131967365Y-103372454D01*
X131985440Y-103346000D01*
X132364000Y-103346000D01*
X132557638Y-103307483D01*
X132721796Y-103197796D01*
X136383592Y-99536000D01*
X136612907Y-99536000D01*
X136625046Y-99554865D01*
X136752366Y-99641859D01*
X136865288Y-99664726D01*
X136762310Y-99684103D01*
X136632635Y-99767546D01*
X136545641Y-99894866D01*
X136515036Y-100046000D01*
X136515036Y-100554000D01*
X136541603Y-100695190D01*
X136625046Y-100824865D01*
X136752366Y-100911859D01*
X136865288Y-100934726D01*
X136762310Y-100954103D01*
X136632635Y-101037546D01*
X136545641Y-101164866D01*
X136515036Y-101316000D01*
X136515036Y-101824000D01*
X136541603Y-101965190D01*
X136625046Y-102094865D01*
X136752366Y-102181859D01*
X136865288Y-102204726D01*
X136762310Y-102224103D01*
X136632635Y-102307546D01*
X136545641Y-102434866D01*
X136515036Y-102586000D01*
X136515036Y-103094000D01*
X136541603Y-103235190D01*
X136625046Y-103364865D01*
X136752366Y-103451859D01*
X136865288Y-103474726D01*
X136762310Y-103494103D01*
X136632635Y-103577546D01*
X136545641Y-103704866D01*
X136515036Y-103856000D01*
X136515036Y-104364000D01*
X136541603Y-104505190D01*
X136625046Y-104634865D01*
X136752366Y-104721859D01*
X136865288Y-104744726D01*
X136762310Y-104764103D01*
X136632635Y-104847546D01*
X136545641Y-104974866D01*
X136515036Y-105126000D01*
X136515036Y-105634000D01*
X136541603Y-105775190D01*
X136625046Y-105904865D01*
X136752366Y-105991859D01*
X136865288Y-106014726D01*
X136762310Y-106034103D01*
X136632635Y-106117546D01*
X136545641Y-106244866D01*
X136515036Y-106396000D01*
X136515036Y-106904000D01*
X136541603Y-107045190D01*
X136625046Y-107174865D01*
X136752366Y-107261859D01*
X136865288Y-107284726D01*
X136762310Y-107304103D01*
X136632635Y-107387546D01*
X136545641Y-107514866D01*
X136515036Y-107666000D01*
X136515036Y-108174000D01*
X136541603Y-108315190D01*
X136625046Y-108444865D01*
X136752366Y-108531859D01*
X136903500Y-108562464D01*
X138046500Y-108562464D01*
X138187690Y-108535897D01*
X138317365Y-108452454D01*
X138404359Y-108325134D01*
X138434964Y-108174000D01*
X138434964Y-107666000D01*
X138408397Y-107524810D01*
X138324954Y-107395135D01*
X138197634Y-107308141D01*
X138084712Y-107285274D01*
X138187690Y-107265897D01*
X138317365Y-107182454D01*
X138404359Y-107055134D01*
X138434964Y-106904000D01*
X138434964Y-106396000D01*
X138408397Y-106254810D01*
X138324954Y-106125135D01*
X138197634Y-106038141D01*
X138084712Y-106015274D01*
X138187690Y-105995897D01*
X138317365Y-105912454D01*
X138404359Y-105785134D01*
X138434964Y-105634000D01*
X138434964Y-105126000D01*
X138408397Y-104984810D01*
X138324954Y-104855135D01*
X138197634Y-104768141D01*
X138084712Y-104745274D01*
X138187690Y-104725897D01*
X138317365Y-104642454D01*
X138404359Y-104515134D01*
X138434964Y-104364000D01*
X138434964Y-103856000D01*
X138408397Y-103714810D01*
X138324954Y-103585135D01*
X138197634Y-103498141D01*
X138084712Y-103475274D01*
X138187690Y-103455897D01*
X138317365Y-103372454D01*
X138404359Y-103245134D01*
X138434964Y-103094000D01*
X138434964Y-102586000D01*
X138408397Y-102444810D01*
X138324954Y-102315135D01*
X138197634Y-102228141D01*
X138084712Y-102205274D01*
X138187690Y-102185897D01*
X138317365Y-102102454D01*
X138404359Y-101975134D01*
X138434964Y-101824000D01*
X138434964Y-101316000D01*
X138422028Y-101247250D01*
X139269000Y-101247250D01*
X139269000Y-101600786D01*
X139327004Y-101740820D01*
X139434181Y-101847996D01*
X139574215Y-101906000D01*
X140052750Y-101906000D01*
X140148000Y-101810750D01*
X140148000Y-101152000D01*
X140402000Y-101152000D01*
X140402000Y-101810750D01*
X140497250Y-101906000D01*
X140975785Y-101906000D01*
X141115819Y-101847996D01*
X141222996Y-101740820D01*
X141281000Y-101600786D01*
X141281000Y-101247250D01*
X141185750Y-101152000D01*
X140402000Y-101152000D01*
X140148000Y-101152000D01*
X139364250Y-101152000D01*
X139269000Y-101247250D01*
X138422028Y-101247250D01*
X138408397Y-101174810D01*
X138324954Y-101045135D01*
X138197634Y-100958141D01*
X138084712Y-100935274D01*
X138187690Y-100915897D01*
X138317365Y-100832454D01*
X138404359Y-100705134D01*
X138434964Y-100554000D01*
X138434964Y-100449214D01*
X139269000Y-100449214D01*
X139269000Y-100802750D01*
X139364250Y-100898000D01*
X140148000Y-100898000D01*
X140148000Y-100239250D01*
X140402000Y-100239250D01*
X140402000Y-100898000D01*
X141185750Y-100898000D01*
X141281000Y-100802750D01*
X141281000Y-100449214D01*
X141222996Y-100309180D01*
X141115819Y-100202004D01*
X140975785Y-100144000D01*
X140497250Y-100144000D01*
X140402000Y-100239250D01*
X140148000Y-100239250D01*
X140052750Y-100144000D01*
X139574215Y-100144000D01*
X139434181Y-100202004D01*
X139327004Y-100309180D01*
X139269000Y-100449214D01*
X138434964Y-100449214D01*
X138434964Y-100046000D01*
X138408397Y-99904810D01*
X138324954Y-99775135D01*
X138197634Y-99688141D01*
X138084712Y-99665274D01*
X138187690Y-99645897D01*
X138317365Y-99562454D01*
X138338857Y-99531000D01*
X139262665Y-99531000D01*
X139288103Y-99666190D01*
X139371546Y-99795865D01*
X139498866Y-99882859D01*
X139650000Y-99913464D01*
X140900000Y-99913464D01*
X141041190Y-99886897D01*
X141170865Y-99803454D01*
X141203743Y-99755335D01*
X141480000Y-100031592D01*
X141480000Y-102464408D01*
X141100269Y-102844139D01*
X141059609Y-102816971D01*
X140525000Y-102710631D01*
X139990391Y-102816971D01*
X139537172Y-103119803D01*
X139234340Y-103573022D01*
X139128000Y-104107631D01*
X139128000Y-104162369D01*
X139234340Y-104696978D01*
X139537172Y-105150197D01*
X139717272Y-105270536D01*
X139509000Y-105270536D01*
X139367810Y-105297103D01*
X139238135Y-105380546D01*
X139151141Y-105507866D01*
X139120536Y-105659000D01*
X139120536Y-107691000D01*
X139147103Y-107832190D01*
X139230546Y-107961865D01*
X139357866Y-108048859D01*
X139509000Y-108079464D01*
X141541000Y-108079464D01*
X141682190Y-108052897D01*
X141811865Y-107969454D01*
X141898859Y-107842134D01*
X141929464Y-107691000D01*
X141929464Y-106761128D01*
X143519024Y-105171568D01*
X143518882Y-105334865D01*
X143622339Y-105585252D01*
X143694000Y-105657038D01*
X143694000Y-106250000D01*
X143732517Y-106443638D01*
X143842204Y-106607796D01*
X144292204Y-107057796D01*
X144456362Y-107167483D01*
X144650000Y-107206000D01*
X147900000Y-107206000D01*
X148093638Y-107167483D01*
X148257796Y-107057796D01*
X148907756Y-106407836D01*
X149017443Y-106243678D01*
X149055960Y-106050040D01*
X149055960Y-105921053D01*
X149120825Y-105879314D01*
X149207819Y-105751994D01*
X149238424Y-105600860D01*
X149238424Y-105322250D01*
X149569000Y-105322250D01*
X149569000Y-105775786D01*
X149627004Y-105915820D01*
X149734181Y-106022996D01*
X149874215Y-106081000D01*
X150177750Y-106081000D01*
X150273000Y-105985750D01*
X150273000Y-105227000D01*
X149664250Y-105227000D01*
X149569000Y-105322250D01*
X149238424Y-105322250D01*
X149238424Y-104600100D01*
X149211857Y-104458910D01*
X149189531Y-104424214D01*
X149569000Y-104424214D01*
X149569000Y-104877750D01*
X149664250Y-104973000D01*
X150273000Y-104973000D01*
X150273000Y-104214250D01*
X150177750Y-104119000D01*
X149874215Y-104119000D01*
X149734181Y-104177004D01*
X149627004Y-104284180D01*
X149569000Y-104424214D01*
X149189531Y-104424214D01*
X149128414Y-104329235D01*
X149001094Y-104242241D01*
X148849960Y-104211636D01*
X148249960Y-104211636D01*
X148108770Y-104238203D01*
X148074752Y-104260093D01*
X147975786Y-104219100D01*
X147822250Y-104219100D01*
X147727000Y-104314350D01*
X147727000Y-104973480D01*
X147747000Y-104973480D01*
X147747000Y-105227480D01*
X147727000Y-105227480D01*
X147727000Y-105886610D01*
X147822250Y-105981860D01*
X147902548Y-105981860D01*
X147690408Y-106194000D01*
X144859592Y-106194000D01*
X144706000Y-106040408D01*
X144706000Y-105657123D01*
X144756731Y-105606480D01*
X145962633Y-105606480D01*
X145988143Y-105742050D01*
X146071586Y-105871725D01*
X146198906Y-105958719D01*
X146350040Y-105989324D01*
X146950040Y-105989324D01*
X147091230Y-105962757D01*
X147125248Y-105940867D01*
X147224214Y-105981860D01*
X147377750Y-105981860D01*
X147473000Y-105886610D01*
X147473000Y-105227480D01*
X147453000Y-105227480D01*
X147453000Y-104973480D01*
X147473000Y-104973480D01*
X147473000Y-104314350D01*
X147377750Y-104219100D01*
X147224214Y-104219100D01*
X147126526Y-104259564D01*
X147101174Y-104242241D01*
X146950040Y-104211636D01*
X146350040Y-104211636D01*
X146208850Y-104238203D01*
X146079175Y-104321646D01*
X145992181Y-104448966D01*
X145962714Y-104594480D01*
X145466920Y-104594480D01*
X145467483Y-104593638D01*
X145506000Y-104400000D01*
X145506000Y-103877927D01*
X145591190Y-103861897D01*
X145720865Y-103778454D01*
X145807859Y-103651134D01*
X145838464Y-103500000D01*
X145838464Y-102300000D01*
X145811897Y-102158810D01*
X145728454Y-102029135D01*
X145601134Y-101942141D01*
X145450000Y-101911536D01*
X144550000Y-101911536D01*
X144408810Y-101938103D01*
X144279135Y-102021546D01*
X144192141Y-102148866D01*
X144161536Y-102300000D01*
X144161536Y-103500000D01*
X144188103Y-103641190D01*
X144271546Y-103770865D01*
X144398866Y-103857859D01*
X144494000Y-103877124D01*
X144494000Y-104190408D01*
X144165439Y-104518969D01*
X144065135Y-104518882D01*
X143814748Y-104622339D01*
X143681000Y-104755855D01*
X143681000Y-100922250D01*
X144169000Y-100922250D01*
X144169000Y-101375786D01*
X144227004Y-101515820D01*
X144334181Y-101622996D01*
X144474215Y-101681000D01*
X144777750Y-101681000D01*
X144873000Y-101585750D01*
X144873000Y-100827000D01*
X144264250Y-100827000D01*
X144169000Y-100922250D01*
X143681000Y-100922250D01*
X143681000Y-100024214D01*
X144169000Y-100024214D01*
X144169000Y-100477750D01*
X144264250Y-100573000D01*
X144873000Y-100573000D01*
X144873000Y-99814250D01*
X144777750Y-99719000D01*
X144474215Y-99719000D01*
X144334181Y-99777004D01*
X144227004Y-99884180D01*
X144169000Y-100024214D01*
X143681000Y-100024214D01*
X143681000Y-99159592D01*
X145034592Y-97806000D01*
X145853294Y-97806000D01*
X145829135Y-97821546D01*
X145742141Y-97948866D01*
X145711536Y-98100000D01*
X145711536Y-99822721D01*
X145665819Y-99777004D01*
X145525785Y-99719000D01*
X145222250Y-99719000D01*
X145127000Y-99814250D01*
X145127000Y-100573000D01*
X145147000Y-100573000D01*
X145147000Y-100827000D01*
X145127000Y-100827000D01*
X145127000Y-101585750D01*
X145222250Y-101681000D01*
X145525785Y-101681000D01*
X145665819Y-101622996D01*
X145772996Y-101515820D01*
X145830503Y-101376985D01*
X145948866Y-101457859D01*
X146100000Y-101488464D01*
X146129996Y-101488464D01*
X146079175Y-101521166D01*
X145992181Y-101648486D01*
X145961576Y-101799620D01*
X145961576Y-102800380D01*
X145988143Y-102941570D01*
X146071586Y-103071245D01*
X146198906Y-103158239D01*
X146350040Y-103188844D01*
X146950040Y-103188844D01*
X147091230Y-103162277D01*
X147220905Y-103078834D01*
X147307899Y-102951514D01*
X147338504Y-102800380D01*
X147338504Y-101799620D01*
X147311937Y-101658430D01*
X147228494Y-101528755D01*
X147156040Y-101479249D01*
X147156040Y-101477919D01*
X147241190Y-101461897D01*
X147370865Y-101378454D01*
X147457859Y-101251134D01*
X147488464Y-101100000D01*
X147488464Y-98100000D01*
X147461897Y-97958810D01*
X147378454Y-97829135D01*
X147344595Y-97806000D01*
X147853294Y-97806000D01*
X147829135Y-97821546D01*
X147742141Y-97948866D01*
X147711536Y-98100000D01*
X147711536Y-101100000D01*
X147738103Y-101241190D01*
X147821546Y-101370865D01*
X147948866Y-101457859D01*
X148043960Y-101477116D01*
X148043960Y-101479427D01*
X147979095Y-101521166D01*
X147892101Y-101648486D01*
X147861496Y-101799620D01*
X147861496Y-102800380D01*
X147888063Y-102941570D01*
X147971506Y-103071245D01*
X148098826Y-103158239D01*
X148249960Y-103188844D01*
X148723212Y-103188844D01*
X148792164Y-103257796D01*
X148956322Y-103367483D01*
X149149960Y-103406000D01*
X149561536Y-103406000D01*
X149561536Y-103500000D01*
X149588103Y-103641190D01*
X149671546Y-103770865D01*
X149798866Y-103857859D01*
X149950000Y-103888464D01*
X150850000Y-103888464D01*
X150991190Y-103861897D01*
X151120865Y-103778454D01*
X151207859Y-103651134D01*
X151238464Y-103500000D01*
X151238464Y-103406000D01*
X154243179Y-103406000D01*
X154219118Y-103463946D01*
X154219030Y-103565378D01*
X152106000Y-105678408D01*
X152106000Y-105232036D01*
X152226987Y-105111259D01*
X152330882Y-104861054D01*
X152331118Y-104590135D01*
X152227661Y-104339748D01*
X152036259Y-104148013D01*
X151786054Y-104044118D01*
X151515135Y-104043882D01*
X151264748Y-104147339D01*
X151150352Y-104261536D01*
X151065819Y-104177004D01*
X150925785Y-104119000D01*
X150622250Y-104119000D01*
X150527000Y-104214250D01*
X150527000Y-104973000D01*
X150547000Y-104973000D01*
X150547000Y-105227000D01*
X150527000Y-105227000D01*
X150527000Y-105985750D01*
X150622250Y-106081000D01*
X150853408Y-106081000D01*
X150542204Y-106392204D01*
X150432517Y-106556362D01*
X150394000Y-106750000D01*
X150394000Y-107142877D01*
X150323013Y-107213741D01*
X150219118Y-107463946D01*
X150218882Y-107734865D01*
X150322339Y-107985252D01*
X150513741Y-108176987D01*
X150763946Y-108280882D01*
X151034865Y-108281118D01*
X151234000Y-108198838D01*
X151234000Y-108653701D01*
X150835552Y-108919935D01*
X150565757Y-109323712D01*
X150471017Y-109800000D01*
X150565757Y-110276288D01*
X150835552Y-110680065D01*
X151239329Y-110949860D01*
X151715617Y-111044600D01*
X151764383Y-111044600D01*
X152240671Y-110949860D01*
X152644448Y-110680065D01*
X152914243Y-110276288D01*
X153008983Y-109800000D01*
X153011017Y-109800000D01*
X153105757Y-110276288D01*
X153375552Y-110680065D01*
X153779329Y-110949860D01*
X154255617Y-111044600D01*
X154304383Y-111044600D01*
X154780671Y-110949860D01*
X155184448Y-110680065D01*
X155454243Y-110276288D01*
X155548983Y-109800000D01*
X155454243Y-109323712D01*
X155184448Y-108919935D01*
X154780671Y-108650140D01*
X154304383Y-108555400D01*
X154255617Y-108555400D01*
X153779329Y-108650140D01*
X153375552Y-108919935D01*
X153105757Y-109323712D01*
X153011017Y-109800000D01*
X153008983Y-109800000D01*
X152914243Y-109323712D01*
X152644448Y-108919935D01*
X152246000Y-108653701D01*
X152246000Y-106969592D01*
X153418915Y-105796677D01*
X153418882Y-105834865D01*
X153522339Y-106085252D01*
X153713741Y-106276987D01*
X153963946Y-106380882D01*
X154065378Y-106380970D01*
X155692204Y-108007796D01*
X155856362Y-108117483D01*
X156050000Y-108156000D01*
X157865408Y-108156000D01*
X157944000Y-108234592D01*
X157944000Y-109248518D01*
X157724448Y-108919935D01*
X157320671Y-108650140D01*
X156844383Y-108555400D01*
X156795617Y-108555400D01*
X156319329Y-108650140D01*
X155915552Y-108919935D01*
X155645757Y-109323712D01*
X155551017Y-109800000D01*
X155645757Y-110276288D01*
X155915552Y-110680065D01*
X156319329Y-110949860D01*
X156795617Y-111044600D01*
X156844383Y-111044600D01*
X157320671Y-110949860D01*
X157724448Y-110680065D01*
X157944000Y-110351482D01*
X157944000Y-111830157D01*
X157896305Y-111714999D01*
X157575199Y-111350690D01*
X157139120Y-111136995D01*
X156947000Y-111197135D01*
X156947000Y-112213000D01*
X156967000Y-112213000D01*
X156967000Y-112467000D01*
X156947000Y-112467000D01*
X156947000Y-112487000D01*
X156693000Y-112487000D01*
X156693000Y-112467000D01*
X155677688Y-112467000D01*
X155617007Y-112659118D01*
X155743695Y-112965001D01*
X155901465Y-113143998D01*
X155799590Y-113143998D01*
X155457169Y-112801577D01*
X155548983Y-112340000D01*
X155485507Y-112020882D01*
X155617007Y-112020882D01*
X155677688Y-112213000D01*
X156693000Y-112213000D01*
X156693000Y-111197135D01*
X156500880Y-111136995D01*
X156064801Y-111350690D01*
X155743695Y-111714999D01*
X155617007Y-112020882D01*
X155485507Y-112020882D01*
X155454243Y-111863712D01*
X155184448Y-111459935D01*
X154780671Y-111190140D01*
X154304383Y-111095400D01*
X154255617Y-111095400D01*
X153779329Y-111190140D01*
X153375552Y-111459935D01*
X153105757Y-111863712D01*
X153011017Y-112340000D01*
X153105757Y-112816288D01*
X153375552Y-113220065D01*
X153779329Y-113489860D01*
X154255617Y-113584600D01*
X154304383Y-113584600D01*
X154725285Y-113500877D01*
X154818408Y-113594000D01*
X148159592Y-113594000D01*
X147656000Y-113090408D01*
X147656000Y-112340000D01*
X147931017Y-112340000D01*
X148025757Y-112816288D01*
X148295552Y-113220065D01*
X148699329Y-113489860D01*
X149175617Y-113584600D01*
X149224383Y-113584600D01*
X149700671Y-113489860D01*
X150104448Y-113220065D01*
X150374243Y-112816288D01*
X150468983Y-112340000D01*
X150471017Y-112340000D01*
X150565757Y-112816288D01*
X150835552Y-113220065D01*
X151239329Y-113489860D01*
X151715617Y-113584600D01*
X151764383Y-113584600D01*
X152240671Y-113489860D01*
X152644448Y-113220065D01*
X152914243Y-112816288D01*
X153008983Y-112340000D01*
X152914243Y-111863712D01*
X152644448Y-111459935D01*
X152240671Y-111190140D01*
X151764383Y-111095400D01*
X151715617Y-111095400D01*
X151239329Y-111190140D01*
X150835552Y-111459935D01*
X150565757Y-111863712D01*
X150471017Y-112340000D01*
X150468983Y-112340000D01*
X150374243Y-111863712D01*
X150104448Y-111459935D01*
X149700671Y-111190140D01*
X149224383Y-111095400D01*
X149175617Y-111095400D01*
X148699329Y-111190140D01*
X148295552Y-111459935D01*
X148025757Y-111863712D01*
X147931017Y-112340000D01*
X147656000Y-112340000D01*
X147656000Y-110909592D01*
X147947936Y-110617656D01*
X147947936Y-110663600D01*
X147974503Y-110804790D01*
X148057946Y-110934465D01*
X148185266Y-111021459D01*
X148336400Y-111052064D01*
X150063600Y-111052064D01*
X150204790Y-111025497D01*
X150334465Y-110942054D01*
X150421459Y-110814734D01*
X150452064Y-110663600D01*
X150452064Y-108936400D01*
X150425497Y-108795210D01*
X150342054Y-108665535D01*
X150214734Y-108578541D01*
X150063600Y-108547936D01*
X148336400Y-108547936D01*
X148195210Y-108574503D01*
X148065535Y-108657946D01*
X147978541Y-108785266D01*
X147947936Y-108936400D01*
X147947936Y-109314302D01*
X147856362Y-109332517D01*
X147692204Y-109442204D01*
X146792204Y-110342204D01*
X146682517Y-110506362D01*
X146644000Y-110700000D01*
X146644000Y-113300000D01*
X146682517Y-113493638D01*
X146792204Y-113657796D01*
X147592204Y-114457796D01*
X147756362Y-114567483D01*
X147950000Y-114606000D01*
X173800000Y-114606000D01*
X173993638Y-114567483D01*
X174157796Y-114457796D01*
X175230596Y-113384996D01*
X175318638Y-113367483D01*
X175482796Y-113257796D01*
X175484561Y-113256031D01*
X175584865Y-113256118D01*
X175823000Y-113157723D01*
X175823000Y-114744000D01*
X124044911Y-114744000D01*
X123412555Y-114618216D01*
X122914544Y-114285456D01*
X122581784Y-113787445D01*
X122527000Y-113512028D01*
X122527000Y-113175350D01*
X123404256Y-113175350D01*
X123578014Y-113422709D01*
X124276791Y-113690285D01*
X125024775Y-113670082D01*
X125621986Y-113422709D01*
X125795744Y-113175350D01*
X124600000Y-111979605D01*
X123404256Y-113175350D01*
X122527000Y-113175350D01*
X122527000Y-111476791D01*
X122709715Y-111476791D01*
X122729918Y-112224775D01*
X122977291Y-112821986D01*
X123224650Y-112995744D01*
X124420395Y-111800000D01*
X124779605Y-111800000D01*
X125975350Y-112995744D01*
X126222709Y-112821986D01*
X126490285Y-112123209D01*
X126470082Y-111375225D01*
X126222709Y-110778014D01*
X125975350Y-110604256D01*
X124779605Y-111800000D01*
X124420395Y-111800000D01*
X123224650Y-110604256D01*
X122977291Y-110778014D01*
X122709715Y-111476791D01*
X122527000Y-111476791D01*
X122527000Y-110424650D01*
X123404256Y-110424650D01*
X124600000Y-111620395D01*
X125795744Y-110424650D01*
X125621986Y-110177291D01*
X124923209Y-109909715D01*
X124175225Y-109929918D01*
X123578014Y-110177291D01*
X123404256Y-110424650D01*
X122527000Y-110424650D01*
X122527000Y-109674096D01*
X125568234Y-109674096D01*
X125740142Y-110090146D01*
X126058180Y-110408739D01*
X126473929Y-110581373D01*
X126924096Y-110581766D01*
X127340146Y-110409858D01*
X127658739Y-110091820D01*
X127717954Y-109949214D01*
X128519000Y-109949214D01*
X128519000Y-110202750D01*
X128614250Y-110298000D01*
X129148000Y-110298000D01*
X129148000Y-109739250D01*
X129402000Y-109739250D01*
X129402000Y-110298000D01*
X129935750Y-110298000D01*
X130031000Y-110202750D01*
X130031000Y-109949214D01*
X129972996Y-109809180D01*
X129865819Y-109702004D01*
X129725785Y-109644000D01*
X129497250Y-109644000D01*
X129402000Y-109739250D01*
X129148000Y-109739250D01*
X129052750Y-109644000D01*
X128824215Y-109644000D01*
X128684181Y-109702004D01*
X128577004Y-109809180D01*
X128519000Y-109949214D01*
X127717954Y-109949214D01*
X127831373Y-109676071D01*
X127831766Y-109225904D01*
X127659858Y-108809854D01*
X127341820Y-108491261D01*
X126926071Y-108318627D01*
X126475904Y-108318234D01*
X126059854Y-108490142D01*
X125741261Y-108808180D01*
X125568627Y-109223929D01*
X125568234Y-109674096D01*
X122527000Y-109674096D01*
X122527000Y-108394277D01*
X123618830Y-108394277D01*
X123767864Y-108754966D01*
X124043583Y-109031166D01*
X124404011Y-109180829D01*
X124794277Y-109181170D01*
X125154966Y-109032136D01*
X125431166Y-108756417D01*
X125580829Y-108395989D01*
X125581170Y-108005723D01*
X125432136Y-107645034D01*
X125156417Y-107368834D01*
X124795989Y-107219171D01*
X124405723Y-107218830D01*
X124045034Y-107367864D01*
X123768834Y-107643583D01*
X123619171Y-108004011D01*
X123618830Y-108394277D01*
X122527000Y-108394277D01*
X122527000Y-103894277D01*
X123618830Y-103894277D01*
X123767864Y-104254966D01*
X124043583Y-104531166D01*
X124404011Y-104680829D01*
X124794277Y-104681170D01*
X125154966Y-104532136D01*
X125431166Y-104256417D01*
X125580829Y-103895989D01*
X125581170Y-103505723D01*
X125489086Y-103282861D01*
X126046744Y-103282861D01*
X126128715Y-103452371D01*
X126555793Y-103594691D01*
X127004824Y-103562743D01*
X127271285Y-103452371D01*
X127353256Y-103282861D01*
X126700000Y-102629605D01*
X126046744Y-103282861D01*
X125489086Y-103282861D01*
X125432136Y-103145034D01*
X125156417Y-102868834D01*
X124795989Y-102719171D01*
X124405723Y-102718830D01*
X124045034Y-102867864D01*
X123768834Y-103143583D01*
X123619171Y-103504011D01*
X123618830Y-103894277D01*
X122527000Y-103894277D01*
X122527000Y-102305793D01*
X125555309Y-102305793D01*
X125587257Y-102754824D01*
X125697629Y-103021285D01*
X125867139Y-103103256D01*
X126520395Y-102450000D01*
X126879605Y-102450000D01*
X127532861Y-103103256D01*
X127702371Y-103021285D01*
X127844691Y-102594207D01*
X127812743Y-102145176D01*
X127702371Y-101878715D01*
X127532861Y-101796744D01*
X126879605Y-102450000D01*
X126520395Y-102450000D01*
X125867139Y-101796744D01*
X125697629Y-101878715D01*
X125555309Y-102305793D01*
X122527000Y-102305793D01*
X122527000Y-101475350D01*
X123404256Y-101475350D01*
X123578014Y-101722709D01*
X124276791Y-101990285D01*
X125024775Y-101970082D01*
X125621986Y-101722709D01*
X125696143Y-101617139D01*
X126046744Y-101617139D01*
X126700000Y-102270395D01*
X127353256Y-101617139D01*
X127271285Y-101447629D01*
X126844207Y-101305309D01*
X126395176Y-101337257D01*
X126128715Y-101447629D01*
X126046744Y-101617139D01*
X125696143Y-101617139D01*
X125795744Y-101475350D01*
X124600000Y-100279605D01*
X123404256Y-101475350D01*
X122527000Y-101475350D01*
X122527000Y-99776791D01*
X122709715Y-99776791D01*
X122729918Y-100524775D01*
X122977291Y-101121986D01*
X123224650Y-101295744D01*
X124420395Y-100100000D01*
X124779605Y-100100000D01*
X125975350Y-101295744D01*
X126222709Y-101121986D01*
X126490285Y-100423209D01*
X126470082Y-99675225D01*
X126222709Y-99078014D01*
X125975350Y-98904256D01*
X124779605Y-100100000D01*
X124420395Y-100100000D01*
X123224650Y-98904256D01*
X122977291Y-99078014D01*
X122709715Y-99776791D01*
X122527000Y-99776791D01*
X122527000Y-98724650D01*
X123404256Y-98724650D01*
X124600000Y-99920395D01*
X125795744Y-98724650D01*
X125778579Y-98700214D01*
X130172500Y-98700214D01*
X130172500Y-98807750D01*
X130267750Y-98903000D01*
X130998000Y-98903000D01*
X130998000Y-98490250D01*
X131252000Y-98490250D01*
X131252000Y-98903000D01*
X131982250Y-98903000D01*
X132077500Y-98807750D01*
X132077500Y-98700214D01*
X132019496Y-98560180D01*
X131912319Y-98453004D01*
X131772285Y-98395000D01*
X131347250Y-98395000D01*
X131252000Y-98490250D01*
X130998000Y-98490250D01*
X130902750Y-98395000D01*
X130477715Y-98395000D01*
X130337681Y-98453004D01*
X130230504Y-98560180D01*
X130172500Y-98700214D01*
X125778579Y-98700214D01*
X125621986Y-98477291D01*
X124923209Y-98209715D01*
X124175225Y-98229918D01*
X123578014Y-98477291D01*
X123404256Y-98724650D01*
X122527000Y-98724650D01*
X122527000Y-98487972D01*
X122581784Y-98212555D01*
X122914544Y-97714544D01*
X123412555Y-97381784D01*
X124044911Y-97256000D01*
X144153408Y-97256000D01*
X142817204Y-98592204D01*
X142817204Y-98592204D01*
G37*
X142817204Y-98592204D02*
X142707517Y-98756362D01*
X142669000Y-98950000D01*
X142669000Y-104590408D01*
X141839743Y-105419665D01*
X141819454Y-105388135D01*
X141692134Y-105301141D01*
X141541000Y-105270536D01*
X141332728Y-105270536D01*
X141512828Y-105150197D01*
X141815660Y-104696978D01*
X141922000Y-104162369D01*
X141922000Y-104107631D01*
X141815660Y-103573022D01*
X141810417Y-103565175D01*
X142343796Y-103031796D01*
X142453483Y-102867638D01*
X142492000Y-102674000D01*
X142492000Y-99822000D01*
X142453483Y-99628362D01*
X142343796Y-99464204D01*
X141546796Y-98667204D01*
X141382638Y-98557517D01*
X141288464Y-98538785D01*
X141288464Y-98525000D01*
X141261897Y-98383810D01*
X141178454Y-98254135D01*
X141051134Y-98167141D01*
X140900000Y-98136536D01*
X139650000Y-98136536D01*
X139508810Y-98163103D01*
X139379135Y-98246546D01*
X139292141Y-98373866D01*
X139262751Y-98519000D01*
X138333876Y-98519000D01*
X138324954Y-98505135D01*
X138197634Y-98418141D01*
X138046500Y-98387536D01*
X136903500Y-98387536D01*
X136762310Y-98414103D01*
X136632635Y-98497546D01*
X136614560Y-98524000D01*
X136174000Y-98524000D01*
X135980362Y-98562517D01*
X135882734Y-98627750D01*
X135816204Y-98672204D01*
X132154408Y-102334000D01*
X131987093Y-102334000D01*
X131974954Y-102315135D01*
X131847634Y-102228141D01*
X131734712Y-102205274D01*
X131837690Y-102185897D01*
X131967365Y-102102454D01*
X132054359Y-101975134D01*
X132084964Y-101824000D01*
X132084964Y-101316000D01*
X132058397Y-101174810D01*
X131974954Y-101045135D01*
X131847634Y-100958141D01*
X131734712Y-100935274D01*
X131837690Y-100915897D01*
X131967365Y-100832454D01*
X132054359Y-100705134D01*
X132084964Y-100554000D01*
X132084964Y-100046000D01*
X132058397Y-99904810D01*
X131974954Y-99775135D01*
X131847634Y-99688141D01*
X131733359Y-99665000D01*
X131772285Y-99665000D01*
X131912319Y-99606996D01*
X132019496Y-99499820D01*
X132077500Y-99359786D01*
X132077500Y-99252250D01*
X131982250Y-99157000D01*
X131252000Y-99157000D01*
X131252000Y-99177000D01*
X130998000Y-99177000D01*
X130998000Y-99157000D01*
X130267750Y-99157000D01*
X130172500Y-99252250D01*
X130172500Y-99359786D01*
X130230504Y-99499820D01*
X130337681Y-99606996D01*
X130477715Y-99665000D01*
X130513833Y-99665000D01*
X130412310Y-99684103D01*
X130282635Y-99767546D01*
X130264560Y-99794000D01*
X130257210Y-99794000D01*
X130236259Y-99773013D01*
X129986054Y-99669118D01*
X129715135Y-99668882D01*
X129464748Y-99772339D01*
X129273013Y-99963741D01*
X129169118Y-100213946D01*
X129168882Y-100484865D01*
X129272339Y-100735252D01*
X129463741Y-100926987D01*
X129463872Y-100927041D01*
X129414748Y-100947339D01*
X129223013Y-101138741D01*
X129119118Y-101388946D01*
X129118882Y-101659865D01*
X129222339Y-101910252D01*
X129413741Y-102101987D01*
X129663946Y-102205882D01*
X129934865Y-102206118D01*
X130185252Y-102102661D01*
X130211959Y-102076000D01*
X130262907Y-102076000D01*
X130275046Y-102094865D01*
X130402366Y-102181859D01*
X130515288Y-102204726D01*
X130412310Y-102224103D01*
X130282635Y-102307546D01*
X130195641Y-102434866D01*
X130165036Y-102586000D01*
X130165036Y-103094000D01*
X130191603Y-103235190D01*
X130275046Y-103364865D01*
X130402366Y-103451859D01*
X130515288Y-103474726D01*
X130412310Y-103494103D01*
X130282635Y-103577546D01*
X130264560Y-103604000D01*
X127540000Y-103604000D01*
X127346362Y-103642517D01*
X127182204Y-103752204D01*
X127060119Y-103874289D01*
X126926071Y-103818627D01*
X126475904Y-103818234D01*
X126059854Y-103990142D01*
X125741261Y-104308180D01*
X125568627Y-104723929D01*
X125568234Y-105174096D01*
X125740142Y-105590146D01*
X126058180Y-105908739D01*
X126169348Y-105954900D01*
X126059854Y-106000142D01*
X125741261Y-106318180D01*
X125568627Y-106733929D01*
X125568234Y-107184096D01*
X125740142Y-107600146D01*
X126058180Y-107918739D01*
X126473929Y-108091373D01*
X126924096Y-108091766D01*
X127340146Y-107919858D01*
X127658739Y-107601820D01*
X127831373Y-107186071D01*
X127831766Y-106735904D01*
X127775606Y-106599986D01*
X128489592Y-105886000D01*
X130262907Y-105886000D01*
X130275046Y-105904865D01*
X130402366Y-105991859D01*
X130515288Y-106014726D01*
X130412310Y-106034103D01*
X130282635Y-106117546D01*
X130195641Y-106244866D01*
X130165036Y-106396000D01*
X130165036Y-106904000D01*
X130191603Y-107045190D01*
X130275046Y-107174865D01*
X130402366Y-107261859D01*
X130515288Y-107284726D01*
X130412310Y-107304103D01*
X130282635Y-107387546D01*
X130195641Y-107514866D01*
X130165036Y-107666000D01*
X130165036Y-108174000D01*
X130191603Y-108315190D01*
X130275046Y-108444865D01*
X130402366Y-108531859D01*
X130553500Y-108562464D01*
X131051872Y-108562464D01*
X133214000Y-110724592D01*
X133214000Y-110977313D01*
X133102127Y-111023538D01*
X132794618Y-111330511D01*
X132747493Y-111444000D01*
X130023223Y-111444000D01*
X130011897Y-111383810D01*
X129928454Y-111254135D01*
X129808103Y-111171903D01*
X129865819Y-111147996D01*
X129972996Y-111040820D01*
X130031000Y-110900786D01*
X130031000Y-110647250D01*
X129935750Y-110552000D01*
X129402000Y-110552000D01*
X129402000Y-110572000D01*
X129148000Y-110572000D01*
X129148000Y-110552000D01*
X128614250Y-110552000D01*
X128519000Y-110647250D01*
X128519000Y-110900786D01*
X128577004Y-111040820D01*
X128684181Y-111147996D01*
X128743867Y-111172719D01*
X128629135Y-111246546D01*
X128542141Y-111373866D01*
X128511536Y-111525000D01*
X128511536Y-112325000D01*
X128538103Y-112466190D01*
X128621546Y-112595865D01*
X128748866Y-112682859D01*
X128900000Y-112713464D01*
X129650000Y-112713464D01*
X129791190Y-112686897D01*
X129920865Y-112603454D01*
X130007859Y-112476134D01*
X130011936Y-112456000D01*
X132747313Y-112456000D01*
X132793538Y-112567873D01*
X133100511Y-112875382D01*
X133501795Y-113042010D01*
X133936299Y-113042389D01*
X134337873Y-112876462D01*
X134645382Y-112569489D01*
X134812010Y-112168205D01*
X134812389Y-111733701D01*
X134646462Y-111332127D01*
X134339489Y-111024618D01*
X134226000Y-110977493D01*
X134226000Y-110515000D01*
X134187483Y-110321362D01*
X134077796Y-110157204D01*
X132084964Y-108164372D01*
X132084964Y-107666000D01*
X132058397Y-107524810D01*
X131974954Y-107395135D01*
X131847634Y-107308141D01*
X131734712Y-107285274D01*
X131837690Y-107265897D01*
X131906212Y-107221804D01*
X136992204Y-112307796D01*
X137156362Y-112417483D01*
X137350000Y-112456000D01*
X137827313Y-112456000D01*
X137873538Y-112567873D01*
X138180511Y-112875382D01*
X138581795Y-113042010D01*
X139016299Y-113042389D01*
X139417873Y-112876462D01*
X139725382Y-112569489D01*
X139772507Y-112456000D01*
X142411186Y-112456000D01*
X142413103Y-112466190D01*
X142496546Y-112595865D01*
X142623866Y-112682859D01*
X142775000Y-112713464D01*
X143525000Y-112713464D01*
X143666190Y-112686897D01*
X143795865Y-112603454D01*
X143882859Y-112476134D01*
X143913464Y-112325000D01*
X143913464Y-111525000D01*
X143886897Y-111383810D01*
X143803454Y-111254135D01*
X143683103Y-111171903D01*
X143740819Y-111147996D01*
X143847996Y-111040820D01*
X143906000Y-110900786D01*
X143906000Y-110647250D01*
X143810750Y-110552000D01*
X143277000Y-110552000D01*
X143277000Y-110572000D01*
X143023000Y-110572000D01*
X143023000Y-110552000D01*
X142489250Y-110552000D01*
X142394000Y-110647250D01*
X142394000Y-110900786D01*
X142452004Y-111040820D01*
X142559181Y-111147996D01*
X142618867Y-111172719D01*
X142504135Y-111246546D01*
X142417141Y-111373866D01*
X142402939Y-111444000D01*
X139772687Y-111444000D01*
X139726462Y-111332127D01*
X139419489Y-111024618D01*
X139018205Y-110857990D01*
X138583701Y-110857611D01*
X138182127Y-111023538D01*
X137874618Y-111330511D01*
X137827493Y-111444000D01*
X137559592Y-111444000D01*
X136064806Y-109949214D01*
X142394000Y-109949214D01*
X142394000Y-110202750D01*
X142489250Y-110298000D01*
X143023000Y-110298000D01*
X143023000Y-109739250D01*
X143277000Y-109739250D01*
X143277000Y-110298000D01*
X143810750Y-110298000D01*
X143906000Y-110202750D01*
X143906000Y-109949214D01*
X143847996Y-109809180D01*
X143740819Y-109702004D01*
X143600785Y-109644000D01*
X143372250Y-109644000D01*
X143277000Y-109739250D01*
X143023000Y-109739250D01*
X142927750Y-109644000D01*
X142699215Y-109644000D01*
X142559181Y-109702004D01*
X142452004Y-109809180D01*
X142394000Y-109949214D01*
X136064806Y-109949214D01*
X132407796Y-106292204D01*
X132243638Y-106182517D01*
X132050000Y-106144000D01*
X131987093Y-106144000D01*
X131974954Y-106125135D01*
X131847634Y-106038141D01*
X131734712Y-106015274D01*
X131837690Y-105995897D01*
X131967365Y-105912454D01*
X132054359Y-105785134D01*
X132084964Y-105634000D01*
X132084964Y-105126000D01*
X132058397Y-104984810D01*
X131974954Y-104855135D01*
X131847634Y-104768141D01*
X131734712Y-104745274D01*
X131837690Y-104725897D01*
X131967365Y-104642454D01*
X132054359Y-104515134D01*
X132084964Y-104364000D01*
X132084964Y-103856000D01*
X132058397Y-103714810D01*
X131974954Y-103585135D01*
X131847634Y-103498141D01*
X131734712Y-103475274D01*
X131837690Y-103455897D01*
X131967365Y-103372454D01*
X131985440Y-103346000D01*
X132364000Y-103346000D01*
X132557638Y-103307483D01*
X132721796Y-103197796D01*
X136383592Y-99536000D01*
X136612907Y-99536000D01*
X136625046Y-99554865D01*
X136752366Y-99641859D01*
X136865288Y-99664726D01*
X136762310Y-99684103D01*
X136632635Y-99767546D01*
X136545641Y-99894866D01*
X136515036Y-100046000D01*
X136515036Y-100554000D01*
X136541603Y-100695190D01*
X136625046Y-100824865D01*
X136752366Y-100911859D01*
X136865288Y-100934726D01*
X136762310Y-100954103D01*
X136632635Y-101037546D01*
X136545641Y-101164866D01*
X136515036Y-101316000D01*
X136515036Y-101824000D01*
X136541603Y-101965190D01*
X136625046Y-102094865D01*
X136752366Y-102181859D01*
X136865288Y-102204726D01*
X136762310Y-102224103D01*
X136632635Y-102307546D01*
X136545641Y-102434866D01*
X136515036Y-102586000D01*
X136515036Y-103094000D01*
X136541603Y-103235190D01*
X136625046Y-103364865D01*
X136752366Y-103451859D01*
X136865288Y-103474726D01*
X136762310Y-103494103D01*
X136632635Y-103577546D01*
X136545641Y-103704866D01*
X136515036Y-103856000D01*
X136515036Y-104364000D01*
X136541603Y-104505190D01*
X136625046Y-104634865D01*
X136752366Y-104721859D01*
X136865288Y-104744726D01*
X136762310Y-104764103D01*
X136632635Y-104847546D01*
X136545641Y-104974866D01*
X136515036Y-105126000D01*
X136515036Y-105634000D01*
X136541603Y-105775190D01*
X136625046Y-105904865D01*
X136752366Y-105991859D01*
X136865288Y-106014726D01*
X136762310Y-106034103D01*
X136632635Y-106117546D01*
X136545641Y-106244866D01*
X136515036Y-106396000D01*
X136515036Y-106904000D01*
X136541603Y-107045190D01*
X136625046Y-107174865D01*
X136752366Y-107261859D01*
X136865288Y-107284726D01*
X136762310Y-107304103D01*
X136632635Y-107387546D01*
X136545641Y-107514866D01*
X136515036Y-107666000D01*
X136515036Y-108174000D01*
X136541603Y-108315190D01*
X136625046Y-108444865D01*
X136752366Y-108531859D01*
X136903500Y-108562464D01*
X138046500Y-108562464D01*
X138187690Y-108535897D01*
X138317365Y-108452454D01*
X138404359Y-108325134D01*
X138434964Y-108174000D01*
X138434964Y-107666000D01*
X138408397Y-107524810D01*
X138324954Y-107395135D01*
X138197634Y-107308141D01*
X138084712Y-107285274D01*
X138187690Y-107265897D01*
X138317365Y-107182454D01*
X138404359Y-107055134D01*
X138434964Y-106904000D01*
X138434964Y-106396000D01*
X138408397Y-106254810D01*
X138324954Y-106125135D01*
X138197634Y-106038141D01*
X138084712Y-106015274D01*
X138187690Y-105995897D01*
X138317365Y-105912454D01*
X138404359Y-105785134D01*
X138434964Y-105634000D01*
X138434964Y-105126000D01*
X138408397Y-104984810D01*
X138324954Y-104855135D01*
X138197634Y-104768141D01*
X138084712Y-104745274D01*
X138187690Y-104725897D01*
X138317365Y-104642454D01*
X138404359Y-104515134D01*
X138434964Y-104364000D01*
X138434964Y-103856000D01*
X138408397Y-103714810D01*
X138324954Y-103585135D01*
X138197634Y-103498141D01*
X138084712Y-103475274D01*
X138187690Y-103455897D01*
X138317365Y-103372454D01*
X138404359Y-103245134D01*
X138434964Y-103094000D01*
X138434964Y-102586000D01*
X138408397Y-102444810D01*
X138324954Y-102315135D01*
X138197634Y-102228141D01*
X138084712Y-102205274D01*
X138187690Y-102185897D01*
X138317365Y-102102454D01*
X138404359Y-101975134D01*
X138434964Y-101824000D01*
X138434964Y-101316000D01*
X138422028Y-101247250D01*
X139269000Y-101247250D01*
X139269000Y-101600786D01*
X139327004Y-101740820D01*
X139434181Y-101847996D01*
X139574215Y-101906000D01*
X140052750Y-101906000D01*
X140148000Y-101810750D01*
X140148000Y-101152000D01*
X140402000Y-101152000D01*
X140402000Y-101810750D01*
X140497250Y-101906000D01*
X140975785Y-101906000D01*
X141115819Y-101847996D01*
X141222996Y-101740820D01*
X141281000Y-101600786D01*
X141281000Y-101247250D01*
X141185750Y-101152000D01*
X140402000Y-101152000D01*
X140148000Y-101152000D01*
X139364250Y-101152000D01*
X139269000Y-101247250D01*
X138422028Y-101247250D01*
X138408397Y-101174810D01*
X138324954Y-101045135D01*
X138197634Y-100958141D01*
X138084712Y-100935274D01*
X138187690Y-100915897D01*
X138317365Y-100832454D01*
X138404359Y-100705134D01*
X138434964Y-100554000D01*
X138434964Y-100449214D01*
X139269000Y-100449214D01*
X139269000Y-100802750D01*
X139364250Y-100898000D01*
X140148000Y-100898000D01*
X140148000Y-100239250D01*
X140402000Y-100239250D01*
X140402000Y-100898000D01*
X141185750Y-100898000D01*
X141281000Y-100802750D01*
X141281000Y-100449214D01*
X141222996Y-100309180D01*
X141115819Y-100202004D01*
X140975785Y-100144000D01*
X140497250Y-100144000D01*
X140402000Y-100239250D01*
X140148000Y-100239250D01*
X140052750Y-100144000D01*
X139574215Y-100144000D01*
X139434181Y-100202004D01*
X139327004Y-100309180D01*
X139269000Y-100449214D01*
X138434964Y-100449214D01*
X138434964Y-100046000D01*
X138408397Y-99904810D01*
X138324954Y-99775135D01*
X138197634Y-99688141D01*
X138084712Y-99665274D01*
X138187690Y-99645897D01*
X138317365Y-99562454D01*
X138338857Y-99531000D01*
X139262665Y-99531000D01*
X139288103Y-99666190D01*
X139371546Y-99795865D01*
X139498866Y-99882859D01*
X139650000Y-99913464D01*
X140900000Y-99913464D01*
X141041190Y-99886897D01*
X141170865Y-99803454D01*
X141203743Y-99755335D01*
X141480000Y-100031592D01*
X141480000Y-102464408D01*
X141100269Y-102844139D01*
X141059609Y-102816971D01*
X140525000Y-102710631D01*
X139990391Y-102816971D01*
X139537172Y-103119803D01*
X139234340Y-103573022D01*
X139128000Y-104107631D01*
X139128000Y-104162369D01*
X139234340Y-104696978D01*
X139537172Y-105150197D01*
X139717272Y-105270536D01*
X139509000Y-105270536D01*
X139367810Y-105297103D01*
X139238135Y-105380546D01*
X139151141Y-105507866D01*
X139120536Y-105659000D01*
X139120536Y-107691000D01*
X139147103Y-107832190D01*
X139230546Y-107961865D01*
X139357866Y-108048859D01*
X139509000Y-108079464D01*
X141541000Y-108079464D01*
X141682190Y-108052897D01*
X141811865Y-107969454D01*
X141898859Y-107842134D01*
X141929464Y-107691000D01*
X141929464Y-106761128D01*
X143519024Y-105171568D01*
X143518882Y-105334865D01*
X143622339Y-105585252D01*
X143694000Y-105657038D01*
X143694000Y-106250000D01*
X143732517Y-106443638D01*
X143842204Y-106607796D01*
X144292204Y-107057796D01*
X144456362Y-107167483D01*
X144650000Y-107206000D01*
X147900000Y-107206000D01*
X148093638Y-107167483D01*
X148257796Y-107057796D01*
X148907756Y-106407836D01*
X149017443Y-106243678D01*
X149055960Y-106050040D01*
X149055960Y-105921053D01*
X149120825Y-105879314D01*
X149207819Y-105751994D01*
X149238424Y-105600860D01*
X149238424Y-105322250D01*
X149569000Y-105322250D01*
X149569000Y-105775786D01*
X149627004Y-105915820D01*
X149734181Y-106022996D01*
X149874215Y-106081000D01*
X150177750Y-106081000D01*
X150273000Y-105985750D01*
X150273000Y-105227000D01*
X149664250Y-105227000D01*
X149569000Y-105322250D01*
X149238424Y-105322250D01*
X149238424Y-104600100D01*
X149211857Y-104458910D01*
X149189531Y-104424214D01*
X149569000Y-104424214D01*
X149569000Y-104877750D01*
X149664250Y-104973000D01*
X150273000Y-104973000D01*
X150273000Y-104214250D01*
X150177750Y-104119000D01*
X149874215Y-104119000D01*
X149734181Y-104177004D01*
X149627004Y-104284180D01*
X149569000Y-104424214D01*
X149189531Y-104424214D01*
X149128414Y-104329235D01*
X149001094Y-104242241D01*
X148849960Y-104211636D01*
X148249960Y-104211636D01*
X148108770Y-104238203D01*
X148074752Y-104260093D01*
X147975786Y-104219100D01*
X147822250Y-104219100D01*
X147727000Y-104314350D01*
X147727000Y-104973480D01*
X147747000Y-104973480D01*
X147747000Y-105227480D01*
X147727000Y-105227480D01*
X147727000Y-105886610D01*
X147822250Y-105981860D01*
X147902548Y-105981860D01*
X147690408Y-106194000D01*
X144859592Y-106194000D01*
X144706000Y-106040408D01*
X144706000Y-105657123D01*
X144756731Y-105606480D01*
X145962633Y-105606480D01*
X145988143Y-105742050D01*
X146071586Y-105871725D01*
X146198906Y-105958719D01*
X146350040Y-105989324D01*
X146950040Y-105989324D01*
X147091230Y-105962757D01*
X147125248Y-105940867D01*
X147224214Y-105981860D01*
X147377750Y-105981860D01*
X147473000Y-105886610D01*
X147473000Y-105227480D01*
X147453000Y-105227480D01*
X147453000Y-104973480D01*
X147473000Y-104973480D01*
X147473000Y-104314350D01*
X147377750Y-104219100D01*
X147224214Y-104219100D01*
X147126526Y-104259564D01*
X147101174Y-104242241D01*
X146950040Y-104211636D01*
X146350040Y-104211636D01*
X146208850Y-104238203D01*
X146079175Y-104321646D01*
X145992181Y-104448966D01*
X145962714Y-104594480D01*
X145466920Y-104594480D01*
X145467483Y-104593638D01*
X145506000Y-104400000D01*
X145506000Y-103877927D01*
X145591190Y-103861897D01*
X145720865Y-103778454D01*
X145807859Y-103651134D01*
X145838464Y-103500000D01*
X145838464Y-102300000D01*
X145811897Y-102158810D01*
X145728454Y-102029135D01*
X145601134Y-101942141D01*
X145450000Y-101911536D01*
X144550000Y-101911536D01*
X144408810Y-101938103D01*
X144279135Y-102021546D01*
X144192141Y-102148866D01*
X144161536Y-102300000D01*
X144161536Y-103500000D01*
X144188103Y-103641190D01*
X144271546Y-103770865D01*
X144398866Y-103857859D01*
X144494000Y-103877124D01*
X144494000Y-104190408D01*
X144165439Y-104518969D01*
X144065135Y-104518882D01*
X143814748Y-104622339D01*
X143681000Y-104755855D01*
X143681000Y-100922250D01*
X144169000Y-100922250D01*
X144169000Y-101375786D01*
X144227004Y-101515820D01*
X144334181Y-101622996D01*
X144474215Y-101681000D01*
X144777750Y-101681000D01*
X144873000Y-101585750D01*
X144873000Y-100827000D01*
X144264250Y-100827000D01*
X144169000Y-100922250D01*
X143681000Y-100922250D01*
X143681000Y-100024214D01*
X144169000Y-100024214D01*
X144169000Y-100477750D01*
X144264250Y-100573000D01*
X144873000Y-100573000D01*
X144873000Y-99814250D01*
X144777750Y-99719000D01*
X144474215Y-99719000D01*
X144334181Y-99777004D01*
X144227004Y-99884180D01*
X144169000Y-100024214D01*
X143681000Y-100024214D01*
X143681000Y-99159592D01*
X145034592Y-97806000D01*
X145853294Y-97806000D01*
X145829135Y-97821546D01*
X145742141Y-97948866D01*
X145711536Y-98100000D01*
X145711536Y-99822721D01*
X145665819Y-99777004D01*
X145525785Y-99719000D01*
X145222250Y-99719000D01*
X145127000Y-99814250D01*
X145127000Y-100573000D01*
X145147000Y-100573000D01*
X145147000Y-100827000D01*
X145127000Y-100827000D01*
X145127000Y-101585750D01*
X145222250Y-101681000D01*
X145525785Y-101681000D01*
X145665819Y-101622996D01*
X145772996Y-101515820D01*
X145830503Y-101376985D01*
X145948866Y-101457859D01*
X146100000Y-101488464D01*
X146129996Y-101488464D01*
X146079175Y-101521166D01*
X145992181Y-101648486D01*
X145961576Y-101799620D01*
X145961576Y-102800380D01*
X145988143Y-102941570D01*
X146071586Y-103071245D01*
X146198906Y-103158239D01*
X146350040Y-103188844D01*
X146950040Y-103188844D01*
X147091230Y-103162277D01*
X147220905Y-103078834D01*
X147307899Y-102951514D01*
X147338504Y-102800380D01*
X147338504Y-101799620D01*
X147311937Y-101658430D01*
X147228494Y-101528755D01*
X147156040Y-101479249D01*
X147156040Y-101477919D01*
X147241190Y-101461897D01*
X147370865Y-101378454D01*
X147457859Y-101251134D01*
X147488464Y-101100000D01*
X147488464Y-98100000D01*
X147461897Y-97958810D01*
X147378454Y-97829135D01*
X147344595Y-97806000D01*
X147853294Y-97806000D01*
X147829135Y-97821546D01*
X147742141Y-97948866D01*
X147711536Y-98100000D01*
X147711536Y-101100000D01*
X147738103Y-101241190D01*
X147821546Y-101370865D01*
X147948866Y-101457859D01*
X148043960Y-101477116D01*
X148043960Y-101479427D01*
X147979095Y-101521166D01*
X147892101Y-101648486D01*
X147861496Y-101799620D01*
X147861496Y-102800380D01*
X147888063Y-102941570D01*
X147971506Y-103071245D01*
X148098826Y-103158239D01*
X148249960Y-103188844D01*
X148723212Y-103188844D01*
X148792164Y-103257796D01*
X148956322Y-103367483D01*
X149149960Y-103406000D01*
X149561536Y-103406000D01*
X149561536Y-103500000D01*
X149588103Y-103641190D01*
X149671546Y-103770865D01*
X149798866Y-103857859D01*
X149950000Y-103888464D01*
X150850000Y-103888464D01*
X150991190Y-103861897D01*
X151120865Y-103778454D01*
X151207859Y-103651134D01*
X151238464Y-103500000D01*
X151238464Y-103406000D01*
X154243179Y-103406000D01*
X154219118Y-103463946D01*
X154219030Y-103565378D01*
X152106000Y-105678408D01*
X152106000Y-105232036D01*
X152226987Y-105111259D01*
X152330882Y-104861054D01*
X152331118Y-104590135D01*
X152227661Y-104339748D01*
X152036259Y-104148013D01*
X151786054Y-104044118D01*
X151515135Y-104043882D01*
X151264748Y-104147339D01*
X151150352Y-104261536D01*
X151065819Y-104177004D01*
X150925785Y-104119000D01*
X150622250Y-104119000D01*
X150527000Y-104214250D01*
X150527000Y-104973000D01*
X150547000Y-104973000D01*
X150547000Y-105227000D01*
X150527000Y-105227000D01*
X150527000Y-105985750D01*
X150622250Y-106081000D01*
X150853408Y-106081000D01*
X150542204Y-106392204D01*
X150432517Y-106556362D01*
X150394000Y-106750000D01*
X150394000Y-107142877D01*
X150323013Y-107213741D01*
X150219118Y-107463946D01*
X150218882Y-107734865D01*
X150322339Y-107985252D01*
X150513741Y-108176987D01*
X150763946Y-108280882D01*
X151034865Y-108281118D01*
X151234000Y-108198838D01*
X151234000Y-108653701D01*
X150835552Y-108919935D01*
X150565757Y-109323712D01*
X150471017Y-109800000D01*
X150565757Y-110276288D01*
X150835552Y-110680065D01*
X151239329Y-110949860D01*
X151715617Y-111044600D01*
X151764383Y-111044600D01*
X152240671Y-110949860D01*
X152644448Y-110680065D01*
X152914243Y-110276288D01*
X153008983Y-109800000D01*
X153011017Y-109800000D01*
X153105757Y-110276288D01*
X153375552Y-110680065D01*
X153779329Y-110949860D01*
X154255617Y-111044600D01*
X154304383Y-111044600D01*
X154780671Y-110949860D01*
X155184448Y-110680065D01*
X155454243Y-110276288D01*
X155548983Y-109800000D01*
X155454243Y-109323712D01*
X155184448Y-108919935D01*
X154780671Y-108650140D01*
X154304383Y-108555400D01*
X154255617Y-108555400D01*
X153779329Y-108650140D01*
X153375552Y-108919935D01*
X153105757Y-109323712D01*
X153011017Y-109800000D01*
X153008983Y-109800000D01*
X152914243Y-109323712D01*
X152644448Y-108919935D01*
X152246000Y-108653701D01*
X152246000Y-106969592D01*
X153418915Y-105796677D01*
X153418882Y-105834865D01*
X153522339Y-106085252D01*
X153713741Y-106276987D01*
X153963946Y-106380882D01*
X154065378Y-106380970D01*
X155692204Y-108007796D01*
X155856362Y-108117483D01*
X156050000Y-108156000D01*
X157865408Y-108156000D01*
X157944000Y-108234592D01*
X157944000Y-109248518D01*
X157724448Y-108919935D01*
X157320671Y-108650140D01*
X156844383Y-108555400D01*
X156795617Y-108555400D01*
X156319329Y-108650140D01*
X155915552Y-108919935D01*
X155645757Y-109323712D01*
X155551017Y-109800000D01*
X155645757Y-110276288D01*
X155915552Y-110680065D01*
X156319329Y-110949860D01*
X156795617Y-111044600D01*
X156844383Y-111044600D01*
X157320671Y-110949860D01*
X157724448Y-110680065D01*
X157944000Y-110351482D01*
X157944000Y-111830157D01*
X157896305Y-111714999D01*
X157575199Y-111350690D01*
X157139120Y-111136995D01*
X156947000Y-111197135D01*
X156947000Y-112213000D01*
X156967000Y-112213000D01*
X156967000Y-112467000D01*
X156947000Y-112467000D01*
X156947000Y-112487000D01*
X156693000Y-112487000D01*
X156693000Y-112467000D01*
X155677688Y-112467000D01*
X155617007Y-112659118D01*
X155743695Y-112965001D01*
X155901465Y-113143998D01*
X155799590Y-113143998D01*
X155457169Y-112801577D01*
X155548983Y-112340000D01*
X155485507Y-112020882D01*
X155617007Y-112020882D01*
X155677688Y-112213000D01*
X156693000Y-112213000D01*
X156693000Y-111197135D01*
X156500880Y-111136995D01*
X156064801Y-111350690D01*
X155743695Y-111714999D01*
X155617007Y-112020882D01*
X155485507Y-112020882D01*
X155454243Y-111863712D01*
X155184448Y-111459935D01*
X154780671Y-111190140D01*
X154304383Y-111095400D01*
X154255617Y-111095400D01*
X153779329Y-111190140D01*
X153375552Y-111459935D01*
X153105757Y-111863712D01*
X153011017Y-112340000D01*
X153105757Y-112816288D01*
X153375552Y-113220065D01*
X153779329Y-113489860D01*
X154255617Y-113584600D01*
X154304383Y-113584600D01*
X154725285Y-113500877D01*
X154818408Y-113594000D01*
X148159592Y-113594000D01*
X147656000Y-113090408D01*
X147656000Y-112340000D01*
X147931017Y-112340000D01*
X148025757Y-112816288D01*
X148295552Y-113220065D01*
X148699329Y-113489860D01*
X149175617Y-113584600D01*
X149224383Y-113584600D01*
X149700671Y-113489860D01*
X150104448Y-113220065D01*
X150374243Y-112816288D01*
X150468983Y-112340000D01*
X150471017Y-112340000D01*
X150565757Y-112816288D01*
X150835552Y-113220065D01*
X151239329Y-113489860D01*
X151715617Y-113584600D01*
X151764383Y-113584600D01*
X152240671Y-113489860D01*
X152644448Y-113220065D01*
X152914243Y-112816288D01*
X153008983Y-112340000D01*
X152914243Y-111863712D01*
X152644448Y-111459935D01*
X152240671Y-111190140D01*
X151764383Y-111095400D01*
X151715617Y-111095400D01*
X151239329Y-111190140D01*
X150835552Y-111459935D01*
X150565757Y-111863712D01*
X150471017Y-112340000D01*
X150468983Y-112340000D01*
X150374243Y-111863712D01*
X150104448Y-111459935D01*
X149700671Y-111190140D01*
X149224383Y-111095400D01*
X149175617Y-111095400D01*
X148699329Y-111190140D01*
X148295552Y-111459935D01*
X148025757Y-111863712D01*
X147931017Y-112340000D01*
X147656000Y-112340000D01*
X147656000Y-110909592D01*
X147947936Y-110617656D01*
X147947936Y-110663600D01*
X147974503Y-110804790D01*
X148057946Y-110934465D01*
X148185266Y-111021459D01*
X148336400Y-111052064D01*
X150063600Y-111052064D01*
X150204790Y-111025497D01*
X150334465Y-110942054D01*
X150421459Y-110814734D01*
X150452064Y-110663600D01*
X150452064Y-108936400D01*
X150425497Y-108795210D01*
X150342054Y-108665535D01*
X150214734Y-108578541D01*
X150063600Y-108547936D01*
X148336400Y-108547936D01*
X148195210Y-108574503D01*
X148065535Y-108657946D01*
X147978541Y-108785266D01*
X147947936Y-108936400D01*
X147947936Y-109314302D01*
X147856362Y-109332517D01*
X147692204Y-109442204D01*
X146792204Y-110342204D01*
X146682517Y-110506362D01*
X146644000Y-110700000D01*
X146644000Y-113300000D01*
X146682517Y-113493638D01*
X146792204Y-113657796D01*
X147592204Y-114457796D01*
X147756362Y-114567483D01*
X147950000Y-114606000D01*
X173800000Y-114606000D01*
X173993638Y-114567483D01*
X174157796Y-114457796D01*
X175230596Y-113384996D01*
X175318638Y-113367483D01*
X175482796Y-113257796D01*
X175484561Y-113256031D01*
X175584865Y-113256118D01*
X175823000Y-113157723D01*
X175823000Y-114744000D01*
X124044911Y-114744000D01*
X123412555Y-114618216D01*
X122914544Y-114285456D01*
X122581784Y-113787445D01*
X122527000Y-113512028D01*
X122527000Y-113175350D01*
X123404256Y-113175350D01*
X123578014Y-113422709D01*
X124276791Y-113690285D01*
X125024775Y-113670082D01*
X125621986Y-113422709D01*
X125795744Y-113175350D01*
X124600000Y-111979605D01*
X123404256Y-113175350D01*
X122527000Y-113175350D01*
X122527000Y-111476791D01*
X122709715Y-111476791D01*
X122729918Y-112224775D01*
X122977291Y-112821986D01*
X123224650Y-112995744D01*
X124420395Y-111800000D01*
X124779605Y-111800000D01*
X125975350Y-112995744D01*
X126222709Y-112821986D01*
X126490285Y-112123209D01*
X126470082Y-111375225D01*
X126222709Y-110778014D01*
X125975350Y-110604256D01*
X124779605Y-111800000D01*
X124420395Y-111800000D01*
X123224650Y-110604256D01*
X122977291Y-110778014D01*
X122709715Y-111476791D01*
X122527000Y-111476791D01*
X122527000Y-110424650D01*
X123404256Y-110424650D01*
X124600000Y-111620395D01*
X125795744Y-110424650D01*
X125621986Y-110177291D01*
X124923209Y-109909715D01*
X124175225Y-109929918D01*
X123578014Y-110177291D01*
X123404256Y-110424650D01*
X122527000Y-110424650D01*
X122527000Y-109674096D01*
X125568234Y-109674096D01*
X125740142Y-110090146D01*
X126058180Y-110408739D01*
X126473929Y-110581373D01*
X126924096Y-110581766D01*
X127340146Y-110409858D01*
X127658739Y-110091820D01*
X127717954Y-109949214D01*
X128519000Y-109949214D01*
X128519000Y-110202750D01*
X128614250Y-110298000D01*
X129148000Y-110298000D01*
X129148000Y-109739250D01*
X129402000Y-109739250D01*
X129402000Y-110298000D01*
X129935750Y-110298000D01*
X130031000Y-110202750D01*
X130031000Y-109949214D01*
X129972996Y-109809180D01*
X129865819Y-109702004D01*
X129725785Y-109644000D01*
X129497250Y-109644000D01*
X129402000Y-109739250D01*
X129148000Y-109739250D01*
X129052750Y-109644000D01*
X128824215Y-109644000D01*
X128684181Y-109702004D01*
X128577004Y-109809180D01*
X128519000Y-109949214D01*
X127717954Y-109949214D01*
X127831373Y-109676071D01*
X127831766Y-109225904D01*
X127659858Y-108809854D01*
X127341820Y-108491261D01*
X126926071Y-108318627D01*
X126475904Y-108318234D01*
X126059854Y-108490142D01*
X125741261Y-108808180D01*
X125568627Y-109223929D01*
X125568234Y-109674096D01*
X122527000Y-109674096D01*
X122527000Y-108394277D01*
X123618830Y-108394277D01*
X123767864Y-108754966D01*
X124043583Y-109031166D01*
X124404011Y-109180829D01*
X124794277Y-109181170D01*
X125154966Y-109032136D01*
X125431166Y-108756417D01*
X125580829Y-108395989D01*
X125581170Y-108005723D01*
X125432136Y-107645034D01*
X125156417Y-107368834D01*
X124795989Y-107219171D01*
X124405723Y-107218830D01*
X124045034Y-107367864D01*
X123768834Y-107643583D01*
X123619171Y-108004011D01*
X123618830Y-108394277D01*
X122527000Y-108394277D01*
X122527000Y-103894277D01*
X123618830Y-103894277D01*
X123767864Y-104254966D01*
X124043583Y-104531166D01*
X124404011Y-104680829D01*
X124794277Y-104681170D01*
X125154966Y-104532136D01*
X125431166Y-104256417D01*
X125580829Y-103895989D01*
X125581170Y-103505723D01*
X125489086Y-103282861D01*
X126046744Y-103282861D01*
X126128715Y-103452371D01*
X126555793Y-103594691D01*
X127004824Y-103562743D01*
X127271285Y-103452371D01*
X127353256Y-103282861D01*
X126700000Y-102629605D01*
X126046744Y-103282861D01*
X125489086Y-103282861D01*
X125432136Y-103145034D01*
X125156417Y-102868834D01*
X124795989Y-102719171D01*
X124405723Y-102718830D01*
X124045034Y-102867864D01*
X123768834Y-103143583D01*
X123619171Y-103504011D01*
X123618830Y-103894277D01*
X122527000Y-103894277D01*
X122527000Y-102305793D01*
X125555309Y-102305793D01*
X125587257Y-102754824D01*
X125697629Y-103021285D01*
X125867139Y-103103256D01*
X126520395Y-102450000D01*
X126879605Y-102450000D01*
X127532861Y-103103256D01*
X127702371Y-103021285D01*
X127844691Y-102594207D01*
X127812743Y-102145176D01*
X127702371Y-101878715D01*
X127532861Y-101796744D01*
X126879605Y-102450000D01*
X126520395Y-102450000D01*
X125867139Y-101796744D01*
X125697629Y-101878715D01*
X125555309Y-102305793D01*
X122527000Y-102305793D01*
X122527000Y-101475350D01*
X123404256Y-101475350D01*
X123578014Y-101722709D01*
X124276791Y-101990285D01*
X125024775Y-101970082D01*
X125621986Y-101722709D01*
X125696143Y-101617139D01*
X126046744Y-101617139D01*
X126700000Y-102270395D01*
X127353256Y-101617139D01*
X127271285Y-101447629D01*
X126844207Y-101305309D01*
X126395176Y-101337257D01*
X126128715Y-101447629D01*
X126046744Y-101617139D01*
X125696143Y-101617139D01*
X125795744Y-101475350D01*
X124600000Y-100279605D01*
X123404256Y-101475350D01*
X122527000Y-101475350D01*
X122527000Y-99776791D01*
X122709715Y-99776791D01*
X122729918Y-100524775D01*
X122977291Y-101121986D01*
X123224650Y-101295744D01*
X124420395Y-100100000D01*
X124779605Y-100100000D01*
X125975350Y-101295744D01*
X126222709Y-101121986D01*
X126490285Y-100423209D01*
X126470082Y-99675225D01*
X126222709Y-99078014D01*
X125975350Y-98904256D01*
X124779605Y-100100000D01*
X124420395Y-100100000D01*
X123224650Y-98904256D01*
X122977291Y-99078014D01*
X122709715Y-99776791D01*
X122527000Y-99776791D01*
X122527000Y-98724650D01*
X123404256Y-98724650D01*
X124600000Y-99920395D01*
X125795744Y-98724650D01*
X125778579Y-98700214D01*
X130172500Y-98700214D01*
X130172500Y-98807750D01*
X130267750Y-98903000D01*
X130998000Y-98903000D01*
X130998000Y-98490250D01*
X131252000Y-98490250D01*
X131252000Y-98903000D01*
X131982250Y-98903000D01*
X132077500Y-98807750D01*
X132077500Y-98700214D01*
X132019496Y-98560180D01*
X131912319Y-98453004D01*
X131772285Y-98395000D01*
X131347250Y-98395000D01*
X131252000Y-98490250D01*
X130998000Y-98490250D01*
X130902750Y-98395000D01*
X130477715Y-98395000D01*
X130337681Y-98453004D01*
X130230504Y-98560180D01*
X130172500Y-98700214D01*
X125778579Y-98700214D01*
X125621986Y-98477291D01*
X124923209Y-98209715D01*
X124175225Y-98229918D01*
X123578014Y-98477291D01*
X123404256Y-98724650D01*
X122527000Y-98724650D01*
X122527000Y-98487972D01*
X122581784Y-98212555D01*
X122914544Y-97714544D01*
X123412555Y-97381784D01*
X124044911Y-97256000D01*
X144153408Y-97256000D01*
X142817204Y-98592204D01*
G36*
X161100000Y-106556000D02*
X162290408Y-106556000D01*
X163067204Y-107332796D01*
X163117803Y-107366605D01*
X162267204Y-108217204D01*
X162157517Y-108381362D01*
X162119000Y-108575000D01*
X162119000Y-111949658D01*
X162106500Y-112012500D01*
X162145017Y-112206138D01*
X162254704Y-112370296D01*
X163478408Y-113594000D01*
X158850423Y-113594000D01*
X158917483Y-113493638D01*
X158956000Y-113300000D01*
X158956000Y-109864193D01*
X159047339Y-110085252D01*
X159238741Y-110276987D01*
X159488946Y-110380882D01*
X159759865Y-110381118D01*
X160010252Y-110277661D01*
X160201987Y-110086259D01*
X160305882Y-109836054D01*
X160305970Y-109734622D01*
X160807796Y-109232796D01*
X160917483Y-109068638D01*
X160956000Y-108875000D01*
X160956000Y-106527357D01*
X161100000Y-106556000D01*
X161100000Y-106556000D01*
G37*
X161100000Y-106556000D02*
X162290408Y-106556000D01*
X163067204Y-107332796D01*
X163117803Y-107366605D01*
X162267204Y-108217204D01*
X162157517Y-108381362D01*
X162119000Y-108575000D01*
X162119000Y-111949658D01*
X162106500Y-112012500D01*
X162145017Y-112206138D01*
X162254704Y-112370296D01*
X163478408Y-113594000D01*
X158850423Y-113594000D01*
X158917483Y-113493638D01*
X158956000Y-113300000D01*
X158956000Y-109864193D01*
X159047339Y-110085252D01*
X159238741Y-110276987D01*
X159488946Y-110380882D01*
X159759865Y-110381118D01*
X160010252Y-110277661D01*
X160201987Y-110086259D01*
X160305882Y-109836054D01*
X160305970Y-109734622D01*
X160807796Y-109232796D01*
X160917483Y-109068638D01*
X160956000Y-108875000D01*
X160956000Y-106527357D01*
X161100000Y-106556000D01*
G36*
X174768969Y-110834561D02*
X174768882Y-110934865D01*
X174872339Y-111185252D01*
X175063741Y-111376987D01*
X175313946Y-111480882D01*
X175584865Y-111481118D01*
X175823000Y-111382723D01*
X175823000Y-111992507D01*
X175586054Y-111894118D01*
X175315135Y-111893882D01*
X175064748Y-111997339D01*
X174873013Y-112188741D01*
X174769118Y-112438946D01*
X174769102Y-112457413D01*
X174642204Y-112542204D01*
X173590408Y-113594000D01*
X168746592Y-113594000D01*
X169134561Y-113206031D01*
X169234865Y-113206118D01*
X169485252Y-113102661D01*
X169676987Y-112911259D01*
X169689803Y-112880395D01*
X169936536Y-113127128D01*
X169936536Y-113205000D01*
X169963103Y-113346190D01*
X170046546Y-113475865D01*
X170173866Y-113562859D01*
X170325000Y-113593464D01*
X171875000Y-113593464D01*
X172016190Y-113566897D01*
X172145865Y-113483454D01*
X172232859Y-113356134D01*
X172263464Y-113205000D01*
X172263464Y-112605000D01*
X172236897Y-112463810D01*
X172153454Y-112334135D01*
X172058813Y-112269470D01*
X172145865Y-112213454D01*
X172195371Y-112141000D01*
X173415000Y-112141000D01*
X173608638Y-112102483D01*
X173772796Y-111992796D01*
X174107796Y-111657796D01*
X174124744Y-111632432D01*
X174217483Y-111493638D01*
X174256000Y-111300000D01*
X174256000Y-110321592D01*
X174768969Y-110834561D01*
X174768969Y-110834561D01*
G37*
X174768969Y-110834561D02*
X174768882Y-110934865D01*
X174872339Y-111185252D01*
X175063741Y-111376987D01*
X175313946Y-111480882D01*
X175584865Y-111481118D01*
X175823000Y-111382723D01*
X175823000Y-111992507D01*
X175586054Y-111894118D01*
X175315135Y-111893882D01*
X175064748Y-111997339D01*
X174873013Y-112188741D01*
X174769118Y-112438946D01*
X174769102Y-112457413D01*
X174642204Y-112542204D01*
X173590408Y-113594000D01*
X168746592Y-113594000D01*
X169134561Y-113206031D01*
X169234865Y-113206118D01*
X169485252Y-113102661D01*
X169676987Y-112911259D01*
X169689803Y-112880395D01*
X169936536Y-113127128D01*
X169936536Y-113205000D01*
X169963103Y-113346190D01*
X170046546Y-113475865D01*
X170173866Y-113562859D01*
X170325000Y-113593464D01*
X171875000Y-113593464D01*
X172016190Y-113566897D01*
X172145865Y-113483454D01*
X172232859Y-113356134D01*
X172263464Y-113205000D01*
X172263464Y-112605000D01*
X172236897Y-112463810D01*
X172153454Y-112334135D01*
X172058813Y-112269470D01*
X172145865Y-112213454D01*
X172195371Y-112141000D01*
X173415000Y-112141000D01*
X173608638Y-112102483D01*
X173772796Y-111992796D01*
X174107796Y-111657796D01*
X174124744Y-111632432D01*
X174217483Y-111493638D01*
X174256000Y-111300000D01*
X174256000Y-110321592D01*
X174768969Y-110834561D01*
G36*
X168694000Y-111650000D02*
X168732517Y-111843638D01*
X168782972Y-111919150D01*
X168714748Y-111947339D01*
X168523013Y-112138741D01*
X168419118Y-112388946D01*
X168419030Y-112490378D01*
X167815408Y-113094000D01*
X167400000Y-113094000D01*
X167399008Y-113094197D01*
X167398016Y-113094004D01*
X166825001Y-113096251D01*
X166760750Y-113032000D01*
X165827000Y-113032000D01*
X165827000Y-113052000D01*
X165573000Y-113052000D01*
X165573000Y-113032000D01*
X164639250Y-113032000D01*
X164566141Y-113105109D01*
X164421270Y-113105678D01*
X163131000Y-111815408D01*
X163131000Y-110986012D01*
X163132517Y-110993638D01*
X163242204Y-111157796D01*
X164077204Y-111992796D01*
X164241362Y-112102483D01*
X164435000Y-112141000D01*
X164604807Y-112141000D01*
X164646546Y-112205865D01*
X164739561Y-112269420D01*
X164709180Y-112282004D01*
X164602004Y-112389181D01*
X164544000Y-112529215D01*
X164544000Y-112682750D01*
X164639250Y-112778000D01*
X165573000Y-112778000D01*
X165573000Y-112758000D01*
X165827000Y-112758000D01*
X165827000Y-112778000D01*
X166760750Y-112778000D01*
X166856000Y-112682750D01*
X166856000Y-112529215D01*
X166797996Y-112389181D01*
X166690820Y-112282004D01*
X166659497Y-112269030D01*
X166745865Y-112213454D01*
X166832859Y-112086134D01*
X166863464Y-111935000D01*
X166863464Y-111335000D01*
X166836897Y-111193810D01*
X166753454Y-111064135D01*
X166658813Y-110999470D01*
X166745865Y-110943454D01*
X166795371Y-110871000D01*
X168635000Y-110871000D01*
X168694000Y-110859264D01*
X168694000Y-111650000D01*
X168694000Y-111650000D01*
G37*
X168694000Y-111650000D02*
X168732517Y-111843638D01*
X168782972Y-111919150D01*
X168714748Y-111947339D01*
X168523013Y-112138741D01*
X168419118Y-112388946D01*
X168419030Y-112490378D01*
X167815408Y-113094000D01*
X167400000Y-113094000D01*
X167399008Y-113094197D01*
X167398016Y-113094004D01*
X166825001Y-113096251D01*
X166760750Y-113032000D01*
X165827000Y-113032000D01*
X165827000Y-113052000D01*
X165573000Y-113052000D01*
X165573000Y-113032000D01*
X164639250Y-113032000D01*
X164566141Y-113105109D01*
X164421270Y-113105678D01*
X163131000Y-111815408D01*
X163131000Y-110986012D01*
X163132517Y-110993638D01*
X163242204Y-111157796D01*
X164077204Y-111992796D01*
X164241362Y-112102483D01*
X164435000Y-112141000D01*
X164604807Y-112141000D01*
X164646546Y-112205865D01*
X164739561Y-112269420D01*
X164709180Y-112282004D01*
X164602004Y-112389181D01*
X164544000Y-112529215D01*
X164544000Y-112682750D01*
X164639250Y-112778000D01*
X165573000Y-112778000D01*
X165573000Y-112758000D01*
X165827000Y-112758000D01*
X165827000Y-112778000D01*
X166760750Y-112778000D01*
X166856000Y-112682750D01*
X166856000Y-112529215D01*
X166797996Y-112389181D01*
X166690820Y-112282004D01*
X166659497Y-112269030D01*
X166745865Y-112213454D01*
X166832859Y-112086134D01*
X166863464Y-111935000D01*
X166863464Y-111335000D01*
X166836897Y-111193810D01*
X166753454Y-111064135D01*
X166658813Y-110999470D01*
X166745865Y-110943454D01*
X166795371Y-110871000D01*
X168635000Y-110871000D01*
X168694000Y-110859264D01*
X168694000Y-111650000D01*
G36*
X174325000Y-108806000D02*
X174847250Y-108806000D01*
X174914250Y-108873000D01*
X175325000Y-108873000D01*
X175325000Y-108853000D01*
X175575000Y-108853000D01*
X175575000Y-108873000D01*
X175597000Y-108873000D01*
X175597000Y-109127000D01*
X175575000Y-109127000D01*
X175575000Y-109585750D01*
X175670250Y-109681000D01*
X175775785Y-109681000D01*
X175823000Y-109661443D01*
X175823000Y-110217507D01*
X175586054Y-110119118D01*
X175484622Y-110119030D01*
X174991704Y-109626112D01*
X175124215Y-109681000D01*
X175229750Y-109681000D01*
X175325000Y-109585750D01*
X175325000Y-109127000D01*
X174914250Y-109127000D01*
X174819000Y-109222250D01*
X174819000Y-109375786D01*
X174873887Y-109508295D01*
X174133500Y-108767908D01*
X174325000Y-108806000D01*
X174325000Y-108806000D01*
G37*
X174325000Y-108806000D02*
X174847250Y-108806000D01*
X174914250Y-108873000D01*
X175325000Y-108873000D01*
X175325000Y-108853000D01*
X175575000Y-108853000D01*
X175575000Y-108873000D01*
X175597000Y-108873000D01*
X175597000Y-109127000D01*
X175575000Y-109127000D01*
X175575000Y-109585750D01*
X175670250Y-109681000D01*
X175775785Y-109681000D01*
X175823000Y-109661443D01*
X175823000Y-110217507D01*
X175586054Y-110119118D01*
X175484622Y-110119030D01*
X174991704Y-109626112D01*
X175124215Y-109681000D01*
X175229750Y-109681000D01*
X175325000Y-109585750D01*
X175325000Y-109127000D01*
X174914250Y-109127000D01*
X174819000Y-109222250D01*
X174819000Y-109375786D01*
X174873887Y-109508295D01*
X174133500Y-108767908D01*
X174325000Y-108806000D01*
G36*
X158794000Y-105250000D02*
X158832517Y-105443638D01*
X158942204Y-105607796D01*
X159092204Y-105757796D01*
X159256362Y-105867483D01*
X159450000Y-105906000D01*
X159861981Y-105906000D01*
X159871546Y-105920865D01*
X159944000Y-105970371D01*
X159944000Y-108665408D01*
X159590439Y-109018969D01*
X159490135Y-109018882D01*
X159239748Y-109122339D01*
X159048013Y-109313741D01*
X158956000Y-109535331D01*
X158956000Y-108000000D01*
X158917483Y-107806362D01*
X158807796Y-107642204D01*
X158732454Y-107591862D01*
X158432796Y-107292204D01*
X158268638Y-107182517D01*
X158075000Y-107144000D01*
X156259592Y-107144000D01*
X154781031Y-105665439D01*
X154781118Y-105565135D01*
X154677661Y-105314748D01*
X154486259Y-105123013D01*
X154236054Y-105019118D01*
X154196508Y-105019084D01*
X154934561Y-104281031D01*
X155034865Y-104281118D01*
X155285252Y-104177661D01*
X155476987Y-103986259D01*
X155580882Y-103736054D01*
X155581118Y-103465135D01*
X155556684Y-103406000D01*
X158500000Y-103406000D01*
X158693638Y-103367483D01*
X158794000Y-103300423D01*
X158794000Y-105250000D01*
X158794000Y-105250000D01*
G37*
X158794000Y-105250000D02*
X158832517Y-105443638D01*
X158942204Y-105607796D01*
X159092204Y-105757796D01*
X159256362Y-105867483D01*
X159450000Y-105906000D01*
X159861981Y-105906000D01*
X159871546Y-105920865D01*
X159944000Y-105970371D01*
X159944000Y-108665408D01*
X159590439Y-109018969D01*
X159490135Y-109018882D01*
X159239748Y-109122339D01*
X159048013Y-109313741D01*
X158956000Y-109535331D01*
X158956000Y-108000000D01*
X158917483Y-107806362D01*
X158807796Y-107642204D01*
X158732454Y-107591862D01*
X158432796Y-107292204D01*
X158268638Y-107182517D01*
X158075000Y-107144000D01*
X156259592Y-107144000D01*
X154781031Y-105665439D01*
X154781118Y-105565135D01*
X154677661Y-105314748D01*
X154486259Y-105123013D01*
X154236054Y-105019118D01*
X154196508Y-105019084D01*
X154934561Y-104281031D01*
X155034865Y-104281118D01*
X155285252Y-104177661D01*
X155476987Y-103986259D01*
X155580882Y-103736054D01*
X155581118Y-103465135D01*
X155556684Y-103406000D01*
X158500000Y-103406000D01*
X158693638Y-103367483D01*
X158794000Y-103300423D01*
X158794000Y-105250000D01*
G36*
X174327000Y-106273000D02*
X174347000Y-106273000D01*
X174347000Y-106527000D01*
X174327000Y-106527000D01*
X174327000Y-107235750D01*
X174422250Y-107331000D01*
X174675786Y-107331000D01*
X174742370Y-107303420D01*
X174748866Y-107307859D01*
X174900000Y-107338464D01*
X174917575Y-107338464D01*
X174842141Y-107448866D01*
X174811536Y-107600000D01*
X174811536Y-107794000D01*
X174609592Y-107794000D01*
X174062171Y-107246579D01*
X174073000Y-107235750D01*
X174073000Y-106527000D01*
X174053000Y-106527000D01*
X174053000Y-106273000D01*
X174073000Y-106273000D01*
X174073000Y-106253000D01*
X174327000Y-106253000D01*
X174327000Y-106273000D01*
X174327000Y-106273000D01*
G37*
X174327000Y-106273000D02*
X174347000Y-106273000D01*
X174347000Y-106527000D01*
X174327000Y-106527000D01*
X174327000Y-107235750D01*
X174422250Y-107331000D01*
X174675786Y-107331000D01*
X174742370Y-107303420D01*
X174748866Y-107307859D01*
X174900000Y-107338464D01*
X174917575Y-107338464D01*
X174842141Y-107448866D01*
X174811536Y-107600000D01*
X174811536Y-107794000D01*
X174609592Y-107794000D01*
X174062171Y-107246579D01*
X174073000Y-107235750D01*
X174073000Y-106527000D01*
X174053000Y-106527000D01*
X174053000Y-106273000D01*
X174073000Y-106273000D01*
X174073000Y-106253000D01*
X174327000Y-106253000D01*
X174327000Y-106273000D01*
G36*
X173750000Y-101731000D02*
X174409557Y-101731000D01*
X174448866Y-101757859D01*
X174600000Y-101788464D01*
X175823000Y-101788464D01*
X175823000Y-102909267D01*
X175725786Y-102869000D01*
X175572250Y-102869000D01*
X175477000Y-102964250D01*
X175477000Y-103375000D01*
X175497000Y-103375000D01*
X175497000Y-103625000D01*
X175477000Y-103625000D01*
X175477000Y-104014250D01*
X175427000Y-104064250D01*
X175427000Y-104773000D01*
X175447000Y-104773000D01*
X175447000Y-105027000D01*
X175427000Y-105027000D01*
X175427000Y-105047000D01*
X175173000Y-105047000D01*
X175173000Y-105027000D01*
X175153000Y-105027000D01*
X175153000Y-104773000D01*
X175173000Y-104773000D01*
X175173000Y-104085750D01*
X175223000Y-104035750D01*
X175223000Y-103625000D01*
X175203000Y-103625000D01*
X175203000Y-103375000D01*
X175223000Y-103375000D01*
X175223000Y-102964250D01*
X175127750Y-102869000D01*
X174974214Y-102869000D01*
X174834180Y-102927004D01*
X174800886Y-102960298D01*
X174701134Y-102892141D01*
X174550000Y-102861536D01*
X173950000Y-102861536D01*
X173808810Y-102888103D01*
X173679135Y-102971546D01*
X173592141Y-103098866D01*
X173567004Y-103222998D01*
X173485752Y-103222998D01*
X173581000Y-103127750D01*
X173581000Y-102974214D01*
X173522996Y-102834180D01*
X173489702Y-102800886D01*
X173557859Y-102701134D01*
X173588464Y-102550000D01*
X173588464Y-101950000D01*
X173561897Y-101808810D01*
X173478454Y-101679135D01*
X173474018Y-101676104D01*
X173750000Y-101731000D01*
X173750000Y-101731000D01*
G37*
X173750000Y-101731000D02*
X174409557Y-101731000D01*
X174448866Y-101757859D01*
X174600000Y-101788464D01*
X175823000Y-101788464D01*
X175823000Y-102909267D01*
X175725786Y-102869000D01*
X175572250Y-102869000D01*
X175477000Y-102964250D01*
X175477000Y-103375000D01*
X175497000Y-103375000D01*
X175497000Y-103625000D01*
X175477000Y-103625000D01*
X175477000Y-104014250D01*
X175427000Y-104064250D01*
X175427000Y-104773000D01*
X175447000Y-104773000D01*
X175447000Y-105027000D01*
X175427000Y-105027000D01*
X175427000Y-105047000D01*
X175173000Y-105047000D01*
X175173000Y-105027000D01*
X175153000Y-105027000D01*
X175153000Y-104773000D01*
X175173000Y-104773000D01*
X175173000Y-104085750D01*
X175223000Y-104035750D01*
X175223000Y-103625000D01*
X175203000Y-103625000D01*
X175203000Y-103375000D01*
X175223000Y-103375000D01*
X175223000Y-102964250D01*
X175127750Y-102869000D01*
X174974214Y-102869000D01*
X174834180Y-102927004D01*
X174800886Y-102960298D01*
X174701134Y-102892141D01*
X174550000Y-102861536D01*
X173950000Y-102861536D01*
X173808810Y-102888103D01*
X173679135Y-102971546D01*
X173592141Y-103098866D01*
X173567004Y-103222998D01*
X173485752Y-103222998D01*
X173581000Y-103127750D01*
X173581000Y-102974214D01*
X173522996Y-102834180D01*
X173489702Y-102800886D01*
X173557859Y-102701134D01*
X173588464Y-102550000D01*
X173588464Y-101950000D01*
X173561897Y-101808810D01*
X173478454Y-101679135D01*
X173474018Y-101676104D01*
X173750000Y-101731000D01*
G36*
X160577000Y-103875000D02*
X160597000Y-103875000D01*
X160597000Y-104125000D01*
X160577000Y-104125000D01*
X160577000Y-104535750D01*
X160672250Y-104631000D01*
X160825786Y-104631000D01*
X160965820Y-104572996D01*
X160999114Y-104539702D01*
X161098866Y-104607859D01*
X161250000Y-104638464D01*
X161595944Y-104638464D01*
X161472872Y-104761536D01*
X161250000Y-104761536D01*
X161108810Y-104788103D01*
X160998814Y-104858883D01*
X160901134Y-104792141D01*
X160750000Y-104761536D01*
X160150000Y-104761536D01*
X160008810Y-104788103D01*
X159879135Y-104871546D01*
X159863793Y-104894000D01*
X159806000Y-104894000D01*
X159806000Y-104415111D01*
X159827004Y-104465819D01*
X159934180Y-104572996D01*
X160074214Y-104631000D01*
X160227750Y-104631000D01*
X160323000Y-104535750D01*
X160323000Y-104125000D01*
X160303000Y-104125000D01*
X160303000Y-103875000D01*
X160323000Y-103875000D01*
X160323000Y-103853000D01*
X160577000Y-103853000D01*
X160577000Y-103875000D01*
X160577000Y-103875000D01*
G37*
X160577000Y-103875000D02*
X160597000Y-103875000D01*
X160597000Y-104125000D01*
X160577000Y-104125000D01*
X160577000Y-104535750D01*
X160672250Y-104631000D01*
X160825786Y-104631000D01*
X160965820Y-104572996D01*
X160999114Y-104539702D01*
X161098866Y-104607859D01*
X161250000Y-104638464D01*
X161595944Y-104638464D01*
X161472872Y-104761536D01*
X161250000Y-104761536D01*
X161108810Y-104788103D01*
X160998814Y-104858883D01*
X160901134Y-104792141D01*
X160750000Y-104761536D01*
X160150000Y-104761536D01*
X160008810Y-104788103D01*
X159879135Y-104871546D01*
X159863793Y-104894000D01*
X159806000Y-104894000D01*
X159806000Y-104415111D01*
X159827004Y-104465819D01*
X159934180Y-104572996D01*
X160074214Y-104631000D01*
X160227750Y-104631000D01*
X160323000Y-104535750D01*
X160323000Y-104125000D01*
X160303000Y-104125000D01*
X160303000Y-103875000D01*
X160323000Y-103875000D01*
X160323000Y-103853000D01*
X160577000Y-103853000D01*
X160577000Y-103875000D01*
G36*
X167864500Y-102810500D02*
X169335500Y-102810500D01*
X169335500Y-102790500D01*
X169589500Y-102790500D01*
X169589500Y-102810500D01*
X169609500Y-102810500D01*
X169609500Y-103064500D01*
X169589500Y-103064500D01*
X169589500Y-104535500D01*
X169609500Y-104535500D01*
X169609500Y-104789500D01*
X169589500Y-104789500D01*
X169589500Y-104809500D01*
X169335500Y-104809500D01*
X169335500Y-104789500D01*
X167864500Y-104789500D01*
X167864500Y-104809500D01*
X167610500Y-104809500D01*
X167610500Y-104789500D01*
X167590500Y-104789500D01*
X167590500Y-104535500D01*
X167610500Y-104535500D01*
X167610500Y-103064500D01*
X167864500Y-103064500D01*
X167864500Y-104535500D01*
X169335500Y-104535500D01*
X169335500Y-103064500D01*
X167864500Y-103064500D01*
X167610500Y-103064500D01*
X167590500Y-103064500D01*
X167590500Y-102810500D01*
X167610500Y-102810500D01*
X167610500Y-102790500D01*
X167864500Y-102790500D01*
X167864500Y-102810500D01*
X167864500Y-102810500D01*
G37*
X167864500Y-102810500D02*
X169335500Y-102810500D01*
X169335500Y-102790500D01*
X169589500Y-102790500D01*
X169589500Y-102810500D01*
X169609500Y-102810500D01*
X169609500Y-103064500D01*
X169589500Y-103064500D01*
X169589500Y-104535500D01*
X169609500Y-104535500D01*
X169609500Y-104789500D01*
X169589500Y-104789500D01*
X169589500Y-104809500D01*
X169335500Y-104809500D01*
X169335500Y-104789500D01*
X167864500Y-104789500D01*
X167864500Y-104809500D01*
X167610500Y-104809500D01*
X167610500Y-104789500D01*
X167590500Y-104789500D01*
X167590500Y-104535500D01*
X167610500Y-104535500D01*
X167610500Y-103064500D01*
X167864500Y-103064500D01*
X167864500Y-104535500D01*
X169335500Y-104535500D01*
X169335500Y-103064500D01*
X167864500Y-103064500D01*
X167610500Y-103064500D01*
X167590500Y-103064500D01*
X167590500Y-102810500D01*
X167610500Y-102810500D01*
X167610500Y-102790500D01*
X167864500Y-102790500D01*
X167864500Y-102810500D01*
G36*
X173075000Y-103223000D02*
X173097000Y-103223000D01*
X173097000Y-103477000D01*
X173075000Y-103477000D01*
X173075000Y-103497000D01*
X172825000Y-103497000D01*
X172825000Y-103477000D01*
X172803000Y-103477000D01*
X172803000Y-103223000D01*
X172825000Y-103223000D01*
X172825000Y-103203000D01*
X173075000Y-103203000D01*
X173075000Y-103223000D01*
X173075000Y-103223000D01*
G37*
X173075000Y-103223000D02*
X173097000Y-103223000D01*
X173097000Y-103477000D01*
X173075000Y-103477000D01*
X173075000Y-103497000D01*
X172825000Y-103497000D01*
X172825000Y-103477000D01*
X172803000Y-103477000D01*
X172803000Y-103223000D01*
X172825000Y-103223000D01*
X172825000Y-103203000D01*
X173075000Y-103203000D01*
X173075000Y-103223000D01*
G36*
X159040406Y-100844000D02*
X157644600Y-100844000D01*
X157644600Y-100022250D01*
X157549350Y-99927000D01*
X156527000Y-99927000D01*
X156527000Y-99947000D01*
X156273000Y-99947000D01*
X156273000Y-99927000D01*
X155250650Y-99927000D01*
X155155400Y-100022250D01*
X155155400Y-100844000D01*
X155000000Y-100844000D01*
X154806362Y-100882517D01*
X154642204Y-100992204D01*
X154165439Y-101468969D01*
X154065135Y-101468882D01*
X153814748Y-101572339D01*
X153623013Y-101763741D01*
X153519118Y-102013946D01*
X153518882Y-102284865D01*
X153563975Y-102394000D01*
X151621592Y-102394000D01*
X151677796Y-102337796D01*
X151787483Y-102173638D01*
X151826000Y-101980000D01*
X151826000Y-101109776D01*
X152200065Y-100859834D01*
X152469860Y-100456057D01*
X152564600Y-99979769D01*
X152564600Y-99620231D01*
X152615400Y-99620231D01*
X152615400Y-99979769D01*
X152710140Y-100456057D01*
X152979935Y-100859834D01*
X153383712Y-101129629D01*
X153860000Y-101224369D01*
X154336288Y-101129629D01*
X154740065Y-100859834D01*
X155009860Y-100456057D01*
X155104600Y-99979769D01*
X155104600Y-99620231D01*
X155009860Y-99143943D01*
X154740065Y-98740166D01*
X154692247Y-98708215D01*
X155155400Y-98708215D01*
X155155400Y-99577750D01*
X155250650Y-99673000D01*
X156273000Y-99673000D01*
X156273000Y-98498250D01*
X156527000Y-98498250D01*
X156527000Y-99673000D01*
X157549350Y-99673000D01*
X157644600Y-99577750D01*
X157644600Y-98708215D01*
X157586596Y-98568181D01*
X157479420Y-98461004D01*
X157339386Y-98403000D01*
X156622250Y-98403000D01*
X156527000Y-98498250D01*
X156273000Y-98498250D01*
X156177750Y-98403000D01*
X155460614Y-98403000D01*
X155320580Y-98461004D01*
X155213404Y-98568181D01*
X155155400Y-98708215D01*
X154692247Y-98708215D01*
X154336288Y-98470371D01*
X153860000Y-98375631D01*
X153383712Y-98470371D01*
X152979935Y-98740166D01*
X152710140Y-99143943D01*
X152615400Y-99620231D01*
X152564600Y-99620231D01*
X152469860Y-99143943D01*
X152200065Y-98740166D01*
X151826000Y-98490224D01*
X151826000Y-98320000D01*
X151787483Y-98126362D01*
X151677796Y-97962204D01*
X150971592Y-97256000D01*
X162628406Y-97256000D01*
X159040406Y-100844000D01*
X159040406Y-100844000D01*
G37*
X159040406Y-100844000D02*
X157644600Y-100844000D01*
X157644600Y-100022250D01*
X157549350Y-99927000D01*
X156527000Y-99927000D01*
X156527000Y-99947000D01*
X156273000Y-99947000D01*
X156273000Y-99927000D01*
X155250650Y-99927000D01*
X155155400Y-100022250D01*
X155155400Y-100844000D01*
X155000000Y-100844000D01*
X154806362Y-100882517D01*
X154642204Y-100992204D01*
X154165439Y-101468969D01*
X154065135Y-101468882D01*
X153814748Y-101572339D01*
X153623013Y-101763741D01*
X153519118Y-102013946D01*
X153518882Y-102284865D01*
X153563975Y-102394000D01*
X151621592Y-102394000D01*
X151677796Y-102337796D01*
X151787483Y-102173638D01*
X151826000Y-101980000D01*
X151826000Y-101109776D01*
X152200065Y-100859834D01*
X152469860Y-100456057D01*
X152564600Y-99979769D01*
X152564600Y-99620231D01*
X152615400Y-99620231D01*
X152615400Y-99979769D01*
X152710140Y-100456057D01*
X152979935Y-100859834D01*
X153383712Y-101129629D01*
X153860000Y-101224369D01*
X154336288Y-101129629D01*
X154740065Y-100859834D01*
X155009860Y-100456057D01*
X155104600Y-99979769D01*
X155104600Y-99620231D01*
X155009860Y-99143943D01*
X154740065Y-98740166D01*
X154692247Y-98708215D01*
X155155400Y-98708215D01*
X155155400Y-99577750D01*
X155250650Y-99673000D01*
X156273000Y-99673000D01*
X156273000Y-98498250D01*
X156527000Y-98498250D01*
X156527000Y-99673000D01*
X157549350Y-99673000D01*
X157644600Y-99577750D01*
X157644600Y-98708215D01*
X157586596Y-98568181D01*
X157479420Y-98461004D01*
X157339386Y-98403000D01*
X156622250Y-98403000D01*
X156527000Y-98498250D01*
X156273000Y-98498250D01*
X156177750Y-98403000D01*
X155460614Y-98403000D01*
X155320580Y-98461004D01*
X155213404Y-98568181D01*
X155155400Y-98708215D01*
X154692247Y-98708215D01*
X154336288Y-98470371D01*
X153860000Y-98375631D01*
X153383712Y-98470371D01*
X152979935Y-98740166D01*
X152710140Y-99143943D01*
X152615400Y-99620231D01*
X152564600Y-99620231D01*
X152469860Y-99143943D01*
X152200065Y-98740166D01*
X151826000Y-98490224D01*
X151826000Y-98320000D01*
X151787483Y-98126362D01*
X151677796Y-97962204D01*
X150971592Y-97256000D01*
X162628406Y-97256000D01*
X159040406Y-100844000D01*
G36*
X175823000Y-100311536D02*
X174788843Y-100311536D01*
X174593181Y-100272616D01*
X174607859Y-100251134D01*
X174638464Y-100100000D01*
X174638464Y-99500000D01*
X174611897Y-99358810D01*
X174540680Y-99248135D01*
X174572996Y-99215820D01*
X174631000Y-99075786D01*
X174631000Y-98922250D01*
X174535750Y-98827000D01*
X174125000Y-98827000D01*
X174125000Y-98847000D01*
X173875000Y-98847000D01*
X173875000Y-98827000D01*
X173464250Y-98827000D01*
X173369000Y-98922250D01*
X173369000Y-99075786D01*
X173427004Y-99215820D01*
X173460298Y-99249114D01*
X173392141Y-99348866D01*
X173361536Y-99500000D01*
X173361536Y-100100000D01*
X173388103Y-100241190D01*
X173450359Y-100337940D01*
X173401343Y-100370691D01*
X173308810Y-100388103D01*
X173198814Y-100458883D01*
X173101134Y-100392141D01*
X172950000Y-100361536D01*
X172932425Y-100361536D01*
X173007859Y-100251134D01*
X173038464Y-100100000D01*
X173038464Y-99500000D01*
X173011897Y-99358810D01*
X172940680Y-99248135D01*
X172972996Y-99215820D01*
X173031000Y-99075786D01*
X173031000Y-98922250D01*
X172935750Y-98827000D01*
X172525000Y-98827000D01*
X172525000Y-98847000D01*
X172275000Y-98847000D01*
X172275000Y-98827000D01*
X171864250Y-98827000D01*
X171769000Y-98922250D01*
X171769000Y-99075786D01*
X171827004Y-99215820D01*
X171860298Y-99249114D01*
X171792141Y-99348866D01*
X171761536Y-99500000D01*
X171761536Y-100100000D01*
X171788103Y-100241190D01*
X171871546Y-100370865D01*
X171894000Y-100386207D01*
X171894000Y-100494000D01*
X171809592Y-100494000D01*
X171557796Y-100242204D01*
X171393638Y-100132517D01*
X171200000Y-100094000D01*
X170671592Y-100094000D01*
X171007796Y-99757796D01*
X171117483Y-99593638D01*
X171156000Y-99400000D01*
X171156000Y-98324214D01*
X171769000Y-98324214D01*
X171769000Y-98477750D01*
X171864250Y-98573000D01*
X172275000Y-98573000D01*
X172275000Y-98114250D01*
X172525000Y-98114250D01*
X172525000Y-98573000D01*
X172935750Y-98573000D01*
X173031000Y-98477750D01*
X173031000Y-98324214D01*
X173369000Y-98324214D01*
X173369000Y-98477750D01*
X173464250Y-98573000D01*
X173875000Y-98573000D01*
X173875000Y-98114250D01*
X174125000Y-98114250D01*
X174125000Y-98573000D01*
X174535750Y-98573000D01*
X174631000Y-98477750D01*
X174631000Y-98324214D01*
X174572996Y-98184180D01*
X174465819Y-98077004D01*
X174325785Y-98019000D01*
X174220250Y-98019000D01*
X174125000Y-98114250D01*
X173875000Y-98114250D01*
X173779750Y-98019000D01*
X173674215Y-98019000D01*
X173534181Y-98077004D01*
X173427004Y-98184180D01*
X173369000Y-98324214D01*
X173031000Y-98324214D01*
X172972996Y-98184180D01*
X172865819Y-98077004D01*
X172725785Y-98019000D01*
X172620250Y-98019000D01*
X172525000Y-98114250D01*
X172275000Y-98114250D01*
X172179750Y-98019000D01*
X172074215Y-98019000D01*
X171934181Y-98077004D01*
X171827004Y-98184180D01*
X171769000Y-98324214D01*
X171156000Y-98324214D01*
X171156000Y-98000000D01*
X171117483Y-97806362D01*
X171007796Y-97642204D01*
X170621592Y-97256000D01*
X175823000Y-97256000D01*
X175823000Y-100311536D01*
X175823000Y-100311536D01*
G37*
X175823000Y-100311536D02*
X174788843Y-100311536D01*
X174593181Y-100272616D01*
X174607859Y-100251134D01*
X174638464Y-100100000D01*
X174638464Y-99500000D01*
X174611897Y-99358810D01*
X174540680Y-99248135D01*
X174572996Y-99215820D01*
X174631000Y-99075786D01*
X174631000Y-98922250D01*
X174535750Y-98827000D01*
X174125000Y-98827000D01*
X174125000Y-98847000D01*
X173875000Y-98847000D01*
X173875000Y-98827000D01*
X173464250Y-98827000D01*
X173369000Y-98922250D01*
X173369000Y-99075786D01*
X173427004Y-99215820D01*
X173460298Y-99249114D01*
X173392141Y-99348866D01*
X173361536Y-99500000D01*
X173361536Y-100100000D01*
X173388103Y-100241190D01*
X173450359Y-100337940D01*
X173401343Y-100370691D01*
X173308810Y-100388103D01*
X173198814Y-100458883D01*
X173101134Y-100392141D01*
X172950000Y-100361536D01*
X172932425Y-100361536D01*
X173007859Y-100251134D01*
X173038464Y-100100000D01*
X173038464Y-99500000D01*
X173011897Y-99358810D01*
X172940680Y-99248135D01*
X172972996Y-99215820D01*
X173031000Y-99075786D01*
X173031000Y-98922250D01*
X172935750Y-98827000D01*
X172525000Y-98827000D01*
X172525000Y-98847000D01*
X172275000Y-98847000D01*
X172275000Y-98827000D01*
X171864250Y-98827000D01*
X171769000Y-98922250D01*
X171769000Y-99075786D01*
X171827004Y-99215820D01*
X171860298Y-99249114D01*
X171792141Y-99348866D01*
X171761536Y-99500000D01*
X171761536Y-100100000D01*
X171788103Y-100241190D01*
X171871546Y-100370865D01*
X171894000Y-100386207D01*
X171894000Y-100494000D01*
X171809592Y-100494000D01*
X171557796Y-100242204D01*
X171393638Y-100132517D01*
X171200000Y-100094000D01*
X170671592Y-100094000D01*
X171007796Y-99757796D01*
X171117483Y-99593638D01*
X171156000Y-99400000D01*
X171156000Y-98324214D01*
X171769000Y-98324214D01*
X171769000Y-98477750D01*
X171864250Y-98573000D01*
X172275000Y-98573000D01*
X172275000Y-98114250D01*
X172525000Y-98114250D01*
X172525000Y-98573000D01*
X172935750Y-98573000D01*
X173031000Y-98477750D01*
X173031000Y-98324214D01*
X173369000Y-98324214D01*
X173369000Y-98477750D01*
X173464250Y-98573000D01*
X173875000Y-98573000D01*
X173875000Y-98114250D01*
X174125000Y-98114250D01*
X174125000Y-98573000D01*
X174535750Y-98573000D01*
X174631000Y-98477750D01*
X174631000Y-98324214D01*
X174572996Y-98184180D01*
X174465819Y-98077004D01*
X174325785Y-98019000D01*
X174220250Y-98019000D01*
X174125000Y-98114250D01*
X173875000Y-98114250D01*
X173779750Y-98019000D01*
X173674215Y-98019000D01*
X173534181Y-98077004D01*
X173427004Y-98184180D01*
X173369000Y-98324214D01*
X173031000Y-98324214D01*
X172972996Y-98184180D01*
X172865819Y-98077004D01*
X172725785Y-98019000D01*
X172620250Y-98019000D01*
X172525000Y-98114250D01*
X172275000Y-98114250D01*
X172179750Y-98019000D01*
X172074215Y-98019000D01*
X171934181Y-98077004D01*
X171827004Y-98184180D01*
X171769000Y-98324214D01*
X171156000Y-98324214D01*
X171156000Y-98000000D01*
X171117483Y-97806362D01*
X171007796Y-97642204D01*
X170621592Y-97256000D01*
X175823000Y-97256000D01*
X175823000Y-100311536D01*
G36*
X169778408Y-97844000D02*
X169772250Y-97844000D01*
X169677000Y-97939250D01*
X169677000Y-98723000D01*
X169697000Y-98723000D01*
X169697000Y-98977000D01*
X169677000Y-98977000D01*
X169677000Y-98997000D01*
X169423000Y-98997000D01*
X169423000Y-98977000D01*
X169403000Y-98977000D01*
X169403000Y-98723000D01*
X169423000Y-98723000D01*
X169423000Y-97939250D01*
X169327750Y-97844000D01*
X168974214Y-97844000D01*
X168947095Y-97855233D01*
X168927357Y-97756000D01*
X169690408Y-97756000D01*
X169778408Y-97844000D01*
X169778408Y-97844000D01*
G37*
X169778408Y-97844000D02*
X169772250Y-97844000D01*
X169677000Y-97939250D01*
X169677000Y-98723000D01*
X169697000Y-98723000D01*
X169697000Y-98977000D01*
X169677000Y-98977000D01*
X169677000Y-98997000D01*
X169423000Y-98997000D01*
X169423000Y-98977000D01*
X169403000Y-98977000D01*
X169403000Y-98723000D01*
X169423000Y-98723000D01*
X169423000Y-97939250D01*
X169327750Y-97844000D01*
X168974214Y-97844000D01*
X168947095Y-97855233D01*
X168927357Y-97756000D01*
X169690408Y-97756000D01*
X169778408Y-97844000D01*
M02*
