G04 #@! TF.FileFunction,Soldermask,Top*
%FSLAX46Y46*%
G04 Gerber Fmt 4.6, Leading zero omitted, Abs format (unit mm)*
G04 Created by KiCad (PCBNEW (2015-11-24 BZR 6329)-product) date Thu 30 Jun 2016 09:23:37 AM EDT*
%MOMM*%
G01*
G04 APERTURE LIST*
%ADD10C,0.100000*%
%ADD11C,2.600000*%
%ADD12C,1.901140*%
%ADD13C,3.399740*%
%ADD14C,1.600000*%
%ADD15R,1.300000X1.600000*%
%ADD16R,2.432000X2.432000*%
%ADD17O,2.432000X2.432000*%
%ADD18R,1.400000X3.400000*%
%ADD19R,1.000000X1.400760*%
%ADD20R,4.400000X1.100000*%
%ADD21R,1.100000X2.400000*%
%ADD22R,8.400000X1.100000*%
%ADD23R,1.100000X1.900000*%
%ADD24R,1.100000X4.400000*%
%ADD25R,1.100000X7.400000*%
%ADD26R,1.000000X0.900000*%
%ADD27R,0.900000X1.000000*%
%ADD28R,1.400000X1.650000*%
%ADD29R,0.650000X1.100000*%
%ADD30R,1.100000X0.650000*%
%ADD31R,2.125000X2.125000*%
%ADD32R,1.950000X1.000000*%
%ADD33R,1.200000X1.500000*%
%ADD34R,2.127200X2.127200*%
%ADD35O,2.127200X2.127200*%
%ADD36R,2.127200X2.432000*%
%ADD37O,2.127200X2.432000*%
%ADD38R,1.650000X1.400000*%
%ADD39R,1.543000X0.908000*%
%ADD40C,1.822400*%
%ADD41R,1.150000X1.200000*%
%ADD42R,0.900000X1.300000*%
G04 APERTURE END LIST*
D10*
D11*
X179000000Y-98500000D03*
X179000000Y-113500000D03*
X127500000Y-113500000D03*
X127500000Y-98500000D03*
D12*
X126700000Y-102450000D03*
X126700000Y-104950000D03*
X126700000Y-106960000D03*
X126700000Y-109450000D03*
D13*
X124600000Y-100100000D03*
X124600000Y-111800000D03*
D14*
X124600000Y-103700000D03*
X124600000Y-108200000D03*
D15*
X145000000Y-102900000D03*
X145000000Y-100700000D03*
X150400000Y-102900000D03*
X150400000Y-105100000D03*
D16*
X140525000Y-106675000D03*
D17*
X140525000Y-104135000D03*
D18*
X146600000Y-99600000D03*
X148600000Y-99600000D03*
D19*
X146650040Y-105100480D03*
X147600000Y-105100480D03*
X148549960Y-105100480D03*
X148549960Y-102300000D03*
X146650040Y-102300000D03*
D20*
X180540000Y-109600000D03*
D21*
X178890000Y-108800000D03*
X182190000Y-107350000D03*
D20*
X180540000Y-108100000D03*
D21*
X178890000Y-105900000D03*
D20*
X180540000Y-106600000D03*
D21*
X182190000Y-104400000D03*
D20*
X180540000Y-105100000D03*
D21*
X178890000Y-103000000D03*
D22*
X178540000Y-100650000D03*
D20*
X180540000Y-102100000D03*
D23*
X182190000Y-101450000D03*
D20*
X180540000Y-103650000D03*
D24*
X182190000Y-111250000D03*
D25*
X176540000Y-104500000D03*
D26*
X172650000Y-100640000D03*
X173750000Y-100640000D03*
X174250000Y-103500000D03*
X175350000Y-103500000D03*
D27*
X175450000Y-107900000D03*
X175450000Y-109000000D03*
D28*
X169610000Y-98790000D03*
X167610000Y-98790000D03*
D27*
X174000000Y-99800000D03*
X174000000Y-98700000D03*
X172400000Y-99800000D03*
X172400000Y-98700000D03*
D26*
X160450000Y-102600000D03*
X161550000Y-102600000D03*
X175360000Y-102240000D03*
X174260000Y-102240000D03*
X161550000Y-104000000D03*
X160450000Y-104000000D03*
X161550000Y-105400000D03*
X160450000Y-105400000D03*
D29*
X170350000Y-101400000D03*
X169850000Y-101400000D03*
X169350000Y-101400000D03*
X168850000Y-101400000D03*
X168350000Y-101400000D03*
X167850000Y-101400000D03*
X167350000Y-101400000D03*
X166850000Y-101400000D03*
D30*
X166200000Y-102050000D03*
X166200000Y-102550000D03*
X166200000Y-103050000D03*
X166200000Y-103550000D03*
X166200000Y-104050000D03*
X166200000Y-104550000D03*
X166200000Y-105050000D03*
X166200000Y-105550000D03*
D29*
X166850000Y-106200000D03*
X167350000Y-106200000D03*
X167850000Y-106200000D03*
X168350000Y-106200000D03*
X168850000Y-106200000D03*
X169350000Y-106200000D03*
X169850000Y-106200000D03*
X170350000Y-106200000D03*
D30*
X171000000Y-105550000D03*
X171000000Y-105050000D03*
X171000000Y-104550000D03*
X171000000Y-104050000D03*
X171000000Y-103550000D03*
X171000000Y-103050000D03*
X171000000Y-102550000D03*
X171000000Y-102050000D03*
D31*
X167737500Y-104662500D03*
X169462500Y-104662500D03*
X167737500Y-102937500D03*
X169462500Y-102937500D03*
D32*
X165700000Y-109095000D03*
X165700000Y-110365000D03*
X165700000Y-111635000D03*
X165700000Y-112905000D03*
X171100000Y-112905000D03*
X171100000Y-111635000D03*
X171100000Y-110365000D03*
X171100000Y-109095000D03*
D33*
X174200000Y-104900000D03*
X175300000Y-104900000D03*
X174200000Y-106400000D03*
X175300000Y-106400000D03*
D34*
X148500000Y-109800000D03*
D35*
X148500000Y-112340000D03*
X151040000Y-109800000D03*
X151040000Y-112340000D03*
X153580000Y-109800000D03*
X153580000Y-112340000D03*
X156120000Y-109800000D03*
X156120000Y-112340000D03*
D36*
X156400000Y-99800000D03*
D37*
X153860000Y-99800000D03*
X151320000Y-99800000D03*
D38*
X140275000Y-99025000D03*
X140275000Y-101025000D03*
D39*
X137475000Y-99030000D03*
X137475000Y-101570000D03*
X137475000Y-102840000D03*
X137475000Y-104110000D03*
X137475000Y-105380000D03*
X137475000Y-106650000D03*
X137475000Y-107920000D03*
X131125000Y-107920000D03*
X131125000Y-106650000D03*
X131125000Y-105380000D03*
X131125000Y-104110000D03*
X131125000Y-102840000D03*
X131125000Y-101570000D03*
X131125000Y-100300000D03*
X131125000Y-99030000D03*
X137475000Y-100300000D03*
D40*
X138800000Y-111950000D03*
X133720000Y-111950000D03*
D41*
X143150000Y-111925000D03*
X143150000Y-110425000D03*
X129275000Y-111925000D03*
X129275000Y-110425000D03*
D42*
X163310000Y-109474000D03*
X161810000Y-109474000D03*
D28*
X160798000Y-110744000D03*
X162798000Y-110744000D03*
M02*
