G04 #@! TF.FileFunction,Legend,Top*
%FSLAX46Y46*%
G04 Gerber Fmt 4.6, Leading zero omitted, Abs format (unit mm)*
G04 Created by KiCad (PCBNEW (2015-11-24 BZR 6329)-product) date Sun 08 May 2016 02:02:47 AM EDT*
%MOMM*%
G01*
G04 APERTURE LIST*
%ADD10C,0.100000*%
%ADD11C,0.150000*%
G04 APERTURE END LIST*
D10*
D11*
X121354880Y-98450140D02*
X121354880Y-113436140D01*
X145675000Y-101300000D02*
X145675000Y-102300000D01*
X144325000Y-102300000D02*
X144325000Y-101300000D01*
X149725000Y-104500000D02*
X149725000Y-103500000D01*
X151075000Y-103500000D02*
X151075000Y-104500000D01*
X142075000Y-108225000D02*
X142075000Y-106675000D01*
X141795000Y-102865000D02*
X141795000Y-105405000D01*
X141795000Y-105405000D02*
X139255000Y-105405000D01*
X138975000Y-106675000D02*
X138975000Y-108225000D01*
X138975000Y-108225000D02*
X142075000Y-108225000D01*
X139255000Y-105405000D02*
X139255000Y-102865000D01*
X139255000Y-102865000D02*
X141795000Y-102865000D01*
X145885044Y-105075000D02*
G75*
G03X145885044Y-105075000I-285044J0D01*
G01*
X149200200Y-103449480D02*
X149200200Y-104150520D01*
X173450000Y-100525000D02*
X172950000Y-100525000D01*
X172950000Y-101475000D02*
X173450000Y-101475000D01*
X175050000Y-103025000D02*
X174550000Y-103025000D01*
X174550000Y-103975000D02*
X175050000Y-103975000D01*
X175925000Y-108700000D02*
X175925000Y-108200000D01*
X174975000Y-108200000D02*
X174975000Y-108700000D01*
X169050000Y-98000000D02*
X168050000Y-98000000D01*
X168050000Y-99700000D02*
X169050000Y-99700000D01*
X173525000Y-99000000D02*
X173525000Y-99500000D01*
X174475000Y-99500000D02*
X174475000Y-99000000D01*
X171925000Y-99000000D02*
X171925000Y-99500000D01*
X172875000Y-99500000D02*
X172875000Y-99000000D01*
X161250000Y-102125000D02*
X160750000Y-102125000D01*
X160750000Y-103075000D02*
X161250000Y-103075000D01*
X172475000Y-102550000D02*
X172475000Y-103050000D01*
X173425000Y-103050000D02*
X173425000Y-102550000D01*
X160750000Y-104475000D02*
X161250000Y-104475000D01*
X161250000Y-103525000D02*
X160750000Y-103525000D01*
X160750000Y-105875000D02*
X161250000Y-105875000D01*
X161250000Y-104925000D02*
X160750000Y-104925000D01*
X171225000Y-106425000D02*
X170700000Y-106425000D01*
X165975000Y-101175000D02*
X166500000Y-101175000D01*
X165975000Y-106425000D02*
X166500000Y-106425000D01*
X171225000Y-101175000D02*
X171225000Y-101700000D01*
X165975000Y-101175000D02*
X165975000Y-101700000D01*
X165975000Y-106425000D02*
X165975000Y-105900000D01*
X171225000Y-106425000D02*
X171225000Y-105900000D01*
X166325000Y-108425000D02*
X166325000Y-108570000D01*
X170475000Y-108425000D02*
X170475000Y-108570000D01*
X170475000Y-113575000D02*
X170475000Y-113430000D01*
X166325000Y-113575000D02*
X166325000Y-113430000D01*
X166325000Y-108425000D02*
X170475000Y-108425000D01*
X166325000Y-113575000D02*
X170475000Y-113575000D01*
X166325000Y-108570000D02*
X164925000Y-108570000D01*
X150470000Y-108530000D02*
X158090000Y-108530000D01*
X158090000Y-108530000D02*
X158090000Y-113610000D01*
X158090000Y-113610000D02*
X147930000Y-113610000D01*
X147930000Y-113610000D02*
X147930000Y-111070000D01*
X149200000Y-108250000D02*
X147650000Y-108250000D01*
X147930000Y-111070000D02*
X150470000Y-111070000D01*
X150470000Y-111070000D02*
X150470000Y-108530000D01*
X147650000Y-108250000D02*
X147650000Y-109800000D01*
X156400000Y-101350000D02*
X157950000Y-101350000D01*
X157950000Y-101350000D02*
X157950000Y-98250000D01*
X157950000Y-98250000D02*
X156400000Y-98250000D01*
X155130000Y-101070000D02*
X150050000Y-101070000D01*
X150050000Y-101070000D02*
X150050000Y-98530000D01*
X150050000Y-98530000D02*
X155130000Y-98530000D01*
X155130000Y-98530000D02*
X155130000Y-101070000D01*
X141125000Y-100525000D02*
X141125000Y-99525000D01*
X139425000Y-99525000D02*
X139425000Y-100525000D01*
X135062000Y-97887000D02*
X135062000Y-98649000D01*
X135062000Y-98649000D02*
X133538000Y-98649000D01*
X133538000Y-98649000D02*
X133538000Y-97887000D01*
X136586000Y-109063000D02*
X132014000Y-109063000D01*
X132014000Y-109063000D02*
X132014000Y-97887000D01*
X132014000Y-97887000D02*
X136586000Y-97887000D01*
X136586000Y-97887000D02*
X136586000Y-109063000D01*
X133466000Y-109664000D02*
G75*
G03X133466000Y-114236000I0J-2286000D01*
G01*
X139054000Y-114236000D02*
G75*
G03X139054000Y-109664000I0J2286000D01*
G01*
X139054000Y-109664000D02*
X133466000Y-109664000D01*
X139054000Y-114236000D02*
X133466000Y-114236000D01*
X142550000Y-111525000D02*
X142550000Y-110825000D01*
X143750000Y-110825000D02*
X143750000Y-111525000D01*
X128675000Y-111525000D02*
X128675000Y-110825000D01*
X129875000Y-110825000D02*
X129875000Y-111525000D01*
X125042381Y-106618095D02*
X124042381Y-106618095D01*
X124042381Y-106237142D01*
X124090000Y-106141904D01*
X124137619Y-106094285D01*
X124232857Y-106046666D01*
X124375714Y-106046666D01*
X124470952Y-106094285D01*
X124518571Y-106141904D01*
X124566190Y-106237142D01*
X124566190Y-106618095D01*
X125042381Y-105094285D02*
X125042381Y-105665714D01*
X125042381Y-105380000D02*
X124042381Y-105380000D01*
X124185238Y-105475238D01*
X124280476Y-105570476D01*
X124328095Y-105665714D01*
X143033334Y-102157143D02*
X142985715Y-102204762D01*
X142842858Y-102252381D01*
X142747620Y-102252381D01*
X142604762Y-102204762D01*
X142509524Y-102109524D01*
X142461905Y-102014286D01*
X142414286Y-101823810D01*
X142414286Y-101680952D01*
X142461905Y-101490476D01*
X142509524Y-101395238D01*
X142604762Y-101300000D01*
X142747620Y-101252381D01*
X142842858Y-101252381D01*
X142985715Y-101300000D01*
X143033334Y-101347619D01*
X143985715Y-102252381D02*
X143414286Y-102252381D01*
X143700000Y-102252381D02*
X143700000Y-101252381D01*
X143604762Y-101395238D01*
X143509524Y-101490476D01*
X143414286Y-101538095D01*
X150233334Y-107157143D02*
X150185715Y-107204762D01*
X150042858Y-107252381D01*
X149947620Y-107252381D01*
X149804762Y-107204762D01*
X149709524Y-107109524D01*
X149661905Y-107014286D01*
X149614286Y-106823810D01*
X149614286Y-106680952D01*
X149661905Y-106490476D01*
X149709524Y-106395238D01*
X149804762Y-106300000D01*
X149947620Y-106252381D01*
X150042858Y-106252381D01*
X150185715Y-106300000D01*
X150233334Y-106347619D01*
X150614286Y-106347619D02*
X150661905Y-106300000D01*
X150757143Y-106252381D01*
X150995239Y-106252381D01*
X151090477Y-106300000D01*
X151138096Y-106347619D01*
X151185715Y-106442857D01*
X151185715Y-106538095D01*
X151138096Y-106680952D01*
X150566667Y-107252381D01*
X151185715Y-107252381D01*
X142930667Y-106640381D02*
X142930667Y-107354667D01*
X142883047Y-107497524D01*
X142787809Y-107592762D01*
X142644952Y-107640381D01*
X142549714Y-107640381D01*
X143406857Y-107640381D02*
X143406857Y-106640381D01*
X143787810Y-106640381D01*
X143883048Y-106688000D01*
X143930667Y-106735619D01*
X143978286Y-106830857D01*
X143978286Y-106973714D01*
X143930667Y-107068952D01*
X143883048Y-107116571D01*
X143787810Y-107164190D01*
X143406857Y-107164190D01*
X144930667Y-107640381D02*
X144359238Y-107640381D01*
X144644952Y-107640381D02*
X144644952Y-106640381D01*
X144549714Y-106783238D01*
X144454476Y-106878476D01*
X144359238Y-106926095D01*
X144883334Y-99952381D02*
X144407143Y-99952381D01*
X144407143Y-98952381D01*
X145740477Y-99952381D02*
X145169048Y-99952381D01*
X145454762Y-99952381D02*
X145454762Y-98952381D01*
X145359524Y-99095238D01*
X145264286Y-99190476D01*
X145169048Y-99238095D01*
X146838095Y-103152381D02*
X146838095Y-103961905D01*
X146885714Y-104057143D01*
X146933333Y-104104762D01*
X147028571Y-104152381D01*
X147219048Y-104152381D01*
X147314286Y-104104762D01*
X147361905Y-104057143D01*
X147409524Y-103961905D01*
X147409524Y-103152381D01*
X148409524Y-104152381D02*
X147838095Y-104152381D01*
X148123809Y-104152381D02*
X148123809Y-103152381D01*
X148028571Y-103295238D01*
X147933333Y-103390476D01*
X147838095Y-103438095D01*
X170783334Y-100907143D02*
X170735715Y-100954762D01*
X170592858Y-101002381D01*
X170497620Y-101002381D01*
X170354762Y-100954762D01*
X170259524Y-100859524D01*
X170211905Y-100764286D01*
X170164286Y-100573810D01*
X170164286Y-100430952D01*
X170211905Y-100240476D01*
X170259524Y-100145238D01*
X170354762Y-100050000D01*
X170497620Y-100002381D01*
X170592858Y-100002381D01*
X170735715Y-100050000D01*
X170783334Y-100097619D01*
X171688096Y-100002381D02*
X171211905Y-100002381D01*
X171164286Y-100478571D01*
X171211905Y-100430952D01*
X171307143Y-100383333D01*
X171545239Y-100383333D01*
X171640477Y-100430952D01*
X171688096Y-100478571D01*
X171735715Y-100573810D01*
X171735715Y-100811905D01*
X171688096Y-100907143D01*
X171640477Y-100954762D01*
X171545239Y-101002381D01*
X171307143Y-101002381D01*
X171211905Y-100954762D01*
X171164286Y-100907143D01*
X174658334Y-102732143D02*
X174610715Y-102779762D01*
X174467858Y-102827381D01*
X174372620Y-102827381D01*
X174229762Y-102779762D01*
X174134524Y-102684524D01*
X174086905Y-102589286D01*
X174039286Y-102398810D01*
X174039286Y-102255952D01*
X174086905Y-102065476D01*
X174134524Y-101970238D01*
X174229762Y-101875000D01*
X174372620Y-101827381D01*
X174467858Y-101827381D01*
X174610715Y-101875000D01*
X174658334Y-101922619D01*
X175515477Y-101827381D02*
X175325000Y-101827381D01*
X175229762Y-101875000D01*
X175182143Y-101922619D01*
X175086905Y-102065476D01*
X175039286Y-102255952D01*
X175039286Y-102636905D01*
X175086905Y-102732143D01*
X175134524Y-102779762D01*
X175229762Y-102827381D01*
X175420239Y-102827381D01*
X175515477Y-102779762D01*
X175563096Y-102732143D01*
X175610715Y-102636905D01*
X175610715Y-102398810D01*
X175563096Y-102303571D01*
X175515477Y-102255952D01*
X175420239Y-102208333D01*
X175229762Y-102208333D01*
X175134524Y-102255952D01*
X175086905Y-102303571D01*
X175039286Y-102398810D01*
X173633334Y-109707143D02*
X173585715Y-109754762D01*
X173442858Y-109802381D01*
X173347620Y-109802381D01*
X173204762Y-109754762D01*
X173109524Y-109659524D01*
X173061905Y-109564286D01*
X173014286Y-109373810D01*
X173014286Y-109230952D01*
X173061905Y-109040476D01*
X173109524Y-108945238D01*
X173204762Y-108850000D01*
X173347620Y-108802381D01*
X173442858Y-108802381D01*
X173585715Y-108850000D01*
X173633334Y-108897619D01*
X173966667Y-108802381D02*
X174633334Y-108802381D01*
X174204762Y-109802381D01*
X168233334Y-97732143D02*
X168185715Y-97779762D01*
X168042858Y-97827381D01*
X167947620Y-97827381D01*
X167804762Y-97779762D01*
X167709524Y-97684524D01*
X167661905Y-97589286D01*
X167614286Y-97398810D01*
X167614286Y-97255952D01*
X167661905Y-97065476D01*
X167709524Y-96970238D01*
X167804762Y-96875000D01*
X167947620Y-96827381D01*
X168042858Y-96827381D01*
X168185715Y-96875000D01*
X168233334Y-96922619D01*
X168804762Y-97255952D02*
X168709524Y-97208333D01*
X168661905Y-97160714D01*
X168614286Y-97065476D01*
X168614286Y-97017857D01*
X168661905Y-96922619D01*
X168709524Y-96875000D01*
X168804762Y-96827381D01*
X168995239Y-96827381D01*
X169090477Y-96875000D01*
X169138096Y-96922619D01*
X169185715Y-97017857D01*
X169185715Y-97065476D01*
X169138096Y-97160714D01*
X169090477Y-97208333D01*
X168995239Y-97255952D01*
X168804762Y-97255952D01*
X168709524Y-97303571D01*
X168661905Y-97351190D01*
X168614286Y-97446429D01*
X168614286Y-97636905D01*
X168661905Y-97732143D01*
X168709524Y-97779762D01*
X168804762Y-97827381D01*
X168995239Y-97827381D01*
X169090477Y-97779762D01*
X169138096Y-97732143D01*
X169185715Y-97636905D01*
X169185715Y-97446429D01*
X169138096Y-97351190D01*
X169090477Y-97303571D01*
X168995239Y-97255952D01*
X175852381Y-99216666D02*
X175852381Y-99692857D01*
X174852381Y-99692857D01*
X174852381Y-98978571D02*
X174852381Y-98359523D01*
X175233333Y-98692857D01*
X175233333Y-98549999D01*
X175280952Y-98454761D01*
X175328571Y-98407142D01*
X175423810Y-98359523D01*
X175661905Y-98359523D01*
X175757143Y-98407142D01*
X175804762Y-98454761D01*
X175852381Y-98549999D01*
X175852381Y-98835714D01*
X175804762Y-98930952D01*
X175757143Y-98978571D01*
X172233334Y-97877381D02*
X171757143Y-97877381D01*
X171757143Y-96877381D01*
X172995239Y-97210714D02*
X172995239Y-97877381D01*
X172757143Y-96829762D02*
X172519048Y-97544048D01*
X173138096Y-97544048D01*
X157633334Y-103052381D02*
X157300000Y-102576190D01*
X157061905Y-103052381D02*
X157061905Y-102052381D01*
X157442858Y-102052381D01*
X157538096Y-102100000D01*
X157585715Y-102147619D01*
X157633334Y-102242857D01*
X157633334Y-102385714D01*
X157585715Y-102480952D01*
X157538096Y-102528571D01*
X157442858Y-102576190D01*
X157061905Y-102576190D01*
X158014286Y-102147619D02*
X158061905Y-102100000D01*
X158157143Y-102052381D01*
X158395239Y-102052381D01*
X158490477Y-102100000D01*
X158538096Y-102147619D01*
X158585715Y-102242857D01*
X158585715Y-102338095D01*
X158538096Y-102480952D01*
X157966667Y-103052381D01*
X158585715Y-103052381D01*
X172833334Y-105077381D02*
X172500000Y-104601190D01*
X172261905Y-105077381D02*
X172261905Y-104077381D01*
X172642858Y-104077381D01*
X172738096Y-104125000D01*
X172785715Y-104172619D01*
X172833334Y-104267857D01*
X172833334Y-104410714D01*
X172785715Y-104505952D01*
X172738096Y-104553571D01*
X172642858Y-104601190D01*
X172261905Y-104601190D01*
X173166667Y-104077381D02*
X173785715Y-104077381D01*
X173452381Y-104458333D01*
X173595239Y-104458333D01*
X173690477Y-104505952D01*
X173738096Y-104553571D01*
X173785715Y-104648810D01*
X173785715Y-104886905D01*
X173738096Y-104982143D01*
X173690477Y-105029762D01*
X173595239Y-105077381D01*
X173309524Y-105077381D01*
X173214286Y-105029762D01*
X173166667Y-104982143D01*
X157633334Y-104452381D02*
X157300000Y-103976190D01*
X157061905Y-104452381D02*
X157061905Y-103452381D01*
X157442858Y-103452381D01*
X157538096Y-103500000D01*
X157585715Y-103547619D01*
X157633334Y-103642857D01*
X157633334Y-103785714D01*
X157585715Y-103880952D01*
X157538096Y-103928571D01*
X157442858Y-103976190D01*
X157061905Y-103976190D01*
X158490477Y-103785714D02*
X158490477Y-104452381D01*
X158252381Y-103404762D02*
X158014286Y-104119048D01*
X158633334Y-104119048D01*
X157633334Y-105852381D02*
X157300000Y-105376190D01*
X157061905Y-105852381D02*
X157061905Y-104852381D01*
X157442858Y-104852381D01*
X157538096Y-104900000D01*
X157585715Y-104947619D01*
X157633334Y-105042857D01*
X157633334Y-105185714D01*
X157585715Y-105280952D01*
X157538096Y-105328571D01*
X157442858Y-105376190D01*
X157061905Y-105376190D01*
X158538096Y-104852381D02*
X158061905Y-104852381D01*
X158014286Y-105328571D01*
X158061905Y-105280952D01*
X158157143Y-105233333D01*
X158395239Y-105233333D01*
X158490477Y-105280952D01*
X158538096Y-105328571D01*
X158585715Y-105423810D01*
X158585715Y-105661905D01*
X158538096Y-105757143D01*
X158490477Y-105804762D01*
X158395239Y-105852381D01*
X158157143Y-105852381D01*
X158061905Y-105804762D01*
X158014286Y-105757143D01*
X167838095Y-103252381D02*
X167838095Y-104061905D01*
X167885714Y-104157143D01*
X167933333Y-104204762D01*
X168028571Y-104252381D01*
X168219048Y-104252381D01*
X168314286Y-104204762D01*
X168361905Y-104157143D01*
X168409524Y-104061905D01*
X168409524Y-103252381D01*
X168790476Y-103252381D02*
X169409524Y-103252381D01*
X169076190Y-103633333D01*
X169219048Y-103633333D01*
X169314286Y-103680952D01*
X169361905Y-103728571D01*
X169409524Y-103823810D01*
X169409524Y-104061905D01*
X169361905Y-104157143D01*
X169314286Y-104204762D01*
X169219048Y-104252381D01*
X168933333Y-104252381D01*
X168838095Y-104204762D01*
X168790476Y-104157143D01*
X167638095Y-106952381D02*
X167638095Y-107761905D01*
X167685714Y-107857143D01*
X167733333Y-107904762D01*
X167828571Y-107952381D01*
X168019048Y-107952381D01*
X168114286Y-107904762D01*
X168161905Y-107857143D01*
X168209524Y-107761905D01*
X168209524Y-106952381D01*
X169114286Y-107285714D02*
X169114286Y-107952381D01*
X168876190Y-106904762D02*
X168638095Y-107619048D01*
X169257143Y-107619048D01*
X172615476Y-107227381D02*
X173282143Y-108227381D01*
X173282143Y-107227381D02*
X172615476Y-108227381D01*
X174186905Y-108227381D02*
X173615476Y-108227381D01*
X173901190Y-108227381D02*
X173901190Y-107227381D01*
X173805952Y-107370238D01*
X173710714Y-107465476D01*
X173615476Y-107513095D01*
X147586905Y-107977381D02*
X147586905Y-106977381D01*
X147967858Y-106977381D01*
X148063096Y-107025000D01*
X148110715Y-107072619D01*
X148158334Y-107167857D01*
X148158334Y-107310714D01*
X148110715Y-107405952D01*
X148063096Y-107453571D01*
X147967858Y-107501190D01*
X147586905Y-107501190D01*
X149015477Y-107310714D02*
X149015477Y-107977381D01*
X148777381Y-106929762D02*
X148539286Y-107644048D01*
X149158334Y-107644048D01*
X152961905Y-97977381D02*
X152961905Y-96977381D01*
X153342858Y-96977381D01*
X153438096Y-97025000D01*
X153485715Y-97072619D01*
X153533334Y-97167857D01*
X153533334Y-97310714D01*
X153485715Y-97405952D01*
X153438096Y-97453571D01*
X153342858Y-97501190D01*
X152961905Y-97501190D01*
X154438096Y-96977381D02*
X153961905Y-96977381D01*
X153914286Y-97453571D01*
X153961905Y-97405952D01*
X154057143Y-97358333D01*
X154295239Y-97358333D01*
X154390477Y-97405952D01*
X154438096Y-97453571D01*
X154485715Y-97548810D01*
X154485715Y-97786905D01*
X154438096Y-97882143D01*
X154390477Y-97929762D01*
X154295239Y-97977381D01*
X154057143Y-97977381D01*
X153961905Y-97929762D01*
X153914286Y-97882143D01*
X142732143Y-100191666D02*
X142779762Y-100239285D01*
X142827381Y-100382142D01*
X142827381Y-100477380D01*
X142779762Y-100620238D01*
X142684524Y-100715476D01*
X142589286Y-100763095D01*
X142398810Y-100810714D01*
X142255952Y-100810714D01*
X142065476Y-100763095D01*
X141970238Y-100715476D01*
X141875000Y-100620238D01*
X141827381Y-100477380D01*
X141827381Y-100382142D01*
X141875000Y-100239285D01*
X141922619Y-100191666D01*
X142827381Y-99715476D02*
X142827381Y-99525000D01*
X142779762Y-99429761D01*
X142732143Y-99382142D01*
X142589286Y-99286904D01*
X142398810Y-99239285D01*
X142017857Y-99239285D01*
X141922619Y-99286904D01*
X141875000Y-99334523D01*
X141827381Y-99429761D01*
X141827381Y-99620238D01*
X141875000Y-99715476D01*
X141922619Y-99763095D01*
X142017857Y-99810714D01*
X142255952Y-99810714D01*
X142351190Y-99763095D01*
X142398810Y-99715476D01*
X142446429Y-99620238D01*
X142446429Y-99429761D01*
X142398810Y-99334523D01*
X142351190Y-99286904D01*
X142255952Y-99239285D01*
X133604095Y-103846381D02*
X133604095Y-104655905D01*
X133651714Y-104751143D01*
X133699333Y-104798762D01*
X133794571Y-104846381D01*
X133985048Y-104846381D01*
X134080286Y-104798762D01*
X134127905Y-104751143D01*
X134175524Y-104655905D01*
X134175524Y-103846381D01*
X134604095Y-103941619D02*
X134651714Y-103894000D01*
X134746952Y-103846381D01*
X134985048Y-103846381D01*
X135080286Y-103894000D01*
X135127905Y-103941619D01*
X135175524Y-104036857D01*
X135175524Y-104132095D01*
X135127905Y-104274952D01*
X134556476Y-104846381D01*
X135175524Y-104846381D01*
X135921809Y-111990190D02*
X135921809Y-112466381D01*
X135588476Y-111466381D02*
X135921809Y-111990190D01*
X136255143Y-111466381D01*
X137112286Y-112466381D02*
X136540857Y-112466381D01*
X136826571Y-112466381D02*
X136826571Y-111466381D01*
X136731333Y-111609238D01*
X136636095Y-111704476D01*
X136540857Y-111752095D01*
X143089334Y-113895143D02*
X143041715Y-113942762D01*
X142898858Y-113990381D01*
X142803620Y-113990381D01*
X142660762Y-113942762D01*
X142565524Y-113847524D01*
X142517905Y-113752286D01*
X142470286Y-113561810D01*
X142470286Y-113418952D01*
X142517905Y-113228476D01*
X142565524Y-113133238D01*
X142660762Y-113038000D01*
X142803620Y-112990381D01*
X142898858Y-112990381D01*
X143041715Y-113038000D01*
X143089334Y-113085619D01*
X143422667Y-112990381D02*
X144041715Y-112990381D01*
X143708381Y-113371333D01*
X143851239Y-113371333D01*
X143946477Y-113418952D01*
X143994096Y-113466571D01*
X144041715Y-113561810D01*
X144041715Y-113799905D01*
X143994096Y-113895143D01*
X143946477Y-113942762D01*
X143851239Y-113990381D01*
X143565524Y-113990381D01*
X143470286Y-113942762D01*
X143422667Y-113895143D01*
X129373334Y-113895143D02*
X129325715Y-113942762D01*
X129182858Y-113990381D01*
X129087620Y-113990381D01*
X128944762Y-113942762D01*
X128849524Y-113847524D01*
X128801905Y-113752286D01*
X128754286Y-113561810D01*
X128754286Y-113418952D01*
X128801905Y-113228476D01*
X128849524Y-113133238D01*
X128944762Y-113038000D01*
X129087620Y-112990381D01*
X129182858Y-112990381D01*
X129325715Y-113038000D01*
X129373334Y-113085619D01*
X130230477Y-113323714D02*
X130230477Y-113990381D01*
X129992381Y-112942762D02*
X129754286Y-113657048D01*
X130373334Y-113657048D01*
M02*
