M48
;DRILL file {KiCad (2015-11-24 BZR 6329)-product} date Fri 06 May 2016 02:50:09 AM EDT
;FORMAT={-:-/ absolute / inch / decimal}
FMAT,2
INCH,TZ
T1C0.016
T2C0.039
T3C0.040
T4C0.043
T5C0.098
%
G90
G05
M72
T1
X5.5118Y-3.9252
X5.6063Y-3.9488
X5.6772Y-4.1417
X5.9409Y-4.2362
X5.9705Y-4.123
X6.0669Y-4.1614
X6.0709Y-4.0217
X6.0984Y-4.0787
X6.1122Y-4.0256
X6.2224Y-4.1043
X6.2844Y-4.3189
X6.312Y-4.1093
X6.3465Y-4.4409
X6.378Y-4.0157
X6.4094Y-4.0768
X6.44Y-4.4085
X6.4518Y-3.9183
X6.4537Y-4.1447
X6.4537Y-4.1811
X6.4606Y-4.0108
X6.4961Y-4.0118
X6.5157Y-4.1831
X6.5699Y-4.4321
X6.5945Y-3.9154
X6.6038Y-4.1206
X6.6319Y-4.4006
X6.6535Y-4.2441
X6.6575Y-4.4301
X6.6614Y-3.9744
X6.6718Y-4.0527
X6.6742Y-3.8583
X6.687Y-4.376
X6.7165Y-3.9882
X6.7303Y-4.2087
X6.7402Y-4.2598
X6.748Y-4.
X6.7638Y-4.187
X6.7717Y-4.065
X6.7874Y-4.252
X6.7923Y-4.2165
X6.7953Y-4.1417
X6.7972Y-4.185
X6.8091Y-4.3602
X6.811Y-4.4213
X6.8514Y-3.8711
X6.874Y-4.2352
X6.9075Y-4.3622
X6.9075Y-4.4321
X6.9154Y-4.0285
X6.9252Y-4.3159
X6.9528Y-4.2677
T2
X4.9882Y-4.0335
X4.9882Y-4.1319
X4.9882Y-4.211
X4.9882Y-4.3091
T3
X5.5142Y-4.4173
X5.6142Y-4.4173
X5.874Y-4.3228
X5.874Y-4.4228
X5.9575Y-3.9291
X5.974Y-4.3228
X5.974Y-4.4228
X6.0575Y-3.9291
X6.074Y-4.3228
X6.074Y-4.4228
X6.1575Y-3.9291
X6.174Y-4.3228
X6.174Y-4.4228
T4
X4.9055Y-4.0827
X4.9055Y-4.2598
T5
X4.9055Y-3.9409
X4.9055Y-4.4016
T0
M30
