G04 #@! TF.FileFunction,Soldermask,Bot*
%FSLAX46Y46*%
G04 Gerber Fmt 4.6, Leading zero omitted, Abs format (unit mm)*
G04 Created by KiCad (PCBNEW (2015-11-24 BZR 6329)-product) date Sun 25 Sep 2016 11:26:43 PM EDT*
%MOMM*%
G01*
G04 APERTURE LIST*
%ADD10C,0.100000*%
%ADD11R,1.100000X1.600000*%
%ADD12R,1.400000X3.200000*%
%ADD13R,1.700000X2.300000*%
%ADD14R,1.500000X1.600000*%
%ADD15R,1.400000X1.600000*%
%ADD16R,2.127200X2.127200*%
%ADD17O,2.127200X2.127200*%
%ADD18C,2.600000*%
%ADD19C,1.901140*%
%ADD20C,3.399740*%
%ADD21C,1.600000*%
%ADD22R,2.432000X2.432000*%
%ADD23O,2.432000X2.432000*%
%ADD24R,2.127200X2.432000*%
%ADD25O,2.127200X2.432000*%
%ADD26C,1.822400*%
G04 APERTURE END LIST*
D10*
D11*
X161870000Y-112774000D03*
D12*
X158870000Y-98474000D03*
D13*
X172370000Y-98024000D03*
D11*
X160770000Y-112774000D03*
X162970000Y-112774000D03*
X164070000Y-112774000D03*
X165170000Y-112774000D03*
X166270000Y-112774000D03*
X167370000Y-112774000D03*
X168470000Y-112774000D03*
D14*
X170020000Y-112774000D03*
D11*
X159820000Y-112774000D03*
D15*
X158770000Y-107874000D03*
D16*
X148500000Y-109800000D03*
D17*
X148500000Y-112340000D03*
X151040000Y-109800000D03*
X151040000Y-112340000D03*
X153580000Y-109800000D03*
X153580000Y-112340000D03*
X156120000Y-109800000D03*
X156120000Y-112340000D03*
D18*
X179000000Y-98500000D03*
X179000000Y-113500000D03*
X127500000Y-113500000D03*
X127500000Y-98500000D03*
D19*
X126700000Y-102450000D03*
X126700000Y-104950000D03*
X126700000Y-106960000D03*
X126700000Y-109450000D03*
D20*
X124600000Y-100100000D03*
X124600000Y-111800000D03*
D21*
X124600000Y-103700000D03*
X124600000Y-108200000D03*
D22*
X140525000Y-106675000D03*
D23*
X140525000Y-104135000D03*
D24*
X156400000Y-99800000D03*
D25*
X153860000Y-99800000D03*
X151320000Y-99800000D03*
D26*
X138800000Y-111950000D03*
X133720000Y-111950000D03*
M02*
