G04 #@! TF.FileFunction,Legend,Top*
%FSLAX46Y46*%
G04 Gerber Fmt 4.6, Leading zero omitted, Abs format (unit mm)*
G04 Created by KiCad (PCBNEW (2015-11-24 BZR 6329)-product) date Thu 05 May 2016 01:06:23 PM EDT*
%MOMM*%
G01*
G04 APERTURE LIST*
%ADD10C,0.100000*%
%ADD11C,0.150000*%
G04 APERTURE END LIST*
D10*
D11*
X142800000Y-103400000D02*
G75*
G03X142800000Y-103400000I-500000J0D01*
G01*
X143125000Y-102525000D02*
X142475000Y-102525000D01*
X143125000Y-108275000D02*
X142475000Y-108275000D01*
X132475000Y-108275000D02*
X133125000Y-108275000D01*
X132475000Y-102525000D02*
X133125000Y-102525000D01*
X143125000Y-102525000D02*
X143125000Y-108275000D01*
X132475000Y-102525000D02*
X132475000Y-108275000D01*
X142475000Y-102525000D02*
X142475000Y-100925000D01*
X121354880Y-98450140D02*
X121354880Y-113436140D01*
X145675000Y-101300000D02*
X145675000Y-102300000D01*
X144325000Y-102300000D02*
X144325000Y-101300000D01*
X149725000Y-104500000D02*
X149725000Y-103500000D01*
X151075000Y-103500000D02*
X151075000Y-104500000D01*
X145725000Y-108300000D02*
X145725000Y-107300000D01*
X147075000Y-107300000D02*
X147075000Y-108300000D01*
X136700000Y-112475000D02*
X135700000Y-112475000D01*
X135700000Y-111125000D02*
X136700000Y-111125000D01*
X144150000Y-110650000D02*
X142600000Y-110650000D01*
X138790000Y-110930000D02*
X141330000Y-110930000D01*
X141330000Y-110930000D02*
X141330000Y-113470000D01*
X142600000Y-113750000D02*
X144150000Y-113750000D01*
X144150000Y-113750000D02*
X144150000Y-110650000D01*
X141330000Y-113470000D02*
X138790000Y-113470000D01*
X138790000Y-113470000D02*
X138790000Y-110930000D01*
X143525000Y-108400000D02*
X143525000Y-107200000D01*
X145275000Y-107200000D02*
X145275000Y-108400000D01*
X145885044Y-105075000D02*
G75*
G03X145885044Y-105075000I-285044J0D01*
G01*
X149200200Y-103449480D02*
X149200200Y-104150520D01*
X173450000Y-100525000D02*
X172950000Y-100525000D01*
X172950000Y-101475000D02*
X173450000Y-101475000D01*
X175050000Y-103025000D02*
X174550000Y-103025000D01*
X174550000Y-103975000D02*
X175050000Y-103975000D01*
X175925000Y-108700000D02*
X175925000Y-108200000D01*
X174975000Y-108200000D02*
X174975000Y-108700000D01*
X169050000Y-98000000D02*
X168050000Y-98000000D01*
X168050000Y-99700000D02*
X169050000Y-99700000D01*
X173525000Y-99350000D02*
X173525000Y-99850000D01*
X174475000Y-99850000D02*
X174475000Y-99350000D01*
X171925000Y-99350000D02*
X171925000Y-99850000D01*
X172875000Y-99850000D02*
X172875000Y-99350000D01*
X161250000Y-102125000D02*
X160750000Y-102125000D01*
X160750000Y-103075000D02*
X161250000Y-103075000D01*
X172475000Y-102550000D02*
X172475000Y-103050000D01*
X173425000Y-103050000D02*
X173425000Y-102550000D01*
X160750000Y-104475000D02*
X161250000Y-104475000D01*
X161250000Y-103525000D02*
X160750000Y-103525000D01*
X160750000Y-105875000D02*
X161250000Y-105875000D01*
X161250000Y-104925000D02*
X160750000Y-104925000D01*
X171225000Y-106425000D02*
X170700000Y-106425000D01*
X165975000Y-101175000D02*
X166500000Y-101175000D01*
X165975000Y-106425000D02*
X166500000Y-106425000D01*
X171225000Y-101175000D02*
X171225000Y-101700000D01*
X165975000Y-101175000D02*
X165975000Y-101700000D01*
X165975000Y-106425000D02*
X165975000Y-105900000D01*
X171225000Y-106425000D02*
X171225000Y-105900000D01*
X166325000Y-108425000D02*
X166325000Y-108570000D01*
X170475000Y-108425000D02*
X170475000Y-108570000D01*
X170475000Y-113575000D02*
X170475000Y-113430000D01*
X166325000Y-113575000D02*
X166325000Y-113430000D01*
X166325000Y-108425000D02*
X170475000Y-108425000D01*
X166325000Y-113575000D02*
X170475000Y-113575000D01*
X166325000Y-108570000D02*
X164925000Y-108570000D01*
X150470000Y-108530000D02*
X158090000Y-108530000D01*
X158090000Y-108530000D02*
X158090000Y-113610000D01*
X158090000Y-113610000D02*
X147930000Y-113610000D01*
X147930000Y-113610000D02*
X147930000Y-111070000D01*
X149200000Y-108250000D02*
X147650000Y-108250000D01*
X147930000Y-111070000D02*
X150470000Y-111070000D01*
X150470000Y-111070000D02*
X150470000Y-108530000D01*
X147650000Y-108250000D02*
X147650000Y-109800000D01*
X156400000Y-101350000D02*
X157950000Y-101350000D01*
X157950000Y-101350000D02*
X157950000Y-98250000D01*
X157950000Y-98250000D02*
X156400000Y-98250000D01*
X155130000Y-101070000D02*
X150050000Y-101070000D01*
X150050000Y-101070000D02*
X150050000Y-98530000D01*
X150050000Y-98530000D02*
X155130000Y-98530000D01*
X155130000Y-98530000D02*
X155130000Y-101070000D01*
X132638095Y-99452381D02*
X132638095Y-100261905D01*
X132685714Y-100357143D01*
X132733333Y-100404762D01*
X132828571Y-100452381D01*
X133019048Y-100452381D01*
X133114286Y-100404762D01*
X133161905Y-100357143D01*
X133209524Y-100261905D01*
X133209524Y-99452381D01*
X133638095Y-99547619D02*
X133685714Y-99500000D01*
X133780952Y-99452381D01*
X134019048Y-99452381D01*
X134114286Y-99500000D01*
X134161905Y-99547619D01*
X134209524Y-99642857D01*
X134209524Y-99738095D01*
X134161905Y-99880952D01*
X133590476Y-100452381D01*
X134209524Y-100452381D01*
X125042381Y-106618095D02*
X124042381Y-106618095D01*
X124042381Y-106237142D01*
X124090000Y-106141904D01*
X124137619Y-106094285D01*
X124232857Y-106046666D01*
X124375714Y-106046666D01*
X124470952Y-106094285D01*
X124518571Y-106141904D01*
X124566190Y-106237142D01*
X124566190Y-106618095D01*
X125042381Y-105094285D02*
X125042381Y-105665714D01*
X125042381Y-105380000D02*
X124042381Y-105380000D01*
X124185238Y-105475238D01*
X124280476Y-105570476D01*
X124328095Y-105665714D01*
X143033334Y-102157143D02*
X142985715Y-102204762D01*
X142842858Y-102252381D01*
X142747620Y-102252381D01*
X142604762Y-102204762D01*
X142509524Y-102109524D01*
X142461905Y-102014286D01*
X142414286Y-101823810D01*
X142414286Y-101680952D01*
X142461905Y-101490476D01*
X142509524Y-101395238D01*
X142604762Y-101300000D01*
X142747620Y-101252381D01*
X142842858Y-101252381D01*
X142985715Y-101300000D01*
X143033334Y-101347619D01*
X143985715Y-102252381D02*
X143414286Y-102252381D01*
X143700000Y-102252381D02*
X143700000Y-101252381D01*
X143604762Y-101395238D01*
X143509524Y-101490476D01*
X143414286Y-101538095D01*
X150233334Y-107157143D02*
X150185715Y-107204762D01*
X150042858Y-107252381D01*
X149947620Y-107252381D01*
X149804762Y-107204762D01*
X149709524Y-107109524D01*
X149661905Y-107014286D01*
X149614286Y-106823810D01*
X149614286Y-106680952D01*
X149661905Y-106490476D01*
X149709524Y-106395238D01*
X149804762Y-106300000D01*
X149947620Y-106252381D01*
X150042858Y-106252381D01*
X150185715Y-106300000D01*
X150233334Y-106347619D01*
X150614286Y-106347619D02*
X150661905Y-106300000D01*
X150757143Y-106252381D01*
X150995239Y-106252381D01*
X151090477Y-106300000D01*
X151138096Y-106347619D01*
X151185715Y-106442857D01*
X151185715Y-106538095D01*
X151138096Y-106680952D01*
X150566667Y-107252381D01*
X151185715Y-107252381D01*
X146233334Y-111157143D02*
X146185715Y-111204762D01*
X146042858Y-111252381D01*
X145947620Y-111252381D01*
X145804762Y-111204762D01*
X145709524Y-111109524D01*
X145661905Y-111014286D01*
X145614286Y-110823810D01*
X145614286Y-110680952D01*
X145661905Y-110490476D01*
X145709524Y-110395238D01*
X145804762Y-110300000D01*
X145947620Y-110252381D01*
X146042858Y-110252381D01*
X146185715Y-110300000D01*
X146233334Y-110347619D01*
X146566667Y-110252381D02*
X147185715Y-110252381D01*
X146852381Y-110633333D01*
X146995239Y-110633333D01*
X147090477Y-110680952D01*
X147138096Y-110728571D01*
X147185715Y-110823810D01*
X147185715Y-111061905D01*
X147138096Y-111157143D01*
X147090477Y-111204762D01*
X146995239Y-111252381D01*
X146709524Y-111252381D01*
X146614286Y-111204762D01*
X146566667Y-111157143D01*
X132833334Y-112157143D02*
X132785715Y-112204762D01*
X132642858Y-112252381D01*
X132547620Y-112252381D01*
X132404762Y-112204762D01*
X132309524Y-112109524D01*
X132261905Y-112014286D01*
X132214286Y-111823810D01*
X132214286Y-111680952D01*
X132261905Y-111490476D01*
X132309524Y-111395238D01*
X132404762Y-111300000D01*
X132547620Y-111252381D01*
X132642858Y-111252381D01*
X132785715Y-111300000D01*
X132833334Y-111347619D01*
X133690477Y-111585714D02*
X133690477Y-112252381D01*
X133452381Y-111204762D02*
X133214286Y-111919048D01*
X133833334Y-111919048D01*
X135966667Y-112852381D02*
X135966667Y-113566667D01*
X135919047Y-113709524D01*
X135823809Y-113804762D01*
X135680952Y-113852381D01*
X135585714Y-113852381D01*
X136442857Y-113852381D02*
X136442857Y-112852381D01*
X136823810Y-112852381D01*
X136919048Y-112900000D01*
X136966667Y-112947619D01*
X137014286Y-113042857D01*
X137014286Y-113185714D01*
X136966667Y-113280952D01*
X136919048Y-113328571D01*
X136823810Y-113376190D01*
X136442857Y-113376190D01*
X137966667Y-113852381D02*
X137395238Y-113852381D01*
X137680952Y-113852381D02*
X137680952Y-112852381D01*
X137585714Y-112995238D01*
X137490476Y-113090476D01*
X137395238Y-113138095D01*
X144883334Y-99952381D02*
X144407143Y-99952381D01*
X144407143Y-98952381D01*
X145740477Y-99952381D02*
X145169048Y-99952381D01*
X145454762Y-99952381D02*
X145454762Y-98952381D01*
X145359524Y-99095238D01*
X145264286Y-99190476D01*
X145169048Y-99238095D01*
X144233334Y-104452381D02*
X143757143Y-104452381D01*
X143757143Y-103452381D01*
X144519048Y-103547619D02*
X144566667Y-103500000D01*
X144661905Y-103452381D01*
X144900001Y-103452381D01*
X144995239Y-103500000D01*
X145042858Y-103547619D01*
X145090477Y-103642857D01*
X145090477Y-103738095D01*
X145042858Y-103880952D01*
X144471429Y-104452381D01*
X145090477Y-104452381D01*
X146838095Y-103152381D02*
X146838095Y-103961905D01*
X146885714Y-104057143D01*
X146933333Y-104104762D01*
X147028571Y-104152381D01*
X147219048Y-104152381D01*
X147314286Y-104104762D01*
X147361905Y-104057143D01*
X147409524Y-103961905D01*
X147409524Y-103152381D01*
X148409524Y-104152381D02*
X147838095Y-104152381D01*
X148123809Y-104152381D02*
X148123809Y-103152381D01*
X148028571Y-103295238D01*
X147933333Y-103390476D01*
X147838095Y-103438095D01*
X170783334Y-100907143D02*
X170735715Y-100954762D01*
X170592858Y-101002381D01*
X170497620Y-101002381D01*
X170354762Y-100954762D01*
X170259524Y-100859524D01*
X170211905Y-100764286D01*
X170164286Y-100573810D01*
X170164286Y-100430952D01*
X170211905Y-100240476D01*
X170259524Y-100145238D01*
X170354762Y-100050000D01*
X170497620Y-100002381D01*
X170592858Y-100002381D01*
X170735715Y-100050000D01*
X170783334Y-100097619D01*
X171688096Y-100002381D02*
X171211905Y-100002381D01*
X171164286Y-100478571D01*
X171211905Y-100430952D01*
X171307143Y-100383333D01*
X171545239Y-100383333D01*
X171640477Y-100430952D01*
X171688096Y-100478571D01*
X171735715Y-100573810D01*
X171735715Y-100811905D01*
X171688096Y-100907143D01*
X171640477Y-100954762D01*
X171545239Y-101002381D01*
X171307143Y-101002381D01*
X171211905Y-100954762D01*
X171164286Y-100907143D01*
X174658334Y-102732143D02*
X174610715Y-102779762D01*
X174467858Y-102827381D01*
X174372620Y-102827381D01*
X174229762Y-102779762D01*
X174134524Y-102684524D01*
X174086905Y-102589286D01*
X174039286Y-102398810D01*
X174039286Y-102255952D01*
X174086905Y-102065476D01*
X174134524Y-101970238D01*
X174229762Y-101875000D01*
X174372620Y-101827381D01*
X174467858Y-101827381D01*
X174610715Y-101875000D01*
X174658334Y-101922619D01*
X175515477Y-101827381D02*
X175325000Y-101827381D01*
X175229762Y-101875000D01*
X175182143Y-101922619D01*
X175086905Y-102065476D01*
X175039286Y-102255952D01*
X175039286Y-102636905D01*
X175086905Y-102732143D01*
X175134524Y-102779762D01*
X175229762Y-102827381D01*
X175420239Y-102827381D01*
X175515477Y-102779762D01*
X175563096Y-102732143D01*
X175610715Y-102636905D01*
X175610715Y-102398810D01*
X175563096Y-102303571D01*
X175515477Y-102255952D01*
X175420239Y-102208333D01*
X175229762Y-102208333D01*
X175134524Y-102255952D01*
X175086905Y-102303571D01*
X175039286Y-102398810D01*
X173633334Y-109707143D02*
X173585715Y-109754762D01*
X173442858Y-109802381D01*
X173347620Y-109802381D01*
X173204762Y-109754762D01*
X173109524Y-109659524D01*
X173061905Y-109564286D01*
X173014286Y-109373810D01*
X173014286Y-109230952D01*
X173061905Y-109040476D01*
X173109524Y-108945238D01*
X173204762Y-108850000D01*
X173347620Y-108802381D01*
X173442858Y-108802381D01*
X173585715Y-108850000D01*
X173633334Y-108897619D01*
X173966667Y-108802381D02*
X174633334Y-108802381D01*
X174204762Y-109802381D01*
X168233334Y-97732143D02*
X168185715Y-97779762D01*
X168042858Y-97827381D01*
X167947620Y-97827381D01*
X167804762Y-97779762D01*
X167709524Y-97684524D01*
X167661905Y-97589286D01*
X167614286Y-97398810D01*
X167614286Y-97255952D01*
X167661905Y-97065476D01*
X167709524Y-96970238D01*
X167804762Y-96875000D01*
X167947620Y-96827381D01*
X168042858Y-96827381D01*
X168185715Y-96875000D01*
X168233334Y-96922619D01*
X168804762Y-97255952D02*
X168709524Y-97208333D01*
X168661905Y-97160714D01*
X168614286Y-97065476D01*
X168614286Y-97017857D01*
X168661905Y-96922619D01*
X168709524Y-96875000D01*
X168804762Y-96827381D01*
X168995239Y-96827381D01*
X169090477Y-96875000D01*
X169138096Y-96922619D01*
X169185715Y-97017857D01*
X169185715Y-97065476D01*
X169138096Y-97160714D01*
X169090477Y-97208333D01*
X168995239Y-97255952D01*
X168804762Y-97255952D01*
X168709524Y-97303571D01*
X168661905Y-97351190D01*
X168614286Y-97446429D01*
X168614286Y-97636905D01*
X168661905Y-97732143D01*
X168709524Y-97779762D01*
X168804762Y-97827381D01*
X168995239Y-97827381D01*
X169090477Y-97779762D01*
X169138096Y-97732143D01*
X169185715Y-97636905D01*
X169185715Y-97446429D01*
X169138096Y-97351190D01*
X169090477Y-97303571D01*
X168995239Y-97255952D01*
X175852381Y-99566666D02*
X175852381Y-100042857D01*
X174852381Y-100042857D01*
X174852381Y-99328571D02*
X174852381Y-98709523D01*
X175233333Y-99042857D01*
X175233333Y-98899999D01*
X175280952Y-98804761D01*
X175328571Y-98757142D01*
X175423810Y-98709523D01*
X175661905Y-98709523D01*
X175757143Y-98757142D01*
X175804762Y-98804761D01*
X175852381Y-98899999D01*
X175852381Y-99185714D01*
X175804762Y-99280952D01*
X175757143Y-99328571D01*
X172233334Y-98227381D02*
X171757143Y-98227381D01*
X171757143Y-97227381D01*
X172995239Y-97560714D02*
X172995239Y-98227381D01*
X172757143Y-97179762D02*
X172519048Y-97894048D01*
X173138096Y-97894048D01*
X157633334Y-103052381D02*
X157300000Y-102576190D01*
X157061905Y-103052381D02*
X157061905Y-102052381D01*
X157442858Y-102052381D01*
X157538096Y-102100000D01*
X157585715Y-102147619D01*
X157633334Y-102242857D01*
X157633334Y-102385714D01*
X157585715Y-102480952D01*
X157538096Y-102528571D01*
X157442858Y-102576190D01*
X157061905Y-102576190D01*
X158014286Y-102147619D02*
X158061905Y-102100000D01*
X158157143Y-102052381D01*
X158395239Y-102052381D01*
X158490477Y-102100000D01*
X158538096Y-102147619D01*
X158585715Y-102242857D01*
X158585715Y-102338095D01*
X158538096Y-102480952D01*
X157966667Y-103052381D01*
X158585715Y-103052381D01*
X172833334Y-105077381D02*
X172500000Y-104601190D01*
X172261905Y-105077381D02*
X172261905Y-104077381D01*
X172642858Y-104077381D01*
X172738096Y-104125000D01*
X172785715Y-104172619D01*
X172833334Y-104267857D01*
X172833334Y-104410714D01*
X172785715Y-104505952D01*
X172738096Y-104553571D01*
X172642858Y-104601190D01*
X172261905Y-104601190D01*
X173166667Y-104077381D02*
X173785715Y-104077381D01*
X173452381Y-104458333D01*
X173595239Y-104458333D01*
X173690477Y-104505952D01*
X173738096Y-104553571D01*
X173785715Y-104648810D01*
X173785715Y-104886905D01*
X173738096Y-104982143D01*
X173690477Y-105029762D01*
X173595239Y-105077381D01*
X173309524Y-105077381D01*
X173214286Y-105029762D01*
X173166667Y-104982143D01*
X157633334Y-104452381D02*
X157300000Y-103976190D01*
X157061905Y-104452381D02*
X157061905Y-103452381D01*
X157442858Y-103452381D01*
X157538096Y-103500000D01*
X157585715Y-103547619D01*
X157633334Y-103642857D01*
X157633334Y-103785714D01*
X157585715Y-103880952D01*
X157538096Y-103928571D01*
X157442858Y-103976190D01*
X157061905Y-103976190D01*
X158490477Y-103785714D02*
X158490477Y-104452381D01*
X158252381Y-103404762D02*
X158014286Y-104119048D01*
X158633334Y-104119048D01*
X157633334Y-105852381D02*
X157300000Y-105376190D01*
X157061905Y-105852381D02*
X157061905Y-104852381D01*
X157442858Y-104852381D01*
X157538096Y-104900000D01*
X157585715Y-104947619D01*
X157633334Y-105042857D01*
X157633334Y-105185714D01*
X157585715Y-105280952D01*
X157538096Y-105328571D01*
X157442858Y-105376190D01*
X157061905Y-105376190D01*
X158538096Y-104852381D02*
X158061905Y-104852381D01*
X158014286Y-105328571D01*
X158061905Y-105280952D01*
X158157143Y-105233333D01*
X158395239Y-105233333D01*
X158490477Y-105280952D01*
X158538096Y-105328571D01*
X158585715Y-105423810D01*
X158585715Y-105661905D01*
X158538096Y-105757143D01*
X158490477Y-105804762D01*
X158395239Y-105852381D01*
X158157143Y-105852381D01*
X158061905Y-105804762D01*
X158014286Y-105757143D01*
X167838095Y-103252381D02*
X167838095Y-104061905D01*
X167885714Y-104157143D01*
X167933333Y-104204762D01*
X168028571Y-104252381D01*
X168219048Y-104252381D01*
X168314286Y-104204762D01*
X168361905Y-104157143D01*
X168409524Y-104061905D01*
X168409524Y-103252381D01*
X168790476Y-103252381D02*
X169409524Y-103252381D01*
X169076190Y-103633333D01*
X169219048Y-103633333D01*
X169314286Y-103680952D01*
X169361905Y-103728571D01*
X169409524Y-103823810D01*
X169409524Y-104061905D01*
X169361905Y-104157143D01*
X169314286Y-104204762D01*
X169219048Y-104252381D01*
X168933333Y-104252381D01*
X168838095Y-104204762D01*
X168790476Y-104157143D01*
X167638095Y-106952381D02*
X167638095Y-107761905D01*
X167685714Y-107857143D01*
X167733333Y-107904762D01*
X167828571Y-107952381D01*
X168019048Y-107952381D01*
X168114286Y-107904762D01*
X168161905Y-107857143D01*
X168209524Y-107761905D01*
X168209524Y-106952381D01*
X169114286Y-107285714D02*
X169114286Y-107952381D01*
X168876190Y-106904762D02*
X168638095Y-107619048D01*
X169257143Y-107619048D01*
X172615476Y-107227381D02*
X173282143Y-108227381D01*
X173282143Y-107227381D02*
X172615476Y-108227381D01*
X174186905Y-108227381D02*
X173615476Y-108227381D01*
X173901190Y-108227381D02*
X173901190Y-107227381D01*
X173805952Y-107370238D01*
X173710714Y-107465476D01*
X173615476Y-107513095D01*
X147586905Y-107977381D02*
X147586905Y-106977381D01*
X147967858Y-106977381D01*
X148063096Y-107025000D01*
X148110715Y-107072619D01*
X148158334Y-107167857D01*
X148158334Y-107310714D01*
X148110715Y-107405952D01*
X148063096Y-107453571D01*
X147967858Y-107501190D01*
X147586905Y-107501190D01*
X149015477Y-107310714D02*
X149015477Y-107977381D01*
X148777381Y-106929762D02*
X148539286Y-107644048D01*
X149158334Y-107644048D01*
X152961905Y-97977381D02*
X152961905Y-96977381D01*
X153342858Y-96977381D01*
X153438096Y-97025000D01*
X153485715Y-97072619D01*
X153533334Y-97167857D01*
X153533334Y-97310714D01*
X153485715Y-97405952D01*
X153438096Y-97453571D01*
X153342858Y-97501190D01*
X152961905Y-97501190D01*
X154438096Y-96977381D02*
X153961905Y-96977381D01*
X153914286Y-97453571D01*
X153961905Y-97405952D01*
X154057143Y-97358333D01*
X154295239Y-97358333D01*
X154390477Y-97405952D01*
X154438096Y-97453571D01*
X154485715Y-97548810D01*
X154485715Y-97786905D01*
X154438096Y-97882143D01*
X154390477Y-97929762D01*
X154295239Y-97977381D01*
X154057143Y-97977381D01*
X153961905Y-97929762D01*
X153914286Y-97882143D01*
M02*
