M48
;DRILL file {kicad (2014-11-17 BZR 5289)-product} date Wed 28 Oct 2015 02:20:05 PM EDT
;FORMAT={-:-/ absolute / inch / decimal}
FMAT,2
INCH,TZ
T1C0.031
T2C0.032
T3C0.035
T4C0.039
T5C0.040
T6C0.079
%
G90
G05
M72
T1
X7.9331Y-4.0551
X8.0315Y-4.0551
T2
X7.7831Y-4.3776
X7.7831Y-4.6776
X7.8831Y-4.3776
X7.8831Y-4.6776
X7.9831Y-4.3776
X7.9831Y-4.6776
X8.0831Y-4.3776
X8.0831Y-4.6776
X8.3146Y-3.472
X8.3146Y-3.772
X8.4146Y-3.472
X8.4146Y-3.772
X8.5146Y-3.472
X8.5146Y-3.772
X8.6146Y-3.472
X8.6146Y-3.772
T3
X8.3661Y-4.3898
X8.3661Y-4.5866
X8.4252Y-3.248
X8.622Y-3.248
T4
X8.8189Y-3.189
X8.8189Y-3.7795
T5
X7.5984Y-3.6024
X7.5984Y-3.7795
X7.5984Y-4.0354
X7.5984Y-4.2323
T6
X7.7209Y-3.2918
X7.9331Y-3.6454
X8.0745Y-3.5039
X8.6578Y-4.3701
X8.7992Y-4.2287
X9.0113Y-4.5822
T0
M30
