G04 #@! TF.FileFunction,Copper,L1,Top,Signal*
%FSLAX46Y46*%
G04 Gerber Fmt 4.6, Leading zero omitted, Abs format (unit mm)*
G04 Created by KiCad (PCBNEW (2014-11-17 BZR 5289)-product) date Wed 28 Oct 2015 08:14:00 PM EDT*
%MOMM*%
G01*
G04 APERTURE LIST*
%ADD10C,0.100000*%
%ADD11C,1.998980*%
%ADD12C,3.000000*%
%ADD13R,2.032000X1.727200*%
%ADD14O,2.032000X1.727200*%
%ADD15C,0.500000*%
%ADD16C,0.254000*%
G04 APERTURE END LIST*
D10*
D11*
X147000000Y-65000000D03*
D12*
X149700020Y-67700020D03*
X149700020Y-62299980D03*
X144299980Y-62299980D03*
X144299980Y-67700020D03*
D11*
X147000000Y-75000000D03*
D12*
X149700020Y-77700020D03*
X149700020Y-72299980D03*
X144299980Y-72299980D03*
X144299980Y-77700020D03*
D11*
X147000000Y-55000000D03*
D12*
X149700020Y-57700020D03*
X149700020Y-52299980D03*
X144299980Y-52299980D03*
X144299980Y-57700020D03*
D13*
X137000000Y-55000000D03*
D14*
X137000000Y-57540000D03*
X137000000Y-60080000D03*
X137000000Y-62620000D03*
X137000000Y-65160000D03*
X137000000Y-67700000D03*
D11*
X147000000Y-85000000D03*
D12*
X149700020Y-87700020D03*
X149700020Y-82299980D03*
X144299980Y-82299980D03*
X144299980Y-87700020D03*
D13*
X125000000Y-55000000D03*
D14*
X125000000Y-57540000D03*
X125000000Y-60080000D03*
X125000000Y-62620000D03*
X125000000Y-65160000D03*
X125000000Y-67700000D03*
D13*
X112500000Y-55000000D03*
D14*
X112500000Y-57540000D03*
X112500000Y-60080000D03*
X112500000Y-62620000D03*
X112500000Y-65160000D03*
X112500000Y-67700000D03*
D13*
X100000000Y-55000000D03*
D14*
X100000000Y-57540000D03*
X100000000Y-60080000D03*
X100000000Y-62620000D03*
X100000000Y-65160000D03*
X100000000Y-67700000D03*
D15*
X125000000Y-55000000D02*
X137000000Y-55000000D01*
X112500000Y-55000000D02*
X125000000Y-55000000D01*
X100000000Y-55000000D02*
X112500000Y-55000000D01*
X147000000Y-55000000D02*
X137000000Y-55000000D01*
X112500000Y-57540000D02*
X100000000Y-57540000D01*
X125000000Y-57540000D02*
X112500000Y-57540000D01*
X125000000Y-57540000D02*
X137000000Y-57540000D01*
X143000000Y-65000000D02*
X141000000Y-63000000D01*
X147000000Y-65000000D02*
X143000000Y-65000000D01*
X140540000Y-57540000D02*
X137000000Y-57540000D01*
X141000000Y-58000000D02*
X140540000Y-57540000D01*
X141000000Y-63000000D02*
X141000000Y-58000000D01*
X137000000Y-60080000D02*
X125000000Y-60080000D01*
X125000000Y-60080000D02*
X112500000Y-60080000D01*
X112500000Y-60080000D02*
X100000000Y-60080000D01*
X100000000Y-62620000D02*
X112500000Y-62620000D01*
X112500000Y-62620000D02*
X125000000Y-62620000D01*
X125000000Y-62620000D02*
X137000000Y-62620000D01*
X142000000Y-85000000D02*
X139000000Y-82000000D01*
X147000000Y-85000000D02*
X142000000Y-85000000D01*
X139000000Y-64620000D02*
X137000000Y-62620000D01*
X139000000Y-82000000D02*
X139000000Y-64620000D01*
X137000000Y-65160000D02*
X125000000Y-65160000D01*
X125000000Y-65160000D02*
X112500000Y-65160000D01*
X112500000Y-65160000D02*
X100000000Y-65160000D01*
D16*
G36*
X151569000Y-87297627D02*
X151295584Y-86635911D01*
X150895858Y-86235487D01*
X150895858Y-83675424D01*
X149700020Y-82479585D01*
X149520415Y-82659190D01*
X149520415Y-82299980D01*
X148324576Y-81104142D01*
X148077203Y-81277915D01*
X147809605Y-81976740D01*
X147829806Y-82724776D01*
X148077203Y-83322045D01*
X148324576Y-83495818D01*
X149520415Y-82299980D01*
X149520415Y-82659190D01*
X148504182Y-83675424D01*
X148677955Y-83922797D01*
X149376780Y-84190395D01*
X150124816Y-84170194D01*
X150722085Y-83922797D01*
X150895858Y-83675424D01*
X150895858Y-86235487D01*
X150766912Y-86106316D01*
X150075816Y-85819347D01*
X149327507Y-85818694D01*
X148635911Y-86104456D01*
X148380729Y-86359193D01*
X148380729Y-84726608D01*
X148171005Y-84219037D01*
X147783006Y-83830360D01*
X147275801Y-83619751D01*
X146726608Y-83619271D01*
X146219037Y-83828995D01*
X146181306Y-83866660D01*
X146181306Y-81927467D01*
X146181306Y-77327507D01*
X145895544Y-76635911D01*
X145366872Y-76106316D01*
X144675776Y-75819347D01*
X143927467Y-75818694D01*
X143235871Y-76104456D01*
X142706276Y-76633128D01*
X142419307Y-77324224D01*
X142418654Y-78072533D01*
X142704416Y-78764129D01*
X143233088Y-79293724D01*
X143924184Y-79580693D01*
X144672493Y-79581346D01*
X145364089Y-79295584D01*
X145893684Y-78766912D01*
X146180653Y-78075816D01*
X146181306Y-77327507D01*
X146181306Y-81927467D01*
X145895544Y-81235871D01*
X145366872Y-80706276D01*
X144675776Y-80419307D01*
X143927467Y-80418654D01*
X143235871Y-80704416D01*
X142706276Y-81233088D01*
X142419307Y-81924184D01*
X142418654Y-82672493D01*
X142704416Y-83364089D01*
X143233088Y-83893684D01*
X143924184Y-84180653D01*
X144672493Y-84181306D01*
X145364089Y-83895544D01*
X145893684Y-83366872D01*
X146180653Y-82675776D01*
X146181306Y-81927467D01*
X146181306Y-83866660D01*
X145830360Y-84216994D01*
X145767241Y-84369000D01*
X142261368Y-84369000D01*
X139631000Y-81738631D01*
X139631000Y-64620000D01*
X139590936Y-64418589D01*
X139582968Y-64378527D01*
X139582968Y-64378526D01*
X139446184Y-64173816D01*
X138336104Y-63063736D01*
X138424369Y-62620000D01*
X138424369Y-60080000D01*
X138329629Y-59603712D01*
X138059834Y-59199935D01*
X137656057Y-58930140D01*
X137179769Y-58835400D01*
X136820231Y-58835400D01*
X136343943Y-58930140D01*
X135940166Y-59199935D01*
X135773746Y-59449000D01*
X126226253Y-59449000D01*
X126059834Y-59199935D01*
X125656057Y-58930140D01*
X125179769Y-58835400D01*
X124820231Y-58835400D01*
X124343943Y-58930140D01*
X123940166Y-59199935D01*
X123773746Y-59449000D01*
X113726253Y-59449000D01*
X113559834Y-59199935D01*
X113156057Y-58930140D01*
X112679769Y-58835400D01*
X112320231Y-58835400D01*
X111843943Y-58930140D01*
X111440166Y-59199935D01*
X111273746Y-59449000D01*
X101226253Y-59449000D01*
X101059834Y-59199935D01*
X100656057Y-58930140D01*
X100179769Y-58835400D01*
X99820231Y-58835400D01*
X99343943Y-58930140D01*
X98940166Y-59199935D01*
X98670371Y-59603712D01*
X98575631Y-60080000D01*
X98670371Y-60556288D01*
X98940166Y-60960065D01*
X99343943Y-61229860D01*
X99820231Y-61324600D01*
X100179769Y-61324600D01*
X100656057Y-61229860D01*
X101059834Y-60960065D01*
X101226253Y-60711000D01*
X111273746Y-60711000D01*
X111440166Y-60960065D01*
X111843943Y-61229860D01*
X112320231Y-61324600D01*
X112679769Y-61324600D01*
X113156057Y-61229860D01*
X113559834Y-60960065D01*
X113726253Y-60711000D01*
X123773746Y-60711000D01*
X123940166Y-60960065D01*
X124343943Y-61229860D01*
X124820231Y-61324600D01*
X125179769Y-61324600D01*
X125656057Y-61229860D01*
X126059834Y-60960065D01*
X126226253Y-60711000D01*
X135773746Y-60711000D01*
X135940166Y-60960065D01*
X136343943Y-61229860D01*
X136820231Y-61324600D01*
X137179769Y-61324600D01*
X137656057Y-61229860D01*
X138059834Y-60960065D01*
X138329629Y-60556288D01*
X138424369Y-60080000D01*
X138424369Y-62620000D01*
X138329629Y-62143712D01*
X138059834Y-61739935D01*
X137656057Y-61470140D01*
X137179769Y-61375400D01*
X136820231Y-61375400D01*
X136343943Y-61470140D01*
X135940166Y-61739935D01*
X135773746Y-61989000D01*
X126226253Y-61989000D01*
X126059834Y-61739935D01*
X125656057Y-61470140D01*
X125179769Y-61375400D01*
X124820231Y-61375400D01*
X124343943Y-61470140D01*
X123940166Y-61739935D01*
X123773746Y-61989000D01*
X113726253Y-61989000D01*
X113559834Y-61739935D01*
X113156057Y-61470140D01*
X112679769Y-61375400D01*
X112320231Y-61375400D01*
X111843943Y-61470140D01*
X111440166Y-61739935D01*
X111273746Y-61989000D01*
X101226253Y-61989000D01*
X101059834Y-61739935D01*
X100656057Y-61470140D01*
X100179769Y-61375400D01*
X99820231Y-61375400D01*
X99343943Y-61470140D01*
X98940166Y-61739935D01*
X98670371Y-62143712D01*
X98575631Y-62620000D01*
X98670371Y-63096288D01*
X98940166Y-63500065D01*
X99343943Y-63769860D01*
X99820231Y-63864600D01*
X100179769Y-63864600D01*
X100656057Y-63769860D01*
X101059834Y-63500065D01*
X101226253Y-63251000D01*
X111273746Y-63251000D01*
X111440166Y-63500065D01*
X111843943Y-63769860D01*
X112320231Y-63864600D01*
X112679769Y-63864600D01*
X113156057Y-63769860D01*
X113559834Y-63500065D01*
X113726253Y-63251000D01*
X123773746Y-63251000D01*
X123940166Y-63500065D01*
X124343943Y-63769860D01*
X124820231Y-63864600D01*
X125179769Y-63864600D01*
X125656057Y-63769860D01*
X126059834Y-63500065D01*
X126226253Y-63251000D01*
X135773746Y-63251000D01*
X135940166Y-63500065D01*
X136343943Y-63769860D01*
X136820231Y-63864600D01*
X137179769Y-63864600D01*
X137323618Y-63835986D01*
X137458469Y-63970837D01*
X137179769Y-63915400D01*
X136820231Y-63915400D01*
X136343943Y-64010140D01*
X135940166Y-64279935D01*
X135773746Y-64529000D01*
X126226253Y-64529000D01*
X126059834Y-64279935D01*
X125656057Y-64010140D01*
X125179769Y-63915400D01*
X124820231Y-63915400D01*
X124343943Y-64010140D01*
X123940166Y-64279935D01*
X123773746Y-64529000D01*
X113726253Y-64529000D01*
X113559834Y-64279935D01*
X113156057Y-64010140D01*
X112679769Y-63915400D01*
X112320231Y-63915400D01*
X111843943Y-64010140D01*
X111440166Y-64279935D01*
X111273746Y-64529000D01*
X101226253Y-64529000D01*
X101059834Y-64279935D01*
X100656057Y-64010140D01*
X100179769Y-63915400D01*
X99820231Y-63915400D01*
X99343943Y-64010140D01*
X98940166Y-64279935D01*
X98670371Y-64683712D01*
X98575631Y-65160000D01*
X98670371Y-65636288D01*
X98940166Y-66040065D01*
X99343943Y-66309860D01*
X99820231Y-66404600D01*
X100179769Y-66404600D01*
X100656057Y-66309860D01*
X101059834Y-66040065D01*
X101226253Y-65791000D01*
X111273746Y-65791000D01*
X111440166Y-66040065D01*
X111843943Y-66309860D01*
X112320231Y-66404600D01*
X112679769Y-66404600D01*
X113156057Y-66309860D01*
X113559834Y-66040065D01*
X113726253Y-65791000D01*
X123773746Y-65791000D01*
X123940166Y-66040065D01*
X124343943Y-66309860D01*
X124820231Y-66404600D01*
X125179769Y-66404600D01*
X125656057Y-66309860D01*
X126059834Y-66040065D01*
X126226253Y-65791000D01*
X135773746Y-65791000D01*
X135940166Y-66040065D01*
X136343943Y-66309860D01*
X136820231Y-66404600D01*
X137179769Y-66404600D01*
X137656057Y-66309860D01*
X138059834Y-66040065D01*
X138329629Y-65636288D01*
X138369000Y-65438357D01*
X138369000Y-67572998D01*
X138355393Y-67572998D01*
X138294712Y-67572998D01*
X138355393Y-67380882D01*
X138145419Y-66947133D01*
X137781720Y-66624430D01*
X137322213Y-66465473D01*
X137127000Y-66549357D01*
X137127000Y-67573000D01*
X137147000Y-67573000D01*
X137147000Y-67827000D01*
X137127000Y-67827000D01*
X137127000Y-68850643D01*
X137322213Y-68934527D01*
X137781720Y-68775570D01*
X138145419Y-68452867D01*
X138355393Y-68019118D01*
X138294712Y-67827002D01*
X138355393Y-67827002D01*
X138369000Y-67827002D01*
X138369000Y-82000000D01*
X138417032Y-82241473D01*
X138553816Y-82446184D01*
X141553816Y-85446185D01*
X141758527Y-85582968D01*
X142000000Y-85631000D01*
X145767031Y-85631000D01*
X145828995Y-85780963D01*
X146216994Y-86169640D01*
X146724199Y-86380249D01*
X147273392Y-86380729D01*
X147780963Y-86171005D01*
X148169640Y-85783006D01*
X148380249Y-85275801D01*
X148380729Y-84726608D01*
X148380729Y-86359193D01*
X148106316Y-86633128D01*
X147819347Y-87324224D01*
X147818694Y-88072533D01*
X148104456Y-88764129D01*
X148633128Y-89293724D01*
X149296064Y-89569000D01*
X144702372Y-89569000D01*
X145364089Y-89295584D01*
X145893684Y-88766912D01*
X146180653Y-88075816D01*
X146181306Y-87327507D01*
X145895544Y-86635911D01*
X145366872Y-86106316D01*
X144675776Y-85819347D01*
X143927467Y-85818694D01*
X143235871Y-86104456D01*
X142706276Y-86633128D01*
X142419307Y-87324224D01*
X142418654Y-88072533D01*
X142704416Y-88764129D01*
X143233088Y-89293724D01*
X143896024Y-89569000D01*
X138355393Y-89569000D01*
X136873000Y-89569000D01*
X136873000Y-68850643D01*
X136873000Y-67827000D01*
X136873000Y-67573000D01*
X136873000Y-66549357D01*
X136677787Y-66465473D01*
X136218280Y-66624430D01*
X135854581Y-66947133D01*
X135644607Y-67380882D01*
X135705288Y-67573000D01*
X136873000Y-67573000D01*
X136873000Y-67827000D01*
X135705288Y-67827000D01*
X135644607Y-68019118D01*
X135854581Y-68452867D01*
X136218280Y-68775570D01*
X136677787Y-68934527D01*
X136873000Y-68850643D01*
X136873000Y-89569000D01*
X126355393Y-89569000D01*
X126355393Y-68019118D01*
X126355393Y-67380882D01*
X126145419Y-66947133D01*
X125781720Y-66624430D01*
X125322213Y-66465473D01*
X125127000Y-66549357D01*
X125127000Y-67573000D01*
X126294712Y-67573000D01*
X126355393Y-67380882D01*
X126355393Y-68019118D01*
X126294712Y-67827000D01*
X125127000Y-67827000D01*
X125127000Y-68850643D01*
X125322213Y-68934527D01*
X125781720Y-68775570D01*
X126145419Y-68452867D01*
X126355393Y-68019118D01*
X126355393Y-89569000D01*
X124873000Y-89569000D01*
X124873000Y-68850643D01*
X124873000Y-67827000D01*
X124873000Y-67573000D01*
X124873000Y-66549357D01*
X124677787Y-66465473D01*
X124218280Y-66624430D01*
X123854581Y-66947133D01*
X123644607Y-67380882D01*
X123705288Y-67573000D01*
X124873000Y-67573000D01*
X124873000Y-67827000D01*
X123705288Y-67827000D01*
X123644607Y-68019118D01*
X123854581Y-68452867D01*
X124218280Y-68775570D01*
X124677787Y-68934527D01*
X124873000Y-68850643D01*
X124873000Y-89569000D01*
X113855393Y-89569000D01*
X113855393Y-68019118D01*
X113855393Y-67380882D01*
X113645419Y-66947133D01*
X113281720Y-66624430D01*
X112822213Y-66465473D01*
X112627000Y-66549357D01*
X112627000Y-67573000D01*
X113794712Y-67573000D01*
X113855393Y-67380882D01*
X113855393Y-68019118D01*
X113794712Y-67827000D01*
X112627000Y-67827000D01*
X112627000Y-68850643D01*
X112822213Y-68934527D01*
X113281720Y-68775570D01*
X113645419Y-68452867D01*
X113855393Y-68019118D01*
X113855393Y-89569000D01*
X112373000Y-89569000D01*
X112373000Y-68850643D01*
X112373000Y-67827000D01*
X112373000Y-67573000D01*
X112373000Y-66549357D01*
X112177787Y-66465473D01*
X111718280Y-66624430D01*
X111354581Y-66947133D01*
X111144607Y-67380882D01*
X111205288Y-67573000D01*
X112373000Y-67573000D01*
X112373000Y-67827000D01*
X111205288Y-67827000D01*
X111144607Y-68019118D01*
X111354581Y-68452867D01*
X111718280Y-68775570D01*
X112177787Y-68934527D01*
X112373000Y-68850643D01*
X112373000Y-89569000D01*
X101355393Y-89569000D01*
X101355393Y-68019118D01*
X101355393Y-67380882D01*
X101145419Y-66947133D01*
X100781720Y-66624430D01*
X100322213Y-66465473D01*
X100127000Y-66549357D01*
X100127000Y-67573000D01*
X101294712Y-67573000D01*
X101355393Y-67380882D01*
X101355393Y-68019118D01*
X101294712Y-67827000D01*
X100127000Y-67827000D01*
X100127000Y-68850643D01*
X100322213Y-68934527D01*
X100781720Y-68775570D01*
X101145419Y-68452867D01*
X101355393Y-68019118D01*
X101355393Y-89569000D01*
X99873000Y-89569000D01*
X99873000Y-68850643D01*
X99873000Y-67827000D01*
X99873000Y-67573000D01*
X99873000Y-66549357D01*
X99677787Y-66465473D01*
X99218280Y-66624430D01*
X98854581Y-66947133D01*
X98644607Y-67380882D01*
X98705288Y-67573000D01*
X99873000Y-67573000D01*
X99873000Y-67827000D01*
X98705288Y-67827000D01*
X98644607Y-68019118D01*
X98854581Y-68452867D01*
X99218280Y-68775570D01*
X99677787Y-68934527D01*
X99873000Y-68850643D01*
X99873000Y-89569000D01*
X97431000Y-89569000D01*
X97431000Y-50431000D01*
X143897587Y-50431000D01*
X143235871Y-50704416D01*
X142706276Y-51233088D01*
X142419307Y-51924184D01*
X142418654Y-52672493D01*
X142704416Y-53364089D01*
X143233088Y-53893684D01*
X143924184Y-54180653D01*
X144672493Y-54181306D01*
X145364089Y-53895544D01*
X145893684Y-53366872D01*
X146180653Y-52675776D01*
X146181306Y-51927467D01*
X145895544Y-51235871D01*
X145366872Y-50706276D01*
X144703935Y-50431000D01*
X149272244Y-50431000D01*
X148677955Y-50677163D01*
X148504182Y-50924536D01*
X149700020Y-52120375D01*
X150895858Y-50924536D01*
X150722085Y-50677163D01*
X150079236Y-50431000D01*
X151569000Y-50431000D01*
X151569000Y-51872204D01*
X151322837Y-51277915D01*
X151075464Y-51104142D01*
X149879625Y-52299980D01*
X151075464Y-53495818D01*
X151322837Y-53322045D01*
X151569000Y-52679196D01*
X151569000Y-57297627D01*
X151295584Y-56635911D01*
X150895858Y-56235487D01*
X150895858Y-53675424D01*
X149700020Y-52479585D01*
X149520415Y-52659190D01*
X149520415Y-52299980D01*
X148324576Y-51104142D01*
X148077203Y-51277915D01*
X147809605Y-51976740D01*
X147829806Y-52724776D01*
X148077203Y-53322045D01*
X148324576Y-53495818D01*
X149520415Y-52299980D01*
X149520415Y-52659190D01*
X148504182Y-53675424D01*
X148677955Y-53922797D01*
X149376780Y-54190395D01*
X150124816Y-54170194D01*
X150722085Y-53922797D01*
X150895858Y-53675424D01*
X150895858Y-56235487D01*
X150766912Y-56106316D01*
X150075816Y-55819347D01*
X149327507Y-55818694D01*
X148635911Y-56104456D01*
X148380729Y-56359193D01*
X148380729Y-54726608D01*
X148171005Y-54219037D01*
X147783006Y-53830360D01*
X147275801Y-53619751D01*
X146726608Y-53619271D01*
X146219037Y-53828995D01*
X145830360Y-54216994D01*
X145767241Y-54369000D01*
X138397000Y-54369000D01*
X138397000Y-54060614D01*
X138338996Y-53920580D01*
X138231819Y-53813404D01*
X138091785Y-53755400D01*
X137940214Y-53755400D01*
X135908214Y-53755400D01*
X135768180Y-53813404D01*
X135661004Y-53920581D01*
X135603000Y-54060615D01*
X135603000Y-54212186D01*
X135603000Y-54369000D01*
X126397000Y-54369000D01*
X126397000Y-54060614D01*
X126338996Y-53920580D01*
X126231819Y-53813404D01*
X126091785Y-53755400D01*
X125940214Y-53755400D01*
X123908214Y-53755400D01*
X123768180Y-53813404D01*
X123661004Y-53920581D01*
X123603000Y-54060615D01*
X123603000Y-54212186D01*
X123603000Y-54369000D01*
X113897000Y-54369000D01*
X113897000Y-54060614D01*
X113838996Y-53920580D01*
X113731819Y-53813404D01*
X113591785Y-53755400D01*
X113440214Y-53755400D01*
X111408214Y-53755400D01*
X111268180Y-53813404D01*
X111161004Y-53920581D01*
X111103000Y-54060615D01*
X111103000Y-54212186D01*
X111103000Y-54369000D01*
X101397000Y-54369000D01*
X101397000Y-54060614D01*
X101338996Y-53920580D01*
X101231819Y-53813404D01*
X101091785Y-53755400D01*
X100940214Y-53755400D01*
X98908214Y-53755400D01*
X98768180Y-53813404D01*
X98661004Y-53920581D01*
X98603000Y-54060615D01*
X98603000Y-54212186D01*
X98603000Y-55939386D01*
X98661004Y-56079420D01*
X98768181Y-56186596D01*
X98908215Y-56244600D01*
X99059786Y-56244600D01*
X101091786Y-56244600D01*
X101231820Y-56186596D01*
X101338996Y-56079419D01*
X101397000Y-55939385D01*
X101397000Y-55787814D01*
X101397000Y-55631000D01*
X111103000Y-55631000D01*
X111103000Y-55939386D01*
X111161004Y-56079420D01*
X111268181Y-56186596D01*
X111408215Y-56244600D01*
X111559786Y-56244600D01*
X113591786Y-56244600D01*
X113731820Y-56186596D01*
X113838996Y-56079419D01*
X113897000Y-55939385D01*
X113897000Y-55787814D01*
X113897000Y-55631000D01*
X123603000Y-55631000D01*
X123603000Y-55939386D01*
X123661004Y-56079420D01*
X123768181Y-56186596D01*
X123908215Y-56244600D01*
X124059786Y-56244600D01*
X126091786Y-56244600D01*
X126231820Y-56186596D01*
X126338996Y-56079419D01*
X126397000Y-55939385D01*
X126397000Y-55787814D01*
X126397000Y-55631000D01*
X135603000Y-55631000D01*
X135603000Y-55939386D01*
X135661004Y-56079420D01*
X135768181Y-56186596D01*
X135908215Y-56244600D01*
X136059786Y-56244600D01*
X138091786Y-56244600D01*
X138231820Y-56186596D01*
X138338996Y-56079419D01*
X138397000Y-55939385D01*
X138397000Y-55787814D01*
X138397000Y-55631000D01*
X145767031Y-55631000D01*
X145828995Y-55780963D01*
X146216994Y-56169640D01*
X146724199Y-56380249D01*
X147273392Y-56380729D01*
X147780963Y-56171005D01*
X148169640Y-55783006D01*
X148380249Y-55275801D01*
X148380729Y-54726608D01*
X148380729Y-56359193D01*
X148106316Y-56633128D01*
X147819347Y-57324224D01*
X147818694Y-58072533D01*
X148104456Y-58764129D01*
X148633128Y-59293724D01*
X149324224Y-59580693D01*
X150072533Y-59581346D01*
X150764129Y-59295584D01*
X151293724Y-58766912D01*
X151569000Y-58103975D01*
X151569000Y-61872204D01*
X151322837Y-61277915D01*
X151075464Y-61104142D01*
X150895858Y-61283747D01*
X150895858Y-60924536D01*
X150722085Y-60677163D01*
X150023260Y-60409565D01*
X149275224Y-60429766D01*
X148677955Y-60677163D01*
X148504182Y-60924536D01*
X149700020Y-62120375D01*
X150895858Y-60924536D01*
X150895858Y-61283747D01*
X149879625Y-62299980D01*
X151075464Y-63495818D01*
X151322837Y-63322045D01*
X151569000Y-62679196D01*
X151569000Y-67297627D01*
X151295584Y-66635911D01*
X150895858Y-66235487D01*
X150895858Y-63675424D01*
X149700020Y-62479585D01*
X149520415Y-62659190D01*
X149520415Y-62299980D01*
X148324576Y-61104142D01*
X148077203Y-61277915D01*
X147809605Y-61976740D01*
X147829806Y-62724776D01*
X148077203Y-63322045D01*
X148324576Y-63495818D01*
X149520415Y-62299980D01*
X149520415Y-62659190D01*
X148504182Y-63675424D01*
X148677955Y-63922797D01*
X149376780Y-64190395D01*
X150124816Y-64170194D01*
X150722085Y-63922797D01*
X150895858Y-63675424D01*
X150895858Y-66235487D01*
X150766912Y-66106316D01*
X150075816Y-65819347D01*
X149327507Y-65818694D01*
X148635911Y-66104456D01*
X148380729Y-66359193D01*
X148380729Y-64726608D01*
X148171005Y-64219037D01*
X147783006Y-63830360D01*
X147275801Y-63619751D01*
X146726608Y-63619271D01*
X146219037Y-63828995D01*
X146181306Y-63866660D01*
X146181306Y-61927467D01*
X146181306Y-57327507D01*
X145895544Y-56635911D01*
X145366872Y-56106316D01*
X144675776Y-55819347D01*
X143927467Y-55818694D01*
X143235871Y-56104456D01*
X142706276Y-56633128D01*
X142419307Y-57324224D01*
X142418654Y-58072533D01*
X142704416Y-58764129D01*
X143233088Y-59293724D01*
X143924184Y-59580693D01*
X144672493Y-59581346D01*
X145364089Y-59295584D01*
X145893684Y-58766912D01*
X146180653Y-58075816D01*
X146181306Y-57327507D01*
X146181306Y-61927467D01*
X145895544Y-61235871D01*
X145366872Y-60706276D01*
X144675776Y-60419307D01*
X143927467Y-60418654D01*
X143235871Y-60704416D01*
X142706276Y-61233088D01*
X142419307Y-61924184D01*
X142418654Y-62672493D01*
X142704416Y-63364089D01*
X143233088Y-63893684D01*
X143924184Y-64180653D01*
X144672493Y-64181306D01*
X145364089Y-63895544D01*
X145893684Y-63366872D01*
X146180653Y-62675776D01*
X146181306Y-61927467D01*
X146181306Y-63866660D01*
X145830360Y-64216994D01*
X145767241Y-64369000D01*
X143261368Y-64369000D01*
X141631000Y-62738632D01*
X141631000Y-58000000D01*
X141590936Y-57798589D01*
X141582968Y-57758527D01*
X141582968Y-57758526D01*
X141446184Y-57553816D01*
X141446184Y-57553815D01*
X140986184Y-57093816D01*
X140781473Y-56957032D01*
X140540000Y-56909000D01*
X138226253Y-56909000D01*
X138059834Y-56659935D01*
X137656057Y-56390140D01*
X137179769Y-56295400D01*
X136820231Y-56295400D01*
X136343943Y-56390140D01*
X135940166Y-56659935D01*
X135773746Y-56909000D01*
X126226253Y-56909000D01*
X126059834Y-56659935D01*
X125656057Y-56390140D01*
X125179769Y-56295400D01*
X124820231Y-56295400D01*
X124343943Y-56390140D01*
X123940166Y-56659935D01*
X123773746Y-56909000D01*
X113726253Y-56909000D01*
X113559834Y-56659935D01*
X113156057Y-56390140D01*
X112679769Y-56295400D01*
X112320231Y-56295400D01*
X111843943Y-56390140D01*
X111440166Y-56659935D01*
X111273746Y-56909000D01*
X101226253Y-56909000D01*
X101059834Y-56659935D01*
X100656057Y-56390140D01*
X100179769Y-56295400D01*
X99820231Y-56295400D01*
X99343943Y-56390140D01*
X98940166Y-56659935D01*
X98670371Y-57063712D01*
X98575631Y-57540000D01*
X98670371Y-58016288D01*
X98940166Y-58420065D01*
X99343943Y-58689860D01*
X99820231Y-58784600D01*
X100179769Y-58784600D01*
X100656057Y-58689860D01*
X101059834Y-58420065D01*
X101226253Y-58171000D01*
X111273746Y-58171000D01*
X111440166Y-58420065D01*
X111843943Y-58689860D01*
X112320231Y-58784600D01*
X112679769Y-58784600D01*
X113156057Y-58689860D01*
X113559834Y-58420065D01*
X113726253Y-58171000D01*
X123773746Y-58171000D01*
X123940166Y-58420065D01*
X124343943Y-58689860D01*
X124820231Y-58784600D01*
X125179769Y-58784600D01*
X125656057Y-58689860D01*
X126059834Y-58420065D01*
X126226253Y-58171000D01*
X135773746Y-58171000D01*
X135940166Y-58420065D01*
X136343943Y-58689860D01*
X136820231Y-58784600D01*
X137179769Y-58784600D01*
X137656057Y-58689860D01*
X138059834Y-58420065D01*
X138226253Y-58171000D01*
X140278631Y-58171000D01*
X140369000Y-58261368D01*
X140369000Y-63000000D01*
X140417032Y-63241473D01*
X140553816Y-63446184D01*
X142553816Y-65446184D01*
X142758526Y-65582968D01*
X142758527Y-65582968D01*
X142798589Y-65590936D01*
X143000000Y-65631000D01*
X145767031Y-65631000D01*
X145828995Y-65780963D01*
X146216994Y-66169640D01*
X146724199Y-66380249D01*
X147273392Y-66380729D01*
X147780963Y-66171005D01*
X148169640Y-65783006D01*
X148380249Y-65275801D01*
X148380729Y-64726608D01*
X148380729Y-66359193D01*
X148106316Y-66633128D01*
X147819347Y-67324224D01*
X147818694Y-68072533D01*
X148104456Y-68764129D01*
X148633128Y-69293724D01*
X149324224Y-69580693D01*
X150072533Y-69581346D01*
X150764129Y-69295584D01*
X151293724Y-68766912D01*
X151569000Y-68103975D01*
X151569000Y-71872204D01*
X151322837Y-71277915D01*
X151075464Y-71104142D01*
X150895858Y-71283747D01*
X150895858Y-70924536D01*
X150722085Y-70677163D01*
X150023260Y-70409565D01*
X149275224Y-70429766D01*
X148677955Y-70677163D01*
X148504182Y-70924536D01*
X149700020Y-72120375D01*
X150895858Y-70924536D01*
X150895858Y-71283747D01*
X149879625Y-72299980D01*
X151075464Y-73495818D01*
X151322837Y-73322045D01*
X151569000Y-72679196D01*
X151569000Y-77297627D01*
X151295584Y-76635911D01*
X150895858Y-76235487D01*
X150895858Y-73675424D01*
X149700020Y-72479585D01*
X149520415Y-72659190D01*
X149520415Y-72299980D01*
X148324576Y-71104142D01*
X148077203Y-71277915D01*
X147809605Y-71976740D01*
X147829806Y-72724776D01*
X148077203Y-73322045D01*
X148324576Y-73495818D01*
X149520415Y-72299980D01*
X149520415Y-72659190D01*
X148504182Y-73675424D01*
X148677955Y-73922797D01*
X149376780Y-74190395D01*
X150124816Y-74170194D01*
X150722085Y-73922797D01*
X150895858Y-73675424D01*
X150895858Y-76235487D01*
X150766912Y-76106316D01*
X150075816Y-75819347D01*
X149327507Y-75818694D01*
X148635911Y-76104456D01*
X148380729Y-76359193D01*
X148380729Y-74726608D01*
X148171005Y-74219037D01*
X147783006Y-73830360D01*
X147275801Y-73619751D01*
X146726608Y-73619271D01*
X146219037Y-73828995D01*
X146181306Y-73866660D01*
X146181306Y-71927467D01*
X146181306Y-67327507D01*
X145895544Y-66635911D01*
X145366872Y-66106316D01*
X144675776Y-65819347D01*
X143927467Y-65818694D01*
X143235871Y-66104456D01*
X142706276Y-66633128D01*
X142419307Y-67324224D01*
X142418654Y-68072533D01*
X142704416Y-68764129D01*
X143233088Y-69293724D01*
X143924184Y-69580693D01*
X144672493Y-69581346D01*
X145364089Y-69295584D01*
X145893684Y-68766912D01*
X146180653Y-68075816D01*
X146181306Y-67327507D01*
X146181306Y-71927467D01*
X145895544Y-71235871D01*
X145366872Y-70706276D01*
X144675776Y-70419307D01*
X143927467Y-70418654D01*
X143235871Y-70704416D01*
X142706276Y-71233088D01*
X142419307Y-71924184D01*
X142418654Y-72672493D01*
X142704416Y-73364089D01*
X143233088Y-73893684D01*
X143924184Y-74180653D01*
X144672493Y-74181306D01*
X145364089Y-73895544D01*
X145893684Y-73366872D01*
X146180653Y-72675776D01*
X146181306Y-71927467D01*
X146181306Y-73866660D01*
X145830360Y-74216994D01*
X145619751Y-74724199D01*
X145619271Y-75273392D01*
X145828995Y-75780963D01*
X146216994Y-76169640D01*
X146724199Y-76380249D01*
X147273392Y-76380729D01*
X147780963Y-76171005D01*
X148169640Y-75783006D01*
X148380249Y-75275801D01*
X148380729Y-74726608D01*
X148380729Y-76359193D01*
X148106316Y-76633128D01*
X147819347Y-77324224D01*
X147818694Y-78072533D01*
X148104456Y-78764129D01*
X148633128Y-79293724D01*
X149324224Y-79580693D01*
X150072533Y-79581346D01*
X150764129Y-79295584D01*
X151293724Y-78766912D01*
X151569000Y-78103975D01*
X151569000Y-81872204D01*
X151322837Y-81277915D01*
X151075464Y-81104142D01*
X150895858Y-81283747D01*
X150895858Y-80924536D01*
X150722085Y-80677163D01*
X150023260Y-80409565D01*
X149275224Y-80429766D01*
X148677955Y-80677163D01*
X148504182Y-80924536D01*
X149700020Y-82120375D01*
X150895858Y-80924536D01*
X150895858Y-81283747D01*
X149879625Y-82299980D01*
X151075464Y-83495818D01*
X151322837Y-83322045D01*
X151569000Y-82679196D01*
X151569000Y-87297627D01*
X151569000Y-87297627D01*
G37*
X151569000Y-87297627D02*
X151295584Y-86635911D01*
X150895858Y-86235487D01*
X150895858Y-83675424D01*
X149700020Y-82479585D01*
X149520415Y-82659190D01*
X149520415Y-82299980D01*
X148324576Y-81104142D01*
X148077203Y-81277915D01*
X147809605Y-81976740D01*
X147829806Y-82724776D01*
X148077203Y-83322045D01*
X148324576Y-83495818D01*
X149520415Y-82299980D01*
X149520415Y-82659190D01*
X148504182Y-83675424D01*
X148677955Y-83922797D01*
X149376780Y-84190395D01*
X150124816Y-84170194D01*
X150722085Y-83922797D01*
X150895858Y-83675424D01*
X150895858Y-86235487D01*
X150766912Y-86106316D01*
X150075816Y-85819347D01*
X149327507Y-85818694D01*
X148635911Y-86104456D01*
X148380729Y-86359193D01*
X148380729Y-84726608D01*
X148171005Y-84219037D01*
X147783006Y-83830360D01*
X147275801Y-83619751D01*
X146726608Y-83619271D01*
X146219037Y-83828995D01*
X146181306Y-83866660D01*
X146181306Y-81927467D01*
X146181306Y-77327507D01*
X145895544Y-76635911D01*
X145366872Y-76106316D01*
X144675776Y-75819347D01*
X143927467Y-75818694D01*
X143235871Y-76104456D01*
X142706276Y-76633128D01*
X142419307Y-77324224D01*
X142418654Y-78072533D01*
X142704416Y-78764129D01*
X143233088Y-79293724D01*
X143924184Y-79580693D01*
X144672493Y-79581346D01*
X145364089Y-79295584D01*
X145893684Y-78766912D01*
X146180653Y-78075816D01*
X146181306Y-77327507D01*
X146181306Y-81927467D01*
X145895544Y-81235871D01*
X145366872Y-80706276D01*
X144675776Y-80419307D01*
X143927467Y-80418654D01*
X143235871Y-80704416D01*
X142706276Y-81233088D01*
X142419307Y-81924184D01*
X142418654Y-82672493D01*
X142704416Y-83364089D01*
X143233088Y-83893684D01*
X143924184Y-84180653D01*
X144672493Y-84181306D01*
X145364089Y-83895544D01*
X145893684Y-83366872D01*
X146180653Y-82675776D01*
X146181306Y-81927467D01*
X146181306Y-83866660D01*
X145830360Y-84216994D01*
X145767241Y-84369000D01*
X142261368Y-84369000D01*
X139631000Y-81738631D01*
X139631000Y-64620000D01*
X139590936Y-64418589D01*
X139582968Y-64378527D01*
X139582968Y-64378526D01*
X139446184Y-64173816D01*
X138336104Y-63063736D01*
X138424369Y-62620000D01*
X138424369Y-60080000D01*
X138329629Y-59603712D01*
X138059834Y-59199935D01*
X137656057Y-58930140D01*
X137179769Y-58835400D01*
X136820231Y-58835400D01*
X136343943Y-58930140D01*
X135940166Y-59199935D01*
X135773746Y-59449000D01*
X126226253Y-59449000D01*
X126059834Y-59199935D01*
X125656057Y-58930140D01*
X125179769Y-58835400D01*
X124820231Y-58835400D01*
X124343943Y-58930140D01*
X123940166Y-59199935D01*
X123773746Y-59449000D01*
X113726253Y-59449000D01*
X113559834Y-59199935D01*
X113156057Y-58930140D01*
X112679769Y-58835400D01*
X112320231Y-58835400D01*
X111843943Y-58930140D01*
X111440166Y-59199935D01*
X111273746Y-59449000D01*
X101226253Y-59449000D01*
X101059834Y-59199935D01*
X100656057Y-58930140D01*
X100179769Y-58835400D01*
X99820231Y-58835400D01*
X99343943Y-58930140D01*
X98940166Y-59199935D01*
X98670371Y-59603712D01*
X98575631Y-60080000D01*
X98670371Y-60556288D01*
X98940166Y-60960065D01*
X99343943Y-61229860D01*
X99820231Y-61324600D01*
X100179769Y-61324600D01*
X100656057Y-61229860D01*
X101059834Y-60960065D01*
X101226253Y-60711000D01*
X111273746Y-60711000D01*
X111440166Y-60960065D01*
X111843943Y-61229860D01*
X112320231Y-61324600D01*
X112679769Y-61324600D01*
X113156057Y-61229860D01*
X113559834Y-60960065D01*
X113726253Y-60711000D01*
X123773746Y-60711000D01*
X123940166Y-60960065D01*
X124343943Y-61229860D01*
X124820231Y-61324600D01*
X125179769Y-61324600D01*
X125656057Y-61229860D01*
X126059834Y-60960065D01*
X126226253Y-60711000D01*
X135773746Y-60711000D01*
X135940166Y-60960065D01*
X136343943Y-61229860D01*
X136820231Y-61324600D01*
X137179769Y-61324600D01*
X137656057Y-61229860D01*
X138059834Y-60960065D01*
X138329629Y-60556288D01*
X138424369Y-60080000D01*
X138424369Y-62620000D01*
X138329629Y-62143712D01*
X138059834Y-61739935D01*
X137656057Y-61470140D01*
X137179769Y-61375400D01*
X136820231Y-61375400D01*
X136343943Y-61470140D01*
X135940166Y-61739935D01*
X135773746Y-61989000D01*
X126226253Y-61989000D01*
X126059834Y-61739935D01*
X125656057Y-61470140D01*
X125179769Y-61375400D01*
X124820231Y-61375400D01*
X124343943Y-61470140D01*
X123940166Y-61739935D01*
X123773746Y-61989000D01*
X113726253Y-61989000D01*
X113559834Y-61739935D01*
X113156057Y-61470140D01*
X112679769Y-61375400D01*
X112320231Y-61375400D01*
X111843943Y-61470140D01*
X111440166Y-61739935D01*
X111273746Y-61989000D01*
X101226253Y-61989000D01*
X101059834Y-61739935D01*
X100656057Y-61470140D01*
X100179769Y-61375400D01*
X99820231Y-61375400D01*
X99343943Y-61470140D01*
X98940166Y-61739935D01*
X98670371Y-62143712D01*
X98575631Y-62620000D01*
X98670371Y-63096288D01*
X98940166Y-63500065D01*
X99343943Y-63769860D01*
X99820231Y-63864600D01*
X100179769Y-63864600D01*
X100656057Y-63769860D01*
X101059834Y-63500065D01*
X101226253Y-63251000D01*
X111273746Y-63251000D01*
X111440166Y-63500065D01*
X111843943Y-63769860D01*
X112320231Y-63864600D01*
X112679769Y-63864600D01*
X113156057Y-63769860D01*
X113559834Y-63500065D01*
X113726253Y-63251000D01*
X123773746Y-63251000D01*
X123940166Y-63500065D01*
X124343943Y-63769860D01*
X124820231Y-63864600D01*
X125179769Y-63864600D01*
X125656057Y-63769860D01*
X126059834Y-63500065D01*
X126226253Y-63251000D01*
X135773746Y-63251000D01*
X135940166Y-63500065D01*
X136343943Y-63769860D01*
X136820231Y-63864600D01*
X137179769Y-63864600D01*
X137323618Y-63835986D01*
X137458469Y-63970837D01*
X137179769Y-63915400D01*
X136820231Y-63915400D01*
X136343943Y-64010140D01*
X135940166Y-64279935D01*
X135773746Y-64529000D01*
X126226253Y-64529000D01*
X126059834Y-64279935D01*
X125656057Y-64010140D01*
X125179769Y-63915400D01*
X124820231Y-63915400D01*
X124343943Y-64010140D01*
X123940166Y-64279935D01*
X123773746Y-64529000D01*
X113726253Y-64529000D01*
X113559834Y-64279935D01*
X113156057Y-64010140D01*
X112679769Y-63915400D01*
X112320231Y-63915400D01*
X111843943Y-64010140D01*
X111440166Y-64279935D01*
X111273746Y-64529000D01*
X101226253Y-64529000D01*
X101059834Y-64279935D01*
X100656057Y-64010140D01*
X100179769Y-63915400D01*
X99820231Y-63915400D01*
X99343943Y-64010140D01*
X98940166Y-64279935D01*
X98670371Y-64683712D01*
X98575631Y-65160000D01*
X98670371Y-65636288D01*
X98940166Y-66040065D01*
X99343943Y-66309860D01*
X99820231Y-66404600D01*
X100179769Y-66404600D01*
X100656057Y-66309860D01*
X101059834Y-66040065D01*
X101226253Y-65791000D01*
X111273746Y-65791000D01*
X111440166Y-66040065D01*
X111843943Y-66309860D01*
X112320231Y-66404600D01*
X112679769Y-66404600D01*
X113156057Y-66309860D01*
X113559834Y-66040065D01*
X113726253Y-65791000D01*
X123773746Y-65791000D01*
X123940166Y-66040065D01*
X124343943Y-66309860D01*
X124820231Y-66404600D01*
X125179769Y-66404600D01*
X125656057Y-66309860D01*
X126059834Y-66040065D01*
X126226253Y-65791000D01*
X135773746Y-65791000D01*
X135940166Y-66040065D01*
X136343943Y-66309860D01*
X136820231Y-66404600D01*
X137179769Y-66404600D01*
X137656057Y-66309860D01*
X138059834Y-66040065D01*
X138329629Y-65636288D01*
X138369000Y-65438357D01*
X138369000Y-67572998D01*
X138355393Y-67572998D01*
X138294712Y-67572998D01*
X138355393Y-67380882D01*
X138145419Y-66947133D01*
X137781720Y-66624430D01*
X137322213Y-66465473D01*
X137127000Y-66549357D01*
X137127000Y-67573000D01*
X137147000Y-67573000D01*
X137147000Y-67827000D01*
X137127000Y-67827000D01*
X137127000Y-68850643D01*
X137322213Y-68934527D01*
X137781720Y-68775570D01*
X138145419Y-68452867D01*
X138355393Y-68019118D01*
X138294712Y-67827002D01*
X138355393Y-67827002D01*
X138369000Y-67827002D01*
X138369000Y-82000000D01*
X138417032Y-82241473D01*
X138553816Y-82446184D01*
X141553816Y-85446185D01*
X141758527Y-85582968D01*
X142000000Y-85631000D01*
X145767031Y-85631000D01*
X145828995Y-85780963D01*
X146216994Y-86169640D01*
X146724199Y-86380249D01*
X147273392Y-86380729D01*
X147780963Y-86171005D01*
X148169640Y-85783006D01*
X148380249Y-85275801D01*
X148380729Y-84726608D01*
X148380729Y-86359193D01*
X148106316Y-86633128D01*
X147819347Y-87324224D01*
X147818694Y-88072533D01*
X148104456Y-88764129D01*
X148633128Y-89293724D01*
X149296064Y-89569000D01*
X144702372Y-89569000D01*
X145364089Y-89295584D01*
X145893684Y-88766912D01*
X146180653Y-88075816D01*
X146181306Y-87327507D01*
X145895544Y-86635911D01*
X145366872Y-86106316D01*
X144675776Y-85819347D01*
X143927467Y-85818694D01*
X143235871Y-86104456D01*
X142706276Y-86633128D01*
X142419307Y-87324224D01*
X142418654Y-88072533D01*
X142704416Y-88764129D01*
X143233088Y-89293724D01*
X143896024Y-89569000D01*
X138355393Y-89569000D01*
X136873000Y-89569000D01*
X136873000Y-68850643D01*
X136873000Y-67827000D01*
X136873000Y-67573000D01*
X136873000Y-66549357D01*
X136677787Y-66465473D01*
X136218280Y-66624430D01*
X135854581Y-66947133D01*
X135644607Y-67380882D01*
X135705288Y-67573000D01*
X136873000Y-67573000D01*
X136873000Y-67827000D01*
X135705288Y-67827000D01*
X135644607Y-68019118D01*
X135854581Y-68452867D01*
X136218280Y-68775570D01*
X136677787Y-68934527D01*
X136873000Y-68850643D01*
X136873000Y-89569000D01*
X126355393Y-89569000D01*
X126355393Y-68019118D01*
X126355393Y-67380882D01*
X126145419Y-66947133D01*
X125781720Y-66624430D01*
X125322213Y-66465473D01*
X125127000Y-66549357D01*
X125127000Y-67573000D01*
X126294712Y-67573000D01*
X126355393Y-67380882D01*
X126355393Y-68019118D01*
X126294712Y-67827000D01*
X125127000Y-67827000D01*
X125127000Y-68850643D01*
X125322213Y-68934527D01*
X125781720Y-68775570D01*
X126145419Y-68452867D01*
X126355393Y-68019118D01*
X126355393Y-89569000D01*
X124873000Y-89569000D01*
X124873000Y-68850643D01*
X124873000Y-67827000D01*
X124873000Y-67573000D01*
X124873000Y-66549357D01*
X124677787Y-66465473D01*
X124218280Y-66624430D01*
X123854581Y-66947133D01*
X123644607Y-67380882D01*
X123705288Y-67573000D01*
X124873000Y-67573000D01*
X124873000Y-67827000D01*
X123705288Y-67827000D01*
X123644607Y-68019118D01*
X123854581Y-68452867D01*
X124218280Y-68775570D01*
X124677787Y-68934527D01*
X124873000Y-68850643D01*
X124873000Y-89569000D01*
X113855393Y-89569000D01*
X113855393Y-68019118D01*
X113855393Y-67380882D01*
X113645419Y-66947133D01*
X113281720Y-66624430D01*
X112822213Y-66465473D01*
X112627000Y-66549357D01*
X112627000Y-67573000D01*
X113794712Y-67573000D01*
X113855393Y-67380882D01*
X113855393Y-68019118D01*
X113794712Y-67827000D01*
X112627000Y-67827000D01*
X112627000Y-68850643D01*
X112822213Y-68934527D01*
X113281720Y-68775570D01*
X113645419Y-68452867D01*
X113855393Y-68019118D01*
X113855393Y-89569000D01*
X112373000Y-89569000D01*
X112373000Y-68850643D01*
X112373000Y-67827000D01*
X112373000Y-67573000D01*
X112373000Y-66549357D01*
X112177787Y-66465473D01*
X111718280Y-66624430D01*
X111354581Y-66947133D01*
X111144607Y-67380882D01*
X111205288Y-67573000D01*
X112373000Y-67573000D01*
X112373000Y-67827000D01*
X111205288Y-67827000D01*
X111144607Y-68019118D01*
X111354581Y-68452867D01*
X111718280Y-68775570D01*
X112177787Y-68934527D01*
X112373000Y-68850643D01*
X112373000Y-89569000D01*
X101355393Y-89569000D01*
X101355393Y-68019118D01*
X101355393Y-67380882D01*
X101145419Y-66947133D01*
X100781720Y-66624430D01*
X100322213Y-66465473D01*
X100127000Y-66549357D01*
X100127000Y-67573000D01*
X101294712Y-67573000D01*
X101355393Y-67380882D01*
X101355393Y-68019118D01*
X101294712Y-67827000D01*
X100127000Y-67827000D01*
X100127000Y-68850643D01*
X100322213Y-68934527D01*
X100781720Y-68775570D01*
X101145419Y-68452867D01*
X101355393Y-68019118D01*
X101355393Y-89569000D01*
X99873000Y-89569000D01*
X99873000Y-68850643D01*
X99873000Y-67827000D01*
X99873000Y-67573000D01*
X99873000Y-66549357D01*
X99677787Y-66465473D01*
X99218280Y-66624430D01*
X98854581Y-66947133D01*
X98644607Y-67380882D01*
X98705288Y-67573000D01*
X99873000Y-67573000D01*
X99873000Y-67827000D01*
X98705288Y-67827000D01*
X98644607Y-68019118D01*
X98854581Y-68452867D01*
X99218280Y-68775570D01*
X99677787Y-68934527D01*
X99873000Y-68850643D01*
X99873000Y-89569000D01*
X97431000Y-89569000D01*
X97431000Y-50431000D01*
X143897587Y-50431000D01*
X143235871Y-50704416D01*
X142706276Y-51233088D01*
X142419307Y-51924184D01*
X142418654Y-52672493D01*
X142704416Y-53364089D01*
X143233088Y-53893684D01*
X143924184Y-54180653D01*
X144672493Y-54181306D01*
X145364089Y-53895544D01*
X145893684Y-53366872D01*
X146180653Y-52675776D01*
X146181306Y-51927467D01*
X145895544Y-51235871D01*
X145366872Y-50706276D01*
X144703935Y-50431000D01*
X149272244Y-50431000D01*
X148677955Y-50677163D01*
X148504182Y-50924536D01*
X149700020Y-52120375D01*
X150895858Y-50924536D01*
X150722085Y-50677163D01*
X150079236Y-50431000D01*
X151569000Y-50431000D01*
X151569000Y-51872204D01*
X151322837Y-51277915D01*
X151075464Y-51104142D01*
X149879625Y-52299980D01*
X151075464Y-53495818D01*
X151322837Y-53322045D01*
X151569000Y-52679196D01*
X151569000Y-57297627D01*
X151295584Y-56635911D01*
X150895858Y-56235487D01*
X150895858Y-53675424D01*
X149700020Y-52479585D01*
X149520415Y-52659190D01*
X149520415Y-52299980D01*
X148324576Y-51104142D01*
X148077203Y-51277915D01*
X147809605Y-51976740D01*
X147829806Y-52724776D01*
X148077203Y-53322045D01*
X148324576Y-53495818D01*
X149520415Y-52299980D01*
X149520415Y-52659190D01*
X148504182Y-53675424D01*
X148677955Y-53922797D01*
X149376780Y-54190395D01*
X150124816Y-54170194D01*
X150722085Y-53922797D01*
X150895858Y-53675424D01*
X150895858Y-56235487D01*
X150766912Y-56106316D01*
X150075816Y-55819347D01*
X149327507Y-55818694D01*
X148635911Y-56104456D01*
X148380729Y-56359193D01*
X148380729Y-54726608D01*
X148171005Y-54219037D01*
X147783006Y-53830360D01*
X147275801Y-53619751D01*
X146726608Y-53619271D01*
X146219037Y-53828995D01*
X145830360Y-54216994D01*
X145767241Y-54369000D01*
X138397000Y-54369000D01*
X138397000Y-54060614D01*
X138338996Y-53920580D01*
X138231819Y-53813404D01*
X138091785Y-53755400D01*
X137940214Y-53755400D01*
X135908214Y-53755400D01*
X135768180Y-53813404D01*
X135661004Y-53920581D01*
X135603000Y-54060615D01*
X135603000Y-54212186D01*
X135603000Y-54369000D01*
X126397000Y-54369000D01*
X126397000Y-54060614D01*
X126338996Y-53920580D01*
X126231819Y-53813404D01*
X126091785Y-53755400D01*
X125940214Y-53755400D01*
X123908214Y-53755400D01*
X123768180Y-53813404D01*
X123661004Y-53920581D01*
X123603000Y-54060615D01*
X123603000Y-54212186D01*
X123603000Y-54369000D01*
X113897000Y-54369000D01*
X113897000Y-54060614D01*
X113838996Y-53920580D01*
X113731819Y-53813404D01*
X113591785Y-53755400D01*
X113440214Y-53755400D01*
X111408214Y-53755400D01*
X111268180Y-53813404D01*
X111161004Y-53920581D01*
X111103000Y-54060615D01*
X111103000Y-54212186D01*
X111103000Y-54369000D01*
X101397000Y-54369000D01*
X101397000Y-54060614D01*
X101338996Y-53920580D01*
X101231819Y-53813404D01*
X101091785Y-53755400D01*
X100940214Y-53755400D01*
X98908214Y-53755400D01*
X98768180Y-53813404D01*
X98661004Y-53920581D01*
X98603000Y-54060615D01*
X98603000Y-54212186D01*
X98603000Y-55939386D01*
X98661004Y-56079420D01*
X98768181Y-56186596D01*
X98908215Y-56244600D01*
X99059786Y-56244600D01*
X101091786Y-56244600D01*
X101231820Y-56186596D01*
X101338996Y-56079419D01*
X101397000Y-55939385D01*
X101397000Y-55787814D01*
X101397000Y-55631000D01*
X111103000Y-55631000D01*
X111103000Y-55939386D01*
X111161004Y-56079420D01*
X111268181Y-56186596D01*
X111408215Y-56244600D01*
X111559786Y-56244600D01*
X113591786Y-56244600D01*
X113731820Y-56186596D01*
X113838996Y-56079419D01*
X113897000Y-55939385D01*
X113897000Y-55787814D01*
X113897000Y-55631000D01*
X123603000Y-55631000D01*
X123603000Y-55939386D01*
X123661004Y-56079420D01*
X123768181Y-56186596D01*
X123908215Y-56244600D01*
X124059786Y-56244600D01*
X126091786Y-56244600D01*
X126231820Y-56186596D01*
X126338996Y-56079419D01*
X126397000Y-55939385D01*
X126397000Y-55787814D01*
X126397000Y-55631000D01*
X135603000Y-55631000D01*
X135603000Y-55939386D01*
X135661004Y-56079420D01*
X135768181Y-56186596D01*
X135908215Y-56244600D01*
X136059786Y-56244600D01*
X138091786Y-56244600D01*
X138231820Y-56186596D01*
X138338996Y-56079419D01*
X138397000Y-55939385D01*
X138397000Y-55787814D01*
X138397000Y-55631000D01*
X145767031Y-55631000D01*
X145828995Y-55780963D01*
X146216994Y-56169640D01*
X146724199Y-56380249D01*
X147273392Y-56380729D01*
X147780963Y-56171005D01*
X148169640Y-55783006D01*
X148380249Y-55275801D01*
X148380729Y-54726608D01*
X148380729Y-56359193D01*
X148106316Y-56633128D01*
X147819347Y-57324224D01*
X147818694Y-58072533D01*
X148104456Y-58764129D01*
X148633128Y-59293724D01*
X149324224Y-59580693D01*
X150072533Y-59581346D01*
X150764129Y-59295584D01*
X151293724Y-58766912D01*
X151569000Y-58103975D01*
X151569000Y-61872204D01*
X151322837Y-61277915D01*
X151075464Y-61104142D01*
X150895858Y-61283747D01*
X150895858Y-60924536D01*
X150722085Y-60677163D01*
X150023260Y-60409565D01*
X149275224Y-60429766D01*
X148677955Y-60677163D01*
X148504182Y-60924536D01*
X149700020Y-62120375D01*
X150895858Y-60924536D01*
X150895858Y-61283747D01*
X149879625Y-62299980D01*
X151075464Y-63495818D01*
X151322837Y-63322045D01*
X151569000Y-62679196D01*
X151569000Y-67297627D01*
X151295584Y-66635911D01*
X150895858Y-66235487D01*
X150895858Y-63675424D01*
X149700020Y-62479585D01*
X149520415Y-62659190D01*
X149520415Y-62299980D01*
X148324576Y-61104142D01*
X148077203Y-61277915D01*
X147809605Y-61976740D01*
X147829806Y-62724776D01*
X148077203Y-63322045D01*
X148324576Y-63495818D01*
X149520415Y-62299980D01*
X149520415Y-62659190D01*
X148504182Y-63675424D01*
X148677955Y-63922797D01*
X149376780Y-64190395D01*
X150124816Y-64170194D01*
X150722085Y-63922797D01*
X150895858Y-63675424D01*
X150895858Y-66235487D01*
X150766912Y-66106316D01*
X150075816Y-65819347D01*
X149327507Y-65818694D01*
X148635911Y-66104456D01*
X148380729Y-66359193D01*
X148380729Y-64726608D01*
X148171005Y-64219037D01*
X147783006Y-63830360D01*
X147275801Y-63619751D01*
X146726608Y-63619271D01*
X146219037Y-63828995D01*
X146181306Y-63866660D01*
X146181306Y-61927467D01*
X146181306Y-57327507D01*
X145895544Y-56635911D01*
X145366872Y-56106316D01*
X144675776Y-55819347D01*
X143927467Y-55818694D01*
X143235871Y-56104456D01*
X142706276Y-56633128D01*
X142419307Y-57324224D01*
X142418654Y-58072533D01*
X142704416Y-58764129D01*
X143233088Y-59293724D01*
X143924184Y-59580693D01*
X144672493Y-59581346D01*
X145364089Y-59295584D01*
X145893684Y-58766912D01*
X146180653Y-58075816D01*
X146181306Y-57327507D01*
X146181306Y-61927467D01*
X145895544Y-61235871D01*
X145366872Y-60706276D01*
X144675776Y-60419307D01*
X143927467Y-60418654D01*
X143235871Y-60704416D01*
X142706276Y-61233088D01*
X142419307Y-61924184D01*
X142418654Y-62672493D01*
X142704416Y-63364089D01*
X143233088Y-63893684D01*
X143924184Y-64180653D01*
X144672493Y-64181306D01*
X145364089Y-63895544D01*
X145893684Y-63366872D01*
X146180653Y-62675776D01*
X146181306Y-61927467D01*
X146181306Y-63866660D01*
X145830360Y-64216994D01*
X145767241Y-64369000D01*
X143261368Y-64369000D01*
X141631000Y-62738632D01*
X141631000Y-58000000D01*
X141590936Y-57798589D01*
X141582968Y-57758527D01*
X141582968Y-57758526D01*
X141446184Y-57553816D01*
X141446184Y-57553815D01*
X140986184Y-57093816D01*
X140781473Y-56957032D01*
X140540000Y-56909000D01*
X138226253Y-56909000D01*
X138059834Y-56659935D01*
X137656057Y-56390140D01*
X137179769Y-56295400D01*
X136820231Y-56295400D01*
X136343943Y-56390140D01*
X135940166Y-56659935D01*
X135773746Y-56909000D01*
X126226253Y-56909000D01*
X126059834Y-56659935D01*
X125656057Y-56390140D01*
X125179769Y-56295400D01*
X124820231Y-56295400D01*
X124343943Y-56390140D01*
X123940166Y-56659935D01*
X123773746Y-56909000D01*
X113726253Y-56909000D01*
X113559834Y-56659935D01*
X113156057Y-56390140D01*
X112679769Y-56295400D01*
X112320231Y-56295400D01*
X111843943Y-56390140D01*
X111440166Y-56659935D01*
X111273746Y-56909000D01*
X101226253Y-56909000D01*
X101059834Y-56659935D01*
X100656057Y-56390140D01*
X100179769Y-56295400D01*
X99820231Y-56295400D01*
X99343943Y-56390140D01*
X98940166Y-56659935D01*
X98670371Y-57063712D01*
X98575631Y-57540000D01*
X98670371Y-58016288D01*
X98940166Y-58420065D01*
X99343943Y-58689860D01*
X99820231Y-58784600D01*
X100179769Y-58784600D01*
X100656057Y-58689860D01*
X101059834Y-58420065D01*
X101226253Y-58171000D01*
X111273746Y-58171000D01*
X111440166Y-58420065D01*
X111843943Y-58689860D01*
X112320231Y-58784600D01*
X112679769Y-58784600D01*
X113156057Y-58689860D01*
X113559834Y-58420065D01*
X113726253Y-58171000D01*
X123773746Y-58171000D01*
X123940166Y-58420065D01*
X124343943Y-58689860D01*
X124820231Y-58784600D01*
X125179769Y-58784600D01*
X125656057Y-58689860D01*
X126059834Y-58420065D01*
X126226253Y-58171000D01*
X135773746Y-58171000D01*
X135940166Y-58420065D01*
X136343943Y-58689860D01*
X136820231Y-58784600D01*
X137179769Y-58784600D01*
X137656057Y-58689860D01*
X138059834Y-58420065D01*
X138226253Y-58171000D01*
X140278631Y-58171000D01*
X140369000Y-58261368D01*
X140369000Y-63000000D01*
X140417032Y-63241473D01*
X140553816Y-63446184D01*
X142553816Y-65446184D01*
X142758526Y-65582968D01*
X142758527Y-65582968D01*
X142798589Y-65590936D01*
X143000000Y-65631000D01*
X145767031Y-65631000D01*
X145828995Y-65780963D01*
X146216994Y-66169640D01*
X146724199Y-66380249D01*
X147273392Y-66380729D01*
X147780963Y-66171005D01*
X148169640Y-65783006D01*
X148380249Y-65275801D01*
X148380729Y-64726608D01*
X148380729Y-66359193D01*
X148106316Y-66633128D01*
X147819347Y-67324224D01*
X147818694Y-68072533D01*
X148104456Y-68764129D01*
X148633128Y-69293724D01*
X149324224Y-69580693D01*
X150072533Y-69581346D01*
X150764129Y-69295584D01*
X151293724Y-68766912D01*
X151569000Y-68103975D01*
X151569000Y-71872204D01*
X151322837Y-71277915D01*
X151075464Y-71104142D01*
X150895858Y-71283747D01*
X150895858Y-70924536D01*
X150722085Y-70677163D01*
X150023260Y-70409565D01*
X149275224Y-70429766D01*
X148677955Y-70677163D01*
X148504182Y-70924536D01*
X149700020Y-72120375D01*
X150895858Y-70924536D01*
X150895858Y-71283747D01*
X149879625Y-72299980D01*
X151075464Y-73495818D01*
X151322837Y-73322045D01*
X151569000Y-72679196D01*
X151569000Y-77297627D01*
X151295584Y-76635911D01*
X150895858Y-76235487D01*
X150895858Y-73675424D01*
X149700020Y-72479585D01*
X149520415Y-72659190D01*
X149520415Y-72299980D01*
X148324576Y-71104142D01*
X148077203Y-71277915D01*
X147809605Y-71976740D01*
X147829806Y-72724776D01*
X148077203Y-73322045D01*
X148324576Y-73495818D01*
X149520415Y-72299980D01*
X149520415Y-72659190D01*
X148504182Y-73675424D01*
X148677955Y-73922797D01*
X149376780Y-74190395D01*
X150124816Y-74170194D01*
X150722085Y-73922797D01*
X150895858Y-73675424D01*
X150895858Y-76235487D01*
X150766912Y-76106316D01*
X150075816Y-75819347D01*
X149327507Y-75818694D01*
X148635911Y-76104456D01*
X148380729Y-76359193D01*
X148380729Y-74726608D01*
X148171005Y-74219037D01*
X147783006Y-73830360D01*
X147275801Y-73619751D01*
X146726608Y-73619271D01*
X146219037Y-73828995D01*
X146181306Y-73866660D01*
X146181306Y-71927467D01*
X146181306Y-67327507D01*
X145895544Y-66635911D01*
X145366872Y-66106316D01*
X144675776Y-65819347D01*
X143927467Y-65818694D01*
X143235871Y-66104456D01*
X142706276Y-66633128D01*
X142419307Y-67324224D01*
X142418654Y-68072533D01*
X142704416Y-68764129D01*
X143233088Y-69293724D01*
X143924184Y-69580693D01*
X144672493Y-69581346D01*
X145364089Y-69295584D01*
X145893684Y-68766912D01*
X146180653Y-68075816D01*
X146181306Y-67327507D01*
X146181306Y-71927467D01*
X145895544Y-71235871D01*
X145366872Y-70706276D01*
X144675776Y-70419307D01*
X143927467Y-70418654D01*
X143235871Y-70704416D01*
X142706276Y-71233088D01*
X142419307Y-71924184D01*
X142418654Y-72672493D01*
X142704416Y-73364089D01*
X143233088Y-73893684D01*
X143924184Y-74180653D01*
X144672493Y-74181306D01*
X145364089Y-73895544D01*
X145893684Y-73366872D01*
X146180653Y-72675776D01*
X146181306Y-71927467D01*
X146181306Y-73866660D01*
X145830360Y-74216994D01*
X145619751Y-74724199D01*
X145619271Y-75273392D01*
X145828995Y-75780963D01*
X146216994Y-76169640D01*
X146724199Y-76380249D01*
X147273392Y-76380729D01*
X147780963Y-76171005D01*
X148169640Y-75783006D01*
X148380249Y-75275801D01*
X148380729Y-74726608D01*
X148380729Y-76359193D01*
X148106316Y-76633128D01*
X147819347Y-77324224D01*
X147818694Y-78072533D01*
X148104456Y-78764129D01*
X148633128Y-79293724D01*
X149324224Y-79580693D01*
X150072533Y-79581346D01*
X150764129Y-79295584D01*
X151293724Y-78766912D01*
X151569000Y-78103975D01*
X151569000Y-81872204D01*
X151322837Y-81277915D01*
X151075464Y-81104142D01*
X150895858Y-81283747D01*
X150895858Y-80924536D01*
X150722085Y-80677163D01*
X150023260Y-80409565D01*
X149275224Y-80429766D01*
X148677955Y-80677163D01*
X148504182Y-80924536D01*
X149700020Y-82120375D01*
X150895858Y-80924536D01*
X150895858Y-81283747D01*
X149879625Y-82299980D01*
X151075464Y-83495818D01*
X151322837Y-83322045D01*
X151569000Y-82679196D01*
X151569000Y-87297627D01*
M02*
