M48
;DRILL file {kicad (2014-11-17 BZR 5289)-product} date Wed 28 Oct 2015 08:14:02 PM EDT
;FORMAT={-:-/ absolute / inch / decimal}
FMAT,2
INCH,TZ
T1C0.039
T2C0.040
T3C0.079
%
G90
G05
M72
T1
X5.7874Y-2.1654
X5.7874Y-2.5591
X5.7874Y-2.9528
X5.7874Y-3.3465
T2
X3.937Y-2.1654
X3.937Y-2.2654
X3.937Y-2.3654
X3.937Y-2.4654
X3.937Y-2.5654
X3.937Y-2.6654
X4.4291Y-2.1654
X4.4291Y-2.2654
X4.4291Y-2.3654
X4.4291Y-2.4654
X4.4291Y-2.5654
X4.4291Y-2.6654
X4.9213Y-2.1654
X4.9213Y-2.2654
X4.9213Y-2.3654
X4.9213Y-2.4654
X4.9213Y-2.5654
X4.9213Y-2.6654
X5.3937Y-2.1654
X5.3937Y-2.2654
X5.3937Y-2.3654
X5.3937Y-2.4654
X5.3937Y-2.5654
X5.3937Y-2.6654
T3
X5.6811Y-2.0591
X5.6811Y-2.2717
X5.6811Y-2.4528
X5.6811Y-2.6654
X5.6811Y-2.8465
X5.6811Y-3.0591
X5.6811Y-3.2402
X5.6811Y-3.4528
X5.8937Y-2.0591
X5.8937Y-2.2717
X5.8937Y-2.4528
X5.8937Y-2.6654
X5.8937Y-2.8465
X5.8937Y-3.0591
X5.8937Y-3.2402
X5.8937Y-3.4528
T0
M30
