G04 #@! TF.FileFunction,Legend,Top*
%FSLAX46Y46*%
G04 Gerber Fmt 4.6, Leading zero omitted, Abs format (unit mm)*
G04 Created by KiCad (PCBNEW (2014-11-17 BZR 5289)-product) date Sat 29 Aug 2015 09:05:05 PM EDT*
%MOMM*%
G01*
G04 APERTURE LIST*
%ADD10C,0.100000*%
%ADD11C,0.150000*%
%ADD12C,0.381000*%
%ADD13C,0.304800*%
G04 APERTURE END LIST*
D10*
D11*
X160476000Y-91794000D02*
X163524000Y-91794000D01*
X163524000Y-88111000D02*
X163524000Y-86206000D01*
X163524000Y-86206000D02*
X160476000Y-86206000D01*
X160476000Y-86206000D02*
X160476000Y-88111000D01*
X160476000Y-89762000D02*
X160476000Y-91794000D01*
X160476000Y-91594000D02*
X163524000Y-91594000D01*
X163524000Y-91794000D02*
X163524000Y-89762000D01*
X161524000Y-118206000D02*
X158476000Y-118206000D01*
X158476000Y-121889000D02*
X158476000Y-123794000D01*
X158476000Y-123794000D02*
X161524000Y-123794000D01*
X161524000Y-123794000D02*
X161524000Y-121889000D01*
X161524000Y-120238000D02*
X161524000Y-118206000D01*
X161524000Y-118406000D02*
X158476000Y-118406000D01*
X158476000Y-118206000D02*
X158476000Y-120238000D01*
X161524000Y-103206000D02*
X158476000Y-103206000D01*
X158476000Y-106889000D02*
X158476000Y-108794000D01*
X158476000Y-108794000D02*
X161524000Y-108794000D01*
X161524000Y-108794000D02*
X161524000Y-106889000D01*
X161524000Y-105238000D02*
X161524000Y-103206000D01*
X161524000Y-103406000D02*
X158476000Y-103406000D01*
X158476000Y-103206000D02*
X158476000Y-105238000D01*
X163850000Y-105500000D02*
X163850000Y-104500000D01*
X162150000Y-104500000D02*
X162150000Y-105500000D01*
X168500000Y-84850000D02*
X169500000Y-84850000D01*
X169500000Y-83150000D02*
X168500000Y-83150000D01*
X167850000Y-95500000D02*
X167850000Y-94500000D01*
X166150000Y-94500000D02*
X166150000Y-95500000D01*
X176524000Y-104206000D02*
X173476000Y-104206000D01*
X173476000Y-107889000D02*
X173476000Y-109794000D01*
X173476000Y-109794000D02*
X176524000Y-109794000D01*
X176524000Y-109794000D02*
X176524000Y-107889000D01*
X176524000Y-106238000D02*
X176524000Y-104206000D01*
X176524000Y-104406000D02*
X173476000Y-104406000D01*
X173476000Y-104206000D02*
X173476000Y-106238000D01*
X169500000Y-123650000D02*
X168500000Y-123650000D01*
X168500000Y-125350000D02*
X169500000Y-125350000D01*
X168500000Y-116850000D02*
X169500000Y-116850000D01*
X169500000Y-115150000D02*
X168500000Y-115150000D01*
X174524000Y-86206000D02*
X171476000Y-86206000D01*
X171476000Y-89889000D02*
X171476000Y-91794000D01*
X171476000Y-91794000D02*
X174524000Y-91794000D01*
X174524000Y-91794000D02*
X174524000Y-89889000D01*
X174524000Y-88238000D02*
X174524000Y-86206000D01*
X174524000Y-86406000D02*
X171476000Y-86406000D01*
X171476000Y-86206000D02*
X171476000Y-88238000D01*
X174524000Y-115206000D02*
X171476000Y-115206000D01*
X171476000Y-118889000D02*
X171476000Y-120794000D01*
X171476000Y-120794000D02*
X174524000Y-120794000D01*
X174524000Y-120794000D02*
X174524000Y-118889000D01*
X174524000Y-117238000D02*
X174524000Y-115206000D01*
X174524000Y-115406000D02*
X171476000Y-115406000D01*
X171476000Y-115206000D02*
X171476000Y-117238000D01*
D12*
X141343940Y-116340620D02*
X140399060Y-116340620D01*
X141343940Y-121659380D02*
X140399060Y-121659380D01*
X149850400Y-121659380D02*
X146070880Y-121659380D01*
X149850400Y-116340620D02*
X146070880Y-116340620D01*
X141658900Y-122192780D02*
X141343940Y-118733300D01*
X145440960Y-115807220D02*
X146070880Y-121659380D01*
X145440960Y-122192780D02*
X144811040Y-115807220D01*
X144811040Y-122192780D02*
X144181120Y-115807220D01*
X144181120Y-122192780D02*
X143551200Y-115807220D01*
X143551200Y-122192780D02*
X142918740Y-115807220D01*
X142918740Y-122192780D02*
X142288820Y-115807220D01*
X142288820Y-122192780D02*
X141658900Y-115807220D01*
X141658900Y-122192780D02*
X141343940Y-121659380D01*
X141343940Y-121659380D02*
X141343940Y-116340620D01*
X141343940Y-116340620D02*
X141658900Y-115807220D01*
X141658900Y-115807220D02*
X145755920Y-115807220D01*
X145755920Y-115807220D02*
X146070880Y-116340620D01*
X146070880Y-116340620D02*
X146070880Y-121659380D01*
X146070880Y-121659380D02*
X145755920Y-122192780D01*
X145755920Y-122192780D02*
X141658900Y-122192780D01*
X140399060Y-116340620D02*
X140399060Y-121659380D01*
X149850400Y-122149600D02*
X149850400Y-115850400D01*
X149850400Y-115850400D02*
X156149600Y-115850400D01*
X156149600Y-115850400D02*
X156149600Y-122149600D01*
X156149600Y-122149600D02*
X149850400Y-122149600D01*
X141343940Y-86340620D02*
X140399060Y-86340620D01*
X141343940Y-91659380D02*
X140399060Y-91659380D01*
X149850400Y-91659380D02*
X146070880Y-91659380D01*
X149850400Y-86340620D02*
X146070880Y-86340620D01*
X141658900Y-92192780D02*
X141343940Y-88733300D01*
X145440960Y-85807220D02*
X146070880Y-91659380D01*
X145440960Y-92192780D02*
X144811040Y-85807220D01*
X144811040Y-92192780D02*
X144181120Y-85807220D01*
X144181120Y-92192780D02*
X143551200Y-85807220D01*
X143551200Y-92192780D02*
X142918740Y-85807220D01*
X142918740Y-92192780D02*
X142288820Y-85807220D01*
X142288820Y-92192780D02*
X141658900Y-85807220D01*
X141658900Y-92192780D02*
X141343940Y-91659380D01*
X141343940Y-91659380D02*
X141343940Y-86340620D01*
X141343940Y-86340620D02*
X141658900Y-85807220D01*
X141658900Y-85807220D02*
X145755920Y-85807220D01*
X145755920Y-85807220D02*
X146070880Y-86340620D01*
X146070880Y-86340620D02*
X146070880Y-91659380D01*
X146070880Y-91659380D02*
X145755920Y-92192780D01*
X145755920Y-92192780D02*
X141658900Y-92192780D01*
X140399060Y-86340620D02*
X140399060Y-91659380D01*
X149850400Y-92149600D02*
X149850400Y-85850400D01*
X149850400Y-85850400D02*
X156149600Y-85850400D01*
X156149600Y-85850400D02*
X156149600Y-92149600D01*
X156149600Y-92149600D02*
X149850400Y-92149600D01*
X141343940Y-101340620D02*
X140399060Y-101340620D01*
X141343940Y-106659380D02*
X140399060Y-106659380D01*
X149850400Y-106659380D02*
X146070880Y-106659380D01*
X149850400Y-101340620D02*
X146070880Y-101340620D01*
X141658900Y-107192780D02*
X141343940Y-103733300D01*
X145440960Y-100807220D02*
X146070880Y-106659380D01*
X145440960Y-107192780D02*
X144811040Y-100807220D01*
X144811040Y-107192780D02*
X144181120Y-100807220D01*
X144181120Y-107192780D02*
X143551200Y-100807220D01*
X143551200Y-107192780D02*
X142918740Y-100807220D01*
X142918740Y-107192780D02*
X142288820Y-100807220D01*
X142288820Y-107192780D02*
X141658900Y-100807220D01*
X141658900Y-107192780D02*
X141343940Y-106659380D01*
X141343940Y-106659380D02*
X141343940Y-101340620D01*
X141343940Y-101340620D02*
X141658900Y-100807220D01*
X141658900Y-100807220D02*
X145755920Y-100807220D01*
X145755920Y-100807220D02*
X146070880Y-101340620D01*
X146070880Y-101340620D02*
X146070880Y-106659380D01*
X146070880Y-106659380D02*
X145755920Y-107192780D01*
X145755920Y-107192780D02*
X141658900Y-107192780D01*
X140399060Y-101340620D02*
X140399060Y-106659380D01*
X149850400Y-107149600D02*
X149850400Y-100850400D01*
X149850400Y-100850400D02*
X156149600Y-100850400D01*
X156149600Y-100850400D02*
X156149600Y-107149600D01*
X156149600Y-107149600D02*
X149850400Y-107149600D01*
X194656060Y-91659380D02*
X195600940Y-91659380D01*
X194656060Y-86340620D02*
X195600940Y-86340620D01*
X186149600Y-86340620D02*
X189929120Y-86340620D01*
X186149600Y-91659380D02*
X189929120Y-91659380D01*
X194341100Y-85807220D02*
X194656060Y-89266700D01*
X190559040Y-92192780D02*
X189929120Y-86340620D01*
X190559040Y-85807220D02*
X191188960Y-92192780D01*
X191188960Y-85807220D02*
X191818880Y-92192780D01*
X191818880Y-85807220D02*
X192448800Y-92192780D01*
X192448800Y-85807220D02*
X193081260Y-92192780D01*
X193081260Y-85807220D02*
X193711180Y-92192780D01*
X193711180Y-85807220D02*
X194341100Y-92192780D01*
X194341100Y-85807220D02*
X194656060Y-86340620D01*
X194656060Y-86340620D02*
X194656060Y-91659380D01*
X194656060Y-91659380D02*
X194341100Y-92192780D01*
X194341100Y-92192780D02*
X190244080Y-92192780D01*
X190244080Y-92192780D02*
X189929120Y-91659380D01*
X189929120Y-91659380D02*
X189929120Y-86340620D01*
X189929120Y-86340620D02*
X190244080Y-85807220D01*
X190244080Y-85807220D02*
X194341100Y-85807220D01*
X195600940Y-91659380D02*
X195600940Y-86340620D01*
X186149600Y-85850400D02*
X186149600Y-92149600D01*
X186149600Y-92149600D02*
X179850400Y-92149600D01*
X179850400Y-92149600D02*
X179850400Y-85850400D01*
X179850400Y-85850400D02*
X186149600Y-85850400D01*
X194656060Y-121659380D02*
X195600940Y-121659380D01*
X194656060Y-116340620D02*
X195600940Y-116340620D01*
X186149600Y-116340620D02*
X189929120Y-116340620D01*
X186149600Y-121659380D02*
X189929120Y-121659380D01*
X194341100Y-115807220D02*
X194656060Y-119266700D01*
X190559040Y-122192780D02*
X189929120Y-116340620D01*
X190559040Y-115807220D02*
X191188960Y-122192780D01*
X191188960Y-115807220D02*
X191818880Y-122192780D01*
X191818880Y-115807220D02*
X192448800Y-122192780D01*
X192448800Y-115807220D02*
X193081260Y-122192780D01*
X193081260Y-115807220D02*
X193711180Y-122192780D01*
X193711180Y-115807220D02*
X194341100Y-122192780D01*
X194341100Y-115807220D02*
X194656060Y-116340620D01*
X194656060Y-116340620D02*
X194656060Y-121659380D01*
X194656060Y-121659380D02*
X194341100Y-122192780D01*
X194341100Y-122192780D02*
X190244080Y-122192780D01*
X190244080Y-122192780D02*
X189929120Y-121659380D01*
X189929120Y-121659380D02*
X189929120Y-116340620D01*
X189929120Y-116340620D02*
X190244080Y-115807220D01*
X190244080Y-115807220D02*
X194341100Y-115807220D01*
X195600940Y-121659380D02*
X195600940Y-116340620D01*
X186149600Y-115850400D02*
X186149600Y-122149600D01*
X186149600Y-122149600D02*
X179850400Y-122149600D01*
X179850400Y-122149600D02*
X179850400Y-115850400D01*
X179850400Y-115850400D02*
X186149600Y-115850400D01*
X194656060Y-106659380D02*
X195600940Y-106659380D01*
X194656060Y-101340620D02*
X195600940Y-101340620D01*
X186149600Y-101340620D02*
X189929120Y-101340620D01*
X186149600Y-106659380D02*
X189929120Y-106659380D01*
X194341100Y-100807220D02*
X194656060Y-104266700D01*
X190559040Y-107192780D02*
X189929120Y-101340620D01*
X190559040Y-100807220D02*
X191188960Y-107192780D01*
X191188960Y-100807220D02*
X191818880Y-107192780D01*
X191818880Y-100807220D02*
X192448800Y-107192780D01*
X192448800Y-100807220D02*
X193081260Y-107192780D01*
X193081260Y-100807220D02*
X193711180Y-107192780D01*
X193711180Y-100807220D02*
X194341100Y-107192780D01*
X194341100Y-100807220D02*
X194656060Y-101340620D01*
X194656060Y-101340620D02*
X194656060Y-106659380D01*
X194656060Y-106659380D02*
X194341100Y-107192780D01*
X194341100Y-107192780D02*
X190244080Y-107192780D01*
X190244080Y-107192780D02*
X189929120Y-106659380D01*
X189929120Y-106659380D02*
X189929120Y-101340620D01*
X189929120Y-101340620D02*
X190244080Y-100807220D01*
X190244080Y-100807220D02*
X194341100Y-100807220D01*
X195600940Y-106659380D02*
X195600940Y-101340620D01*
X186149600Y-100850400D02*
X186149600Y-107149600D01*
X186149600Y-107149600D02*
X179850400Y-107149600D01*
X179850400Y-107149600D02*
X179850400Y-100850400D01*
X179850400Y-100850400D02*
X186149600Y-100850400D01*
D11*
X168400000Y-81125000D02*
X169600000Y-81125000D01*
X169600000Y-82875000D02*
X168400000Y-82875000D01*
X164400000Y-81125000D02*
X165600000Y-81125000D01*
X165600000Y-82875000D02*
X164400000Y-82875000D01*
X168400000Y-113125000D02*
X169600000Y-113125000D01*
X169600000Y-114875000D02*
X168400000Y-114875000D01*
X164900000Y-113125000D02*
X166100000Y-113125000D01*
X166100000Y-114875000D02*
X164900000Y-114875000D01*
X169675000Y-87325000D02*
X169425000Y-87325000D01*
X169675000Y-90675000D02*
X169425000Y-90675000D01*
X166325000Y-90675000D02*
X166575000Y-90675000D01*
X166325000Y-87325000D02*
X166575000Y-87325000D01*
X169675000Y-87325000D02*
X169675000Y-90675000D01*
X166325000Y-87325000D02*
X166325000Y-90675000D01*
X169425000Y-87325000D02*
X169425000Y-86075000D01*
X169675000Y-118325000D02*
X169425000Y-118325000D01*
X169675000Y-121675000D02*
X169425000Y-121675000D01*
X166325000Y-121675000D02*
X166575000Y-121675000D01*
X166325000Y-118325000D02*
X166575000Y-118325000D01*
X169675000Y-118325000D02*
X169675000Y-121675000D01*
X166325000Y-118325000D02*
X166325000Y-121675000D01*
X169425000Y-118325000D02*
X169425000Y-117075000D01*
X171286000Y-102460000D02*
X171286000Y-107540000D01*
X171286000Y-107540000D02*
X166714000Y-107540000D01*
X166714000Y-107540000D02*
X166714000Y-102460000D01*
X166714000Y-102460000D02*
X171286000Y-102460000D01*
X169762000Y-102460000D02*
X169762000Y-102968000D01*
X169762000Y-102968000D02*
X168492000Y-102968000D01*
X168492000Y-102968000D02*
X168492000Y-102460000D01*
X143450000Y-106500000D02*
X143450000Y-108050000D01*
X143450000Y-108050000D02*
X146550000Y-108050000D01*
X146550000Y-108050000D02*
X146550000Y-106500000D01*
X143730000Y-105230000D02*
X143730000Y-100150000D01*
X143730000Y-100150000D02*
X146270000Y-100150000D01*
X146270000Y-100150000D02*
X146270000Y-105230000D01*
X146270000Y-105230000D02*
X143730000Y-105230000D01*
X161595143Y-89039666D02*
X161642762Y-89087285D01*
X161690381Y-89230142D01*
X161690381Y-89325380D01*
X161642762Y-89468238D01*
X161547524Y-89563476D01*
X161452286Y-89611095D01*
X161261810Y-89658714D01*
X161118952Y-89658714D01*
X160928476Y-89611095D01*
X160833238Y-89563476D01*
X160738000Y-89468238D01*
X160690381Y-89325380D01*
X160690381Y-89230142D01*
X160738000Y-89087285D01*
X160785619Y-89039666D01*
X160690381Y-88182523D02*
X160690381Y-88373000D01*
X160738000Y-88468238D01*
X160785619Y-88515857D01*
X160928476Y-88611095D01*
X161118952Y-88658714D01*
X161499905Y-88658714D01*
X161595143Y-88611095D01*
X161642762Y-88563476D01*
X161690381Y-88468238D01*
X161690381Y-88277761D01*
X161642762Y-88182523D01*
X161595143Y-88134904D01*
X161499905Y-88087285D01*
X161261810Y-88087285D01*
X161166571Y-88134904D01*
X161118952Y-88182523D01*
X161071333Y-88277761D01*
X161071333Y-88468238D01*
X161118952Y-88563476D01*
X161166571Y-88611095D01*
X161261810Y-88658714D01*
X161119143Y-121293666D02*
X161166762Y-121341285D01*
X161214381Y-121484142D01*
X161214381Y-121579380D01*
X161166762Y-121722238D01*
X161071524Y-121817476D01*
X160976286Y-121865095D01*
X160785810Y-121912714D01*
X160642952Y-121912714D01*
X160452476Y-121865095D01*
X160357238Y-121817476D01*
X160262000Y-121722238D01*
X160214381Y-121579380D01*
X160214381Y-121484142D01*
X160262000Y-121341285D01*
X160309619Y-121293666D01*
X160214381Y-120960333D02*
X160214381Y-120293666D01*
X161214381Y-120722238D01*
X161119143Y-106293666D02*
X161166762Y-106341285D01*
X161214381Y-106484142D01*
X161214381Y-106579380D01*
X161166762Y-106722238D01*
X161071524Y-106817476D01*
X160976286Y-106865095D01*
X160785810Y-106912714D01*
X160642952Y-106912714D01*
X160452476Y-106865095D01*
X160357238Y-106817476D01*
X160262000Y-106722238D01*
X160214381Y-106579380D01*
X160214381Y-106484142D01*
X160262000Y-106341285D01*
X160309619Y-106293666D01*
X160642952Y-105722238D02*
X160595333Y-105817476D01*
X160547714Y-105865095D01*
X160452476Y-105912714D01*
X160404857Y-105912714D01*
X160309619Y-105865095D01*
X160262000Y-105817476D01*
X160214381Y-105722238D01*
X160214381Y-105531761D01*
X160262000Y-105436523D01*
X160309619Y-105388904D01*
X160404857Y-105341285D01*
X160452476Y-105341285D01*
X160547714Y-105388904D01*
X160595333Y-105436523D01*
X160642952Y-105531761D01*
X160642952Y-105722238D01*
X160690571Y-105817476D01*
X160738190Y-105865095D01*
X160833429Y-105912714D01*
X161023905Y-105912714D01*
X161119143Y-105865095D01*
X161166762Y-105817476D01*
X161214381Y-105722238D01*
X161214381Y-105531761D01*
X161166762Y-105436523D01*
X161119143Y-105388904D01*
X161023905Y-105341285D01*
X160833429Y-105341285D01*
X160738190Y-105388904D01*
X160690571Y-105436523D01*
X160642952Y-105531761D01*
X165457143Y-105166666D02*
X165504762Y-105214285D01*
X165552381Y-105357142D01*
X165552381Y-105452380D01*
X165504762Y-105595238D01*
X165409524Y-105690476D01*
X165314286Y-105738095D01*
X165123810Y-105785714D01*
X164980952Y-105785714D01*
X164790476Y-105738095D01*
X164695238Y-105690476D01*
X164600000Y-105595238D01*
X164552381Y-105452380D01*
X164552381Y-105357142D01*
X164600000Y-105214285D01*
X164647619Y-105166666D01*
X165552381Y-104690476D02*
X165552381Y-104500000D01*
X165504762Y-104404761D01*
X165457143Y-104357142D01*
X165314286Y-104261904D01*
X165123810Y-104214285D01*
X164742857Y-104214285D01*
X164647619Y-104261904D01*
X164600000Y-104309523D01*
X164552381Y-104404761D01*
X164552381Y-104595238D01*
X164600000Y-104690476D01*
X164647619Y-104738095D01*
X164742857Y-104785714D01*
X164980952Y-104785714D01*
X165076190Y-104738095D01*
X165123810Y-104690476D01*
X165171429Y-104595238D01*
X165171429Y-104404761D01*
X165123810Y-104309523D01*
X165076190Y-104261904D01*
X164980952Y-104214285D01*
X168357143Y-86457143D02*
X168309524Y-86504762D01*
X168166667Y-86552381D01*
X168071429Y-86552381D01*
X167928571Y-86504762D01*
X167833333Y-86409524D01*
X167785714Y-86314286D01*
X167738095Y-86123810D01*
X167738095Y-85980952D01*
X167785714Y-85790476D01*
X167833333Y-85695238D01*
X167928571Y-85600000D01*
X168071429Y-85552381D01*
X168166667Y-85552381D01*
X168309524Y-85600000D01*
X168357143Y-85647619D01*
X169309524Y-86552381D02*
X168738095Y-86552381D01*
X169023809Y-86552381D02*
X169023809Y-85552381D01*
X168928571Y-85695238D01*
X168833333Y-85790476D01*
X168738095Y-85838095D01*
X169928571Y-85552381D02*
X170023810Y-85552381D01*
X170119048Y-85600000D01*
X170166667Y-85647619D01*
X170214286Y-85742857D01*
X170261905Y-85933333D01*
X170261905Y-86171429D01*
X170214286Y-86361905D01*
X170166667Y-86457143D01*
X170119048Y-86504762D01*
X170023810Y-86552381D01*
X169928571Y-86552381D01*
X169833333Y-86504762D01*
X169785714Y-86457143D01*
X169738095Y-86361905D01*
X169690476Y-86171429D01*
X169690476Y-85933333D01*
X169738095Y-85742857D01*
X169785714Y-85647619D01*
X169833333Y-85600000D01*
X169928571Y-85552381D01*
X169457143Y-95642857D02*
X169504762Y-95690476D01*
X169552381Y-95833333D01*
X169552381Y-95928571D01*
X169504762Y-96071429D01*
X169409524Y-96166667D01*
X169314286Y-96214286D01*
X169123810Y-96261905D01*
X168980952Y-96261905D01*
X168790476Y-96214286D01*
X168695238Y-96166667D01*
X168600000Y-96071429D01*
X168552381Y-95928571D01*
X168552381Y-95833333D01*
X168600000Y-95690476D01*
X168647619Y-95642857D01*
X169552381Y-94690476D02*
X169552381Y-95261905D01*
X169552381Y-94976191D02*
X168552381Y-94976191D01*
X168695238Y-95071429D01*
X168790476Y-95166667D01*
X168838095Y-95261905D01*
X169552381Y-93738095D02*
X169552381Y-94309524D01*
X169552381Y-94023810D02*
X168552381Y-94023810D01*
X168695238Y-94119048D01*
X168790476Y-94214286D01*
X168838095Y-94309524D01*
X176119143Y-107769857D02*
X176166762Y-107817476D01*
X176214381Y-107960333D01*
X176214381Y-108055571D01*
X176166762Y-108198429D01*
X176071524Y-108293667D01*
X175976286Y-108341286D01*
X175785810Y-108388905D01*
X175642952Y-108388905D01*
X175452476Y-108341286D01*
X175357238Y-108293667D01*
X175262000Y-108198429D01*
X175214381Y-108055571D01*
X175214381Y-107960333D01*
X175262000Y-107817476D01*
X175309619Y-107769857D01*
X176214381Y-106817476D02*
X176214381Y-107388905D01*
X176214381Y-107103191D02*
X175214381Y-107103191D01*
X175357238Y-107198429D01*
X175452476Y-107293667D01*
X175500095Y-107388905D01*
X175309619Y-106436524D02*
X175262000Y-106388905D01*
X175214381Y-106293667D01*
X175214381Y-106055571D01*
X175262000Y-105960333D01*
X175309619Y-105912714D01*
X175404857Y-105865095D01*
X175500095Y-105865095D01*
X175642952Y-105912714D01*
X176214381Y-106484143D01*
X176214381Y-105865095D01*
X168357143Y-122757143D02*
X168309524Y-122804762D01*
X168166667Y-122852381D01*
X168071429Y-122852381D01*
X167928571Y-122804762D01*
X167833333Y-122709524D01*
X167785714Y-122614286D01*
X167738095Y-122423810D01*
X167738095Y-122280952D01*
X167785714Y-122090476D01*
X167833333Y-121995238D01*
X167928571Y-121900000D01*
X168071429Y-121852381D01*
X168166667Y-121852381D01*
X168309524Y-121900000D01*
X168357143Y-121947619D01*
X169309524Y-122852381D02*
X168738095Y-122852381D01*
X169023809Y-122852381D02*
X169023809Y-121852381D01*
X168928571Y-121995238D01*
X168833333Y-122090476D01*
X168738095Y-122138095D01*
X169642857Y-121852381D02*
X170261905Y-121852381D01*
X169928571Y-122233333D01*
X170071429Y-122233333D01*
X170166667Y-122280952D01*
X170214286Y-122328571D01*
X170261905Y-122423810D01*
X170261905Y-122661905D01*
X170214286Y-122757143D01*
X170166667Y-122804762D01*
X170071429Y-122852381D01*
X169785714Y-122852381D01*
X169690476Y-122804762D01*
X169642857Y-122757143D01*
X168357143Y-118457143D02*
X168309524Y-118504762D01*
X168166667Y-118552381D01*
X168071429Y-118552381D01*
X167928571Y-118504762D01*
X167833333Y-118409524D01*
X167785714Y-118314286D01*
X167738095Y-118123810D01*
X167738095Y-117980952D01*
X167785714Y-117790476D01*
X167833333Y-117695238D01*
X167928571Y-117600000D01*
X168071429Y-117552381D01*
X168166667Y-117552381D01*
X168309524Y-117600000D01*
X168357143Y-117647619D01*
X169309524Y-118552381D02*
X168738095Y-118552381D01*
X169023809Y-118552381D02*
X169023809Y-117552381D01*
X168928571Y-117695238D01*
X168833333Y-117790476D01*
X168738095Y-117838095D01*
X170166667Y-117885714D02*
X170166667Y-118552381D01*
X169928571Y-117504762D02*
X169690476Y-118219048D01*
X170309524Y-118219048D01*
X174119143Y-89769857D02*
X174166762Y-89817476D01*
X174214381Y-89960333D01*
X174214381Y-90055571D01*
X174166762Y-90198429D01*
X174071524Y-90293667D01*
X173976286Y-90341286D01*
X173785810Y-90388905D01*
X173642952Y-90388905D01*
X173452476Y-90341286D01*
X173357238Y-90293667D01*
X173262000Y-90198429D01*
X173214381Y-90055571D01*
X173214381Y-89960333D01*
X173262000Y-89817476D01*
X173309619Y-89769857D01*
X174214381Y-88817476D02*
X174214381Y-89388905D01*
X174214381Y-89103191D02*
X173214381Y-89103191D01*
X173357238Y-89198429D01*
X173452476Y-89293667D01*
X173500095Y-89388905D01*
X173214381Y-87912714D02*
X173214381Y-88388905D01*
X173690571Y-88436524D01*
X173642952Y-88388905D01*
X173595333Y-88293667D01*
X173595333Y-88055571D01*
X173642952Y-87960333D01*
X173690571Y-87912714D01*
X173785810Y-87865095D01*
X174023905Y-87865095D01*
X174119143Y-87912714D01*
X174166762Y-87960333D01*
X174214381Y-88055571D01*
X174214381Y-88293667D01*
X174166762Y-88388905D01*
X174119143Y-88436524D01*
X174119143Y-118769857D02*
X174166762Y-118817476D01*
X174214381Y-118960333D01*
X174214381Y-119055571D01*
X174166762Y-119198429D01*
X174071524Y-119293667D01*
X173976286Y-119341286D01*
X173785810Y-119388905D01*
X173642952Y-119388905D01*
X173452476Y-119341286D01*
X173357238Y-119293667D01*
X173262000Y-119198429D01*
X173214381Y-119055571D01*
X173214381Y-118960333D01*
X173262000Y-118817476D01*
X173309619Y-118769857D01*
X174214381Y-117817476D02*
X174214381Y-118388905D01*
X174214381Y-118103191D02*
X173214381Y-118103191D01*
X173357238Y-118198429D01*
X173452476Y-118293667D01*
X173500095Y-118388905D01*
X173214381Y-116960333D02*
X173214381Y-117150810D01*
X173262000Y-117246048D01*
X173309619Y-117293667D01*
X173452476Y-117388905D01*
X173642952Y-117436524D01*
X174023905Y-117436524D01*
X174119143Y-117388905D01*
X174166762Y-117341286D01*
X174214381Y-117246048D01*
X174214381Y-117055571D01*
X174166762Y-116960333D01*
X174119143Y-116912714D01*
X174023905Y-116865095D01*
X173785810Y-116865095D01*
X173690571Y-116912714D01*
X173642952Y-116960333D01*
X173595333Y-117055571D01*
X173595333Y-117246048D01*
X173642952Y-117341286D01*
X173690571Y-117388905D01*
X173785810Y-117436524D01*
D13*
X158769429Y-120124857D02*
X157245429Y-120124857D01*
X157245429Y-119544285D01*
X157318000Y-119399143D01*
X157390571Y-119326571D01*
X157535714Y-119254000D01*
X157753429Y-119254000D01*
X157898571Y-119326571D01*
X157971143Y-119399143D01*
X158043714Y-119544285D01*
X158043714Y-120124857D01*
X158769429Y-117802571D02*
X158769429Y-118673428D01*
X158769429Y-118238000D02*
X157245429Y-118238000D01*
X157463143Y-118383143D01*
X157608286Y-118528285D01*
X157680857Y-118673428D01*
X160511143Y-119181428D02*
X160583714Y-118963714D01*
X160656286Y-118891142D01*
X160801429Y-118818571D01*
X161019143Y-118818571D01*
X161164286Y-118891142D01*
X161236857Y-118963714D01*
X161309429Y-119108856D01*
X161309429Y-119689428D01*
X159785429Y-119689428D01*
X159785429Y-119181428D01*
X159858000Y-119036285D01*
X159930571Y-118963714D01*
X160075714Y-118891142D01*
X160220857Y-118891142D01*
X160366000Y-118963714D01*
X160438571Y-119036285D01*
X160511143Y-119181428D01*
X160511143Y-119689428D01*
X161309429Y-118165428D02*
X159785429Y-118165428D01*
X161309429Y-117294571D01*
X159785429Y-117294571D01*
X161164286Y-115698000D02*
X161236857Y-115770571D01*
X161309429Y-115988285D01*
X161309429Y-116133428D01*
X161236857Y-116351143D01*
X161091714Y-116496285D01*
X160946571Y-116568857D01*
X160656286Y-116641428D01*
X160438571Y-116641428D01*
X160148286Y-116568857D01*
X160003143Y-116496285D01*
X159858000Y-116351143D01*
X159785429Y-116133428D01*
X159785429Y-115988285D01*
X159858000Y-115770571D01*
X159930571Y-115698000D01*
X158769429Y-90124857D02*
X157245429Y-90124857D01*
X157245429Y-89544285D01*
X157318000Y-89399143D01*
X157390571Y-89326571D01*
X157535714Y-89254000D01*
X157753429Y-89254000D01*
X157898571Y-89326571D01*
X157971143Y-89399143D01*
X158043714Y-89544285D01*
X158043714Y-90124857D01*
X157245429Y-88746000D02*
X157245429Y-87802571D01*
X157826000Y-88310571D01*
X157826000Y-88092857D01*
X157898571Y-87947714D01*
X157971143Y-87875143D01*
X158116286Y-87802571D01*
X158479143Y-87802571D01*
X158624286Y-87875143D01*
X158696857Y-87947714D01*
X158769429Y-88092857D01*
X158769429Y-88528285D01*
X158696857Y-88673428D01*
X158624286Y-88746000D01*
X160511143Y-89181428D02*
X160583714Y-88963714D01*
X160656286Y-88891142D01*
X160801429Y-88818571D01*
X161019143Y-88818571D01*
X161164286Y-88891142D01*
X161236857Y-88963714D01*
X161309429Y-89108856D01*
X161309429Y-89689428D01*
X159785429Y-89689428D01*
X159785429Y-89181428D01*
X159858000Y-89036285D01*
X159930571Y-88963714D01*
X160075714Y-88891142D01*
X160220857Y-88891142D01*
X160366000Y-88963714D01*
X160438571Y-89036285D01*
X160511143Y-89181428D01*
X160511143Y-89689428D01*
X161309429Y-88165428D02*
X159785429Y-88165428D01*
X161309429Y-87294571D01*
X159785429Y-87294571D01*
X161164286Y-85698000D02*
X161236857Y-85770571D01*
X161309429Y-85988285D01*
X161309429Y-86133428D01*
X161236857Y-86351143D01*
X161091714Y-86496285D01*
X160946571Y-86568857D01*
X160656286Y-86641428D01*
X160438571Y-86641428D01*
X160148286Y-86568857D01*
X160003143Y-86496285D01*
X159858000Y-86351143D01*
X159785429Y-86133428D01*
X159785429Y-85988285D01*
X159858000Y-85770571D01*
X159930571Y-85698000D01*
X158769429Y-105124857D02*
X157245429Y-105124857D01*
X157245429Y-104544285D01*
X157318000Y-104399143D01*
X157390571Y-104326571D01*
X157535714Y-104254000D01*
X157753429Y-104254000D01*
X157898571Y-104326571D01*
X157971143Y-104399143D01*
X158043714Y-104544285D01*
X158043714Y-105124857D01*
X157753429Y-102947714D02*
X158769429Y-102947714D01*
X157172857Y-103310571D02*
X158261429Y-103673428D01*
X158261429Y-102730000D01*
X160511143Y-104181428D02*
X160583714Y-103963714D01*
X160656286Y-103891142D01*
X160801429Y-103818571D01*
X161019143Y-103818571D01*
X161164286Y-103891142D01*
X161236857Y-103963714D01*
X161309429Y-104108856D01*
X161309429Y-104689428D01*
X159785429Y-104689428D01*
X159785429Y-104181428D01*
X159858000Y-104036285D01*
X159930571Y-103963714D01*
X160075714Y-103891142D01*
X160220857Y-103891142D01*
X160366000Y-103963714D01*
X160438571Y-104036285D01*
X160511143Y-104181428D01*
X160511143Y-104689428D01*
X161309429Y-103165428D02*
X159785429Y-103165428D01*
X161309429Y-102294571D01*
X159785429Y-102294571D01*
X161164286Y-100698000D02*
X161236857Y-100770571D01*
X161309429Y-100988285D01*
X161309429Y-101133428D01*
X161236857Y-101351143D01*
X161091714Y-101496285D01*
X160946571Y-101568857D01*
X160656286Y-101641428D01*
X160438571Y-101641428D01*
X160148286Y-101568857D01*
X160003143Y-101496285D01*
X159858000Y-101351143D01*
X159785429Y-101133428D01*
X159785429Y-100988285D01*
X159858000Y-100770571D01*
X159930571Y-100698000D01*
X178609429Y-90124857D02*
X177085429Y-90124857D01*
X177085429Y-89544285D01*
X177158000Y-89399143D01*
X177230571Y-89326571D01*
X177375714Y-89254000D01*
X177593429Y-89254000D01*
X177738571Y-89326571D01*
X177811143Y-89399143D01*
X177883714Y-89544285D01*
X177883714Y-90124857D01*
X177085429Y-87875143D02*
X177085429Y-88600857D01*
X177811143Y-88673428D01*
X177738571Y-88600857D01*
X177666000Y-88455714D01*
X177666000Y-88092857D01*
X177738571Y-87947714D01*
X177811143Y-87875143D01*
X177956286Y-87802571D01*
X178319143Y-87802571D01*
X178464286Y-87875143D01*
X178536857Y-87947714D01*
X178609429Y-88092857D01*
X178609429Y-88455714D01*
X178536857Y-88600857D01*
X178464286Y-88673428D01*
X175271143Y-91721428D02*
X175343714Y-91503714D01*
X175416286Y-91431142D01*
X175561429Y-91358571D01*
X175779143Y-91358571D01*
X175924286Y-91431142D01*
X175996857Y-91503714D01*
X176069429Y-91648856D01*
X176069429Y-92229428D01*
X174545429Y-92229428D01*
X174545429Y-91721428D01*
X174618000Y-91576285D01*
X174690571Y-91503714D01*
X174835714Y-91431142D01*
X174980857Y-91431142D01*
X175126000Y-91503714D01*
X175198571Y-91576285D01*
X175271143Y-91721428D01*
X175271143Y-92229428D01*
X176069429Y-90705428D02*
X174545429Y-90705428D01*
X176069429Y-89834571D01*
X174545429Y-89834571D01*
X175924286Y-88238000D02*
X175996857Y-88310571D01*
X176069429Y-88528285D01*
X176069429Y-88673428D01*
X175996857Y-88891143D01*
X175851714Y-89036285D01*
X175706571Y-89108857D01*
X175416286Y-89181428D01*
X175198571Y-89181428D01*
X174908286Y-89108857D01*
X174763143Y-89036285D01*
X174618000Y-88891143D01*
X174545429Y-88673428D01*
X174545429Y-88528285D01*
X174618000Y-88310571D01*
X174690571Y-88238000D01*
X178609429Y-120124857D02*
X177085429Y-120124857D01*
X177085429Y-119544285D01*
X177158000Y-119399143D01*
X177230571Y-119326571D01*
X177375714Y-119254000D01*
X177593429Y-119254000D01*
X177738571Y-119326571D01*
X177811143Y-119399143D01*
X177883714Y-119544285D01*
X177883714Y-120124857D01*
X177085429Y-117947714D02*
X177085429Y-118238000D01*
X177158000Y-118383143D01*
X177230571Y-118455714D01*
X177448286Y-118600857D01*
X177738571Y-118673428D01*
X178319143Y-118673428D01*
X178464286Y-118600857D01*
X178536857Y-118528285D01*
X178609429Y-118383143D01*
X178609429Y-118092857D01*
X178536857Y-117947714D01*
X178464286Y-117875143D01*
X178319143Y-117802571D01*
X177956286Y-117802571D01*
X177811143Y-117875143D01*
X177738571Y-117947714D01*
X177666000Y-118092857D01*
X177666000Y-118383143D01*
X177738571Y-118528285D01*
X177811143Y-118600857D01*
X177956286Y-118673428D01*
X175271143Y-121721428D02*
X175343714Y-121503714D01*
X175416286Y-121431142D01*
X175561429Y-121358571D01*
X175779143Y-121358571D01*
X175924286Y-121431142D01*
X175996857Y-121503714D01*
X176069429Y-121648856D01*
X176069429Y-122229428D01*
X174545429Y-122229428D01*
X174545429Y-121721428D01*
X174618000Y-121576285D01*
X174690571Y-121503714D01*
X174835714Y-121431142D01*
X174980857Y-121431142D01*
X175126000Y-121503714D01*
X175198571Y-121576285D01*
X175271143Y-121721428D01*
X175271143Y-122229428D01*
X176069429Y-120705428D02*
X174545429Y-120705428D01*
X176069429Y-119834571D01*
X174545429Y-119834571D01*
X175924286Y-118238000D02*
X175996857Y-118310571D01*
X176069429Y-118528285D01*
X176069429Y-118673428D01*
X175996857Y-118891143D01*
X175851714Y-119036285D01*
X175706571Y-119108857D01*
X175416286Y-119181428D01*
X175198571Y-119181428D01*
X174908286Y-119108857D01*
X174763143Y-119036285D01*
X174618000Y-118891143D01*
X174545429Y-118673428D01*
X174545429Y-118528285D01*
X174618000Y-118310571D01*
X174690571Y-118238000D01*
X178609429Y-105124857D02*
X177085429Y-105124857D01*
X177085429Y-104544285D01*
X177158000Y-104399143D01*
X177230571Y-104326571D01*
X177375714Y-104254000D01*
X177593429Y-104254000D01*
X177738571Y-104326571D01*
X177811143Y-104399143D01*
X177883714Y-104544285D01*
X177883714Y-105124857D01*
X177085429Y-103746000D02*
X177085429Y-102730000D01*
X178609429Y-103383143D01*
X175271143Y-106721428D02*
X175343714Y-106503714D01*
X175416286Y-106431142D01*
X175561429Y-106358571D01*
X175779143Y-106358571D01*
X175924286Y-106431142D01*
X175996857Y-106503714D01*
X176069429Y-106648856D01*
X176069429Y-107229428D01*
X174545429Y-107229428D01*
X174545429Y-106721428D01*
X174618000Y-106576285D01*
X174690571Y-106503714D01*
X174835714Y-106431142D01*
X174980857Y-106431142D01*
X175126000Y-106503714D01*
X175198571Y-106576285D01*
X175271143Y-106721428D01*
X175271143Y-107229428D01*
X176069429Y-105705428D02*
X174545429Y-105705428D01*
X176069429Y-104834571D01*
X174545429Y-104834571D01*
X175924286Y-103238000D02*
X175996857Y-103310571D01*
X176069429Y-103528285D01*
X176069429Y-103673428D01*
X175996857Y-103891143D01*
X175851714Y-104036285D01*
X175706571Y-104108857D01*
X175416286Y-104181428D01*
X175198571Y-104181428D01*
X174908286Y-104108857D01*
X174763143Y-104036285D01*
X174618000Y-103891143D01*
X174545429Y-103673428D01*
X174545429Y-103528285D01*
X174618000Y-103310571D01*
X174690571Y-103238000D01*
D11*
X168833334Y-84552381D02*
X168500000Y-84076190D01*
X168261905Y-84552381D02*
X168261905Y-83552381D01*
X168642858Y-83552381D01*
X168738096Y-83600000D01*
X168785715Y-83647619D01*
X168833334Y-83742857D01*
X168833334Y-83885714D01*
X168785715Y-83980952D01*
X168738096Y-84028571D01*
X168642858Y-84076190D01*
X168261905Y-84076190D01*
X169690477Y-83885714D02*
X169690477Y-84552381D01*
X169452381Y-83504762D02*
X169214286Y-84219048D01*
X169833334Y-84219048D01*
X164833334Y-84552381D02*
X164500000Y-84076190D01*
X164261905Y-84552381D02*
X164261905Y-83552381D01*
X164642858Y-83552381D01*
X164738096Y-83600000D01*
X164785715Y-83647619D01*
X164833334Y-83742857D01*
X164833334Y-83885714D01*
X164785715Y-83980952D01*
X164738096Y-84028571D01*
X164642858Y-84076190D01*
X164261905Y-84076190D01*
X165738096Y-83552381D02*
X165261905Y-83552381D01*
X165214286Y-84028571D01*
X165261905Y-83980952D01*
X165357143Y-83933333D01*
X165595239Y-83933333D01*
X165690477Y-83980952D01*
X165738096Y-84028571D01*
X165785715Y-84123810D01*
X165785715Y-84361905D01*
X165738096Y-84457143D01*
X165690477Y-84504762D01*
X165595239Y-84552381D01*
X165357143Y-84552381D01*
X165261905Y-84504762D01*
X165214286Y-84457143D01*
X168833334Y-116552381D02*
X168500000Y-116076190D01*
X168261905Y-116552381D02*
X168261905Y-115552381D01*
X168642858Y-115552381D01*
X168738096Y-115600000D01*
X168785715Y-115647619D01*
X168833334Y-115742857D01*
X168833334Y-115885714D01*
X168785715Y-115980952D01*
X168738096Y-116028571D01*
X168642858Y-116076190D01*
X168261905Y-116076190D01*
X169690477Y-115552381D02*
X169500000Y-115552381D01*
X169404762Y-115600000D01*
X169357143Y-115647619D01*
X169261905Y-115790476D01*
X169214286Y-115980952D01*
X169214286Y-116361905D01*
X169261905Y-116457143D01*
X169309524Y-116504762D01*
X169404762Y-116552381D01*
X169595239Y-116552381D01*
X169690477Y-116504762D01*
X169738096Y-116457143D01*
X169785715Y-116361905D01*
X169785715Y-116123810D01*
X169738096Y-116028571D01*
X169690477Y-115980952D01*
X169595239Y-115933333D01*
X169404762Y-115933333D01*
X169309524Y-115980952D01*
X169261905Y-116028571D01*
X169214286Y-116123810D01*
X165333334Y-116552381D02*
X165000000Y-116076190D01*
X164761905Y-116552381D02*
X164761905Y-115552381D01*
X165142858Y-115552381D01*
X165238096Y-115600000D01*
X165285715Y-115647619D01*
X165333334Y-115742857D01*
X165333334Y-115885714D01*
X165285715Y-115980952D01*
X165238096Y-116028571D01*
X165142858Y-116076190D01*
X164761905Y-116076190D01*
X165666667Y-115552381D02*
X166333334Y-115552381D01*
X165904762Y-116552381D01*
X170052381Y-89761905D02*
X170861905Y-89761905D01*
X170957143Y-89714286D01*
X171004762Y-89666667D01*
X171052381Y-89571429D01*
X171052381Y-89380952D01*
X171004762Y-89285714D01*
X170957143Y-89238095D01*
X170861905Y-89190476D01*
X170052381Y-89190476D01*
X170052381Y-88809524D02*
X170052381Y-88190476D01*
X170433333Y-88523810D01*
X170433333Y-88380952D01*
X170480952Y-88285714D01*
X170528571Y-88238095D01*
X170623810Y-88190476D01*
X170861905Y-88190476D01*
X170957143Y-88238095D01*
X171004762Y-88285714D01*
X171052381Y-88380952D01*
X171052381Y-88666667D01*
X171004762Y-88761905D01*
X170957143Y-88809524D01*
X170052381Y-120761905D02*
X170861905Y-120761905D01*
X170957143Y-120714286D01*
X171004762Y-120666667D01*
X171052381Y-120571429D01*
X171052381Y-120380952D01*
X171004762Y-120285714D01*
X170957143Y-120238095D01*
X170861905Y-120190476D01*
X170052381Y-120190476D01*
X170385714Y-119285714D02*
X171052381Y-119285714D01*
X170004762Y-119523810D02*
X170719048Y-119761905D01*
X170719048Y-119142857D01*
X169722381Y-105761905D02*
X170531905Y-105761905D01*
X170627143Y-105714286D01*
X170674762Y-105666667D01*
X170722381Y-105571429D01*
X170722381Y-105380952D01*
X170674762Y-105285714D01*
X170627143Y-105238095D01*
X170531905Y-105190476D01*
X169722381Y-105190476D01*
X169722381Y-104238095D02*
X169722381Y-104714286D01*
X170198571Y-104761905D01*
X170150952Y-104714286D01*
X170103333Y-104619048D01*
X170103333Y-104380952D01*
X170150952Y-104285714D01*
X170198571Y-104238095D01*
X170293810Y-104190476D01*
X170531905Y-104190476D01*
X170627143Y-104238095D01*
X170674762Y-104285714D01*
X170722381Y-104380952D01*
X170722381Y-104619048D01*
X170674762Y-104714286D01*
X170627143Y-104761905D01*
X140352381Y-107238095D02*
X139352381Y-107238095D01*
X139352381Y-106857142D01*
X139400000Y-106761904D01*
X139447619Y-106714285D01*
X139542857Y-106666666D01*
X139685714Y-106666666D01*
X139780952Y-106714285D01*
X139828571Y-106761904D01*
X139876190Y-106857142D01*
X139876190Y-107238095D01*
X139447619Y-106285714D02*
X139400000Y-106238095D01*
X139352381Y-106142857D01*
X139352381Y-105904761D01*
X139400000Y-105809523D01*
X139447619Y-105761904D01*
X139542857Y-105714285D01*
X139638095Y-105714285D01*
X139780952Y-105761904D01*
X140352381Y-106333333D01*
X140352381Y-105714285D01*
M02*
