G04 #@! TF.GenerationSoftware,KiCad,Pcbnew,(2017-12-02 revision 3109343)-master*
G04 #@! TF.CreationDate,2018-01-05T09:38:41-05:00*
G04 #@! TF.ProjectId,stm_integrated_interface,73746D5F696E74656772617465645F69,rev?*
G04 #@! TF.SameCoordinates,Original*
G04 #@! TF.FileFunction,Copper,L2,Bot,Signal*
G04 #@! TF.FilePolarity,Positive*
%FSLAX46Y46*%
G04 Gerber Fmt 4.6, Leading zero omitted, Abs format (unit mm)*
G04 Created by KiCad (PCBNEW (2017-12-02 revision 3109343)-master) date Fri Jan  5 09:38:41 2018*
%MOMM*%
%LPD*%
G01*
G04 APERTURE LIST*
%ADD10R,1.727200X1.727200*%
%ADD11O,1.727200X1.727200*%
%ADD12C,8.000000*%
%ADD13R,0.600000X1.500000*%
%ADD14C,0.800000*%
%ADD15C,0.250000*%
%ADD16C,1.000000*%
%ADD17C,0.254000*%
G04 APERTURE END LIST*
D10*
X125730000Y-64770000D03*
D11*
X125730000Y-67310000D03*
X123190000Y-64770000D03*
X123190000Y-67310000D03*
X120650000Y-64770000D03*
X120650000Y-67310000D03*
X118110000Y-64770000D03*
X118110000Y-67310000D03*
X115570000Y-64770000D03*
X115570000Y-67310000D03*
X113030000Y-64770000D03*
X113030000Y-67310000D03*
X110490000Y-64770000D03*
X110490000Y-67310000D03*
X107950000Y-64770000D03*
X107950000Y-67310000D03*
X105410000Y-64770000D03*
X105410000Y-67310000D03*
X102870000Y-64770000D03*
X102870000Y-67310000D03*
X100330000Y-64770000D03*
X100330000Y-67310000D03*
X97790000Y-64770000D03*
X97790000Y-67310000D03*
X95250000Y-64770000D03*
X95250000Y-67310000D03*
X92710000Y-64770000D03*
X92710000Y-67310000D03*
X90170000Y-64770000D03*
X90170000Y-67310000D03*
X87630000Y-64770000D03*
X87630000Y-67310000D03*
X85090000Y-64770000D03*
X85090000Y-67310000D03*
X82550000Y-64770000D03*
X82550000Y-67310000D03*
X80010000Y-64770000D03*
X80010000Y-67310000D03*
X77470000Y-64770000D03*
X77470000Y-67310000D03*
X77470000Y-77470000D03*
X77470000Y-74930000D03*
X80010000Y-77470000D03*
X80010000Y-74930000D03*
X82550000Y-77470000D03*
X82550000Y-74930000D03*
X85090000Y-77470000D03*
X85090000Y-74930000D03*
X87630000Y-77470000D03*
X87630000Y-74930000D03*
X90170000Y-77470000D03*
X90170000Y-74930000D03*
X92710000Y-77470000D03*
X92710000Y-74930000D03*
X95250000Y-77470000D03*
X95250000Y-74930000D03*
X97790000Y-77470000D03*
X97790000Y-74930000D03*
X100330000Y-77470000D03*
X100330000Y-74930000D03*
X102870000Y-77470000D03*
X102870000Y-74930000D03*
X105410000Y-77470000D03*
X105410000Y-74930000D03*
X107950000Y-77470000D03*
X107950000Y-74930000D03*
X110490000Y-77470000D03*
X110490000Y-74930000D03*
X113030000Y-77470000D03*
X113030000Y-74930000D03*
X115570000Y-77470000D03*
X115570000Y-74930000D03*
X118110000Y-77470000D03*
X118110000Y-74930000D03*
X120650000Y-77470000D03*
X120650000Y-74930000D03*
X123190000Y-77470000D03*
X123190000Y-74930000D03*
X125730000Y-77470000D03*
D10*
X125730000Y-74930000D03*
D12*
X53340000Y-68580000D03*
X53340000Y-55880000D03*
X66040000Y-55880000D03*
X66040000Y-68580000D03*
D11*
X76200000Y-38100000D03*
X76200000Y-35560000D03*
X78740000Y-38100000D03*
X78740000Y-35560000D03*
X81280000Y-38100000D03*
X81280000Y-35560000D03*
X83820000Y-38100000D03*
X83820000Y-35560000D03*
X86360000Y-38100000D03*
X86360000Y-35560000D03*
X88900000Y-38100000D03*
X88900000Y-35560000D03*
X91440000Y-38100000D03*
X91440000Y-35560000D03*
X93980000Y-38100000D03*
X93980000Y-35560000D03*
X96520000Y-38100000D03*
X96520000Y-35560000D03*
X99060000Y-38100000D03*
X99060000Y-35560000D03*
X101600000Y-38100000D03*
X101600000Y-35560000D03*
X104140000Y-38100000D03*
X104140000Y-35560000D03*
X106680000Y-38100000D03*
X106680000Y-35560000D03*
X109220000Y-38100000D03*
X109220000Y-35560000D03*
X111760000Y-38100000D03*
X111760000Y-35560000D03*
X114300000Y-38100000D03*
X114300000Y-35560000D03*
X116840000Y-38100000D03*
X116840000Y-35560000D03*
X119380000Y-38100000D03*
X119380000Y-35560000D03*
X121920000Y-38100000D03*
X121920000Y-35560000D03*
X124460000Y-38100000D03*
D10*
X124460000Y-35560000D03*
D13*
X81915000Y-54180000D03*
X83185000Y-54180000D03*
X84455000Y-54180000D03*
X85725000Y-54180000D03*
X86995000Y-54180000D03*
X88265000Y-54180000D03*
X89535000Y-54180000D03*
X90805000Y-54180000D03*
X90805000Y-44880000D03*
X89535000Y-44880000D03*
X88265000Y-44880000D03*
X86995000Y-44880000D03*
X85725000Y-44880000D03*
X84455000Y-44880000D03*
X83185000Y-44880000D03*
X81915000Y-44880000D03*
X93345000Y-54180000D03*
X94615000Y-54180000D03*
X95885000Y-54180000D03*
X97155000Y-54180000D03*
X98425000Y-54180000D03*
X99695000Y-54180000D03*
X100965000Y-54180000D03*
X102235000Y-54180000D03*
X102235000Y-44880000D03*
X100965000Y-44880000D03*
X99695000Y-44880000D03*
X98425000Y-44880000D03*
X97155000Y-44880000D03*
X95885000Y-44880000D03*
X94615000Y-44880000D03*
X93345000Y-44880000D03*
X104775000Y-44880000D03*
X106045000Y-44880000D03*
X107315000Y-44880000D03*
X108585000Y-44880000D03*
X109855000Y-44880000D03*
X111125000Y-44880000D03*
X112395000Y-44880000D03*
X113665000Y-44880000D03*
X113665000Y-54180000D03*
X112395000Y-54180000D03*
X111125000Y-54180000D03*
X109855000Y-54180000D03*
X108585000Y-54180000D03*
X107315000Y-54180000D03*
X106045000Y-54180000D03*
X104775000Y-54180000D03*
X116205000Y-44880000D03*
X117475000Y-44880000D03*
X118745000Y-44880000D03*
X120015000Y-44880000D03*
X121285000Y-44880000D03*
X122555000Y-44880000D03*
X123825000Y-44880000D03*
X125095000Y-44880000D03*
X125095000Y-54180000D03*
X123825000Y-54180000D03*
X122555000Y-54180000D03*
X121285000Y-54180000D03*
X120015000Y-54180000D03*
X118745000Y-54180000D03*
X117475000Y-54180000D03*
X116205000Y-54180000D03*
D14*
X125095000Y-55530002D03*
X106045000Y-52829998D03*
X102235000Y-55626000D03*
X117475000Y-55880000D03*
X94615000Y-55880000D03*
X113665000Y-52705000D03*
X113665000Y-52705000D03*
X94615000Y-52829998D03*
X113665000Y-55753000D03*
X117475000Y-52829998D03*
X125095000Y-52578000D03*
X106045000Y-55530002D03*
X102235000Y-52829998D03*
X83185000Y-52705000D03*
X90805000Y-52705000D03*
X103571282Y-52578000D03*
X104140000Y-57658000D03*
X95885000Y-50292000D03*
X123190000Y-62865000D03*
X113665000Y-46482000D03*
X117475000Y-43529998D03*
X106045000Y-46355000D03*
X94615000Y-46609000D03*
X102235000Y-46355000D03*
X125095000Y-43529998D03*
X122555000Y-46482000D03*
X111125000Y-46482000D03*
X117475000Y-46482000D03*
X106045000Y-43434000D03*
X99568000Y-46230002D03*
X90805000Y-43815000D03*
X90805000Y-43815000D03*
X83185000Y-43815000D03*
X94615000Y-43529998D03*
D15*
X84455000Y-44880000D02*
X84455000Y-44430000D01*
X84455000Y-44430000D02*
X88060010Y-40824990D01*
X88060010Y-40824990D02*
X93795010Y-40824990D01*
X93795010Y-40824990D02*
X96520000Y-38100000D01*
X88880000Y-41275000D02*
X95885000Y-41275000D01*
X95885000Y-41275000D02*
X99060000Y-38100000D01*
X85725000Y-44880000D02*
X85725000Y-44430000D01*
X85725000Y-44430000D02*
X88880000Y-41275000D01*
X95885000Y-44880000D02*
X95885000Y-43815000D01*
X95885000Y-43815000D02*
X101600000Y-38100000D01*
X100945000Y-40640000D02*
X101600000Y-40640000D01*
X101600000Y-40640000D02*
X104140000Y-38100000D01*
X97155000Y-44880000D02*
X97155000Y-44430000D01*
X97155000Y-44430000D02*
X100945000Y-40640000D01*
X101580000Y-41275000D02*
X103505000Y-41275000D01*
X103505000Y-41275000D02*
X106680000Y-38100000D01*
X98425000Y-44880000D02*
X98425000Y-44430000D01*
X98425000Y-44430000D02*
X101580000Y-41275000D01*
X107315000Y-44880000D02*
X107315000Y-40005000D01*
X107315000Y-40005000D02*
X109220000Y-38100000D01*
X108585000Y-44880000D02*
X108585000Y-41275000D01*
X108585000Y-41275000D02*
X111760000Y-38100000D01*
X109855000Y-44880000D02*
X109855000Y-42545000D01*
X109855000Y-42545000D02*
X114300000Y-38100000D01*
X118745000Y-44880000D02*
X118745000Y-40005000D01*
X118745000Y-40005000D02*
X116840000Y-38100000D01*
X120015000Y-44880000D02*
X120015000Y-38735000D01*
X120015000Y-38735000D02*
X119380000Y-38100000D01*
X121285000Y-44880000D02*
X121285000Y-38735000D01*
X121285000Y-38735000D02*
X121920000Y-38100000D01*
X71120000Y-58420000D02*
X68580000Y-58420000D01*
X68580000Y-58420000D02*
X66040000Y-55880000D01*
X125095000Y-55530002D02*
X124529315Y-55530002D01*
X124529315Y-55530002D02*
X123825000Y-54825687D01*
X123825000Y-54825687D02*
X123825000Y-54180000D01*
X104777002Y-52829998D02*
X104775000Y-52832000D01*
X104775000Y-52832000D02*
X104775000Y-54180000D01*
X106045000Y-52829998D02*
X104777002Y-52829998D01*
X102235000Y-55626000D02*
X103779000Y-55626000D01*
X103779000Y-55626000D02*
X104775000Y-54630000D01*
X104775000Y-54630000D02*
X104775000Y-54180000D01*
X116586000Y-55880000D02*
X116205000Y-55499000D01*
X116205000Y-55499000D02*
X116205000Y-54180000D01*
X117475000Y-55880000D02*
X116586000Y-55880000D01*
X93345000Y-55180000D02*
X93345000Y-54180000D01*
X94615000Y-55880000D02*
X94049315Y-55530002D01*
X94049315Y-55530002D02*
X93695002Y-55530002D01*
X93695002Y-55530002D02*
X93345000Y-55180000D01*
X73660000Y-60960000D02*
X71120000Y-58420000D01*
X80440000Y-54180000D02*
X73660000Y-60960000D01*
X81915000Y-54180000D02*
X80440000Y-54180000D01*
X81915000Y-54180000D02*
X77040000Y-54180000D01*
D16*
X94615000Y-54180000D02*
X94615000Y-52829998D01*
X113665000Y-54180000D02*
X113665000Y-55753000D01*
X117475000Y-54180000D02*
X117475000Y-52829998D01*
X125095000Y-54180000D02*
X125095000Y-52578000D01*
X83185000Y-52705000D02*
X84582000Y-52705000D01*
X84582000Y-52705000D02*
X90805000Y-52705000D01*
X106045000Y-54180000D02*
X106045000Y-55530002D01*
X102235000Y-52829998D02*
X102235000Y-54180000D01*
X102235000Y-52829998D02*
X102235000Y-52930007D01*
X83185000Y-54180000D02*
X83185000Y-52705000D01*
X90805000Y-54180000D02*
X90805000Y-52705000D01*
D15*
X91420000Y-61595000D02*
X94615000Y-61595000D01*
X94615000Y-61595000D02*
X97790000Y-64770000D01*
X84455000Y-54180000D02*
X84455000Y-54630000D01*
X84455000Y-54630000D02*
X91420000Y-61595000D01*
X97790000Y-77470000D02*
X99060000Y-76200000D01*
X99060000Y-76200000D02*
X99060000Y-66040000D01*
X99060000Y-66040000D02*
X98653599Y-65633599D01*
X98653599Y-65633599D02*
X97790000Y-64770000D01*
X92055000Y-60960000D02*
X96520000Y-60960000D01*
X96520000Y-60960000D02*
X100330000Y-64770000D01*
X85725000Y-54180000D02*
X85725000Y-54630000D01*
X85725000Y-54630000D02*
X92055000Y-60960000D01*
X95885000Y-54180000D02*
X95885000Y-57785000D01*
X95885000Y-57785000D02*
X102870000Y-64770000D01*
X97155000Y-54180000D02*
X97155000Y-56515000D01*
X97155000Y-56515000D02*
X105410000Y-64770000D01*
X98425000Y-54180000D02*
X98425000Y-55245000D01*
X98425000Y-55245000D02*
X107950000Y-64770000D01*
X103571282Y-52578000D02*
X103571282Y-52012315D01*
X103571282Y-52012315D02*
X101850967Y-50292000D01*
X101850967Y-50292000D02*
X96450685Y-50292000D01*
X96450685Y-50292000D02*
X95885000Y-50292000D01*
X104149999Y-59066409D02*
X104149999Y-57667999D01*
X104149999Y-57667999D02*
X104140000Y-57658000D01*
X104149999Y-59066409D02*
X109138601Y-64055011D01*
X109138601Y-64055011D02*
X109138601Y-66121399D01*
X109138601Y-66121399D02*
X108813599Y-66446401D01*
X108813599Y-66446401D02*
X107950000Y-67310000D01*
X107315000Y-54180000D02*
X107315000Y-61595000D01*
X107315000Y-61595000D02*
X110490000Y-64770000D01*
X108585000Y-54180000D02*
X108585000Y-60325000D01*
X108585000Y-60325000D02*
X113030000Y-64770000D01*
X109855000Y-54180000D02*
X109855000Y-59055000D01*
X109855000Y-59055000D02*
X115570000Y-64770000D01*
X118745000Y-54180000D02*
X118745000Y-64135000D01*
X118745000Y-64135000D02*
X118110000Y-64770000D01*
X120015000Y-54180000D02*
X120015000Y-64135000D01*
X120015000Y-64135000D02*
X120650000Y-64770000D01*
X123190000Y-64770000D02*
X121285000Y-62865000D01*
X121285000Y-62865000D02*
X121285000Y-54180000D01*
X123190000Y-62865000D02*
X126137202Y-62865000D01*
X126593599Y-66446401D02*
X125730000Y-67310000D01*
X126137202Y-62865000D02*
X126918601Y-63646399D01*
X126918601Y-63646399D02*
X126918601Y-66121399D01*
X126918601Y-66121399D02*
X126593599Y-66446401D01*
D16*
X113665000Y-46482000D02*
X113099315Y-46482000D01*
X113099315Y-46482000D02*
X112395000Y-45777685D01*
X112395000Y-45777685D02*
X112395000Y-44880000D01*
X106045000Y-46355000D02*
X105479315Y-46355000D01*
X105479315Y-46355000D02*
X104775000Y-45650685D01*
X104775000Y-45650685D02*
X104775000Y-44880000D01*
X94615000Y-46609000D02*
X94049315Y-46609000D01*
X94049315Y-46609000D02*
X93345000Y-45904685D01*
X93345000Y-45904685D02*
X93345000Y-44880000D01*
X101669315Y-46355000D02*
X100965000Y-45650685D01*
X100965000Y-45650685D02*
X100965000Y-44880000D01*
X102235000Y-46355000D02*
X101669315Y-46355000D01*
X122555000Y-44880000D02*
X122555000Y-46482000D01*
X111125000Y-44880000D02*
X111125000Y-46482000D01*
X117475000Y-44880000D02*
X117475000Y-46482000D01*
X106045000Y-44880000D02*
X106045000Y-43434000D01*
X99695000Y-44880000D02*
X99695000Y-46103002D01*
X99695000Y-46103002D02*
X99568000Y-46230002D01*
X90805000Y-44880000D02*
X90805000Y-43815000D01*
X83185000Y-44880000D02*
X83185000Y-43815000D01*
X94615000Y-44880000D02*
X94615000Y-43529998D01*
D17*
G36*
X130234989Y-31342152D02*
X130824170Y-31735830D01*
X131217848Y-32325011D01*
X131350545Y-32992124D01*
X131345000Y-33020000D01*
X131345000Y-48133000D01*
X68707000Y-48133000D01*
X68707000Y-45165750D01*
X80980000Y-45165750D01*
X80980000Y-45756309D01*
X81076673Y-45989698D01*
X81255301Y-46168327D01*
X81488690Y-46265000D01*
X81629250Y-46265000D01*
X81788000Y-46106250D01*
X81788000Y-45007000D01*
X81138750Y-45007000D01*
X80980000Y-45165750D01*
X68707000Y-45165750D01*
X68707000Y-44003691D01*
X80980000Y-44003691D01*
X80980000Y-44594250D01*
X81138750Y-44753000D01*
X81788000Y-44753000D01*
X81788000Y-43653750D01*
X82042000Y-43653750D01*
X82042000Y-44753000D01*
X82050000Y-44753000D01*
X82050000Y-44880000D01*
X82062000Y-44940328D01*
X82062000Y-45007000D01*
X82042000Y-45007000D01*
X82042000Y-46106250D01*
X82200750Y-46265000D01*
X82341310Y-46265000D01*
X82558028Y-46175232D01*
X82637235Y-46228157D01*
X82885000Y-46277440D01*
X83485000Y-46277440D01*
X83732765Y-46228157D01*
X83820000Y-46169868D01*
X83907235Y-46228157D01*
X84155000Y-46277440D01*
X84755000Y-46277440D01*
X85002765Y-46228157D01*
X85090000Y-46169868D01*
X85177235Y-46228157D01*
X85425000Y-46277440D01*
X86025000Y-46277440D01*
X86272765Y-46228157D01*
X86360000Y-46169868D01*
X86447235Y-46228157D01*
X86695000Y-46277440D01*
X87295000Y-46277440D01*
X87542765Y-46228157D01*
X87630000Y-46169868D01*
X87717235Y-46228157D01*
X87965000Y-46277440D01*
X88565000Y-46277440D01*
X88812765Y-46228157D01*
X88891972Y-46175232D01*
X89108690Y-46265000D01*
X89249250Y-46265000D01*
X89408000Y-46106250D01*
X89408000Y-45007000D01*
X89388000Y-45007000D01*
X89388000Y-44753000D01*
X89408000Y-44753000D01*
X89408000Y-43653750D01*
X89662000Y-43653750D01*
X89662000Y-44753000D01*
X89670000Y-44753000D01*
X89670000Y-44880000D01*
X89682000Y-44940328D01*
X89682000Y-45007000D01*
X89662000Y-45007000D01*
X89662000Y-46106250D01*
X89820750Y-46265000D01*
X89961310Y-46265000D01*
X90178028Y-46175232D01*
X90257235Y-46228157D01*
X90505000Y-46277440D01*
X91105000Y-46277440D01*
X91352765Y-46228157D01*
X91562809Y-46087809D01*
X91703157Y-45877765D01*
X91752440Y-45630000D01*
X91752440Y-45465747D01*
X91853603Y-45314346D01*
X91883160Y-45165750D01*
X92410000Y-45165750D01*
X92410000Y-45756309D01*
X92506673Y-45989698D01*
X92685301Y-46168327D01*
X92918690Y-46265000D01*
X93059250Y-46265000D01*
X93218000Y-46106250D01*
X93218000Y-45007000D01*
X92568750Y-45007000D01*
X92410000Y-45165750D01*
X91883160Y-45165750D01*
X91940000Y-44880000D01*
X91940000Y-44003691D01*
X92410000Y-44003691D01*
X92410000Y-44594250D01*
X92568750Y-44753000D01*
X93218000Y-44753000D01*
X93218000Y-43653750D01*
X93059250Y-43495000D01*
X92918690Y-43495000D01*
X92685301Y-43591673D01*
X92506673Y-43770302D01*
X92410000Y-44003691D01*
X91940000Y-44003691D01*
X91940000Y-43815000D01*
X91853603Y-43380654D01*
X91607566Y-43012434D01*
X91239346Y-42766397D01*
X90805000Y-42680000D01*
X90370654Y-42766397D01*
X90002434Y-43012434D01*
X89756397Y-43380654D01*
X89712025Y-43603725D01*
X89662000Y-43653750D01*
X89408000Y-43653750D01*
X89249250Y-43495000D01*
X89108690Y-43495000D01*
X88891972Y-43584768D01*
X88812765Y-43531843D01*
X88565000Y-43482560D01*
X87965000Y-43482560D01*
X87717235Y-43531843D01*
X87659143Y-43570659D01*
X89194802Y-42035000D01*
X95885000Y-42035000D01*
X96175839Y-41977148D01*
X96422401Y-41812401D01*
X98682027Y-39552775D01*
X99007651Y-39617546D01*
X95609907Y-43015291D01*
X95417566Y-42727432D01*
X95049346Y-42481395D01*
X94615000Y-42394998D01*
X94180654Y-42481395D01*
X93812434Y-42727432D01*
X93566397Y-43095652D01*
X93480000Y-43529998D01*
X93480000Y-43645750D01*
X93472000Y-43653750D01*
X93472000Y-44753000D01*
X93480000Y-44753000D01*
X93480000Y-44880000D01*
X93492000Y-44940328D01*
X93492000Y-45007000D01*
X93472000Y-45007000D01*
X93472000Y-46106250D01*
X93630750Y-46265000D01*
X93771310Y-46265000D01*
X93988028Y-46175232D01*
X94067235Y-46228157D01*
X94315000Y-46277440D01*
X94915000Y-46277440D01*
X95162765Y-46228157D01*
X95250000Y-46169868D01*
X95337235Y-46228157D01*
X95585000Y-46277440D01*
X96185000Y-46277440D01*
X96432765Y-46228157D01*
X96520000Y-46169868D01*
X96607235Y-46228157D01*
X96855000Y-46277440D01*
X97455000Y-46277440D01*
X97702765Y-46228157D01*
X97790000Y-46169868D01*
X97877235Y-46228157D01*
X98125000Y-46277440D01*
X98442436Y-46277440D01*
X98519397Y-46664347D01*
X98765434Y-47032568D01*
X99133655Y-47278605D01*
X99568000Y-47365002D01*
X100002345Y-47278605D01*
X100370566Y-47032568D01*
X100497566Y-46905568D01*
X100643628Y-46686971D01*
X100743603Y-46537348D01*
X100827207Y-46117043D01*
X100838000Y-46106250D01*
X100838000Y-45007000D01*
X100830000Y-45007000D01*
X100830000Y-44880000D01*
X100818000Y-44819672D01*
X100818000Y-44753000D01*
X100838000Y-44753000D01*
X100838000Y-43653750D01*
X101092000Y-43653750D01*
X101092000Y-44753000D01*
X101112000Y-44753000D01*
X101112000Y-45007000D01*
X101092000Y-45007000D01*
X101092000Y-46106250D01*
X101250750Y-46265000D01*
X101391310Y-46265000D01*
X101608028Y-46175232D01*
X101687235Y-46228157D01*
X101935000Y-46277440D01*
X102535000Y-46277440D01*
X102782765Y-46228157D01*
X102992809Y-46087809D01*
X103133157Y-45877765D01*
X103182440Y-45630000D01*
X103182440Y-45165750D01*
X103840000Y-45165750D01*
X103840000Y-45756309D01*
X103936673Y-45989698D01*
X104115301Y-46168327D01*
X104348690Y-46265000D01*
X104489250Y-46265000D01*
X104648000Y-46106250D01*
X104648000Y-45007000D01*
X103998750Y-45007000D01*
X103840000Y-45165750D01*
X103182440Y-45165750D01*
X103182440Y-44130000D01*
X103157316Y-44003691D01*
X103840000Y-44003691D01*
X103840000Y-44594250D01*
X103998750Y-44753000D01*
X104648000Y-44753000D01*
X104648000Y-43653750D01*
X104489250Y-43495000D01*
X104348690Y-43495000D01*
X104115301Y-43591673D01*
X103936673Y-43770302D01*
X103840000Y-44003691D01*
X103157316Y-44003691D01*
X103133157Y-43882235D01*
X102992809Y-43672191D01*
X102782765Y-43531843D01*
X102535000Y-43482560D01*
X101935000Y-43482560D01*
X101687235Y-43531843D01*
X101608028Y-43584768D01*
X101391310Y-43495000D01*
X101250750Y-43495000D01*
X101092000Y-43653750D01*
X100838000Y-43653750D01*
X100679250Y-43495000D01*
X100538690Y-43495000D01*
X100361342Y-43568460D01*
X101894802Y-42035000D01*
X103505000Y-42035000D01*
X103795839Y-41977148D01*
X104042401Y-41812401D01*
X106302027Y-39552775D01*
X106671571Y-39626282D01*
X106612852Y-39714161D01*
X106555000Y-40005000D01*
X106555000Y-42435947D01*
X106479346Y-42385397D01*
X106045000Y-42299000D01*
X105610654Y-42385397D01*
X105242434Y-42631434D01*
X104996397Y-42999654D01*
X104910000Y-43434000D01*
X104910000Y-43645750D01*
X104902000Y-43653750D01*
X104902000Y-44753000D01*
X104910000Y-44753000D01*
X104910000Y-44880000D01*
X104922000Y-44940328D01*
X104922000Y-45007000D01*
X104902000Y-45007000D01*
X104902000Y-46106250D01*
X105060750Y-46265000D01*
X105201310Y-46265000D01*
X105418028Y-46175232D01*
X105497235Y-46228157D01*
X105745000Y-46277440D01*
X106345000Y-46277440D01*
X106592765Y-46228157D01*
X106680000Y-46169868D01*
X106767235Y-46228157D01*
X107015000Y-46277440D01*
X107615000Y-46277440D01*
X107862765Y-46228157D01*
X107950000Y-46169868D01*
X108037235Y-46228157D01*
X108285000Y-46277440D01*
X108885000Y-46277440D01*
X109132765Y-46228157D01*
X109220000Y-46169868D01*
X109307235Y-46228157D01*
X109555000Y-46277440D01*
X109990000Y-46277440D01*
X109990000Y-46482000D01*
X110076397Y-46916346D01*
X110322434Y-47284566D01*
X110690654Y-47530603D01*
X111125000Y-47617000D01*
X111559346Y-47530603D01*
X111927566Y-47284566D01*
X112173603Y-46916346D01*
X112260000Y-46482000D01*
X112260000Y-46114250D01*
X112268000Y-46106250D01*
X112268000Y-45007000D01*
X112260000Y-45007000D01*
X112260000Y-44880000D01*
X112248000Y-44819672D01*
X112248000Y-44753000D01*
X112268000Y-44753000D01*
X112268000Y-43653750D01*
X112522000Y-43653750D01*
X112522000Y-44753000D01*
X112542000Y-44753000D01*
X112542000Y-45007000D01*
X112522000Y-45007000D01*
X112522000Y-46106250D01*
X112680750Y-46265000D01*
X112821310Y-46265000D01*
X113038028Y-46175232D01*
X113117235Y-46228157D01*
X113365000Y-46277440D01*
X113965000Y-46277440D01*
X114212765Y-46228157D01*
X114422809Y-46087809D01*
X114563157Y-45877765D01*
X114612440Y-45630000D01*
X114612440Y-45165750D01*
X115270000Y-45165750D01*
X115270000Y-45756309D01*
X115366673Y-45989698D01*
X115545301Y-46168327D01*
X115778690Y-46265000D01*
X115919250Y-46265000D01*
X116078000Y-46106250D01*
X116078000Y-45007000D01*
X115428750Y-45007000D01*
X115270000Y-45165750D01*
X114612440Y-45165750D01*
X114612440Y-44130000D01*
X114587316Y-44003691D01*
X115270000Y-44003691D01*
X115270000Y-44594250D01*
X115428750Y-44753000D01*
X116078000Y-44753000D01*
X116078000Y-43653750D01*
X115919250Y-43495000D01*
X115778690Y-43495000D01*
X115545301Y-43591673D01*
X115366673Y-43770302D01*
X115270000Y-44003691D01*
X114587316Y-44003691D01*
X114563157Y-43882235D01*
X114422809Y-43672191D01*
X114212765Y-43531843D01*
X113965000Y-43482560D01*
X113365000Y-43482560D01*
X113117235Y-43531843D01*
X113038028Y-43584768D01*
X112821310Y-43495000D01*
X112680750Y-43495000D01*
X112522000Y-43653750D01*
X112268000Y-43653750D01*
X112109250Y-43495000D01*
X111968690Y-43495000D01*
X111751972Y-43584768D01*
X111672765Y-43531843D01*
X111425000Y-43482560D01*
X110825000Y-43482560D01*
X110615000Y-43524331D01*
X110615000Y-42859802D01*
X113922027Y-39552775D01*
X114300000Y-39627959D01*
X114873489Y-39513885D01*
X115359670Y-39189029D01*
X115570000Y-38874248D01*
X115780330Y-39189029D01*
X116266511Y-39513885D01*
X116840000Y-39627959D01*
X117217973Y-39552775D01*
X117985000Y-40319802D01*
X117985000Y-43524331D01*
X117775000Y-43482560D01*
X117175000Y-43482560D01*
X116927235Y-43531843D01*
X116848028Y-43584768D01*
X116631310Y-43495000D01*
X116490750Y-43495000D01*
X116332000Y-43653750D01*
X116332000Y-44753000D01*
X116352000Y-44753000D01*
X116352000Y-44819672D01*
X116340000Y-44880000D01*
X116340000Y-45007000D01*
X116332000Y-45007000D01*
X116332000Y-46106250D01*
X116340000Y-46114250D01*
X116340000Y-46482000D01*
X116426397Y-46916346D01*
X116672434Y-47284566D01*
X117040654Y-47530603D01*
X117475000Y-47617000D01*
X117909346Y-47530603D01*
X118277566Y-47284566D01*
X118523603Y-46916346D01*
X118610000Y-46482000D01*
X118610000Y-46277440D01*
X119045000Y-46277440D01*
X119292765Y-46228157D01*
X119380000Y-46169868D01*
X119467235Y-46228157D01*
X119715000Y-46277440D01*
X120315000Y-46277440D01*
X120562765Y-46228157D01*
X120650000Y-46169868D01*
X120737235Y-46228157D01*
X120985000Y-46277440D01*
X121420000Y-46277440D01*
X121420000Y-46482000D01*
X121506397Y-46916346D01*
X121752434Y-47284566D01*
X122120654Y-47530603D01*
X122555000Y-47617000D01*
X122989346Y-47530603D01*
X123357566Y-47284566D01*
X123603603Y-46916346D01*
X123690000Y-46482000D01*
X123690000Y-46114250D01*
X123698000Y-46106250D01*
X123698000Y-45007000D01*
X123690000Y-45007000D01*
X123690000Y-44880000D01*
X123678000Y-44819672D01*
X123678000Y-44753000D01*
X123698000Y-44753000D01*
X123698000Y-43653750D01*
X123952000Y-43653750D01*
X123952000Y-44753000D01*
X123972000Y-44753000D01*
X123972000Y-45007000D01*
X123952000Y-45007000D01*
X123952000Y-46106250D01*
X124110750Y-46265000D01*
X124251310Y-46265000D01*
X124468028Y-46175232D01*
X124547235Y-46228157D01*
X124795000Y-46277440D01*
X125395000Y-46277440D01*
X125642765Y-46228157D01*
X125852809Y-46087809D01*
X125993157Y-45877765D01*
X126042440Y-45630000D01*
X126042440Y-44130000D01*
X125993157Y-43882235D01*
X125852809Y-43672191D01*
X125642765Y-43531843D01*
X125395000Y-43482560D01*
X124795000Y-43482560D01*
X124547235Y-43531843D01*
X124468028Y-43584768D01*
X124251310Y-43495000D01*
X124110750Y-43495000D01*
X123952000Y-43653750D01*
X123698000Y-43653750D01*
X123539250Y-43495000D01*
X123398690Y-43495000D01*
X123181972Y-43584768D01*
X123102765Y-43531843D01*
X122855000Y-43482560D01*
X122255000Y-43482560D01*
X122045000Y-43524331D01*
X122045000Y-39603095D01*
X122493489Y-39513885D01*
X122979670Y-39189029D01*
X123190000Y-38874248D01*
X123400330Y-39189029D01*
X123886511Y-39513885D01*
X124460000Y-39627959D01*
X125033489Y-39513885D01*
X125519670Y-39189029D01*
X125844526Y-38702848D01*
X125958600Y-38129359D01*
X125958600Y-38070641D01*
X125844526Y-37497152D01*
X125532096Y-37029568D01*
X125571365Y-37021757D01*
X125781409Y-36881409D01*
X125921757Y-36671365D01*
X125971040Y-36423600D01*
X125971040Y-34696400D01*
X125921757Y-34448635D01*
X125781409Y-34238591D01*
X125571365Y-34098243D01*
X125323600Y-34048960D01*
X123596400Y-34048960D01*
X123348635Y-34098243D01*
X123138591Y-34238591D01*
X122998243Y-34448635D01*
X122990559Y-34487267D01*
X122979670Y-34470971D01*
X122493489Y-34146115D01*
X121920000Y-34032041D01*
X121346511Y-34146115D01*
X120860330Y-34470971D01*
X120650000Y-34785752D01*
X120439670Y-34470971D01*
X119953489Y-34146115D01*
X119380000Y-34032041D01*
X118806511Y-34146115D01*
X118320330Y-34470971D01*
X118110000Y-34785752D01*
X117899670Y-34470971D01*
X117413489Y-34146115D01*
X116840000Y-34032041D01*
X116266511Y-34146115D01*
X115780330Y-34470971D01*
X115570000Y-34785752D01*
X115359670Y-34470971D01*
X114873489Y-34146115D01*
X114300000Y-34032041D01*
X113726511Y-34146115D01*
X113240330Y-34470971D01*
X113030000Y-34785752D01*
X112819670Y-34470971D01*
X112333489Y-34146115D01*
X111760000Y-34032041D01*
X111186511Y-34146115D01*
X110700330Y-34470971D01*
X110490000Y-34785752D01*
X110279670Y-34470971D01*
X109793489Y-34146115D01*
X109220000Y-34032041D01*
X108646511Y-34146115D01*
X108160330Y-34470971D01*
X107950000Y-34785752D01*
X107739670Y-34470971D01*
X107253489Y-34146115D01*
X106680000Y-34032041D01*
X106106511Y-34146115D01*
X105620330Y-34470971D01*
X105410000Y-34785752D01*
X105199670Y-34470971D01*
X104713489Y-34146115D01*
X104140000Y-34032041D01*
X103566511Y-34146115D01*
X103080330Y-34470971D01*
X102870000Y-34785752D01*
X102659670Y-34470971D01*
X102173489Y-34146115D01*
X101600000Y-34032041D01*
X101026511Y-34146115D01*
X100540330Y-34470971D01*
X100330000Y-34785752D01*
X100119670Y-34470971D01*
X99633489Y-34146115D01*
X99060000Y-34032041D01*
X98486511Y-34146115D01*
X98000330Y-34470971D01*
X97790000Y-34785752D01*
X97579670Y-34470971D01*
X97093489Y-34146115D01*
X96520000Y-34032041D01*
X95946511Y-34146115D01*
X95460330Y-34470971D01*
X95250000Y-34785752D01*
X95039670Y-34470971D01*
X94553489Y-34146115D01*
X93980000Y-34032041D01*
X93406511Y-34146115D01*
X92920330Y-34470971D01*
X92710000Y-34785752D01*
X92499670Y-34470971D01*
X92013489Y-34146115D01*
X91440000Y-34032041D01*
X90866511Y-34146115D01*
X90380330Y-34470971D01*
X90170000Y-34785752D01*
X89959670Y-34470971D01*
X89473489Y-34146115D01*
X88900000Y-34032041D01*
X88326511Y-34146115D01*
X87840330Y-34470971D01*
X87624336Y-34794228D01*
X87566821Y-34671510D01*
X87134947Y-34277312D01*
X86719026Y-34105042D01*
X86487000Y-34226183D01*
X86487000Y-35433000D01*
X86507000Y-35433000D01*
X86507000Y-35687000D01*
X86487000Y-35687000D01*
X86487000Y-37973000D01*
X86507000Y-37973000D01*
X86507000Y-38227000D01*
X86487000Y-38227000D01*
X86487000Y-39433817D01*
X86719026Y-39554958D01*
X87134947Y-39382688D01*
X87566821Y-38988490D01*
X87624336Y-38865772D01*
X87840330Y-39189029D01*
X88326511Y-39513885D01*
X88900000Y-39627959D01*
X89473489Y-39513885D01*
X89959670Y-39189029D01*
X90170000Y-38874248D01*
X90380330Y-39189029D01*
X90866511Y-39513885D01*
X91440000Y-39627959D01*
X92013489Y-39513885D01*
X92499670Y-39189029D01*
X92710000Y-38874248D01*
X92920330Y-39189029D01*
X93406511Y-39513885D01*
X93927652Y-39617546D01*
X93480208Y-40064990D01*
X88060010Y-40064990D01*
X87769171Y-40122842D01*
X87522609Y-40287589D01*
X84327638Y-43482560D01*
X84253873Y-43482560D01*
X84233603Y-43380654D01*
X83987566Y-43012434D01*
X83619346Y-42766397D01*
X83185000Y-42680000D01*
X82750654Y-42766397D01*
X82382434Y-43012434D01*
X82136397Y-43380654D01*
X82092025Y-43603725D01*
X82042000Y-43653750D01*
X81788000Y-43653750D01*
X81629250Y-43495000D01*
X81488690Y-43495000D01*
X81255301Y-43591673D01*
X81076673Y-43770302D01*
X80980000Y-44003691D01*
X68707000Y-44003691D01*
X68707000Y-35530641D01*
X74701400Y-35530641D01*
X74701400Y-35589359D01*
X74815474Y-36162848D01*
X75140330Y-36649029D01*
X75411172Y-36830000D01*
X75140330Y-37010971D01*
X74815474Y-37497152D01*
X74701400Y-38070641D01*
X74701400Y-38129359D01*
X74815474Y-38702848D01*
X75140330Y-39189029D01*
X75626511Y-39513885D01*
X76200000Y-39627959D01*
X76773489Y-39513885D01*
X77259670Y-39189029D01*
X77470000Y-38874248D01*
X77680330Y-39189029D01*
X78166511Y-39513885D01*
X78740000Y-39627959D01*
X79313489Y-39513885D01*
X79799670Y-39189029D01*
X80010000Y-38874248D01*
X80220330Y-39189029D01*
X80706511Y-39513885D01*
X81280000Y-39627959D01*
X81853489Y-39513885D01*
X82339670Y-39189029D01*
X82550000Y-38874248D01*
X82760330Y-39189029D01*
X83246511Y-39513885D01*
X83820000Y-39627959D01*
X84393489Y-39513885D01*
X84879670Y-39189029D01*
X85095664Y-38865772D01*
X85153179Y-38988490D01*
X85585053Y-39382688D01*
X86000974Y-39554958D01*
X86233000Y-39433817D01*
X86233000Y-38227000D01*
X86213000Y-38227000D01*
X86213000Y-37973000D01*
X86233000Y-37973000D01*
X86233000Y-35687000D01*
X86213000Y-35687000D01*
X86213000Y-35433000D01*
X86233000Y-35433000D01*
X86233000Y-34226183D01*
X86000974Y-34105042D01*
X85585053Y-34277312D01*
X85153179Y-34671510D01*
X85095664Y-34794228D01*
X84879670Y-34470971D01*
X84393489Y-34146115D01*
X83820000Y-34032041D01*
X83246511Y-34146115D01*
X82760330Y-34470971D01*
X82550000Y-34785752D01*
X82339670Y-34470971D01*
X81853489Y-34146115D01*
X81280000Y-34032041D01*
X80706511Y-34146115D01*
X80220330Y-34470971D01*
X80010000Y-34785752D01*
X79799670Y-34470971D01*
X79313489Y-34146115D01*
X78740000Y-34032041D01*
X78166511Y-34146115D01*
X77680330Y-34470971D01*
X77470000Y-34785752D01*
X77259670Y-34470971D01*
X76773489Y-34146115D01*
X76200000Y-34032041D01*
X75626511Y-34146115D01*
X75140330Y-34470971D01*
X74815474Y-34957152D01*
X74701400Y-35530641D01*
X68707000Y-35530641D01*
X68707000Y-31215000D01*
X129540000Y-31215000D01*
X129567876Y-31209455D01*
X130234989Y-31342152D01*
X130234989Y-31342152D01*
G37*
X130234989Y-31342152D02*
X130824170Y-31735830D01*
X131217848Y-32325011D01*
X131350545Y-32992124D01*
X131345000Y-33020000D01*
X131345000Y-48133000D01*
X68707000Y-48133000D01*
X68707000Y-45165750D01*
X80980000Y-45165750D01*
X80980000Y-45756309D01*
X81076673Y-45989698D01*
X81255301Y-46168327D01*
X81488690Y-46265000D01*
X81629250Y-46265000D01*
X81788000Y-46106250D01*
X81788000Y-45007000D01*
X81138750Y-45007000D01*
X80980000Y-45165750D01*
X68707000Y-45165750D01*
X68707000Y-44003691D01*
X80980000Y-44003691D01*
X80980000Y-44594250D01*
X81138750Y-44753000D01*
X81788000Y-44753000D01*
X81788000Y-43653750D01*
X82042000Y-43653750D01*
X82042000Y-44753000D01*
X82050000Y-44753000D01*
X82050000Y-44880000D01*
X82062000Y-44940328D01*
X82062000Y-45007000D01*
X82042000Y-45007000D01*
X82042000Y-46106250D01*
X82200750Y-46265000D01*
X82341310Y-46265000D01*
X82558028Y-46175232D01*
X82637235Y-46228157D01*
X82885000Y-46277440D01*
X83485000Y-46277440D01*
X83732765Y-46228157D01*
X83820000Y-46169868D01*
X83907235Y-46228157D01*
X84155000Y-46277440D01*
X84755000Y-46277440D01*
X85002765Y-46228157D01*
X85090000Y-46169868D01*
X85177235Y-46228157D01*
X85425000Y-46277440D01*
X86025000Y-46277440D01*
X86272765Y-46228157D01*
X86360000Y-46169868D01*
X86447235Y-46228157D01*
X86695000Y-46277440D01*
X87295000Y-46277440D01*
X87542765Y-46228157D01*
X87630000Y-46169868D01*
X87717235Y-46228157D01*
X87965000Y-46277440D01*
X88565000Y-46277440D01*
X88812765Y-46228157D01*
X88891972Y-46175232D01*
X89108690Y-46265000D01*
X89249250Y-46265000D01*
X89408000Y-46106250D01*
X89408000Y-45007000D01*
X89388000Y-45007000D01*
X89388000Y-44753000D01*
X89408000Y-44753000D01*
X89408000Y-43653750D01*
X89662000Y-43653750D01*
X89662000Y-44753000D01*
X89670000Y-44753000D01*
X89670000Y-44880000D01*
X89682000Y-44940328D01*
X89682000Y-45007000D01*
X89662000Y-45007000D01*
X89662000Y-46106250D01*
X89820750Y-46265000D01*
X89961310Y-46265000D01*
X90178028Y-46175232D01*
X90257235Y-46228157D01*
X90505000Y-46277440D01*
X91105000Y-46277440D01*
X91352765Y-46228157D01*
X91562809Y-46087809D01*
X91703157Y-45877765D01*
X91752440Y-45630000D01*
X91752440Y-45465747D01*
X91853603Y-45314346D01*
X91883160Y-45165750D01*
X92410000Y-45165750D01*
X92410000Y-45756309D01*
X92506673Y-45989698D01*
X92685301Y-46168327D01*
X92918690Y-46265000D01*
X93059250Y-46265000D01*
X93218000Y-46106250D01*
X93218000Y-45007000D01*
X92568750Y-45007000D01*
X92410000Y-45165750D01*
X91883160Y-45165750D01*
X91940000Y-44880000D01*
X91940000Y-44003691D01*
X92410000Y-44003691D01*
X92410000Y-44594250D01*
X92568750Y-44753000D01*
X93218000Y-44753000D01*
X93218000Y-43653750D01*
X93059250Y-43495000D01*
X92918690Y-43495000D01*
X92685301Y-43591673D01*
X92506673Y-43770302D01*
X92410000Y-44003691D01*
X91940000Y-44003691D01*
X91940000Y-43815000D01*
X91853603Y-43380654D01*
X91607566Y-43012434D01*
X91239346Y-42766397D01*
X90805000Y-42680000D01*
X90370654Y-42766397D01*
X90002434Y-43012434D01*
X89756397Y-43380654D01*
X89712025Y-43603725D01*
X89662000Y-43653750D01*
X89408000Y-43653750D01*
X89249250Y-43495000D01*
X89108690Y-43495000D01*
X88891972Y-43584768D01*
X88812765Y-43531843D01*
X88565000Y-43482560D01*
X87965000Y-43482560D01*
X87717235Y-43531843D01*
X87659143Y-43570659D01*
X89194802Y-42035000D01*
X95885000Y-42035000D01*
X96175839Y-41977148D01*
X96422401Y-41812401D01*
X98682027Y-39552775D01*
X99007651Y-39617546D01*
X95609907Y-43015291D01*
X95417566Y-42727432D01*
X95049346Y-42481395D01*
X94615000Y-42394998D01*
X94180654Y-42481395D01*
X93812434Y-42727432D01*
X93566397Y-43095652D01*
X93480000Y-43529998D01*
X93480000Y-43645750D01*
X93472000Y-43653750D01*
X93472000Y-44753000D01*
X93480000Y-44753000D01*
X93480000Y-44880000D01*
X93492000Y-44940328D01*
X93492000Y-45007000D01*
X93472000Y-45007000D01*
X93472000Y-46106250D01*
X93630750Y-46265000D01*
X93771310Y-46265000D01*
X93988028Y-46175232D01*
X94067235Y-46228157D01*
X94315000Y-46277440D01*
X94915000Y-46277440D01*
X95162765Y-46228157D01*
X95250000Y-46169868D01*
X95337235Y-46228157D01*
X95585000Y-46277440D01*
X96185000Y-46277440D01*
X96432765Y-46228157D01*
X96520000Y-46169868D01*
X96607235Y-46228157D01*
X96855000Y-46277440D01*
X97455000Y-46277440D01*
X97702765Y-46228157D01*
X97790000Y-46169868D01*
X97877235Y-46228157D01*
X98125000Y-46277440D01*
X98442436Y-46277440D01*
X98519397Y-46664347D01*
X98765434Y-47032568D01*
X99133655Y-47278605D01*
X99568000Y-47365002D01*
X100002345Y-47278605D01*
X100370566Y-47032568D01*
X100497566Y-46905568D01*
X100643628Y-46686971D01*
X100743603Y-46537348D01*
X100827207Y-46117043D01*
X100838000Y-46106250D01*
X100838000Y-45007000D01*
X100830000Y-45007000D01*
X100830000Y-44880000D01*
X100818000Y-44819672D01*
X100818000Y-44753000D01*
X100838000Y-44753000D01*
X100838000Y-43653750D01*
X101092000Y-43653750D01*
X101092000Y-44753000D01*
X101112000Y-44753000D01*
X101112000Y-45007000D01*
X101092000Y-45007000D01*
X101092000Y-46106250D01*
X101250750Y-46265000D01*
X101391310Y-46265000D01*
X101608028Y-46175232D01*
X101687235Y-46228157D01*
X101935000Y-46277440D01*
X102535000Y-46277440D01*
X102782765Y-46228157D01*
X102992809Y-46087809D01*
X103133157Y-45877765D01*
X103182440Y-45630000D01*
X103182440Y-45165750D01*
X103840000Y-45165750D01*
X103840000Y-45756309D01*
X103936673Y-45989698D01*
X104115301Y-46168327D01*
X104348690Y-46265000D01*
X104489250Y-46265000D01*
X104648000Y-46106250D01*
X104648000Y-45007000D01*
X103998750Y-45007000D01*
X103840000Y-45165750D01*
X103182440Y-45165750D01*
X103182440Y-44130000D01*
X103157316Y-44003691D01*
X103840000Y-44003691D01*
X103840000Y-44594250D01*
X103998750Y-44753000D01*
X104648000Y-44753000D01*
X104648000Y-43653750D01*
X104489250Y-43495000D01*
X104348690Y-43495000D01*
X104115301Y-43591673D01*
X103936673Y-43770302D01*
X103840000Y-44003691D01*
X103157316Y-44003691D01*
X103133157Y-43882235D01*
X102992809Y-43672191D01*
X102782765Y-43531843D01*
X102535000Y-43482560D01*
X101935000Y-43482560D01*
X101687235Y-43531843D01*
X101608028Y-43584768D01*
X101391310Y-43495000D01*
X101250750Y-43495000D01*
X101092000Y-43653750D01*
X100838000Y-43653750D01*
X100679250Y-43495000D01*
X100538690Y-43495000D01*
X100361342Y-43568460D01*
X101894802Y-42035000D01*
X103505000Y-42035000D01*
X103795839Y-41977148D01*
X104042401Y-41812401D01*
X106302027Y-39552775D01*
X106671571Y-39626282D01*
X106612852Y-39714161D01*
X106555000Y-40005000D01*
X106555000Y-42435947D01*
X106479346Y-42385397D01*
X106045000Y-42299000D01*
X105610654Y-42385397D01*
X105242434Y-42631434D01*
X104996397Y-42999654D01*
X104910000Y-43434000D01*
X104910000Y-43645750D01*
X104902000Y-43653750D01*
X104902000Y-44753000D01*
X104910000Y-44753000D01*
X104910000Y-44880000D01*
X104922000Y-44940328D01*
X104922000Y-45007000D01*
X104902000Y-45007000D01*
X104902000Y-46106250D01*
X105060750Y-46265000D01*
X105201310Y-46265000D01*
X105418028Y-46175232D01*
X105497235Y-46228157D01*
X105745000Y-46277440D01*
X106345000Y-46277440D01*
X106592765Y-46228157D01*
X106680000Y-46169868D01*
X106767235Y-46228157D01*
X107015000Y-46277440D01*
X107615000Y-46277440D01*
X107862765Y-46228157D01*
X107950000Y-46169868D01*
X108037235Y-46228157D01*
X108285000Y-46277440D01*
X108885000Y-46277440D01*
X109132765Y-46228157D01*
X109220000Y-46169868D01*
X109307235Y-46228157D01*
X109555000Y-46277440D01*
X109990000Y-46277440D01*
X109990000Y-46482000D01*
X110076397Y-46916346D01*
X110322434Y-47284566D01*
X110690654Y-47530603D01*
X111125000Y-47617000D01*
X111559346Y-47530603D01*
X111927566Y-47284566D01*
X112173603Y-46916346D01*
X112260000Y-46482000D01*
X112260000Y-46114250D01*
X112268000Y-46106250D01*
X112268000Y-45007000D01*
X112260000Y-45007000D01*
X112260000Y-44880000D01*
X112248000Y-44819672D01*
X112248000Y-44753000D01*
X112268000Y-44753000D01*
X112268000Y-43653750D01*
X112522000Y-43653750D01*
X112522000Y-44753000D01*
X112542000Y-44753000D01*
X112542000Y-45007000D01*
X112522000Y-45007000D01*
X112522000Y-46106250D01*
X112680750Y-46265000D01*
X112821310Y-46265000D01*
X113038028Y-46175232D01*
X113117235Y-46228157D01*
X113365000Y-46277440D01*
X113965000Y-46277440D01*
X114212765Y-46228157D01*
X114422809Y-46087809D01*
X114563157Y-45877765D01*
X114612440Y-45630000D01*
X114612440Y-45165750D01*
X115270000Y-45165750D01*
X115270000Y-45756309D01*
X115366673Y-45989698D01*
X115545301Y-46168327D01*
X115778690Y-46265000D01*
X115919250Y-46265000D01*
X116078000Y-46106250D01*
X116078000Y-45007000D01*
X115428750Y-45007000D01*
X115270000Y-45165750D01*
X114612440Y-45165750D01*
X114612440Y-44130000D01*
X114587316Y-44003691D01*
X115270000Y-44003691D01*
X115270000Y-44594250D01*
X115428750Y-44753000D01*
X116078000Y-44753000D01*
X116078000Y-43653750D01*
X115919250Y-43495000D01*
X115778690Y-43495000D01*
X115545301Y-43591673D01*
X115366673Y-43770302D01*
X115270000Y-44003691D01*
X114587316Y-44003691D01*
X114563157Y-43882235D01*
X114422809Y-43672191D01*
X114212765Y-43531843D01*
X113965000Y-43482560D01*
X113365000Y-43482560D01*
X113117235Y-43531843D01*
X113038028Y-43584768D01*
X112821310Y-43495000D01*
X112680750Y-43495000D01*
X112522000Y-43653750D01*
X112268000Y-43653750D01*
X112109250Y-43495000D01*
X111968690Y-43495000D01*
X111751972Y-43584768D01*
X111672765Y-43531843D01*
X111425000Y-43482560D01*
X110825000Y-43482560D01*
X110615000Y-43524331D01*
X110615000Y-42859802D01*
X113922027Y-39552775D01*
X114300000Y-39627959D01*
X114873489Y-39513885D01*
X115359670Y-39189029D01*
X115570000Y-38874248D01*
X115780330Y-39189029D01*
X116266511Y-39513885D01*
X116840000Y-39627959D01*
X117217973Y-39552775D01*
X117985000Y-40319802D01*
X117985000Y-43524331D01*
X117775000Y-43482560D01*
X117175000Y-43482560D01*
X116927235Y-43531843D01*
X116848028Y-43584768D01*
X116631310Y-43495000D01*
X116490750Y-43495000D01*
X116332000Y-43653750D01*
X116332000Y-44753000D01*
X116352000Y-44753000D01*
X116352000Y-44819672D01*
X116340000Y-44880000D01*
X116340000Y-45007000D01*
X116332000Y-45007000D01*
X116332000Y-46106250D01*
X116340000Y-46114250D01*
X116340000Y-46482000D01*
X116426397Y-46916346D01*
X116672434Y-47284566D01*
X117040654Y-47530603D01*
X117475000Y-47617000D01*
X117909346Y-47530603D01*
X118277566Y-47284566D01*
X118523603Y-46916346D01*
X118610000Y-46482000D01*
X118610000Y-46277440D01*
X119045000Y-46277440D01*
X119292765Y-46228157D01*
X119380000Y-46169868D01*
X119467235Y-46228157D01*
X119715000Y-46277440D01*
X120315000Y-46277440D01*
X120562765Y-46228157D01*
X120650000Y-46169868D01*
X120737235Y-46228157D01*
X120985000Y-46277440D01*
X121420000Y-46277440D01*
X121420000Y-46482000D01*
X121506397Y-46916346D01*
X121752434Y-47284566D01*
X122120654Y-47530603D01*
X122555000Y-47617000D01*
X122989346Y-47530603D01*
X123357566Y-47284566D01*
X123603603Y-46916346D01*
X123690000Y-46482000D01*
X123690000Y-46114250D01*
X123698000Y-46106250D01*
X123698000Y-45007000D01*
X123690000Y-45007000D01*
X123690000Y-44880000D01*
X123678000Y-44819672D01*
X123678000Y-44753000D01*
X123698000Y-44753000D01*
X123698000Y-43653750D01*
X123952000Y-43653750D01*
X123952000Y-44753000D01*
X123972000Y-44753000D01*
X123972000Y-45007000D01*
X123952000Y-45007000D01*
X123952000Y-46106250D01*
X124110750Y-46265000D01*
X124251310Y-46265000D01*
X124468028Y-46175232D01*
X124547235Y-46228157D01*
X124795000Y-46277440D01*
X125395000Y-46277440D01*
X125642765Y-46228157D01*
X125852809Y-46087809D01*
X125993157Y-45877765D01*
X126042440Y-45630000D01*
X126042440Y-44130000D01*
X125993157Y-43882235D01*
X125852809Y-43672191D01*
X125642765Y-43531843D01*
X125395000Y-43482560D01*
X124795000Y-43482560D01*
X124547235Y-43531843D01*
X124468028Y-43584768D01*
X124251310Y-43495000D01*
X124110750Y-43495000D01*
X123952000Y-43653750D01*
X123698000Y-43653750D01*
X123539250Y-43495000D01*
X123398690Y-43495000D01*
X123181972Y-43584768D01*
X123102765Y-43531843D01*
X122855000Y-43482560D01*
X122255000Y-43482560D01*
X122045000Y-43524331D01*
X122045000Y-39603095D01*
X122493489Y-39513885D01*
X122979670Y-39189029D01*
X123190000Y-38874248D01*
X123400330Y-39189029D01*
X123886511Y-39513885D01*
X124460000Y-39627959D01*
X125033489Y-39513885D01*
X125519670Y-39189029D01*
X125844526Y-38702848D01*
X125958600Y-38129359D01*
X125958600Y-38070641D01*
X125844526Y-37497152D01*
X125532096Y-37029568D01*
X125571365Y-37021757D01*
X125781409Y-36881409D01*
X125921757Y-36671365D01*
X125971040Y-36423600D01*
X125971040Y-34696400D01*
X125921757Y-34448635D01*
X125781409Y-34238591D01*
X125571365Y-34098243D01*
X125323600Y-34048960D01*
X123596400Y-34048960D01*
X123348635Y-34098243D01*
X123138591Y-34238591D01*
X122998243Y-34448635D01*
X122990559Y-34487267D01*
X122979670Y-34470971D01*
X122493489Y-34146115D01*
X121920000Y-34032041D01*
X121346511Y-34146115D01*
X120860330Y-34470971D01*
X120650000Y-34785752D01*
X120439670Y-34470971D01*
X119953489Y-34146115D01*
X119380000Y-34032041D01*
X118806511Y-34146115D01*
X118320330Y-34470971D01*
X118110000Y-34785752D01*
X117899670Y-34470971D01*
X117413489Y-34146115D01*
X116840000Y-34032041D01*
X116266511Y-34146115D01*
X115780330Y-34470971D01*
X115570000Y-34785752D01*
X115359670Y-34470971D01*
X114873489Y-34146115D01*
X114300000Y-34032041D01*
X113726511Y-34146115D01*
X113240330Y-34470971D01*
X113030000Y-34785752D01*
X112819670Y-34470971D01*
X112333489Y-34146115D01*
X111760000Y-34032041D01*
X111186511Y-34146115D01*
X110700330Y-34470971D01*
X110490000Y-34785752D01*
X110279670Y-34470971D01*
X109793489Y-34146115D01*
X109220000Y-34032041D01*
X108646511Y-34146115D01*
X108160330Y-34470971D01*
X107950000Y-34785752D01*
X107739670Y-34470971D01*
X107253489Y-34146115D01*
X106680000Y-34032041D01*
X106106511Y-34146115D01*
X105620330Y-34470971D01*
X105410000Y-34785752D01*
X105199670Y-34470971D01*
X104713489Y-34146115D01*
X104140000Y-34032041D01*
X103566511Y-34146115D01*
X103080330Y-34470971D01*
X102870000Y-34785752D01*
X102659670Y-34470971D01*
X102173489Y-34146115D01*
X101600000Y-34032041D01*
X101026511Y-34146115D01*
X100540330Y-34470971D01*
X100330000Y-34785752D01*
X100119670Y-34470971D01*
X99633489Y-34146115D01*
X99060000Y-34032041D01*
X98486511Y-34146115D01*
X98000330Y-34470971D01*
X97790000Y-34785752D01*
X97579670Y-34470971D01*
X97093489Y-34146115D01*
X96520000Y-34032041D01*
X95946511Y-34146115D01*
X95460330Y-34470971D01*
X95250000Y-34785752D01*
X95039670Y-34470971D01*
X94553489Y-34146115D01*
X93980000Y-34032041D01*
X93406511Y-34146115D01*
X92920330Y-34470971D01*
X92710000Y-34785752D01*
X92499670Y-34470971D01*
X92013489Y-34146115D01*
X91440000Y-34032041D01*
X90866511Y-34146115D01*
X90380330Y-34470971D01*
X90170000Y-34785752D01*
X89959670Y-34470971D01*
X89473489Y-34146115D01*
X88900000Y-34032041D01*
X88326511Y-34146115D01*
X87840330Y-34470971D01*
X87624336Y-34794228D01*
X87566821Y-34671510D01*
X87134947Y-34277312D01*
X86719026Y-34105042D01*
X86487000Y-34226183D01*
X86487000Y-35433000D01*
X86507000Y-35433000D01*
X86507000Y-35687000D01*
X86487000Y-35687000D01*
X86487000Y-37973000D01*
X86507000Y-37973000D01*
X86507000Y-38227000D01*
X86487000Y-38227000D01*
X86487000Y-39433817D01*
X86719026Y-39554958D01*
X87134947Y-39382688D01*
X87566821Y-38988490D01*
X87624336Y-38865772D01*
X87840330Y-39189029D01*
X88326511Y-39513885D01*
X88900000Y-39627959D01*
X89473489Y-39513885D01*
X89959670Y-39189029D01*
X90170000Y-38874248D01*
X90380330Y-39189029D01*
X90866511Y-39513885D01*
X91440000Y-39627959D01*
X92013489Y-39513885D01*
X92499670Y-39189029D01*
X92710000Y-38874248D01*
X92920330Y-39189029D01*
X93406511Y-39513885D01*
X93927652Y-39617546D01*
X93480208Y-40064990D01*
X88060010Y-40064990D01*
X87769171Y-40122842D01*
X87522609Y-40287589D01*
X84327638Y-43482560D01*
X84253873Y-43482560D01*
X84233603Y-43380654D01*
X83987566Y-43012434D01*
X83619346Y-42766397D01*
X83185000Y-42680000D01*
X82750654Y-42766397D01*
X82382434Y-43012434D01*
X82136397Y-43380654D01*
X82092025Y-43603725D01*
X82042000Y-43653750D01*
X81788000Y-43653750D01*
X81629250Y-43495000D01*
X81488690Y-43495000D01*
X81255301Y-43591673D01*
X81076673Y-43770302D01*
X80980000Y-44003691D01*
X68707000Y-44003691D01*
X68707000Y-35530641D01*
X74701400Y-35530641D01*
X74701400Y-35589359D01*
X74815474Y-36162848D01*
X75140330Y-36649029D01*
X75411172Y-36830000D01*
X75140330Y-37010971D01*
X74815474Y-37497152D01*
X74701400Y-38070641D01*
X74701400Y-38129359D01*
X74815474Y-38702848D01*
X75140330Y-39189029D01*
X75626511Y-39513885D01*
X76200000Y-39627959D01*
X76773489Y-39513885D01*
X77259670Y-39189029D01*
X77470000Y-38874248D01*
X77680330Y-39189029D01*
X78166511Y-39513885D01*
X78740000Y-39627959D01*
X79313489Y-39513885D01*
X79799670Y-39189029D01*
X80010000Y-38874248D01*
X80220330Y-39189029D01*
X80706511Y-39513885D01*
X81280000Y-39627959D01*
X81853489Y-39513885D01*
X82339670Y-39189029D01*
X82550000Y-38874248D01*
X82760330Y-39189029D01*
X83246511Y-39513885D01*
X83820000Y-39627959D01*
X84393489Y-39513885D01*
X84879670Y-39189029D01*
X85095664Y-38865772D01*
X85153179Y-38988490D01*
X85585053Y-39382688D01*
X86000974Y-39554958D01*
X86233000Y-39433817D01*
X86233000Y-38227000D01*
X86213000Y-38227000D01*
X86213000Y-37973000D01*
X86233000Y-37973000D01*
X86233000Y-35687000D01*
X86213000Y-35687000D01*
X86213000Y-35433000D01*
X86233000Y-35433000D01*
X86233000Y-34226183D01*
X86000974Y-34105042D01*
X85585053Y-34277312D01*
X85153179Y-34671510D01*
X85095664Y-34794228D01*
X84879670Y-34470971D01*
X84393489Y-34146115D01*
X83820000Y-34032041D01*
X83246511Y-34146115D01*
X82760330Y-34470971D01*
X82550000Y-34785752D01*
X82339670Y-34470971D01*
X81853489Y-34146115D01*
X81280000Y-34032041D01*
X80706511Y-34146115D01*
X80220330Y-34470971D01*
X80010000Y-34785752D01*
X79799670Y-34470971D01*
X79313489Y-34146115D01*
X78740000Y-34032041D01*
X78166511Y-34146115D01*
X77680330Y-34470971D01*
X77470000Y-34785752D01*
X77259670Y-34470971D01*
X76773489Y-34146115D01*
X76200000Y-34032041D01*
X75626511Y-34146115D01*
X75140330Y-34470971D01*
X74815474Y-34957152D01*
X74701400Y-35530641D01*
X68707000Y-35530641D01*
X68707000Y-31215000D01*
X129540000Y-31215000D01*
X129567876Y-31209455D01*
X130234989Y-31342152D01*
G36*
X95297954Y-51168919D02*
X95678223Y-51326820D01*
X96089971Y-51327179D01*
X96470515Y-51169942D01*
X96588663Y-51052000D01*
X101536165Y-51052000D01*
X102188427Y-51704262D01*
X101800654Y-51781395D01*
X101432434Y-52027432D01*
X101186397Y-52395652D01*
X101100000Y-52829998D01*
X101100000Y-52945750D01*
X101092000Y-52953750D01*
X101092000Y-54053000D01*
X101100000Y-54053000D01*
X101100000Y-54180000D01*
X101112000Y-54240328D01*
X101112000Y-54307000D01*
X101092000Y-54307000D01*
X101092000Y-55406250D01*
X101250750Y-55565000D01*
X101391310Y-55565000D01*
X101608028Y-55475232D01*
X101687235Y-55528157D01*
X101935000Y-55577440D01*
X102535000Y-55577440D01*
X102782765Y-55528157D01*
X102992809Y-55387809D01*
X103133157Y-55177765D01*
X103182440Y-54930000D01*
X103182440Y-54765747D01*
X103283603Y-54614346D01*
X103313160Y-54465750D01*
X103840000Y-54465750D01*
X103840000Y-55056309D01*
X103936673Y-55289698D01*
X104115301Y-55468327D01*
X104348690Y-55565000D01*
X104489250Y-55565000D01*
X104648000Y-55406250D01*
X104648000Y-54307000D01*
X103998750Y-54307000D01*
X103840000Y-54465750D01*
X103313160Y-54465750D01*
X103370000Y-54180000D01*
X103370000Y-53612825D01*
X103776253Y-53613179D01*
X103840000Y-53586839D01*
X103840000Y-53894250D01*
X103998750Y-54053000D01*
X104648000Y-54053000D01*
X104648000Y-52953750D01*
X104568818Y-52874568D01*
X104606102Y-52784777D01*
X104606461Y-52373029D01*
X104449224Y-51992485D01*
X104297006Y-51840002D01*
X104273430Y-51721476D01*
X104108683Y-51474914D01*
X103560769Y-50927000D01*
X131345000Y-50927000D01*
X131345000Y-78740000D01*
X131350545Y-78767876D01*
X131217848Y-79434989D01*
X130824170Y-80024170D01*
X130234989Y-80417848D01*
X129567876Y-80550545D01*
X129540000Y-80545000D01*
X68707000Y-80545000D01*
X68707000Y-74900641D01*
X75971400Y-74900641D01*
X75971400Y-74959359D01*
X76085474Y-75532848D01*
X76410330Y-76019029D01*
X76681172Y-76200000D01*
X76410330Y-76380971D01*
X76085474Y-76867152D01*
X75971400Y-77440641D01*
X75971400Y-77499359D01*
X76085474Y-78072848D01*
X76410330Y-78559029D01*
X76896511Y-78883885D01*
X77470000Y-78997959D01*
X78043489Y-78883885D01*
X78529670Y-78559029D01*
X78740000Y-78244248D01*
X78950330Y-78559029D01*
X79436511Y-78883885D01*
X80010000Y-78997959D01*
X80583489Y-78883885D01*
X81069670Y-78559029D01*
X81280000Y-78244248D01*
X81490330Y-78559029D01*
X81976511Y-78883885D01*
X82550000Y-78997959D01*
X83123489Y-78883885D01*
X83609670Y-78559029D01*
X83820000Y-78244248D01*
X84030330Y-78559029D01*
X84516511Y-78883885D01*
X85090000Y-78997959D01*
X85663489Y-78883885D01*
X86149670Y-78559029D01*
X86365664Y-78235772D01*
X86423179Y-78358490D01*
X86855053Y-78752688D01*
X87270974Y-78924958D01*
X87503000Y-78803817D01*
X87503000Y-77597000D01*
X87483000Y-77597000D01*
X87483000Y-77343000D01*
X87503000Y-77343000D01*
X87503000Y-75057000D01*
X87483000Y-75057000D01*
X87483000Y-74803000D01*
X87503000Y-74803000D01*
X87503000Y-73596183D01*
X87270974Y-73475042D01*
X86855053Y-73647312D01*
X86423179Y-74041510D01*
X86365664Y-74164228D01*
X86149670Y-73840971D01*
X85663489Y-73516115D01*
X85090000Y-73402041D01*
X84516511Y-73516115D01*
X84030330Y-73840971D01*
X83820000Y-74155752D01*
X83609670Y-73840971D01*
X83123489Y-73516115D01*
X82550000Y-73402041D01*
X81976511Y-73516115D01*
X81490330Y-73840971D01*
X81280000Y-74155752D01*
X81069670Y-73840971D01*
X80583489Y-73516115D01*
X80010000Y-73402041D01*
X79436511Y-73516115D01*
X78950330Y-73840971D01*
X78740000Y-74155752D01*
X78529670Y-73840971D01*
X78043489Y-73516115D01*
X77470000Y-73402041D01*
X76896511Y-73516115D01*
X76410330Y-73840971D01*
X76085474Y-74327152D01*
X75971400Y-74900641D01*
X68707000Y-74900641D01*
X68707000Y-72466818D01*
X69967071Y-71208945D01*
X70674194Y-69506003D01*
X70675803Y-67662086D01*
X69971653Y-65957913D01*
X68756505Y-64740641D01*
X75971400Y-64740641D01*
X75971400Y-64799359D01*
X76085474Y-65372848D01*
X76410330Y-65859029D01*
X76681172Y-66040000D01*
X76410330Y-66220971D01*
X76085474Y-66707152D01*
X75971400Y-67280641D01*
X75971400Y-67339359D01*
X76085474Y-67912848D01*
X76410330Y-68399029D01*
X76896511Y-68723885D01*
X77470000Y-68837959D01*
X78043489Y-68723885D01*
X78529670Y-68399029D01*
X78740000Y-68084248D01*
X78950330Y-68399029D01*
X79436511Y-68723885D01*
X80010000Y-68837959D01*
X80583489Y-68723885D01*
X81069670Y-68399029D01*
X81280000Y-68084248D01*
X81490330Y-68399029D01*
X81976511Y-68723885D01*
X82550000Y-68837959D01*
X83123489Y-68723885D01*
X83609670Y-68399029D01*
X83820000Y-68084248D01*
X84030330Y-68399029D01*
X84516511Y-68723885D01*
X85090000Y-68837959D01*
X85663489Y-68723885D01*
X86149670Y-68399029D01*
X86365664Y-68075772D01*
X86423179Y-68198490D01*
X86855053Y-68592688D01*
X87270974Y-68764958D01*
X87503000Y-68643817D01*
X87503000Y-67437000D01*
X87483000Y-67437000D01*
X87483000Y-67183000D01*
X87503000Y-67183000D01*
X87503000Y-64897000D01*
X87483000Y-64897000D01*
X87483000Y-64643000D01*
X87503000Y-64643000D01*
X87503000Y-63436183D01*
X87270974Y-63315042D01*
X86855053Y-63487312D01*
X86423179Y-63881510D01*
X86365664Y-64004228D01*
X86149670Y-63680971D01*
X85663489Y-63356115D01*
X85090000Y-63242041D01*
X84516511Y-63356115D01*
X84030330Y-63680971D01*
X83820000Y-63995752D01*
X83609670Y-63680971D01*
X83123489Y-63356115D01*
X82550000Y-63242041D01*
X81976511Y-63356115D01*
X81490330Y-63680971D01*
X81280000Y-63995752D01*
X81069670Y-63680971D01*
X80583489Y-63356115D01*
X80010000Y-63242041D01*
X79436511Y-63356115D01*
X78950330Y-63680971D01*
X78740000Y-63995752D01*
X78529670Y-63680971D01*
X78043489Y-63356115D01*
X77470000Y-63242041D01*
X76896511Y-63356115D01*
X76410330Y-63680971D01*
X76085474Y-64167152D01*
X75971400Y-64740641D01*
X68756505Y-64740641D01*
X68707000Y-64691050D01*
X68707000Y-59781208D01*
X68714010Y-59776524D01*
X69178344Y-59197949D01*
X68707000Y-58726605D01*
X68707000Y-58367395D01*
X69357949Y-59018344D01*
X69936524Y-58554010D01*
X70663218Y-56859328D01*
X70686068Y-55015553D01*
X70466275Y-54465750D01*
X80980000Y-54465750D01*
X80980000Y-55056309D01*
X81076673Y-55289698D01*
X81255301Y-55468327D01*
X81488690Y-55565000D01*
X81629250Y-55565000D01*
X81788000Y-55406250D01*
X81788000Y-54307000D01*
X81138750Y-54307000D01*
X80980000Y-54465750D01*
X70466275Y-54465750D01*
X70001722Y-53303691D01*
X80980000Y-53303691D01*
X80980000Y-53894250D01*
X81138750Y-54053000D01*
X81788000Y-54053000D01*
X81788000Y-52953750D01*
X82042000Y-52953750D01*
X82042000Y-54053000D01*
X82050000Y-54053000D01*
X82050000Y-54180000D01*
X82062000Y-54240328D01*
X82062000Y-54307000D01*
X82042000Y-54307000D01*
X82042000Y-55406250D01*
X82200750Y-55565000D01*
X82341310Y-55565000D01*
X82558028Y-55475232D01*
X82637235Y-55528157D01*
X82885000Y-55577440D01*
X83485000Y-55577440D01*
X83732765Y-55528157D01*
X83820000Y-55469868D01*
X83907235Y-55528157D01*
X84155000Y-55577440D01*
X84327638Y-55577440D01*
X90882599Y-62132401D01*
X91129160Y-62297148D01*
X91177414Y-62306746D01*
X91420000Y-62355000D01*
X94300198Y-62355000D01*
X95197652Y-63252454D01*
X94676511Y-63356115D01*
X94190330Y-63680971D01*
X93980000Y-63995752D01*
X93769670Y-63680971D01*
X93283489Y-63356115D01*
X92710000Y-63242041D01*
X92136511Y-63356115D01*
X91650330Y-63680971D01*
X91440000Y-63995752D01*
X91229670Y-63680971D01*
X90743489Y-63356115D01*
X90170000Y-63242041D01*
X89596511Y-63356115D01*
X89110330Y-63680971D01*
X88894336Y-64004228D01*
X88836821Y-63881510D01*
X88404947Y-63487312D01*
X87989026Y-63315042D01*
X87757000Y-63436183D01*
X87757000Y-64643000D01*
X87777000Y-64643000D01*
X87777000Y-64897000D01*
X87757000Y-64897000D01*
X87757000Y-67183000D01*
X87777000Y-67183000D01*
X87777000Y-67437000D01*
X87757000Y-67437000D01*
X87757000Y-68643817D01*
X87989026Y-68764958D01*
X88404947Y-68592688D01*
X88836821Y-68198490D01*
X88894336Y-68075772D01*
X89110330Y-68399029D01*
X89596511Y-68723885D01*
X90170000Y-68837959D01*
X90743489Y-68723885D01*
X91229670Y-68399029D01*
X91440000Y-68084248D01*
X91650330Y-68399029D01*
X92136511Y-68723885D01*
X92710000Y-68837959D01*
X93283489Y-68723885D01*
X93769670Y-68399029D01*
X93980000Y-68084248D01*
X94190330Y-68399029D01*
X94676511Y-68723885D01*
X95250000Y-68837959D01*
X95823489Y-68723885D01*
X96309670Y-68399029D01*
X96520000Y-68084248D01*
X96730330Y-68399029D01*
X97216511Y-68723885D01*
X97790000Y-68837959D01*
X98300000Y-68736514D01*
X98300000Y-73503486D01*
X97790000Y-73402041D01*
X97216511Y-73516115D01*
X96730330Y-73840971D01*
X96520000Y-74155752D01*
X96309670Y-73840971D01*
X95823489Y-73516115D01*
X95250000Y-73402041D01*
X94676511Y-73516115D01*
X94190330Y-73840971D01*
X93980000Y-74155752D01*
X93769670Y-73840971D01*
X93283489Y-73516115D01*
X92710000Y-73402041D01*
X92136511Y-73516115D01*
X91650330Y-73840971D01*
X91440000Y-74155752D01*
X91229670Y-73840971D01*
X90743489Y-73516115D01*
X90170000Y-73402041D01*
X89596511Y-73516115D01*
X89110330Y-73840971D01*
X88894336Y-74164228D01*
X88836821Y-74041510D01*
X88404947Y-73647312D01*
X87989026Y-73475042D01*
X87757000Y-73596183D01*
X87757000Y-74803000D01*
X87777000Y-74803000D01*
X87777000Y-75057000D01*
X87757000Y-75057000D01*
X87757000Y-77343000D01*
X87777000Y-77343000D01*
X87777000Y-77597000D01*
X87757000Y-77597000D01*
X87757000Y-78803817D01*
X87989026Y-78924958D01*
X88404947Y-78752688D01*
X88836821Y-78358490D01*
X88894336Y-78235772D01*
X89110330Y-78559029D01*
X89596511Y-78883885D01*
X90170000Y-78997959D01*
X90743489Y-78883885D01*
X91229670Y-78559029D01*
X91440000Y-78244248D01*
X91650330Y-78559029D01*
X92136511Y-78883885D01*
X92710000Y-78997959D01*
X93283489Y-78883885D01*
X93769670Y-78559029D01*
X93980000Y-78244248D01*
X94190330Y-78559029D01*
X94676511Y-78883885D01*
X95250000Y-78997959D01*
X95823489Y-78883885D01*
X96309670Y-78559029D01*
X96520000Y-78244248D01*
X96730330Y-78559029D01*
X97216511Y-78883885D01*
X97790000Y-78997959D01*
X98363489Y-78883885D01*
X98849670Y-78559029D01*
X99060000Y-78244248D01*
X99270330Y-78559029D01*
X99756511Y-78883885D01*
X100330000Y-78997959D01*
X100903489Y-78883885D01*
X101389670Y-78559029D01*
X101600000Y-78244248D01*
X101810330Y-78559029D01*
X102296511Y-78883885D01*
X102870000Y-78997959D01*
X103443489Y-78883885D01*
X103929670Y-78559029D01*
X104140000Y-78244248D01*
X104350330Y-78559029D01*
X104836511Y-78883885D01*
X105410000Y-78997959D01*
X105983489Y-78883885D01*
X106469670Y-78559029D01*
X106680000Y-78244248D01*
X106890330Y-78559029D01*
X107376511Y-78883885D01*
X107950000Y-78997959D01*
X108523489Y-78883885D01*
X109009670Y-78559029D01*
X109220000Y-78244248D01*
X109430330Y-78559029D01*
X109916511Y-78883885D01*
X110490000Y-78997959D01*
X111063489Y-78883885D01*
X111549670Y-78559029D01*
X111760000Y-78244248D01*
X111970330Y-78559029D01*
X112456511Y-78883885D01*
X113030000Y-78997959D01*
X113603489Y-78883885D01*
X114089670Y-78559029D01*
X114300000Y-78244248D01*
X114510330Y-78559029D01*
X114996511Y-78883885D01*
X115570000Y-78997959D01*
X116143489Y-78883885D01*
X116629670Y-78559029D01*
X116840000Y-78244248D01*
X117050330Y-78559029D01*
X117536511Y-78883885D01*
X118110000Y-78997959D01*
X118683489Y-78883885D01*
X119169670Y-78559029D01*
X119380000Y-78244248D01*
X119590330Y-78559029D01*
X120076511Y-78883885D01*
X120650000Y-78997959D01*
X121223489Y-78883885D01*
X121709670Y-78559029D01*
X121920000Y-78244248D01*
X122130330Y-78559029D01*
X122616511Y-78883885D01*
X123190000Y-78997959D01*
X123763489Y-78883885D01*
X124249670Y-78559029D01*
X124460000Y-78244248D01*
X124670330Y-78559029D01*
X125156511Y-78883885D01*
X125730000Y-78997959D01*
X126303489Y-78883885D01*
X126789670Y-78559029D01*
X127114526Y-78072848D01*
X127228600Y-77499359D01*
X127228600Y-77440641D01*
X127114526Y-76867152D01*
X126802096Y-76399568D01*
X126841365Y-76391757D01*
X127051409Y-76251409D01*
X127191757Y-76041365D01*
X127241040Y-75793600D01*
X127241040Y-74066400D01*
X127191757Y-73818635D01*
X127051409Y-73608591D01*
X126841365Y-73468243D01*
X126593600Y-73418960D01*
X124866400Y-73418960D01*
X124618635Y-73468243D01*
X124408591Y-73608591D01*
X124268243Y-73818635D01*
X124260559Y-73857267D01*
X124249670Y-73840971D01*
X123763489Y-73516115D01*
X123190000Y-73402041D01*
X122616511Y-73516115D01*
X122130330Y-73840971D01*
X121920000Y-74155752D01*
X121709670Y-73840971D01*
X121223489Y-73516115D01*
X120650000Y-73402041D01*
X120076511Y-73516115D01*
X119590330Y-73840971D01*
X119380000Y-74155752D01*
X119169670Y-73840971D01*
X118683489Y-73516115D01*
X118110000Y-73402041D01*
X117536511Y-73516115D01*
X117050330Y-73840971D01*
X116840000Y-74155752D01*
X116629670Y-73840971D01*
X116143489Y-73516115D01*
X115570000Y-73402041D01*
X114996511Y-73516115D01*
X114510330Y-73840971D01*
X114300000Y-74155752D01*
X114089670Y-73840971D01*
X113603489Y-73516115D01*
X113030000Y-73402041D01*
X112456511Y-73516115D01*
X111970330Y-73840971D01*
X111760000Y-74155752D01*
X111549670Y-73840971D01*
X111063489Y-73516115D01*
X110490000Y-73402041D01*
X109916511Y-73516115D01*
X109430330Y-73840971D01*
X109220000Y-74155752D01*
X109009670Y-73840971D01*
X108523489Y-73516115D01*
X107950000Y-73402041D01*
X107376511Y-73516115D01*
X106890330Y-73840971D01*
X106680000Y-74155752D01*
X106469670Y-73840971D01*
X105983489Y-73516115D01*
X105410000Y-73402041D01*
X104836511Y-73516115D01*
X104350330Y-73840971D01*
X104140000Y-74155752D01*
X103929670Y-73840971D01*
X103443489Y-73516115D01*
X102870000Y-73402041D01*
X102296511Y-73516115D01*
X101810330Y-73840971D01*
X101600000Y-74155752D01*
X101389670Y-73840971D01*
X100903489Y-73516115D01*
X100330000Y-73402041D01*
X99820000Y-73503486D01*
X99820000Y-68736514D01*
X100330000Y-68837959D01*
X100903489Y-68723885D01*
X101389670Y-68399029D01*
X101600000Y-68084248D01*
X101810330Y-68399029D01*
X102296511Y-68723885D01*
X102870000Y-68837959D01*
X103443489Y-68723885D01*
X103929670Y-68399029D01*
X104140000Y-68084248D01*
X104350330Y-68399029D01*
X104836511Y-68723885D01*
X105410000Y-68837959D01*
X105983489Y-68723885D01*
X106469670Y-68399029D01*
X106680000Y-68084248D01*
X106890330Y-68399029D01*
X107376511Y-68723885D01*
X107950000Y-68837959D01*
X108523489Y-68723885D01*
X109009670Y-68399029D01*
X109220000Y-68084248D01*
X109430330Y-68399029D01*
X109916511Y-68723885D01*
X110490000Y-68837959D01*
X111063489Y-68723885D01*
X111549670Y-68399029D01*
X111760000Y-68084248D01*
X111970330Y-68399029D01*
X112456511Y-68723885D01*
X113030000Y-68837959D01*
X113603489Y-68723885D01*
X114089670Y-68399029D01*
X114300000Y-68084248D01*
X114510330Y-68399029D01*
X114996511Y-68723885D01*
X115570000Y-68837959D01*
X116143489Y-68723885D01*
X116629670Y-68399029D01*
X116840000Y-68084248D01*
X117050330Y-68399029D01*
X117536511Y-68723885D01*
X118110000Y-68837959D01*
X118683489Y-68723885D01*
X119169670Y-68399029D01*
X119380000Y-68084248D01*
X119590330Y-68399029D01*
X120076511Y-68723885D01*
X120650000Y-68837959D01*
X121223489Y-68723885D01*
X121709670Y-68399029D01*
X121920000Y-68084248D01*
X122130330Y-68399029D01*
X122616511Y-68723885D01*
X123190000Y-68837959D01*
X123763489Y-68723885D01*
X124249670Y-68399029D01*
X124460000Y-68084248D01*
X124670330Y-68399029D01*
X125156511Y-68723885D01*
X125730000Y-68837959D01*
X126303489Y-68723885D01*
X126789670Y-68399029D01*
X127114526Y-67912848D01*
X127228600Y-67339359D01*
X127228600Y-67280641D01*
X127163158Y-66951644D01*
X127456002Y-66658800D01*
X127620749Y-66412239D01*
X127678601Y-66121399D01*
X127678601Y-63646399D01*
X127620749Y-63355560D01*
X127456002Y-63108998D01*
X126674603Y-62327599D01*
X126428041Y-62162852D01*
X126137202Y-62105000D01*
X123893761Y-62105000D01*
X123777046Y-61988081D01*
X123396777Y-61830180D01*
X122985029Y-61829821D01*
X122604485Y-61987058D01*
X122313081Y-62277954D01*
X122155180Y-62658223D01*
X122155178Y-62660376D01*
X122045000Y-62550198D01*
X122045000Y-55535669D01*
X122255000Y-55577440D01*
X122855000Y-55577440D01*
X123102765Y-55528157D01*
X123181972Y-55475232D01*
X123398690Y-55565000D01*
X123539250Y-55565000D01*
X123698000Y-55406250D01*
X123698000Y-54307000D01*
X123678000Y-54307000D01*
X123678000Y-54053000D01*
X123698000Y-54053000D01*
X123698000Y-52953750D01*
X123952000Y-52953750D01*
X123952000Y-54053000D01*
X123960000Y-54053000D01*
X123960000Y-54180000D01*
X123972000Y-54240328D01*
X123972000Y-54307000D01*
X123952000Y-54307000D01*
X123952000Y-55406250D01*
X124110750Y-55565000D01*
X124251310Y-55565000D01*
X124468028Y-55475232D01*
X124547235Y-55528157D01*
X124795000Y-55577440D01*
X125395000Y-55577440D01*
X125642765Y-55528157D01*
X125852809Y-55387809D01*
X125993157Y-55177765D01*
X126042440Y-54930000D01*
X126042440Y-54765747D01*
X126143603Y-54614346D01*
X126230000Y-54180000D01*
X126230000Y-52578000D01*
X126143603Y-52143654D01*
X125897566Y-51775434D01*
X125529346Y-51529397D01*
X125095000Y-51443000D01*
X124660654Y-51529397D01*
X124292434Y-51775434D01*
X124046397Y-52143654D01*
X123960000Y-52578000D01*
X123960000Y-52945750D01*
X123952000Y-52953750D01*
X123698000Y-52953750D01*
X123539250Y-52795000D01*
X123398690Y-52795000D01*
X123181972Y-52884768D01*
X123102765Y-52831843D01*
X122855000Y-52782560D01*
X122255000Y-52782560D01*
X122007235Y-52831843D01*
X121920000Y-52890132D01*
X121832765Y-52831843D01*
X121585000Y-52782560D01*
X120985000Y-52782560D01*
X120737235Y-52831843D01*
X120650000Y-52890132D01*
X120562765Y-52831843D01*
X120315000Y-52782560D01*
X119715000Y-52782560D01*
X119467235Y-52831843D01*
X119380000Y-52890132D01*
X119292765Y-52831843D01*
X119045000Y-52782560D01*
X118600564Y-52782560D01*
X118523603Y-52395652D01*
X118277566Y-52027432D01*
X117909346Y-51781395D01*
X117475000Y-51694998D01*
X117040654Y-51781395D01*
X116672434Y-52027432D01*
X116426397Y-52395652D01*
X116340000Y-52829998D01*
X116340000Y-52945750D01*
X116332000Y-52953750D01*
X116332000Y-54053000D01*
X116340000Y-54053000D01*
X116340000Y-54180000D01*
X116352000Y-54240328D01*
X116352000Y-54307000D01*
X116332000Y-54307000D01*
X116332000Y-55406250D01*
X116490750Y-55565000D01*
X116631310Y-55565000D01*
X116848028Y-55475232D01*
X116927235Y-55528157D01*
X117175000Y-55577440D01*
X117775000Y-55577440D01*
X117985000Y-55535669D01*
X117985000Y-63266905D01*
X117536511Y-63356115D01*
X117050330Y-63680971D01*
X116840000Y-63995752D01*
X116629670Y-63680971D01*
X116143489Y-63356115D01*
X115570000Y-63242041D01*
X115192027Y-63317224D01*
X110615000Y-58740198D01*
X110615000Y-55535669D01*
X110825000Y-55577440D01*
X111425000Y-55577440D01*
X111672765Y-55528157D01*
X111751972Y-55475232D01*
X111968690Y-55565000D01*
X112109250Y-55565000D01*
X112268000Y-55406250D01*
X112268000Y-54307000D01*
X112248000Y-54307000D01*
X112248000Y-54053000D01*
X112268000Y-54053000D01*
X112268000Y-52953750D01*
X112522000Y-52953750D01*
X112522000Y-54053000D01*
X112542000Y-54053000D01*
X112542000Y-54119672D01*
X112530000Y-54180000D01*
X112530000Y-54307000D01*
X112522000Y-54307000D01*
X112522000Y-55406250D01*
X112530000Y-55414250D01*
X112530000Y-55753000D01*
X112616397Y-56187346D01*
X112862434Y-56555566D01*
X113230654Y-56801603D01*
X113665000Y-56888000D01*
X114099346Y-56801603D01*
X114467566Y-56555566D01*
X114713603Y-56187346D01*
X114800000Y-55753000D01*
X114800000Y-54465750D01*
X115270000Y-54465750D01*
X115270000Y-55056309D01*
X115366673Y-55289698D01*
X115545301Y-55468327D01*
X115778690Y-55565000D01*
X115919250Y-55565000D01*
X116078000Y-55406250D01*
X116078000Y-54307000D01*
X115428750Y-54307000D01*
X115270000Y-54465750D01*
X114800000Y-54465750D01*
X114800000Y-54180000D01*
X114713603Y-53745654D01*
X114612440Y-53594253D01*
X114612440Y-53430000D01*
X114587316Y-53303691D01*
X115270000Y-53303691D01*
X115270000Y-53894250D01*
X115428750Y-54053000D01*
X116078000Y-54053000D01*
X116078000Y-52953750D01*
X115919250Y-52795000D01*
X115778690Y-52795000D01*
X115545301Y-52891673D01*
X115366673Y-53070302D01*
X115270000Y-53303691D01*
X114587316Y-53303691D01*
X114563157Y-53182235D01*
X114422809Y-52972191D01*
X114212765Y-52831843D01*
X113965000Y-52782560D01*
X113365000Y-52782560D01*
X113117235Y-52831843D01*
X113038028Y-52884768D01*
X112821310Y-52795000D01*
X112680750Y-52795000D01*
X112522000Y-52953750D01*
X112268000Y-52953750D01*
X112109250Y-52795000D01*
X111968690Y-52795000D01*
X111751972Y-52884768D01*
X111672765Y-52831843D01*
X111425000Y-52782560D01*
X110825000Y-52782560D01*
X110577235Y-52831843D01*
X110490000Y-52890132D01*
X110402765Y-52831843D01*
X110155000Y-52782560D01*
X109555000Y-52782560D01*
X109307235Y-52831843D01*
X109220000Y-52890132D01*
X109132765Y-52831843D01*
X108885000Y-52782560D01*
X108285000Y-52782560D01*
X108037235Y-52831843D01*
X107950000Y-52890132D01*
X107862765Y-52831843D01*
X107615000Y-52782560D01*
X107015000Y-52782560D01*
X106767235Y-52831843D01*
X106680000Y-52890132D01*
X106592765Y-52831843D01*
X106345000Y-52782560D01*
X105745000Y-52782560D01*
X105497235Y-52831843D01*
X105418028Y-52884768D01*
X105201310Y-52795000D01*
X105060750Y-52795000D01*
X104902000Y-52953750D01*
X104902000Y-54053000D01*
X104922000Y-54053000D01*
X104922000Y-54119672D01*
X104910000Y-54180000D01*
X104910000Y-54307000D01*
X104902000Y-54307000D01*
X104902000Y-55406250D01*
X104910000Y-55414250D01*
X104910000Y-55530002D01*
X104996397Y-55964348D01*
X105242434Y-56332568D01*
X105610654Y-56578605D01*
X106045000Y-56665002D01*
X106479346Y-56578605D01*
X106555000Y-56528055D01*
X106555000Y-60396608D01*
X104909999Y-58751607D01*
X104909999Y-58351780D01*
X105016919Y-58245046D01*
X105174820Y-57864777D01*
X105175179Y-57453029D01*
X105017942Y-57072485D01*
X104727046Y-56781081D01*
X104346777Y-56623180D01*
X103935029Y-56622821D01*
X103554485Y-56780058D01*
X103263081Y-57070954D01*
X103105180Y-57451223D01*
X103104821Y-57862971D01*
X103262058Y-58243515D01*
X103389999Y-58371679D01*
X103389999Y-59066409D01*
X103407079Y-59152277D01*
X99832242Y-55577440D01*
X99995000Y-55577440D01*
X100242765Y-55528157D01*
X100321972Y-55475232D01*
X100538690Y-55565000D01*
X100679250Y-55565000D01*
X100838000Y-55406250D01*
X100838000Y-54307000D01*
X100818000Y-54307000D01*
X100818000Y-54053000D01*
X100838000Y-54053000D01*
X100838000Y-52953750D01*
X100679250Y-52795000D01*
X100538690Y-52795000D01*
X100321972Y-52884768D01*
X100242765Y-52831843D01*
X99995000Y-52782560D01*
X99395000Y-52782560D01*
X99147235Y-52831843D01*
X99060000Y-52890132D01*
X98972765Y-52831843D01*
X98725000Y-52782560D01*
X98125000Y-52782560D01*
X97877235Y-52831843D01*
X97790000Y-52890132D01*
X97702765Y-52831843D01*
X97455000Y-52782560D01*
X96855000Y-52782560D01*
X96607235Y-52831843D01*
X96520000Y-52890132D01*
X96432765Y-52831843D01*
X96185000Y-52782560D01*
X95740564Y-52782560D01*
X95663603Y-52395652D01*
X95417566Y-52027432D01*
X95049346Y-51781395D01*
X94615000Y-51694998D01*
X94180654Y-51781395D01*
X93812434Y-52027432D01*
X93566397Y-52395652D01*
X93480000Y-52829998D01*
X93480000Y-52945750D01*
X93472000Y-52953750D01*
X93472000Y-54053000D01*
X93480000Y-54053000D01*
X93480000Y-54180000D01*
X93492000Y-54240328D01*
X93492000Y-54307000D01*
X93472000Y-54307000D01*
X93472000Y-55406250D01*
X93630750Y-55565000D01*
X93771310Y-55565000D01*
X93988028Y-55475232D01*
X94067235Y-55528157D01*
X94315000Y-55577440D01*
X94915000Y-55577440D01*
X95125000Y-55535669D01*
X95125000Y-57785000D01*
X95182852Y-58075839D01*
X95347599Y-58322401D01*
X100277652Y-63252454D01*
X99952027Y-63317225D01*
X97057401Y-60422599D01*
X96810839Y-60257852D01*
X96520000Y-60200000D01*
X92369802Y-60200000D01*
X87659143Y-55489341D01*
X87717235Y-55528157D01*
X87965000Y-55577440D01*
X88565000Y-55577440D01*
X88812765Y-55528157D01*
X88891972Y-55475232D01*
X89108690Y-55565000D01*
X89249250Y-55565000D01*
X89408000Y-55406250D01*
X89408000Y-54307000D01*
X89388000Y-54307000D01*
X89388000Y-54053000D01*
X89408000Y-54053000D01*
X89408000Y-54033000D01*
X89662000Y-54033000D01*
X89662000Y-54053000D01*
X89670000Y-54053000D01*
X89670000Y-54180000D01*
X89682000Y-54240328D01*
X89682000Y-54307000D01*
X89662000Y-54307000D01*
X89662000Y-55406250D01*
X89820750Y-55565000D01*
X89961310Y-55565000D01*
X90178028Y-55475232D01*
X90257235Y-55528157D01*
X90505000Y-55577440D01*
X91105000Y-55577440D01*
X91352765Y-55528157D01*
X91562809Y-55387809D01*
X91703157Y-55177765D01*
X91752440Y-54930000D01*
X91752440Y-54765747D01*
X91853603Y-54614346D01*
X91883160Y-54465750D01*
X92410000Y-54465750D01*
X92410000Y-55056309D01*
X92506673Y-55289698D01*
X92685301Y-55468327D01*
X92918690Y-55565000D01*
X93059250Y-55565000D01*
X93218000Y-55406250D01*
X93218000Y-54307000D01*
X92568750Y-54307000D01*
X92410000Y-54465750D01*
X91883160Y-54465750D01*
X91940000Y-54180000D01*
X91940000Y-53303691D01*
X92410000Y-53303691D01*
X92410000Y-53894250D01*
X92568750Y-54053000D01*
X93218000Y-54053000D01*
X93218000Y-52953750D01*
X93059250Y-52795000D01*
X92918690Y-52795000D01*
X92685301Y-52891673D01*
X92506673Y-53070302D01*
X92410000Y-53303691D01*
X91940000Y-53303691D01*
X91940000Y-52705000D01*
X91853603Y-52270654D01*
X91607566Y-51902434D01*
X91239346Y-51656397D01*
X90805000Y-51570000D01*
X83185000Y-51570000D01*
X82750654Y-51656397D01*
X82382434Y-51902434D01*
X82136397Y-52270654D01*
X82050000Y-52705000D01*
X82050000Y-52945750D01*
X82042000Y-52953750D01*
X81788000Y-52953750D01*
X81629250Y-52795000D01*
X81488690Y-52795000D01*
X81255301Y-52891673D01*
X81076673Y-53070302D01*
X80980000Y-53303691D01*
X70001722Y-53303691D01*
X70001598Y-53303381D01*
X69936524Y-53205990D01*
X69357949Y-52741656D01*
X68707000Y-53392605D01*
X68707000Y-53033395D01*
X69178344Y-52562051D01*
X68714010Y-51983476D01*
X68707000Y-51980470D01*
X68707000Y-50927000D01*
X95056457Y-50927000D01*
X95297954Y-51168919D01*
X95297954Y-51168919D01*
G37*
X95297954Y-51168919D02*
X95678223Y-51326820D01*
X96089971Y-51327179D01*
X96470515Y-51169942D01*
X96588663Y-51052000D01*
X101536165Y-51052000D01*
X102188427Y-51704262D01*
X101800654Y-51781395D01*
X101432434Y-52027432D01*
X101186397Y-52395652D01*
X101100000Y-52829998D01*
X101100000Y-52945750D01*
X101092000Y-52953750D01*
X101092000Y-54053000D01*
X101100000Y-54053000D01*
X101100000Y-54180000D01*
X101112000Y-54240328D01*
X101112000Y-54307000D01*
X101092000Y-54307000D01*
X101092000Y-55406250D01*
X101250750Y-55565000D01*
X101391310Y-55565000D01*
X101608028Y-55475232D01*
X101687235Y-55528157D01*
X101935000Y-55577440D01*
X102535000Y-55577440D01*
X102782765Y-55528157D01*
X102992809Y-55387809D01*
X103133157Y-55177765D01*
X103182440Y-54930000D01*
X103182440Y-54765747D01*
X103283603Y-54614346D01*
X103313160Y-54465750D01*
X103840000Y-54465750D01*
X103840000Y-55056309D01*
X103936673Y-55289698D01*
X104115301Y-55468327D01*
X104348690Y-55565000D01*
X104489250Y-55565000D01*
X104648000Y-55406250D01*
X104648000Y-54307000D01*
X103998750Y-54307000D01*
X103840000Y-54465750D01*
X103313160Y-54465750D01*
X103370000Y-54180000D01*
X103370000Y-53612825D01*
X103776253Y-53613179D01*
X103840000Y-53586839D01*
X103840000Y-53894250D01*
X103998750Y-54053000D01*
X104648000Y-54053000D01*
X104648000Y-52953750D01*
X104568818Y-52874568D01*
X104606102Y-52784777D01*
X104606461Y-52373029D01*
X104449224Y-51992485D01*
X104297006Y-51840002D01*
X104273430Y-51721476D01*
X104108683Y-51474914D01*
X103560769Y-50927000D01*
X131345000Y-50927000D01*
X131345000Y-78740000D01*
X131350545Y-78767876D01*
X131217848Y-79434989D01*
X130824170Y-80024170D01*
X130234989Y-80417848D01*
X129567876Y-80550545D01*
X129540000Y-80545000D01*
X68707000Y-80545000D01*
X68707000Y-74900641D01*
X75971400Y-74900641D01*
X75971400Y-74959359D01*
X76085474Y-75532848D01*
X76410330Y-76019029D01*
X76681172Y-76200000D01*
X76410330Y-76380971D01*
X76085474Y-76867152D01*
X75971400Y-77440641D01*
X75971400Y-77499359D01*
X76085474Y-78072848D01*
X76410330Y-78559029D01*
X76896511Y-78883885D01*
X77470000Y-78997959D01*
X78043489Y-78883885D01*
X78529670Y-78559029D01*
X78740000Y-78244248D01*
X78950330Y-78559029D01*
X79436511Y-78883885D01*
X80010000Y-78997959D01*
X80583489Y-78883885D01*
X81069670Y-78559029D01*
X81280000Y-78244248D01*
X81490330Y-78559029D01*
X81976511Y-78883885D01*
X82550000Y-78997959D01*
X83123489Y-78883885D01*
X83609670Y-78559029D01*
X83820000Y-78244248D01*
X84030330Y-78559029D01*
X84516511Y-78883885D01*
X85090000Y-78997959D01*
X85663489Y-78883885D01*
X86149670Y-78559029D01*
X86365664Y-78235772D01*
X86423179Y-78358490D01*
X86855053Y-78752688D01*
X87270974Y-78924958D01*
X87503000Y-78803817D01*
X87503000Y-77597000D01*
X87483000Y-77597000D01*
X87483000Y-77343000D01*
X87503000Y-77343000D01*
X87503000Y-75057000D01*
X87483000Y-75057000D01*
X87483000Y-74803000D01*
X87503000Y-74803000D01*
X87503000Y-73596183D01*
X87270974Y-73475042D01*
X86855053Y-73647312D01*
X86423179Y-74041510D01*
X86365664Y-74164228D01*
X86149670Y-73840971D01*
X85663489Y-73516115D01*
X85090000Y-73402041D01*
X84516511Y-73516115D01*
X84030330Y-73840971D01*
X83820000Y-74155752D01*
X83609670Y-73840971D01*
X83123489Y-73516115D01*
X82550000Y-73402041D01*
X81976511Y-73516115D01*
X81490330Y-73840971D01*
X81280000Y-74155752D01*
X81069670Y-73840971D01*
X80583489Y-73516115D01*
X80010000Y-73402041D01*
X79436511Y-73516115D01*
X78950330Y-73840971D01*
X78740000Y-74155752D01*
X78529670Y-73840971D01*
X78043489Y-73516115D01*
X77470000Y-73402041D01*
X76896511Y-73516115D01*
X76410330Y-73840971D01*
X76085474Y-74327152D01*
X75971400Y-74900641D01*
X68707000Y-74900641D01*
X68707000Y-72466818D01*
X69967071Y-71208945D01*
X70674194Y-69506003D01*
X70675803Y-67662086D01*
X69971653Y-65957913D01*
X68756505Y-64740641D01*
X75971400Y-64740641D01*
X75971400Y-64799359D01*
X76085474Y-65372848D01*
X76410330Y-65859029D01*
X76681172Y-66040000D01*
X76410330Y-66220971D01*
X76085474Y-66707152D01*
X75971400Y-67280641D01*
X75971400Y-67339359D01*
X76085474Y-67912848D01*
X76410330Y-68399029D01*
X76896511Y-68723885D01*
X77470000Y-68837959D01*
X78043489Y-68723885D01*
X78529670Y-68399029D01*
X78740000Y-68084248D01*
X78950330Y-68399029D01*
X79436511Y-68723885D01*
X80010000Y-68837959D01*
X80583489Y-68723885D01*
X81069670Y-68399029D01*
X81280000Y-68084248D01*
X81490330Y-68399029D01*
X81976511Y-68723885D01*
X82550000Y-68837959D01*
X83123489Y-68723885D01*
X83609670Y-68399029D01*
X83820000Y-68084248D01*
X84030330Y-68399029D01*
X84516511Y-68723885D01*
X85090000Y-68837959D01*
X85663489Y-68723885D01*
X86149670Y-68399029D01*
X86365664Y-68075772D01*
X86423179Y-68198490D01*
X86855053Y-68592688D01*
X87270974Y-68764958D01*
X87503000Y-68643817D01*
X87503000Y-67437000D01*
X87483000Y-67437000D01*
X87483000Y-67183000D01*
X87503000Y-67183000D01*
X87503000Y-64897000D01*
X87483000Y-64897000D01*
X87483000Y-64643000D01*
X87503000Y-64643000D01*
X87503000Y-63436183D01*
X87270974Y-63315042D01*
X86855053Y-63487312D01*
X86423179Y-63881510D01*
X86365664Y-64004228D01*
X86149670Y-63680971D01*
X85663489Y-63356115D01*
X85090000Y-63242041D01*
X84516511Y-63356115D01*
X84030330Y-63680971D01*
X83820000Y-63995752D01*
X83609670Y-63680971D01*
X83123489Y-63356115D01*
X82550000Y-63242041D01*
X81976511Y-63356115D01*
X81490330Y-63680971D01*
X81280000Y-63995752D01*
X81069670Y-63680971D01*
X80583489Y-63356115D01*
X80010000Y-63242041D01*
X79436511Y-63356115D01*
X78950330Y-63680971D01*
X78740000Y-63995752D01*
X78529670Y-63680971D01*
X78043489Y-63356115D01*
X77470000Y-63242041D01*
X76896511Y-63356115D01*
X76410330Y-63680971D01*
X76085474Y-64167152D01*
X75971400Y-64740641D01*
X68756505Y-64740641D01*
X68707000Y-64691050D01*
X68707000Y-59781208D01*
X68714010Y-59776524D01*
X69178344Y-59197949D01*
X68707000Y-58726605D01*
X68707000Y-58367395D01*
X69357949Y-59018344D01*
X69936524Y-58554010D01*
X70663218Y-56859328D01*
X70686068Y-55015553D01*
X70466275Y-54465750D01*
X80980000Y-54465750D01*
X80980000Y-55056309D01*
X81076673Y-55289698D01*
X81255301Y-55468327D01*
X81488690Y-55565000D01*
X81629250Y-55565000D01*
X81788000Y-55406250D01*
X81788000Y-54307000D01*
X81138750Y-54307000D01*
X80980000Y-54465750D01*
X70466275Y-54465750D01*
X70001722Y-53303691D01*
X80980000Y-53303691D01*
X80980000Y-53894250D01*
X81138750Y-54053000D01*
X81788000Y-54053000D01*
X81788000Y-52953750D01*
X82042000Y-52953750D01*
X82042000Y-54053000D01*
X82050000Y-54053000D01*
X82050000Y-54180000D01*
X82062000Y-54240328D01*
X82062000Y-54307000D01*
X82042000Y-54307000D01*
X82042000Y-55406250D01*
X82200750Y-55565000D01*
X82341310Y-55565000D01*
X82558028Y-55475232D01*
X82637235Y-55528157D01*
X82885000Y-55577440D01*
X83485000Y-55577440D01*
X83732765Y-55528157D01*
X83820000Y-55469868D01*
X83907235Y-55528157D01*
X84155000Y-55577440D01*
X84327638Y-55577440D01*
X90882599Y-62132401D01*
X91129160Y-62297148D01*
X91177414Y-62306746D01*
X91420000Y-62355000D01*
X94300198Y-62355000D01*
X95197652Y-63252454D01*
X94676511Y-63356115D01*
X94190330Y-63680971D01*
X93980000Y-63995752D01*
X93769670Y-63680971D01*
X93283489Y-63356115D01*
X92710000Y-63242041D01*
X92136511Y-63356115D01*
X91650330Y-63680971D01*
X91440000Y-63995752D01*
X91229670Y-63680971D01*
X90743489Y-63356115D01*
X90170000Y-63242041D01*
X89596511Y-63356115D01*
X89110330Y-63680971D01*
X88894336Y-64004228D01*
X88836821Y-63881510D01*
X88404947Y-63487312D01*
X87989026Y-63315042D01*
X87757000Y-63436183D01*
X87757000Y-64643000D01*
X87777000Y-64643000D01*
X87777000Y-64897000D01*
X87757000Y-64897000D01*
X87757000Y-67183000D01*
X87777000Y-67183000D01*
X87777000Y-67437000D01*
X87757000Y-67437000D01*
X87757000Y-68643817D01*
X87989026Y-68764958D01*
X88404947Y-68592688D01*
X88836821Y-68198490D01*
X88894336Y-68075772D01*
X89110330Y-68399029D01*
X89596511Y-68723885D01*
X90170000Y-68837959D01*
X90743489Y-68723885D01*
X91229670Y-68399029D01*
X91440000Y-68084248D01*
X91650330Y-68399029D01*
X92136511Y-68723885D01*
X92710000Y-68837959D01*
X93283489Y-68723885D01*
X93769670Y-68399029D01*
X93980000Y-68084248D01*
X94190330Y-68399029D01*
X94676511Y-68723885D01*
X95250000Y-68837959D01*
X95823489Y-68723885D01*
X96309670Y-68399029D01*
X96520000Y-68084248D01*
X96730330Y-68399029D01*
X97216511Y-68723885D01*
X97790000Y-68837959D01*
X98300000Y-68736514D01*
X98300000Y-73503486D01*
X97790000Y-73402041D01*
X97216511Y-73516115D01*
X96730330Y-73840971D01*
X96520000Y-74155752D01*
X96309670Y-73840971D01*
X95823489Y-73516115D01*
X95250000Y-73402041D01*
X94676511Y-73516115D01*
X94190330Y-73840971D01*
X93980000Y-74155752D01*
X93769670Y-73840971D01*
X93283489Y-73516115D01*
X92710000Y-73402041D01*
X92136511Y-73516115D01*
X91650330Y-73840971D01*
X91440000Y-74155752D01*
X91229670Y-73840971D01*
X90743489Y-73516115D01*
X90170000Y-73402041D01*
X89596511Y-73516115D01*
X89110330Y-73840971D01*
X88894336Y-74164228D01*
X88836821Y-74041510D01*
X88404947Y-73647312D01*
X87989026Y-73475042D01*
X87757000Y-73596183D01*
X87757000Y-74803000D01*
X87777000Y-74803000D01*
X87777000Y-75057000D01*
X87757000Y-75057000D01*
X87757000Y-77343000D01*
X87777000Y-77343000D01*
X87777000Y-77597000D01*
X87757000Y-77597000D01*
X87757000Y-78803817D01*
X87989026Y-78924958D01*
X88404947Y-78752688D01*
X88836821Y-78358490D01*
X88894336Y-78235772D01*
X89110330Y-78559029D01*
X89596511Y-78883885D01*
X90170000Y-78997959D01*
X90743489Y-78883885D01*
X91229670Y-78559029D01*
X91440000Y-78244248D01*
X91650330Y-78559029D01*
X92136511Y-78883885D01*
X92710000Y-78997959D01*
X93283489Y-78883885D01*
X93769670Y-78559029D01*
X93980000Y-78244248D01*
X94190330Y-78559029D01*
X94676511Y-78883885D01*
X95250000Y-78997959D01*
X95823489Y-78883885D01*
X96309670Y-78559029D01*
X96520000Y-78244248D01*
X96730330Y-78559029D01*
X97216511Y-78883885D01*
X97790000Y-78997959D01*
X98363489Y-78883885D01*
X98849670Y-78559029D01*
X99060000Y-78244248D01*
X99270330Y-78559029D01*
X99756511Y-78883885D01*
X100330000Y-78997959D01*
X100903489Y-78883885D01*
X101389670Y-78559029D01*
X101600000Y-78244248D01*
X101810330Y-78559029D01*
X102296511Y-78883885D01*
X102870000Y-78997959D01*
X103443489Y-78883885D01*
X103929670Y-78559029D01*
X104140000Y-78244248D01*
X104350330Y-78559029D01*
X104836511Y-78883885D01*
X105410000Y-78997959D01*
X105983489Y-78883885D01*
X106469670Y-78559029D01*
X106680000Y-78244248D01*
X106890330Y-78559029D01*
X107376511Y-78883885D01*
X107950000Y-78997959D01*
X108523489Y-78883885D01*
X109009670Y-78559029D01*
X109220000Y-78244248D01*
X109430330Y-78559029D01*
X109916511Y-78883885D01*
X110490000Y-78997959D01*
X111063489Y-78883885D01*
X111549670Y-78559029D01*
X111760000Y-78244248D01*
X111970330Y-78559029D01*
X112456511Y-78883885D01*
X113030000Y-78997959D01*
X113603489Y-78883885D01*
X114089670Y-78559029D01*
X114300000Y-78244248D01*
X114510330Y-78559029D01*
X114996511Y-78883885D01*
X115570000Y-78997959D01*
X116143489Y-78883885D01*
X116629670Y-78559029D01*
X116840000Y-78244248D01*
X117050330Y-78559029D01*
X117536511Y-78883885D01*
X118110000Y-78997959D01*
X118683489Y-78883885D01*
X119169670Y-78559029D01*
X119380000Y-78244248D01*
X119590330Y-78559029D01*
X120076511Y-78883885D01*
X120650000Y-78997959D01*
X121223489Y-78883885D01*
X121709670Y-78559029D01*
X121920000Y-78244248D01*
X122130330Y-78559029D01*
X122616511Y-78883885D01*
X123190000Y-78997959D01*
X123763489Y-78883885D01*
X124249670Y-78559029D01*
X124460000Y-78244248D01*
X124670330Y-78559029D01*
X125156511Y-78883885D01*
X125730000Y-78997959D01*
X126303489Y-78883885D01*
X126789670Y-78559029D01*
X127114526Y-78072848D01*
X127228600Y-77499359D01*
X127228600Y-77440641D01*
X127114526Y-76867152D01*
X126802096Y-76399568D01*
X126841365Y-76391757D01*
X127051409Y-76251409D01*
X127191757Y-76041365D01*
X127241040Y-75793600D01*
X127241040Y-74066400D01*
X127191757Y-73818635D01*
X127051409Y-73608591D01*
X126841365Y-73468243D01*
X126593600Y-73418960D01*
X124866400Y-73418960D01*
X124618635Y-73468243D01*
X124408591Y-73608591D01*
X124268243Y-73818635D01*
X124260559Y-73857267D01*
X124249670Y-73840971D01*
X123763489Y-73516115D01*
X123190000Y-73402041D01*
X122616511Y-73516115D01*
X122130330Y-73840971D01*
X121920000Y-74155752D01*
X121709670Y-73840971D01*
X121223489Y-73516115D01*
X120650000Y-73402041D01*
X120076511Y-73516115D01*
X119590330Y-73840971D01*
X119380000Y-74155752D01*
X119169670Y-73840971D01*
X118683489Y-73516115D01*
X118110000Y-73402041D01*
X117536511Y-73516115D01*
X117050330Y-73840971D01*
X116840000Y-74155752D01*
X116629670Y-73840971D01*
X116143489Y-73516115D01*
X115570000Y-73402041D01*
X114996511Y-73516115D01*
X114510330Y-73840971D01*
X114300000Y-74155752D01*
X114089670Y-73840971D01*
X113603489Y-73516115D01*
X113030000Y-73402041D01*
X112456511Y-73516115D01*
X111970330Y-73840971D01*
X111760000Y-74155752D01*
X111549670Y-73840971D01*
X111063489Y-73516115D01*
X110490000Y-73402041D01*
X109916511Y-73516115D01*
X109430330Y-73840971D01*
X109220000Y-74155752D01*
X109009670Y-73840971D01*
X108523489Y-73516115D01*
X107950000Y-73402041D01*
X107376511Y-73516115D01*
X106890330Y-73840971D01*
X106680000Y-74155752D01*
X106469670Y-73840971D01*
X105983489Y-73516115D01*
X105410000Y-73402041D01*
X104836511Y-73516115D01*
X104350330Y-73840971D01*
X104140000Y-74155752D01*
X103929670Y-73840971D01*
X103443489Y-73516115D01*
X102870000Y-73402041D01*
X102296511Y-73516115D01*
X101810330Y-73840971D01*
X101600000Y-74155752D01*
X101389670Y-73840971D01*
X100903489Y-73516115D01*
X100330000Y-73402041D01*
X99820000Y-73503486D01*
X99820000Y-68736514D01*
X100330000Y-68837959D01*
X100903489Y-68723885D01*
X101389670Y-68399029D01*
X101600000Y-68084248D01*
X101810330Y-68399029D01*
X102296511Y-68723885D01*
X102870000Y-68837959D01*
X103443489Y-68723885D01*
X103929670Y-68399029D01*
X104140000Y-68084248D01*
X104350330Y-68399029D01*
X104836511Y-68723885D01*
X105410000Y-68837959D01*
X105983489Y-68723885D01*
X106469670Y-68399029D01*
X106680000Y-68084248D01*
X106890330Y-68399029D01*
X107376511Y-68723885D01*
X107950000Y-68837959D01*
X108523489Y-68723885D01*
X109009670Y-68399029D01*
X109220000Y-68084248D01*
X109430330Y-68399029D01*
X109916511Y-68723885D01*
X110490000Y-68837959D01*
X111063489Y-68723885D01*
X111549670Y-68399029D01*
X111760000Y-68084248D01*
X111970330Y-68399029D01*
X112456511Y-68723885D01*
X113030000Y-68837959D01*
X113603489Y-68723885D01*
X114089670Y-68399029D01*
X114300000Y-68084248D01*
X114510330Y-68399029D01*
X114996511Y-68723885D01*
X115570000Y-68837959D01*
X116143489Y-68723885D01*
X116629670Y-68399029D01*
X116840000Y-68084248D01*
X117050330Y-68399029D01*
X117536511Y-68723885D01*
X118110000Y-68837959D01*
X118683489Y-68723885D01*
X119169670Y-68399029D01*
X119380000Y-68084248D01*
X119590330Y-68399029D01*
X120076511Y-68723885D01*
X120650000Y-68837959D01*
X121223489Y-68723885D01*
X121709670Y-68399029D01*
X121920000Y-68084248D01*
X122130330Y-68399029D01*
X122616511Y-68723885D01*
X123190000Y-68837959D01*
X123763489Y-68723885D01*
X124249670Y-68399029D01*
X124460000Y-68084248D01*
X124670330Y-68399029D01*
X125156511Y-68723885D01*
X125730000Y-68837959D01*
X126303489Y-68723885D01*
X126789670Y-68399029D01*
X127114526Y-67912848D01*
X127228600Y-67339359D01*
X127228600Y-67280641D01*
X127163158Y-66951644D01*
X127456002Y-66658800D01*
X127620749Y-66412239D01*
X127678601Y-66121399D01*
X127678601Y-63646399D01*
X127620749Y-63355560D01*
X127456002Y-63108998D01*
X126674603Y-62327599D01*
X126428041Y-62162852D01*
X126137202Y-62105000D01*
X123893761Y-62105000D01*
X123777046Y-61988081D01*
X123396777Y-61830180D01*
X122985029Y-61829821D01*
X122604485Y-61987058D01*
X122313081Y-62277954D01*
X122155180Y-62658223D01*
X122155178Y-62660376D01*
X122045000Y-62550198D01*
X122045000Y-55535669D01*
X122255000Y-55577440D01*
X122855000Y-55577440D01*
X123102765Y-55528157D01*
X123181972Y-55475232D01*
X123398690Y-55565000D01*
X123539250Y-55565000D01*
X123698000Y-55406250D01*
X123698000Y-54307000D01*
X123678000Y-54307000D01*
X123678000Y-54053000D01*
X123698000Y-54053000D01*
X123698000Y-52953750D01*
X123952000Y-52953750D01*
X123952000Y-54053000D01*
X123960000Y-54053000D01*
X123960000Y-54180000D01*
X123972000Y-54240328D01*
X123972000Y-54307000D01*
X123952000Y-54307000D01*
X123952000Y-55406250D01*
X124110750Y-55565000D01*
X124251310Y-55565000D01*
X124468028Y-55475232D01*
X124547235Y-55528157D01*
X124795000Y-55577440D01*
X125395000Y-55577440D01*
X125642765Y-55528157D01*
X125852809Y-55387809D01*
X125993157Y-55177765D01*
X126042440Y-54930000D01*
X126042440Y-54765747D01*
X126143603Y-54614346D01*
X126230000Y-54180000D01*
X126230000Y-52578000D01*
X126143603Y-52143654D01*
X125897566Y-51775434D01*
X125529346Y-51529397D01*
X125095000Y-51443000D01*
X124660654Y-51529397D01*
X124292434Y-51775434D01*
X124046397Y-52143654D01*
X123960000Y-52578000D01*
X123960000Y-52945750D01*
X123952000Y-52953750D01*
X123698000Y-52953750D01*
X123539250Y-52795000D01*
X123398690Y-52795000D01*
X123181972Y-52884768D01*
X123102765Y-52831843D01*
X122855000Y-52782560D01*
X122255000Y-52782560D01*
X122007235Y-52831843D01*
X121920000Y-52890132D01*
X121832765Y-52831843D01*
X121585000Y-52782560D01*
X120985000Y-52782560D01*
X120737235Y-52831843D01*
X120650000Y-52890132D01*
X120562765Y-52831843D01*
X120315000Y-52782560D01*
X119715000Y-52782560D01*
X119467235Y-52831843D01*
X119380000Y-52890132D01*
X119292765Y-52831843D01*
X119045000Y-52782560D01*
X118600564Y-52782560D01*
X118523603Y-52395652D01*
X118277566Y-52027432D01*
X117909346Y-51781395D01*
X117475000Y-51694998D01*
X117040654Y-51781395D01*
X116672434Y-52027432D01*
X116426397Y-52395652D01*
X116340000Y-52829998D01*
X116340000Y-52945750D01*
X116332000Y-52953750D01*
X116332000Y-54053000D01*
X116340000Y-54053000D01*
X116340000Y-54180000D01*
X116352000Y-54240328D01*
X116352000Y-54307000D01*
X116332000Y-54307000D01*
X116332000Y-55406250D01*
X116490750Y-55565000D01*
X116631310Y-55565000D01*
X116848028Y-55475232D01*
X116927235Y-55528157D01*
X117175000Y-55577440D01*
X117775000Y-55577440D01*
X117985000Y-55535669D01*
X117985000Y-63266905D01*
X117536511Y-63356115D01*
X117050330Y-63680971D01*
X116840000Y-63995752D01*
X116629670Y-63680971D01*
X116143489Y-63356115D01*
X115570000Y-63242041D01*
X115192027Y-63317224D01*
X110615000Y-58740198D01*
X110615000Y-55535669D01*
X110825000Y-55577440D01*
X111425000Y-55577440D01*
X111672765Y-55528157D01*
X111751972Y-55475232D01*
X111968690Y-55565000D01*
X112109250Y-55565000D01*
X112268000Y-55406250D01*
X112268000Y-54307000D01*
X112248000Y-54307000D01*
X112248000Y-54053000D01*
X112268000Y-54053000D01*
X112268000Y-52953750D01*
X112522000Y-52953750D01*
X112522000Y-54053000D01*
X112542000Y-54053000D01*
X112542000Y-54119672D01*
X112530000Y-54180000D01*
X112530000Y-54307000D01*
X112522000Y-54307000D01*
X112522000Y-55406250D01*
X112530000Y-55414250D01*
X112530000Y-55753000D01*
X112616397Y-56187346D01*
X112862434Y-56555566D01*
X113230654Y-56801603D01*
X113665000Y-56888000D01*
X114099346Y-56801603D01*
X114467566Y-56555566D01*
X114713603Y-56187346D01*
X114800000Y-55753000D01*
X114800000Y-54465750D01*
X115270000Y-54465750D01*
X115270000Y-55056309D01*
X115366673Y-55289698D01*
X115545301Y-55468327D01*
X115778690Y-55565000D01*
X115919250Y-55565000D01*
X116078000Y-55406250D01*
X116078000Y-54307000D01*
X115428750Y-54307000D01*
X115270000Y-54465750D01*
X114800000Y-54465750D01*
X114800000Y-54180000D01*
X114713603Y-53745654D01*
X114612440Y-53594253D01*
X114612440Y-53430000D01*
X114587316Y-53303691D01*
X115270000Y-53303691D01*
X115270000Y-53894250D01*
X115428750Y-54053000D01*
X116078000Y-54053000D01*
X116078000Y-52953750D01*
X115919250Y-52795000D01*
X115778690Y-52795000D01*
X115545301Y-52891673D01*
X115366673Y-53070302D01*
X115270000Y-53303691D01*
X114587316Y-53303691D01*
X114563157Y-53182235D01*
X114422809Y-52972191D01*
X114212765Y-52831843D01*
X113965000Y-52782560D01*
X113365000Y-52782560D01*
X113117235Y-52831843D01*
X113038028Y-52884768D01*
X112821310Y-52795000D01*
X112680750Y-52795000D01*
X112522000Y-52953750D01*
X112268000Y-52953750D01*
X112109250Y-52795000D01*
X111968690Y-52795000D01*
X111751972Y-52884768D01*
X111672765Y-52831843D01*
X111425000Y-52782560D01*
X110825000Y-52782560D01*
X110577235Y-52831843D01*
X110490000Y-52890132D01*
X110402765Y-52831843D01*
X110155000Y-52782560D01*
X109555000Y-52782560D01*
X109307235Y-52831843D01*
X109220000Y-52890132D01*
X109132765Y-52831843D01*
X108885000Y-52782560D01*
X108285000Y-52782560D01*
X108037235Y-52831843D01*
X107950000Y-52890132D01*
X107862765Y-52831843D01*
X107615000Y-52782560D01*
X107015000Y-52782560D01*
X106767235Y-52831843D01*
X106680000Y-52890132D01*
X106592765Y-52831843D01*
X106345000Y-52782560D01*
X105745000Y-52782560D01*
X105497235Y-52831843D01*
X105418028Y-52884768D01*
X105201310Y-52795000D01*
X105060750Y-52795000D01*
X104902000Y-52953750D01*
X104902000Y-54053000D01*
X104922000Y-54053000D01*
X104922000Y-54119672D01*
X104910000Y-54180000D01*
X104910000Y-54307000D01*
X104902000Y-54307000D01*
X104902000Y-55406250D01*
X104910000Y-55414250D01*
X104910000Y-55530002D01*
X104996397Y-55964348D01*
X105242434Y-56332568D01*
X105610654Y-56578605D01*
X106045000Y-56665002D01*
X106479346Y-56578605D01*
X106555000Y-56528055D01*
X106555000Y-60396608D01*
X104909999Y-58751607D01*
X104909999Y-58351780D01*
X105016919Y-58245046D01*
X105174820Y-57864777D01*
X105175179Y-57453029D01*
X105017942Y-57072485D01*
X104727046Y-56781081D01*
X104346777Y-56623180D01*
X103935029Y-56622821D01*
X103554485Y-56780058D01*
X103263081Y-57070954D01*
X103105180Y-57451223D01*
X103104821Y-57862971D01*
X103262058Y-58243515D01*
X103389999Y-58371679D01*
X103389999Y-59066409D01*
X103407079Y-59152277D01*
X99832242Y-55577440D01*
X99995000Y-55577440D01*
X100242765Y-55528157D01*
X100321972Y-55475232D01*
X100538690Y-55565000D01*
X100679250Y-55565000D01*
X100838000Y-55406250D01*
X100838000Y-54307000D01*
X100818000Y-54307000D01*
X100818000Y-54053000D01*
X100838000Y-54053000D01*
X100838000Y-52953750D01*
X100679250Y-52795000D01*
X100538690Y-52795000D01*
X100321972Y-52884768D01*
X100242765Y-52831843D01*
X99995000Y-52782560D01*
X99395000Y-52782560D01*
X99147235Y-52831843D01*
X99060000Y-52890132D01*
X98972765Y-52831843D01*
X98725000Y-52782560D01*
X98125000Y-52782560D01*
X97877235Y-52831843D01*
X97790000Y-52890132D01*
X97702765Y-52831843D01*
X97455000Y-52782560D01*
X96855000Y-52782560D01*
X96607235Y-52831843D01*
X96520000Y-52890132D01*
X96432765Y-52831843D01*
X96185000Y-52782560D01*
X95740564Y-52782560D01*
X95663603Y-52395652D01*
X95417566Y-52027432D01*
X95049346Y-51781395D01*
X94615000Y-51694998D01*
X94180654Y-51781395D01*
X93812434Y-52027432D01*
X93566397Y-52395652D01*
X93480000Y-52829998D01*
X93480000Y-52945750D01*
X93472000Y-52953750D01*
X93472000Y-54053000D01*
X93480000Y-54053000D01*
X93480000Y-54180000D01*
X93492000Y-54240328D01*
X93492000Y-54307000D01*
X93472000Y-54307000D01*
X93472000Y-55406250D01*
X93630750Y-55565000D01*
X93771310Y-55565000D01*
X93988028Y-55475232D01*
X94067235Y-55528157D01*
X94315000Y-55577440D01*
X94915000Y-55577440D01*
X95125000Y-55535669D01*
X95125000Y-57785000D01*
X95182852Y-58075839D01*
X95347599Y-58322401D01*
X100277652Y-63252454D01*
X99952027Y-63317225D01*
X97057401Y-60422599D01*
X96810839Y-60257852D01*
X96520000Y-60200000D01*
X92369802Y-60200000D01*
X87659143Y-55489341D01*
X87717235Y-55528157D01*
X87965000Y-55577440D01*
X88565000Y-55577440D01*
X88812765Y-55528157D01*
X88891972Y-55475232D01*
X89108690Y-55565000D01*
X89249250Y-55565000D01*
X89408000Y-55406250D01*
X89408000Y-54307000D01*
X89388000Y-54307000D01*
X89388000Y-54053000D01*
X89408000Y-54053000D01*
X89408000Y-54033000D01*
X89662000Y-54033000D01*
X89662000Y-54053000D01*
X89670000Y-54053000D01*
X89670000Y-54180000D01*
X89682000Y-54240328D01*
X89682000Y-54307000D01*
X89662000Y-54307000D01*
X89662000Y-55406250D01*
X89820750Y-55565000D01*
X89961310Y-55565000D01*
X90178028Y-55475232D01*
X90257235Y-55528157D01*
X90505000Y-55577440D01*
X91105000Y-55577440D01*
X91352765Y-55528157D01*
X91562809Y-55387809D01*
X91703157Y-55177765D01*
X91752440Y-54930000D01*
X91752440Y-54765747D01*
X91853603Y-54614346D01*
X91883160Y-54465750D01*
X92410000Y-54465750D01*
X92410000Y-55056309D01*
X92506673Y-55289698D01*
X92685301Y-55468327D01*
X92918690Y-55565000D01*
X93059250Y-55565000D01*
X93218000Y-55406250D01*
X93218000Y-54307000D01*
X92568750Y-54307000D01*
X92410000Y-54465750D01*
X91883160Y-54465750D01*
X91940000Y-54180000D01*
X91940000Y-53303691D01*
X92410000Y-53303691D01*
X92410000Y-53894250D01*
X92568750Y-54053000D01*
X93218000Y-54053000D01*
X93218000Y-52953750D01*
X93059250Y-52795000D01*
X92918690Y-52795000D01*
X92685301Y-52891673D01*
X92506673Y-53070302D01*
X92410000Y-53303691D01*
X91940000Y-53303691D01*
X91940000Y-52705000D01*
X91853603Y-52270654D01*
X91607566Y-51902434D01*
X91239346Y-51656397D01*
X90805000Y-51570000D01*
X83185000Y-51570000D01*
X82750654Y-51656397D01*
X82382434Y-51902434D01*
X82136397Y-52270654D01*
X82050000Y-52705000D01*
X82050000Y-52945750D01*
X82042000Y-52953750D01*
X81788000Y-52953750D01*
X81629250Y-52795000D01*
X81488690Y-52795000D01*
X81255301Y-52891673D01*
X81076673Y-53070302D01*
X80980000Y-53303691D01*
X70001722Y-53303691D01*
X70001598Y-53303381D01*
X69936524Y-53205990D01*
X69357949Y-52741656D01*
X68707000Y-53392605D01*
X68707000Y-53033395D01*
X69178344Y-52562051D01*
X68714010Y-51983476D01*
X68707000Y-51980470D01*
X68707000Y-50927000D01*
X95056457Y-50927000D01*
X95297954Y-51168919D01*
M02*
