M48
;DRILL file {KiCad (2017-12-02 revision 3109343)-master} date Fri Jan  5 09:38:43 2018
;FORMAT={-:-/ absolute / inch / decimal}
FMAT,2
INCH,TZ
T1C0.016
T2C0.040
T3C0.161
%
G90
G05
M72
T1
X3.275Y-1.725
X3.275Y-2.075
X3.575Y-1.725
X3.575Y-1.725
X3.575Y-2.075
X3.725Y-1.7138
X3.725Y-1.835
X3.725Y-2.0799
X3.725Y-2.2
X3.775Y-1.98
X3.92Y-1.8201
X4.025Y-1.825
X4.025Y-2.0799
X4.025Y-2.19
X4.0776Y-2.07
X4.1Y-2.27
X4.175Y-1.71
X4.175Y-1.825
X4.175Y-2.0799
X4.175Y-2.1862
X4.375Y-1.83
X4.475Y-1.83
X4.475Y-2.075
X4.475Y-2.075
X4.475Y-2.195
X4.625Y-1.7138
X4.625Y-1.83
X4.625Y-2.0799
X4.625Y-2.2
X4.825Y-1.83
X4.85Y-2.475
X4.925Y-1.7138
X4.925Y-2.07
X4.925Y-2.1862
T2
X3.Y-1.4
X3.Y-1.5
X3.1Y-1.4
X3.1Y-1.5
X3.2Y-1.4
X3.2Y-1.5
X3.3Y-1.4
X3.3Y-1.5
X3.4Y-1.4
X3.4Y-1.5
X3.5Y-1.4
X3.5Y-1.5
X3.6Y-1.4
X3.6Y-1.5
X3.7Y-1.4
X3.7Y-1.5
X3.8Y-1.4
X3.8Y-1.5
X3.9Y-1.4
X3.9Y-1.5
X4.Y-1.4
X4.Y-1.5
X4.1Y-1.4
X4.1Y-1.5
X4.2Y-1.4
X4.2Y-1.5
X4.3Y-1.4
X4.3Y-1.5
X4.4Y-1.4
X4.4Y-1.5
X4.5Y-1.4
X4.5Y-1.5
X4.6Y-1.4
X4.6Y-1.5
X4.7Y-1.4
X4.7Y-1.5
X4.8Y-1.4
X4.8Y-1.5
X4.9Y-1.4
X4.9Y-1.5
X3.05Y-2.55
X3.05Y-2.65
X3.15Y-2.55
X3.15Y-2.65
X3.25Y-2.55
X3.25Y-2.65
X3.35Y-2.55
X3.35Y-2.65
X3.45Y-2.55
X3.45Y-2.65
X3.55Y-2.55
X3.55Y-2.65
X3.65Y-2.55
X3.65Y-2.65
X3.75Y-2.55
X3.75Y-2.65
X3.85Y-2.55
X3.85Y-2.65
X3.95Y-2.55
X3.95Y-2.65
X4.05Y-2.55
X4.05Y-2.65
X4.15Y-2.55
X4.15Y-2.65
X4.25Y-2.55
X4.25Y-2.65
X4.35Y-2.55
X4.35Y-2.65
X4.45Y-2.55
X4.45Y-2.65
X4.55Y-2.55
X4.55Y-2.65
X4.65Y-2.55
X4.65Y-2.65
X4.75Y-2.55
X4.75Y-2.65
X4.85Y-2.55
X4.85Y-2.65
X4.95Y-2.55
X4.95Y-2.65
X3.05Y-2.95
X3.05Y-3.05
X3.15Y-2.95
X3.15Y-3.05
X3.25Y-2.95
X3.25Y-3.05
X3.35Y-2.95
X3.35Y-3.05
X3.45Y-2.95
X3.45Y-3.05
X3.55Y-2.95
X3.55Y-3.05
X3.65Y-2.95
X3.65Y-3.05
X3.75Y-2.95
X3.75Y-3.05
X3.85Y-2.95
X3.85Y-3.05
X3.95Y-2.95
X3.95Y-3.05
X4.05Y-2.95
X4.05Y-3.05
X4.15Y-2.95
X4.15Y-3.05
X4.25Y-2.95
X4.25Y-3.05
X4.35Y-2.95
X4.35Y-3.05
X4.45Y-2.95
X4.45Y-3.05
X4.55Y-2.95
X4.55Y-3.05
X4.65Y-2.95
X4.65Y-3.05
X4.75Y-2.95
X4.75Y-3.05
X4.85Y-2.95
X4.85Y-3.05
X4.95Y-2.95
X4.95Y-3.05
T3
X2.6Y-2.2
X2.1Y-2.2
X2.6Y-2.7
X2.1Y-2.7
T0
M30
