G04 #@! TF.GenerationSoftware,KiCad,Pcbnew,(2017-12-02 revision 3109343)-master*
G04 #@! TF.CreationDate,2018-01-05T09:38:41-05:00*
G04 #@! TF.ProjectId,stm_integrated_interface,73746D5F696E74656772617465645F69,rev?*
G04 #@! TF.SameCoordinates,Original*
G04 #@! TF.FileFunction,Legend,Bot*
G04 #@! TF.FilePolarity,Positive*
%FSLAX46Y46*%
G04 Gerber Fmt 4.6, Leading zero omitted, Abs format (unit mm)*
G04 Created by KiCad (PCBNEW (2017-12-02 revision 3109343)-master) date Fri Jan  5 09:38:41 2018*
%MOMM*%
%LPD*%
G01*
G04 APERTURE LIST*
%ADD10C,0.150000*%
G04 APERTURE END LIST*
D10*
X81310000Y-45655000D02*
X81310000Y-44130000D01*
X91685000Y-45655000D02*
X91685000Y-53405000D01*
X81035000Y-45655000D02*
X81035000Y-53405000D01*
X91685000Y-45655000D02*
X91330000Y-45655000D01*
X91685000Y-53405000D02*
X91330000Y-53405000D01*
X81035000Y-53405000D02*
X81390000Y-53405000D01*
X81035000Y-45655000D02*
X81310000Y-45655000D01*
X92740000Y-45655000D02*
X92740000Y-44130000D01*
X103115000Y-45655000D02*
X103115000Y-53405000D01*
X92465000Y-45655000D02*
X92465000Y-53405000D01*
X103115000Y-45655000D02*
X102760000Y-45655000D01*
X103115000Y-53405000D02*
X102760000Y-53405000D01*
X92465000Y-53405000D02*
X92820000Y-53405000D01*
X92465000Y-45655000D02*
X92740000Y-45655000D01*
X103895000Y-45655000D02*
X104170000Y-45655000D01*
X103895000Y-53405000D02*
X104250000Y-53405000D01*
X114545000Y-53405000D02*
X114190000Y-53405000D01*
X114545000Y-45655000D02*
X114190000Y-45655000D01*
X103895000Y-45655000D02*
X103895000Y-53405000D01*
X114545000Y-45655000D02*
X114545000Y-53405000D01*
X104170000Y-45655000D02*
X104170000Y-44130000D01*
X115325000Y-45655000D02*
X115600000Y-45655000D01*
X115325000Y-53405000D02*
X115680000Y-53405000D01*
X125975000Y-53405000D02*
X125620000Y-53405000D01*
X125975000Y-45655000D02*
X125620000Y-45655000D01*
X115325000Y-45655000D02*
X115325000Y-53405000D01*
X125975000Y-45655000D02*
X125975000Y-53405000D01*
X115600000Y-45655000D02*
X115600000Y-44130000D01*
X85812380Y-48768095D02*
X86621904Y-48768095D01*
X86717142Y-48815714D01*
X86764761Y-48863333D01*
X86812380Y-48958571D01*
X86812380Y-49149047D01*
X86764761Y-49244285D01*
X86717142Y-49291904D01*
X86621904Y-49339523D01*
X85812380Y-49339523D01*
X86812380Y-50339523D02*
X86812380Y-49768095D01*
X86812380Y-50053809D02*
X85812380Y-50053809D01*
X85955238Y-49958571D01*
X86050476Y-49863333D01*
X86098095Y-49768095D01*
X97242380Y-48768095D02*
X98051904Y-48768095D01*
X98147142Y-48815714D01*
X98194761Y-48863333D01*
X98242380Y-48958571D01*
X98242380Y-49149047D01*
X98194761Y-49244285D01*
X98147142Y-49291904D01*
X98051904Y-49339523D01*
X97242380Y-49339523D01*
X97337619Y-49768095D02*
X97290000Y-49815714D01*
X97242380Y-49910952D01*
X97242380Y-50149047D01*
X97290000Y-50244285D01*
X97337619Y-50291904D01*
X97432857Y-50339523D01*
X97528095Y-50339523D01*
X97670952Y-50291904D01*
X98242380Y-49720476D01*
X98242380Y-50339523D01*
X108672380Y-48768095D02*
X109481904Y-48768095D01*
X109577142Y-48815714D01*
X109624761Y-48863333D01*
X109672380Y-48958571D01*
X109672380Y-49149047D01*
X109624761Y-49244285D01*
X109577142Y-49291904D01*
X109481904Y-49339523D01*
X108672380Y-49339523D01*
X109005714Y-50244285D02*
X109672380Y-50244285D01*
X108624761Y-50006190D02*
X109339047Y-49768095D01*
X109339047Y-50387142D01*
X120102380Y-48768095D02*
X120911904Y-48768095D01*
X121007142Y-48815714D01*
X121054761Y-48863333D01*
X121102380Y-48958571D01*
X121102380Y-49149047D01*
X121054761Y-49244285D01*
X121007142Y-49291904D01*
X120911904Y-49339523D01*
X120102380Y-49339523D01*
X120102380Y-50244285D02*
X120102380Y-50053809D01*
X120150000Y-49958571D01*
X120197619Y-49910952D01*
X120340476Y-49815714D01*
X120530952Y-49768095D01*
X120911904Y-49768095D01*
X121007142Y-49815714D01*
X121054761Y-49863333D01*
X121102380Y-49958571D01*
X121102380Y-50149047D01*
X121054761Y-50244285D01*
X121007142Y-50291904D01*
X120911904Y-50339523D01*
X120673809Y-50339523D01*
X120578571Y-50291904D01*
X120530952Y-50244285D01*
X120483333Y-50149047D01*
X120483333Y-49958571D01*
X120530952Y-49863333D01*
X120578571Y-49815714D01*
X120673809Y-49768095D01*
M02*
