G04 #@! TF.GenerationSoftware,KiCad,Pcbnew,(2017-12-02 revision 3109343)-master*
G04 #@! TF.CreationDate,2018-01-05T09:38:41-05:00*
G04 #@! TF.ProjectId,stm_integrated_interface,73746D5F696E74656772617465645F69,rev?*
G04 #@! TF.SameCoordinates,Original*
G04 #@! TF.FileFunction,Legend,Top*
G04 #@! TF.FilePolarity,Positive*
%FSLAX46Y46*%
G04 Gerber Fmt 4.6, Leading zero omitted, Abs format (unit mm)*
G04 Created by KiCad (PCBNEW (2017-12-02 revision 3109343)-master) date Fri Jan  5 09:38:41 2018*
%MOMM*%
%LPD*%
G01*
G04 APERTURE LIST*
%ADD10C,0.300000*%
%ADD11C,0.120000*%
%ADD12C,0.150000*%
G04 APERTURE END LIST*
D10*
X54067142Y-36238571D02*
X54067142Y-34738571D01*
X54710000Y-36167142D02*
X54924285Y-36238571D01*
X55281428Y-36238571D01*
X55424285Y-36167142D01*
X55495714Y-36095714D01*
X55567142Y-35952857D01*
X55567142Y-35810000D01*
X55495714Y-35667142D01*
X55424285Y-35595714D01*
X55281428Y-35524285D01*
X54995714Y-35452857D01*
X54852857Y-35381428D01*
X54781428Y-35310000D01*
X54710000Y-35167142D01*
X54710000Y-35024285D01*
X54781428Y-34881428D01*
X54852857Y-34810000D01*
X54995714Y-34738571D01*
X55352857Y-34738571D01*
X55567142Y-34810000D01*
X56495714Y-34738571D02*
X56781428Y-34738571D01*
X56924285Y-34810000D01*
X57067142Y-34952857D01*
X57138571Y-35238571D01*
X57138571Y-35738571D01*
X57067142Y-36024285D01*
X56924285Y-36167142D01*
X56781428Y-36238571D01*
X56495714Y-36238571D01*
X56352857Y-36167142D01*
X56210000Y-36024285D01*
X56138571Y-35738571D01*
X56138571Y-35238571D01*
X56210000Y-34952857D01*
X56352857Y-34810000D01*
X56495714Y-34738571D01*
X58495714Y-36238571D02*
X57781428Y-36238571D01*
X57781428Y-34738571D01*
X58924285Y-35810000D02*
X59638571Y-35810000D01*
X58781428Y-36238571D02*
X59281428Y-34738571D01*
X59781428Y-36238571D01*
X60067142Y-34738571D02*
X60924285Y-34738571D01*
X60495714Y-36238571D02*
X60495714Y-34738571D01*
X61710000Y-34738571D02*
X61995714Y-34738571D01*
X62138571Y-34810000D01*
X62281428Y-34952857D01*
X62352857Y-35238571D01*
X62352857Y-35738571D01*
X62281428Y-36024285D01*
X62138571Y-36167142D01*
X61995714Y-36238571D01*
X61710000Y-36238571D01*
X61567142Y-36167142D01*
X61424285Y-36024285D01*
X61352857Y-35738571D01*
X61352857Y-35238571D01*
X61424285Y-34952857D01*
X61567142Y-34810000D01*
X61710000Y-34738571D01*
X63852857Y-36238571D02*
X63352857Y-35524285D01*
X62995714Y-36238571D02*
X62995714Y-34738571D01*
X63567142Y-34738571D01*
X63710000Y-34810000D01*
X63781428Y-34881428D01*
X63852857Y-35024285D01*
X63852857Y-35238571D01*
X63781428Y-35381428D01*
X63710000Y-35452857D01*
X63567142Y-35524285D01*
X62995714Y-35524285D01*
X66495714Y-36238571D02*
X65995714Y-35524285D01*
X65638571Y-36238571D02*
X65638571Y-34738571D01*
X66210000Y-34738571D01*
X66352857Y-34810000D01*
X66424285Y-34881428D01*
X66495714Y-35024285D01*
X66495714Y-35238571D01*
X66424285Y-35381428D01*
X66352857Y-35452857D01*
X66210000Y-35524285D01*
X65638571Y-35524285D01*
X67924285Y-36238571D02*
X67067142Y-36238571D01*
X67495714Y-36238571D02*
X67495714Y-34738571D01*
X67352857Y-34952857D01*
X67210000Y-35095714D01*
X67067142Y-35167142D01*
D11*
X131080000Y-70715000D02*
X72120000Y-70715000D01*
X72120000Y-70715000D02*
X72120000Y-61365000D01*
X72120000Y-61365000D02*
X131080000Y-61365000D01*
X131080000Y-61365000D02*
X131080000Y-70715000D01*
X131330000Y-61115000D02*
X128790000Y-61115000D01*
X131330000Y-61115000D02*
X131330000Y-63655000D01*
X131330000Y-71275000D02*
X131330000Y-73815000D01*
X131330000Y-71275000D02*
X128790000Y-71275000D01*
X131080000Y-71525000D02*
X131080000Y-80875000D01*
X72120000Y-71525000D02*
X131080000Y-71525000D01*
X72120000Y-80875000D02*
X72120000Y-71525000D01*
X131080000Y-80875000D02*
X72120000Y-80875000D01*
X130060000Y-31905000D02*
X130060000Y-34445000D01*
X130060000Y-31905000D02*
X127520000Y-31905000D01*
X129810000Y-32155000D02*
X129810000Y-41505000D01*
X70850000Y-32155000D02*
X129810000Y-32155000D01*
X70850000Y-41505000D02*
X70850000Y-32155000D01*
X129810000Y-41505000D02*
X70850000Y-41505000D01*
D12*
X102840000Y-45655000D02*
X102840000Y-44130000D01*
X92465000Y-45655000D02*
X92465000Y-53405000D01*
X103115000Y-45655000D02*
X103115000Y-53405000D01*
X92465000Y-45655000D02*
X92820000Y-45655000D01*
X92465000Y-53405000D02*
X92820000Y-53405000D01*
X103115000Y-53405000D02*
X102760000Y-53405000D01*
X103115000Y-45655000D02*
X102840000Y-45655000D01*
X114545000Y-45655000D02*
X114270000Y-45655000D01*
X114545000Y-53405000D02*
X114190000Y-53405000D01*
X103895000Y-53405000D02*
X104250000Y-53405000D01*
X103895000Y-45655000D02*
X104250000Y-45655000D01*
X114545000Y-45655000D02*
X114545000Y-53405000D01*
X103895000Y-45655000D02*
X103895000Y-53405000D01*
X114270000Y-45655000D02*
X114270000Y-44130000D01*
X125700000Y-45655000D02*
X125700000Y-44130000D01*
X115325000Y-45655000D02*
X115325000Y-53405000D01*
X125975000Y-45655000D02*
X125975000Y-53405000D01*
X115325000Y-45655000D02*
X115680000Y-45655000D01*
X115325000Y-53405000D02*
X115680000Y-53405000D01*
X125975000Y-53405000D02*
X125620000Y-53405000D01*
X125975000Y-45655000D02*
X125700000Y-45655000D01*
X132786380Y-66778095D02*
X131786380Y-66778095D01*
X131786380Y-66397142D01*
X131834000Y-66301904D01*
X131881619Y-66254285D01*
X131976857Y-66206666D01*
X132119714Y-66206666D01*
X132214952Y-66254285D01*
X132262571Y-66301904D01*
X132310190Y-66397142D01*
X132310190Y-66778095D01*
X131786380Y-65873333D02*
X131786380Y-65206666D01*
X132786380Y-65635238D01*
X132786380Y-76938095D02*
X131786380Y-76938095D01*
X131786380Y-76557142D01*
X131834000Y-76461904D01*
X131881619Y-76414285D01*
X131976857Y-76366666D01*
X132119714Y-76366666D01*
X132214952Y-76414285D01*
X132262571Y-76461904D01*
X132310190Y-76557142D01*
X132310190Y-76938095D01*
X132786380Y-75414285D02*
X132786380Y-75985714D01*
X132786380Y-75700000D02*
X131786380Y-75700000D01*
X131929238Y-75795238D01*
X132024476Y-75890476D01*
X132072095Y-75985714D01*
X52601904Y-76652380D02*
X52601904Y-75652380D01*
X52982857Y-75652380D01*
X53078095Y-75700000D01*
X53125714Y-75747619D01*
X53173333Y-75842857D01*
X53173333Y-75985714D01*
X53125714Y-76080952D01*
X53078095Y-76128571D01*
X52982857Y-76176190D01*
X52601904Y-76176190D01*
X53554285Y-75747619D02*
X53601904Y-75700000D01*
X53697142Y-75652380D01*
X53935238Y-75652380D01*
X54030476Y-75700000D01*
X54078095Y-75747619D01*
X54125714Y-75842857D01*
X54125714Y-75938095D01*
X54078095Y-76080952D01*
X53506666Y-76652380D01*
X54125714Y-76652380D01*
X52601904Y-63952380D02*
X52601904Y-62952380D01*
X52982857Y-62952380D01*
X53078095Y-63000000D01*
X53125714Y-63047619D01*
X53173333Y-63142857D01*
X53173333Y-63285714D01*
X53125714Y-63380952D01*
X53078095Y-63428571D01*
X52982857Y-63476190D01*
X52601904Y-63476190D01*
X53506666Y-62952380D02*
X54125714Y-62952380D01*
X53792380Y-63333333D01*
X53935238Y-63333333D01*
X54030476Y-63380952D01*
X54078095Y-63428571D01*
X54125714Y-63523809D01*
X54125714Y-63761904D01*
X54078095Y-63857142D01*
X54030476Y-63904761D01*
X53935238Y-63952380D01*
X53649523Y-63952380D01*
X53554285Y-63904761D01*
X53506666Y-63857142D01*
X65301904Y-63952380D02*
X65301904Y-62952380D01*
X65682857Y-62952380D01*
X65778095Y-63000000D01*
X65825714Y-63047619D01*
X65873333Y-63142857D01*
X65873333Y-63285714D01*
X65825714Y-63380952D01*
X65778095Y-63428571D01*
X65682857Y-63476190D01*
X65301904Y-63476190D01*
X66730476Y-63285714D02*
X66730476Y-63952380D01*
X66492380Y-62904761D02*
X66254285Y-63619047D01*
X66873333Y-63619047D01*
X65301904Y-76652380D02*
X65301904Y-75652380D01*
X65682857Y-75652380D01*
X65778095Y-75700000D01*
X65825714Y-75747619D01*
X65873333Y-75842857D01*
X65873333Y-75985714D01*
X65825714Y-76080952D01*
X65778095Y-76128571D01*
X65682857Y-76176190D01*
X65301904Y-76176190D01*
X66778095Y-75652380D02*
X66301904Y-75652380D01*
X66254285Y-76128571D01*
X66301904Y-76080952D01*
X66397142Y-76033333D01*
X66635238Y-76033333D01*
X66730476Y-76080952D01*
X66778095Y-76128571D01*
X66825714Y-76223809D01*
X66825714Y-76461904D01*
X66778095Y-76557142D01*
X66730476Y-76604761D01*
X66635238Y-76652380D01*
X66397142Y-76652380D01*
X66301904Y-76604761D01*
X66254285Y-76557142D01*
X131516380Y-37568095D02*
X130516380Y-37568095D01*
X130516380Y-37187142D01*
X130564000Y-37091904D01*
X130611619Y-37044285D01*
X130706857Y-36996666D01*
X130849714Y-36996666D01*
X130944952Y-37044285D01*
X130992571Y-37091904D01*
X131040190Y-37187142D01*
X131040190Y-37568095D01*
X130516380Y-36139523D02*
X130516380Y-36330000D01*
X130564000Y-36425238D01*
X130611619Y-36472857D01*
X130754476Y-36568095D01*
X130944952Y-36615714D01*
X131325904Y-36615714D01*
X131421142Y-36568095D01*
X131468761Y-36520476D01*
X131516380Y-36425238D01*
X131516380Y-36234761D01*
X131468761Y-36139523D01*
X131421142Y-36091904D01*
X131325904Y-36044285D01*
X131087809Y-36044285D01*
X130992571Y-36091904D01*
X130944952Y-36139523D01*
X130897333Y-36234761D01*
X130897333Y-36425238D01*
X130944952Y-36520476D01*
X130992571Y-36568095D01*
X131087809Y-36615714D01*
X97242380Y-50291904D02*
X98051904Y-50291904D01*
X98147142Y-50244285D01*
X98194761Y-50196666D01*
X98242380Y-50101428D01*
X98242380Y-49910952D01*
X98194761Y-49815714D01*
X98147142Y-49768095D01*
X98051904Y-49720476D01*
X97242380Y-49720476D01*
X97242380Y-49339523D02*
X97242380Y-48720476D01*
X97623333Y-49053809D01*
X97623333Y-48910952D01*
X97670952Y-48815714D01*
X97718571Y-48768095D01*
X97813809Y-48720476D01*
X98051904Y-48720476D01*
X98147142Y-48768095D01*
X98194761Y-48815714D01*
X98242380Y-48910952D01*
X98242380Y-49196666D01*
X98194761Y-49291904D01*
X98147142Y-49339523D01*
X108672380Y-50291904D02*
X109481904Y-50291904D01*
X109577142Y-50244285D01*
X109624761Y-50196666D01*
X109672380Y-50101428D01*
X109672380Y-49910952D01*
X109624761Y-49815714D01*
X109577142Y-49768095D01*
X109481904Y-49720476D01*
X108672380Y-49720476D01*
X108672380Y-48768095D02*
X108672380Y-49244285D01*
X109148571Y-49291904D01*
X109100952Y-49244285D01*
X109053333Y-49149047D01*
X109053333Y-48910952D01*
X109100952Y-48815714D01*
X109148571Y-48768095D01*
X109243809Y-48720476D01*
X109481904Y-48720476D01*
X109577142Y-48768095D01*
X109624761Y-48815714D01*
X109672380Y-48910952D01*
X109672380Y-49149047D01*
X109624761Y-49244285D01*
X109577142Y-49291904D01*
X118832380Y-50291904D02*
X119641904Y-50291904D01*
X119737142Y-50244285D01*
X119784761Y-50196666D01*
X119832380Y-50101428D01*
X119832380Y-49910952D01*
X119784761Y-49815714D01*
X119737142Y-49768095D01*
X119641904Y-49720476D01*
X118832380Y-49720476D01*
X118832380Y-49339523D02*
X118832380Y-48672857D01*
X119832380Y-49101428D01*
M02*
