G04 #@! TF.FileFunction,Legend,Top*
%FSLAX46Y46*%
G04 Gerber Fmt 4.6, Leading zero omitted, Abs format (unit mm)*
G04 Created by KiCad (PCBNEW (2015-11-24 BZR 6329)-product) date Wed 28 Sep 2016 12:51:07 PM EDT*
%MOMM*%
G01*
G04 APERTURE LIST*
%ADD10C,0.100000*%
%ADD11C,0.150000*%
G04 APERTURE END LIST*
D10*
D11*
X124567744Y-93831150D02*
X125274850Y-94538256D01*
X124320256Y-95492850D02*
X123613150Y-94785744D01*
X130220256Y-92692850D02*
X129513150Y-91985744D01*
X130467744Y-91031150D02*
X131174850Y-91738256D01*
X156273000Y-99953000D02*
X157823000Y-99953000D01*
X157823000Y-99953000D02*
X157823000Y-96853000D01*
X157823000Y-96853000D02*
X156273000Y-96853000D01*
X155003000Y-99673000D02*
X149923000Y-99673000D01*
X149923000Y-99673000D02*
X149923000Y-97133000D01*
X149923000Y-97133000D02*
X155003000Y-97133000D01*
X155003000Y-97133000D02*
X155003000Y-99673000D01*
X171098000Y-105028000D02*
X170573000Y-105028000D01*
X165848000Y-99778000D02*
X166373000Y-99778000D01*
X165848000Y-105028000D02*
X166373000Y-105028000D01*
X171098000Y-99778000D02*
X171098000Y-100303000D01*
X165848000Y-99778000D02*
X165848000Y-100303000D01*
X165848000Y-105028000D02*
X165848000Y-104503000D01*
X171098000Y-105028000D02*
X171098000Y-104503000D01*
X160623000Y-104478000D02*
X161123000Y-104478000D01*
X161123000Y-103528000D02*
X160623000Y-103528000D01*
X160623000Y-103078000D02*
X161123000Y-103078000D01*
X161123000Y-102128000D02*
X160623000Y-102128000D01*
X174433000Y-101318000D02*
X174933000Y-101318000D01*
X174933000Y-100368000D02*
X174433000Y-100368000D01*
X161123000Y-100728000D02*
X160623000Y-100728000D01*
X160623000Y-101678000D02*
X161123000Y-101678000D01*
X174028000Y-97333000D02*
X174028000Y-97833000D01*
X174978000Y-97833000D02*
X174978000Y-97333000D01*
X167983000Y-98243000D02*
X168983000Y-98243000D01*
X168983000Y-96543000D02*
X167983000Y-96543000D01*
X175798000Y-107303000D02*
X175798000Y-106803000D01*
X174848000Y-106803000D02*
X174848000Y-107303000D01*
X174923000Y-101628000D02*
X174423000Y-101628000D01*
X174423000Y-102578000D02*
X174923000Y-102578000D01*
X164714548Y-106253000D02*
G75*
G03X164714548Y-106253000I-291548J0D01*
G01*
X166198000Y-107028000D02*
X166198000Y-107173000D01*
X170348000Y-107028000D02*
X170348000Y-107173000D01*
X170348000Y-112178000D02*
X170348000Y-112033000D01*
X166198000Y-112178000D02*
X166198000Y-112033000D01*
X166198000Y-107028000D02*
X170348000Y-107028000D01*
X166198000Y-112178000D02*
X170348000Y-112178000D01*
X172838000Y-97333000D02*
X172838000Y-97833000D01*
X173788000Y-97833000D02*
X173788000Y-97333000D01*
X174043000Y-98298000D02*
X173543000Y-98298000D01*
X173543000Y-99248000D02*
X174043000Y-99248000D01*
X149643000Y-107133000D02*
X157263000Y-107133000D01*
X157263000Y-107133000D02*
X157263000Y-112213000D01*
X157263000Y-112213000D02*
X147103000Y-112213000D01*
X147103000Y-112213000D02*
X147103000Y-109673000D01*
X148373000Y-106853000D02*
X146823000Y-106853000D01*
X147103000Y-109673000D02*
X149643000Y-109673000D01*
X149643000Y-109673000D02*
X149643000Y-107133000D01*
X146823000Y-106853000D02*
X146823000Y-108403000D01*
X121235223Y-106589751D02*
X120740249Y-106094777D01*
X121588777Y-105246249D02*
X122083751Y-105741223D01*
X124128777Y-107786249D02*
X124623751Y-108281223D01*
X123775223Y-109129751D02*
X123280249Y-108634777D01*
X127384738Y-103323845D02*
G75*
G03X124151846Y-106556739I-1616446J-1616447D01*
G01*
X128103159Y-110508051D02*
G75*
G03X131336051Y-107275159I1616446J1616446D01*
G01*
X131336051Y-107275159D02*
X127384739Y-103323846D01*
X128103159Y-110508051D02*
X124151846Y-106556739D01*
X125078497Y-118028128D02*
X124539682Y-117489313D01*
X124539682Y-117489313D02*
X125617313Y-116411682D01*
X125617313Y-116411682D02*
X126156128Y-116950497D01*
X116098241Y-111203133D02*
X119331133Y-107970241D01*
X119331133Y-107970241D02*
X127233759Y-115872867D01*
X127233759Y-115872867D02*
X124000867Y-119105759D01*
X124000867Y-119105759D02*
X116098241Y-111203133D01*
X126498513Y-117409406D02*
X125791406Y-118116513D01*
X126993487Y-119318594D02*
X127700594Y-118611487D01*
X141758391Y-112043775D02*
G75*
G03X141758391Y-112043775I-285043J0D01*
G01*
X142869657Y-108348633D02*
X143365367Y-108844343D01*
X134272031Y-104394000D02*
X133176016Y-103297984D01*
X130283949Y-100801898D02*
X132080000Y-102597949D01*
X132080000Y-102597949D02*
X130283949Y-104394000D01*
X130983984Y-105490016D02*
X132080000Y-106586031D01*
X132080000Y-106586031D02*
X134272031Y-104394000D01*
X130283949Y-104394000D02*
X128487898Y-102597949D01*
X128487898Y-102597949D02*
X130283949Y-100801898D01*
X143640256Y-108780850D02*
X142933150Y-108073744D01*
X143887744Y-107119150D02*
X144594850Y-107826256D01*
X139322256Y-112590850D02*
X138615150Y-111883744D01*
X139569744Y-110929150D02*
X140276850Y-111636256D01*
X107962847Y-116440291D02*
X118559549Y-127036993D01*
X133803000Y-85815000D02*
X133803000Y-78195000D01*
X133803000Y-78195000D02*
X138883000Y-78195000D01*
X138883000Y-78195000D02*
X138883000Y-88355000D01*
X138883000Y-88355000D02*
X136343000Y-88355000D01*
X133523000Y-87085000D02*
X133523000Y-88635000D01*
X136343000Y-88355000D02*
X136343000Y-85815000D01*
X136343000Y-85815000D02*
X133803000Y-85815000D01*
X133523000Y-88635000D02*
X135073000Y-88635000D01*
X124968000Y-61415000D02*
X124968000Y-61915000D01*
X125918000Y-61915000D02*
X125918000Y-61415000D01*
X124003000Y-62620000D02*
X124503000Y-62620000D01*
X124503000Y-61670000D02*
X124003000Y-61670000D01*
X133214548Y-71035000D02*
G75*
G03X133214548Y-71035000I-291548J0D01*
G01*
X133698000Y-69260000D02*
X133843000Y-69260000D01*
X133698000Y-65110000D02*
X133843000Y-65110000D01*
X138848000Y-65110000D02*
X138703000Y-65110000D01*
X138848000Y-69260000D02*
X138703000Y-69260000D01*
X133698000Y-69260000D02*
X133698000Y-65110000D01*
X138848000Y-69260000D02*
X138848000Y-65110000D01*
X128298000Y-60535000D02*
X128298000Y-61035000D01*
X129248000Y-61035000D02*
X129248000Y-60535000D01*
X133973000Y-59660000D02*
X133473000Y-59660000D01*
X133473000Y-60610000D02*
X133973000Y-60610000D01*
X124913000Y-67475000D02*
X124913000Y-66475000D01*
X123213000Y-66475000D02*
X123213000Y-67475000D01*
X124003000Y-61430000D02*
X124503000Y-61430000D01*
X124503000Y-60480000D02*
X124003000Y-60480000D01*
X127398000Y-74335000D02*
X127398000Y-74835000D01*
X128348000Y-74835000D02*
X128348000Y-74335000D01*
X127988000Y-61025000D02*
X127988000Y-60525000D01*
X127038000Y-60525000D02*
X127038000Y-61025000D01*
X129748000Y-74835000D02*
X129748000Y-74335000D01*
X128798000Y-74335000D02*
X128798000Y-74835000D01*
X131148000Y-74835000D02*
X131148000Y-74335000D01*
X130198000Y-74335000D02*
X130198000Y-74835000D01*
X131698000Y-64360000D02*
X131698000Y-64885000D01*
X126448000Y-69610000D02*
X126448000Y-69085000D01*
X131698000Y-69610000D02*
X131698000Y-69085000D01*
X126448000Y-64360000D02*
X126973000Y-64360000D01*
X126448000Y-69610000D02*
X126973000Y-69610000D01*
X131698000Y-69610000D02*
X131173000Y-69610000D01*
X131698000Y-64360000D02*
X131173000Y-64360000D01*
X126623000Y-79185000D02*
X126623000Y-77635000D01*
X126623000Y-77635000D02*
X123523000Y-77635000D01*
X123523000Y-77635000D02*
X123523000Y-79185000D01*
X126343000Y-80455000D02*
X126343000Y-85535000D01*
X126343000Y-85535000D02*
X123803000Y-85535000D01*
X123803000Y-85535000D02*
X123803000Y-80455000D01*
X123803000Y-80455000D02*
X126343000Y-80455000D01*
X137487984Y-101928016D02*
X138584000Y-103024031D01*
X138584000Y-103024031D02*
X140776031Y-100832000D01*
X140776031Y-100832000D02*
X139680016Y-99735984D01*
X136787949Y-100832000D02*
X133195846Y-97239898D01*
X133195846Y-97239898D02*
X134991898Y-95443846D01*
X134991898Y-95443846D02*
X138584000Y-99035949D01*
X138584000Y-99035949D02*
X136787949Y-100832000D01*
X138510016Y-93645984D02*
X137414000Y-92549969D01*
X137414000Y-92549969D02*
X135221969Y-94742000D01*
X135221969Y-94742000D02*
X136317984Y-95838016D01*
X139210051Y-94742000D02*
X142802154Y-98334102D01*
X142802154Y-98334102D02*
X141006102Y-100130154D01*
X141006102Y-100130154D02*
X137414000Y-96538051D01*
X137414000Y-96538051D02*
X139210051Y-94742000D01*
X122662765Y-96207534D02*
X122763780Y-95635113D01*
X122258703Y-95803473D02*
X122965810Y-95096366D01*
X123235185Y-95365740D01*
X123268856Y-95466756D01*
X123268856Y-95534099D01*
X123235185Y-95635114D01*
X123134169Y-95736129D01*
X123033154Y-95769801D01*
X122965811Y-95769801D01*
X122864796Y-95736129D01*
X122595421Y-95466755D01*
X123975963Y-96106519D02*
X123841275Y-95971831D01*
X123740260Y-95938160D01*
X123672917Y-95938160D01*
X123504558Y-95971831D01*
X123336200Y-96072846D01*
X123066825Y-96342221D01*
X123033154Y-96443236D01*
X123033154Y-96510579D01*
X123066825Y-96611595D01*
X123201513Y-96746282D01*
X123302528Y-96779954D01*
X123369871Y-96779954D01*
X123470887Y-96746282D01*
X123639245Y-96577924D01*
X123672918Y-96476908D01*
X123672918Y-96409564D01*
X123639246Y-96308549D01*
X123504558Y-96173862D01*
X123403543Y-96140190D01*
X123336200Y-96140190D01*
X123235184Y-96173862D01*
X131249771Y-90720528D02*
X131350786Y-90148107D01*
X130845709Y-90316467D02*
X131552816Y-89609360D01*
X131822191Y-89878734D01*
X131855862Y-89979750D01*
X131855862Y-90047093D01*
X131822191Y-90148108D01*
X131721175Y-90249123D01*
X131620160Y-90282795D01*
X131552817Y-90282795D01*
X131451802Y-90249123D01*
X131182427Y-89979749D01*
X131923206Y-91393963D02*
X131519144Y-90989902D01*
X131721175Y-91191932D02*
X132428281Y-90484825D01*
X132259923Y-90518497D01*
X132125236Y-90518497D01*
X132024221Y-90484825D01*
X152834905Y-96580381D02*
X152834905Y-95580381D01*
X153215858Y-95580381D01*
X153311096Y-95628000D01*
X153358715Y-95675619D01*
X153406334Y-95770857D01*
X153406334Y-95913714D01*
X153358715Y-96008952D01*
X153311096Y-96056571D01*
X153215858Y-96104190D01*
X152834905Y-96104190D01*
X154311096Y-95580381D02*
X153834905Y-95580381D01*
X153787286Y-96056571D01*
X153834905Y-96008952D01*
X153930143Y-95961333D01*
X154168239Y-95961333D01*
X154263477Y-96008952D01*
X154311096Y-96056571D01*
X154358715Y-96151810D01*
X154358715Y-96389905D01*
X154311096Y-96485143D01*
X154263477Y-96532762D01*
X154168239Y-96580381D01*
X153930143Y-96580381D01*
X153834905Y-96532762D01*
X153787286Y-96485143D01*
X172488476Y-105830381D02*
X173155143Y-106830381D01*
X173155143Y-105830381D02*
X172488476Y-106830381D01*
X173488476Y-105925619D02*
X173536095Y-105878000D01*
X173631333Y-105830381D01*
X173869429Y-105830381D01*
X173964667Y-105878000D01*
X174012286Y-105925619D01*
X174059905Y-106020857D01*
X174059905Y-106116095D01*
X174012286Y-106258952D01*
X173440857Y-106830381D01*
X174059905Y-106830381D01*
X167711095Y-101855381D02*
X167711095Y-102664905D01*
X167758714Y-102760143D01*
X167806333Y-102807762D01*
X167901571Y-102855381D01*
X168092048Y-102855381D01*
X168187286Y-102807762D01*
X168234905Y-102760143D01*
X168282524Y-102664905D01*
X168282524Y-101855381D01*
X169234905Y-101855381D02*
X168758714Y-101855381D01*
X168711095Y-102331571D01*
X168758714Y-102283952D01*
X168853952Y-102236333D01*
X169092048Y-102236333D01*
X169187286Y-102283952D01*
X169234905Y-102331571D01*
X169282524Y-102426810D01*
X169282524Y-102664905D01*
X169234905Y-102760143D01*
X169187286Y-102807762D01*
X169092048Y-102855381D01*
X168853952Y-102855381D01*
X168758714Y-102807762D01*
X168711095Y-102760143D01*
X157030143Y-104455381D02*
X156696809Y-103979190D01*
X156458714Y-104455381D02*
X156458714Y-103455381D01*
X156839667Y-103455381D01*
X156934905Y-103503000D01*
X156982524Y-103550619D01*
X157030143Y-103645857D01*
X157030143Y-103788714D01*
X156982524Y-103883952D01*
X156934905Y-103931571D01*
X156839667Y-103979190D01*
X156458714Y-103979190D01*
X157982524Y-104455381D02*
X157411095Y-104455381D01*
X157696809Y-104455381D02*
X157696809Y-103455381D01*
X157601571Y-103598238D01*
X157506333Y-103693476D01*
X157411095Y-103741095D01*
X158601571Y-103455381D02*
X158696810Y-103455381D01*
X158792048Y-103503000D01*
X158839667Y-103550619D01*
X158887286Y-103645857D01*
X158934905Y-103836333D01*
X158934905Y-104074429D01*
X158887286Y-104264905D01*
X158839667Y-104360143D01*
X158792048Y-104407762D01*
X158696810Y-104455381D01*
X158601571Y-104455381D01*
X158506333Y-104407762D01*
X158458714Y-104360143D01*
X158411095Y-104264905D01*
X158363476Y-104074429D01*
X158363476Y-103836333D01*
X158411095Y-103645857D01*
X158458714Y-103550619D01*
X158506333Y-103503000D01*
X158601571Y-103455381D01*
X157506334Y-103055381D02*
X157173000Y-102579190D01*
X156934905Y-103055381D02*
X156934905Y-102055381D01*
X157315858Y-102055381D01*
X157411096Y-102103000D01*
X157458715Y-102150619D01*
X157506334Y-102245857D01*
X157506334Y-102388714D01*
X157458715Y-102483952D01*
X157411096Y-102531571D01*
X157315858Y-102579190D01*
X156934905Y-102579190D01*
X157982524Y-103055381D02*
X158173000Y-103055381D01*
X158268239Y-103007762D01*
X158315858Y-102960143D01*
X158411096Y-102817286D01*
X158458715Y-102626810D01*
X158458715Y-102245857D01*
X158411096Y-102150619D01*
X158363477Y-102103000D01*
X158268239Y-102055381D01*
X158077762Y-102055381D01*
X157982524Y-102103000D01*
X157934905Y-102150619D01*
X157887286Y-102245857D01*
X157887286Y-102483952D01*
X157934905Y-102579190D01*
X157982524Y-102626810D01*
X158077762Y-102674429D01*
X158268239Y-102674429D01*
X158363477Y-102626810D01*
X158411096Y-102579190D01*
X158458715Y-102483952D01*
X177109381Y-101131666D02*
X176633190Y-101465000D01*
X177109381Y-101703095D02*
X176109381Y-101703095D01*
X176109381Y-101322142D01*
X176157000Y-101226904D01*
X176204619Y-101179285D01*
X176299857Y-101131666D01*
X176442714Y-101131666D01*
X176537952Y-101179285D01*
X176585571Y-101226904D01*
X176633190Y-101322142D01*
X176633190Y-101703095D01*
X176537952Y-100560238D02*
X176490333Y-100655476D01*
X176442714Y-100703095D01*
X176347476Y-100750714D01*
X176299857Y-100750714D01*
X176204619Y-100703095D01*
X176157000Y-100655476D01*
X176109381Y-100560238D01*
X176109381Y-100369761D01*
X176157000Y-100274523D01*
X176204619Y-100226904D01*
X176299857Y-100179285D01*
X176347476Y-100179285D01*
X176442714Y-100226904D01*
X176490333Y-100274523D01*
X176537952Y-100369761D01*
X176537952Y-100560238D01*
X176585571Y-100655476D01*
X176633190Y-100703095D01*
X176728429Y-100750714D01*
X176918905Y-100750714D01*
X177014143Y-100703095D01*
X177061762Y-100655476D01*
X177109381Y-100560238D01*
X177109381Y-100369761D01*
X177061762Y-100274523D01*
X177014143Y-100226904D01*
X176918905Y-100179285D01*
X176728429Y-100179285D01*
X176633190Y-100226904D01*
X176585571Y-100274523D01*
X176537952Y-100369761D01*
X157506334Y-101655381D02*
X157173000Y-101179190D01*
X156934905Y-101655381D02*
X156934905Y-100655381D01*
X157315858Y-100655381D01*
X157411096Y-100703000D01*
X157458715Y-100750619D01*
X157506334Y-100845857D01*
X157506334Y-100988714D01*
X157458715Y-101083952D01*
X157411096Y-101131571D01*
X157315858Y-101179190D01*
X156934905Y-101179190D01*
X157839667Y-100655381D02*
X158506334Y-100655381D01*
X158077762Y-101655381D01*
X176355381Y-97549666D02*
X176355381Y-98025857D01*
X175355381Y-98025857D01*
X175688714Y-96787761D02*
X176355381Y-96787761D01*
X175307762Y-97025857D02*
X176022048Y-97263952D01*
X176022048Y-96644904D01*
X167990143Y-99225143D02*
X167942524Y-99272762D01*
X167799667Y-99320381D01*
X167704429Y-99320381D01*
X167561571Y-99272762D01*
X167466333Y-99177524D01*
X167418714Y-99082286D01*
X167371095Y-98891810D01*
X167371095Y-98748952D01*
X167418714Y-98558476D01*
X167466333Y-98463238D01*
X167561571Y-98368000D01*
X167704429Y-98320381D01*
X167799667Y-98320381D01*
X167942524Y-98368000D01*
X167990143Y-98415619D01*
X168942524Y-99320381D02*
X168371095Y-99320381D01*
X168656809Y-99320381D02*
X168656809Y-98320381D01*
X168561571Y-98463238D01*
X168466333Y-98558476D01*
X168371095Y-98606095D01*
X169847286Y-98320381D02*
X169371095Y-98320381D01*
X169323476Y-98796571D01*
X169371095Y-98748952D01*
X169466333Y-98701333D01*
X169704429Y-98701333D01*
X169799667Y-98748952D01*
X169847286Y-98796571D01*
X169894905Y-98891810D01*
X169894905Y-99129905D01*
X169847286Y-99225143D01*
X169799667Y-99272762D01*
X169704429Y-99320381D01*
X169466333Y-99320381D01*
X169371095Y-99272762D01*
X169323476Y-99225143D01*
X173030143Y-108310143D02*
X172982524Y-108357762D01*
X172839667Y-108405381D01*
X172744429Y-108405381D01*
X172601571Y-108357762D01*
X172506333Y-108262524D01*
X172458714Y-108167286D01*
X172411095Y-107976810D01*
X172411095Y-107833952D01*
X172458714Y-107643476D01*
X172506333Y-107548238D01*
X172601571Y-107453000D01*
X172744429Y-107405381D01*
X172839667Y-107405381D01*
X172982524Y-107453000D01*
X173030143Y-107500619D01*
X173982524Y-108405381D02*
X173411095Y-108405381D01*
X173696809Y-108405381D02*
X173696809Y-107405381D01*
X173601571Y-107548238D01*
X173506333Y-107643476D01*
X173411095Y-107691095D01*
X174839667Y-107738714D02*
X174839667Y-108405381D01*
X174601571Y-107357762D02*
X174363476Y-108072048D01*
X174982524Y-108072048D01*
X171730143Y-102460143D02*
X171682524Y-102507762D01*
X171539667Y-102555381D01*
X171444429Y-102555381D01*
X171301571Y-102507762D01*
X171206333Y-102412524D01*
X171158714Y-102317286D01*
X171111095Y-102126810D01*
X171111095Y-101983952D01*
X171158714Y-101793476D01*
X171206333Y-101698238D01*
X171301571Y-101603000D01*
X171444429Y-101555381D01*
X171539667Y-101555381D01*
X171682524Y-101603000D01*
X171730143Y-101650619D01*
X172682524Y-102555381D02*
X172111095Y-102555381D01*
X172396809Y-102555381D02*
X172396809Y-101555381D01*
X172301571Y-101698238D01*
X172206333Y-101793476D01*
X172111095Y-101841095D01*
X173015857Y-101555381D02*
X173634905Y-101555381D01*
X173301571Y-101936333D01*
X173444429Y-101936333D01*
X173539667Y-101983952D01*
X173587286Y-102031571D01*
X173634905Y-102126810D01*
X173634905Y-102364905D01*
X173587286Y-102460143D01*
X173539667Y-102507762D01*
X173444429Y-102555381D01*
X173158714Y-102555381D01*
X173063476Y-102507762D01*
X173015857Y-102460143D01*
X167511095Y-105555381D02*
X167511095Y-106364905D01*
X167558714Y-106460143D01*
X167606333Y-106507762D01*
X167701571Y-106555381D01*
X167892048Y-106555381D01*
X167987286Y-106507762D01*
X168034905Y-106460143D01*
X168082524Y-106364905D01*
X168082524Y-105555381D01*
X168987286Y-105555381D02*
X168796809Y-105555381D01*
X168701571Y-105603000D01*
X168653952Y-105650619D01*
X168558714Y-105793476D01*
X168511095Y-105983952D01*
X168511095Y-106364905D01*
X168558714Y-106460143D01*
X168606333Y-106507762D01*
X168701571Y-106555381D01*
X168892048Y-106555381D01*
X168987286Y-106507762D01*
X169034905Y-106460143D01*
X169082524Y-106364905D01*
X169082524Y-106126810D01*
X169034905Y-106031571D01*
X168987286Y-105983952D01*
X168892048Y-105936333D01*
X168701571Y-105936333D01*
X168606333Y-105983952D01*
X168558714Y-106031571D01*
X168511095Y-106126810D01*
X173146334Y-96210381D02*
X172670143Y-96210381D01*
X172670143Y-95210381D01*
X173955858Y-95210381D02*
X173479667Y-95210381D01*
X173432048Y-95686571D01*
X173479667Y-95638952D01*
X173574905Y-95591333D01*
X173813001Y-95591333D01*
X173908239Y-95638952D01*
X173955858Y-95686571D01*
X174003477Y-95781810D01*
X174003477Y-96019905D01*
X173955858Y-96115143D01*
X173908239Y-96162762D01*
X173813001Y-96210381D01*
X173574905Y-96210381D01*
X173479667Y-96162762D01*
X173432048Y-96115143D01*
X170900143Y-98680143D02*
X170852524Y-98727762D01*
X170709667Y-98775381D01*
X170614429Y-98775381D01*
X170471571Y-98727762D01*
X170376333Y-98632524D01*
X170328714Y-98537286D01*
X170281095Y-98346810D01*
X170281095Y-98203952D01*
X170328714Y-98013476D01*
X170376333Y-97918238D01*
X170471571Y-97823000D01*
X170614429Y-97775381D01*
X170709667Y-97775381D01*
X170852524Y-97823000D01*
X170900143Y-97870619D01*
X171852524Y-98775381D02*
X171281095Y-98775381D01*
X171566809Y-98775381D02*
X171566809Y-97775381D01*
X171471571Y-97918238D01*
X171376333Y-98013476D01*
X171281095Y-98061095D01*
X172804905Y-98775381D02*
X172233476Y-98775381D01*
X172519190Y-98775381D02*
X172519190Y-97775381D01*
X172423952Y-97918238D01*
X172328714Y-98013476D01*
X172233476Y-98061095D01*
X146759905Y-106580381D02*
X146759905Y-105580381D01*
X147140858Y-105580381D01*
X147236096Y-105628000D01*
X147283715Y-105675619D01*
X147331334Y-105770857D01*
X147331334Y-105913714D01*
X147283715Y-106008952D01*
X147236096Y-106056571D01*
X147140858Y-106104190D01*
X146759905Y-106104190D01*
X148188477Y-105913714D02*
X148188477Y-106580381D01*
X147950381Y-105532762D02*
X147712286Y-106247048D01*
X148331334Y-106247048D01*
X123404965Y-107771899D02*
X123404965Y-107839242D01*
X123337621Y-107973929D01*
X123270278Y-108041273D01*
X123135590Y-108108617D01*
X123000903Y-108108617D01*
X122899888Y-108074945D01*
X122731530Y-107973930D01*
X122630514Y-107872914D01*
X122529499Y-107704555D01*
X122495827Y-107603540D01*
X122495827Y-107468853D01*
X122563171Y-107334166D01*
X122630514Y-107266822D01*
X122765201Y-107199479D01*
X122832545Y-107199479D01*
X123606995Y-106761746D02*
X124078400Y-107233151D01*
X123169262Y-106660732D02*
X123505980Y-107334167D01*
X123943713Y-106896434D01*
X122340841Y-107232449D02*
X122340841Y-107299792D01*
X122273497Y-107434479D01*
X122206154Y-107501823D01*
X122071466Y-107569167D01*
X121936779Y-107569167D01*
X121835764Y-107535495D01*
X121667406Y-107434480D01*
X121566390Y-107333464D01*
X121465375Y-107165105D01*
X121431703Y-107064090D01*
X121431703Y-106929403D01*
X121499047Y-106794716D01*
X121566390Y-106727372D01*
X121701077Y-106660029D01*
X121768421Y-106660029D01*
X121936779Y-106356984D02*
X122374512Y-105919250D01*
X122408183Y-106424327D01*
X122509199Y-106323311D01*
X122610214Y-106289639D01*
X122677558Y-106289639D01*
X122778574Y-106323312D01*
X122946932Y-106491670D01*
X122980604Y-106592686D01*
X122980604Y-106660029D01*
X122946932Y-106761044D01*
X122744901Y-106963075D01*
X122643886Y-106996747D01*
X122576543Y-106996747D01*
X127476393Y-106705230D02*
X127139675Y-107041948D01*
X127611080Y-106099139D02*
X127476393Y-106705230D01*
X128082485Y-106570544D01*
X127981470Y-107883742D02*
X127577408Y-107479681D01*
X127779439Y-107681711D02*
X128486546Y-106974604D01*
X128318187Y-107008276D01*
X128183500Y-107008276D01*
X128082485Y-106974604D01*
X120043527Y-113086361D02*
X120615947Y-113658781D01*
X120716962Y-113692453D01*
X120784305Y-113692453D01*
X120885320Y-113658781D01*
X121020008Y-113524093D01*
X121053680Y-113423078D01*
X121053680Y-113355735D01*
X121020008Y-113254720D01*
X120447588Y-112682300D01*
X120817977Y-112446598D02*
X120817977Y-112379254D01*
X120851649Y-112278239D01*
X121020008Y-112109880D01*
X121121023Y-112076208D01*
X121188367Y-112076208D01*
X121289382Y-112109880D01*
X121356725Y-112177223D01*
X121424069Y-112311910D01*
X121424069Y-113120033D01*
X121861802Y-112682300D01*
X125395764Y-117249465D02*
X125395764Y-117316808D01*
X125328420Y-117451495D01*
X125261077Y-117518839D01*
X125126389Y-117586183D01*
X124991702Y-117586183D01*
X124890687Y-117552511D01*
X124722329Y-117451496D01*
X124621313Y-117350480D01*
X124520298Y-117182121D01*
X124486626Y-117081106D01*
X124486626Y-116946419D01*
X124553970Y-116811732D01*
X124621313Y-116744388D01*
X124756000Y-116677045D01*
X124823344Y-116677045D01*
X125395764Y-115969938D02*
X125059046Y-116306656D01*
X125362091Y-116677045D01*
X125362091Y-116609702D01*
X125395763Y-116508686D01*
X125564122Y-116340327D01*
X125665137Y-116306655D01*
X125732481Y-116306655D01*
X125833497Y-116340328D01*
X126001855Y-116508686D01*
X126035527Y-116609702D01*
X126035527Y-116677045D01*
X126001855Y-116778060D01*
X125833496Y-116946419D01*
X125732481Y-116980091D01*
X125665137Y-116980091D01*
X140989316Y-109808812D02*
X141561736Y-110381232D01*
X141662751Y-110414904D01*
X141730094Y-110414904D01*
X141831109Y-110381232D01*
X141965797Y-110246544D01*
X141999469Y-110145529D01*
X141999469Y-110078186D01*
X141965797Y-109977171D01*
X141393377Y-109404751D01*
X142807591Y-109404751D02*
X142403529Y-109808812D01*
X142605560Y-109606782D02*
X141898453Y-108899675D01*
X141932125Y-109068034D01*
X141932125Y-109202720D01*
X141898453Y-109303736D01*
X137520198Y-109104144D02*
X137183480Y-109440862D01*
X136476373Y-108733755D01*
X138126290Y-108498053D02*
X137722228Y-108902114D01*
X137924259Y-108700084D02*
X137217152Y-107992977D01*
X137250824Y-108161336D01*
X137250824Y-108296022D01*
X137217152Y-108397038D01*
X133756584Y-102668457D02*
X134261661Y-103173534D01*
X134329004Y-103308221D01*
X134329004Y-103442908D01*
X134261660Y-103577595D01*
X134194317Y-103644939D01*
X134800408Y-103038847D02*
X134093302Y-102331740D01*
X134362676Y-102062366D01*
X134463691Y-102028694D01*
X134531035Y-102028694D01*
X134632050Y-102062366D01*
X134733065Y-102163381D01*
X134766737Y-102264396D01*
X134766737Y-102331739D01*
X134733065Y-102432755D01*
X134463691Y-102702129D01*
X135877905Y-101961351D02*
X135473843Y-102365412D01*
X135675874Y-102163382D02*
X134968767Y-101456275D01*
X135002439Y-101624633D01*
X135002439Y-101759320D01*
X134968767Y-101860335D01*
X145878587Y-110300288D02*
X145878587Y-110367631D01*
X145811243Y-110502318D01*
X145743900Y-110569662D01*
X145609212Y-110637006D01*
X145474525Y-110637006D01*
X145373510Y-110603334D01*
X145205152Y-110502319D01*
X145104136Y-110401303D01*
X145003121Y-110232944D01*
X144969449Y-110131929D01*
X144969449Y-109997242D01*
X145036793Y-109862555D01*
X145104136Y-109795211D01*
X145238823Y-109727868D01*
X145306167Y-109727868D01*
X145575540Y-109458494D02*
X145575540Y-109391151D01*
X145609212Y-109290136D01*
X145777571Y-109121776D01*
X145878587Y-109088105D01*
X145945930Y-109088105D01*
X146046945Y-109121776D01*
X146114289Y-109189120D01*
X146181632Y-109323807D01*
X146181632Y-110131929D01*
X146619365Y-109694196D01*
X140853480Y-110857597D02*
X140853480Y-110924940D01*
X140786136Y-111059627D01*
X140718793Y-111126971D01*
X140584105Y-111194315D01*
X140449418Y-111194315D01*
X140348403Y-111160643D01*
X140180045Y-111059628D01*
X140079029Y-110958612D01*
X139978014Y-110790253D01*
X139944342Y-110689238D01*
X139944342Y-110554551D01*
X140011686Y-110419864D01*
X140079029Y-110352520D01*
X140213716Y-110285177D01*
X140281060Y-110285177D01*
X141594258Y-110251505D02*
X141190197Y-110655567D01*
X141392227Y-110453536D02*
X140685120Y-109746430D01*
X140718792Y-109914788D01*
X140718792Y-110049475D01*
X140685120Y-110150490D01*
X114662333Y-119204390D02*
X115369440Y-118497283D01*
X115638815Y-118766657D01*
X115672486Y-118867673D01*
X115672486Y-118935016D01*
X115638815Y-119036031D01*
X115537799Y-119137046D01*
X115436784Y-119170718D01*
X115369441Y-119170718D01*
X115268426Y-119137046D01*
X114999051Y-118867672D01*
X115739830Y-120281886D02*
X115335768Y-119877825D01*
X115537799Y-120079855D02*
X116244905Y-119372748D01*
X116076547Y-119406420D01*
X115941860Y-119406420D01*
X115840845Y-119372748D01*
X133250381Y-88698095D02*
X132250381Y-88698095D01*
X132250381Y-88317142D01*
X132298000Y-88221904D01*
X132345619Y-88174285D01*
X132440857Y-88126666D01*
X132583714Y-88126666D01*
X132678952Y-88174285D01*
X132726571Y-88221904D01*
X132774190Y-88317142D01*
X132774190Y-88698095D01*
X132345619Y-87745714D02*
X132298000Y-87698095D01*
X132250381Y-87602857D01*
X132250381Y-87364761D01*
X132298000Y-87269523D01*
X132345619Y-87221904D01*
X132440857Y-87174285D01*
X132536095Y-87174285D01*
X132678952Y-87221904D01*
X133250381Y-87793333D01*
X133250381Y-87174285D01*
X125350143Y-64081666D02*
X125397762Y-64129285D01*
X125445381Y-64272142D01*
X125445381Y-64367380D01*
X125397762Y-64510238D01*
X125302524Y-64605476D01*
X125207286Y-64653095D01*
X125016810Y-64700714D01*
X124873952Y-64700714D01*
X124683476Y-64653095D01*
X124588238Y-64605476D01*
X124493000Y-64510238D01*
X124445381Y-64367380D01*
X124445381Y-64272142D01*
X124493000Y-64129285D01*
X124540619Y-64081666D01*
X124445381Y-63224523D02*
X124445381Y-63415000D01*
X124493000Y-63510238D01*
X124540619Y-63557857D01*
X124683476Y-63653095D01*
X124873952Y-63700714D01*
X125254905Y-63700714D01*
X125350143Y-63653095D01*
X125397762Y-63605476D01*
X125445381Y-63510238D01*
X125445381Y-63319761D01*
X125397762Y-63224523D01*
X125350143Y-63176904D01*
X125254905Y-63129285D01*
X125016810Y-63129285D01*
X124921571Y-63176904D01*
X124873952Y-63224523D01*
X124826333Y-63319761D01*
X124826333Y-63510238D01*
X124873952Y-63605476D01*
X124921571Y-63653095D01*
X125016810Y-63700714D01*
X122880381Y-62311666D02*
X122880381Y-62787857D01*
X121880381Y-62787857D01*
X121880381Y-62073571D02*
X121880381Y-61454523D01*
X122261333Y-61787857D01*
X122261333Y-61644999D01*
X122308952Y-61549761D01*
X122356571Y-61502142D01*
X122451810Y-61454523D01*
X122689905Y-61454523D01*
X122785143Y-61502142D01*
X122832762Y-61549761D01*
X122880381Y-61644999D01*
X122880381Y-61930714D01*
X122832762Y-62025952D01*
X122785143Y-62073571D01*
X132225381Y-67946905D02*
X133034905Y-67946905D01*
X133130143Y-67899286D01*
X133177762Y-67851667D01*
X133225381Y-67756429D01*
X133225381Y-67565952D01*
X133177762Y-67470714D01*
X133130143Y-67423095D01*
X133034905Y-67375476D01*
X132225381Y-67375476D01*
X132558714Y-66470714D02*
X133225381Y-66470714D01*
X132177762Y-66708810D02*
X132892048Y-66946905D01*
X132892048Y-66327857D01*
X129130143Y-63251666D02*
X129177762Y-63299285D01*
X129225381Y-63442142D01*
X129225381Y-63537380D01*
X129177762Y-63680238D01*
X129082524Y-63775476D01*
X128987286Y-63823095D01*
X128796810Y-63870714D01*
X128653952Y-63870714D01*
X128463476Y-63823095D01*
X128368238Y-63775476D01*
X128273000Y-63680238D01*
X128225381Y-63537380D01*
X128225381Y-63442142D01*
X128273000Y-63299285D01*
X128320619Y-63251666D01*
X128653952Y-62680238D02*
X128606333Y-62775476D01*
X128558714Y-62823095D01*
X128463476Y-62870714D01*
X128415857Y-62870714D01*
X128320619Y-62823095D01*
X128273000Y-62775476D01*
X128225381Y-62680238D01*
X128225381Y-62489761D01*
X128273000Y-62394523D01*
X128320619Y-62346904D01*
X128415857Y-62299285D01*
X128463476Y-62299285D01*
X128558714Y-62346904D01*
X128606333Y-62394523D01*
X128653952Y-62489761D01*
X128653952Y-62680238D01*
X128701571Y-62775476D01*
X128749190Y-62823095D01*
X128844429Y-62870714D01*
X129034905Y-62870714D01*
X129130143Y-62823095D01*
X129177762Y-62775476D01*
X129225381Y-62680238D01*
X129225381Y-62489761D01*
X129177762Y-62394523D01*
X129130143Y-62346904D01*
X129034905Y-62299285D01*
X128844429Y-62299285D01*
X128749190Y-62346904D01*
X128701571Y-62394523D01*
X128653952Y-62489761D01*
X134980143Y-61951666D02*
X135027762Y-61999285D01*
X135075381Y-62142142D01*
X135075381Y-62237380D01*
X135027762Y-62380238D01*
X134932524Y-62475476D01*
X134837286Y-62523095D01*
X134646810Y-62570714D01*
X134503952Y-62570714D01*
X134313476Y-62523095D01*
X134218238Y-62475476D01*
X134123000Y-62380238D01*
X134075381Y-62237380D01*
X134075381Y-62142142D01*
X134123000Y-61999285D01*
X134170619Y-61951666D01*
X135075381Y-61475476D02*
X135075381Y-61285000D01*
X135027762Y-61189761D01*
X134980143Y-61142142D01*
X134837286Y-61046904D01*
X134646810Y-60999285D01*
X134265857Y-60999285D01*
X134170619Y-61046904D01*
X134123000Y-61094523D01*
X134075381Y-61189761D01*
X134075381Y-61380238D01*
X134123000Y-61475476D01*
X134170619Y-61523095D01*
X134265857Y-61570714D01*
X134503952Y-61570714D01*
X134599190Y-61523095D01*
X134646810Y-61475476D01*
X134694429Y-61380238D01*
X134694429Y-61189761D01*
X134646810Y-61094523D01*
X134599190Y-61046904D01*
X134503952Y-60999285D01*
X125895143Y-67467857D02*
X125942762Y-67515476D01*
X125990381Y-67658333D01*
X125990381Y-67753571D01*
X125942762Y-67896429D01*
X125847524Y-67991667D01*
X125752286Y-68039286D01*
X125561810Y-68086905D01*
X125418952Y-68086905D01*
X125228476Y-68039286D01*
X125133238Y-67991667D01*
X125038000Y-67896429D01*
X124990381Y-67753571D01*
X124990381Y-67658333D01*
X125038000Y-67515476D01*
X125085619Y-67467857D01*
X125990381Y-66515476D02*
X125990381Y-67086905D01*
X125990381Y-66801191D02*
X124990381Y-66801191D01*
X125133238Y-66896429D01*
X125228476Y-66991667D01*
X125276095Y-67086905D01*
X124990381Y-65896429D02*
X124990381Y-65801190D01*
X125038000Y-65705952D01*
X125085619Y-65658333D01*
X125180857Y-65610714D01*
X125371333Y-65563095D01*
X125609429Y-65563095D01*
X125799905Y-65610714D01*
X125895143Y-65658333D01*
X125942762Y-65705952D01*
X125990381Y-65801190D01*
X125990381Y-65896429D01*
X125942762Y-65991667D01*
X125895143Y-66039286D01*
X125799905Y-66086905D01*
X125609429Y-66134524D01*
X125371333Y-66134524D01*
X125180857Y-66086905D01*
X125085619Y-66039286D01*
X125038000Y-65991667D01*
X124990381Y-65896429D01*
X123886334Y-60007381D02*
X123410143Y-60007381D01*
X123410143Y-59007381D01*
X124172048Y-59102619D02*
X124219667Y-59055000D01*
X124314905Y-59007381D01*
X124553001Y-59007381D01*
X124648239Y-59055000D01*
X124695858Y-59102619D01*
X124743477Y-59197857D01*
X124743477Y-59293095D01*
X124695858Y-59435952D01*
X124124429Y-60007381D01*
X124743477Y-60007381D01*
X128325381Y-77951666D02*
X127849190Y-78285000D01*
X128325381Y-78523095D02*
X127325381Y-78523095D01*
X127325381Y-78142142D01*
X127373000Y-78046904D01*
X127420619Y-77999285D01*
X127515857Y-77951666D01*
X127658714Y-77951666D01*
X127753952Y-77999285D01*
X127801571Y-78046904D01*
X127849190Y-78142142D01*
X127849190Y-78523095D01*
X127420619Y-77570714D02*
X127373000Y-77523095D01*
X127325381Y-77427857D01*
X127325381Y-77189761D01*
X127373000Y-77094523D01*
X127420619Y-77046904D01*
X127515857Y-76999285D01*
X127611095Y-76999285D01*
X127753952Y-77046904D01*
X128325381Y-77618333D01*
X128325381Y-76999285D01*
X127468334Y-59253381D02*
X127135000Y-58777190D01*
X126896905Y-59253381D02*
X126896905Y-58253381D01*
X127277858Y-58253381D01*
X127373096Y-58301000D01*
X127420715Y-58348619D01*
X127468334Y-58443857D01*
X127468334Y-58586714D01*
X127420715Y-58681952D01*
X127373096Y-58729571D01*
X127277858Y-58777190D01*
X126896905Y-58777190D01*
X127801667Y-58253381D02*
X128420715Y-58253381D01*
X128087381Y-58634333D01*
X128230239Y-58634333D01*
X128325477Y-58681952D01*
X128373096Y-58729571D01*
X128420715Y-58824810D01*
X128420715Y-59062905D01*
X128373096Y-59158143D01*
X128325477Y-59205762D01*
X128230239Y-59253381D01*
X127944524Y-59253381D01*
X127849286Y-59205762D01*
X127801667Y-59158143D01*
X129725381Y-77951666D02*
X129249190Y-78285000D01*
X129725381Y-78523095D02*
X128725381Y-78523095D01*
X128725381Y-78142142D01*
X128773000Y-78046904D01*
X128820619Y-77999285D01*
X128915857Y-77951666D01*
X129058714Y-77951666D01*
X129153952Y-77999285D01*
X129201571Y-78046904D01*
X129249190Y-78142142D01*
X129249190Y-78523095D01*
X129058714Y-77094523D02*
X129725381Y-77094523D01*
X128677762Y-77332619D02*
X129392048Y-77570714D01*
X129392048Y-76951666D01*
X131125381Y-77951666D02*
X130649190Y-78285000D01*
X131125381Y-78523095D02*
X130125381Y-78523095D01*
X130125381Y-78142142D01*
X130173000Y-78046904D01*
X130220619Y-77999285D01*
X130315857Y-77951666D01*
X130458714Y-77951666D01*
X130553952Y-77999285D01*
X130601571Y-78046904D01*
X130649190Y-78142142D01*
X130649190Y-78523095D01*
X130125381Y-77046904D02*
X130125381Y-77523095D01*
X130601571Y-77570714D01*
X130553952Y-77523095D01*
X130506333Y-77427857D01*
X130506333Y-77189761D01*
X130553952Y-77094523D01*
X130601571Y-77046904D01*
X130696810Y-76999285D01*
X130934905Y-76999285D01*
X131030143Y-77046904D01*
X131077762Y-77094523D01*
X131125381Y-77189761D01*
X131125381Y-77427857D01*
X131077762Y-77523095D01*
X131030143Y-77570714D01*
X128525381Y-67746905D02*
X129334905Y-67746905D01*
X129430143Y-67699286D01*
X129477762Y-67651667D01*
X129525381Y-67556429D01*
X129525381Y-67365952D01*
X129477762Y-67270714D01*
X129430143Y-67223095D01*
X129334905Y-67175476D01*
X128525381Y-67175476D01*
X128525381Y-66794524D02*
X128525381Y-66175476D01*
X128906333Y-66508810D01*
X128906333Y-66365952D01*
X128953952Y-66270714D01*
X129001571Y-66223095D01*
X129096810Y-66175476D01*
X129334905Y-66175476D01*
X129430143Y-66223095D01*
X129477762Y-66270714D01*
X129525381Y-66365952D01*
X129525381Y-66651667D01*
X129477762Y-66746905D01*
X129430143Y-66794524D01*
X132500381Y-62969524D02*
X133500381Y-62302857D01*
X132500381Y-62302857D02*
X133500381Y-62969524D01*
X133500381Y-61398095D02*
X133500381Y-61969524D01*
X133500381Y-61683810D02*
X132500381Y-61683810D01*
X132643238Y-61779048D01*
X132738476Y-61874286D01*
X132786095Y-61969524D01*
X123250381Y-82623095D02*
X122250381Y-82623095D01*
X122250381Y-82242142D01*
X122298000Y-82146904D01*
X122345619Y-82099285D01*
X122440857Y-82051666D01*
X122583714Y-82051666D01*
X122678952Y-82099285D01*
X122726571Y-82146904D01*
X122774190Y-82242142D01*
X122774190Y-82623095D01*
X122250381Y-81718333D02*
X122250381Y-81099285D01*
X122631333Y-81432619D01*
X122631333Y-81289761D01*
X122678952Y-81194523D01*
X122726571Y-81146904D01*
X122821810Y-81099285D01*
X123059905Y-81099285D01*
X123155143Y-81146904D01*
X123202762Y-81194523D01*
X123250381Y-81289761D01*
X123250381Y-81575476D01*
X123202762Y-81670714D01*
X123155143Y-81718333D01*
X134135961Y-104236215D02*
X134843068Y-103529108D01*
X135112443Y-103798482D01*
X135146114Y-103899498D01*
X135146114Y-103966841D01*
X135112443Y-104067856D01*
X135011427Y-104168871D01*
X134910412Y-104202543D01*
X134843069Y-104202543D01*
X134742054Y-104168871D01*
X134472679Y-103899497D01*
X135853221Y-104539261D02*
X135718533Y-104404573D01*
X135617518Y-104370902D01*
X135550175Y-104370902D01*
X135381816Y-104404573D01*
X135213458Y-104505588D01*
X134944083Y-104774963D01*
X134910412Y-104875978D01*
X134910412Y-104943321D01*
X134944083Y-105044337D01*
X135078771Y-105179024D01*
X135179786Y-105212696D01*
X135247129Y-105212696D01*
X135348145Y-105179024D01*
X135516503Y-105010666D01*
X135550176Y-104909650D01*
X135550176Y-104842306D01*
X135516504Y-104741291D01*
X135381816Y-104606604D01*
X135280801Y-104572932D01*
X135213458Y-104572932D01*
X135112442Y-104606604D01*
X140178451Y-90933725D02*
X140885558Y-90226618D01*
X141154933Y-90495992D01*
X141188604Y-90597008D01*
X141188604Y-90664351D01*
X141154933Y-90765366D01*
X141053917Y-90866381D01*
X140952902Y-90900053D01*
X140885559Y-90900053D01*
X140784544Y-90866381D01*
X140515169Y-90597007D01*
X141525321Y-90866381D02*
X141996726Y-91337786D01*
X140986573Y-91741847D01*
M02*
