G04 #@! TF.FileFunction,Copper,L2,Bot,Signal*
%FSLAX46Y46*%
G04 Gerber Fmt 4.6, Leading zero omitted, Abs format (unit mm)*
G04 Created by KiCad (PCBNEW (2015-11-24 BZR 6329)-product) date Wed 28 Sep 2016 12:51:07 PM EDT*
%MOMM*%
G01*
G04 APERTURE LIST*
%ADD10C,0.100000*%
%ADD11R,1.727200X2.032000*%
%ADD12O,1.727200X2.032000*%
%ADD13C,2.200000*%
%ADD14R,1.727200X1.727200*%
%ADD15O,1.727200X1.727200*%
%ADD16C,1.422400*%
%ADD17C,2.032000*%
%ADD18C,1.501140*%
%ADD19C,2.999740*%
%ADD20C,1.200000*%
%ADD21R,2.032000X1.727200*%
%ADD22O,2.032000X1.727200*%
%ADD23C,1.727200*%
%ADD24C,0.600000*%
%ADD25C,0.250000*%
%ADD26C,0.700000*%
%ADD27C,0.254000*%
G04 APERTURE END LIST*
D10*
D11*
X156273000Y-98403000D03*
D12*
X153733000Y-98403000D03*
X151193000Y-98403000D03*
D13*
X178873000Y-112103000D03*
X178873000Y-97103000D03*
D14*
X148373000Y-108403000D03*
D15*
X148373000Y-110943000D03*
X150913000Y-108403000D03*
X150913000Y-110943000D03*
X153453000Y-108403000D03*
X153453000Y-110943000D03*
X155993000Y-108403000D03*
X155993000Y-110943000D03*
D16*
X129540000Y-108712000D03*
X125947898Y-105119898D03*
D10*
G36*
X133516841Y-104394000D02*
X132080000Y-105830841D01*
X130643159Y-104394000D01*
X132080000Y-102957159D01*
X133516841Y-104394000D01*
X133516841Y-104394000D01*
G37*
D17*
X130283949Y-102597949D02*
X130283949Y-102597949D01*
D18*
X114570746Y-115489049D03*
X116338513Y-117256816D03*
X117759797Y-118678100D03*
X119520493Y-120438796D03*
D19*
X111424120Y-115312272D03*
X119697270Y-123585421D03*
D20*
X113969705Y-117857856D03*
X117151685Y-121039837D03*
D14*
X135073000Y-87085000D03*
D15*
X137613000Y-87085000D03*
X135073000Y-84545000D03*
X137613000Y-84545000D03*
X135073000Y-82005000D03*
X137613000Y-82005000D03*
X135073000Y-79465000D03*
X137613000Y-79465000D03*
D13*
X123773000Y-56585000D03*
X138773000Y-56585000D03*
D21*
X125073000Y-79185000D03*
D22*
X125073000Y-81725000D03*
X125073000Y-84265000D03*
D10*
G36*
X139913078Y-100724237D02*
X138476237Y-102161078D01*
X137254922Y-100939763D01*
X138691763Y-99502922D01*
X139913078Y-100724237D01*
X139913078Y-100724237D01*
G37*
D23*
X136680186Y-99143712D02*
X136895712Y-98928186D01*
X134884135Y-97347661D02*
X135099661Y-97132135D01*
D10*
G36*
X136084922Y-94849763D02*
X137521763Y-93412922D01*
X138743078Y-94634237D01*
X137306237Y-96071078D01*
X136084922Y-94849763D01*
X136084922Y-94849763D01*
G37*
D23*
X139317814Y-96430288D02*
X139102288Y-96645814D01*
X141113865Y-98226339D02*
X140898339Y-98441865D01*
D24*
X162673000Y-102153000D03*
X143002000Y-102616000D03*
X158750000Y-98298000D03*
X125984000Y-93980000D03*
X128823000Y-72785000D03*
X125222000Y-76454000D03*
X174473000Y-106178000D03*
X176276000Y-108458000D03*
X135128000Y-59690000D03*
X169335500Y-101540500D03*
X160198000Y-102978000D03*
X167610500Y-103265500D03*
X175523000Y-100928000D03*
X166878000Y-96774000D03*
X174603000Y-96483000D03*
X123153000Y-60855000D03*
X123444000Y-68580000D03*
X127598000Y-59935000D03*
X129935500Y-67847500D03*
X129648000Y-75260000D03*
X128210500Y-66122500D03*
X132848000Y-60985000D03*
X172743000Y-100423000D03*
X169203000Y-96633000D03*
X123303000Y-66255000D03*
X127093000Y-62715000D03*
X140716000Y-107696000D03*
X164743000Y-98113000D03*
X171473000Y-107103000D03*
X171873000Y-101853000D03*
X164084000Y-106172000D03*
X132842000Y-71374000D03*
X128523000Y-63585000D03*
X133773000Y-63985000D03*
X124783000Y-70715000D03*
X121920000Y-112522000D03*
X121666000Y-110998000D03*
X132844000Y-58575000D03*
X125144000Y-119922000D03*
X163748000Y-98128000D03*
X154432000Y-102362000D03*
X154073000Y-100753000D03*
X155123000Y-100853000D03*
X155194000Y-102870000D03*
X161163000Y-105283000D03*
X127183000Y-63585000D03*
X127483000Y-74015000D03*
X176883000Y-106162000D03*
X124798000Y-71710000D03*
X127423000Y-81385000D03*
X129032000Y-81026000D03*
X129540000Y-80264000D03*
X127523000Y-80335000D03*
X131953000Y-74295000D03*
X138684000Y-91948000D03*
X131573000Y-62935000D03*
X133604000Y-102870000D03*
X172523000Y-104903000D03*
X130473000Y-62985000D03*
X172473000Y-103803000D03*
X137668000Y-108712000D03*
X139446000Y-102870000D03*
X164044000Y-100662000D03*
X129540000Y-93472000D03*
X122936000Y-90424000D03*
X127000000Y-70612000D03*
X123952000Y-89154000D03*
X125044000Y-92462000D03*
X126444000Y-71362000D03*
X165044000Y-100362000D03*
X161443000Y-100813000D03*
X171873000Y-100513000D03*
X138430000Y-74676000D03*
X131572000Y-71882000D03*
X163034000Y-105272000D03*
X148474000Y-98942000D03*
X137668000Y-67310000D03*
X132969000Y-68453000D03*
X134273000Y-68085000D03*
X136573000Y-68085000D03*
X133073000Y-66585000D03*
X136673000Y-66385000D03*
X133473000Y-62885000D03*
X137922000Y-61722000D03*
X167005000Y-106299000D03*
X168148000Y-110998000D03*
X167373000Y-109903000D03*
X167373000Y-107603000D03*
X169073000Y-110003000D03*
X168873000Y-106403000D03*
X173736000Y-111252000D03*
X172573000Y-106803000D03*
D25*
X137668000Y-104648000D02*
X125984000Y-92964000D01*
X162673000Y-102153000D02*
X162120000Y-101600000D01*
X140970000Y-104648000D02*
X140462000Y-104648000D01*
X143002000Y-102616000D02*
X140970000Y-104648000D01*
X158750000Y-99314000D02*
X158750000Y-98298000D01*
X161036000Y-101600000D02*
X158750000Y-99314000D01*
X162120000Y-101600000D02*
X161036000Y-101600000D01*
X140462000Y-104648000D02*
X137668000Y-104648000D01*
X125984000Y-93980000D02*
X125984000Y-92964000D01*
X128823000Y-72785000D02*
X128823000Y-74885000D01*
X127254000Y-76454000D02*
X125222000Y-76454000D01*
X128823000Y-74885000D02*
X127254000Y-76454000D01*
X174473000Y-106178000D02*
X176276000Y-107981000D01*
X176276000Y-107981000D02*
X176276000Y-108458000D01*
X169203000Y-96633000D02*
X169203000Y-96883000D01*
X169203000Y-96883000D02*
X172743000Y-100423000D01*
X127093000Y-62715000D02*
X126091000Y-62715000D01*
X123303000Y-65503000D02*
X123303000Y-66255000D01*
X126091000Y-62715000D02*
X123303000Y-65503000D01*
X135128000Y-107696000D02*
X132080000Y-104648000D01*
X140716000Y-107696000D02*
X135128000Y-107696000D01*
X132080000Y-104648000D02*
X132080000Y-104394000D01*
X171473000Y-102253000D02*
X171873000Y-101853000D01*
X171473000Y-107103000D02*
X171473000Y-102253000D01*
X171365000Y-107103000D02*
X169672000Y-105410000D01*
X169672000Y-105410000D02*
X164846000Y-105410000D01*
X164846000Y-105410000D02*
X164084000Y-106172000D01*
X171473000Y-107103000D02*
X171365000Y-107103000D01*
X133773000Y-63985000D02*
X133773000Y-64093000D01*
X132080000Y-70612000D02*
X132842000Y-71374000D01*
X132080000Y-65786000D02*
X132080000Y-70612000D01*
X133773000Y-64093000D02*
X132080000Y-65786000D01*
X133773000Y-63985000D02*
X128923000Y-63985000D01*
X128923000Y-63985000D02*
X128523000Y-63585000D01*
X116338513Y-117256816D02*
X121073329Y-112522000D01*
X121073329Y-112522000D02*
X121920000Y-112522000D01*
X117759797Y-118678100D02*
X123190000Y-113247897D01*
X123190000Y-112522000D02*
X121666000Y-110998000D01*
X123190000Y-113247897D02*
X123190000Y-112522000D01*
D26*
X132844000Y-58575000D02*
X132844000Y-58562000D01*
D25*
X130283949Y-102597949D02*
X130283949Y-105921949D01*
X131434000Y-113632000D02*
X125144000Y-119922000D01*
X131434000Y-107072000D02*
X131434000Y-113632000D01*
X130283949Y-105921949D02*
X131434000Y-107072000D01*
X148844000Y-96774000D02*
X148590000Y-96774000D01*
X163748000Y-98128000D02*
X159850000Y-98128000D01*
X147320000Y-104810000D02*
X150913000Y-108403000D01*
X147320000Y-98044000D02*
X147320000Y-104810000D01*
X158242000Y-96774000D02*
X148844000Y-96774000D01*
X159850000Y-98128000D02*
X158242000Y-96774000D01*
X148590000Y-96774000D02*
X147320000Y-98044000D01*
X154073000Y-102003000D02*
X154432000Y-102362000D01*
X154073000Y-100753000D02*
X154073000Y-102003000D01*
X155123000Y-100853000D02*
X155123000Y-102799000D01*
X155123000Y-102799000D02*
X155194000Y-102870000D01*
X152908000Y-99228000D02*
X152908000Y-101600000D01*
X152908000Y-101600000D02*
X152908000Y-101854000D01*
X152908000Y-101854000D02*
X156337000Y-105283000D01*
X156337000Y-105283000D02*
X161163000Y-105283000D01*
X153733000Y-98403000D02*
X152908000Y-99228000D01*
X127483000Y-74015000D02*
X127483000Y-72923000D01*
X126238000Y-64530000D02*
X127183000Y-63585000D01*
X126238000Y-67818000D02*
X126238000Y-64530000D01*
X128270000Y-69850000D02*
X126238000Y-67818000D01*
X128270000Y-72136000D02*
X128270000Y-69850000D01*
X127483000Y-72923000D02*
X128270000Y-72136000D01*
X176883000Y-106162000D02*
X176844000Y-106162000D01*
X131526000Y-88092000D02*
X124922000Y-88092000D01*
X124798000Y-75608000D02*
X123444000Y-77216000D01*
X123444000Y-77216000D02*
X123444000Y-86614000D01*
X124798000Y-71710000D02*
X124798000Y-75608000D01*
X124922000Y-88092000D02*
X123444000Y-86614000D01*
X131526000Y-88092000D02*
X135073000Y-84545000D01*
X127423000Y-81385000D02*
X128673000Y-81385000D01*
X128673000Y-81385000D02*
X129032000Y-81026000D01*
X129469000Y-80335000D02*
X129540000Y-80264000D01*
X127523000Y-80335000D02*
X129469000Y-80335000D01*
X125073000Y-81725000D02*
X125898000Y-82550000D01*
X131953000Y-79121000D02*
X131953000Y-74295000D01*
X128524000Y-82550000D02*
X131953000Y-79121000D01*
X128270000Y-82550000D02*
X128524000Y-82550000D01*
X125898000Y-82550000D02*
X128270000Y-82550000D01*
X139700000Y-61468000D02*
X139700000Y-90932000D01*
X139700000Y-90932000D02*
X138684000Y-91948000D01*
X131883000Y-62935000D02*
X134366000Y-60452000D01*
X134366000Y-60452000D02*
X138684000Y-60452000D01*
X131573000Y-62935000D02*
X131883000Y-62935000D01*
X138684000Y-60452000D02*
X139700000Y-61468000D01*
X141436000Y-106934000D02*
X137668000Y-106934000D01*
X137668000Y-106934000D02*
X133604000Y-102870000D01*
X141986000Y-107484000D02*
X147335998Y-112833998D01*
X175514000Y-112325998D02*
X175006000Y-112833998D01*
X175006000Y-112833998D02*
X147335998Y-112833998D01*
X172523000Y-105213000D02*
X175514000Y-108204000D01*
X172523000Y-104903000D02*
X172523000Y-105213000D01*
X175514000Y-108204000D02*
X175514000Y-112325998D01*
X141986000Y-107484000D02*
X141436000Y-106934000D01*
X140208000Y-60198000D02*
X138938000Y-58928000D01*
X140208000Y-90678000D02*
X140208000Y-91948000D01*
X130473000Y-61551000D02*
X132588000Y-59436000D01*
X140208000Y-60198000D02*
X140208000Y-90678000D01*
X130473000Y-62985000D02*
X130473000Y-61551000D01*
X140208000Y-91948000D02*
X137414000Y-94742000D01*
X132588000Y-59436000D02*
X133350000Y-59436000D01*
X133858000Y-58928000D02*
X133350000Y-59436000D01*
X134112000Y-58928000D02*
X133858000Y-58928000D01*
X138938000Y-58928000D02*
X134112000Y-58928000D01*
X141006102Y-98334102D02*
X141986000Y-99314000D01*
X177038000Y-112014000D02*
X175768000Y-113284000D01*
X175768000Y-113284000D02*
X143510000Y-113284000D01*
X176022000Y-105918000D02*
X176022000Y-106680000D01*
X176022000Y-106680000D02*
X176022000Y-106934000D01*
X176022000Y-106934000D02*
X177038000Y-107950000D01*
X172473000Y-103803000D02*
X173907000Y-103803000D01*
X173907000Y-103803000D02*
X176022000Y-105918000D01*
X177038000Y-107950000D02*
X177038000Y-112014000D01*
X142240000Y-113284000D02*
X143510000Y-113284000D01*
X137668000Y-108712000D02*
X142240000Y-113284000D01*
X141986000Y-100330000D02*
X139446000Y-102870000D01*
X141986000Y-99314000D02*
X141986000Y-100330000D01*
X166116000Y-99762000D02*
X166116000Y-100290000D01*
X164444000Y-101062000D02*
X164044000Y-100662000D01*
X165344000Y-101062000D02*
X164444000Y-101062000D01*
X166116000Y-100290000D02*
X165344000Y-101062000D01*
X130110801Y-95695199D02*
X129540000Y-95124398D01*
X129540000Y-95124398D02*
X129540000Y-93472000D01*
X123698000Y-69342000D02*
X122428000Y-70612000D01*
X122428000Y-70612000D02*
X122428000Y-89916000D01*
X122936000Y-90424000D02*
X122428000Y-89916000D01*
X127000000Y-69850000D02*
X126492000Y-69342000D01*
X126492000Y-69342000D02*
X123698000Y-69342000D01*
X127000000Y-70612000D02*
X127000000Y-69850000D01*
X123952000Y-89536398D02*
X123952000Y-89154000D01*
X140208000Y-103689998D02*
X138105600Y-103689998D01*
X138105600Y-103689998D02*
X130110801Y-95695199D01*
X130110801Y-95695199D02*
X123952000Y-89536398D01*
X149352000Y-95758000D02*
X148139998Y-95758000D01*
X164846000Y-95758000D02*
X149352000Y-95758000D01*
X148139998Y-95758000D02*
X140208000Y-103689998D01*
X166116000Y-97028000D02*
X164846000Y-95758000D01*
X166116000Y-99822000D02*
X166116000Y-99762000D01*
X166116000Y-99762000D02*
X166116000Y-97028000D01*
X125044000Y-91297998D02*
X125044000Y-92462000D01*
X124676001Y-90929999D02*
X125044000Y-91297998D01*
X158044000Y-96262000D02*
X164665998Y-96262000D01*
X148344000Y-96262000D02*
X158044000Y-96262000D01*
X140444000Y-104162000D02*
X148344000Y-96262000D01*
X137908002Y-104162000D02*
X140444000Y-104162000D01*
X122944000Y-89197998D02*
X124676001Y-90929999D01*
X124676001Y-90929999D02*
X137908002Y-104162000D01*
X122944000Y-70762000D02*
X122944000Y-89197998D01*
X123913998Y-69792002D02*
X122944000Y-70762000D01*
X124974002Y-69792002D02*
X123913998Y-69792002D01*
X126144000Y-70962000D02*
X124974002Y-69792002D01*
X126444000Y-70962000D02*
X126144000Y-70962000D01*
X126444000Y-71362000D02*
X126444000Y-70962000D01*
X165544000Y-99862000D02*
X165044000Y-100362000D01*
X165544000Y-97140002D02*
X165544000Y-99862000D01*
X164665998Y-96262000D02*
X165544000Y-97140002D01*
X162535000Y-100813000D02*
X163322000Y-101600000D01*
X163322000Y-101600000D02*
X165608000Y-101600000D01*
X165608000Y-101600000D02*
X167640000Y-99568000D01*
X167640000Y-99568000D02*
X170928000Y-99568000D01*
X170928000Y-99568000D02*
X171873000Y-100513000D01*
X161443000Y-100813000D02*
X162535000Y-100813000D01*
X132842000Y-73152000D02*
X131572000Y-71882000D01*
X136906000Y-73152000D02*
X132842000Y-73152000D01*
X138430000Y-74676000D02*
X136906000Y-73152000D01*
X163034000Y-105272000D02*
X161964000Y-106342000D01*
X161964000Y-106342000D02*
X155874000Y-106342000D01*
X155874000Y-106342000D02*
X148474000Y-98942000D01*
X137668000Y-67310000D02*
X133604000Y-67310000D01*
X133604000Y-67310000D02*
X132969000Y-67945000D01*
X132969000Y-67945000D02*
X132969000Y-68453000D01*
X136573000Y-68085000D02*
X134273000Y-68085000D01*
X136673000Y-66385000D02*
X136473000Y-66585000D01*
X136473000Y-66585000D02*
X133073000Y-66585000D01*
X133473000Y-62885000D02*
X136759000Y-62885000D01*
X136759000Y-62885000D02*
X137922000Y-61722000D01*
X137812000Y-61612000D02*
X137922000Y-61722000D01*
X167513000Y-106299000D02*
X167005000Y-106299000D01*
X168148000Y-106934000D02*
X167513000Y-106299000D01*
X168148000Y-110998000D02*
X168148000Y-106934000D01*
X167373000Y-109903000D02*
X167373000Y-107603000D01*
X168873000Y-109803000D02*
X168873000Y-106403000D01*
X169073000Y-110003000D02*
X168873000Y-109803000D01*
X173846000Y-111142000D02*
X173736000Y-111252000D01*
X172573000Y-110089000D02*
X173736000Y-111252000D01*
X172573000Y-106803000D02*
X172573000Y-110089000D01*
D27*
G36*
X124538000Y-91507590D02*
X124538000Y-92004877D01*
X124467013Y-92075741D01*
X124363118Y-92325946D01*
X124362882Y-92596865D01*
X124466339Y-92847252D01*
X124657741Y-93038987D01*
X124907946Y-93142882D01*
X125178865Y-93143118D01*
X125429252Y-93039661D01*
X125478000Y-92990998D01*
X125478000Y-93522877D01*
X125407013Y-93593741D01*
X125303118Y-93843946D01*
X125302882Y-94114865D01*
X125406339Y-94365252D01*
X125597741Y-94556987D01*
X125847946Y-94660882D01*
X126118865Y-94661118D01*
X126369252Y-94557661D01*
X126560987Y-94366259D01*
X126593168Y-94288760D01*
X137310204Y-105005796D01*
X137474362Y-105115483D01*
X137668000Y-105154000D01*
X140970000Y-105154000D01*
X141163638Y-105115483D01*
X141327796Y-105005796D01*
X143036561Y-103297031D01*
X143136865Y-103297118D01*
X143387252Y-103193661D01*
X143578987Y-103002259D01*
X143682882Y-102752054D01*
X143683118Y-102481135D01*
X143579661Y-102230748D01*
X143388259Y-102039013D01*
X143313586Y-102008006D01*
X146814000Y-98507592D01*
X146814000Y-104810000D01*
X146852517Y-105003638D01*
X146962204Y-105167796D01*
X148945344Y-107150936D01*
X147509400Y-107150936D01*
X147368210Y-107177503D01*
X147238535Y-107260946D01*
X147151541Y-107388266D01*
X147120936Y-107539400D01*
X147120936Y-109266600D01*
X147147503Y-109407790D01*
X147230946Y-109537465D01*
X147358266Y-109624459D01*
X147509400Y-109655064D01*
X149236600Y-109655064D01*
X149377790Y-109628497D01*
X149507465Y-109545054D01*
X149594459Y-109417734D01*
X149625064Y-109266600D01*
X149625064Y-107830656D01*
X149735831Y-107941423D01*
X149644017Y-108403000D01*
X149738757Y-108879288D01*
X150008552Y-109283065D01*
X150412329Y-109552860D01*
X150888617Y-109647600D01*
X150937383Y-109647600D01*
X151413671Y-109552860D01*
X151817448Y-109283065D01*
X152087243Y-108879288D01*
X152181983Y-108403000D01*
X152184017Y-108403000D01*
X152278757Y-108879288D01*
X152548552Y-109283065D01*
X152952329Y-109552860D01*
X153428617Y-109647600D01*
X153477383Y-109647600D01*
X153953671Y-109552860D01*
X154357448Y-109283065D01*
X154627243Y-108879288D01*
X154721983Y-108403000D01*
X154724017Y-108403000D01*
X154818757Y-108879288D01*
X155088552Y-109283065D01*
X155492329Y-109552860D01*
X155968617Y-109647600D01*
X156017383Y-109647600D01*
X156493671Y-109552860D01*
X156897448Y-109283065D01*
X157167243Y-108879288D01*
X157261983Y-108403000D01*
X157167243Y-107926712D01*
X156897448Y-107522935D01*
X156493671Y-107253140D01*
X156017383Y-107158400D01*
X155968617Y-107158400D01*
X155492329Y-107253140D01*
X155088552Y-107522935D01*
X154818757Y-107926712D01*
X154724017Y-108403000D01*
X154721983Y-108403000D01*
X154627243Y-107926712D01*
X154357448Y-107522935D01*
X153953671Y-107253140D01*
X153477383Y-107158400D01*
X153428617Y-107158400D01*
X152952329Y-107253140D01*
X152548552Y-107522935D01*
X152278757Y-107926712D01*
X152184017Y-108403000D01*
X152181983Y-108403000D01*
X152087243Y-107926712D01*
X151817448Y-107522935D01*
X151413671Y-107253140D01*
X150937383Y-107158400D01*
X150888617Y-107158400D01*
X150467715Y-107242123D01*
X147826000Y-104600408D01*
X147826000Y-99157017D01*
X147896339Y-99327252D01*
X148087741Y-99518987D01*
X148337946Y-99622882D01*
X148439378Y-99622970D01*
X155516204Y-106699796D01*
X155680362Y-106809483D01*
X155874000Y-106848000D01*
X161964000Y-106848000D01*
X162157638Y-106809483D01*
X162321796Y-106699796D01*
X163068561Y-105953031D01*
X163168865Y-105953118D01*
X163419252Y-105849661D01*
X163610987Y-105658259D01*
X163714882Y-105408054D01*
X163715118Y-105137135D01*
X163611661Y-104886748D01*
X163420259Y-104695013D01*
X163170054Y-104591118D01*
X162899135Y-104590882D01*
X162648748Y-104694339D01*
X162457013Y-104885741D01*
X162353118Y-105135946D01*
X162353030Y-105237378D01*
X161754408Y-105836000D01*
X161572956Y-105836000D01*
X161739987Y-105669259D01*
X161843882Y-105419054D01*
X161844118Y-105148135D01*
X161740661Y-104897748D01*
X161549259Y-104706013D01*
X161299054Y-104602118D01*
X161028135Y-104601882D01*
X160777748Y-104705339D01*
X160705962Y-104777000D01*
X156546592Y-104777000D01*
X155320703Y-103551111D01*
X155328865Y-103551118D01*
X155579252Y-103447661D01*
X155770987Y-103256259D01*
X155874882Y-103006054D01*
X155875118Y-102735135D01*
X155771661Y-102484748D01*
X155629000Y-102341839D01*
X155629000Y-101310123D01*
X155699987Y-101239259D01*
X155803882Y-100989054D01*
X155804118Y-100718135D01*
X155700661Y-100467748D01*
X155509259Y-100276013D01*
X155259054Y-100172118D01*
X154988135Y-100171882D01*
X154737748Y-100275339D01*
X154647924Y-100365007D01*
X154459259Y-100176013D01*
X154209054Y-100072118D01*
X153938135Y-100071882D01*
X153687748Y-100175339D01*
X153496013Y-100366741D01*
X153414000Y-100564249D01*
X153414000Y-99763916D01*
X153733000Y-99827369D01*
X154209288Y-99732629D01*
X154613065Y-99462834D01*
X154882860Y-99059057D01*
X154969149Y-98625250D01*
X155028400Y-98625250D01*
X155028400Y-99494785D01*
X155086404Y-99634819D01*
X155193580Y-99741996D01*
X155333614Y-99800000D01*
X156050750Y-99800000D01*
X156146000Y-99704750D01*
X156146000Y-98530000D01*
X156400000Y-98530000D01*
X156400000Y-99704750D01*
X156495250Y-99800000D01*
X157212386Y-99800000D01*
X157352420Y-99741996D01*
X157459596Y-99634819D01*
X157517600Y-99494785D01*
X157517600Y-98625250D01*
X157422350Y-98530000D01*
X156400000Y-98530000D01*
X156146000Y-98530000D01*
X155123650Y-98530000D01*
X155028400Y-98625250D01*
X154969149Y-98625250D01*
X154977600Y-98582769D01*
X154977600Y-98223231D01*
X154882860Y-97746943D01*
X154613065Y-97343166D01*
X154518530Y-97280000D01*
X155041330Y-97280000D01*
X155028400Y-97311215D01*
X155028400Y-98180750D01*
X155123650Y-98276000D01*
X156146000Y-98276000D01*
X156146000Y-98256000D01*
X156400000Y-98256000D01*
X156400000Y-98276000D01*
X157422350Y-98276000D01*
X157517600Y-98180750D01*
X157517600Y-97311215D01*
X157504670Y-97280000D01*
X158057337Y-97280000D01*
X158509332Y-97660598D01*
X158364748Y-97720339D01*
X158173013Y-97911741D01*
X158069118Y-98161946D01*
X158068882Y-98432865D01*
X158172339Y-98683252D01*
X158244000Y-98755038D01*
X158244000Y-99314000D01*
X158282517Y-99507638D01*
X158392204Y-99671796D01*
X160678204Y-101957796D01*
X160842362Y-102067483D01*
X161036000Y-102106000D01*
X161910408Y-102106000D01*
X161991969Y-102187561D01*
X161991882Y-102287865D01*
X162095339Y-102538252D01*
X162286741Y-102729987D01*
X162536946Y-102833882D01*
X162807865Y-102834118D01*
X163058252Y-102730661D01*
X163249987Y-102539259D01*
X163353882Y-102289054D01*
X163354041Y-102106000D01*
X165608000Y-102106000D01*
X165801638Y-102067483D01*
X165965796Y-101957796D01*
X167849592Y-100074000D01*
X170718408Y-100074000D01*
X171191969Y-100547561D01*
X171191882Y-100647865D01*
X171295339Y-100898252D01*
X171486741Y-101089987D01*
X171710983Y-101183101D01*
X171487748Y-101275339D01*
X171296013Y-101466741D01*
X171192118Y-101716946D01*
X171192030Y-101818378D01*
X171115204Y-101895204D01*
X171005517Y-102059362D01*
X170967000Y-102253000D01*
X170967000Y-105989408D01*
X170029796Y-105052204D01*
X169865638Y-104942517D01*
X169672000Y-104904000D01*
X164846000Y-104904000D01*
X164652362Y-104942517D01*
X164509664Y-105037865D01*
X164488204Y-105052204D01*
X164049439Y-105490969D01*
X163949135Y-105490882D01*
X163698748Y-105594339D01*
X163507013Y-105785741D01*
X163403118Y-106035946D01*
X163402882Y-106306865D01*
X163506339Y-106557252D01*
X163697741Y-106748987D01*
X163947946Y-106852882D01*
X164218865Y-106853118D01*
X164469252Y-106749661D01*
X164660987Y-106558259D01*
X164764882Y-106308054D01*
X164764970Y-106206622D01*
X165055592Y-105916000D01*
X166426660Y-105916000D01*
X166324118Y-106162946D01*
X166323882Y-106433865D01*
X166427339Y-106684252D01*
X166618741Y-106875987D01*
X166868946Y-106979882D01*
X167097282Y-106980081D01*
X166987748Y-107025339D01*
X166796013Y-107216741D01*
X166692118Y-107466946D01*
X166691882Y-107737865D01*
X166795339Y-107988252D01*
X166867000Y-108060038D01*
X166867000Y-109445877D01*
X166796013Y-109516741D01*
X166692118Y-109766946D01*
X166691882Y-110037865D01*
X166795339Y-110288252D01*
X166986741Y-110479987D01*
X167236946Y-110583882D01*
X167507865Y-110584118D01*
X167642000Y-110528695D01*
X167642000Y-110540877D01*
X167571013Y-110611741D01*
X167467118Y-110861946D01*
X167466882Y-111132865D01*
X167570339Y-111383252D01*
X167761741Y-111574987D01*
X168011946Y-111678882D01*
X168282865Y-111679118D01*
X168533252Y-111575661D01*
X168724987Y-111384259D01*
X168828882Y-111134054D01*
X168829118Y-110863135D01*
X168725661Y-110612748D01*
X168697358Y-110584395D01*
X168936946Y-110683882D01*
X169207865Y-110684118D01*
X169458252Y-110580661D01*
X169649987Y-110389259D01*
X169753882Y-110139054D01*
X169754118Y-109868135D01*
X169650661Y-109617748D01*
X169459259Y-109426013D01*
X169379000Y-109392686D01*
X169379000Y-106860123D01*
X169449987Y-106789259D01*
X169553882Y-106539054D01*
X169554118Y-106268135D01*
X169450661Y-106017748D01*
X169349090Y-105916000D01*
X169462408Y-105916000D01*
X170797240Y-107250832D01*
X170895339Y-107488252D01*
X171086741Y-107679987D01*
X171336946Y-107783882D01*
X171607865Y-107784118D01*
X171858252Y-107680661D01*
X172049987Y-107489259D01*
X172067000Y-107448287D01*
X172067000Y-110089000D01*
X172105517Y-110282638D01*
X172215204Y-110446796D01*
X173054969Y-111286561D01*
X173054882Y-111386865D01*
X173158339Y-111637252D01*
X173349741Y-111828987D01*
X173599946Y-111932882D01*
X173870865Y-111933118D01*
X174121252Y-111829661D01*
X174312987Y-111638259D01*
X174416882Y-111388054D01*
X174417118Y-111117135D01*
X174313661Y-110866748D01*
X174122259Y-110675013D01*
X173872054Y-110571118D01*
X173770622Y-110571030D01*
X173079000Y-109879408D01*
X173079000Y-107260123D01*
X173149987Y-107189259D01*
X173253882Y-106939054D01*
X173254118Y-106668135D01*
X173248186Y-106653778D01*
X175008000Y-108413592D01*
X175008000Y-112116406D01*
X174796408Y-112327998D01*
X147545590Y-112327998D01*
X146160592Y-110943000D01*
X147104017Y-110943000D01*
X147198757Y-111419288D01*
X147468552Y-111823065D01*
X147872329Y-112092860D01*
X148348617Y-112187600D01*
X148397383Y-112187600D01*
X148873671Y-112092860D01*
X149277448Y-111823065D01*
X149547243Y-111419288D01*
X149641983Y-110943000D01*
X149644017Y-110943000D01*
X149738757Y-111419288D01*
X150008552Y-111823065D01*
X150412329Y-112092860D01*
X150888617Y-112187600D01*
X150937383Y-112187600D01*
X151413671Y-112092860D01*
X151817448Y-111823065D01*
X152087243Y-111419288D01*
X152181983Y-110943000D01*
X152184017Y-110943000D01*
X152278757Y-111419288D01*
X152548552Y-111823065D01*
X152952329Y-112092860D01*
X153428617Y-112187600D01*
X153477383Y-112187600D01*
X153953671Y-112092860D01*
X154357448Y-111823065D01*
X154627243Y-111419288D01*
X154658506Y-111262118D01*
X154790007Y-111262118D01*
X154916695Y-111568001D01*
X155237801Y-111932310D01*
X155673880Y-112146005D01*
X155866000Y-112085865D01*
X155866000Y-111070000D01*
X156120000Y-111070000D01*
X156120000Y-112085865D01*
X156312120Y-112146005D01*
X156748199Y-111932310D01*
X157069305Y-111568001D01*
X157195993Y-111262118D01*
X157135312Y-111070000D01*
X156120000Y-111070000D01*
X155866000Y-111070000D01*
X154850688Y-111070000D01*
X154790007Y-111262118D01*
X154658506Y-111262118D01*
X154721983Y-110943000D01*
X154658507Y-110623882D01*
X154790007Y-110623882D01*
X154850688Y-110816000D01*
X155866000Y-110816000D01*
X155866000Y-109800135D01*
X156120000Y-109800135D01*
X156120000Y-110816000D01*
X157135312Y-110816000D01*
X157195993Y-110623882D01*
X157069305Y-110317999D01*
X156748199Y-109953690D01*
X156312120Y-109739995D01*
X156120000Y-109800135D01*
X155866000Y-109800135D01*
X155673880Y-109739995D01*
X155237801Y-109953690D01*
X154916695Y-110317999D01*
X154790007Y-110623882D01*
X154658507Y-110623882D01*
X154627243Y-110466712D01*
X154357448Y-110062935D01*
X153953671Y-109793140D01*
X153477383Y-109698400D01*
X153428617Y-109698400D01*
X152952329Y-109793140D01*
X152548552Y-110062935D01*
X152278757Y-110466712D01*
X152184017Y-110943000D01*
X152181983Y-110943000D01*
X152087243Y-110466712D01*
X151817448Y-110062935D01*
X151413671Y-109793140D01*
X150937383Y-109698400D01*
X150888617Y-109698400D01*
X150412329Y-109793140D01*
X150008552Y-110062935D01*
X149738757Y-110466712D01*
X149644017Y-110943000D01*
X149641983Y-110943000D01*
X149547243Y-110466712D01*
X149277448Y-110062935D01*
X148873671Y-109793140D01*
X148397383Y-109698400D01*
X148348617Y-109698400D01*
X147872329Y-109793140D01*
X147468552Y-110062935D01*
X147198757Y-110466712D01*
X147104017Y-110943000D01*
X146160592Y-110943000D01*
X141793796Y-106576204D01*
X141629638Y-106466517D01*
X141436000Y-106428000D01*
X137877592Y-106428000D01*
X134285031Y-102835439D01*
X134285118Y-102735135D01*
X134181661Y-102484748D01*
X133990259Y-102293013D01*
X133740054Y-102189118D01*
X133469135Y-102188882D01*
X133218748Y-102292339D01*
X133027013Y-102483741D01*
X132923118Y-102733946D01*
X132922882Y-103004865D01*
X133026339Y-103255252D01*
X133217741Y-103446987D01*
X133467946Y-103550882D01*
X133569378Y-103550970D01*
X137208408Y-107190000D01*
X135337592Y-107190000D01*
X133303903Y-105156311D01*
X133791527Y-104668686D01*
X133872577Y-104550064D01*
X133905268Y-104399367D01*
X133876753Y-104247824D01*
X133791527Y-104119314D01*
X132354686Y-102682473D01*
X132236064Y-102601423D01*
X132085367Y-102568732D01*
X131933824Y-102597247D01*
X131805314Y-102682473D01*
X131658045Y-102829742D01*
X131700302Y-102617302D01*
X131593962Y-102082694D01*
X131291130Y-101629474D01*
X131252424Y-101590768D01*
X130799205Y-101287936D01*
X130264596Y-101181596D01*
X129729987Y-101287936D01*
X129276768Y-101590768D01*
X128973936Y-102043987D01*
X128867596Y-102578596D01*
X128973936Y-103113205D01*
X129276768Y-103566424D01*
X129315474Y-103605130D01*
X129768694Y-103907962D01*
X129777949Y-103909803D01*
X129777949Y-105921949D01*
X129816466Y-106115587D01*
X129926153Y-106279745D01*
X130928000Y-107281592D01*
X130928000Y-113422408D01*
X125109439Y-119240969D01*
X125009135Y-119240882D01*
X124758748Y-119344339D01*
X124567013Y-119535741D01*
X124463118Y-119785946D01*
X124462882Y-120056865D01*
X124566339Y-120307252D01*
X124757741Y-120498987D01*
X125007946Y-120602882D01*
X125278865Y-120603118D01*
X125529252Y-120499661D01*
X125720987Y-120308259D01*
X125824882Y-120058054D01*
X125824970Y-119956622D01*
X131791796Y-113989796D01*
X131901483Y-113825638D01*
X131940000Y-113632000D01*
X131940000Y-107072000D01*
X131901483Y-106878362D01*
X131791796Y-106714204D01*
X130789949Y-105712357D01*
X130789949Y-105090162D01*
X131805314Y-106105527D01*
X131923936Y-106186577D01*
X132074633Y-106219268D01*
X132226176Y-106190753D01*
X132354686Y-106105527D01*
X132588311Y-105871903D01*
X134770204Y-108053796D01*
X134934362Y-108163483D01*
X135128000Y-108202000D01*
X137214969Y-108202000D01*
X137091013Y-108325741D01*
X136987118Y-108575946D01*
X136986882Y-108846865D01*
X137090339Y-109097252D01*
X137281741Y-109288987D01*
X137531946Y-109392882D01*
X137633378Y-109392970D01*
X141576408Y-113336000D01*
X134874000Y-113336000D01*
X134699496Y-113370711D01*
X134593502Y-113441534D01*
X134551559Y-113469559D01*
X120396000Y-127625118D01*
X116781078Y-124010196D01*
X117827188Y-124010196D01*
X118132094Y-124693511D01*
X118675284Y-125208130D01*
X119272495Y-125455503D01*
X119570270Y-125403459D01*
X119570270Y-123712421D01*
X119824270Y-123712421D01*
X119824270Y-125403459D01*
X120122045Y-125455503D01*
X120805360Y-125150597D01*
X121319979Y-124607407D01*
X121567352Y-124010196D01*
X121515308Y-123712421D01*
X119824270Y-123712421D01*
X119570270Y-123712421D01*
X117879232Y-123712421D01*
X117827188Y-124010196D01*
X116781078Y-124010196D01*
X115931528Y-123160646D01*
X117827188Y-123160646D01*
X117879232Y-123458421D01*
X119570270Y-123458421D01*
X119570270Y-121767383D01*
X119824270Y-121767383D01*
X119824270Y-123458421D01*
X121515308Y-123458421D01*
X121567352Y-123160646D01*
X121262446Y-122477331D01*
X120719256Y-121962712D01*
X120122045Y-121715339D01*
X119824270Y-121767383D01*
X119570270Y-121767383D01*
X119272495Y-121715339D01*
X118589180Y-122020245D01*
X118074561Y-122563435D01*
X117827188Y-123160646D01*
X115931528Y-123160646D01*
X114004996Y-121234114D01*
X116170515Y-121234114D01*
X116319549Y-121594803D01*
X116595268Y-121871003D01*
X116955696Y-122020666D01*
X117345962Y-122021007D01*
X117706651Y-121871973D01*
X117982851Y-121596254D01*
X118132514Y-121235826D01*
X118132855Y-120845560D01*
X118057378Y-120662892D01*
X118388727Y-120662892D01*
X118560635Y-121078942D01*
X118878673Y-121397535D01*
X119294422Y-121570169D01*
X119744589Y-121570562D01*
X120160639Y-121398654D01*
X120479232Y-121080616D01*
X120651866Y-120664867D01*
X120652259Y-120214700D01*
X120480351Y-119798650D01*
X120162313Y-119480057D01*
X119746564Y-119307423D01*
X119296397Y-119307030D01*
X118880347Y-119478938D01*
X118561754Y-119796976D01*
X118389120Y-120212725D01*
X118388727Y-120662892D01*
X118057378Y-120662892D01*
X117983821Y-120484871D01*
X117708102Y-120208671D01*
X117347674Y-120059008D01*
X116957408Y-120058667D01*
X116596719Y-120207701D01*
X116320519Y-120483420D01*
X116170856Y-120843848D01*
X116170515Y-121234114D01*
X114004996Y-121234114D01*
X110823015Y-118052133D01*
X112988535Y-118052133D01*
X113137569Y-118412822D01*
X113413288Y-118689022D01*
X113773716Y-118838685D01*
X114163982Y-118839026D01*
X114524671Y-118689992D01*
X114800871Y-118414273D01*
X114950534Y-118053845D01*
X114950875Y-117663579D01*
X114875399Y-117480912D01*
X115206747Y-117480912D01*
X115378655Y-117896962D01*
X115696693Y-118215555D01*
X116112442Y-118388189D01*
X116562609Y-118388582D01*
X116673856Y-118342616D01*
X116628424Y-118452029D01*
X116628031Y-118902196D01*
X116799939Y-119318246D01*
X117117977Y-119636839D01*
X117533726Y-119809473D01*
X117983893Y-119809866D01*
X118399943Y-119637958D01*
X118718536Y-119319920D01*
X118891170Y-118904171D01*
X118891563Y-118454004D01*
X118835403Y-118318086D01*
X123547796Y-113605693D01*
X123562119Y-113584257D01*
X123657483Y-113441535D01*
X123696000Y-113247897D01*
X123696000Y-112522000D01*
X123657483Y-112328362D01*
X123547796Y-112164204D01*
X122347031Y-110963439D01*
X122347118Y-110863135D01*
X122243661Y-110612748D01*
X122052259Y-110421013D01*
X121802054Y-110317118D01*
X121531135Y-110316882D01*
X121280748Y-110420339D01*
X121089013Y-110611741D01*
X120985118Y-110861946D01*
X120984882Y-111132865D01*
X121088339Y-111383252D01*
X121279741Y-111574987D01*
X121529946Y-111678882D01*
X121631378Y-111678970D01*
X121793297Y-111840889D01*
X121785135Y-111840882D01*
X121534748Y-111944339D01*
X121462962Y-112016000D01*
X121073329Y-112016000D01*
X120879691Y-112054517D01*
X120715533Y-112164204D01*
X116698632Y-116181105D01*
X116564584Y-116125443D01*
X116114417Y-116125050D01*
X115698367Y-116296958D01*
X115379774Y-116614996D01*
X115207140Y-117030745D01*
X115206747Y-117480912D01*
X114875399Y-117480912D01*
X114801841Y-117302890D01*
X114526122Y-117026690D01*
X114165694Y-116877027D01*
X113775428Y-116876686D01*
X113414739Y-117025720D01*
X113138539Y-117301439D01*
X112988876Y-117661867D01*
X112988535Y-118052133D01*
X110823015Y-118052133D01*
X108507929Y-115737047D01*
X109554038Y-115737047D01*
X109858944Y-116420362D01*
X110402134Y-116934981D01*
X110999345Y-117182354D01*
X111297120Y-117130310D01*
X111297120Y-115439272D01*
X111551120Y-115439272D01*
X111551120Y-117130310D01*
X111848895Y-117182354D01*
X112532210Y-116877448D01*
X113046829Y-116334258D01*
X113270663Y-115793873D01*
X113458003Y-115793873D01*
X113659357Y-116196498D01*
X113999461Y-116491420D01*
X114265922Y-116601792D01*
X114443746Y-116539892D01*
X114443746Y-115616049D01*
X114697746Y-115616049D01*
X114697746Y-116539892D01*
X114875570Y-116601792D01*
X115278195Y-116400438D01*
X115573117Y-116060334D01*
X115683489Y-115793873D01*
X115621589Y-115616049D01*
X114697746Y-115616049D01*
X114443746Y-115616049D01*
X113519903Y-115616049D01*
X113458003Y-115793873D01*
X113270663Y-115793873D01*
X113294202Y-115737047D01*
X113242158Y-115439272D01*
X111551120Y-115439272D01*
X111297120Y-115439272D01*
X109606082Y-115439272D01*
X109554038Y-115737047D01*
X108507929Y-115737047D01*
X107832882Y-115062000D01*
X108007385Y-114887497D01*
X109554038Y-114887497D01*
X109606082Y-115185272D01*
X111297120Y-115185272D01*
X111297120Y-113494234D01*
X111551120Y-113494234D01*
X111551120Y-115185272D01*
X113242158Y-115185272D01*
X113242340Y-115184225D01*
X113458003Y-115184225D01*
X113519903Y-115362049D01*
X114443746Y-115362049D01*
X114443746Y-114438206D01*
X114697746Y-114438206D01*
X114697746Y-115362049D01*
X115621589Y-115362049D01*
X115683489Y-115184225D01*
X115482135Y-114781600D01*
X115142031Y-114486678D01*
X114875570Y-114376306D01*
X114697746Y-114438206D01*
X114443746Y-114438206D01*
X114265922Y-114376306D01*
X113863297Y-114577660D01*
X113568375Y-114917764D01*
X113458003Y-115184225D01*
X113242340Y-115184225D01*
X113294202Y-114887497D01*
X112989296Y-114204182D01*
X112446106Y-113689563D01*
X111848895Y-113442190D01*
X111551120Y-113494234D01*
X111297120Y-113494234D01*
X110999345Y-113442190D01*
X110316030Y-113747096D01*
X109801411Y-114290286D01*
X109554038Y-114887497D01*
X108007385Y-114887497D01*
X113966583Y-108928299D01*
X128447611Y-108928299D01*
X128613538Y-109329873D01*
X128920511Y-109637382D01*
X129321795Y-109804010D01*
X129756299Y-109804389D01*
X130157873Y-109638462D01*
X130465382Y-109331489D01*
X130632010Y-108930205D01*
X130632389Y-108495701D01*
X130466462Y-108094127D01*
X130159489Y-107786618D01*
X129758205Y-107619990D01*
X129323701Y-107619611D01*
X128922127Y-107785538D01*
X128614618Y-108092511D01*
X128447990Y-108493795D01*
X128447611Y-108928299D01*
X113966583Y-108928299D01*
X117558685Y-105336197D01*
X124855509Y-105336197D01*
X125021436Y-105737771D01*
X125328409Y-106045280D01*
X125729693Y-106211908D01*
X126164197Y-106212287D01*
X126565771Y-106046360D01*
X126873280Y-105739387D01*
X127039908Y-105338103D01*
X127040287Y-104903599D01*
X126874360Y-104502025D01*
X126567387Y-104194516D01*
X126166103Y-104027888D01*
X125731599Y-104027509D01*
X125330025Y-104193436D01*
X125022516Y-104500409D01*
X124855888Y-104901693D01*
X124855509Y-105336197D01*
X117558685Y-105336197D01*
X122242441Y-100652441D01*
X122245545Y-100647796D01*
X122341289Y-100504504D01*
X122376000Y-100330000D01*
X122376000Y-90826944D01*
X122549741Y-91000987D01*
X122799946Y-91104882D01*
X123070865Y-91105118D01*
X123321252Y-91001661D01*
X123512987Y-90810259D01*
X123609131Y-90578721D01*
X124538000Y-91507590D01*
X124538000Y-91507590D01*
G37*
X124538000Y-91507590D02*
X124538000Y-92004877D01*
X124467013Y-92075741D01*
X124363118Y-92325946D01*
X124362882Y-92596865D01*
X124466339Y-92847252D01*
X124657741Y-93038987D01*
X124907946Y-93142882D01*
X125178865Y-93143118D01*
X125429252Y-93039661D01*
X125478000Y-92990998D01*
X125478000Y-93522877D01*
X125407013Y-93593741D01*
X125303118Y-93843946D01*
X125302882Y-94114865D01*
X125406339Y-94365252D01*
X125597741Y-94556987D01*
X125847946Y-94660882D01*
X126118865Y-94661118D01*
X126369252Y-94557661D01*
X126560987Y-94366259D01*
X126593168Y-94288760D01*
X137310204Y-105005796D01*
X137474362Y-105115483D01*
X137668000Y-105154000D01*
X140970000Y-105154000D01*
X141163638Y-105115483D01*
X141327796Y-105005796D01*
X143036561Y-103297031D01*
X143136865Y-103297118D01*
X143387252Y-103193661D01*
X143578987Y-103002259D01*
X143682882Y-102752054D01*
X143683118Y-102481135D01*
X143579661Y-102230748D01*
X143388259Y-102039013D01*
X143313586Y-102008006D01*
X146814000Y-98507592D01*
X146814000Y-104810000D01*
X146852517Y-105003638D01*
X146962204Y-105167796D01*
X148945344Y-107150936D01*
X147509400Y-107150936D01*
X147368210Y-107177503D01*
X147238535Y-107260946D01*
X147151541Y-107388266D01*
X147120936Y-107539400D01*
X147120936Y-109266600D01*
X147147503Y-109407790D01*
X147230946Y-109537465D01*
X147358266Y-109624459D01*
X147509400Y-109655064D01*
X149236600Y-109655064D01*
X149377790Y-109628497D01*
X149507465Y-109545054D01*
X149594459Y-109417734D01*
X149625064Y-109266600D01*
X149625064Y-107830656D01*
X149735831Y-107941423D01*
X149644017Y-108403000D01*
X149738757Y-108879288D01*
X150008552Y-109283065D01*
X150412329Y-109552860D01*
X150888617Y-109647600D01*
X150937383Y-109647600D01*
X151413671Y-109552860D01*
X151817448Y-109283065D01*
X152087243Y-108879288D01*
X152181983Y-108403000D01*
X152184017Y-108403000D01*
X152278757Y-108879288D01*
X152548552Y-109283065D01*
X152952329Y-109552860D01*
X153428617Y-109647600D01*
X153477383Y-109647600D01*
X153953671Y-109552860D01*
X154357448Y-109283065D01*
X154627243Y-108879288D01*
X154721983Y-108403000D01*
X154724017Y-108403000D01*
X154818757Y-108879288D01*
X155088552Y-109283065D01*
X155492329Y-109552860D01*
X155968617Y-109647600D01*
X156017383Y-109647600D01*
X156493671Y-109552860D01*
X156897448Y-109283065D01*
X157167243Y-108879288D01*
X157261983Y-108403000D01*
X157167243Y-107926712D01*
X156897448Y-107522935D01*
X156493671Y-107253140D01*
X156017383Y-107158400D01*
X155968617Y-107158400D01*
X155492329Y-107253140D01*
X155088552Y-107522935D01*
X154818757Y-107926712D01*
X154724017Y-108403000D01*
X154721983Y-108403000D01*
X154627243Y-107926712D01*
X154357448Y-107522935D01*
X153953671Y-107253140D01*
X153477383Y-107158400D01*
X153428617Y-107158400D01*
X152952329Y-107253140D01*
X152548552Y-107522935D01*
X152278757Y-107926712D01*
X152184017Y-108403000D01*
X152181983Y-108403000D01*
X152087243Y-107926712D01*
X151817448Y-107522935D01*
X151413671Y-107253140D01*
X150937383Y-107158400D01*
X150888617Y-107158400D01*
X150467715Y-107242123D01*
X147826000Y-104600408D01*
X147826000Y-99157017D01*
X147896339Y-99327252D01*
X148087741Y-99518987D01*
X148337946Y-99622882D01*
X148439378Y-99622970D01*
X155516204Y-106699796D01*
X155680362Y-106809483D01*
X155874000Y-106848000D01*
X161964000Y-106848000D01*
X162157638Y-106809483D01*
X162321796Y-106699796D01*
X163068561Y-105953031D01*
X163168865Y-105953118D01*
X163419252Y-105849661D01*
X163610987Y-105658259D01*
X163714882Y-105408054D01*
X163715118Y-105137135D01*
X163611661Y-104886748D01*
X163420259Y-104695013D01*
X163170054Y-104591118D01*
X162899135Y-104590882D01*
X162648748Y-104694339D01*
X162457013Y-104885741D01*
X162353118Y-105135946D01*
X162353030Y-105237378D01*
X161754408Y-105836000D01*
X161572956Y-105836000D01*
X161739987Y-105669259D01*
X161843882Y-105419054D01*
X161844118Y-105148135D01*
X161740661Y-104897748D01*
X161549259Y-104706013D01*
X161299054Y-104602118D01*
X161028135Y-104601882D01*
X160777748Y-104705339D01*
X160705962Y-104777000D01*
X156546592Y-104777000D01*
X155320703Y-103551111D01*
X155328865Y-103551118D01*
X155579252Y-103447661D01*
X155770987Y-103256259D01*
X155874882Y-103006054D01*
X155875118Y-102735135D01*
X155771661Y-102484748D01*
X155629000Y-102341839D01*
X155629000Y-101310123D01*
X155699987Y-101239259D01*
X155803882Y-100989054D01*
X155804118Y-100718135D01*
X155700661Y-100467748D01*
X155509259Y-100276013D01*
X155259054Y-100172118D01*
X154988135Y-100171882D01*
X154737748Y-100275339D01*
X154647924Y-100365007D01*
X154459259Y-100176013D01*
X154209054Y-100072118D01*
X153938135Y-100071882D01*
X153687748Y-100175339D01*
X153496013Y-100366741D01*
X153414000Y-100564249D01*
X153414000Y-99763916D01*
X153733000Y-99827369D01*
X154209288Y-99732629D01*
X154613065Y-99462834D01*
X154882860Y-99059057D01*
X154969149Y-98625250D01*
X155028400Y-98625250D01*
X155028400Y-99494785D01*
X155086404Y-99634819D01*
X155193580Y-99741996D01*
X155333614Y-99800000D01*
X156050750Y-99800000D01*
X156146000Y-99704750D01*
X156146000Y-98530000D01*
X156400000Y-98530000D01*
X156400000Y-99704750D01*
X156495250Y-99800000D01*
X157212386Y-99800000D01*
X157352420Y-99741996D01*
X157459596Y-99634819D01*
X157517600Y-99494785D01*
X157517600Y-98625250D01*
X157422350Y-98530000D01*
X156400000Y-98530000D01*
X156146000Y-98530000D01*
X155123650Y-98530000D01*
X155028400Y-98625250D01*
X154969149Y-98625250D01*
X154977600Y-98582769D01*
X154977600Y-98223231D01*
X154882860Y-97746943D01*
X154613065Y-97343166D01*
X154518530Y-97280000D01*
X155041330Y-97280000D01*
X155028400Y-97311215D01*
X155028400Y-98180750D01*
X155123650Y-98276000D01*
X156146000Y-98276000D01*
X156146000Y-98256000D01*
X156400000Y-98256000D01*
X156400000Y-98276000D01*
X157422350Y-98276000D01*
X157517600Y-98180750D01*
X157517600Y-97311215D01*
X157504670Y-97280000D01*
X158057337Y-97280000D01*
X158509332Y-97660598D01*
X158364748Y-97720339D01*
X158173013Y-97911741D01*
X158069118Y-98161946D01*
X158068882Y-98432865D01*
X158172339Y-98683252D01*
X158244000Y-98755038D01*
X158244000Y-99314000D01*
X158282517Y-99507638D01*
X158392204Y-99671796D01*
X160678204Y-101957796D01*
X160842362Y-102067483D01*
X161036000Y-102106000D01*
X161910408Y-102106000D01*
X161991969Y-102187561D01*
X161991882Y-102287865D01*
X162095339Y-102538252D01*
X162286741Y-102729987D01*
X162536946Y-102833882D01*
X162807865Y-102834118D01*
X163058252Y-102730661D01*
X163249987Y-102539259D01*
X163353882Y-102289054D01*
X163354041Y-102106000D01*
X165608000Y-102106000D01*
X165801638Y-102067483D01*
X165965796Y-101957796D01*
X167849592Y-100074000D01*
X170718408Y-100074000D01*
X171191969Y-100547561D01*
X171191882Y-100647865D01*
X171295339Y-100898252D01*
X171486741Y-101089987D01*
X171710983Y-101183101D01*
X171487748Y-101275339D01*
X171296013Y-101466741D01*
X171192118Y-101716946D01*
X171192030Y-101818378D01*
X171115204Y-101895204D01*
X171005517Y-102059362D01*
X170967000Y-102253000D01*
X170967000Y-105989408D01*
X170029796Y-105052204D01*
X169865638Y-104942517D01*
X169672000Y-104904000D01*
X164846000Y-104904000D01*
X164652362Y-104942517D01*
X164509664Y-105037865D01*
X164488204Y-105052204D01*
X164049439Y-105490969D01*
X163949135Y-105490882D01*
X163698748Y-105594339D01*
X163507013Y-105785741D01*
X163403118Y-106035946D01*
X163402882Y-106306865D01*
X163506339Y-106557252D01*
X163697741Y-106748987D01*
X163947946Y-106852882D01*
X164218865Y-106853118D01*
X164469252Y-106749661D01*
X164660987Y-106558259D01*
X164764882Y-106308054D01*
X164764970Y-106206622D01*
X165055592Y-105916000D01*
X166426660Y-105916000D01*
X166324118Y-106162946D01*
X166323882Y-106433865D01*
X166427339Y-106684252D01*
X166618741Y-106875987D01*
X166868946Y-106979882D01*
X167097282Y-106980081D01*
X166987748Y-107025339D01*
X166796013Y-107216741D01*
X166692118Y-107466946D01*
X166691882Y-107737865D01*
X166795339Y-107988252D01*
X166867000Y-108060038D01*
X166867000Y-109445877D01*
X166796013Y-109516741D01*
X166692118Y-109766946D01*
X166691882Y-110037865D01*
X166795339Y-110288252D01*
X166986741Y-110479987D01*
X167236946Y-110583882D01*
X167507865Y-110584118D01*
X167642000Y-110528695D01*
X167642000Y-110540877D01*
X167571013Y-110611741D01*
X167467118Y-110861946D01*
X167466882Y-111132865D01*
X167570339Y-111383252D01*
X167761741Y-111574987D01*
X168011946Y-111678882D01*
X168282865Y-111679118D01*
X168533252Y-111575661D01*
X168724987Y-111384259D01*
X168828882Y-111134054D01*
X168829118Y-110863135D01*
X168725661Y-110612748D01*
X168697358Y-110584395D01*
X168936946Y-110683882D01*
X169207865Y-110684118D01*
X169458252Y-110580661D01*
X169649987Y-110389259D01*
X169753882Y-110139054D01*
X169754118Y-109868135D01*
X169650661Y-109617748D01*
X169459259Y-109426013D01*
X169379000Y-109392686D01*
X169379000Y-106860123D01*
X169449987Y-106789259D01*
X169553882Y-106539054D01*
X169554118Y-106268135D01*
X169450661Y-106017748D01*
X169349090Y-105916000D01*
X169462408Y-105916000D01*
X170797240Y-107250832D01*
X170895339Y-107488252D01*
X171086741Y-107679987D01*
X171336946Y-107783882D01*
X171607865Y-107784118D01*
X171858252Y-107680661D01*
X172049987Y-107489259D01*
X172067000Y-107448287D01*
X172067000Y-110089000D01*
X172105517Y-110282638D01*
X172215204Y-110446796D01*
X173054969Y-111286561D01*
X173054882Y-111386865D01*
X173158339Y-111637252D01*
X173349741Y-111828987D01*
X173599946Y-111932882D01*
X173870865Y-111933118D01*
X174121252Y-111829661D01*
X174312987Y-111638259D01*
X174416882Y-111388054D01*
X174417118Y-111117135D01*
X174313661Y-110866748D01*
X174122259Y-110675013D01*
X173872054Y-110571118D01*
X173770622Y-110571030D01*
X173079000Y-109879408D01*
X173079000Y-107260123D01*
X173149987Y-107189259D01*
X173253882Y-106939054D01*
X173254118Y-106668135D01*
X173248186Y-106653778D01*
X175008000Y-108413592D01*
X175008000Y-112116406D01*
X174796408Y-112327998D01*
X147545590Y-112327998D01*
X146160592Y-110943000D01*
X147104017Y-110943000D01*
X147198757Y-111419288D01*
X147468552Y-111823065D01*
X147872329Y-112092860D01*
X148348617Y-112187600D01*
X148397383Y-112187600D01*
X148873671Y-112092860D01*
X149277448Y-111823065D01*
X149547243Y-111419288D01*
X149641983Y-110943000D01*
X149644017Y-110943000D01*
X149738757Y-111419288D01*
X150008552Y-111823065D01*
X150412329Y-112092860D01*
X150888617Y-112187600D01*
X150937383Y-112187600D01*
X151413671Y-112092860D01*
X151817448Y-111823065D01*
X152087243Y-111419288D01*
X152181983Y-110943000D01*
X152184017Y-110943000D01*
X152278757Y-111419288D01*
X152548552Y-111823065D01*
X152952329Y-112092860D01*
X153428617Y-112187600D01*
X153477383Y-112187600D01*
X153953671Y-112092860D01*
X154357448Y-111823065D01*
X154627243Y-111419288D01*
X154658506Y-111262118D01*
X154790007Y-111262118D01*
X154916695Y-111568001D01*
X155237801Y-111932310D01*
X155673880Y-112146005D01*
X155866000Y-112085865D01*
X155866000Y-111070000D01*
X156120000Y-111070000D01*
X156120000Y-112085865D01*
X156312120Y-112146005D01*
X156748199Y-111932310D01*
X157069305Y-111568001D01*
X157195993Y-111262118D01*
X157135312Y-111070000D01*
X156120000Y-111070000D01*
X155866000Y-111070000D01*
X154850688Y-111070000D01*
X154790007Y-111262118D01*
X154658506Y-111262118D01*
X154721983Y-110943000D01*
X154658507Y-110623882D01*
X154790007Y-110623882D01*
X154850688Y-110816000D01*
X155866000Y-110816000D01*
X155866000Y-109800135D01*
X156120000Y-109800135D01*
X156120000Y-110816000D01*
X157135312Y-110816000D01*
X157195993Y-110623882D01*
X157069305Y-110317999D01*
X156748199Y-109953690D01*
X156312120Y-109739995D01*
X156120000Y-109800135D01*
X155866000Y-109800135D01*
X155673880Y-109739995D01*
X155237801Y-109953690D01*
X154916695Y-110317999D01*
X154790007Y-110623882D01*
X154658507Y-110623882D01*
X154627243Y-110466712D01*
X154357448Y-110062935D01*
X153953671Y-109793140D01*
X153477383Y-109698400D01*
X153428617Y-109698400D01*
X152952329Y-109793140D01*
X152548552Y-110062935D01*
X152278757Y-110466712D01*
X152184017Y-110943000D01*
X152181983Y-110943000D01*
X152087243Y-110466712D01*
X151817448Y-110062935D01*
X151413671Y-109793140D01*
X150937383Y-109698400D01*
X150888617Y-109698400D01*
X150412329Y-109793140D01*
X150008552Y-110062935D01*
X149738757Y-110466712D01*
X149644017Y-110943000D01*
X149641983Y-110943000D01*
X149547243Y-110466712D01*
X149277448Y-110062935D01*
X148873671Y-109793140D01*
X148397383Y-109698400D01*
X148348617Y-109698400D01*
X147872329Y-109793140D01*
X147468552Y-110062935D01*
X147198757Y-110466712D01*
X147104017Y-110943000D01*
X146160592Y-110943000D01*
X141793796Y-106576204D01*
X141629638Y-106466517D01*
X141436000Y-106428000D01*
X137877592Y-106428000D01*
X134285031Y-102835439D01*
X134285118Y-102735135D01*
X134181661Y-102484748D01*
X133990259Y-102293013D01*
X133740054Y-102189118D01*
X133469135Y-102188882D01*
X133218748Y-102292339D01*
X133027013Y-102483741D01*
X132923118Y-102733946D01*
X132922882Y-103004865D01*
X133026339Y-103255252D01*
X133217741Y-103446987D01*
X133467946Y-103550882D01*
X133569378Y-103550970D01*
X137208408Y-107190000D01*
X135337592Y-107190000D01*
X133303903Y-105156311D01*
X133791527Y-104668686D01*
X133872577Y-104550064D01*
X133905268Y-104399367D01*
X133876753Y-104247824D01*
X133791527Y-104119314D01*
X132354686Y-102682473D01*
X132236064Y-102601423D01*
X132085367Y-102568732D01*
X131933824Y-102597247D01*
X131805314Y-102682473D01*
X131658045Y-102829742D01*
X131700302Y-102617302D01*
X131593962Y-102082694D01*
X131291130Y-101629474D01*
X131252424Y-101590768D01*
X130799205Y-101287936D01*
X130264596Y-101181596D01*
X129729987Y-101287936D01*
X129276768Y-101590768D01*
X128973936Y-102043987D01*
X128867596Y-102578596D01*
X128973936Y-103113205D01*
X129276768Y-103566424D01*
X129315474Y-103605130D01*
X129768694Y-103907962D01*
X129777949Y-103909803D01*
X129777949Y-105921949D01*
X129816466Y-106115587D01*
X129926153Y-106279745D01*
X130928000Y-107281592D01*
X130928000Y-113422408D01*
X125109439Y-119240969D01*
X125009135Y-119240882D01*
X124758748Y-119344339D01*
X124567013Y-119535741D01*
X124463118Y-119785946D01*
X124462882Y-120056865D01*
X124566339Y-120307252D01*
X124757741Y-120498987D01*
X125007946Y-120602882D01*
X125278865Y-120603118D01*
X125529252Y-120499661D01*
X125720987Y-120308259D01*
X125824882Y-120058054D01*
X125824970Y-119956622D01*
X131791796Y-113989796D01*
X131901483Y-113825638D01*
X131940000Y-113632000D01*
X131940000Y-107072000D01*
X131901483Y-106878362D01*
X131791796Y-106714204D01*
X130789949Y-105712357D01*
X130789949Y-105090162D01*
X131805314Y-106105527D01*
X131923936Y-106186577D01*
X132074633Y-106219268D01*
X132226176Y-106190753D01*
X132354686Y-106105527D01*
X132588311Y-105871903D01*
X134770204Y-108053796D01*
X134934362Y-108163483D01*
X135128000Y-108202000D01*
X137214969Y-108202000D01*
X137091013Y-108325741D01*
X136987118Y-108575946D01*
X136986882Y-108846865D01*
X137090339Y-109097252D01*
X137281741Y-109288987D01*
X137531946Y-109392882D01*
X137633378Y-109392970D01*
X141576408Y-113336000D01*
X134874000Y-113336000D01*
X134699496Y-113370711D01*
X134593502Y-113441534D01*
X134551559Y-113469559D01*
X120396000Y-127625118D01*
X116781078Y-124010196D01*
X117827188Y-124010196D01*
X118132094Y-124693511D01*
X118675284Y-125208130D01*
X119272495Y-125455503D01*
X119570270Y-125403459D01*
X119570270Y-123712421D01*
X119824270Y-123712421D01*
X119824270Y-125403459D01*
X120122045Y-125455503D01*
X120805360Y-125150597D01*
X121319979Y-124607407D01*
X121567352Y-124010196D01*
X121515308Y-123712421D01*
X119824270Y-123712421D01*
X119570270Y-123712421D01*
X117879232Y-123712421D01*
X117827188Y-124010196D01*
X116781078Y-124010196D01*
X115931528Y-123160646D01*
X117827188Y-123160646D01*
X117879232Y-123458421D01*
X119570270Y-123458421D01*
X119570270Y-121767383D01*
X119824270Y-121767383D01*
X119824270Y-123458421D01*
X121515308Y-123458421D01*
X121567352Y-123160646D01*
X121262446Y-122477331D01*
X120719256Y-121962712D01*
X120122045Y-121715339D01*
X119824270Y-121767383D01*
X119570270Y-121767383D01*
X119272495Y-121715339D01*
X118589180Y-122020245D01*
X118074561Y-122563435D01*
X117827188Y-123160646D01*
X115931528Y-123160646D01*
X114004996Y-121234114D01*
X116170515Y-121234114D01*
X116319549Y-121594803D01*
X116595268Y-121871003D01*
X116955696Y-122020666D01*
X117345962Y-122021007D01*
X117706651Y-121871973D01*
X117982851Y-121596254D01*
X118132514Y-121235826D01*
X118132855Y-120845560D01*
X118057378Y-120662892D01*
X118388727Y-120662892D01*
X118560635Y-121078942D01*
X118878673Y-121397535D01*
X119294422Y-121570169D01*
X119744589Y-121570562D01*
X120160639Y-121398654D01*
X120479232Y-121080616D01*
X120651866Y-120664867D01*
X120652259Y-120214700D01*
X120480351Y-119798650D01*
X120162313Y-119480057D01*
X119746564Y-119307423D01*
X119296397Y-119307030D01*
X118880347Y-119478938D01*
X118561754Y-119796976D01*
X118389120Y-120212725D01*
X118388727Y-120662892D01*
X118057378Y-120662892D01*
X117983821Y-120484871D01*
X117708102Y-120208671D01*
X117347674Y-120059008D01*
X116957408Y-120058667D01*
X116596719Y-120207701D01*
X116320519Y-120483420D01*
X116170856Y-120843848D01*
X116170515Y-121234114D01*
X114004996Y-121234114D01*
X110823015Y-118052133D01*
X112988535Y-118052133D01*
X113137569Y-118412822D01*
X113413288Y-118689022D01*
X113773716Y-118838685D01*
X114163982Y-118839026D01*
X114524671Y-118689992D01*
X114800871Y-118414273D01*
X114950534Y-118053845D01*
X114950875Y-117663579D01*
X114875399Y-117480912D01*
X115206747Y-117480912D01*
X115378655Y-117896962D01*
X115696693Y-118215555D01*
X116112442Y-118388189D01*
X116562609Y-118388582D01*
X116673856Y-118342616D01*
X116628424Y-118452029D01*
X116628031Y-118902196D01*
X116799939Y-119318246D01*
X117117977Y-119636839D01*
X117533726Y-119809473D01*
X117983893Y-119809866D01*
X118399943Y-119637958D01*
X118718536Y-119319920D01*
X118891170Y-118904171D01*
X118891563Y-118454004D01*
X118835403Y-118318086D01*
X123547796Y-113605693D01*
X123562119Y-113584257D01*
X123657483Y-113441535D01*
X123696000Y-113247897D01*
X123696000Y-112522000D01*
X123657483Y-112328362D01*
X123547796Y-112164204D01*
X122347031Y-110963439D01*
X122347118Y-110863135D01*
X122243661Y-110612748D01*
X122052259Y-110421013D01*
X121802054Y-110317118D01*
X121531135Y-110316882D01*
X121280748Y-110420339D01*
X121089013Y-110611741D01*
X120985118Y-110861946D01*
X120984882Y-111132865D01*
X121088339Y-111383252D01*
X121279741Y-111574987D01*
X121529946Y-111678882D01*
X121631378Y-111678970D01*
X121793297Y-111840889D01*
X121785135Y-111840882D01*
X121534748Y-111944339D01*
X121462962Y-112016000D01*
X121073329Y-112016000D01*
X120879691Y-112054517D01*
X120715533Y-112164204D01*
X116698632Y-116181105D01*
X116564584Y-116125443D01*
X116114417Y-116125050D01*
X115698367Y-116296958D01*
X115379774Y-116614996D01*
X115207140Y-117030745D01*
X115206747Y-117480912D01*
X114875399Y-117480912D01*
X114801841Y-117302890D01*
X114526122Y-117026690D01*
X114165694Y-116877027D01*
X113775428Y-116876686D01*
X113414739Y-117025720D01*
X113138539Y-117301439D01*
X112988876Y-117661867D01*
X112988535Y-118052133D01*
X110823015Y-118052133D01*
X108507929Y-115737047D01*
X109554038Y-115737047D01*
X109858944Y-116420362D01*
X110402134Y-116934981D01*
X110999345Y-117182354D01*
X111297120Y-117130310D01*
X111297120Y-115439272D01*
X111551120Y-115439272D01*
X111551120Y-117130310D01*
X111848895Y-117182354D01*
X112532210Y-116877448D01*
X113046829Y-116334258D01*
X113270663Y-115793873D01*
X113458003Y-115793873D01*
X113659357Y-116196498D01*
X113999461Y-116491420D01*
X114265922Y-116601792D01*
X114443746Y-116539892D01*
X114443746Y-115616049D01*
X114697746Y-115616049D01*
X114697746Y-116539892D01*
X114875570Y-116601792D01*
X115278195Y-116400438D01*
X115573117Y-116060334D01*
X115683489Y-115793873D01*
X115621589Y-115616049D01*
X114697746Y-115616049D01*
X114443746Y-115616049D01*
X113519903Y-115616049D01*
X113458003Y-115793873D01*
X113270663Y-115793873D01*
X113294202Y-115737047D01*
X113242158Y-115439272D01*
X111551120Y-115439272D01*
X111297120Y-115439272D01*
X109606082Y-115439272D01*
X109554038Y-115737047D01*
X108507929Y-115737047D01*
X107832882Y-115062000D01*
X108007385Y-114887497D01*
X109554038Y-114887497D01*
X109606082Y-115185272D01*
X111297120Y-115185272D01*
X111297120Y-113494234D01*
X111551120Y-113494234D01*
X111551120Y-115185272D01*
X113242158Y-115185272D01*
X113242340Y-115184225D01*
X113458003Y-115184225D01*
X113519903Y-115362049D01*
X114443746Y-115362049D01*
X114443746Y-114438206D01*
X114697746Y-114438206D01*
X114697746Y-115362049D01*
X115621589Y-115362049D01*
X115683489Y-115184225D01*
X115482135Y-114781600D01*
X115142031Y-114486678D01*
X114875570Y-114376306D01*
X114697746Y-114438206D01*
X114443746Y-114438206D01*
X114265922Y-114376306D01*
X113863297Y-114577660D01*
X113568375Y-114917764D01*
X113458003Y-115184225D01*
X113242340Y-115184225D01*
X113294202Y-114887497D01*
X112989296Y-114204182D01*
X112446106Y-113689563D01*
X111848895Y-113442190D01*
X111551120Y-113494234D01*
X111297120Y-113494234D01*
X110999345Y-113442190D01*
X110316030Y-113747096D01*
X109801411Y-114290286D01*
X109554038Y-114887497D01*
X108007385Y-114887497D01*
X113966583Y-108928299D01*
X128447611Y-108928299D01*
X128613538Y-109329873D01*
X128920511Y-109637382D01*
X129321795Y-109804010D01*
X129756299Y-109804389D01*
X130157873Y-109638462D01*
X130465382Y-109331489D01*
X130632010Y-108930205D01*
X130632389Y-108495701D01*
X130466462Y-108094127D01*
X130159489Y-107786618D01*
X129758205Y-107619990D01*
X129323701Y-107619611D01*
X128922127Y-107785538D01*
X128614618Y-108092511D01*
X128447990Y-108493795D01*
X128447611Y-108928299D01*
X113966583Y-108928299D01*
X117558685Y-105336197D01*
X124855509Y-105336197D01*
X125021436Y-105737771D01*
X125328409Y-106045280D01*
X125729693Y-106211908D01*
X126164197Y-106212287D01*
X126565771Y-106046360D01*
X126873280Y-105739387D01*
X127039908Y-105338103D01*
X127040287Y-104903599D01*
X126874360Y-104502025D01*
X126567387Y-104194516D01*
X126166103Y-104027888D01*
X125731599Y-104027509D01*
X125330025Y-104193436D01*
X125022516Y-104500409D01*
X124855888Y-104901693D01*
X124855509Y-105336197D01*
X117558685Y-105336197D01*
X122242441Y-100652441D01*
X122245545Y-100647796D01*
X122341289Y-100504504D01*
X122376000Y-100330000D01*
X122376000Y-90826944D01*
X122549741Y-91000987D01*
X122799946Y-91104882D01*
X123070865Y-91105118D01*
X123321252Y-91001661D01*
X123512987Y-90810259D01*
X123609131Y-90578721D01*
X124538000Y-91507590D01*
G36*
X175516000Y-106127592D02*
X175516000Y-106934000D01*
X175554517Y-107127638D01*
X175664204Y-107291796D01*
X176532000Y-108159592D01*
X176532000Y-111804408D01*
X176020000Y-112316408D01*
X176020000Y-108204000D01*
X175981483Y-108010362D01*
X175871796Y-107846204D01*
X173163029Y-105137437D01*
X173203882Y-105039054D01*
X173204118Y-104768135D01*
X173100661Y-104517748D01*
X172911124Y-104327881D01*
X172930038Y-104309000D01*
X173697408Y-104309000D01*
X175516000Y-106127592D01*
X175516000Y-106127592D01*
G37*
X175516000Y-106127592D02*
X175516000Y-106934000D01*
X175554517Y-107127638D01*
X175664204Y-107291796D01*
X176532000Y-108159592D01*
X176532000Y-111804408D01*
X176020000Y-112316408D01*
X176020000Y-108204000D01*
X175981483Y-108010362D01*
X175871796Y-107846204D01*
X173163029Y-105137437D01*
X173203882Y-105039054D01*
X173204118Y-104768135D01*
X173100661Y-104517748D01*
X172911124Y-104327881D01*
X172930038Y-104309000D01*
X173697408Y-104309000D01*
X175516000Y-106127592D01*
G36*
X177165000Y-107361408D02*
X176528000Y-106724408D01*
X176528000Y-105918000D01*
X176489483Y-105724362D01*
X176379796Y-105560204D01*
X174264796Y-103445204D01*
X174100638Y-103335517D01*
X173907000Y-103297000D01*
X172930123Y-103297000D01*
X172859259Y-103226013D01*
X172609054Y-103122118D01*
X172338135Y-103121882D01*
X172087748Y-103225339D01*
X171979000Y-103333898D01*
X171979000Y-102534093D01*
X172007865Y-102534118D01*
X172258252Y-102430661D01*
X172449987Y-102239259D01*
X172553882Y-101989054D01*
X172554118Y-101718135D01*
X172450661Y-101467748D01*
X172259259Y-101276013D01*
X172035017Y-101182899D01*
X172258252Y-101090661D01*
X172352919Y-100996158D01*
X172356741Y-100999987D01*
X172606946Y-101103882D01*
X172877865Y-101104118D01*
X173128252Y-101000661D01*
X173319987Y-100809259D01*
X173423882Y-100559054D01*
X173424118Y-100288135D01*
X173320661Y-100037748D01*
X173129259Y-99846013D01*
X172879054Y-99742118D01*
X172777622Y-99742030D01*
X169860634Y-96825042D01*
X169883882Y-96769054D01*
X169884118Y-96498135D01*
X169780661Y-96247748D01*
X169589259Y-96056013D01*
X169339054Y-95952118D01*
X169068135Y-95951882D01*
X168817748Y-96055339D01*
X168626013Y-96246741D01*
X168522118Y-96496946D01*
X168521882Y-96767865D01*
X168625339Y-97018252D01*
X168816741Y-97209987D01*
X168827643Y-97214514D01*
X168845204Y-97240796D01*
X170666408Y-99062000D01*
X167640000Y-99062000D01*
X167446362Y-99100517D01*
X167282204Y-99210204D01*
X166622000Y-99870408D01*
X166622000Y-97028000D01*
X166583483Y-96834362D01*
X166473796Y-96670204D01*
X165509592Y-95706000D01*
X177165000Y-95706000D01*
X177165000Y-107361408D01*
X177165000Y-107361408D01*
G37*
X177165000Y-107361408D02*
X176528000Y-106724408D01*
X176528000Y-105918000D01*
X176489483Y-105724362D01*
X176379796Y-105560204D01*
X174264796Y-103445204D01*
X174100638Y-103335517D01*
X173907000Y-103297000D01*
X172930123Y-103297000D01*
X172859259Y-103226013D01*
X172609054Y-103122118D01*
X172338135Y-103121882D01*
X172087748Y-103225339D01*
X171979000Y-103333898D01*
X171979000Y-102534093D01*
X172007865Y-102534118D01*
X172258252Y-102430661D01*
X172449987Y-102239259D01*
X172553882Y-101989054D01*
X172554118Y-101718135D01*
X172450661Y-101467748D01*
X172259259Y-101276013D01*
X172035017Y-101182899D01*
X172258252Y-101090661D01*
X172352919Y-100996158D01*
X172356741Y-100999987D01*
X172606946Y-101103882D01*
X172877865Y-101104118D01*
X173128252Y-101000661D01*
X173319987Y-100809259D01*
X173423882Y-100559054D01*
X173424118Y-100288135D01*
X173320661Y-100037748D01*
X173129259Y-99846013D01*
X172879054Y-99742118D01*
X172777622Y-99742030D01*
X169860634Y-96825042D01*
X169883882Y-96769054D01*
X169884118Y-96498135D01*
X169780661Y-96247748D01*
X169589259Y-96056013D01*
X169339054Y-95952118D01*
X169068135Y-95951882D01*
X168817748Y-96055339D01*
X168626013Y-96246741D01*
X168522118Y-96496946D01*
X168521882Y-96767865D01*
X168625339Y-97018252D01*
X168816741Y-97209987D01*
X168827643Y-97214514D01*
X168845204Y-97240796D01*
X170666408Y-99062000D01*
X167640000Y-99062000D01*
X167446362Y-99100517D01*
X167282204Y-99210204D01*
X166622000Y-99870408D01*
X166622000Y-97028000D01*
X166583483Y-96834362D01*
X166473796Y-96670204D01*
X165509592Y-95706000D01*
X177165000Y-95706000D01*
X177165000Y-107361408D01*
G36*
X139194000Y-61677592D02*
X139194000Y-90722408D01*
X138649439Y-91266969D01*
X138549135Y-91266882D01*
X138298748Y-91370339D01*
X138107013Y-91561741D01*
X138003118Y-91811946D01*
X138002882Y-92082865D01*
X138106339Y-92333252D01*
X138297741Y-92524987D01*
X138547946Y-92628882D01*
X138811297Y-92629111D01*
X138049311Y-93391098D01*
X137796449Y-93138236D01*
X137677827Y-93057186D01*
X137527130Y-93024495D01*
X137375587Y-93053010D01*
X137247077Y-93138236D01*
X135810236Y-94575077D01*
X135729186Y-94693699D01*
X135696495Y-94844396D01*
X135725010Y-94995939D01*
X135810236Y-95124449D01*
X137031551Y-96345764D01*
X137150173Y-96426814D01*
X137300870Y-96459505D01*
X137452413Y-96430990D01*
X137580923Y-96345764D01*
X139017764Y-94908923D01*
X139098814Y-94790301D01*
X139131505Y-94639604D01*
X139102990Y-94488061D01*
X139017764Y-94359551D01*
X138764903Y-94106690D01*
X140260000Y-92611592D01*
X140260000Y-93218000D01*
X140268762Y-93262050D01*
X140268762Y-93306961D01*
X140423439Y-94084574D01*
X140491527Y-94248953D01*
X140932009Y-94908181D01*
X141057819Y-95033992D01*
X141057823Y-95033994D01*
X141717047Y-95474473D01*
X141881426Y-95542561D01*
X142659038Y-95697238D01*
X142703950Y-95697238D01*
X142748000Y-95706000D01*
X147476406Y-95706000D01*
X140091753Y-103090653D01*
X140126882Y-103006054D01*
X140126970Y-102904622D01*
X142343796Y-100687796D01*
X142453483Y-100523638D01*
X142492000Y-100330000D01*
X142492000Y-99314000D01*
X142453483Y-99120362D01*
X142343796Y-98956204D01*
X142198078Y-98810486D01*
X142283078Y-98683274D01*
X142377818Y-98206986D01*
X142283078Y-97730699D01*
X142013283Y-97326921D01*
X141609505Y-97057126D01*
X141133218Y-96962386D01*
X140656930Y-97057126D01*
X140253153Y-97326921D01*
X139998921Y-97581153D01*
X139729126Y-97984931D01*
X139634386Y-98461218D01*
X139729126Y-98937505D01*
X139998921Y-99341283D01*
X140402699Y-99611078D01*
X140878986Y-99705818D01*
X141355273Y-99611078D01*
X141480000Y-99527738D01*
X141480000Y-100120408D01*
X139411439Y-102188969D01*
X139311135Y-102188882D01*
X139060748Y-102292339D01*
X138869013Y-102483741D01*
X138765118Y-102733946D01*
X138764882Y-103004865D01*
X138838898Y-103183998D01*
X138315192Y-103183998D01*
X136065590Y-100934396D01*
X136866495Y-100934396D01*
X136895010Y-101085939D01*
X136980236Y-101214449D01*
X138201551Y-102435764D01*
X138320173Y-102516814D01*
X138470870Y-102549505D01*
X138622413Y-102520990D01*
X138750923Y-102435764D01*
X140187764Y-100998923D01*
X140268814Y-100880301D01*
X140301505Y-100729604D01*
X140272990Y-100578061D01*
X140187764Y-100449551D01*
X138966449Y-99228236D01*
X138847827Y-99147186D01*
X138697130Y-99114495D01*
X138545587Y-99143010D01*
X138417077Y-99228236D01*
X136980236Y-100665077D01*
X136899186Y-100783699D01*
X136866495Y-100934396D01*
X136065590Y-100934396D01*
X134294259Y-99163065D01*
X135416233Y-99163065D01*
X135510973Y-99639352D01*
X135780768Y-100043130D01*
X136184546Y-100312925D01*
X136660833Y-100407665D01*
X137137120Y-100312925D01*
X137540898Y-100043130D01*
X137795130Y-99788898D01*
X138064925Y-99385121D01*
X138159665Y-98908833D01*
X138064925Y-98432546D01*
X137795130Y-98028768D01*
X137391352Y-97758973D01*
X136915065Y-97664233D01*
X136438777Y-97758973D01*
X136035000Y-98028768D01*
X135780768Y-98283000D01*
X135510973Y-98686778D01*
X135416233Y-99163065D01*
X134294259Y-99163065D01*
X132498208Y-97367014D01*
X133620182Y-97367014D01*
X133714922Y-97843301D01*
X133984717Y-98247079D01*
X134388495Y-98516874D01*
X134864782Y-98611614D01*
X135341069Y-98516874D01*
X135744847Y-98247079D01*
X135999079Y-97992847D01*
X136268874Y-97589070D01*
X136363614Y-97112782D01*
X136274578Y-96665167D01*
X137838335Y-96665167D01*
X137933075Y-97141454D01*
X138202870Y-97545232D01*
X138606648Y-97815027D01*
X139082935Y-97909767D01*
X139559222Y-97815027D01*
X139963000Y-97545232D01*
X140217232Y-97291000D01*
X140487027Y-96887223D01*
X140581767Y-96410935D01*
X140487027Y-95934648D01*
X140217232Y-95530870D01*
X139813454Y-95261075D01*
X139337167Y-95166335D01*
X138860879Y-95261075D01*
X138457102Y-95530870D01*
X138202870Y-95785102D01*
X137933075Y-96188880D01*
X137838335Y-96665167D01*
X136274578Y-96665167D01*
X136268874Y-96636495D01*
X135999079Y-96232717D01*
X135595301Y-95962922D01*
X135119014Y-95868182D01*
X134642726Y-95962922D01*
X134238949Y-96232717D01*
X133984717Y-96486949D01*
X133714922Y-96890727D01*
X133620182Y-97367014D01*
X132498208Y-97367014D01*
X130046000Y-94914806D01*
X130046000Y-93929123D01*
X130116987Y-93858259D01*
X130220882Y-93608054D01*
X130221118Y-93337135D01*
X130117661Y-93086748D01*
X129926259Y-92895013D01*
X129676054Y-92791118D01*
X129405135Y-92790882D01*
X129154748Y-92894339D01*
X128963013Y-93085741D01*
X128859118Y-93335946D01*
X128858882Y-93606865D01*
X128943956Y-93812762D01*
X124570787Y-89439593D01*
X124632882Y-89290054D01*
X124633118Y-89019135D01*
X124529661Y-88768748D01*
X124338259Y-88577013D01*
X124088054Y-88473118D01*
X123817135Y-88472882D01*
X123566748Y-88576339D01*
X123450000Y-88692884D01*
X123450000Y-87335592D01*
X124564204Y-88449796D01*
X124728362Y-88559483D01*
X124922000Y-88598000D01*
X131526000Y-88598000D01*
X131719638Y-88559483D01*
X131883796Y-88449796D01*
X133820936Y-86512656D01*
X133820936Y-87948600D01*
X133847503Y-88089790D01*
X133930946Y-88219465D01*
X134058266Y-88306459D01*
X134209400Y-88337064D01*
X135936600Y-88337064D01*
X136077790Y-88310497D01*
X136207465Y-88227054D01*
X136294459Y-88099734D01*
X136325064Y-87948600D01*
X136325064Y-87060617D01*
X136368400Y-87060617D01*
X136368400Y-87109383D01*
X136463140Y-87585671D01*
X136732935Y-87989448D01*
X137136712Y-88259243D01*
X137613000Y-88353983D01*
X138089288Y-88259243D01*
X138493065Y-87989448D01*
X138762860Y-87585671D01*
X138857600Y-87109383D01*
X138857600Y-87060617D01*
X138762860Y-86584329D01*
X138493065Y-86180552D01*
X138089288Y-85910757D01*
X137613000Y-85816017D01*
X137136712Y-85910757D01*
X136732935Y-86180552D01*
X136463140Y-86584329D01*
X136368400Y-87060617D01*
X136325064Y-87060617D01*
X136325064Y-86221400D01*
X136298497Y-86080210D01*
X136215054Y-85950535D01*
X136087734Y-85863541D01*
X135936600Y-85832936D01*
X134500656Y-85832936D01*
X134611423Y-85722169D01*
X135073000Y-85813983D01*
X135549288Y-85719243D01*
X135953065Y-85449448D01*
X136222860Y-85045671D01*
X136317600Y-84569383D01*
X136317600Y-84520617D01*
X136368400Y-84520617D01*
X136368400Y-84569383D01*
X136463140Y-85045671D01*
X136732935Y-85449448D01*
X137136712Y-85719243D01*
X137613000Y-85813983D01*
X138089288Y-85719243D01*
X138493065Y-85449448D01*
X138762860Y-85045671D01*
X138857600Y-84569383D01*
X138857600Y-84520617D01*
X138762860Y-84044329D01*
X138493065Y-83640552D01*
X138089288Y-83370757D01*
X137613000Y-83276017D01*
X137136712Y-83370757D01*
X136732935Y-83640552D01*
X136463140Y-84044329D01*
X136368400Y-84520617D01*
X136317600Y-84520617D01*
X136222860Y-84044329D01*
X135953065Y-83640552D01*
X135549288Y-83370757D01*
X135073000Y-83276017D01*
X134596712Y-83370757D01*
X134192935Y-83640552D01*
X133923140Y-84044329D01*
X133828400Y-84520617D01*
X133828400Y-84569383D01*
X133912123Y-84990285D01*
X131316408Y-87586000D01*
X125131592Y-87586000D01*
X123950000Y-86404408D01*
X123950000Y-85050530D01*
X124013166Y-85145065D01*
X124416943Y-85414860D01*
X124893231Y-85509600D01*
X125252769Y-85509600D01*
X125729057Y-85414860D01*
X126132834Y-85145065D01*
X126402629Y-84741288D01*
X126497369Y-84265000D01*
X126402629Y-83788712D01*
X126132834Y-83384935D01*
X125729057Y-83115140D01*
X125252769Y-83020400D01*
X124893231Y-83020400D01*
X124416943Y-83115140D01*
X124013166Y-83384935D01*
X123950000Y-83479470D01*
X123950000Y-82510530D01*
X124013166Y-82605065D01*
X124416943Y-82874860D01*
X124893231Y-82969600D01*
X125252769Y-82969600D01*
X125545543Y-82911363D01*
X125704362Y-83017483D01*
X125898000Y-83056000D01*
X128524000Y-83056000D01*
X128717638Y-83017483D01*
X128881796Y-82907796D01*
X129808975Y-81980617D01*
X133828400Y-81980617D01*
X133828400Y-82029383D01*
X133923140Y-82505671D01*
X134192935Y-82909448D01*
X134596712Y-83179243D01*
X135073000Y-83273983D01*
X135549288Y-83179243D01*
X135953065Y-82909448D01*
X136222860Y-82505671D01*
X136317600Y-82029383D01*
X136317600Y-81980617D01*
X136368400Y-81980617D01*
X136368400Y-82029383D01*
X136463140Y-82505671D01*
X136732935Y-82909448D01*
X137136712Y-83179243D01*
X137613000Y-83273983D01*
X138089288Y-83179243D01*
X138493065Y-82909448D01*
X138762860Y-82505671D01*
X138857600Y-82029383D01*
X138857600Y-81980617D01*
X138762860Y-81504329D01*
X138493065Y-81100552D01*
X138089288Y-80830757D01*
X137613000Y-80736017D01*
X137136712Y-80830757D01*
X136732935Y-81100552D01*
X136463140Y-81504329D01*
X136368400Y-81980617D01*
X136317600Y-81980617D01*
X136222860Y-81504329D01*
X135953065Y-81100552D01*
X135549288Y-80830757D01*
X135073000Y-80736017D01*
X134596712Y-80830757D01*
X134192935Y-81100552D01*
X133923140Y-81504329D01*
X133828400Y-81980617D01*
X129808975Y-81980617D01*
X132310796Y-79478796D01*
X132336306Y-79440617D01*
X133828400Y-79440617D01*
X133828400Y-79489383D01*
X133923140Y-79965671D01*
X134192935Y-80369448D01*
X134596712Y-80639243D01*
X135073000Y-80733983D01*
X135549288Y-80639243D01*
X135953065Y-80369448D01*
X136222860Y-79965671D01*
X136258972Y-79784120D01*
X136409995Y-79784120D01*
X136623690Y-80220199D01*
X136987999Y-80541305D01*
X137293882Y-80667993D01*
X137486000Y-80607312D01*
X137486000Y-79592000D01*
X137740000Y-79592000D01*
X137740000Y-80607312D01*
X137932118Y-80667993D01*
X138238001Y-80541305D01*
X138602310Y-80220199D01*
X138816005Y-79784120D01*
X138755865Y-79592000D01*
X137740000Y-79592000D01*
X137486000Y-79592000D01*
X136470135Y-79592000D01*
X136409995Y-79784120D01*
X136258972Y-79784120D01*
X136317600Y-79489383D01*
X136317600Y-79440617D01*
X136258973Y-79145880D01*
X136409995Y-79145880D01*
X136470135Y-79338000D01*
X137486000Y-79338000D01*
X137486000Y-78322688D01*
X137740000Y-78322688D01*
X137740000Y-79338000D01*
X138755865Y-79338000D01*
X138816005Y-79145880D01*
X138602310Y-78709801D01*
X138238001Y-78388695D01*
X137932118Y-78262007D01*
X137740000Y-78322688D01*
X137486000Y-78322688D01*
X137293882Y-78262007D01*
X136987999Y-78388695D01*
X136623690Y-78709801D01*
X136409995Y-79145880D01*
X136258973Y-79145880D01*
X136222860Y-78964329D01*
X135953065Y-78560552D01*
X135549288Y-78290757D01*
X135073000Y-78196017D01*
X134596712Y-78290757D01*
X134192935Y-78560552D01*
X133923140Y-78964329D01*
X133828400Y-79440617D01*
X132336306Y-79440617D01*
X132420483Y-79314638D01*
X132459000Y-79121000D01*
X132459000Y-74752123D01*
X132529987Y-74681259D01*
X132633882Y-74431054D01*
X132634118Y-74160135D01*
X132530661Y-73909748D01*
X132339259Y-73718013D01*
X132089054Y-73614118D01*
X131818135Y-73613882D01*
X131567748Y-73717339D01*
X131376013Y-73908741D01*
X131272118Y-74158946D01*
X131271882Y-74429865D01*
X131375339Y-74680252D01*
X131447000Y-74752038D01*
X131447000Y-78911408D01*
X130221111Y-80137297D01*
X130221118Y-80129135D01*
X130117661Y-79878748D01*
X129926259Y-79687013D01*
X129676054Y-79583118D01*
X129405135Y-79582882D01*
X129154748Y-79686339D01*
X129011839Y-79829000D01*
X127980123Y-79829000D01*
X127909259Y-79758013D01*
X127659054Y-79654118D01*
X127388135Y-79653882D01*
X127137748Y-79757339D01*
X126946013Y-79948741D01*
X126842118Y-80198946D01*
X126841882Y-80469865D01*
X126945339Y-80720252D01*
X127035007Y-80810076D01*
X126846013Y-80998741D01*
X126742118Y-81248946D01*
X126741882Y-81519865D01*
X126845339Y-81770252D01*
X127036741Y-81961987D01*
X127234249Y-82044000D01*
X126433916Y-82044000D01*
X126497369Y-81725000D01*
X126402629Y-81248712D01*
X126132834Y-80844935D01*
X125729057Y-80575140D01*
X125252769Y-80480400D01*
X124893231Y-80480400D01*
X124416943Y-80575140D01*
X124013166Y-80844935D01*
X123950000Y-80939470D01*
X123950000Y-80416670D01*
X123981215Y-80429600D01*
X124850750Y-80429600D01*
X124946000Y-80334350D01*
X124946000Y-79312000D01*
X125200000Y-79312000D01*
X125200000Y-80334350D01*
X125295250Y-80429600D01*
X126164785Y-80429600D01*
X126304819Y-80371596D01*
X126411996Y-80264420D01*
X126470000Y-80124386D01*
X126470000Y-79407250D01*
X126374750Y-79312000D01*
X125200000Y-79312000D01*
X124946000Y-79312000D01*
X124926000Y-79312000D01*
X124926000Y-79058000D01*
X124946000Y-79058000D01*
X124946000Y-78035650D01*
X125200000Y-78035650D01*
X125200000Y-79058000D01*
X126374750Y-79058000D01*
X126470000Y-78962750D01*
X126470000Y-78245614D01*
X126411996Y-78105580D01*
X126304819Y-77998404D01*
X126164785Y-77940400D01*
X125295250Y-77940400D01*
X125200000Y-78035650D01*
X124946000Y-78035650D01*
X124850750Y-77940400D01*
X123981215Y-77940400D01*
X123950000Y-77953330D01*
X123950000Y-77400663D01*
X124571391Y-76662704D01*
X124644339Y-76839252D01*
X124835741Y-77030987D01*
X125085946Y-77134882D01*
X125356865Y-77135118D01*
X125607252Y-77031661D01*
X125679038Y-76960000D01*
X127254000Y-76960000D01*
X127447638Y-76921483D01*
X127611796Y-76811796D01*
X129180796Y-75242796D01*
X129290483Y-75078638D01*
X129329000Y-74885000D01*
X129329000Y-73242123D01*
X129399987Y-73171259D01*
X129503882Y-72921054D01*
X129504118Y-72650135D01*
X129400661Y-72399748D01*
X129209259Y-72208013D01*
X128959054Y-72104118D01*
X128776000Y-72103959D01*
X128776000Y-72016865D01*
X130890882Y-72016865D01*
X130994339Y-72267252D01*
X131185741Y-72458987D01*
X131435946Y-72562882D01*
X131537378Y-72562970D01*
X132484204Y-73509796D01*
X132648362Y-73619483D01*
X132842000Y-73658000D01*
X136696408Y-73658000D01*
X137748969Y-74710561D01*
X137748882Y-74810865D01*
X137852339Y-75061252D01*
X138043741Y-75252987D01*
X138293946Y-75356882D01*
X138564865Y-75357118D01*
X138815252Y-75253661D01*
X139006987Y-75062259D01*
X139110882Y-74812054D01*
X139111118Y-74541135D01*
X139007661Y-74290748D01*
X138816259Y-74099013D01*
X138566054Y-73995118D01*
X138464622Y-73995030D01*
X137263796Y-72794204D01*
X137099638Y-72684517D01*
X136906000Y-72646000D01*
X133051592Y-72646000D01*
X132253031Y-71847439D01*
X132253118Y-71747135D01*
X132149661Y-71496748D01*
X131958259Y-71305013D01*
X131708054Y-71201118D01*
X131437135Y-71200882D01*
X131186748Y-71304339D01*
X130995013Y-71495741D01*
X130891118Y-71745946D01*
X130890882Y-72016865D01*
X128776000Y-72016865D01*
X128776000Y-69850000D01*
X128737483Y-69656362D01*
X128627796Y-69492204D01*
X126744000Y-67608408D01*
X126744000Y-64739592D01*
X127217561Y-64266031D01*
X127317865Y-64266118D01*
X127568252Y-64162661D01*
X127759987Y-63971259D01*
X127853101Y-63747017D01*
X127945339Y-63970252D01*
X128136741Y-64161987D01*
X128386946Y-64265882D01*
X128488378Y-64265970D01*
X128565204Y-64342796D01*
X128729362Y-64452483D01*
X128923000Y-64491000D01*
X132659408Y-64491000D01*
X131722204Y-65428204D01*
X131612517Y-65592362D01*
X131574000Y-65786000D01*
X131574000Y-70612000D01*
X131612517Y-70805638D01*
X131722204Y-70969796D01*
X132160969Y-71408561D01*
X132160882Y-71508865D01*
X132264339Y-71759252D01*
X132455741Y-71950987D01*
X132705946Y-72054882D01*
X132976865Y-72055118D01*
X133227252Y-71951661D01*
X133418987Y-71760259D01*
X133522882Y-71510054D01*
X133523118Y-71239135D01*
X133419661Y-70988748D01*
X133228259Y-70797013D01*
X132978054Y-70693118D01*
X132876622Y-70693030D01*
X132586000Y-70402408D01*
X132586000Y-69031340D01*
X132832946Y-69133882D01*
X133103865Y-69134118D01*
X133354252Y-69030661D01*
X133545987Y-68839259D01*
X133649882Y-68589054D01*
X133650081Y-68360718D01*
X133695339Y-68470252D01*
X133886741Y-68661987D01*
X134136946Y-68765882D01*
X134407865Y-68766118D01*
X134658252Y-68662661D01*
X134730038Y-68591000D01*
X136115877Y-68591000D01*
X136186741Y-68661987D01*
X136436946Y-68765882D01*
X136707865Y-68766118D01*
X136958252Y-68662661D01*
X137149987Y-68471259D01*
X137253882Y-68221054D01*
X137254118Y-67950135D01*
X137198695Y-67816000D01*
X137210877Y-67816000D01*
X137281741Y-67886987D01*
X137531946Y-67990882D01*
X137802865Y-67991118D01*
X138053252Y-67887661D01*
X138244987Y-67696259D01*
X138348882Y-67446054D01*
X138349118Y-67175135D01*
X138245661Y-66924748D01*
X138054259Y-66733013D01*
X137804054Y-66629118D01*
X137533135Y-66628882D01*
X137282748Y-66732339D01*
X137254395Y-66760642D01*
X137353882Y-66521054D01*
X137354118Y-66250135D01*
X137250661Y-65999748D01*
X137059259Y-65808013D01*
X136809054Y-65704118D01*
X136538135Y-65703882D01*
X136287748Y-65807339D01*
X136096013Y-65998741D01*
X136062686Y-66079000D01*
X133530123Y-66079000D01*
X133459259Y-66008013D01*
X133209054Y-65904118D01*
X132938135Y-65903882D01*
X132687748Y-66007339D01*
X132586000Y-66108910D01*
X132586000Y-65995592D01*
X133920832Y-64660760D01*
X134158252Y-64562661D01*
X134349987Y-64371259D01*
X134453882Y-64121054D01*
X134454118Y-63850135D01*
X134350661Y-63599748D01*
X134159259Y-63408013D01*
X134118287Y-63391000D01*
X136759000Y-63391000D01*
X136952638Y-63352483D01*
X137116796Y-63242796D01*
X137956561Y-62403031D01*
X138056865Y-62403118D01*
X138307252Y-62299661D01*
X138498987Y-62108259D01*
X138602882Y-61858054D01*
X138603118Y-61587135D01*
X138499661Y-61336748D01*
X138308259Y-61145013D01*
X138058054Y-61041118D01*
X137787135Y-61040882D01*
X137536748Y-61144339D01*
X137345013Y-61335741D01*
X137241118Y-61585946D01*
X137241030Y-61687378D01*
X136549408Y-62379000D01*
X133930123Y-62379000D01*
X133859259Y-62308013D01*
X133609054Y-62204118D01*
X133338135Y-62203882D01*
X133323778Y-62209814D01*
X134575592Y-60958000D01*
X138474408Y-60958000D01*
X139194000Y-61677592D01*
X139194000Y-61677592D01*
G37*
X139194000Y-61677592D02*
X139194000Y-90722408D01*
X138649439Y-91266969D01*
X138549135Y-91266882D01*
X138298748Y-91370339D01*
X138107013Y-91561741D01*
X138003118Y-91811946D01*
X138002882Y-92082865D01*
X138106339Y-92333252D01*
X138297741Y-92524987D01*
X138547946Y-92628882D01*
X138811297Y-92629111D01*
X138049311Y-93391098D01*
X137796449Y-93138236D01*
X137677827Y-93057186D01*
X137527130Y-93024495D01*
X137375587Y-93053010D01*
X137247077Y-93138236D01*
X135810236Y-94575077D01*
X135729186Y-94693699D01*
X135696495Y-94844396D01*
X135725010Y-94995939D01*
X135810236Y-95124449D01*
X137031551Y-96345764D01*
X137150173Y-96426814D01*
X137300870Y-96459505D01*
X137452413Y-96430990D01*
X137580923Y-96345764D01*
X139017764Y-94908923D01*
X139098814Y-94790301D01*
X139131505Y-94639604D01*
X139102990Y-94488061D01*
X139017764Y-94359551D01*
X138764903Y-94106690D01*
X140260000Y-92611592D01*
X140260000Y-93218000D01*
X140268762Y-93262050D01*
X140268762Y-93306961D01*
X140423439Y-94084574D01*
X140491527Y-94248953D01*
X140932009Y-94908181D01*
X141057819Y-95033992D01*
X141057823Y-95033994D01*
X141717047Y-95474473D01*
X141881426Y-95542561D01*
X142659038Y-95697238D01*
X142703950Y-95697238D01*
X142748000Y-95706000D01*
X147476406Y-95706000D01*
X140091753Y-103090653D01*
X140126882Y-103006054D01*
X140126970Y-102904622D01*
X142343796Y-100687796D01*
X142453483Y-100523638D01*
X142492000Y-100330000D01*
X142492000Y-99314000D01*
X142453483Y-99120362D01*
X142343796Y-98956204D01*
X142198078Y-98810486D01*
X142283078Y-98683274D01*
X142377818Y-98206986D01*
X142283078Y-97730699D01*
X142013283Y-97326921D01*
X141609505Y-97057126D01*
X141133218Y-96962386D01*
X140656930Y-97057126D01*
X140253153Y-97326921D01*
X139998921Y-97581153D01*
X139729126Y-97984931D01*
X139634386Y-98461218D01*
X139729126Y-98937505D01*
X139998921Y-99341283D01*
X140402699Y-99611078D01*
X140878986Y-99705818D01*
X141355273Y-99611078D01*
X141480000Y-99527738D01*
X141480000Y-100120408D01*
X139411439Y-102188969D01*
X139311135Y-102188882D01*
X139060748Y-102292339D01*
X138869013Y-102483741D01*
X138765118Y-102733946D01*
X138764882Y-103004865D01*
X138838898Y-103183998D01*
X138315192Y-103183998D01*
X136065590Y-100934396D01*
X136866495Y-100934396D01*
X136895010Y-101085939D01*
X136980236Y-101214449D01*
X138201551Y-102435764D01*
X138320173Y-102516814D01*
X138470870Y-102549505D01*
X138622413Y-102520990D01*
X138750923Y-102435764D01*
X140187764Y-100998923D01*
X140268814Y-100880301D01*
X140301505Y-100729604D01*
X140272990Y-100578061D01*
X140187764Y-100449551D01*
X138966449Y-99228236D01*
X138847827Y-99147186D01*
X138697130Y-99114495D01*
X138545587Y-99143010D01*
X138417077Y-99228236D01*
X136980236Y-100665077D01*
X136899186Y-100783699D01*
X136866495Y-100934396D01*
X136065590Y-100934396D01*
X134294259Y-99163065D01*
X135416233Y-99163065D01*
X135510973Y-99639352D01*
X135780768Y-100043130D01*
X136184546Y-100312925D01*
X136660833Y-100407665D01*
X137137120Y-100312925D01*
X137540898Y-100043130D01*
X137795130Y-99788898D01*
X138064925Y-99385121D01*
X138159665Y-98908833D01*
X138064925Y-98432546D01*
X137795130Y-98028768D01*
X137391352Y-97758973D01*
X136915065Y-97664233D01*
X136438777Y-97758973D01*
X136035000Y-98028768D01*
X135780768Y-98283000D01*
X135510973Y-98686778D01*
X135416233Y-99163065D01*
X134294259Y-99163065D01*
X132498208Y-97367014D01*
X133620182Y-97367014D01*
X133714922Y-97843301D01*
X133984717Y-98247079D01*
X134388495Y-98516874D01*
X134864782Y-98611614D01*
X135341069Y-98516874D01*
X135744847Y-98247079D01*
X135999079Y-97992847D01*
X136268874Y-97589070D01*
X136363614Y-97112782D01*
X136274578Y-96665167D01*
X137838335Y-96665167D01*
X137933075Y-97141454D01*
X138202870Y-97545232D01*
X138606648Y-97815027D01*
X139082935Y-97909767D01*
X139559222Y-97815027D01*
X139963000Y-97545232D01*
X140217232Y-97291000D01*
X140487027Y-96887223D01*
X140581767Y-96410935D01*
X140487027Y-95934648D01*
X140217232Y-95530870D01*
X139813454Y-95261075D01*
X139337167Y-95166335D01*
X138860879Y-95261075D01*
X138457102Y-95530870D01*
X138202870Y-95785102D01*
X137933075Y-96188880D01*
X137838335Y-96665167D01*
X136274578Y-96665167D01*
X136268874Y-96636495D01*
X135999079Y-96232717D01*
X135595301Y-95962922D01*
X135119014Y-95868182D01*
X134642726Y-95962922D01*
X134238949Y-96232717D01*
X133984717Y-96486949D01*
X133714922Y-96890727D01*
X133620182Y-97367014D01*
X132498208Y-97367014D01*
X130046000Y-94914806D01*
X130046000Y-93929123D01*
X130116987Y-93858259D01*
X130220882Y-93608054D01*
X130221118Y-93337135D01*
X130117661Y-93086748D01*
X129926259Y-92895013D01*
X129676054Y-92791118D01*
X129405135Y-92790882D01*
X129154748Y-92894339D01*
X128963013Y-93085741D01*
X128859118Y-93335946D01*
X128858882Y-93606865D01*
X128943956Y-93812762D01*
X124570787Y-89439593D01*
X124632882Y-89290054D01*
X124633118Y-89019135D01*
X124529661Y-88768748D01*
X124338259Y-88577013D01*
X124088054Y-88473118D01*
X123817135Y-88472882D01*
X123566748Y-88576339D01*
X123450000Y-88692884D01*
X123450000Y-87335592D01*
X124564204Y-88449796D01*
X124728362Y-88559483D01*
X124922000Y-88598000D01*
X131526000Y-88598000D01*
X131719638Y-88559483D01*
X131883796Y-88449796D01*
X133820936Y-86512656D01*
X133820936Y-87948600D01*
X133847503Y-88089790D01*
X133930946Y-88219465D01*
X134058266Y-88306459D01*
X134209400Y-88337064D01*
X135936600Y-88337064D01*
X136077790Y-88310497D01*
X136207465Y-88227054D01*
X136294459Y-88099734D01*
X136325064Y-87948600D01*
X136325064Y-87060617D01*
X136368400Y-87060617D01*
X136368400Y-87109383D01*
X136463140Y-87585671D01*
X136732935Y-87989448D01*
X137136712Y-88259243D01*
X137613000Y-88353983D01*
X138089288Y-88259243D01*
X138493065Y-87989448D01*
X138762860Y-87585671D01*
X138857600Y-87109383D01*
X138857600Y-87060617D01*
X138762860Y-86584329D01*
X138493065Y-86180552D01*
X138089288Y-85910757D01*
X137613000Y-85816017D01*
X137136712Y-85910757D01*
X136732935Y-86180552D01*
X136463140Y-86584329D01*
X136368400Y-87060617D01*
X136325064Y-87060617D01*
X136325064Y-86221400D01*
X136298497Y-86080210D01*
X136215054Y-85950535D01*
X136087734Y-85863541D01*
X135936600Y-85832936D01*
X134500656Y-85832936D01*
X134611423Y-85722169D01*
X135073000Y-85813983D01*
X135549288Y-85719243D01*
X135953065Y-85449448D01*
X136222860Y-85045671D01*
X136317600Y-84569383D01*
X136317600Y-84520617D01*
X136368400Y-84520617D01*
X136368400Y-84569383D01*
X136463140Y-85045671D01*
X136732935Y-85449448D01*
X137136712Y-85719243D01*
X137613000Y-85813983D01*
X138089288Y-85719243D01*
X138493065Y-85449448D01*
X138762860Y-85045671D01*
X138857600Y-84569383D01*
X138857600Y-84520617D01*
X138762860Y-84044329D01*
X138493065Y-83640552D01*
X138089288Y-83370757D01*
X137613000Y-83276017D01*
X137136712Y-83370757D01*
X136732935Y-83640552D01*
X136463140Y-84044329D01*
X136368400Y-84520617D01*
X136317600Y-84520617D01*
X136222860Y-84044329D01*
X135953065Y-83640552D01*
X135549288Y-83370757D01*
X135073000Y-83276017D01*
X134596712Y-83370757D01*
X134192935Y-83640552D01*
X133923140Y-84044329D01*
X133828400Y-84520617D01*
X133828400Y-84569383D01*
X133912123Y-84990285D01*
X131316408Y-87586000D01*
X125131592Y-87586000D01*
X123950000Y-86404408D01*
X123950000Y-85050530D01*
X124013166Y-85145065D01*
X124416943Y-85414860D01*
X124893231Y-85509600D01*
X125252769Y-85509600D01*
X125729057Y-85414860D01*
X126132834Y-85145065D01*
X126402629Y-84741288D01*
X126497369Y-84265000D01*
X126402629Y-83788712D01*
X126132834Y-83384935D01*
X125729057Y-83115140D01*
X125252769Y-83020400D01*
X124893231Y-83020400D01*
X124416943Y-83115140D01*
X124013166Y-83384935D01*
X123950000Y-83479470D01*
X123950000Y-82510530D01*
X124013166Y-82605065D01*
X124416943Y-82874860D01*
X124893231Y-82969600D01*
X125252769Y-82969600D01*
X125545543Y-82911363D01*
X125704362Y-83017483D01*
X125898000Y-83056000D01*
X128524000Y-83056000D01*
X128717638Y-83017483D01*
X128881796Y-82907796D01*
X129808975Y-81980617D01*
X133828400Y-81980617D01*
X133828400Y-82029383D01*
X133923140Y-82505671D01*
X134192935Y-82909448D01*
X134596712Y-83179243D01*
X135073000Y-83273983D01*
X135549288Y-83179243D01*
X135953065Y-82909448D01*
X136222860Y-82505671D01*
X136317600Y-82029383D01*
X136317600Y-81980617D01*
X136368400Y-81980617D01*
X136368400Y-82029383D01*
X136463140Y-82505671D01*
X136732935Y-82909448D01*
X137136712Y-83179243D01*
X137613000Y-83273983D01*
X138089288Y-83179243D01*
X138493065Y-82909448D01*
X138762860Y-82505671D01*
X138857600Y-82029383D01*
X138857600Y-81980617D01*
X138762860Y-81504329D01*
X138493065Y-81100552D01*
X138089288Y-80830757D01*
X137613000Y-80736017D01*
X137136712Y-80830757D01*
X136732935Y-81100552D01*
X136463140Y-81504329D01*
X136368400Y-81980617D01*
X136317600Y-81980617D01*
X136222860Y-81504329D01*
X135953065Y-81100552D01*
X135549288Y-80830757D01*
X135073000Y-80736017D01*
X134596712Y-80830757D01*
X134192935Y-81100552D01*
X133923140Y-81504329D01*
X133828400Y-81980617D01*
X129808975Y-81980617D01*
X132310796Y-79478796D01*
X132336306Y-79440617D01*
X133828400Y-79440617D01*
X133828400Y-79489383D01*
X133923140Y-79965671D01*
X134192935Y-80369448D01*
X134596712Y-80639243D01*
X135073000Y-80733983D01*
X135549288Y-80639243D01*
X135953065Y-80369448D01*
X136222860Y-79965671D01*
X136258972Y-79784120D01*
X136409995Y-79784120D01*
X136623690Y-80220199D01*
X136987999Y-80541305D01*
X137293882Y-80667993D01*
X137486000Y-80607312D01*
X137486000Y-79592000D01*
X137740000Y-79592000D01*
X137740000Y-80607312D01*
X137932118Y-80667993D01*
X138238001Y-80541305D01*
X138602310Y-80220199D01*
X138816005Y-79784120D01*
X138755865Y-79592000D01*
X137740000Y-79592000D01*
X137486000Y-79592000D01*
X136470135Y-79592000D01*
X136409995Y-79784120D01*
X136258972Y-79784120D01*
X136317600Y-79489383D01*
X136317600Y-79440617D01*
X136258973Y-79145880D01*
X136409995Y-79145880D01*
X136470135Y-79338000D01*
X137486000Y-79338000D01*
X137486000Y-78322688D01*
X137740000Y-78322688D01*
X137740000Y-79338000D01*
X138755865Y-79338000D01*
X138816005Y-79145880D01*
X138602310Y-78709801D01*
X138238001Y-78388695D01*
X137932118Y-78262007D01*
X137740000Y-78322688D01*
X137486000Y-78322688D01*
X137293882Y-78262007D01*
X136987999Y-78388695D01*
X136623690Y-78709801D01*
X136409995Y-79145880D01*
X136258973Y-79145880D01*
X136222860Y-78964329D01*
X135953065Y-78560552D01*
X135549288Y-78290757D01*
X135073000Y-78196017D01*
X134596712Y-78290757D01*
X134192935Y-78560552D01*
X133923140Y-78964329D01*
X133828400Y-79440617D01*
X132336306Y-79440617D01*
X132420483Y-79314638D01*
X132459000Y-79121000D01*
X132459000Y-74752123D01*
X132529987Y-74681259D01*
X132633882Y-74431054D01*
X132634118Y-74160135D01*
X132530661Y-73909748D01*
X132339259Y-73718013D01*
X132089054Y-73614118D01*
X131818135Y-73613882D01*
X131567748Y-73717339D01*
X131376013Y-73908741D01*
X131272118Y-74158946D01*
X131271882Y-74429865D01*
X131375339Y-74680252D01*
X131447000Y-74752038D01*
X131447000Y-78911408D01*
X130221111Y-80137297D01*
X130221118Y-80129135D01*
X130117661Y-79878748D01*
X129926259Y-79687013D01*
X129676054Y-79583118D01*
X129405135Y-79582882D01*
X129154748Y-79686339D01*
X129011839Y-79829000D01*
X127980123Y-79829000D01*
X127909259Y-79758013D01*
X127659054Y-79654118D01*
X127388135Y-79653882D01*
X127137748Y-79757339D01*
X126946013Y-79948741D01*
X126842118Y-80198946D01*
X126841882Y-80469865D01*
X126945339Y-80720252D01*
X127035007Y-80810076D01*
X126846013Y-80998741D01*
X126742118Y-81248946D01*
X126741882Y-81519865D01*
X126845339Y-81770252D01*
X127036741Y-81961987D01*
X127234249Y-82044000D01*
X126433916Y-82044000D01*
X126497369Y-81725000D01*
X126402629Y-81248712D01*
X126132834Y-80844935D01*
X125729057Y-80575140D01*
X125252769Y-80480400D01*
X124893231Y-80480400D01*
X124416943Y-80575140D01*
X124013166Y-80844935D01*
X123950000Y-80939470D01*
X123950000Y-80416670D01*
X123981215Y-80429600D01*
X124850750Y-80429600D01*
X124946000Y-80334350D01*
X124946000Y-79312000D01*
X125200000Y-79312000D01*
X125200000Y-80334350D01*
X125295250Y-80429600D01*
X126164785Y-80429600D01*
X126304819Y-80371596D01*
X126411996Y-80264420D01*
X126470000Y-80124386D01*
X126470000Y-79407250D01*
X126374750Y-79312000D01*
X125200000Y-79312000D01*
X124946000Y-79312000D01*
X124926000Y-79312000D01*
X124926000Y-79058000D01*
X124946000Y-79058000D01*
X124946000Y-78035650D01*
X125200000Y-78035650D01*
X125200000Y-79058000D01*
X126374750Y-79058000D01*
X126470000Y-78962750D01*
X126470000Y-78245614D01*
X126411996Y-78105580D01*
X126304819Y-77998404D01*
X126164785Y-77940400D01*
X125295250Y-77940400D01*
X125200000Y-78035650D01*
X124946000Y-78035650D01*
X124850750Y-77940400D01*
X123981215Y-77940400D01*
X123950000Y-77953330D01*
X123950000Y-77400663D01*
X124571391Y-76662704D01*
X124644339Y-76839252D01*
X124835741Y-77030987D01*
X125085946Y-77134882D01*
X125356865Y-77135118D01*
X125607252Y-77031661D01*
X125679038Y-76960000D01*
X127254000Y-76960000D01*
X127447638Y-76921483D01*
X127611796Y-76811796D01*
X129180796Y-75242796D01*
X129290483Y-75078638D01*
X129329000Y-74885000D01*
X129329000Y-73242123D01*
X129399987Y-73171259D01*
X129503882Y-72921054D01*
X129504118Y-72650135D01*
X129400661Y-72399748D01*
X129209259Y-72208013D01*
X128959054Y-72104118D01*
X128776000Y-72103959D01*
X128776000Y-72016865D01*
X130890882Y-72016865D01*
X130994339Y-72267252D01*
X131185741Y-72458987D01*
X131435946Y-72562882D01*
X131537378Y-72562970D01*
X132484204Y-73509796D01*
X132648362Y-73619483D01*
X132842000Y-73658000D01*
X136696408Y-73658000D01*
X137748969Y-74710561D01*
X137748882Y-74810865D01*
X137852339Y-75061252D01*
X138043741Y-75252987D01*
X138293946Y-75356882D01*
X138564865Y-75357118D01*
X138815252Y-75253661D01*
X139006987Y-75062259D01*
X139110882Y-74812054D01*
X139111118Y-74541135D01*
X139007661Y-74290748D01*
X138816259Y-74099013D01*
X138566054Y-73995118D01*
X138464622Y-73995030D01*
X137263796Y-72794204D01*
X137099638Y-72684517D01*
X136906000Y-72646000D01*
X133051592Y-72646000D01*
X132253031Y-71847439D01*
X132253118Y-71747135D01*
X132149661Y-71496748D01*
X131958259Y-71305013D01*
X131708054Y-71201118D01*
X131437135Y-71200882D01*
X131186748Y-71304339D01*
X130995013Y-71495741D01*
X130891118Y-71745946D01*
X130890882Y-72016865D01*
X128776000Y-72016865D01*
X128776000Y-69850000D01*
X128737483Y-69656362D01*
X128627796Y-69492204D01*
X126744000Y-67608408D01*
X126744000Y-64739592D01*
X127217561Y-64266031D01*
X127317865Y-64266118D01*
X127568252Y-64162661D01*
X127759987Y-63971259D01*
X127853101Y-63747017D01*
X127945339Y-63970252D01*
X128136741Y-64161987D01*
X128386946Y-64265882D01*
X128488378Y-64265970D01*
X128565204Y-64342796D01*
X128729362Y-64452483D01*
X128923000Y-64491000D01*
X132659408Y-64491000D01*
X131722204Y-65428204D01*
X131612517Y-65592362D01*
X131574000Y-65786000D01*
X131574000Y-70612000D01*
X131612517Y-70805638D01*
X131722204Y-70969796D01*
X132160969Y-71408561D01*
X132160882Y-71508865D01*
X132264339Y-71759252D01*
X132455741Y-71950987D01*
X132705946Y-72054882D01*
X132976865Y-72055118D01*
X133227252Y-71951661D01*
X133418987Y-71760259D01*
X133522882Y-71510054D01*
X133523118Y-71239135D01*
X133419661Y-70988748D01*
X133228259Y-70797013D01*
X132978054Y-70693118D01*
X132876622Y-70693030D01*
X132586000Y-70402408D01*
X132586000Y-69031340D01*
X132832946Y-69133882D01*
X133103865Y-69134118D01*
X133354252Y-69030661D01*
X133545987Y-68839259D01*
X133649882Y-68589054D01*
X133650081Y-68360718D01*
X133695339Y-68470252D01*
X133886741Y-68661987D01*
X134136946Y-68765882D01*
X134407865Y-68766118D01*
X134658252Y-68662661D01*
X134730038Y-68591000D01*
X136115877Y-68591000D01*
X136186741Y-68661987D01*
X136436946Y-68765882D01*
X136707865Y-68766118D01*
X136958252Y-68662661D01*
X137149987Y-68471259D01*
X137253882Y-68221054D01*
X137254118Y-67950135D01*
X137198695Y-67816000D01*
X137210877Y-67816000D01*
X137281741Y-67886987D01*
X137531946Y-67990882D01*
X137802865Y-67991118D01*
X138053252Y-67887661D01*
X138244987Y-67696259D01*
X138348882Y-67446054D01*
X138349118Y-67175135D01*
X138245661Y-66924748D01*
X138054259Y-66733013D01*
X137804054Y-66629118D01*
X137533135Y-66628882D01*
X137282748Y-66732339D01*
X137254395Y-66760642D01*
X137353882Y-66521054D01*
X137354118Y-66250135D01*
X137250661Y-65999748D01*
X137059259Y-65808013D01*
X136809054Y-65704118D01*
X136538135Y-65703882D01*
X136287748Y-65807339D01*
X136096013Y-65998741D01*
X136062686Y-66079000D01*
X133530123Y-66079000D01*
X133459259Y-66008013D01*
X133209054Y-65904118D01*
X132938135Y-65903882D01*
X132687748Y-66007339D01*
X132586000Y-66108910D01*
X132586000Y-65995592D01*
X133920832Y-64660760D01*
X134158252Y-64562661D01*
X134349987Y-64371259D01*
X134453882Y-64121054D01*
X134454118Y-63850135D01*
X134350661Y-63599748D01*
X134159259Y-63408013D01*
X134118287Y-63391000D01*
X136759000Y-63391000D01*
X136952638Y-63352483D01*
X137116796Y-63242796D01*
X137956561Y-62403031D01*
X138056865Y-62403118D01*
X138307252Y-62299661D01*
X138498987Y-62108259D01*
X138602882Y-61858054D01*
X138603118Y-61587135D01*
X138499661Y-61336748D01*
X138308259Y-61145013D01*
X138058054Y-61041118D01*
X137787135Y-61040882D01*
X137536748Y-61144339D01*
X137345013Y-61335741D01*
X137241118Y-61585946D01*
X137241030Y-61687378D01*
X136549408Y-62379000D01*
X133930123Y-62379000D01*
X133859259Y-62308013D01*
X133609054Y-62204118D01*
X133338135Y-62203882D01*
X133323778Y-62209814D01*
X134575592Y-60958000D01*
X138474408Y-60958000D01*
X139194000Y-61677592D01*
G36*
X140260000Y-59534408D02*
X139295796Y-58570204D01*
X139131638Y-58460517D01*
X138938000Y-58422000D01*
X133858000Y-58422000D01*
X133664362Y-58460517D01*
X133500204Y-58570204D01*
X133140408Y-58930000D01*
X132588000Y-58930000D01*
X132394362Y-58968517D01*
X132230204Y-59078204D01*
X130115204Y-61193204D01*
X130005517Y-61357362D01*
X129967000Y-61551000D01*
X129967000Y-62527877D01*
X129896013Y-62598741D01*
X129792118Y-62848946D01*
X129791882Y-63119865D01*
X129895339Y-63370252D01*
X130003898Y-63479000D01*
X129204093Y-63479000D01*
X129204118Y-63450135D01*
X129100661Y-63199748D01*
X128909259Y-63008013D01*
X128659054Y-62904118D01*
X128388135Y-62903882D01*
X128137748Y-63007339D01*
X127946013Y-63198741D01*
X127852899Y-63422983D01*
X127760661Y-63199748D01*
X127666158Y-63105081D01*
X127669987Y-63101259D01*
X127773882Y-62851054D01*
X127774118Y-62580135D01*
X127670661Y-62329748D01*
X127479259Y-62138013D01*
X127229054Y-62034118D01*
X126958135Y-62033882D01*
X126707748Y-62137339D01*
X126635962Y-62209000D01*
X126091000Y-62209000D01*
X125897362Y-62247517D01*
X125733204Y-62357204D01*
X122945204Y-65145204D01*
X122835517Y-65309362D01*
X122797000Y-65503000D01*
X122797000Y-65797877D01*
X122726013Y-65868741D01*
X122622118Y-66118946D01*
X122621882Y-66389865D01*
X122725339Y-66640252D01*
X122916741Y-66831987D01*
X123166946Y-66935882D01*
X123437865Y-66936118D01*
X123688252Y-66832661D01*
X123879987Y-66641259D01*
X123983882Y-66391054D01*
X123984118Y-66120135D01*
X123880661Y-65869748D01*
X123809000Y-65797962D01*
X123809000Y-65712592D01*
X126300592Y-63221000D01*
X126596770Y-63221000D01*
X126502118Y-63448946D01*
X126502030Y-63550378D01*
X125880204Y-64172204D01*
X125770517Y-64336362D01*
X125732000Y-64530000D01*
X125732000Y-67818000D01*
X125770517Y-68011638D01*
X125880204Y-68175796D01*
X126552428Y-68848020D01*
X126492000Y-68836000D01*
X123698000Y-68836000D01*
X123504362Y-68874517D01*
X123340204Y-68984204D01*
X122376000Y-69948408D01*
X122376000Y-58293000D01*
X140260000Y-58293000D01*
X140260000Y-59534408D01*
X140260000Y-59534408D01*
G37*
X140260000Y-59534408D02*
X139295796Y-58570204D01*
X139131638Y-58460517D01*
X138938000Y-58422000D01*
X133858000Y-58422000D01*
X133664362Y-58460517D01*
X133500204Y-58570204D01*
X133140408Y-58930000D01*
X132588000Y-58930000D01*
X132394362Y-58968517D01*
X132230204Y-59078204D01*
X130115204Y-61193204D01*
X130005517Y-61357362D01*
X129967000Y-61551000D01*
X129967000Y-62527877D01*
X129896013Y-62598741D01*
X129792118Y-62848946D01*
X129791882Y-63119865D01*
X129895339Y-63370252D01*
X130003898Y-63479000D01*
X129204093Y-63479000D01*
X129204118Y-63450135D01*
X129100661Y-63199748D01*
X128909259Y-63008013D01*
X128659054Y-62904118D01*
X128388135Y-62903882D01*
X128137748Y-63007339D01*
X127946013Y-63198741D01*
X127852899Y-63422983D01*
X127760661Y-63199748D01*
X127666158Y-63105081D01*
X127669987Y-63101259D01*
X127773882Y-62851054D01*
X127774118Y-62580135D01*
X127670661Y-62329748D01*
X127479259Y-62138013D01*
X127229054Y-62034118D01*
X126958135Y-62033882D01*
X126707748Y-62137339D01*
X126635962Y-62209000D01*
X126091000Y-62209000D01*
X125897362Y-62247517D01*
X125733204Y-62357204D01*
X122945204Y-65145204D01*
X122835517Y-65309362D01*
X122797000Y-65503000D01*
X122797000Y-65797877D01*
X122726013Y-65868741D01*
X122622118Y-66118946D01*
X122621882Y-66389865D01*
X122725339Y-66640252D01*
X122916741Y-66831987D01*
X123166946Y-66935882D01*
X123437865Y-66936118D01*
X123688252Y-66832661D01*
X123879987Y-66641259D01*
X123983882Y-66391054D01*
X123984118Y-66120135D01*
X123880661Y-65869748D01*
X123809000Y-65797962D01*
X123809000Y-65712592D01*
X126300592Y-63221000D01*
X126596770Y-63221000D01*
X126502118Y-63448946D01*
X126502030Y-63550378D01*
X125880204Y-64172204D01*
X125770517Y-64336362D01*
X125732000Y-64530000D01*
X125732000Y-67818000D01*
X125770517Y-68011638D01*
X125880204Y-68175796D01*
X126552428Y-68848020D01*
X126492000Y-68836000D01*
X123698000Y-68836000D01*
X123504362Y-68874517D01*
X123340204Y-68984204D01*
X122376000Y-69948408D01*
X122376000Y-58293000D01*
X140260000Y-58293000D01*
X140260000Y-59534408D01*
G36*
X139702000Y-60407592D02*
X139702000Y-60754408D01*
X139041796Y-60094204D01*
X138877638Y-59984517D01*
X138684000Y-59946000D01*
X134366000Y-59946000D01*
X134172362Y-59984517D01*
X134008204Y-60094204D01*
X131807437Y-62294971D01*
X131709054Y-62254118D01*
X131438135Y-62253882D01*
X131187748Y-62357339D01*
X130997881Y-62546876D01*
X130979000Y-62527962D01*
X130979000Y-61760592D01*
X132797592Y-59942000D01*
X133350000Y-59942000D01*
X133543638Y-59903483D01*
X133707796Y-59793796D01*
X134067592Y-59434000D01*
X138728408Y-59434000D01*
X139702000Y-60407592D01*
X139702000Y-60407592D01*
G37*
X139702000Y-60407592D02*
X139702000Y-60754408D01*
X139041796Y-60094204D01*
X138877638Y-59984517D01*
X138684000Y-59946000D01*
X134366000Y-59946000D01*
X134172362Y-59984517D01*
X134008204Y-60094204D01*
X131807437Y-62294971D01*
X131709054Y-62254118D01*
X131438135Y-62253882D01*
X131187748Y-62357339D01*
X130997881Y-62546876D01*
X130979000Y-62527962D01*
X130979000Y-61760592D01*
X132797592Y-59942000D01*
X133350000Y-59942000D01*
X133543638Y-59903483D01*
X133707796Y-59793796D01*
X134067592Y-59434000D01*
X138728408Y-59434000D01*
X139702000Y-60407592D01*
M02*
