M48
;DRILL file {KiCad (2015-11-24 BZR 6329)-product} date Wed 28 Sep 2016 12:51:09 PM EDT
;FORMAT={-:-/ absolute / inch / decimal}
FMAT,2
INCH,TZ
T1C0.016
T2C0.030
T3C0.039
T4C0.040
T5C0.043
T6C0.083
T7C0.098
%
G90
G05
M72
T1
X4.79Y-4.37
X4.8Y-4.43
X4.84Y-3.56
X4.8485Y-2.3959
X4.8544Y-2.6085
X4.86Y-2.7
X4.88Y-3.51
X4.9127Y-2.7841
X4.9133Y-2.8232
X4.923Y-3.6402
X4.9269Y-4.7213
X4.93Y-3.01
X4.96Y-3.7
X4.9781Y-2.8095
X5.Y-2.78
X5.0037Y-2.4691
X5.0072Y-2.5033
X5.0167Y-3.2041
X5.019Y-2.914
X5.0206Y-3.1628
X5.0235Y-2.3596
X5.0477Y-2.6032
X5.06Y-2.5033
X5.0718Y-2.8656
X5.08Y-3.19
X5.1Y-3.16
X5.1Y-3.68
X5.1043Y-2.963
X5.1156Y-2.6712
X5.1367Y-2.4797
X5.18Y-2.83
X5.18Y-2.4778
X5.195Y-2.925
X5.23Y-2.81
X5.2301Y-2.3061
X5.2302Y-2.401
X5.235Y-2.695
X5.2391Y-2.6215
X5.2548Y-2.4758
X5.26Y-4.05
X5.2667Y-2.5191
X5.2863Y-2.6805
X5.32Y-2.35
X5.3769Y-2.6805
X5.3808Y-2.6136
X5.42Y-2.65
X5.42Y-4.28
X5.43Y-2.43
X5.45Y-2.94
X5.46Y-3.62
X5.49Y-4.05
X5.54Y-4.24
X5.63Y-4.04
X5.8454Y-3.8954
X6.0659Y-3.9667
X6.08Y-4.03
X6.1072Y-3.9706
X6.11Y-4.05
X6.25Y-3.87
X6.307Y-4.0543
X6.345Y-4.145
X6.356Y-3.969
X6.4044Y-4.0218
X6.4187Y-4.1446
X6.4468Y-3.8633
X6.4584Y-3.9631
X6.46Y-4.18
X6.4859Y-3.8627
X6.4978Y-3.9513
X6.57Y-3.81
X6.575Y-4.185
X6.5895Y-4.2363
X6.5895Y-4.3269
X6.5988Y-4.0656
X6.62Y-4.37
X6.6485Y-4.1891
X6.6564Y-4.3308
X6.6615Y-3.8044
X6.6668Y-3.9977
X6.7509Y-4.2167
X6.7667Y-3.9572
X6.7667Y-4.01
X6.7903Y-4.0867
X6.7922Y-4.13
X6.7942Y-4.2048
X6.8009Y-3.9537
X6.84Y-4.38
X6.869Y-4.1802
X6.8741Y-3.7985
X6.9104Y-3.9735
X6.94Y-4.27
X6.9639Y-4.1796
T2
X4.9586Y-4.1386
X5.1Y-4.28
T3
X4.5107Y-4.5468
X4.5803Y-4.6164
X4.6362Y-4.6724
X4.7055Y-4.7417
T4
X4.9241Y-3.1175
X4.9241Y-3.2175
X4.9241Y-3.3175
X5.1293Y-4.0393
X5.2Y-4.11
X5.3146Y-3.8283
X5.3178Y-3.1285
X5.3178Y-3.2285
X5.3178Y-3.3285
X5.3178Y-3.4285
X5.3854Y-3.8991
X5.41Y-3.73
X5.4178Y-3.1285
X5.4178Y-3.2285
X5.4178Y-3.3285
X5.4178Y-3.4285
X5.4561Y-3.9698
X5.4807Y-3.8007
X5.5514Y-3.8714
X5.8415Y-4.2678
X5.8415Y-4.3678
X5.9415Y-4.2678
X5.9415Y-4.3678
X5.9525Y-3.8741
X6.0415Y-4.2678
X6.0415Y-4.3678
X6.0525Y-3.8741
X6.1415Y-4.2678
X6.1415Y-4.3678
X6.1525Y-3.8741
T5
X4.487Y-4.6401
X4.6123Y-4.7653
T6
X4.873Y-2.2278
X5.4635Y-2.2278
X7.0422Y-3.823
X7.0422Y-4.4135
T7
X4.3868Y-4.5399
X4.7125Y-4.8656
T0
M30
