M48
; DRILL file {KiCad 5.1.4} date Mon 30 Dec 2019 09:19:50 PM EST
; FORMAT={-:-/ absolute / inch / decimal}
; #@! TF.CreationDate,2019-12-30T21:19:50-05:00
; #@! TF.GenerationSoftware,Kicad,Pcbnew,5.1.4
FMAT,2
INCH
T1C0.0157
T2C0.0315
T3C0.0394
T4C0.0394
T5C0.0472
T6C0.0512
T7C0.0591
T8C0.0669
T9C0.1181
T10C0.2953
%
G90
G05
T1
X5.7Y-1.48
X6.34Y-2.88
X7.1Y-2.62
X7.2Y-2.38
X7.24Y-2.24
X7.7Y-2.26
T2
X5.98Y-1.28
X6.08Y-1.28
X6.18Y-1.28
X5.26Y-3.1
X5.26Y-3.2
X5.26Y-3.3
X5.26Y-3.4
X5.56Y-3.1
X5.56Y-3.2
X5.56Y-3.3
X5.56Y-3.4
X6.93Y-1.54
X6.93Y-1.64
X6.93Y-1.74
X6.93Y-1.84
X7.23Y-1.54
X7.23Y-1.64
X7.23Y-1.74
X7.23Y-1.84
X8.18Y-1.54
X8.18Y-1.64
X8.18Y-1.74
X8.18Y-1.84
X8.48Y-1.54
X8.48Y-1.64
X8.48Y-1.74
X8.48Y-1.84
X6.56Y-2.27
X6.56Y-2.6637
X6.16Y-3.01
X6.2584Y-3.01
X5.64Y-2.27
X5.64Y-2.5653
T3
X6.36Y-3.24
X7.48Y-2.48
X7.6375Y-2.48
X7.795Y-2.48
X7.9524Y-2.48
X6.06Y-3.24
X8.6091Y-2.3494
X8.6091Y-2.5463
X6.64Y-1.28
X6.74Y-1.28
X6.06Y-2.74
X6.16Y-2.74
X6.26Y-2.74
T4
X8.1462Y-2.92
X8.54Y-2.92
X5.2031Y-2.84
X5.5969Y-2.84
X8.1462Y-2.78
X8.54Y-2.78
X6.3462Y-1.42
X6.74Y-1.42
X5.8662Y-2.48
X6.26Y-2.48
X7.4Y-1.2831
X7.4Y-1.6769
X7.84Y-1.6431
X7.84Y-2.0369
X8.68Y-1.8031
X8.68Y-2.1969
X5.2062Y-2.1
X5.6Y-2.1
X5.74Y-2.8431
X5.74Y-3.2369
X7.4Y-1.8031
X7.4Y-2.1969
X8.68Y-1.2831
X8.68Y-1.6769
X6.58Y-1.6431
X6.58Y-2.0369
T5
X8.4517Y-2.3593
X8.4517Y-2.5365
X8.7469Y-2.3337
X8.7469Y-2.562
X5.8663Y-2.26
X6.0631Y-2.26
X6.26Y-2.26
T6
X5.3Y-2.27
X5.3Y-2.4669
T7
X6.84Y-3.38
X7.2Y-3.38
T8
X6.74Y-3.28
X6.74Y-3.48
X6.94Y-3.28
X6.94Y-3.48
X7.1Y-3.28
X7.1Y-3.48
X7.3Y-3.28
X7.3Y-3.48
T9
X6.02Y-3.5
X6.4Y-3.5
X7.5194Y-2.8343
X7.9131Y-2.8343
T10
X6.0631Y-1.7679
T0
M30
