M48
; DRILL file {KiCad (5.1.6-0-10_14)} date Thursday, November 05, 2020 at 10:16:15 AM
; FORMAT={-:-/ absolute / inch / decimal}
; #@! TF.CreationDate,2020-11-05T10:16:15+09:00
; #@! TF.GenerationSoftware,Kicad,Pcbnew,(5.1.6-0-10_14)
FMAT,2
INCH
T1C0.0157
T2C0.0300
T3C0.0315
T4C0.0394
T5C0.0433
T6C0.0472
T7C0.0512
T8C0.2953
%
G90
G05
T1
X5.7Y-1.48
X6.5256Y-1.4665
X6.5945Y-3.0709
X7.24Y-2.24
X7.6575Y-2.5984
T2
X6.5315Y-1.3287
X6.6102Y-1.3287
X6.689Y-1.3287
T3
X7.4114Y-1.2795
X7.4114Y-1.6795
X8.18Y-1.54
X8.18Y-1.64
X8.18Y-1.74
X8.18Y-1.84
X8.48Y-1.54
X8.48Y-1.64
X8.48Y-1.74
X8.48Y-1.84
X6.5587Y-2.6969
X6.9587Y-2.6969
X6.56Y-2.1654
X6.56Y-2.5591
X7.0669Y-2.8346
X7.0669Y-3.2346
X7.4Y-1.8012
X7.4Y-2.2012
X8.3957Y-1.4075
X8.4941Y-1.4075
X8.1594Y-1.9685
X8.2579Y-1.9685
X5.0886Y-2.6969
X5.4886Y-2.6969
X6.5945Y-1.6339
X6.5945Y-2.0339
X7.3327Y-2.6969
X7.3327Y-3.0969
X7.0669Y-2.2969
X7.0669Y-2.6969
X6.1024Y-3.1791
X6.2008Y-3.1791
X4.9606Y-2.2969
X4.9606Y-2.6969
X7.1555Y-1.4075
X7.2539Y-1.4075
X7.8937Y-2.7264
X7.8937Y-2.8248
X7.3524Y-2.5098
X7.3524Y-2.6083
X7.628Y-2.9626
X8.028Y-2.9626
X6.93Y-1.54
X6.93Y-1.64
X6.93Y-1.74
X6.93Y-1.84
X7.23Y-1.54
X7.23Y-1.64
X7.23Y-1.74
X7.23Y-1.84
X8.6811Y-1.2795
X8.6811Y-1.6795
X5.98Y-1.28
X6.08Y-1.28
X6.18Y-1.28
X6.2894Y-3.1791
X6.3878Y-3.1791
X8.1531Y-2.92
X8.5531Y-2.92
X4.9606Y-2.8445
X4.9606Y-3.2445
X8.6811Y-1.7949
X8.6811Y-2.1949
X6.9094Y-1.9685
X7.0079Y-1.9685
X8.1496Y-2.78
X8.5496Y-2.78
X7.8346Y-1.6339
X7.8346Y-2.0339
X5.8071Y-3.1791
X5.9055Y-3.1791
X5.64Y-2.27
X5.64Y-2.5653
X5.1118Y-2.0965
X5.5118Y-2.0965
X5.6201Y-3.1791
X5.7185Y-3.1791
T4
X8.6091Y-2.3494
X8.6091Y-2.5463
T5
X6.122Y-3.061
X6.189Y-2.9154
X6.2559Y-3.061
X6.3228Y-2.9154
X6.3898Y-3.061
X5.8563Y-3.4449
X5.9563Y-3.4449
X6.0563Y-3.4449
X6.1563Y-3.4449
X7.4902Y-2.8445
X7.5571Y-2.6988
X7.624Y-2.8445
X7.6909Y-2.6988
X7.7579Y-2.8445
X6.4488Y-1.3287
X6.7717Y-1.3287
X5.6398Y-3.061
X5.7067Y-2.9154
X5.7736Y-3.061
X5.8406Y-2.9154
X5.9075Y-3.061
T6
X5.0886Y-2.8445
X5.2854Y-2.8445
X5.4823Y-2.8445
X6.5453Y-2.8445
X6.7421Y-2.8445
X6.939Y-2.8445
X5.8663Y-2.26
X6.0631Y-2.26
X6.26Y-2.26
X8.4517Y-2.3593
X8.4517Y-2.5365
X8.7469Y-2.3337
X8.7469Y-2.562
T7
X5.3Y-2.27
X5.3Y-2.4669
T8
X5.2854Y-3.3366
X6.7421Y-3.3366
X6.0631Y-1.7679
T4
G00X7.6398Y-3.1004
M15
G01X7.6161Y-3.1004
M16
G05
G00X7.6398Y-3.3366
M15
G01X7.6161Y-3.3366
M16
G05
G00X7.813Y-3.2067
M15
G01X7.813Y-3.2303
M16
G05
T0
M30
