G04 #@! TF.GenerationSoftware,KiCad,Pcbnew,5.1.4*
G04 #@! TF.CreationDate,2019-12-30T21:19:54-05:00*
G04 #@! TF.ProjectId,chua,63687561-2e6b-4696-9361-645f70636258,rev?*
G04 #@! TF.SameCoordinates,Original*
G04 #@! TF.FileFunction,Soldermask,Top*
G04 #@! TF.FilePolarity,Negative*
%FSLAX46Y46*%
G04 Gerber Fmt 4.6, Leading zero omitted, Abs format (unit mm)*
G04 Created by KiCad (PCBNEW 5.1.4) date 2019-12-30 21:19:54*
%MOMM*%
%LPD*%
G04 APERTURE LIST*
%ADD10C,1.600000*%
%ADD11C,1.500000*%
%ADD12C,1.100000*%
%ADD13C,0.100000*%
%ADD14C,12.000000*%
%ADD15C,3.000000*%
%ADD16O,1.700000X1.700000*%
%ADD17C,1.700000*%
%ADD18R,1.700000X1.700000*%
%ADD19C,7.500000*%
%ADD20C,2.500000*%
%ADD21C,2.600000*%
%ADD22C,1.986130*%
%ADD23R,1.998980X1.998980*%
%ADD24O,2.400000X1.600000*%
%ADD25R,2.400000X1.600000*%
%ADD26R,1.600000X1.600000*%
%ADD27C,2.200000*%
%ADD28C,2.000000*%
%ADD29R,2.999740X1.399540*%
%ADD30R,1.520000X1.520000*%
%ADD31C,1.520000*%
G04 APERTURE END LIST*
D10*
X166624000Y-57658000D03*
X166624000Y-67658000D03*
D11*
X214672000Y-59926000D03*
X222172000Y-65076000D03*
X222172000Y-59276000D03*
X214672000Y-64426000D03*
D12*
X218672000Y-64676000D03*
X218672000Y-59676000D03*
D13*
G36*
X141724051Y-38210446D02*
G01*
X142015271Y-38253644D01*
X142300854Y-38325179D01*
X142578050Y-38424361D01*
X142844190Y-38550236D01*
X143096711Y-38701591D01*
X143333180Y-38876969D01*
X143551320Y-39074680D01*
X143749031Y-39292820D01*
X143924409Y-39529289D01*
X144075764Y-39781810D01*
X144201639Y-40047950D01*
X144300821Y-40325146D01*
X144372356Y-40610729D01*
X144415554Y-40901949D01*
X144430000Y-41196000D01*
X144430000Y-47196000D01*
X144415554Y-47490051D01*
X144372356Y-47781271D01*
X144300821Y-48066854D01*
X144201639Y-48344050D01*
X144075764Y-48610190D01*
X143924409Y-48862711D01*
X143749031Y-49099180D01*
X143551320Y-49317320D01*
X143333180Y-49515031D01*
X143096711Y-49690409D01*
X142844190Y-49841764D01*
X142578050Y-49967639D01*
X142300854Y-50066821D01*
X142015271Y-50138356D01*
X141724051Y-50181554D01*
X141430000Y-50196000D01*
X135430000Y-50196000D01*
X135135949Y-50181554D01*
X134844729Y-50138356D01*
X134559146Y-50066821D01*
X134281950Y-49967639D01*
X134015810Y-49841764D01*
X133763289Y-49690409D01*
X133526820Y-49515031D01*
X133308680Y-49317320D01*
X133110969Y-49099180D01*
X132935591Y-48862711D01*
X132784236Y-48610190D01*
X132658361Y-48344050D01*
X132559179Y-48066854D01*
X132487644Y-47781271D01*
X132444446Y-47490051D01*
X132430000Y-47196000D01*
X132430000Y-41196000D01*
X132444446Y-40901949D01*
X132487644Y-40610729D01*
X132559179Y-40325146D01*
X132658361Y-40047950D01*
X132784236Y-39781810D01*
X132935591Y-39529289D01*
X133110969Y-39292820D01*
X133308680Y-39074680D01*
X133526820Y-38876969D01*
X133763289Y-38701591D01*
X134015810Y-38550236D01*
X134281950Y-38424361D01*
X134559146Y-38325179D01*
X134844729Y-38253644D01*
X135135949Y-38210446D01*
X135430000Y-38196000D01*
X141430000Y-38196000D01*
X141724051Y-38210446D01*
X141724051Y-38210446D01*
G37*
D14*
X138430000Y-44196000D03*
D15*
X200992000Y-71992000D03*
X190992000Y-71992000D03*
D16*
X201992000Y-62992000D03*
D13*
G36*
X198458657Y-62144046D02*
G01*
X198499913Y-62150166D01*
X198540371Y-62160300D01*
X198579640Y-62174351D01*
X198617344Y-62192183D01*
X198653117Y-62213625D01*
X198686617Y-62238471D01*
X198717520Y-62266480D01*
X198745529Y-62297383D01*
X198770375Y-62330883D01*
X198791817Y-62366656D01*
X198809649Y-62404360D01*
X198823700Y-62443629D01*
X198833834Y-62484087D01*
X198839954Y-62525343D01*
X198842000Y-62567000D01*
X198842000Y-63417000D01*
X198839954Y-63458657D01*
X198833834Y-63499913D01*
X198823700Y-63540371D01*
X198809649Y-63579640D01*
X198791817Y-63617344D01*
X198770375Y-63653117D01*
X198745529Y-63686617D01*
X198717520Y-63717520D01*
X198686617Y-63745529D01*
X198653117Y-63770375D01*
X198617344Y-63791817D01*
X198579640Y-63809649D01*
X198540371Y-63823700D01*
X198499913Y-63833834D01*
X198458657Y-63839954D01*
X198417000Y-63842000D01*
X197567000Y-63842000D01*
X197525343Y-63839954D01*
X197484087Y-63833834D01*
X197443629Y-63823700D01*
X197404360Y-63809649D01*
X197366656Y-63791817D01*
X197330883Y-63770375D01*
X197297383Y-63745529D01*
X197266480Y-63717520D01*
X197238471Y-63686617D01*
X197213625Y-63653117D01*
X197192183Y-63617344D01*
X197174351Y-63579640D01*
X197160300Y-63540371D01*
X197150166Y-63499913D01*
X197144046Y-63458657D01*
X197142000Y-63417000D01*
X197142000Y-62567000D01*
X197144046Y-62525343D01*
X197150166Y-62484087D01*
X197160300Y-62443629D01*
X197174351Y-62404360D01*
X197192183Y-62366656D01*
X197213625Y-62330883D01*
X197238471Y-62297383D01*
X197266480Y-62266480D01*
X197297383Y-62238471D01*
X197330883Y-62213625D01*
X197366656Y-62192183D01*
X197404360Y-62174351D01*
X197443629Y-62160300D01*
X197484087Y-62150166D01*
X197525343Y-62144046D01*
X197567000Y-62142000D01*
X198417000Y-62142000D01*
X198458657Y-62144046D01*
X198458657Y-62144046D01*
G37*
D17*
X197992000Y-62992000D03*
D16*
X193992000Y-62992000D03*
D13*
G36*
X190458657Y-62144046D02*
G01*
X190499913Y-62150166D01*
X190540371Y-62160300D01*
X190579640Y-62174351D01*
X190617344Y-62192183D01*
X190653117Y-62213625D01*
X190686617Y-62238471D01*
X190717520Y-62266480D01*
X190745529Y-62297383D01*
X190770375Y-62330883D01*
X190791817Y-62366656D01*
X190809649Y-62404360D01*
X190823700Y-62443629D01*
X190833834Y-62484087D01*
X190839954Y-62525343D01*
X190842000Y-62567000D01*
X190842000Y-63417000D01*
X190839954Y-63458657D01*
X190833834Y-63499913D01*
X190823700Y-63540371D01*
X190809649Y-63579640D01*
X190791817Y-63617344D01*
X190770375Y-63653117D01*
X190745529Y-63686617D01*
X190717520Y-63717520D01*
X190686617Y-63745529D01*
X190653117Y-63770375D01*
X190617344Y-63791817D01*
X190579640Y-63809649D01*
X190540371Y-63823700D01*
X190499913Y-63833834D01*
X190458657Y-63839954D01*
X190417000Y-63842000D01*
X189567000Y-63842000D01*
X189525343Y-63839954D01*
X189484087Y-63833834D01*
X189443629Y-63823700D01*
X189404360Y-63809649D01*
X189366656Y-63791817D01*
X189330883Y-63770375D01*
X189297383Y-63745529D01*
X189266480Y-63717520D01*
X189238471Y-63686617D01*
X189213625Y-63653117D01*
X189192183Y-63617344D01*
X189174351Y-63579640D01*
X189160300Y-63540371D01*
X189150166Y-63499913D01*
X189144046Y-63458657D01*
X189142000Y-63417000D01*
X189142000Y-62567000D01*
X189144046Y-62525343D01*
X189150166Y-62484087D01*
X189160300Y-62443629D01*
X189174351Y-62404360D01*
X189192183Y-62366656D01*
X189213625Y-62330883D01*
X189238471Y-62297383D01*
X189266480Y-62266480D01*
X189297383Y-62238471D01*
X189330883Y-62213625D01*
X189366656Y-62192183D01*
X189404360Y-62174351D01*
X189443629Y-62160300D01*
X189484087Y-62150166D01*
X189525343Y-62144046D01*
X189567000Y-62142000D01*
X190417000Y-62142000D01*
X190458657Y-62144046D01*
X190458657Y-62144046D01*
G37*
D17*
X189992000Y-62992000D03*
D18*
X161544000Y-82296000D03*
X153924000Y-82296000D03*
D19*
X154004000Y-44904000D03*
D20*
X159004000Y-57404000D03*
X149004000Y-57404000D03*
X154004000Y-57404000D03*
D16*
X153924000Y-69596000D03*
X156464000Y-69596000D03*
D18*
X159004000Y-69596000D03*
D10*
X143256000Y-65158000D03*
X143256000Y-57658000D03*
D21*
X134620000Y-62658000D03*
X134620000Y-57658000D03*
D22*
X167132000Y-44323000D03*
D13*
G36*
X165933120Y-42572940D02*
G01*
X168330880Y-42572940D01*
X167932100Y-46073060D01*
X166331900Y-46073060D01*
X165933120Y-42572940D01*
X165933120Y-42572940D01*
G37*
D22*
X167132000Y-49149000D03*
D13*
G36*
X168330880Y-50899060D02*
G01*
X165933120Y-50899060D01*
X166331900Y-47398940D01*
X167932100Y-47398940D01*
X168330880Y-50899060D01*
X168330880Y-50899060D01*
G37*
D23*
X167132000Y-41734740D03*
X167132000Y-51737260D03*
X187960000Y-45798740D03*
X187960000Y-55801260D03*
D22*
X187960000Y-48387000D03*
D13*
G36*
X186761120Y-46636940D02*
G01*
X189158880Y-46636940D01*
X188760100Y-50137060D01*
X187159900Y-50137060D01*
X186761120Y-46636940D01*
X186761120Y-46636940D01*
G37*
D22*
X187960000Y-53213000D03*
D13*
G36*
X189158880Y-54963060D02*
G01*
X186761120Y-54963060D01*
X187159900Y-51462940D01*
X188760100Y-51462940D01*
X189158880Y-54963060D01*
X189158880Y-54963060D01*
G37*
D22*
X187960000Y-40005000D03*
D13*
G36*
X189158880Y-41755060D02*
G01*
X186761120Y-41755060D01*
X187159900Y-38254940D01*
X188760100Y-38254940D01*
X189158880Y-41755060D01*
X189158880Y-41755060D01*
G37*
D22*
X187960000Y-35179000D03*
D13*
G36*
X186761120Y-33428940D02*
G01*
X189158880Y-33428940D01*
X188760100Y-36929060D01*
X187159900Y-36929060D01*
X186761120Y-33428940D01*
X186761120Y-33428940D01*
G37*
D23*
X187960000Y-42593260D03*
X187960000Y-32590740D03*
X199136000Y-51737260D03*
X199136000Y-41734740D03*
D22*
X199136000Y-49149000D03*
D13*
G36*
X200334880Y-50899060D02*
G01*
X197937120Y-50899060D01*
X198335900Y-47398940D01*
X199936100Y-47398940D01*
X200334880Y-50899060D01*
X200334880Y-50899060D01*
G37*
D22*
X199136000Y-44323000D03*
D13*
G36*
X197937120Y-42572940D02*
G01*
X200334880Y-42572940D01*
X199936100Y-46073060D01*
X198335900Y-46073060D01*
X197937120Y-42572940D01*
X197937120Y-42572940D01*
G37*
D23*
X220472000Y-45798740D03*
X220472000Y-55801260D03*
D22*
X220472000Y-48387000D03*
D13*
G36*
X219273120Y-46636940D02*
G01*
X221670880Y-46636940D01*
X221272100Y-50137060D01*
X219671900Y-50137060D01*
X219273120Y-46636940D01*
X219273120Y-46636940D01*
G37*
D22*
X220472000Y-53213000D03*
D13*
G36*
X221670880Y-54963060D02*
G01*
X219273120Y-54963060D01*
X219671900Y-51462940D01*
X221272100Y-51462940D01*
X221670880Y-54963060D01*
X221670880Y-54963060D01*
G37*
D22*
X220472000Y-40005000D03*
D13*
G36*
X221670880Y-41755060D02*
G01*
X219273120Y-41755060D01*
X219671900Y-38254940D01*
X221272100Y-38254940D01*
X221670880Y-41755060D01*
X221670880Y-41755060D01*
G37*
D22*
X220472000Y-35179000D03*
D13*
G36*
X219273120Y-33428940D02*
G01*
X221670880Y-33428940D01*
X221272100Y-36929060D01*
X219671900Y-36929060D01*
X219273120Y-33428940D01*
X219273120Y-33428940D01*
G37*
D23*
X220472000Y-42593260D03*
X220472000Y-32590740D03*
X132158740Y-72136000D03*
X142161260Y-72136000D03*
D22*
X134747000Y-72136000D03*
D13*
G36*
X132996940Y-73334880D02*
G01*
X132996940Y-70937120D01*
X136497060Y-71335900D01*
X136497060Y-72936100D01*
X132996940Y-73334880D01*
X132996940Y-73334880D01*
G37*
D22*
X139573000Y-72136000D03*
D13*
G36*
X141323060Y-70937120D02*
G01*
X141323060Y-73334880D01*
X137822940Y-72936100D01*
X137822940Y-71335900D01*
X141323060Y-70937120D01*
X141323060Y-70937120D01*
G37*
D22*
X145796000Y-79629000D03*
D13*
G36*
X146994880Y-81379060D02*
G01*
X144597120Y-81379060D01*
X144995900Y-77878940D01*
X146596100Y-77878940D01*
X146994880Y-81379060D01*
X146994880Y-81379060D01*
G37*
D22*
X145796000Y-74803000D03*
D13*
G36*
X144597120Y-73052940D02*
G01*
X146994880Y-73052940D01*
X146596100Y-76553060D01*
X144995900Y-76553060D01*
X144597120Y-73052940D01*
X144597120Y-73052940D01*
G37*
D23*
X145796000Y-82217260D03*
X145796000Y-72214740D03*
D24*
X183642000Y-39116000D03*
X176022000Y-46736000D03*
X183642000Y-41656000D03*
X176022000Y-44196000D03*
X183642000Y-44196000D03*
X176022000Y-41656000D03*
X183642000Y-46736000D03*
D25*
X176022000Y-39116000D03*
D24*
X215392000Y-39116000D03*
X207772000Y-46736000D03*
X215392000Y-41656000D03*
X207772000Y-44196000D03*
X215392000Y-44196000D03*
X207772000Y-41656000D03*
X215392000Y-46736000D03*
D25*
X207772000Y-39116000D03*
X133604000Y-78740000D03*
D24*
X141224000Y-86360000D03*
X133604000Y-81280000D03*
X141224000Y-83820000D03*
X133604000Y-83820000D03*
X141224000Y-81280000D03*
X133604000Y-86360000D03*
X141224000Y-78740000D03*
D10*
X158964000Y-76454000D03*
D26*
X156464000Y-76454000D03*
D27*
X171196000Y-88392000D03*
X171196000Y-83312000D03*
X176276000Y-83312000D03*
X176276000Y-88392000D03*
D28*
X173736000Y-85852000D03*
D16*
X168656000Y-32512000D03*
D18*
X171196000Y-32512000D03*
D28*
X182880000Y-85852000D03*
D27*
X185420000Y-88392000D03*
X185420000Y-83312000D03*
X180340000Y-83312000D03*
X180340000Y-88392000D03*
D23*
X132237480Y-53340000D03*
X142240000Y-53340000D03*
D29*
X134637780Y-53340000D03*
X139839700Y-53340000D03*
D23*
X216916000Y-70612000D03*
X206913480Y-70612000D03*
D29*
X214515700Y-70612000D03*
X209313780Y-70612000D03*
X214515700Y-74168000D03*
X209313780Y-74168000D03*
D23*
X216916000Y-74168000D03*
X206913480Y-74168000D03*
X149001480Y-62992000D03*
X159004000Y-62992000D03*
D29*
X151401780Y-62992000D03*
X156603700Y-62992000D03*
X168795700Y-36068000D03*
X163593780Y-36068000D03*
D23*
X171196000Y-36068000D03*
X161193480Y-36068000D03*
D30*
X156972000Y-32512000D03*
D31*
X151892000Y-32512000D03*
X154432000Y-32512000D03*
M02*
