G04 #@! TF.GenerationSoftware,KiCad,Pcbnew,(5.1.6-0-10_14)*
G04 #@! TF.CreationDate,2020-09-09T13:13:31+09:00*
G04 #@! TF.ProjectId,chua,63687561-2e6b-4696-9361-645f70636258,rev?*
G04 #@! TF.SameCoordinates,Original*
G04 #@! TF.FileFunction,Soldermask,Bot*
G04 #@! TF.FilePolarity,Negative*
%FSLAX46Y46*%
G04 Gerber Fmt 4.6, Leading zero omitted, Abs format (unit mm)*
G04 Created by KiCad (PCBNEW (5.1.6-0-10_14)) date 2020-09-09 13:13:31*
%MOMM*%
%LPD*%
G01*
G04 APERTURE LIST*
%ADD10C,7.500000*%
%ADD11C,2.500000*%
%ADD12C,1.600000*%
%ADD13C,1.500000*%
%ADD14C,1.100000*%
%ADD15C,2.600000*%
%ADD16O,2.400000X1.600000*%
%ADD17R,2.400000X1.600000*%
%ADD18R,1.520000X1.520000*%
%ADD19C,1.520000*%
%ADD20R,2.100000X2.100000*%
%ADD21C,2.100000*%
%ADD22R,4.000000X2.000000*%
%ADD23O,3.300000X2.000000*%
%ADD24O,2.000000X3.500000*%
%ADD25O,1.600000X1.600000*%
%ADD26C,1.524000*%
%ADD27R,1.800000X1.800000*%
%ADD28O,1.800000X1.800000*%
G04 APERTURE END LIST*
D10*
X171250000Y-84750000D03*
D11*
X176250000Y-72250000D03*
X166250000Y-72250000D03*
X171250000Y-72250000D03*
D10*
X154004000Y-44904000D03*
D11*
X159004000Y-57404000D03*
X149004000Y-57404000D03*
X154004000Y-57404000D03*
X134250000Y-72250000D03*
X129250000Y-72250000D03*
X139250000Y-72250000D03*
D10*
X134250000Y-84750000D03*
D12*
X166624000Y-55000000D03*
X166624000Y-65000000D03*
D13*
X214672000Y-59926000D03*
X222172000Y-65076000D03*
X222172000Y-59276000D03*
X214672000Y-64426000D03*
D14*
X218672000Y-64676000D03*
X218672000Y-59676000D03*
D12*
X143256000Y-65158000D03*
X143256000Y-57658000D03*
D15*
X134620000Y-62658000D03*
X134620000Y-57658000D03*
D16*
X183642000Y-39116000D03*
X176022000Y-46736000D03*
X183642000Y-41656000D03*
X176022000Y-44196000D03*
X183642000Y-44196000D03*
X176022000Y-41656000D03*
X183642000Y-46736000D03*
D17*
X176022000Y-39116000D03*
D16*
X215392000Y-39116000D03*
X207772000Y-46736000D03*
X215392000Y-41656000D03*
X207772000Y-44196000D03*
X215392000Y-44196000D03*
X207772000Y-41656000D03*
X215392000Y-46736000D03*
D17*
X207772000Y-39116000D03*
D18*
X156972000Y-32512000D03*
D19*
X151892000Y-32512000D03*
X154432000Y-32512000D03*
D12*
X159750000Y-80750000D03*
X162250000Y-80750000D03*
X150000000Y-80750000D03*
X147500000Y-80750000D03*
X157500000Y-80750000D03*
X155000000Y-80750000D03*
X142750000Y-80750000D03*
X145250000Y-80750000D03*
X181750000Y-35750000D03*
X184250000Y-35750000D03*
X175500000Y-50000000D03*
X178000000Y-50000000D03*
X200500000Y-69250000D03*
X200500000Y-71750000D03*
X215750000Y-35750000D03*
X213250000Y-35750000D03*
X186750000Y-66250000D03*
X186750000Y-63750000D03*
X209750000Y-50000000D03*
X207250000Y-50000000D03*
D20*
X148750000Y-87500000D03*
D21*
X151290000Y-87500000D03*
X153830000Y-87500000D03*
X156370000Y-87500000D03*
D22*
X193750000Y-78750000D03*
D23*
X193750000Y-84750000D03*
D24*
X189250000Y-85750000D03*
X198250000Y-85750000D03*
D12*
X193750000Y-87750000D03*
X167500000Y-41500000D03*
D25*
X167500000Y-51660000D03*
X187960000Y-45750000D03*
D12*
X187960000Y-55910000D03*
X188250000Y-42660000D03*
D25*
X188250000Y-32500000D03*
X199000000Y-51660000D03*
D12*
X199000000Y-41500000D03*
D25*
X220500000Y-45590000D03*
D12*
X220500000Y-55750000D03*
X220500000Y-42660000D03*
D25*
X220500000Y-32500000D03*
X179500000Y-68500000D03*
D12*
X179500000Y-58340000D03*
X176750000Y-68500000D03*
D25*
X166590000Y-68500000D03*
X129840000Y-53250000D03*
D12*
X140000000Y-53250000D03*
D25*
X217160000Y-70612000D03*
D12*
X207000000Y-70612000D03*
X217250000Y-74168000D03*
D25*
X207090000Y-74168000D03*
X126000000Y-68500000D03*
D12*
X126000000Y-58340000D03*
X129250000Y-68500000D03*
D25*
X139410000Y-68500000D03*
D12*
X179500000Y-72000000D03*
D25*
X179500000Y-82160000D03*
D12*
X126000000Y-72250000D03*
D25*
X126000000Y-82410000D03*
X203910000Y-75250000D03*
D12*
X193750000Y-75250000D03*
X186250000Y-78660000D03*
D25*
X186250000Y-68500000D03*
D26*
X169900000Y-33750000D03*
X167900000Y-33750000D03*
X165900000Y-33750000D03*
X163800000Y-33750000D03*
X172000000Y-33750000D03*
D27*
X155500000Y-77750000D03*
D28*
X157200000Y-74050000D03*
X158900000Y-77750000D03*
X160600000Y-74050000D03*
X162300000Y-77750000D03*
D27*
X143250000Y-77750000D03*
D28*
X144950000Y-74050000D03*
X146650000Y-77750000D03*
X148350000Y-74050000D03*
X150050000Y-77750000D03*
X197050000Y-72250000D03*
X195350000Y-68550000D03*
X193650000Y-72250000D03*
X191950000Y-68550000D03*
D27*
X190250000Y-72250000D03*
M02*
