G04 #@! TF.FileFunction,Legend,Top*
%FSLAX46Y46*%
G04 Gerber Fmt 4.6, Leading zero omitted, Abs format (unit mm)*
G04 Created by KiCad (PCBNEW (2014-11-17 BZR 5289)-product) date Mon 10 Aug 2015 05:49:24 PM EDT*
%MOMM*%
G01*
G04 APERTURE LIST*
%ADD10C,0.100000*%
%ADD11C,0.150000*%
G04 APERTURE END LIST*
D10*
D11*
X154925000Y-128750000D02*
X154925000Y-126750000D01*
X157075000Y-126750000D02*
X157075000Y-128750000D01*
X171250000Y-128182500D02*
X171250000Y-127801500D01*
X171250000Y-129198500D02*
X171250000Y-128817500D01*
X171250000Y-128817500D02*
X170869000Y-128182500D01*
X170869000Y-128182500D02*
X171631000Y-128182500D01*
X171631000Y-128182500D02*
X171250000Y-128817500D01*
X170742000Y-128817500D02*
X171758000Y-128817500D01*
X172150000Y-130500000D02*
X172150000Y-126960000D01*
X170350000Y-130500000D02*
X170350000Y-126960000D01*
X218350000Y-123030000D02*
X209520000Y-123030000D01*
X218350000Y-125570000D02*
X218350000Y-123030000D01*
X209520000Y-125570000D02*
X209520000Y-123030000D01*
X209520000Y-128110000D02*
X209520000Y-125570000D01*
X218350000Y-128110000D02*
X218350000Y-125570000D01*
X218350000Y-125570000D02*
X209520000Y-125570000D01*
X218350000Y-128110000D02*
X209520000Y-128110000D01*
X218350000Y-130650000D02*
X218350000Y-128110000D01*
X209520000Y-130650000D02*
X209520000Y-128110000D01*
X209520000Y-133190000D02*
X209520000Y-130650000D01*
X218350000Y-133190000D02*
X218350000Y-130650000D01*
X218350000Y-130650000D02*
X209520000Y-130650000D01*
X218350000Y-133190000D02*
X209520000Y-133190000D01*
X218350000Y-135730000D02*
X218350000Y-133190000D01*
X209520000Y-135730000D02*
X218350000Y-135730000D01*
X209520000Y-135730000D02*
X209520000Y-133190000D01*
X209520000Y-138270000D02*
X209520000Y-135730000D01*
X206850000Y-137000000D02*
X206850000Y-138550000D01*
X206850000Y-138550000D02*
X208250000Y-138550000D01*
X209520000Y-138270000D02*
X218350000Y-138270000D01*
X218350000Y-138270000D02*
X218350000Y-135730000D01*
X218350000Y-135730000D02*
X209520000Y-135730000D01*
X159600000Y-123375000D02*
X158400000Y-123375000D01*
X158400000Y-121625000D02*
X159600000Y-121625000D01*
X164650000Y-123125000D02*
X165850000Y-123125000D01*
X165850000Y-124875000D02*
X164650000Y-124875000D01*
X166100000Y-122875000D02*
X164900000Y-122875000D01*
X164900000Y-121125000D02*
X166100000Y-121125000D01*
X196875000Y-121900000D02*
X196875000Y-123100000D01*
X195125000Y-123100000D02*
X195125000Y-121900000D01*
X197125000Y-123100000D02*
X197125000Y-121900000D01*
X198875000Y-121900000D02*
X198875000Y-123100000D01*
X194375000Y-141650000D02*
X194375000Y-142850000D01*
X192625000Y-142850000D02*
X192625000Y-141650000D01*
X194625000Y-142850000D02*
X194625000Y-141650000D01*
X196375000Y-141650000D02*
X196375000Y-142850000D01*
X170875000Y-133650000D02*
X170875000Y-134850000D01*
X169125000Y-134850000D02*
X169125000Y-133650000D01*
X170875000Y-136900000D02*
X170875000Y-138100000D01*
X169125000Y-138100000D02*
X169125000Y-136900000D01*
X158825000Y-124075000D02*
X158825000Y-124325000D01*
X162175000Y-124075000D02*
X162175000Y-124325000D01*
X162175000Y-127425000D02*
X162175000Y-127175000D01*
X158825000Y-127425000D02*
X158825000Y-127175000D01*
X158825000Y-124075000D02*
X162175000Y-124075000D01*
X158825000Y-127425000D02*
X162175000Y-127425000D01*
X158825000Y-124325000D02*
X157575000Y-124325000D01*
X191175000Y-122675000D02*
X191175000Y-122425000D01*
X187825000Y-122675000D02*
X187825000Y-122425000D01*
X187825000Y-119325000D02*
X187825000Y-119575000D01*
X191175000Y-119325000D02*
X191175000Y-119575000D01*
X191175000Y-122675000D02*
X187825000Y-122675000D01*
X191175000Y-119325000D02*
X187825000Y-119325000D01*
X191175000Y-122425000D02*
X192425000Y-122425000D01*
X188925000Y-142675000D02*
X188925000Y-142425000D01*
X185575000Y-142675000D02*
X185575000Y-142425000D01*
X185575000Y-139325000D02*
X185575000Y-139575000D01*
X188925000Y-139325000D02*
X188925000Y-139575000D01*
X188925000Y-142675000D02*
X185575000Y-142675000D01*
X188925000Y-139325000D02*
X185575000Y-139325000D01*
X188925000Y-142425000D02*
X190175000Y-142425000D01*
X197286000Y-127710000D02*
X197286000Y-132790000D01*
X197286000Y-132790000D02*
X192714000Y-132790000D01*
X192714000Y-132790000D02*
X192714000Y-127710000D01*
X192714000Y-127710000D02*
X197286000Y-127710000D01*
X195762000Y-127710000D02*
X195762000Y-128218000D01*
X195762000Y-128218000D02*
X194492000Y-128218000D01*
X194492000Y-128218000D02*
X194492000Y-127710000D01*
X157000000Y-134099000D02*
X157000000Y-134861000D01*
X156619000Y-134480000D02*
X157381000Y-134480000D01*
X159286000Y-134226000D02*
X159286000Y-138036000D01*
X155476000Y-133464000D02*
X158524000Y-133464000D01*
X159286000Y-134226000D02*
X158524000Y-133464000D01*
X154714000Y-134226000D02*
X154714000Y-138036000D01*
X154714000Y-134226000D02*
X155476000Y-133464000D01*
X157127000Y-137782000D02*
X156873000Y-137782000D01*
X156365000Y-137655000D02*
X157635000Y-137655000D01*
X157889000Y-137528000D02*
X156111000Y-137528000D01*
X158143000Y-137401000D02*
X155857000Y-137401000D01*
X155730000Y-137274000D02*
X158270000Y-137274000D01*
X158397000Y-137147000D02*
X155603000Y-137147000D01*
X155476000Y-137020000D02*
X158524000Y-137020000D01*
X155349000Y-136893000D02*
X158651000Y-136893000D01*
X154714000Y-138036000D02*
X159286000Y-138036000D01*
X159032000Y-135750000D02*
G75*
G03X159032000Y-135750000I-2032000J0D01*
G01*
X167036000Y-133210000D02*
X167036000Y-138290000D01*
X167036000Y-138290000D02*
X162464000Y-138290000D01*
X162464000Y-138290000D02*
X162464000Y-133210000D01*
X162464000Y-133210000D02*
X167036000Y-133210000D01*
X165512000Y-133210000D02*
X165512000Y-133718000D01*
X165512000Y-133718000D02*
X164242000Y-133718000D01*
X164242000Y-133718000D02*
X164242000Y-133210000D01*
X162750000Y-121650000D02*
X161750000Y-121650000D01*
X161750000Y-123350000D02*
X162750000Y-123350000D01*
X175775000Y-132750000D02*
X175775000Y-130750000D01*
X173725000Y-130750000D02*
X173725000Y-132750000D01*
X174775000Y-127500000D02*
X174775000Y-125500000D01*
X172725000Y-125500000D02*
X172725000Y-127500000D01*
X181975000Y-119250000D02*
X181975000Y-121250000D01*
X184025000Y-121250000D02*
X184025000Y-119250000D01*
X181525000Y-141750000D02*
X181525000Y-139750000D01*
X179475000Y-139750000D02*
X179475000Y-141750000D01*
X188275000Y-132000000D02*
X188275000Y-130000000D01*
X186225000Y-130000000D02*
X186225000Y-132000000D01*
X190350000Y-131000000D02*
X190350000Y-130000000D01*
X188650000Y-130000000D02*
X188650000Y-131000000D01*
X193150000Y-122000000D02*
X193150000Y-123000000D01*
X194850000Y-123000000D02*
X194850000Y-122000000D01*
X190000000Y-117150000D02*
X189000000Y-117150000D01*
X189000000Y-118850000D02*
X190000000Y-118850000D01*
X199475000Y-128500000D02*
X199475000Y-130500000D01*
X201525000Y-130500000D02*
X201525000Y-128500000D01*
X187750000Y-137150000D02*
X186750000Y-137150000D01*
X186750000Y-138850000D02*
X187750000Y-138850000D01*
X190650000Y-141750000D02*
X190650000Y-142750000D01*
X192350000Y-142750000D02*
X192350000Y-141750000D01*
X198975000Y-119750000D02*
X198975000Y-121750000D01*
X201025000Y-121750000D02*
X201025000Y-119750000D01*
X164250000Y-140600000D02*
X165250000Y-140600000D01*
X165250000Y-138900000D02*
X164250000Y-138900000D01*
X173500000Y-140401000D02*
X173500000Y-139639000D01*
X173881000Y-140020000D02*
X173119000Y-140020000D01*
X171214000Y-140274000D02*
X171214000Y-136464000D01*
X175024000Y-141036000D02*
X171976000Y-141036000D01*
X171214000Y-140274000D02*
X171976000Y-141036000D01*
X175786000Y-140274000D02*
X175786000Y-136464000D01*
X175786000Y-140274000D02*
X175024000Y-141036000D01*
X173373000Y-136718000D02*
X173627000Y-136718000D01*
X174135000Y-136845000D02*
X172865000Y-136845000D01*
X172611000Y-136972000D02*
X174389000Y-136972000D01*
X172357000Y-137099000D02*
X174643000Y-137099000D01*
X174770000Y-137226000D02*
X172230000Y-137226000D01*
X172103000Y-137353000D02*
X174897000Y-137353000D01*
X175024000Y-137480000D02*
X171976000Y-137480000D01*
X175151000Y-137607000D02*
X171849000Y-137607000D01*
X175786000Y-136464000D02*
X171214000Y-136464000D01*
X175532000Y-138750000D02*
G75*
G03X175532000Y-138750000I-2032000J0D01*
G01*
X196725000Y-139750000D02*
X196725000Y-141750000D01*
X198775000Y-141750000D02*
X198775000Y-139750000D01*
X158657143Y-127916666D02*
X158704762Y-127964285D01*
X158752381Y-128107142D01*
X158752381Y-128202380D01*
X158704762Y-128345238D01*
X158609524Y-128440476D01*
X158514286Y-128488095D01*
X158323810Y-128535714D01*
X158180952Y-128535714D01*
X157990476Y-128488095D01*
X157895238Y-128440476D01*
X157800000Y-128345238D01*
X157752381Y-128202380D01*
X157752381Y-128107142D01*
X157800000Y-127964285D01*
X157847619Y-127916666D01*
X157847619Y-127535714D02*
X157800000Y-127488095D01*
X157752381Y-127392857D01*
X157752381Y-127154761D01*
X157800000Y-127059523D01*
X157847619Y-127011904D01*
X157942857Y-126964285D01*
X158038095Y-126964285D01*
X158180952Y-127011904D01*
X158752381Y-127583333D01*
X158752381Y-126964285D01*
X169702381Y-129238095D02*
X168702381Y-129238095D01*
X168702381Y-129000000D01*
X168750000Y-128857142D01*
X168845238Y-128761904D01*
X168940476Y-128714285D01*
X169130952Y-128666666D01*
X169273810Y-128666666D01*
X169464286Y-128714285D01*
X169559524Y-128761904D01*
X169654762Y-128857142D01*
X169702381Y-129000000D01*
X169702381Y-129238095D01*
X169702381Y-127714285D02*
X169702381Y-128285714D01*
X169702381Y-128000000D02*
X168702381Y-128000000D01*
X168845238Y-128095238D01*
X168940476Y-128190476D01*
X168988095Y-128285714D01*
X166833334Y-136572381D02*
X166357143Y-136572381D01*
X166357143Y-135572381D01*
X167690477Y-136572381D02*
X167119048Y-136572381D01*
X167404762Y-136572381D02*
X167404762Y-135572381D01*
X167309524Y-135715238D01*
X167214286Y-135810476D01*
X167119048Y-135858095D01*
X165833334Y-120062381D02*
X165261905Y-120062381D01*
X165547619Y-120062381D02*
X165547619Y-119062381D01*
X165452381Y-119205238D01*
X165357143Y-119300476D01*
X165261905Y-119348095D01*
X166738096Y-119062381D02*
X166261905Y-119062381D01*
X166214286Y-119538571D01*
X166261905Y-119490952D01*
X166357143Y-119443333D01*
X166595239Y-119443333D01*
X166690477Y-119490952D01*
X166738096Y-119538571D01*
X166785715Y-119633810D01*
X166785715Y-119871905D01*
X166738096Y-119967143D01*
X166690477Y-120014762D01*
X166595239Y-120062381D01*
X166357143Y-120062381D01*
X166261905Y-120014762D01*
X166214286Y-119967143D01*
X167642858Y-119395714D02*
X167642858Y-120062381D01*
X167214286Y-119395714D02*
X167214286Y-119919524D01*
X167261905Y-120014762D01*
X167357143Y-120062381D01*
X167500001Y-120062381D01*
X167595239Y-120014762D01*
X167642858Y-119967143D01*
X168119048Y-120062381D02*
X168119048Y-119062381D01*
X168119048Y-119538571D02*
X168690477Y-119538571D01*
X168690477Y-120062381D02*
X168690477Y-119062381D01*
X203952381Y-137738095D02*
X202952381Y-137738095D01*
X202952381Y-137357142D01*
X203000000Y-137261904D01*
X203047619Y-137214285D01*
X203142857Y-137166666D01*
X203285714Y-137166666D01*
X203380952Y-137214285D01*
X203428571Y-137261904D01*
X203476190Y-137357142D01*
X203476190Y-137738095D01*
X203952381Y-136214285D02*
X203952381Y-136785714D01*
X203952381Y-136500000D02*
X202952381Y-136500000D01*
X203095238Y-136595238D01*
X203190476Y-136690476D01*
X203238095Y-136785714D01*
X158833334Y-120852381D02*
X158500000Y-120376190D01*
X158261905Y-120852381D02*
X158261905Y-119852381D01*
X158642858Y-119852381D01*
X158738096Y-119900000D01*
X158785715Y-119947619D01*
X158833334Y-120042857D01*
X158833334Y-120185714D01*
X158785715Y-120280952D01*
X158738096Y-120328571D01*
X158642858Y-120376190D01*
X158261905Y-120376190D01*
X159785715Y-120852381D02*
X159214286Y-120852381D01*
X159500000Y-120852381D02*
X159500000Y-119852381D01*
X159404762Y-119995238D01*
X159309524Y-120090476D01*
X159214286Y-120138095D01*
X165083334Y-126552381D02*
X164750000Y-126076190D01*
X164511905Y-126552381D02*
X164511905Y-125552381D01*
X164892858Y-125552381D01*
X164988096Y-125600000D01*
X165035715Y-125647619D01*
X165083334Y-125742857D01*
X165083334Y-125885714D01*
X165035715Y-125980952D01*
X164988096Y-126028571D01*
X164892858Y-126076190D01*
X164511905Y-126076190D01*
X165464286Y-125647619D02*
X165511905Y-125600000D01*
X165607143Y-125552381D01*
X165845239Y-125552381D01*
X165940477Y-125600000D01*
X165988096Y-125647619D01*
X166035715Y-125742857D01*
X166035715Y-125838095D01*
X165988096Y-125980952D01*
X165416667Y-126552381D01*
X166035715Y-126552381D01*
X165333334Y-120352381D02*
X165000000Y-119876190D01*
X164761905Y-120352381D02*
X164761905Y-119352381D01*
X165142858Y-119352381D01*
X165238096Y-119400000D01*
X165285715Y-119447619D01*
X165333334Y-119542857D01*
X165333334Y-119685714D01*
X165285715Y-119780952D01*
X165238096Y-119828571D01*
X165142858Y-119876190D01*
X164761905Y-119876190D01*
X165666667Y-119352381D02*
X166285715Y-119352381D01*
X165952381Y-119733333D01*
X166095239Y-119733333D01*
X166190477Y-119780952D01*
X166238096Y-119828571D01*
X166285715Y-119923810D01*
X166285715Y-120161905D01*
X166238096Y-120257143D01*
X166190477Y-120304762D01*
X166095239Y-120352381D01*
X165809524Y-120352381D01*
X165714286Y-120304762D01*
X165666667Y-120257143D01*
X194352381Y-122666666D02*
X193876190Y-123000000D01*
X194352381Y-123238095D02*
X193352381Y-123238095D01*
X193352381Y-122857142D01*
X193400000Y-122761904D01*
X193447619Y-122714285D01*
X193542857Y-122666666D01*
X193685714Y-122666666D01*
X193780952Y-122714285D01*
X193828571Y-122761904D01*
X193876190Y-122857142D01*
X193876190Y-123238095D01*
X193685714Y-121809523D02*
X194352381Y-121809523D01*
X193304762Y-122047619D02*
X194019048Y-122285714D01*
X194019048Y-121666666D01*
X200552381Y-122666666D02*
X200076190Y-123000000D01*
X200552381Y-123238095D02*
X199552381Y-123238095D01*
X199552381Y-122857142D01*
X199600000Y-122761904D01*
X199647619Y-122714285D01*
X199742857Y-122666666D01*
X199885714Y-122666666D01*
X199980952Y-122714285D01*
X200028571Y-122761904D01*
X200076190Y-122857142D01*
X200076190Y-123238095D01*
X199552381Y-121761904D02*
X199552381Y-122238095D01*
X200028571Y-122285714D01*
X199980952Y-122238095D01*
X199933333Y-122142857D01*
X199933333Y-121904761D01*
X199980952Y-121809523D01*
X200028571Y-121761904D01*
X200123810Y-121714285D01*
X200361905Y-121714285D01*
X200457143Y-121761904D01*
X200504762Y-121809523D01*
X200552381Y-121904761D01*
X200552381Y-122142857D01*
X200504762Y-122238095D01*
X200457143Y-122285714D01*
X191852381Y-142416666D02*
X191376190Y-142750000D01*
X191852381Y-142988095D02*
X190852381Y-142988095D01*
X190852381Y-142607142D01*
X190900000Y-142511904D01*
X190947619Y-142464285D01*
X191042857Y-142416666D01*
X191185714Y-142416666D01*
X191280952Y-142464285D01*
X191328571Y-142511904D01*
X191376190Y-142607142D01*
X191376190Y-142988095D01*
X190852381Y-141559523D02*
X190852381Y-141750000D01*
X190900000Y-141845238D01*
X190947619Y-141892857D01*
X191090476Y-141988095D01*
X191280952Y-142035714D01*
X191661905Y-142035714D01*
X191757143Y-141988095D01*
X191804762Y-141940476D01*
X191852381Y-141845238D01*
X191852381Y-141654761D01*
X191804762Y-141559523D01*
X191757143Y-141511904D01*
X191661905Y-141464285D01*
X191423810Y-141464285D01*
X191328571Y-141511904D01*
X191280952Y-141559523D01*
X191233333Y-141654761D01*
X191233333Y-141845238D01*
X191280952Y-141940476D01*
X191328571Y-141988095D01*
X191423810Y-142035714D01*
X198052381Y-142416666D02*
X197576190Y-142750000D01*
X198052381Y-142988095D02*
X197052381Y-142988095D01*
X197052381Y-142607142D01*
X197100000Y-142511904D01*
X197147619Y-142464285D01*
X197242857Y-142416666D01*
X197385714Y-142416666D01*
X197480952Y-142464285D01*
X197528571Y-142511904D01*
X197576190Y-142607142D01*
X197576190Y-142988095D01*
X197052381Y-142083333D02*
X197052381Y-141416666D01*
X198052381Y-141845238D01*
X168352381Y-134416666D02*
X167876190Y-134750000D01*
X168352381Y-134988095D02*
X167352381Y-134988095D01*
X167352381Y-134607142D01*
X167400000Y-134511904D01*
X167447619Y-134464285D01*
X167542857Y-134416666D01*
X167685714Y-134416666D01*
X167780952Y-134464285D01*
X167828571Y-134511904D01*
X167876190Y-134607142D01*
X167876190Y-134988095D01*
X167780952Y-133845238D02*
X167733333Y-133940476D01*
X167685714Y-133988095D01*
X167590476Y-134035714D01*
X167542857Y-134035714D01*
X167447619Y-133988095D01*
X167400000Y-133940476D01*
X167352381Y-133845238D01*
X167352381Y-133654761D01*
X167400000Y-133559523D01*
X167447619Y-133511904D01*
X167542857Y-133464285D01*
X167590476Y-133464285D01*
X167685714Y-133511904D01*
X167733333Y-133559523D01*
X167780952Y-133654761D01*
X167780952Y-133845238D01*
X167828571Y-133940476D01*
X167876190Y-133988095D01*
X167971429Y-134035714D01*
X168161905Y-134035714D01*
X168257143Y-133988095D01*
X168304762Y-133940476D01*
X168352381Y-133845238D01*
X168352381Y-133654761D01*
X168304762Y-133559523D01*
X168257143Y-133511904D01*
X168161905Y-133464285D01*
X167971429Y-133464285D01*
X167876190Y-133511904D01*
X167828571Y-133559523D01*
X167780952Y-133654761D01*
X168352381Y-137666666D02*
X167876190Y-138000000D01*
X168352381Y-138238095D02*
X167352381Y-138238095D01*
X167352381Y-137857142D01*
X167400000Y-137761904D01*
X167447619Y-137714285D01*
X167542857Y-137666666D01*
X167685714Y-137666666D01*
X167780952Y-137714285D01*
X167828571Y-137761904D01*
X167876190Y-137857142D01*
X167876190Y-138238095D01*
X168352381Y-137190476D02*
X168352381Y-137000000D01*
X168304762Y-136904761D01*
X168257143Y-136857142D01*
X168114286Y-136761904D01*
X167923810Y-136714285D01*
X167542857Y-136714285D01*
X167447619Y-136761904D01*
X167400000Y-136809523D01*
X167352381Y-136904761D01*
X167352381Y-137095238D01*
X167400000Y-137190476D01*
X167447619Y-137238095D01*
X167542857Y-137285714D01*
X167780952Y-137285714D01*
X167876190Y-137238095D01*
X167923810Y-137190476D01*
X167971429Y-137095238D01*
X167971429Y-136904761D01*
X167923810Y-136809523D01*
X167876190Y-136761904D01*
X167780952Y-136714285D01*
X159738095Y-122602381D02*
X159738095Y-123411905D01*
X159785714Y-123507143D01*
X159833333Y-123554762D01*
X159928571Y-123602381D01*
X160119048Y-123602381D01*
X160214286Y-123554762D01*
X160261905Y-123507143D01*
X160309524Y-123411905D01*
X160309524Y-122602381D01*
X161309524Y-123602381D02*
X160738095Y-123602381D01*
X161023809Y-123602381D02*
X161023809Y-122602381D01*
X160928571Y-122745238D01*
X160833333Y-122840476D01*
X160738095Y-122888095D01*
X188738095Y-123052381D02*
X188738095Y-123861905D01*
X188785714Y-123957143D01*
X188833333Y-124004762D01*
X188928571Y-124052381D01*
X189119048Y-124052381D01*
X189214286Y-124004762D01*
X189261905Y-123957143D01*
X189309524Y-123861905D01*
X189309524Y-123052381D01*
X189690476Y-123052381D02*
X190309524Y-123052381D01*
X189976190Y-123433333D01*
X190119048Y-123433333D01*
X190214286Y-123480952D01*
X190261905Y-123528571D01*
X190309524Y-123623810D01*
X190309524Y-123861905D01*
X190261905Y-123957143D01*
X190214286Y-124004762D01*
X190119048Y-124052381D01*
X189833333Y-124052381D01*
X189738095Y-124004762D01*
X189690476Y-123957143D01*
X186488095Y-143052381D02*
X186488095Y-143861905D01*
X186535714Y-143957143D01*
X186583333Y-144004762D01*
X186678571Y-144052381D01*
X186869048Y-144052381D01*
X186964286Y-144004762D01*
X187011905Y-143957143D01*
X187059524Y-143861905D01*
X187059524Y-143052381D01*
X187964286Y-143385714D02*
X187964286Y-144052381D01*
X187726190Y-143004762D02*
X187488095Y-143719048D01*
X188107143Y-143719048D01*
X195722381Y-131011905D02*
X196531905Y-131011905D01*
X196627143Y-130964286D01*
X196674762Y-130916667D01*
X196722381Y-130821429D01*
X196722381Y-130630952D01*
X196674762Y-130535714D01*
X196627143Y-130488095D01*
X196531905Y-130440476D01*
X195722381Y-130440476D01*
X195722381Y-129488095D02*
X195722381Y-129964286D01*
X196198571Y-130011905D01*
X196150952Y-129964286D01*
X196103333Y-129869048D01*
X196103333Y-129630952D01*
X196150952Y-129535714D01*
X196198571Y-129488095D01*
X196293810Y-129440476D01*
X196531905Y-129440476D01*
X196627143Y-129488095D01*
X196674762Y-129535714D01*
X196722381Y-129630952D01*
X196722381Y-129869048D01*
X196674762Y-129964286D01*
X196627143Y-130011905D01*
X154182143Y-135916666D02*
X154229762Y-135964285D01*
X154277381Y-136107142D01*
X154277381Y-136202380D01*
X154229762Y-136345238D01*
X154134524Y-136440476D01*
X154039286Y-136488095D01*
X153848810Y-136535714D01*
X153705952Y-136535714D01*
X153515476Y-136488095D01*
X153420238Y-136440476D01*
X153325000Y-136345238D01*
X153277381Y-136202380D01*
X153277381Y-136107142D01*
X153325000Y-135964285D01*
X153372619Y-135916666D01*
X154277381Y-134964285D02*
X154277381Y-135535714D01*
X154277381Y-135250000D02*
X153277381Y-135250000D01*
X153420238Y-135345238D01*
X153515476Y-135440476D01*
X153563095Y-135535714D01*
X165472381Y-136511905D02*
X166281905Y-136511905D01*
X166377143Y-136464286D01*
X166424762Y-136416667D01*
X166472381Y-136321429D01*
X166472381Y-136130952D01*
X166424762Y-136035714D01*
X166377143Y-135988095D01*
X166281905Y-135940476D01*
X165472381Y-135940476D01*
X165567619Y-135511905D02*
X165520000Y-135464286D01*
X165472381Y-135369048D01*
X165472381Y-135130952D01*
X165520000Y-135035714D01*
X165567619Y-134988095D01*
X165662857Y-134940476D01*
X165758095Y-134940476D01*
X165900952Y-134988095D01*
X166472381Y-135559524D01*
X166472381Y-134940476D01*
X162083334Y-120757143D02*
X162035715Y-120804762D01*
X161892858Y-120852381D01*
X161797620Y-120852381D01*
X161654762Y-120804762D01*
X161559524Y-120709524D01*
X161511905Y-120614286D01*
X161464286Y-120423810D01*
X161464286Y-120280952D01*
X161511905Y-120090476D01*
X161559524Y-119995238D01*
X161654762Y-119900000D01*
X161797620Y-119852381D01*
X161892858Y-119852381D01*
X162035715Y-119900000D01*
X162083334Y-119947619D01*
X162416667Y-119852381D02*
X163035715Y-119852381D01*
X162702381Y-120233333D01*
X162845239Y-120233333D01*
X162940477Y-120280952D01*
X162988096Y-120328571D01*
X163035715Y-120423810D01*
X163035715Y-120661905D01*
X162988096Y-120757143D01*
X162940477Y-120804762D01*
X162845239Y-120852381D01*
X162559524Y-120852381D01*
X162464286Y-120804762D01*
X162416667Y-120757143D01*
X177407143Y-131916666D02*
X177454762Y-131964285D01*
X177502381Y-132107142D01*
X177502381Y-132202380D01*
X177454762Y-132345238D01*
X177359524Y-132440476D01*
X177264286Y-132488095D01*
X177073810Y-132535714D01*
X176930952Y-132535714D01*
X176740476Y-132488095D01*
X176645238Y-132440476D01*
X176550000Y-132345238D01*
X176502381Y-132202380D01*
X176502381Y-132107142D01*
X176550000Y-131964285D01*
X176597619Y-131916666D01*
X176835714Y-131059523D02*
X177502381Y-131059523D01*
X176454762Y-131297619D02*
X177169048Y-131535714D01*
X177169048Y-130916666D01*
X176407143Y-126666666D02*
X176454762Y-126714285D01*
X176502381Y-126857142D01*
X176502381Y-126952380D01*
X176454762Y-127095238D01*
X176359524Y-127190476D01*
X176264286Y-127238095D01*
X176073810Y-127285714D01*
X175930952Y-127285714D01*
X175740476Y-127238095D01*
X175645238Y-127190476D01*
X175550000Y-127095238D01*
X175502381Y-126952380D01*
X175502381Y-126857142D01*
X175550000Y-126714285D01*
X175597619Y-126666666D01*
X175502381Y-125761904D02*
X175502381Y-126238095D01*
X175978571Y-126285714D01*
X175930952Y-126238095D01*
X175883333Y-126142857D01*
X175883333Y-125904761D01*
X175930952Y-125809523D01*
X175978571Y-125761904D01*
X176073810Y-125714285D01*
X176311905Y-125714285D01*
X176407143Y-125761904D01*
X176454762Y-125809523D01*
X176502381Y-125904761D01*
X176502381Y-126142857D01*
X176454762Y-126238095D01*
X176407143Y-126285714D01*
X181057143Y-120416666D02*
X181104762Y-120464285D01*
X181152381Y-120607142D01*
X181152381Y-120702380D01*
X181104762Y-120845238D01*
X181009524Y-120940476D01*
X180914286Y-120988095D01*
X180723810Y-121035714D01*
X180580952Y-121035714D01*
X180390476Y-120988095D01*
X180295238Y-120940476D01*
X180200000Y-120845238D01*
X180152381Y-120702380D01*
X180152381Y-120607142D01*
X180200000Y-120464285D01*
X180247619Y-120416666D01*
X180152381Y-119559523D02*
X180152381Y-119750000D01*
X180200000Y-119845238D01*
X180247619Y-119892857D01*
X180390476Y-119988095D01*
X180580952Y-120035714D01*
X180961905Y-120035714D01*
X181057143Y-119988095D01*
X181104762Y-119940476D01*
X181152381Y-119845238D01*
X181152381Y-119654761D01*
X181104762Y-119559523D01*
X181057143Y-119511904D01*
X180961905Y-119464285D01*
X180723810Y-119464285D01*
X180628571Y-119511904D01*
X180580952Y-119559523D01*
X180533333Y-119654761D01*
X180533333Y-119845238D01*
X180580952Y-119940476D01*
X180628571Y-119988095D01*
X180723810Y-120035714D01*
X183157143Y-140916666D02*
X183204762Y-140964285D01*
X183252381Y-141107142D01*
X183252381Y-141202380D01*
X183204762Y-141345238D01*
X183109524Y-141440476D01*
X183014286Y-141488095D01*
X182823810Y-141535714D01*
X182680952Y-141535714D01*
X182490476Y-141488095D01*
X182395238Y-141440476D01*
X182300000Y-141345238D01*
X182252381Y-141202380D01*
X182252381Y-141107142D01*
X182300000Y-140964285D01*
X182347619Y-140916666D01*
X182252381Y-140583333D02*
X182252381Y-139916666D01*
X183252381Y-140345238D01*
X189907143Y-131166666D02*
X189954762Y-131214285D01*
X190002381Y-131357142D01*
X190002381Y-131452380D01*
X189954762Y-131595238D01*
X189859524Y-131690476D01*
X189764286Y-131738095D01*
X189573810Y-131785714D01*
X189430952Y-131785714D01*
X189240476Y-131738095D01*
X189145238Y-131690476D01*
X189050000Y-131595238D01*
X189002381Y-131452380D01*
X189002381Y-131357142D01*
X189050000Y-131214285D01*
X189097619Y-131166666D01*
X189430952Y-130595238D02*
X189383333Y-130690476D01*
X189335714Y-130738095D01*
X189240476Y-130785714D01*
X189192857Y-130785714D01*
X189097619Y-130738095D01*
X189050000Y-130690476D01*
X189002381Y-130595238D01*
X189002381Y-130404761D01*
X189050000Y-130309523D01*
X189097619Y-130261904D01*
X189192857Y-130214285D01*
X189240476Y-130214285D01*
X189335714Y-130261904D01*
X189383333Y-130309523D01*
X189430952Y-130404761D01*
X189430952Y-130595238D01*
X189478571Y-130690476D01*
X189526190Y-130738095D01*
X189621429Y-130785714D01*
X189811905Y-130785714D01*
X189907143Y-130738095D01*
X189954762Y-130690476D01*
X190002381Y-130595238D01*
X190002381Y-130404761D01*
X189954762Y-130309523D01*
X189907143Y-130261904D01*
X189811905Y-130214285D01*
X189621429Y-130214285D01*
X189526190Y-130261904D01*
X189478571Y-130309523D01*
X189430952Y-130404761D01*
X191957143Y-130666666D02*
X192004762Y-130714285D01*
X192052381Y-130857142D01*
X192052381Y-130952380D01*
X192004762Y-131095238D01*
X191909524Y-131190476D01*
X191814286Y-131238095D01*
X191623810Y-131285714D01*
X191480952Y-131285714D01*
X191290476Y-131238095D01*
X191195238Y-131190476D01*
X191100000Y-131095238D01*
X191052381Y-130952380D01*
X191052381Y-130857142D01*
X191100000Y-130714285D01*
X191147619Y-130666666D01*
X192052381Y-130190476D02*
X192052381Y-130000000D01*
X192004762Y-129904761D01*
X191957143Y-129857142D01*
X191814286Y-129761904D01*
X191623810Y-129714285D01*
X191242857Y-129714285D01*
X191147619Y-129761904D01*
X191100000Y-129809523D01*
X191052381Y-129904761D01*
X191052381Y-130095238D01*
X191100000Y-130190476D01*
X191147619Y-130238095D01*
X191242857Y-130285714D01*
X191480952Y-130285714D01*
X191576190Y-130238095D01*
X191623810Y-130190476D01*
X191671429Y-130095238D01*
X191671429Y-129904761D01*
X191623810Y-129809523D01*
X191576190Y-129761904D01*
X191480952Y-129714285D01*
X192257143Y-123142857D02*
X192304762Y-123190476D01*
X192352381Y-123333333D01*
X192352381Y-123428571D01*
X192304762Y-123571429D01*
X192209524Y-123666667D01*
X192114286Y-123714286D01*
X191923810Y-123761905D01*
X191780952Y-123761905D01*
X191590476Y-123714286D01*
X191495238Y-123666667D01*
X191400000Y-123571429D01*
X191352381Y-123428571D01*
X191352381Y-123333333D01*
X191400000Y-123190476D01*
X191447619Y-123142857D01*
X192352381Y-122190476D02*
X192352381Y-122761905D01*
X192352381Y-122476191D02*
X191352381Y-122476191D01*
X191495238Y-122571429D01*
X191590476Y-122666667D01*
X191638095Y-122761905D01*
X191352381Y-121571429D02*
X191352381Y-121476190D01*
X191400000Y-121380952D01*
X191447619Y-121333333D01*
X191542857Y-121285714D01*
X191733333Y-121238095D01*
X191971429Y-121238095D01*
X192161905Y-121285714D01*
X192257143Y-121333333D01*
X192304762Y-121380952D01*
X192352381Y-121476190D01*
X192352381Y-121571429D01*
X192304762Y-121666667D01*
X192257143Y-121714286D01*
X192161905Y-121761905D01*
X191971429Y-121809524D01*
X191733333Y-121809524D01*
X191542857Y-121761905D01*
X191447619Y-121714286D01*
X191400000Y-121666667D01*
X191352381Y-121571429D01*
X188857143Y-116257143D02*
X188809524Y-116304762D01*
X188666667Y-116352381D01*
X188571429Y-116352381D01*
X188428571Y-116304762D01*
X188333333Y-116209524D01*
X188285714Y-116114286D01*
X188238095Y-115923810D01*
X188238095Y-115780952D01*
X188285714Y-115590476D01*
X188333333Y-115495238D01*
X188428571Y-115400000D01*
X188571429Y-115352381D01*
X188666667Y-115352381D01*
X188809524Y-115400000D01*
X188857143Y-115447619D01*
X189809524Y-116352381D02*
X189238095Y-116352381D01*
X189523809Y-116352381D02*
X189523809Y-115352381D01*
X189428571Y-115495238D01*
X189333333Y-115590476D01*
X189238095Y-115638095D01*
X190761905Y-116352381D02*
X190190476Y-116352381D01*
X190476190Y-116352381D02*
X190476190Y-115352381D01*
X190380952Y-115495238D01*
X190285714Y-115590476D01*
X190190476Y-115638095D01*
X198557143Y-130142857D02*
X198604762Y-130190476D01*
X198652381Y-130333333D01*
X198652381Y-130428571D01*
X198604762Y-130571429D01*
X198509524Y-130666667D01*
X198414286Y-130714286D01*
X198223810Y-130761905D01*
X198080952Y-130761905D01*
X197890476Y-130714286D01*
X197795238Y-130666667D01*
X197700000Y-130571429D01*
X197652381Y-130428571D01*
X197652381Y-130333333D01*
X197700000Y-130190476D01*
X197747619Y-130142857D01*
X198652381Y-129190476D02*
X198652381Y-129761905D01*
X198652381Y-129476191D02*
X197652381Y-129476191D01*
X197795238Y-129571429D01*
X197890476Y-129666667D01*
X197938095Y-129761905D01*
X197747619Y-128809524D02*
X197700000Y-128761905D01*
X197652381Y-128666667D01*
X197652381Y-128428571D01*
X197700000Y-128333333D01*
X197747619Y-128285714D01*
X197842857Y-128238095D01*
X197938095Y-128238095D01*
X198080952Y-128285714D01*
X198652381Y-128857143D01*
X198652381Y-128238095D01*
X186607143Y-136257143D02*
X186559524Y-136304762D01*
X186416667Y-136352381D01*
X186321429Y-136352381D01*
X186178571Y-136304762D01*
X186083333Y-136209524D01*
X186035714Y-136114286D01*
X185988095Y-135923810D01*
X185988095Y-135780952D01*
X186035714Y-135590476D01*
X186083333Y-135495238D01*
X186178571Y-135400000D01*
X186321429Y-135352381D01*
X186416667Y-135352381D01*
X186559524Y-135400000D01*
X186607143Y-135447619D01*
X187559524Y-136352381D02*
X186988095Y-136352381D01*
X187273809Y-136352381D02*
X187273809Y-135352381D01*
X187178571Y-135495238D01*
X187083333Y-135590476D01*
X186988095Y-135638095D01*
X187892857Y-135352381D02*
X188511905Y-135352381D01*
X188178571Y-135733333D01*
X188321429Y-135733333D01*
X188416667Y-135780952D01*
X188464286Y-135828571D01*
X188511905Y-135923810D01*
X188511905Y-136161905D01*
X188464286Y-136257143D01*
X188416667Y-136304762D01*
X188321429Y-136352381D01*
X188035714Y-136352381D01*
X187940476Y-136304762D01*
X187892857Y-136257143D01*
X189757143Y-142892857D02*
X189804762Y-142940476D01*
X189852381Y-143083333D01*
X189852381Y-143178571D01*
X189804762Y-143321429D01*
X189709524Y-143416667D01*
X189614286Y-143464286D01*
X189423810Y-143511905D01*
X189280952Y-143511905D01*
X189090476Y-143464286D01*
X188995238Y-143416667D01*
X188900000Y-143321429D01*
X188852381Y-143178571D01*
X188852381Y-143083333D01*
X188900000Y-142940476D01*
X188947619Y-142892857D01*
X189852381Y-141940476D02*
X189852381Y-142511905D01*
X189852381Y-142226191D02*
X188852381Y-142226191D01*
X188995238Y-142321429D01*
X189090476Y-142416667D01*
X189138095Y-142511905D01*
X189185714Y-141083333D02*
X189852381Y-141083333D01*
X188804762Y-141321429D02*
X189519048Y-141559524D01*
X189519048Y-140940476D01*
X198057143Y-121392857D02*
X198104762Y-121440476D01*
X198152381Y-121583333D01*
X198152381Y-121678571D01*
X198104762Y-121821429D01*
X198009524Y-121916667D01*
X197914286Y-121964286D01*
X197723810Y-122011905D01*
X197580952Y-122011905D01*
X197390476Y-121964286D01*
X197295238Y-121916667D01*
X197200000Y-121821429D01*
X197152381Y-121678571D01*
X197152381Y-121583333D01*
X197200000Y-121440476D01*
X197247619Y-121392857D01*
X198152381Y-120440476D02*
X198152381Y-121011905D01*
X198152381Y-120726191D02*
X197152381Y-120726191D01*
X197295238Y-120821429D01*
X197390476Y-120916667D01*
X197438095Y-121011905D01*
X197152381Y-119535714D02*
X197152381Y-120011905D01*
X197628571Y-120059524D01*
X197580952Y-120011905D01*
X197533333Y-119916667D01*
X197533333Y-119678571D01*
X197580952Y-119583333D01*
X197628571Y-119535714D01*
X197723810Y-119488095D01*
X197961905Y-119488095D01*
X198057143Y-119535714D01*
X198104762Y-119583333D01*
X198152381Y-119678571D01*
X198152381Y-119916667D01*
X198104762Y-120011905D01*
X198057143Y-120059524D01*
X164107143Y-142207143D02*
X164059524Y-142254762D01*
X163916667Y-142302381D01*
X163821429Y-142302381D01*
X163678571Y-142254762D01*
X163583333Y-142159524D01*
X163535714Y-142064286D01*
X163488095Y-141873810D01*
X163488095Y-141730952D01*
X163535714Y-141540476D01*
X163583333Y-141445238D01*
X163678571Y-141350000D01*
X163821429Y-141302381D01*
X163916667Y-141302381D01*
X164059524Y-141350000D01*
X164107143Y-141397619D01*
X165059524Y-142302381D02*
X164488095Y-142302381D01*
X164773809Y-142302381D02*
X164773809Y-141302381D01*
X164678571Y-141445238D01*
X164583333Y-141540476D01*
X164488095Y-141588095D01*
X165392857Y-141302381D02*
X166059524Y-141302381D01*
X165630952Y-142302381D01*
X177032143Y-139392857D02*
X177079762Y-139440476D01*
X177127381Y-139583333D01*
X177127381Y-139678571D01*
X177079762Y-139821429D01*
X176984524Y-139916667D01*
X176889286Y-139964286D01*
X176698810Y-140011905D01*
X176555952Y-140011905D01*
X176365476Y-139964286D01*
X176270238Y-139916667D01*
X176175000Y-139821429D01*
X176127381Y-139678571D01*
X176127381Y-139583333D01*
X176175000Y-139440476D01*
X176222619Y-139392857D01*
X177127381Y-138440476D02*
X177127381Y-139011905D01*
X177127381Y-138726191D02*
X176127381Y-138726191D01*
X176270238Y-138821429D01*
X176365476Y-138916667D01*
X176413095Y-139011905D01*
X176555952Y-137869048D02*
X176508333Y-137964286D01*
X176460714Y-138011905D01*
X176365476Y-138059524D01*
X176317857Y-138059524D01*
X176222619Y-138011905D01*
X176175000Y-137964286D01*
X176127381Y-137869048D01*
X176127381Y-137678571D01*
X176175000Y-137583333D01*
X176222619Y-137535714D01*
X176317857Y-137488095D01*
X176365476Y-137488095D01*
X176460714Y-137535714D01*
X176508333Y-137583333D01*
X176555952Y-137678571D01*
X176555952Y-137869048D01*
X176603571Y-137964286D01*
X176651190Y-138011905D01*
X176746429Y-138059524D01*
X176936905Y-138059524D01*
X177032143Y-138011905D01*
X177079762Y-137964286D01*
X177127381Y-137869048D01*
X177127381Y-137678571D01*
X177079762Y-137583333D01*
X177032143Y-137535714D01*
X176936905Y-137488095D01*
X176746429Y-137488095D01*
X176651190Y-137535714D01*
X176603571Y-137583333D01*
X176555952Y-137678571D01*
X195807143Y-141392857D02*
X195854762Y-141440476D01*
X195902381Y-141583333D01*
X195902381Y-141678571D01*
X195854762Y-141821429D01*
X195759524Y-141916667D01*
X195664286Y-141964286D01*
X195473810Y-142011905D01*
X195330952Y-142011905D01*
X195140476Y-141964286D01*
X195045238Y-141916667D01*
X194950000Y-141821429D01*
X194902381Y-141678571D01*
X194902381Y-141583333D01*
X194950000Y-141440476D01*
X194997619Y-141392857D01*
X195902381Y-140440476D02*
X195902381Y-141011905D01*
X195902381Y-140726191D02*
X194902381Y-140726191D01*
X195045238Y-140821429D01*
X195140476Y-140916667D01*
X195188095Y-141011905D01*
X194902381Y-139583333D02*
X194902381Y-139773810D01*
X194950000Y-139869048D01*
X194997619Y-139916667D01*
X195140476Y-140011905D01*
X195330952Y-140059524D01*
X195711905Y-140059524D01*
X195807143Y-140011905D01*
X195854762Y-139964286D01*
X195902381Y-139869048D01*
X195902381Y-139678571D01*
X195854762Y-139583333D01*
X195807143Y-139535714D01*
X195711905Y-139488095D01*
X195473810Y-139488095D01*
X195378571Y-139535714D01*
X195330952Y-139583333D01*
X195283333Y-139678571D01*
X195283333Y-139869048D01*
X195330952Y-139964286D01*
X195378571Y-140011905D01*
X195473810Y-140059524D01*
M02*
