G04 #@! TF.FileFunction,Soldermask,Top*
%FSLAX46Y46*%
G04 Gerber Fmt 4.6, Leading zero omitted, Abs format (unit mm)*
G04 Created by KiCad (PCBNEW (2014-11-17 BZR 5289)-product) date Mon 10 Aug 2015 05:49:24 PM EDT*
%MOMM*%
G01*
G04 APERTURE LIST*
%ADD10C,0.100000*%
%ADD11R,1.700000X0.900000*%
%ADD12R,1.220000X0.910000*%
%ADD13R,6.000000X1.350000*%
%ADD14R,2.032000X1.727200*%
%ADD15O,2.032000X1.727200*%
%ADD16R,3.300000X1.000000*%
%ADD17R,1.000000X3.300000*%
%ADD18R,1.000000X5.100000*%
%ADD19R,5.100000X1.000000*%
%ADD20R,1.000000X2.600000*%
%ADD21R,2.600000X1.000000*%
%ADD22R,0.700000X1.300000*%
%ADD23R,1.300000X0.700000*%
%ADD24R,1.450000X0.450000*%
%ADD25R,1.143000X0.508000*%
%ADD26R,1.600200X2.600960*%
%ADD27R,1.000000X1.250000*%
%ADD28R,1.600000X1.000000*%
%ADD29R,1.250000X1.000000*%
G04 APERTURE END LIST*
D10*
D11*
X156000000Y-126300000D03*
X156000000Y-129200000D03*
D12*
X171250000Y-130135000D03*
X171250000Y-126865000D03*
D13*
X167000000Y-125960000D03*
X167000000Y-130100000D03*
D14*
X208250000Y-137000000D03*
D15*
X208250000Y-134460000D03*
X208250000Y-131920000D03*
X208250000Y-129380000D03*
X208250000Y-126840000D03*
X208250000Y-124300000D03*
D16*
X153570000Y-143200000D03*
X176430000Y-143200000D03*
X176430000Y-117800000D03*
X153570000Y-117800000D03*
D17*
X177700000Y-119070000D03*
X177700000Y-141930000D03*
X152300000Y-141930000D03*
X152300000Y-119070000D03*
D18*
X152300000Y-130500000D03*
X177700000Y-130500000D03*
D19*
X165000000Y-117800000D03*
X165000000Y-143200000D03*
D20*
X177700000Y-119070000D03*
X177700000Y-141930000D03*
X152300000Y-136850000D03*
X152300000Y-124150000D03*
D21*
X158650000Y-143200000D03*
X158650000Y-117800000D03*
X171350000Y-117800000D03*
X171350000Y-143200000D03*
D22*
X158050000Y-122500000D03*
X159950000Y-122500000D03*
X166200000Y-124000000D03*
X164300000Y-124000000D03*
X164550000Y-122000000D03*
X166450000Y-122000000D03*
D23*
X196000000Y-123450000D03*
X196000000Y-121550000D03*
X198000000Y-121550000D03*
X198000000Y-123450000D03*
X193500000Y-143200000D03*
X193500000Y-141300000D03*
X195500000Y-141300000D03*
X195500000Y-143200000D03*
X170000000Y-135200000D03*
X170000000Y-133300000D03*
X170000000Y-138450000D03*
X170000000Y-136550000D03*
D24*
X158300000Y-124775000D03*
X158300000Y-125425000D03*
X158300000Y-126075000D03*
X158300000Y-126725000D03*
X162700000Y-126725000D03*
X162700000Y-126075000D03*
X162700000Y-125425000D03*
X162700000Y-124775000D03*
X191700000Y-121975000D03*
X191700000Y-121325000D03*
X191700000Y-120675000D03*
X191700000Y-120025000D03*
X187300000Y-120025000D03*
X187300000Y-120675000D03*
X187300000Y-121325000D03*
X187300000Y-121975000D03*
X189450000Y-141975000D03*
X189450000Y-141325000D03*
X189450000Y-140675000D03*
X189450000Y-140025000D03*
X185050000Y-140025000D03*
X185050000Y-140675000D03*
X185050000Y-141325000D03*
X185050000Y-141975000D03*
D25*
X198175000Y-128345000D03*
X198175000Y-129615000D03*
X198175000Y-130885000D03*
X198175000Y-132155000D03*
X191825000Y-132155000D03*
X191825000Y-130885000D03*
X191825000Y-129615000D03*
X191825000Y-128345000D03*
D26*
X157000000Y-133949140D03*
X157000000Y-137550860D03*
D25*
X167925000Y-133845000D03*
X167925000Y-135115000D03*
X167925000Y-136385000D03*
X167925000Y-137655000D03*
X161575000Y-137655000D03*
X161575000Y-136385000D03*
X161575000Y-135115000D03*
X161575000Y-133845000D03*
D27*
X161250000Y-122500000D03*
X163250000Y-122500000D03*
D28*
X174750000Y-130250000D03*
X174750000Y-133250000D03*
X173750000Y-125000000D03*
X173750000Y-128000000D03*
X183000000Y-121750000D03*
X183000000Y-118750000D03*
X180500000Y-139250000D03*
X180500000Y-142250000D03*
X187250000Y-129500000D03*
X187250000Y-132500000D03*
D29*
X189500000Y-129500000D03*
X189500000Y-131500000D03*
X194000000Y-123500000D03*
X194000000Y-121500000D03*
D27*
X188500000Y-118000000D03*
X190500000Y-118000000D03*
D28*
X200500000Y-131000000D03*
X200500000Y-128000000D03*
D27*
X186250000Y-138000000D03*
X188250000Y-138000000D03*
D29*
X191500000Y-143250000D03*
X191500000Y-141250000D03*
D28*
X200000000Y-122250000D03*
X200000000Y-119250000D03*
D27*
X165750000Y-139750000D03*
X163750000Y-139750000D03*
D26*
X173500000Y-140550860D03*
X173500000Y-136949140D03*
D28*
X197750000Y-142250000D03*
X197750000Y-139250000D03*
M02*
