G04 #@! TF.FileFunction,Soldermask,Bot*
%FSLAX46Y46*%
G04 Gerber Fmt 4.6, Leading zero omitted, Abs format (unit mm)*
G04 Created by KiCad (PCBNEW (2014-11-17 BZR 5289)-product) date Wed 21 Oct 2015 02:01:30 PM EDT*
%MOMM*%
G01*
G04 APERTURE LIST*
%ADD10C,0.100000*%
%ADD11C,1.998980*%
%ADD12C,3.000000*%
%ADD13R,2.032000X1.727200*%
%ADD14O,2.032000X1.727200*%
%ADD15R,1.727200X2.032000*%
%ADD16O,1.727200X2.032000*%
%ADD17R,2.032000X2.032000*%
%ADD18O,2.032000X2.032000*%
%ADD19R,2.235200X2.235200*%
G04 APERTURE END LIST*
D10*
D11*
X175018000Y-111255000D03*
D12*
X177718020Y-113955020D03*
X177718020Y-108554980D03*
X172317980Y-108554980D03*
X172317980Y-113955020D03*
D13*
X174498000Y-89365000D03*
D14*
X174498000Y-91905000D03*
X174498000Y-94445000D03*
X174498000Y-96985000D03*
X174498000Y-99525000D03*
X174498000Y-102065000D03*
D15*
X137498000Y-78865000D03*
D16*
X140038000Y-78865000D03*
X142578000Y-78865000D03*
X145118000Y-78865000D03*
D15*
X156748000Y-75615000D03*
D16*
X159288000Y-75615000D03*
X161828000Y-75615000D03*
X164368000Y-75615000D03*
X166908000Y-75615000D03*
X169448000Y-75615000D03*
X171988000Y-75615000D03*
X174528000Y-75615000D03*
D15*
X129748000Y-75615000D03*
D16*
X132288000Y-75615000D03*
X134828000Y-75615000D03*
X137368000Y-75615000D03*
X139908000Y-75615000D03*
X142448000Y-75615000D03*
X144988000Y-75615000D03*
X147528000Y-75615000D03*
X150068000Y-75615000D03*
X152608000Y-75615000D03*
D17*
X171998000Y-79365000D03*
D18*
X174538000Y-79365000D03*
D17*
X156698000Y-78965000D03*
D18*
X159238000Y-78965000D03*
D19*
X133998000Y-79615000D03*
X127998000Y-83365000D03*
X131748000Y-83365000D03*
D15*
X161748000Y-123865000D03*
D16*
X164288000Y-123865000D03*
X166828000Y-123865000D03*
X169368000Y-123865000D03*
X171908000Y-123865000D03*
X174448000Y-123865000D03*
D15*
X138998000Y-123865000D03*
D16*
X141538000Y-123865000D03*
X144078000Y-123865000D03*
X146618000Y-123865000D03*
X149158000Y-123865000D03*
X151698000Y-123865000D03*
X154238000Y-123865000D03*
X156778000Y-123865000D03*
D19*
X128998000Y-116365000D03*
M02*
