G04 #@! TF.FileFunction,Legend,Bot*
%FSLAX46Y46*%
G04 Gerber Fmt 4.6, Leading zero omitted, Abs format (unit mm)*
G04 Created by KiCad (PCBNEW (2014-11-17 BZR 5289)-product) date Wed 21 Oct 2015 02:01:30 PM EDT*
%MOMM*%
G01*
G04 APERTURE LIST*
%ADD10C,0.100000*%
%ADD11C,0.300000*%
G04 APERTURE END LIST*
D10*
D11*
X164847998Y-86515000D02*
X164133712Y-86515000D01*
X164990855Y-86943571D02*
X164490855Y-85443571D01*
X163990855Y-86943571D01*
X163490855Y-86943571D02*
X163490855Y-85443571D01*
X163133712Y-85443571D01*
X162919427Y-85515000D01*
X162776569Y-85657857D01*
X162705141Y-85800714D01*
X162633712Y-86086429D01*
X162633712Y-86300714D01*
X162705141Y-86586429D01*
X162776569Y-86729286D01*
X162919427Y-86872143D01*
X163133712Y-86943571D01*
X163490855Y-86943571D01*
X161276569Y-85443571D02*
X161990855Y-85443571D01*
X162062284Y-86157857D01*
X161990855Y-86086429D01*
X161847998Y-86015000D01*
X161490855Y-86015000D01*
X161347998Y-86086429D01*
X161276569Y-86157857D01*
X161205141Y-86300714D01*
X161205141Y-86657857D01*
X161276569Y-86800714D01*
X161347998Y-86872143D01*
X161490855Y-86943571D01*
X161847998Y-86943571D01*
X161990855Y-86872143D01*
X162062284Y-86800714D01*
X160705141Y-85443571D02*
X159705141Y-85443571D01*
X160347998Y-86943571D01*
X159062285Y-86943571D02*
X158776570Y-86943571D01*
X158633713Y-86872143D01*
X158562285Y-86800714D01*
X158419427Y-86586429D01*
X158347999Y-86300714D01*
X158347999Y-85729286D01*
X158419427Y-85586429D01*
X158490856Y-85515000D01*
X158633713Y-85443571D01*
X158919427Y-85443571D01*
X159062285Y-85515000D01*
X159133713Y-85586429D01*
X159205142Y-85729286D01*
X159205142Y-86086429D01*
X159133713Y-86229286D01*
X159062285Y-86300714D01*
X158919427Y-86372143D01*
X158633713Y-86372143D01*
X158490856Y-86300714D01*
X158419427Y-86229286D01*
X158347999Y-86086429D01*
X156919428Y-86943571D02*
X157776571Y-86943571D01*
X157347999Y-86943571D02*
X157347999Y-85443571D01*
X157490856Y-85657857D01*
X157633714Y-85800714D01*
X157776571Y-85872143D01*
X155205143Y-85586429D02*
X155133714Y-85515000D01*
X154990857Y-85443571D01*
X154633714Y-85443571D01*
X154490857Y-85515000D01*
X154419428Y-85586429D01*
X154348000Y-85729286D01*
X154348000Y-85872143D01*
X154419428Y-86086429D01*
X155276571Y-86943571D01*
X154348000Y-86943571D01*
X153419429Y-85443571D02*
X153276572Y-85443571D01*
X153133715Y-85515000D01*
X153062286Y-85586429D01*
X152990857Y-85729286D01*
X152919429Y-86015000D01*
X152919429Y-86372143D01*
X152990857Y-86657857D01*
X153062286Y-86800714D01*
X153133715Y-86872143D01*
X153276572Y-86943571D01*
X153419429Y-86943571D01*
X153562286Y-86872143D01*
X153633715Y-86800714D01*
X153705143Y-86657857D01*
X153776572Y-86372143D01*
X153776572Y-86015000D01*
X153705143Y-85729286D01*
X153633715Y-85586429D01*
X153562286Y-85515000D01*
X153419429Y-85443571D01*
X151776572Y-86157857D02*
X151562286Y-86229286D01*
X151490858Y-86300714D01*
X151419429Y-86443571D01*
X151419429Y-86657857D01*
X151490858Y-86800714D01*
X151562286Y-86872143D01*
X151705144Y-86943571D01*
X152276572Y-86943571D01*
X152276572Y-85443571D01*
X151776572Y-85443571D01*
X151633715Y-85515000D01*
X151562286Y-85586429D01*
X151490858Y-85729286D01*
X151490858Y-85872143D01*
X151562286Y-86015000D01*
X151633715Y-86086429D01*
X151776572Y-86157857D01*
X152276572Y-86157857D01*
X150776572Y-86943571D02*
X150776572Y-85943571D01*
X150776572Y-85443571D02*
X150848001Y-85515000D01*
X150776572Y-85586429D01*
X150705144Y-85515000D01*
X150776572Y-85443571D01*
X150776572Y-85586429D01*
X150276572Y-85943571D02*
X149705143Y-85943571D01*
X150062286Y-85443571D02*
X150062286Y-86729286D01*
X149990858Y-86872143D01*
X149848000Y-86943571D01*
X149705143Y-86943571D01*
X148062286Y-86943571D02*
X148062286Y-85443571D01*
X147705143Y-85443571D01*
X147490858Y-85515000D01*
X147348000Y-85657857D01*
X147276572Y-85800714D01*
X147205143Y-86086429D01*
X147205143Y-86300714D01*
X147276572Y-86586429D01*
X147348000Y-86729286D01*
X147490858Y-86872143D01*
X147705143Y-86943571D01*
X148062286Y-86943571D01*
X146633715Y-86515000D02*
X145919429Y-86515000D01*
X146776572Y-86943571D02*
X146276572Y-85443571D01*
X145776572Y-86943571D01*
X144419429Y-86800714D02*
X144490858Y-86872143D01*
X144705144Y-86943571D01*
X144848001Y-86943571D01*
X145062286Y-86872143D01*
X145205144Y-86729286D01*
X145276572Y-86586429D01*
X145348001Y-86300714D01*
X145348001Y-86086429D01*
X145276572Y-85800714D01*
X145205144Y-85657857D01*
X145062286Y-85515000D01*
X144848001Y-85443571D01*
X144705144Y-85443571D01*
X144490858Y-85515000D01*
X144419429Y-85586429D01*
X142705144Y-86872143D02*
X142490858Y-86943571D01*
X142133715Y-86943571D01*
X141990858Y-86872143D01*
X141919429Y-86800714D01*
X141848001Y-86657857D01*
X141848001Y-86515000D01*
X141919429Y-86372143D01*
X141990858Y-86300714D01*
X142133715Y-86229286D01*
X142419429Y-86157857D01*
X142562287Y-86086429D01*
X142633715Y-86015000D01*
X142705144Y-85872143D01*
X142705144Y-85729286D01*
X142633715Y-85586429D01*
X142562287Y-85515000D01*
X142419429Y-85443571D01*
X142062287Y-85443571D01*
X141848001Y-85515000D01*
X141205144Y-86943571D02*
X141205144Y-85443571D01*
X140562287Y-86943571D02*
X140562287Y-86157857D01*
X140633716Y-86015000D01*
X140776573Y-85943571D01*
X140990858Y-85943571D01*
X141133716Y-86015000D01*
X141205144Y-86086429D01*
X139848001Y-86943571D02*
X139848001Y-85943571D01*
X139848001Y-85443571D02*
X139919430Y-85515000D01*
X139848001Y-85586429D01*
X139776573Y-85515000D01*
X139848001Y-85443571D01*
X139848001Y-85586429D01*
X138562287Y-86872143D02*
X138705144Y-86943571D01*
X138990858Y-86943571D01*
X139133715Y-86872143D01*
X139205144Y-86729286D01*
X139205144Y-86157857D01*
X139133715Y-86015000D01*
X138990858Y-85943571D01*
X138705144Y-85943571D01*
X138562287Y-86015000D01*
X138490858Y-86157857D01*
X138490858Y-86300714D01*
X139205144Y-86443571D01*
X137633715Y-86943571D02*
X137776573Y-86872143D01*
X137848001Y-86729286D01*
X137848001Y-85443571D01*
X136419430Y-86943571D02*
X136419430Y-85443571D01*
X136419430Y-86872143D02*
X136562287Y-86943571D01*
X136848001Y-86943571D01*
X136990859Y-86872143D01*
X137062287Y-86800714D01*
X137133716Y-86657857D01*
X137133716Y-86229286D01*
X137062287Y-86086429D01*
X136990859Y-86015000D01*
X136848001Y-85943571D01*
X136562287Y-85943571D01*
X136419430Y-86015000D01*
X165919428Y-87843571D02*
X165562285Y-89343571D01*
X165276571Y-88272143D01*
X164990857Y-89343571D01*
X164633714Y-87843571D01*
X164062285Y-89343571D02*
X164062285Y-87843571D01*
X163419428Y-89343571D02*
X163419428Y-88557857D01*
X163490857Y-88415000D01*
X163633714Y-88343571D01*
X163847999Y-88343571D01*
X163990857Y-88415000D01*
X164062285Y-88486429D01*
X162705142Y-89343571D02*
X162705142Y-88343571D01*
X162705142Y-87843571D02*
X162776571Y-87915000D01*
X162705142Y-87986429D01*
X162633714Y-87915000D01*
X162705142Y-87843571D01*
X162705142Y-87986429D01*
X162205142Y-88343571D02*
X161633713Y-88343571D01*
X161990856Y-87843571D02*
X161990856Y-89129286D01*
X161919428Y-89272143D01*
X161776570Y-89343571D01*
X161633713Y-89343571D01*
X160562285Y-89272143D02*
X160705142Y-89343571D01*
X160990856Y-89343571D01*
X161133713Y-89272143D01*
X161205142Y-89129286D01*
X161205142Y-88557857D01*
X161133713Y-88415000D01*
X160990856Y-88343571D01*
X160705142Y-88343571D01*
X160562285Y-88415000D01*
X160490856Y-88557857D01*
X160490856Y-88700714D01*
X161205142Y-88843571D01*
X160062285Y-88343571D02*
X159490856Y-88343571D01*
X159847999Y-89343571D02*
X159847999Y-88057857D01*
X159776571Y-87915000D01*
X159633713Y-87843571D01*
X159490856Y-87843571D01*
X158776570Y-89343571D02*
X158919428Y-89272143D01*
X158990856Y-89200714D01*
X159062285Y-89057857D01*
X159062285Y-88629286D01*
X158990856Y-88486429D01*
X158919428Y-88415000D01*
X158776570Y-88343571D01*
X158562285Y-88343571D01*
X158419428Y-88415000D01*
X158347999Y-88486429D01*
X158276570Y-88629286D01*
X158276570Y-89057857D01*
X158347999Y-89200714D01*
X158419428Y-89272143D01*
X158562285Y-89343571D01*
X158776570Y-89343571D01*
X157633713Y-89343571D02*
X157633713Y-88343571D01*
X157633713Y-88629286D02*
X157562285Y-88486429D01*
X157490856Y-88415000D01*
X157347999Y-88343571D01*
X157205142Y-88343571D01*
X156062285Y-89343571D02*
X156062285Y-87843571D01*
X156062285Y-89272143D02*
X156205142Y-89343571D01*
X156490856Y-89343571D01*
X156633714Y-89272143D01*
X156705142Y-89200714D01*
X156776571Y-89057857D01*
X156776571Y-88629286D01*
X156705142Y-88486429D01*
X156633714Y-88415000D01*
X156490856Y-88343571D01*
X156205142Y-88343571D01*
X156062285Y-88415000D01*
X153347999Y-89343571D02*
X153847999Y-88629286D01*
X154205142Y-89343571D02*
X154205142Y-87843571D01*
X153633714Y-87843571D01*
X153490856Y-87915000D01*
X153419428Y-87986429D01*
X153347999Y-88129286D01*
X153347999Y-88343571D01*
X153419428Y-88486429D01*
X153490856Y-88557857D01*
X153633714Y-88629286D01*
X154205142Y-88629286D01*
X152133714Y-89272143D02*
X152276571Y-89343571D01*
X152562285Y-89343571D01*
X152705142Y-89272143D01*
X152776571Y-89129286D01*
X152776571Y-88557857D01*
X152705142Y-88415000D01*
X152562285Y-88343571D01*
X152276571Y-88343571D01*
X152133714Y-88415000D01*
X152062285Y-88557857D01*
X152062285Y-88700714D01*
X152776571Y-88843571D01*
X151490857Y-89272143D02*
X151348000Y-89343571D01*
X151062285Y-89343571D01*
X150919428Y-89272143D01*
X150848000Y-89129286D01*
X150848000Y-89057857D01*
X150919428Y-88915000D01*
X151062285Y-88843571D01*
X151276571Y-88843571D01*
X151419428Y-88772143D01*
X151490857Y-88629286D01*
X151490857Y-88557857D01*
X151419428Y-88415000D01*
X151276571Y-88343571D01*
X151062285Y-88343571D01*
X150919428Y-88415000D01*
X149633714Y-89272143D02*
X149776571Y-89343571D01*
X150062285Y-89343571D01*
X150205142Y-89272143D01*
X150276571Y-89129286D01*
X150276571Y-88557857D01*
X150205142Y-88415000D01*
X150062285Y-88343571D01*
X149776571Y-88343571D01*
X149633714Y-88415000D01*
X149562285Y-88557857D01*
X149562285Y-88700714D01*
X150276571Y-88843571D01*
X148276571Y-89343571D02*
X148276571Y-88557857D01*
X148348000Y-88415000D01*
X148490857Y-88343571D01*
X148776571Y-88343571D01*
X148919428Y-88415000D01*
X148276571Y-89272143D02*
X148419428Y-89343571D01*
X148776571Y-89343571D01*
X148919428Y-89272143D01*
X148990857Y-89129286D01*
X148990857Y-88986429D01*
X148919428Y-88843571D01*
X148776571Y-88772143D01*
X148419428Y-88772143D01*
X148276571Y-88700714D01*
X147562285Y-89343571D02*
X147562285Y-88343571D01*
X147562285Y-88629286D02*
X147490857Y-88486429D01*
X147419428Y-88415000D01*
X147276571Y-88343571D01*
X147133714Y-88343571D01*
X145990857Y-89272143D02*
X146133714Y-89343571D01*
X146419428Y-89343571D01*
X146562286Y-89272143D01*
X146633714Y-89200714D01*
X146705143Y-89057857D01*
X146705143Y-88629286D01*
X146633714Y-88486429D01*
X146562286Y-88415000D01*
X146419428Y-88343571D01*
X146133714Y-88343571D01*
X145990857Y-88415000D01*
X145348000Y-89343571D02*
X145348000Y-87843571D01*
X144705143Y-89343571D02*
X144705143Y-88557857D01*
X144776572Y-88415000D01*
X144919429Y-88343571D01*
X145133714Y-88343571D01*
X145276572Y-88415000D01*
X145348000Y-88486429D01*
X142133714Y-89343571D02*
X142848000Y-89343571D01*
X142848000Y-87843571D01*
X141633714Y-89343571D02*
X141633714Y-88343571D01*
X141633714Y-87843571D02*
X141705143Y-87915000D01*
X141633714Y-87986429D01*
X141562286Y-87915000D01*
X141633714Y-87843571D01*
X141633714Y-87986429D01*
X140919428Y-89343571D02*
X140919428Y-88343571D01*
X140919428Y-88486429D02*
X140848000Y-88415000D01*
X140705142Y-88343571D01*
X140490857Y-88343571D01*
X140348000Y-88415000D01*
X140276571Y-88557857D01*
X140276571Y-89343571D01*
X140276571Y-88557857D02*
X140205142Y-88415000D01*
X140062285Y-88343571D01*
X139848000Y-88343571D01*
X139705142Y-88415000D01*
X139633714Y-88557857D01*
X139633714Y-89343571D01*
X138919428Y-89343571D02*
X138919428Y-88343571D01*
X138919428Y-87843571D02*
X138990857Y-87915000D01*
X138919428Y-87986429D01*
X138848000Y-87915000D01*
X138919428Y-87843571D01*
X138919428Y-87986429D01*
X138419428Y-88343571D02*
X137847999Y-88343571D01*
X138205142Y-87843571D02*
X138205142Y-89129286D01*
X138133714Y-89272143D01*
X137990856Y-89343571D01*
X137847999Y-89343571D01*
X136776571Y-89272143D02*
X136919428Y-89343571D01*
X137205142Y-89343571D01*
X137347999Y-89272143D01*
X137419428Y-89129286D01*
X137419428Y-88557857D01*
X137347999Y-88415000D01*
X137205142Y-88343571D01*
X136919428Y-88343571D01*
X136776571Y-88415000D01*
X136705142Y-88557857D01*
X136705142Y-88700714D01*
X137419428Y-88843571D01*
X135419428Y-89343571D02*
X135419428Y-87843571D01*
X135419428Y-89272143D02*
X135562285Y-89343571D01*
X135847999Y-89343571D01*
X135990857Y-89272143D01*
X136062285Y-89200714D01*
X136133714Y-89057857D01*
X136133714Y-88629286D01*
X136062285Y-88486429D01*
X135990857Y-88415000D01*
X135847999Y-88343571D01*
X135562285Y-88343571D01*
X135419428Y-88415000D01*
M02*
