G04 #@! TF.FileFunction,Legend,Top*
%FSLAX46Y46*%
G04 Gerber Fmt 4.6, Leading zero omitted, Abs format (unit mm)*
G04 Created by KiCad (PCBNEW (2015-11-24 BZR 6329)-product) date Sat 09 Jan 2016 01:49:53 PM EST*
%MOMM*%
G01*
G04 APERTURE LIST*
%ADD10C,0.100000*%
%ADD11C,0.300000*%
%ADD12C,0.200000*%
%ADD13C,0.150000*%
G04 APERTURE END LIST*
D10*
X211750000Y-109000000D02*
X192500000Y-109000000D01*
X218750000Y-102000000D02*
X211750000Y-109000000D01*
X233000000Y-102000000D02*
X218750000Y-102000000D01*
D11*
X199428572Y-101107143D02*
X200571429Y-101107143D01*
X200000000Y-101678571D02*
X200000000Y-100535714D01*
X226892857Y-96678571D02*
X226892857Y-95892857D01*
X226821428Y-95750000D01*
X226678571Y-95678571D01*
X226392857Y-95678571D01*
X226250000Y-95750000D01*
X226892857Y-96607143D02*
X226750000Y-96678571D01*
X226392857Y-96678571D01*
X226250000Y-96607143D01*
X226178571Y-96464286D01*
X226178571Y-96321429D01*
X226250000Y-96178571D01*
X226392857Y-96107143D01*
X226750000Y-96107143D01*
X226892857Y-96035714D01*
X227535714Y-96607143D02*
X227678571Y-96678571D01*
X227964286Y-96678571D01*
X228107143Y-96607143D01*
X228178571Y-96464286D01*
X228178571Y-96392857D01*
X228107143Y-96250000D01*
X227964286Y-96178571D01*
X227750000Y-96178571D01*
X227607143Y-96107143D01*
X227535714Y-95964286D01*
X227535714Y-95892857D01*
X227607143Y-95750000D01*
X227750000Y-95678571D01*
X227964286Y-95678571D01*
X228107143Y-95750000D01*
X228607143Y-95678571D02*
X229178572Y-95678571D01*
X228821429Y-95178571D02*
X228821429Y-96464286D01*
X228892857Y-96607143D01*
X229035715Y-96678571D01*
X229178572Y-96678571D01*
X230321429Y-96678571D02*
X230321429Y-95892857D01*
X230250000Y-95750000D01*
X230107143Y-95678571D01*
X229821429Y-95678571D01*
X229678572Y-95750000D01*
X230321429Y-96607143D02*
X230178572Y-96678571D01*
X229821429Y-96678571D01*
X229678572Y-96607143D01*
X229607143Y-96464286D01*
X229607143Y-96321429D01*
X229678572Y-96178571D01*
X229821429Y-96107143D01*
X230178572Y-96107143D01*
X230321429Y-96035714D01*
X231035715Y-96678571D02*
X231035715Y-95178571D01*
X231035715Y-95750000D02*
X231178572Y-95678571D01*
X231464286Y-95678571D01*
X231607143Y-95750000D01*
X231678572Y-95821429D01*
X231750001Y-95964286D01*
X231750001Y-96392857D01*
X231678572Y-96535714D01*
X231607143Y-96607143D01*
X231464286Y-96678571D01*
X231178572Y-96678571D01*
X231035715Y-96607143D01*
X232607144Y-96678571D02*
X232464286Y-96607143D01*
X232392858Y-96464286D01*
X232392858Y-95178571D01*
X233750000Y-96607143D02*
X233607143Y-96678571D01*
X233321429Y-96678571D01*
X233178572Y-96607143D01*
X233107143Y-96464286D01*
X233107143Y-95892857D01*
X233178572Y-95750000D01*
X233321429Y-95678571D01*
X233607143Y-95678571D01*
X233750000Y-95750000D01*
X233821429Y-95892857D01*
X233821429Y-96035714D01*
X233107143Y-96178571D01*
X216892857Y-120678571D02*
X216892857Y-119678571D01*
X216892857Y-119821429D02*
X216964285Y-119750000D01*
X217107143Y-119678571D01*
X217321428Y-119678571D01*
X217464285Y-119750000D01*
X217535714Y-119892857D01*
X217535714Y-120678571D01*
X217535714Y-119892857D02*
X217607143Y-119750000D01*
X217750000Y-119678571D01*
X217964285Y-119678571D01*
X218107143Y-119750000D01*
X218178571Y-119892857D01*
X218178571Y-120678571D01*
X219107143Y-120678571D02*
X218964285Y-120607143D01*
X218892857Y-120535714D01*
X218821428Y-120392857D01*
X218821428Y-119964286D01*
X218892857Y-119821429D01*
X218964285Y-119750000D01*
X219107143Y-119678571D01*
X219321428Y-119678571D01*
X219464285Y-119750000D01*
X219535714Y-119821429D01*
X219607143Y-119964286D01*
X219607143Y-120392857D01*
X219535714Y-120535714D01*
X219464285Y-120607143D01*
X219321428Y-120678571D01*
X219107143Y-120678571D01*
X220250000Y-119678571D02*
X220250000Y-120678571D01*
X220250000Y-119821429D02*
X220321428Y-119750000D01*
X220464286Y-119678571D01*
X220678571Y-119678571D01*
X220821428Y-119750000D01*
X220892857Y-119892857D01*
X220892857Y-120678571D01*
X221821429Y-120678571D02*
X221678571Y-120607143D01*
X221607143Y-120535714D01*
X221535714Y-120392857D01*
X221535714Y-119964286D01*
X221607143Y-119821429D01*
X221678571Y-119750000D01*
X221821429Y-119678571D01*
X222035714Y-119678571D01*
X222178571Y-119750000D01*
X222250000Y-119821429D01*
X222321429Y-119964286D01*
X222321429Y-120392857D01*
X222250000Y-120535714D01*
X222178571Y-120607143D01*
X222035714Y-120678571D01*
X221821429Y-120678571D01*
X222892857Y-120607143D02*
X223035714Y-120678571D01*
X223321429Y-120678571D01*
X223464286Y-120607143D01*
X223535714Y-120464286D01*
X223535714Y-120392857D01*
X223464286Y-120250000D01*
X223321429Y-120178571D01*
X223107143Y-120178571D01*
X222964286Y-120107143D01*
X222892857Y-119964286D01*
X222892857Y-119892857D01*
X222964286Y-119750000D01*
X223107143Y-119678571D01*
X223321429Y-119678571D01*
X223464286Y-119750000D01*
X223964286Y-119678571D02*
X224535715Y-119678571D01*
X224178572Y-119178571D02*
X224178572Y-120464286D01*
X224250000Y-120607143D01*
X224392858Y-120678571D01*
X224535715Y-120678571D01*
X225678572Y-120678571D02*
X225678572Y-119892857D01*
X225607143Y-119750000D01*
X225464286Y-119678571D01*
X225178572Y-119678571D01*
X225035715Y-119750000D01*
X225678572Y-120607143D02*
X225535715Y-120678571D01*
X225178572Y-120678571D01*
X225035715Y-120607143D01*
X224964286Y-120464286D01*
X224964286Y-120321429D01*
X225035715Y-120178571D01*
X225178572Y-120107143D01*
X225535715Y-120107143D01*
X225678572Y-120035714D01*
X226392858Y-120678571D02*
X226392858Y-119178571D01*
X226392858Y-119750000D02*
X226535715Y-119678571D01*
X226821429Y-119678571D01*
X226964286Y-119750000D01*
X227035715Y-119821429D01*
X227107144Y-119964286D01*
X227107144Y-120392857D01*
X227035715Y-120535714D01*
X226964286Y-120607143D01*
X226821429Y-120678571D01*
X226535715Y-120678571D01*
X226392858Y-120607143D01*
X227964287Y-120678571D02*
X227821429Y-120607143D01*
X227750001Y-120464286D01*
X227750001Y-119178571D01*
X229107143Y-120607143D02*
X228964286Y-120678571D01*
X228678572Y-120678571D01*
X228535715Y-120607143D01*
X228464286Y-120464286D01*
X228464286Y-119892857D01*
X228535715Y-119750000D01*
X228678572Y-119678571D01*
X228964286Y-119678571D01*
X229107143Y-119750000D01*
X229178572Y-119892857D01*
X229178572Y-120035714D01*
X228464286Y-120178571D01*
X191428572Y-100107143D02*
X192571429Y-100107143D01*
X192000000Y-100678571D02*
X192000000Y-99535714D01*
X191428572Y-89107143D02*
X192571429Y-89107143D01*
X192000000Y-89678571D02*
X192000000Y-88535714D01*
D12*
X203000000Y-98000000D02*
X207500000Y-98000000D01*
X192000000Y-87000000D02*
X203000000Y-98000000D01*
X233000000Y-98000000D02*
X207500000Y-98000000D01*
D13*
X209080000Y-116270000D02*
X207810000Y-116270000D01*
X207810000Y-116270000D02*
X207810000Y-113730000D01*
X207810000Y-113730000D02*
X209080000Y-113730000D01*
X209080000Y-117540000D02*
X198920000Y-117540000D01*
X198920000Y-117540000D02*
X198920000Y-112460000D01*
X198920000Y-112460000D02*
X209080000Y-112460000D01*
X209080000Y-112460000D02*
X209080000Y-117540000D01*
X220080000Y-93270000D02*
X218810000Y-93270000D01*
X218810000Y-93270000D02*
X218810000Y-90730000D01*
X218810000Y-90730000D02*
X220080000Y-90730000D01*
X220080000Y-94540000D02*
X209920000Y-94540000D01*
X209920000Y-94540000D02*
X209920000Y-89460000D01*
X209920000Y-89460000D02*
X220080000Y-89460000D01*
X220080000Y-89460000D02*
X220080000Y-94540000D01*
X213500000Y-80250000D02*
X219500000Y-80250000D01*
X219500000Y-84750000D02*
X213500000Y-84750000D01*
X210250000Y-117000000D02*
X210250000Y-111000000D01*
X214750000Y-111000000D02*
X214750000Y-117000000D01*
X222730000Y-93580000D02*
X225270000Y-93580000D01*
X225270000Y-93580000D02*
X225270000Y-83420000D01*
X225270000Y-83420000D02*
X222730000Y-83420000D01*
X222730000Y-83420000D02*
X222730000Y-93580000D01*
X224000000Y-82150000D02*
X224000000Y-83420000D01*
X224000000Y-94850000D02*
X224000000Y-93580000D01*
X202675000Y-105499000D02*
X202675000Y-100501000D01*
X202535000Y-105491000D02*
X202535000Y-100509000D01*
X202395000Y-105475000D02*
X202395000Y-103095000D01*
X202395000Y-102905000D02*
X202395000Y-100525000D01*
X202255000Y-105451000D02*
X202255000Y-103490000D01*
X202255000Y-102510000D02*
X202255000Y-100549000D01*
X202115000Y-105418000D02*
X202115000Y-103657000D01*
X202115000Y-102343000D02*
X202115000Y-100582000D01*
X201975000Y-105377000D02*
X201975000Y-103764000D01*
X201975000Y-102236000D02*
X201975000Y-100623000D01*
X201835000Y-105327000D02*
X201835000Y-103835000D01*
X201835000Y-102165000D02*
X201835000Y-100673000D01*
X201695000Y-105266000D02*
X201695000Y-103879000D01*
X201695000Y-102121000D02*
X201695000Y-100734000D01*
X201555000Y-105196000D02*
X201555000Y-103898000D01*
X201555000Y-102102000D02*
X201555000Y-100804000D01*
X201415000Y-105114000D02*
X201415000Y-103896000D01*
X201415000Y-102104000D02*
X201415000Y-100886000D01*
X201275000Y-105019000D02*
X201275000Y-103871000D01*
X201275000Y-102129000D02*
X201275000Y-100981000D01*
X201135000Y-104908000D02*
X201135000Y-103823000D01*
X201135000Y-102177000D02*
X201135000Y-101092000D01*
X200995000Y-104780000D02*
X200995000Y-103745000D01*
X200995000Y-102255000D02*
X200995000Y-101220000D01*
X200855000Y-104631000D02*
X200855000Y-103628000D01*
X200855000Y-102372000D02*
X200855000Y-101369000D01*
X200715000Y-104452000D02*
X200715000Y-103440000D01*
X200715000Y-102560000D02*
X200715000Y-101548000D01*
X200575000Y-104233000D02*
X200575000Y-101767000D01*
X200435000Y-103944000D02*
X200435000Y-102056000D01*
X200295000Y-103472000D02*
X200295000Y-102528000D01*
X202400000Y-103000000D02*
G75*
G03X202400000Y-103000000I-900000J0D01*
G01*
X205287500Y-103000000D02*
G75*
G03X205287500Y-103000000I-2537500J0D01*
G01*
X198536000Y-83500000D02*
G75*
G03X198536000Y-83500000I-2286000J0D01*
G01*
X231286000Y-83500000D02*
G75*
G03X231286000Y-83500000I-2286000J0D01*
G01*
X198536000Y-116500000D02*
G75*
G03X198536000Y-116500000I-2286000J0D01*
G01*
X231286000Y-116500000D02*
G75*
G03X231286000Y-116500000I-2286000J0D01*
G01*
X195928571Y-94738095D02*
X195976190Y-94595238D01*
X196023810Y-94547619D01*
X196119048Y-94500000D01*
X196261905Y-94500000D01*
X196357143Y-94547619D01*
X196404762Y-94595238D01*
X196452381Y-94690476D01*
X196452381Y-95071429D01*
X195452381Y-95071429D01*
X195452381Y-94738095D01*
X195500000Y-94642857D01*
X195547619Y-94595238D01*
X195642857Y-94547619D01*
X195738095Y-94547619D01*
X195833333Y-94595238D01*
X195880952Y-94642857D01*
X195928571Y-94738095D01*
X195928571Y-95071429D01*
X196166667Y-94119048D02*
X196166667Y-93642857D01*
X196452381Y-94214286D02*
X195452381Y-93880953D01*
X196452381Y-93547619D01*
X195452381Y-93357143D02*
X195452381Y-92785714D01*
X196452381Y-93071429D02*
X195452381Y-93071429D01*
X196404762Y-108119048D02*
X196452381Y-107976191D01*
X196452381Y-107738095D01*
X196404762Y-107642857D01*
X196357143Y-107595238D01*
X196261905Y-107547619D01*
X196166667Y-107547619D01*
X196071429Y-107595238D01*
X196023810Y-107642857D01*
X195976190Y-107738095D01*
X195928571Y-107928572D01*
X195880952Y-108023810D01*
X195833333Y-108071429D01*
X195738095Y-108119048D01*
X195642857Y-108119048D01*
X195547619Y-108071429D01*
X195500000Y-108023810D01*
X195452381Y-107928572D01*
X195452381Y-107690476D01*
X195500000Y-107547619D01*
X196452381Y-107119048D02*
X195452381Y-107119048D01*
X195452381Y-106738095D01*
X195500000Y-106642857D01*
X195547619Y-106595238D01*
X195642857Y-106547619D01*
X195785714Y-106547619D01*
X195880952Y-106595238D01*
X195928571Y-106642857D01*
X195976190Y-106738095D01*
X195976190Y-107119048D01*
X195928571Y-106119048D02*
X195928571Y-105785714D01*
X196452381Y-105642857D02*
X196452381Y-106119048D01*
X195452381Y-106119048D01*
X195452381Y-105642857D01*
X196166667Y-105261905D02*
X196166667Y-104785714D01*
X196452381Y-105357143D02*
X195452381Y-105023810D01*
X196452381Y-104690476D01*
X196452381Y-104357143D02*
X195452381Y-104357143D01*
X196452381Y-103785714D02*
X195880952Y-104214286D01*
X195452381Y-103785714D02*
X196023810Y-104357143D01*
X195928571Y-103357143D02*
X195928571Y-103023809D01*
X196452381Y-102880952D02*
X196452381Y-103357143D01*
X195452381Y-103357143D01*
X195452381Y-102880952D01*
X196452381Y-101880952D02*
X195976190Y-102214286D01*
X196452381Y-102452381D02*
X195452381Y-102452381D01*
X195452381Y-102071428D01*
X195500000Y-101976190D01*
X195547619Y-101928571D01*
X195642857Y-101880952D01*
X195785714Y-101880952D01*
X195880952Y-101928571D01*
X195928571Y-101976190D01*
X195976190Y-102071428D01*
X195976190Y-102452381D01*
X201785715Y-115452381D02*
X201309524Y-115452381D01*
X201309524Y-114452381D01*
X202119048Y-115452381D02*
X202119048Y-114452381D01*
X202452382Y-115166667D01*
X202785715Y-114452381D01*
X202785715Y-115452381D01*
X203738096Y-114452381D02*
X203261905Y-114452381D01*
X203214286Y-114928571D01*
X203261905Y-114880952D01*
X203357143Y-114833333D01*
X203595239Y-114833333D01*
X203690477Y-114880952D01*
X203738096Y-114928571D01*
X203785715Y-115023810D01*
X203785715Y-115261905D01*
X203738096Y-115357143D01*
X203690477Y-115404762D01*
X203595239Y-115452381D01*
X203357143Y-115452381D01*
X203261905Y-115404762D01*
X203214286Y-115357143D01*
X204690477Y-114452381D02*
X204214286Y-114452381D01*
X204166667Y-114928571D01*
X204214286Y-114880952D01*
X204309524Y-114833333D01*
X204547620Y-114833333D01*
X204642858Y-114880952D01*
X204690477Y-114928571D01*
X204738096Y-115023810D01*
X204738096Y-115261905D01*
X204690477Y-115357143D01*
X204642858Y-115404762D01*
X204547620Y-115452381D01*
X204309524Y-115452381D01*
X204214286Y-115404762D01*
X204166667Y-115357143D01*
X205642858Y-114452381D02*
X205166667Y-114452381D01*
X205119048Y-114928571D01*
X205166667Y-114880952D01*
X205261905Y-114833333D01*
X205500001Y-114833333D01*
X205595239Y-114880952D01*
X205642858Y-114928571D01*
X205690477Y-115023810D01*
X205690477Y-115261905D01*
X205642858Y-115357143D01*
X205595239Y-115404762D01*
X205500001Y-115452381D01*
X205261905Y-115452381D01*
X205166667Y-115404762D01*
X205119048Y-115357143D01*
X206119048Y-115452381D02*
X206119048Y-114452381D01*
X206690477Y-115452381D01*
X206690477Y-114452381D01*
X212785715Y-92452381D02*
X212309524Y-92452381D01*
X212309524Y-91452381D01*
X213119048Y-92452381D02*
X213119048Y-91452381D01*
X213452382Y-92166667D01*
X213785715Y-91452381D01*
X213785715Y-92452381D01*
X214738096Y-91452381D02*
X214261905Y-91452381D01*
X214214286Y-91928571D01*
X214261905Y-91880952D01*
X214357143Y-91833333D01*
X214595239Y-91833333D01*
X214690477Y-91880952D01*
X214738096Y-91928571D01*
X214785715Y-92023810D01*
X214785715Y-92261905D01*
X214738096Y-92357143D01*
X214690477Y-92404762D01*
X214595239Y-92452381D01*
X214357143Y-92452381D01*
X214261905Y-92404762D01*
X214214286Y-92357143D01*
X215690477Y-91452381D02*
X215214286Y-91452381D01*
X215166667Y-91928571D01*
X215214286Y-91880952D01*
X215309524Y-91833333D01*
X215547620Y-91833333D01*
X215642858Y-91880952D01*
X215690477Y-91928571D01*
X215738096Y-92023810D01*
X215738096Y-92261905D01*
X215690477Y-92357143D01*
X215642858Y-92404762D01*
X215547620Y-92452381D01*
X215309524Y-92452381D01*
X215214286Y-92404762D01*
X215166667Y-92357143D01*
X216642858Y-91452381D02*
X216166667Y-91452381D01*
X216119048Y-91928571D01*
X216166667Y-91880952D01*
X216261905Y-91833333D01*
X216500001Y-91833333D01*
X216595239Y-91880952D01*
X216642858Y-91928571D01*
X216690477Y-92023810D01*
X216690477Y-92261905D01*
X216642858Y-92357143D01*
X216595239Y-92404762D01*
X216500001Y-92452381D01*
X216261905Y-92452381D01*
X216166667Y-92404762D01*
X216119048Y-92357143D01*
X217119048Y-92452381D02*
X217119048Y-91452381D01*
X217690477Y-92452381D01*
X217690477Y-91452381D01*
X210678571Y-85428571D02*
X210678571Y-85285714D01*
X210750000Y-85142857D01*
X210821429Y-85071428D01*
X210964286Y-84999999D01*
X211250000Y-84928571D01*
X211607143Y-84928571D01*
X211892857Y-84999999D01*
X212035714Y-85071428D01*
X212107143Y-85142857D01*
X212178571Y-85285714D01*
X212178571Y-85428571D01*
X212107143Y-85571428D01*
X212035714Y-85642857D01*
X211892857Y-85714285D01*
X211607143Y-85785714D01*
X211250000Y-85785714D01*
X210964286Y-85714285D01*
X210821429Y-85642857D01*
X210750000Y-85571428D01*
X210678571Y-85428571D01*
X212035714Y-84285714D02*
X212107143Y-84214286D01*
X212178571Y-84285714D01*
X212107143Y-84357143D01*
X212035714Y-84285714D01*
X212178571Y-84285714D01*
X210678571Y-83285714D02*
X210678571Y-83142857D01*
X210750000Y-83000000D01*
X210821429Y-82928571D01*
X210964286Y-82857142D01*
X211250000Y-82785714D01*
X211607143Y-82785714D01*
X211892857Y-82857142D01*
X212035714Y-82928571D01*
X212107143Y-83000000D01*
X212178571Y-83142857D01*
X212178571Y-83285714D01*
X212107143Y-83428571D01*
X212035714Y-83500000D01*
X211892857Y-83571428D01*
X211607143Y-83642857D01*
X211250000Y-83642857D01*
X210964286Y-83571428D01*
X210821429Y-83500000D01*
X210750000Y-83428571D01*
X210678571Y-83285714D01*
X212178571Y-81357143D02*
X212178571Y-82214286D01*
X212178571Y-81785714D02*
X210678571Y-81785714D01*
X210892857Y-81928571D01*
X211035714Y-82071429D01*
X211107143Y-82214286D01*
X211178571Y-80071429D02*
X212178571Y-80071429D01*
X211178571Y-80714286D02*
X211964286Y-80714286D01*
X212107143Y-80642858D01*
X212178571Y-80500000D01*
X212178571Y-80285715D01*
X212107143Y-80142858D01*
X212035714Y-80071429D01*
X211392857Y-78857143D02*
X211392857Y-79357143D01*
X212178571Y-79357143D02*
X210678571Y-79357143D01*
X210678571Y-78642857D01*
X210535715Y-118178571D02*
X210678572Y-118178571D01*
X210821429Y-118250000D01*
X210892858Y-118321429D01*
X210964287Y-118464286D01*
X211035715Y-118750000D01*
X211035715Y-119107143D01*
X210964287Y-119392857D01*
X210892858Y-119535714D01*
X210821429Y-119607143D01*
X210678572Y-119678571D01*
X210535715Y-119678571D01*
X210392858Y-119607143D01*
X210321429Y-119535714D01*
X210250001Y-119392857D01*
X210178572Y-119107143D01*
X210178572Y-118750000D01*
X210250001Y-118464286D01*
X210321429Y-118321429D01*
X210392858Y-118250000D01*
X210535715Y-118178571D01*
X211678572Y-119535714D02*
X211750000Y-119607143D01*
X211678572Y-119678571D01*
X211607143Y-119607143D01*
X211678572Y-119535714D01*
X211678572Y-119678571D01*
X213178572Y-119678571D02*
X212321429Y-119678571D01*
X212750001Y-119678571D02*
X212750001Y-118178571D01*
X212607144Y-118392857D01*
X212464286Y-118535714D01*
X212321429Y-118607143D01*
X214464286Y-118678571D02*
X214464286Y-119678571D01*
X213821429Y-118678571D02*
X213821429Y-119464286D01*
X213892857Y-119607143D01*
X214035715Y-119678571D01*
X214250000Y-119678571D01*
X214392857Y-119607143D01*
X214464286Y-119535714D01*
X215678572Y-118892857D02*
X215178572Y-118892857D01*
X215178572Y-119678571D02*
X215178572Y-118178571D01*
X215892858Y-118178571D01*
X227678571Y-89321428D02*
X227678571Y-90178571D01*
X227678571Y-89749999D02*
X226178571Y-89749999D01*
X226392857Y-89892856D01*
X226535714Y-90035714D01*
X226607143Y-90178571D01*
X227678571Y-88678571D02*
X226178571Y-88678571D01*
X227678571Y-87821428D02*
X226821429Y-88464285D01*
X226178571Y-87821428D02*
X227035714Y-88678571D01*
X222374911Y-107782124D02*
X222374911Y-108782124D01*
X222017768Y-107210696D02*
X221660625Y-108282124D01*
X222589197Y-108282124D01*
X223017768Y-107282124D02*
X224017768Y-107282124D01*
X223374911Y-108782124D01*
X224874910Y-107282124D02*
X225017767Y-107282124D01*
X225160624Y-107353553D01*
X225232053Y-107424982D01*
X225303482Y-107567839D01*
X225374910Y-107853553D01*
X225374910Y-108210696D01*
X225303482Y-108496410D01*
X225232053Y-108639267D01*
X225160624Y-108710696D01*
X225017767Y-108782124D01*
X224874910Y-108782124D01*
X224732053Y-108710696D01*
X224660624Y-108639267D01*
X224589196Y-108496410D01*
X224517767Y-108210696D01*
X224517767Y-107853553D01*
X224589196Y-107567839D01*
X224660624Y-107424982D01*
X224732053Y-107353553D01*
X224874910Y-107282124D01*
X226017767Y-108782124D02*
X226017767Y-107282124D01*
X226874910Y-108782124D02*
X226232053Y-107924982D01*
X226874910Y-107282124D02*
X226017767Y-108139267D01*
X203678571Y-89021536D02*
X204678571Y-89021536D01*
X203107143Y-89378679D02*
X204178571Y-89735822D01*
X204178571Y-88807250D01*
X203178571Y-88378679D02*
X203178571Y-87378679D01*
X204678571Y-88021536D01*
X203178571Y-86521537D02*
X203178571Y-86378680D01*
X203250000Y-86235823D01*
X203321429Y-86164394D01*
X203464286Y-86092965D01*
X203750000Y-86021537D01*
X204107143Y-86021537D01*
X204392857Y-86092965D01*
X204535714Y-86164394D01*
X204607143Y-86235823D01*
X204678571Y-86378680D01*
X204678571Y-86521537D01*
X204607143Y-86664394D01*
X204535714Y-86735823D01*
X204392857Y-86807251D01*
X204107143Y-86878680D01*
X203750000Y-86878680D01*
X203464286Y-86807251D01*
X203321429Y-86735823D01*
X203250000Y-86664394D01*
X203178571Y-86521537D01*
X204678571Y-85378680D02*
X203178571Y-85378680D01*
X204678571Y-84521537D02*
X203821429Y-85164394D01*
X203178571Y-84521537D02*
X204035714Y-85378680D01*
X202583334Y-107157143D02*
X202535715Y-107204762D01*
X202392858Y-107252381D01*
X202297620Y-107252381D01*
X202154762Y-107204762D01*
X202059524Y-107109524D01*
X202011905Y-107014286D01*
X201964286Y-106823810D01*
X201964286Y-106680952D01*
X202011905Y-106490476D01*
X202059524Y-106395238D01*
X202154762Y-106300000D01*
X202297620Y-106252381D01*
X202392858Y-106252381D01*
X202535715Y-106300000D01*
X202583334Y-106347619D01*
X202916667Y-106252381D02*
X203535715Y-106252381D01*
X203202381Y-106633333D01*
X203345239Y-106633333D01*
X203440477Y-106680952D01*
X203488096Y-106728571D01*
X203535715Y-106823810D01*
X203535715Y-107061905D01*
X203488096Y-107157143D01*
X203440477Y-107204762D01*
X203345239Y-107252381D01*
X203059524Y-107252381D01*
X202964286Y-107204762D01*
X202916667Y-107157143D01*
M02*
