M48
;DRILL file {KiCad (2015-11-24 BZR 6329)-product} date Sat 09 Jan 2016 01:49:44 PM EST
;FORMAT={-:-/ absolute / inch / decimal}
FMAT,2
INCH,TZ
T1C0.031
T2C0.032
T3C0.035
T4C0.039
T5C0.040
T6C0.079
T7C0.126
%
G90
G05
M72
T1
X7.9331Y-4.0551
X8.0315Y-4.0551
T2
X7.8815Y-4.3776
X7.8815Y-4.6776
X7.9815Y-4.3776
X7.9815Y-4.6776
X8.0815Y-4.3776
X8.0815Y-4.6776
X8.1815Y-4.3776
X8.1815Y-4.6776
X8.3146Y-3.472
X8.3146Y-3.772
X8.4146Y-3.472
X8.4146Y-3.772
X8.5146Y-3.472
X8.5146Y-3.772
X8.6146Y-3.472
X8.6146Y-3.772
T3
X8.3661Y-4.3898
X8.3661Y-4.5866
X8.4252Y-3.248
X8.622Y-3.248
T4
X8.8189Y-3.189
X8.8189Y-3.7795
T5
X7.5984Y-3.6024
X7.5984Y-3.7795
X7.5984Y-4.0354
X7.5984Y-4.2323
T6
X7.9315Y-3.6138
X8.0315Y-3.2138
X8.1315Y-3.6138
X8.6598Y-4.1421
X8.6598Y-4.3421
X9.0598Y-4.2421
T7
X7.7264Y-3.2874
X7.7264Y-4.5866
X9.0157Y-3.2874
X9.0157Y-4.5866
T0
M30
