G04 #@! TF.FileFunction,Copper,L2,Bot,Signal*
%FSLAX46Y46*%
G04 Gerber Fmt 4.6, Leading zero omitted, Abs format (unit mm)*
G04 Created by KiCad (PCBNEW (2015-11-24 BZR 6329)-product) date Sat 09 Jan 2016 01:49:53 PM EST*
%MOMM*%
G01*
G04 APERTURE LIST*
%ADD10C,0.100000*%
%ADD11R,2.032000X2.032000*%
%ADD12O,2.032000X2.032000*%
%ADD13O,1.400000X2.500000*%
%ADD14R,2.000000X2.000000*%
%ADD15C,2.000000*%
%ADD16C,1.998980*%
%ADD17C,3.500000*%
%ADD18C,4.000000*%
%ADD19R,1.500000X1.500000*%
%ADD20C,1.500000*%
%ADD21C,4.064000*%
%ADD22C,0.500000*%
%ADD23C,0.254000*%
G04 APERTURE END LIST*
D10*
D11*
X193000000Y-91500000D03*
D12*
X193000000Y-96000000D03*
D11*
X193000000Y-102500000D03*
D12*
X193000000Y-107500000D03*
D13*
X207810000Y-111190000D03*
X205270000Y-111190000D03*
X202730000Y-111190000D03*
X200190000Y-111190000D03*
X200190000Y-118810000D03*
X202730000Y-118810000D03*
X205270000Y-118810000D03*
X207810000Y-118810000D03*
X218810000Y-88190000D03*
X216270000Y-88190000D03*
X213730000Y-88190000D03*
X211190000Y-88190000D03*
X211190000Y-95810000D03*
X213730000Y-95810000D03*
X216270000Y-95810000D03*
X218810000Y-95810000D03*
D14*
X214000000Y-82500000D03*
D15*
X219000000Y-82500000D03*
D14*
X212500000Y-116500000D03*
D15*
X212500000Y-111500000D03*
D16*
X224000000Y-96000000D03*
X224000000Y-81000000D03*
D17*
X219960000Y-105210000D03*
X219960000Y-110290000D03*
D18*
X230120000Y-107750000D03*
D17*
X201460000Y-91790000D03*
X206540000Y-91790000D03*
D18*
X204000000Y-81630000D03*
D19*
X204000000Y-103000000D03*
D20*
X201500000Y-103000000D03*
D21*
X196250000Y-83500000D03*
X229000000Y-83500000D03*
X196250000Y-116500000D03*
X229000000Y-116500000D03*
D22*
X216270000Y-95810000D02*
X216270000Y-94520000D01*
X204000000Y-84750000D02*
X204000000Y-81630000D01*
X209750000Y-90500000D02*
X204000000Y-84750000D01*
X212250000Y-90500000D02*
X209750000Y-90500000D01*
X216270000Y-94520000D02*
X212250000Y-90500000D01*
D23*
G36*
X202509342Y-79394853D02*
X201767458Y-80135443D01*
X201365458Y-81103567D01*
X201364543Y-82151834D01*
X201764853Y-83120658D01*
X202505443Y-83862542D01*
X203115000Y-84115652D01*
X203115000Y-84749995D01*
X203114999Y-84750000D01*
X203171190Y-85032484D01*
X203182367Y-85088675D01*
X203374210Y-85375790D01*
X207678888Y-89680468D01*
X207016487Y-89405415D01*
X206067675Y-89404587D01*
X205190771Y-89766916D01*
X204519274Y-90437242D01*
X204155415Y-91313513D01*
X204154587Y-92262325D01*
X204516916Y-93139229D01*
X205187242Y-93810726D01*
X206063513Y-94174585D01*
X207012325Y-94175413D01*
X207889229Y-93813084D01*
X208560726Y-93142758D01*
X208924585Y-92266487D01*
X208925413Y-91317675D01*
X208650320Y-90651900D01*
X209124208Y-91125787D01*
X209124210Y-91125790D01*
X209411325Y-91317633D01*
X209467516Y-91328810D01*
X209750000Y-91385001D01*
X209750005Y-91385000D01*
X211883420Y-91385000D01*
X215106311Y-94607890D01*
X215036621Y-94712189D01*
X215000000Y-94896295D01*
X214963379Y-94712189D01*
X214673988Y-94279083D01*
X214240882Y-93989692D01*
X213730000Y-93888071D01*
X213219118Y-93989692D01*
X212786012Y-94279083D01*
X212496621Y-94712189D01*
X212460000Y-94896295D01*
X212423379Y-94712189D01*
X212133988Y-94279083D01*
X211700882Y-93989692D01*
X211190000Y-93888071D01*
X210679118Y-93989692D01*
X210246012Y-94279083D01*
X209956621Y-94712189D01*
X209855000Y-95223071D01*
X209855000Y-96396929D01*
X209956621Y-96907811D01*
X210246012Y-97340917D01*
X210679118Y-97630308D01*
X211190000Y-97731929D01*
X211700882Y-97630308D01*
X212133988Y-97340917D01*
X212423379Y-96907811D01*
X212460000Y-96723705D01*
X212496621Y-96907811D01*
X212786012Y-97340917D01*
X213219118Y-97630308D01*
X213730000Y-97731929D01*
X214240882Y-97630308D01*
X214673988Y-97340917D01*
X214963379Y-96907811D01*
X215000000Y-96723705D01*
X215036621Y-96907811D01*
X215326012Y-97340917D01*
X215759118Y-97630308D01*
X216270000Y-97731929D01*
X216780882Y-97630308D01*
X217213988Y-97340917D01*
X217503379Y-96907811D01*
X217540000Y-96723705D01*
X217576621Y-96907811D01*
X217866012Y-97340917D01*
X218299118Y-97630308D01*
X218810000Y-97731929D01*
X219320882Y-97630308D01*
X219753988Y-97340917D01*
X220043379Y-96907811D01*
X220145000Y-96396929D01*
X220145000Y-96323694D01*
X222365226Y-96323694D01*
X222613538Y-96924655D01*
X223072927Y-97384846D01*
X223673453Y-97634206D01*
X224323694Y-97634774D01*
X224924655Y-97386462D01*
X225384846Y-96927073D01*
X225634206Y-96326547D01*
X225634774Y-95676306D01*
X225386462Y-95075345D01*
X224927073Y-94615154D01*
X224326547Y-94365794D01*
X223676306Y-94365226D01*
X223075345Y-94613538D01*
X222615154Y-95072927D01*
X222365794Y-95673453D01*
X222365226Y-96323694D01*
X220145000Y-96323694D01*
X220145000Y-95223071D01*
X220043379Y-94712189D01*
X219753988Y-94279083D01*
X219320882Y-93989692D01*
X218810000Y-93888071D01*
X218299118Y-93989692D01*
X217866012Y-94279083D01*
X217576621Y-94712189D01*
X217540000Y-94896295D01*
X217503379Y-94712189D01*
X217213988Y-94279083D01*
X217090692Y-94196700D01*
X217087634Y-94181326D01*
X217023975Y-94086054D01*
X216895790Y-93894210D01*
X216895787Y-93894208D01*
X212875790Y-89874210D01*
X212819442Y-89836560D01*
X212588675Y-89682367D01*
X212532484Y-89671190D01*
X212250000Y-89614999D01*
X212249995Y-89615000D01*
X212204759Y-89615000D01*
X212423379Y-89287811D01*
X212460000Y-89103705D01*
X212496621Y-89287811D01*
X212786012Y-89720917D01*
X213219118Y-90010308D01*
X213730000Y-90111929D01*
X214240882Y-90010308D01*
X214673988Y-89720917D01*
X214963379Y-89287811D01*
X215000000Y-89103705D01*
X215036621Y-89287811D01*
X215326012Y-89720917D01*
X215759118Y-90010308D01*
X216270000Y-90111929D01*
X216780882Y-90010308D01*
X217213988Y-89720917D01*
X217503379Y-89287811D01*
X217542371Y-89091784D01*
X217625222Y-89368215D01*
X217955815Y-89773790D01*
X218416450Y-90021980D01*
X218476671Y-90032716D01*
X218683000Y-89909374D01*
X218683000Y-88317000D01*
X218937000Y-88317000D01*
X218937000Y-89909374D01*
X219143329Y-90032716D01*
X219203550Y-90021980D01*
X219664185Y-89773790D01*
X219994778Y-89368215D01*
X220145000Y-88867000D01*
X220145000Y-88317000D01*
X218937000Y-88317000D01*
X218683000Y-88317000D01*
X218663000Y-88317000D01*
X218663000Y-88063000D01*
X218683000Y-88063000D01*
X218683000Y-86470626D01*
X218937000Y-86470626D01*
X218937000Y-88063000D01*
X220145000Y-88063000D01*
X220145000Y-87513000D01*
X219994778Y-87011785D01*
X219664185Y-86606210D01*
X219203550Y-86358020D01*
X219143329Y-86347284D01*
X218937000Y-86470626D01*
X218683000Y-86470626D01*
X218476671Y-86347284D01*
X218416450Y-86358020D01*
X217955815Y-86606210D01*
X217625222Y-87011785D01*
X217542371Y-87288216D01*
X217503379Y-87092189D01*
X217213988Y-86659083D01*
X216780882Y-86369692D01*
X216270000Y-86268071D01*
X215759118Y-86369692D01*
X215326012Y-86659083D01*
X215036621Y-87092189D01*
X215000000Y-87276295D01*
X214963379Y-87092189D01*
X214673988Y-86659083D01*
X214240882Y-86369692D01*
X213730000Y-86268071D01*
X213219118Y-86369692D01*
X212786012Y-86659083D01*
X212496621Y-87092189D01*
X212460000Y-87276295D01*
X212423379Y-87092189D01*
X212133988Y-86659083D01*
X211700882Y-86369692D01*
X211190000Y-86268071D01*
X210679118Y-86369692D01*
X210246012Y-86659083D01*
X209956621Y-87092189D01*
X209855000Y-87603071D01*
X209855000Y-88776929D01*
X209956621Y-89287811D01*
X210175241Y-89615000D01*
X210116579Y-89615000D01*
X204885000Y-84383420D01*
X204885000Y-84115400D01*
X205490658Y-83865147D01*
X206232542Y-83124557D01*
X206634542Y-82156433D01*
X206635114Y-81500000D01*
X212352560Y-81500000D01*
X212352560Y-83500000D01*
X212396838Y-83735317D01*
X212535910Y-83951441D01*
X212748110Y-84096431D01*
X213000000Y-84147440D01*
X215000000Y-84147440D01*
X215235317Y-84103162D01*
X215451441Y-83964090D01*
X215596431Y-83751890D01*
X215616551Y-83652532D01*
X218027073Y-83652532D01*
X218125736Y-83919387D01*
X218735461Y-84145908D01*
X219385460Y-84121856D01*
X219874264Y-83919387D01*
X219972927Y-83652532D01*
X219820395Y-83500000D01*
X226733861Y-83500000D01*
X226906361Y-84367214D01*
X227397598Y-85102402D01*
X228132786Y-85593639D01*
X229000000Y-85766139D01*
X229867214Y-85593639D01*
X230602402Y-85102402D01*
X231093639Y-84367214D01*
X231266139Y-83500000D01*
X231093639Y-82632786D01*
X230602402Y-81897598D01*
X229867214Y-81406361D01*
X229000000Y-81233861D01*
X228132786Y-81406361D01*
X227397598Y-81897598D01*
X226906361Y-82632786D01*
X226733861Y-83500000D01*
X219820395Y-83500000D01*
X219000000Y-82679605D01*
X218027073Y-83652532D01*
X215616551Y-83652532D01*
X215647440Y-83500000D01*
X215647440Y-82235461D01*
X217354092Y-82235461D01*
X217378144Y-82885460D01*
X217580613Y-83374264D01*
X217847468Y-83472927D01*
X218820395Y-82500000D01*
X219179605Y-82500000D01*
X220152532Y-83472927D01*
X220419387Y-83374264D01*
X220645908Y-82764539D01*
X220621856Y-82114540D01*
X220419387Y-81625736D01*
X220152532Y-81527073D01*
X219179605Y-82500000D01*
X218820395Y-82500000D01*
X217847468Y-81527073D01*
X217580613Y-81625736D01*
X217354092Y-82235461D01*
X215647440Y-82235461D01*
X215647440Y-81500000D01*
X215618740Y-81347468D01*
X218027073Y-81347468D01*
X219000000Y-82320395D01*
X219972927Y-81347468D01*
X219964138Y-81323694D01*
X222365226Y-81323694D01*
X222613538Y-81924655D01*
X223072927Y-82384846D01*
X223673453Y-82634206D01*
X224323694Y-82634774D01*
X224924655Y-82386462D01*
X225384846Y-81927073D01*
X225634206Y-81326547D01*
X225634774Y-80676306D01*
X225386462Y-80075345D01*
X224927073Y-79615154D01*
X224326547Y-79365794D01*
X223676306Y-79365226D01*
X223075345Y-79613538D01*
X222615154Y-80072927D01*
X222365794Y-80673453D01*
X222365226Y-81323694D01*
X219964138Y-81323694D01*
X219874264Y-81080613D01*
X219264539Y-80854092D01*
X218614540Y-80878144D01*
X218125736Y-81080613D01*
X218027073Y-81347468D01*
X215618740Y-81347468D01*
X215603162Y-81264683D01*
X215464090Y-81048559D01*
X215251890Y-80903569D01*
X215000000Y-80852560D01*
X213000000Y-80852560D01*
X212764683Y-80896838D01*
X212548559Y-81035910D01*
X212403569Y-81248110D01*
X212352560Y-81500000D01*
X206635114Y-81500000D01*
X206635457Y-81108166D01*
X206235147Y-80139342D01*
X205494557Y-79397458D01*
X204843221Y-79127000D01*
X228889619Y-79127000D01*
X231577209Y-80922789D01*
X233593539Y-83940441D01*
X233873000Y-85345385D01*
X233873000Y-114654615D01*
X233593539Y-116059559D01*
X231577209Y-119077211D01*
X228889619Y-120873000D01*
X196110381Y-120873000D01*
X193422789Y-119077209D01*
X191700755Y-116500000D01*
X193983861Y-116500000D01*
X194156361Y-117367214D01*
X194647598Y-118102402D01*
X195382786Y-118593639D01*
X196250000Y-118766139D01*
X197117214Y-118593639D01*
X197671808Y-118223071D01*
X198855000Y-118223071D01*
X198855000Y-119396929D01*
X198956621Y-119907811D01*
X199246012Y-120340917D01*
X199679118Y-120630308D01*
X200190000Y-120731929D01*
X200700882Y-120630308D01*
X201133988Y-120340917D01*
X201423379Y-119907811D01*
X201460000Y-119723705D01*
X201496621Y-119907811D01*
X201786012Y-120340917D01*
X202219118Y-120630308D01*
X202730000Y-120731929D01*
X203240882Y-120630308D01*
X203673988Y-120340917D01*
X203963379Y-119907811D01*
X204000000Y-119723705D01*
X204036621Y-119907811D01*
X204326012Y-120340917D01*
X204759118Y-120630308D01*
X205270000Y-120731929D01*
X205780882Y-120630308D01*
X206213988Y-120340917D01*
X206503379Y-119907811D01*
X206540000Y-119723705D01*
X206576621Y-119907811D01*
X206866012Y-120340917D01*
X207299118Y-120630308D01*
X207810000Y-120731929D01*
X208320882Y-120630308D01*
X208753988Y-120340917D01*
X209043379Y-119907811D01*
X209145000Y-119396929D01*
X209145000Y-118223071D01*
X209043379Y-117712189D01*
X208753988Y-117279083D01*
X208320882Y-116989692D01*
X207810000Y-116888071D01*
X207299118Y-116989692D01*
X206866012Y-117279083D01*
X206576621Y-117712189D01*
X206540000Y-117896295D01*
X206503379Y-117712189D01*
X206213988Y-117279083D01*
X205780882Y-116989692D01*
X205270000Y-116888071D01*
X204759118Y-116989692D01*
X204326012Y-117279083D01*
X204036621Y-117712189D01*
X204000000Y-117896295D01*
X203963379Y-117712189D01*
X203673988Y-117279083D01*
X203240882Y-116989692D01*
X202730000Y-116888071D01*
X202219118Y-116989692D01*
X201786012Y-117279083D01*
X201496621Y-117712189D01*
X201460000Y-117896295D01*
X201423379Y-117712189D01*
X201133988Y-117279083D01*
X200700882Y-116989692D01*
X200190000Y-116888071D01*
X199679118Y-116989692D01*
X199246012Y-117279083D01*
X198956621Y-117712189D01*
X198855000Y-118223071D01*
X197671808Y-118223071D01*
X197852402Y-118102402D01*
X198343639Y-117367214D01*
X198516139Y-116500000D01*
X198343639Y-115632786D01*
X198254915Y-115500000D01*
X210852560Y-115500000D01*
X210852560Y-117500000D01*
X210896838Y-117735317D01*
X211035910Y-117951441D01*
X211248110Y-118096431D01*
X211500000Y-118147440D01*
X213500000Y-118147440D01*
X213735317Y-118103162D01*
X213951441Y-117964090D01*
X214096431Y-117751890D01*
X214147440Y-117500000D01*
X214147440Y-116500000D01*
X226733861Y-116500000D01*
X226906361Y-117367214D01*
X227397598Y-118102402D01*
X228132786Y-118593639D01*
X229000000Y-118766139D01*
X229867214Y-118593639D01*
X230602402Y-118102402D01*
X231093639Y-117367214D01*
X231266139Y-116500000D01*
X231093639Y-115632786D01*
X230602402Y-114897598D01*
X229867214Y-114406361D01*
X229000000Y-114233861D01*
X228132786Y-114406361D01*
X227397598Y-114897598D01*
X226906361Y-115632786D01*
X226733861Y-116500000D01*
X214147440Y-116500000D01*
X214147440Y-115500000D01*
X214103162Y-115264683D01*
X213964090Y-115048559D01*
X213751890Y-114903569D01*
X213500000Y-114852560D01*
X211500000Y-114852560D01*
X211264683Y-114896838D01*
X211048559Y-115035910D01*
X210903569Y-115248110D01*
X210852560Y-115500000D01*
X198254915Y-115500000D01*
X197852402Y-114897598D01*
X197117214Y-114406361D01*
X196250000Y-114233861D01*
X195382786Y-114406361D01*
X194647598Y-114897598D01*
X194156361Y-115632786D01*
X193983861Y-116500000D01*
X191700755Y-116500000D01*
X191406461Y-116059559D01*
X191127000Y-114654615D01*
X191127000Y-110603071D01*
X198855000Y-110603071D01*
X198855000Y-111776929D01*
X198956621Y-112287811D01*
X199246012Y-112720917D01*
X199679118Y-113010308D01*
X200190000Y-113111929D01*
X200700882Y-113010308D01*
X201133988Y-112720917D01*
X201423379Y-112287811D01*
X201460000Y-112103705D01*
X201496621Y-112287811D01*
X201786012Y-112720917D01*
X202219118Y-113010308D01*
X202730000Y-113111929D01*
X203240882Y-113010308D01*
X203673988Y-112720917D01*
X203963379Y-112287811D01*
X204000000Y-112103705D01*
X204036621Y-112287811D01*
X204326012Y-112720917D01*
X204759118Y-113010308D01*
X205270000Y-113111929D01*
X205780882Y-113010308D01*
X206213988Y-112720917D01*
X206503379Y-112287811D01*
X206542371Y-112091784D01*
X206625222Y-112368215D01*
X206955815Y-112773790D01*
X207416450Y-113021980D01*
X207476671Y-113032716D01*
X207683000Y-112909374D01*
X207683000Y-111317000D01*
X207937000Y-111317000D01*
X207937000Y-112909374D01*
X208143329Y-113032716D01*
X208203550Y-113021980D01*
X208664185Y-112773790D01*
X208763025Y-112652532D01*
X211527073Y-112652532D01*
X211625736Y-112919387D01*
X212235461Y-113145908D01*
X212885460Y-113121856D01*
X213374264Y-112919387D01*
X213472927Y-112652532D01*
X212500000Y-111679605D01*
X211527073Y-112652532D01*
X208763025Y-112652532D01*
X208994778Y-112368215D01*
X209145000Y-111867000D01*
X209145000Y-111317000D01*
X207937000Y-111317000D01*
X207683000Y-111317000D01*
X207663000Y-111317000D01*
X207663000Y-111235461D01*
X210854092Y-111235461D01*
X210878144Y-111885460D01*
X211080613Y-112374264D01*
X211347468Y-112472927D01*
X212320395Y-111500000D01*
X212679605Y-111500000D01*
X213652532Y-112472927D01*
X213919387Y-112374264D01*
X214145908Y-111764539D01*
X214121856Y-111114540D01*
X213975964Y-110762325D01*
X217574587Y-110762325D01*
X217936916Y-111639229D01*
X218607242Y-112310726D01*
X219483513Y-112674585D01*
X220432325Y-112675413D01*
X221309229Y-112313084D01*
X221980726Y-111642758D01*
X222344585Y-110766487D01*
X222345413Y-109817675D01*
X221983084Y-108940771D01*
X221315314Y-108271834D01*
X227484543Y-108271834D01*
X227884853Y-109240658D01*
X228625443Y-109982542D01*
X229593567Y-110384542D01*
X230641834Y-110385457D01*
X231610658Y-109985147D01*
X232352542Y-109244557D01*
X232754542Y-108276433D01*
X232755457Y-107228166D01*
X232355147Y-106259342D01*
X231614557Y-105517458D01*
X230646433Y-105115458D01*
X229598166Y-105114543D01*
X228629342Y-105514853D01*
X227887458Y-106255443D01*
X227485458Y-107223567D01*
X227484543Y-108271834D01*
X221315314Y-108271834D01*
X221312758Y-108269274D01*
X220436487Y-107905415D01*
X219487675Y-107904587D01*
X218610771Y-108266916D01*
X217939274Y-108937242D01*
X217575415Y-109813513D01*
X217574587Y-110762325D01*
X213975964Y-110762325D01*
X213919387Y-110625736D01*
X213652532Y-110527073D01*
X212679605Y-111500000D01*
X212320395Y-111500000D01*
X211347468Y-110527073D01*
X211080613Y-110625736D01*
X210854092Y-111235461D01*
X207663000Y-111235461D01*
X207663000Y-111063000D01*
X207683000Y-111063000D01*
X207683000Y-109470626D01*
X207937000Y-109470626D01*
X207937000Y-111063000D01*
X209145000Y-111063000D01*
X209145000Y-110513000D01*
X209095388Y-110347468D01*
X211527073Y-110347468D01*
X212500000Y-111320395D01*
X213472927Y-110347468D01*
X213374264Y-110080613D01*
X212764539Y-109854092D01*
X212114540Y-109878144D01*
X211625736Y-110080613D01*
X211527073Y-110347468D01*
X209095388Y-110347468D01*
X208994778Y-110011785D01*
X208664185Y-109606210D01*
X208203550Y-109358020D01*
X208143329Y-109347284D01*
X207937000Y-109470626D01*
X207683000Y-109470626D01*
X207476671Y-109347284D01*
X207416450Y-109358020D01*
X206955815Y-109606210D01*
X206625222Y-110011785D01*
X206542371Y-110288216D01*
X206503379Y-110092189D01*
X206213988Y-109659083D01*
X205780882Y-109369692D01*
X205270000Y-109268071D01*
X204759118Y-109369692D01*
X204326012Y-109659083D01*
X204036621Y-110092189D01*
X204000000Y-110276295D01*
X203963379Y-110092189D01*
X203673988Y-109659083D01*
X203240882Y-109369692D01*
X202730000Y-109268071D01*
X202219118Y-109369692D01*
X201786012Y-109659083D01*
X201496621Y-110092189D01*
X201460000Y-110276295D01*
X201423379Y-110092189D01*
X201133988Y-109659083D01*
X200700882Y-109369692D01*
X200190000Y-109268071D01*
X199679118Y-109369692D01*
X199246012Y-109659083D01*
X198956621Y-110092189D01*
X198855000Y-110603071D01*
X191127000Y-110603071D01*
X191127000Y-107882946D01*
X191394017Y-107882946D01*
X191662812Y-108468379D01*
X192135182Y-108906385D01*
X192617056Y-109105975D01*
X192873000Y-108986836D01*
X192873000Y-107627000D01*
X193127000Y-107627000D01*
X193127000Y-108986836D01*
X193382944Y-109105975D01*
X193864818Y-108906385D01*
X194337188Y-108468379D01*
X194605983Y-107882946D01*
X194487367Y-107627000D01*
X193127000Y-107627000D01*
X192873000Y-107627000D01*
X191512633Y-107627000D01*
X191394017Y-107882946D01*
X191127000Y-107882946D01*
X191127000Y-107117054D01*
X191394017Y-107117054D01*
X191512633Y-107373000D01*
X192873000Y-107373000D01*
X192873000Y-106013164D01*
X193127000Y-106013164D01*
X193127000Y-107373000D01*
X194487367Y-107373000D01*
X194605983Y-107117054D01*
X194337188Y-106531621D01*
X193864818Y-106093615D01*
X193382944Y-105894025D01*
X193127000Y-106013164D01*
X192873000Y-106013164D01*
X192617056Y-105894025D01*
X192135182Y-106093615D01*
X191662812Y-106531621D01*
X191394017Y-107117054D01*
X191127000Y-107117054D01*
X191127000Y-105682325D01*
X217574587Y-105682325D01*
X217936916Y-106559229D01*
X218607242Y-107230726D01*
X219483513Y-107594585D01*
X220432325Y-107595413D01*
X221309229Y-107233084D01*
X221980726Y-106562758D01*
X222344585Y-105686487D01*
X222345413Y-104737675D01*
X221983084Y-103860771D01*
X221312758Y-103189274D01*
X220436487Y-102825415D01*
X219487675Y-102824587D01*
X218610771Y-103186916D01*
X217939274Y-103857242D01*
X217575415Y-104733513D01*
X217574587Y-105682325D01*
X191127000Y-105682325D01*
X191127000Y-101484000D01*
X191336560Y-101484000D01*
X191336560Y-103516000D01*
X191380838Y-103751317D01*
X191519910Y-103967441D01*
X191732110Y-104112431D01*
X191984000Y-104163440D01*
X194016000Y-104163440D01*
X194251317Y-104119162D01*
X194467441Y-103980090D01*
X194612431Y-103767890D01*
X194663440Y-103516000D01*
X194663440Y-103274285D01*
X200114760Y-103274285D01*
X200325169Y-103783515D01*
X200714436Y-104173461D01*
X201223298Y-104384759D01*
X201774285Y-104385240D01*
X202283515Y-104174831D01*
X202619405Y-103839525D01*
X202646838Y-103985317D01*
X202785910Y-104201441D01*
X202998110Y-104346431D01*
X203250000Y-104397440D01*
X204750000Y-104397440D01*
X204985317Y-104353162D01*
X205201441Y-104214090D01*
X205346431Y-104001890D01*
X205397440Y-103750000D01*
X205397440Y-102250000D01*
X205353162Y-102014683D01*
X205214090Y-101798559D01*
X205001890Y-101653569D01*
X204750000Y-101602560D01*
X203250000Y-101602560D01*
X203014683Y-101646838D01*
X202798559Y-101785910D01*
X202653569Y-101998110D01*
X202620391Y-102161950D01*
X202285564Y-101826539D01*
X201776702Y-101615241D01*
X201225715Y-101614760D01*
X200716485Y-101825169D01*
X200326539Y-102214436D01*
X200115241Y-102723298D01*
X200114760Y-103274285D01*
X194663440Y-103274285D01*
X194663440Y-101484000D01*
X194619162Y-101248683D01*
X194480090Y-101032559D01*
X194267890Y-100887569D01*
X194016000Y-100836560D01*
X191984000Y-100836560D01*
X191748683Y-100880838D01*
X191532559Y-101019910D01*
X191387569Y-101232110D01*
X191336560Y-101484000D01*
X191127000Y-101484000D01*
X191127000Y-96382946D01*
X191394017Y-96382946D01*
X191662812Y-96968379D01*
X192135182Y-97406385D01*
X192617056Y-97605975D01*
X192873000Y-97486836D01*
X192873000Y-96127000D01*
X193127000Y-96127000D01*
X193127000Y-97486836D01*
X193382944Y-97605975D01*
X193864818Y-97406385D01*
X194337188Y-96968379D01*
X194605983Y-96382946D01*
X194487367Y-96127000D01*
X193127000Y-96127000D01*
X192873000Y-96127000D01*
X191512633Y-96127000D01*
X191394017Y-96382946D01*
X191127000Y-96382946D01*
X191127000Y-95617054D01*
X191394017Y-95617054D01*
X191512633Y-95873000D01*
X192873000Y-95873000D01*
X192873000Y-94513164D01*
X193127000Y-94513164D01*
X193127000Y-95873000D01*
X194487367Y-95873000D01*
X194605983Y-95617054D01*
X194337188Y-95031621D01*
X193864818Y-94593615D01*
X193382944Y-94394025D01*
X193127000Y-94513164D01*
X192873000Y-94513164D01*
X192617056Y-94394025D01*
X192135182Y-94593615D01*
X191662812Y-95031621D01*
X191394017Y-95617054D01*
X191127000Y-95617054D01*
X191127000Y-90484000D01*
X191336560Y-90484000D01*
X191336560Y-92516000D01*
X191380838Y-92751317D01*
X191519910Y-92967441D01*
X191732110Y-93112431D01*
X191984000Y-93163440D01*
X194016000Y-93163440D01*
X194251317Y-93119162D01*
X194467441Y-92980090D01*
X194612431Y-92767890D01*
X194663440Y-92516000D01*
X194663440Y-92262325D01*
X199074587Y-92262325D01*
X199436916Y-93139229D01*
X200107242Y-93810726D01*
X200983513Y-94174585D01*
X201932325Y-94175413D01*
X202809229Y-93813084D01*
X203480726Y-93142758D01*
X203844585Y-92266487D01*
X203845413Y-91317675D01*
X203483084Y-90440771D01*
X202812758Y-89769274D01*
X201936487Y-89405415D01*
X200987675Y-89404587D01*
X200110771Y-89766916D01*
X199439274Y-90437242D01*
X199075415Y-91313513D01*
X199074587Y-92262325D01*
X194663440Y-92262325D01*
X194663440Y-90484000D01*
X194619162Y-90248683D01*
X194480090Y-90032559D01*
X194267890Y-89887569D01*
X194016000Y-89836560D01*
X191984000Y-89836560D01*
X191748683Y-89880838D01*
X191532559Y-90019910D01*
X191387569Y-90232110D01*
X191336560Y-90484000D01*
X191127000Y-90484000D01*
X191127000Y-85345385D01*
X191406461Y-83940441D01*
X191700754Y-83500000D01*
X193983861Y-83500000D01*
X194156361Y-84367214D01*
X194647598Y-85102402D01*
X195382786Y-85593639D01*
X196250000Y-85766139D01*
X197117214Y-85593639D01*
X197852402Y-85102402D01*
X198343639Y-84367214D01*
X198516139Y-83500000D01*
X198343639Y-82632786D01*
X197852402Y-81897598D01*
X197117214Y-81406361D01*
X196250000Y-81233861D01*
X195382786Y-81406361D01*
X194647598Y-81897598D01*
X194156361Y-82632786D01*
X193983861Y-83500000D01*
X191700754Y-83500000D01*
X193422789Y-80922791D01*
X196110381Y-79127000D01*
X203157596Y-79127000D01*
X202509342Y-79394853D01*
X202509342Y-79394853D01*
G37*
X202509342Y-79394853D02*
X201767458Y-80135443D01*
X201365458Y-81103567D01*
X201364543Y-82151834D01*
X201764853Y-83120658D01*
X202505443Y-83862542D01*
X203115000Y-84115652D01*
X203115000Y-84749995D01*
X203114999Y-84750000D01*
X203171190Y-85032484D01*
X203182367Y-85088675D01*
X203374210Y-85375790D01*
X207678888Y-89680468D01*
X207016487Y-89405415D01*
X206067675Y-89404587D01*
X205190771Y-89766916D01*
X204519274Y-90437242D01*
X204155415Y-91313513D01*
X204154587Y-92262325D01*
X204516916Y-93139229D01*
X205187242Y-93810726D01*
X206063513Y-94174585D01*
X207012325Y-94175413D01*
X207889229Y-93813084D01*
X208560726Y-93142758D01*
X208924585Y-92266487D01*
X208925413Y-91317675D01*
X208650320Y-90651900D01*
X209124208Y-91125787D01*
X209124210Y-91125790D01*
X209411325Y-91317633D01*
X209467516Y-91328810D01*
X209750000Y-91385001D01*
X209750005Y-91385000D01*
X211883420Y-91385000D01*
X215106311Y-94607890D01*
X215036621Y-94712189D01*
X215000000Y-94896295D01*
X214963379Y-94712189D01*
X214673988Y-94279083D01*
X214240882Y-93989692D01*
X213730000Y-93888071D01*
X213219118Y-93989692D01*
X212786012Y-94279083D01*
X212496621Y-94712189D01*
X212460000Y-94896295D01*
X212423379Y-94712189D01*
X212133988Y-94279083D01*
X211700882Y-93989692D01*
X211190000Y-93888071D01*
X210679118Y-93989692D01*
X210246012Y-94279083D01*
X209956621Y-94712189D01*
X209855000Y-95223071D01*
X209855000Y-96396929D01*
X209956621Y-96907811D01*
X210246012Y-97340917D01*
X210679118Y-97630308D01*
X211190000Y-97731929D01*
X211700882Y-97630308D01*
X212133988Y-97340917D01*
X212423379Y-96907811D01*
X212460000Y-96723705D01*
X212496621Y-96907811D01*
X212786012Y-97340917D01*
X213219118Y-97630308D01*
X213730000Y-97731929D01*
X214240882Y-97630308D01*
X214673988Y-97340917D01*
X214963379Y-96907811D01*
X215000000Y-96723705D01*
X215036621Y-96907811D01*
X215326012Y-97340917D01*
X215759118Y-97630308D01*
X216270000Y-97731929D01*
X216780882Y-97630308D01*
X217213988Y-97340917D01*
X217503379Y-96907811D01*
X217540000Y-96723705D01*
X217576621Y-96907811D01*
X217866012Y-97340917D01*
X218299118Y-97630308D01*
X218810000Y-97731929D01*
X219320882Y-97630308D01*
X219753988Y-97340917D01*
X220043379Y-96907811D01*
X220145000Y-96396929D01*
X220145000Y-96323694D01*
X222365226Y-96323694D01*
X222613538Y-96924655D01*
X223072927Y-97384846D01*
X223673453Y-97634206D01*
X224323694Y-97634774D01*
X224924655Y-97386462D01*
X225384846Y-96927073D01*
X225634206Y-96326547D01*
X225634774Y-95676306D01*
X225386462Y-95075345D01*
X224927073Y-94615154D01*
X224326547Y-94365794D01*
X223676306Y-94365226D01*
X223075345Y-94613538D01*
X222615154Y-95072927D01*
X222365794Y-95673453D01*
X222365226Y-96323694D01*
X220145000Y-96323694D01*
X220145000Y-95223071D01*
X220043379Y-94712189D01*
X219753988Y-94279083D01*
X219320882Y-93989692D01*
X218810000Y-93888071D01*
X218299118Y-93989692D01*
X217866012Y-94279083D01*
X217576621Y-94712189D01*
X217540000Y-94896295D01*
X217503379Y-94712189D01*
X217213988Y-94279083D01*
X217090692Y-94196700D01*
X217087634Y-94181326D01*
X217023975Y-94086054D01*
X216895790Y-93894210D01*
X216895787Y-93894208D01*
X212875790Y-89874210D01*
X212819442Y-89836560D01*
X212588675Y-89682367D01*
X212532484Y-89671190D01*
X212250000Y-89614999D01*
X212249995Y-89615000D01*
X212204759Y-89615000D01*
X212423379Y-89287811D01*
X212460000Y-89103705D01*
X212496621Y-89287811D01*
X212786012Y-89720917D01*
X213219118Y-90010308D01*
X213730000Y-90111929D01*
X214240882Y-90010308D01*
X214673988Y-89720917D01*
X214963379Y-89287811D01*
X215000000Y-89103705D01*
X215036621Y-89287811D01*
X215326012Y-89720917D01*
X215759118Y-90010308D01*
X216270000Y-90111929D01*
X216780882Y-90010308D01*
X217213988Y-89720917D01*
X217503379Y-89287811D01*
X217542371Y-89091784D01*
X217625222Y-89368215D01*
X217955815Y-89773790D01*
X218416450Y-90021980D01*
X218476671Y-90032716D01*
X218683000Y-89909374D01*
X218683000Y-88317000D01*
X218937000Y-88317000D01*
X218937000Y-89909374D01*
X219143329Y-90032716D01*
X219203550Y-90021980D01*
X219664185Y-89773790D01*
X219994778Y-89368215D01*
X220145000Y-88867000D01*
X220145000Y-88317000D01*
X218937000Y-88317000D01*
X218683000Y-88317000D01*
X218663000Y-88317000D01*
X218663000Y-88063000D01*
X218683000Y-88063000D01*
X218683000Y-86470626D01*
X218937000Y-86470626D01*
X218937000Y-88063000D01*
X220145000Y-88063000D01*
X220145000Y-87513000D01*
X219994778Y-87011785D01*
X219664185Y-86606210D01*
X219203550Y-86358020D01*
X219143329Y-86347284D01*
X218937000Y-86470626D01*
X218683000Y-86470626D01*
X218476671Y-86347284D01*
X218416450Y-86358020D01*
X217955815Y-86606210D01*
X217625222Y-87011785D01*
X217542371Y-87288216D01*
X217503379Y-87092189D01*
X217213988Y-86659083D01*
X216780882Y-86369692D01*
X216270000Y-86268071D01*
X215759118Y-86369692D01*
X215326012Y-86659083D01*
X215036621Y-87092189D01*
X215000000Y-87276295D01*
X214963379Y-87092189D01*
X214673988Y-86659083D01*
X214240882Y-86369692D01*
X213730000Y-86268071D01*
X213219118Y-86369692D01*
X212786012Y-86659083D01*
X212496621Y-87092189D01*
X212460000Y-87276295D01*
X212423379Y-87092189D01*
X212133988Y-86659083D01*
X211700882Y-86369692D01*
X211190000Y-86268071D01*
X210679118Y-86369692D01*
X210246012Y-86659083D01*
X209956621Y-87092189D01*
X209855000Y-87603071D01*
X209855000Y-88776929D01*
X209956621Y-89287811D01*
X210175241Y-89615000D01*
X210116579Y-89615000D01*
X204885000Y-84383420D01*
X204885000Y-84115400D01*
X205490658Y-83865147D01*
X206232542Y-83124557D01*
X206634542Y-82156433D01*
X206635114Y-81500000D01*
X212352560Y-81500000D01*
X212352560Y-83500000D01*
X212396838Y-83735317D01*
X212535910Y-83951441D01*
X212748110Y-84096431D01*
X213000000Y-84147440D01*
X215000000Y-84147440D01*
X215235317Y-84103162D01*
X215451441Y-83964090D01*
X215596431Y-83751890D01*
X215616551Y-83652532D01*
X218027073Y-83652532D01*
X218125736Y-83919387D01*
X218735461Y-84145908D01*
X219385460Y-84121856D01*
X219874264Y-83919387D01*
X219972927Y-83652532D01*
X219820395Y-83500000D01*
X226733861Y-83500000D01*
X226906361Y-84367214D01*
X227397598Y-85102402D01*
X228132786Y-85593639D01*
X229000000Y-85766139D01*
X229867214Y-85593639D01*
X230602402Y-85102402D01*
X231093639Y-84367214D01*
X231266139Y-83500000D01*
X231093639Y-82632786D01*
X230602402Y-81897598D01*
X229867214Y-81406361D01*
X229000000Y-81233861D01*
X228132786Y-81406361D01*
X227397598Y-81897598D01*
X226906361Y-82632786D01*
X226733861Y-83500000D01*
X219820395Y-83500000D01*
X219000000Y-82679605D01*
X218027073Y-83652532D01*
X215616551Y-83652532D01*
X215647440Y-83500000D01*
X215647440Y-82235461D01*
X217354092Y-82235461D01*
X217378144Y-82885460D01*
X217580613Y-83374264D01*
X217847468Y-83472927D01*
X218820395Y-82500000D01*
X219179605Y-82500000D01*
X220152532Y-83472927D01*
X220419387Y-83374264D01*
X220645908Y-82764539D01*
X220621856Y-82114540D01*
X220419387Y-81625736D01*
X220152532Y-81527073D01*
X219179605Y-82500000D01*
X218820395Y-82500000D01*
X217847468Y-81527073D01*
X217580613Y-81625736D01*
X217354092Y-82235461D01*
X215647440Y-82235461D01*
X215647440Y-81500000D01*
X215618740Y-81347468D01*
X218027073Y-81347468D01*
X219000000Y-82320395D01*
X219972927Y-81347468D01*
X219964138Y-81323694D01*
X222365226Y-81323694D01*
X222613538Y-81924655D01*
X223072927Y-82384846D01*
X223673453Y-82634206D01*
X224323694Y-82634774D01*
X224924655Y-82386462D01*
X225384846Y-81927073D01*
X225634206Y-81326547D01*
X225634774Y-80676306D01*
X225386462Y-80075345D01*
X224927073Y-79615154D01*
X224326547Y-79365794D01*
X223676306Y-79365226D01*
X223075345Y-79613538D01*
X222615154Y-80072927D01*
X222365794Y-80673453D01*
X222365226Y-81323694D01*
X219964138Y-81323694D01*
X219874264Y-81080613D01*
X219264539Y-80854092D01*
X218614540Y-80878144D01*
X218125736Y-81080613D01*
X218027073Y-81347468D01*
X215618740Y-81347468D01*
X215603162Y-81264683D01*
X215464090Y-81048559D01*
X215251890Y-80903569D01*
X215000000Y-80852560D01*
X213000000Y-80852560D01*
X212764683Y-80896838D01*
X212548559Y-81035910D01*
X212403569Y-81248110D01*
X212352560Y-81500000D01*
X206635114Y-81500000D01*
X206635457Y-81108166D01*
X206235147Y-80139342D01*
X205494557Y-79397458D01*
X204843221Y-79127000D01*
X228889619Y-79127000D01*
X231577209Y-80922789D01*
X233593539Y-83940441D01*
X233873000Y-85345385D01*
X233873000Y-114654615D01*
X233593539Y-116059559D01*
X231577209Y-119077211D01*
X228889619Y-120873000D01*
X196110381Y-120873000D01*
X193422789Y-119077209D01*
X191700755Y-116500000D01*
X193983861Y-116500000D01*
X194156361Y-117367214D01*
X194647598Y-118102402D01*
X195382786Y-118593639D01*
X196250000Y-118766139D01*
X197117214Y-118593639D01*
X197671808Y-118223071D01*
X198855000Y-118223071D01*
X198855000Y-119396929D01*
X198956621Y-119907811D01*
X199246012Y-120340917D01*
X199679118Y-120630308D01*
X200190000Y-120731929D01*
X200700882Y-120630308D01*
X201133988Y-120340917D01*
X201423379Y-119907811D01*
X201460000Y-119723705D01*
X201496621Y-119907811D01*
X201786012Y-120340917D01*
X202219118Y-120630308D01*
X202730000Y-120731929D01*
X203240882Y-120630308D01*
X203673988Y-120340917D01*
X203963379Y-119907811D01*
X204000000Y-119723705D01*
X204036621Y-119907811D01*
X204326012Y-120340917D01*
X204759118Y-120630308D01*
X205270000Y-120731929D01*
X205780882Y-120630308D01*
X206213988Y-120340917D01*
X206503379Y-119907811D01*
X206540000Y-119723705D01*
X206576621Y-119907811D01*
X206866012Y-120340917D01*
X207299118Y-120630308D01*
X207810000Y-120731929D01*
X208320882Y-120630308D01*
X208753988Y-120340917D01*
X209043379Y-119907811D01*
X209145000Y-119396929D01*
X209145000Y-118223071D01*
X209043379Y-117712189D01*
X208753988Y-117279083D01*
X208320882Y-116989692D01*
X207810000Y-116888071D01*
X207299118Y-116989692D01*
X206866012Y-117279083D01*
X206576621Y-117712189D01*
X206540000Y-117896295D01*
X206503379Y-117712189D01*
X206213988Y-117279083D01*
X205780882Y-116989692D01*
X205270000Y-116888071D01*
X204759118Y-116989692D01*
X204326012Y-117279083D01*
X204036621Y-117712189D01*
X204000000Y-117896295D01*
X203963379Y-117712189D01*
X203673988Y-117279083D01*
X203240882Y-116989692D01*
X202730000Y-116888071D01*
X202219118Y-116989692D01*
X201786012Y-117279083D01*
X201496621Y-117712189D01*
X201460000Y-117896295D01*
X201423379Y-117712189D01*
X201133988Y-117279083D01*
X200700882Y-116989692D01*
X200190000Y-116888071D01*
X199679118Y-116989692D01*
X199246012Y-117279083D01*
X198956621Y-117712189D01*
X198855000Y-118223071D01*
X197671808Y-118223071D01*
X197852402Y-118102402D01*
X198343639Y-117367214D01*
X198516139Y-116500000D01*
X198343639Y-115632786D01*
X198254915Y-115500000D01*
X210852560Y-115500000D01*
X210852560Y-117500000D01*
X210896838Y-117735317D01*
X211035910Y-117951441D01*
X211248110Y-118096431D01*
X211500000Y-118147440D01*
X213500000Y-118147440D01*
X213735317Y-118103162D01*
X213951441Y-117964090D01*
X214096431Y-117751890D01*
X214147440Y-117500000D01*
X214147440Y-116500000D01*
X226733861Y-116500000D01*
X226906361Y-117367214D01*
X227397598Y-118102402D01*
X228132786Y-118593639D01*
X229000000Y-118766139D01*
X229867214Y-118593639D01*
X230602402Y-118102402D01*
X231093639Y-117367214D01*
X231266139Y-116500000D01*
X231093639Y-115632786D01*
X230602402Y-114897598D01*
X229867214Y-114406361D01*
X229000000Y-114233861D01*
X228132786Y-114406361D01*
X227397598Y-114897598D01*
X226906361Y-115632786D01*
X226733861Y-116500000D01*
X214147440Y-116500000D01*
X214147440Y-115500000D01*
X214103162Y-115264683D01*
X213964090Y-115048559D01*
X213751890Y-114903569D01*
X213500000Y-114852560D01*
X211500000Y-114852560D01*
X211264683Y-114896838D01*
X211048559Y-115035910D01*
X210903569Y-115248110D01*
X210852560Y-115500000D01*
X198254915Y-115500000D01*
X197852402Y-114897598D01*
X197117214Y-114406361D01*
X196250000Y-114233861D01*
X195382786Y-114406361D01*
X194647598Y-114897598D01*
X194156361Y-115632786D01*
X193983861Y-116500000D01*
X191700755Y-116500000D01*
X191406461Y-116059559D01*
X191127000Y-114654615D01*
X191127000Y-110603071D01*
X198855000Y-110603071D01*
X198855000Y-111776929D01*
X198956621Y-112287811D01*
X199246012Y-112720917D01*
X199679118Y-113010308D01*
X200190000Y-113111929D01*
X200700882Y-113010308D01*
X201133988Y-112720917D01*
X201423379Y-112287811D01*
X201460000Y-112103705D01*
X201496621Y-112287811D01*
X201786012Y-112720917D01*
X202219118Y-113010308D01*
X202730000Y-113111929D01*
X203240882Y-113010308D01*
X203673988Y-112720917D01*
X203963379Y-112287811D01*
X204000000Y-112103705D01*
X204036621Y-112287811D01*
X204326012Y-112720917D01*
X204759118Y-113010308D01*
X205270000Y-113111929D01*
X205780882Y-113010308D01*
X206213988Y-112720917D01*
X206503379Y-112287811D01*
X206542371Y-112091784D01*
X206625222Y-112368215D01*
X206955815Y-112773790D01*
X207416450Y-113021980D01*
X207476671Y-113032716D01*
X207683000Y-112909374D01*
X207683000Y-111317000D01*
X207937000Y-111317000D01*
X207937000Y-112909374D01*
X208143329Y-113032716D01*
X208203550Y-113021980D01*
X208664185Y-112773790D01*
X208763025Y-112652532D01*
X211527073Y-112652532D01*
X211625736Y-112919387D01*
X212235461Y-113145908D01*
X212885460Y-113121856D01*
X213374264Y-112919387D01*
X213472927Y-112652532D01*
X212500000Y-111679605D01*
X211527073Y-112652532D01*
X208763025Y-112652532D01*
X208994778Y-112368215D01*
X209145000Y-111867000D01*
X209145000Y-111317000D01*
X207937000Y-111317000D01*
X207683000Y-111317000D01*
X207663000Y-111317000D01*
X207663000Y-111235461D01*
X210854092Y-111235461D01*
X210878144Y-111885460D01*
X211080613Y-112374264D01*
X211347468Y-112472927D01*
X212320395Y-111500000D01*
X212679605Y-111500000D01*
X213652532Y-112472927D01*
X213919387Y-112374264D01*
X214145908Y-111764539D01*
X214121856Y-111114540D01*
X213975964Y-110762325D01*
X217574587Y-110762325D01*
X217936916Y-111639229D01*
X218607242Y-112310726D01*
X219483513Y-112674585D01*
X220432325Y-112675413D01*
X221309229Y-112313084D01*
X221980726Y-111642758D01*
X222344585Y-110766487D01*
X222345413Y-109817675D01*
X221983084Y-108940771D01*
X221315314Y-108271834D01*
X227484543Y-108271834D01*
X227884853Y-109240658D01*
X228625443Y-109982542D01*
X229593567Y-110384542D01*
X230641834Y-110385457D01*
X231610658Y-109985147D01*
X232352542Y-109244557D01*
X232754542Y-108276433D01*
X232755457Y-107228166D01*
X232355147Y-106259342D01*
X231614557Y-105517458D01*
X230646433Y-105115458D01*
X229598166Y-105114543D01*
X228629342Y-105514853D01*
X227887458Y-106255443D01*
X227485458Y-107223567D01*
X227484543Y-108271834D01*
X221315314Y-108271834D01*
X221312758Y-108269274D01*
X220436487Y-107905415D01*
X219487675Y-107904587D01*
X218610771Y-108266916D01*
X217939274Y-108937242D01*
X217575415Y-109813513D01*
X217574587Y-110762325D01*
X213975964Y-110762325D01*
X213919387Y-110625736D01*
X213652532Y-110527073D01*
X212679605Y-111500000D01*
X212320395Y-111500000D01*
X211347468Y-110527073D01*
X211080613Y-110625736D01*
X210854092Y-111235461D01*
X207663000Y-111235461D01*
X207663000Y-111063000D01*
X207683000Y-111063000D01*
X207683000Y-109470626D01*
X207937000Y-109470626D01*
X207937000Y-111063000D01*
X209145000Y-111063000D01*
X209145000Y-110513000D01*
X209095388Y-110347468D01*
X211527073Y-110347468D01*
X212500000Y-111320395D01*
X213472927Y-110347468D01*
X213374264Y-110080613D01*
X212764539Y-109854092D01*
X212114540Y-109878144D01*
X211625736Y-110080613D01*
X211527073Y-110347468D01*
X209095388Y-110347468D01*
X208994778Y-110011785D01*
X208664185Y-109606210D01*
X208203550Y-109358020D01*
X208143329Y-109347284D01*
X207937000Y-109470626D01*
X207683000Y-109470626D01*
X207476671Y-109347284D01*
X207416450Y-109358020D01*
X206955815Y-109606210D01*
X206625222Y-110011785D01*
X206542371Y-110288216D01*
X206503379Y-110092189D01*
X206213988Y-109659083D01*
X205780882Y-109369692D01*
X205270000Y-109268071D01*
X204759118Y-109369692D01*
X204326012Y-109659083D01*
X204036621Y-110092189D01*
X204000000Y-110276295D01*
X203963379Y-110092189D01*
X203673988Y-109659083D01*
X203240882Y-109369692D01*
X202730000Y-109268071D01*
X202219118Y-109369692D01*
X201786012Y-109659083D01*
X201496621Y-110092189D01*
X201460000Y-110276295D01*
X201423379Y-110092189D01*
X201133988Y-109659083D01*
X200700882Y-109369692D01*
X200190000Y-109268071D01*
X199679118Y-109369692D01*
X199246012Y-109659083D01*
X198956621Y-110092189D01*
X198855000Y-110603071D01*
X191127000Y-110603071D01*
X191127000Y-107882946D01*
X191394017Y-107882946D01*
X191662812Y-108468379D01*
X192135182Y-108906385D01*
X192617056Y-109105975D01*
X192873000Y-108986836D01*
X192873000Y-107627000D01*
X193127000Y-107627000D01*
X193127000Y-108986836D01*
X193382944Y-109105975D01*
X193864818Y-108906385D01*
X194337188Y-108468379D01*
X194605983Y-107882946D01*
X194487367Y-107627000D01*
X193127000Y-107627000D01*
X192873000Y-107627000D01*
X191512633Y-107627000D01*
X191394017Y-107882946D01*
X191127000Y-107882946D01*
X191127000Y-107117054D01*
X191394017Y-107117054D01*
X191512633Y-107373000D01*
X192873000Y-107373000D01*
X192873000Y-106013164D01*
X193127000Y-106013164D01*
X193127000Y-107373000D01*
X194487367Y-107373000D01*
X194605983Y-107117054D01*
X194337188Y-106531621D01*
X193864818Y-106093615D01*
X193382944Y-105894025D01*
X193127000Y-106013164D01*
X192873000Y-106013164D01*
X192617056Y-105894025D01*
X192135182Y-106093615D01*
X191662812Y-106531621D01*
X191394017Y-107117054D01*
X191127000Y-107117054D01*
X191127000Y-105682325D01*
X217574587Y-105682325D01*
X217936916Y-106559229D01*
X218607242Y-107230726D01*
X219483513Y-107594585D01*
X220432325Y-107595413D01*
X221309229Y-107233084D01*
X221980726Y-106562758D01*
X222344585Y-105686487D01*
X222345413Y-104737675D01*
X221983084Y-103860771D01*
X221312758Y-103189274D01*
X220436487Y-102825415D01*
X219487675Y-102824587D01*
X218610771Y-103186916D01*
X217939274Y-103857242D01*
X217575415Y-104733513D01*
X217574587Y-105682325D01*
X191127000Y-105682325D01*
X191127000Y-101484000D01*
X191336560Y-101484000D01*
X191336560Y-103516000D01*
X191380838Y-103751317D01*
X191519910Y-103967441D01*
X191732110Y-104112431D01*
X191984000Y-104163440D01*
X194016000Y-104163440D01*
X194251317Y-104119162D01*
X194467441Y-103980090D01*
X194612431Y-103767890D01*
X194663440Y-103516000D01*
X194663440Y-103274285D01*
X200114760Y-103274285D01*
X200325169Y-103783515D01*
X200714436Y-104173461D01*
X201223298Y-104384759D01*
X201774285Y-104385240D01*
X202283515Y-104174831D01*
X202619405Y-103839525D01*
X202646838Y-103985317D01*
X202785910Y-104201441D01*
X202998110Y-104346431D01*
X203250000Y-104397440D01*
X204750000Y-104397440D01*
X204985317Y-104353162D01*
X205201441Y-104214090D01*
X205346431Y-104001890D01*
X205397440Y-103750000D01*
X205397440Y-102250000D01*
X205353162Y-102014683D01*
X205214090Y-101798559D01*
X205001890Y-101653569D01*
X204750000Y-101602560D01*
X203250000Y-101602560D01*
X203014683Y-101646838D01*
X202798559Y-101785910D01*
X202653569Y-101998110D01*
X202620391Y-102161950D01*
X202285564Y-101826539D01*
X201776702Y-101615241D01*
X201225715Y-101614760D01*
X200716485Y-101825169D01*
X200326539Y-102214436D01*
X200115241Y-102723298D01*
X200114760Y-103274285D01*
X194663440Y-103274285D01*
X194663440Y-101484000D01*
X194619162Y-101248683D01*
X194480090Y-101032559D01*
X194267890Y-100887569D01*
X194016000Y-100836560D01*
X191984000Y-100836560D01*
X191748683Y-100880838D01*
X191532559Y-101019910D01*
X191387569Y-101232110D01*
X191336560Y-101484000D01*
X191127000Y-101484000D01*
X191127000Y-96382946D01*
X191394017Y-96382946D01*
X191662812Y-96968379D01*
X192135182Y-97406385D01*
X192617056Y-97605975D01*
X192873000Y-97486836D01*
X192873000Y-96127000D01*
X193127000Y-96127000D01*
X193127000Y-97486836D01*
X193382944Y-97605975D01*
X193864818Y-97406385D01*
X194337188Y-96968379D01*
X194605983Y-96382946D01*
X194487367Y-96127000D01*
X193127000Y-96127000D01*
X192873000Y-96127000D01*
X191512633Y-96127000D01*
X191394017Y-96382946D01*
X191127000Y-96382946D01*
X191127000Y-95617054D01*
X191394017Y-95617054D01*
X191512633Y-95873000D01*
X192873000Y-95873000D01*
X192873000Y-94513164D01*
X193127000Y-94513164D01*
X193127000Y-95873000D01*
X194487367Y-95873000D01*
X194605983Y-95617054D01*
X194337188Y-95031621D01*
X193864818Y-94593615D01*
X193382944Y-94394025D01*
X193127000Y-94513164D01*
X192873000Y-94513164D01*
X192617056Y-94394025D01*
X192135182Y-94593615D01*
X191662812Y-95031621D01*
X191394017Y-95617054D01*
X191127000Y-95617054D01*
X191127000Y-90484000D01*
X191336560Y-90484000D01*
X191336560Y-92516000D01*
X191380838Y-92751317D01*
X191519910Y-92967441D01*
X191732110Y-93112431D01*
X191984000Y-93163440D01*
X194016000Y-93163440D01*
X194251317Y-93119162D01*
X194467441Y-92980090D01*
X194612431Y-92767890D01*
X194663440Y-92516000D01*
X194663440Y-92262325D01*
X199074587Y-92262325D01*
X199436916Y-93139229D01*
X200107242Y-93810726D01*
X200983513Y-94174585D01*
X201932325Y-94175413D01*
X202809229Y-93813084D01*
X203480726Y-93142758D01*
X203844585Y-92266487D01*
X203845413Y-91317675D01*
X203483084Y-90440771D01*
X202812758Y-89769274D01*
X201936487Y-89405415D01*
X200987675Y-89404587D01*
X200110771Y-89766916D01*
X199439274Y-90437242D01*
X199075415Y-91313513D01*
X199074587Y-92262325D01*
X194663440Y-92262325D01*
X194663440Y-90484000D01*
X194619162Y-90248683D01*
X194480090Y-90032559D01*
X194267890Y-89887569D01*
X194016000Y-89836560D01*
X191984000Y-89836560D01*
X191748683Y-89880838D01*
X191532559Y-90019910D01*
X191387569Y-90232110D01*
X191336560Y-90484000D01*
X191127000Y-90484000D01*
X191127000Y-85345385D01*
X191406461Y-83940441D01*
X191700754Y-83500000D01*
X193983861Y-83500000D01*
X194156361Y-84367214D01*
X194647598Y-85102402D01*
X195382786Y-85593639D01*
X196250000Y-85766139D01*
X197117214Y-85593639D01*
X197852402Y-85102402D01*
X198343639Y-84367214D01*
X198516139Y-83500000D01*
X198343639Y-82632786D01*
X197852402Y-81897598D01*
X197117214Y-81406361D01*
X196250000Y-81233861D01*
X195382786Y-81406361D01*
X194647598Y-81897598D01*
X194156361Y-82632786D01*
X193983861Y-83500000D01*
X191700754Y-83500000D01*
X193422789Y-80922791D01*
X196110381Y-79127000D01*
X203157596Y-79127000D01*
X202509342Y-79394853D01*
M02*
