G04 #@! TF.FileFunction,Legend,Bot*
%FSLAX46Y46*%
G04 Gerber Fmt 4.6, Leading zero omitted, Abs format (unit mm)*
G04 Created by KiCad (PCBNEW (2015-11-24 BZR 6329)-product) date Thu 09 Mar 2017 02:25:58 AM EST*
%MOMM*%
G01*
G04 APERTURE LIST*
%ADD10C,0.100000*%
%ADD11C,0.300000*%
%ADD12C,0.150000*%
G04 APERTURE END LIST*
D10*
D11*
X255321428Y-73778571D02*
X254964285Y-75278571D01*
X254678571Y-74207143D01*
X254392857Y-75278571D01*
X254035714Y-73778571D01*
X253464285Y-75278571D02*
X253464285Y-73778571D01*
X252821428Y-75278571D02*
X252821428Y-74492857D01*
X252892857Y-74350000D01*
X253035714Y-74278571D01*
X253249999Y-74278571D01*
X253392857Y-74350000D01*
X253464285Y-74421429D01*
X252107142Y-75278571D02*
X252107142Y-74278571D01*
X252107142Y-73778571D02*
X252178571Y-73850000D01*
X252107142Y-73921429D01*
X252035714Y-73850000D01*
X252107142Y-73778571D01*
X252107142Y-73921429D01*
X251607142Y-74278571D02*
X251035713Y-74278571D01*
X251392856Y-73778571D02*
X251392856Y-75064286D01*
X251321428Y-75207143D01*
X251178570Y-75278571D01*
X251035713Y-75278571D01*
X249964285Y-75207143D02*
X250107142Y-75278571D01*
X250392856Y-75278571D01*
X250535713Y-75207143D01*
X250607142Y-75064286D01*
X250607142Y-74492857D01*
X250535713Y-74350000D01*
X250392856Y-74278571D01*
X250107142Y-74278571D01*
X249964285Y-74350000D01*
X249892856Y-74492857D01*
X249892856Y-74635714D01*
X250607142Y-74778571D01*
X249464285Y-74278571D02*
X248892856Y-74278571D01*
X249249999Y-75278571D02*
X249249999Y-73992857D01*
X249178571Y-73850000D01*
X249035713Y-73778571D01*
X248892856Y-73778571D01*
X248178570Y-75278571D02*
X248321428Y-75207143D01*
X248392856Y-75135714D01*
X248464285Y-74992857D01*
X248464285Y-74564286D01*
X248392856Y-74421429D01*
X248321428Y-74350000D01*
X248178570Y-74278571D01*
X247964285Y-74278571D01*
X247821428Y-74350000D01*
X247749999Y-74421429D01*
X247678570Y-74564286D01*
X247678570Y-74992857D01*
X247749999Y-75135714D01*
X247821428Y-75207143D01*
X247964285Y-75278571D01*
X248178570Y-75278571D01*
X247035713Y-75278571D02*
X247035713Y-74278571D01*
X247035713Y-74564286D02*
X246964285Y-74421429D01*
X246892856Y-74350000D01*
X246749999Y-74278571D01*
X246607142Y-74278571D01*
X245464285Y-75278571D02*
X245464285Y-73778571D01*
X245464285Y-75207143D02*
X245607142Y-75278571D01*
X245892856Y-75278571D01*
X246035714Y-75207143D01*
X246107142Y-75135714D01*
X246178571Y-74992857D01*
X246178571Y-74564286D01*
X246107142Y-74421429D01*
X246035714Y-74350000D01*
X245892856Y-74278571D01*
X245607142Y-74278571D01*
X245464285Y-74350000D01*
X242749999Y-75278571D02*
X243249999Y-74564286D01*
X243607142Y-75278571D02*
X243607142Y-73778571D01*
X243035714Y-73778571D01*
X242892856Y-73850000D01*
X242821428Y-73921429D01*
X242749999Y-74064286D01*
X242749999Y-74278571D01*
X242821428Y-74421429D01*
X242892856Y-74492857D01*
X243035714Y-74564286D01*
X243607142Y-74564286D01*
X241535714Y-75207143D02*
X241678571Y-75278571D01*
X241964285Y-75278571D01*
X242107142Y-75207143D01*
X242178571Y-75064286D01*
X242178571Y-74492857D01*
X242107142Y-74350000D01*
X241964285Y-74278571D01*
X241678571Y-74278571D01*
X241535714Y-74350000D01*
X241464285Y-74492857D01*
X241464285Y-74635714D01*
X242178571Y-74778571D01*
X240892857Y-75207143D02*
X240750000Y-75278571D01*
X240464285Y-75278571D01*
X240321428Y-75207143D01*
X240250000Y-75064286D01*
X240250000Y-74992857D01*
X240321428Y-74850000D01*
X240464285Y-74778571D01*
X240678571Y-74778571D01*
X240821428Y-74707143D01*
X240892857Y-74564286D01*
X240892857Y-74492857D01*
X240821428Y-74350000D01*
X240678571Y-74278571D01*
X240464285Y-74278571D01*
X240321428Y-74350000D01*
X239035714Y-75207143D02*
X239178571Y-75278571D01*
X239464285Y-75278571D01*
X239607142Y-75207143D01*
X239678571Y-75064286D01*
X239678571Y-74492857D01*
X239607142Y-74350000D01*
X239464285Y-74278571D01*
X239178571Y-74278571D01*
X239035714Y-74350000D01*
X238964285Y-74492857D01*
X238964285Y-74635714D01*
X239678571Y-74778571D01*
X237678571Y-75278571D02*
X237678571Y-74492857D01*
X237750000Y-74350000D01*
X237892857Y-74278571D01*
X238178571Y-74278571D01*
X238321428Y-74350000D01*
X237678571Y-75207143D02*
X237821428Y-75278571D01*
X238178571Y-75278571D01*
X238321428Y-75207143D01*
X238392857Y-75064286D01*
X238392857Y-74921429D01*
X238321428Y-74778571D01*
X238178571Y-74707143D01*
X237821428Y-74707143D01*
X237678571Y-74635714D01*
X236964285Y-75278571D02*
X236964285Y-74278571D01*
X236964285Y-74564286D02*
X236892857Y-74421429D01*
X236821428Y-74350000D01*
X236678571Y-74278571D01*
X236535714Y-74278571D01*
X235392857Y-75207143D02*
X235535714Y-75278571D01*
X235821428Y-75278571D01*
X235964286Y-75207143D01*
X236035714Y-75135714D01*
X236107143Y-74992857D01*
X236107143Y-74564286D01*
X236035714Y-74421429D01*
X235964286Y-74350000D01*
X235821428Y-74278571D01*
X235535714Y-74278571D01*
X235392857Y-74350000D01*
X234750000Y-75278571D02*
X234750000Y-73778571D01*
X234107143Y-75278571D02*
X234107143Y-74492857D01*
X234178572Y-74350000D01*
X234321429Y-74278571D01*
X234535714Y-74278571D01*
X234678572Y-74350000D01*
X234750000Y-74421429D01*
X231535714Y-75278571D02*
X232250000Y-75278571D01*
X232250000Y-73778571D01*
X231035714Y-75278571D02*
X231035714Y-74278571D01*
X231035714Y-73778571D02*
X231107143Y-73850000D01*
X231035714Y-73921429D01*
X230964286Y-73850000D01*
X231035714Y-73778571D01*
X231035714Y-73921429D01*
X230321428Y-75278571D02*
X230321428Y-74278571D01*
X230321428Y-74421429D02*
X230250000Y-74350000D01*
X230107142Y-74278571D01*
X229892857Y-74278571D01*
X229750000Y-74350000D01*
X229678571Y-74492857D01*
X229678571Y-75278571D01*
X229678571Y-74492857D02*
X229607142Y-74350000D01*
X229464285Y-74278571D01*
X229250000Y-74278571D01*
X229107142Y-74350000D01*
X229035714Y-74492857D01*
X229035714Y-75278571D01*
X228321428Y-75278571D02*
X228321428Y-74278571D01*
X228321428Y-73778571D02*
X228392857Y-73850000D01*
X228321428Y-73921429D01*
X228250000Y-73850000D01*
X228321428Y-73778571D01*
X228321428Y-73921429D01*
X227821428Y-74278571D02*
X227249999Y-74278571D01*
X227607142Y-73778571D02*
X227607142Y-75064286D01*
X227535714Y-75207143D01*
X227392856Y-75278571D01*
X227249999Y-75278571D01*
X226178571Y-75207143D02*
X226321428Y-75278571D01*
X226607142Y-75278571D01*
X226749999Y-75207143D01*
X226821428Y-75064286D01*
X226821428Y-74492857D01*
X226749999Y-74350000D01*
X226607142Y-74278571D01*
X226321428Y-74278571D01*
X226178571Y-74350000D01*
X226107142Y-74492857D01*
X226107142Y-74635714D01*
X226821428Y-74778571D01*
X224821428Y-75278571D02*
X224821428Y-73778571D01*
X224821428Y-75207143D02*
X224964285Y-75278571D01*
X225249999Y-75278571D01*
X225392857Y-75207143D01*
X225464285Y-75135714D01*
X225535714Y-74992857D01*
X225535714Y-74564286D01*
X225464285Y-74421429D01*
X225392857Y-74350000D01*
X225249999Y-74278571D01*
X224964285Y-74278571D01*
X224821428Y-74350000D01*
X249071427Y-77678571D02*
X249071427Y-76178571D01*
X248499999Y-76178571D01*
X248357141Y-76250000D01*
X248285713Y-76321429D01*
X248214284Y-76464286D01*
X248214284Y-76678571D01*
X248285713Y-76821429D01*
X248357141Y-76892857D01*
X248499999Y-76964286D01*
X249071427Y-76964286D01*
X246928570Y-76678571D02*
X246928570Y-77678571D01*
X247571427Y-76678571D02*
X247571427Y-77464286D01*
X247499999Y-77607143D01*
X247357141Y-77678571D01*
X247142856Y-77678571D01*
X246999999Y-77607143D01*
X246928570Y-77535714D01*
X246214284Y-76678571D02*
X246214284Y-77678571D01*
X246214284Y-76821429D02*
X246142856Y-76750000D01*
X245999998Y-76678571D01*
X245785713Y-76678571D01*
X245642856Y-76750000D01*
X245571427Y-76892857D01*
X245571427Y-77678571D01*
X244857141Y-77678571D02*
X244857141Y-76178571D01*
X244714284Y-77107143D02*
X244285713Y-77678571D01*
X244285713Y-76678571D02*
X244857141Y-77250000D01*
X243714284Y-77607143D02*
X243499998Y-77678571D01*
X243142855Y-77678571D01*
X242999998Y-77607143D01*
X242928569Y-77535714D01*
X242857141Y-77392857D01*
X242857141Y-77250000D01*
X242928569Y-77107143D01*
X242999998Y-77035714D01*
X243142855Y-76964286D01*
X243428569Y-76892857D01*
X243571427Y-76821429D01*
X243642855Y-76750000D01*
X243714284Y-76607143D01*
X243714284Y-76464286D01*
X243642855Y-76321429D01*
X243571427Y-76250000D01*
X243428569Y-76178571D01*
X243071427Y-76178571D01*
X242857141Y-76250000D01*
X241642856Y-77607143D02*
X241785713Y-77678571D01*
X242071427Y-77678571D01*
X242214284Y-77607143D01*
X242285713Y-77464286D01*
X242285713Y-76892857D01*
X242214284Y-76750000D01*
X242071427Y-76678571D01*
X241785713Y-76678571D01*
X241642856Y-76750000D01*
X241571427Y-76892857D01*
X241571427Y-77035714D01*
X242285713Y-77178571D01*
X240285713Y-76678571D02*
X240285713Y-78178571D01*
X240285713Y-77607143D02*
X240428570Y-77678571D01*
X240714284Y-77678571D01*
X240857142Y-77607143D01*
X240928570Y-77535714D01*
X240999999Y-77392857D01*
X240999999Y-76964286D01*
X240928570Y-76821429D01*
X240857142Y-76750000D01*
X240714284Y-76678571D01*
X240428570Y-76678571D01*
X240285713Y-76750000D01*
X238785713Y-77678571D02*
X239642856Y-77678571D01*
X239214284Y-77678571D02*
X239214284Y-76178571D01*
X239357141Y-76392857D01*
X239499999Y-76535714D01*
X239642856Y-76607143D01*
X237857142Y-76178571D02*
X237714285Y-76178571D01*
X237571428Y-76250000D01*
X237499999Y-76321429D01*
X237428570Y-76464286D01*
X237357142Y-76750000D01*
X237357142Y-77107143D01*
X237428570Y-77392857D01*
X237499999Y-77535714D01*
X237571428Y-77607143D01*
X237714285Y-77678571D01*
X237857142Y-77678571D01*
X237999999Y-77607143D01*
X238071428Y-77535714D01*
X238142856Y-77392857D01*
X238214285Y-77107143D01*
X238214285Y-76750000D01*
X238142856Y-76464286D01*
X238071428Y-76321429D01*
X237999999Y-76250000D01*
X237857142Y-76178571D01*
X235571428Y-77107143D02*
X234428571Y-77107143D01*
X232571428Y-77678571D02*
X232571428Y-76678571D01*
X232571428Y-76964286D02*
X232500000Y-76821429D01*
X232428571Y-76750000D01*
X232285714Y-76678571D01*
X232142857Y-76678571D01*
X231714286Y-76321429D02*
X231642857Y-76250000D01*
X231500000Y-76178571D01*
X231142857Y-76178571D01*
X231000000Y-76250000D01*
X230928571Y-76321429D01*
X230857143Y-76464286D01*
X230857143Y-76607143D01*
X230928571Y-76821429D01*
X231785714Y-77678571D01*
X230857143Y-77678571D01*
D12*
X176214888Y-69524904D02*
G75*
G02X176230000Y-66500000I-2484888J1524904D01*
G01*
X176230000Y-69500000D02*
X176230000Y-66500000D01*
X176247936Y-68000000D02*
G75*
G03X176247936Y-68000000I-2517936J0D01*
G01*
X180214888Y-57524904D02*
G75*
G02X180230000Y-54500000I-2484888J1524904D01*
G01*
X180230000Y-57500000D02*
X180230000Y-54500000D01*
X180247936Y-56000000D02*
G75*
G03X180247936Y-56000000I-2517936J0D01*
G01*
X187214888Y-49524904D02*
G75*
G02X187230000Y-46500000I-2484888J1524904D01*
G01*
X187230000Y-49500000D02*
X187230000Y-46500000D01*
X187247936Y-48000000D02*
G75*
G03X187247936Y-48000000I-2517936J0D01*
G01*
X197214888Y-42524904D02*
G75*
G02X197230000Y-39500000I-2484888J1524904D01*
G01*
X197230000Y-42500000D02*
X197230000Y-39500000D01*
X197247936Y-41000000D02*
G75*
G03X197247936Y-41000000I-2517936J0D01*
G01*
X207214888Y-39524904D02*
G75*
G02X207230000Y-36500000I-2484888J1524904D01*
G01*
X207230000Y-39500000D02*
X207230000Y-36500000D01*
X207247936Y-38000000D02*
G75*
G03X207247936Y-38000000I-2517936J0D01*
G01*
X214785112Y-36475096D02*
G75*
G02X214770000Y-39500000I2484888J-1524904D01*
G01*
X214770000Y-36500000D02*
X214770000Y-39500000D01*
X219787936Y-38000000D02*
G75*
G03X219787936Y-38000000I-2517936J0D01*
G01*
X225785112Y-39475096D02*
G75*
G02X225770000Y-42500000I2484888J-1524904D01*
G01*
X225770000Y-39500000D02*
X225770000Y-42500000D01*
X230787936Y-41000000D02*
G75*
G03X230787936Y-41000000I-2517936J0D01*
G01*
X235785112Y-45475096D02*
G75*
G02X235770000Y-48500000I2484888J-1524904D01*
G01*
X235770000Y-45500000D02*
X235770000Y-48500000D01*
X240787936Y-47000000D02*
G75*
G03X240787936Y-47000000I-2517936J0D01*
G01*
X243785112Y-54475096D02*
G75*
G02X243770000Y-57500000I2484888J-1524904D01*
G01*
X243770000Y-54500000D02*
X243770000Y-57500000D01*
X248787936Y-56000000D02*
G75*
G03X248787936Y-56000000I-2517936J0D01*
G01*
X247785112Y-66475096D02*
G75*
G02X247770000Y-69500000I2484888J-1524904D01*
G01*
X247770000Y-66500000D02*
X247770000Y-69500000D01*
X252787936Y-68000000D02*
G75*
G03X252787936Y-68000000I-2517936J0D01*
G01*
M02*
