G04 #@! TF.FileFunction,Soldermask,Bot*
%FSLAX46Y46*%
G04 Gerber Fmt 4.6, Leading zero omitted, Abs format (unit mm)*
G04 Created by KiCad (PCBNEW (2015-11-24 BZR 6329)-product) date Thu 09 Mar 2017 02:25:58 AM EST*
%MOMM*%
G01*
G04 APERTURE LIST*
%ADD10C,0.100000*%
%ADD11C,1.524000*%
%ADD12C,3.200000*%
%ADD13O,1.600000X2.300000*%
%ADD14O,1.400000X2.500000*%
%ADD15R,2.032000X2.032000*%
%ADD16O,2.032000X2.032000*%
%ADD17R,2.000000X2.000000*%
%ADD18C,2.000000*%
%ADD19C,1.998980*%
%ADD20C,3.500000*%
%ADD21C,4.000000*%
%ADD22R,1.500000X1.500000*%
%ADD23C,1.500000*%
%ADD24R,1.900000X2.000000*%
%ADD25C,1.900000*%
%ADD26C,3.000000*%
%ADD27C,1.699260*%
%ADD28R,1.699260X1.699260*%
%ADD29R,1.300000X1.300000*%
%ADD30C,1.300000*%
G04 APERTURE END LIST*
D10*
D11*
X238600000Y-91500000D03*
X238600000Y-89500000D03*
X238600000Y-87500000D03*
X238600000Y-85400000D03*
X238600000Y-93600000D03*
D12*
X189500000Y-110200000D03*
X234400000Y-110300000D03*
X220000000Y-24200000D03*
X202000000Y-24200000D03*
D13*
X203000000Y-75000000D03*
X205540000Y-75000000D03*
X208080000Y-75000000D03*
X210620000Y-75000000D03*
X213160000Y-75000000D03*
X215700000Y-75000000D03*
X218240000Y-75000000D03*
X220780000Y-75000000D03*
X220780000Y-67380000D03*
X218240000Y-67380000D03*
X215700000Y-67380000D03*
X213160000Y-67380000D03*
X210620000Y-67380000D03*
X208080000Y-67380000D03*
X205540000Y-67380000D03*
X203000000Y-67380000D03*
D14*
X172190000Y-85810000D03*
X174730000Y-85810000D03*
X177270000Y-85810000D03*
X179810000Y-85810000D03*
X179810000Y-78190000D03*
X177270000Y-78190000D03*
X174730000Y-78190000D03*
X172190000Y-78190000D03*
D15*
X193000000Y-88000000D03*
D16*
X193000000Y-92500000D03*
D15*
X193000000Y-99000000D03*
D16*
X193000000Y-104000000D03*
D14*
X205310000Y-107690000D03*
X202770000Y-107690000D03*
X200230000Y-107690000D03*
X197690000Y-107690000D03*
X197690000Y-115310000D03*
X200230000Y-115310000D03*
X202770000Y-115310000D03*
X205310000Y-115310000D03*
X218810000Y-84690000D03*
X216270000Y-84690000D03*
X213730000Y-84690000D03*
X211190000Y-84690000D03*
X211190000Y-92310000D03*
X213730000Y-92310000D03*
X216270000Y-92310000D03*
X218810000Y-92310000D03*
D17*
X214000000Y-79000000D03*
D18*
X219000000Y-79000000D03*
D17*
X212500000Y-113000000D03*
D18*
X212500000Y-108000000D03*
D19*
X224000000Y-92500000D03*
X224000000Y-77500000D03*
D20*
X223500000Y-103907898D03*
X219907898Y-107500000D03*
D21*
X228888154Y-112888154D03*
D20*
X181460000Y-104540000D03*
X186540000Y-104540000D03*
D21*
X184000000Y-94380000D03*
D22*
X201000000Y-99500000D03*
D23*
X203500000Y-99500000D03*
D24*
X175000000Y-68000000D03*
D25*
X172460000Y-68000000D03*
D24*
X179000000Y-56000000D03*
D25*
X176460000Y-56000000D03*
D24*
X186000000Y-48000000D03*
D25*
X183460000Y-48000000D03*
D24*
X196000000Y-41000000D03*
D25*
X193460000Y-41000000D03*
D24*
X206000000Y-38000000D03*
D25*
X203460000Y-38000000D03*
D24*
X216000000Y-38000000D03*
D25*
X218540000Y-38000000D03*
D24*
X227000000Y-41000000D03*
D25*
X229540000Y-41000000D03*
D24*
X237000000Y-47000000D03*
D25*
X239540000Y-47000000D03*
D24*
X245000000Y-56000000D03*
D25*
X247540000Y-56000000D03*
D24*
X249000000Y-68000000D03*
D25*
X251540000Y-68000000D03*
D26*
X168460000Y-65460000D03*
X168460000Y-70540000D03*
X178620000Y-68000000D03*
X175070295Y-50530295D03*
X172530295Y-54929705D03*
X182599114Y-57810000D03*
X182686928Y-42421567D03*
X179421567Y-46313072D03*
X188837259Y-50898042D03*
X193929705Y-35530295D03*
X189530295Y-38070295D03*
X196810000Y-45599114D03*
X206008678Y-32022012D03*
X201022012Y-32991322D03*
X205453965Y-42479999D03*
X221977988Y-32991322D03*
X216991322Y-32022012D03*
X217546035Y-42479999D03*
X233469705Y-38070295D03*
X229070295Y-35530295D03*
X226190000Y-45599114D03*
X243578433Y-46313072D03*
X240313072Y-42421567D03*
X234162741Y-50898042D03*
X251469705Y-54929705D03*
X248929705Y-50530295D03*
X241400886Y-57810000D03*
X254540000Y-70540000D03*
X254540000Y-65460000D03*
X244380000Y-68000000D03*
D27*
X182839480Y-68002540D03*
D28*
X192999480Y-68002540D03*
D27*
X185199462Y-59921940D03*
D10*
G36*
X192837664Y-65312926D02*
X193687294Y-63841324D01*
X195158896Y-64690954D01*
X194309266Y-66162556D01*
X192837664Y-65312926D01*
X192837664Y-65312926D01*
G37*
D27*
X192214957Y-53470889D03*
D10*
G36*
X198800983Y-60106335D02*
X199893246Y-58804626D01*
X201194955Y-59896889D01*
X200102692Y-61198598D01*
X198800983Y-60106335D01*
X198800983Y-60106335D01*
G37*
D27*
X199917540Y-49202002D03*
D10*
G36*
X203836924Y-57689834D02*
X205308526Y-56840204D01*
X206158156Y-58311806D01*
X204686554Y-59161436D01*
X203836924Y-57689834D01*
X203836924Y-57689834D01*
G37*
D27*
X207058788Y-46026642D03*
D10*
G36*
X208001270Y-55328071D02*
X209669310Y-55003837D01*
X209993544Y-56671877D01*
X208325504Y-56996111D01*
X208001270Y-55328071D01*
X208001270Y-55328071D01*
G37*
D27*
X216936225Y-46025673D03*
D10*
G36*
X214325703Y-55002868D02*
X215993743Y-55327102D01*
X215669509Y-56995142D01*
X214001469Y-56670908D01*
X214325703Y-55002868D01*
X214325703Y-55002868D01*
G37*
D27*
X224078060Y-49199462D03*
D10*
G36*
X218687074Y-56837664D02*
X220158676Y-57687294D01*
X219309046Y-59158896D01*
X217837444Y-58309266D01*
X218687074Y-56837664D01*
X218687074Y-56837664D01*
G37*
D27*
X231781777Y-53466998D03*
D10*
G36*
X224103489Y-58800734D02*
X225195752Y-60102443D01*
X223894043Y-61194706D01*
X222801780Y-59892997D01*
X224103489Y-58800734D01*
X224103489Y-58800734D01*
G37*
D27*
X238797998Y-59917540D03*
D10*
G36*
X230310166Y-63836924D02*
X231159796Y-65308526D01*
X229688194Y-66158156D01*
X228838564Y-64686554D01*
X230310166Y-63836924D01*
X230310166Y-63836924D01*
G37*
D27*
X241160520Y-67997460D03*
D28*
X231000520Y-67997460D03*
D19*
X186000000Y-73500000D03*
X186000000Y-88500000D03*
X165000000Y-60500000D03*
X165000000Y-75500000D03*
X172750000Y-42504809D03*
X165250000Y-55495191D03*
X182820907Y-35254667D03*
X173179093Y-46745333D03*
X193495191Y-25250000D03*
X180504809Y-32750000D03*
X209500000Y-29000000D03*
X194500000Y-29000000D03*
X227500000Y-29000000D03*
X212500000Y-29000000D03*
X242495191Y-33750000D03*
X229504809Y-26250000D03*
X249820907Y-46745333D03*
X240179093Y-35254667D03*
X257750000Y-54495191D03*
X250250000Y-41504809D03*
X259000000Y-75500000D03*
X259000000Y-60500000D03*
D29*
X174800000Y-91600000D03*
D30*
X172300000Y-91600000D03*
D11*
X244400000Y-91500000D03*
X244400000Y-89500000D03*
X244400000Y-87500000D03*
X244400000Y-85400000D03*
X244400000Y-93600000D03*
X250200000Y-91500000D03*
X250200000Y-89500000D03*
X250200000Y-87500000D03*
X250200000Y-85400000D03*
X250200000Y-93600000D03*
M02*
