M48
;DRILL file {KiCad (2015-11-24 BZR 6329)-product} date Thu 14 Jan 2016 05:58:15 PM EST
;FORMAT={-:-/ absolute / inch / decimal}
FMAT,2
INCH,TZ
T1C0.025
T2C0.028
T3C0.030
T4C0.031
T5C0.032
T6C0.035
T7C0.039
T8C0.040
T9C0.043
T10C0.079
T11C0.122
%
G90
G05
M72
T1
X7.9134Y-2.2441
X7.9528Y-2.7559
X8.3858Y-1.4567
X8.6299Y-2.7874
X8.6693Y-2.8346
X8.7795Y-2.8346
X8.8583Y-2.4803
X8.9764Y-2.6378
X8.9764Y-2.7008
X9.0157Y-2.4803
X9.0472Y-2.7953
T2
X7.1984Y-2.6773
X7.2913Y-2.3591
X7.5675Y-2.1052
X7.5984Y-2.6773
X7.6377Y-2.5591
X7.8708Y-1.9371
X7.8739Y-2.3623
X8.0708Y-2.2835
X8.1519Y-1.8121
X8.2282Y-2.2047
X8.4645Y-2.2047
X8.5408Y-1.812
X8.622Y-2.2834
X8.8188Y-2.3621
X8.822Y-1.937
X9.0551Y-2.559
X9.0945Y-2.6771
X9.1253Y-2.105
X9.4015Y-2.359
X9.4945Y-2.6771
T3
X9.3937Y-3.4449
X9.3937Y-3.5236
X9.3937Y-3.6024
X9.622Y-3.4449
X9.622Y-3.5236
X9.622Y-3.6024
X9.8504Y-3.4449
X9.8504Y-3.5236
X9.8504Y-3.6024
T4
X6.7835Y-3.6063
X6.8819Y-3.6063
X7.9134Y-3.9173
X7.9921Y-2.6528
X7.9921Y-2.9528
X8.0118Y-3.9173
X8.0921Y-2.6528
X8.0921Y-2.9528
X8.1921Y-2.6528
X8.1921Y-2.9528
X8.2921Y-2.6528
X8.2921Y-2.9528
X8.3921Y-2.6528
X8.3921Y-2.9528
X8.4921Y-2.6528
X8.4921Y-2.9528
X8.5921Y-2.6528
X8.5921Y-2.9528
X8.6921Y-2.6528
X8.6921Y-2.9528
T5
X6.7791Y-3.0783
X6.7791Y-3.3783
X6.8791Y-3.0783
X6.8791Y-3.3783
X6.9791Y-3.0783
X6.9791Y-3.3783
X7.0791Y-3.0783
X7.0791Y-3.3783
X7.7831Y-4.2398
X7.7831Y-4.5398
X7.8831Y-4.2398
X7.8831Y-4.5398
X7.9831Y-4.2398
X7.9831Y-4.5398
X8.0831Y-4.2398
X8.0831Y-4.5398
X8.3146Y-3.3343
X8.3146Y-3.6343
X8.4146Y-3.3343
X8.4146Y-3.6343
X8.5146Y-3.3343
X8.5146Y-3.6343
X8.6146Y-3.3343
X8.6146Y-3.6343
T6
X8.3661Y-4.252
X8.3661Y-4.4488
X8.4252Y-3.1102
X8.622Y-3.1102
T7
X6.4961Y-2.3819
X6.4961Y-2.9724
X6.5059Y-2.1849
X6.7898Y-2.6772
X6.8012Y-1.6734
X6.8181Y-1.8404
X6.8898Y-2.6772
X6.9472Y-2.2047
X7.0472Y-2.2047
X7.1065Y-1.2894
X7.1977Y-1.388
X7.2228Y-1.8898
X7.3228Y-1.8898
X7.3228Y-2.8937
X7.3228Y-3.4843
X7.6165Y-1.6142
X7.6179Y-0.9941
X7.6575Y-1.1417
X7.7165Y-1.6142
X8.0102Y-1.4961
X8.1102Y-1.4961
X8.248Y-1.1417
X8.3661Y-1.1417
X8.5039Y-1.4961
X8.6039Y-1.4961
X8.8189Y-3.0512
X8.8189Y-3.6417
X8.937Y-1.6142
X8.9567Y-1.1417
X9.0356Y-1.0335
X9.037Y-1.6142
X9.3307Y-1.8504
X9.4307Y-1.8504
X9.4559Y-1.388
X9.5471Y-1.3287
X9.6457Y-2.2047
X9.7457Y-2.2047
X9.8031Y-2.6772
X9.8355Y-1.8404
X9.8524Y-1.634
X9.9031Y-2.6772
X10.1476Y-2.1455
X10.1969Y-2.3819
X10.1969Y-2.9724
T8
X7.5984Y-3.4646
X7.5984Y-3.6417
X7.5984Y-3.8976
X7.5984Y-4.0945
T9
X9.3937Y-3.3622
X9.3937Y-3.685
X9.622Y-3.3622
X9.622Y-3.685
X9.8504Y-3.3622
X9.8504Y-3.685
T10
X6.6323Y-2.5772
X6.6323Y-2.7772
X6.7925Y-2.1626
X6.8925Y-1.9894
X7.0323Y-2.6772
X7.0638Y-1.8233
X7.1441Y-4.1157
X7.1889Y-2.276
X7.1924Y-1.6701
X7.2441Y-3.7157
X7.3441Y-4.1157
X7.4345Y-2.0039
X7.4618Y-1.4988
X7.635Y-1.3988
X7.7484Y-1.7952
X7.9143Y-1.2989
X8.0887Y-1.6724
X8.1106Y-1.2607
X8.543Y-1.2607
X8.5648Y-1.6724
X8.6578Y-4.2323
X8.7393Y-1.2989
X8.7992Y-4.0909
X8.9051Y-1.7952
X9.0113Y-4.4444
X9.0185Y-1.3988
X9.1917Y-1.4988
X9.219Y-2.0039
X9.4611Y-1.6701
X9.504Y-2.276
X9.5897Y-1.8233
X9.6213Y-2.6772
X9.8004Y-1.9894
X9.9004Y-2.1626
X10.0213Y-2.5772
X10.0213Y-2.7772
T11
X7.4606Y-4.3386
X7.9528Y-0.9528
X8.6614Y-0.9528
X9.2283Y-4.3425
T0
M30
