M48
;DRILL file {KiCad (2017-12-02 revision 3109343)-master} date Sun Mar  4 05:23:32 2018
;FORMAT={-:-/ absolute / inch / decimal}
FMAT,2
INCH,TZ
T1C0.016
T2C0.039
T3C0.040
T4C0.079
%
G90
G05
M72
T1
X4.8819Y-3.4055
X4.9213Y-3.4646
T2
X3.8726Y-3.1102
X3.97Y-3.5
X3.8726Y-3.8583
X3.8726Y-4.252
X3.8726Y-2.6772
T3
X4.21Y-3.5
X4.13Y-4.36
T4
X3.8637Y-3.3937
X3.8637Y-3.6063
X4.0763Y-3.3937
X4.0763Y-3.6063
X3.7663Y-3.752
X3.7663Y-3.9646
X3.9789Y-3.752
X3.9789Y-3.9646
X3.7663Y-4.1457
X3.7663Y-4.3583
X3.9789Y-4.1457
X3.9789Y-4.3583
X3.7663Y-2.5709
X3.7663Y-2.7835
X3.9789Y-2.5709
X3.9789Y-2.7835
X3.7663Y-3.0039
X3.7663Y-3.2165
X3.9789Y-3.0039
X3.9789Y-3.2165
T0
M30
