G04 #@! TF.GenerationSoftware,KiCad,Pcbnew,(2017-12-02 revision 3109343)-master*
G04 #@! TF.CreationDate,2018-03-04T05:23:29-05:00*
G04 #@! TF.ProjectId,piezojig,7069657A6F6A69672E6B696361645F70,rev?*
G04 #@! TF.SameCoordinates,Original*
G04 #@! TF.FileFunction,Copper,L1,Top,Signal*
G04 #@! TF.FilePolarity,Positive*
%FSLAX46Y46*%
G04 Gerber Fmt 4.6, Leading zero omitted, Abs format (unit mm)*
G04 Created by KiCad (PCBNEW (2017-12-02 revision 3109343)-master) date Sun Mar  4 05:23:29 2018*
%MOMM*%
%LPD*%
G01*
G04 APERTURE LIST*
%ADD10R,4.000000X1.000000*%
%ADD11R,4.000000X2.000000*%
%ADD12R,2.000000X4.000000*%
%ADD13R,1.500000X1.500000*%
%ADD14R,2.235200X2.235200*%
%ADD15C,1.998980*%
%ADD16C,3.000000*%
%ADD17C,0.600000*%
%ADD18C,1.000000*%
G04 APERTURE END LIST*
D10*
X127250000Y-86500000D03*
D11*
X140000000Y-97500000D03*
D12*
X149500000Y-88000000D03*
D11*
X140000000Y-78500000D03*
D12*
X130500000Y-88000000D03*
D13*
X104902000Y-110744000D03*
D14*
X106934000Y-88900000D03*
D15*
X98364000Y-68000000D03*
D16*
X95663980Y-65299980D03*
X95663980Y-70700020D03*
X101064020Y-70700020D03*
X101064020Y-65299980D03*
D15*
X98364000Y-79000000D03*
D16*
X95663980Y-76299980D03*
X95663980Y-81700020D03*
X101064020Y-81700020D03*
X101064020Y-76299980D03*
D15*
X100838000Y-88900000D03*
D16*
X98137980Y-86199980D03*
X98137980Y-91600020D03*
X103538020Y-91600020D03*
X103538020Y-86199980D03*
D15*
X98364000Y-98000000D03*
D16*
X95663980Y-95299980D03*
X95663980Y-100700020D03*
X101064020Y-100700020D03*
X101064020Y-95299980D03*
D15*
X98364000Y-108000000D03*
D16*
X95663980Y-105299980D03*
X95663980Y-110700020D03*
X101064020Y-110700020D03*
X101064020Y-105299980D03*
D17*
X125000000Y-88000000D03*
X124000000Y-86500000D03*
D18*
X149468000Y-88000000D02*
X151000000Y-88000000D01*
X126748000Y-111000000D02*
X117602000Y-101854000D01*
X117602000Y-101854000D02*
X111218000Y-101854000D01*
X111218000Y-101854000D02*
X107364000Y-98000000D01*
X144000000Y-111000000D02*
X146000000Y-111000000D01*
X129000000Y-111000000D02*
X144000000Y-111000000D01*
X162000000Y-93000000D02*
X162000000Y-90000000D01*
X162000000Y-90000000D02*
X160000000Y-88000000D01*
X160000000Y-88000000D02*
X151000000Y-88000000D01*
X107364000Y-98000000D02*
X98364000Y-98000000D01*
X162000000Y-95000000D02*
X162000000Y-93000000D01*
X146000000Y-111000000D02*
X162000000Y-95000000D01*
X129000000Y-111000000D02*
X126748000Y-111000000D01*
X149468000Y-88000000D02*
X149352000Y-87884000D01*
X140000000Y-78694000D02*
X140000000Y-77000000D01*
X127818000Y-67000000D02*
X120396000Y-74422000D01*
X120396000Y-74422000D02*
X110490000Y-74422000D01*
X110490000Y-74422000D02*
X104068000Y-68000000D01*
X104068000Y-68000000D02*
X103364000Y-68000000D01*
X139000000Y-67000000D02*
X130364000Y-67000000D01*
X139000000Y-67000000D02*
X140000000Y-68000000D01*
X140000000Y-68000000D02*
X140000000Y-77000000D01*
X103364000Y-68000000D02*
X98364000Y-68000000D01*
X130364000Y-67000000D02*
X127818000Y-67000000D01*
X140000000Y-78694000D02*
X139954000Y-78740000D01*
X140000000Y-97328000D02*
X140000000Y-99000000D01*
X140000000Y-108000000D02*
X139000000Y-109000000D01*
X139000000Y-109000000D02*
X130048000Y-109000000D01*
X140000000Y-99000000D02*
X140000000Y-108000000D01*
X140000000Y-97328000D02*
X139954000Y-97282000D01*
X130048000Y-109000000D02*
X127542000Y-109000000D01*
X127542000Y-109000000D02*
X118618000Y-100076000D01*
X118618000Y-100076000D02*
X112440000Y-100076000D01*
X112440000Y-100076000D02*
X110364000Y-98000000D01*
X110364000Y-98000000D02*
X110364000Y-81000000D01*
X110364000Y-81000000D02*
X108364000Y-79000000D01*
X108364000Y-79000000D02*
X98364000Y-79000000D01*
X130048000Y-109000000D02*
X130000000Y-109000000D01*
X130694000Y-88000000D02*
X125000000Y-88000000D01*
X130694000Y-88000000D02*
X130810000Y-87884000D01*
X127250000Y-86500000D02*
X124000000Y-86500000D01*
M02*
