M48
;DRILL file {KiCad (2015-11-24 BZR 6329)-product} date Sat 25 Feb 2017 12:29:07 PM EST
;FORMAT={-:-/ absolute / inch / decimal}
FMAT,2
INCH,TZ
T1C0.016
T2C0.039
T3C0.040
T4C0.079
%
G90
G05
M72
T1
X5.0787Y-3.4646
X5.5118Y-3.0315
X5.5118Y-3.8976
X5.9449Y-3.4646
T2
X3.8726Y-2.6772
X3.8726Y-3.1102
X3.8726Y-3.8583
X3.8726Y-4.252
X3.97Y-3.5
T3
X4.13Y-4.36
X4.21Y-3.5
T4
X3.7663Y-2.5709
X3.7663Y-2.7835
X3.7663Y-3.0039
X3.7663Y-3.2165
X3.7663Y-3.752
X3.7663Y-3.9646
X3.7663Y-4.1457
X3.7663Y-4.3583
X3.8637Y-3.3937
X3.8637Y-3.6063
X3.9789Y-2.5709
X3.9789Y-2.7835
X3.9789Y-3.0039
X3.9789Y-3.2165
X3.9789Y-3.752
X3.9789Y-3.9646
X3.9789Y-4.1457
X3.9789Y-4.3583
X4.0763Y-3.3937
X4.0763Y-3.6063
T0
M30
