G04 #@! TF.FileFunction,Profile,NP*
%FSLAX46Y46*%
G04 Gerber Fmt 4.6, Leading zero omitted, Abs format (unit mm)*
G04 Created by KiCad (PCBNEW (2015-11-24 BZR 6329)-product) date Sat 25 Feb 2017 12:29:11 PM EST*
%MOMM*%
G01*
G04 APERTURE LIST*
%ADD10C,0.100000*%
%ADD11C,0.150000*%
G04 APERTURE END LIST*
D10*
D11*
X106934000Y-63500000D02*
X96266000Y-63500000D01*
X93726000Y-112522000D02*
X106934000Y-112522000D01*
X140000000Y-63500000D02*
X121000000Y-63500000D01*
X120500000Y-90000000D02*
X120500000Y-90500000D01*
X120500000Y-86000000D02*
X120500000Y-85500000D01*
X107000000Y-63500000D02*
G75*
G03X114000000Y-70500000I7000000J0D01*
G01*
X114000000Y-70500000D02*
G75*
G03X121000000Y-63500000I0J7000000D01*
G01*
X140000000Y-112500000D02*
X121000000Y-112500000D01*
X121000000Y-112500000D02*
G75*
G03X114000000Y-105500000I-7000000J0D01*
G01*
X114000000Y-105500000D02*
G75*
G03X107000000Y-112500000I0J-7000000D01*
G01*
X96114000Y-63500000D02*
X95864000Y-63500000D01*
X140000000Y-63500000D02*
X139750000Y-63500000D01*
X140000000Y-112500000D02*
G75*
G03X164500000Y-88000000I0J24500000D01*
G01*
X164500000Y-88000000D02*
G75*
G03X140000000Y-63500000I-24500000J0D01*
G01*
X137500000Y-68500000D02*
X138000000Y-68500000D01*
X142000000Y-68500000D02*
X142500000Y-68500000D01*
X142500000Y-107500000D02*
X142750000Y-107500000D01*
X137500000Y-107500000D02*
X138000000Y-107500000D01*
X142500000Y-107500000D02*
X142000000Y-107500000D01*
X159500000Y-86000000D02*
X159500000Y-85500000D01*
X159500000Y-90500000D02*
X159500000Y-90000000D01*
X138000000Y-82500000D02*
X142000000Y-82500000D01*
X134500000Y-90000000D02*
X134500000Y-86000000D01*
X142000000Y-93500000D02*
X138000000Y-93500000D01*
X145500000Y-86000000D02*
X145500000Y-90000000D01*
X138000000Y-82500000D02*
X138000000Y-81500000D01*
X142000000Y-82500000D02*
X142000000Y-81500000D01*
X145500000Y-90000000D02*
X146500000Y-90000000D01*
X145500000Y-86000000D02*
X146500000Y-86000000D01*
X134500000Y-90000000D02*
X133500000Y-90000000D01*
X134500000Y-86000000D02*
X133500000Y-86000000D01*
X138000000Y-93500000D02*
X138000000Y-94500000D01*
X142000000Y-93500000D02*
X142000000Y-94500000D01*
X93726000Y-63500000D02*
X95758000Y-63500000D01*
X93726000Y-112522000D02*
X93726000Y-63500000D01*
X133500000Y-90000000D02*
X120500000Y-90000000D01*
X133500000Y-86000000D02*
X120500000Y-86000000D01*
X138000000Y-81500000D02*
X138000000Y-68500000D01*
X137367843Y-68517399D02*
G75*
G03X120500000Y-85500000I2632157J-19482601D01*
G01*
X120517399Y-90632157D02*
G75*
G03X137500000Y-107500000I19482601J2632157D01*
G01*
X138000000Y-107500000D02*
X138000000Y-94500000D01*
X142000000Y-94500000D02*
X142000000Y-107500000D01*
X146500000Y-90000000D02*
X159500000Y-90000000D01*
X142632157Y-107482601D02*
G75*
G03X159500000Y-90500000I-2632157J19482601D01*
G01*
X142000000Y-81500000D02*
X142000000Y-68500000D01*
X159500000Y-86000000D02*
X146500000Y-86000000D01*
X159482601Y-85367843D02*
G75*
G03X142500000Y-68500000I-19482601J-2632157D01*
G01*
M02*
