G04 #@! TF.FileFunction,Copper,L2,Bot,Signal*
%FSLAX46Y46*%
G04 Gerber Fmt 4.6, Leading zero omitted, Abs format (unit mm)*
G04 Created by KiCad (PCBNEW (2015-11-24 BZR 6329)-product) date Sat 25 Feb 2017 12:29:11 PM EST*
%MOMM*%
G01*
G04 APERTURE LIST*
%ADD10C,0.100000*%
%ADD11R,1.000000X4.000000*%
%ADD12R,4.000000X1.000000*%
%ADD13R,1.500000X1.500000*%
%ADD14R,2.235200X2.235200*%
%ADD15C,1.998980*%
%ADD16C,3.000000*%
%ADD17C,0.600000*%
%ADD18C,1.000000*%
G04 APERTURE END LIST*
D10*
D11*
X134000000Y-88000000D03*
D12*
X140000000Y-94000000D03*
D11*
X146000000Y-88000000D03*
D12*
X140000000Y-82000000D03*
D13*
X104902000Y-110744000D03*
D12*
X130000000Y-86500000D03*
D14*
X106934000Y-88900000D03*
D15*
X98364000Y-68000000D03*
D16*
X95663980Y-65299980D03*
X95663980Y-70700020D03*
X101064020Y-70700020D03*
X101064020Y-65299980D03*
D15*
X98364000Y-79000000D03*
D16*
X95663980Y-76299980D03*
X95663980Y-81700020D03*
X101064020Y-81700020D03*
X101064020Y-76299980D03*
D15*
X100838000Y-88900000D03*
D16*
X98137980Y-86199980D03*
X98137980Y-91600020D03*
X103538020Y-91600020D03*
X103538020Y-86199980D03*
D15*
X98364000Y-98000000D03*
D16*
X95663980Y-95299980D03*
X95663980Y-100700020D03*
X101064020Y-100700020D03*
X101064020Y-95299980D03*
D15*
X98364000Y-108000000D03*
D16*
X95663980Y-105299980D03*
X95663980Y-110700020D03*
X101064020Y-110700020D03*
X101064020Y-105299980D03*
D17*
X151000000Y-88000000D03*
X140000000Y-77000000D03*
X140000000Y-99000000D03*
X129000000Y-88000000D03*
D18*
X151000000Y-88000000D02*
X146000000Y-88000000D01*
X140000000Y-77000000D02*
X140000000Y-82000000D01*
X140000000Y-99000000D02*
X140000000Y-94000000D01*
X129000000Y-88000000D02*
X120364000Y-88000000D01*
X111364000Y-88000000D02*
X110364000Y-89000000D01*
X110364000Y-89000000D02*
X110364000Y-101000000D01*
X110364000Y-101000000D02*
X103364000Y-108000000D01*
X103364000Y-108000000D02*
X98364000Y-108000000D01*
X120364000Y-88000000D02*
X111364000Y-88000000D01*
X129000000Y-88000000D02*
X134000000Y-88000000D01*
X130000000Y-86500000D02*
X121364000Y-86500000D01*
X108864000Y-86500000D02*
X104064020Y-81700020D01*
X104064020Y-81700020D02*
X101064020Y-81700020D01*
X121364000Y-86500000D02*
X108864000Y-86500000D01*
X101064020Y-110700020D02*
X104858020Y-110700020D01*
X104858020Y-110700020D02*
X104902000Y-110744000D01*
X101064020Y-81700020D02*
X95663980Y-81700020D01*
X95663980Y-110700020D02*
X95663980Y-105299980D01*
X101064020Y-110700020D02*
X95663980Y-110700020D01*
X95663980Y-81700020D02*
X95663980Y-76299980D01*
X95663980Y-100700020D02*
X95663980Y-95299980D01*
X95663980Y-100700020D02*
X95663980Y-105299980D01*
X95663980Y-81700020D02*
X95663980Y-95299980D01*
X95663980Y-70700020D02*
X95663980Y-76299980D01*
X106364000Y-89000000D02*
X100364000Y-89000000D01*
M02*
