M48
;DRILL file {KiCad (2015-11-24 BZR 6329)-product} date Fri 20 Jan 2017 09:03:47 AM EST
;FORMAT={-:-/ absolute / inch / decimal}
FMAT,2
INCH,TZ
T1C0.016
T2C0.039
T3C0.040
%
G90
G05
M72
T1
X5.0787Y-3.4646
X5.5118Y-3.0315
X5.5118Y-3.8976
X5.9449Y-3.4646
T2
X4.1063Y-2.5709
X4.1063Y-2.7835
X4.1063Y-3.0039
X4.1063Y-3.2165
X4.1063Y-3.752
X4.1063Y-3.9646
X4.1063Y-4.1457
X4.1063Y-4.3583
X4.185Y-3.3976
X4.185Y-3.6102
X4.2126Y-2.6772
X4.2126Y-3.1102
X4.2126Y-3.8583
X4.2126Y-4.252
X4.2913Y-3.5039
X4.3189Y-2.5709
X4.3189Y-2.7835
X4.3189Y-3.0039
X4.3189Y-3.2165
X4.3189Y-3.752
X4.3189Y-3.9646
X4.3189Y-4.1457
X4.3189Y-4.3583
X4.3976Y-3.3976
X4.3976Y-3.6102
T3
X4.5276Y-3.5039
X4.6457Y-4.3307
T0
M30
