G04 #@! TF.FileFunction,Copper,L1,Top,Signal*
%FSLAX46Y46*%
G04 Gerber Fmt 4.6, Leading zero omitted, Abs format (unit mm)*
G04 Created by KiCad (PCBNEW (2015-11-24 BZR 6329)-product) date Sat 25 Feb 2017 12:29:11 PM EST*
%MOMM*%
G01*
G04 APERTURE LIST*
%ADD10C,0.100000*%
%ADD11R,2.000000X4.000000*%
%ADD12R,4.000000X2.000000*%
%ADD13R,1.500000X1.500000*%
%ADD14R,2.235200X2.235200*%
%ADD15C,1.998980*%
%ADD16C,3.000000*%
%ADD17C,0.600000*%
%ADD18C,1.000000*%
G04 APERTURE END LIST*
D10*
D11*
X133500000Y-88000000D03*
D12*
X140000000Y-94500000D03*
D11*
X146500000Y-88000000D03*
D12*
X140000000Y-81500000D03*
D13*
X104902000Y-110744000D03*
D14*
X106934000Y-88900000D03*
D15*
X98364000Y-68000000D03*
D16*
X95663980Y-65299980D03*
X95663980Y-70700020D03*
X101064020Y-70700020D03*
X101064020Y-65299980D03*
D15*
X98364000Y-79000000D03*
D16*
X95663980Y-76299980D03*
X95663980Y-81700020D03*
X101064020Y-81700020D03*
X101064020Y-76299980D03*
D15*
X100838000Y-88900000D03*
D16*
X98137980Y-86199980D03*
X98137980Y-91600020D03*
X103538020Y-91600020D03*
X103538020Y-86199980D03*
D15*
X98364000Y-98000000D03*
D16*
X95663980Y-95299980D03*
X95663980Y-100700020D03*
X101064020Y-100700020D03*
X101064020Y-95299980D03*
D15*
X98364000Y-108000000D03*
D16*
X95663980Y-105299980D03*
X95663980Y-110700020D03*
X101064020Y-110700020D03*
X101064020Y-105299980D03*
D17*
X151000000Y-88000000D03*
X140000000Y-77000000D03*
X140000000Y-99000000D03*
X129000000Y-88000000D03*
D18*
X129000000Y-111000000D02*
X126748000Y-111000000D01*
X146000000Y-111000000D02*
X162000000Y-95000000D01*
X162000000Y-95000000D02*
X162000000Y-93000000D01*
X98364000Y-98000000D02*
X107364000Y-98000000D01*
X160000000Y-88000000D02*
X151000000Y-88000000D01*
X162000000Y-90000000D02*
X160000000Y-88000000D01*
X162000000Y-93000000D02*
X162000000Y-90000000D01*
X129000000Y-111000000D02*
X144000000Y-111000000D01*
X144000000Y-111000000D02*
X146000000Y-111000000D01*
X111218000Y-101854000D02*
X107364000Y-98000000D01*
X117602000Y-101854000D02*
X111218000Y-101854000D01*
X126748000Y-111000000D02*
X117602000Y-101854000D01*
X147500000Y-88000000D02*
X151000000Y-88000000D01*
X130364000Y-67000000D02*
X127818000Y-67000000D01*
X98364000Y-68000000D02*
X103364000Y-68000000D01*
X140000000Y-68000000D02*
X140000000Y-77000000D01*
X139000000Y-67000000D02*
X140000000Y-68000000D01*
X139000000Y-67000000D02*
X130364000Y-67000000D01*
X104068000Y-68000000D02*
X103364000Y-68000000D01*
X110490000Y-74422000D02*
X104068000Y-68000000D01*
X120396000Y-74422000D02*
X110490000Y-74422000D01*
X127818000Y-67000000D02*
X120396000Y-74422000D01*
X140000000Y-80500000D02*
X140000000Y-77000000D01*
X130048000Y-109000000D02*
X127542000Y-109000000D01*
X108364000Y-79000000D02*
X98364000Y-79000000D01*
X110364000Y-81000000D02*
X108364000Y-79000000D01*
X110364000Y-98000000D02*
X110364000Y-81000000D01*
X112440000Y-100076000D02*
X110364000Y-98000000D01*
X118618000Y-100076000D02*
X112440000Y-100076000D01*
X127542000Y-109000000D02*
X118618000Y-100076000D01*
X140000000Y-99000000D02*
X140000000Y-108000000D01*
X139000000Y-109000000D02*
X130048000Y-109000000D01*
X130048000Y-109000000D02*
X130000000Y-109000000D01*
X140000000Y-108000000D02*
X139000000Y-109000000D01*
X140000000Y-99000000D02*
X140000000Y-95500000D01*
X133000000Y-88000000D02*
X129000000Y-88000000D01*
M02*
