G04 #@! TF.FileFunction,Soldermask,Bot*
%FSLAX46Y46*%
G04 Gerber Fmt 4.6, Leading zero omitted, Abs format (unit mm)*
G04 Created by KiCad (PCBNEW (2015-11-24 BZR 6329)-product) date Fri 24 Feb 2017 06:21:55 PM EST*
%MOMM*%
G01*
G04 APERTURE LIST*
%ADD10C,0.100000*%
%ADD11R,2.100000X2.100000*%
%ADD12O,2.100000X2.100000*%
%ADD13C,2.000000*%
%ADD14O,2.000000X2.000000*%
%ADD15R,2.000000X2.000000*%
%ADD16C,4.100000*%
G04 APERTURE END LIST*
D10*
D11*
X93218000Y-60452000D03*
D12*
X95758000Y-60452000D03*
X98298000Y-60452000D03*
D11*
X93218000Y-54864000D03*
D12*
X95758000Y-54864000D03*
X98298000Y-54864000D03*
D13*
X184658000Y-59944000D03*
D14*
X174498000Y-59944000D03*
D13*
X171958000Y-64008000D03*
D14*
X182118000Y-64008000D03*
D13*
X181864000Y-71882000D03*
D14*
X192024000Y-71882000D03*
D13*
X177292000Y-80010000D03*
D14*
X187452000Y-80010000D03*
D13*
X177292000Y-83312000D03*
D14*
X187452000Y-83312000D03*
D13*
X169164000Y-83312000D03*
D14*
X159004000Y-83312000D03*
D13*
X169164000Y-80010000D03*
D14*
X159004000Y-80010000D03*
D13*
X159258000Y-64008000D03*
D14*
X169418000Y-64008000D03*
D15*
X169418000Y-75946000D03*
D14*
X177038000Y-68326000D03*
X171958000Y-75946000D03*
X174498000Y-68326000D03*
X174498000Y-75946000D03*
X171958000Y-68326000D03*
X177038000Y-75946000D03*
X169418000Y-68326000D03*
D11*
X205486000Y-49022000D03*
D12*
X208026000Y-49022000D03*
D11*
X177038000Y-49022000D03*
D12*
X179578000Y-49022000D03*
D11*
X146304000Y-49022000D03*
D12*
X148844000Y-49022000D03*
X151384000Y-49022000D03*
D11*
X109982000Y-49022000D03*
D12*
X112522000Y-49022000D03*
D11*
X217678000Y-72390000D03*
D12*
X217678000Y-74930000D03*
X217678000Y-77470000D03*
D11*
X120904000Y-49022000D03*
D12*
X123444000Y-49022000D03*
X125984000Y-49022000D03*
X128524000Y-49022000D03*
D11*
X153924000Y-49022000D03*
D12*
X156464000Y-49022000D03*
X159004000Y-49022000D03*
X161544000Y-49022000D03*
D11*
X115824000Y-49022000D03*
D12*
X118364000Y-49022000D03*
D11*
X171196000Y-49022000D03*
D12*
X173736000Y-49022000D03*
D11*
X93218000Y-49276000D03*
D12*
X95758000Y-49276000D03*
X98298000Y-49276000D03*
D11*
X137922000Y-49022000D03*
D12*
X140462000Y-49022000D03*
X143002000Y-49022000D03*
D11*
X199644000Y-49022000D03*
D12*
X202184000Y-49022000D03*
D11*
X182118000Y-49022000D03*
D12*
X184658000Y-49022000D03*
X187198000Y-49022000D03*
X189738000Y-49022000D03*
D11*
X210566000Y-49022000D03*
D12*
X213106000Y-49022000D03*
X215646000Y-49022000D03*
X218186000Y-49022000D03*
D11*
X157988000Y-93980000D03*
D12*
X155448000Y-93980000D03*
X152908000Y-93980000D03*
X150368000Y-93980000D03*
X147828000Y-93980000D03*
X145288000Y-93980000D03*
X142748000Y-93980000D03*
X140208000Y-93980000D03*
X137668000Y-93980000D03*
X135128000Y-93980000D03*
X132588000Y-93980000D03*
X130048000Y-93980000D03*
X127508000Y-93980000D03*
D11*
X201168000Y-93980000D03*
D12*
X198628000Y-93980000D03*
X196088000Y-93980000D03*
X193548000Y-93980000D03*
X191008000Y-93980000D03*
X188468000Y-93980000D03*
X185928000Y-93980000D03*
X183388000Y-93980000D03*
X180848000Y-93980000D03*
X178308000Y-93980000D03*
X175768000Y-93980000D03*
X173228000Y-93980000D03*
X170688000Y-93980000D03*
D11*
X223266000Y-72390000D03*
D12*
X223266000Y-74930000D03*
X223266000Y-77470000D03*
X223266000Y-80010000D03*
X223266000Y-82550000D03*
D15*
X123190000Y-76962000D03*
D14*
X130810000Y-69342000D03*
X125730000Y-76962000D03*
X128270000Y-69342000D03*
X128270000Y-76962000D03*
X125730000Y-69342000D03*
X130810000Y-76962000D03*
X123190000Y-69342000D03*
D13*
X113030000Y-64008000D03*
D14*
X123190000Y-64008000D03*
D13*
X122936000Y-80772000D03*
D14*
X112776000Y-80772000D03*
D13*
X122936000Y-84074000D03*
D14*
X112776000Y-84074000D03*
D13*
X131064000Y-84074000D03*
D14*
X141224000Y-84074000D03*
D13*
X131064000Y-80772000D03*
D14*
X141224000Y-80772000D03*
D13*
X135636000Y-71882000D03*
D14*
X145796000Y-71882000D03*
D13*
X135890000Y-64008000D03*
D14*
X146050000Y-64008000D03*
D13*
X148082000Y-60198000D03*
D14*
X137922000Y-60198000D03*
D16*
X129032000Y-62992000D03*
X205994000Y-62992000D03*
M02*
