M48
;DRILL file {KiCad (2015-11-24 BZR 6329)-product} date Fri 24 Feb 2017 06:21:52 PM EST
;FORMAT={-:-/ absolute / inch / decimal}
FMAT,2
INCH,TZ
T1C0.016
T2C0.031
T3C0.039
%
G90
G05
M72
T1
X6.92Y-3.42
X7.75Y-3.58
X7.78Y-3.42
T2
X4.44Y-3.18
X4.44Y-3.31
X4.45Y-2.52
X4.84Y-3.18
X4.84Y-3.31
X4.85Y-2.52
X4.85Y-2.73
X4.85Y-3.03
X4.95Y-2.73
X4.95Y-3.03
X5.05Y-2.73
X5.05Y-3.03
X5.15Y-2.73
X5.15Y-3.03
X5.16Y-3.18
X5.16Y-3.31
X5.34Y-2.83
X5.35Y-2.52
X5.43Y-2.37
X5.56Y-3.18
X5.56Y-3.31
X5.74Y-2.83
X5.75Y-2.52
X5.83Y-2.37
X6.26Y-3.15
X6.26Y-3.28
X6.27Y-2.52
X6.66Y-3.15
X6.66Y-3.28
X6.67Y-2.52
X6.67Y-2.69
X6.67Y-2.99
X6.77Y-2.52
X6.77Y-2.69
X6.77Y-2.99
X6.87Y-2.36
X6.87Y-2.69
X6.87Y-2.99
X6.97Y-2.69
X6.97Y-2.99
X6.98Y-3.15
X6.98Y-3.28
X7.16Y-2.83
X7.17Y-2.52
X7.27Y-2.36
X7.38Y-3.15
X7.38Y-3.28
X7.56Y-2.83
T3
X3.67Y-1.94
X3.67Y-2.16
X3.67Y-2.38
X3.77Y-1.94
X3.77Y-2.16
X3.77Y-2.38
X3.87Y-1.94
X3.87Y-2.16
X3.87Y-2.38
X4.33Y-1.93
X4.43Y-1.93
X4.56Y-1.93
X4.66Y-1.93
X4.76Y-1.93
X4.86Y-1.93
X4.96Y-1.93
X5.02Y-3.7
X5.06Y-1.93
X5.12Y-3.7
X5.22Y-3.7
X5.32Y-3.7
X5.42Y-3.7
X5.43Y-1.93
X5.52Y-3.7
X5.53Y-1.93
X5.62Y-3.7
X5.63Y-1.93
X5.72Y-3.7
X5.76Y-1.93
X5.82Y-3.7
X5.86Y-1.93
X5.92Y-3.7
X5.96Y-1.93
X6.02Y-3.7
X6.06Y-1.93
X6.12Y-3.7
X6.16Y-1.93
X6.22Y-3.7
X6.26Y-1.93
X6.36Y-1.93
X6.72Y-3.7
X6.74Y-1.93
X6.82Y-3.7
X6.84Y-1.93
X6.92Y-3.7
X6.97Y-1.93
X7.02Y-3.7
X7.07Y-1.93
X7.12Y-3.7
X7.17Y-1.93
X7.22Y-3.7
X7.27Y-1.93
X7.32Y-3.7
X7.37Y-1.93
X7.42Y-3.7
X7.47Y-1.93
X7.52Y-3.7
X7.62Y-3.7
X7.72Y-3.7
X7.82Y-3.7
X7.86Y-1.93
X7.92Y-3.7
X7.96Y-1.93
X8.09Y-1.93
X8.19Y-1.93
X8.29Y-1.93
X8.39Y-1.93
X8.49Y-1.93
X8.57Y-2.85
X8.57Y-2.95
X8.57Y-3.05
X8.59Y-1.93
X8.79Y-2.85
X8.79Y-2.95
X8.79Y-3.05
X8.79Y-3.15
X8.79Y-3.25
T0
M30
