G04 #@! TF.FileFunction,Copper,L2,Bot,Signal*
%FSLAX46Y46*%
G04 Gerber Fmt 4.6, Leading zero omitted, Abs format (unit mm)*
G04 Created by KiCad (PCBNEW (2015-11-24 BZR 6329)-product) date Fri 24 Feb 2017 06:21:55 PM EST*
%MOMM*%
G01*
G04 APERTURE LIST*
%ADD10C,0.100000*%
%ADD11R,1.700000X1.700000*%
%ADD12O,1.700000X1.700000*%
%ADD13C,1.600000*%
%ADD14O,1.600000X1.600000*%
%ADD15R,1.600000X1.600000*%
%ADD16C,0.600000*%
%ADD17C,0.500000*%
%ADD18C,0.400000*%
%ADD19C,0.254000*%
G04 APERTURE END LIST*
D10*
D11*
X93218000Y-60452000D03*
D12*
X95758000Y-60452000D03*
X98298000Y-60452000D03*
D11*
X93218000Y-54864000D03*
D12*
X95758000Y-54864000D03*
X98298000Y-54864000D03*
D13*
X184658000Y-59944000D03*
D14*
X174498000Y-59944000D03*
D13*
X171958000Y-64008000D03*
D14*
X182118000Y-64008000D03*
D13*
X181864000Y-71882000D03*
D14*
X192024000Y-71882000D03*
D13*
X177292000Y-80010000D03*
D14*
X187452000Y-80010000D03*
D13*
X177292000Y-83312000D03*
D14*
X187452000Y-83312000D03*
D13*
X169164000Y-83312000D03*
D14*
X159004000Y-83312000D03*
D13*
X169164000Y-80010000D03*
D14*
X159004000Y-80010000D03*
D13*
X159258000Y-64008000D03*
D14*
X169418000Y-64008000D03*
D15*
X169418000Y-75946000D03*
D14*
X177038000Y-68326000D03*
X171958000Y-75946000D03*
X174498000Y-68326000D03*
X174498000Y-75946000D03*
X171958000Y-68326000D03*
X177038000Y-75946000D03*
X169418000Y-68326000D03*
D11*
X205486000Y-49022000D03*
D12*
X208026000Y-49022000D03*
D11*
X177038000Y-49022000D03*
D12*
X179578000Y-49022000D03*
D11*
X146304000Y-49022000D03*
D12*
X148844000Y-49022000D03*
X151384000Y-49022000D03*
D11*
X109982000Y-49022000D03*
D12*
X112522000Y-49022000D03*
D11*
X217678000Y-72390000D03*
D12*
X217678000Y-74930000D03*
X217678000Y-77470000D03*
D11*
X120904000Y-49022000D03*
D12*
X123444000Y-49022000D03*
X125984000Y-49022000D03*
X128524000Y-49022000D03*
D11*
X153924000Y-49022000D03*
D12*
X156464000Y-49022000D03*
X159004000Y-49022000D03*
X161544000Y-49022000D03*
D11*
X115824000Y-49022000D03*
D12*
X118364000Y-49022000D03*
D11*
X171196000Y-49022000D03*
D12*
X173736000Y-49022000D03*
D11*
X93218000Y-49276000D03*
D12*
X95758000Y-49276000D03*
X98298000Y-49276000D03*
D11*
X137922000Y-49022000D03*
D12*
X140462000Y-49022000D03*
X143002000Y-49022000D03*
D11*
X199644000Y-49022000D03*
D12*
X202184000Y-49022000D03*
D11*
X182118000Y-49022000D03*
D12*
X184658000Y-49022000D03*
X187198000Y-49022000D03*
X189738000Y-49022000D03*
D11*
X210566000Y-49022000D03*
D12*
X213106000Y-49022000D03*
X215646000Y-49022000D03*
X218186000Y-49022000D03*
D11*
X157988000Y-93980000D03*
D12*
X155448000Y-93980000D03*
X152908000Y-93980000D03*
X150368000Y-93980000D03*
X147828000Y-93980000D03*
X145288000Y-93980000D03*
X142748000Y-93980000D03*
X140208000Y-93980000D03*
X137668000Y-93980000D03*
X135128000Y-93980000D03*
X132588000Y-93980000D03*
X130048000Y-93980000D03*
X127508000Y-93980000D03*
D11*
X201168000Y-93980000D03*
D12*
X198628000Y-93980000D03*
X196088000Y-93980000D03*
X193548000Y-93980000D03*
X191008000Y-93980000D03*
X188468000Y-93980000D03*
X185928000Y-93980000D03*
X183388000Y-93980000D03*
X180848000Y-93980000D03*
X178308000Y-93980000D03*
X175768000Y-93980000D03*
X173228000Y-93980000D03*
X170688000Y-93980000D03*
D11*
X223266000Y-72390000D03*
D12*
X223266000Y-74930000D03*
X223266000Y-77470000D03*
X223266000Y-80010000D03*
X223266000Y-82550000D03*
D15*
X123190000Y-76962000D03*
D14*
X130810000Y-69342000D03*
X125730000Y-76962000D03*
X128270000Y-69342000D03*
X128270000Y-76962000D03*
X125730000Y-69342000D03*
X130810000Y-76962000D03*
X123190000Y-69342000D03*
D13*
X113030000Y-64008000D03*
D14*
X123190000Y-64008000D03*
D13*
X122936000Y-80772000D03*
D14*
X112776000Y-80772000D03*
D13*
X122936000Y-84074000D03*
D14*
X112776000Y-84074000D03*
D13*
X131064000Y-84074000D03*
D14*
X141224000Y-84074000D03*
D13*
X131064000Y-80772000D03*
D14*
X141224000Y-80772000D03*
D13*
X135636000Y-71882000D03*
D14*
X145796000Y-71882000D03*
D13*
X135890000Y-64008000D03*
D14*
X146050000Y-64008000D03*
D13*
X148082000Y-60198000D03*
D14*
X137922000Y-60198000D03*
D16*
X175768000Y-86868000D03*
X197612000Y-86868000D03*
X196850000Y-90932000D03*
D17*
X217678000Y-72390000D02*
X212090000Y-72390000D01*
X169418000Y-76962000D02*
X169418000Y-75946000D01*
X173482000Y-81026000D02*
X169418000Y-76962000D01*
X173482000Y-84582000D02*
X173482000Y-81026000D01*
X175768000Y-86868000D02*
X173482000Y-84582000D01*
X212090000Y-72390000D02*
X197612000Y-86868000D01*
X127762000Y-86360000D02*
X146558000Y-86360000D01*
X156972000Y-75946000D02*
X169418000Y-75946000D01*
X146558000Y-86360000D02*
X156972000Y-75946000D01*
X132588000Y-93980000D02*
X132588000Y-91186000D01*
X121920000Y-75946000D02*
X123190000Y-76962000D01*
X118872000Y-78994000D02*
X121920000Y-75946000D01*
X118872000Y-84582000D02*
X118872000Y-78994000D01*
X120650000Y-86360000D02*
X118872000Y-84582000D01*
X127762000Y-86360000D02*
X120650000Y-86360000D01*
X132588000Y-91186000D02*
X127762000Y-86360000D01*
X210312000Y-77470000D02*
X217678000Y-77470000D01*
X196850000Y-90932000D02*
X210312000Y-77470000D01*
D18*
X135890000Y-64008000D02*
X135890000Y-67818000D01*
X125730000Y-72136000D02*
X125730000Y-69342000D01*
X127508000Y-73914000D02*
X125730000Y-72136000D01*
X137922000Y-73914000D02*
X127508000Y-73914000D01*
X138684000Y-73152000D02*
X137922000Y-73914000D01*
X138684000Y-70612000D02*
X138684000Y-73152000D01*
X135890000Y-67818000D02*
X138684000Y-70612000D01*
X137922000Y-60198000D02*
X135890000Y-60198000D01*
X128270000Y-70104000D02*
X128270000Y-69342000D01*
X129540000Y-71374000D02*
X128270000Y-70104000D01*
X131826000Y-71374000D02*
X129540000Y-71374000D01*
X134112000Y-69088000D02*
X131826000Y-71374000D01*
X134112000Y-61976000D02*
X134112000Y-69088000D01*
X135890000Y-60198000D02*
X134112000Y-61976000D01*
D17*
X136652000Y-43942000D02*
X145288000Y-43942000D01*
X146304000Y-44958000D02*
X146304000Y-49022000D01*
X145288000Y-43942000D02*
X146304000Y-44958000D01*
X93218000Y-49276000D02*
X93218000Y-48006000D01*
X137922000Y-44958000D02*
X137922000Y-49022000D01*
X136906000Y-43942000D02*
X137922000Y-44958000D01*
X97282000Y-43942000D02*
X136652000Y-43942000D01*
X136652000Y-43942000D02*
X136906000Y-43942000D01*
X93218000Y-48006000D02*
X97282000Y-43942000D01*
D18*
X174498000Y-59944000D02*
X174498000Y-58928000D01*
X210566000Y-51562000D02*
X210566000Y-49022000D01*
X207010000Y-55118000D02*
X210566000Y-51562000D01*
X178308000Y-55118000D02*
X207010000Y-55118000D01*
X174498000Y-58928000D02*
X178308000Y-55118000D01*
X181864000Y-71882000D02*
X184658000Y-71882000D01*
X218186000Y-53086000D02*
X218186000Y-49022000D01*
X214884000Y-56388000D02*
X218186000Y-53086000D01*
X200152000Y-56388000D02*
X214884000Y-56388000D01*
X184658000Y-71882000D02*
X200152000Y-56388000D01*
X159004000Y-83312000D02*
X154940000Y-83312000D01*
X147828000Y-90424000D02*
X147828000Y-93980000D01*
X154940000Y-83312000D02*
X147828000Y-90424000D01*
X187452000Y-83312000D02*
X187452000Y-87122000D01*
X145288000Y-96012000D02*
X145288000Y-93980000D01*
X146050000Y-96774000D02*
X145288000Y-96012000D01*
X161290000Y-96774000D02*
X146050000Y-96774000D01*
X168148000Y-89916000D02*
X161290000Y-96774000D01*
X184658000Y-89916000D02*
X168148000Y-89916000D01*
X187452000Y-87122000D02*
X184658000Y-89916000D01*
X223266000Y-80010000D02*
X219710000Y-80010000D01*
X193548000Y-95504000D02*
X193548000Y-93980000D01*
X194818000Y-96774000D02*
X193548000Y-95504000D01*
X202946000Y-96774000D02*
X194818000Y-96774000D01*
X219710000Y-80010000D02*
X202946000Y-96774000D01*
D19*
G36*
X224544000Y-97044000D02*
X203497658Y-97044000D01*
X217991658Y-82550000D01*
X222010883Y-82550000D01*
X222104587Y-83021083D01*
X222371435Y-83420448D01*
X222770800Y-83687296D01*
X223241883Y-83781000D01*
X223290117Y-83781000D01*
X223761200Y-83687296D01*
X224160565Y-83420448D01*
X224427413Y-83021083D01*
X224521117Y-82550000D01*
X224427413Y-82078917D01*
X224160565Y-81679552D01*
X223761200Y-81412704D01*
X223290117Y-81319000D01*
X223241883Y-81319000D01*
X222770800Y-81412704D01*
X222371435Y-81679552D01*
X222104587Y-82078917D01*
X222010883Y-82550000D01*
X217991658Y-82550000D01*
X219950658Y-80591000D01*
X222178031Y-80591000D01*
X222371435Y-80880448D01*
X222770800Y-81147296D01*
X223241883Y-81241000D01*
X223290117Y-81241000D01*
X223761200Y-81147296D01*
X224160565Y-80880448D01*
X224427413Y-80481083D01*
X224521117Y-80010000D01*
X224427413Y-79538917D01*
X224160565Y-79139552D01*
X223761200Y-78872704D01*
X223290117Y-78779000D01*
X223241883Y-78779000D01*
X222770800Y-78872704D01*
X222371435Y-79139552D01*
X222178031Y-79429000D01*
X219710000Y-79429000D01*
X219487661Y-79473226D01*
X219299171Y-79599171D01*
X202705342Y-96193000D01*
X195058658Y-96193000D01*
X194129000Y-95263342D01*
X194129000Y-95067969D01*
X194418448Y-94874565D01*
X194685296Y-94475200D01*
X194779000Y-94004117D01*
X194779000Y-93955883D01*
X194857000Y-93955883D01*
X194857000Y-94004117D01*
X194950704Y-94475200D01*
X195217552Y-94874565D01*
X195616917Y-95141413D01*
X196088000Y-95235117D01*
X196559083Y-95141413D01*
X196958448Y-94874565D01*
X197225296Y-94475200D01*
X197319000Y-94004117D01*
X197319000Y-93955883D01*
X197397000Y-93955883D01*
X197397000Y-94004117D01*
X197490704Y-94475200D01*
X197757552Y-94874565D01*
X198156917Y-95141413D01*
X198628000Y-95235117D01*
X199099083Y-95141413D01*
X199498448Y-94874565D01*
X199765296Y-94475200D01*
X199859000Y-94004117D01*
X199859000Y-93955883D01*
X199765296Y-93484800D01*
X199528226Y-93130000D01*
X199929536Y-93130000D01*
X199929536Y-94830000D01*
X199956103Y-94971190D01*
X200039546Y-95100865D01*
X200166866Y-95187859D01*
X200318000Y-95218464D01*
X202018000Y-95218464D01*
X202159190Y-95191897D01*
X202288865Y-95108454D01*
X202375859Y-94981134D01*
X202406464Y-94830000D01*
X202406464Y-93130000D01*
X202379897Y-92988810D01*
X202296454Y-92859135D01*
X202169134Y-92772141D01*
X202018000Y-92741536D01*
X200318000Y-92741536D01*
X200176810Y-92768103D01*
X200047135Y-92851546D01*
X199960141Y-92978866D01*
X199929536Y-93130000D01*
X199528226Y-93130000D01*
X199498448Y-93085435D01*
X199099083Y-92818587D01*
X198628000Y-92724883D01*
X198156917Y-92818587D01*
X197757552Y-93085435D01*
X197490704Y-93484800D01*
X197397000Y-93955883D01*
X197319000Y-93955883D01*
X197225296Y-93484800D01*
X196958448Y-93085435D01*
X196559083Y-92818587D01*
X196088000Y-92724883D01*
X195616917Y-92818587D01*
X195217552Y-93085435D01*
X194950704Y-93484800D01*
X194857000Y-93955883D01*
X194779000Y-93955883D01*
X194685296Y-93484800D01*
X194418448Y-93085435D01*
X194019083Y-92818587D01*
X193548000Y-92724883D01*
X193076917Y-92818587D01*
X192677552Y-93085435D01*
X192410704Y-93484800D01*
X192317000Y-93955883D01*
X192317000Y-94004117D01*
X192410704Y-94475200D01*
X192677552Y-94874565D01*
X192967000Y-95067969D01*
X192967000Y-95504000D01*
X193011226Y-95726339D01*
X193137171Y-95914829D01*
X194266342Y-97044000D01*
X161841658Y-97044000D01*
X164929775Y-93955883D01*
X169457000Y-93955883D01*
X169457000Y-94004117D01*
X169550704Y-94475200D01*
X169817552Y-94874565D01*
X170216917Y-95141413D01*
X170688000Y-95235117D01*
X171159083Y-95141413D01*
X171558448Y-94874565D01*
X171825296Y-94475200D01*
X171919000Y-94004117D01*
X171919000Y-93955883D01*
X171997000Y-93955883D01*
X171997000Y-94004117D01*
X172090704Y-94475200D01*
X172357552Y-94874565D01*
X172756917Y-95141413D01*
X173228000Y-95235117D01*
X173699083Y-95141413D01*
X174098448Y-94874565D01*
X174365296Y-94475200D01*
X174459000Y-94004117D01*
X174459000Y-93955883D01*
X174537000Y-93955883D01*
X174537000Y-94004117D01*
X174630704Y-94475200D01*
X174897552Y-94874565D01*
X175296917Y-95141413D01*
X175768000Y-95235117D01*
X176239083Y-95141413D01*
X176638448Y-94874565D01*
X176905296Y-94475200D01*
X176999000Y-94004117D01*
X176999000Y-93955883D01*
X177077000Y-93955883D01*
X177077000Y-94004117D01*
X177170704Y-94475200D01*
X177437552Y-94874565D01*
X177836917Y-95141413D01*
X178308000Y-95235117D01*
X178779083Y-95141413D01*
X179178448Y-94874565D01*
X179445296Y-94475200D01*
X179539000Y-94004117D01*
X179539000Y-93955883D01*
X179617000Y-93955883D01*
X179617000Y-94004117D01*
X179710704Y-94475200D01*
X179977552Y-94874565D01*
X180376917Y-95141413D01*
X180848000Y-95235117D01*
X181319083Y-95141413D01*
X181718448Y-94874565D01*
X181985296Y-94475200D01*
X182079000Y-94004117D01*
X182079000Y-93955883D01*
X182157000Y-93955883D01*
X182157000Y-94004117D01*
X182250704Y-94475200D01*
X182517552Y-94874565D01*
X182916917Y-95141413D01*
X183388000Y-95235117D01*
X183859083Y-95141413D01*
X184258448Y-94874565D01*
X184525296Y-94475200D01*
X184619000Y-94004117D01*
X184619000Y-93955883D01*
X184697000Y-93955883D01*
X184697000Y-94004117D01*
X184790704Y-94475200D01*
X185057552Y-94874565D01*
X185456917Y-95141413D01*
X185928000Y-95235117D01*
X186399083Y-95141413D01*
X186798448Y-94874565D01*
X187065296Y-94475200D01*
X187159000Y-94004117D01*
X187159000Y-93955883D01*
X187237000Y-93955883D01*
X187237000Y-94004117D01*
X187330704Y-94475200D01*
X187597552Y-94874565D01*
X187996917Y-95141413D01*
X188468000Y-95235117D01*
X188939083Y-95141413D01*
X189338448Y-94874565D01*
X189605296Y-94475200D01*
X189699000Y-94004117D01*
X189699000Y-93955883D01*
X189777000Y-93955883D01*
X189777000Y-94004117D01*
X189870704Y-94475200D01*
X190137552Y-94874565D01*
X190536917Y-95141413D01*
X191008000Y-95235117D01*
X191479083Y-95141413D01*
X191878448Y-94874565D01*
X192145296Y-94475200D01*
X192239000Y-94004117D01*
X192239000Y-93955883D01*
X192145296Y-93484800D01*
X191878448Y-93085435D01*
X191479083Y-92818587D01*
X191008000Y-92724883D01*
X190536917Y-92818587D01*
X190137552Y-93085435D01*
X189870704Y-93484800D01*
X189777000Y-93955883D01*
X189699000Y-93955883D01*
X189605296Y-93484800D01*
X189338448Y-93085435D01*
X188939083Y-92818587D01*
X188468000Y-92724883D01*
X187996917Y-92818587D01*
X187597552Y-93085435D01*
X187330704Y-93484800D01*
X187237000Y-93955883D01*
X187159000Y-93955883D01*
X187065296Y-93484800D01*
X186798448Y-93085435D01*
X186399083Y-92818587D01*
X185928000Y-92724883D01*
X185456917Y-92818587D01*
X185057552Y-93085435D01*
X184790704Y-93484800D01*
X184697000Y-93955883D01*
X184619000Y-93955883D01*
X184525296Y-93484800D01*
X184258448Y-93085435D01*
X183859083Y-92818587D01*
X183388000Y-92724883D01*
X182916917Y-92818587D01*
X182517552Y-93085435D01*
X182250704Y-93484800D01*
X182157000Y-93955883D01*
X182079000Y-93955883D01*
X181985296Y-93484800D01*
X181718448Y-93085435D01*
X181319083Y-92818587D01*
X180848000Y-92724883D01*
X180376917Y-92818587D01*
X179977552Y-93085435D01*
X179710704Y-93484800D01*
X179617000Y-93955883D01*
X179539000Y-93955883D01*
X179445296Y-93484800D01*
X179178448Y-93085435D01*
X178779083Y-92818587D01*
X178308000Y-92724883D01*
X177836917Y-92818587D01*
X177437552Y-93085435D01*
X177170704Y-93484800D01*
X177077000Y-93955883D01*
X176999000Y-93955883D01*
X176905296Y-93484800D01*
X176638448Y-93085435D01*
X176239083Y-92818587D01*
X175768000Y-92724883D01*
X175296917Y-92818587D01*
X174897552Y-93085435D01*
X174630704Y-93484800D01*
X174537000Y-93955883D01*
X174459000Y-93955883D01*
X174365296Y-93484800D01*
X174098448Y-93085435D01*
X173699083Y-92818587D01*
X173228000Y-92724883D01*
X172756917Y-92818587D01*
X172357552Y-93085435D01*
X172090704Y-93484800D01*
X171997000Y-93955883D01*
X171919000Y-93955883D01*
X171825296Y-93484800D01*
X171558448Y-93085435D01*
X171159083Y-92818587D01*
X170688000Y-92724883D01*
X170216917Y-92818587D01*
X169817552Y-93085435D01*
X169550704Y-93484800D01*
X169457000Y-93955883D01*
X164929775Y-93955883D01*
X167818793Y-91066865D01*
X196168882Y-91066865D01*
X196272339Y-91317252D01*
X196463741Y-91508987D01*
X196713946Y-91612882D01*
X196984865Y-91613118D01*
X197235252Y-91509661D01*
X197426987Y-91318259D01*
X197477318Y-91197050D01*
X210573368Y-78101000D01*
X216623440Y-78101000D01*
X216783435Y-78340448D01*
X217182800Y-78607296D01*
X217653883Y-78701000D01*
X217702117Y-78701000D01*
X218173200Y-78607296D01*
X218572565Y-78340448D01*
X218839413Y-77941083D01*
X218870065Y-77786980D01*
X222076511Y-77786980D01*
X222200755Y-78086964D01*
X222517944Y-78447652D01*
X222949018Y-78659501D01*
X223139000Y-78599193D01*
X223139000Y-77597000D01*
X223393000Y-77597000D01*
X223393000Y-78599193D01*
X223582982Y-78659501D01*
X224014056Y-78447652D01*
X224331245Y-78086964D01*
X224455489Y-77786980D01*
X224394627Y-77597000D01*
X223393000Y-77597000D01*
X223139000Y-77597000D01*
X222137373Y-77597000D01*
X222076511Y-77786980D01*
X218870065Y-77786980D01*
X218933117Y-77470000D01*
X218870066Y-77153020D01*
X222076511Y-77153020D01*
X222137373Y-77343000D01*
X223139000Y-77343000D01*
X223139000Y-76340807D01*
X223393000Y-76340807D01*
X223393000Y-77343000D01*
X224394627Y-77343000D01*
X224455489Y-77153020D01*
X224331245Y-76853036D01*
X224014056Y-76492348D01*
X223582982Y-76280499D01*
X223393000Y-76340807D01*
X223139000Y-76340807D01*
X222949018Y-76280499D01*
X222517944Y-76492348D01*
X222200755Y-76853036D01*
X222076511Y-77153020D01*
X218870066Y-77153020D01*
X218839413Y-76998917D01*
X218572565Y-76599552D01*
X218173200Y-76332704D01*
X217702117Y-76239000D01*
X217653883Y-76239000D01*
X217182800Y-76332704D01*
X216783435Y-76599552D01*
X216623440Y-76839000D01*
X210312000Y-76839000D01*
X210070527Y-76887032D01*
X209865816Y-77023816D01*
X196584965Y-90304667D01*
X196464748Y-90354339D01*
X196273013Y-90545741D01*
X196169118Y-90795946D01*
X196168882Y-91066865D01*
X167818793Y-91066865D01*
X168388658Y-90497000D01*
X184658000Y-90497000D01*
X184880339Y-90452774D01*
X185068829Y-90326829D01*
X187862829Y-87532829D01*
X187988774Y-87344339D01*
X188033000Y-87122000D01*
X188033000Y-87002865D01*
X196930882Y-87002865D01*
X197034339Y-87253252D01*
X197225741Y-87444987D01*
X197475946Y-87548882D01*
X197746865Y-87549118D01*
X197997252Y-87445661D01*
X198188987Y-87254259D01*
X198239318Y-87133050D01*
X210442368Y-74930000D01*
X216422883Y-74930000D01*
X216516587Y-75401083D01*
X216783435Y-75800448D01*
X217182800Y-76067296D01*
X217653883Y-76161000D01*
X217702117Y-76161000D01*
X218173200Y-76067296D01*
X218572565Y-75800448D01*
X218839413Y-75401083D01*
X218933117Y-74930000D01*
X222010883Y-74930000D01*
X222104587Y-75401083D01*
X222371435Y-75800448D01*
X222770800Y-76067296D01*
X223241883Y-76161000D01*
X223290117Y-76161000D01*
X223761200Y-76067296D01*
X224160565Y-75800448D01*
X224427413Y-75401083D01*
X224521117Y-74930000D01*
X224427413Y-74458917D01*
X224160565Y-74059552D01*
X223761200Y-73792704D01*
X223290117Y-73699000D01*
X223241883Y-73699000D01*
X222770800Y-73792704D01*
X222371435Y-74059552D01*
X222104587Y-74458917D01*
X222010883Y-74930000D01*
X218933117Y-74930000D01*
X218839413Y-74458917D01*
X218572565Y-74059552D01*
X218173200Y-73792704D01*
X217702117Y-73699000D01*
X217653883Y-73699000D01*
X217182800Y-73792704D01*
X216783435Y-74059552D01*
X216516587Y-74458917D01*
X216422883Y-74930000D01*
X210442368Y-74930000D01*
X212351368Y-73021000D01*
X216439536Y-73021000D01*
X216439536Y-73240000D01*
X216466103Y-73381190D01*
X216549546Y-73510865D01*
X216676866Y-73597859D01*
X216828000Y-73628464D01*
X218528000Y-73628464D01*
X218669190Y-73601897D01*
X218798865Y-73518454D01*
X218885859Y-73391134D01*
X218916464Y-73240000D01*
X218916464Y-71540000D01*
X222027536Y-71540000D01*
X222027536Y-73240000D01*
X222054103Y-73381190D01*
X222137546Y-73510865D01*
X222264866Y-73597859D01*
X222416000Y-73628464D01*
X224116000Y-73628464D01*
X224257190Y-73601897D01*
X224386865Y-73518454D01*
X224473859Y-73391134D01*
X224504464Y-73240000D01*
X224504464Y-71540000D01*
X224477897Y-71398810D01*
X224394454Y-71269135D01*
X224267134Y-71182141D01*
X224116000Y-71151536D01*
X222416000Y-71151536D01*
X222274810Y-71178103D01*
X222145135Y-71261546D01*
X222058141Y-71388866D01*
X222027536Y-71540000D01*
X218916464Y-71540000D01*
X218889897Y-71398810D01*
X218806454Y-71269135D01*
X218679134Y-71182141D01*
X218528000Y-71151536D01*
X216828000Y-71151536D01*
X216686810Y-71178103D01*
X216557135Y-71261546D01*
X216470141Y-71388866D01*
X216439536Y-71540000D01*
X216439536Y-71759000D01*
X212090000Y-71759000D01*
X211848527Y-71807032D01*
X211643816Y-71943816D01*
X197346965Y-86240667D01*
X197226748Y-86290339D01*
X197035013Y-86481741D01*
X196931118Y-86731946D01*
X196930882Y-87002865D01*
X188033000Y-87002865D01*
X188033000Y-84332332D01*
X188310230Y-84147093D01*
X188566239Y-83763949D01*
X188656137Y-83312000D01*
X188566239Y-82860051D01*
X188310230Y-82476907D01*
X187927086Y-82220898D01*
X187475137Y-82131000D01*
X187428863Y-82131000D01*
X186976914Y-82220898D01*
X186593770Y-82476907D01*
X186337761Y-82860051D01*
X186247863Y-83312000D01*
X186337761Y-83763949D01*
X186593770Y-84147093D01*
X186871000Y-84332332D01*
X186871000Y-86881342D01*
X184417342Y-89335000D01*
X168148000Y-89335000D01*
X167925661Y-89379226D01*
X167737171Y-89505171D01*
X161049342Y-96193000D01*
X146290658Y-96193000D01*
X145869000Y-95771342D01*
X145869000Y-95067969D01*
X146158448Y-94874565D01*
X146425296Y-94475200D01*
X146519000Y-94004117D01*
X146519000Y-93955883D01*
X146597000Y-93955883D01*
X146597000Y-94004117D01*
X146690704Y-94475200D01*
X146957552Y-94874565D01*
X147356917Y-95141413D01*
X147828000Y-95235117D01*
X148299083Y-95141413D01*
X148698448Y-94874565D01*
X148965296Y-94475200D01*
X149059000Y-94004117D01*
X149059000Y-93955883D01*
X149137000Y-93955883D01*
X149137000Y-94004117D01*
X149230704Y-94475200D01*
X149497552Y-94874565D01*
X149896917Y-95141413D01*
X150368000Y-95235117D01*
X150839083Y-95141413D01*
X151238448Y-94874565D01*
X151505296Y-94475200D01*
X151599000Y-94004117D01*
X151599000Y-93955883D01*
X151677000Y-93955883D01*
X151677000Y-94004117D01*
X151770704Y-94475200D01*
X152037552Y-94874565D01*
X152436917Y-95141413D01*
X152908000Y-95235117D01*
X153379083Y-95141413D01*
X153778448Y-94874565D01*
X154045296Y-94475200D01*
X154139000Y-94004117D01*
X154139000Y-93955883D01*
X154217000Y-93955883D01*
X154217000Y-94004117D01*
X154310704Y-94475200D01*
X154577552Y-94874565D01*
X154976917Y-95141413D01*
X155448000Y-95235117D01*
X155919083Y-95141413D01*
X156318448Y-94874565D01*
X156585296Y-94475200D01*
X156679000Y-94004117D01*
X156679000Y-93955883D01*
X156585296Y-93484800D01*
X156348226Y-93130000D01*
X156749536Y-93130000D01*
X156749536Y-94830000D01*
X156776103Y-94971190D01*
X156859546Y-95100865D01*
X156986866Y-95187859D01*
X157138000Y-95218464D01*
X158838000Y-95218464D01*
X158979190Y-95191897D01*
X159108865Y-95108454D01*
X159195859Y-94981134D01*
X159226464Y-94830000D01*
X159226464Y-93130000D01*
X159199897Y-92988810D01*
X159116454Y-92859135D01*
X158989134Y-92772141D01*
X158838000Y-92741536D01*
X157138000Y-92741536D01*
X156996810Y-92768103D01*
X156867135Y-92851546D01*
X156780141Y-92978866D01*
X156749536Y-93130000D01*
X156348226Y-93130000D01*
X156318448Y-93085435D01*
X155919083Y-92818587D01*
X155448000Y-92724883D01*
X154976917Y-92818587D01*
X154577552Y-93085435D01*
X154310704Y-93484800D01*
X154217000Y-93955883D01*
X154139000Y-93955883D01*
X154045296Y-93484800D01*
X153778448Y-93085435D01*
X153379083Y-92818587D01*
X152908000Y-92724883D01*
X152436917Y-92818587D01*
X152037552Y-93085435D01*
X151770704Y-93484800D01*
X151677000Y-93955883D01*
X151599000Y-93955883D01*
X151505296Y-93484800D01*
X151238448Y-93085435D01*
X150839083Y-92818587D01*
X150368000Y-92724883D01*
X149896917Y-92818587D01*
X149497552Y-93085435D01*
X149230704Y-93484800D01*
X149137000Y-93955883D01*
X149059000Y-93955883D01*
X148965296Y-93484800D01*
X148698448Y-93085435D01*
X148409000Y-92892031D01*
X148409000Y-90664658D01*
X155180658Y-83893000D01*
X157975990Y-83893000D01*
X158145770Y-84147093D01*
X158528914Y-84403102D01*
X158980863Y-84493000D01*
X159027137Y-84493000D01*
X159479086Y-84403102D01*
X159811867Y-84180744D01*
X168474861Y-84180744D01*
X168562918Y-84355383D01*
X169007959Y-84505984D01*
X169476755Y-84474812D01*
X169765082Y-84355383D01*
X169853139Y-84180744D01*
X169164000Y-83491605D01*
X168474861Y-84180744D01*
X159811867Y-84180744D01*
X159862230Y-84147093D01*
X160118239Y-83763949D01*
X160208137Y-83312000D01*
X160177099Y-83155959D01*
X167970016Y-83155959D01*
X168001188Y-83624755D01*
X168120617Y-83913082D01*
X168295256Y-84001139D01*
X168984395Y-83312000D01*
X169343605Y-83312000D01*
X170032744Y-84001139D01*
X170207383Y-83913082D01*
X170357984Y-83468041D01*
X170326812Y-82999245D01*
X170207383Y-82710918D01*
X170032744Y-82622861D01*
X169343605Y-83312000D01*
X168984395Y-83312000D01*
X168295256Y-82622861D01*
X168120617Y-82710918D01*
X167970016Y-83155959D01*
X160177099Y-83155959D01*
X160118239Y-82860051D01*
X159862230Y-82476907D01*
X159811868Y-82443256D01*
X168474861Y-82443256D01*
X169164000Y-83132395D01*
X169853139Y-82443256D01*
X169765082Y-82268617D01*
X169320041Y-82118016D01*
X168851245Y-82149188D01*
X168562918Y-82268617D01*
X168474861Y-82443256D01*
X159811868Y-82443256D01*
X159479086Y-82220898D01*
X159027137Y-82131000D01*
X158980863Y-82131000D01*
X158528914Y-82220898D01*
X158145770Y-82476907D01*
X157975990Y-82731000D01*
X154940000Y-82731000D01*
X154717661Y-82775226D01*
X154529171Y-82901171D01*
X147417171Y-90013171D01*
X147291226Y-90201661D01*
X147247000Y-90424000D01*
X147247000Y-92892031D01*
X146957552Y-93085435D01*
X146690704Y-93484800D01*
X146597000Y-93955883D01*
X146519000Y-93955883D01*
X146425296Y-93484800D01*
X146158448Y-93085435D01*
X145759083Y-92818587D01*
X145288000Y-92724883D01*
X144816917Y-92818587D01*
X144417552Y-93085435D01*
X144150704Y-93484800D01*
X144057000Y-93955883D01*
X144057000Y-94004117D01*
X144150704Y-94475200D01*
X144417552Y-94874565D01*
X144707000Y-95067969D01*
X144707000Y-96012000D01*
X144751226Y-96234339D01*
X144877171Y-96422829D01*
X145498342Y-97044000D01*
X90456000Y-97044000D01*
X90456000Y-94296982D01*
X126318499Y-94296982D01*
X126530348Y-94728056D01*
X126891036Y-95045245D01*
X127191020Y-95169489D01*
X127381000Y-95108627D01*
X127381000Y-94107000D01*
X127635000Y-94107000D01*
X127635000Y-95108627D01*
X127824980Y-95169489D01*
X128124964Y-95045245D01*
X128485652Y-94728056D01*
X128697501Y-94296982D01*
X128637193Y-94107000D01*
X127635000Y-94107000D01*
X127381000Y-94107000D01*
X126378807Y-94107000D01*
X126318499Y-94296982D01*
X90456000Y-94296982D01*
X90456000Y-93955883D01*
X128817000Y-93955883D01*
X128817000Y-94004117D01*
X128910704Y-94475200D01*
X129177552Y-94874565D01*
X129576917Y-95141413D01*
X130048000Y-95235117D01*
X130519083Y-95141413D01*
X130918448Y-94874565D01*
X131185296Y-94475200D01*
X131279000Y-94004117D01*
X131279000Y-93955883D01*
X131185296Y-93484800D01*
X130918448Y-93085435D01*
X130519083Y-92818587D01*
X130048000Y-92724883D01*
X129576917Y-92818587D01*
X129177552Y-93085435D01*
X128910704Y-93484800D01*
X128817000Y-93955883D01*
X90456000Y-93955883D01*
X90456000Y-93663018D01*
X126318499Y-93663018D01*
X126378807Y-93853000D01*
X127381000Y-93853000D01*
X127381000Y-92851373D01*
X127635000Y-92851373D01*
X127635000Y-93853000D01*
X128637193Y-93853000D01*
X128697501Y-93663018D01*
X128485652Y-93231944D01*
X128124964Y-92914755D01*
X127824980Y-92790511D01*
X127635000Y-92851373D01*
X127381000Y-92851373D01*
X127191020Y-92790511D01*
X126891036Y-92914755D01*
X126530348Y-93231944D01*
X126318499Y-93663018D01*
X90456000Y-93663018D01*
X90456000Y-84074000D01*
X111571863Y-84074000D01*
X111661761Y-84525949D01*
X111917770Y-84909093D01*
X112300914Y-85165102D01*
X112752863Y-85255000D01*
X112799137Y-85255000D01*
X113251086Y-85165102D01*
X113634230Y-84909093D01*
X113890239Y-84525949D01*
X113980137Y-84074000D01*
X113890239Y-83622051D01*
X113634230Y-83238907D01*
X113251086Y-82982898D01*
X112799137Y-82893000D01*
X112752863Y-82893000D01*
X112300914Y-82982898D01*
X111917770Y-83238907D01*
X111661761Y-83622051D01*
X111571863Y-84074000D01*
X90456000Y-84074000D01*
X90456000Y-80772000D01*
X111571863Y-80772000D01*
X111661761Y-81223949D01*
X111917770Y-81607093D01*
X112300914Y-81863102D01*
X112752863Y-81953000D01*
X112799137Y-81953000D01*
X113251086Y-81863102D01*
X113634230Y-81607093D01*
X113890239Y-81223949D01*
X113980137Y-80772000D01*
X113890239Y-80320051D01*
X113634230Y-79936907D01*
X113251086Y-79680898D01*
X112799137Y-79591000D01*
X112752863Y-79591000D01*
X112300914Y-79680898D01*
X111917770Y-79936907D01*
X111661761Y-80320051D01*
X111571863Y-80772000D01*
X90456000Y-80772000D01*
X90456000Y-78994000D01*
X118241000Y-78994000D01*
X118241000Y-84582000D01*
X118277031Y-84763139D01*
X118289032Y-84823473D01*
X118425816Y-85028184D01*
X120203816Y-86806185D01*
X120408527Y-86942968D01*
X120650000Y-86991000D01*
X127500632Y-86991000D01*
X131957000Y-91447369D01*
X131957000Y-92925440D01*
X131717552Y-93085435D01*
X131450704Y-93484800D01*
X131357000Y-93955883D01*
X131357000Y-94004117D01*
X131450704Y-94475200D01*
X131717552Y-94874565D01*
X132116917Y-95141413D01*
X132588000Y-95235117D01*
X133059083Y-95141413D01*
X133458448Y-94874565D01*
X133725296Y-94475200D01*
X133819000Y-94004117D01*
X133819000Y-93955883D01*
X133897000Y-93955883D01*
X133897000Y-94004117D01*
X133990704Y-94475200D01*
X134257552Y-94874565D01*
X134656917Y-95141413D01*
X135128000Y-95235117D01*
X135599083Y-95141413D01*
X135998448Y-94874565D01*
X136265296Y-94475200D01*
X136359000Y-94004117D01*
X136359000Y-93955883D01*
X136437000Y-93955883D01*
X136437000Y-94004117D01*
X136530704Y-94475200D01*
X136797552Y-94874565D01*
X137196917Y-95141413D01*
X137668000Y-95235117D01*
X138139083Y-95141413D01*
X138538448Y-94874565D01*
X138805296Y-94475200D01*
X138899000Y-94004117D01*
X138899000Y-93955883D01*
X138977000Y-93955883D01*
X138977000Y-94004117D01*
X139070704Y-94475200D01*
X139337552Y-94874565D01*
X139736917Y-95141413D01*
X140208000Y-95235117D01*
X140679083Y-95141413D01*
X141078448Y-94874565D01*
X141345296Y-94475200D01*
X141439000Y-94004117D01*
X141439000Y-93955883D01*
X141517000Y-93955883D01*
X141517000Y-94004117D01*
X141610704Y-94475200D01*
X141877552Y-94874565D01*
X142276917Y-95141413D01*
X142748000Y-95235117D01*
X143219083Y-95141413D01*
X143618448Y-94874565D01*
X143885296Y-94475200D01*
X143979000Y-94004117D01*
X143979000Y-93955883D01*
X143885296Y-93484800D01*
X143618448Y-93085435D01*
X143219083Y-92818587D01*
X142748000Y-92724883D01*
X142276917Y-92818587D01*
X141877552Y-93085435D01*
X141610704Y-93484800D01*
X141517000Y-93955883D01*
X141439000Y-93955883D01*
X141345296Y-93484800D01*
X141078448Y-93085435D01*
X140679083Y-92818587D01*
X140208000Y-92724883D01*
X139736917Y-92818587D01*
X139337552Y-93085435D01*
X139070704Y-93484800D01*
X138977000Y-93955883D01*
X138899000Y-93955883D01*
X138805296Y-93484800D01*
X138538448Y-93085435D01*
X138139083Y-92818587D01*
X137668000Y-92724883D01*
X137196917Y-92818587D01*
X136797552Y-93085435D01*
X136530704Y-93484800D01*
X136437000Y-93955883D01*
X136359000Y-93955883D01*
X136265296Y-93484800D01*
X135998448Y-93085435D01*
X135599083Y-92818587D01*
X135128000Y-92724883D01*
X134656917Y-92818587D01*
X134257552Y-93085435D01*
X133990704Y-93484800D01*
X133897000Y-93955883D01*
X133819000Y-93955883D01*
X133725296Y-93484800D01*
X133458448Y-93085435D01*
X133219000Y-92925440D01*
X133219000Y-91186000D01*
X133170968Y-90944527D01*
X133097670Y-90834829D01*
X133034185Y-90739816D01*
X129285368Y-86991000D01*
X146558000Y-86991000D01*
X146799473Y-86942968D01*
X147004184Y-86806184D01*
X153800368Y-80010000D01*
X157799863Y-80010000D01*
X157889761Y-80461949D01*
X158145770Y-80845093D01*
X158528914Y-81101102D01*
X158980863Y-81191000D01*
X159027137Y-81191000D01*
X159479086Y-81101102D01*
X159862230Y-80845093D01*
X160118239Y-80461949D01*
X160161614Y-80243885D01*
X167982796Y-80243885D01*
X168162213Y-80678109D01*
X168494144Y-81010619D01*
X168928054Y-81190794D01*
X169397885Y-81191204D01*
X169832109Y-81011787D01*
X170164619Y-80679856D01*
X170344794Y-80245946D01*
X170345204Y-79776115D01*
X170165787Y-79341891D01*
X169833856Y-79009381D01*
X169399946Y-78829206D01*
X168930115Y-78828796D01*
X168495891Y-79008213D01*
X168163381Y-79340144D01*
X167983206Y-79774054D01*
X167982796Y-80243885D01*
X160161614Y-80243885D01*
X160208137Y-80010000D01*
X160118239Y-79558051D01*
X159862230Y-79174907D01*
X159479086Y-78918898D01*
X159027137Y-78829000D01*
X158980863Y-78829000D01*
X158528914Y-78918898D01*
X158145770Y-79174907D01*
X157889761Y-79558051D01*
X157799863Y-80010000D01*
X153800368Y-80010000D01*
X157233368Y-76577000D01*
X168229536Y-76577000D01*
X168229536Y-76746000D01*
X168256103Y-76887190D01*
X168339546Y-77016865D01*
X168466866Y-77103859D01*
X168618000Y-77134464D01*
X168821305Y-77134464D01*
X168821933Y-77137619D01*
X168835032Y-77203473D01*
X168971816Y-77408184D01*
X172851000Y-81287368D01*
X172851000Y-84582000D01*
X172887031Y-84763139D01*
X172899032Y-84823473D01*
X173035816Y-85028184D01*
X175140667Y-87133036D01*
X175190339Y-87253252D01*
X175381741Y-87444987D01*
X175631946Y-87548882D01*
X175902865Y-87549118D01*
X176153252Y-87445661D01*
X176344987Y-87254259D01*
X176448882Y-87004054D01*
X176449118Y-86733135D01*
X176345661Y-86482748D01*
X176154259Y-86291013D01*
X176033052Y-86240683D01*
X174113000Y-84320632D01*
X174113000Y-84180744D01*
X176602861Y-84180744D01*
X176690918Y-84355383D01*
X177135959Y-84505984D01*
X177604755Y-84474812D01*
X177893082Y-84355383D01*
X177981139Y-84180744D01*
X177292000Y-83491605D01*
X176602861Y-84180744D01*
X174113000Y-84180744D01*
X174113000Y-83155959D01*
X176098016Y-83155959D01*
X176129188Y-83624755D01*
X176248617Y-83913082D01*
X176423256Y-84001139D01*
X177112395Y-83312000D01*
X177471605Y-83312000D01*
X178160744Y-84001139D01*
X178335383Y-83913082D01*
X178485984Y-83468041D01*
X178454812Y-82999245D01*
X178335383Y-82710918D01*
X178160744Y-82622861D01*
X177471605Y-83312000D01*
X177112395Y-83312000D01*
X176423256Y-82622861D01*
X176248617Y-82710918D01*
X176098016Y-83155959D01*
X174113000Y-83155959D01*
X174113000Y-82443256D01*
X176602861Y-82443256D01*
X177292000Y-83132395D01*
X177981139Y-82443256D01*
X177893082Y-82268617D01*
X177448041Y-82118016D01*
X176979245Y-82149188D01*
X176690918Y-82268617D01*
X176602861Y-82443256D01*
X174113000Y-82443256D01*
X174113000Y-81026000D01*
X174064968Y-80784527D01*
X173928184Y-80579816D01*
X173592253Y-80243885D01*
X176110796Y-80243885D01*
X176290213Y-80678109D01*
X176622144Y-81010619D01*
X177056054Y-81190794D01*
X177525885Y-81191204D01*
X177960109Y-81011787D01*
X178292619Y-80679856D01*
X178472794Y-80245946D01*
X178472999Y-80010000D01*
X186247863Y-80010000D01*
X186337761Y-80461949D01*
X186593770Y-80845093D01*
X186976914Y-81101102D01*
X187428863Y-81191000D01*
X187475137Y-81191000D01*
X187927086Y-81101102D01*
X188310230Y-80845093D01*
X188566239Y-80461949D01*
X188656137Y-80010000D01*
X188566239Y-79558051D01*
X188310230Y-79174907D01*
X187927086Y-78918898D01*
X187475137Y-78829000D01*
X187428863Y-78829000D01*
X186976914Y-78918898D01*
X186593770Y-79174907D01*
X186337761Y-79558051D01*
X186247863Y-80010000D01*
X178472999Y-80010000D01*
X178473204Y-79776115D01*
X178293787Y-79341891D01*
X177961856Y-79009381D01*
X177527946Y-78829206D01*
X177058115Y-78828796D01*
X176623891Y-79008213D01*
X176291381Y-79340144D01*
X176111206Y-79774054D01*
X176110796Y-80243885D01*
X173592253Y-80243885D01*
X170418257Y-77069889D01*
X170488865Y-77024454D01*
X170575859Y-76897134D01*
X170606464Y-76746000D01*
X170606464Y-75922863D01*
X170777000Y-75922863D01*
X170777000Y-75969137D01*
X170866898Y-76421086D01*
X171122907Y-76804230D01*
X171506051Y-77060239D01*
X171958000Y-77150137D01*
X172409949Y-77060239D01*
X172793093Y-76804230D01*
X173049102Y-76421086D01*
X173139000Y-75969137D01*
X173139000Y-75922863D01*
X173317000Y-75922863D01*
X173317000Y-75969137D01*
X173406898Y-76421086D01*
X173662907Y-76804230D01*
X174046051Y-77060239D01*
X174498000Y-77150137D01*
X174949949Y-77060239D01*
X175333093Y-76804230D01*
X175589102Y-76421086D01*
X175622115Y-76255116D01*
X175898159Y-76255116D01*
X176103218Y-76667784D01*
X176450589Y-76970567D01*
X176728886Y-77085829D01*
X176911000Y-77024297D01*
X176911000Y-76073000D01*
X177165000Y-76073000D01*
X177165000Y-77024297D01*
X177347114Y-77085829D01*
X177625411Y-76970567D01*
X177972782Y-76667784D01*
X178177841Y-76255116D01*
X178116914Y-76073000D01*
X177165000Y-76073000D01*
X176911000Y-76073000D01*
X175959086Y-76073000D01*
X175898159Y-76255116D01*
X175622115Y-76255116D01*
X175679000Y-75969137D01*
X175679000Y-75922863D01*
X175622116Y-75636884D01*
X175898159Y-75636884D01*
X175959086Y-75819000D01*
X176911000Y-75819000D01*
X176911000Y-74867703D01*
X177165000Y-74867703D01*
X177165000Y-75819000D01*
X178116914Y-75819000D01*
X178177841Y-75636884D01*
X177972782Y-75224216D01*
X177625411Y-74921433D01*
X177347114Y-74806171D01*
X177165000Y-74867703D01*
X176911000Y-74867703D01*
X176728886Y-74806171D01*
X176450589Y-74921433D01*
X176103218Y-75224216D01*
X175898159Y-75636884D01*
X175622116Y-75636884D01*
X175589102Y-75470914D01*
X175333093Y-75087770D01*
X174949949Y-74831761D01*
X174498000Y-74741863D01*
X174046051Y-74831761D01*
X173662907Y-75087770D01*
X173406898Y-75470914D01*
X173317000Y-75922863D01*
X173139000Y-75922863D01*
X173049102Y-75470914D01*
X172793093Y-75087770D01*
X172409949Y-74831761D01*
X171958000Y-74741863D01*
X171506051Y-74831761D01*
X171122907Y-75087770D01*
X170866898Y-75470914D01*
X170777000Y-75922863D01*
X170606464Y-75922863D01*
X170606464Y-75146000D01*
X170579897Y-75004810D01*
X170496454Y-74875135D01*
X170369134Y-74788141D01*
X170218000Y-74757536D01*
X168618000Y-74757536D01*
X168476810Y-74784103D01*
X168347135Y-74867546D01*
X168260141Y-74994866D01*
X168229536Y-75146000D01*
X168229536Y-75315000D01*
X156972000Y-75315000D01*
X156730527Y-75363032D01*
X156525816Y-75499816D01*
X146296632Y-85729000D01*
X120911369Y-85729000D01*
X120125113Y-84942744D01*
X122246861Y-84942744D01*
X122334918Y-85117383D01*
X122779959Y-85267984D01*
X123248755Y-85236812D01*
X123537082Y-85117383D01*
X123625139Y-84942744D01*
X130374861Y-84942744D01*
X130462918Y-85117383D01*
X130907959Y-85267984D01*
X131376755Y-85236812D01*
X131665082Y-85117383D01*
X131753139Y-84942744D01*
X131064000Y-84253605D01*
X130374861Y-84942744D01*
X123625139Y-84942744D01*
X122936000Y-84253605D01*
X122246861Y-84942744D01*
X120125113Y-84942744D01*
X119503000Y-84320632D01*
X119503000Y-83917959D01*
X121742016Y-83917959D01*
X121773188Y-84386755D01*
X121892617Y-84675082D01*
X122067256Y-84763139D01*
X122756395Y-84074000D01*
X123115605Y-84074000D01*
X123804744Y-84763139D01*
X123979383Y-84675082D01*
X124129984Y-84230041D01*
X124109233Y-83917959D01*
X129870016Y-83917959D01*
X129901188Y-84386755D01*
X130020617Y-84675082D01*
X130195256Y-84763139D01*
X130884395Y-84074000D01*
X131243605Y-84074000D01*
X131932744Y-84763139D01*
X132107383Y-84675082D01*
X132257984Y-84230041D01*
X132247609Y-84074000D01*
X140019863Y-84074000D01*
X140109761Y-84525949D01*
X140365770Y-84909093D01*
X140748914Y-85165102D01*
X141200863Y-85255000D01*
X141247137Y-85255000D01*
X141699086Y-85165102D01*
X142082230Y-84909093D01*
X142338239Y-84525949D01*
X142428137Y-84074000D01*
X142338239Y-83622051D01*
X142082230Y-83238907D01*
X141699086Y-82982898D01*
X141247137Y-82893000D01*
X141200863Y-82893000D01*
X140748914Y-82982898D01*
X140365770Y-83238907D01*
X140109761Y-83622051D01*
X140019863Y-84074000D01*
X132247609Y-84074000D01*
X132226812Y-83761245D01*
X132107383Y-83472918D01*
X131932744Y-83384861D01*
X131243605Y-84074000D01*
X130884395Y-84074000D01*
X130195256Y-83384861D01*
X130020617Y-83472918D01*
X129870016Y-83917959D01*
X124109233Y-83917959D01*
X124098812Y-83761245D01*
X123979383Y-83472918D01*
X123804744Y-83384861D01*
X123115605Y-84074000D01*
X122756395Y-84074000D01*
X122067256Y-83384861D01*
X121892617Y-83472918D01*
X121742016Y-83917959D01*
X119503000Y-83917959D01*
X119503000Y-83205256D01*
X122246861Y-83205256D01*
X122936000Y-83894395D01*
X123625139Y-83205256D01*
X130374861Y-83205256D01*
X131064000Y-83894395D01*
X131753139Y-83205256D01*
X131665082Y-83030617D01*
X131220041Y-82880016D01*
X130751245Y-82911188D01*
X130462918Y-83030617D01*
X130374861Y-83205256D01*
X123625139Y-83205256D01*
X123537082Y-83030617D01*
X123092041Y-82880016D01*
X122623245Y-82911188D01*
X122334918Y-83030617D01*
X122246861Y-83205256D01*
X119503000Y-83205256D01*
X119503000Y-81005885D01*
X121754796Y-81005885D01*
X121934213Y-81440109D01*
X122266144Y-81772619D01*
X122700054Y-81952794D01*
X123169885Y-81953204D01*
X123604109Y-81773787D01*
X123936619Y-81441856D01*
X124116794Y-81007946D01*
X124116795Y-81005885D01*
X129882796Y-81005885D01*
X130062213Y-81440109D01*
X130394144Y-81772619D01*
X130828054Y-81952794D01*
X131297885Y-81953204D01*
X131732109Y-81773787D01*
X132064619Y-81441856D01*
X132244794Y-81007946D01*
X132244999Y-80772000D01*
X140019863Y-80772000D01*
X140109761Y-81223949D01*
X140365770Y-81607093D01*
X140748914Y-81863102D01*
X141200863Y-81953000D01*
X141247137Y-81953000D01*
X141699086Y-81863102D01*
X142082230Y-81607093D01*
X142338239Y-81223949D01*
X142428137Y-80772000D01*
X142338239Y-80320051D01*
X142082230Y-79936907D01*
X141699086Y-79680898D01*
X141247137Y-79591000D01*
X141200863Y-79591000D01*
X140748914Y-79680898D01*
X140365770Y-79936907D01*
X140109761Y-80320051D01*
X140019863Y-80772000D01*
X132244999Y-80772000D01*
X132245204Y-80538115D01*
X132065787Y-80103891D01*
X131733856Y-79771381D01*
X131299946Y-79591206D01*
X130830115Y-79590796D01*
X130395891Y-79770213D01*
X130063381Y-80102144D01*
X129883206Y-80536054D01*
X129882796Y-81005885D01*
X124116795Y-81005885D01*
X124117204Y-80538115D01*
X123937787Y-80103891D01*
X123605856Y-79771381D01*
X123171946Y-79591206D01*
X122702115Y-79590796D01*
X122267891Y-79770213D01*
X121935381Y-80102144D01*
X121755206Y-80536054D01*
X121754796Y-81005885D01*
X119503000Y-81005885D01*
X119503000Y-79255368D01*
X121966830Y-76791538D01*
X122001536Y-76819303D01*
X122001536Y-77762000D01*
X122028103Y-77903190D01*
X122111546Y-78032865D01*
X122238866Y-78119859D01*
X122390000Y-78150464D01*
X123990000Y-78150464D01*
X124131190Y-78123897D01*
X124260865Y-78040454D01*
X124347859Y-77913134D01*
X124378464Y-77762000D01*
X124378464Y-76938863D01*
X124549000Y-76938863D01*
X124549000Y-76985137D01*
X124638898Y-77437086D01*
X124894907Y-77820230D01*
X125278051Y-78076239D01*
X125730000Y-78166137D01*
X126181949Y-78076239D01*
X126565093Y-77820230D01*
X126821102Y-77437086D01*
X126911000Y-76985137D01*
X126911000Y-76938863D01*
X127089000Y-76938863D01*
X127089000Y-76985137D01*
X127178898Y-77437086D01*
X127434907Y-77820230D01*
X127818051Y-78076239D01*
X128270000Y-78166137D01*
X128721949Y-78076239D01*
X129105093Y-77820230D01*
X129361102Y-77437086D01*
X129394115Y-77271116D01*
X129670159Y-77271116D01*
X129875218Y-77683784D01*
X130222589Y-77986567D01*
X130500886Y-78101829D01*
X130683000Y-78040297D01*
X130683000Y-77089000D01*
X130937000Y-77089000D01*
X130937000Y-78040297D01*
X131119114Y-78101829D01*
X131397411Y-77986567D01*
X131744782Y-77683784D01*
X131949841Y-77271116D01*
X131888914Y-77089000D01*
X130937000Y-77089000D01*
X130683000Y-77089000D01*
X129731086Y-77089000D01*
X129670159Y-77271116D01*
X129394115Y-77271116D01*
X129451000Y-76985137D01*
X129451000Y-76938863D01*
X129394116Y-76652884D01*
X129670159Y-76652884D01*
X129731086Y-76835000D01*
X130683000Y-76835000D01*
X130683000Y-75883703D01*
X130937000Y-75883703D01*
X130937000Y-76835000D01*
X131888914Y-76835000D01*
X131949841Y-76652884D01*
X131744782Y-76240216D01*
X131397411Y-75937433D01*
X131119114Y-75822171D01*
X130937000Y-75883703D01*
X130683000Y-75883703D01*
X130500886Y-75822171D01*
X130222589Y-75937433D01*
X129875218Y-76240216D01*
X129670159Y-76652884D01*
X129394116Y-76652884D01*
X129361102Y-76486914D01*
X129105093Y-76103770D01*
X128721949Y-75847761D01*
X128270000Y-75757863D01*
X127818051Y-75847761D01*
X127434907Y-76103770D01*
X127178898Y-76486914D01*
X127089000Y-76938863D01*
X126911000Y-76938863D01*
X126821102Y-76486914D01*
X126565093Y-76103770D01*
X126181949Y-75847761D01*
X125730000Y-75757863D01*
X125278051Y-75847761D01*
X124894907Y-76103770D01*
X124638898Y-76486914D01*
X124549000Y-76938863D01*
X124378464Y-76938863D01*
X124378464Y-76162000D01*
X124351897Y-76020810D01*
X124268454Y-75891135D01*
X124141134Y-75804141D01*
X123990000Y-75773536D01*
X122714513Y-75773536D01*
X122314183Y-75453272D01*
X122235326Y-75412379D01*
X122161473Y-75363032D01*
X122126907Y-75356156D01*
X122095618Y-75339931D01*
X122007119Y-75332329D01*
X121920000Y-75315000D01*
X121885431Y-75321876D01*
X121850318Y-75318860D01*
X121765649Y-75345702D01*
X121678527Y-75363032D01*
X121649223Y-75382613D01*
X121615625Y-75393264D01*
X121547667Y-75450470D01*
X121473816Y-75499816D01*
X118425816Y-78547816D01*
X118289032Y-78752527D01*
X118241000Y-78994000D01*
X90456000Y-78994000D01*
X90456000Y-69318863D01*
X122009000Y-69318863D01*
X122009000Y-69365137D01*
X122098898Y-69817086D01*
X122354907Y-70200230D01*
X122738051Y-70456239D01*
X123190000Y-70546137D01*
X123641949Y-70456239D01*
X124025093Y-70200230D01*
X124281102Y-69817086D01*
X124371000Y-69365137D01*
X124371000Y-69318863D01*
X124549000Y-69318863D01*
X124549000Y-69365137D01*
X124638898Y-69817086D01*
X124894907Y-70200230D01*
X125149000Y-70370010D01*
X125149000Y-72136000D01*
X125193226Y-72358339D01*
X125319171Y-72546829D01*
X127097171Y-74324829D01*
X127285661Y-74450774D01*
X127508000Y-74495000D01*
X137922000Y-74495000D01*
X138144339Y-74450774D01*
X138332829Y-74324829D01*
X139094829Y-73562829D01*
X139220774Y-73374339D01*
X139265000Y-73152000D01*
X139265000Y-72191114D01*
X144656171Y-72191114D01*
X144771433Y-72469411D01*
X145074216Y-72816782D01*
X145486884Y-73021841D01*
X145669000Y-72960914D01*
X145669000Y-72009000D01*
X145923000Y-72009000D01*
X145923000Y-72960914D01*
X146105116Y-73021841D01*
X146517784Y-72816782D01*
X146820567Y-72469411D01*
X146935829Y-72191114D01*
X146910411Y-72115885D01*
X180682796Y-72115885D01*
X180862213Y-72550109D01*
X181194144Y-72882619D01*
X181628054Y-73062794D01*
X182097885Y-73063204D01*
X182532109Y-72883787D01*
X182864619Y-72551856D01*
X182901515Y-72463000D01*
X184658000Y-72463000D01*
X184880339Y-72418774D01*
X185068829Y-72292829D01*
X185170544Y-72191114D01*
X190884171Y-72191114D01*
X190999433Y-72469411D01*
X191302216Y-72816782D01*
X191714884Y-73021841D01*
X191897000Y-72960914D01*
X191897000Y-72009000D01*
X192151000Y-72009000D01*
X192151000Y-72960914D01*
X192333116Y-73021841D01*
X192745784Y-72816782D01*
X193048567Y-72469411D01*
X193163829Y-72191114D01*
X193102297Y-72009000D01*
X192151000Y-72009000D01*
X191897000Y-72009000D01*
X190945703Y-72009000D01*
X190884171Y-72191114D01*
X185170544Y-72191114D01*
X185788772Y-71572886D01*
X190884171Y-71572886D01*
X190945703Y-71755000D01*
X191897000Y-71755000D01*
X191897000Y-70803086D01*
X192151000Y-70803086D01*
X192151000Y-71755000D01*
X193102297Y-71755000D01*
X193163829Y-71572886D01*
X193048567Y-71294589D01*
X192745784Y-70947218D01*
X192333116Y-70742159D01*
X192151000Y-70803086D01*
X191897000Y-70803086D01*
X191714884Y-70742159D01*
X191302216Y-70947218D01*
X190999433Y-71294589D01*
X190884171Y-71572886D01*
X185788772Y-71572886D01*
X193927832Y-63433826D01*
X203762613Y-63433826D01*
X204101547Y-64254109D01*
X204728590Y-64882247D01*
X205548280Y-65222612D01*
X206435826Y-65223387D01*
X207256109Y-64884453D01*
X207884247Y-64257410D01*
X208224612Y-63437720D01*
X208225387Y-62550174D01*
X207886453Y-61729891D01*
X207259410Y-61101753D01*
X206439720Y-60761388D01*
X205552174Y-60760613D01*
X204731891Y-61099547D01*
X204103753Y-61726590D01*
X203763388Y-62546280D01*
X203762613Y-63433826D01*
X193927832Y-63433826D01*
X200392658Y-56969000D01*
X214884000Y-56969000D01*
X215106339Y-56924774D01*
X215294829Y-56798829D01*
X218596829Y-53496829D01*
X218722774Y-53308339D01*
X218767000Y-53086000D01*
X218767000Y-50109969D01*
X219056448Y-49916565D01*
X219323296Y-49517200D01*
X219417000Y-49046117D01*
X219417000Y-48997883D01*
X219323296Y-48526800D01*
X219056448Y-48127435D01*
X218657083Y-47860587D01*
X218186000Y-47766883D01*
X217714917Y-47860587D01*
X217315552Y-48127435D01*
X217048704Y-48526800D01*
X216955000Y-48997883D01*
X216955000Y-49046117D01*
X217048704Y-49517200D01*
X217315552Y-49916565D01*
X217605000Y-50109969D01*
X217605000Y-52845342D01*
X214643342Y-55807000D01*
X200152000Y-55807000D01*
X199929661Y-55851226D01*
X199741171Y-55977171D01*
X184417342Y-71301000D01*
X182901780Y-71301000D01*
X182865787Y-71213891D01*
X182533856Y-70881381D01*
X182099946Y-70701206D01*
X181630115Y-70700796D01*
X181195891Y-70880213D01*
X180863381Y-71212144D01*
X180683206Y-71646054D01*
X180682796Y-72115885D01*
X146910411Y-72115885D01*
X146874297Y-72009000D01*
X145923000Y-72009000D01*
X145669000Y-72009000D01*
X144717703Y-72009000D01*
X144656171Y-72191114D01*
X139265000Y-72191114D01*
X139265000Y-71572886D01*
X144656171Y-71572886D01*
X144717703Y-71755000D01*
X145669000Y-71755000D01*
X145669000Y-70803086D01*
X145923000Y-70803086D01*
X145923000Y-71755000D01*
X146874297Y-71755000D01*
X146935829Y-71572886D01*
X146820567Y-71294589D01*
X146517784Y-70947218D01*
X146105116Y-70742159D01*
X145923000Y-70803086D01*
X145669000Y-70803086D01*
X145486884Y-70742159D01*
X145074216Y-70947218D01*
X144771433Y-71294589D01*
X144656171Y-71572886D01*
X139265000Y-71572886D01*
X139265000Y-70612000D01*
X139220774Y-70389661D01*
X139094829Y-70201171D01*
X137196521Y-68302863D01*
X168237000Y-68302863D01*
X168237000Y-68349137D01*
X168326898Y-68801086D01*
X168582907Y-69184230D01*
X168966051Y-69440239D01*
X169418000Y-69530137D01*
X169869949Y-69440239D01*
X170253093Y-69184230D01*
X170509102Y-68801086D01*
X170599000Y-68349137D01*
X170599000Y-68302863D01*
X170777000Y-68302863D01*
X170777000Y-68349137D01*
X170866898Y-68801086D01*
X171122907Y-69184230D01*
X171506051Y-69440239D01*
X171958000Y-69530137D01*
X172409949Y-69440239D01*
X172793093Y-69184230D01*
X173049102Y-68801086D01*
X173139000Y-68349137D01*
X173139000Y-68302863D01*
X173317000Y-68302863D01*
X173317000Y-68349137D01*
X173406898Y-68801086D01*
X173662907Y-69184230D01*
X174046051Y-69440239D01*
X174498000Y-69530137D01*
X174949949Y-69440239D01*
X175333093Y-69184230D01*
X175589102Y-68801086D01*
X175679000Y-68349137D01*
X175679000Y-68302863D01*
X175857000Y-68302863D01*
X175857000Y-68349137D01*
X175946898Y-68801086D01*
X176202907Y-69184230D01*
X176586051Y-69440239D01*
X177038000Y-69530137D01*
X177489949Y-69440239D01*
X177873093Y-69184230D01*
X178129102Y-68801086D01*
X178219000Y-68349137D01*
X178219000Y-68302863D01*
X178129102Y-67850914D01*
X177873093Y-67467770D01*
X177489949Y-67211761D01*
X177038000Y-67121863D01*
X176586051Y-67211761D01*
X176202907Y-67467770D01*
X175946898Y-67850914D01*
X175857000Y-68302863D01*
X175679000Y-68302863D01*
X175589102Y-67850914D01*
X175333093Y-67467770D01*
X174949949Y-67211761D01*
X174498000Y-67121863D01*
X174046051Y-67211761D01*
X173662907Y-67467770D01*
X173406898Y-67850914D01*
X173317000Y-68302863D01*
X173139000Y-68302863D01*
X173049102Y-67850914D01*
X172793093Y-67467770D01*
X172409949Y-67211761D01*
X171958000Y-67121863D01*
X171506051Y-67211761D01*
X171122907Y-67467770D01*
X170866898Y-67850914D01*
X170777000Y-68302863D01*
X170599000Y-68302863D01*
X170509102Y-67850914D01*
X170253093Y-67467770D01*
X169869949Y-67211761D01*
X169418000Y-67121863D01*
X168966051Y-67211761D01*
X168582907Y-67467770D01*
X168326898Y-67850914D01*
X168237000Y-68302863D01*
X137196521Y-68302863D01*
X136471000Y-67577342D01*
X136471000Y-65045780D01*
X136558109Y-65009787D01*
X136890619Y-64677856D01*
X137040412Y-64317114D01*
X144910171Y-64317114D01*
X145025433Y-64595411D01*
X145328216Y-64942782D01*
X145740884Y-65147841D01*
X145923000Y-65086914D01*
X145923000Y-64135000D01*
X146177000Y-64135000D01*
X146177000Y-65086914D01*
X146359116Y-65147841D01*
X146771784Y-64942782D01*
X146829345Y-64876744D01*
X158568861Y-64876744D01*
X158656918Y-65051383D01*
X159101959Y-65201984D01*
X159570755Y-65170812D01*
X159859082Y-65051383D01*
X159947139Y-64876744D01*
X159258000Y-64187605D01*
X158568861Y-64876744D01*
X146829345Y-64876744D01*
X147074567Y-64595411D01*
X147189829Y-64317114D01*
X147128297Y-64135000D01*
X146177000Y-64135000D01*
X145923000Y-64135000D01*
X144971703Y-64135000D01*
X144910171Y-64317114D01*
X137040412Y-64317114D01*
X137070794Y-64243946D01*
X137071204Y-63774115D01*
X137040121Y-63698886D01*
X144910171Y-63698886D01*
X144971703Y-63881000D01*
X145923000Y-63881000D01*
X145923000Y-62929086D01*
X146177000Y-62929086D01*
X146177000Y-63881000D01*
X147128297Y-63881000D01*
X147138109Y-63851959D01*
X158064016Y-63851959D01*
X158095188Y-64320755D01*
X158214617Y-64609082D01*
X158389256Y-64697139D01*
X159078395Y-64008000D01*
X159437605Y-64008000D01*
X160126744Y-64697139D01*
X160301383Y-64609082D01*
X160451984Y-64164041D01*
X160441609Y-64008000D01*
X168213863Y-64008000D01*
X168303761Y-64459949D01*
X168559770Y-64843093D01*
X168942914Y-65099102D01*
X169394863Y-65189000D01*
X169441137Y-65189000D01*
X169893086Y-65099102D01*
X170276230Y-64843093D01*
X170532239Y-64459949D01*
X170575614Y-64241885D01*
X170776796Y-64241885D01*
X170956213Y-64676109D01*
X171288144Y-65008619D01*
X171722054Y-65188794D01*
X172191885Y-65189204D01*
X172626109Y-65009787D01*
X172958619Y-64677856D01*
X173108412Y-64317114D01*
X180978171Y-64317114D01*
X181093433Y-64595411D01*
X181396216Y-64942782D01*
X181808884Y-65147841D01*
X181991000Y-65086914D01*
X181991000Y-64135000D01*
X182245000Y-64135000D01*
X182245000Y-65086914D01*
X182427116Y-65147841D01*
X182839784Y-64942782D01*
X183142567Y-64595411D01*
X183257829Y-64317114D01*
X183196297Y-64135000D01*
X182245000Y-64135000D01*
X181991000Y-64135000D01*
X181039703Y-64135000D01*
X180978171Y-64317114D01*
X173108412Y-64317114D01*
X173138794Y-64243946D01*
X173139204Y-63774115D01*
X173108121Y-63698886D01*
X180978171Y-63698886D01*
X181039703Y-63881000D01*
X181991000Y-63881000D01*
X181991000Y-62929086D01*
X182245000Y-62929086D01*
X182245000Y-63881000D01*
X183196297Y-63881000D01*
X183257829Y-63698886D01*
X183142567Y-63420589D01*
X182839784Y-63073218D01*
X182427116Y-62868159D01*
X182245000Y-62929086D01*
X181991000Y-62929086D01*
X181808884Y-62868159D01*
X181396216Y-63073218D01*
X181093433Y-63420589D01*
X180978171Y-63698886D01*
X173108121Y-63698886D01*
X172959787Y-63339891D01*
X172627856Y-63007381D01*
X172193946Y-62827206D01*
X171724115Y-62826796D01*
X171289891Y-63006213D01*
X170957381Y-63338144D01*
X170777206Y-63772054D01*
X170776796Y-64241885D01*
X170575614Y-64241885D01*
X170622137Y-64008000D01*
X170532239Y-63556051D01*
X170276230Y-63172907D01*
X169893086Y-62916898D01*
X169441137Y-62827000D01*
X169394863Y-62827000D01*
X168942914Y-62916898D01*
X168559770Y-63172907D01*
X168303761Y-63556051D01*
X168213863Y-64008000D01*
X160441609Y-64008000D01*
X160420812Y-63695245D01*
X160301383Y-63406918D01*
X160126744Y-63318861D01*
X159437605Y-64008000D01*
X159078395Y-64008000D01*
X158389256Y-63318861D01*
X158214617Y-63406918D01*
X158064016Y-63851959D01*
X147138109Y-63851959D01*
X147189829Y-63698886D01*
X147074567Y-63420589D01*
X146829346Y-63139256D01*
X158568861Y-63139256D01*
X159258000Y-63828395D01*
X159947139Y-63139256D01*
X159859082Y-62964617D01*
X159414041Y-62814016D01*
X158945245Y-62845188D01*
X158656918Y-62964617D01*
X158568861Y-63139256D01*
X146829346Y-63139256D01*
X146771784Y-63073218D01*
X146359116Y-62868159D01*
X146177000Y-62929086D01*
X145923000Y-62929086D01*
X145740884Y-62868159D01*
X145328216Y-63073218D01*
X145025433Y-63420589D01*
X144910171Y-63698886D01*
X137040121Y-63698886D01*
X136891787Y-63339891D01*
X136559856Y-63007381D01*
X136125946Y-62827206D01*
X135656115Y-62826796D01*
X135221891Y-63006213D01*
X134889381Y-63338144D01*
X134709206Y-63772054D01*
X134708796Y-64241885D01*
X134888213Y-64676109D01*
X135220144Y-65008619D01*
X135309000Y-65045515D01*
X135309000Y-67818000D01*
X135353226Y-68040339D01*
X135479171Y-68228829D01*
X138103000Y-70852658D01*
X138103000Y-72911342D01*
X137681342Y-73333000D01*
X127748658Y-73333000D01*
X126531543Y-72115885D01*
X134454796Y-72115885D01*
X134634213Y-72550109D01*
X134966144Y-72882619D01*
X135400054Y-73062794D01*
X135869885Y-73063204D01*
X136304109Y-72883787D01*
X136636619Y-72551856D01*
X136816794Y-72117946D01*
X136817204Y-71648115D01*
X136637787Y-71213891D01*
X136305856Y-70881381D01*
X135871946Y-70701206D01*
X135402115Y-70700796D01*
X134967891Y-70880213D01*
X134635381Y-71212144D01*
X134455206Y-71646054D01*
X134454796Y-72115885D01*
X126531543Y-72115885D01*
X126311000Y-71895342D01*
X126311000Y-70370010D01*
X126565093Y-70200230D01*
X126821102Y-69817086D01*
X126911000Y-69365137D01*
X126911000Y-69318863D01*
X127089000Y-69318863D01*
X127089000Y-69365137D01*
X127178898Y-69817086D01*
X127434907Y-70200230D01*
X127818051Y-70456239D01*
X127820325Y-70456691D01*
X127859171Y-70514829D01*
X129129171Y-71784829D01*
X129317661Y-71910774D01*
X129540000Y-71955000D01*
X131826000Y-71955000D01*
X132048339Y-71910774D01*
X132236829Y-71784829D01*
X134522829Y-69498829D01*
X134648774Y-69310339D01*
X134693000Y-69088000D01*
X134693000Y-62216658D01*
X136130658Y-60779000D01*
X136893990Y-60779000D01*
X137063770Y-61033093D01*
X137446914Y-61289102D01*
X137898863Y-61379000D01*
X137945137Y-61379000D01*
X138397086Y-61289102D01*
X138729867Y-61066744D01*
X147392861Y-61066744D01*
X147480918Y-61241383D01*
X147925959Y-61391984D01*
X148394755Y-61360812D01*
X148683082Y-61241383D01*
X148771139Y-61066744D01*
X148082000Y-60377605D01*
X147392861Y-61066744D01*
X138729867Y-61066744D01*
X138780230Y-61033093D01*
X139036239Y-60649949D01*
X139126137Y-60198000D01*
X139095099Y-60041959D01*
X146888016Y-60041959D01*
X146919188Y-60510755D01*
X147038617Y-60799082D01*
X147213256Y-60887139D01*
X147902395Y-60198000D01*
X148261605Y-60198000D01*
X148950744Y-60887139D01*
X149125383Y-60799082D01*
X149275984Y-60354041D01*
X149248719Y-59944000D01*
X173293863Y-59944000D01*
X173383761Y-60395949D01*
X173639770Y-60779093D01*
X174022914Y-61035102D01*
X174474863Y-61125000D01*
X174521137Y-61125000D01*
X174973086Y-61035102D01*
X175305867Y-60812744D01*
X183968861Y-60812744D01*
X184056918Y-60987383D01*
X184501959Y-61137984D01*
X184970755Y-61106812D01*
X185259082Y-60987383D01*
X185347139Y-60812744D01*
X184658000Y-60123605D01*
X183968861Y-60812744D01*
X175305867Y-60812744D01*
X175356230Y-60779093D01*
X175612239Y-60395949D01*
X175702137Y-59944000D01*
X175671099Y-59787959D01*
X183464016Y-59787959D01*
X183495188Y-60256755D01*
X183614617Y-60545082D01*
X183789256Y-60633139D01*
X184478395Y-59944000D01*
X184837605Y-59944000D01*
X185526744Y-60633139D01*
X185701383Y-60545082D01*
X185851984Y-60100041D01*
X185820812Y-59631245D01*
X185701383Y-59342918D01*
X185526744Y-59254861D01*
X184837605Y-59944000D01*
X184478395Y-59944000D01*
X183789256Y-59254861D01*
X183614617Y-59342918D01*
X183464016Y-59787959D01*
X175671099Y-59787959D01*
X175612239Y-59492051D01*
X175356230Y-59108907D01*
X175305868Y-59075256D01*
X183968861Y-59075256D01*
X184658000Y-59764395D01*
X185347139Y-59075256D01*
X185259082Y-58900617D01*
X184814041Y-58750016D01*
X184345245Y-58781188D01*
X184056918Y-58900617D01*
X183968861Y-59075256D01*
X175305868Y-59075256D01*
X175225861Y-59021797D01*
X178548658Y-55699000D01*
X207010000Y-55699000D01*
X207232339Y-55654774D01*
X207420829Y-55528829D01*
X210976829Y-51972829D01*
X211102774Y-51784339D01*
X211147000Y-51562000D01*
X211147000Y-50260464D01*
X211416000Y-50260464D01*
X211557190Y-50233897D01*
X211686865Y-50150454D01*
X211773859Y-50023134D01*
X211804464Y-49872000D01*
X211804464Y-49338982D01*
X211916499Y-49338982D01*
X212128348Y-49770056D01*
X212489036Y-50087245D01*
X212789020Y-50211489D01*
X212979000Y-50150627D01*
X212979000Y-49149000D01*
X213233000Y-49149000D01*
X213233000Y-50150627D01*
X213422980Y-50211489D01*
X213722964Y-50087245D01*
X214083652Y-49770056D01*
X214295501Y-49338982D01*
X214456499Y-49338982D01*
X214668348Y-49770056D01*
X215029036Y-50087245D01*
X215329020Y-50211489D01*
X215519000Y-50150627D01*
X215519000Y-49149000D01*
X215773000Y-49149000D01*
X215773000Y-50150627D01*
X215962980Y-50211489D01*
X216262964Y-50087245D01*
X216623652Y-49770056D01*
X216835501Y-49338982D01*
X216775193Y-49149000D01*
X215773000Y-49149000D01*
X215519000Y-49149000D01*
X214516807Y-49149000D01*
X214456499Y-49338982D01*
X214295501Y-49338982D01*
X214235193Y-49149000D01*
X213233000Y-49149000D01*
X212979000Y-49149000D01*
X211976807Y-49149000D01*
X211916499Y-49338982D01*
X211804464Y-49338982D01*
X211804464Y-48705018D01*
X211916499Y-48705018D01*
X211976807Y-48895000D01*
X212979000Y-48895000D01*
X212979000Y-47893373D01*
X213233000Y-47893373D01*
X213233000Y-48895000D01*
X214235193Y-48895000D01*
X214295501Y-48705018D01*
X214456499Y-48705018D01*
X214516807Y-48895000D01*
X215519000Y-48895000D01*
X215519000Y-47893373D01*
X215773000Y-47893373D01*
X215773000Y-48895000D01*
X216775193Y-48895000D01*
X216835501Y-48705018D01*
X216623652Y-48273944D01*
X216262964Y-47956755D01*
X215962980Y-47832511D01*
X215773000Y-47893373D01*
X215519000Y-47893373D01*
X215329020Y-47832511D01*
X215029036Y-47956755D01*
X214668348Y-48273944D01*
X214456499Y-48705018D01*
X214295501Y-48705018D01*
X214083652Y-48273944D01*
X213722964Y-47956755D01*
X213422980Y-47832511D01*
X213233000Y-47893373D01*
X212979000Y-47893373D01*
X212789020Y-47832511D01*
X212489036Y-47956755D01*
X212128348Y-48273944D01*
X211916499Y-48705018D01*
X211804464Y-48705018D01*
X211804464Y-48172000D01*
X211777897Y-48030810D01*
X211694454Y-47901135D01*
X211567134Y-47814141D01*
X211416000Y-47783536D01*
X209716000Y-47783536D01*
X209574810Y-47810103D01*
X209445135Y-47893546D01*
X209358141Y-48020866D01*
X209327536Y-48172000D01*
X209327536Y-49872000D01*
X209354103Y-50013190D01*
X209437546Y-50142865D01*
X209564866Y-50229859D01*
X209716000Y-50260464D01*
X209985000Y-50260464D01*
X209985000Y-51321342D01*
X206769342Y-54537000D01*
X178308000Y-54537000D01*
X178085661Y-54581226D01*
X177897171Y-54707171D01*
X174087171Y-58517171D01*
X173961226Y-58705661D01*
X173917994Y-58923003D01*
X173639770Y-59108907D01*
X173383761Y-59492051D01*
X173293863Y-59944000D01*
X149248719Y-59944000D01*
X149244812Y-59885245D01*
X149125383Y-59596918D01*
X148950744Y-59508861D01*
X148261605Y-60198000D01*
X147902395Y-60198000D01*
X147213256Y-59508861D01*
X147038617Y-59596918D01*
X146888016Y-60041959D01*
X139095099Y-60041959D01*
X139036239Y-59746051D01*
X138780230Y-59362907D01*
X138729868Y-59329256D01*
X147392861Y-59329256D01*
X148082000Y-60018395D01*
X148771139Y-59329256D01*
X148683082Y-59154617D01*
X148238041Y-59004016D01*
X147769245Y-59035188D01*
X147480918Y-59154617D01*
X147392861Y-59329256D01*
X138729868Y-59329256D01*
X138397086Y-59106898D01*
X137945137Y-59017000D01*
X137898863Y-59017000D01*
X137446914Y-59106898D01*
X137063770Y-59362907D01*
X136893990Y-59617000D01*
X135890000Y-59617000D01*
X135667661Y-59661226D01*
X135479171Y-59787171D01*
X133701171Y-61565171D01*
X133575226Y-61753661D01*
X133531000Y-61976000D01*
X133531000Y-68847342D01*
X131585342Y-70793000D01*
X129780658Y-70793000D01*
X129138256Y-70150598D01*
X129361102Y-69817086D01*
X129451000Y-69365137D01*
X129451000Y-69318863D01*
X129629000Y-69318863D01*
X129629000Y-69365137D01*
X129718898Y-69817086D01*
X129974907Y-70200230D01*
X130358051Y-70456239D01*
X130810000Y-70546137D01*
X131261949Y-70456239D01*
X131645093Y-70200230D01*
X131901102Y-69817086D01*
X131991000Y-69365137D01*
X131991000Y-69318863D01*
X131901102Y-68866914D01*
X131645093Y-68483770D01*
X131261949Y-68227761D01*
X130810000Y-68137863D01*
X130358051Y-68227761D01*
X129974907Y-68483770D01*
X129718898Y-68866914D01*
X129629000Y-69318863D01*
X129451000Y-69318863D01*
X129361102Y-68866914D01*
X129105093Y-68483770D01*
X128721949Y-68227761D01*
X128270000Y-68137863D01*
X127818051Y-68227761D01*
X127434907Y-68483770D01*
X127178898Y-68866914D01*
X127089000Y-69318863D01*
X126911000Y-69318863D01*
X126821102Y-68866914D01*
X126565093Y-68483770D01*
X126181949Y-68227761D01*
X125730000Y-68137863D01*
X125278051Y-68227761D01*
X124894907Y-68483770D01*
X124638898Y-68866914D01*
X124549000Y-69318863D01*
X124371000Y-69318863D01*
X124281102Y-68866914D01*
X124025093Y-68483770D01*
X123641949Y-68227761D01*
X123190000Y-68137863D01*
X122738051Y-68227761D01*
X122354907Y-68483770D01*
X122098898Y-68866914D01*
X122009000Y-69318863D01*
X90456000Y-69318863D01*
X90456000Y-64876744D01*
X112340861Y-64876744D01*
X112428918Y-65051383D01*
X112873959Y-65201984D01*
X113342755Y-65170812D01*
X113631082Y-65051383D01*
X113719139Y-64876744D01*
X113030000Y-64187605D01*
X112340861Y-64876744D01*
X90456000Y-64876744D01*
X90456000Y-63851959D01*
X111836016Y-63851959D01*
X111867188Y-64320755D01*
X111986617Y-64609082D01*
X112161256Y-64697139D01*
X112850395Y-64008000D01*
X113209605Y-64008000D01*
X113898744Y-64697139D01*
X114073383Y-64609082D01*
X114223984Y-64164041D01*
X114213609Y-64008000D01*
X121985863Y-64008000D01*
X122075761Y-64459949D01*
X122331770Y-64843093D01*
X122714914Y-65099102D01*
X123166863Y-65189000D01*
X123213137Y-65189000D01*
X123665086Y-65099102D01*
X124048230Y-64843093D01*
X124304239Y-64459949D01*
X124394137Y-64008000D01*
X124304239Y-63556051D01*
X124222571Y-63433826D01*
X126800613Y-63433826D01*
X127139547Y-64254109D01*
X127766590Y-64882247D01*
X128586280Y-65222612D01*
X129473826Y-65223387D01*
X130294109Y-64884453D01*
X130922247Y-64257410D01*
X131262612Y-63437720D01*
X131263387Y-62550174D01*
X130924453Y-61729891D01*
X130297410Y-61101753D01*
X129477720Y-60761388D01*
X128590174Y-60760613D01*
X127769891Y-61099547D01*
X127141753Y-61726590D01*
X126801388Y-62546280D01*
X126800613Y-63433826D01*
X124222571Y-63433826D01*
X124048230Y-63172907D01*
X123665086Y-62916898D01*
X123213137Y-62827000D01*
X123166863Y-62827000D01*
X122714914Y-62916898D01*
X122331770Y-63172907D01*
X122075761Y-63556051D01*
X121985863Y-64008000D01*
X114213609Y-64008000D01*
X114192812Y-63695245D01*
X114073383Y-63406918D01*
X113898744Y-63318861D01*
X113209605Y-64008000D01*
X112850395Y-64008000D01*
X112161256Y-63318861D01*
X111986617Y-63406918D01*
X111836016Y-63851959D01*
X90456000Y-63851959D01*
X90456000Y-63139256D01*
X112340861Y-63139256D01*
X113030000Y-63828395D01*
X113719139Y-63139256D01*
X113631082Y-62964617D01*
X113186041Y-62814016D01*
X112717245Y-62845188D01*
X112428918Y-62964617D01*
X112340861Y-63139256D01*
X90456000Y-63139256D01*
X90456000Y-59602000D01*
X91979536Y-59602000D01*
X91979536Y-61302000D01*
X92006103Y-61443190D01*
X92089546Y-61572865D01*
X92216866Y-61659859D01*
X92368000Y-61690464D01*
X94068000Y-61690464D01*
X94209190Y-61663897D01*
X94338865Y-61580454D01*
X94425859Y-61453134D01*
X94456464Y-61302000D01*
X94456464Y-60768982D01*
X94568499Y-60768982D01*
X94780348Y-61200056D01*
X95141036Y-61517245D01*
X95441020Y-61641489D01*
X95631000Y-61580627D01*
X95631000Y-60579000D01*
X95885000Y-60579000D01*
X95885000Y-61580627D01*
X96074980Y-61641489D01*
X96374964Y-61517245D01*
X96735652Y-61200056D01*
X96947501Y-60768982D01*
X96887193Y-60579000D01*
X95885000Y-60579000D01*
X95631000Y-60579000D01*
X94628807Y-60579000D01*
X94568499Y-60768982D01*
X94456464Y-60768982D01*
X94456464Y-60427883D01*
X97067000Y-60427883D01*
X97067000Y-60476117D01*
X97160704Y-60947200D01*
X97427552Y-61346565D01*
X97826917Y-61613413D01*
X98298000Y-61707117D01*
X98769083Y-61613413D01*
X99168448Y-61346565D01*
X99435296Y-60947200D01*
X99529000Y-60476117D01*
X99529000Y-60427883D01*
X99435296Y-59956800D01*
X99168448Y-59557435D01*
X98769083Y-59290587D01*
X98298000Y-59196883D01*
X97826917Y-59290587D01*
X97427552Y-59557435D01*
X97160704Y-59956800D01*
X97067000Y-60427883D01*
X94456464Y-60427883D01*
X94456464Y-60135018D01*
X94568499Y-60135018D01*
X94628807Y-60325000D01*
X95631000Y-60325000D01*
X95631000Y-59323373D01*
X95885000Y-59323373D01*
X95885000Y-60325000D01*
X96887193Y-60325000D01*
X96947501Y-60135018D01*
X96735652Y-59703944D01*
X96374964Y-59386755D01*
X96074980Y-59262511D01*
X95885000Y-59323373D01*
X95631000Y-59323373D01*
X95441020Y-59262511D01*
X95141036Y-59386755D01*
X94780348Y-59703944D01*
X94568499Y-60135018D01*
X94456464Y-60135018D01*
X94456464Y-59602000D01*
X94429897Y-59460810D01*
X94346454Y-59331135D01*
X94219134Y-59244141D01*
X94068000Y-59213536D01*
X92368000Y-59213536D01*
X92226810Y-59240103D01*
X92097135Y-59323546D01*
X92010141Y-59450866D01*
X91979536Y-59602000D01*
X90456000Y-59602000D01*
X90456000Y-54014000D01*
X91979536Y-54014000D01*
X91979536Y-55714000D01*
X92006103Y-55855190D01*
X92089546Y-55984865D01*
X92216866Y-56071859D01*
X92368000Y-56102464D01*
X94068000Y-56102464D01*
X94209190Y-56075897D01*
X94338865Y-55992454D01*
X94425859Y-55865134D01*
X94456464Y-55714000D01*
X94456464Y-55180982D01*
X94568499Y-55180982D01*
X94780348Y-55612056D01*
X95141036Y-55929245D01*
X95441020Y-56053489D01*
X95631000Y-55992627D01*
X95631000Y-54991000D01*
X95885000Y-54991000D01*
X95885000Y-55992627D01*
X96074980Y-56053489D01*
X96374964Y-55929245D01*
X96735652Y-55612056D01*
X96947501Y-55180982D01*
X96887193Y-54991000D01*
X95885000Y-54991000D01*
X95631000Y-54991000D01*
X94628807Y-54991000D01*
X94568499Y-55180982D01*
X94456464Y-55180982D01*
X94456464Y-54839883D01*
X97067000Y-54839883D01*
X97067000Y-54888117D01*
X97160704Y-55359200D01*
X97427552Y-55758565D01*
X97826917Y-56025413D01*
X98298000Y-56119117D01*
X98769083Y-56025413D01*
X99168448Y-55758565D01*
X99435296Y-55359200D01*
X99529000Y-54888117D01*
X99529000Y-54839883D01*
X99435296Y-54368800D01*
X99168448Y-53969435D01*
X98769083Y-53702587D01*
X98298000Y-53608883D01*
X97826917Y-53702587D01*
X97427552Y-53969435D01*
X97160704Y-54368800D01*
X97067000Y-54839883D01*
X94456464Y-54839883D01*
X94456464Y-54547018D01*
X94568499Y-54547018D01*
X94628807Y-54737000D01*
X95631000Y-54737000D01*
X95631000Y-53735373D01*
X95885000Y-53735373D01*
X95885000Y-54737000D01*
X96887193Y-54737000D01*
X96947501Y-54547018D01*
X96735652Y-54115944D01*
X96374964Y-53798755D01*
X96074980Y-53674511D01*
X95885000Y-53735373D01*
X95631000Y-53735373D01*
X95441020Y-53674511D01*
X95141036Y-53798755D01*
X94780348Y-54115944D01*
X94568499Y-54547018D01*
X94456464Y-54547018D01*
X94456464Y-54014000D01*
X94429897Y-53872810D01*
X94346454Y-53743135D01*
X94219134Y-53656141D01*
X94068000Y-53625536D01*
X92368000Y-53625536D01*
X92226810Y-53652103D01*
X92097135Y-53735546D01*
X92010141Y-53862866D01*
X91979536Y-54014000D01*
X90456000Y-54014000D01*
X90456000Y-48426000D01*
X91979536Y-48426000D01*
X91979536Y-50126000D01*
X92006103Y-50267190D01*
X92089546Y-50396865D01*
X92216866Y-50483859D01*
X92368000Y-50514464D01*
X94068000Y-50514464D01*
X94209190Y-50487897D01*
X94338865Y-50404454D01*
X94425859Y-50277134D01*
X94456464Y-50126000D01*
X94456464Y-49592982D01*
X94568499Y-49592982D01*
X94780348Y-50024056D01*
X95141036Y-50341245D01*
X95441020Y-50465489D01*
X95631000Y-50404627D01*
X95631000Y-49403000D01*
X95885000Y-49403000D01*
X95885000Y-50404627D01*
X96074980Y-50465489D01*
X96374964Y-50341245D01*
X96735652Y-50024056D01*
X96947501Y-49592982D01*
X96887193Y-49403000D01*
X95885000Y-49403000D01*
X95631000Y-49403000D01*
X94628807Y-49403000D01*
X94568499Y-49592982D01*
X94456464Y-49592982D01*
X94456464Y-49251883D01*
X97067000Y-49251883D01*
X97067000Y-49300117D01*
X97160704Y-49771200D01*
X97427552Y-50170565D01*
X97826917Y-50437413D01*
X98298000Y-50531117D01*
X98769083Y-50437413D01*
X99168448Y-50170565D01*
X99435296Y-49771200D01*
X99529000Y-49300117D01*
X99529000Y-49251883D01*
X99527482Y-49244250D01*
X108751000Y-49244250D01*
X108751000Y-49947786D01*
X108809004Y-50087820D01*
X108916181Y-50194996D01*
X109056215Y-50253000D01*
X109759750Y-50253000D01*
X109855000Y-50157750D01*
X109855000Y-49149000D01*
X110109000Y-49149000D01*
X110109000Y-50157750D01*
X110204250Y-50253000D01*
X110907785Y-50253000D01*
X111047819Y-50194996D01*
X111154996Y-50087820D01*
X111213000Y-49947786D01*
X111213000Y-49244250D01*
X111117750Y-49149000D01*
X110109000Y-49149000D01*
X109855000Y-49149000D01*
X108846250Y-49149000D01*
X108751000Y-49244250D01*
X99527482Y-49244250D01*
X99478477Y-48997883D01*
X111291000Y-48997883D01*
X111291000Y-49046117D01*
X111384704Y-49517200D01*
X111651552Y-49916565D01*
X112050917Y-50183413D01*
X112522000Y-50277117D01*
X112993083Y-50183413D01*
X113392448Y-49916565D01*
X113659296Y-49517200D01*
X113713588Y-49244250D01*
X114593000Y-49244250D01*
X114593000Y-49947786D01*
X114651004Y-50087820D01*
X114758181Y-50194996D01*
X114898215Y-50253000D01*
X115601750Y-50253000D01*
X115697000Y-50157750D01*
X115697000Y-49149000D01*
X115951000Y-49149000D01*
X115951000Y-50157750D01*
X116046250Y-50253000D01*
X116749785Y-50253000D01*
X116889819Y-50194996D01*
X116996996Y-50087820D01*
X117055000Y-49947786D01*
X117055000Y-49244250D01*
X116959750Y-49149000D01*
X115951000Y-49149000D01*
X115697000Y-49149000D01*
X114688250Y-49149000D01*
X114593000Y-49244250D01*
X113713588Y-49244250D01*
X113753000Y-49046117D01*
X113753000Y-48997883D01*
X117133000Y-48997883D01*
X117133000Y-49046117D01*
X117226704Y-49517200D01*
X117493552Y-49916565D01*
X117892917Y-50183413D01*
X118364000Y-50277117D01*
X118835083Y-50183413D01*
X119234448Y-49916565D01*
X119501296Y-49517200D01*
X119595000Y-49046117D01*
X119595000Y-48997883D01*
X119501296Y-48526800D01*
X119264226Y-48172000D01*
X119665536Y-48172000D01*
X119665536Y-49872000D01*
X119692103Y-50013190D01*
X119775546Y-50142865D01*
X119902866Y-50229859D01*
X120054000Y-50260464D01*
X121754000Y-50260464D01*
X121895190Y-50233897D01*
X122024865Y-50150454D01*
X122111859Y-50023134D01*
X122142464Y-49872000D01*
X122142464Y-49338982D01*
X122254499Y-49338982D01*
X122466348Y-49770056D01*
X122827036Y-50087245D01*
X123127020Y-50211489D01*
X123317000Y-50150627D01*
X123317000Y-49149000D01*
X123571000Y-49149000D01*
X123571000Y-50150627D01*
X123760980Y-50211489D01*
X124060964Y-50087245D01*
X124421652Y-49770056D01*
X124633501Y-49338982D01*
X124794499Y-49338982D01*
X125006348Y-49770056D01*
X125367036Y-50087245D01*
X125667020Y-50211489D01*
X125857000Y-50150627D01*
X125857000Y-49149000D01*
X126111000Y-49149000D01*
X126111000Y-50150627D01*
X126300980Y-50211489D01*
X126600964Y-50087245D01*
X126961652Y-49770056D01*
X127173501Y-49338982D01*
X127113193Y-49149000D01*
X126111000Y-49149000D01*
X125857000Y-49149000D01*
X124854807Y-49149000D01*
X124794499Y-49338982D01*
X124633501Y-49338982D01*
X124573193Y-49149000D01*
X123571000Y-49149000D01*
X123317000Y-49149000D01*
X122314807Y-49149000D01*
X122254499Y-49338982D01*
X122142464Y-49338982D01*
X122142464Y-48997883D01*
X127293000Y-48997883D01*
X127293000Y-49046117D01*
X127386704Y-49517200D01*
X127653552Y-49916565D01*
X128052917Y-50183413D01*
X128524000Y-50277117D01*
X128995083Y-50183413D01*
X129394448Y-49916565D01*
X129661296Y-49517200D01*
X129755000Y-49046117D01*
X129755000Y-48997883D01*
X129661296Y-48526800D01*
X129394448Y-48127435D01*
X128995083Y-47860587D01*
X128524000Y-47766883D01*
X128052917Y-47860587D01*
X127653552Y-48127435D01*
X127386704Y-48526800D01*
X127293000Y-48997883D01*
X122142464Y-48997883D01*
X122142464Y-48705018D01*
X122254499Y-48705018D01*
X122314807Y-48895000D01*
X123317000Y-48895000D01*
X123317000Y-47893373D01*
X123571000Y-47893373D01*
X123571000Y-48895000D01*
X124573193Y-48895000D01*
X124633501Y-48705018D01*
X124794499Y-48705018D01*
X124854807Y-48895000D01*
X125857000Y-48895000D01*
X125857000Y-47893373D01*
X126111000Y-47893373D01*
X126111000Y-48895000D01*
X127113193Y-48895000D01*
X127173501Y-48705018D01*
X126961652Y-48273944D01*
X126600964Y-47956755D01*
X126300980Y-47832511D01*
X126111000Y-47893373D01*
X125857000Y-47893373D01*
X125667020Y-47832511D01*
X125367036Y-47956755D01*
X125006348Y-48273944D01*
X124794499Y-48705018D01*
X124633501Y-48705018D01*
X124421652Y-48273944D01*
X124060964Y-47956755D01*
X123760980Y-47832511D01*
X123571000Y-47893373D01*
X123317000Y-47893373D01*
X123127020Y-47832511D01*
X122827036Y-47956755D01*
X122466348Y-48273944D01*
X122254499Y-48705018D01*
X122142464Y-48705018D01*
X122142464Y-48172000D01*
X122115897Y-48030810D01*
X122032454Y-47901135D01*
X121905134Y-47814141D01*
X121754000Y-47783536D01*
X120054000Y-47783536D01*
X119912810Y-47810103D01*
X119783135Y-47893546D01*
X119696141Y-48020866D01*
X119665536Y-48172000D01*
X119264226Y-48172000D01*
X119234448Y-48127435D01*
X118835083Y-47860587D01*
X118364000Y-47766883D01*
X117892917Y-47860587D01*
X117493552Y-48127435D01*
X117226704Y-48526800D01*
X117133000Y-48997883D01*
X113753000Y-48997883D01*
X113659296Y-48526800D01*
X113392448Y-48127435D01*
X113345723Y-48096214D01*
X114593000Y-48096214D01*
X114593000Y-48799750D01*
X114688250Y-48895000D01*
X115697000Y-48895000D01*
X115697000Y-47886250D01*
X115951000Y-47886250D01*
X115951000Y-48895000D01*
X116959750Y-48895000D01*
X117055000Y-48799750D01*
X117055000Y-48096214D01*
X116996996Y-47956180D01*
X116889819Y-47849004D01*
X116749785Y-47791000D01*
X116046250Y-47791000D01*
X115951000Y-47886250D01*
X115697000Y-47886250D01*
X115601750Y-47791000D01*
X114898215Y-47791000D01*
X114758181Y-47849004D01*
X114651004Y-47956180D01*
X114593000Y-48096214D01*
X113345723Y-48096214D01*
X112993083Y-47860587D01*
X112522000Y-47766883D01*
X112050917Y-47860587D01*
X111651552Y-48127435D01*
X111384704Y-48526800D01*
X111291000Y-48997883D01*
X99478477Y-48997883D01*
X99435296Y-48780800D01*
X99168448Y-48381435D01*
X98769083Y-48114587D01*
X98676716Y-48096214D01*
X108751000Y-48096214D01*
X108751000Y-48799750D01*
X108846250Y-48895000D01*
X109855000Y-48895000D01*
X109855000Y-47886250D01*
X110109000Y-47886250D01*
X110109000Y-48895000D01*
X111117750Y-48895000D01*
X111213000Y-48799750D01*
X111213000Y-48096214D01*
X111154996Y-47956180D01*
X111047819Y-47849004D01*
X110907785Y-47791000D01*
X110204250Y-47791000D01*
X110109000Y-47886250D01*
X109855000Y-47886250D01*
X109759750Y-47791000D01*
X109056215Y-47791000D01*
X108916181Y-47849004D01*
X108809004Y-47956180D01*
X108751000Y-48096214D01*
X98676716Y-48096214D01*
X98298000Y-48020883D01*
X97826917Y-48114587D01*
X97427552Y-48381435D01*
X97160704Y-48780800D01*
X97067000Y-49251883D01*
X94456464Y-49251883D01*
X94456464Y-48959018D01*
X94568499Y-48959018D01*
X94628807Y-49149000D01*
X95631000Y-49149000D01*
X95631000Y-48147373D01*
X95885000Y-48147373D01*
X95885000Y-49149000D01*
X96887193Y-49149000D01*
X96947501Y-48959018D01*
X96735652Y-48527944D01*
X96374964Y-48210755D01*
X96074980Y-48086511D01*
X95885000Y-48147373D01*
X95631000Y-48147373D01*
X95441020Y-48086511D01*
X95141036Y-48210755D01*
X94780348Y-48527944D01*
X94568499Y-48959018D01*
X94456464Y-48959018D01*
X94456464Y-48426000D01*
X94429897Y-48284810D01*
X94346454Y-48155135D01*
X94219134Y-48068141D01*
X94077008Y-48039360D01*
X97543368Y-44573000D01*
X136644632Y-44573000D01*
X137291000Y-45219368D01*
X137291000Y-47783536D01*
X137072000Y-47783536D01*
X136930810Y-47810103D01*
X136801135Y-47893546D01*
X136714141Y-48020866D01*
X136683536Y-48172000D01*
X136683536Y-49872000D01*
X136710103Y-50013190D01*
X136793546Y-50142865D01*
X136920866Y-50229859D01*
X137072000Y-50260464D01*
X138772000Y-50260464D01*
X138913190Y-50233897D01*
X139042865Y-50150454D01*
X139129859Y-50023134D01*
X139160464Y-49872000D01*
X139160464Y-49338982D01*
X139272499Y-49338982D01*
X139484348Y-49770056D01*
X139845036Y-50087245D01*
X140145020Y-50211489D01*
X140335000Y-50150627D01*
X140335000Y-49149000D01*
X140589000Y-49149000D01*
X140589000Y-50150627D01*
X140778980Y-50211489D01*
X141078964Y-50087245D01*
X141439652Y-49770056D01*
X141651501Y-49338982D01*
X141591193Y-49149000D01*
X140589000Y-49149000D01*
X140335000Y-49149000D01*
X139332807Y-49149000D01*
X139272499Y-49338982D01*
X139160464Y-49338982D01*
X139160464Y-48997883D01*
X141771000Y-48997883D01*
X141771000Y-49046117D01*
X141864704Y-49517200D01*
X142131552Y-49916565D01*
X142530917Y-50183413D01*
X143002000Y-50277117D01*
X143473083Y-50183413D01*
X143872448Y-49916565D01*
X144139296Y-49517200D01*
X144233000Y-49046117D01*
X144233000Y-48997883D01*
X144139296Y-48526800D01*
X143872448Y-48127435D01*
X143473083Y-47860587D01*
X143002000Y-47766883D01*
X142530917Y-47860587D01*
X142131552Y-48127435D01*
X141864704Y-48526800D01*
X141771000Y-48997883D01*
X139160464Y-48997883D01*
X139160464Y-48705018D01*
X139272499Y-48705018D01*
X139332807Y-48895000D01*
X140335000Y-48895000D01*
X140335000Y-47893373D01*
X140589000Y-47893373D01*
X140589000Y-48895000D01*
X141591193Y-48895000D01*
X141651501Y-48705018D01*
X141439652Y-48273944D01*
X141078964Y-47956755D01*
X140778980Y-47832511D01*
X140589000Y-47893373D01*
X140335000Y-47893373D01*
X140145020Y-47832511D01*
X139845036Y-47956755D01*
X139484348Y-48273944D01*
X139272499Y-48705018D01*
X139160464Y-48705018D01*
X139160464Y-48172000D01*
X139133897Y-48030810D01*
X139050454Y-47901135D01*
X138923134Y-47814141D01*
X138772000Y-47783536D01*
X138553000Y-47783536D01*
X138553000Y-44958000D01*
X138504968Y-44716527D01*
X138409066Y-44573000D01*
X145026632Y-44573000D01*
X145673000Y-45219368D01*
X145673000Y-47783536D01*
X145454000Y-47783536D01*
X145312810Y-47810103D01*
X145183135Y-47893546D01*
X145096141Y-48020866D01*
X145065536Y-48172000D01*
X145065536Y-49872000D01*
X145092103Y-50013190D01*
X145175546Y-50142865D01*
X145302866Y-50229859D01*
X145454000Y-50260464D01*
X147154000Y-50260464D01*
X147295190Y-50233897D01*
X147424865Y-50150454D01*
X147511859Y-50023134D01*
X147542464Y-49872000D01*
X147542464Y-49338982D01*
X147654499Y-49338982D01*
X147866348Y-49770056D01*
X148227036Y-50087245D01*
X148527020Y-50211489D01*
X148717000Y-50150627D01*
X148717000Y-49149000D01*
X148971000Y-49149000D01*
X148971000Y-50150627D01*
X149160980Y-50211489D01*
X149460964Y-50087245D01*
X149821652Y-49770056D01*
X150033501Y-49338982D01*
X149973193Y-49149000D01*
X148971000Y-49149000D01*
X148717000Y-49149000D01*
X147714807Y-49149000D01*
X147654499Y-49338982D01*
X147542464Y-49338982D01*
X147542464Y-48997883D01*
X150153000Y-48997883D01*
X150153000Y-49046117D01*
X150246704Y-49517200D01*
X150513552Y-49916565D01*
X150912917Y-50183413D01*
X151384000Y-50277117D01*
X151855083Y-50183413D01*
X152254448Y-49916565D01*
X152521296Y-49517200D01*
X152615000Y-49046117D01*
X152615000Y-48997883D01*
X152521296Y-48526800D01*
X152284226Y-48172000D01*
X152685536Y-48172000D01*
X152685536Y-49872000D01*
X152712103Y-50013190D01*
X152795546Y-50142865D01*
X152922866Y-50229859D01*
X153074000Y-50260464D01*
X154774000Y-50260464D01*
X154915190Y-50233897D01*
X155044865Y-50150454D01*
X155131859Y-50023134D01*
X155162464Y-49872000D01*
X155162464Y-49338982D01*
X155274499Y-49338982D01*
X155486348Y-49770056D01*
X155847036Y-50087245D01*
X156147020Y-50211489D01*
X156337000Y-50150627D01*
X156337000Y-49149000D01*
X156591000Y-49149000D01*
X156591000Y-50150627D01*
X156780980Y-50211489D01*
X157080964Y-50087245D01*
X157441652Y-49770056D01*
X157653501Y-49338982D01*
X157814499Y-49338982D01*
X158026348Y-49770056D01*
X158387036Y-50087245D01*
X158687020Y-50211489D01*
X158877000Y-50150627D01*
X158877000Y-49149000D01*
X159131000Y-49149000D01*
X159131000Y-50150627D01*
X159320980Y-50211489D01*
X159620964Y-50087245D01*
X159981652Y-49770056D01*
X160193501Y-49338982D01*
X160133193Y-49149000D01*
X159131000Y-49149000D01*
X158877000Y-49149000D01*
X157874807Y-49149000D01*
X157814499Y-49338982D01*
X157653501Y-49338982D01*
X157593193Y-49149000D01*
X156591000Y-49149000D01*
X156337000Y-49149000D01*
X155334807Y-49149000D01*
X155274499Y-49338982D01*
X155162464Y-49338982D01*
X155162464Y-48997883D01*
X160313000Y-48997883D01*
X160313000Y-49046117D01*
X160406704Y-49517200D01*
X160673552Y-49916565D01*
X161072917Y-50183413D01*
X161544000Y-50277117D01*
X162015083Y-50183413D01*
X162414448Y-49916565D01*
X162681296Y-49517200D01*
X162735588Y-49244250D01*
X169965000Y-49244250D01*
X169965000Y-49947786D01*
X170023004Y-50087820D01*
X170130181Y-50194996D01*
X170270215Y-50253000D01*
X170973750Y-50253000D01*
X171069000Y-50157750D01*
X171069000Y-49149000D01*
X171323000Y-49149000D01*
X171323000Y-50157750D01*
X171418250Y-50253000D01*
X172121785Y-50253000D01*
X172261819Y-50194996D01*
X172368996Y-50087820D01*
X172427000Y-49947786D01*
X172427000Y-49244250D01*
X172331750Y-49149000D01*
X171323000Y-49149000D01*
X171069000Y-49149000D01*
X170060250Y-49149000D01*
X169965000Y-49244250D01*
X162735588Y-49244250D01*
X162775000Y-49046117D01*
X162775000Y-48997883D01*
X172505000Y-48997883D01*
X172505000Y-49046117D01*
X172598704Y-49517200D01*
X172865552Y-49916565D01*
X173264917Y-50183413D01*
X173736000Y-50277117D01*
X174207083Y-50183413D01*
X174606448Y-49916565D01*
X174873296Y-49517200D01*
X174927588Y-49244250D01*
X175807000Y-49244250D01*
X175807000Y-49947786D01*
X175865004Y-50087820D01*
X175972181Y-50194996D01*
X176112215Y-50253000D01*
X176815750Y-50253000D01*
X176911000Y-50157750D01*
X176911000Y-49149000D01*
X177165000Y-49149000D01*
X177165000Y-50157750D01*
X177260250Y-50253000D01*
X177963785Y-50253000D01*
X178103819Y-50194996D01*
X178210996Y-50087820D01*
X178269000Y-49947786D01*
X178269000Y-49244250D01*
X178173750Y-49149000D01*
X177165000Y-49149000D01*
X176911000Y-49149000D01*
X175902250Y-49149000D01*
X175807000Y-49244250D01*
X174927588Y-49244250D01*
X174967000Y-49046117D01*
X174967000Y-48997883D01*
X178347000Y-48997883D01*
X178347000Y-49046117D01*
X178440704Y-49517200D01*
X178707552Y-49916565D01*
X179106917Y-50183413D01*
X179578000Y-50277117D01*
X180049083Y-50183413D01*
X180448448Y-49916565D01*
X180715296Y-49517200D01*
X180809000Y-49046117D01*
X180809000Y-48997883D01*
X180715296Y-48526800D01*
X180478226Y-48172000D01*
X180879536Y-48172000D01*
X180879536Y-49872000D01*
X180906103Y-50013190D01*
X180989546Y-50142865D01*
X181116866Y-50229859D01*
X181268000Y-50260464D01*
X182968000Y-50260464D01*
X183109190Y-50233897D01*
X183238865Y-50150454D01*
X183325859Y-50023134D01*
X183356464Y-49872000D01*
X183356464Y-49338982D01*
X183468499Y-49338982D01*
X183680348Y-49770056D01*
X184041036Y-50087245D01*
X184341020Y-50211489D01*
X184531000Y-50150627D01*
X184531000Y-49149000D01*
X184785000Y-49149000D01*
X184785000Y-50150627D01*
X184974980Y-50211489D01*
X185274964Y-50087245D01*
X185635652Y-49770056D01*
X185847501Y-49338982D01*
X186008499Y-49338982D01*
X186220348Y-49770056D01*
X186581036Y-50087245D01*
X186881020Y-50211489D01*
X187071000Y-50150627D01*
X187071000Y-49149000D01*
X187325000Y-49149000D01*
X187325000Y-50150627D01*
X187514980Y-50211489D01*
X187814964Y-50087245D01*
X188175652Y-49770056D01*
X188387501Y-49338982D01*
X188327193Y-49149000D01*
X187325000Y-49149000D01*
X187071000Y-49149000D01*
X186068807Y-49149000D01*
X186008499Y-49338982D01*
X185847501Y-49338982D01*
X185787193Y-49149000D01*
X184785000Y-49149000D01*
X184531000Y-49149000D01*
X183528807Y-49149000D01*
X183468499Y-49338982D01*
X183356464Y-49338982D01*
X183356464Y-48997883D01*
X188507000Y-48997883D01*
X188507000Y-49046117D01*
X188600704Y-49517200D01*
X188867552Y-49916565D01*
X189266917Y-50183413D01*
X189738000Y-50277117D01*
X190209083Y-50183413D01*
X190608448Y-49916565D01*
X190875296Y-49517200D01*
X190929588Y-49244250D01*
X198413000Y-49244250D01*
X198413000Y-49947786D01*
X198471004Y-50087820D01*
X198578181Y-50194996D01*
X198718215Y-50253000D01*
X199421750Y-50253000D01*
X199517000Y-50157750D01*
X199517000Y-49149000D01*
X199771000Y-49149000D01*
X199771000Y-50157750D01*
X199866250Y-50253000D01*
X200569785Y-50253000D01*
X200709819Y-50194996D01*
X200816996Y-50087820D01*
X200875000Y-49947786D01*
X200875000Y-49244250D01*
X200779750Y-49149000D01*
X199771000Y-49149000D01*
X199517000Y-49149000D01*
X198508250Y-49149000D01*
X198413000Y-49244250D01*
X190929588Y-49244250D01*
X190969000Y-49046117D01*
X190969000Y-48997883D01*
X200953000Y-48997883D01*
X200953000Y-49046117D01*
X201046704Y-49517200D01*
X201313552Y-49916565D01*
X201712917Y-50183413D01*
X202184000Y-50277117D01*
X202655083Y-50183413D01*
X203054448Y-49916565D01*
X203321296Y-49517200D01*
X203375588Y-49244250D01*
X204255000Y-49244250D01*
X204255000Y-49947786D01*
X204313004Y-50087820D01*
X204420181Y-50194996D01*
X204560215Y-50253000D01*
X205263750Y-50253000D01*
X205359000Y-50157750D01*
X205359000Y-49149000D01*
X205613000Y-49149000D01*
X205613000Y-50157750D01*
X205708250Y-50253000D01*
X206411785Y-50253000D01*
X206551819Y-50194996D01*
X206658996Y-50087820D01*
X206717000Y-49947786D01*
X206717000Y-49244250D01*
X206621750Y-49149000D01*
X205613000Y-49149000D01*
X205359000Y-49149000D01*
X204350250Y-49149000D01*
X204255000Y-49244250D01*
X203375588Y-49244250D01*
X203415000Y-49046117D01*
X203415000Y-48997883D01*
X206795000Y-48997883D01*
X206795000Y-49046117D01*
X206888704Y-49517200D01*
X207155552Y-49916565D01*
X207554917Y-50183413D01*
X208026000Y-50277117D01*
X208497083Y-50183413D01*
X208896448Y-49916565D01*
X209163296Y-49517200D01*
X209257000Y-49046117D01*
X209257000Y-48997883D01*
X209163296Y-48526800D01*
X208896448Y-48127435D01*
X208497083Y-47860587D01*
X208026000Y-47766883D01*
X207554917Y-47860587D01*
X207155552Y-48127435D01*
X206888704Y-48526800D01*
X206795000Y-48997883D01*
X203415000Y-48997883D01*
X203321296Y-48526800D01*
X203054448Y-48127435D01*
X203007723Y-48096214D01*
X204255000Y-48096214D01*
X204255000Y-48799750D01*
X204350250Y-48895000D01*
X205359000Y-48895000D01*
X205359000Y-47886250D01*
X205613000Y-47886250D01*
X205613000Y-48895000D01*
X206621750Y-48895000D01*
X206717000Y-48799750D01*
X206717000Y-48096214D01*
X206658996Y-47956180D01*
X206551819Y-47849004D01*
X206411785Y-47791000D01*
X205708250Y-47791000D01*
X205613000Y-47886250D01*
X205359000Y-47886250D01*
X205263750Y-47791000D01*
X204560215Y-47791000D01*
X204420181Y-47849004D01*
X204313004Y-47956180D01*
X204255000Y-48096214D01*
X203007723Y-48096214D01*
X202655083Y-47860587D01*
X202184000Y-47766883D01*
X201712917Y-47860587D01*
X201313552Y-48127435D01*
X201046704Y-48526800D01*
X200953000Y-48997883D01*
X190969000Y-48997883D01*
X190875296Y-48526800D01*
X190608448Y-48127435D01*
X190561723Y-48096214D01*
X198413000Y-48096214D01*
X198413000Y-48799750D01*
X198508250Y-48895000D01*
X199517000Y-48895000D01*
X199517000Y-47886250D01*
X199771000Y-47886250D01*
X199771000Y-48895000D01*
X200779750Y-48895000D01*
X200875000Y-48799750D01*
X200875000Y-48096214D01*
X200816996Y-47956180D01*
X200709819Y-47849004D01*
X200569785Y-47791000D01*
X199866250Y-47791000D01*
X199771000Y-47886250D01*
X199517000Y-47886250D01*
X199421750Y-47791000D01*
X198718215Y-47791000D01*
X198578181Y-47849004D01*
X198471004Y-47956180D01*
X198413000Y-48096214D01*
X190561723Y-48096214D01*
X190209083Y-47860587D01*
X189738000Y-47766883D01*
X189266917Y-47860587D01*
X188867552Y-48127435D01*
X188600704Y-48526800D01*
X188507000Y-48997883D01*
X183356464Y-48997883D01*
X183356464Y-48705018D01*
X183468499Y-48705018D01*
X183528807Y-48895000D01*
X184531000Y-48895000D01*
X184531000Y-47893373D01*
X184785000Y-47893373D01*
X184785000Y-48895000D01*
X185787193Y-48895000D01*
X185847501Y-48705018D01*
X186008499Y-48705018D01*
X186068807Y-48895000D01*
X187071000Y-48895000D01*
X187071000Y-47893373D01*
X187325000Y-47893373D01*
X187325000Y-48895000D01*
X188327193Y-48895000D01*
X188387501Y-48705018D01*
X188175652Y-48273944D01*
X187814964Y-47956755D01*
X187514980Y-47832511D01*
X187325000Y-47893373D01*
X187071000Y-47893373D01*
X186881020Y-47832511D01*
X186581036Y-47956755D01*
X186220348Y-48273944D01*
X186008499Y-48705018D01*
X185847501Y-48705018D01*
X185635652Y-48273944D01*
X185274964Y-47956755D01*
X184974980Y-47832511D01*
X184785000Y-47893373D01*
X184531000Y-47893373D01*
X184341020Y-47832511D01*
X184041036Y-47956755D01*
X183680348Y-48273944D01*
X183468499Y-48705018D01*
X183356464Y-48705018D01*
X183356464Y-48172000D01*
X183329897Y-48030810D01*
X183246454Y-47901135D01*
X183119134Y-47814141D01*
X182968000Y-47783536D01*
X181268000Y-47783536D01*
X181126810Y-47810103D01*
X180997135Y-47893546D01*
X180910141Y-48020866D01*
X180879536Y-48172000D01*
X180478226Y-48172000D01*
X180448448Y-48127435D01*
X180049083Y-47860587D01*
X179578000Y-47766883D01*
X179106917Y-47860587D01*
X178707552Y-48127435D01*
X178440704Y-48526800D01*
X178347000Y-48997883D01*
X174967000Y-48997883D01*
X174873296Y-48526800D01*
X174606448Y-48127435D01*
X174559723Y-48096214D01*
X175807000Y-48096214D01*
X175807000Y-48799750D01*
X175902250Y-48895000D01*
X176911000Y-48895000D01*
X176911000Y-47886250D01*
X177165000Y-47886250D01*
X177165000Y-48895000D01*
X178173750Y-48895000D01*
X178269000Y-48799750D01*
X178269000Y-48096214D01*
X178210996Y-47956180D01*
X178103819Y-47849004D01*
X177963785Y-47791000D01*
X177260250Y-47791000D01*
X177165000Y-47886250D01*
X176911000Y-47886250D01*
X176815750Y-47791000D01*
X176112215Y-47791000D01*
X175972181Y-47849004D01*
X175865004Y-47956180D01*
X175807000Y-48096214D01*
X174559723Y-48096214D01*
X174207083Y-47860587D01*
X173736000Y-47766883D01*
X173264917Y-47860587D01*
X172865552Y-48127435D01*
X172598704Y-48526800D01*
X172505000Y-48997883D01*
X162775000Y-48997883D01*
X162681296Y-48526800D01*
X162414448Y-48127435D01*
X162367723Y-48096214D01*
X169965000Y-48096214D01*
X169965000Y-48799750D01*
X170060250Y-48895000D01*
X171069000Y-48895000D01*
X171069000Y-47886250D01*
X171323000Y-47886250D01*
X171323000Y-48895000D01*
X172331750Y-48895000D01*
X172427000Y-48799750D01*
X172427000Y-48096214D01*
X172368996Y-47956180D01*
X172261819Y-47849004D01*
X172121785Y-47791000D01*
X171418250Y-47791000D01*
X171323000Y-47886250D01*
X171069000Y-47886250D01*
X170973750Y-47791000D01*
X170270215Y-47791000D01*
X170130181Y-47849004D01*
X170023004Y-47956180D01*
X169965000Y-48096214D01*
X162367723Y-48096214D01*
X162015083Y-47860587D01*
X161544000Y-47766883D01*
X161072917Y-47860587D01*
X160673552Y-48127435D01*
X160406704Y-48526800D01*
X160313000Y-48997883D01*
X155162464Y-48997883D01*
X155162464Y-48705018D01*
X155274499Y-48705018D01*
X155334807Y-48895000D01*
X156337000Y-48895000D01*
X156337000Y-47893373D01*
X156591000Y-47893373D01*
X156591000Y-48895000D01*
X157593193Y-48895000D01*
X157653501Y-48705018D01*
X157814499Y-48705018D01*
X157874807Y-48895000D01*
X158877000Y-48895000D01*
X158877000Y-47893373D01*
X159131000Y-47893373D01*
X159131000Y-48895000D01*
X160133193Y-48895000D01*
X160193501Y-48705018D01*
X159981652Y-48273944D01*
X159620964Y-47956755D01*
X159320980Y-47832511D01*
X159131000Y-47893373D01*
X158877000Y-47893373D01*
X158687020Y-47832511D01*
X158387036Y-47956755D01*
X158026348Y-48273944D01*
X157814499Y-48705018D01*
X157653501Y-48705018D01*
X157441652Y-48273944D01*
X157080964Y-47956755D01*
X156780980Y-47832511D01*
X156591000Y-47893373D01*
X156337000Y-47893373D01*
X156147020Y-47832511D01*
X155847036Y-47956755D01*
X155486348Y-48273944D01*
X155274499Y-48705018D01*
X155162464Y-48705018D01*
X155162464Y-48172000D01*
X155135897Y-48030810D01*
X155052454Y-47901135D01*
X154925134Y-47814141D01*
X154774000Y-47783536D01*
X153074000Y-47783536D01*
X152932810Y-47810103D01*
X152803135Y-47893546D01*
X152716141Y-48020866D01*
X152685536Y-48172000D01*
X152284226Y-48172000D01*
X152254448Y-48127435D01*
X151855083Y-47860587D01*
X151384000Y-47766883D01*
X150912917Y-47860587D01*
X150513552Y-48127435D01*
X150246704Y-48526800D01*
X150153000Y-48997883D01*
X147542464Y-48997883D01*
X147542464Y-48705018D01*
X147654499Y-48705018D01*
X147714807Y-48895000D01*
X148717000Y-48895000D01*
X148717000Y-47893373D01*
X148971000Y-47893373D01*
X148971000Y-48895000D01*
X149973193Y-48895000D01*
X150033501Y-48705018D01*
X149821652Y-48273944D01*
X149460964Y-47956755D01*
X149160980Y-47832511D01*
X148971000Y-47893373D01*
X148717000Y-47893373D01*
X148527020Y-47832511D01*
X148227036Y-47956755D01*
X147866348Y-48273944D01*
X147654499Y-48705018D01*
X147542464Y-48705018D01*
X147542464Y-48172000D01*
X147515897Y-48030810D01*
X147432454Y-47901135D01*
X147305134Y-47814141D01*
X147154000Y-47783536D01*
X146935000Y-47783536D01*
X146935000Y-44958000D01*
X146886968Y-44716527D01*
X146750184Y-44511816D01*
X145734184Y-43495816D01*
X145529473Y-43359032D01*
X145288000Y-43311000D01*
X97282000Y-43311000D01*
X97040527Y-43359032D01*
X96835816Y-43495816D01*
X92771816Y-47559816D01*
X92635032Y-47764527D01*
X92587000Y-48006000D01*
X92587000Y-48037536D01*
X92368000Y-48037536D01*
X92226810Y-48064103D01*
X92097135Y-48147546D01*
X92010141Y-48274866D01*
X91979536Y-48426000D01*
X90456000Y-48426000D01*
X90456000Y-42956000D01*
X224544000Y-42956000D01*
X224544000Y-97044000D01*
X224544000Y-97044000D01*
G37*
X224544000Y-97044000D02*
X203497658Y-97044000D01*
X217991658Y-82550000D01*
X222010883Y-82550000D01*
X222104587Y-83021083D01*
X222371435Y-83420448D01*
X222770800Y-83687296D01*
X223241883Y-83781000D01*
X223290117Y-83781000D01*
X223761200Y-83687296D01*
X224160565Y-83420448D01*
X224427413Y-83021083D01*
X224521117Y-82550000D01*
X224427413Y-82078917D01*
X224160565Y-81679552D01*
X223761200Y-81412704D01*
X223290117Y-81319000D01*
X223241883Y-81319000D01*
X222770800Y-81412704D01*
X222371435Y-81679552D01*
X222104587Y-82078917D01*
X222010883Y-82550000D01*
X217991658Y-82550000D01*
X219950658Y-80591000D01*
X222178031Y-80591000D01*
X222371435Y-80880448D01*
X222770800Y-81147296D01*
X223241883Y-81241000D01*
X223290117Y-81241000D01*
X223761200Y-81147296D01*
X224160565Y-80880448D01*
X224427413Y-80481083D01*
X224521117Y-80010000D01*
X224427413Y-79538917D01*
X224160565Y-79139552D01*
X223761200Y-78872704D01*
X223290117Y-78779000D01*
X223241883Y-78779000D01*
X222770800Y-78872704D01*
X222371435Y-79139552D01*
X222178031Y-79429000D01*
X219710000Y-79429000D01*
X219487661Y-79473226D01*
X219299171Y-79599171D01*
X202705342Y-96193000D01*
X195058658Y-96193000D01*
X194129000Y-95263342D01*
X194129000Y-95067969D01*
X194418448Y-94874565D01*
X194685296Y-94475200D01*
X194779000Y-94004117D01*
X194779000Y-93955883D01*
X194857000Y-93955883D01*
X194857000Y-94004117D01*
X194950704Y-94475200D01*
X195217552Y-94874565D01*
X195616917Y-95141413D01*
X196088000Y-95235117D01*
X196559083Y-95141413D01*
X196958448Y-94874565D01*
X197225296Y-94475200D01*
X197319000Y-94004117D01*
X197319000Y-93955883D01*
X197397000Y-93955883D01*
X197397000Y-94004117D01*
X197490704Y-94475200D01*
X197757552Y-94874565D01*
X198156917Y-95141413D01*
X198628000Y-95235117D01*
X199099083Y-95141413D01*
X199498448Y-94874565D01*
X199765296Y-94475200D01*
X199859000Y-94004117D01*
X199859000Y-93955883D01*
X199765296Y-93484800D01*
X199528226Y-93130000D01*
X199929536Y-93130000D01*
X199929536Y-94830000D01*
X199956103Y-94971190D01*
X200039546Y-95100865D01*
X200166866Y-95187859D01*
X200318000Y-95218464D01*
X202018000Y-95218464D01*
X202159190Y-95191897D01*
X202288865Y-95108454D01*
X202375859Y-94981134D01*
X202406464Y-94830000D01*
X202406464Y-93130000D01*
X202379897Y-92988810D01*
X202296454Y-92859135D01*
X202169134Y-92772141D01*
X202018000Y-92741536D01*
X200318000Y-92741536D01*
X200176810Y-92768103D01*
X200047135Y-92851546D01*
X199960141Y-92978866D01*
X199929536Y-93130000D01*
X199528226Y-93130000D01*
X199498448Y-93085435D01*
X199099083Y-92818587D01*
X198628000Y-92724883D01*
X198156917Y-92818587D01*
X197757552Y-93085435D01*
X197490704Y-93484800D01*
X197397000Y-93955883D01*
X197319000Y-93955883D01*
X197225296Y-93484800D01*
X196958448Y-93085435D01*
X196559083Y-92818587D01*
X196088000Y-92724883D01*
X195616917Y-92818587D01*
X195217552Y-93085435D01*
X194950704Y-93484800D01*
X194857000Y-93955883D01*
X194779000Y-93955883D01*
X194685296Y-93484800D01*
X194418448Y-93085435D01*
X194019083Y-92818587D01*
X193548000Y-92724883D01*
X193076917Y-92818587D01*
X192677552Y-93085435D01*
X192410704Y-93484800D01*
X192317000Y-93955883D01*
X192317000Y-94004117D01*
X192410704Y-94475200D01*
X192677552Y-94874565D01*
X192967000Y-95067969D01*
X192967000Y-95504000D01*
X193011226Y-95726339D01*
X193137171Y-95914829D01*
X194266342Y-97044000D01*
X161841658Y-97044000D01*
X164929775Y-93955883D01*
X169457000Y-93955883D01*
X169457000Y-94004117D01*
X169550704Y-94475200D01*
X169817552Y-94874565D01*
X170216917Y-95141413D01*
X170688000Y-95235117D01*
X171159083Y-95141413D01*
X171558448Y-94874565D01*
X171825296Y-94475200D01*
X171919000Y-94004117D01*
X171919000Y-93955883D01*
X171997000Y-93955883D01*
X171997000Y-94004117D01*
X172090704Y-94475200D01*
X172357552Y-94874565D01*
X172756917Y-95141413D01*
X173228000Y-95235117D01*
X173699083Y-95141413D01*
X174098448Y-94874565D01*
X174365296Y-94475200D01*
X174459000Y-94004117D01*
X174459000Y-93955883D01*
X174537000Y-93955883D01*
X174537000Y-94004117D01*
X174630704Y-94475200D01*
X174897552Y-94874565D01*
X175296917Y-95141413D01*
X175768000Y-95235117D01*
X176239083Y-95141413D01*
X176638448Y-94874565D01*
X176905296Y-94475200D01*
X176999000Y-94004117D01*
X176999000Y-93955883D01*
X177077000Y-93955883D01*
X177077000Y-94004117D01*
X177170704Y-94475200D01*
X177437552Y-94874565D01*
X177836917Y-95141413D01*
X178308000Y-95235117D01*
X178779083Y-95141413D01*
X179178448Y-94874565D01*
X179445296Y-94475200D01*
X179539000Y-94004117D01*
X179539000Y-93955883D01*
X179617000Y-93955883D01*
X179617000Y-94004117D01*
X179710704Y-94475200D01*
X179977552Y-94874565D01*
X180376917Y-95141413D01*
X180848000Y-95235117D01*
X181319083Y-95141413D01*
X181718448Y-94874565D01*
X181985296Y-94475200D01*
X182079000Y-94004117D01*
X182079000Y-93955883D01*
X182157000Y-93955883D01*
X182157000Y-94004117D01*
X182250704Y-94475200D01*
X182517552Y-94874565D01*
X182916917Y-95141413D01*
X183388000Y-95235117D01*
X183859083Y-95141413D01*
X184258448Y-94874565D01*
X184525296Y-94475200D01*
X184619000Y-94004117D01*
X184619000Y-93955883D01*
X184697000Y-93955883D01*
X184697000Y-94004117D01*
X184790704Y-94475200D01*
X185057552Y-94874565D01*
X185456917Y-95141413D01*
X185928000Y-95235117D01*
X186399083Y-95141413D01*
X186798448Y-94874565D01*
X187065296Y-94475200D01*
X187159000Y-94004117D01*
X187159000Y-93955883D01*
X187237000Y-93955883D01*
X187237000Y-94004117D01*
X187330704Y-94475200D01*
X187597552Y-94874565D01*
X187996917Y-95141413D01*
X188468000Y-95235117D01*
X188939083Y-95141413D01*
X189338448Y-94874565D01*
X189605296Y-94475200D01*
X189699000Y-94004117D01*
X189699000Y-93955883D01*
X189777000Y-93955883D01*
X189777000Y-94004117D01*
X189870704Y-94475200D01*
X190137552Y-94874565D01*
X190536917Y-95141413D01*
X191008000Y-95235117D01*
X191479083Y-95141413D01*
X191878448Y-94874565D01*
X192145296Y-94475200D01*
X192239000Y-94004117D01*
X192239000Y-93955883D01*
X192145296Y-93484800D01*
X191878448Y-93085435D01*
X191479083Y-92818587D01*
X191008000Y-92724883D01*
X190536917Y-92818587D01*
X190137552Y-93085435D01*
X189870704Y-93484800D01*
X189777000Y-93955883D01*
X189699000Y-93955883D01*
X189605296Y-93484800D01*
X189338448Y-93085435D01*
X188939083Y-92818587D01*
X188468000Y-92724883D01*
X187996917Y-92818587D01*
X187597552Y-93085435D01*
X187330704Y-93484800D01*
X187237000Y-93955883D01*
X187159000Y-93955883D01*
X187065296Y-93484800D01*
X186798448Y-93085435D01*
X186399083Y-92818587D01*
X185928000Y-92724883D01*
X185456917Y-92818587D01*
X185057552Y-93085435D01*
X184790704Y-93484800D01*
X184697000Y-93955883D01*
X184619000Y-93955883D01*
X184525296Y-93484800D01*
X184258448Y-93085435D01*
X183859083Y-92818587D01*
X183388000Y-92724883D01*
X182916917Y-92818587D01*
X182517552Y-93085435D01*
X182250704Y-93484800D01*
X182157000Y-93955883D01*
X182079000Y-93955883D01*
X181985296Y-93484800D01*
X181718448Y-93085435D01*
X181319083Y-92818587D01*
X180848000Y-92724883D01*
X180376917Y-92818587D01*
X179977552Y-93085435D01*
X179710704Y-93484800D01*
X179617000Y-93955883D01*
X179539000Y-93955883D01*
X179445296Y-93484800D01*
X179178448Y-93085435D01*
X178779083Y-92818587D01*
X178308000Y-92724883D01*
X177836917Y-92818587D01*
X177437552Y-93085435D01*
X177170704Y-93484800D01*
X177077000Y-93955883D01*
X176999000Y-93955883D01*
X176905296Y-93484800D01*
X176638448Y-93085435D01*
X176239083Y-92818587D01*
X175768000Y-92724883D01*
X175296917Y-92818587D01*
X174897552Y-93085435D01*
X174630704Y-93484800D01*
X174537000Y-93955883D01*
X174459000Y-93955883D01*
X174365296Y-93484800D01*
X174098448Y-93085435D01*
X173699083Y-92818587D01*
X173228000Y-92724883D01*
X172756917Y-92818587D01*
X172357552Y-93085435D01*
X172090704Y-93484800D01*
X171997000Y-93955883D01*
X171919000Y-93955883D01*
X171825296Y-93484800D01*
X171558448Y-93085435D01*
X171159083Y-92818587D01*
X170688000Y-92724883D01*
X170216917Y-92818587D01*
X169817552Y-93085435D01*
X169550704Y-93484800D01*
X169457000Y-93955883D01*
X164929775Y-93955883D01*
X167818793Y-91066865D01*
X196168882Y-91066865D01*
X196272339Y-91317252D01*
X196463741Y-91508987D01*
X196713946Y-91612882D01*
X196984865Y-91613118D01*
X197235252Y-91509661D01*
X197426987Y-91318259D01*
X197477318Y-91197050D01*
X210573368Y-78101000D01*
X216623440Y-78101000D01*
X216783435Y-78340448D01*
X217182800Y-78607296D01*
X217653883Y-78701000D01*
X217702117Y-78701000D01*
X218173200Y-78607296D01*
X218572565Y-78340448D01*
X218839413Y-77941083D01*
X218870065Y-77786980D01*
X222076511Y-77786980D01*
X222200755Y-78086964D01*
X222517944Y-78447652D01*
X222949018Y-78659501D01*
X223139000Y-78599193D01*
X223139000Y-77597000D01*
X223393000Y-77597000D01*
X223393000Y-78599193D01*
X223582982Y-78659501D01*
X224014056Y-78447652D01*
X224331245Y-78086964D01*
X224455489Y-77786980D01*
X224394627Y-77597000D01*
X223393000Y-77597000D01*
X223139000Y-77597000D01*
X222137373Y-77597000D01*
X222076511Y-77786980D01*
X218870065Y-77786980D01*
X218933117Y-77470000D01*
X218870066Y-77153020D01*
X222076511Y-77153020D01*
X222137373Y-77343000D01*
X223139000Y-77343000D01*
X223139000Y-76340807D01*
X223393000Y-76340807D01*
X223393000Y-77343000D01*
X224394627Y-77343000D01*
X224455489Y-77153020D01*
X224331245Y-76853036D01*
X224014056Y-76492348D01*
X223582982Y-76280499D01*
X223393000Y-76340807D01*
X223139000Y-76340807D01*
X222949018Y-76280499D01*
X222517944Y-76492348D01*
X222200755Y-76853036D01*
X222076511Y-77153020D01*
X218870066Y-77153020D01*
X218839413Y-76998917D01*
X218572565Y-76599552D01*
X218173200Y-76332704D01*
X217702117Y-76239000D01*
X217653883Y-76239000D01*
X217182800Y-76332704D01*
X216783435Y-76599552D01*
X216623440Y-76839000D01*
X210312000Y-76839000D01*
X210070527Y-76887032D01*
X209865816Y-77023816D01*
X196584965Y-90304667D01*
X196464748Y-90354339D01*
X196273013Y-90545741D01*
X196169118Y-90795946D01*
X196168882Y-91066865D01*
X167818793Y-91066865D01*
X168388658Y-90497000D01*
X184658000Y-90497000D01*
X184880339Y-90452774D01*
X185068829Y-90326829D01*
X187862829Y-87532829D01*
X187988774Y-87344339D01*
X188033000Y-87122000D01*
X188033000Y-87002865D01*
X196930882Y-87002865D01*
X197034339Y-87253252D01*
X197225741Y-87444987D01*
X197475946Y-87548882D01*
X197746865Y-87549118D01*
X197997252Y-87445661D01*
X198188987Y-87254259D01*
X198239318Y-87133050D01*
X210442368Y-74930000D01*
X216422883Y-74930000D01*
X216516587Y-75401083D01*
X216783435Y-75800448D01*
X217182800Y-76067296D01*
X217653883Y-76161000D01*
X217702117Y-76161000D01*
X218173200Y-76067296D01*
X218572565Y-75800448D01*
X218839413Y-75401083D01*
X218933117Y-74930000D01*
X222010883Y-74930000D01*
X222104587Y-75401083D01*
X222371435Y-75800448D01*
X222770800Y-76067296D01*
X223241883Y-76161000D01*
X223290117Y-76161000D01*
X223761200Y-76067296D01*
X224160565Y-75800448D01*
X224427413Y-75401083D01*
X224521117Y-74930000D01*
X224427413Y-74458917D01*
X224160565Y-74059552D01*
X223761200Y-73792704D01*
X223290117Y-73699000D01*
X223241883Y-73699000D01*
X222770800Y-73792704D01*
X222371435Y-74059552D01*
X222104587Y-74458917D01*
X222010883Y-74930000D01*
X218933117Y-74930000D01*
X218839413Y-74458917D01*
X218572565Y-74059552D01*
X218173200Y-73792704D01*
X217702117Y-73699000D01*
X217653883Y-73699000D01*
X217182800Y-73792704D01*
X216783435Y-74059552D01*
X216516587Y-74458917D01*
X216422883Y-74930000D01*
X210442368Y-74930000D01*
X212351368Y-73021000D01*
X216439536Y-73021000D01*
X216439536Y-73240000D01*
X216466103Y-73381190D01*
X216549546Y-73510865D01*
X216676866Y-73597859D01*
X216828000Y-73628464D01*
X218528000Y-73628464D01*
X218669190Y-73601897D01*
X218798865Y-73518454D01*
X218885859Y-73391134D01*
X218916464Y-73240000D01*
X218916464Y-71540000D01*
X222027536Y-71540000D01*
X222027536Y-73240000D01*
X222054103Y-73381190D01*
X222137546Y-73510865D01*
X222264866Y-73597859D01*
X222416000Y-73628464D01*
X224116000Y-73628464D01*
X224257190Y-73601897D01*
X224386865Y-73518454D01*
X224473859Y-73391134D01*
X224504464Y-73240000D01*
X224504464Y-71540000D01*
X224477897Y-71398810D01*
X224394454Y-71269135D01*
X224267134Y-71182141D01*
X224116000Y-71151536D01*
X222416000Y-71151536D01*
X222274810Y-71178103D01*
X222145135Y-71261546D01*
X222058141Y-71388866D01*
X222027536Y-71540000D01*
X218916464Y-71540000D01*
X218889897Y-71398810D01*
X218806454Y-71269135D01*
X218679134Y-71182141D01*
X218528000Y-71151536D01*
X216828000Y-71151536D01*
X216686810Y-71178103D01*
X216557135Y-71261546D01*
X216470141Y-71388866D01*
X216439536Y-71540000D01*
X216439536Y-71759000D01*
X212090000Y-71759000D01*
X211848527Y-71807032D01*
X211643816Y-71943816D01*
X197346965Y-86240667D01*
X197226748Y-86290339D01*
X197035013Y-86481741D01*
X196931118Y-86731946D01*
X196930882Y-87002865D01*
X188033000Y-87002865D01*
X188033000Y-84332332D01*
X188310230Y-84147093D01*
X188566239Y-83763949D01*
X188656137Y-83312000D01*
X188566239Y-82860051D01*
X188310230Y-82476907D01*
X187927086Y-82220898D01*
X187475137Y-82131000D01*
X187428863Y-82131000D01*
X186976914Y-82220898D01*
X186593770Y-82476907D01*
X186337761Y-82860051D01*
X186247863Y-83312000D01*
X186337761Y-83763949D01*
X186593770Y-84147093D01*
X186871000Y-84332332D01*
X186871000Y-86881342D01*
X184417342Y-89335000D01*
X168148000Y-89335000D01*
X167925661Y-89379226D01*
X167737171Y-89505171D01*
X161049342Y-96193000D01*
X146290658Y-96193000D01*
X145869000Y-95771342D01*
X145869000Y-95067969D01*
X146158448Y-94874565D01*
X146425296Y-94475200D01*
X146519000Y-94004117D01*
X146519000Y-93955883D01*
X146597000Y-93955883D01*
X146597000Y-94004117D01*
X146690704Y-94475200D01*
X146957552Y-94874565D01*
X147356917Y-95141413D01*
X147828000Y-95235117D01*
X148299083Y-95141413D01*
X148698448Y-94874565D01*
X148965296Y-94475200D01*
X149059000Y-94004117D01*
X149059000Y-93955883D01*
X149137000Y-93955883D01*
X149137000Y-94004117D01*
X149230704Y-94475200D01*
X149497552Y-94874565D01*
X149896917Y-95141413D01*
X150368000Y-95235117D01*
X150839083Y-95141413D01*
X151238448Y-94874565D01*
X151505296Y-94475200D01*
X151599000Y-94004117D01*
X151599000Y-93955883D01*
X151677000Y-93955883D01*
X151677000Y-94004117D01*
X151770704Y-94475200D01*
X152037552Y-94874565D01*
X152436917Y-95141413D01*
X152908000Y-95235117D01*
X153379083Y-95141413D01*
X153778448Y-94874565D01*
X154045296Y-94475200D01*
X154139000Y-94004117D01*
X154139000Y-93955883D01*
X154217000Y-93955883D01*
X154217000Y-94004117D01*
X154310704Y-94475200D01*
X154577552Y-94874565D01*
X154976917Y-95141413D01*
X155448000Y-95235117D01*
X155919083Y-95141413D01*
X156318448Y-94874565D01*
X156585296Y-94475200D01*
X156679000Y-94004117D01*
X156679000Y-93955883D01*
X156585296Y-93484800D01*
X156348226Y-93130000D01*
X156749536Y-93130000D01*
X156749536Y-94830000D01*
X156776103Y-94971190D01*
X156859546Y-95100865D01*
X156986866Y-95187859D01*
X157138000Y-95218464D01*
X158838000Y-95218464D01*
X158979190Y-95191897D01*
X159108865Y-95108454D01*
X159195859Y-94981134D01*
X159226464Y-94830000D01*
X159226464Y-93130000D01*
X159199897Y-92988810D01*
X159116454Y-92859135D01*
X158989134Y-92772141D01*
X158838000Y-92741536D01*
X157138000Y-92741536D01*
X156996810Y-92768103D01*
X156867135Y-92851546D01*
X156780141Y-92978866D01*
X156749536Y-93130000D01*
X156348226Y-93130000D01*
X156318448Y-93085435D01*
X155919083Y-92818587D01*
X155448000Y-92724883D01*
X154976917Y-92818587D01*
X154577552Y-93085435D01*
X154310704Y-93484800D01*
X154217000Y-93955883D01*
X154139000Y-93955883D01*
X154045296Y-93484800D01*
X153778448Y-93085435D01*
X153379083Y-92818587D01*
X152908000Y-92724883D01*
X152436917Y-92818587D01*
X152037552Y-93085435D01*
X151770704Y-93484800D01*
X151677000Y-93955883D01*
X151599000Y-93955883D01*
X151505296Y-93484800D01*
X151238448Y-93085435D01*
X150839083Y-92818587D01*
X150368000Y-92724883D01*
X149896917Y-92818587D01*
X149497552Y-93085435D01*
X149230704Y-93484800D01*
X149137000Y-93955883D01*
X149059000Y-93955883D01*
X148965296Y-93484800D01*
X148698448Y-93085435D01*
X148409000Y-92892031D01*
X148409000Y-90664658D01*
X155180658Y-83893000D01*
X157975990Y-83893000D01*
X158145770Y-84147093D01*
X158528914Y-84403102D01*
X158980863Y-84493000D01*
X159027137Y-84493000D01*
X159479086Y-84403102D01*
X159811867Y-84180744D01*
X168474861Y-84180744D01*
X168562918Y-84355383D01*
X169007959Y-84505984D01*
X169476755Y-84474812D01*
X169765082Y-84355383D01*
X169853139Y-84180744D01*
X169164000Y-83491605D01*
X168474861Y-84180744D01*
X159811867Y-84180744D01*
X159862230Y-84147093D01*
X160118239Y-83763949D01*
X160208137Y-83312000D01*
X160177099Y-83155959D01*
X167970016Y-83155959D01*
X168001188Y-83624755D01*
X168120617Y-83913082D01*
X168295256Y-84001139D01*
X168984395Y-83312000D01*
X169343605Y-83312000D01*
X170032744Y-84001139D01*
X170207383Y-83913082D01*
X170357984Y-83468041D01*
X170326812Y-82999245D01*
X170207383Y-82710918D01*
X170032744Y-82622861D01*
X169343605Y-83312000D01*
X168984395Y-83312000D01*
X168295256Y-82622861D01*
X168120617Y-82710918D01*
X167970016Y-83155959D01*
X160177099Y-83155959D01*
X160118239Y-82860051D01*
X159862230Y-82476907D01*
X159811868Y-82443256D01*
X168474861Y-82443256D01*
X169164000Y-83132395D01*
X169853139Y-82443256D01*
X169765082Y-82268617D01*
X169320041Y-82118016D01*
X168851245Y-82149188D01*
X168562918Y-82268617D01*
X168474861Y-82443256D01*
X159811868Y-82443256D01*
X159479086Y-82220898D01*
X159027137Y-82131000D01*
X158980863Y-82131000D01*
X158528914Y-82220898D01*
X158145770Y-82476907D01*
X157975990Y-82731000D01*
X154940000Y-82731000D01*
X154717661Y-82775226D01*
X154529171Y-82901171D01*
X147417171Y-90013171D01*
X147291226Y-90201661D01*
X147247000Y-90424000D01*
X147247000Y-92892031D01*
X146957552Y-93085435D01*
X146690704Y-93484800D01*
X146597000Y-93955883D01*
X146519000Y-93955883D01*
X146425296Y-93484800D01*
X146158448Y-93085435D01*
X145759083Y-92818587D01*
X145288000Y-92724883D01*
X144816917Y-92818587D01*
X144417552Y-93085435D01*
X144150704Y-93484800D01*
X144057000Y-93955883D01*
X144057000Y-94004117D01*
X144150704Y-94475200D01*
X144417552Y-94874565D01*
X144707000Y-95067969D01*
X144707000Y-96012000D01*
X144751226Y-96234339D01*
X144877171Y-96422829D01*
X145498342Y-97044000D01*
X90456000Y-97044000D01*
X90456000Y-94296982D01*
X126318499Y-94296982D01*
X126530348Y-94728056D01*
X126891036Y-95045245D01*
X127191020Y-95169489D01*
X127381000Y-95108627D01*
X127381000Y-94107000D01*
X127635000Y-94107000D01*
X127635000Y-95108627D01*
X127824980Y-95169489D01*
X128124964Y-95045245D01*
X128485652Y-94728056D01*
X128697501Y-94296982D01*
X128637193Y-94107000D01*
X127635000Y-94107000D01*
X127381000Y-94107000D01*
X126378807Y-94107000D01*
X126318499Y-94296982D01*
X90456000Y-94296982D01*
X90456000Y-93955883D01*
X128817000Y-93955883D01*
X128817000Y-94004117D01*
X128910704Y-94475200D01*
X129177552Y-94874565D01*
X129576917Y-95141413D01*
X130048000Y-95235117D01*
X130519083Y-95141413D01*
X130918448Y-94874565D01*
X131185296Y-94475200D01*
X131279000Y-94004117D01*
X131279000Y-93955883D01*
X131185296Y-93484800D01*
X130918448Y-93085435D01*
X130519083Y-92818587D01*
X130048000Y-92724883D01*
X129576917Y-92818587D01*
X129177552Y-93085435D01*
X128910704Y-93484800D01*
X128817000Y-93955883D01*
X90456000Y-93955883D01*
X90456000Y-93663018D01*
X126318499Y-93663018D01*
X126378807Y-93853000D01*
X127381000Y-93853000D01*
X127381000Y-92851373D01*
X127635000Y-92851373D01*
X127635000Y-93853000D01*
X128637193Y-93853000D01*
X128697501Y-93663018D01*
X128485652Y-93231944D01*
X128124964Y-92914755D01*
X127824980Y-92790511D01*
X127635000Y-92851373D01*
X127381000Y-92851373D01*
X127191020Y-92790511D01*
X126891036Y-92914755D01*
X126530348Y-93231944D01*
X126318499Y-93663018D01*
X90456000Y-93663018D01*
X90456000Y-84074000D01*
X111571863Y-84074000D01*
X111661761Y-84525949D01*
X111917770Y-84909093D01*
X112300914Y-85165102D01*
X112752863Y-85255000D01*
X112799137Y-85255000D01*
X113251086Y-85165102D01*
X113634230Y-84909093D01*
X113890239Y-84525949D01*
X113980137Y-84074000D01*
X113890239Y-83622051D01*
X113634230Y-83238907D01*
X113251086Y-82982898D01*
X112799137Y-82893000D01*
X112752863Y-82893000D01*
X112300914Y-82982898D01*
X111917770Y-83238907D01*
X111661761Y-83622051D01*
X111571863Y-84074000D01*
X90456000Y-84074000D01*
X90456000Y-80772000D01*
X111571863Y-80772000D01*
X111661761Y-81223949D01*
X111917770Y-81607093D01*
X112300914Y-81863102D01*
X112752863Y-81953000D01*
X112799137Y-81953000D01*
X113251086Y-81863102D01*
X113634230Y-81607093D01*
X113890239Y-81223949D01*
X113980137Y-80772000D01*
X113890239Y-80320051D01*
X113634230Y-79936907D01*
X113251086Y-79680898D01*
X112799137Y-79591000D01*
X112752863Y-79591000D01*
X112300914Y-79680898D01*
X111917770Y-79936907D01*
X111661761Y-80320051D01*
X111571863Y-80772000D01*
X90456000Y-80772000D01*
X90456000Y-78994000D01*
X118241000Y-78994000D01*
X118241000Y-84582000D01*
X118277031Y-84763139D01*
X118289032Y-84823473D01*
X118425816Y-85028184D01*
X120203816Y-86806185D01*
X120408527Y-86942968D01*
X120650000Y-86991000D01*
X127500632Y-86991000D01*
X131957000Y-91447369D01*
X131957000Y-92925440D01*
X131717552Y-93085435D01*
X131450704Y-93484800D01*
X131357000Y-93955883D01*
X131357000Y-94004117D01*
X131450704Y-94475200D01*
X131717552Y-94874565D01*
X132116917Y-95141413D01*
X132588000Y-95235117D01*
X133059083Y-95141413D01*
X133458448Y-94874565D01*
X133725296Y-94475200D01*
X133819000Y-94004117D01*
X133819000Y-93955883D01*
X133897000Y-93955883D01*
X133897000Y-94004117D01*
X133990704Y-94475200D01*
X134257552Y-94874565D01*
X134656917Y-95141413D01*
X135128000Y-95235117D01*
X135599083Y-95141413D01*
X135998448Y-94874565D01*
X136265296Y-94475200D01*
X136359000Y-94004117D01*
X136359000Y-93955883D01*
X136437000Y-93955883D01*
X136437000Y-94004117D01*
X136530704Y-94475200D01*
X136797552Y-94874565D01*
X137196917Y-95141413D01*
X137668000Y-95235117D01*
X138139083Y-95141413D01*
X138538448Y-94874565D01*
X138805296Y-94475200D01*
X138899000Y-94004117D01*
X138899000Y-93955883D01*
X138977000Y-93955883D01*
X138977000Y-94004117D01*
X139070704Y-94475200D01*
X139337552Y-94874565D01*
X139736917Y-95141413D01*
X140208000Y-95235117D01*
X140679083Y-95141413D01*
X141078448Y-94874565D01*
X141345296Y-94475200D01*
X141439000Y-94004117D01*
X141439000Y-93955883D01*
X141517000Y-93955883D01*
X141517000Y-94004117D01*
X141610704Y-94475200D01*
X141877552Y-94874565D01*
X142276917Y-95141413D01*
X142748000Y-95235117D01*
X143219083Y-95141413D01*
X143618448Y-94874565D01*
X143885296Y-94475200D01*
X143979000Y-94004117D01*
X143979000Y-93955883D01*
X143885296Y-93484800D01*
X143618448Y-93085435D01*
X143219083Y-92818587D01*
X142748000Y-92724883D01*
X142276917Y-92818587D01*
X141877552Y-93085435D01*
X141610704Y-93484800D01*
X141517000Y-93955883D01*
X141439000Y-93955883D01*
X141345296Y-93484800D01*
X141078448Y-93085435D01*
X140679083Y-92818587D01*
X140208000Y-92724883D01*
X139736917Y-92818587D01*
X139337552Y-93085435D01*
X139070704Y-93484800D01*
X138977000Y-93955883D01*
X138899000Y-93955883D01*
X138805296Y-93484800D01*
X138538448Y-93085435D01*
X138139083Y-92818587D01*
X137668000Y-92724883D01*
X137196917Y-92818587D01*
X136797552Y-93085435D01*
X136530704Y-93484800D01*
X136437000Y-93955883D01*
X136359000Y-93955883D01*
X136265296Y-93484800D01*
X135998448Y-93085435D01*
X135599083Y-92818587D01*
X135128000Y-92724883D01*
X134656917Y-92818587D01*
X134257552Y-93085435D01*
X133990704Y-93484800D01*
X133897000Y-93955883D01*
X133819000Y-93955883D01*
X133725296Y-93484800D01*
X133458448Y-93085435D01*
X133219000Y-92925440D01*
X133219000Y-91186000D01*
X133170968Y-90944527D01*
X133097670Y-90834829D01*
X133034185Y-90739816D01*
X129285368Y-86991000D01*
X146558000Y-86991000D01*
X146799473Y-86942968D01*
X147004184Y-86806184D01*
X153800368Y-80010000D01*
X157799863Y-80010000D01*
X157889761Y-80461949D01*
X158145770Y-80845093D01*
X158528914Y-81101102D01*
X158980863Y-81191000D01*
X159027137Y-81191000D01*
X159479086Y-81101102D01*
X159862230Y-80845093D01*
X160118239Y-80461949D01*
X160161614Y-80243885D01*
X167982796Y-80243885D01*
X168162213Y-80678109D01*
X168494144Y-81010619D01*
X168928054Y-81190794D01*
X169397885Y-81191204D01*
X169832109Y-81011787D01*
X170164619Y-80679856D01*
X170344794Y-80245946D01*
X170345204Y-79776115D01*
X170165787Y-79341891D01*
X169833856Y-79009381D01*
X169399946Y-78829206D01*
X168930115Y-78828796D01*
X168495891Y-79008213D01*
X168163381Y-79340144D01*
X167983206Y-79774054D01*
X167982796Y-80243885D01*
X160161614Y-80243885D01*
X160208137Y-80010000D01*
X160118239Y-79558051D01*
X159862230Y-79174907D01*
X159479086Y-78918898D01*
X159027137Y-78829000D01*
X158980863Y-78829000D01*
X158528914Y-78918898D01*
X158145770Y-79174907D01*
X157889761Y-79558051D01*
X157799863Y-80010000D01*
X153800368Y-80010000D01*
X157233368Y-76577000D01*
X168229536Y-76577000D01*
X168229536Y-76746000D01*
X168256103Y-76887190D01*
X168339546Y-77016865D01*
X168466866Y-77103859D01*
X168618000Y-77134464D01*
X168821305Y-77134464D01*
X168821933Y-77137619D01*
X168835032Y-77203473D01*
X168971816Y-77408184D01*
X172851000Y-81287368D01*
X172851000Y-84582000D01*
X172887031Y-84763139D01*
X172899032Y-84823473D01*
X173035816Y-85028184D01*
X175140667Y-87133036D01*
X175190339Y-87253252D01*
X175381741Y-87444987D01*
X175631946Y-87548882D01*
X175902865Y-87549118D01*
X176153252Y-87445661D01*
X176344987Y-87254259D01*
X176448882Y-87004054D01*
X176449118Y-86733135D01*
X176345661Y-86482748D01*
X176154259Y-86291013D01*
X176033052Y-86240683D01*
X174113000Y-84320632D01*
X174113000Y-84180744D01*
X176602861Y-84180744D01*
X176690918Y-84355383D01*
X177135959Y-84505984D01*
X177604755Y-84474812D01*
X177893082Y-84355383D01*
X177981139Y-84180744D01*
X177292000Y-83491605D01*
X176602861Y-84180744D01*
X174113000Y-84180744D01*
X174113000Y-83155959D01*
X176098016Y-83155959D01*
X176129188Y-83624755D01*
X176248617Y-83913082D01*
X176423256Y-84001139D01*
X177112395Y-83312000D01*
X177471605Y-83312000D01*
X178160744Y-84001139D01*
X178335383Y-83913082D01*
X178485984Y-83468041D01*
X178454812Y-82999245D01*
X178335383Y-82710918D01*
X178160744Y-82622861D01*
X177471605Y-83312000D01*
X177112395Y-83312000D01*
X176423256Y-82622861D01*
X176248617Y-82710918D01*
X176098016Y-83155959D01*
X174113000Y-83155959D01*
X174113000Y-82443256D01*
X176602861Y-82443256D01*
X177292000Y-83132395D01*
X177981139Y-82443256D01*
X177893082Y-82268617D01*
X177448041Y-82118016D01*
X176979245Y-82149188D01*
X176690918Y-82268617D01*
X176602861Y-82443256D01*
X174113000Y-82443256D01*
X174113000Y-81026000D01*
X174064968Y-80784527D01*
X173928184Y-80579816D01*
X173592253Y-80243885D01*
X176110796Y-80243885D01*
X176290213Y-80678109D01*
X176622144Y-81010619D01*
X177056054Y-81190794D01*
X177525885Y-81191204D01*
X177960109Y-81011787D01*
X178292619Y-80679856D01*
X178472794Y-80245946D01*
X178472999Y-80010000D01*
X186247863Y-80010000D01*
X186337761Y-80461949D01*
X186593770Y-80845093D01*
X186976914Y-81101102D01*
X187428863Y-81191000D01*
X187475137Y-81191000D01*
X187927086Y-81101102D01*
X188310230Y-80845093D01*
X188566239Y-80461949D01*
X188656137Y-80010000D01*
X188566239Y-79558051D01*
X188310230Y-79174907D01*
X187927086Y-78918898D01*
X187475137Y-78829000D01*
X187428863Y-78829000D01*
X186976914Y-78918898D01*
X186593770Y-79174907D01*
X186337761Y-79558051D01*
X186247863Y-80010000D01*
X178472999Y-80010000D01*
X178473204Y-79776115D01*
X178293787Y-79341891D01*
X177961856Y-79009381D01*
X177527946Y-78829206D01*
X177058115Y-78828796D01*
X176623891Y-79008213D01*
X176291381Y-79340144D01*
X176111206Y-79774054D01*
X176110796Y-80243885D01*
X173592253Y-80243885D01*
X170418257Y-77069889D01*
X170488865Y-77024454D01*
X170575859Y-76897134D01*
X170606464Y-76746000D01*
X170606464Y-75922863D01*
X170777000Y-75922863D01*
X170777000Y-75969137D01*
X170866898Y-76421086D01*
X171122907Y-76804230D01*
X171506051Y-77060239D01*
X171958000Y-77150137D01*
X172409949Y-77060239D01*
X172793093Y-76804230D01*
X173049102Y-76421086D01*
X173139000Y-75969137D01*
X173139000Y-75922863D01*
X173317000Y-75922863D01*
X173317000Y-75969137D01*
X173406898Y-76421086D01*
X173662907Y-76804230D01*
X174046051Y-77060239D01*
X174498000Y-77150137D01*
X174949949Y-77060239D01*
X175333093Y-76804230D01*
X175589102Y-76421086D01*
X175622115Y-76255116D01*
X175898159Y-76255116D01*
X176103218Y-76667784D01*
X176450589Y-76970567D01*
X176728886Y-77085829D01*
X176911000Y-77024297D01*
X176911000Y-76073000D01*
X177165000Y-76073000D01*
X177165000Y-77024297D01*
X177347114Y-77085829D01*
X177625411Y-76970567D01*
X177972782Y-76667784D01*
X178177841Y-76255116D01*
X178116914Y-76073000D01*
X177165000Y-76073000D01*
X176911000Y-76073000D01*
X175959086Y-76073000D01*
X175898159Y-76255116D01*
X175622115Y-76255116D01*
X175679000Y-75969137D01*
X175679000Y-75922863D01*
X175622116Y-75636884D01*
X175898159Y-75636884D01*
X175959086Y-75819000D01*
X176911000Y-75819000D01*
X176911000Y-74867703D01*
X177165000Y-74867703D01*
X177165000Y-75819000D01*
X178116914Y-75819000D01*
X178177841Y-75636884D01*
X177972782Y-75224216D01*
X177625411Y-74921433D01*
X177347114Y-74806171D01*
X177165000Y-74867703D01*
X176911000Y-74867703D01*
X176728886Y-74806171D01*
X176450589Y-74921433D01*
X176103218Y-75224216D01*
X175898159Y-75636884D01*
X175622116Y-75636884D01*
X175589102Y-75470914D01*
X175333093Y-75087770D01*
X174949949Y-74831761D01*
X174498000Y-74741863D01*
X174046051Y-74831761D01*
X173662907Y-75087770D01*
X173406898Y-75470914D01*
X173317000Y-75922863D01*
X173139000Y-75922863D01*
X173049102Y-75470914D01*
X172793093Y-75087770D01*
X172409949Y-74831761D01*
X171958000Y-74741863D01*
X171506051Y-74831761D01*
X171122907Y-75087770D01*
X170866898Y-75470914D01*
X170777000Y-75922863D01*
X170606464Y-75922863D01*
X170606464Y-75146000D01*
X170579897Y-75004810D01*
X170496454Y-74875135D01*
X170369134Y-74788141D01*
X170218000Y-74757536D01*
X168618000Y-74757536D01*
X168476810Y-74784103D01*
X168347135Y-74867546D01*
X168260141Y-74994866D01*
X168229536Y-75146000D01*
X168229536Y-75315000D01*
X156972000Y-75315000D01*
X156730527Y-75363032D01*
X156525816Y-75499816D01*
X146296632Y-85729000D01*
X120911369Y-85729000D01*
X120125113Y-84942744D01*
X122246861Y-84942744D01*
X122334918Y-85117383D01*
X122779959Y-85267984D01*
X123248755Y-85236812D01*
X123537082Y-85117383D01*
X123625139Y-84942744D01*
X130374861Y-84942744D01*
X130462918Y-85117383D01*
X130907959Y-85267984D01*
X131376755Y-85236812D01*
X131665082Y-85117383D01*
X131753139Y-84942744D01*
X131064000Y-84253605D01*
X130374861Y-84942744D01*
X123625139Y-84942744D01*
X122936000Y-84253605D01*
X122246861Y-84942744D01*
X120125113Y-84942744D01*
X119503000Y-84320632D01*
X119503000Y-83917959D01*
X121742016Y-83917959D01*
X121773188Y-84386755D01*
X121892617Y-84675082D01*
X122067256Y-84763139D01*
X122756395Y-84074000D01*
X123115605Y-84074000D01*
X123804744Y-84763139D01*
X123979383Y-84675082D01*
X124129984Y-84230041D01*
X124109233Y-83917959D01*
X129870016Y-83917959D01*
X129901188Y-84386755D01*
X130020617Y-84675082D01*
X130195256Y-84763139D01*
X130884395Y-84074000D01*
X131243605Y-84074000D01*
X131932744Y-84763139D01*
X132107383Y-84675082D01*
X132257984Y-84230041D01*
X132247609Y-84074000D01*
X140019863Y-84074000D01*
X140109761Y-84525949D01*
X140365770Y-84909093D01*
X140748914Y-85165102D01*
X141200863Y-85255000D01*
X141247137Y-85255000D01*
X141699086Y-85165102D01*
X142082230Y-84909093D01*
X142338239Y-84525949D01*
X142428137Y-84074000D01*
X142338239Y-83622051D01*
X142082230Y-83238907D01*
X141699086Y-82982898D01*
X141247137Y-82893000D01*
X141200863Y-82893000D01*
X140748914Y-82982898D01*
X140365770Y-83238907D01*
X140109761Y-83622051D01*
X140019863Y-84074000D01*
X132247609Y-84074000D01*
X132226812Y-83761245D01*
X132107383Y-83472918D01*
X131932744Y-83384861D01*
X131243605Y-84074000D01*
X130884395Y-84074000D01*
X130195256Y-83384861D01*
X130020617Y-83472918D01*
X129870016Y-83917959D01*
X124109233Y-83917959D01*
X124098812Y-83761245D01*
X123979383Y-83472918D01*
X123804744Y-83384861D01*
X123115605Y-84074000D01*
X122756395Y-84074000D01*
X122067256Y-83384861D01*
X121892617Y-83472918D01*
X121742016Y-83917959D01*
X119503000Y-83917959D01*
X119503000Y-83205256D01*
X122246861Y-83205256D01*
X122936000Y-83894395D01*
X123625139Y-83205256D01*
X130374861Y-83205256D01*
X131064000Y-83894395D01*
X131753139Y-83205256D01*
X131665082Y-83030617D01*
X131220041Y-82880016D01*
X130751245Y-82911188D01*
X130462918Y-83030617D01*
X130374861Y-83205256D01*
X123625139Y-83205256D01*
X123537082Y-83030617D01*
X123092041Y-82880016D01*
X122623245Y-82911188D01*
X122334918Y-83030617D01*
X122246861Y-83205256D01*
X119503000Y-83205256D01*
X119503000Y-81005885D01*
X121754796Y-81005885D01*
X121934213Y-81440109D01*
X122266144Y-81772619D01*
X122700054Y-81952794D01*
X123169885Y-81953204D01*
X123604109Y-81773787D01*
X123936619Y-81441856D01*
X124116794Y-81007946D01*
X124116795Y-81005885D01*
X129882796Y-81005885D01*
X130062213Y-81440109D01*
X130394144Y-81772619D01*
X130828054Y-81952794D01*
X131297885Y-81953204D01*
X131732109Y-81773787D01*
X132064619Y-81441856D01*
X132244794Y-81007946D01*
X132244999Y-80772000D01*
X140019863Y-80772000D01*
X140109761Y-81223949D01*
X140365770Y-81607093D01*
X140748914Y-81863102D01*
X141200863Y-81953000D01*
X141247137Y-81953000D01*
X141699086Y-81863102D01*
X142082230Y-81607093D01*
X142338239Y-81223949D01*
X142428137Y-80772000D01*
X142338239Y-80320051D01*
X142082230Y-79936907D01*
X141699086Y-79680898D01*
X141247137Y-79591000D01*
X141200863Y-79591000D01*
X140748914Y-79680898D01*
X140365770Y-79936907D01*
X140109761Y-80320051D01*
X140019863Y-80772000D01*
X132244999Y-80772000D01*
X132245204Y-80538115D01*
X132065787Y-80103891D01*
X131733856Y-79771381D01*
X131299946Y-79591206D01*
X130830115Y-79590796D01*
X130395891Y-79770213D01*
X130063381Y-80102144D01*
X129883206Y-80536054D01*
X129882796Y-81005885D01*
X124116795Y-81005885D01*
X124117204Y-80538115D01*
X123937787Y-80103891D01*
X123605856Y-79771381D01*
X123171946Y-79591206D01*
X122702115Y-79590796D01*
X122267891Y-79770213D01*
X121935381Y-80102144D01*
X121755206Y-80536054D01*
X121754796Y-81005885D01*
X119503000Y-81005885D01*
X119503000Y-79255368D01*
X121966830Y-76791538D01*
X122001536Y-76819303D01*
X122001536Y-77762000D01*
X122028103Y-77903190D01*
X122111546Y-78032865D01*
X122238866Y-78119859D01*
X122390000Y-78150464D01*
X123990000Y-78150464D01*
X124131190Y-78123897D01*
X124260865Y-78040454D01*
X124347859Y-77913134D01*
X124378464Y-77762000D01*
X124378464Y-76938863D01*
X124549000Y-76938863D01*
X124549000Y-76985137D01*
X124638898Y-77437086D01*
X124894907Y-77820230D01*
X125278051Y-78076239D01*
X125730000Y-78166137D01*
X126181949Y-78076239D01*
X126565093Y-77820230D01*
X126821102Y-77437086D01*
X126911000Y-76985137D01*
X126911000Y-76938863D01*
X127089000Y-76938863D01*
X127089000Y-76985137D01*
X127178898Y-77437086D01*
X127434907Y-77820230D01*
X127818051Y-78076239D01*
X128270000Y-78166137D01*
X128721949Y-78076239D01*
X129105093Y-77820230D01*
X129361102Y-77437086D01*
X129394115Y-77271116D01*
X129670159Y-77271116D01*
X129875218Y-77683784D01*
X130222589Y-77986567D01*
X130500886Y-78101829D01*
X130683000Y-78040297D01*
X130683000Y-77089000D01*
X130937000Y-77089000D01*
X130937000Y-78040297D01*
X131119114Y-78101829D01*
X131397411Y-77986567D01*
X131744782Y-77683784D01*
X131949841Y-77271116D01*
X131888914Y-77089000D01*
X130937000Y-77089000D01*
X130683000Y-77089000D01*
X129731086Y-77089000D01*
X129670159Y-77271116D01*
X129394115Y-77271116D01*
X129451000Y-76985137D01*
X129451000Y-76938863D01*
X129394116Y-76652884D01*
X129670159Y-76652884D01*
X129731086Y-76835000D01*
X130683000Y-76835000D01*
X130683000Y-75883703D01*
X130937000Y-75883703D01*
X130937000Y-76835000D01*
X131888914Y-76835000D01*
X131949841Y-76652884D01*
X131744782Y-76240216D01*
X131397411Y-75937433D01*
X131119114Y-75822171D01*
X130937000Y-75883703D01*
X130683000Y-75883703D01*
X130500886Y-75822171D01*
X130222589Y-75937433D01*
X129875218Y-76240216D01*
X129670159Y-76652884D01*
X129394116Y-76652884D01*
X129361102Y-76486914D01*
X129105093Y-76103770D01*
X128721949Y-75847761D01*
X128270000Y-75757863D01*
X127818051Y-75847761D01*
X127434907Y-76103770D01*
X127178898Y-76486914D01*
X127089000Y-76938863D01*
X126911000Y-76938863D01*
X126821102Y-76486914D01*
X126565093Y-76103770D01*
X126181949Y-75847761D01*
X125730000Y-75757863D01*
X125278051Y-75847761D01*
X124894907Y-76103770D01*
X124638898Y-76486914D01*
X124549000Y-76938863D01*
X124378464Y-76938863D01*
X124378464Y-76162000D01*
X124351897Y-76020810D01*
X124268454Y-75891135D01*
X124141134Y-75804141D01*
X123990000Y-75773536D01*
X122714513Y-75773536D01*
X122314183Y-75453272D01*
X122235326Y-75412379D01*
X122161473Y-75363032D01*
X122126907Y-75356156D01*
X122095618Y-75339931D01*
X122007119Y-75332329D01*
X121920000Y-75315000D01*
X121885431Y-75321876D01*
X121850318Y-75318860D01*
X121765649Y-75345702D01*
X121678527Y-75363032D01*
X121649223Y-75382613D01*
X121615625Y-75393264D01*
X121547667Y-75450470D01*
X121473816Y-75499816D01*
X118425816Y-78547816D01*
X118289032Y-78752527D01*
X118241000Y-78994000D01*
X90456000Y-78994000D01*
X90456000Y-69318863D01*
X122009000Y-69318863D01*
X122009000Y-69365137D01*
X122098898Y-69817086D01*
X122354907Y-70200230D01*
X122738051Y-70456239D01*
X123190000Y-70546137D01*
X123641949Y-70456239D01*
X124025093Y-70200230D01*
X124281102Y-69817086D01*
X124371000Y-69365137D01*
X124371000Y-69318863D01*
X124549000Y-69318863D01*
X124549000Y-69365137D01*
X124638898Y-69817086D01*
X124894907Y-70200230D01*
X125149000Y-70370010D01*
X125149000Y-72136000D01*
X125193226Y-72358339D01*
X125319171Y-72546829D01*
X127097171Y-74324829D01*
X127285661Y-74450774D01*
X127508000Y-74495000D01*
X137922000Y-74495000D01*
X138144339Y-74450774D01*
X138332829Y-74324829D01*
X139094829Y-73562829D01*
X139220774Y-73374339D01*
X139265000Y-73152000D01*
X139265000Y-72191114D01*
X144656171Y-72191114D01*
X144771433Y-72469411D01*
X145074216Y-72816782D01*
X145486884Y-73021841D01*
X145669000Y-72960914D01*
X145669000Y-72009000D01*
X145923000Y-72009000D01*
X145923000Y-72960914D01*
X146105116Y-73021841D01*
X146517784Y-72816782D01*
X146820567Y-72469411D01*
X146935829Y-72191114D01*
X146910411Y-72115885D01*
X180682796Y-72115885D01*
X180862213Y-72550109D01*
X181194144Y-72882619D01*
X181628054Y-73062794D01*
X182097885Y-73063204D01*
X182532109Y-72883787D01*
X182864619Y-72551856D01*
X182901515Y-72463000D01*
X184658000Y-72463000D01*
X184880339Y-72418774D01*
X185068829Y-72292829D01*
X185170544Y-72191114D01*
X190884171Y-72191114D01*
X190999433Y-72469411D01*
X191302216Y-72816782D01*
X191714884Y-73021841D01*
X191897000Y-72960914D01*
X191897000Y-72009000D01*
X192151000Y-72009000D01*
X192151000Y-72960914D01*
X192333116Y-73021841D01*
X192745784Y-72816782D01*
X193048567Y-72469411D01*
X193163829Y-72191114D01*
X193102297Y-72009000D01*
X192151000Y-72009000D01*
X191897000Y-72009000D01*
X190945703Y-72009000D01*
X190884171Y-72191114D01*
X185170544Y-72191114D01*
X185788772Y-71572886D01*
X190884171Y-71572886D01*
X190945703Y-71755000D01*
X191897000Y-71755000D01*
X191897000Y-70803086D01*
X192151000Y-70803086D01*
X192151000Y-71755000D01*
X193102297Y-71755000D01*
X193163829Y-71572886D01*
X193048567Y-71294589D01*
X192745784Y-70947218D01*
X192333116Y-70742159D01*
X192151000Y-70803086D01*
X191897000Y-70803086D01*
X191714884Y-70742159D01*
X191302216Y-70947218D01*
X190999433Y-71294589D01*
X190884171Y-71572886D01*
X185788772Y-71572886D01*
X193927832Y-63433826D01*
X203762613Y-63433826D01*
X204101547Y-64254109D01*
X204728590Y-64882247D01*
X205548280Y-65222612D01*
X206435826Y-65223387D01*
X207256109Y-64884453D01*
X207884247Y-64257410D01*
X208224612Y-63437720D01*
X208225387Y-62550174D01*
X207886453Y-61729891D01*
X207259410Y-61101753D01*
X206439720Y-60761388D01*
X205552174Y-60760613D01*
X204731891Y-61099547D01*
X204103753Y-61726590D01*
X203763388Y-62546280D01*
X203762613Y-63433826D01*
X193927832Y-63433826D01*
X200392658Y-56969000D01*
X214884000Y-56969000D01*
X215106339Y-56924774D01*
X215294829Y-56798829D01*
X218596829Y-53496829D01*
X218722774Y-53308339D01*
X218767000Y-53086000D01*
X218767000Y-50109969D01*
X219056448Y-49916565D01*
X219323296Y-49517200D01*
X219417000Y-49046117D01*
X219417000Y-48997883D01*
X219323296Y-48526800D01*
X219056448Y-48127435D01*
X218657083Y-47860587D01*
X218186000Y-47766883D01*
X217714917Y-47860587D01*
X217315552Y-48127435D01*
X217048704Y-48526800D01*
X216955000Y-48997883D01*
X216955000Y-49046117D01*
X217048704Y-49517200D01*
X217315552Y-49916565D01*
X217605000Y-50109969D01*
X217605000Y-52845342D01*
X214643342Y-55807000D01*
X200152000Y-55807000D01*
X199929661Y-55851226D01*
X199741171Y-55977171D01*
X184417342Y-71301000D01*
X182901780Y-71301000D01*
X182865787Y-71213891D01*
X182533856Y-70881381D01*
X182099946Y-70701206D01*
X181630115Y-70700796D01*
X181195891Y-70880213D01*
X180863381Y-71212144D01*
X180683206Y-71646054D01*
X180682796Y-72115885D01*
X146910411Y-72115885D01*
X146874297Y-72009000D01*
X145923000Y-72009000D01*
X145669000Y-72009000D01*
X144717703Y-72009000D01*
X144656171Y-72191114D01*
X139265000Y-72191114D01*
X139265000Y-71572886D01*
X144656171Y-71572886D01*
X144717703Y-71755000D01*
X145669000Y-71755000D01*
X145669000Y-70803086D01*
X145923000Y-70803086D01*
X145923000Y-71755000D01*
X146874297Y-71755000D01*
X146935829Y-71572886D01*
X146820567Y-71294589D01*
X146517784Y-70947218D01*
X146105116Y-70742159D01*
X145923000Y-70803086D01*
X145669000Y-70803086D01*
X145486884Y-70742159D01*
X145074216Y-70947218D01*
X144771433Y-71294589D01*
X144656171Y-71572886D01*
X139265000Y-71572886D01*
X139265000Y-70612000D01*
X139220774Y-70389661D01*
X139094829Y-70201171D01*
X137196521Y-68302863D01*
X168237000Y-68302863D01*
X168237000Y-68349137D01*
X168326898Y-68801086D01*
X168582907Y-69184230D01*
X168966051Y-69440239D01*
X169418000Y-69530137D01*
X169869949Y-69440239D01*
X170253093Y-69184230D01*
X170509102Y-68801086D01*
X170599000Y-68349137D01*
X170599000Y-68302863D01*
X170777000Y-68302863D01*
X170777000Y-68349137D01*
X170866898Y-68801086D01*
X171122907Y-69184230D01*
X171506051Y-69440239D01*
X171958000Y-69530137D01*
X172409949Y-69440239D01*
X172793093Y-69184230D01*
X173049102Y-68801086D01*
X173139000Y-68349137D01*
X173139000Y-68302863D01*
X173317000Y-68302863D01*
X173317000Y-68349137D01*
X173406898Y-68801086D01*
X173662907Y-69184230D01*
X174046051Y-69440239D01*
X174498000Y-69530137D01*
X174949949Y-69440239D01*
X175333093Y-69184230D01*
X175589102Y-68801086D01*
X175679000Y-68349137D01*
X175679000Y-68302863D01*
X175857000Y-68302863D01*
X175857000Y-68349137D01*
X175946898Y-68801086D01*
X176202907Y-69184230D01*
X176586051Y-69440239D01*
X177038000Y-69530137D01*
X177489949Y-69440239D01*
X177873093Y-69184230D01*
X178129102Y-68801086D01*
X178219000Y-68349137D01*
X178219000Y-68302863D01*
X178129102Y-67850914D01*
X177873093Y-67467770D01*
X177489949Y-67211761D01*
X177038000Y-67121863D01*
X176586051Y-67211761D01*
X176202907Y-67467770D01*
X175946898Y-67850914D01*
X175857000Y-68302863D01*
X175679000Y-68302863D01*
X175589102Y-67850914D01*
X175333093Y-67467770D01*
X174949949Y-67211761D01*
X174498000Y-67121863D01*
X174046051Y-67211761D01*
X173662907Y-67467770D01*
X173406898Y-67850914D01*
X173317000Y-68302863D01*
X173139000Y-68302863D01*
X173049102Y-67850914D01*
X172793093Y-67467770D01*
X172409949Y-67211761D01*
X171958000Y-67121863D01*
X171506051Y-67211761D01*
X171122907Y-67467770D01*
X170866898Y-67850914D01*
X170777000Y-68302863D01*
X170599000Y-68302863D01*
X170509102Y-67850914D01*
X170253093Y-67467770D01*
X169869949Y-67211761D01*
X169418000Y-67121863D01*
X168966051Y-67211761D01*
X168582907Y-67467770D01*
X168326898Y-67850914D01*
X168237000Y-68302863D01*
X137196521Y-68302863D01*
X136471000Y-67577342D01*
X136471000Y-65045780D01*
X136558109Y-65009787D01*
X136890619Y-64677856D01*
X137040412Y-64317114D01*
X144910171Y-64317114D01*
X145025433Y-64595411D01*
X145328216Y-64942782D01*
X145740884Y-65147841D01*
X145923000Y-65086914D01*
X145923000Y-64135000D01*
X146177000Y-64135000D01*
X146177000Y-65086914D01*
X146359116Y-65147841D01*
X146771784Y-64942782D01*
X146829345Y-64876744D01*
X158568861Y-64876744D01*
X158656918Y-65051383D01*
X159101959Y-65201984D01*
X159570755Y-65170812D01*
X159859082Y-65051383D01*
X159947139Y-64876744D01*
X159258000Y-64187605D01*
X158568861Y-64876744D01*
X146829345Y-64876744D01*
X147074567Y-64595411D01*
X147189829Y-64317114D01*
X147128297Y-64135000D01*
X146177000Y-64135000D01*
X145923000Y-64135000D01*
X144971703Y-64135000D01*
X144910171Y-64317114D01*
X137040412Y-64317114D01*
X137070794Y-64243946D01*
X137071204Y-63774115D01*
X137040121Y-63698886D01*
X144910171Y-63698886D01*
X144971703Y-63881000D01*
X145923000Y-63881000D01*
X145923000Y-62929086D01*
X146177000Y-62929086D01*
X146177000Y-63881000D01*
X147128297Y-63881000D01*
X147138109Y-63851959D01*
X158064016Y-63851959D01*
X158095188Y-64320755D01*
X158214617Y-64609082D01*
X158389256Y-64697139D01*
X159078395Y-64008000D01*
X159437605Y-64008000D01*
X160126744Y-64697139D01*
X160301383Y-64609082D01*
X160451984Y-64164041D01*
X160441609Y-64008000D01*
X168213863Y-64008000D01*
X168303761Y-64459949D01*
X168559770Y-64843093D01*
X168942914Y-65099102D01*
X169394863Y-65189000D01*
X169441137Y-65189000D01*
X169893086Y-65099102D01*
X170276230Y-64843093D01*
X170532239Y-64459949D01*
X170575614Y-64241885D01*
X170776796Y-64241885D01*
X170956213Y-64676109D01*
X171288144Y-65008619D01*
X171722054Y-65188794D01*
X172191885Y-65189204D01*
X172626109Y-65009787D01*
X172958619Y-64677856D01*
X173108412Y-64317114D01*
X180978171Y-64317114D01*
X181093433Y-64595411D01*
X181396216Y-64942782D01*
X181808884Y-65147841D01*
X181991000Y-65086914D01*
X181991000Y-64135000D01*
X182245000Y-64135000D01*
X182245000Y-65086914D01*
X182427116Y-65147841D01*
X182839784Y-64942782D01*
X183142567Y-64595411D01*
X183257829Y-64317114D01*
X183196297Y-64135000D01*
X182245000Y-64135000D01*
X181991000Y-64135000D01*
X181039703Y-64135000D01*
X180978171Y-64317114D01*
X173108412Y-64317114D01*
X173138794Y-64243946D01*
X173139204Y-63774115D01*
X173108121Y-63698886D01*
X180978171Y-63698886D01*
X181039703Y-63881000D01*
X181991000Y-63881000D01*
X181991000Y-62929086D01*
X182245000Y-62929086D01*
X182245000Y-63881000D01*
X183196297Y-63881000D01*
X183257829Y-63698886D01*
X183142567Y-63420589D01*
X182839784Y-63073218D01*
X182427116Y-62868159D01*
X182245000Y-62929086D01*
X181991000Y-62929086D01*
X181808884Y-62868159D01*
X181396216Y-63073218D01*
X181093433Y-63420589D01*
X180978171Y-63698886D01*
X173108121Y-63698886D01*
X172959787Y-63339891D01*
X172627856Y-63007381D01*
X172193946Y-62827206D01*
X171724115Y-62826796D01*
X171289891Y-63006213D01*
X170957381Y-63338144D01*
X170777206Y-63772054D01*
X170776796Y-64241885D01*
X170575614Y-64241885D01*
X170622137Y-64008000D01*
X170532239Y-63556051D01*
X170276230Y-63172907D01*
X169893086Y-62916898D01*
X169441137Y-62827000D01*
X169394863Y-62827000D01*
X168942914Y-62916898D01*
X168559770Y-63172907D01*
X168303761Y-63556051D01*
X168213863Y-64008000D01*
X160441609Y-64008000D01*
X160420812Y-63695245D01*
X160301383Y-63406918D01*
X160126744Y-63318861D01*
X159437605Y-64008000D01*
X159078395Y-64008000D01*
X158389256Y-63318861D01*
X158214617Y-63406918D01*
X158064016Y-63851959D01*
X147138109Y-63851959D01*
X147189829Y-63698886D01*
X147074567Y-63420589D01*
X146829346Y-63139256D01*
X158568861Y-63139256D01*
X159258000Y-63828395D01*
X159947139Y-63139256D01*
X159859082Y-62964617D01*
X159414041Y-62814016D01*
X158945245Y-62845188D01*
X158656918Y-62964617D01*
X158568861Y-63139256D01*
X146829346Y-63139256D01*
X146771784Y-63073218D01*
X146359116Y-62868159D01*
X146177000Y-62929086D01*
X145923000Y-62929086D01*
X145740884Y-62868159D01*
X145328216Y-63073218D01*
X145025433Y-63420589D01*
X144910171Y-63698886D01*
X137040121Y-63698886D01*
X136891787Y-63339891D01*
X136559856Y-63007381D01*
X136125946Y-62827206D01*
X135656115Y-62826796D01*
X135221891Y-63006213D01*
X134889381Y-63338144D01*
X134709206Y-63772054D01*
X134708796Y-64241885D01*
X134888213Y-64676109D01*
X135220144Y-65008619D01*
X135309000Y-65045515D01*
X135309000Y-67818000D01*
X135353226Y-68040339D01*
X135479171Y-68228829D01*
X138103000Y-70852658D01*
X138103000Y-72911342D01*
X137681342Y-73333000D01*
X127748658Y-73333000D01*
X126531543Y-72115885D01*
X134454796Y-72115885D01*
X134634213Y-72550109D01*
X134966144Y-72882619D01*
X135400054Y-73062794D01*
X135869885Y-73063204D01*
X136304109Y-72883787D01*
X136636619Y-72551856D01*
X136816794Y-72117946D01*
X136817204Y-71648115D01*
X136637787Y-71213891D01*
X136305856Y-70881381D01*
X135871946Y-70701206D01*
X135402115Y-70700796D01*
X134967891Y-70880213D01*
X134635381Y-71212144D01*
X134455206Y-71646054D01*
X134454796Y-72115885D01*
X126531543Y-72115885D01*
X126311000Y-71895342D01*
X126311000Y-70370010D01*
X126565093Y-70200230D01*
X126821102Y-69817086D01*
X126911000Y-69365137D01*
X126911000Y-69318863D01*
X127089000Y-69318863D01*
X127089000Y-69365137D01*
X127178898Y-69817086D01*
X127434907Y-70200230D01*
X127818051Y-70456239D01*
X127820325Y-70456691D01*
X127859171Y-70514829D01*
X129129171Y-71784829D01*
X129317661Y-71910774D01*
X129540000Y-71955000D01*
X131826000Y-71955000D01*
X132048339Y-71910774D01*
X132236829Y-71784829D01*
X134522829Y-69498829D01*
X134648774Y-69310339D01*
X134693000Y-69088000D01*
X134693000Y-62216658D01*
X136130658Y-60779000D01*
X136893990Y-60779000D01*
X137063770Y-61033093D01*
X137446914Y-61289102D01*
X137898863Y-61379000D01*
X137945137Y-61379000D01*
X138397086Y-61289102D01*
X138729867Y-61066744D01*
X147392861Y-61066744D01*
X147480918Y-61241383D01*
X147925959Y-61391984D01*
X148394755Y-61360812D01*
X148683082Y-61241383D01*
X148771139Y-61066744D01*
X148082000Y-60377605D01*
X147392861Y-61066744D01*
X138729867Y-61066744D01*
X138780230Y-61033093D01*
X139036239Y-60649949D01*
X139126137Y-60198000D01*
X139095099Y-60041959D01*
X146888016Y-60041959D01*
X146919188Y-60510755D01*
X147038617Y-60799082D01*
X147213256Y-60887139D01*
X147902395Y-60198000D01*
X148261605Y-60198000D01*
X148950744Y-60887139D01*
X149125383Y-60799082D01*
X149275984Y-60354041D01*
X149248719Y-59944000D01*
X173293863Y-59944000D01*
X173383761Y-60395949D01*
X173639770Y-60779093D01*
X174022914Y-61035102D01*
X174474863Y-61125000D01*
X174521137Y-61125000D01*
X174973086Y-61035102D01*
X175305867Y-60812744D01*
X183968861Y-60812744D01*
X184056918Y-60987383D01*
X184501959Y-61137984D01*
X184970755Y-61106812D01*
X185259082Y-60987383D01*
X185347139Y-60812744D01*
X184658000Y-60123605D01*
X183968861Y-60812744D01*
X175305867Y-60812744D01*
X175356230Y-60779093D01*
X175612239Y-60395949D01*
X175702137Y-59944000D01*
X175671099Y-59787959D01*
X183464016Y-59787959D01*
X183495188Y-60256755D01*
X183614617Y-60545082D01*
X183789256Y-60633139D01*
X184478395Y-59944000D01*
X184837605Y-59944000D01*
X185526744Y-60633139D01*
X185701383Y-60545082D01*
X185851984Y-60100041D01*
X185820812Y-59631245D01*
X185701383Y-59342918D01*
X185526744Y-59254861D01*
X184837605Y-59944000D01*
X184478395Y-59944000D01*
X183789256Y-59254861D01*
X183614617Y-59342918D01*
X183464016Y-59787959D01*
X175671099Y-59787959D01*
X175612239Y-59492051D01*
X175356230Y-59108907D01*
X175305868Y-59075256D01*
X183968861Y-59075256D01*
X184658000Y-59764395D01*
X185347139Y-59075256D01*
X185259082Y-58900617D01*
X184814041Y-58750016D01*
X184345245Y-58781188D01*
X184056918Y-58900617D01*
X183968861Y-59075256D01*
X175305868Y-59075256D01*
X175225861Y-59021797D01*
X178548658Y-55699000D01*
X207010000Y-55699000D01*
X207232339Y-55654774D01*
X207420829Y-55528829D01*
X210976829Y-51972829D01*
X211102774Y-51784339D01*
X211147000Y-51562000D01*
X211147000Y-50260464D01*
X211416000Y-50260464D01*
X211557190Y-50233897D01*
X211686865Y-50150454D01*
X211773859Y-50023134D01*
X211804464Y-49872000D01*
X211804464Y-49338982D01*
X211916499Y-49338982D01*
X212128348Y-49770056D01*
X212489036Y-50087245D01*
X212789020Y-50211489D01*
X212979000Y-50150627D01*
X212979000Y-49149000D01*
X213233000Y-49149000D01*
X213233000Y-50150627D01*
X213422980Y-50211489D01*
X213722964Y-50087245D01*
X214083652Y-49770056D01*
X214295501Y-49338982D01*
X214456499Y-49338982D01*
X214668348Y-49770056D01*
X215029036Y-50087245D01*
X215329020Y-50211489D01*
X215519000Y-50150627D01*
X215519000Y-49149000D01*
X215773000Y-49149000D01*
X215773000Y-50150627D01*
X215962980Y-50211489D01*
X216262964Y-50087245D01*
X216623652Y-49770056D01*
X216835501Y-49338982D01*
X216775193Y-49149000D01*
X215773000Y-49149000D01*
X215519000Y-49149000D01*
X214516807Y-49149000D01*
X214456499Y-49338982D01*
X214295501Y-49338982D01*
X214235193Y-49149000D01*
X213233000Y-49149000D01*
X212979000Y-49149000D01*
X211976807Y-49149000D01*
X211916499Y-49338982D01*
X211804464Y-49338982D01*
X211804464Y-48705018D01*
X211916499Y-48705018D01*
X211976807Y-48895000D01*
X212979000Y-48895000D01*
X212979000Y-47893373D01*
X213233000Y-47893373D01*
X213233000Y-48895000D01*
X214235193Y-48895000D01*
X214295501Y-48705018D01*
X214456499Y-48705018D01*
X214516807Y-48895000D01*
X215519000Y-48895000D01*
X215519000Y-47893373D01*
X215773000Y-47893373D01*
X215773000Y-48895000D01*
X216775193Y-48895000D01*
X216835501Y-48705018D01*
X216623652Y-48273944D01*
X216262964Y-47956755D01*
X215962980Y-47832511D01*
X215773000Y-47893373D01*
X215519000Y-47893373D01*
X215329020Y-47832511D01*
X215029036Y-47956755D01*
X214668348Y-48273944D01*
X214456499Y-48705018D01*
X214295501Y-48705018D01*
X214083652Y-48273944D01*
X213722964Y-47956755D01*
X213422980Y-47832511D01*
X213233000Y-47893373D01*
X212979000Y-47893373D01*
X212789020Y-47832511D01*
X212489036Y-47956755D01*
X212128348Y-48273944D01*
X211916499Y-48705018D01*
X211804464Y-48705018D01*
X211804464Y-48172000D01*
X211777897Y-48030810D01*
X211694454Y-47901135D01*
X211567134Y-47814141D01*
X211416000Y-47783536D01*
X209716000Y-47783536D01*
X209574810Y-47810103D01*
X209445135Y-47893546D01*
X209358141Y-48020866D01*
X209327536Y-48172000D01*
X209327536Y-49872000D01*
X209354103Y-50013190D01*
X209437546Y-50142865D01*
X209564866Y-50229859D01*
X209716000Y-50260464D01*
X209985000Y-50260464D01*
X209985000Y-51321342D01*
X206769342Y-54537000D01*
X178308000Y-54537000D01*
X178085661Y-54581226D01*
X177897171Y-54707171D01*
X174087171Y-58517171D01*
X173961226Y-58705661D01*
X173917994Y-58923003D01*
X173639770Y-59108907D01*
X173383761Y-59492051D01*
X173293863Y-59944000D01*
X149248719Y-59944000D01*
X149244812Y-59885245D01*
X149125383Y-59596918D01*
X148950744Y-59508861D01*
X148261605Y-60198000D01*
X147902395Y-60198000D01*
X147213256Y-59508861D01*
X147038617Y-59596918D01*
X146888016Y-60041959D01*
X139095099Y-60041959D01*
X139036239Y-59746051D01*
X138780230Y-59362907D01*
X138729868Y-59329256D01*
X147392861Y-59329256D01*
X148082000Y-60018395D01*
X148771139Y-59329256D01*
X148683082Y-59154617D01*
X148238041Y-59004016D01*
X147769245Y-59035188D01*
X147480918Y-59154617D01*
X147392861Y-59329256D01*
X138729868Y-59329256D01*
X138397086Y-59106898D01*
X137945137Y-59017000D01*
X137898863Y-59017000D01*
X137446914Y-59106898D01*
X137063770Y-59362907D01*
X136893990Y-59617000D01*
X135890000Y-59617000D01*
X135667661Y-59661226D01*
X135479171Y-59787171D01*
X133701171Y-61565171D01*
X133575226Y-61753661D01*
X133531000Y-61976000D01*
X133531000Y-68847342D01*
X131585342Y-70793000D01*
X129780658Y-70793000D01*
X129138256Y-70150598D01*
X129361102Y-69817086D01*
X129451000Y-69365137D01*
X129451000Y-69318863D01*
X129629000Y-69318863D01*
X129629000Y-69365137D01*
X129718898Y-69817086D01*
X129974907Y-70200230D01*
X130358051Y-70456239D01*
X130810000Y-70546137D01*
X131261949Y-70456239D01*
X131645093Y-70200230D01*
X131901102Y-69817086D01*
X131991000Y-69365137D01*
X131991000Y-69318863D01*
X131901102Y-68866914D01*
X131645093Y-68483770D01*
X131261949Y-68227761D01*
X130810000Y-68137863D01*
X130358051Y-68227761D01*
X129974907Y-68483770D01*
X129718898Y-68866914D01*
X129629000Y-69318863D01*
X129451000Y-69318863D01*
X129361102Y-68866914D01*
X129105093Y-68483770D01*
X128721949Y-68227761D01*
X128270000Y-68137863D01*
X127818051Y-68227761D01*
X127434907Y-68483770D01*
X127178898Y-68866914D01*
X127089000Y-69318863D01*
X126911000Y-69318863D01*
X126821102Y-68866914D01*
X126565093Y-68483770D01*
X126181949Y-68227761D01*
X125730000Y-68137863D01*
X125278051Y-68227761D01*
X124894907Y-68483770D01*
X124638898Y-68866914D01*
X124549000Y-69318863D01*
X124371000Y-69318863D01*
X124281102Y-68866914D01*
X124025093Y-68483770D01*
X123641949Y-68227761D01*
X123190000Y-68137863D01*
X122738051Y-68227761D01*
X122354907Y-68483770D01*
X122098898Y-68866914D01*
X122009000Y-69318863D01*
X90456000Y-69318863D01*
X90456000Y-64876744D01*
X112340861Y-64876744D01*
X112428918Y-65051383D01*
X112873959Y-65201984D01*
X113342755Y-65170812D01*
X113631082Y-65051383D01*
X113719139Y-64876744D01*
X113030000Y-64187605D01*
X112340861Y-64876744D01*
X90456000Y-64876744D01*
X90456000Y-63851959D01*
X111836016Y-63851959D01*
X111867188Y-64320755D01*
X111986617Y-64609082D01*
X112161256Y-64697139D01*
X112850395Y-64008000D01*
X113209605Y-64008000D01*
X113898744Y-64697139D01*
X114073383Y-64609082D01*
X114223984Y-64164041D01*
X114213609Y-64008000D01*
X121985863Y-64008000D01*
X122075761Y-64459949D01*
X122331770Y-64843093D01*
X122714914Y-65099102D01*
X123166863Y-65189000D01*
X123213137Y-65189000D01*
X123665086Y-65099102D01*
X124048230Y-64843093D01*
X124304239Y-64459949D01*
X124394137Y-64008000D01*
X124304239Y-63556051D01*
X124222571Y-63433826D01*
X126800613Y-63433826D01*
X127139547Y-64254109D01*
X127766590Y-64882247D01*
X128586280Y-65222612D01*
X129473826Y-65223387D01*
X130294109Y-64884453D01*
X130922247Y-64257410D01*
X131262612Y-63437720D01*
X131263387Y-62550174D01*
X130924453Y-61729891D01*
X130297410Y-61101753D01*
X129477720Y-60761388D01*
X128590174Y-60760613D01*
X127769891Y-61099547D01*
X127141753Y-61726590D01*
X126801388Y-62546280D01*
X126800613Y-63433826D01*
X124222571Y-63433826D01*
X124048230Y-63172907D01*
X123665086Y-62916898D01*
X123213137Y-62827000D01*
X123166863Y-62827000D01*
X122714914Y-62916898D01*
X122331770Y-63172907D01*
X122075761Y-63556051D01*
X121985863Y-64008000D01*
X114213609Y-64008000D01*
X114192812Y-63695245D01*
X114073383Y-63406918D01*
X113898744Y-63318861D01*
X113209605Y-64008000D01*
X112850395Y-64008000D01*
X112161256Y-63318861D01*
X111986617Y-63406918D01*
X111836016Y-63851959D01*
X90456000Y-63851959D01*
X90456000Y-63139256D01*
X112340861Y-63139256D01*
X113030000Y-63828395D01*
X113719139Y-63139256D01*
X113631082Y-62964617D01*
X113186041Y-62814016D01*
X112717245Y-62845188D01*
X112428918Y-62964617D01*
X112340861Y-63139256D01*
X90456000Y-63139256D01*
X90456000Y-59602000D01*
X91979536Y-59602000D01*
X91979536Y-61302000D01*
X92006103Y-61443190D01*
X92089546Y-61572865D01*
X92216866Y-61659859D01*
X92368000Y-61690464D01*
X94068000Y-61690464D01*
X94209190Y-61663897D01*
X94338865Y-61580454D01*
X94425859Y-61453134D01*
X94456464Y-61302000D01*
X94456464Y-60768982D01*
X94568499Y-60768982D01*
X94780348Y-61200056D01*
X95141036Y-61517245D01*
X95441020Y-61641489D01*
X95631000Y-61580627D01*
X95631000Y-60579000D01*
X95885000Y-60579000D01*
X95885000Y-61580627D01*
X96074980Y-61641489D01*
X96374964Y-61517245D01*
X96735652Y-61200056D01*
X96947501Y-60768982D01*
X96887193Y-60579000D01*
X95885000Y-60579000D01*
X95631000Y-60579000D01*
X94628807Y-60579000D01*
X94568499Y-60768982D01*
X94456464Y-60768982D01*
X94456464Y-60427883D01*
X97067000Y-60427883D01*
X97067000Y-60476117D01*
X97160704Y-60947200D01*
X97427552Y-61346565D01*
X97826917Y-61613413D01*
X98298000Y-61707117D01*
X98769083Y-61613413D01*
X99168448Y-61346565D01*
X99435296Y-60947200D01*
X99529000Y-60476117D01*
X99529000Y-60427883D01*
X99435296Y-59956800D01*
X99168448Y-59557435D01*
X98769083Y-59290587D01*
X98298000Y-59196883D01*
X97826917Y-59290587D01*
X97427552Y-59557435D01*
X97160704Y-59956800D01*
X97067000Y-60427883D01*
X94456464Y-60427883D01*
X94456464Y-60135018D01*
X94568499Y-60135018D01*
X94628807Y-60325000D01*
X95631000Y-60325000D01*
X95631000Y-59323373D01*
X95885000Y-59323373D01*
X95885000Y-60325000D01*
X96887193Y-60325000D01*
X96947501Y-60135018D01*
X96735652Y-59703944D01*
X96374964Y-59386755D01*
X96074980Y-59262511D01*
X95885000Y-59323373D01*
X95631000Y-59323373D01*
X95441020Y-59262511D01*
X95141036Y-59386755D01*
X94780348Y-59703944D01*
X94568499Y-60135018D01*
X94456464Y-60135018D01*
X94456464Y-59602000D01*
X94429897Y-59460810D01*
X94346454Y-59331135D01*
X94219134Y-59244141D01*
X94068000Y-59213536D01*
X92368000Y-59213536D01*
X92226810Y-59240103D01*
X92097135Y-59323546D01*
X92010141Y-59450866D01*
X91979536Y-59602000D01*
X90456000Y-59602000D01*
X90456000Y-54014000D01*
X91979536Y-54014000D01*
X91979536Y-55714000D01*
X92006103Y-55855190D01*
X92089546Y-55984865D01*
X92216866Y-56071859D01*
X92368000Y-56102464D01*
X94068000Y-56102464D01*
X94209190Y-56075897D01*
X94338865Y-55992454D01*
X94425859Y-55865134D01*
X94456464Y-55714000D01*
X94456464Y-55180982D01*
X94568499Y-55180982D01*
X94780348Y-55612056D01*
X95141036Y-55929245D01*
X95441020Y-56053489D01*
X95631000Y-55992627D01*
X95631000Y-54991000D01*
X95885000Y-54991000D01*
X95885000Y-55992627D01*
X96074980Y-56053489D01*
X96374964Y-55929245D01*
X96735652Y-55612056D01*
X96947501Y-55180982D01*
X96887193Y-54991000D01*
X95885000Y-54991000D01*
X95631000Y-54991000D01*
X94628807Y-54991000D01*
X94568499Y-55180982D01*
X94456464Y-55180982D01*
X94456464Y-54839883D01*
X97067000Y-54839883D01*
X97067000Y-54888117D01*
X97160704Y-55359200D01*
X97427552Y-55758565D01*
X97826917Y-56025413D01*
X98298000Y-56119117D01*
X98769083Y-56025413D01*
X99168448Y-55758565D01*
X99435296Y-55359200D01*
X99529000Y-54888117D01*
X99529000Y-54839883D01*
X99435296Y-54368800D01*
X99168448Y-53969435D01*
X98769083Y-53702587D01*
X98298000Y-53608883D01*
X97826917Y-53702587D01*
X97427552Y-53969435D01*
X97160704Y-54368800D01*
X97067000Y-54839883D01*
X94456464Y-54839883D01*
X94456464Y-54547018D01*
X94568499Y-54547018D01*
X94628807Y-54737000D01*
X95631000Y-54737000D01*
X95631000Y-53735373D01*
X95885000Y-53735373D01*
X95885000Y-54737000D01*
X96887193Y-54737000D01*
X96947501Y-54547018D01*
X96735652Y-54115944D01*
X96374964Y-53798755D01*
X96074980Y-53674511D01*
X95885000Y-53735373D01*
X95631000Y-53735373D01*
X95441020Y-53674511D01*
X95141036Y-53798755D01*
X94780348Y-54115944D01*
X94568499Y-54547018D01*
X94456464Y-54547018D01*
X94456464Y-54014000D01*
X94429897Y-53872810D01*
X94346454Y-53743135D01*
X94219134Y-53656141D01*
X94068000Y-53625536D01*
X92368000Y-53625536D01*
X92226810Y-53652103D01*
X92097135Y-53735546D01*
X92010141Y-53862866D01*
X91979536Y-54014000D01*
X90456000Y-54014000D01*
X90456000Y-48426000D01*
X91979536Y-48426000D01*
X91979536Y-50126000D01*
X92006103Y-50267190D01*
X92089546Y-50396865D01*
X92216866Y-50483859D01*
X92368000Y-50514464D01*
X94068000Y-50514464D01*
X94209190Y-50487897D01*
X94338865Y-50404454D01*
X94425859Y-50277134D01*
X94456464Y-50126000D01*
X94456464Y-49592982D01*
X94568499Y-49592982D01*
X94780348Y-50024056D01*
X95141036Y-50341245D01*
X95441020Y-50465489D01*
X95631000Y-50404627D01*
X95631000Y-49403000D01*
X95885000Y-49403000D01*
X95885000Y-50404627D01*
X96074980Y-50465489D01*
X96374964Y-50341245D01*
X96735652Y-50024056D01*
X96947501Y-49592982D01*
X96887193Y-49403000D01*
X95885000Y-49403000D01*
X95631000Y-49403000D01*
X94628807Y-49403000D01*
X94568499Y-49592982D01*
X94456464Y-49592982D01*
X94456464Y-49251883D01*
X97067000Y-49251883D01*
X97067000Y-49300117D01*
X97160704Y-49771200D01*
X97427552Y-50170565D01*
X97826917Y-50437413D01*
X98298000Y-50531117D01*
X98769083Y-50437413D01*
X99168448Y-50170565D01*
X99435296Y-49771200D01*
X99529000Y-49300117D01*
X99529000Y-49251883D01*
X99527482Y-49244250D01*
X108751000Y-49244250D01*
X108751000Y-49947786D01*
X108809004Y-50087820D01*
X108916181Y-50194996D01*
X109056215Y-50253000D01*
X109759750Y-50253000D01*
X109855000Y-50157750D01*
X109855000Y-49149000D01*
X110109000Y-49149000D01*
X110109000Y-50157750D01*
X110204250Y-50253000D01*
X110907785Y-50253000D01*
X111047819Y-50194996D01*
X111154996Y-50087820D01*
X111213000Y-49947786D01*
X111213000Y-49244250D01*
X111117750Y-49149000D01*
X110109000Y-49149000D01*
X109855000Y-49149000D01*
X108846250Y-49149000D01*
X108751000Y-49244250D01*
X99527482Y-49244250D01*
X99478477Y-48997883D01*
X111291000Y-48997883D01*
X111291000Y-49046117D01*
X111384704Y-49517200D01*
X111651552Y-49916565D01*
X112050917Y-50183413D01*
X112522000Y-50277117D01*
X112993083Y-50183413D01*
X113392448Y-49916565D01*
X113659296Y-49517200D01*
X113713588Y-49244250D01*
X114593000Y-49244250D01*
X114593000Y-49947786D01*
X114651004Y-50087820D01*
X114758181Y-50194996D01*
X114898215Y-50253000D01*
X115601750Y-50253000D01*
X115697000Y-50157750D01*
X115697000Y-49149000D01*
X115951000Y-49149000D01*
X115951000Y-50157750D01*
X116046250Y-50253000D01*
X116749785Y-50253000D01*
X116889819Y-50194996D01*
X116996996Y-50087820D01*
X117055000Y-49947786D01*
X117055000Y-49244250D01*
X116959750Y-49149000D01*
X115951000Y-49149000D01*
X115697000Y-49149000D01*
X114688250Y-49149000D01*
X114593000Y-49244250D01*
X113713588Y-49244250D01*
X113753000Y-49046117D01*
X113753000Y-48997883D01*
X117133000Y-48997883D01*
X117133000Y-49046117D01*
X117226704Y-49517200D01*
X117493552Y-49916565D01*
X117892917Y-50183413D01*
X118364000Y-50277117D01*
X118835083Y-50183413D01*
X119234448Y-49916565D01*
X119501296Y-49517200D01*
X119595000Y-49046117D01*
X119595000Y-48997883D01*
X119501296Y-48526800D01*
X119264226Y-48172000D01*
X119665536Y-48172000D01*
X119665536Y-49872000D01*
X119692103Y-50013190D01*
X119775546Y-50142865D01*
X119902866Y-50229859D01*
X120054000Y-50260464D01*
X121754000Y-50260464D01*
X121895190Y-50233897D01*
X122024865Y-50150454D01*
X122111859Y-50023134D01*
X122142464Y-49872000D01*
X122142464Y-49338982D01*
X122254499Y-49338982D01*
X122466348Y-49770056D01*
X122827036Y-50087245D01*
X123127020Y-50211489D01*
X123317000Y-50150627D01*
X123317000Y-49149000D01*
X123571000Y-49149000D01*
X123571000Y-50150627D01*
X123760980Y-50211489D01*
X124060964Y-50087245D01*
X124421652Y-49770056D01*
X124633501Y-49338982D01*
X124794499Y-49338982D01*
X125006348Y-49770056D01*
X125367036Y-50087245D01*
X125667020Y-50211489D01*
X125857000Y-50150627D01*
X125857000Y-49149000D01*
X126111000Y-49149000D01*
X126111000Y-50150627D01*
X126300980Y-50211489D01*
X126600964Y-50087245D01*
X126961652Y-49770056D01*
X127173501Y-49338982D01*
X127113193Y-49149000D01*
X126111000Y-49149000D01*
X125857000Y-49149000D01*
X124854807Y-49149000D01*
X124794499Y-49338982D01*
X124633501Y-49338982D01*
X124573193Y-49149000D01*
X123571000Y-49149000D01*
X123317000Y-49149000D01*
X122314807Y-49149000D01*
X122254499Y-49338982D01*
X122142464Y-49338982D01*
X122142464Y-48997883D01*
X127293000Y-48997883D01*
X127293000Y-49046117D01*
X127386704Y-49517200D01*
X127653552Y-49916565D01*
X128052917Y-50183413D01*
X128524000Y-50277117D01*
X128995083Y-50183413D01*
X129394448Y-49916565D01*
X129661296Y-49517200D01*
X129755000Y-49046117D01*
X129755000Y-48997883D01*
X129661296Y-48526800D01*
X129394448Y-48127435D01*
X128995083Y-47860587D01*
X128524000Y-47766883D01*
X128052917Y-47860587D01*
X127653552Y-48127435D01*
X127386704Y-48526800D01*
X127293000Y-48997883D01*
X122142464Y-48997883D01*
X122142464Y-48705018D01*
X122254499Y-48705018D01*
X122314807Y-48895000D01*
X123317000Y-48895000D01*
X123317000Y-47893373D01*
X123571000Y-47893373D01*
X123571000Y-48895000D01*
X124573193Y-48895000D01*
X124633501Y-48705018D01*
X124794499Y-48705018D01*
X124854807Y-48895000D01*
X125857000Y-48895000D01*
X125857000Y-47893373D01*
X126111000Y-47893373D01*
X126111000Y-48895000D01*
X127113193Y-48895000D01*
X127173501Y-48705018D01*
X126961652Y-48273944D01*
X126600964Y-47956755D01*
X126300980Y-47832511D01*
X126111000Y-47893373D01*
X125857000Y-47893373D01*
X125667020Y-47832511D01*
X125367036Y-47956755D01*
X125006348Y-48273944D01*
X124794499Y-48705018D01*
X124633501Y-48705018D01*
X124421652Y-48273944D01*
X124060964Y-47956755D01*
X123760980Y-47832511D01*
X123571000Y-47893373D01*
X123317000Y-47893373D01*
X123127020Y-47832511D01*
X122827036Y-47956755D01*
X122466348Y-48273944D01*
X122254499Y-48705018D01*
X122142464Y-48705018D01*
X122142464Y-48172000D01*
X122115897Y-48030810D01*
X122032454Y-47901135D01*
X121905134Y-47814141D01*
X121754000Y-47783536D01*
X120054000Y-47783536D01*
X119912810Y-47810103D01*
X119783135Y-47893546D01*
X119696141Y-48020866D01*
X119665536Y-48172000D01*
X119264226Y-48172000D01*
X119234448Y-48127435D01*
X118835083Y-47860587D01*
X118364000Y-47766883D01*
X117892917Y-47860587D01*
X117493552Y-48127435D01*
X117226704Y-48526800D01*
X117133000Y-48997883D01*
X113753000Y-48997883D01*
X113659296Y-48526800D01*
X113392448Y-48127435D01*
X113345723Y-48096214D01*
X114593000Y-48096214D01*
X114593000Y-48799750D01*
X114688250Y-48895000D01*
X115697000Y-48895000D01*
X115697000Y-47886250D01*
X115951000Y-47886250D01*
X115951000Y-48895000D01*
X116959750Y-48895000D01*
X117055000Y-48799750D01*
X117055000Y-48096214D01*
X116996996Y-47956180D01*
X116889819Y-47849004D01*
X116749785Y-47791000D01*
X116046250Y-47791000D01*
X115951000Y-47886250D01*
X115697000Y-47886250D01*
X115601750Y-47791000D01*
X114898215Y-47791000D01*
X114758181Y-47849004D01*
X114651004Y-47956180D01*
X114593000Y-48096214D01*
X113345723Y-48096214D01*
X112993083Y-47860587D01*
X112522000Y-47766883D01*
X112050917Y-47860587D01*
X111651552Y-48127435D01*
X111384704Y-48526800D01*
X111291000Y-48997883D01*
X99478477Y-48997883D01*
X99435296Y-48780800D01*
X99168448Y-48381435D01*
X98769083Y-48114587D01*
X98676716Y-48096214D01*
X108751000Y-48096214D01*
X108751000Y-48799750D01*
X108846250Y-48895000D01*
X109855000Y-48895000D01*
X109855000Y-47886250D01*
X110109000Y-47886250D01*
X110109000Y-48895000D01*
X111117750Y-48895000D01*
X111213000Y-48799750D01*
X111213000Y-48096214D01*
X111154996Y-47956180D01*
X111047819Y-47849004D01*
X110907785Y-47791000D01*
X110204250Y-47791000D01*
X110109000Y-47886250D01*
X109855000Y-47886250D01*
X109759750Y-47791000D01*
X109056215Y-47791000D01*
X108916181Y-47849004D01*
X108809004Y-47956180D01*
X108751000Y-48096214D01*
X98676716Y-48096214D01*
X98298000Y-48020883D01*
X97826917Y-48114587D01*
X97427552Y-48381435D01*
X97160704Y-48780800D01*
X97067000Y-49251883D01*
X94456464Y-49251883D01*
X94456464Y-48959018D01*
X94568499Y-48959018D01*
X94628807Y-49149000D01*
X95631000Y-49149000D01*
X95631000Y-48147373D01*
X95885000Y-48147373D01*
X95885000Y-49149000D01*
X96887193Y-49149000D01*
X96947501Y-48959018D01*
X96735652Y-48527944D01*
X96374964Y-48210755D01*
X96074980Y-48086511D01*
X95885000Y-48147373D01*
X95631000Y-48147373D01*
X95441020Y-48086511D01*
X95141036Y-48210755D01*
X94780348Y-48527944D01*
X94568499Y-48959018D01*
X94456464Y-48959018D01*
X94456464Y-48426000D01*
X94429897Y-48284810D01*
X94346454Y-48155135D01*
X94219134Y-48068141D01*
X94077008Y-48039360D01*
X97543368Y-44573000D01*
X136644632Y-44573000D01*
X137291000Y-45219368D01*
X137291000Y-47783536D01*
X137072000Y-47783536D01*
X136930810Y-47810103D01*
X136801135Y-47893546D01*
X136714141Y-48020866D01*
X136683536Y-48172000D01*
X136683536Y-49872000D01*
X136710103Y-50013190D01*
X136793546Y-50142865D01*
X136920866Y-50229859D01*
X137072000Y-50260464D01*
X138772000Y-50260464D01*
X138913190Y-50233897D01*
X139042865Y-50150454D01*
X139129859Y-50023134D01*
X139160464Y-49872000D01*
X139160464Y-49338982D01*
X139272499Y-49338982D01*
X139484348Y-49770056D01*
X139845036Y-50087245D01*
X140145020Y-50211489D01*
X140335000Y-50150627D01*
X140335000Y-49149000D01*
X140589000Y-49149000D01*
X140589000Y-50150627D01*
X140778980Y-50211489D01*
X141078964Y-50087245D01*
X141439652Y-49770056D01*
X141651501Y-49338982D01*
X141591193Y-49149000D01*
X140589000Y-49149000D01*
X140335000Y-49149000D01*
X139332807Y-49149000D01*
X139272499Y-49338982D01*
X139160464Y-49338982D01*
X139160464Y-48997883D01*
X141771000Y-48997883D01*
X141771000Y-49046117D01*
X141864704Y-49517200D01*
X142131552Y-49916565D01*
X142530917Y-50183413D01*
X143002000Y-50277117D01*
X143473083Y-50183413D01*
X143872448Y-49916565D01*
X144139296Y-49517200D01*
X144233000Y-49046117D01*
X144233000Y-48997883D01*
X144139296Y-48526800D01*
X143872448Y-48127435D01*
X143473083Y-47860587D01*
X143002000Y-47766883D01*
X142530917Y-47860587D01*
X142131552Y-48127435D01*
X141864704Y-48526800D01*
X141771000Y-48997883D01*
X139160464Y-48997883D01*
X139160464Y-48705018D01*
X139272499Y-48705018D01*
X139332807Y-48895000D01*
X140335000Y-48895000D01*
X140335000Y-47893373D01*
X140589000Y-47893373D01*
X140589000Y-48895000D01*
X141591193Y-48895000D01*
X141651501Y-48705018D01*
X141439652Y-48273944D01*
X141078964Y-47956755D01*
X140778980Y-47832511D01*
X140589000Y-47893373D01*
X140335000Y-47893373D01*
X140145020Y-47832511D01*
X139845036Y-47956755D01*
X139484348Y-48273944D01*
X139272499Y-48705018D01*
X139160464Y-48705018D01*
X139160464Y-48172000D01*
X139133897Y-48030810D01*
X139050454Y-47901135D01*
X138923134Y-47814141D01*
X138772000Y-47783536D01*
X138553000Y-47783536D01*
X138553000Y-44958000D01*
X138504968Y-44716527D01*
X138409066Y-44573000D01*
X145026632Y-44573000D01*
X145673000Y-45219368D01*
X145673000Y-47783536D01*
X145454000Y-47783536D01*
X145312810Y-47810103D01*
X145183135Y-47893546D01*
X145096141Y-48020866D01*
X145065536Y-48172000D01*
X145065536Y-49872000D01*
X145092103Y-50013190D01*
X145175546Y-50142865D01*
X145302866Y-50229859D01*
X145454000Y-50260464D01*
X147154000Y-50260464D01*
X147295190Y-50233897D01*
X147424865Y-50150454D01*
X147511859Y-50023134D01*
X147542464Y-49872000D01*
X147542464Y-49338982D01*
X147654499Y-49338982D01*
X147866348Y-49770056D01*
X148227036Y-50087245D01*
X148527020Y-50211489D01*
X148717000Y-50150627D01*
X148717000Y-49149000D01*
X148971000Y-49149000D01*
X148971000Y-50150627D01*
X149160980Y-50211489D01*
X149460964Y-50087245D01*
X149821652Y-49770056D01*
X150033501Y-49338982D01*
X149973193Y-49149000D01*
X148971000Y-49149000D01*
X148717000Y-49149000D01*
X147714807Y-49149000D01*
X147654499Y-49338982D01*
X147542464Y-49338982D01*
X147542464Y-48997883D01*
X150153000Y-48997883D01*
X150153000Y-49046117D01*
X150246704Y-49517200D01*
X150513552Y-49916565D01*
X150912917Y-50183413D01*
X151384000Y-50277117D01*
X151855083Y-50183413D01*
X152254448Y-49916565D01*
X152521296Y-49517200D01*
X152615000Y-49046117D01*
X152615000Y-48997883D01*
X152521296Y-48526800D01*
X152284226Y-48172000D01*
X152685536Y-48172000D01*
X152685536Y-49872000D01*
X152712103Y-50013190D01*
X152795546Y-50142865D01*
X152922866Y-50229859D01*
X153074000Y-50260464D01*
X154774000Y-50260464D01*
X154915190Y-50233897D01*
X155044865Y-50150454D01*
X155131859Y-50023134D01*
X155162464Y-49872000D01*
X155162464Y-49338982D01*
X155274499Y-49338982D01*
X155486348Y-49770056D01*
X155847036Y-50087245D01*
X156147020Y-50211489D01*
X156337000Y-50150627D01*
X156337000Y-49149000D01*
X156591000Y-49149000D01*
X156591000Y-50150627D01*
X156780980Y-50211489D01*
X157080964Y-50087245D01*
X157441652Y-49770056D01*
X157653501Y-49338982D01*
X157814499Y-49338982D01*
X158026348Y-49770056D01*
X158387036Y-50087245D01*
X158687020Y-50211489D01*
X158877000Y-50150627D01*
X158877000Y-49149000D01*
X159131000Y-49149000D01*
X159131000Y-50150627D01*
X159320980Y-50211489D01*
X159620964Y-50087245D01*
X159981652Y-49770056D01*
X160193501Y-49338982D01*
X160133193Y-49149000D01*
X159131000Y-49149000D01*
X158877000Y-49149000D01*
X157874807Y-49149000D01*
X157814499Y-49338982D01*
X157653501Y-49338982D01*
X157593193Y-49149000D01*
X156591000Y-49149000D01*
X156337000Y-49149000D01*
X155334807Y-49149000D01*
X155274499Y-49338982D01*
X155162464Y-49338982D01*
X155162464Y-48997883D01*
X160313000Y-48997883D01*
X160313000Y-49046117D01*
X160406704Y-49517200D01*
X160673552Y-49916565D01*
X161072917Y-50183413D01*
X161544000Y-50277117D01*
X162015083Y-50183413D01*
X162414448Y-49916565D01*
X162681296Y-49517200D01*
X162735588Y-49244250D01*
X169965000Y-49244250D01*
X169965000Y-49947786D01*
X170023004Y-50087820D01*
X170130181Y-50194996D01*
X170270215Y-50253000D01*
X170973750Y-50253000D01*
X171069000Y-50157750D01*
X171069000Y-49149000D01*
X171323000Y-49149000D01*
X171323000Y-50157750D01*
X171418250Y-50253000D01*
X172121785Y-50253000D01*
X172261819Y-50194996D01*
X172368996Y-50087820D01*
X172427000Y-49947786D01*
X172427000Y-49244250D01*
X172331750Y-49149000D01*
X171323000Y-49149000D01*
X171069000Y-49149000D01*
X170060250Y-49149000D01*
X169965000Y-49244250D01*
X162735588Y-49244250D01*
X162775000Y-49046117D01*
X162775000Y-48997883D01*
X172505000Y-48997883D01*
X172505000Y-49046117D01*
X172598704Y-49517200D01*
X172865552Y-49916565D01*
X173264917Y-50183413D01*
X173736000Y-50277117D01*
X174207083Y-50183413D01*
X174606448Y-49916565D01*
X174873296Y-49517200D01*
X174927588Y-49244250D01*
X175807000Y-49244250D01*
X175807000Y-49947786D01*
X175865004Y-50087820D01*
X175972181Y-50194996D01*
X176112215Y-50253000D01*
X176815750Y-50253000D01*
X176911000Y-50157750D01*
X176911000Y-49149000D01*
X177165000Y-49149000D01*
X177165000Y-50157750D01*
X177260250Y-50253000D01*
X177963785Y-50253000D01*
X178103819Y-50194996D01*
X178210996Y-50087820D01*
X178269000Y-49947786D01*
X178269000Y-49244250D01*
X178173750Y-49149000D01*
X177165000Y-49149000D01*
X176911000Y-49149000D01*
X175902250Y-49149000D01*
X175807000Y-49244250D01*
X174927588Y-49244250D01*
X174967000Y-49046117D01*
X174967000Y-48997883D01*
X178347000Y-48997883D01*
X178347000Y-49046117D01*
X178440704Y-49517200D01*
X178707552Y-49916565D01*
X179106917Y-50183413D01*
X179578000Y-50277117D01*
X180049083Y-50183413D01*
X180448448Y-49916565D01*
X180715296Y-49517200D01*
X180809000Y-49046117D01*
X180809000Y-48997883D01*
X180715296Y-48526800D01*
X180478226Y-48172000D01*
X180879536Y-48172000D01*
X180879536Y-49872000D01*
X180906103Y-50013190D01*
X180989546Y-50142865D01*
X181116866Y-50229859D01*
X181268000Y-50260464D01*
X182968000Y-50260464D01*
X183109190Y-50233897D01*
X183238865Y-50150454D01*
X183325859Y-50023134D01*
X183356464Y-49872000D01*
X183356464Y-49338982D01*
X183468499Y-49338982D01*
X183680348Y-49770056D01*
X184041036Y-50087245D01*
X184341020Y-50211489D01*
X184531000Y-50150627D01*
X184531000Y-49149000D01*
X184785000Y-49149000D01*
X184785000Y-50150627D01*
X184974980Y-50211489D01*
X185274964Y-50087245D01*
X185635652Y-49770056D01*
X185847501Y-49338982D01*
X186008499Y-49338982D01*
X186220348Y-49770056D01*
X186581036Y-50087245D01*
X186881020Y-50211489D01*
X187071000Y-50150627D01*
X187071000Y-49149000D01*
X187325000Y-49149000D01*
X187325000Y-50150627D01*
X187514980Y-50211489D01*
X187814964Y-50087245D01*
X188175652Y-49770056D01*
X188387501Y-49338982D01*
X188327193Y-49149000D01*
X187325000Y-49149000D01*
X187071000Y-49149000D01*
X186068807Y-49149000D01*
X186008499Y-49338982D01*
X185847501Y-49338982D01*
X185787193Y-49149000D01*
X184785000Y-49149000D01*
X184531000Y-49149000D01*
X183528807Y-49149000D01*
X183468499Y-49338982D01*
X183356464Y-49338982D01*
X183356464Y-48997883D01*
X188507000Y-48997883D01*
X188507000Y-49046117D01*
X188600704Y-49517200D01*
X188867552Y-49916565D01*
X189266917Y-50183413D01*
X189738000Y-50277117D01*
X190209083Y-50183413D01*
X190608448Y-49916565D01*
X190875296Y-49517200D01*
X190929588Y-49244250D01*
X198413000Y-49244250D01*
X198413000Y-49947786D01*
X198471004Y-50087820D01*
X198578181Y-50194996D01*
X198718215Y-50253000D01*
X199421750Y-50253000D01*
X199517000Y-50157750D01*
X199517000Y-49149000D01*
X199771000Y-49149000D01*
X199771000Y-50157750D01*
X199866250Y-50253000D01*
X200569785Y-50253000D01*
X200709819Y-50194996D01*
X200816996Y-50087820D01*
X200875000Y-49947786D01*
X200875000Y-49244250D01*
X200779750Y-49149000D01*
X199771000Y-49149000D01*
X199517000Y-49149000D01*
X198508250Y-49149000D01*
X198413000Y-49244250D01*
X190929588Y-49244250D01*
X190969000Y-49046117D01*
X190969000Y-48997883D01*
X200953000Y-48997883D01*
X200953000Y-49046117D01*
X201046704Y-49517200D01*
X201313552Y-49916565D01*
X201712917Y-50183413D01*
X202184000Y-50277117D01*
X202655083Y-50183413D01*
X203054448Y-49916565D01*
X203321296Y-49517200D01*
X203375588Y-49244250D01*
X204255000Y-49244250D01*
X204255000Y-49947786D01*
X204313004Y-50087820D01*
X204420181Y-50194996D01*
X204560215Y-50253000D01*
X205263750Y-50253000D01*
X205359000Y-50157750D01*
X205359000Y-49149000D01*
X205613000Y-49149000D01*
X205613000Y-50157750D01*
X205708250Y-50253000D01*
X206411785Y-50253000D01*
X206551819Y-50194996D01*
X206658996Y-50087820D01*
X206717000Y-49947786D01*
X206717000Y-49244250D01*
X206621750Y-49149000D01*
X205613000Y-49149000D01*
X205359000Y-49149000D01*
X204350250Y-49149000D01*
X204255000Y-49244250D01*
X203375588Y-49244250D01*
X203415000Y-49046117D01*
X203415000Y-48997883D01*
X206795000Y-48997883D01*
X206795000Y-49046117D01*
X206888704Y-49517200D01*
X207155552Y-49916565D01*
X207554917Y-50183413D01*
X208026000Y-50277117D01*
X208497083Y-50183413D01*
X208896448Y-49916565D01*
X209163296Y-49517200D01*
X209257000Y-49046117D01*
X209257000Y-48997883D01*
X209163296Y-48526800D01*
X208896448Y-48127435D01*
X208497083Y-47860587D01*
X208026000Y-47766883D01*
X207554917Y-47860587D01*
X207155552Y-48127435D01*
X206888704Y-48526800D01*
X206795000Y-48997883D01*
X203415000Y-48997883D01*
X203321296Y-48526800D01*
X203054448Y-48127435D01*
X203007723Y-48096214D01*
X204255000Y-48096214D01*
X204255000Y-48799750D01*
X204350250Y-48895000D01*
X205359000Y-48895000D01*
X205359000Y-47886250D01*
X205613000Y-47886250D01*
X205613000Y-48895000D01*
X206621750Y-48895000D01*
X206717000Y-48799750D01*
X206717000Y-48096214D01*
X206658996Y-47956180D01*
X206551819Y-47849004D01*
X206411785Y-47791000D01*
X205708250Y-47791000D01*
X205613000Y-47886250D01*
X205359000Y-47886250D01*
X205263750Y-47791000D01*
X204560215Y-47791000D01*
X204420181Y-47849004D01*
X204313004Y-47956180D01*
X204255000Y-48096214D01*
X203007723Y-48096214D01*
X202655083Y-47860587D01*
X202184000Y-47766883D01*
X201712917Y-47860587D01*
X201313552Y-48127435D01*
X201046704Y-48526800D01*
X200953000Y-48997883D01*
X190969000Y-48997883D01*
X190875296Y-48526800D01*
X190608448Y-48127435D01*
X190561723Y-48096214D01*
X198413000Y-48096214D01*
X198413000Y-48799750D01*
X198508250Y-48895000D01*
X199517000Y-48895000D01*
X199517000Y-47886250D01*
X199771000Y-47886250D01*
X199771000Y-48895000D01*
X200779750Y-48895000D01*
X200875000Y-48799750D01*
X200875000Y-48096214D01*
X200816996Y-47956180D01*
X200709819Y-47849004D01*
X200569785Y-47791000D01*
X199866250Y-47791000D01*
X199771000Y-47886250D01*
X199517000Y-47886250D01*
X199421750Y-47791000D01*
X198718215Y-47791000D01*
X198578181Y-47849004D01*
X198471004Y-47956180D01*
X198413000Y-48096214D01*
X190561723Y-48096214D01*
X190209083Y-47860587D01*
X189738000Y-47766883D01*
X189266917Y-47860587D01*
X188867552Y-48127435D01*
X188600704Y-48526800D01*
X188507000Y-48997883D01*
X183356464Y-48997883D01*
X183356464Y-48705018D01*
X183468499Y-48705018D01*
X183528807Y-48895000D01*
X184531000Y-48895000D01*
X184531000Y-47893373D01*
X184785000Y-47893373D01*
X184785000Y-48895000D01*
X185787193Y-48895000D01*
X185847501Y-48705018D01*
X186008499Y-48705018D01*
X186068807Y-48895000D01*
X187071000Y-48895000D01*
X187071000Y-47893373D01*
X187325000Y-47893373D01*
X187325000Y-48895000D01*
X188327193Y-48895000D01*
X188387501Y-48705018D01*
X188175652Y-48273944D01*
X187814964Y-47956755D01*
X187514980Y-47832511D01*
X187325000Y-47893373D01*
X187071000Y-47893373D01*
X186881020Y-47832511D01*
X186581036Y-47956755D01*
X186220348Y-48273944D01*
X186008499Y-48705018D01*
X185847501Y-48705018D01*
X185635652Y-48273944D01*
X185274964Y-47956755D01*
X184974980Y-47832511D01*
X184785000Y-47893373D01*
X184531000Y-47893373D01*
X184341020Y-47832511D01*
X184041036Y-47956755D01*
X183680348Y-48273944D01*
X183468499Y-48705018D01*
X183356464Y-48705018D01*
X183356464Y-48172000D01*
X183329897Y-48030810D01*
X183246454Y-47901135D01*
X183119134Y-47814141D01*
X182968000Y-47783536D01*
X181268000Y-47783536D01*
X181126810Y-47810103D01*
X180997135Y-47893546D01*
X180910141Y-48020866D01*
X180879536Y-48172000D01*
X180478226Y-48172000D01*
X180448448Y-48127435D01*
X180049083Y-47860587D01*
X179578000Y-47766883D01*
X179106917Y-47860587D01*
X178707552Y-48127435D01*
X178440704Y-48526800D01*
X178347000Y-48997883D01*
X174967000Y-48997883D01*
X174873296Y-48526800D01*
X174606448Y-48127435D01*
X174559723Y-48096214D01*
X175807000Y-48096214D01*
X175807000Y-48799750D01*
X175902250Y-48895000D01*
X176911000Y-48895000D01*
X176911000Y-47886250D01*
X177165000Y-47886250D01*
X177165000Y-48895000D01*
X178173750Y-48895000D01*
X178269000Y-48799750D01*
X178269000Y-48096214D01*
X178210996Y-47956180D01*
X178103819Y-47849004D01*
X177963785Y-47791000D01*
X177260250Y-47791000D01*
X177165000Y-47886250D01*
X176911000Y-47886250D01*
X176815750Y-47791000D01*
X176112215Y-47791000D01*
X175972181Y-47849004D01*
X175865004Y-47956180D01*
X175807000Y-48096214D01*
X174559723Y-48096214D01*
X174207083Y-47860587D01*
X173736000Y-47766883D01*
X173264917Y-47860587D01*
X172865552Y-48127435D01*
X172598704Y-48526800D01*
X172505000Y-48997883D01*
X162775000Y-48997883D01*
X162681296Y-48526800D01*
X162414448Y-48127435D01*
X162367723Y-48096214D01*
X169965000Y-48096214D01*
X169965000Y-48799750D01*
X170060250Y-48895000D01*
X171069000Y-48895000D01*
X171069000Y-47886250D01*
X171323000Y-47886250D01*
X171323000Y-48895000D01*
X172331750Y-48895000D01*
X172427000Y-48799750D01*
X172427000Y-48096214D01*
X172368996Y-47956180D01*
X172261819Y-47849004D01*
X172121785Y-47791000D01*
X171418250Y-47791000D01*
X171323000Y-47886250D01*
X171069000Y-47886250D01*
X170973750Y-47791000D01*
X170270215Y-47791000D01*
X170130181Y-47849004D01*
X170023004Y-47956180D01*
X169965000Y-48096214D01*
X162367723Y-48096214D01*
X162015083Y-47860587D01*
X161544000Y-47766883D01*
X161072917Y-47860587D01*
X160673552Y-48127435D01*
X160406704Y-48526800D01*
X160313000Y-48997883D01*
X155162464Y-48997883D01*
X155162464Y-48705018D01*
X155274499Y-48705018D01*
X155334807Y-48895000D01*
X156337000Y-48895000D01*
X156337000Y-47893373D01*
X156591000Y-47893373D01*
X156591000Y-48895000D01*
X157593193Y-48895000D01*
X157653501Y-48705018D01*
X157814499Y-48705018D01*
X157874807Y-48895000D01*
X158877000Y-48895000D01*
X158877000Y-47893373D01*
X159131000Y-47893373D01*
X159131000Y-48895000D01*
X160133193Y-48895000D01*
X160193501Y-48705018D01*
X159981652Y-48273944D01*
X159620964Y-47956755D01*
X159320980Y-47832511D01*
X159131000Y-47893373D01*
X158877000Y-47893373D01*
X158687020Y-47832511D01*
X158387036Y-47956755D01*
X158026348Y-48273944D01*
X157814499Y-48705018D01*
X157653501Y-48705018D01*
X157441652Y-48273944D01*
X157080964Y-47956755D01*
X156780980Y-47832511D01*
X156591000Y-47893373D01*
X156337000Y-47893373D01*
X156147020Y-47832511D01*
X155847036Y-47956755D01*
X155486348Y-48273944D01*
X155274499Y-48705018D01*
X155162464Y-48705018D01*
X155162464Y-48172000D01*
X155135897Y-48030810D01*
X155052454Y-47901135D01*
X154925134Y-47814141D01*
X154774000Y-47783536D01*
X153074000Y-47783536D01*
X152932810Y-47810103D01*
X152803135Y-47893546D01*
X152716141Y-48020866D01*
X152685536Y-48172000D01*
X152284226Y-48172000D01*
X152254448Y-48127435D01*
X151855083Y-47860587D01*
X151384000Y-47766883D01*
X150912917Y-47860587D01*
X150513552Y-48127435D01*
X150246704Y-48526800D01*
X150153000Y-48997883D01*
X147542464Y-48997883D01*
X147542464Y-48705018D01*
X147654499Y-48705018D01*
X147714807Y-48895000D01*
X148717000Y-48895000D01*
X148717000Y-47893373D01*
X148971000Y-47893373D01*
X148971000Y-48895000D01*
X149973193Y-48895000D01*
X150033501Y-48705018D01*
X149821652Y-48273944D01*
X149460964Y-47956755D01*
X149160980Y-47832511D01*
X148971000Y-47893373D01*
X148717000Y-47893373D01*
X148527020Y-47832511D01*
X148227036Y-47956755D01*
X147866348Y-48273944D01*
X147654499Y-48705018D01*
X147542464Y-48705018D01*
X147542464Y-48172000D01*
X147515897Y-48030810D01*
X147432454Y-47901135D01*
X147305134Y-47814141D01*
X147154000Y-47783536D01*
X146935000Y-47783536D01*
X146935000Y-44958000D01*
X146886968Y-44716527D01*
X146750184Y-44511816D01*
X145734184Y-43495816D01*
X145529473Y-43359032D01*
X145288000Y-43311000D01*
X97282000Y-43311000D01*
X97040527Y-43359032D01*
X96835816Y-43495816D01*
X92771816Y-47559816D01*
X92635032Y-47764527D01*
X92587000Y-48006000D01*
X92587000Y-48037536D01*
X92368000Y-48037536D01*
X92226810Y-48064103D01*
X92097135Y-48147546D01*
X92010141Y-48274866D01*
X91979536Y-48426000D01*
X90456000Y-48426000D01*
X90456000Y-42956000D01*
X224544000Y-42956000D01*
X224544000Y-97044000D01*
M02*
