G04 #@! TF.FileFunction,Legend,Top*
%FSLAX46Y46*%
G04 Gerber Fmt 4.6, Leading zero omitted, Abs format (unit mm)*
G04 Created by KiCad (PCBNEW (2015-11-24 BZR 6329)-product) date Fri 24 Feb 2017 06:21:55 PM EST*
%MOMM*%
G01*
G04 APERTURE LIST*
%ADD10C,0.100000*%
%ADD11C,0.300000*%
%ADD12C,0.120000*%
%ADD13C,0.150000*%
G04 APERTURE END LIST*
D10*
D11*
X89948001Y-46589143D02*
X91090858Y-46589143D01*
X92590858Y-47160571D02*
X91733715Y-47160571D01*
X92162287Y-47160571D02*
X92162287Y-45660571D01*
X92019430Y-45874857D01*
X91876572Y-46017714D01*
X91733715Y-46089143D01*
X93948001Y-45660571D02*
X93233715Y-45660571D01*
X93162286Y-46374857D01*
X93233715Y-46303429D01*
X93376572Y-46232000D01*
X93733715Y-46232000D01*
X93876572Y-46303429D01*
X93948001Y-46374857D01*
X94019429Y-46517714D01*
X94019429Y-46874857D01*
X93948001Y-47017714D01*
X93876572Y-47089143D01*
X93733715Y-47160571D01*
X93376572Y-47160571D01*
X93233715Y-47089143D01*
X93162286Y-47017714D01*
X96298001Y-46589143D02*
X97440858Y-46589143D01*
X96869429Y-47160571D02*
X96869429Y-46017714D01*
X98940858Y-47160571D02*
X98083715Y-47160571D01*
X98512287Y-47160571D02*
X98512287Y-45660571D01*
X98369430Y-45874857D01*
X98226572Y-46017714D01*
X98083715Y-46089143D01*
X100298001Y-45660571D02*
X99583715Y-45660571D01*
X99512286Y-46374857D01*
X99583715Y-46303429D01*
X99726572Y-46232000D01*
X100083715Y-46232000D01*
X100226572Y-46303429D01*
X100298001Y-46374857D01*
X100369429Y-46517714D01*
X100369429Y-46874857D01*
X100298001Y-47017714D01*
X100226572Y-47089143D01*
X100083715Y-47160571D01*
X99726572Y-47160571D01*
X99583715Y-47089143D01*
X99512286Y-47017714D01*
D12*
X94488000Y-61782000D02*
X99628000Y-61782000D01*
X99628000Y-61782000D02*
X99628000Y-59122000D01*
X99628000Y-59122000D02*
X94488000Y-59122000D01*
X94488000Y-59122000D02*
X94488000Y-61782000D01*
X93218000Y-61782000D02*
X91888000Y-61782000D01*
X91888000Y-61782000D02*
X91888000Y-60452000D01*
X94488000Y-56194000D02*
X99628000Y-56194000D01*
X99628000Y-56194000D02*
X99628000Y-53534000D01*
X99628000Y-53534000D02*
X94488000Y-53534000D01*
X94488000Y-53534000D02*
X94488000Y-56194000D01*
X93218000Y-56194000D02*
X91888000Y-56194000D01*
X91888000Y-56194000D02*
X91888000Y-54864000D01*
X182788000Y-61254000D02*
X182788000Y-58634000D01*
X182788000Y-58634000D02*
X176368000Y-58634000D01*
X176368000Y-58634000D02*
X176368000Y-61254000D01*
X176368000Y-61254000D02*
X182788000Y-61254000D01*
X183678000Y-59944000D02*
X182788000Y-59944000D01*
X175478000Y-59944000D02*
X176368000Y-59944000D01*
X173828000Y-62698000D02*
X173828000Y-65318000D01*
X173828000Y-65318000D02*
X180248000Y-65318000D01*
X180248000Y-65318000D02*
X180248000Y-62698000D01*
X180248000Y-62698000D02*
X173828000Y-62698000D01*
X172938000Y-64008000D02*
X173828000Y-64008000D01*
X181138000Y-64008000D02*
X180248000Y-64008000D01*
X183734000Y-70572000D02*
X183734000Y-73192000D01*
X183734000Y-73192000D02*
X190154000Y-73192000D01*
X190154000Y-73192000D02*
X190154000Y-70572000D01*
X190154000Y-70572000D02*
X183734000Y-70572000D01*
X182844000Y-71882000D02*
X183734000Y-71882000D01*
X191044000Y-71882000D02*
X190154000Y-71882000D01*
X179162000Y-78700000D02*
X179162000Y-81320000D01*
X179162000Y-81320000D02*
X185582000Y-81320000D01*
X185582000Y-81320000D02*
X185582000Y-78700000D01*
X185582000Y-78700000D02*
X179162000Y-78700000D01*
X178272000Y-80010000D02*
X179162000Y-80010000D01*
X186472000Y-80010000D02*
X185582000Y-80010000D01*
X179162000Y-82002000D02*
X179162000Y-84622000D01*
X179162000Y-84622000D02*
X185582000Y-84622000D01*
X185582000Y-84622000D02*
X185582000Y-82002000D01*
X185582000Y-82002000D02*
X179162000Y-82002000D01*
X178272000Y-83312000D02*
X179162000Y-83312000D01*
X186472000Y-83312000D02*
X185582000Y-83312000D01*
X167294000Y-84622000D02*
X167294000Y-82002000D01*
X167294000Y-82002000D02*
X160874000Y-82002000D01*
X160874000Y-82002000D02*
X160874000Y-84622000D01*
X160874000Y-84622000D02*
X167294000Y-84622000D01*
X168184000Y-83312000D02*
X167294000Y-83312000D01*
X159984000Y-83312000D02*
X160874000Y-83312000D01*
X167294000Y-81320000D02*
X167294000Y-78700000D01*
X167294000Y-78700000D02*
X160874000Y-78700000D01*
X160874000Y-78700000D02*
X160874000Y-81320000D01*
X160874000Y-81320000D02*
X167294000Y-81320000D01*
X168184000Y-80010000D02*
X167294000Y-80010000D01*
X159984000Y-80010000D02*
X160874000Y-80010000D01*
X161128000Y-62698000D02*
X161128000Y-65318000D01*
X161128000Y-65318000D02*
X167548000Y-65318000D01*
X167548000Y-65318000D02*
X167548000Y-62698000D01*
X167548000Y-62698000D02*
X161128000Y-62698000D01*
X160238000Y-64008000D02*
X161128000Y-64008000D01*
X168438000Y-64008000D02*
X167548000Y-64008000D01*
X168028000Y-71136000D02*
G75*
G02X168028000Y-73136000I0J-1000000D01*
G01*
X168028000Y-73136000D02*
X168028000Y-74906000D01*
X168028000Y-74906000D02*
X178428000Y-74906000D01*
X178428000Y-74906000D02*
X178428000Y-69366000D01*
X178428000Y-69366000D02*
X168028000Y-69366000D01*
X168028000Y-69366000D02*
X168028000Y-71136000D01*
X168028000Y-77336000D02*
X178428000Y-77336000D01*
X178428000Y-77336000D02*
X178428000Y-66936000D01*
X178428000Y-66936000D02*
X168028000Y-66936000D01*
X168028000Y-66936000D02*
X168028000Y-77336000D01*
X206756000Y-50352000D02*
X209356000Y-50352000D01*
X209356000Y-50352000D02*
X209356000Y-47692000D01*
X209356000Y-47692000D02*
X206756000Y-47692000D01*
X206756000Y-47692000D02*
X206756000Y-50352000D01*
X205486000Y-50352000D02*
X204156000Y-50352000D01*
X204156000Y-50352000D02*
X204156000Y-49022000D01*
X178308000Y-50352000D02*
X180908000Y-50352000D01*
X180908000Y-50352000D02*
X180908000Y-47692000D01*
X180908000Y-47692000D02*
X178308000Y-47692000D01*
X178308000Y-47692000D02*
X178308000Y-50352000D01*
X177038000Y-50352000D02*
X175708000Y-50352000D01*
X175708000Y-50352000D02*
X175708000Y-49022000D01*
X147574000Y-50352000D02*
X152714000Y-50352000D01*
X152714000Y-50352000D02*
X152714000Y-47692000D01*
X152714000Y-47692000D02*
X147574000Y-47692000D01*
X147574000Y-47692000D02*
X147574000Y-50352000D01*
X146304000Y-50352000D02*
X144974000Y-50352000D01*
X144974000Y-50352000D02*
X144974000Y-49022000D01*
X111252000Y-50352000D02*
X113852000Y-50352000D01*
X113852000Y-50352000D02*
X113852000Y-47692000D01*
X113852000Y-47692000D02*
X111252000Y-47692000D01*
X111252000Y-47692000D02*
X111252000Y-50352000D01*
X109982000Y-50352000D02*
X108652000Y-50352000D01*
X108652000Y-50352000D02*
X108652000Y-49022000D01*
X216348000Y-73660000D02*
X216348000Y-78800000D01*
X216348000Y-78800000D02*
X219008000Y-78800000D01*
X219008000Y-78800000D02*
X219008000Y-73660000D01*
X219008000Y-73660000D02*
X216348000Y-73660000D01*
X216348000Y-72390000D02*
X216348000Y-71060000D01*
X216348000Y-71060000D02*
X217678000Y-71060000D01*
X122174000Y-50352000D02*
X129854000Y-50352000D01*
X129854000Y-50352000D02*
X129854000Y-47692000D01*
X129854000Y-47692000D02*
X122174000Y-47692000D01*
X122174000Y-47692000D02*
X122174000Y-50352000D01*
X120904000Y-50352000D02*
X119574000Y-50352000D01*
X119574000Y-50352000D02*
X119574000Y-49022000D01*
X155194000Y-50352000D02*
X162874000Y-50352000D01*
X162874000Y-50352000D02*
X162874000Y-47692000D01*
X162874000Y-47692000D02*
X155194000Y-47692000D01*
X155194000Y-47692000D02*
X155194000Y-50352000D01*
X153924000Y-50352000D02*
X152594000Y-50352000D01*
X152594000Y-50352000D02*
X152594000Y-49022000D01*
X117094000Y-50352000D02*
X119694000Y-50352000D01*
X119694000Y-50352000D02*
X119694000Y-47692000D01*
X119694000Y-47692000D02*
X117094000Y-47692000D01*
X117094000Y-47692000D02*
X117094000Y-50352000D01*
X115824000Y-50352000D02*
X114494000Y-50352000D01*
X114494000Y-50352000D02*
X114494000Y-49022000D01*
X172466000Y-50352000D02*
X175066000Y-50352000D01*
X175066000Y-50352000D02*
X175066000Y-47692000D01*
X175066000Y-47692000D02*
X172466000Y-47692000D01*
X172466000Y-47692000D02*
X172466000Y-50352000D01*
X171196000Y-50352000D02*
X169866000Y-50352000D01*
X169866000Y-50352000D02*
X169866000Y-49022000D01*
X94488000Y-50606000D02*
X99628000Y-50606000D01*
X99628000Y-50606000D02*
X99628000Y-47946000D01*
X99628000Y-47946000D02*
X94488000Y-47946000D01*
X94488000Y-47946000D02*
X94488000Y-50606000D01*
X93218000Y-50606000D02*
X91888000Y-50606000D01*
X91888000Y-50606000D02*
X91888000Y-49276000D01*
X139192000Y-50352000D02*
X144332000Y-50352000D01*
X144332000Y-50352000D02*
X144332000Y-47692000D01*
X144332000Y-47692000D02*
X139192000Y-47692000D01*
X139192000Y-47692000D02*
X139192000Y-50352000D01*
X137922000Y-50352000D02*
X136592000Y-50352000D01*
X136592000Y-50352000D02*
X136592000Y-49022000D01*
X200914000Y-50352000D02*
X203514000Y-50352000D01*
X203514000Y-50352000D02*
X203514000Y-47692000D01*
X203514000Y-47692000D02*
X200914000Y-47692000D01*
X200914000Y-47692000D02*
X200914000Y-50352000D01*
X199644000Y-50352000D02*
X198314000Y-50352000D01*
X198314000Y-50352000D02*
X198314000Y-49022000D01*
X183388000Y-50352000D02*
X191068000Y-50352000D01*
X191068000Y-50352000D02*
X191068000Y-47692000D01*
X191068000Y-47692000D02*
X183388000Y-47692000D01*
X183388000Y-47692000D02*
X183388000Y-50352000D01*
X182118000Y-50352000D02*
X180788000Y-50352000D01*
X180788000Y-50352000D02*
X180788000Y-49022000D01*
X211836000Y-50352000D02*
X219516000Y-50352000D01*
X219516000Y-50352000D02*
X219516000Y-47692000D01*
X219516000Y-47692000D02*
X211836000Y-47692000D01*
X211836000Y-47692000D02*
X211836000Y-50352000D01*
X210566000Y-50352000D02*
X209236000Y-50352000D01*
X209236000Y-50352000D02*
X209236000Y-49022000D01*
X156718000Y-92650000D02*
X126178000Y-92650000D01*
X126178000Y-92650000D02*
X126178000Y-95310000D01*
X126178000Y-95310000D02*
X156718000Y-95310000D01*
X156718000Y-95310000D02*
X156718000Y-92650000D01*
X157988000Y-92650000D02*
X159318000Y-92650000D01*
X159318000Y-92650000D02*
X159318000Y-93980000D01*
X199898000Y-92650000D02*
X169358000Y-92650000D01*
X169358000Y-92650000D02*
X169358000Y-95310000D01*
X169358000Y-95310000D02*
X199898000Y-95310000D01*
X199898000Y-95310000D02*
X199898000Y-92650000D01*
X201168000Y-92650000D02*
X202498000Y-92650000D01*
X202498000Y-92650000D02*
X202498000Y-93980000D01*
X221936000Y-73660000D02*
X221936000Y-83880000D01*
X221936000Y-83880000D02*
X224596000Y-83880000D01*
X224596000Y-83880000D02*
X224596000Y-73660000D01*
X224596000Y-73660000D02*
X221936000Y-73660000D01*
X221936000Y-72390000D02*
X221936000Y-71060000D01*
X221936000Y-71060000D02*
X223266000Y-71060000D01*
X121800000Y-72152000D02*
G75*
G02X121800000Y-74152000I0J-1000000D01*
G01*
X121800000Y-74152000D02*
X121800000Y-75922000D01*
X121800000Y-75922000D02*
X132200000Y-75922000D01*
X132200000Y-75922000D02*
X132200000Y-70382000D01*
X132200000Y-70382000D02*
X121800000Y-70382000D01*
X121800000Y-70382000D02*
X121800000Y-72152000D01*
X121800000Y-78352000D02*
X132200000Y-78352000D01*
X132200000Y-78352000D02*
X132200000Y-67952000D01*
X132200000Y-67952000D02*
X121800000Y-67952000D01*
X121800000Y-67952000D02*
X121800000Y-78352000D01*
X114900000Y-62698000D02*
X114900000Y-65318000D01*
X114900000Y-65318000D02*
X121320000Y-65318000D01*
X121320000Y-65318000D02*
X121320000Y-62698000D01*
X121320000Y-62698000D02*
X114900000Y-62698000D01*
X114010000Y-64008000D02*
X114900000Y-64008000D01*
X122210000Y-64008000D02*
X121320000Y-64008000D01*
X121066000Y-82082000D02*
X121066000Y-79462000D01*
X121066000Y-79462000D02*
X114646000Y-79462000D01*
X114646000Y-79462000D02*
X114646000Y-82082000D01*
X114646000Y-82082000D02*
X121066000Y-82082000D01*
X121956000Y-80772000D02*
X121066000Y-80772000D01*
X113756000Y-80772000D02*
X114646000Y-80772000D01*
X121066000Y-85384000D02*
X121066000Y-82764000D01*
X121066000Y-82764000D02*
X114646000Y-82764000D01*
X114646000Y-82764000D02*
X114646000Y-85384000D01*
X114646000Y-85384000D02*
X121066000Y-85384000D01*
X121956000Y-84074000D02*
X121066000Y-84074000D01*
X113756000Y-84074000D02*
X114646000Y-84074000D01*
X132934000Y-82764000D02*
X132934000Y-85384000D01*
X132934000Y-85384000D02*
X139354000Y-85384000D01*
X139354000Y-85384000D02*
X139354000Y-82764000D01*
X139354000Y-82764000D02*
X132934000Y-82764000D01*
X132044000Y-84074000D02*
X132934000Y-84074000D01*
X140244000Y-84074000D02*
X139354000Y-84074000D01*
X132934000Y-79462000D02*
X132934000Y-82082000D01*
X132934000Y-82082000D02*
X139354000Y-82082000D01*
X139354000Y-82082000D02*
X139354000Y-79462000D01*
X139354000Y-79462000D02*
X132934000Y-79462000D01*
X132044000Y-80772000D02*
X132934000Y-80772000D01*
X140244000Y-80772000D02*
X139354000Y-80772000D01*
X137506000Y-70572000D02*
X137506000Y-73192000D01*
X137506000Y-73192000D02*
X143926000Y-73192000D01*
X143926000Y-73192000D02*
X143926000Y-70572000D01*
X143926000Y-70572000D02*
X137506000Y-70572000D01*
X136616000Y-71882000D02*
X137506000Y-71882000D01*
X144816000Y-71882000D02*
X143926000Y-71882000D01*
X137760000Y-62698000D02*
X137760000Y-65318000D01*
X137760000Y-65318000D02*
X144180000Y-65318000D01*
X144180000Y-65318000D02*
X144180000Y-62698000D01*
X144180000Y-62698000D02*
X137760000Y-62698000D01*
X136870000Y-64008000D02*
X137760000Y-64008000D01*
X145070000Y-64008000D02*
X144180000Y-64008000D01*
X146212000Y-61508000D02*
X146212000Y-58888000D01*
X146212000Y-58888000D02*
X139792000Y-58888000D01*
X139792000Y-58888000D02*
X139792000Y-61508000D01*
X139792000Y-61508000D02*
X146212000Y-61508000D01*
X147102000Y-60198000D02*
X146212000Y-60198000D01*
X138902000Y-60198000D02*
X139792000Y-60198000D01*
D13*
X91340381Y-61190095D02*
X90340381Y-61190095D01*
X90340381Y-60809142D01*
X90388000Y-60713904D01*
X90435619Y-60666285D01*
X90530857Y-60618666D01*
X90673714Y-60618666D01*
X90768952Y-60666285D01*
X90816571Y-60713904D01*
X90864190Y-60809142D01*
X90864190Y-61190095D01*
X90340381Y-59713904D02*
X90340381Y-60190095D01*
X90816571Y-60237714D01*
X90768952Y-60190095D01*
X90721333Y-60094857D01*
X90721333Y-59856761D01*
X90768952Y-59761523D01*
X90816571Y-59713904D01*
X90911810Y-59666285D01*
X91149905Y-59666285D01*
X91245143Y-59713904D01*
X91292762Y-59761523D01*
X91340381Y-59856761D01*
X91340381Y-60094857D01*
X91292762Y-60190095D01*
X91245143Y-60237714D01*
X91340381Y-55602095D02*
X90340381Y-55602095D01*
X90340381Y-55221142D01*
X90388000Y-55125904D01*
X90435619Y-55078285D01*
X90530857Y-55030666D01*
X90673714Y-55030666D01*
X90768952Y-55078285D01*
X90816571Y-55125904D01*
X90864190Y-55221142D01*
X90864190Y-55602095D01*
X90340381Y-54125904D02*
X90340381Y-54602095D01*
X90816571Y-54649714D01*
X90768952Y-54602095D01*
X90721333Y-54506857D01*
X90721333Y-54268761D01*
X90768952Y-54173523D01*
X90816571Y-54125904D01*
X90911810Y-54078285D01*
X91149905Y-54078285D01*
X91245143Y-54125904D01*
X91292762Y-54173523D01*
X91340381Y-54268761D01*
X91340381Y-54506857D01*
X91292762Y-54602095D01*
X91245143Y-54649714D01*
X186777334Y-60396381D02*
X186444000Y-59920190D01*
X186205905Y-60396381D02*
X186205905Y-59396381D01*
X186586858Y-59396381D01*
X186682096Y-59444000D01*
X186729715Y-59491619D01*
X186777334Y-59586857D01*
X186777334Y-59729714D01*
X186729715Y-59824952D01*
X186682096Y-59872571D01*
X186586858Y-59920190D01*
X186205905Y-59920190D01*
X187253524Y-60396381D02*
X187444000Y-60396381D01*
X187539239Y-60348762D01*
X187586858Y-60301143D01*
X187682096Y-60158286D01*
X187729715Y-59967810D01*
X187729715Y-59586857D01*
X187682096Y-59491619D01*
X187634477Y-59444000D01*
X187539239Y-59396381D01*
X187348762Y-59396381D01*
X187253524Y-59444000D01*
X187205905Y-59491619D01*
X187158286Y-59586857D01*
X187158286Y-59824952D01*
X187205905Y-59920190D01*
X187253524Y-59967810D01*
X187348762Y-60015429D01*
X187539239Y-60015429D01*
X187634477Y-59967810D01*
X187682096Y-59920190D01*
X187729715Y-59824952D01*
X184523143Y-64460381D02*
X184189809Y-63984190D01*
X183951714Y-64460381D02*
X183951714Y-63460381D01*
X184332667Y-63460381D01*
X184427905Y-63508000D01*
X184475524Y-63555619D01*
X184523143Y-63650857D01*
X184523143Y-63793714D01*
X184475524Y-63888952D01*
X184427905Y-63936571D01*
X184332667Y-63984190D01*
X183951714Y-63984190D01*
X185475524Y-64460381D02*
X184904095Y-64460381D01*
X185189809Y-64460381D02*
X185189809Y-63460381D01*
X185094571Y-63603238D01*
X184999333Y-63698476D01*
X184904095Y-63746095D01*
X186332667Y-63460381D02*
X186142190Y-63460381D01*
X186046952Y-63508000D01*
X185999333Y-63555619D01*
X185904095Y-63698476D01*
X185856476Y-63888952D01*
X185856476Y-64269905D01*
X185904095Y-64365143D01*
X185951714Y-64412762D01*
X186046952Y-64460381D01*
X186237429Y-64460381D01*
X186332667Y-64412762D01*
X186380286Y-64365143D01*
X186427905Y-64269905D01*
X186427905Y-64031810D01*
X186380286Y-63936571D01*
X186332667Y-63888952D01*
X186237429Y-63841333D01*
X186046952Y-63841333D01*
X185951714Y-63888952D01*
X185904095Y-63936571D01*
X185856476Y-64031810D01*
X186301143Y-70024381D02*
X185967809Y-69548190D01*
X185729714Y-70024381D02*
X185729714Y-69024381D01*
X186110667Y-69024381D01*
X186205905Y-69072000D01*
X186253524Y-69119619D01*
X186301143Y-69214857D01*
X186301143Y-69357714D01*
X186253524Y-69452952D01*
X186205905Y-69500571D01*
X186110667Y-69548190D01*
X185729714Y-69548190D01*
X187253524Y-70024381D02*
X186682095Y-70024381D01*
X186967809Y-70024381D02*
X186967809Y-69024381D01*
X186872571Y-69167238D01*
X186777333Y-69262476D01*
X186682095Y-69310095D01*
X187872571Y-69024381D02*
X187967810Y-69024381D01*
X188063048Y-69072000D01*
X188110667Y-69119619D01*
X188158286Y-69214857D01*
X188205905Y-69405333D01*
X188205905Y-69643429D01*
X188158286Y-69833905D01*
X188110667Y-69929143D01*
X188063048Y-69976762D01*
X187967810Y-70024381D01*
X187872571Y-70024381D01*
X187777333Y-69976762D01*
X187729714Y-69929143D01*
X187682095Y-69833905D01*
X187634476Y-69643429D01*
X187634476Y-69405333D01*
X187682095Y-69214857D01*
X187729714Y-69119619D01*
X187777333Y-69072000D01*
X187872571Y-69024381D01*
X189603143Y-80462381D02*
X189269809Y-79986190D01*
X189031714Y-80462381D02*
X189031714Y-79462381D01*
X189412667Y-79462381D01*
X189507905Y-79510000D01*
X189555524Y-79557619D01*
X189603143Y-79652857D01*
X189603143Y-79795714D01*
X189555524Y-79890952D01*
X189507905Y-79938571D01*
X189412667Y-79986190D01*
X189031714Y-79986190D01*
X190555524Y-80462381D02*
X189984095Y-80462381D01*
X190269809Y-80462381D02*
X190269809Y-79462381D01*
X190174571Y-79605238D01*
X190079333Y-79700476D01*
X189984095Y-79748095D01*
X191507905Y-80462381D02*
X190936476Y-80462381D01*
X191222190Y-80462381D02*
X191222190Y-79462381D01*
X191126952Y-79605238D01*
X191031714Y-79700476D01*
X190936476Y-79748095D01*
X189603143Y-83764381D02*
X189269809Y-83288190D01*
X189031714Y-83764381D02*
X189031714Y-82764381D01*
X189412667Y-82764381D01*
X189507905Y-82812000D01*
X189555524Y-82859619D01*
X189603143Y-82954857D01*
X189603143Y-83097714D01*
X189555524Y-83192952D01*
X189507905Y-83240571D01*
X189412667Y-83288190D01*
X189031714Y-83288190D01*
X190555524Y-83764381D02*
X189984095Y-83764381D01*
X190269809Y-83764381D02*
X190269809Y-82764381D01*
X190174571Y-82907238D01*
X190079333Y-83002476D01*
X189984095Y-83050095D01*
X190888857Y-82764381D02*
X191507905Y-82764381D01*
X191174571Y-83145333D01*
X191317429Y-83145333D01*
X191412667Y-83192952D01*
X191460286Y-83240571D01*
X191507905Y-83335810D01*
X191507905Y-83573905D01*
X191460286Y-83669143D01*
X191412667Y-83716762D01*
X191317429Y-83764381D01*
X191031714Y-83764381D01*
X190936476Y-83716762D01*
X190888857Y-83669143D01*
X155567143Y-83510381D02*
X155233809Y-83034190D01*
X154995714Y-83510381D02*
X154995714Y-82510381D01*
X155376667Y-82510381D01*
X155471905Y-82558000D01*
X155519524Y-82605619D01*
X155567143Y-82700857D01*
X155567143Y-82843714D01*
X155519524Y-82938952D01*
X155471905Y-82986571D01*
X155376667Y-83034190D01*
X154995714Y-83034190D01*
X156519524Y-83510381D02*
X155948095Y-83510381D01*
X156233809Y-83510381D02*
X156233809Y-82510381D01*
X156138571Y-82653238D01*
X156043333Y-82748476D01*
X155948095Y-82796095D01*
X157376667Y-82843714D02*
X157376667Y-83510381D01*
X157138571Y-82462762D02*
X156900476Y-83177048D01*
X157519524Y-83177048D01*
X155567143Y-80462381D02*
X155233809Y-79986190D01*
X154995714Y-80462381D02*
X154995714Y-79462381D01*
X155376667Y-79462381D01*
X155471905Y-79510000D01*
X155519524Y-79557619D01*
X155567143Y-79652857D01*
X155567143Y-79795714D01*
X155519524Y-79890952D01*
X155471905Y-79938571D01*
X155376667Y-79986190D01*
X154995714Y-79986190D01*
X156519524Y-80462381D02*
X155948095Y-80462381D01*
X156233809Y-80462381D02*
X156233809Y-79462381D01*
X156138571Y-79605238D01*
X156043333Y-79700476D01*
X155948095Y-79748095D01*
X156900476Y-79557619D02*
X156948095Y-79510000D01*
X157043333Y-79462381D01*
X157281429Y-79462381D01*
X157376667Y-79510000D01*
X157424286Y-79557619D01*
X157471905Y-79652857D01*
X157471905Y-79748095D01*
X157424286Y-79890952D01*
X156852857Y-80462381D01*
X157471905Y-80462381D01*
X155567143Y-64460381D02*
X155233809Y-63984190D01*
X154995714Y-64460381D02*
X154995714Y-63460381D01*
X155376667Y-63460381D01*
X155471905Y-63508000D01*
X155519524Y-63555619D01*
X155567143Y-63650857D01*
X155567143Y-63793714D01*
X155519524Y-63888952D01*
X155471905Y-63936571D01*
X155376667Y-63984190D01*
X154995714Y-63984190D01*
X156519524Y-64460381D02*
X155948095Y-64460381D01*
X156233809Y-64460381D02*
X156233809Y-63460381D01*
X156138571Y-63603238D01*
X156043333Y-63698476D01*
X155948095Y-63746095D01*
X157424286Y-63460381D02*
X156948095Y-63460381D01*
X156900476Y-63936571D01*
X156948095Y-63888952D01*
X157043333Y-63841333D01*
X157281429Y-63841333D01*
X157376667Y-63888952D01*
X157424286Y-63936571D01*
X157471905Y-64031810D01*
X157471905Y-64269905D01*
X157424286Y-64365143D01*
X157376667Y-64412762D01*
X157281429Y-64460381D01*
X157043333Y-64460381D01*
X156948095Y-64412762D01*
X156900476Y-64365143D01*
X166480381Y-72897905D02*
X167289905Y-72897905D01*
X167385143Y-72850286D01*
X167432762Y-72802667D01*
X167480381Y-72707429D01*
X167480381Y-72516952D01*
X167432762Y-72421714D01*
X167385143Y-72374095D01*
X167289905Y-72326476D01*
X166480381Y-72326476D01*
X166575619Y-71897905D02*
X166528000Y-71850286D01*
X166480381Y-71755048D01*
X166480381Y-71516952D01*
X166528000Y-71421714D01*
X166575619Y-71374095D01*
X166670857Y-71326476D01*
X166766095Y-71326476D01*
X166908952Y-71374095D01*
X167480381Y-71945524D01*
X167480381Y-71326476D01*
X203608381Y-49760095D02*
X202608381Y-49760095D01*
X202608381Y-49379142D01*
X202656000Y-49283904D01*
X202703619Y-49236285D01*
X202798857Y-49188666D01*
X202941714Y-49188666D01*
X203036952Y-49236285D01*
X203084571Y-49283904D01*
X203132190Y-49379142D01*
X203132190Y-49760095D01*
X202608381Y-48855333D02*
X202608381Y-48188666D01*
X203608381Y-48617238D01*
X175160381Y-49760095D02*
X174160381Y-49760095D01*
X174160381Y-49379142D01*
X174208000Y-49283904D01*
X174255619Y-49236285D01*
X174350857Y-49188666D01*
X174493714Y-49188666D01*
X174588952Y-49236285D01*
X174636571Y-49283904D01*
X174684190Y-49379142D01*
X174684190Y-49760095D01*
X174493714Y-48331523D02*
X175160381Y-48331523D01*
X174112762Y-48569619D02*
X174827048Y-48807714D01*
X174827048Y-48188666D01*
X144426381Y-49760095D02*
X143426381Y-49760095D01*
X143426381Y-49379142D01*
X143474000Y-49283904D01*
X143521619Y-49236285D01*
X143616857Y-49188666D01*
X143759714Y-49188666D01*
X143854952Y-49236285D01*
X143902571Y-49283904D01*
X143950190Y-49379142D01*
X143950190Y-49760095D01*
X143426381Y-48331523D02*
X143426381Y-48522000D01*
X143474000Y-48617238D01*
X143521619Y-48664857D01*
X143664476Y-48760095D01*
X143854952Y-48807714D01*
X144235905Y-48807714D01*
X144331143Y-48760095D01*
X144378762Y-48712476D01*
X144426381Y-48617238D01*
X144426381Y-48426761D01*
X144378762Y-48331523D01*
X144331143Y-48283904D01*
X144235905Y-48236285D01*
X143997810Y-48236285D01*
X143902571Y-48283904D01*
X143854952Y-48331523D01*
X143807333Y-48426761D01*
X143807333Y-48617238D01*
X143854952Y-48712476D01*
X143902571Y-48760095D01*
X143997810Y-48807714D01*
X108104381Y-49760095D02*
X107104381Y-49760095D01*
X107104381Y-49379142D01*
X107152000Y-49283904D01*
X107199619Y-49236285D01*
X107294857Y-49188666D01*
X107437714Y-49188666D01*
X107532952Y-49236285D01*
X107580571Y-49283904D01*
X107628190Y-49379142D01*
X107628190Y-49760095D01*
X107104381Y-48855333D02*
X107104381Y-48236285D01*
X107485333Y-48569619D01*
X107485333Y-48426761D01*
X107532952Y-48331523D01*
X107580571Y-48283904D01*
X107675810Y-48236285D01*
X107913905Y-48236285D01*
X108009143Y-48283904D01*
X108056762Y-48331523D01*
X108104381Y-48426761D01*
X108104381Y-48712476D01*
X108056762Y-48807714D01*
X108009143Y-48855333D01*
X108585333Y-52014381D02*
X108585333Y-51014381D01*
X108918667Y-51728667D01*
X109252000Y-51014381D01*
X109252000Y-52014381D01*
X109728190Y-51490571D02*
X110061524Y-51490571D01*
X110204381Y-52014381D02*
X109728190Y-52014381D01*
X109728190Y-51014381D01*
X110204381Y-51014381D01*
X110585333Y-51728667D02*
X111061524Y-51728667D01*
X110490095Y-52014381D02*
X110823428Y-51014381D01*
X111156762Y-52014381D01*
X111442476Y-51966762D02*
X111585333Y-52014381D01*
X111823429Y-52014381D01*
X111918667Y-51966762D01*
X111966286Y-51919143D01*
X112013905Y-51823905D01*
X112013905Y-51728667D01*
X111966286Y-51633429D01*
X111918667Y-51585810D01*
X111823429Y-51538190D01*
X111632952Y-51490571D01*
X111537714Y-51442952D01*
X111490095Y-51395333D01*
X111442476Y-51300095D01*
X111442476Y-51204857D01*
X111490095Y-51109619D01*
X111537714Y-51062000D01*
X111632952Y-51014381D01*
X111871048Y-51014381D01*
X112013905Y-51062000D01*
X112442476Y-52014381D02*
X112442476Y-51014381D01*
X112823429Y-51014381D01*
X112918667Y-51062000D01*
X112966286Y-51109619D01*
X113013905Y-51204857D01*
X113013905Y-51347714D01*
X112966286Y-51442952D01*
X112918667Y-51490571D01*
X112823429Y-51538190D01*
X112442476Y-51538190D01*
X113966286Y-52014381D02*
X113394857Y-52014381D01*
X113680571Y-52014381D02*
X113680571Y-51014381D01*
X113585333Y-51157238D01*
X113490095Y-51252476D01*
X113394857Y-51300095D01*
X216844667Y-69512381D02*
X216844667Y-70226667D01*
X216797047Y-70369524D01*
X216701809Y-70464762D01*
X216558952Y-70512381D01*
X216463714Y-70512381D01*
X217320857Y-70512381D02*
X217320857Y-69512381D01*
X217701810Y-69512381D01*
X217797048Y-69560000D01*
X217844667Y-69607619D01*
X217892286Y-69702857D01*
X217892286Y-69845714D01*
X217844667Y-69940952D01*
X217797048Y-69988571D01*
X217701810Y-70036190D01*
X217320857Y-70036190D01*
X218844667Y-70512381D02*
X218273238Y-70512381D01*
X218558952Y-70512381D02*
X218558952Y-69512381D01*
X218463714Y-69655238D01*
X218368476Y-69750476D01*
X218273238Y-69798095D01*
X119026381Y-49760095D02*
X118026381Y-49760095D01*
X118026381Y-49379142D01*
X118074000Y-49283904D01*
X118121619Y-49236285D01*
X118216857Y-49188666D01*
X118359714Y-49188666D01*
X118454952Y-49236285D01*
X118502571Y-49283904D01*
X118550190Y-49379142D01*
X118550190Y-49760095D01*
X119026381Y-48236285D02*
X119026381Y-48807714D01*
X119026381Y-48522000D02*
X118026381Y-48522000D01*
X118169238Y-48617238D01*
X118264476Y-48712476D01*
X118312095Y-48807714D01*
X120737333Y-52474381D02*
X120737333Y-51474381D01*
X121070667Y-52188667D01*
X121404000Y-51474381D01*
X121404000Y-52474381D01*
X121880190Y-51950571D02*
X122213524Y-51950571D01*
X122356381Y-52474381D02*
X121880190Y-52474381D01*
X121880190Y-51474381D01*
X122356381Y-51474381D01*
X122737333Y-52188667D02*
X123213524Y-52188667D01*
X122642095Y-52474381D02*
X122975428Y-51474381D01*
X123308762Y-52474381D01*
X123594476Y-52426762D02*
X123737333Y-52474381D01*
X123975429Y-52474381D01*
X124070667Y-52426762D01*
X124118286Y-52379143D01*
X124165905Y-52283905D01*
X124165905Y-52188667D01*
X124118286Y-52093429D01*
X124070667Y-52045810D01*
X123975429Y-51998190D01*
X123784952Y-51950571D01*
X123689714Y-51902952D01*
X123642095Y-51855333D01*
X123594476Y-51760095D01*
X123594476Y-51664857D01*
X123642095Y-51569619D01*
X123689714Y-51522000D01*
X123784952Y-51474381D01*
X124023048Y-51474381D01*
X124165905Y-51522000D01*
X125118286Y-52474381D02*
X124546857Y-52474381D01*
X124832571Y-52474381D02*
X124832571Y-51474381D01*
X124737333Y-51617238D01*
X124642095Y-51712476D01*
X124546857Y-51760095D01*
X152046381Y-49760095D02*
X151046381Y-49760095D01*
X151046381Y-49379142D01*
X151094000Y-49283904D01*
X151141619Y-49236285D01*
X151236857Y-49188666D01*
X151379714Y-49188666D01*
X151474952Y-49236285D01*
X151522571Y-49283904D01*
X151570190Y-49379142D01*
X151570190Y-49760095D01*
X151141619Y-48807714D02*
X151094000Y-48760095D01*
X151046381Y-48664857D01*
X151046381Y-48426761D01*
X151094000Y-48331523D01*
X151141619Y-48283904D01*
X151236857Y-48236285D01*
X151332095Y-48236285D01*
X151474952Y-48283904D01*
X152046381Y-48855333D01*
X152046381Y-48236285D01*
X153860572Y-52014381D02*
X153527238Y-51538190D01*
X153289143Y-52014381D02*
X153289143Y-51014381D01*
X153670096Y-51014381D01*
X153765334Y-51062000D01*
X153812953Y-51109619D01*
X153860572Y-51204857D01*
X153860572Y-51347714D01*
X153812953Y-51442952D01*
X153765334Y-51490571D01*
X153670096Y-51538190D01*
X153289143Y-51538190D01*
X154289143Y-51490571D02*
X154622477Y-51490571D01*
X154765334Y-52014381D02*
X154289143Y-52014381D01*
X154289143Y-51014381D01*
X154765334Y-51014381D01*
X155527239Y-51490571D02*
X155193905Y-51490571D01*
X155193905Y-52014381D02*
X155193905Y-51014381D01*
X155670096Y-51014381D01*
X113946381Y-49760095D02*
X112946381Y-49760095D01*
X112946381Y-49379142D01*
X112994000Y-49283904D01*
X113041619Y-49236285D01*
X113136857Y-49188666D01*
X113279714Y-49188666D01*
X113374952Y-49236285D01*
X113422571Y-49283904D01*
X113470190Y-49379142D01*
X113470190Y-49760095D01*
X112946381Y-48855333D02*
X112946381Y-48236285D01*
X113327333Y-48569619D01*
X113327333Y-48426761D01*
X113374952Y-48331523D01*
X113422571Y-48283904D01*
X113517810Y-48236285D01*
X113755905Y-48236285D01*
X113851143Y-48283904D01*
X113898762Y-48331523D01*
X113946381Y-48426761D01*
X113946381Y-48712476D01*
X113898762Y-48807714D01*
X113851143Y-48855333D01*
X169318381Y-49760095D02*
X168318381Y-49760095D01*
X168318381Y-49379142D01*
X168366000Y-49283904D01*
X168413619Y-49236285D01*
X168508857Y-49188666D01*
X168651714Y-49188666D01*
X168746952Y-49236285D01*
X168794571Y-49283904D01*
X168842190Y-49379142D01*
X168842190Y-49760095D01*
X168651714Y-48331523D02*
X169318381Y-48331523D01*
X168270762Y-48569619D02*
X168985048Y-48807714D01*
X168985048Y-48188666D01*
X169545333Y-52268381D02*
X169545333Y-51268381D01*
X169878667Y-51982667D01*
X170212000Y-51268381D01*
X170212000Y-52268381D01*
X170688190Y-51744571D02*
X171021524Y-51744571D01*
X171164381Y-52268381D02*
X170688190Y-52268381D01*
X170688190Y-51268381D01*
X171164381Y-51268381D01*
X171545333Y-51982667D02*
X172021524Y-51982667D01*
X171450095Y-52268381D02*
X171783428Y-51268381D01*
X172116762Y-52268381D01*
X172402476Y-52220762D02*
X172545333Y-52268381D01*
X172783429Y-52268381D01*
X172878667Y-52220762D01*
X172926286Y-52173143D01*
X172973905Y-52077905D01*
X172973905Y-51982667D01*
X172926286Y-51887429D01*
X172878667Y-51839810D01*
X172783429Y-51792190D01*
X172592952Y-51744571D01*
X172497714Y-51696952D01*
X172450095Y-51649333D01*
X172402476Y-51554095D01*
X172402476Y-51458857D01*
X172450095Y-51363619D01*
X172497714Y-51316000D01*
X172592952Y-51268381D01*
X172831048Y-51268381D01*
X172973905Y-51316000D01*
X173402476Y-52268381D02*
X173402476Y-51268381D01*
X173783429Y-51268381D01*
X173878667Y-51316000D01*
X173926286Y-51363619D01*
X173973905Y-51458857D01*
X173973905Y-51601714D01*
X173926286Y-51696952D01*
X173878667Y-51744571D01*
X173783429Y-51792190D01*
X173402476Y-51792190D01*
X174354857Y-51363619D02*
X174402476Y-51316000D01*
X174497714Y-51268381D01*
X174735810Y-51268381D01*
X174831048Y-51316000D01*
X174878667Y-51363619D01*
X174926286Y-51458857D01*
X174926286Y-51554095D01*
X174878667Y-51696952D01*
X174307238Y-52268381D01*
X174926286Y-52268381D01*
X91340381Y-50014095D02*
X90340381Y-50014095D01*
X90340381Y-49633142D01*
X90388000Y-49537904D01*
X90435619Y-49490285D01*
X90530857Y-49442666D01*
X90673714Y-49442666D01*
X90768952Y-49490285D01*
X90816571Y-49537904D01*
X90864190Y-49633142D01*
X90864190Y-50014095D01*
X90340381Y-48537904D02*
X90340381Y-49014095D01*
X90816571Y-49061714D01*
X90768952Y-49014095D01*
X90721333Y-48918857D01*
X90721333Y-48680761D01*
X90768952Y-48585523D01*
X90816571Y-48537904D01*
X90911810Y-48490285D01*
X91149905Y-48490285D01*
X91245143Y-48537904D01*
X91292762Y-48585523D01*
X91340381Y-48680761D01*
X91340381Y-48918857D01*
X91292762Y-49014095D01*
X91245143Y-49061714D01*
X136044381Y-49760095D02*
X135044381Y-49760095D01*
X135044381Y-49379142D01*
X135092000Y-49283904D01*
X135139619Y-49236285D01*
X135234857Y-49188666D01*
X135377714Y-49188666D01*
X135472952Y-49236285D01*
X135520571Y-49283904D01*
X135568190Y-49379142D01*
X135568190Y-49760095D01*
X135044381Y-48331523D02*
X135044381Y-48522000D01*
X135092000Y-48617238D01*
X135139619Y-48664857D01*
X135282476Y-48760095D01*
X135472952Y-48807714D01*
X135853905Y-48807714D01*
X135949143Y-48760095D01*
X135996762Y-48712476D01*
X136044381Y-48617238D01*
X136044381Y-48426761D01*
X135996762Y-48331523D01*
X135949143Y-48283904D01*
X135853905Y-48236285D01*
X135615810Y-48236285D01*
X135520571Y-48283904D01*
X135472952Y-48331523D01*
X135425333Y-48426761D01*
X135425333Y-48617238D01*
X135472952Y-48712476D01*
X135520571Y-48760095D01*
X135615810Y-48807714D01*
X138549333Y-52014381D02*
X138549333Y-51014381D01*
X138549333Y-51490571D02*
X139120762Y-51490571D01*
X139120762Y-52014381D02*
X139120762Y-51014381D01*
X139596952Y-51490571D02*
X139930286Y-51490571D01*
X140073143Y-52014381D02*
X139596952Y-52014381D01*
X139596952Y-51014381D01*
X140073143Y-51014381D01*
X140454095Y-51728667D02*
X140930286Y-51728667D01*
X140358857Y-52014381D02*
X140692190Y-51014381D01*
X141025524Y-52014381D01*
X141358857Y-52014381D02*
X141358857Y-51014381D01*
X141596952Y-51014381D01*
X141739810Y-51062000D01*
X141835048Y-51157238D01*
X141882667Y-51252476D01*
X141930286Y-51442952D01*
X141930286Y-51585810D01*
X141882667Y-51776286D01*
X141835048Y-51871524D01*
X141739810Y-51966762D01*
X141596952Y-52014381D01*
X141358857Y-52014381D01*
X142358857Y-52014381D02*
X142358857Y-51014381D01*
X142739810Y-51014381D01*
X142835048Y-51062000D01*
X142882667Y-51109619D01*
X142930286Y-51204857D01*
X142930286Y-51347714D01*
X142882667Y-51442952D01*
X142835048Y-51490571D01*
X142739810Y-51538190D01*
X142358857Y-51538190D01*
X197766381Y-49760095D02*
X196766381Y-49760095D01*
X196766381Y-49379142D01*
X196814000Y-49283904D01*
X196861619Y-49236285D01*
X196956857Y-49188666D01*
X197099714Y-49188666D01*
X197194952Y-49236285D01*
X197242571Y-49283904D01*
X197290190Y-49379142D01*
X197290190Y-49760095D01*
X196766381Y-48855333D02*
X196766381Y-48188666D01*
X197766381Y-48617238D01*
X180240381Y-49760095D02*
X179240381Y-49760095D01*
X179240381Y-49379142D01*
X179288000Y-49283904D01*
X179335619Y-49236285D01*
X179430857Y-49188666D01*
X179573714Y-49188666D01*
X179668952Y-49236285D01*
X179716571Y-49283904D01*
X179764190Y-49379142D01*
X179764190Y-49760095D01*
X179668952Y-48617238D02*
X179621333Y-48712476D01*
X179573714Y-48760095D01*
X179478476Y-48807714D01*
X179430857Y-48807714D01*
X179335619Y-48760095D01*
X179288000Y-48712476D01*
X179240381Y-48617238D01*
X179240381Y-48426761D01*
X179288000Y-48331523D01*
X179335619Y-48283904D01*
X179430857Y-48236285D01*
X179478476Y-48236285D01*
X179573714Y-48283904D01*
X179621333Y-48331523D01*
X179668952Y-48426761D01*
X179668952Y-48617238D01*
X179716571Y-48712476D01*
X179764190Y-48760095D01*
X179859429Y-48807714D01*
X180049905Y-48807714D01*
X180145143Y-48760095D01*
X180192762Y-48712476D01*
X180240381Y-48617238D01*
X180240381Y-48426761D01*
X180192762Y-48331523D01*
X180145143Y-48283904D01*
X180049905Y-48236285D01*
X179859429Y-48236285D01*
X179764190Y-48283904D01*
X179716571Y-48331523D01*
X179668952Y-48426761D01*
X180967333Y-52268381D02*
X180967333Y-51268381D01*
X181300667Y-51982667D01*
X181634000Y-51268381D01*
X181634000Y-52268381D01*
X182110190Y-51744571D02*
X182443524Y-51744571D01*
X182586381Y-52268381D02*
X182110190Y-52268381D01*
X182110190Y-51268381D01*
X182586381Y-51268381D01*
X182967333Y-51982667D02*
X183443524Y-51982667D01*
X182872095Y-52268381D02*
X183205428Y-51268381D01*
X183538762Y-52268381D01*
X183824476Y-52220762D02*
X183967333Y-52268381D01*
X184205429Y-52268381D01*
X184300667Y-52220762D01*
X184348286Y-52173143D01*
X184395905Y-52077905D01*
X184395905Y-51982667D01*
X184348286Y-51887429D01*
X184300667Y-51839810D01*
X184205429Y-51792190D01*
X184014952Y-51744571D01*
X183919714Y-51696952D01*
X183872095Y-51649333D01*
X183824476Y-51554095D01*
X183824476Y-51458857D01*
X183872095Y-51363619D01*
X183919714Y-51316000D01*
X184014952Y-51268381D01*
X184253048Y-51268381D01*
X184395905Y-51316000D01*
X184776857Y-51363619D02*
X184824476Y-51316000D01*
X184919714Y-51268381D01*
X185157810Y-51268381D01*
X185253048Y-51316000D01*
X185300667Y-51363619D01*
X185348286Y-51458857D01*
X185348286Y-51554095D01*
X185300667Y-51696952D01*
X184729238Y-52268381D01*
X185348286Y-52268381D01*
X208688381Y-49760095D02*
X207688381Y-49760095D01*
X207688381Y-49379142D01*
X207736000Y-49283904D01*
X207783619Y-49236285D01*
X207878857Y-49188666D01*
X208021714Y-49188666D01*
X208116952Y-49236285D01*
X208164571Y-49283904D01*
X208212190Y-49379142D01*
X208212190Y-49760095D01*
X208688381Y-48712476D02*
X208688381Y-48522000D01*
X208640762Y-48426761D01*
X208593143Y-48379142D01*
X208450286Y-48283904D01*
X208259810Y-48236285D01*
X207878857Y-48236285D01*
X207783619Y-48283904D01*
X207736000Y-48331523D01*
X207688381Y-48426761D01*
X207688381Y-48617238D01*
X207736000Y-48712476D01*
X207783619Y-48760095D01*
X207878857Y-48807714D01*
X208116952Y-48807714D01*
X208212190Y-48760095D01*
X208259810Y-48712476D01*
X208307429Y-48617238D01*
X208307429Y-48426761D01*
X208259810Y-48331523D01*
X208212190Y-48283904D01*
X208116952Y-48236285D01*
X209923333Y-52268381D02*
X209923333Y-51268381D01*
X210256667Y-51982667D01*
X210590000Y-51268381D01*
X210590000Y-52268381D01*
X211066190Y-51744571D02*
X211399524Y-51744571D01*
X211542381Y-52268381D02*
X211066190Y-52268381D01*
X211066190Y-51268381D01*
X211542381Y-51268381D01*
X211923333Y-51982667D02*
X212399524Y-51982667D01*
X211828095Y-52268381D02*
X212161428Y-51268381D01*
X212494762Y-52268381D01*
X212780476Y-52220762D02*
X212923333Y-52268381D01*
X213161429Y-52268381D01*
X213256667Y-52220762D01*
X213304286Y-52173143D01*
X213351905Y-52077905D01*
X213351905Y-51982667D01*
X213304286Y-51887429D01*
X213256667Y-51839810D01*
X213161429Y-51792190D01*
X212970952Y-51744571D01*
X212875714Y-51696952D01*
X212828095Y-51649333D01*
X212780476Y-51554095D01*
X212780476Y-51458857D01*
X212828095Y-51363619D01*
X212875714Y-51316000D01*
X212970952Y-51268381D01*
X213209048Y-51268381D01*
X213351905Y-51316000D01*
X213685238Y-51268381D02*
X214304286Y-51268381D01*
X213970952Y-51649333D01*
X214113810Y-51649333D01*
X214209048Y-51696952D01*
X214256667Y-51744571D01*
X214304286Y-51839810D01*
X214304286Y-52077905D01*
X214256667Y-52173143D01*
X214209048Y-52220762D01*
X214113810Y-52268381D01*
X213828095Y-52268381D01*
X213732857Y-52220762D01*
X213685238Y-52173143D01*
X160770381Y-95194286D02*
X159770381Y-95194286D01*
X159770381Y-94813333D01*
X159818000Y-94718095D01*
X159865619Y-94670476D01*
X159960857Y-94622857D01*
X160103714Y-94622857D01*
X160198952Y-94670476D01*
X160246571Y-94718095D01*
X160294190Y-94813333D01*
X160294190Y-95194286D01*
X160770381Y-93670476D02*
X160770381Y-94241905D01*
X160770381Y-93956191D02*
X159770381Y-93956191D01*
X159913238Y-94051429D01*
X160008476Y-94146667D01*
X160056095Y-94241905D01*
X159770381Y-93051429D02*
X159770381Y-92956190D01*
X159818000Y-92860952D01*
X159865619Y-92813333D01*
X159960857Y-92765714D01*
X160151333Y-92718095D01*
X160389429Y-92718095D01*
X160579905Y-92765714D01*
X160675143Y-92813333D01*
X160722762Y-92860952D01*
X160770381Y-92956190D01*
X160770381Y-93051429D01*
X160722762Y-93146667D01*
X160675143Y-93194286D01*
X160579905Y-93241905D01*
X160389429Y-93289524D01*
X160151333Y-93289524D01*
X159960857Y-93241905D01*
X159865619Y-93194286D01*
X159818000Y-93146667D01*
X159770381Y-93051429D01*
X126222476Y-91892381D02*
X126222476Y-90892381D01*
X126460571Y-90892381D01*
X126603429Y-90940000D01*
X126698667Y-91035238D01*
X126746286Y-91130476D01*
X126793905Y-91320952D01*
X126793905Y-91463810D01*
X126746286Y-91654286D01*
X126698667Y-91749524D01*
X126603429Y-91844762D01*
X126460571Y-91892381D01*
X126222476Y-91892381D01*
X127222476Y-91892381D02*
X127222476Y-90892381D01*
X127603429Y-90892381D01*
X127698667Y-90940000D01*
X127746286Y-90987619D01*
X127793905Y-91082857D01*
X127793905Y-91225714D01*
X127746286Y-91320952D01*
X127698667Y-91368571D01*
X127603429Y-91416190D01*
X127222476Y-91416190D01*
X128127238Y-90892381D02*
X128746286Y-90892381D01*
X128412952Y-91273333D01*
X128555810Y-91273333D01*
X128651048Y-91320952D01*
X128698667Y-91368571D01*
X128746286Y-91463810D01*
X128746286Y-91701905D01*
X128698667Y-91797143D01*
X128651048Y-91844762D01*
X128555810Y-91892381D01*
X128270095Y-91892381D01*
X128174857Y-91844762D01*
X128127238Y-91797143D01*
X129127238Y-90987619D02*
X129174857Y-90940000D01*
X129270095Y-90892381D01*
X129508191Y-90892381D01*
X129603429Y-90940000D01*
X129651048Y-90987619D01*
X129698667Y-91082857D01*
X129698667Y-91178095D01*
X129651048Y-91320952D01*
X129079619Y-91892381D01*
X129698667Y-91892381D01*
X130127238Y-91511429D02*
X130889143Y-91511429D01*
X131889143Y-91892381D02*
X131317714Y-91892381D01*
X131603428Y-91892381D02*
X131603428Y-90892381D01*
X131508190Y-91035238D01*
X131412952Y-91130476D01*
X131317714Y-91178095D01*
X203950381Y-95194286D02*
X202950381Y-95194286D01*
X202950381Y-94813333D01*
X202998000Y-94718095D01*
X203045619Y-94670476D01*
X203140857Y-94622857D01*
X203283714Y-94622857D01*
X203378952Y-94670476D01*
X203426571Y-94718095D01*
X203474190Y-94813333D01*
X203474190Y-95194286D01*
X203950381Y-93670476D02*
X203950381Y-94241905D01*
X203950381Y-93956191D02*
X202950381Y-93956191D01*
X203093238Y-94051429D01*
X203188476Y-94146667D01*
X203236095Y-94241905D01*
X203950381Y-92718095D02*
X203950381Y-93289524D01*
X203950381Y-93003810D02*
X202950381Y-93003810D01*
X203093238Y-93099048D01*
X203188476Y-93194286D01*
X203236095Y-93289524D01*
X169402476Y-91892381D02*
X169402476Y-90892381D01*
X169640571Y-90892381D01*
X169783429Y-90940000D01*
X169878667Y-91035238D01*
X169926286Y-91130476D01*
X169973905Y-91320952D01*
X169973905Y-91463810D01*
X169926286Y-91654286D01*
X169878667Y-91749524D01*
X169783429Y-91844762D01*
X169640571Y-91892381D01*
X169402476Y-91892381D01*
X170402476Y-91892381D02*
X170402476Y-90892381D01*
X170783429Y-90892381D01*
X170878667Y-90940000D01*
X170926286Y-90987619D01*
X170973905Y-91082857D01*
X170973905Y-91225714D01*
X170926286Y-91320952D01*
X170878667Y-91368571D01*
X170783429Y-91416190D01*
X170402476Y-91416190D01*
X171307238Y-90892381D02*
X171926286Y-90892381D01*
X171592952Y-91273333D01*
X171735810Y-91273333D01*
X171831048Y-91320952D01*
X171878667Y-91368571D01*
X171926286Y-91463810D01*
X171926286Y-91701905D01*
X171878667Y-91797143D01*
X171831048Y-91844762D01*
X171735810Y-91892381D01*
X171450095Y-91892381D01*
X171354857Y-91844762D01*
X171307238Y-91797143D01*
X172307238Y-90987619D02*
X172354857Y-90940000D01*
X172450095Y-90892381D01*
X172688191Y-90892381D01*
X172783429Y-90940000D01*
X172831048Y-90987619D01*
X172878667Y-91082857D01*
X172878667Y-91178095D01*
X172831048Y-91320952D01*
X172259619Y-91892381D01*
X172878667Y-91892381D01*
X173307238Y-91511429D02*
X174069143Y-91511429D01*
X174497714Y-90987619D02*
X174545333Y-90940000D01*
X174640571Y-90892381D01*
X174878667Y-90892381D01*
X174973905Y-90940000D01*
X175021524Y-90987619D01*
X175069143Y-91082857D01*
X175069143Y-91178095D01*
X175021524Y-91320952D01*
X174450095Y-91892381D01*
X175069143Y-91892381D01*
X222051714Y-70512381D02*
X222051714Y-69512381D01*
X222432667Y-69512381D01*
X222527905Y-69560000D01*
X222575524Y-69607619D01*
X222623143Y-69702857D01*
X222623143Y-69845714D01*
X222575524Y-69940952D01*
X222527905Y-69988571D01*
X222432667Y-70036190D01*
X222051714Y-70036190D01*
X223575524Y-70512381D02*
X223004095Y-70512381D01*
X223289809Y-70512381D02*
X223289809Y-69512381D01*
X223194571Y-69655238D01*
X223099333Y-69750476D01*
X223004095Y-69798095D01*
X224432667Y-69845714D02*
X224432667Y-70512381D01*
X224194571Y-69464762D02*
X223956476Y-70179048D01*
X224575524Y-70179048D01*
X218980095Y-85494762D02*
X219122952Y-85542381D01*
X219361048Y-85542381D01*
X219456286Y-85494762D01*
X219503905Y-85447143D01*
X219551524Y-85351905D01*
X219551524Y-85256667D01*
X219503905Y-85161429D01*
X219456286Y-85113810D01*
X219361048Y-85066190D01*
X219170571Y-85018571D01*
X219075333Y-84970952D01*
X219027714Y-84923333D01*
X218980095Y-84828095D01*
X218980095Y-84732857D01*
X219027714Y-84637619D01*
X219075333Y-84590000D01*
X219170571Y-84542381D01*
X219408667Y-84542381D01*
X219551524Y-84590000D01*
X219980095Y-85018571D02*
X220313429Y-85018571D01*
X220456286Y-85542381D02*
X219980095Y-85542381D01*
X219980095Y-84542381D01*
X220456286Y-84542381D01*
X220884857Y-85542381D02*
X220884857Y-84542381D01*
X221456286Y-85542381D01*
X221456286Y-84542381D01*
X221884857Y-85494762D02*
X222027714Y-85542381D01*
X222265810Y-85542381D01*
X222361048Y-85494762D01*
X222408667Y-85447143D01*
X222456286Y-85351905D01*
X222456286Y-85256667D01*
X222408667Y-85161429D01*
X222361048Y-85113810D01*
X222265810Y-85066190D01*
X222075333Y-85018571D01*
X221980095Y-84970952D01*
X221932476Y-84923333D01*
X221884857Y-84828095D01*
X221884857Y-84732857D01*
X221932476Y-84637619D01*
X221980095Y-84590000D01*
X222075333Y-84542381D01*
X222313429Y-84542381D01*
X222456286Y-84590000D01*
X223075333Y-84542381D02*
X223265810Y-84542381D01*
X223361048Y-84590000D01*
X223456286Y-84685238D01*
X223503905Y-84875714D01*
X223503905Y-85209048D01*
X223456286Y-85399524D01*
X223361048Y-85494762D01*
X223265810Y-85542381D01*
X223075333Y-85542381D01*
X222980095Y-85494762D01*
X222884857Y-85399524D01*
X222837238Y-85209048D01*
X222837238Y-84875714D01*
X222884857Y-84685238D01*
X222980095Y-84590000D01*
X223075333Y-84542381D01*
X224503905Y-85542381D02*
X224170571Y-85066190D01*
X223932476Y-85542381D02*
X223932476Y-84542381D01*
X224313429Y-84542381D01*
X224408667Y-84590000D01*
X224456286Y-84637619D01*
X224503905Y-84732857D01*
X224503905Y-84875714D01*
X224456286Y-84970952D01*
X224408667Y-85018571D01*
X224313429Y-85066190D01*
X223932476Y-85066190D01*
X120252381Y-73913905D02*
X121061905Y-73913905D01*
X121157143Y-73866286D01*
X121204762Y-73818667D01*
X121252381Y-73723429D01*
X121252381Y-73532952D01*
X121204762Y-73437714D01*
X121157143Y-73390095D01*
X121061905Y-73342476D01*
X120252381Y-73342476D01*
X121252381Y-72342476D02*
X121252381Y-72913905D01*
X121252381Y-72628191D02*
X120252381Y-72628191D01*
X120395238Y-72723429D01*
X120490476Y-72818667D01*
X120538095Y-72913905D01*
X110577334Y-64460381D02*
X110244000Y-63984190D01*
X110005905Y-64460381D02*
X110005905Y-63460381D01*
X110386858Y-63460381D01*
X110482096Y-63508000D01*
X110529715Y-63555619D01*
X110577334Y-63650857D01*
X110577334Y-63793714D01*
X110529715Y-63888952D01*
X110482096Y-63936571D01*
X110386858Y-63984190D01*
X110005905Y-63984190D01*
X110910667Y-63460381D02*
X111529715Y-63460381D01*
X111196381Y-63841333D01*
X111339239Y-63841333D01*
X111434477Y-63888952D01*
X111482096Y-63936571D01*
X111529715Y-64031810D01*
X111529715Y-64269905D01*
X111482096Y-64365143D01*
X111434477Y-64412762D01*
X111339239Y-64460381D01*
X111053524Y-64460381D01*
X110958286Y-64412762D01*
X110910667Y-64365143D01*
X110323334Y-81224381D02*
X109990000Y-80748190D01*
X109751905Y-81224381D02*
X109751905Y-80224381D01*
X110132858Y-80224381D01*
X110228096Y-80272000D01*
X110275715Y-80319619D01*
X110323334Y-80414857D01*
X110323334Y-80557714D01*
X110275715Y-80652952D01*
X110228096Y-80700571D01*
X110132858Y-80748190D01*
X109751905Y-80748190D01*
X111275715Y-81224381D02*
X110704286Y-81224381D01*
X110990000Y-81224381D02*
X110990000Y-80224381D01*
X110894762Y-80367238D01*
X110799524Y-80462476D01*
X110704286Y-80510095D01*
X110323334Y-84526381D02*
X109990000Y-84050190D01*
X109751905Y-84526381D02*
X109751905Y-83526381D01*
X110132858Y-83526381D01*
X110228096Y-83574000D01*
X110275715Y-83621619D01*
X110323334Y-83716857D01*
X110323334Y-83859714D01*
X110275715Y-83954952D01*
X110228096Y-84002571D01*
X110132858Y-84050190D01*
X109751905Y-84050190D01*
X110656667Y-83526381D02*
X111323334Y-83526381D01*
X110894762Y-84526381D01*
X143343334Y-84526381D02*
X143010000Y-84050190D01*
X142771905Y-84526381D02*
X142771905Y-83526381D01*
X143152858Y-83526381D01*
X143248096Y-83574000D01*
X143295715Y-83621619D01*
X143343334Y-83716857D01*
X143343334Y-83859714D01*
X143295715Y-83954952D01*
X143248096Y-84002571D01*
X143152858Y-84050190D01*
X142771905Y-84050190D01*
X143914762Y-83954952D02*
X143819524Y-83907333D01*
X143771905Y-83859714D01*
X143724286Y-83764476D01*
X143724286Y-83716857D01*
X143771905Y-83621619D01*
X143819524Y-83574000D01*
X143914762Y-83526381D01*
X144105239Y-83526381D01*
X144200477Y-83574000D01*
X144248096Y-83621619D01*
X144295715Y-83716857D01*
X144295715Y-83764476D01*
X144248096Y-83859714D01*
X144200477Y-83907333D01*
X144105239Y-83954952D01*
X143914762Y-83954952D01*
X143819524Y-84002571D01*
X143771905Y-84050190D01*
X143724286Y-84145429D01*
X143724286Y-84335905D01*
X143771905Y-84431143D01*
X143819524Y-84478762D01*
X143914762Y-84526381D01*
X144105239Y-84526381D01*
X144200477Y-84478762D01*
X144248096Y-84431143D01*
X144295715Y-84335905D01*
X144295715Y-84145429D01*
X144248096Y-84050190D01*
X144200477Y-84002571D01*
X144105239Y-83954952D01*
X143343334Y-81224381D02*
X143010000Y-80748190D01*
X142771905Y-81224381D02*
X142771905Y-80224381D01*
X143152858Y-80224381D01*
X143248096Y-80272000D01*
X143295715Y-80319619D01*
X143343334Y-80414857D01*
X143343334Y-80557714D01*
X143295715Y-80652952D01*
X143248096Y-80700571D01*
X143152858Y-80748190D01*
X142771905Y-80748190D01*
X143724286Y-80319619D02*
X143771905Y-80272000D01*
X143867143Y-80224381D01*
X144105239Y-80224381D01*
X144200477Y-80272000D01*
X144248096Y-80319619D01*
X144295715Y-80414857D01*
X144295715Y-80510095D01*
X144248096Y-80652952D01*
X143676667Y-81224381D01*
X144295715Y-81224381D01*
X140549334Y-70024381D02*
X140216000Y-69548190D01*
X139977905Y-70024381D02*
X139977905Y-69024381D01*
X140358858Y-69024381D01*
X140454096Y-69072000D01*
X140501715Y-69119619D01*
X140549334Y-69214857D01*
X140549334Y-69357714D01*
X140501715Y-69452952D01*
X140454096Y-69500571D01*
X140358858Y-69548190D01*
X139977905Y-69548190D01*
X141406477Y-69024381D02*
X141216000Y-69024381D01*
X141120762Y-69072000D01*
X141073143Y-69119619D01*
X140977905Y-69262476D01*
X140930286Y-69452952D01*
X140930286Y-69833905D01*
X140977905Y-69929143D01*
X141025524Y-69976762D01*
X141120762Y-70024381D01*
X141311239Y-70024381D01*
X141406477Y-69976762D01*
X141454096Y-69929143D01*
X141501715Y-69833905D01*
X141501715Y-69595810D01*
X141454096Y-69500571D01*
X141406477Y-69452952D01*
X141311239Y-69405333D01*
X141120762Y-69405333D01*
X141025524Y-69452952D01*
X140977905Y-69500571D01*
X140930286Y-69595810D01*
X148169334Y-64460381D02*
X147836000Y-63984190D01*
X147597905Y-64460381D02*
X147597905Y-63460381D01*
X147978858Y-63460381D01*
X148074096Y-63508000D01*
X148121715Y-63555619D01*
X148169334Y-63650857D01*
X148169334Y-63793714D01*
X148121715Y-63888952D01*
X148074096Y-63936571D01*
X147978858Y-63984190D01*
X147597905Y-63984190D01*
X149026477Y-63793714D02*
X149026477Y-64460381D01*
X148788381Y-63412762D02*
X148550286Y-64127048D01*
X149169334Y-64127048D01*
X150201334Y-60650381D02*
X149868000Y-60174190D01*
X149629905Y-60650381D02*
X149629905Y-59650381D01*
X150010858Y-59650381D01*
X150106096Y-59698000D01*
X150153715Y-59745619D01*
X150201334Y-59840857D01*
X150201334Y-59983714D01*
X150153715Y-60078952D01*
X150106096Y-60126571D01*
X150010858Y-60174190D01*
X149629905Y-60174190D01*
X151106096Y-59650381D02*
X150629905Y-59650381D01*
X150582286Y-60126571D01*
X150629905Y-60078952D01*
X150725143Y-60031333D01*
X150963239Y-60031333D01*
X151058477Y-60078952D01*
X151106096Y-60126571D01*
X151153715Y-60221810D01*
X151153715Y-60459905D01*
X151106096Y-60555143D01*
X151058477Y-60602762D01*
X150963239Y-60650381D01*
X150725143Y-60650381D01*
X150629905Y-60602762D01*
X150582286Y-60555143D01*
M02*
