G04 #@! TF.FileFunction,Copper,L2,Bot,Signal*
%FSLAX46Y46*%
G04 Gerber Fmt 4.6, Leading zero omitted, Abs format (unit mm)*
G04 Created by KiCad (PCBNEW (2015-11-24 BZR 6329)-product) date Sat 12 Dec 2015 04:54:08 PM EST*
%MOMM*%
G01*
G04 APERTURE LIST*
%ADD10C,0.100000*%
%ADD11R,2.032000X2.032000*%
%ADD12O,2.032000X2.032000*%
%ADD13R,1.600000X1.600000*%
%ADD14C,1.600000*%
%ADD15C,1.700000*%
%ADD16C,1.998980*%
%ADD17R,1.397000X1.397000*%
%ADD18C,1.397000*%
%ADD19C,0.889000*%
%ADD20C,0.500000*%
%ADD21C,1.000000*%
%ADD22C,0.254000*%
G04 APERTURE END LIST*
D10*
D11*
X113500000Y-48000000D03*
D12*
X107500000Y-48000000D03*
D11*
X123000000Y-48000000D03*
D12*
X117000000Y-48000000D03*
D13*
X128970000Y-100980000D03*
D14*
X133970000Y-100980000D03*
D13*
X121760000Y-98070000D03*
D14*
X126760000Y-98070000D03*
D13*
X103790000Y-109570000D03*
D14*
X103790000Y-114570000D03*
D13*
X98680000Y-103320000D03*
D14*
X98680000Y-108320000D03*
D13*
X115090000Y-80870000D03*
D15*
X115090000Y-78370000D03*
D16*
X119182500Y-99707500D03*
X109022500Y-99707500D03*
D17*
X112685500Y-107290500D03*
D18*
X111542500Y-109957500D03*
X112685500Y-112624500D03*
X115352500Y-113767500D03*
X118019500Y-112624500D03*
X119162500Y-109957500D03*
X118019500Y-107290500D03*
X115352500Y-106147500D03*
D15*
X119562500Y-94322500D03*
X117022500Y-91782500D03*
X122102500Y-91782500D03*
X110562500Y-94322500D03*
X108022500Y-91782500D03*
X113102500Y-91782500D03*
X118812500Y-88822500D03*
X116272500Y-86282500D03*
X121352500Y-86282500D03*
X111312500Y-88822500D03*
X108772500Y-86282500D03*
X113852500Y-86282500D03*
D19*
X123770000Y-94550000D03*
X105840000Y-79520000D03*
X121040000Y-80820000D03*
X118290000Y-102320000D03*
X115000000Y-102480000D03*
X105170000Y-100920000D03*
D20*
X123770000Y-96060000D02*
X121760000Y-98070000D01*
X123770000Y-94550000D02*
X123770000Y-96060000D01*
X98680000Y-108320000D02*
X99930000Y-109570000D01*
X99930000Y-109570000D02*
X103790000Y-109570000D01*
X119182500Y-99707500D02*
X119562500Y-99327500D01*
X119562500Y-99327500D02*
X119562500Y-94322500D01*
X103790000Y-109570000D02*
X109040000Y-104320000D01*
X120540000Y-108580000D02*
X119162500Y-109957500D01*
X120540000Y-106570000D02*
X120540000Y-108580000D01*
X118290000Y-104320000D02*
X120540000Y-106570000D01*
X109040000Y-104320000D02*
X118290000Y-104320000D01*
X105840000Y-96160000D02*
X98680000Y-103320000D01*
X105840000Y-79520000D02*
X105840000Y-96160000D01*
X110602500Y-91782500D02*
X112102500Y-93282500D01*
X112102500Y-93282500D02*
X115522500Y-93282500D01*
X115522500Y-93282500D02*
X117022500Y-91782500D01*
X108022500Y-91782500D02*
X110602500Y-91782500D01*
X113490000Y-48010000D02*
X113490000Y-52500000D01*
X113490000Y-76770000D02*
X113490000Y-52500000D01*
X113490000Y-76770000D02*
X115090000Y-78370000D01*
X113490000Y-48010000D02*
X113500000Y-48000000D01*
D21*
X119630000Y-52500000D02*
X120000000Y-52500000D01*
X119630000Y-79410000D02*
X119630000Y-52500000D01*
X121040000Y-80820000D02*
X119630000Y-79410000D01*
X123000000Y-49500000D02*
X123000000Y-48000000D01*
X120000000Y-52500000D02*
X123000000Y-49500000D01*
X125040000Y-84820000D02*
X121040000Y-80820000D01*
X125040000Y-97820000D02*
X125040000Y-84820000D01*
X120540000Y-102320000D02*
X125040000Y-97820000D01*
X118290000Y-102320000D02*
X120540000Y-102320000D01*
X121040000Y-80820000D02*
X116272500Y-85587500D01*
D20*
X116272500Y-85587500D02*
X116272500Y-86282500D01*
X106730000Y-102480000D02*
X115000000Y-102480000D01*
X105170000Y-100920000D02*
X106730000Y-102480000D01*
D22*
G36*
X124595916Y-43847718D02*
X126195641Y-44165924D01*
X127484591Y-45027173D01*
X127611663Y-45208651D01*
X152191990Y-90356189D01*
X163373904Y-111024107D01*
X163382665Y-111066991D01*
X164024512Y-112594187D01*
X164031981Y-114040252D01*
X164009215Y-114222374D01*
X163892285Y-114508845D01*
X162034260Y-116831377D01*
X160589390Y-117313000D01*
X70130610Y-117313000D01*
X68650161Y-116819517D01*
X68600122Y-116813385D01*
X68551640Y-116827203D01*
X68523773Y-116849612D01*
X68055886Y-116602966D01*
X67357353Y-115438744D01*
X103100861Y-115438744D01*
X103188918Y-115613383D01*
X103633959Y-115763984D01*
X104102755Y-115732812D01*
X104391082Y-115613383D01*
X104479139Y-115438744D01*
X103790000Y-114749605D01*
X103100861Y-115438744D01*
X67357353Y-115438744D01*
X66742482Y-114413959D01*
X102596016Y-114413959D01*
X102627188Y-114882755D01*
X102746617Y-115171082D01*
X102921256Y-115259139D01*
X103610395Y-114570000D01*
X103969605Y-114570000D01*
X104658744Y-115259139D01*
X104833383Y-115171082D01*
X104983984Y-114726041D01*
X104973112Y-114562533D01*
X114737072Y-114562533D01*
X114812621Y-114726645D01*
X115220766Y-114860237D01*
X115648966Y-114827470D01*
X115892379Y-114726645D01*
X115967928Y-114562533D01*
X115352500Y-113947105D01*
X114737072Y-114562533D01*
X104973112Y-114562533D01*
X104952812Y-114257245D01*
X104833383Y-113968918D01*
X104658744Y-113880861D01*
X103969605Y-114570000D01*
X103610395Y-114570000D01*
X102921256Y-113880861D01*
X102746617Y-113968918D01*
X102596016Y-114413959D01*
X66742482Y-114413959D01*
X66733162Y-114398426D01*
X66655699Y-113701256D01*
X103100861Y-113701256D01*
X103790000Y-114390395D01*
X104479139Y-113701256D01*
X104391082Y-113526617D01*
X103946041Y-113376016D01*
X103477245Y-113407188D01*
X103188918Y-113526617D01*
X103100861Y-113701256D01*
X66655699Y-113701256D01*
X66559813Y-112838284D01*
X111605813Y-112838284D01*
X111769811Y-113235189D01*
X112073214Y-113539122D01*
X112469832Y-113703813D01*
X112899284Y-113704187D01*
X113064875Y-113635766D01*
X114259763Y-113635766D01*
X114292530Y-114063966D01*
X114393355Y-114307379D01*
X114557467Y-114382928D01*
X115172895Y-113767500D01*
X115532105Y-113767500D01*
X116147533Y-114382928D01*
X116311645Y-114307379D01*
X116445237Y-113899234D01*
X116412470Y-113471034D01*
X116311645Y-113227621D01*
X116147533Y-113152072D01*
X115532105Y-113767500D01*
X115172895Y-113767500D01*
X114557467Y-113152072D01*
X114393355Y-113227621D01*
X114259763Y-113635766D01*
X113064875Y-113635766D01*
X113296189Y-113540189D01*
X113600122Y-113236786D01*
X113709877Y-112972467D01*
X114737072Y-112972467D01*
X115352500Y-113587895D01*
X115967928Y-112972467D01*
X115906157Y-112838284D01*
X116939813Y-112838284D01*
X117103811Y-113235189D01*
X117407214Y-113539122D01*
X117803832Y-113703813D01*
X118233284Y-113704187D01*
X118630189Y-113540189D01*
X118934122Y-113236786D01*
X119098813Y-112840168D01*
X119099187Y-112410716D01*
X118935189Y-112013811D01*
X118631786Y-111709878D01*
X118235168Y-111545187D01*
X117805716Y-111544813D01*
X117408811Y-111708811D01*
X117104878Y-112012214D01*
X116940187Y-112408832D01*
X116939813Y-112838284D01*
X115906157Y-112838284D01*
X115892379Y-112808355D01*
X115484234Y-112674763D01*
X115056034Y-112707530D01*
X114812621Y-112808355D01*
X114737072Y-112972467D01*
X113709877Y-112972467D01*
X113764813Y-112840168D01*
X113765187Y-112410716D01*
X113601189Y-112013811D01*
X113297786Y-111709878D01*
X112901168Y-111545187D01*
X112471716Y-111544813D01*
X112074811Y-111708811D01*
X111770878Y-112012214D01*
X111606187Y-112408832D01*
X111605813Y-112838284D01*
X66559813Y-112838284D01*
X66518591Y-112467294D01*
X66541628Y-112218775D01*
X66897038Y-111466762D01*
X67049993Y-111184947D01*
X67054192Y-111179877D01*
X67373328Y-110589213D01*
X68478003Y-108553885D01*
X97498796Y-108553885D01*
X97678213Y-108988109D01*
X98010144Y-109320619D01*
X98444054Y-109500794D01*
X98913885Y-109501204D01*
X98952769Y-109485137D01*
X99483816Y-110016184D01*
X99688527Y-110152968D01*
X99930000Y-110201000D01*
X102601536Y-110201000D01*
X102601536Y-110370000D01*
X102628103Y-110511190D01*
X102711546Y-110640865D01*
X102838866Y-110727859D01*
X102990000Y-110758464D01*
X104590000Y-110758464D01*
X104731190Y-110731897D01*
X104860865Y-110648454D01*
X104947859Y-110521134D01*
X104978464Y-110370000D01*
X104978464Y-110171284D01*
X110462813Y-110171284D01*
X110626811Y-110568189D01*
X110930214Y-110872122D01*
X111326832Y-111036813D01*
X111756284Y-111037187D01*
X112153189Y-110873189D01*
X112457122Y-110569786D01*
X112621813Y-110173168D01*
X112622187Y-109743716D01*
X112458189Y-109346811D01*
X112154786Y-109042878D01*
X111758168Y-108878187D01*
X111328716Y-108877813D01*
X110931811Y-109041811D01*
X110627878Y-109345214D01*
X110463187Y-109741832D01*
X110462813Y-110171284D01*
X104978464Y-110171284D01*
X104978464Y-109273904D01*
X107660368Y-106592000D01*
X111598536Y-106592000D01*
X111598536Y-107989000D01*
X111625103Y-108130190D01*
X111708546Y-108259865D01*
X111835866Y-108346859D01*
X111987000Y-108377464D01*
X113384000Y-108377464D01*
X113525190Y-108350897D01*
X113654865Y-108267454D01*
X113741859Y-108140134D01*
X113772464Y-107989000D01*
X113772464Y-107504284D01*
X116939813Y-107504284D01*
X117103811Y-107901189D01*
X117407214Y-108205122D01*
X117803832Y-108369813D01*
X118233284Y-108370187D01*
X118630189Y-108206189D01*
X118934122Y-107902786D01*
X119098813Y-107506168D01*
X119099187Y-107076716D01*
X118935189Y-106679811D01*
X118631786Y-106375878D01*
X118235168Y-106211187D01*
X117805716Y-106210813D01*
X117408811Y-106374811D01*
X117104878Y-106678214D01*
X116940187Y-107074832D01*
X116939813Y-107504284D01*
X113772464Y-107504284D01*
X113772464Y-106592000D01*
X113745897Y-106450810D01*
X113688289Y-106361284D01*
X114272813Y-106361284D01*
X114436811Y-106758189D01*
X114740214Y-107062122D01*
X115136832Y-107226813D01*
X115566284Y-107227187D01*
X115963189Y-107063189D01*
X116267122Y-106759786D01*
X116431813Y-106363168D01*
X116432187Y-105933716D01*
X116268189Y-105536811D01*
X115964786Y-105232878D01*
X115568168Y-105068187D01*
X115138716Y-105067813D01*
X114741811Y-105231811D01*
X114437878Y-105535214D01*
X114273187Y-105931832D01*
X114272813Y-106361284D01*
X113688289Y-106361284D01*
X113662454Y-106321135D01*
X113535134Y-106234141D01*
X113384000Y-106203536D01*
X111987000Y-106203536D01*
X111845810Y-106230103D01*
X111716135Y-106313546D01*
X111629141Y-106440866D01*
X111598536Y-106592000D01*
X107660368Y-106592000D01*
X109301369Y-104951000D01*
X118028632Y-104951000D01*
X119909000Y-106831369D01*
X119909000Y-108318631D01*
X119349470Y-108878162D01*
X118948716Y-108877813D01*
X118551811Y-109041811D01*
X118247878Y-109345214D01*
X118083187Y-109741832D01*
X118082813Y-110171284D01*
X118246811Y-110568189D01*
X118550214Y-110872122D01*
X118946832Y-111036813D01*
X119376284Y-111037187D01*
X119773189Y-110873189D01*
X120077122Y-110569786D01*
X120241813Y-110173168D01*
X120242164Y-109770205D01*
X120986184Y-109026185D01*
X121122968Y-108821474D01*
X121133966Y-108766184D01*
X121171000Y-108580000D01*
X121171000Y-106570000D01*
X121122968Y-106328527D01*
X121112958Y-106313546D01*
X120986185Y-106123816D01*
X118736184Y-103873816D01*
X118531473Y-103737032D01*
X118290000Y-103689000D01*
X109040000Y-103689000D01*
X108838589Y-103729063D01*
X108798526Y-103737032D01*
X108593815Y-103873816D01*
X104086096Y-108381536D01*
X102990000Y-108381536D01*
X102848810Y-108408103D01*
X102719135Y-108491546D01*
X102632141Y-108618866D01*
X102601536Y-108770000D01*
X102601536Y-108939000D01*
X100191368Y-108939000D01*
X99845396Y-108593028D01*
X99860794Y-108555946D01*
X99861204Y-108086115D01*
X99681787Y-107651891D01*
X99349856Y-107319381D01*
X98915946Y-107139206D01*
X98446115Y-107138796D01*
X98011891Y-107318213D01*
X97679381Y-107650144D01*
X97499206Y-108084054D01*
X97498796Y-108553885D01*
X68478003Y-108553885D01*
X71752900Y-102520000D01*
X97491536Y-102520000D01*
X97491536Y-104120000D01*
X97518103Y-104261190D01*
X97601546Y-104390865D01*
X97728866Y-104477859D01*
X97880000Y-104508464D01*
X99480000Y-104508464D01*
X99621190Y-104481897D01*
X99750865Y-104398454D01*
X99837859Y-104271134D01*
X99868464Y-104120000D01*
X99868464Y-103023904D01*
X101808886Y-101083482D01*
X104344357Y-101083482D01*
X104469767Y-101386998D01*
X104701781Y-101619417D01*
X105005077Y-101745357D01*
X105103074Y-101745442D01*
X106283816Y-102926184D01*
X106488526Y-103062968D01*
X106528589Y-103070937D01*
X106730000Y-103111000D01*
X114463483Y-103111000D01*
X114531781Y-103179417D01*
X114835077Y-103305357D01*
X115163482Y-103305643D01*
X115466998Y-103180233D01*
X115699417Y-102948219D01*
X115825357Y-102644923D01*
X115825643Y-102316518D01*
X115700233Y-102013002D01*
X115468219Y-101780583D01*
X115164923Y-101654643D01*
X114836518Y-101654357D01*
X114533002Y-101779767D01*
X114463648Y-101849000D01*
X106991368Y-101849000D01*
X105995559Y-100853191D01*
X105995643Y-100756518D01*
X105870233Y-100453002D01*
X105638219Y-100220583D01*
X105334923Y-100094643D01*
X105006518Y-100094357D01*
X104703002Y-100219767D01*
X104470583Y-100451781D01*
X104344643Y-100755077D01*
X104344357Y-101083482D01*
X101808886Y-101083482D01*
X102911476Y-99980892D01*
X107641771Y-99980892D01*
X107851495Y-100488463D01*
X108239494Y-100877140D01*
X108746699Y-101087749D01*
X109295892Y-101088229D01*
X109803463Y-100878505D01*
X110192140Y-100490506D01*
X110402749Y-99983301D01*
X110402751Y-99980892D01*
X117801771Y-99980892D01*
X118011495Y-100488463D01*
X118399494Y-100877140D01*
X118906699Y-101087749D01*
X119455892Y-101088229D01*
X119963463Y-100878505D01*
X120352140Y-100490506D01*
X120562749Y-99983301D01*
X120563229Y-99434108D01*
X120353505Y-98926537D01*
X120193500Y-98766252D01*
X120193500Y-95393721D01*
X120258895Y-95366700D01*
X120605483Y-95020716D01*
X120793286Y-94568435D01*
X120793713Y-94078713D01*
X120606700Y-93626105D01*
X120260716Y-93279517D01*
X119808435Y-93091714D01*
X119318713Y-93091287D01*
X118866105Y-93278300D01*
X118519517Y-93624284D01*
X118331714Y-94076565D01*
X118331287Y-94566287D01*
X118518300Y-95018895D01*
X118864284Y-95365483D01*
X118931500Y-95393393D01*
X118931500Y-98326791D01*
X118909108Y-98326771D01*
X118401537Y-98536495D01*
X118012860Y-98924494D01*
X117802251Y-99431699D01*
X117801771Y-99980892D01*
X110402751Y-99980892D01*
X110403229Y-99434108D01*
X110193505Y-98926537D01*
X109805506Y-98537860D01*
X109298301Y-98327251D01*
X108749108Y-98326771D01*
X108241537Y-98536495D01*
X107852860Y-98924494D01*
X107642251Y-99431699D01*
X107641771Y-99980892D01*
X102911476Y-99980892D01*
X106286184Y-96606184D01*
X106422968Y-96401474D01*
X106442859Y-96301473D01*
X106471000Y-96160000D01*
X106471000Y-92026287D01*
X106791287Y-92026287D01*
X106978300Y-92478895D01*
X107324284Y-92825483D01*
X107776565Y-93013286D01*
X108266287Y-93013713D01*
X108718895Y-92826700D01*
X109065483Y-92480716D01*
X109093393Y-92413500D01*
X110341132Y-92413500D01*
X111169110Y-93241479D01*
X110808435Y-93091714D01*
X110318713Y-93091287D01*
X109866105Y-93278300D01*
X109519517Y-93624284D01*
X109331714Y-94076565D01*
X109331287Y-94566287D01*
X109518300Y-95018895D01*
X109864284Y-95365483D01*
X110316565Y-95553286D01*
X110806287Y-95553713D01*
X111258895Y-95366700D01*
X111605483Y-95020716D01*
X111793286Y-94568435D01*
X111793713Y-94078713D01*
X111643993Y-93716362D01*
X111656315Y-93728684D01*
X111861026Y-93865468D01*
X111901089Y-93873437D01*
X112102500Y-93913500D01*
X115522500Y-93913500D01*
X115763973Y-93865468D01*
X115968684Y-93728684D01*
X116711217Y-92986151D01*
X116776565Y-93013286D01*
X117266287Y-93013713D01*
X117718895Y-92826700D01*
X118065483Y-92480716D01*
X118253286Y-92028435D01*
X118253287Y-92026287D01*
X120871287Y-92026287D01*
X121058300Y-92478895D01*
X121404284Y-92825483D01*
X121856565Y-93013286D01*
X122346287Y-93013713D01*
X122798895Y-92826700D01*
X123145483Y-92480716D01*
X123333286Y-92028435D01*
X123333713Y-91538713D01*
X123146700Y-91086105D01*
X122800716Y-90739517D01*
X122348435Y-90551714D01*
X121858713Y-90551287D01*
X121406105Y-90738300D01*
X121059517Y-91084284D01*
X120871714Y-91536565D01*
X120871287Y-92026287D01*
X118253287Y-92026287D01*
X118253713Y-91538713D01*
X118066700Y-91086105D01*
X117720716Y-90739517D01*
X117268435Y-90551714D01*
X116778713Y-90551287D01*
X116326105Y-90738300D01*
X115979517Y-91084284D01*
X115791714Y-91536565D01*
X115791287Y-92026287D01*
X115819080Y-92093552D01*
X115261132Y-92651500D01*
X113974401Y-92651500D01*
X114145483Y-92480716D01*
X114333286Y-92028435D01*
X114333713Y-91538713D01*
X114146700Y-91086105D01*
X113800716Y-90739517D01*
X113348435Y-90551714D01*
X112858713Y-90551287D01*
X112406105Y-90738300D01*
X112059517Y-91084284D01*
X111871714Y-91536565D01*
X111871287Y-92026287D01*
X111964677Y-92252308D01*
X111048684Y-91336316D01*
X110843973Y-91199532D01*
X110602500Y-91151500D01*
X109093721Y-91151500D01*
X109066700Y-91086105D01*
X108720716Y-90739517D01*
X108268435Y-90551714D01*
X107778713Y-90551287D01*
X107326105Y-90738300D01*
X106979517Y-91084284D01*
X106791714Y-91536565D01*
X106791287Y-92026287D01*
X106471000Y-92026287D01*
X106471000Y-89066287D01*
X110081287Y-89066287D01*
X110268300Y-89518895D01*
X110614284Y-89865483D01*
X111066565Y-90053286D01*
X111556287Y-90053713D01*
X112008895Y-89866700D01*
X112355483Y-89520716D01*
X112543286Y-89068435D01*
X112543287Y-89066287D01*
X117581287Y-89066287D01*
X117768300Y-89518895D01*
X118114284Y-89865483D01*
X118566565Y-90053286D01*
X119056287Y-90053713D01*
X119508895Y-89866700D01*
X119855483Y-89520716D01*
X120043286Y-89068435D01*
X120043713Y-88578713D01*
X119856700Y-88126105D01*
X119510716Y-87779517D01*
X119058435Y-87591714D01*
X118568713Y-87591287D01*
X118116105Y-87778300D01*
X117769517Y-88124284D01*
X117581714Y-88576565D01*
X117581287Y-89066287D01*
X112543287Y-89066287D01*
X112543713Y-88578713D01*
X112356700Y-88126105D01*
X112010716Y-87779517D01*
X111558435Y-87591714D01*
X111068713Y-87591287D01*
X110616105Y-87778300D01*
X110269517Y-88124284D01*
X110081714Y-88576565D01*
X110081287Y-89066287D01*
X106471000Y-89066287D01*
X106471000Y-87187521D01*
X108047084Y-87187521D01*
X108141292Y-87367348D01*
X108604493Y-87526322D01*
X109093272Y-87495935D01*
X109403708Y-87367348D01*
X109497916Y-87187521D01*
X108772500Y-86462105D01*
X108047084Y-87187521D01*
X106471000Y-87187521D01*
X106471000Y-86114493D01*
X107528678Y-86114493D01*
X107559065Y-86603272D01*
X107687652Y-86913708D01*
X107867479Y-87007916D01*
X108592895Y-86282500D01*
X108952105Y-86282500D01*
X109677521Y-87007916D01*
X109857348Y-86913708D01*
X109990313Y-86526287D01*
X112621287Y-86526287D01*
X112808300Y-86978895D01*
X113154284Y-87325483D01*
X113606565Y-87513286D01*
X114096287Y-87513713D01*
X114548895Y-87326700D01*
X114895483Y-86980716D01*
X115062680Y-86578061D01*
X115228300Y-86978895D01*
X115574284Y-87325483D01*
X116026565Y-87513286D01*
X116516287Y-87513713D01*
X116968895Y-87326700D01*
X117315483Y-86980716D01*
X117503286Y-86528435D01*
X117503287Y-86526287D01*
X120121287Y-86526287D01*
X120308300Y-86978895D01*
X120654284Y-87325483D01*
X121106565Y-87513286D01*
X121596287Y-87513713D01*
X122048895Y-87326700D01*
X122395483Y-86980716D01*
X122583286Y-86528435D01*
X122583713Y-86038713D01*
X122396700Y-85586105D01*
X122050716Y-85239517D01*
X121598435Y-85051714D01*
X121108713Y-85051287D01*
X120656105Y-85238300D01*
X120309517Y-85584284D01*
X120121714Y-86036565D01*
X120121287Y-86526287D01*
X117503287Y-86526287D01*
X117503713Y-86038713D01*
X117376088Y-85729834D01*
X121040000Y-82065922D01*
X124159000Y-85184922D01*
X124159000Y-93817688D01*
X123934923Y-93724643D01*
X123606518Y-93724357D01*
X123303002Y-93849767D01*
X123070583Y-94081781D01*
X122944643Y-94385077D01*
X122944357Y-94713482D01*
X123069767Y-95016998D01*
X123139000Y-95086352D01*
X123139000Y-95798631D01*
X122056096Y-96881536D01*
X120960000Y-96881536D01*
X120818810Y-96908103D01*
X120689135Y-96991546D01*
X120602141Y-97118866D01*
X120571536Y-97270000D01*
X120571536Y-98870000D01*
X120598103Y-99011190D01*
X120681546Y-99140865D01*
X120808866Y-99227859D01*
X120960000Y-99258464D01*
X122355614Y-99258464D01*
X120175078Y-101439000D01*
X118290000Y-101439000D01*
X117952856Y-101506062D01*
X117667039Y-101697039D01*
X117476062Y-101982856D01*
X117409000Y-102320000D01*
X117476062Y-102657144D01*
X117667039Y-102942961D01*
X117952856Y-103133938D01*
X118290000Y-103201000D01*
X120540000Y-103201000D01*
X120877144Y-103133938D01*
X121162961Y-102942961D01*
X122903672Y-101202250D01*
X127789000Y-101202250D01*
X127789000Y-101855785D01*
X127847004Y-101995819D01*
X127954180Y-102102996D01*
X128094214Y-102161000D01*
X128747750Y-102161000D01*
X128843000Y-102065750D01*
X128843000Y-101107000D01*
X129097000Y-101107000D01*
X129097000Y-102065750D01*
X129192250Y-102161000D01*
X129845786Y-102161000D01*
X129985820Y-102102996D01*
X130092996Y-101995819D01*
X130151000Y-101855785D01*
X130151000Y-101213885D01*
X132788796Y-101213885D01*
X132968213Y-101648109D01*
X133300144Y-101980619D01*
X133734054Y-102160794D01*
X134203885Y-102161204D01*
X134638109Y-101981787D01*
X134970619Y-101649856D01*
X135150794Y-101215946D01*
X135151204Y-100746115D01*
X134971787Y-100311891D01*
X134639856Y-99979381D01*
X134205946Y-99799206D01*
X133736115Y-99798796D01*
X133301891Y-99978213D01*
X132969381Y-100310144D01*
X132789206Y-100744054D01*
X132788796Y-101213885D01*
X130151000Y-101213885D01*
X130151000Y-101202250D01*
X130055750Y-101107000D01*
X129097000Y-101107000D01*
X128843000Y-101107000D01*
X127884250Y-101107000D01*
X127789000Y-101202250D01*
X122903672Y-101202250D01*
X124001707Y-100104215D01*
X127789000Y-100104215D01*
X127789000Y-100757750D01*
X127884250Y-100853000D01*
X128843000Y-100853000D01*
X128843000Y-99894250D01*
X129097000Y-99894250D01*
X129097000Y-100853000D01*
X130055750Y-100853000D01*
X130151000Y-100757750D01*
X130151000Y-100104215D01*
X130092996Y-99964181D01*
X129985820Y-99857004D01*
X129845786Y-99799000D01*
X129192250Y-99799000D01*
X129097000Y-99894250D01*
X128843000Y-99894250D01*
X128747750Y-99799000D01*
X128094214Y-99799000D01*
X127954180Y-99857004D01*
X127847004Y-99964181D01*
X127789000Y-100104215D01*
X124001707Y-100104215D01*
X125644067Y-98461855D01*
X125758213Y-98738109D01*
X126090144Y-99070619D01*
X126524054Y-99250794D01*
X126993885Y-99251204D01*
X127428109Y-99071787D01*
X127760619Y-98739856D01*
X127940794Y-98305946D01*
X127941204Y-97836115D01*
X127761787Y-97401891D01*
X127429856Y-97069381D01*
X126995946Y-96889206D01*
X126526115Y-96888796D01*
X126091891Y-97068213D01*
X125921000Y-97238806D01*
X125921000Y-84820000D01*
X125853938Y-84482856D01*
X125662961Y-84197039D01*
X120511000Y-79045078D01*
X120511000Y-53197771D01*
X120622961Y-53122961D01*
X123622961Y-50122961D01*
X123813938Y-49837144D01*
X123881000Y-49500000D01*
X123881000Y-49404464D01*
X124016000Y-49404464D01*
X124157190Y-49377897D01*
X124286865Y-49294454D01*
X124373859Y-49167134D01*
X124404464Y-49016000D01*
X124404464Y-46984000D01*
X124377897Y-46842810D01*
X124294454Y-46713135D01*
X124167134Y-46626141D01*
X124016000Y-46595536D01*
X121984000Y-46595536D01*
X121842810Y-46622103D01*
X121713135Y-46705546D01*
X121626141Y-46832866D01*
X121595536Y-46984000D01*
X121595536Y-49016000D01*
X121622103Y-49157190D01*
X121705546Y-49286865D01*
X121832866Y-49373859D01*
X121872245Y-49381833D01*
X119635078Y-51619000D01*
X119630000Y-51619000D01*
X119292856Y-51686062D01*
X119007039Y-51877039D01*
X118816062Y-52162856D01*
X118749000Y-52500000D01*
X118749000Y-79410000D01*
X118816062Y-79747144D01*
X119007039Y-80032961D01*
X119794078Y-80820000D01*
X115649539Y-84964539D01*
X115458562Y-85250356D01*
X115432431Y-85381723D01*
X115229517Y-85584284D01*
X115062320Y-85986939D01*
X114896700Y-85586105D01*
X114550716Y-85239517D01*
X114098435Y-85051714D01*
X113608713Y-85051287D01*
X113156105Y-85238300D01*
X112809517Y-85584284D01*
X112621714Y-86036565D01*
X112621287Y-86526287D01*
X109990313Y-86526287D01*
X110016322Y-86450507D01*
X109985935Y-85961728D01*
X109857348Y-85651292D01*
X109677521Y-85557084D01*
X108952105Y-86282500D01*
X108592895Y-86282500D01*
X107867479Y-85557084D01*
X107687652Y-85651292D01*
X107528678Y-86114493D01*
X106471000Y-86114493D01*
X106471000Y-85377479D01*
X108047084Y-85377479D01*
X108772500Y-86102895D01*
X109497916Y-85377479D01*
X109403708Y-85197652D01*
X108940507Y-85038678D01*
X108451728Y-85069065D01*
X108141292Y-85197652D01*
X108047084Y-85377479D01*
X106471000Y-85377479D01*
X106471000Y-80070000D01*
X113901536Y-80070000D01*
X113901536Y-81670000D01*
X113928103Y-81811190D01*
X114011546Y-81940865D01*
X114138866Y-82027859D01*
X114290000Y-82058464D01*
X115890000Y-82058464D01*
X116031190Y-82031897D01*
X116160865Y-81948454D01*
X116247859Y-81821134D01*
X116278464Y-81670000D01*
X116278464Y-80070000D01*
X116251897Y-79928810D01*
X116168454Y-79799135D01*
X116041134Y-79712141D01*
X115890000Y-79681536D01*
X114290000Y-79681536D01*
X114148810Y-79708103D01*
X114019135Y-79791546D01*
X113932141Y-79918866D01*
X113901536Y-80070000D01*
X106471000Y-80070000D01*
X106471000Y-80056517D01*
X106539417Y-79988219D01*
X106665357Y-79684923D01*
X106665643Y-79356518D01*
X106540233Y-79053002D01*
X106308219Y-78820583D01*
X106004923Y-78694643D01*
X105676518Y-78694357D01*
X105373002Y-78819767D01*
X105140583Y-79051781D01*
X105014643Y-79355077D01*
X105014357Y-79683482D01*
X105139767Y-79986998D01*
X105209000Y-80056352D01*
X105209000Y-95898632D01*
X98976096Y-102131536D01*
X97880000Y-102131536D01*
X97738810Y-102158103D01*
X97609135Y-102241546D01*
X97522141Y-102368866D01*
X97491536Y-102520000D01*
X71752900Y-102520000D01*
X101157479Y-48343070D01*
X106145780Y-48343070D01*
X106299826Y-48714997D01*
X106664801Y-49119858D01*
X107156928Y-49354231D01*
X107373000Y-49295976D01*
X107373000Y-48127000D01*
X107627000Y-48127000D01*
X107627000Y-49295976D01*
X107843072Y-49354231D01*
X108335199Y-49119858D01*
X108700174Y-48714997D01*
X108854220Y-48343070D01*
X108795540Y-48127000D01*
X107627000Y-48127000D01*
X107373000Y-48127000D01*
X106204460Y-48127000D01*
X106145780Y-48343070D01*
X101157479Y-48343070D01*
X101529882Y-47656930D01*
X106145780Y-47656930D01*
X106204460Y-47873000D01*
X107373000Y-47873000D01*
X107373000Y-46704024D01*
X107627000Y-46704024D01*
X107627000Y-47873000D01*
X108795540Y-47873000D01*
X108854220Y-47656930D01*
X108700174Y-47285003D01*
X108428826Y-46984000D01*
X112095536Y-46984000D01*
X112095536Y-49016000D01*
X112122103Y-49157190D01*
X112205546Y-49286865D01*
X112332866Y-49373859D01*
X112484000Y-49404464D01*
X112859000Y-49404464D01*
X112859000Y-76770000D01*
X112907032Y-77011473D01*
X113043816Y-77216184D01*
X113886349Y-78058717D01*
X113859214Y-78124065D01*
X113858787Y-78613787D01*
X114045800Y-79066395D01*
X114391784Y-79412983D01*
X114844065Y-79600786D01*
X115333787Y-79601213D01*
X115786395Y-79414200D01*
X116132983Y-79068216D01*
X116320786Y-78615935D01*
X116321213Y-78126213D01*
X116134200Y-77673605D01*
X115788216Y-77327017D01*
X115335935Y-77139214D01*
X114846213Y-77138787D01*
X114778949Y-77166580D01*
X114121000Y-76508632D01*
X114121000Y-49404464D01*
X114516000Y-49404464D01*
X114657190Y-49377897D01*
X114786865Y-49294454D01*
X114873859Y-49167134D01*
X114904464Y-49016000D01*
X114904464Y-48343070D01*
X115645780Y-48343070D01*
X115799826Y-48714997D01*
X116164801Y-49119858D01*
X116656928Y-49354231D01*
X116873000Y-49295976D01*
X116873000Y-48127000D01*
X117127000Y-48127000D01*
X117127000Y-49295976D01*
X117343072Y-49354231D01*
X117835199Y-49119858D01*
X118200174Y-48714997D01*
X118354220Y-48343070D01*
X118295540Y-48127000D01*
X117127000Y-48127000D01*
X116873000Y-48127000D01*
X115704460Y-48127000D01*
X115645780Y-48343070D01*
X114904464Y-48343070D01*
X114904464Y-47656930D01*
X115645780Y-47656930D01*
X115704460Y-47873000D01*
X116873000Y-47873000D01*
X116873000Y-46704024D01*
X117127000Y-46704024D01*
X117127000Y-47873000D01*
X118295540Y-47873000D01*
X118354220Y-47656930D01*
X118200174Y-47285003D01*
X117835199Y-46880142D01*
X117343072Y-46645769D01*
X117127000Y-46704024D01*
X116873000Y-46704024D01*
X116656928Y-46645769D01*
X116164801Y-46880142D01*
X115799826Y-47285003D01*
X115645780Y-47656930D01*
X114904464Y-47656930D01*
X114904464Y-46984000D01*
X114877897Y-46842810D01*
X114794454Y-46713135D01*
X114667134Y-46626141D01*
X114516000Y-46595536D01*
X112484000Y-46595536D01*
X112342810Y-46622103D01*
X112213135Y-46705546D01*
X112126141Y-46832866D01*
X112095536Y-46984000D01*
X108428826Y-46984000D01*
X108335199Y-46880142D01*
X107843072Y-46645769D01*
X107627000Y-46704024D01*
X107373000Y-46704024D01*
X107156928Y-46645769D01*
X106664801Y-46880142D01*
X106299826Y-47285003D01*
X106145780Y-47656930D01*
X101529882Y-47656930D01*
X102788592Y-45337802D01*
X103071973Y-44951319D01*
X103673868Y-44550056D01*
X104658720Y-44057630D01*
X104778093Y-44017839D01*
X105837707Y-43831000D01*
X124555555Y-43831000D01*
X124595916Y-43847718D01*
X124595916Y-43847718D01*
G37*
X124595916Y-43847718D02*
X126195641Y-44165924D01*
X127484591Y-45027173D01*
X127611663Y-45208651D01*
X152191990Y-90356189D01*
X163373904Y-111024107D01*
X163382665Y-111066991D01*
X164024512Y-112594187D01*
X164031981Y-114040252D01*
X164009215Y-114222374D01*
X163892285Y-114508845D01*
X162034260Y-116831377D01*
X160589390Y-117313000D01*
X70130610Y-117313000D01*
X68650161Y-116819517D01*
X68600122Y-116813385D01*
X68551640Y-116827203D01*
X68523773Y-116849612D01*
X68055886Y-116602966D01*
X67357353Y-115438744D01*
X103100861Y-115438744D01*
X103188918Y-115613383D01*
X103633959Y-115763984D01*
X104102755Y-115732812D01*
X104391082Y-115613383D01*
X104479139Y-115438744D01*
X103790000Y-114749605D01*
X103100861Y-115438744D01*
X67357353Y-115438744D01*
X66742482Y-114413959D01*
X102596016Y-114413959D01*
X102627188Y-114882755D01*
X102746617Y-115171082D01*
X102921256Y-115259139D01*
X103610395Y-114570000D01*
X103969605Y-114570000D01*
X104658744Y-115259139D01*
X104833383Y-115171082D01*
X104983984Y-114726041D01*
X104973112Y-114562533D01*
X114737072Y-114562533D01*
X114812621Y-114726645D01*
X115220766Y-114860237D01*
X115648966Y-114827470D01*
X115892379Y-114726645D01*
X115967928Y-114562533D01*
X115352500Y-113947105D01*
X114737072Y-114562533D01*
X104973112Y-114562533D01*
X104952812Y-114257245D01*
X104833383Y-113968918D01*
X104658744Y-113880861D01*
X103969605Y-114570000D01*
X103610395Y-114570000D01*
X102921256Y-113880861D01*
X102746617Y-113968918D01*
X102596016Y-114413959D01*
X66742482Y-114413959D01*
X66733162Y-114398426D01*
X66655699Y-113701256D01*
X103100861Y-113701256D01*
X103790000Y-114390395D01*
X104479139Y-113701256D01*
X104391082Y-113526617D01*
X103946041Y-113376016D01*
X103477245Y-113407188D01*
X103188918Y-113526617D01*
X103100861Y-113701256D01*
X66655699Y-113701256D01*
X66559813Y-112838284D01*
X111605813Y-112838284D01*
X111769811Y-113235189D01*
X112073214Y-113539122D01*
X112469832Y-113703813D01*
X112899284Y-113704187D01*
X113064875Y-113635766D01*
X114259763Y-113635766D01*
X114292530Y-114063966D01*
X114393355Y-114307379D01*
X114557467Y-114382928D01*
X115172895Y-113767500D01*
X115532105Y-113767500D01*
X116147533Y-114382928D01*
X116311645Y-114307379D01*
X116445237Y-113899234D01*
X116412470Y-113471034D01*
X116311645Y-113227621D01*
X116147533Y-113152072D01*
X115532105Y-113767500D01*
X115172895Y-113767500D01*
X114557467Y-113152072D01*
X114393355Y-113227621D01*
X114259763Y-113635766D01*
X113064875Y-113635766D01*
X113296189Y-113540189D01*
X113600122Y-113236786D01*
X113709877Y-112972467D01*
X114737072Y-112972467D01*
X115352500Y-113587895D01*
X115967928Y-112972467D01*
X115906157Y-112838284D01*
X116939813Y-112838284D01*
X117103811Y-113235189D01*
X117407214Y-113539122D01*
X117803832Y-113703813D01*
X118233284Y-113704187D01*
X118630189Y-113540189D01*
X118934122Y-113236786D01*
X119098813Y-112840168D01*
X119099187Y-112410716D01*
X118935189Y-112013811D01*
X118631786Y-111709878D01*
X118235168Y-111545187D01*
X117805716Y-111544813D01*
X117408811Y-111708811D01*
X117104878Y-112012214D01*
X116940187Y-112408832D01*
X116939813Y-112838284D01*
X115906157Y-112838284D01*
X115892379Y-112808355D01*
X115484234Y-112674763D01*
X115056034Y-112707530D01*
X114812621Y-112808355D01*
X114737072Y-112972467D01*
X113709877Y-112972467D01*
X113764813Y-112840168D01*
X113765187Y-112410716D01*
X113601189Y-112013811D01*
X113297786Y-111709878D01*
X112901168Y-111545187D01*
X112471716Y-111544813D01*
X112074811Y-111708811D01*
X111770878Y-112012214D01*
X111606187Y-112408832D01*
X111605813Y-112838284D01*
X66559813Y-112838284D01*
X66518591Y-112467294D01*
X66541628Y-112218775D01*
X66897038Y-111466762D01*
X67049993Y-111184947D01*
X67054192Y-111179877D01*
X67373328Y-110589213D01*
X68478003Y-108553885D01*
X97498796Y-108553885D01*
X97678213Y-108988109D01*
X98010144Y-109320619D01*
X98444054Y-109500794D01*
X98913885Y-109501204D01*
X98952769Y-109485137D01*
X99483816Y-110016184D01*
X99688527Y-110152968D01*
X99930000Y-110201000D01*
X102601536Y-110201000D01*
X102601536Y-110370000D01*
X102628103Y-110511190D01*
X102711546Y-110640865D01*
X102838866Y-110727859D01*
X102990000Y-110758464D01*
X104590000Y-110758464D01*
X104731190Y-110731897D01*
X104860865Y-110648454D01*
X104947859Y-110521134D01*
X104978464Y-110370000D01*
X104978464Y-110171284D01*
X110462813Y-110171284D01*
X110626811Y-110568189D01*
X110930214Y-110872122D01*
X111326832Y-111036813D01*
X111756284Y-111037187D01*
X112153189Y-110873189D01*
X112457122Y-110569786D01*
X112621813Y-110173168D01*
X112622187Y-109743716D01*
X112458189Y-109346811D01*
X112154786Y-109042878D01*
X111758168Y-108878187D01*
X111328716Y-108877813D01*
X110931811Y-109041811D01*
X110627878Y-109345214D01*
X110463187Y-109741832D01*
X110462813Y-110171284D01*
X104978464Y-110171284D01*
X104978464Y-109273904D01*
X107660368Y-106592000D01*
X111598536Y-106592000D01*
X111598536Y-107989000D01*
X111625103Y-108130190D01*
X111708546Y-108259865D01*
X111835866Y-108346859D01*
X111987000Y-108377464D01*
X113384000Y-108377464D01*
X113525190Y-108350897D01*
X113654865Y-108267454D01*
X113741859Y-108140134D01*
X113772464Y-107989000D01*
X113772464Y-107504284D01*
X116939813Y-107504284D01*
X117103811Y-107901189D01*
X117407214Y-108205122D01*
X117803832Y-108369813D01*
X118233284Y-108370187D01*
X118630189Y-108206189D01*
X118934122Y-107902786D01*
X119098813Y-107506168D01*
X119099187Y-107076716D01*
X118935189Y-106679811D01*
X118631786Y-106375878D01*
X118235168Y-106211187D01*
X117805716Y-106210813D01*
X117408811Y-106374811D01*
X117104878Y-106678214D01*
X116940187Y-107074832D01*
X116939813Y-107504284D01*
X113772464Y-107504284D01*
X113772464Y-106592000D01*
X113745897Y-106450810D01*
X113688289Y-106361284D01*
X114272813Y-106361284D01*
X114436811Y-106758189D01*
X114740214Y-107062122D01*
X115136832Y-107226813D01*
X115566284Y-107227187D01*
X115963189Y-107063189D01*
X116267122Y-106759786D01*
X116431813Y-106363168D01*
X116432187Y-105933716D01*
X116268189Y-105536811D01*
X115964786Y-105232878D01*
X115568168Y-105068187D01*
X115138716Y-105067813D01*
X114741811Y-105231811D01*
X114437878Y-105535214D01*
X114273187Y-105931832D01*
X114272813Y-106361284D01*
X113688289Y-106361284D01*
X113662454Y-106321135D01*
X113535134Y-106234141D01*
X113384000Y-106203536D01*
X111987000Y-106203536D01*
X111845810Y-106230103D01*
X111716135Y-106313546D01*
X111629141Y-106440866D01*
X111598536Y-106592000D01*
X107660368Y-106592000D01*
X109301369Y-104951000D01*
X118028632Y-104951000D01*
X119909000Y-106831369D01*
X119909000Y-108318631D01*
X119349470Y-108878162D01*
X118948716Y-108877813D01*
X118551811Y-109041811D01*
X118247878Y-109345214D01*
X118083187Y-109741832D01*
X118082813Y-110171284D01*
X118246811Y-110568189D01*
X118550214Y-110872122D01*
X118946832Y-111036813D01*
X119376284Y-111037187D01*
X119773189Y-110873189D01*
X120077122Y-110569786D01*
X120241813Y-110173168D01*
X120242164Y-109770205D01*
X120986184Y-109026185D01*
X121122968Y-108821474D01*
X121133966Y-108766184D01*
X121171000Y-108580000D01*
X121171000Y-106570000D01*
X121122968Y-106328527D01*
X121112958Y-106313546D01*
X120986185Y-106123816D01*
X118736184Y-103873816D01*
X118531473Y-103737032D01*
X118290000Y-103689000D01*
X109040000Y-103689000D01*
X108838589Y-103729063D01*
X108798526Y-103737032D01*
X108593815Y-103873816D01*
X104086096Y-108381536D01*
X102990000Y-108381536D01*
X102848810Y-108408103D01*
X102719135Y-108491546D01*
X102632141Y-108618866D01*
X102601536Y-108770000D01*
X102601536Y-108939000D01*
X100191368Y-108939000D01*
X99845396Y-108593028D01*
X99860794Y-108555946D01*
X99861204Y-108086115D01*
X99681787Y-107651891D01*
X99349856Y-107319381D01*
X98915946Y-107139206D01*
X98446115Y-107138796D01*
X98011891Y-107318213D01*
X97679381Y-107650144D01*
X97499206Y-108084054D01*
X97498796Y-108553885D01*
X68478003Y-108553885D01*
X71752900Y-102520000D01*
X97491536Y-102520000D01*
X97491536Y-104120000D01*
X97518103Y-104261190D01*
X97601546Y-104390865D01*
X97728866Y-104477859D01*
X97880000Y-104508464D01*
X99480000Y-104508464D01*
X99621190Y-104481897D01*
X99750865Y-104398454D01*
X99837859Y-104271134D01*
X99868464Y-104120000D01*
X99868464Y-103023904D01*
X101808886Y-101083482D01*
X104344357Y-101083482D01*
X104469767Y-101386998D01*
X104701781Y-101619417D01*
X105005077Y-101745357D01*
X105103074Y-101745442D01*
X106283816Y-102926184D01*
X106488526Y-103062968D01*
X106528589Y-103070937D01*
X106730000Y-103111000D01*
X114463483Y-103111000D01*
X114531781Y-103179417D01*
X114835077Y-103305357D01*
X115163482Y-103305643D01*
X115466998Y-103180233D01*
X115699417Y-102948219D01*
X115825357Y-102644923D01*
X115825643Y-102316518D01*
X115700233Y-102013002D01*
X115468219Y-101780583D01*
X115164923Y-101654643D01*
X114836518Y-101654357D01*
X114533002Y-101779767D01*
X114463648Y-101849000D01*
X106991368Y-101849000D01*
X105995559Y-100853191D01*
X105995643Y-100756518D01*
X105870233Y-100453002D01*
X105638219Y-100220583D01*
X105334923Y-100094643D01*
X105006518Y-100094357D01*
X104703002Y-100219767D01*
X104470583Y-100451781D01*
X104344643Y-100755077D01*
X104344357Y-101083482D01*
X101808886Y-101083482D01*
X102911476Y-99980892D01*
X107641771Y-99980892D01*
X107851495Y-100488463D01*
X108239494Y-100877140D01*
X108746699Y-101087749D01*
X109295892Y-101088229D01*
X109803463Y-100878505D01*
X110192140Y-100490506D01*
X110402749Y-99983301D01*
X110402751Y-99980892D01*
X117801771Y-99980892D01*
X118011495Y-100488463D01*
X118399494Y-100877140D01*
X118906699Y-101087749D01*
X119455892Y-101088229D01*
X119963463Y-100878505D01*
X120352140Y-100490506D01*
X120562749Y-99983301D01*
X120563229Y-99434108D01*
X120353505Y-98926537D01*
X120193500Y-98766252D01*
X120193500Y-95393721D01*
X120258895Y-95366700D01*
X120605483Y-95020716D01*
X120793286Y-94568435D01*
X120793713Y-94078713D01*
X120606700Y-93626105D01*
X120260716Y-93279517D01*
X119808435Y-93091714D01*
X119318713Y-93091287D01*
X118866105Y-93278300D01*
X118519517Y-93624284D01*
X118331714Y-94076565D01*
X118331287Y-94566287D01*
X118518300Y-95018895D01*
X118864284Y-95365483D01*
X118931500Y-95393393D01*
X118931500Y-98326791D01*
X118909108Y-98326771D01*
X118401537Y-98536495D01*
X118012860Y-98924494D01*
X117802251Y-99431699D01*
X117801771Y-99980892D01*
X110402751Y-99980892D01*
X110403229Y-99434108D01*
X110193505Y-98926537D01*
X109805506Y-98537860D01*
X109298301Y-98327251D01*
X108749108Y-98326771D01*
X108241537Y-98536495D01*
X107852860Y-98924494D01*
X107642251Y-99431699D01*
X107641771Y-99980892D01*
X102911476Y-99980892D01*
X106286184Y-96606184D01*
X106422968Y-96401474D01*
X106442859Y-96301473D01*
X106471000Y-96160000D01*
X106471000Y-92026287D01*
X106791287Y-92026287D01*
X106978300Y-92478895D01*
X107324284Y-92825483D01*
X107776565Y-93013286D01*
X108266287Y-93013713D01*
X108718895Y-92826700D01*
X109065483Y-92480716D01*
X109093393Y-92413500D01*
X110341132Y-92413500D01*
X111169110Y-93241479D01*
X110808435Y-93091714D01*
X110318713Y-93091287D01*
X109866105Y-93278300D01*
X109519517Y-93624284D01*
X109331714Y-94076565D01*
X109331287Y-94566287D01*
X109518300Y-95018895D01*
X109864284Y-95365483D01*
X110316565Y-95553286D01*
X110806287Y-95553713D01*
X111258895Y-95366700D01*
X111605483Y-95020716D01*
X111793286Y-94568435D01*
X111793713Y-94078713D01*
X111643993Y-93716362D01*
X111656315Y-93728684D01*
X111861026Y-93865468D01*
X111901089Y-93873437D01*
X112102500Y-93913500D01*
X115522500Y-93913500D01*
X115763973Y-93865468D01*
X115968684Y-93728684D01*
X116711217Y-92986151D01*
X116776565Y-93013286D01*
X117266287Y-93013713D01*
X117718895Y-92826700D01*
X118065483Y-92480716D01*
X118253286Y-92028435D01*
X118253287Y-92026287D01*
X120871287Y-92026287D01*
X121058300Y-92478895D01*
X121404284Y-92825483D01*
X121856565Y-93013286D01*
X122346287Y-93013713D01*
X122798895Y-92826700D01*
X123145483Y-92480716D01*
X123333286Y-92028435D01*
X123333713Y-91538713D01*
X123146700Y-91086105D01*
X122800716Y-90739517D01*
X122348435Y-90551714D01*
X121858713Y-90551287D01*
X121406105Y-90738300D01*
X121059517Y-91084284D01*
X120871714Y-91536565D01*
X120871287Y-92026287D01*
X118253287Y-92026287D01*
X118253713Y-91538713D01*
X118066700Y-91086105D01*
X117720716Y-90739517D01*
X117268435Y-90551714D01*
X116778713Y-90551287D01*
X116326105Y-90738300D01*
X115979517Y-91084284D01*
X115791714Y-91536565D01*
X115791287Y-92026287D01*
X115819080Y-92093552D01*
X115261132Y-92651500D01*
X113974401Y-92651500D01*
X114145483Y-92480716D01*
X114333286Y-92028435D01*
X114333713Y-91538713D01*
X114146700Y-91086105D01*
X113800716Y-90739517D01*
X113348435Y-90551714D01*
X112858713Y-90551287D01*
X112406105Y-90738300D01*
X112059517Y-91084284D01*
X111871714Y-91536565D01*
X111871287Y-92026287D01*
X111964677Y-92252308D01*
X111048684Y-91336316D01*
X110843973Y-91199532D01*
X110602500Y-91151500D01*
X109093721Y-91151500D01*
X109066700Y-91086105D01*
X108720716Y-90739517D01*
X108268435Y-90551714D01*
X107778713Y-90551287D01*
X107326105Y-90738300D01*
X106979517Y-91084284D01*
X106791714Y-91536565D01*
X106791287Y-92026287D01*
X106471000Y-92026287D01*
X106471000Y-89066287D01*
X110081287Y-89066287D01*
X110268300Y-89518895D01*
X110614284Y-89865483D01*
X111066565Y-90053286D01*
X111556287Y-90053713D01*
X112008895Y-89866700D01*
X112355483Y-89520716D01*
X112543286Y-89068435D01*
X112543287Y-89066287D01*
X117581287Y-89066287D01*
X117768300Y-89518895D01*
X118114284Y-89865483D01*
X118566565Y-90053286D01*
X119056287Y-90053713D01*
X119508895Y-89866700D01*
X119855483Y-89520716D01*
X120043286Y-89068435D01*
X120043713Y-88578713D01*
X119856700Y-88126105D01*
X119510716Y-87779517D01*
X119058435Y-87591714D01*
X118568713Y-87591287D01*
X118116105Y-87778300D01*
X117769517Y-88124284D01*
X117581714Y-88576565D01*
X117581287Y-89066287D01*
X112543287Y-89066287D01*
X112543713Y-88578713D01*
X112356700Y-88126105D01*
X112010716Y-87779517D01*
X111558435Y-87591714D01*
X111068713Y-87591287D01*
X110616105Y-87778300D01*
X110269517Y-88124284D01*
X110081714Y-88576565D01*
X110081287Y-89066287D01*
X106471000Y-89066287D01*
X106471000Y-87187521D01*
X108047084Y-87187521D01*
X108141292Y-87367348D01*
X108604493Y-87526322D01*
X109093272Y-87495935D01*
X109403708Y-87367348D01*
X109497916Y-87187521D01*
X108772500Y-86462105D01*
X108047084Y-87187521D01*
X106471000Y-87187521D01*
X106471000Y-86114493D01*
X107528678Y-86114493D01*
X107559065Y-86603272D01*
X107687652Y-86913708D01*
X107867479Y-87007916D01*
X108592895Y-86282500D01*
X108952105Y-86282500D01*
X109677521Y-87007916D01*
X109857348Y-86913708D01*
X109990313Y-86526287D01*
X112621287Y-86526287D01*
X112808300Y-86978895D01*
X113154284Y-87325483D01*
X113606565Y-87513286D01*
X114096287Y-87513713D01*
X114548895Y-87326700D01*
X114895483Y-86980716D01*
X115062680Y-86578061D01*
X115228300Y-86978895D01*
X115574284Y-87325483D01*
X116026565Y-87513286D01*
X116516287Y-87513713D01*
X116968895Y-87326700D01*
X117315483Y-86980716D01*
X117503286Y-86528435D01*
X117503287Y-86526287D01*
X120121287Y-86526287D01*
X120308300Y-86978895D01*
X120654284Y-87325483D01*
X121106565Y-87513286D01*
X121596287Y-87513713D01*
X122048895Y-87326700D01*
X122395483Y-86980716D01*
X122583286Y-86528435D01*
X122583713Y-86038713D01*
X122396700Y-85586105D01*
X122050716Y-85239517D01*
X121598435Y-85051714D01*
X121108713Y-85051287D01*
X120656105Y-85238300D01*
X120309517Y-85584284D01*
X120121714Y-86036565D01*
X120121287Y-86526287D01*
X117503287Y-86526287D01*
X117503713Y-86038713D01*
X117376088Y-85729834D01*
X121040000Y-82065922D01*
X124159000Y-85184922D01*
X124159000Y-93817688D01*
X123934923Y-93724643D01*
X123606518Y-93724357D01*
X123303002Y-93849767D01*
X123070583Y-94081781D01*
X122944643Y-94385077D01*
X122944357Y-94713482D01*
X123069767Y-95016998D01*
X123139000Y-95086352D01*
X123139000Y-95798631D01*
X122056096Y-96881536D01*
X120960000Y-96881536D01*
X120818810Y-96908103D01*
X120689135Y-96991546D01*
X120602141Y-97118866D01*
X120571536Y-97270000D01*
X120571536Y-98870000D01*
X120598103Y-99011190D01*
X120681546Y-99140865D01*
X120808866Y-99227859D01*
X120960000Y-99258464D01*
X122355614Y-99258464D01*
X120175078Y-101439000D01*
X118290000Y-101439000D01*
X117952856Y-101506062D01*
X117667039Y-101697039D01*
X117476062Y-101982856D01*
X117409000Y-102320000D01*
X117476062Y-102657144D01*
X117667039Y-102942961D01*
X117952856Y-103133938D01*
X118290000Y-103201000D01*
X120540000Y-103201000D01*
X120877144Y-103133938D01*
X121162961Y-102942961D01*
X122903672Y-101202250D01*
X127789000Y-101202250D01*
X127789000Y-101855785D01*
X127847004Y-101995819D01*
X127954180Y-102102996D01*
X128094214Y-102161000D01*
X128747750Y-102161000D01*
X128843000Y-102065750D01*
X128843000Y-101107000D01*
X129097000Y-101107000D01*
X129097000Y-102065750D01*
X129192250Y-102161000D01*
X129845786Y-102161000D01*
X129985820Y-102102996D01*
X130092996Y-101995819D01*
X130151000Y-101855785D01*
X130151000Y-101213885D01*
X132788796Y-101213885D01*
X132968213Y-101648109D01*
X133300144Y-101980619D01*
X133734054Y-102160794D01*
X134203885Y-102161204D01*
X134638109Y-101981787D01*
X134970619Y-101649856D01*
X135150794Y-101215946D01*
X135151204Y-100746115D01*
X134971787Y-100311891D01*
X134639856Y-99979381D01*
X134205946Y-99799206D01*
X133736115Y-99798796D01*
X133301891Y-99978213D01*
X132969381Y-100310144D01*
X132789206Y-100744054D01*
X132788796Y-101213885D01*
X130151000Y-101213885D01*
X130151000Y-101202250D01*
X130055750Y-101107000D01*
X129097000Y-101107000D01*
X128843000Y-101107000D01*
X127884250Y-101107000D01*
X127789000Y-101202250D01*
X122903672Y-101202250D01*
X124001707Y-100104215D01*
X127789000Y-100104215D01*
X127789000Y-100757750D01*
X127884250Y-100853000D01*
X128843000Y-100853000D01*
X128843000Y-99894250D01*
X129097000Y-99894250D01*
X129097000Y-100853000D01*
X130055750Y-100853000D01*
X130151000Y-100757750D01*
X130151000Y-100104215D01*
X130092996Y-99964181D01*
X129985820Y-99857004D01*
X129845786Y-99799000D01*
X129192250Y-99799000D01*
X129097000Y-99894250D01*
X128843000Y-99894250D01*
X128747750Y-99799000D01*
X128094214Y-99799000D01*
X127954180Y-99857004D01*
X127847004Y-99964181D01*
X127789000Y-100104215D01*
X124001707Y-100104215D01*
X125644067Y-98461855D01*
X125758213Y-98738109D01*
X126090144Y-99070619D01*
X126524054Y-99250794D01*
X126993885Y-99251204D01*
X127428109Y-99071787D01*
X127760619Y-98739856D01*
X127940794Y-98305946D01*
X127941204Y-97836115D01*
X127761787Y-97401891D01*
X127429856Y-97069381D01*
X126995946Y-96889206D01*
X126526115Y-96888796D01*
X126091891Y-97068213D01*
X125921000Y-97238806D01*
X125921000Y-84820000D01*
X125853938Y-84482856D01*
X125662961Y-84197039D01*
X120511000Y-79045078D01*
X120511000Y-53197771D01*
X120622961Y-53122961D01*
X123622961Y-50122961D01*
X123813938Y-49837144D01*
X123881000Y-49500000D01*
X123881000Y-49404464D01*
X124016000Y-49404464D01*
X124157190Y-49377897D01*
X124286865Y-49294454D01*
X124373859Y-49167134D01*
X124404464Y-49016000D01*
X124404464Y-46984000D01*
X124377897Y-46842810D01*
X124294454Y-46713135D01*
X124167134Y-46626141D01*
X124016000Y-46595536D01*
X121984000Y-46595536D01*
X121842810Y-46622103D01*
X121713135Y-46705546D01*
X121626141Y-46832866D01*
X121595536Y-46984000D01*
X121595536Y-49016000D01*
X121622103Y-49157190D01*
X121705546Y-49286865D01*
X121832866Y-49373859D01*
X121872245Y-49381833D01*
X119635078Y-51619000D01*
X119630000Y-51619000D01*
X119292856Y-51686062D01*
X119007039Y-51877039D01*
X118816062Y-52162856D01*
X118749000Y-52500000D01*
X118749000Y-79410000D01*
X118816062Y-79747144D01*
X119007039Y-80032961D01*
X119794078Y-80820000D01*
X115649539Y-84964539D01*
X115458562Y-85250356D01*
X115432431Y-85381723D01*
X115229517Y-85584284D01*
X115062320Y-85986939D01*
X114896700Y-85586105D01*
X114550716Y-85239517D01*
X114098435Y-85051714D01*
X113608713Y-85051287D01*
X113156105Y-85238300D01*
X112809517Y-85584284D01*
X112621714Y-86036565D01*
X112621287Y-86526287D01*
X109990313Y-86526287D01*
X110016322Y-86450507D01*
X109985935Y-85961728D01*
X109857348Y-85651292D01*
X109677521Y-85557084D01*
X108952105Y-86282500D01*
X108592895Y-86282500D01*
X107867479Y-85557084D01*
X107687652Y-85651292D01*
X107528678Y-86114493D01*
X106471000Y-86114493D01*
X106471000Y-85377479D01*
X108047084Y-85377479D01*
X108772500Y-86102895D01*
X109497916Y-85377479D01*
X109403708Y-85197652D01*
X108940507Y-85038678D01*
X108451728Y-85069065D01*
X108141292Y-85197652D01*
X108047084Y-85377479D01*
X106471000Y-85377479D01*
X106471000Y-80070000D01*
X113901536Y-80070000D01*
X113901536Y-81670000D01*
X113928103Y-81811190D01*
X114011546Y-81940865D01*
X114138866Y-82027859D01*
X114290000Y-82058464D01*
X115890000Y-82058464D01*
X116031190Y-82031897D01*
X116160865Y-81948454D01*
X116247859Y-81821134D01*
X116278464Y-81670000D01*
X116278464Y-80070000D01*
X116251897Y-79928810D01*
X116168454Y-79799135D01*
X116041134Y-79712141D01*
X115890000Y-79681536D01*
X114290000Y-79681536D01*
X114148810Y-79708103D01*
X114019135Y-79791546D01*
X113932141Y-79918866D01*
X113901536Y-80070000D01*
X106471000Y-80070000D01*
X106471000Y-80056517D01*
X106539417Y-79988219D01*
X106665357Y-79684923D01*
X106665643Y-79356518D01*
X106540233Y-79053002D01*
X106308219Y-78820583D01*
X106004923Y-78694643D01*
X105676518Y-78694357D01*
X105373002Y-78819767D01*
X105140583Y-79051781D01*
X105014643Y-79355077D01*
X105014357Y-79683482D01*
X105139767Y-79986998D01*
X105209000Y-80056352D01*
X105209000Y-95898632D01*
X98976096Y-102131536D01*
X97880000Y-102131536D01*
X97738810Y-102158103D01*
X97609135Y-102241546D01*
X97522141Y-102368866D01*
X97491536Y-102520000D01*
X71752900Y-102520000D01*
X101157479Y-48343070D01*
X106145780Y-48343070D01*
X106299826Y-48714997D01*
X106664801Y-49119858D01*
X107156928Y-49354231D01*
X107373000Y-49295976D01*
X107373000Y-48127000D01*
X107627000Y-48127000D01*
X107627000Y-49295976D01*
X107843072Y-49354231D01*
X108335199Y-49119858D01*
X108700174Y-48714997D01*
X108854220Y-48343070D01*
X108795540Y-48127000D01*
X107627000Y-48127000D01*
X107373000Y-48127000D01*
X106204460Y-48127000D01*
X106145780Y-48343070D01*
X101157479Y-48343070D01*
X101529882Y-47656930D01*
X106145780Y-47656930D01*
X106204460Y-47873000D01*
X107373000Y-47873000D01*
X107373000Y-46704024D01*
X107627000Y-46704024D01*
X107627000Y-47873000D01*
X108795540Y-47873000D01*
X108854220Y-47656930D01*
X108700174Y-47285003D01*
X108428826Y-46984000D01*
X112095536Y-46984000D01*
X112095536Y-49016000D01*
X112122103Y-49157190D01*
X112205546Y-49286865D01*
X112332866Y-49373859D01*
X112484000Y-49404464D01*
X112859000Y-49404464D01*
X112859000Y-76770000D01*
X112907032Y-77011473D01*
X113043816Y-77216184D01*
X113886349Y-78058717D01*
X113859214Y-78124065D01*
X113858787Y-78613787D01*
X114045800Y-79066395D01*
X114391784Y-79412983D01*
X114844065Y-79600786D01*
X115333787Y-79601213D01*
X115786395Y-79414200D01*
X116132983Y-79068216D01*
X116320786Y-78615935D01*
X116321213Y-78126213D01*
X116134200Y-77673605D01*
X115788216Y-77327017D01*
X115335935Y-77139214D01*
X114846213Y-77138787D01*
X114778949Y-77166580D01*
X114121000Y-76508632D01*
X114121000Y-49404464D01*
X114516000Y-49404464D01*
X114657190Y-49377897D01*
X114786865Y-49294454D01*
X114873859Y-49167134D01*
X114904464Y-49016000D01*
X114904464Y-48343070D01*
X115645780Y-48343070D01*
X115799826Y-48714997D01*
X116164801Y-49119858D01*
X116656928Y-49354231D01*
X116873000Y-49295976D01*
X116873000Y-48127000D01*
X117127000Y-48127000D01*
X117127000Y-49295976D01*
X117343072Y-49354231D01*
X117835199Y-49119858D01*
X118200174Y-48714997D01*
X118354220Y-48343070D01*
X118295540Y-48127000D01*
X117127000Y-48127000D01*
X116873000Y-48127000D01*
X115704460Y-48127000D01*
X115645780Y-48343070D01*
X114904464Y-48343070D01*
X114904464Y-47656930D01*
X115645780Y-47656930D01*
X115704460Y-47873000D01*
X116873000Y-47873000D01*
X116873000Y-46704024D01*
X117127000Y-46704024D01*
X117127000Y-47873000D01*
X118295540Y-47873000D01*
X118354220Y-47656930D01*
X118200174Y-47285003D01*
X117835199Y-46880142D01*
X117343072Y-46645769D01*
X117127000Y-46704024D01*
X116873000Y-46704024D01*
X116656928Y-46645769D01*
X116164801Y-46880142D01*
X115799826Y-47285003D01*
X115645780Y-47656930D01*
X114904464Y-47656930D01*
X114904464Y-46984000D01*
X114877897Y-46842810D01*
X114794454Y-46713135D01*
X114667134Y-46626141D01*
X114516000Y-46595536D01*
X112484000Y-46595536D01*
X112342810Y-46622103D01*
X112213135Y-46705546D01*
X112126141Y-46832866D01*
X112095536Y-46984000D01*
X108428826Y-46984000D01*
X108335199Y-46880142D01*
X107843072Y-46645769D01*
X107627000Y-46704024D01*
X107373000Y-46704024D01*
X107156928Y-46645769D01*
X106664801Y-46880142D01*
X106299826Y-47285003D01*
X106145780Y-47656930D01*
X101529882Y-47656930D01*
X102788592Y-45337802D01*
X103071973Y-44951319D01*
X103673868Y-44550056D01*
X104658720Y-44057630D01*
X104778093Y-44017839D01*
X105837707Y-43831000D01*
X124555555Y-43831000D01*
X124595916Y-43847718D01*
M02*
