M48
;DRILL file {KiCad (2015-11-24 BZR 6329)-product} date Sat 12 Dec 2015 04:54:16 PM EST
;FORMAT={-:-/ absolute / inch / decimal}
FMAT,2
INCH,TZ
T1C0.025
T2C0.031
T3C0.032
T4C0.035
T5C0.039
T6C0.040
%
G90
G05
M72
T1
X4.1406Y-3.9732
X4.1669Y-3.1307
X4.5276Y-4.0346
X4.6571Y-4.0283
X4.7654Y-3.1819
X4.8728Y-3.7224
T2
X4.2529Y-3.6135
X4.2824Y-3.3969
X4.3529Y-3.7135
X4.3824Y-3.4969
X4.4529Y-3.6135
X4.4824Y-3.3969
X4.5311Y-3.0854
X4.5311Y-3.1839
X4.5777Y-3.3969
X4.6072Y-3.6135
X4.6777Y-3.4969
X4.7072Y-3.7135
X4.7777Y-3.3969
X4.8072Y-3.6135
T3
X4.3914Y-4.329
X4.4364Y-4.224
X4.4364Y-4.434
X4.5414Y-4.179
X4.5414Y-4.479
X4.6464Y-4.224
X4.6464Y-4.434
X4.6914Y-4.329
T4
X3.885Y-4.0677
X3.885Y-4.2646
X4.0862Y-4.3138
X4.0862Y-4.5106
X4.7937Y-3.861
X4.9906Y-3.861
X5.0776Y-3.9756
X5.2744Y-3.9756
T5
X4.2922Y-3.9255
X4.6922Y-3.9255
T6
X4.2323Y-1.8898
X4.4685Y-1.8898
X4.6063Y-1.8898
X4.8425Y-1.8898
T0
M30
