G04 #@! TF.GenerationSoftware,KiCad,Pcbnew,(2017-12-02 revision 3109343)-master*
G04 #@! TF.CreationDate,2018-01-05T03:29:25-05:00*
G04 #@! TF.ProjectId,ddc112brd,6464633131326272642E6B696361645F,rev?*
G04 #@! TF.SameCoordinates,Original*
G04 #@! TF.FileFunction,Legend,Top*
G04 #@! TF.FilePolarity,Positive*
%FSLAX46Y46*%
G04 Gerber Fmt 4.6, Leading zero omitted, Abs format (unit mm)*
G04 Created by KiCad (PCBNEW (2017-12-02 revision 3109343)-master) date Fri Jan  5 03:29:25 2018*
%MOMM*%
%LPD*%
G01*
G04 APERTURE LIST*
%ADD10C,0.381000*%
%ADD11C,0.150000*%
%ADD12C,0.120000*%
%ADD13C,0.304800*%
G04 APERTURE END LIST*
D10*
X201521060Y-76700380D02*
X202465940Y-76700380D01*
X201521060Y-71381620D02*
X202465940Y-71381620D01*
X193014600Y-71381620D02*
X196794120Y-71381620D01*
X193014600Y-76700380D02*
X196794120Y-76700380D01*
X201206100Y-70848220D02*
X201521060Y-74307700D01*
X197424040Y-77233780D02*
X196794120Y-71381620D01*
X197424040Y-70848220D02*
X198053960Y-77233780D01*
X198053960Y-70848220D02*
X198683880Y-77233780D01*
X198683880Y-70848220D02*
X199313800Y-77233780D01*
X199313800Y-70848220D02*
X199946260Y-77233780D01*
X199946260Y-70848220D02*
X200576180Y-77233780D01*
X200576180Y-70848220D02*
X201206100Y-77233780D01*
X201206100Y-70848220D02*
X201521060Y-71381620D01*
X201521060Y-71381620D02*
X201521060Y-76700380D01*
X201521060Y-76700380D02*
X201206100Y-77233780D01*
X201206100Y-77233780D02*
X197109080Y-77233780D01*
X197109080Y-77233780D02*
X196794120Y-76700380D01*
X196794120Y-76700380D02*
X196794120Y-71381620D01*
X196794120Y-71381620D02*
X197109080Y-70848220D01*
X197109080Y-70848220D02*
X201206100Y-70848220D01*
X202465940Y-76700380D02*
X202465940Y-71381620D01*
X193014600Y-70891400D02*
X193014600Y-77190600D01*
X193014600Y-77190600D02*
X186715400Y-77190600D01*
X186715400Y-77190600D02*
X186715400Y-70891400D01*
X186715400Y-70891400D02*
X193014600Y-70891400D01*
D11*
X182865000Y-74865000D02*
X182865000Y-73040000D01*
X164865000Y-74865000D02*
X164865000Y-82615000D01*
X183115000Y-74865000D02*
X183115000Y-82615000D01*
X164865000Y-74865000D02*
X165210000Y-74865000D01*
X164865000Y-82615000D02*
X165210000Y-82615000D01*
X183115000Y-82615000D02*
X182770000Y-82615000D01*
X183115000Y-74865000D02*
X182865000Y-74865000D01*
X163388000Y-76222000D02*
X163388000Y-72622000D01*
X163688000Y-72622000D02*
X160788000Y-72622000D01*
X163688000Y-76222000D02*
X160788000Y-76222000D01*
X163688000Y-76222000D02*
X163688000Y-75872000D01*
X163688000Y-72622000D02*
X163688000Y-73022000D01*
X156588000Y-72622000D02*
X156588000Y-73422000D01*
X156588000Y-75822000D02*
X156588000Y-76022000D01*
X156588000Y-76022000D02*
X156588000Y-76222000D01*
X163682000Y-75946000D02*
X163682000Y-72898000D01*
X158499000Y-72598000D02*
X156594000Y-72598000D01*
X156594000Y-72898000D02*
X156594000Y-75946000D01*
X156594000Y-76246000D02*
X158499000Y-76246000D01*
X167640000Y-67310000D02*
X167640000Y-57150000D01*
X187960000Y-57150000D02*
X187960000Y-67310000D01*
X167640000Y-55880000D02*
X167640000Y-57150000D01*
X187960000Y-55880000D02*
X167640000Y-55880000D01*
X187960000Y-57150000D02*
X187960000Y-55880000D01*
X167640000Y-68580000D02*
X167640000Y-67310000D01*
X187960000Y-68580000D02*
X167640000Y-68580000D01*
X187960000Y-67310000D02*
X187960000Y-68580000D01*
X187960000Y-68580000D02*
X187960000Y-67310000D01*
X168867000Y-111267000D02*
X167467000Y-111267000D01*
X168867000Y-116367000D02*
X173017000Y-116367000D01*
X168867000Y-111217000D02*
X173017000Y-111217000D01*
X168867000Y-116367000D02*
X168867000Y-116222000D01*
X173017000Y-116367000D02*
X173017000Y-116222000D01*
X173017000Y-111217000D02*
X173017000Y-111362000D01*
X168867000Y-111217000D02*
X168867000Y-111267000D01*
D10*
X186715400Y-80289400D02*
X193014600Y-80289400D01*
X186715400Y-86588600D02*
X186715400Y-80289400D01*
X193014600Y-86588600D02*
X186715400Y-86588600D01*
X193014600Y-80289400D02*
X193014600Y-86588600D01*
X202465940Y-86098380D02*
X202465940Y-80779620D01*
X197109080Y-80246220D02*
X201206100Y-80246220D01*
X196794120Y-80779620D02*
X197109080Y-80246220D01*
X196794120Y-86098380D02*
X196794120Y-80779620D01*
X197109080Y-86631780D02*
X196794120Y-86098380D01*
X201206100Y-86631780D02*
X197109080Y-86631780D01*
X201521060Y-86098380D02*
X201206100Y-86631780D01*
X201521060Y-80779620D02*
X201521060Y-86098380D01*
X201206100Y-80246220D02*
X201521060Y-80779620D01*
X200576180Y-80246220D02*
X201206100Y-86631780D01*
X199946260Y-80246220D02*
X200576180Y-86631780D01*
X199313800Y-80246220D02*
X199946260Y-86631780D01*
X198683880Y-80246220D02*
X199313800Y-86631780D01*
X198053960Y-80246220D02*
X198683880Y-86631780D01*
X197424040Y-80246220D02*
X198053960Y-86631780D01*
X197424040Y-86631780D02*
X196794120Y-80779620D01*
X201206100Y-80246220D02*
X201521060Y-83705700D01*
X193014600Y-86098380D02*
X196794120Y-86098380D01*
X193014600Y-80779620D02*
X196794120Y-80779620D01*
X201521060Y-80779620D02*
X202465940Y-80779620D01*
X201521060Y-86098380D02*
X202465940Y-86098380D01*
D11*
X169230000Y-122196000D02*
X169230000Y-118596000D01*
X169530000Y-118596000D02*
X166630000Y-118596000D01*
X169530000Y-122196000D02*
X166630000Y-122196000D01*
X169530000Y-122196000D02*
X169530000Y-121846000D01*
X169530000Y-118596000D02*
X169530000Y-118996000D01*
X162430000Y-118596000D02*
X162430000Y-119396000D01*
X162430000Y-121796000D02*
X162430000Y-121996000D01*
X162430000Y-121996000D02*
X162430000Y-122196000D01*
X169524000Y-121920000D02*
X169524000Y-118872000D01*
X164341000Y-118572000D02*
X162436000Y-118572000D01*
X162436000Y-118872000D02*
X162436000Y-121920000D01*
X162436000Y-122220000D02*
X164341000Y-122220000D01*
X163452000Y-72436000D02*
X165357000Y-72436000D01*
X163452000Y-69088000D02*
X163452000Y-72136000D01*
X165357000Y-68788000D02*
X163452000Y-68788000D01*
X170540000Y-72136000D02*
X170540000Y-69088000D01*
X163446000Y-72212000D02*
X163446000Y-72412000D01*
X163446000Y-72012000D02*
X163446000Y-72212000D01*
X163446000Y-68812000D02*
X163446000Y-69612000D01*
X170546000Y-68812000D02*
X170546000Y-69212000D01*
X170546000Y-72412000D02*
X170546000Y-72062000D01*
X170546000Y-72412000D02*
X167646000Y-72412000D01*
X170546000Y-68812000D02*
X167646000Y-68812000D01*
X170246000Y-72412000D02*
X170246000Y-68812000D01*
D12*
X175784000Y-69592000D02*
X173784000Y-69592000D01*
X173784000Y-71632000D02*
X175784000Y-71632000D01*
X180610000Y-71632000D02*
X182610000Y-71632000D01*
X182610000Y-69592000D02*
X180610000Y-69592000D01*
D11*
X169802000Y-122220000D02*
X171707000Y-122220000D01*
X169802000Y-118872000D02*
X169802000Y-121920000D01*
X171707000Y-118572000D02*
X169802000Y-118572000D01*
X176890000Y-121920000D02*
X176890000Y-118872000D01*
X169796000Y-121996000D02*
X169796000Y-122196000D01*
X169796000Y-121796000D02*
X169796000Y-121996000D01*
X169796000Y-118596000D02*
X169796000Y-119396000D01*
X176896000Y-118596000D02*
X176896000Y-118996000D01*
X176896000Y-122196000D02*
X176896000Y-121846000D01*
X176896000Y-122196000D02*
X173996000Y-122196000D01*
X176896000Y-118596000D02*
X173996000Y-118596000D01*
X176596000Y-122196000D02*
X176596000Y-118596000D01*
D12*
X178058000Y-89614000D02*
X178058000Y-87614000D01*
X176018000Y-87614000D02*
X176018000Y-89614000D01*
X182610000Y-85848000D02*
X180610000Y-85848000D01*
X180610000Y-87888000D02*
X182610000Y-87888000D01*
D11*
X177778000Y-113636000D02*
X181378000Y-113636000D01*
X181378000Y-113936000D02*
X181378000Y-111036000D01*
X177778000Y-113936000D02*
X177778000Y-111036000D01*
X177778000Y-113936000D02*
X178128000Y-113936000D01*
X181378000Y-113936000D02*
X180978000Y-113936000D01*
X181378000Y-106836000D02*
X180578000Y-106836000D01*
X178178000Y-106836000D02*
X177978000Y-106836000D01*
X177978000Y-106836000D02*
X177778000Y-106836000D01*
X178054000Y-113930000D02*
X181102000Y-113930000D01*
X181402000Y-108747000D02*
X181402000Y-106842000D01*
X181102000Y-106842000D02*
X178054000Y-106842000D01*
X177754000Y-106842000D02*
X177754000Y-108747000D01*
D12*
X172732000Y-116752000D02*
X171732000Y-116752000D01*
X171732000Y-118452000D02*
X172732000Y-118452000D01*
X177126000Y-112026000D02*
X177126000Y-111026000D01*
X175426000Y-111026000D02*
X175426000Y-112026000D01*
X104460001Y-59111500D02*
X107000001Y-59111500D01*
X104460001Y-59111500D02*
X104460001Y-61651500D01*
X104710001Y-59361500D02*
X114060001Y-59361500D01*
X104710001Y-118321500D02*
X104710001Y-59361500D01*
X114060001Y-118321500D02*
X104710001Y-118321500D01*
X114060001Y-59361500D02*
X114060001Y-118321500D01*
X162696000Y-111344000D02*
X162696000Y-110144000D01*
X164456000Y-110144000D02*
X164456000Y-111344000D01*
X164456000Y-115224000D02*
X164456000Y-116424000D01*
X162696000Y-116424000D02*
X162696000Y-115224000D01*
D11*
X155575000Y-93599000D02*
G75*
G03X155575000Y-93599000I-4762500J0D01*
G01*
X161925000Y-82486500D02*
X161925000Y-134874000D01*
X161925000Y-134874000D02*
X117475000Y-134874000D01*
X117475000Y-134874000D02*
X117475000Y-82486500D01*
X117475000Y-82486500D02*
X161925000Y-82486500D01*
D13*
X185474428Y-75165857D02*
X183950428Y-75165857D01*
X183950428Y-74585285D01*
X184023000Y-74440142D01*
X184095571Y-74367571D01*
X184240714Y-74295000D01*
X184458428Y-74295000D01*
X184603571Y-74367571D01*
X184676142Y-74440142D01*
X184748714Y-74585285D01*
X184748714Y-75165857D01*
X185474428Y-72843571D02*
X185474428Y-73714428D01*
X185474428Y-73279000D02*
X183950428Y-73279000D01*
X184168142Y-73424142D01*
X184313285Y-73569285D01*
X184385857Y-73714428D01*
X199535142Y-75365428D02*
X199607714Y-75147714D01*
X199680285Y-75075142D01*
X199825428Y-75002571D01*
X200043142Y-75002571D01*
X200188285Y-75075142D01*
X200260857Y-75147714D01*
X200333428Y-75292857D01*
X200333428Y-75873428D01*
X198809428Y-75873428D01*
X198809428Y-75365428D01*
X198882000Y-75220285D01*
X198954571Y-75147714D01*
X199099714Y-75075142D01*
X199244857Y-75075142D01*
X199390000Y-75147714D01*
X199462571Y-75220285D01*
X199535142Y-75365428D01*
X199535142Y-75873428D01*
X200333428Y-74349428D02*
X198809428Y-74349428D01*
X200333428Y-73478571D01*
X198809428Y-73478571D01*
X200188285Y-71882000D02*
X200260857Y-71954571D01*
X200333428Y-72172285D01*
X200333428Y-72317428D01*
X200260857Y-72535142D01*
X200115714Y-72680285D01*
X199970571Y-72752857D01*
X199680285Y-72825428D01*
X199462571Y-72825428D01*
X199172285Y-72752857D01*
X199027142Y-72680285D01*
X198882000Y-72535142D01*
X198809428Y-72317428D01*
X198809428Y-72172285D01*
X198882000Y-71954571D01*
X198954571Y-71882000D01*
D11*
X183492380Y-79501904D02*
X184301904Y-79501904D01*
X184397142Y-79454285D01*
X184444761Y-79406666D01*
X184492380Y-79311428D01*
X184492380Y-79120952D01*
X184444761Y-79025714D01*
X184397142Y-78978095D01*
X184301904Y-78930476D01*
X183492380Y-78930476D01*
X183587619Y-78501904D02*
X183540000Y-78454285D01*
X183492380Y-78359047D01*
X183492380Y-78120952D01*
X183540000Y-78025714D01*
X183587619Y-77978095D01*
X183682857Y-77930476D01*
X183778095Y-77930476D01*
X183920952Y-77978095D01*
X184492380Y-78549523D01*
X184492380Y-77930476D01*
X154995333Y-75668142D02*
X154947714Y-75715761D01*
X154804857Y-75763380D01*
X154709619Y-75763380D01*
X154566761Y-75715761D01*
X154471523Y-75620523D01*
X154423904Y-75525285D01*
X154376285Y-75334809D01*
X154376285Y-75191952D01*
X154423904Y-75001476D01*
X154471523Y-74906238D01*
X154566761Y-74811000D01*
X154709619Y-74763380D01*
X154804857Y-74763380D01*
X154947714Y-74811000D01*
X154995333Y-74858619D01*
X155328666Y-74763380D02*
X155947714Y-74763380D01*
X155614380Y-75144333D01*
X155757238Y-75144333D01*
X155852476Y-75191952D01*
X155900095Y-75239571D01*
X155947714Y-75334809D01*
X155947714Y-75572904D01*
X155900095Y-75668142D01*
X155852476Y-75715761D01*
X155757238Y-75763380D01*
X155471523Y-75763380D01*
X155376285Y-75715761D01*
X155328666Y-75668142D01*
X177038095Y-54062380D02*
X177038095Y-54871904D01*
X177085714Y-54967142D01*
X177133333Y-55014761D01*
X177228571Y-55062380D01*
X177419047Y-55062380D01*
X177514285Y-55014761D01*
X177561904Y-54967142D01*
X177609523Y-54871904D01*
X177609523Y-54062380D01*
X178514285Y-54395714D02*
X178514285Y-55062380D01*
X178276190Y-54014761D02*
X178038095Y-54729047D01*
X178657142Y-54729047D01*
X170180095Y-109744380D02*
X170180095Y-110553904D01*
X170227714Y-110649142D01*
X170275333Y-110696761D01*
X170370571Y-110744380D01*
X170561047Y-110744380D01*
X170656285Y-110696761D01*
X170703904Y-110649142D01*
X170751523Y-110553904D01*
X170751523Y-109744380D01*
X171751523Y-110744380D02*
X171180095Y-110744380D01*
X171465809Y-110744380D02*
X171465809Y-109744380D01*
X171370571Y-109887238D01*
X171275333Y-109982476D01*
X171180095Y-110030095D01*
D13*
X185474428Y-84563857D02*
X183950428Y-84563857D01*
X183950428Y-83983285D01*
X184023000Y-83838142D01*
X184095571Y-83765571D01*
X184240714Y-83693000D01*
X184458428Y-83693000D01*
X184603571Y-83765571D01*
X184676142Y-83838142D01*
X184748714Y-83983285D01*
X184748714Y-84563857D01*
X184095571Y-83112428D02*
X184023000Y-83039857D01*
X183950428Y-82894714D01*
X183950428Y-82531857D01*
X184023000Y-82386714D01*
X184095571Y-82314142D01*
X184240714Y-82241571D01*
X184385857Y-82241571D01*
X184603571Y-82314142D01*
X185474428Y-83185000D01*
X185474428Y-82241571D01*
X199281142Y-85017428D02*
X199353714Y-84799714D01*
X199426285Y-84727142D01*
X199571428Y-84654571D01*
X199789142Y-84654571D01*
X199934285Y-84727142D01*
X200006857Y-84799714D01*
X200079428Y-84944857D01*
X200079428Y-85525428D01*
X198555428Y-85525428D01*
X198555428Y-85017428D01*
X198628000Y-84872285D01*
X198700571Y-84799714D01*
X198845714Y-84727142D01*
X198990857Y-84727142D01*
X199136000Y-84799714D01*
X199208571Y-84872285D01*
X199281142Y-85017428D01*
X199281142Y-85525428D01*
X200079428Y-84001428D02*
X198555428Y-84001428D01*
X200079428Y-83130571D01*
X198555428Y-83130571D01*
X199934285Y-81534000D02*
X200006857Y-81606571D01*
X200079428Y-81824285D01*
X200079428Y-81969428D01*
X200006857Y-82187142D01*
X199861714Y-82332285D01*
X199716571Y-82404857D01*
X199426285Y-82477428D01*
X199208571Y-82477428D01*
X198918285Y-82404857D01*
X198773142Y-82332285D01*
X198628000Y-82187142D01*
X198555428Y-81969428D01*
X198555428Y-81824285D01*
X198628000Y-81606571D01*
X198700571Y-81534000D01*
D11*
X165663333Y-123253142D02*
X165615714Y-123300761D01*
X165472857Y-123348380D01*
X165377619Y-123348380D01*
X165234761Y-123300761D01*
X165139523Y-123205523D01*
X165091904Y-123110285D01*
X165044285Y-122919809D01*
X165044285Y-122776952D01*
X165091904Y-122586476D01*
X165139523Y-122491238D01*
X165234761Y-122396000D01*
X165377619Y-122348380D01*
X165472857Y-122348380D01*
X165615714Y-122396000D01*
X165663333Y-122443619D01*
X166615714Y-123348380D02*
X166044285Y-123348380D01*
X166330000Y-123348380D02*
X166330000Y-122348380D01*
X166234761Y-122491238D01*
X166139523Y-122586476D01*
X166044285Y-122634095D01*
X163663333Y-68429142D02*
X163615714Y-68476761D01*
X163472857Y-68524380D01*
X163377619Y-68524380D01*
X163234761Y-68476761D01*
X163139523Y-68381523D01*
X163091904Y-68286285D01*
X163044285Y-68095809D01*
X163044285Y-67952952D01*
X163091904Y-67762476D01*
X163139523Y-67667238D01*
X163234761Y-67572000D01*
X163377619Y-67524380D01*
X163472857Y-67524380D01*
X163615714Y-67572000D01*
X163663333Y-67619619D01*
X164044285Y-67619619D02*
X164091904Y-67572000D01*
X164187142Y-67524380D01*
X164425238Y-67524380D01*
X164520476Y-67572000D01*
X164568095Y-67619619D01*
X164615714Y-67714857D01*
X164615714Y-67810095D01*
X164568095Y-67952952D01*
X163996666Y-68524380D01*
X164615714Y-68524380D01*
X174617333Y-69219142D02*
X174569714Y-69266761D01*
X174426857Y-69314380D01*
X174331619Y-69314380D01*
X174188761Y-69266761D01*
X174093523Y-69171523D01*
X174045904Y-69076285D01*
X173998285Y-68885809D01*
X173998285Y-68742952D01*
X174045904Y-68552476D01*
X174093523Y-68457238D01*
X174188761Y-68362000D01*
X174331619Y-68314380D01*
X174426857Y-68314380D01*
X174569714Y-68362000D01*
X174617333Y-68409619D01*
X175474476Y-68647714D02*
X175474476Y-69314380D01*
X175236380Y-68266761D02*
X174998285Y-68981047D01*
X175617333Y-68981047D01*
X181443333Y-69219142D02*
X181395714Y-69266761D01*
X181252857Y-69314380D01*
X181157619Y-69314380D01*
X181014761Y-69266761D01*
X180919523Y-69171523D01*
X180871904Y-69076285D01*
X180824285Y-68885809D01*
X180824285Y-68742952D01*
X180871904Y-68552476D01*
X180919523Y-68457238D01*
X181014761Y-68362000D01*
X181157619Y-68314380D01*
X181252857Y-68314380D01*
X181395714Y-68362000D01*
X181443333Y-68409619D01*
X182348095Y-68314380D02*
X181871904Y-68314380D01*
X181824285Y-68790571D01*
X181871904Y-68742952D01*
X181967142Y-68695333D01*
X182205238Y-68695333D01*
X182300476Y-68742952D01*
X182348095Y-68790571D01*
X182395714Y-68885809D01*
X182395714Y-69123904D01*
X182348095Y-69219142D01*
X182300476Y-69266761D01*
X182205238Y-69314380D01*
X181967142Y-69314380D01*
X181871904Y-69266761D01*
X181824285Y-69219142D01*
X173029333Y-123253142D02*
X172981714Y-123300761D01*
X172838857Y-123348380D01*
X172743619Y-123348380D01*
X172600761Y-123300761D01*
X172505523Y-123205523D01*
X172457904Y-123110285D01*
X172410285Y-122919809D01*
X172410285Y-122776952D01*
X172457904Y-122586476D01*
X172505523Y-122491238D01*
X172600761Y-122396000D01*
X172743619Y-122348380D01*
X172838857Y-122348380D01*
X172981714Y-122396000D01*
X173029333Y-122443619D01*
X173886476Y-122348380D02*
X173696000Y-122348380D01*
X173600761Y-122396000D01*
X173553142Y-122443619D01*
X173457904Y-122586476D01*
X173410285Y-122776952D01*
X173410285Y-123157904D01*
X173457904Y-123253142D01*
X173505523Y-123300761D01*
X173600761Y-123348380D01*
X173791238Y-123348380D01*
X173886476Y-123300761D01*
X173934095Y-123253142D01*
X173981714Y-123157904D01*
X173981714Y-122919809D01*
X173934095Y-122824571D01*
X173886476Y-122776952D01*
X173791238Y-122729333D01*
X173600761Y-122729333D01*
X173505523Y-122776952D01*
X173457904Y-122824571D01*
X173410285Y-122919809D01*
X177903142Y-93384666D02*
X177950761Y-93432285D01*
X177998380Y-93575142D01*
X177998380Y-93670380D01*
X177950761Y-93813238D01*
X177855523Y-93908476D01*
X177760285Y-93956095D01*
X177569809Y-94003714D01*
X177426952Y-94003714D01*
X177236476Y-93956095D01*
X177141238Y-93908476D01*
X177046000Y-93813238D01*
X176998380Y-93670380D01*
X176998380Y-93575142D01*
X177046000Y-93432285D01*
X177093619Y-93384666D01*
X176998380Y-93051333D02*
X176998380Y-92384666D01*
X177998380Y-92813238D01*
X181443333Y-88975142D02*
X181395714Y-89022761D01*
X181252857Y-89070380D01*
X181157619Y-89070380D01*
X181014761Y-89022761D01*
X180919523Y-88927523D01*
X180871904Y-88832285D01*
X180824285Y-88641809D01*
X180824285Y-88498952D01*
X180871904Y-88308476D01*
X180919523Y-88213238D01*
X181014761Y-88118000D01*
X181157619Y-88070380D01*
X181252857Y-88070380D01*
X181395714Y-88118000D01*
X181443333Y-88165619D01*
X182014761Y-88498952D02*
X181919523Y-88451333D01*
X181871904Y-88403714D01*
X181824285Y-88308476D01*
X181824285Y-88260857D01*
X181871904Y-88165619D01*
X181919523Y-88118000D01*
X182014761Y-88070380D01*
X182205238Y-88070380D01*
X182300476Y-88118000D01*
X182348095Y-88165619D01*
X182395714Y-88260857D01*
X182395714Y-88308476D01*
X182348095Y-88403714D01*
X182300476Y-88451333D01*
X182205238Y-88498952D01*
X182014761Y-88498952D01*
X181919523Y-88546571D01*
X181871904Y-88594190D01*
X181824285Y-88689428D01*
X181824285Y-88879904D01*
X181871904Y-88975142D01*
X181919523Y-89022761D01*
X182014761Y-89070380D01*
X182205238Y-89070380D01*
X182300476Y-89022761D01*
X182348095Y-88975142D01*
X182395714Y-88879904D01*
X182395714Y-88689428D01*
X182348095Y-88594190D01*
X182300476Y-88546571D01*
X182205238Y-88498952D01*
X181443333Y-106021142D02*
X181395714Y-106068761D01*
X181252857Y-106116380D01*
X181157619Y-106116380D01*
X181014761Y-106068761D01*
X180919523Y-105973523D01*
X180871904Y-105878285D01*
X180824285Y-105687809D01*
X180824285Y-105544952D01*
X180871904Y-105354476D01*
X180919523Y-105259238D01*
X181014761Y-105164000D01*
X181157619Y-105116380D01*
X181252857Y-105116380D01*
X181395714Y-105164000D01*
X181443333Y-105211619D01*
X181919523Y-106116380D02*
X182110000Y-106116380D01*
X182205238Y-106068761D01*
X182252857Y-106021142D01*
X182348095Y-105878285D01*
X182395714Y-105687809D01*
X182395714Y-105306857D01*
X182348095Y-105211619D01*
X182300476Y-105164000D01*
X182205238Y-105116380D01*
X182014761Y-105116380D01*
X181919523Y-105164000D01*
X181871904Y-105211619D01*
X181824285Y-105306857D01*
X181824285Y-105544952D01*
X181871904Y-105640190D01*
X181919523Y-105687809D01*
X182014761Y-105735428D01*
X182205238Y-105735428D01*
X182300476Y-105687809D01*
X182348095Y-105640190D01*
X182395714Y-105544952D01*
X167505142Y-117959142D02*
X167457523Y-118006761D01*
X167314666Y-118054380D01*
X167219428Y-118054380D01*
X167076571Y-118006761D01*
X166981333Y-117911523D01*
X166933714Y-117816285D01*
X166886095Y-117625809D01*
X166886095Y-117482952D01*
X166933714Y-117292476D01*
X166981333Y-117197238D01*
X167076571Y-117102000D01*
X167219428Y-117054380D01*
X167314666Y-117054380D01*
X167457523Y-117102000D01*
X167505142Y-117149619D01*
X168457523Y-118054380D02*
X167886095Y-118054380D01*
X168171809Y-118054380D02*
X168171809Y-117054380D01*
X168076571Y-117197238D01*
X167981333Y-117292476D01*
X167886095Y-117340095D01*
X169076571Y-117054380D02*
X169171809Y-117054380D01*
X169267047Y-117102000D01*
X169314666Y-117149619D01*
X169362285Y-117244857D01*
X169409904Y-117435333D01*
X169409904Y-117673428D01*
X169362285Y-117863904D01*
X169314666Y-117959142D01*
X169267047Y-118006761D01*
X169171809Y-118054380D01*
X169076571Y-118054380D01*
X168981333Y-118006761D01*
X168933714Y-117959142D01*
X168886095Y-117863904D01*
X168838476Y-117673428D01*
X168838476Y-117435333D01*
X168886095Y-117244857D01*
X168933714Y-117149619D01*
X168981333Y-117102000D01*
X169076571Y-117054380D01*
X174871142Y-108815142D02*
X174823523Y-108862761D01*
X174680666Y-108910380D01*
X174585428Y-108910380D01*
X174442571Y-108862761D01*
X174347333Y-108767523D01*
X174299714Y-108672285D01*
X174252095Y-108481809D01*
X174252095Y-108338952D01*
X174299714Y-108148476D01*
X174347333Y-108053238D01*
X174442571Y-107958000D01*
X174585428Y-107910380D01*
X174680666Y-107910380D01*
X174823523Y-107958000D01*
X174871142Y-108005619D01*
X175823523Y-108910380D02*
X175252095Y-108910380D01*
X175537809Y-108910380D02*
X175537809Y-107910380D01*
X175442571Y-108053238D01*
X175347333Y-108148476D01*
X175252095Y-108196095D01*
X176775904Y-108910380D02*
X176204476Y-108910380D01*
X176490190Y-108910380D02*
X176490190Y-107910380D01*
X176394952Y-108053238D01*
X176299714Y-108148476D01*
X176204476Y-108196095D01*
X108646905Y-58559880D02*
X108646905Y-57559880D01*
X109027858Y-57559880D01*
X109123096Y-57607500D01*
X109170715Y-57655119D01*
X109218334Y-57750357D01*
X109218334Y-57893214D01*
X109170715Y-57988452D01*
X109123096Y-58036071D01*
X109027858Y-58083690D01*
X108646905Y-58083690D01*
X109551667Y-57559880D02*
X110170715Y-57559880D01*
X109837381Y-57940833D01*
X109980239Y-57940833D01*
X110075477Y-57988452D01*
X110123096Y-58036071D01*
X110170715Y-58131309D01*
X110170715Y-58369404D01*
X110123096Y-58464642D01*
X110075477Y-58512261D01*
X109980239Y-58559880D01*
X109694524Y-58559880D01*
X109599286Y-58512261D01*
X109551667Y-58464642D01*
X163409333Y-107894380D02*
X163076000Y-107418190D01*
X162837904Y-107894380D02*
X162837904Y-106894380D01*
X163218857Y-106894380D01*
X163314095Y-106942000D01*
X163361714Y-106989619D01*
X163409333Y-107084857D01*
X163409333Y-107227714D01*
X163361714Y-107322952D01*
X163314095Y-107370571D01*
X163218857Y-107418190D01*
X162837904Y-107418190D01*
X164361714Y-107894380D02*
X163790285Y-107894380D01*
X164076000Y-107894380D02*
X164076000Y-106894380D01*
X163980761Y-107037238D01*
X163885523Y-107132476D01*
X163790285Y-107180095D01*
X160869333Y-116276380D02*
X160536000Y-115800190D01*
X160297904Y-116276380D02*
X160297904Y-115276380D01*
X160678857Y-115276380D01*
X160774095Y-115324000D01*
X160821714Y-115371619D01*
X160869333Y-115466857D01*
X160869333Y-115609714D01*
X160821714Y-115704952D01*
X160774095Y-115752571D01*
X160678857Y-115800190D01*
X160297904Y-115800190D01*
X161250285Y-115371619D02*
X161297904Y-115324000D01*
X161393142Y-115276380D01*
X161631238Y-115276380D01*
X161726476Y-115324000D01*
X161774095Y-115371619D01*
X161821714Y-115466857D01*
X161821714Y-115562095D01*
X161774095Y-115704952D01*
X161202666Y-116276380D01*
X161821714Y-116276380D01*
X114922380Y-96686666D02*
X114446190Y-97020000D01*
X114922380Y-97258095D02*
X113922380Y-97258095D01*
X113922380Y-96877142D01*
X113970000Y-96781904D01*
X114017619Y-96734285D01*
X114112857Y-96686666D01*
X114255714Y-96686666D01*
X114350952Y-96734285D01*
X114398571Y-96781904D01*
X114446190Y-96877142D01*
X114446190Y-97258095D01*
X114255714Y-95829523D02*
X114922380Y-95829523D01*
X113874761Y-96067619D02*
X114589047Y-96305714D01*
X114589047Y-95686666D01*
X163917333Y-81986380D02*
X163584000Y-81510190D01*
X163345904Y-81986380D02*
X163345904Y-80986380D01*
X163726857Y-80986380D01*
X163822095Y-81034000D01*
X163869714Y-81081619D01*
X163917333Y-81176857D01*
X163917333Y-81319714D01*
X163869714Y-81414952D01*
X163822095Y-81462571D01*
X163726857Y-81510190D01*
X163345904Y-81510190D01*
X164822095Y-80986380D02*
X164345904Y-80986380D01*
X164298285Y-81462571D01*
X164345904Y-81414952D01*
X164441142Y-81367333D01*
X164679238Y-81367333D01*
X164774476Y-81414952D01*
X164822095Y-81462571D01*
X164869714Y-81557809D01*
X164869714Y-81795904D01*
X164822095Y-81891142D01*
X164774476Y-81938761D01*
X164679238Y-81986380D01*
X164441142Y-81986380D01*
X164345904Y-81938761D01*
X164298285Y-81891142D01*
X165346130Y-111029654D02*
X166155654Y-111029654D01*
X166250892Y-110982035D01*
X166298511Y-110934416D01*
X166346130Y-110839178D01*
X166346130Y-110648702D01*
X166298511Y-110553464D01*
X166250892Y-110505845D01*
X166155654Y-110458226D01*
X165346130Y-110458226D01*
X165346130Y-110077273D02*
X165346130Y-109458226D01*
X165727083Y-109791559D01*
X165727083Y-109648702D01*
X165774702Y-109553464D01*
X165822321Y-109505845D01*
X165917559Y-109458226D01*
X166155654Y-109458226D01*
X166250892Y-109505845D01*
X166298511Y-109553464D01*
X166346130Y-109648702D01*
X166346130Y-109934416D01*
X166298511Y-110029654D01*
X166250892Y-110077273D01*
M02*
