M48
;DRILL file {KiCad (2017-12-02 revision 3109343)-master} date Fri Jan  5 03:29:29 2018
;FORMAT={-:-/ absolute / inch / decimal}
FMAT,2
INCH,TZ
T1C0.016
T2C0.030
T3C0.039
T4C0.040
%
G90
G05
M72
T1
X4.45Y-2.59
X4.49Y-2.57
X4.52Y-2.89
X4.59Y-3.75
X5.84Y-4.13
X6.31Y-4.66
X6.35Y-2.71
X6.3552Y-3.1952
X6.36Y-3.23
X6.37Y-3.4
X6.37Y-3.4613
X6.37Y-3.5006
X6.37Y-3.54
X6.39Y-2.71
X6.39Y-3.19
X6.41Y-3.4327
X6.43Y-3.15
X6.46Y-3.27
X6.58Y-2.83
X6.63Y-2.96
X6.67Y-2.96
X6.68Y-2.83
X6.68Y-4.61
X6.7535Y-2.84
X6.78Y-2.96
X6.83Y-2.97
X6.9Y-4.46
X7.07Y-4.17
T2
X6.7Y-2.3
X6.7Y-2.6
X7.3Y-2.3
X7.3Y-2.6
T3
X7.3687Y-3.1787
X7.3687Y-3.3913
X7.475Y-3.285
X7.5813Y-3.1787
X7.5813Y-3.3913
X7.3687Y-2.8087
X7.3687Y-3.0213
X7.475Y-2.915
X7.5813Y-2.8087
X7.5813Y-3.0213
T4
X5.05Y-4.21
X5.05Y-4.31
X5.05Y-4.41
X5.05Y-4.51
X5.05Y-4.61
X5.9Y-4.21
X5.9Y-4.31
X5.9Y-4.41
X5.9Y-4.51
X5.9Y-4.61
X4.2565Y-2.5477
X4.2565Y-2.6477
X4.2565Y-2.7477
X4.2565Y-2.8477
X4.2565Y-2.9477
X4.2565Y-3.0477
X4.2565Y-3.1477
X4.2565Y-3.2477
X4.2565Y-3.3477
X4.2565Y-3.4477
X4.2565Y-3.5477
X4.2565Y-3.6477
X4.2565Y-3.7477
X4.2565Y-3.8477
X4.2565Y-3.9477
X4.2565Y-4.0477
X4.2565Y-4.1477
X4.2565Y-4.2477
X4.2565Y-4.3477
X4.2565Y-4.4477
X4.3565Y-2.5477
X4.3565Y-2.6477
X4.3565Y-2.7477
X4.3565Y-2.8477
X4.3565Y-2.9477
X4.3565Y-3.0477
X4.3565Y-3.1477
X4.3565Y-3.2477
X4.3565Y-3.3477
X4.3565Y-3.4477
X4.3565Y-3.5477
X4.3565Y-3.6477
X4.3565Y-3.7477
X4.3565Y-3.8477
X4.3565Y-3.9477
X4.3565Y-4.0477
X4.3565Y-4.1477
X4.3565Y-4.2477
X4.3565Y-4.3477
X4.3565Y-4.4477
T0
M30
