%TF.GenerationSoftware,KiCad,Pcbnew,(5.1.6-0-10_14)*%
%TF.CreationDate,2020-08-22T01:25:31+09:00*%
%TF.ProjectId,break,62726561-6b2e-46b6-9963-61645f706362,rev?*%
%TF.SameCoordinates,Original*%
%TF.FileFunction,Legend,Top*%
%TF.FilePolarity,Positive*%
%FSLAX46Y46*%
G04 Gerber Fmt 4.6, Leading zero omitted, Abs format (unit mm)*
G04 Created by KiCad (PCBNEW (5.1.6-0-10_14)) date 2020-08-22 01:25:31*
%MOMM*%
%LPD*%
G01*
G04 APERTURE LIST*
%ADD10C,0.300000*%
%ADD11C,0.120000*%
%ADD12C,0.150000*%
G04 APERTURE END LIST*
D10*
X14392857Y-110035714D02*
X14464285Y-109821428D01*
X14535714Y-109750000D01*
X14678571Y-109678571D01*
X14892857Y-109678571D01*
X15035714Y-109750000D01*
X15107142Y-109821428D01*
X15178571Y-109964285D01*
X15178571Y-110535714D01*
X13678571Y-110535714D01*
X13678571Y-110035714D01*
X13750000Y-109892857D01*
X13821428Y-109821428D01*
X13964285Y-109750000D01*
X14107142Y-109750000D01*
X14250000Y-109821428D01*
X14321428Y-109892857D01*
X14392857Y-110035714D01*
X14392857Y-110535714D01*
X15178571Y-109035714D02*
X14178571Y-109035714D01*
X14464285Y-109035714D02*
X14321428Y-108964285D01*
X14250000Y-108892857D01*
X14178571Y-108750000D01*
X14178571Y-108607142D01*
X15107142Y-107535714D02*
X15178571Y-107678571D01*
X15178571Y-107964285D01*
X15107142Y-108107142D01*
X14964285Y-108178571D01*
X14392857Y-108178571D01*
X14250000Y-108107142D01*
X14178571Y-107964285D01*
X14178571Y-107678571D01*
X14250000Y-107535714D01*
X14392857Y-107464285D01*
X14535714Y-107464285D01*
X14678571Y-108178571D01*
X15178571Y-106178571D02*
X14392857Y-106178571D01*
X14250000Y-106250000D01*
X14178571Y-106392857D01*
X14178571Y-106678571D01*
X14250000Y-106821428D01*
X15107142Y-106178571D02*
X15178571Y-106321428D01*
X15178571Y-106678571D01*
X15107142Y-106821428D01*
X14964285Y-106892857D01*
X14821428Y-106892857D01*
X14678571Y-106821428D01*
X14607142Y-106678571D01*
X14607142Y-106321428D01*
X14535714Y-106178571D01*
X15178571Y-105464285D02*
X13678571Y-105464285D01*
X14607142Y-105321428D02*
X15178571Y-104892857D01*
X14178571Y-104892857D02*
X14750000Y-105464285D01*
X15178571Y-103107142D02*
X14178571Y-103107142D01*
X14464285Y-103107142D02*
X14321428Y-103035714D01*
X14250000Y-102964285D01*
X14178571Y-102821428D01*
X14178571Y-102678571D01*
X15178571Y-101392857D02*
X15178571Y-102250000D01*
X15178571Y-101821428D02*
X13678571Y-101821428D01*
X13892857Y-101964285D01*
X14035714Y-102107142D01*
X14107142Y-102250000D01*
D11*
%TO.C,C1*%
X710000Y-140258578D02*
X710000Y-139741422D01*
X-710000Y-140258578D02*
X-710000Y-139741422D01*
%TO.C,C2*%
X1790000Y-140258578D02*
X1790000Y-139741422D01*
X3210000Y-140258578D02*
X3210000Y-139741422D01*
%TO.C,C3*%
X-6821078Y-146790000D02*
X-6303922Y-146790000D01*
X-6821078Y-148210000D02*
X-6303922Y-148210000D01*
%TO.C,C4*%
X-6821078Y-150710000D02*
X-6303922Y-150710000D01*
X-6821078Y-149290000D02*
X-6303922Y-149290000D01*
%TO.C,C5*%
X-8821078Y-130210000D02*
X-8303922Y-130210000D01*
X-8821078Y-128790000D02*
X-8303922Y-128790000D01*
%TO.C,C6*%
X-8821078Y-132210000D02*
X-8303922Y-132210000D01*
X-8821078Y-130790000D02*
X-8303922Y-130790000D01*
%TO.C,C7*%
X-821078Y-122210000D02*
X-303922Y-122210000D01*
X-821078Y-120790000D02*
X-303922Y-120790000D01*
%TO.C,C8*%
X-821078Y-118790000D02*
X-303922Y-118790000D01*
X-821078Y-120210000D02*
X-303922Y-120210000D01*
%TO.C,C9*%
X-7652199Y-90517883D02*
X-8017883Y-90152199D01*
X-8656291Y-91521975D02*
X-9021975Y-91156291D01*
%TO.C,C10*%
X-10156291Y-93021975D02*
X-10521975Y-92656291D01*
X-9152199Y-92017883D02*
X-9517883Y-91652199D01*
%TO.C,C11*%
X-7482117Y-81478025D02*
X-7847801Y-81843709D01*
X-6478025Y-82482117D02*
X-6843709Y-82847801D01*
%TO.C,C12*%
X3482117Y-79478025D02*
X3847801Y-79843709D01*
X2478025Y-80482117D02*
X2843709Y-80847801D01*
%TO.C,C13*%
X-7978025Y-80982117D02*
X-8343709Y-81347801D01*
X-8982117Y-79978025D02*
X-9347801Y-80343709D01*
%TO.C,C14*%
X-6196078Y-113790000D02*
X-5678922Y-113790000D01*
X-6196078Y-115210000D02*
X-5678922Y-115210000D01*
%TO.C,C15*%
X303922Y-106710000D02*
X821078Y-106710000D01*
X303922Y-105290000D02*
X821078Y-105290000D01*
%TO.C,J1*%
X-23355000Y-141050000D02*
X-23355000Y-143950000D01*
X-16645000Y-141050000D02*
X-16645000Y-143950000D01*
X-21450000Y-145855000D02*
X-18550000Y-145855000D01*
X-21450000Y-139145000D02*
X-18550000Y-139145000D01*
%TO.C,J2*%
X11050000Y-139145000D02*
X13950000Y-139145000D01*
X11050000Y-145855000D02*
X13950000Y-145855000D01*
X15855000Y-141050000D02*
X15855000Y-143950000D01*
X9145000Y-141050000D02*
X9145000Y-143950000D01*
%TO.C,J3*%
X-21450000Y-121645000D02*
X-18550000Y-121645000D01*
X-21450000Y-128355000D02*
X-18550000Y-128355000D01*
X-16645000Y-123550000D02*
X-16645000Y-126450000D01*
X-23355000Y-123550000D02*
X-23355000Y-126450000D01*
%TO.C,J4*%
X9145000Y-85050000D02*
X9145000Y-87950000D01*
X15855000Y-85050000D02*
X15855000Y-87950000D01*
X11050000Y-89855000D02*
X13950000Y-89855000D01*
X11050000Y-83145000D02*
X13950000Y-83145000D01*
%TO.C,J5*%
X-21450000Y-106645000D02*
X-18550000Y-106645000D01*
X-21450000Y-113355000D02*
X-18550000Y-113355000D01*
X-16645000Y-108550000D02*
X-16645000Y-111450000D01*
X-23355000Y-108550000D02*
X-23355000Y-111450000D01*
%TO.C,R1*%
X-12010000Y-144397936D02*
X-12010000Y-145602064D01*
X-10190000Y-144397936D02*
X-10190000Y-145602064D01*
%TO.C,R2*%
X-3997936Y-138410000D02*
X-5202064Y-138410000D01*
X-3997936Y-136590000D02*
X-5202064Y-136590000D01*
%TO.C,R3*%
X-8797936Y-136590000D02*
X-10002064Y-136590000D01*
X-8797936Y-138410000D02*
X-10002064Y-138410000D01*
%TO.C,R4*%
X4810000Y-133997936D02*
X4810000Y-135202064D01*
X2990000Y-133997936D02*
X2990000Y-135202064D01*
%TO.C,R5*%
X-6602064Y-119590000D02*
X-5397936Y-119590000D01*
X-6602064Y-121410000D02*
X-5397936Y-121410000D01*
%TO.C,R6*%
X420758Y-82197642D02*
X1272205Y-83049089D01*
X1707693Y-80910707D02*
X2559140Y-81762154D01*
%TO.C,R7*%
X6910000Y-111002064D02*
X6910000Y-109797936D01*
X5090000Y-111002064D02*
X5090000Y-109797936D01*
%TO.C,R8*%
X4297936Y-107410000D02*
X5502064Y-107410000D01*
X4297936Y-105590000D02*
X5502064Y-105590000D01*
%TO.C,R9*%
X3910000Y-109797936D02*
X3910000Y-111002064D01*
X2090000Y-109797936D02*
X2090000Y-111002064D01*
%TO.C,R10*%
X-12702064Y-109590000D02*
X-11497936Y-109590000D01*
X-12702064Y-111410000D02*
X-11497936Y-111410000D01*
%TO.C,R11*%
X-11910000Y-115002064D02*
X-11910000Y-113797936D01*
X-10090000Y-115002064D02*
X-10090000Y-113797936D01*
%TO.C,R12*%
X-12702064Y-108910000D02*
X-11497936Y-108910000D01*
X-12702064Y-107090000D02*
X-11497936Y-107090000D01*
%TO.C,U1*%
X-5000000Y-145060000D02*
X-3050000Y-145060000D01*
X-5000000Y-145060000D02*
X-6950000Y-145060000D01*
X-5000000Y-139940000D02*
X-3050000Y-139940000D01*
X-5000000Y-139940000D02*
X-8450000Y-139940000D01*
%TO.C,U2*%
X-5025000Y-128155000D02*
X-1575000Y-128155000D01*
X-5025000Y-128155000D02*
X-6975000Y-128155000D01*
X-5025000Y-123035000D02*
X-3075000Y-123035000D01*
X-5025000Y-123035000D02*
X-6975000Y-123035000D01*
%TO.C,U3*%
X-2450000Y-92628517D02*
X-2449999Y-91368517D01*
X-3549999Y-92628517D02*
X-2450000Y-92628517D01*
X-3550000Y-91368517D02*
X-3549999Y-92628517D01*
X-2450363Y-91368558D02*
G75*
G03*
X-3550000Y-91368517I-549637J4788558D01*
G01*
D12*
%TO.C,U4*%
X275000Y-112725000D02*
X-5000000Y-112725000D01*
X-1000000Y-107325000D02*
X-5000000Y-107325000D01*
D11*
%TO.C,J6*%
X-23610000Y-154290000D02*
X-23610000Y-158310000D01*
X-23610000Y-158310000D02*
X-13390000Y-158310000D01*
X-13390000Y-158310000D02*
X-13390000Y-154290000D01*
X-13390000Y-154290000D02*
X-23610000Y-154290000D01*
X-23610000Y-156000000D02*
X-23110000Y-156000000D01*
X-23110000Y-156000000D02*
X-23110000Y-154790000D01*
X-23110000Y-154790000D02*
X-13890000Y-154790000D01*
X-13890000Y-154790000D02*
X-13890000Y-156000000D01*
X-13890000Y-156000000D02*
X-13390000Y-156000000D01*
X-23610000Y-156810000D02*
X-22610000Y-156810000D01*
X-22610000Y-156810000D02*
X-22610000Y-158310000D01*
X-13390000Y-156810000D02*
X-14390000Y-156810000D01*
X-14390000Y-156810000D02*
X-14390000Y-158310000D01*
X-23910000Y-156110000D02*
X-23910000Y-158610000D01*
X-23910000Y-158610000D02*
X-21410000Y-158610000D01*
%TO.C,J8*%
X-23910000Y-102110000D02*
X-21410000Y-102110000D01*
X-23910000Y-99610000D02*
X-23910000Y-102110000D01*
X-14390000Y-100310000D02*
X-14390000Y-101810000D01*
X-13390000Y-100310000D02*
X-14390000Y-100310000D01*
X-22610000Y-100310000D02*
X-22610000Y-101810000D01*
X-23610000Y-100310000D02*
X-22610000Y-100310000D01*
X-13890000Y-99500000D02*
X-13390000Y-99500000D01*
X-13890000Y-98290000D02*
X-13890000Y-99500000D01*
X-23110000Y-98290000D02*
X-13890000Y-98290000D01*
X-23110000Y-99500000D02*
X-23110000Y-98290000D01*
X-23610000Y-99500000D02*
X-23110000Y-99500000D01*
X-13390000Y-97790000D02*
X-23610000Y-97790000D01*
X-13390000Y-101810000D02*
X-13390000Y-97790000D01*
X-23610000Y-101810000D02*
X-13390000Y-101810000D01*
X-23610000Y-97790000D02*
X-23610000Y-101810000D01*
%TO.C,J7*%
X-23910000Y-78610000D02*
X-21410000Y-78610000D01*
X-23910000Y-76110000D02*
X-23910000Y-78610000D01*
X-14390000Y-76810000D02*
X-14390000Y-78310000D01*
X-13390000Y-76810000D02*
X-14390000Y-76810000D01*
X-22610000Y-76810000D02*
X-22610000Y-78310000D01*
X-23610000Y-76810000D02*
X-22610000Y-76810000D01*
X-13890000Y-76000000D02*
X-13390000Y-76000000D01*
X-13890000Y-74790000D02*
X-13890000Y-76000000D01*
X-23110000Y-74790000D02*
X-13890000Y-74790000D01*
X-23110000Y-76000000D02*
X-23110000Y-74790000D01*
X-23610000Y-76000000D02*
X-23110000Y-76000000D01*
X-13390000Y-74290000D02*
X-23610000Y-74290000D01*
X-13390000Y-78310000D02*
X-13390000Y-74290000D01*
X-23610000Y-78310000D02*
X-13390000Y-78310000D01*
X-23610000Y-74290000D02*
X-23610000Y-78310000D01*
%TO.C,C1*%
D12*
X-1292857Y-140166666D02*
X-1245238Y-140214285D01*
X-1197619Y-140357142D01*
X-1197619Y-140452380D01*
X-1245238Y-140595238D01*
X-1340476Y-140690476D01*
X-1435714Y-140738095D01*
X-1626190Y-140785714D01*
X-1769047Y-140785714D01*
X-1959523Y-140738095D01*
X-2054761Y-140690476D01*
X-2150000Y-140595238D01*
X-2197619Y-140452380D01*
X-2197619Y-140357142D01*
X-2150000Y-140214285D01*
X-2102380Y-140166666D01*
X-1197619Y-139214285D02*
X-1197619Y-139785714D01*
X-1197619Y-139500000D02*
X-2197619Y-139500000D01*
X-2054761Y-139595238D01*
X-1959523Y-139690476D01*
X-1911904Y-139785714D01*
%TO.C,C2*%
X1207142Y-140166666D02*
X1254761Y-140214285D01*
X1302380Y-140357142D01*
X1302380Y-140452380D01*
X1254761Y-140595238D01*
X1159523Y-140690476D01*
X1064285Y-140738095D01*
X873809Y-140785714D01*
X730952Y-140785714D01*
X540476Y-140738095D01*
X445238Y-140690476D01*
X349999Y-140595238D01*
X302380Y-140452380D01*
X302380Y-140357142D01*
X350000Y-140214285D01*
X397619Y-140166666D01*
X397619Y-139785714D02*
X350000Y-139738095D01*
X302380Y-139642857D01*
X302380Y-139404761D01*
X350000Y-139309523D01*
X397619Y-139261904D01*
X492857Y-139214285D01*
X588095Y-139214285D01*
X730952Y-139261904D01*
X1302380Y-139833333D01*
X1302380Y-139214285D01*
%TO.C,C3*%
X-8642857Y-147666666D02*
X-8595238Y-147714285D01*
X-8547619Y-147857142D01*
X-8547619Y-147952380D01*
X-8595238Y-148095238D01*
X-8690476Y-148190476D01*
X-8785714Y-148238095D01*
X-8976190Y-148285714D01*
X-9119047Y-148285714D01*
X-9309523Y-148238095D01*
X-9404761Y-148190476D01*
X-9500000Y-148095238D01*
X-9547619Y-147952380D01*
X-9547619Y-147857142D01*
X-9500000Y-147714285D01*
X-9452380Y-147666666D01*
X-9547619Y-147333333D02*
X-9547619Y-146714285D01*
X-9166666Y-147047619D01*
X-9166666Y-146904761D01*
X-9119047Y-146809523D01*
X-9071428Y-146761904D01*
X-8976190Y-146714285D01*
X-8738095Y-146714285D01*
X-8642857Y-146761904D01*
X-8595238Y-146809523D01*
X-8547619Y-146904761D01*
X-8547619Y-147190476D01*
X-8595238Y-147285714D01*
X-8642857Y-147333333D01*
X-4119047Y-146952380D02*
X-4023809Y-146952380D01*
X-3928571Y-147000000D01*
X-3880952Y-147047619D01*
X-3833333Y-147142857D01*
X-3785714Y-147333333D01*
X-3785714Y-147571428D01*
X-3833333Y-147761904D01*
X-3880952Y-147857142D01*
X-3928571Y-147904761D01*
X-4023809Y-147952380D01*
X-4119047Y-147952380D01*
X-4214285Y-147904761D01*
X-4261904Y-147857142D01*
X-4309523Y-147761904D01*
X-4357142Y-147571428D01*
X-4357142Y-147333333D01*
X-4309523Y-147142857D01*
X-4261904Y-147047619D01*
X-4214285Y-147000000D01*
X-4119047Y-146952380D01*
X-3357142Y-147857142D02*
X-3309523Y-147904761D01*
X-3357142Y-147952380D01*
X-3404761Y-147904761D01*
X-3357142Y-147857142D01*
X-3357142Y-147952380D01*
X-2690476Y-146952380D02*
X-2595238Y-146952380D01*
X-2499999Y-147000000D01*
X-2452380Y-147047619D01*
X-2404761Y-147142857D01*
X-2357142Y-147333333D01*
X-2357142Y-147571428D01*
X-2404761Y-147761904D01*
X-2452380Y-147857142D01*
X-2499999Y-147904761D01*
X-2595238Y-147952380D01*
X-2690476Y-147952380D01*
X-2785714Y-147904761D01*
X-2833333Y-147857142D01*
X-2880952Y-147761904D01*
X-2928571Y-147571428D01*
X-2928571Y-147333333D01*
X-2880952Y-147142857D01*
X-2833333Y-147047619D01*
X-2785714Y-147000000D01*
X-2690476Y-146952380D01*
X-1404761Y-147952380D02*
X-1976190Y-147952380D01*
X-1690476Y-147952380D02*
X-1690476Y-146952380D01*
X-1785714Y-147095238D01*
X-1880952Y-147190476D01*
X-1976190Y-147238095D01*
X-547619Y-147285714D02*
X-547619Y-147952380D01*
X-976190Y-147285714D02*
X-976190Y-147809523D01*
X-928571Y-147904761D01*
X-833333Y-147952380D01*
X-690476Y-147952380D01*
X-595238Y-147904761D01*
X-547619Y-147857142D01*
X261904Y-147428571D02*
X-71428Y-147428571D01*
X-71428Y-147952380D02*
X-71428Y-146952380D01*
X404761Y-146952380D01*
%TO.C,C4*%
X-8642857Y-150166666D02*
X-8595238Y-150214285D01*
X-8547619Y-150357142D01*
X-8547619Y-150452380D01*
X-8595238Y-150595238D01*
X-8690476Y-150690476D01*
X-8785714Y-150738095D01*
X-8976190Y-150785714D01*
X-9119047Y-150785714D01*
X-9309523Y-150738095D01*
X-9404761Y-150690476D01*
X-9500000Y-150595238D01*
X-9547619Y-150452380D01*
X-9547619Y-150357142D01*
X-9500000Y-150214285D01*
X-9452380Y-150166666D01*
X-9214285Y-149309523D02*
X-8547619Y-149309523D01*
X-9595238Y-149547619D02*
X-8880952Y-149785714D01*
X-8880952Y-149166666D01*
X-4142857Y-149452380D02*
X-4047619Y-149452380D01*
X-3952380Y-149500000D01*
X-3904761Y-149547619D01*
X-3857142Y-149642857D01*
X-3809523Y-149833333D01*
X-3809523Y-150071428D01*
X-3857142Y-150261904D01*
X-3904761Y-150357142D01*
X-3952380Y-150404761D01*
X-4047619Y-150452380D01*
X-4142857Y-150452380D01*
X-4238095Y-150404761D01*
X-4285714Y-150357142D01*
X-4333333Y-150261904D01*
X-4380952Y-150071428D01*
X-4380952Y-149833333D01*
X-4333333Y-149642857D01*
X-4285714Y-149547619D01*
X-4238095Y-149500000D01*
X-4142857Y-149452380D01*
X-3380952Y-150357142D02*
X-3333333Y-150404761D01*
X-3380952Y-150452380D01*
X-3428571Y-150404761D01*
X-3380952Y-150357142D01*
X-3380952Y-150452380D01*
X-2380952Y-150452380D02*
X-2952380Y-150452380D01*
X-2666666Y-150452380D02*
X-2666666Y-149452380D01*
X-2761904Y-149595238D01*
X-2857142Y-149690476D01*
X-2952380Y-149738095D01*
X-1523809Y-149785714D02*
X-1523809Y-150452380D01*
X-1952380Y-149785714D02*
X-1952380Y-150309523D01*
X-1904761Y-150404761D01*
X-1809523Y-150452380D01*
X-1666666Y-150452380D01*
X-1571428Y-150404761D01*
X-1523809Y-150357142D01*
X-714285Y-149928571D02*
X-1047619Y-149928571D01*
X-1047619Y-150452380D02*
X-1047619Y-149452380D01*
X-571428Y-149452380D01*
%TO.C,C5*%
X-11666666Y-129857142D02*
X-11714285Y-129904761D01*
X-11857142Y-129952380D01*
X-11952380Y-129952380D01*
X-12095238Y-129904761D01*
X-12190476Y-129809523D01*
X-12238095Y-129714285D01*
X-12285714Y-129523809D01*
X-12285714Y-129380952D01*
X-12238095Y-129190476D01*
X-12190476Y-129095238D01*
X-12095238Y-129000000D01*
X-11952380Y-128952380D01*
X-11857142Y-128952380D01*
X-11714285Y-129000000D01*
X-11666666Y-129047619D01*
X-10761904Y-128952380D02*
X-11238095Y-128952380D01*
X-11285714Y-129428571D01*
X-11238095Y-129380952D01*
X-11142857Y-129333333D01*
X-10904761Y-129333333D01*
X-10809523Y-129380952D01*
X-10761904Y-129428571D01*
X-10714285Y-129523809D01*
X-10714285Y-129761904D01*
X-10761904Y-129857142D01*
X-10809523Y-129904761D01*
X-10904761Y-129952380D01*
X-11142857Y-129952380D01*
X-11238095Y-129904761D01*
X-11285714Y-129857142D01*
X-6119047Y-128952380D02*
X-6023809Y-128952380D01*
X-5928571Y-129000000D01*
X-5880952Y-129047619D01*
X-5833333Y-129142857D01*
X-5785714Y-129333333D01*
X-5785714Y-129571428D01*
X-5833333Y-129761904D01*
X-5880952Y-129857142D01*
X-5928571Y-129904761D01*
X-6023809Y-129952380D01*
X-6119047Y-129952380D01*
X-6214285Y-129904761D01*
X-6261904Y-129857142D01*
X-6309523Y-129761904D01*
X-6357142Y-129571428D01*
X-6357142Y-129333333D01*
X-6309523Y-129142857D01*
X-6261904Y-129047619D01*
X-6214285Y-129000000D01*
X-6119047Y-128952380D01*
X-5357142Y-129857142D02*
X-5309523Y-129904761D01*
X-5357142Y-129952380D01*
X-5404761Y-129904761D01*
X-5357142Y-129857142D01*
X-5357142Y-129952380D01*
X-4690476Y-128952380D02*
X-4595238Y-128952380D01*
X-4499999Y-129000000D01*
X-4452380Y-129047619D01*
X-4404761Y-129142857D01*
X-4357142Y-129333333D01*
X-4357142Y-129571428D01*
X-4404761Y-129761904D01*
X-4452380Y-129857142D01*
X-4499999Y-129904761D01*
X-4595238Y-129952380D01*
X-4690476Y-129952380D01*
X-4785714Y-129904761D01*
X-4833333Y-129857142D01*
X-4880952Y-129761904D01*
X-4928571Y-129571428D01*
X-4928571Y-129333333D01*
X-4880952Y-129142857D01*
X-4833333Y-129047619D01*
X-4785714Y-129000000D01*
X-4690476Y-128952380D01*
X-3404761Y-129952380D02*
X-3976190Y-129952380D01*
X-3690476Y-129952380D02*
X-3690476Y-128952380D01*
X-3785714Y-129095238D01*
X-3880952Y-129190476D01*
X-3976190Y-129238095D01*
X-2547619Y-129285714D02*
X-2547619Y-129952380D01*
X-2976190Y-129285714D02*
X-2976190Y-129809523D01*
X-2928571Y-129904761D01*
X-2833333Y-129952380D01*
X-2690476Y-129952380D01*
X-2595238Y-129904761D01*
X-2547619Y-129857142D01*
X-1738095Y-129428571D02*
X-2071428Y-129428571D01*
X-2071428Y-129952380D02*
X-2071428Y-128952380D01*
X-1595238Y-128952380D01*
%TO.C,C6*%
X-11666666Y-131857142D02*
X-11714285Y-131904761D01*
X-11857142Y-131952380D01*
X-11952380Y-131952380D01*
X-12095238Y-131904761D01*
X-12190476Y-131809523D01*
X-12238095Y-131714285D01*
X-12285714Y-131523809D01*
X-12285714Y-131380952D01*
X-12238095Y-131190476D01*
X-12190476Y-131095238D01*
X-12095238Y-131000000D01*
X-11952380Y-130952380D01*
X-11857142Y-130952380D01*
X-11714285Y-131000000D01*
X-11666666Y-131047619D01*
X-10809523Y-130952380D02*
X-11000000Y-130952380D01*
X-11095238Y-131000000D01*
X-11142857Y-131047619D01*
X-11238095Y-131190476D01*
X-11285714Y-131380952D01*
X-11285714Y-131761904D01*
X-11238095Y-131857142D01*
X-11190476Y-131904761D01*
X-11095238Y-131952380D01*
X-10904761Y-131952380D01*
X-10809523Y-131904761D01*
X-10761904Y-131857142D01*
X-10714285Y-131761904D01*
X-10714285Y-131523809D01*
X-10761904Y-131428571D01*
X-10809523Y-131380952D01*
X-10904761Y-131333333D01*
X-11095238Y-131333333D01*
X-11190476Y-131380952D01*
X-11238095Y-131428571D01*
X-11285714Y-131523809D01*
X-6142857Y-130952380D02*
X-6047619Y-130952380D01*
X-5952380Y-131000000D01*
X-5904761Y-131047619D01*
X-5857142Y-131142857D01*
X-5809523Y-131333333D01*
X-5809523Y-131571428D01*
X-5857142Y-131761904D01*
X-5904761Y-131857142D01*
X-5952380Y-131904761D01*
X-6047619Y-131952380D01*
X-6142857Y-131952380D01*
X-6238095Y-131904761D01*
X-6285714Y-131857142D01*
X-6333333Y-131761904D01*
X-6380952Y-131571428D01*
X-6380952Y-131333333D01*
X-6333333Y-131142857D01*
X-6285714Y-131047619D01*
X-6238095Y-131000000D01*
X-6142857Y-130952380D01*
X-5380952Y-131857142D02*
X-5333333Y-131904761D01*
X-5380952Y-131952380D01*
X-5428571Y-131904761D01*
X-5380952Y-131857142D01*
X-5380952Y-131952380D01*
X-4380952Y-131952380D02*
X-4952380Y-131952380D01*
X-4666666Y-131952380D02*
X-4666666Y-130952380D01*
X-4761904Y-131095238D01*
X-4857142Y-131190476D01*
X-4952380Y-131238095D01*
X-3523809Y-131285714D02*
X-3523809Y-131952380D01*
X-3952380Y-131285714D02*
X-3952380Y-131809523D01*
X-3904761Y-131904761D01*
X-3809523Y-131952380D01*
X-3666666Y-131952380D01*
X-3571428Y-131904761D01*
X-3523809Y-131857142D01*
X-2714285Y-131428571D02*
X-3047619Y-131428571D01*
X-3047619Y-131952380D02*
X-3047619Y-130952380D01*
X-2571428Y-130952380D01*
%TO.C,C7*%
X-729166Y-120207142D02*
X-776785Y-120254761D01*
X-919642Y-120302380D01*
X-1014880Y-120302380D01*
X-1157738Y-120254761D01*
X-1252976Y-120159523D01*
X-1300595Y-120064285D01*
X-1348214Y-119873809D01*
X-1348214Y-119730952D01*
X-1300595Y-119540476D01*
X-1252976Y-119445238D01*
X-1157738Y-119350000D01*
X-1014880Y-119302380D01*
X-919642Y-119302380D01*
X-776785Y-119350000D01*
X-729166Y-119397619D01*
X-395833Y-119302380D02*
X270833Y-119302380D01*
X-157738Y-120302380D01*
%TO.C,C8*%
X-729166Y-118207142D02*
X-776785Y-118254761D01*
X-919642Y-118302380D01*
X-1014880Y-118302380D01*
X-1157738Y-118254761D01*
X-1252976Y-118159523D01*
X-1300595Y-118064285D01*
X-1348214Y-117873809D01*
X-1348214Y-117730952D01*
X-1300595Y-117540476D01*
X-1252976Y-117445238D01*
X-1157738Y-117350000D01*
X-1014880Y-117302380D01*
X-919642Y-117302380D01*
X-776785Y-117350000D01*
X-729166Y-117397619D01*
X-157738Y-117730952D02*
X-252976Y-117683333D01*
X-300595Y-117635714D01*
X-348214Y-117540476D01*
X-348214Y-117492857D01*
X-300595Y-117397619D01*
X-252976Y-117350000D01*
X-157738Y-117302380D01*
X32738Y-117302380D01*
X127976Y-117350000D01*
X175595Y-117397619D01*
X223214Y-117492857D01*
X223214Y-117540476D01*
X175595Y-117635714D01*
X127976Y-117683333D01*
X32738Y-117730952D01*
X-157738Y-117730952D01*
X-252976Y-117778571D01*
X-300595Y-117826190D01*
X-348214Y-117921428D01*
X-348214Y-118111904D01*
X-300595Y-118207142D01*
X-252976Y-118254761D01*
X-157738Y-118302380D01*
X32738Y-118302380D01*
X127976Y-118254761D01*
X175595Y-118207142D01*
X223214Y-118111904D01*
X223214Y-117921428D01*
X175595Y-117826190D01*
X127976Y-117778571D01*
X32738Y-117730952D01*
%TO.C,C9*%
X-10870389Y-88634687D02*
X-10937732Y-88634687D01*
X-11072419Y-88567343D01*
X-11139763Y-88500000D01*
X-11207106Y-88365312D01*
X-11207106Y-88230625D01*
X-11173435Y-88129610D01*
X-11072419Y-87961251D01*
X-10971404Y-87860236D01*
X-10803045Y-87759221D01*
X-10702030Y-87725549D01*
X-10567343Y-87725549D01*
X-10432656Y-87792893D01*
X-10365312Y-87860236D01*
X-10297969Y-87994923D01*
X-10297969Y-88062267D01*
X-10601015Y-89038748D02*
X-10466328Y-89173435D01*
X-10365312Y-89207106D01*
X-10297969Y-89207106D01*
X-10129610Y-89173435D01*
X-9961251Y-89072419D01*
X-9691877Y-88803045D01*
X-9658206Y-88702030D01*
X-9658206Y-88634687D01*
X-9691877Y-88533671D01*
X-9826564Y-88398984D01*
X-9927580Y-88365312D01*
X-9994923Y-88365312D01*
X-10095938Y-88398984D01*
X-10264297Y-88567343D01*
X-10297969Y-88668358D01*
X-10297969Y-88735702D01*
X-10264297Y-88836717D01*
X-10129610Y-88971404D01*
X-10028595Y-89005076D01*
X-9961251Y-89005076D01*
X-9860236Y-88971404D01*
X-6111167Y-92114381D02*
X-6043824Y-92181725D01*
X-6010152Y-92282740D01*
X-6010152Y-92350084D01*
X-6043824Y-92451099D01*
X-6144839Y-92619458D01*
X-6313198Y-92787816D01*
X-6481557Y-92888832D01*
X-6582572Y-92922503D01*
X-6649915Y-92922503D01*
X-6750931Y-92888832D01*
X-6818274Y-92821488D01*
X-6851946Y-92720473D01*
X-6851946Y-92653129D01*
X-6818274Y-92552114D01*
X-6717259Y-92383755D01*
X-6548900Y-92215397D01*
X-6380541Y-92114381D01*
X-6279526Y-92080710D01*
X-6212183Y-92080710D01*
X-6111167Y-92114381D01*
X-6212183Y-93292893D02*
X-6212183Y-93360236D01*
X-6279526Y-93360236D01*
X-6279526Y-93292893D01*
X-6212183Y-93292893D01*
X-6279526Y-93360236D01*
X-5101015Y-93124534D02*
X-5033671Y-93191877D01*
X-4999999Y-93292893D01*
X-4999999Y-93360236D01*
X-5033671Y-93461251D01*
X-5134687Y-93629610D01*
X-5303045Y-93797969D01*
X-5471404Y-93898984D01*
X-5572419Y-93932656D01*
X-5639763Y-93932656D01*
X-5740778Y-93898984D01*
X-5808122Y-93831641D01*
X-5841793Y-93730625D01*
X-5841793Y-93663282D01*
X-5808122Y-93562267D01*
X-5707106Y-93393908D01*
X-5538748Y-93225549D01*
X-5370389Y-93124534D01*
X-5269374Y-93090862D01*
X-5202030Y-93090862D01*
X-5101015Y-93124534D01*
X-4898984Y-94740778D02*
X-5303045Y-94336717D01*
X-5101015Y-94538748D02*
X-4393908Y-93831641D01*
X-4562267Y-93865312D01*
X-4696954Y-93865312D01*
X-4797969Y-93831641D01*
X-3821488Y-94875465D02*
X-4292893Y-95346870D01*
X-4124534Y-94572419D02*
X-4494923Y-94942809D01*
X-4528595Y-95043824D01*
X-4494923Y-95144839D01*
X-4393908Y-95245854D01*
X-4292893Y-95279526D01*
X-4225549Y-95279526D01*
X-3350084Y-95548900D02*
X-3585786Y-95313198D01*
X-3956175Y-95683587D02*
X-3249068Y-94976480D01*
X-2912351Y-95313198D01*
%TO.C,C10*%
X-13207106Y-89297969D02*
X-13274450Y-89297969D01*
X-13409137Y-89230625D01*
X-13476480Y-89163282D01*
X-13543824Y-89028595D01*
X-13543824Y-88893908D01*
X-13510152Y-88792893D01*
X-13409137Y-88624534D01*
X-13308122Y-88523519D01*
X-13139763Y-88422503D01*
X-13038748Y-88388832D01*
X-12904061Y-88388832D01*
X-12769374Y-88456175D01*
X-12702030Y-88523519D01*
X-12634687Y-88658206D01*
X-12634687Y-88725549D01*
X-12601015Y-90038748D02*
X-13005076Y-89634687D01*
X-12803045Y-89836717D02*
X-12095938Y-89129610D01*
X-12264297Y-89163282D01*
X-12398984Y-89163282D01*
X-12500000Y-89129610D01*
X-11456175Y-89769374D02*
X-11388832Y-89836717D01*
X-11355160Y-89937732D01*
X-11355160Y-90005076D01*
X-11388832Y-90106091D01*
X-11489847Y-90274450D01*
X-11658206Y-90442809D01*
X-11826564Y-90543824D01*
X-11927580Y-90577496D01*
X-11994923Y-90577496D01*
X-12095938Y-90543824D01*
X-12163282Y-90476480D01*
X-12196954Y-90375465D01*
X-12196954Y-90308122D01*
X-12163282Y-90207106D01*
X-12062267Y-90038748D01*
X-11893908Y-89870389D01*
X-11725549Y-89769374D01*
X-11624534Y-89735702D01*
X-11557190Y-89735702D01*
X-11456175Y-89769374D01*
X-7774450Y-93451099D02*
X-7707106Y-93518442D01*
X-7673435Y-93619458D01*
X-7673435Y-93686801D01*
X-7707106Y-93787816D01*
X-7808122Y-93956175D01*
X-7976480Y-94124534D01*
X-8144839Y-94225549D01*
X-8245854Y-94259221D01*
X-8313198Y-94259221D01*
X-8414213Y-94225549D01*
X-8481557Y-94158206D01*
X-8515228Y-94057190D01*
X-8515228Y-93989847D01*
X-8481557Y-93888832D01*
X-8380541Y-93720473D01*
X-8212183Y-93552114D01*
X-8043824Y-93451099D01*
X-7942809Y-93417427D01*
X-7875465Y-93417427D01*
X-7774450Y-93451099D01*
X-7875465Y-94629610D02*
X-7875465Y-94696954D01*
X-7942809Y-94696954D01*
X-7942809Y-94629610D01*
X-7875465Y-94629610D01*
X-7942809Y-94696954D01*
X-7235702Y-95404061D02*
X-7639763Y-95000000D01*
X-7437732Y-95202030D02*
X-6730625Y-94494923D01*
X-6898984Y-94528595D01*
X-7033671Y-94528595D01*
X-7134687Y-94494923D01*
X-6158206Y-95538748D02*
X-6629610Y-96010152D01*
X-6461251Y-95235702D02*
X-6831641Y-95606091D01*
X-6865312Y-95707106D01*
X-6831641Y-95808122D01*
X-6730625Y-95909137D01*
X-6629610Y-95942809D01*
X-6562267Y-95942809D01*
X-5686801Y-96212183D02*
X-5922503Y-95976480D01*
X-6292893Y-96346870D02*
X-5585786Y-95639763D01*
X-5249068Y-95976480D01*
%TO.C,C11*%
X-9702030Y-85207106D02*
X-9702030Y-85274450D01*
X-9769374Y-85409137D01*
X-9836717Y-85476480D01*
X-9971404Y-85543824D01*
X-10106091Y-85543824D01*
X-10207106Y-85510152D01*
X-10375465Y-85409137D01*
X-10476480Y-85308122D01*
X-10577496Y-85139763D01*
X-10611167Y-85038748D01*
X-10611167Y-84904061D01*
X-10543824Y-84769374D01*
X-10476480Y-84702030D01*
X-10341793Y-84634687D01*
X-10274450Y-84634687D01*
X-8961251Y-84601015D02*
X-9365312Y-85005076D01*
X-9163282Y-84803045D02*
X-9870389Y-84095938D01*
X-9836717Y-84264297D01*
X-9836717Y-84398984D01*
X-9870389Y-84500000D01*
X-8287816Y-83927580D02*
X-8691877Y-84331641D01*
X-8489847Y-84129610D02*
X-9196954Y-83422503D01*
X-9163282Y-83590862D01*
X-9163282Y-83725549D01*
X-9196954Y-83826564D01*
X-5885618Y-80111167D02*
X-5818274Y-80043824D01*
X-5717259Y-80010152D01*
X-5649915Y-80010152D01*
X-5548900Y-80043824D01*
X-5380541Y-80144839D01*
X-5212183Y-80313198D01*
X-5111167Y-80481557D01*
X-5077496Y-80582572D01*
X-5077496Y-80649915D01*
X-5111167Y-80750931D01*
X-5178511Y-80818274D01*
X-5279526Y-80851946D01*
X-5346870Y-80851946D01*
X-5447885Y-80818274D01*
X-5616244Y-80717259D01*
X-5784602Y-80548900D01*
X-5885618Y-80380541D01*
X-5919289Y-80279526D01*
X-5919289Y-80212183D01*
X-5885618Y-80111167D01*
X-4707106Y-80212183D02*
X-4639763Y-80212183D01*
X-4639763Y-80279526D01*
X-4707106Y-80279526D01*
X-4707106Y-80212183D01*
X-4639763Y-80279526D01*
X-4875465Y-79101015D02*
X-4808122Y-79033671D01*
X-4707106Y-79000000D01*
X-4639763Y-79000000D01*
X-4538748Y-79033671D01*
X-4370389Y-79134687D01*
X-4202030Y-79303045D01*
X-4101015Y-79471404D01*
X-4067343Y-79572419D01*
X-4067343Y-79639763D01*
X-4101015Y-79740778D01*
X-4168358Y-79808122D01*
X-4269374Y-79841793D01*
X-4336717Y-79841793D01*
X-4437732Y-79808122D01*
X-4606091Y-79707106D01*
X-4774450Y-79538748D01*
X-4875465Y-79370389D01*
X-4909137Y-79269374D01*
X-4909137Y-79202030D01*
X-4875465Y-79101015D01*
X-3259221Y-78898984D02*
X-3663282Y-79303045D01*
X-3461251Y-79101015D02*
X-4168358Y-78393908D01*
X-4134687Y-78562267D01*
X-4134687Y-78696954D01*
X-4168358Y-78797969D01*
X-3124534Y-77821488D02*
X-2653129Y-78292893D01*
X-3427580Y-78124534D02*
X-3057190Y-78494923D01*
X-2956175Y-78528595D01*
X-2855160Y-78494923D01*
X-2754145Y-78393908D01*
X-2720473Y-78292893D01*
X-2720473Y-78225549D01*
X-2451099Y-77350084D02*
X-2686801Y-77585786D01*
X-2316412Y-77956175D02*
X-3023519Y-77249068D01*
X-2686801Y-76912351D01*
%TO.C,C12*%
X6297969Y-83707106D02*
X6297969Y-83774450D01*
X6230625Y-83909137D01*
X6163282Y-83976480D01*
X6028595Y-84043824D01*
X5893908Y-84043824D01*
X5792893Y-84010152D01*
X5624534Y-83909137D01*
X5523519Y-83808122D01*
X5422503Y-83639763D01*
X5388832Y-83538748D01*
X5388832Y-83404061D01*
X5456175Y-83269374D01*
X5523519Y-83202030D01*
X5658206Y-83134687D01*
X5725549Y-83134687D01*
X7038748Y-83101015D02*
X6634687Y-83505076D01*
X6836717Y-83303045D02*
X6129610Y-82595938D01*
X6163282Y-82764297D01*
X6163282Y-82898984D01*
X6129610Y-83000000D01*
X6668358Y-82191877D02*
X6668358Y-82124534D01*
X6702030Y-82023519D01*
X6870389Y-81855160D01*
X6971404Y-81821488D01*
X7038748Y-81821488D01*
X7139763Y-81855160D01*
X7207106Y-81922503D01*
X7274450Y-82057190D01*
X7274450Y-82865312D01*
X7712183Y-82427580D01*
X4523519Y-82173435D02*
X4994923Y-82644839D01*
X4085786Y-82072419D02*
X4422503Y-82745854D01*
X4860236Y-82308122D01*
X4590862Y-81634687D02*
X5062267Y-81163282D01*
X5466328Y-82173435D01*
X5567343Y-81129610D02*
X6274450Y-81836717D01*
X5601015Y-81163282D02*
X5634687Y-81062267D01*
X5769374Y-80927580D01*
X5870389Y-80893908D01*
X5937732Y-80893908D01*
X6038748Y-80927580D01*
X6240778Y-81129610D01*
X6274450Y-81230625D01*
X6274450Y-81297969D01*
X6240778Y-81398984D01*
X6106091Y-81533671D01*
X6005076Y-81567343D01*
X6543824Y-80355160D02*
X6308122Y-80590862D01*
X6678511Y-80961251D02*
X5971404Y-80254145D01*
X6308122Y-79917427D01*
%TO.C,C13*%
X-11202030Y-83707106D02*
X-11202030Y-83774450D01*
X-11269374Y-83909137D01*
X-11336717Y-83976480D01*
X-11471404Y-84043824D01*
X-11606091Y-84043824D01*
X-11707106Y-84010152D01*
X-11875465Y-83909137D01*
X-11976480Y-83808122D01*
X-12077496Y-83639763D01*
X-12111167Y-83538748D01*
X-12111167Y-83404061D01*
X-12043824Y-83269374D01*
X-11976480Y-83202030D01*
X-11841793Y-83134687D01*
X-11774450Y-83134687D01*
X-10461251Y-83101015D02*
X-10865312Y-83505076D01*
X-10663282Y-83303045D02*
X-11370389Y-82595938D01*
X-11336717Y-82764297D01*
X-11336717Y-82898984D01*
X-11370389Y-83000000D01*
X-10932656Y-82158206D02*
X-10494923Y-81720473D01*
X-10461251Y-82225549D01*
X-10360236Y-82124534D01*
X-10259221Y-82090862D01*
X-10191877Y-82090862D01*
X-10090862Y-82124534D01*
X-9922503Y-82292893D01*
X-9888832Y-82393908D01*
X-9888832Y-82461251D01*
X-9922503Y-82562267D01*
X-10124534Y-82764297D01*
X-10225549Y-82797969D01*
X-10292893Y-82797969D01*
X-7548900Y-78774450D02*
X-7481557Y-78707106D01*
X-7380541Y-78673435D01*
X-7313198Y-78673435D01*
X-7212183Y-78707106D01*
X-7043824Y-78808122D01*
X-6875465Y-78976480D01*
X-6774450Y-79144839D01*
X-6740778Y-79245854D01*
X-6740778Y-79313198D01*
X-6774450Y-79414213D01*
X-6841793Y-79481557D01*
X-6942809Y-79515228D01*
X-7010152Y-79515228D01*
X-7111167Y-79481557D01*
X-7279526Y-79380541D01*
X-7447885Y-79212183D01*
X-7548900Y-79043824D01*
X-7582572Y-78942809D01*
X-7582572Y-78875465D01*
X-7548900Y-78774450D01*
X-6370389Y-78875465D02*
X-6303045Y-78875465D01*
X-6303045Y-78942809D01*
X-6370389Y-78942809D01*
X-6370389Y-78875465D01*
X-6303045Y-78942809D01*
X-5595938Y-78235702D02*
X-5999999Y-78639763D01*
X-5797969Y-78437732D02*
X-6505076Y-77730625D01*
X-6471404Y-77898984D01*
X-6471404Y-78033671D01*
X-6505076Y-78134687D01*
X-5461251Y-77158206D02*
X-4989847Y-77629610D01*
X-5764297Y-77461251D02*
X-5393908Y-77831641D01*
X-5292893Y-77865312D01*
X-5191877Y-77831641D01*
X-5090862Y-77730625D01*
X-5057190Y-77629610D01*
X-5057190Y-77562267D01*
X-4787816Y-76686801D02*
X-5023519Y-76922503D01*
X-4653129Y-77292893D02*
X-5360236Y-76585786D01*
X-5023519Y-76249068D01*
%TO.C,C14*%
X-3142857Y-114357142D02*
X-3190476Y-114404761D01*
X-3333333Y-114452380D01*
X-3428571Y-114452380D01*
X-3571428Y-114404761D01*
X-3666666Y-114309523D01*
X-3714285Y-114214285D01*
X-3761904Y-114023809D01*
X-3761904Y-113880952D01*
X-3714285Y-113690476D01*
X-3666666Y-113595238D01*
X-3571428Y-113500000D01*
X-3428571Y-113452380D01*
X-3333333Y-113452380D01*
X-3190476Y-113500000D01*
X-3142857Y-113547619D01*
X-2190476Y-114452380D02*
X-2761904Y-114452380D01*
X-2476190Y-114452380D02*
X-2476190Y-113452380D01*
X-2571428Y-113595238D01*
X-2666666Y-113690476D01*
X-2761904Y-113738095D01*
X-1333333Y-113785714D02*
X-1333333Y-114452380D01*
X-1571428Y-113404761D02*
X-1809523Y-114119047D01*
X-1190476Y-114119047D01*
X-3642857Y-114952380D02*
X-3547619Y-114952380D01*
X-3452380Y-115000000D01*
X-3404761Y-115047619D01*
X-3357142Y-115142857D01*
X-3309523Y-115333333D01*
X-3309523Y-115571428D01*
X-3357142Y-115761904D01*
X-3404761Y-115857142D01*
X-3452380Y-115904761D01*
X-3547619Y-115952380D01*
X-3642857Y-115952380D01*
X-3738095Y-115904761D01*
X-3785714Y-115857142D01*
X-3833333Y-115761904D01*
X-3880952Y-115571428D01*
X-3880952Y-115333333D01*
X-3833333Y-115142857D01*
X-3785714Y-115047619D01*
X-3738095Y-115000000D01*
X-3642857Y-114952380D01*
X-2880952Y-115857142D02*
X-2833333Y-115904761D01*
X-2880952Y-115952380D01*
X-2928571Y-115904761D01*
X-2880952Y-115857142D01*
X-2880952Y-115952380D01*
X-1880952Y-115952380D02*
X-2452380Y-115952380D01*
X-2166666Y-115952380D02*
X-2166666Y-114952380D01*
X-2261904Y-115095238D01*
X-2357142Y-115190476D01*
X-2452380Y-115238095D01*
X-1023809Y-115285714D02*
X-1023809Y-115952380D01*
X-1452380Y-115285714D02*
X-1452380Y-115809523D01*
X-1404761Y-115904761D01*
X-1309523Y-115952380D01*
X-1166666Y-115952380D01*
X-1071428Y-115904761D01*
X-1023809Y-115857142D01*
X-214285Y-115428571D02*
X-547619Y-115428571D01*
X-547619Y-115952380D02*
X-547619Y-114952380D01*
X-71428Y-114952380D01*
%TO.C,C15*%
X-642857Y-103357142D02*
X-690476Y-103404761D01*
X-833333Y-103452380D01*
X-928571Y-103452380D01*
X-1071428Y-103404761D01*
X-1166666Y-103309523D01*
X-1214285Y-103214285D01*
X-1261904Y-103023809D01*
X-1261904Y-102880952D01*
X-1214285Y-102690476D01*
X-1166666Y-102595238D01*
X-1071428Y-102500000D01*
X-928571Y-102452380D01*
X-833333Y-102452380D01*
X-690476Y-102500000D01*
X-642857Y-102547619D01*
X309523Y-103452380D02*
X-261904Y-103452380D01*
X23809Y-103452380D02*
X23809Y-102452380D01*
X-71428Y-102595238D01*
X-166666Y-102690476D01*
X-261904Y-102738095D01*
X1214285Y-102452380D02*
X738095Y-102452380D01*
X690476Y-102928571D01*
X738095Y-102880952D01*
X833333Y-102833333D01*
X1071428Y-102833333D01*
X1166666Y-102880952D01*
X1214285Y-102928571D01*
X1261904Y-103023809D01*
X1261904Y-103261904D01*
X1214285Y-103357142D01*
X1166666Y-103404761D01*
X1071428Y-103452380D01*
X833333Y-103452380D01*
X738095Y-103404761D01*
X690476Y-103357142D01*
X-1142857Y-103952380D02*
X-1047619Y-103952380D01*
X-952380Y-104000000D01*
X-904761Y-104047619D01*
X-857142Y-104142857D01*
X-809523Y-104333333D01*
X-809523Y-104571428D01*
X-857142Y-104761904D01*
X-904761Y-104857142D01*
X-952380Y-104904761D01*
X-1047619Y-104952380D01*
X-1142857Y-104952380D01*
X-1238095Y-104904761D01*
X-1285714Y-104857142D01*
X-1333333Y-104761904D01*
X-1380952Y-104571428D01*
X-1380952Y-104333333D01*
X-1333333Y-104142857D01*
X-1285714Y-104047619D01*
X-1238095Y-104000000D01*
X-1142857Y-103952380D01*
X-380952Y-104857142D02*
X-333333Y-104904761D01*
X-380952Y-104952380D01*
X-428571Y-104904761D01*
X-380952Y-104857142D01*
X-380952Y-104952380D01*
X619047Y-104952380D02*
X47619Y-104952380D01*
X333333Y-104952380D02*
X333333Y-103952380D01*
X238095Y-104095238D01*
X142857Y-104190476D01*
X47619Y-104238095D01*
X1476190Y-104285714D02*
X1476190Y-104952380D01*
X1047619Y-104285714D02*
X1047619Y-104809523D01*
X1095238Y-104904761D01*
X1190476Y-104952380D01*
X1333333Y-104952380D01*
X1428571Y-104904761D01*
X1476190Y-104857142D01*
X2285714Y-104428571D02*
X1952380Y-104428571D01*
X1952380Y-104952380D02*
X1952380Y-103952380D01*
X2428571Y-103952380D01*
%TO.C,J1*%
X-23833333Y-137202380D02*
X-23833333Y-137916666D01*
X-23880952Y-138059523D01*
X-23976190Y-138154761D01*
X-24119047Y-138202380D01*
X-24214285Y-138202380D01*
X-22833333Y-138202380D02*
X-23404761Y-138202380D01*
X-23119047Y-138202380D02*
X-23119047Y-137202380D01*
X-23214285Y-137345238D01*
X-23309523Y-137440476D01*
X-23404761Y-137488095D01*
%TO.C,J2*%
X15666666Y-136952380D02*
X15666666Y-137666666D01*
X15619047Y-137809523D01*
X15523809Y-137904761D01*
X15380952Y-137952380D01*
X15285714Y-137952380D01*
X16095238Y-137047619D02*
X16142857Y-137000000D01*
X16238095Y-136952380D01*
X16476190Y-136952380D01*
X16571428Y-137000000D01*
X16619047Y-137047619D01*
X16666666Y-137142857D01*
X16666666Y-137238095D01*
X16619047Y-137380952D01*
X16047619Y-137952380D01*
X16666666Y-137952380D01*
%TO.C,J3*%
X-23833333Y-119702380D02*
X-23833333Y-120416666D01*
X-23880952Y-120559523D01*
X-23976190Y-120654761D01*
X-24119047Y-120702380D01*
X-24214285Y-120702380D01*
X-23452380Y-119702380D02*
X-22833333Y-119702380D01*
X-23166666Y-120083333D01*
X-23023809Y-120083333D01*
X-22928571Y-120130952D01*
X-22880952Y-120178571D01*
X-22833333Y-120273809D01*
X-22833333Y-120511904D01*
X-22880952Y-120607142D01*
X-22928571Y-120654761D01*
X-23023809Y-120702380D01*
X-23309523Y-120702380D01*
X-23404761Y-120654761D01*
X-23452380Y-120607142D01*
%TO.C,J4*%
X15666666Y-81202380D02*
X15666666Y-81916666D01*
X15619047Y-82059523D01*
X15523809Y-82154761D01*
X15380952Y-82202380D01*
X15285714Y-82202380D01*
X16571428Y-81535714D02*
X16571428Y-82202380D01*
X16333333Y-81154761D02*
X16095238Y-81869047D01*
X16714285Y-81869047D01*
%TO.C,J5*%
X-20333333Y-104702380D02*
X-20333333Y-105416666D01*
X-20380952Y-105559523D01*
X-20476190Y-105654761D01*
X-20619047Y-105702380D01*
X-20714285Y-105702380D01*
X-19380952Y-104702380D02*
X-19857142Y-104702380D01*
X-19904761Y-105178571D01*
X-19857142Y-105130952D01*
X-19761904Y-105083333D01*
X-19523809Y-105083333D01*
X-19428571Y-105130952D01*
X-19380952Y-105178571D01*
X-19333333Y-105273809D01*
X-19333333Y-105511904D01*
X-19380952Y-105607142D01*
X-19428571Y-105654761D01*
X-19523809Y-105702380D01*
X-19761904Y-105702380D01*
X-19857142Y-105654761D01*
X-19904761Y-105607142D01*
%TO.C,R1*%
X-11166666Y-142452380D02*
X-11500000Y-141976190D01*
X-11738095Y-142452380D02*
X-11738095Y-141452380D01*
X-11357142Y-141452380D01*
X-11261904Y-141500000D01*
X-11214285Y-141547619D01*
X-11166666Y-141642857D01*
X-11166666Y-141785714D01*
X-11214285Y-141880952D01*
X-11261904Y-141928571D01*
X-11357142Y-141976190D01*
X-11738095Y-141976190D01*
X-10214285Y-142452380D02*
X-10785714Y-142452380D01*
X-10500000Y-142452380D02*
X-10500000Y-141452380D01*
X-10595238Y-141595238D01*
X-10690476Y-141690476D01*
X-10785714Y-141738095D01*
X-12467619Y-145690476D02*
X-12467619Y-146261904D01*
X-12467619Y-145976190D02*
X-13467619Y-145976190D01*
X-13324761Y-146071428D01*
X-13229523Y-146166666D01*
X-13181904Y-146261904D01*
X-13467619Y-145071428D02*
X-13467619Y-144976190D01*
X-13420000Y-144880952D01*
X-13372380Y-144833333D01*
X-13277142Y-144785714D01*
X-13086666Y-144738095D01*
X-12848571Y-144738095D01*
X-12658095Y-144785714D01*
X-12562857Y-144833333D01*
X-12515238Y-144880952D01*
X-12467619Y-144976190D01*
X-12467619Y-145071428D01*
X-12515238Y-145166666D01*
X-12562857Y-145214285D01*
X-12658095Y-145261904D01*
X-12848571Y-145309523D01*
X-13086666Y-145309523D01*
X-13277142Y-145261904D01*
X-13372380Y-145214285D01*
X-13420000Y-145166666D01*
X-13467619Y-145071428D01*
X-12467619Y-144309523D02*
X-13467619Y-144309523D01*
X-12467619Y-143738095D02*
X-13039047Y-144166666D01*
X-13467619Y-143738095D02*
X-12896190Y-144309523D01*
%TO.C,R2*%
X-4666666Y-134952380D02*
X-5000000Y-134476190D01*
X-5238095Y-134952380D02*
X-5238095Y-133952380D01*
X-4857142Y-133952380D01*
X-4761904Y-134000000D01*
X-4714285Y-134047619D01*
X-4666666Y-134142857D01*
X-4666666Y-134285714D01*
X-4714285Y-134380952D01*
X-4761904Y-134428571D01*
X-4857142Y-134476190D01*
X-5238095Y-134476190D01*
X-4285714Y-134047619D02*
X-4238095Y-134000000D01*
X-4142857Y-133952380D01*
X-3904761Y-133952380D01*
X-3809523Y-134000000D01*
X-3761904Y-134047619D01*
X-3714285Y-134142857D01*
X-3714285Y-134238095D01*
X-3761904Y-134380952D01*
X-4333333Y-134952380D01*
X-3714285Y-134952380D01*
X-5671428Y-136132380D02*
X-6242857Y-136132380D01*
X-5957142Y-136132380D02*
X-5957142Y-135132380D01*
X-6052380Y-135275238D01*
X-6147619Y-135370476D01*
X-6242857Y-135418095D01*
X-5052380Y-135132380D02*
X-4957142Y-135132380D01*
X-4861904Y-135180000D01*
X-4814285Y-135227619D01*
X-4766666Y-135322857D01*
X-4719047Y-135513333D01*
X-4719047Y-135751428D01*
X-4766666Y-135941904D01*
X-4814285Y-136037142D01*
X-4861904Y-136084761D01*
X-4957142Y-136132380D01*
X-5052380Y-136132380D01*
X-5147619Y-136084761D01*
X-5195238Y-136037142D01*
X-5242857Y-135941904D01*
X-5290476Y-135751428D01*
X-5290476Y-135513333D01*
X-5242857Y-135322857D01*
X-5195238Y-135227619D01*
X-5147619Y-135180000D01*
X-5052380Y-135132380D01*
X-4100000Y-135132380D02*
X-4004761Y-135132380D01*
X-3909523Y-135180000D01*
X-3861904Y-135227619D01*
X-3814285Y-135322857D01*
X-3766666Y-135513333D01*
X-3766666Y-135751428D01*
X-3814285Y-135941904D01*
X-3861904Y-136037142D01*
X-3909523Y-136084761D01*
X-4004761Y-136132380D01*
X-4100000Y-136132380D01*
X-4195238Y-136084761D01*
X-4242857Y-136037142D01*
X-4290476Y-135941904D01*
X-4338095Y-135751428D01*
X-4338095Y-135513333D01*
X-4290476Y-135322857D01*
X-4242857Y-135227619D01*
X-4195238Y-135180000D01*
X-4100000Y-135132380D01*
X-3338095Y-136132380D02*
X-3338095Y-135132380D01*
X-3242857Y-135751428D02*
X-2957142Y-136132380D01*
X-2957142Y-135465714D02*
X-3338095Y-135846666D01*
%TO.C,R3*%
X-9666666Y-134952380D02*
X-10000000Y-134476190D01*
X-10238095Y-134952380D02*
X-10238095Y-133952380D01*
X-9857142Y-133952380D01*
X-9761904Y-134000000D01*
X-9714285Y-134047619D01*
X-9666666Y-134142857D01*
X-9666666Y-134285714D01*
X-9714285Y-134380952D01*
X-9761904Y-134428571D01*
X-9857142Y-134476190D01*
X-10238095Y-134476190D01*
X-9333333Y-133952380D02*
X-8714285Y-133952380D01*
X-9047619Y-134333333D01*
X-8904761Y-134333333D01*
X-8809523Y-134380952D01*
X-8761904Y-134428571D01*
X-8714285Y-134523809D01*
X-8714285Y-134761904D01*
X-8761904Y-134857142D01*
X-8809523Y-134904761D01*
X-8904761Y-134952380D01*
X-9190476Y-134952380D01*
X-9285714Y-134904761D01*
X-9333333Y-134857142D01*
%TO.C,R4*%
X6172380Y-134766666D02*
X5696190Y-135100000D01*
X6172380Y-135338095D02*
X5172380Y-135338095D01*
X5172380Y-134957142D01*
X5220000Y-134861904D01*
X5267619Y-134814285D01*
X5362857Y-134766666D01*
X5505714Y-134766666D01*
X5600952Y-134814285D01*
X5648571Y-134861904D01*
X5696190Y-134957142D01*
X5696190Y-135338095D01*
X5505714Y-133909523D02*
X6172380Y-133909523D01*
X5124761Y-134147619D02*
X5839047Y-134385714D01*
X5839047Y-133766666D01*
X2532380Y-134885714D02*
X2532380Y-135457142D01*
X2532380Y-135171428D02*
X1532380Y-135171428D01*
X1675238Y-135266666D01*
X1770476Y-135361904D01*
X1818095Y-135457142D01*
X2532380Y-134457142D02*
X1532380Y-134457142D01*
X2246666Y-134123809D01*
X1532380Y-133790476D01*
X2532380Y-133790476D01*
%TO.C,R5*%
X-6166666Y-119132380D02*
X-6500000Y-118656190D01*
X-6738095Y-119132380D02*
X-6738095Y-118132380D01*
X-6357142Y-118132380D01*
X-6261904Y-118180000D01*
X-6214285Y-118227619D01*
X-6166666Y-118322857D01*
X-6166666Y-118465714D01*
X-6214285Y-118560952D01*
X-6261904Y-118608571D01*
X-6357142Y-118656190D01*
X-6738095Y-118656190D01*
X-5261904Y-118132380D02*
X-5738095Y-118132380D01*
X-5785714Y-118608571D01*
X-5738095Y-118560952D01*
X-5642857Y-118513333D01*
X-5404761Y-118513333D01*
X-5309523Y-118560952D01*
X-5261904Y-118608571D01*
X-5214285Y-118703809D01*
X-5214285Y-118941904D01*
X-5261904Y-119037142D01*
X-5309523Y-119084761D01*
X-5404761Y-119132380D01*
X-5642857Y-119132380D01*
X-5738095Y-119084761D01*
X-5785714Y-119037142D01*
%TO.C,R6*%
X5202030Y-85937732D02*
X4629610Y-85836717D01*
X4797969Y-86341793D02*
X4090862Y-85634687D01*
X4360236Y-85365312D01*
X4461251Y-85331641D01*
X4528595Y-85331641D01*
X4629610Y-85365312D01*
X4730625Y-85466328D01*
X4764297Y-85567343D01*
X4764297Y-85634687D01*
X4730625Y-85735702D01*
X4461251Y-86005076D01*
X5101015Y-84624534D02*
X4966328Y-84759221D01*
X4932656Y-84860236D01*
X4932656Y-84927580D01*
X4966328Y-85095938D01*
X5067343Y-85264297D01*
X5336717Y-85533671D01*
X5437732Y-85567343D01*
X5505076Y-85567343D01*
X5606091Y-85533671D01*
X5740778Y-85398984D01*
X5774450Y-85297969D01*
X5774450Y-85230625D01*
X5740778Y-85129610D01*
X5572419Y-84961251D01*
X5471404Y-84927580D01*
X5404061Y-84927580D01*
X5303045Y-84961251D01*
X5168358Y-85095938D01*
X5134687Y-85196954D01*
X5134687Y-85264297D01*
X5168358Y-85365312D01*
X3377072Y-84348477D02*
X3040355Y-84685194D01*
X3343400Y-85055583D01*
X3343400Y-84988240D01*
X3377072Y-84887225D01*
X3545431Y-84718866D01*
X3646446Y-84685194D01*
X3713790Y-84685194D01*
X3814805Y-84718866D01*
X3983164Y-84887225D01*
X4016835Y-84988240D01*
X4016835Y-85055583D01*
X3983164Y-85156599D01*
X3814805Y-85324957D01*
X3713790Y-85358629D01*
X3646446Y-85358629D01*
X4420896Y-84718866D02*
X3713790Y-84011759D01*
X4454568Y-84281133D01*
X4185194Y-83540355D01*
X4892301Y-84247461D01*
%TO.C,R7*%
X5833333Y-115452380D02*
X5500000Y-114976190D01*
X5261904Y-115452380D02*
X5261904Y-114452380D01*
X5642857Y-114452380D01*
X5738095Y-114500000D01*
X5785714Y-114547619D01*
X5833333Y-114642857D01*
X5833333Y-114785714D01*
X5785714Y-114880952D01*
X5738095Y-114928571D01*
X5642857Y-114976190D01*
X5261904Y-114976190D01*
X6166666Y-114452380D02*
X6833333Y-114452380D01*
X6404761Y-115452380D01*
X5738095Y-112952380D02*
X5547619Y-112952380D01*
X5452380Y-113000000D01*
X5404761Y-113047619D01*
X5309523Y-113190476D01*
X5261904Y-113380952D01*
X5261904Y-113761904D01*
X5309523Y-113857142D01*
X5357142Y-113904761D01*
X5452380Y-113952380D01*
X5642857Y-113952380D01*
X5738095Y-113904761D01*
X5785714Y-113857142D01*
X5833333Y-113761904D01*
X5833333Y-113523809D01*
X5785714Y-113428571D01*
X5738095Y-113380952D01*
X5642857Y-113333333D01*
X5452380Y-113333333D01*
X5357142Y-113380952D01*
X5309523Y-113428571D01*
X5261904Y-113523809D01*
X6214285Y-113047619D02*
X6261904Y-113000000D01*
X6357142Y-112952380D01*
X6595238Y-112952380D01*
X6690476Y-113000000D01*
X6738095Y-113047619D01*
X6785714Y-113142857D01*
X6785714Y-113238095D01*
X6738095Y-113380952D01*
X6166666Y-113952380D01*
X6785714Y-113952380D01*
X7404761Y-112952380D02*
X7500000Y-112952380D01*
X7595238Y-113000000D01*
X7642857Y-113047619D01*
X7690476Y-113142857D01*
X7738095Y-113333333D01*
X7738095Y-113571428D01*
X7690476Y-113761904D01*
X7642857Y-113857142D01*
X7595238Y-113904761D01*
X7500000Y-113952380D01*
X7404761Y-113952380D01*
X7309523Y-113904761D01*
X7261904Y-113857142D01*
X7214285Y-113761904D01*
X7166666Y-113571428D01*
X7166666Y-113333333D01*
X7214285Y-113142857D01*
X7261904Y-113047619D01*
X7309523Y-113000000D01*
X7404761Y-112952380D01*
X8166666Y-113952380D02*
X8166666Y-112952380D01*
X8738095Y-113952380D02*
X8309523Y-113380952D01*
X8738095Y-112952380D02*
X8166666Y-113523809D01*
%TO.C,R8*%
X3833333Y-103452380D02*
X3500000Y-102976190D01*
X3261904Y-103452380D02*
X3261904Y-102452380D01*
X3642857Y-102452380D01*
X3738095Y-102500000D01*
X3785714Y-102547619D01*
X3833333Y-102642857D01*
X3833333Y-102785714D01*
X3785714Y-102880952D01*
X3738095Y-102928571D01*
X3642857Y-102976190D01*
X3261904Y-102976190D01*
X4404761Y-102880952D02*
X4309523Y-102833333D01*
X4261904Y-102785714D01*
X4214285Y-102690476D01*
X4214285Y-102642857D01*
X4261904Y-102547619D01*
X4309523Y-102500000D01*
X4404761Y-102452380D01*
X4595238Y-102452380D01*
X4690476Y-102500000D01*
X4738095Y-102547619D01*
X4785714Y-102642857D01*
X4785714Y-102690476D01*
X4738095Y-102785714D01*
X4690476Y-102833333D01*
X4595238Y-102880952D01*
X4404761Y-102880952D01*
X4309523Y-102928571D01*
X4261904Y-102976190D01*
X4214285Y-103071428D01*
X4214285Y-103261904D01*
X4261904Y-103357142D01*
X4309523Y-103404761D01*
X4404761Y-103452380D01*
X4595238Y-103452380D01*
X4690476Y-103404761D01*
X4738095Y-103357142D01*
X4785714Y-103261904D01*
X4785714Y-103071428D01*
X4738095Y-102976190D01*
X4690476Y-102928571D01*
X4595238Y-102880952D01*
X3738095Y-103952380D02*
X3547619Y-103952380D01*
X3452380Y-104000000D01*
X3404761Y-104047619D01*
X3309523Y-104190476D01*
X3261904Y-104380952D01*
X3261904Y-104761904D01*
X3309523Y-104857142D01*
X3357142Y-104904761D01*
X3452380Y-104952380D01*
X3642857Y-104952380D01*
X3738095Y-104904761D01*
X3785714Y-104857142D01*
X3833333Y-104761904D01*
X3833333Y-104523809D01*
X3785714Y-104428571D01*
X3738095Y-104380952D01*
X3642857Y-104333333D01*
X3452380Y-104333333D01*
X3357142Y-104380952D01*
X3309523Y-104428571D01*
X3261904Y-104523809D01*
X4214285Y-104047619D02*
X4261904Y-104000000D01*
X4357142Y-103952380D01*
X4595238Y-103952380D01*
X4690476Y-104000000D01*
X4738095Y-104047619D01*
X4785714Y-104142857D01*
X4785714Y-104238095D01*
X4738095Y-104380952D01*
X4166666Y-104952380D01*
X4785714Y-104952380D01*
X5404761Y-103952380D02*
X5500000Y-103952380D01*
X5595238Y-104000000D01*
X5642857Y-104047619D01*
X5690476Y-104142857D01*
X5738095Y-104333333D01*
X5738095Y-104571428D01*
X5690476Y-104761904D01*
X5642857Y-104857142D01*
X5595238Y-104904761D01*
X5500000Y-104952380D01*
X5404761Y-104952380D01*
X5309523Y-104904761D01*
X5261904Y-104857142D01*
X5214285Y-104761904D01*
X5166666Y-104571428D01*
X5166666Y-104333333D01*
X5214285Y-104142857D01*
X5261904Y-104047619D01*
X5309523Y-104000000D01*
X5404761Y-103952380D01*
X6166666Y-104952380D02*
X6166666Y-103952380D01*
X6738095Y-104952380D02*
X6309523Y-104380952D01*
X6738095Y-103952380D02*
X6166666Y-104523809D01*
%TO.C,R9*%
X1833333Y-115452380D02*
X1500000Y-114976190D01*
X1261904Y-115452380D02*
X1261904Y-114452380D01*
X1642857Y-114452380D01*
X1738095Y-114500000D01*
X1785714Y-114547619D01*
X1833333Y-114642857D01*
X1833333Y-114785714D01*
X1785714Y-114880952D01*
X1738095Y-114928571D01*
X1642857Y-114976190D01*
X1261904Y-114976190D01*
X2309523Y-115452380D02*
X2500000Y-115452380D01*
X2595238Y-115404761D01*
X2642857Y-115357142D01*
X2738095Y-115214285D01*
X2785714Y-115023809D01*
X2785714Y-114642857D01*
X2738095Y-114547619D01*
X2690476Y-114500000D01*
X2595238Y-114452380D01*
X2404761Y-114452380D01*
X2309523Y-114500000D01*
X2261904Y-114547619D01*
X2214285Y-114642857D01*
X2214285Y-114880952D01*
X2261904Y-114976190D01*
X2309523Y-115023809D01*
X2404761Y-115071428D01*
X2595238Y-115071428D01*
X2690476Y-115023809D01*
X2738095Y-114976190D01*
X2785714Y-114880952D01*
X1738095Y-112952380D02*
X1547619Y-112952380D01*
X1452380Y-113000000D01*
X1404761Y-113047619D01*
X1309523Y-113190476D01*
X1261904Y-113380952D01*
X1261904Y-113761904D01*
X1309523Y-113857142D01*
X1357142Y-113904761D01*
X1452380Y-113952380D01*
X1642857Y-113952380D01*
X1738095Y-113904761D01*
X1785714Y-113857142D01*
X1833333Y-113761904D01*
X1833333Y-113523809D01*
X1785714Y-113428571D01*
X1738095Y-113380952D01*
X1642857Y-113333333D01*
X1452380Y-113333333D01*
X1357142Y-113380952D01*
X1309523Y-113428571D01*
X1261904Y-113523809D01*
X2214285Y-113047619D02*
X2261904Y-113000000D01*
X2357142Y-112952380D01*
X2595238Y-112952380D01*
X2690476Y-113000000D01*
X2738095Y-113047619D01*
X2785714Y-113142857D01*
X2785714Y-113238095D01*
X2738095Y-113380952D01*
X2166666Y-113952380D01*
X2785714Y-113952380D01*
X3404761Y-112952380D02*
X3500000Y-112952380D01*
X3595238Y-113000000D01*
X3642857Y-113047619D01*
X3690476Y-113142857D01*
X3738095Y-113333333D01*
X3738095Y-113571428D01*
X3690476Y-113761904D01*
X3642857Y-113857142D01*
X3595238Y-113904761D01*
X3500000Y-113952380D01*
X3404761Y-113952380D01*
X3309523Y-113904761D01*
X3261904Y-113857142D01*
X3214285Y-113761904D01*
X3166666Y-113571428D01*
X3166666Y-113333333D01*
X3214285Y-113142857D01*
X3261904Y-113047619D01*
X3309523Y-113000000D01*
X3404761Y-112952380D01*
X4166666Y-113952380D02*
X4166666Y-112952380D01*
X4738095Y-113952380D02*
X4309523Y-113380952D01*
X4738095Y-112952380D02*
X4166666Y-113523809D01*
%TO.C,R10*%
X-9142857Y-109952380D02*
X-9476190Y-109476190D01*
X-9714285Y-109952380D02*
X-9714285Y-108952380D01*
X-9333333Y-108952380D01*
X-9238095Y-109000000D01*
X-9190476Y-109047619D01*
X-9142857Y-109142857D01*
X-9142857Y-109285714D01*
X-9190476Y-109380952D01*
X-9238095Y-109428571D01*
X-9333333Y-109476190D01*
X-9714285Y-109476190D01*
X-8190476Y-109952380D02*
X-8761904Y-109952380D01*
X-8476190Y-109952380D02*
X-8476190Y-108952380D01*
X-8571428Y-109095238D01*
X-8666666Y-109190476D01*
X-8761904Y-109238095D01*
X-7571428Y-108952380D02*
X-7476190Y-108952380D01*
X-7380952Y-109000000D01*
X-7333333Y-109047619D01*
X-7285714Y-109142857D01*
X-7238095Y-109333333D01*
X-7238095Y-109571428D01*
X-7285714Y-109761904D01*
X-7333333Y-109857142D01*
X-7380952Y-109904761D01*
X-7476190Y-109952380D01*
X-7571428Y-109952380D01*
X-7666666Y-109904761D01*
X-7714285Y-109857142D01*
X-7761904Y-109761904D01*
X-7809523Y-109571428D01*
X-7809523Y-109333333D01*
X-7761904Y-109142857D01*
X-7714285Y-109047619D01*
X-7666666Y-109000000D01*
X-7571428Y-108952380D01*
X-9261904Y-110452380D02*
X-9452380Y-110452380D01*
X-9547619Y-110500000D01*
X-9595238Y-110547619D01*
X-9690476Y-110690476D01*
X-9738095Y-110880952D01*
X-9738095Y-111261904D01*
X-9690476Y-111357142D01*
X-9642857Y-111404761D01*
X-9547619Y-111452380D01*
X-9357142Y-111452380D01*
X-9261904Y-111404761D01*
X-9214285Y-111357142D01*
X-9166666Y-111261904D01*
X-9166666Y-111023809D01*
X-9214285Y-110928571D01*
X-9261904Y-110880952D01*
X-9357142Y-110833333D01*
X-9547619Y-110833333D01*
X-9642857Y-110880952D01*
X-9690476Y-110928571D01*
X-9738095Y-111023809D01*
X-8785714Y-110547619D02*
X-8738095Y-110500000D01*
X-8642857Y-110452380D01*
X-8404761Y-110452380D01*
X-8309523Y-110500000D01*
X-8261904Y-110547619D01*
X-8214285Y-110642857D01*
X-8214285Y-110738095D01*
X-8261904Y-110880952D01*
X-8833333Y-111452380D01*
X-8214285Y-111452380D01*
X-7595238Y-110452380D02*
X-7500000Y-110452380D01*
X-7404761Y-110500000D01*
X-7357142Y-110547619D01*
X-7309523Y-110642857D01*
X-7261904Y-110833333D01*
X-7261904Y-111071428D01*
X-7309523Y-111261904D01*
X-7357142Y-111357142D01*
X-7404761Y-111404761D01*
X-7500000Y-111452380D01*
X-7595238Y-111452380D01*
X-7690476Y-111404761D01*
X-7738095Y-111357142D01*
X-7785714Y-111261904D01*
X-7833333Y-111071428D01*
X-7833333Y-110833333D01*
X-7785714Y-110642857D01*
X-7738095Y-110547619D01*
X-7690476Y-110500000D01*
X-7595238Y-110452380D01*
X-6833333Y-111452380D02*
X-6833333Y-110452380D01*
X-6261904Y-111452380D02*
X-6690476Y-110880952D01*
X-6261904Y-110452380D02*
X-6833333Y-111023809D01*
%TO.C,R11*%
X-12642857Y-117952380D02*
X-12976190Y-117476190D01*
X-13214285Y-117952380D02*
X-13214285Y-116952380D01*
X-12833333Y-116952380D01*
X-12738095Y-117000000D01*
X-12690476Y-117047619D01*
X-12642857Y-117142857D01*
X-12642857Y-117285714D01*
X-12690476Y-117380952D01*
X-12738095Y-117428571D01*
X-12833333Y-117476190D01*
X-13214285Y-117476190D01*
X-11690476Y-117952380D02*
X-12261904Y-117952380D01*
X-11976190Y-117952380D02*
X-11976190Y-116952380D01*
X-12071428Y-117095238D01*
X-12166666Y-117190476D01*
X-12261904Y-117238095D01*
X-10738095Y-117952380D02*
X-11309523Y-117952380D01*
X-11023809Y-117952380D02*
X-11023809Y-116952380D01*
X-11119047Y-117095238D01*
X-11214285Y-117190476D01*
X-11309523Y-117238095D01*
X-12761904Y-118452380D02*
X-12952380Y-118452380D01*
X-13047619Y-118500000D01*
X-13095238Y-118547619D01*
X-13190476Y-118690476D01*
X-13238095Y-118880952D01*
X-13238095Y-119261904D01*
X-13190476Y-119357142D01*
X-13142857Y-119404761D01*
X-13047619Y-119452380D01*
X-12857142Y-119452380D01*
X-12761904Y-119404761D01*
X-12714285Y-119357142D01*
X-12666666Y-119261904D01*
X-12666666Y-119023809D01*
X-12714285Y-118928571D01*
X-12761904Y-118880952D01*
X-12857142Y-118833333D01*
X-13047619Y-118833333D01*
X-13142857Y-118880952D01*
X-13190476Y-118928571D01*
X-13238095Y-119023809D01*
X-12285714Y-118547619D02*
X-12238095Y-118500000D01*
X-12142857Y-118452380D01*
X-11904761Y-118452380D01*
X-11809523Y-118500000D01*
X-11761904Y-118547619D01*
X-11714285Y-118642857D01*
X-11714285Y-118738095D01*
X-11761904Y-118880952D01*
X-12333333Y-119452380D01*
X-11714285Y-119452380D01*
X-11095238Y-118452380D02*
X-11000000Y-118452380D01*
X-10904761Y-118500000D01*
X-10857142Y-118547619D01*
X-10809523Y-118642857D01*
X-10761904Y-118833333D01*
X-10761904Y-119071428D01*
X-10809523Y-119261904D01*
X-10857142Y-119357142D01*
X-10904761Y-119404761D01*
X-11000000Y-119452380D01*
X-11095238Y-119452380D01*
X-11190476Y-119404761D01*
X-11238095Y-119357142D01*
X-11285714Y-119261904D01*
X-11333333Y-119071428D01*
X-11333333Y-118833333D01*
X-11285714Y-118642857D01*
X-11238095Y-118547619D01*
X-11190476Y-118500000D01*
X-11095238Y-118452380D01*
X-10333333Y-119452380D02*
X-10333333Y-118452380D01*
X-9761904Y-119452380D02*
X-10190476Y-118880952D01*
X-9761904Y-118452380D02*
X-10333333Y-119023809D01*
%TO.C,R12*%
X-13642857Y-104952380D02*
X-13976190Y-104476190D01*
X-14214285Y-104952380D02*
X-14214285Y-103952380D01*
X-13833333Y-103952380D01*
X-13738095Y-104000000D01*
X-13690476Y-104047619D01*
X-13642857Y-104142857D01*
X-13642857Y-104285714D01*
X-13690476Y-104380952D01*
X-13738095Y-104428571D01*
X-13833333Y-104476190D01*
X-14214285Y-104476190D01*
X-12690476Y-104952380D02*
X-13261904Y-104952380D01*
X-12976190Y-104952380D02*
X-12976190Y-103952380D01*
X-13071428Y-104095238D01*
X-13166666Y-104190476D01*
X-13261904Y-104238095D01*
X-12309523Y-104047619D02*
X-12261904Y-104000000D01*
X-12166666Y-103952380D01*
X-11928571Y-103952380D01*
X-11833333Y-104000000D01*
X-11785714Y-104047619D01*
X-11738095Y-104142857D01*
X-11738095Y-104238095D01*
X-11785714Y-104380952D01*
X-12357142Y-104952380D01*
X-11738095Y-104952380D01*
X-13761904Y-105452380D02*
X-13952380Y-105452380D01*
X-14047619Y-105500000D01*
X-14095238Y-105547619D01*
X-14190476Y-105690476D01*
X-14238095Y-105880952D01*
X-14238095Y-106261904D01*
X-14190476Y-106357142D01*
X-14142857Y-106404761D01*
X-14047619Y-106452380D01*
X-13857142Y-106452380D01*
X-13761904Y-106404761D01*
X-13714285Y-106357142D01*
X-13666666Y-106261904D01*
X-13666666Y-106023809D01*
X-13714285Y-105928571D01*
X-13761904Y-105880952D01*
X-13857142Y-105833333D01*
X-14047619Y-105833333D01*
X-14142857Y-105880952D01*
X-14190476Y-105928571D01*
X-14238095Y-106023809D01*
X-13285714Y-105547619D02*
X-13238095Y-105500000D01*
X-13142857Y-105452380D01*
X-12904761Y-105452380D01*
X-12809523Y-105500000D01*
X-12761904Y-105547619D01*
X-12714285Y-105642857D01*
X-12714285Y-105738095D01*
X-12761904Y-105880952D01*
X-13333333Y-106452380D01*
X-12714285Y-106452380D01*
X-12095238Y-105452380D02*
X-12000000Y-105452380D01*
X-11904761Y-105500000D01*
X-11857142Y-105547619D01*
X-11809523Y-105642857D01*
X-11761904Y-105833333D01*
X-11761904Y-106071428D01*
X-11809523Y-106261904D01*
X-11857142Y-106357142D01*
X-11904761Y-106404761D01*
X-12000000Y-106452380D01*
X-12095238Y-106452380D01*
X-12190476Y-106404761D01*
X-12238095Y-106357142D01*
X-12285714Y-106261904D01*
X-12333333Y-106071428D01*
X-12333333Y-105833333D01*
X-12285714Y-105642857D01*
X-12238095Y-105547619D01*
X-12190476Y-105500000D01*
X-12095238Y-105452380D01*
X-11333333Y-106452380D02*
X-11333333Y-105452380D01*
X-10761904Y-106452380D02*
X-11190476Y-105880952D01*
X-10761904Y-105452380D02*
X-11333333Y-106023809D01*
%TO.C,U1*%
X-761904Y-143952380D02*
X-761904Y-144761904D01*
X-714285Y-144857142D01*
X-666666Y-144904761D01*
X-571428Y-144952380D01*
X-380952Y-144952380D01*
X-285714Y-144904761D01*
X-238095Y-144857142D01*
X-190476Y-144761904D01*
X-190476Y-143952380D01*
X809523Y-144952380D02*
X238095Y-144952380D01*
X523809Y-144952380D02*
X523809Y-143952380D01*
X428571Y-144095238D01*
X333333Y-144190476D01*
X238095Y-144238095D01*
%TO.C,U2*%
X-761904Y-126952380D02*
X-761904Y-127761904D01*
X-714285Y-127857142D01*
X-666666Y-127904761D01*
X-571428Y-127952380D01*
X-380952Y-127952380D01*
X-285714Y-127904761D01*
X-238095Y-127857142D01*
X-190476Y-127761904D01*
X-190476Y-126952380D01*
X238095Y-127047619D02*
X285714Y-127000000D01*
X380952Y-126952380D01*
X619047Y-126952380D01*
X714285Y-127000000D01*
X761904Y-127047619D01*
X809523Y-127142857D01*
X809523Y-127238095D01*
X761904Y-127380952D01*
X190476Y-127952380D01*
X809523Y-127952380D01*
%TO.C,U3*%
X-1651522Y-93074026D02*
X-2223942Y-93646446D01*
X-2257614Y-93747461D01*
X-2257614Y-93814805D01*
X-2223942Y-93915820D01*
X-2089255Y-94050507D01*
X-1988240Y-94084179D01*
X-1920896Y-94084179D01*
X-1819881Y-94050507D01*
X-1247461Y-93478087D01*
X-978087Y-93747461D02*
X-540355Y-94185194D01*
X-1045431Y-94218866D01*
X-944416Y-94319881D01*
X-910744Y-94420896D01*
X-910744Y-94488240D01*
X-944416Y-94589255D01*
X-1112774Y-94757614D01*
X-1213790Y-94791286D01*
X-1281133Y-94791286D01*
X-1382148Y-94757614D01*
X-1584179Y-94555583D01*
X-1617851Y-94454568D01*
X-1617851Y-94387225D01*
%TO.C,U4*%
X-7761904Y-105952380D02*
X-7761904Y-106761904D01*
X-7714285Y-106857142D01*
X-7666666Y-106904761D01*
X-7571428Y-106952380D01*
X-7380952Y-106952380D01*
X-7285714Y-106904761D01*
X-7238095Y-106857142D01*
X-7190476Y-106761904D01*
X-7190476Y-105952380D01*
X-6285714Y-106285714D02*
X-6285714Y-106952380D01*
X-6523809Y-105904761D02*
X-6761904Y-106619047D01*
X-6142857Y-106619047D01*
%TO.C,J6*%
X-12333333Y-157452380D02*
X-12333333Y-158166666D01*
X-12380952Y-158309523D01*
X-12476190Y-158404761D01*
X-12619047Y-158452380D01*
X-12714285Y-158452380D01*
X-11428571Y-157452380D02*
X-11619047Y-157452380D01*
X-11714285Y-157500000D01*
X-11761904Y-157547619D01*
X-11857142Y-157690476D01*
X-11904761Y-157880952D01*
X-11904761Y-158261904D01*
X-11857142Y-158357142D01*
X-11809523Y-158404761D01*
X-11714285Y-158452380D01*
X-11523809Y-158452380D01*
X-11428571Y-158404761D01*
X-11380952Y-158357142D01*
X-11333333Y-158261904D01*
X-11333333Y-158023809D01*
X-11380952Y-157928571D01*
X-11428571Y-157880952D01*
X-11523809Y-157833333D01*
X-11714285Y-157833333D01*
X-11809523Y-157880952D01*
X-11857142Y-157928571D01*
X-11904761Y-158023809D01*
%TO.C,J8*%
X-23333333Y-95952380D02*
X-23333333Y-96666666D01*
X-23380952Y-96809523D01*
X-23476190Y-96904761D01*
X-23619047Y-96952380D01*
X-23714285Y-96952380D01*
X-22714285Y-96380952D02*
X-22809523Y-96333333D01*
X-22857142Y-96285714D01*
X-22904761Y-96190476D01*
X-22904761Y-96142857D01*
X-22857142Y-96047619D01*
X-22809523Y-96000000D01*
X-22714285Y-95952380D01*
X-22523809Y-95952380D01*
X-22428571Y-96000000D01*
X-22380952Y-96047619D01*
X-22333333Y-96142857D01*
X-22333333Y-96190476D01*
X-22380952Y-96285714D01*
X-22428571Y-96333333D01*
X-22523809Y-96380952D01*
X-22714285Y-96380952D01*
X-22809523Y-96428571D01*
X-22857142Y-96476190D01*
X-22904761Y-96571428D01*
X-22904761Y-96761904D01*
X-22857142Y-96857142D01*
X-22809523Y-96904761D01*
X-22714285Y-96952380D01*
X-22523809Y-96952380D01*
X-22428571Y-96904761D01*
X-22380952Y-96857142D01*
X-22333333Y-96761904D01*
X-22333333Y-96571428D01*
X-22380952Y-96476190D01*
X-22428571Y-96428571D01*
X-22523809Y-96380952D01*
%TO.C,J7*%
X-18833333Y-72652380D02*
X-18833333Y-73366666D01*
X-18880952Y-73509523D01*
X-18976190Y-73604761D01*
X-19119047Y-73652380D01*
X-19214285Y-73652380D01*
X-18452380Y-72652380D02*
X-17785714Y-72652380D01*
X-18214285Y-73652380D01*
%TD*%
M02*
