%TF.GenerationSoftware,KiCad,Pcbnew,(5.1.6-0-10_14)*%
%TF.CreationDate,2020-08-22T01:25:31+09:00*%
%TF.ProjectId,break,62726561-6b2e-46b6-9963-61645f706362,rev?*%
%TF.SameCoordinates,Original*%
%TF.FileFunction,Soldermask,Bot*%
%TF.FilePolarity,Negative*%
%FSLAX46Y46*%
G04 Gerber Fmt 4.6, Leading zero omitted, Abs format (unit mm)*
G04 Created by KiCad (PCBNEW (5.1.6-0-10_14)) date 2020-08-22 01:25:31*
%MOMM*%
%LPD*%
G01*
G04 APERTURE LIST*
%ADD10C,2.350000*%
%ADD11C,2.150000*%
%ADD12O,1.800000X2.050000*%
G04 APERTURE END LIST*
D10*
%TO.C,J1*%
X-22540000Y-145040000D03*
X-22540000Y-139960000D03*
X-17460000Y-139960000D03*
X-17460000Y-145040000D03*
D11*
X-20000000Y-142500000D03*
%TD*%
%TO.C,J2*%
X12500000Y-142500000D03*
D10*
X15040000Y-145040000D03*
X15040000Y-139960000D03*
X9960000Y-139960000D03*
X9960000Y-145040000D03*
%TD*%
D11*
%TO.C,J3*%
X-20000000Y-125000000D03*
D10*
X-17460000Y-127540000D03*
X-17460000Y-122460000D03*
X-22540000Y-122460000D03*
X-22540000Y-127540000D03*
%TD*%
%TO.C,J4*%
X9960000Y-89040000D03*
X9960000Y-83960000D03*
X15040000Y-83960000D03*
X15040000Y-89040000D03*
D11*
X12500000Y-86500000D03*
%TD*%
%TO.C,J5*%
X-20000000Y-110000000D03*
D10*
X-17460000Y-112540000D03*
X-17460000Y-107460000D03*
X-22540000Y-107460000D03*
X-22540000Y-112540000D03*
%TD*%
%TO.C,U3*%
G36*
G01*
X-334207Y-89245793D02*
X-334208Y-89245792D01*
G75*
G02*
X-1253446Y-89245792I-459619J459619D01*
G01*
X-1536288Y-88962950D01*
G75*
G02*
X-1536288Y-88043712I459619J459619D01*
G01*
X-1536288Y-88043712D01*
G75*
G02*
X-617050Y-88043712I459619J-459619D01*
G01*
X-334208Y-88326554D01*
G75*
G02*
X-334208Y-89245792I-459619J-459619D01*
G01*
G37*
G36*
G01*
X379619Y-87039619D02*
X379619Y-87039619D01*
G75*
G02*
X-539619Y-87039619I-459619J459619D01*
G01*
X-539619Y-87039619D01*
G75*
G02*
X-539619Y-86120381I459619J459619D01*
G01*
X-539619Y-86120381D01*
G75*
G02*
X379619Y-86120381I459619J-459619D01*
G01*
X379619Y-86120381D01*
G75*
G02*
X379619Y-87039619I-459619J-459619D01*
G01*
G37*
G36*
G01*
X-475629Y-84974867D02*
X-475629Y-84974867D01*
G75*
G02*
X-1394867Y-84974867I-459619J459619D01*
G01*
X-1394867Y-84974867D01*
G75*
G02*
X-1394867Y-84055629I459619J459619D01*
G01*
X-1394867Y-84055629D01*
G75*
G02*
X-475629Y-84055629I459619J-459619D01*
G01*
X-475629Y-84055629D01*
G75*
G02*
X-475629Y-84974867I-459619J-459619D01*
G01*
G37*
G36*
G01*
X-2540381Y-84119619D02*
X-2540381Y-84119619D01*
G75*
G02*
X-3459619Y-84119619I-459619J459619D01*
G01*
X-3459619Y-84119619D01*
G75*
G02*
X-3459619Y-83200381I459619J459619D01*
G01*
X-3459619Y-83200381D01*
G75*
G02*
X-2540381Y-83200381I459619J-459619D01*
G01*
X-2540381Y-83200381D01*
G75*
G02*
X-2540381Y-84119619I-459619J-459619D01*
G01*
G37*
G36*
G01*
X-4605133Y-84974867D02*
X-4605133Y-84974867D01*
G75*
G02*
X-5524371Y-84974867I-459619J459619D01*
G01*
X-5524371Y-84974867D01*
G75*
G02*
X-5524371Y-84055629I459619J459619D01*
G01*
X-5524371Y-84055629D01*
G75*
G02*
X-4605133Y-84055629I459619J-459619D01*
G01*
X-4605133Y-84055629D01*
G75*
G02*
X-4605133Y-84974867I-459619J-459619D01*
G01*
G37*
G36*
G01*
X-5460381Y-87039619D02*
X-5460381Y-87039619D01*
G75*
G02*
X-6379619Y-87039619I-459619J459619D01*
G01*
X-6379619Y-87039619D01*
G75*
G02*
X-6379619Y-86120381I459619J459619D01*
G01*
X-6379619Y-86120381D01*
G75*
G02*
X-5460381Y-86120381I459619J-459619D01*
G01*
X-5460381Y-86120381D01*
G75*
G02*
X-5460381Y-87039619I-459619J-459619D01*
G01*
G37*
G36*
G01*
X-4605133Y-89104371D02*
X-4605133Y-89104371D01*
G75*
G02*
X-5524371Y-89104371I-459619J459619D01*
G01*
X-5524371Y-89104371D01*
G75*
G02*
X-5524371Y-88185133I459619J459619D01*
G01*
X-5524371Y-88185133D01*
G75*
G02*
X-4605133Y-88185133I459619J-459619D01*
G01*
X-4605133Y-88185133D01*
G75*
G02*
X-4605133Y-89104371I-459619J-459619D01*
G01*
G37*
G36*
G01*
X-2540381Y-89959619D02*
X-2540381Y-89959619D01*
G75*
G02*
X-3459619Y-89959619I-459619J459619D01*
G01*
X-3459619Y-89959619D01*
G75*
G02*
X-3459619Y-89040381I459619J459619D01*
G01*
X-3459619Y-89040381D01*
G75*
G02*
X-2540381Y-89040381I459619J-459619D01*
G01*
X-2540381Y-89040381D01*
G75*
G02*
X-2540381Y-89959619I-459619J-459619D01*
G01*
G37*
%TD*%
D12*
%TO.C,J6*%
X-16000000Y-156000000D03*
X-18500000Y-156000000D03*
G36*
G01*
X-21900000Y-156760294D02*
X-21900000Y-155239706D01*
G75*
G02*
X-21635294Y-154975000I264706J0D01*
G01*
X-20364706Y-154975000D01*
G75*
G02*
X-20100000Y-155239706I0J-264706D01*
G01*
X-20100000Y-156760294D01*
G75*
G02*
X-20364706Y-157025000I-264706J0D01*
G01*
X-21635294Y-157025000D01*
G75*
G02*
X-21900000Y-156760294I0J264706D01*
G01*
G37*
%TD*%
%TO.C,J8*%
G36*
G01*
X-21900000Y-100260294D02*
X-21900000Y-98739706D01*
G75*
G02*
X-21635294Y-98475000I264706J0D01*
G01*
X-20364706Y-98475000D01*
G75*
G02*
X-20100000Y-98739706I0J-264706D01*
G01*
X-20100000Y-100260294D01*
G75*
G02*
X-20364706Y-100525000I-264706J0D01*
G01*
X-21635294Y-100525000D01*
G75*
G02*
X-21900000Y-100260294I0J264706D01*
G01*
G37*
X-18500000Y-99500000D03*
X-16000000Y-99500000D03*
%TD*%
%TO.C,J7*%
G36*
G01*
X-21900000Y-76760294D02*
X-21900000Y-75239706D01*
G75*
G02*
X-21635294Y-74975000I264706J0D01*
G01*
X-20364706Y-74975000D01*
G75*
G02*
X-20100000Y-75239706I0J-264706D01*
G01*
X-20100000Y-76760294D01*
G75*
G02*
X-20364706Y-77025000I-264706J0D01*
G01*
X-21635294Y-77025000D01*
G75*
G02*
X-21900000Y-76760294I0J264706D01*
G01*
G37*
X-18500000Y-76000000D03*
X-16000000Y-76000000D03*
%TD*%
M02*
