M48
; DRILL file {KiCad (5.1.6-0-10_14)} date Saturday, August 22, 2020 at 01:25:37 AM
; FORMAT={-:-/ absolute / inch / decimal}
; #@! TF.CreationDate,2020-08-22T01:25:37+09:00
; #@! TF.GenerationSoftware,Kicad,Pcbnew,(5.1.6-0-10_14)
FMAT,2
INCH
T1C0.0157
T2C0.0276
T3C0.0374
T4C0.0591
T5C0.0669
%
G90
G05
T1
X-0.374Y-4.5669
X-0.374Y-5.2165
X-0.3543Y-3.1102
X-0.2953Y-3.563
X-0.2953Y-4.4488
X-0.0591Y-4.8228
X0.0394Y-4.252
T2
X-0.2331Y-3.4087
X-0.1994Y-3.3274
X-0.1994Y-3.49
X-0.1181Y-3.2937
X-0.1181Y-3.5236
X-0.0368Y-3.3274
X-0.0368Y-3.49
X-0.0031Y-3.4087
T3
X-0.8268Y-3.9173
X-0.7283Y-3.9173
X-0.6299Y-3.9173
X-0.8268Y-6.1417
X-0.7283Y-6.1417
X-0.6299Y-6.1417
X-0.8268Y-2.9921
X-0.7283Y-2.9921
X-0.6299Y-2.9921
T4
X-0.7874Y-4.3307
X0.4921Y-3.4055
X-0.7874Y-5.6102
X-0.7874Y-4.9213
X0.4921Y-5.6102
T5
X-0.8874Y-4.2307
X-0.8874Y-4.4307
X-0.6874Y-4.2307
X-0.6874Y-4.4307
X0.3921Y-3.3055
X0.3921Y-3.5055
X0.5921Y-3.5055
X-0.8874Y-5.5102
X-0.8874Y-5.7102
X-0.6874Y-5.5102
X-0.6874Y-5.7102
X-0.8874Y-4.8213
X-0.8874Y-5.0213
X-0.6874Y-4.8213
X-0.6874Y-5.0213
X0.3921Y-5.5102
X0.3921Y-5.7102
X0.5921Y-5.5102
X0.5921Y-5.7102
X0.5921Y-3.3055
T0
M30
