%TF.GenerationSoftware,KiCad,Pcbnew,(5.1.6-0-10_14)*%
%TF.CreationDate,2020-08-22T01:25:31+09:00*%
%TF.ProjectId,break,62726561-6b2e-46b6-9963-61645f706362,rev?*%
%TF.SameCoordinates,Original*%
%TF.FileFunction,Soldermask,Top*%
%TF.FilePolarity,Negative*%
%FSLAX46Y46*%
G04 Gerber Fmt 4.6, Leading zero omitted, Abs format (unit mm)*
G04 Created by KiCad (PCBNEW (5.1.6-0-10_14)) date 2020-08-22 01:25:31*
%MOMM*%
%LPD*%
G01*
G04 APERTURE LIST*
%ADD10C,2.350000*%
%ADD11C,2.150000*%
%ADD12R,1.300000X0.500000*%
%ADD13O,1.800000X2.050000*%
G04 APERTURE END LIST*
%TO.C,C1*%
G36*
G01*
X481250Y-141475000D02*
X-481250Y-141475000D01*
G75*
G02*
X-750000Y-141206250I0J268750D01*
G01*
X-750000Y-140668750D01*
G75*
G02*
X-481250Y-140400000I268750J0D01*
G01*
X481250Y-140400000D01*
G75*
G02*
X750000Y-140668750I0J-268750D01*
G01*
X750000Y-141206250D01*
G75*
G02*
X481250Y-141475000I-268750J0D01*
G01*
G37*
G36*
G01*
X481250Y-139600000D02*
X-481250Y-139600000D01*
G75*
G02*
X-750000Y-139331250I0J268750D01*
G01*
X-750000Y-138793750D01*
G75*
G02*
X-481250Y-138525000I268750J0D01*
G01*
X481250Y-138525000D01*
G75*
G02*
X750000Y-138793750I0J-268750D01*
G01*
X750000Y-139331250D01*
G75*
G02*
X481250Y-139600000I-268750J0D01*
G01*
G37*
%TD*%
%TO.C,C2*%
G36*
G01*
X2981250Y-139600000D02*
X2018750Y-139600000D01*
G75*
G02*
X1750000Y-139331250I0J268750D01*
G01*
X1750000Y-138793750D01*
G75*
G02*
X2018750Y-138525000I268750J0D01*
G01*
X2981250Y-138525000D01*
G75*
G02*
X3250000Y-138793750I0J-268750D01*
G01*
X3250000Y-139331250D01*
G75*
G02*
X2981250Y-139600000I-268750J0D01*
G01*
G37*
G36*
G01*
X2981250Y-141475000D02*
X2018750Y-141475000D01*
G75*
G02*
X1750000Y-141206250I0J268750D01*
G01*
X1750000Y-140668750D01*
G75*
G02*
X2018750Y-140400000I268750J0D01*
G01*
X2981250Y-140400000D01*
G75*
G02*
X3250000Y-140668750I0J-268750D01*
G01*
X3250000Y-141206250D01*
G75*
G02*
X2981250Y-141475000I-268750J0D01*
G01*
G37*
%TD*%
%TO.C,C3*%
G36*
G01*
X-6162500Y-147981250D02*
X-6162500Y-147018750D01*
G75*
G02*
X-5893750Y-146750000I268750J0D01*
G01*
X-5356250Y-146750000D01*
G75*
G02*
X-5087500Y-147018750I0J-268750D01*
G01*
X-5087500Y-147981250D01*
G75*
G02*
X-5356250Y-148250000I-268750J0D01*
G01*
X-5893750Y-148250000D01*
G75*
G02*
X-6162500Y-147981250I0J268750D01*
G01*
G37*
G36*
G01*
X-8037500Y-147981250D02*
X-8037500Y-147018750D01*
G75*
G02*
X-7768750Y-146750000I268750J0D01*
G01*
X-7231250Y-146750000D01*
G75*
G02*
X-6962500Y-147018750I0J-268750D01*
G01*
X-6962500Y-147981250D01*
G75*
G02*
X-7231250Y-148250000I-268750J0D01*
G01*
X-7768750Y-148250000D01*
G75*
G02*
X-8037500Y-147981250I0J268750D01*
G01*
G37*
%TD*%
%TO.C,C4*%
G36*
G01*
X-8037500Y-150481250D02*
X-8037500Y-149518750D01*
G75*
G02*
X-7768750Y-149250000I268750J0D01*
G01*
X-7231250Y-149250000D01*
G75*
G02*
X-6962500Y-149518750I0J-268750D01*
G01*
X-6962500Y-150481250D01*
G75*
G02*
X-7231250Y-150750000I-268750J0D01*
G01*
X-7768750Y-150750000D01*
G75*
G02*
X-8037500Y-150481250I0J268750D01*
G01*
G37*
G36*
G01*
X-6162500Y-150481250D02*
X-6162500Y-149518750D01*
G75*
G02*
X-5893750Y-149250000I268750J0D01*
G01*
X-5356250Y-149250000D01*
G75*
G02*
X-5087500Y-149518750I0J-268750D01*
G01*
X-5087500Y-150481250D01*
G75*
G02*
X-5356250Y-150750000I-268750J0D01*
G01*
X-5893750Y-150750000D01*
G75*
G02*
X-6162500Y-150481250I0J268750D01*
G01*
G37*
%TD*%
%TO.C,C5*%
G36*
G01*
X-10037500Y-129981250D02*
X-10037500Y-129018750D01*
G75*
G02*
X-9768750Y-128750000I268750J0D01*
G01*
X-9231250Y-128750000D01*
G75*
G02*
X-8962500Y-129018750I0J-268750D01*
G01*
X-8962500Y-129981250D01*
G75*
G02*
X-9231250Y-130250000I-268750J0D01*
G01*
X-9768750Y-130250000D01*
G75*
G02*
X-10037500Y-129981250I0J268750D01*
G01*
G37*
G36*
G01*
X-8162500Y-129981250D02*
X-8162500Y-129018750D01*
G75*
G02*
X-7893750Y-128750000I268750J0D01*
G01*
X-7356250Y-128750000D01*
G75*
G02*
X-7087500Y-129018750I0J-268750D01*
G01*
X-7087500Y-129981250D01*
G75*
G02*
X-7356250Y-130250000I-268750J0D01*
G01*
X-7893750Y-130250000D01*
G75*
G02*
X-8162500Y-129981250I0J268750D01*
G01*
G37*
%TD*%
%TO.C,C6*%
G36*
G01*
X-10037500Y-131981250D02*
X-10037500Y-131018750D01*
G75*
G02*
X-9768750Y-130750000I268750J0D01*
G01*
X-9231250Y-130750000D01*
G75*
G02*
X-8962500Y-131018750I0J-268750D01*
G01*
X-8962500Y-131981250D01*
G75*
G02*
X-9231250Y-132250000I-268750J0D01*
G01*
X-9768750Y-132250000D01*
G75*
G02*
X-10037500Y-131981250I0J268750D01*
G01*
G37*
G36*
G01*
X-8162500Y-131981250D02*
X-8162500Y-131018750D01*
G75*
G02*
X-7893750Y-130750000I268750J0D01*
G01*
X-7356250Y-130750000D01*
G75*
G02*
X-7087500Y-131018750I0J-268750D01*
G01*
X-7087500Y-131981250D01*
G75*
G02*
X-7356250Y-132250000I-268750J0D01*
G01*
X-7893750Y-132250000D01*
G75*
G02*
X-8162500Y-131981250I0J268750D01*
G01*
G37*
%TD*%
%TO.C,C7*%
G36*
G01*
X-2037500Y-121981250D02*
X-2037500Y-121018750D01*
G75*
G02*
X-1768750Y-120750000I268750J0D01*
G01*
X-1231250Y-120750000D01*
G75*
G02*
X-962500Y-121018750I0J-268750D01*
G01*
X-962500Y-121981250D01*
G75*
G02*
X-1231250Y-122250000I-268750J0D01*
G01*
X-1768750Y-122250000D01*
G75*
G02*
X-2037500Y-121981250I0J268750D01*
G01*
G37*
G36*
G01*
X-162500Y-121981250D02*
X-162500Y-121018750D01*
G75*
G02*
X106250Y-120750000I268750J0D01*
G01*
X643750Y-120750000D01*
G75*
G02*
X912500Y-121018750I0J-268750D01*
G01*
X912500Y-121981250D01*
G75*
G02*
X643750Y-122250000I-268750J0D01*
G01*
X106250Y-122250000D01*
G75*
G02*
X-162500Y-121981250I0J268750D01*
G01*
G37*
%TD*%
%TO.C,C8*%
G36*
G01*
X-162500Y-119981250D02*
X-162500Y-119018750D01*
G75*
G02*
X106250Y-118750000I268750J0D01*
G01*
X643750Y-118750000D01*
G75*
G02*
X912500Y-119018750I0J-268750D01*
G01*
X912500Y-119981250D01*
G75*
G02*
X643750Y-120250000I-268750J0D01*
G01*
X106250Y-120250000D01*
G75*
G02*
X-162500Y-119981250I0J268750D01*
G01*
G37*
G36*
G01*
X-2037500Y-119981250D02*
X-2037500Y-119018750D01*
G75*
G02*
X-1768750Y-118750000I268750J0D01*
G01*
X-1231250Y-118750000D01*
G75*
G02*
X-962500Y-119018750I0J-268750D01*
G01*
X-962500Y-119981250D01*
G75*
G02*
X-1231250Y-120250000I-268750J0D01*
G01*
X-1768750Y-120250000D01*
G75*
G02*
X-2037500Y-119981250I0J268750D01*
G01*
G37*
%TD*%
%TO.C,C9*%
G36*
G01*
X-6953809Y-91539775D02*
X-7634399Y-92220365D01*
G75*
G02*
X-8014469Y-92220365I-190035J190035D01*
G01*
X-8394539Y-91840295D01*
G75*
G02*
X-8394539Y-91460225I190035J190035D01*
G01*
X-7713949Y-90779635D01*
G75*
G02*
X-7333879Y-90779635I190035J-190035D01*
G01*
X-6953809Y-91159705D01*
G75*
G02*
X-6953809Y-91539775I-190035J-190035D01*
G01*
G37*
G36*
G01*
X-8279635Y-90213949D02*
X-8960225Y-90894539D01*
G75*
G02*
X-9340295Y-90894539I-190035J190035D01*
G01*
X-9720365Y-90514469D01*
G75*
G02*
X-9720365Y-90134399I190035J190035D01*
G01*
X-9039775Y-89453809D01*
G75*
G02*
X-8659705Y-89453809I190035J-190035D01*
G01*
X-8279635Y-89833879D01*
G75*
G02*
X-8279635Y-90213949I-190035J-190035D01*
G01*
G37*
%TD*%
%TO.C,C10*%
G36*
G01*
X-9779635Y-91713949D02*
X-10460225Y-92394539D01*
G75*
G02*
X-10840295Y-92394539I-190035J190035D01*
G01*
X-11220365Y-92014469D01*
G75*
G02*
X-11220365Y-91634399I190035J190035D01*
G01*
X-10539775Y-90953809D01*
G75*
G02*
X-10159705Y-90953809I190035J-190035D01*
G01*
X-9779635Y-91333879D01*
G75*
G02*
X-9779635Y-91713949I-190035J-190035D01*
G01*
G37*
G36*
G01*
X-8453809Y-93039775D02*
X-9134399Y-93720365D01*
G75*
G02*
X-9514469Y-93720365I-190035J190035D01*
G01*
X-9894539Y-93340295D01*
G75*
G02*
X-9894539Y-92960225I190035J190035D01*
G01*
X-9213949Y-92279635D01*
G75*
G02*
X-8833879Y-92279635I190035J-190035D01*
G01*
X-8453809Y-92659705D01*
G75*
G02*
X-8453809Y-93039775I-190035J-190035D01*
G01*
G37*
%TD*%
%TO.C,C11*%
G36*
G01*
X-6460225Y-80779635D02*
X-5779635Y-81460225D01*
G75*
G02*
X-5779635Y-81840295I-190035J-190035D01*
G01*
X-6159705Y-82220365D01*
G75*
G02*
X-6539775Y-82220365I-190035J190035D01*
G01*
X-7220365Y-81539775D01*
G75*
G02*
X-7220365Y-81159705I190035J190035D01*
G01*
X-6840295Y-80779635D01*
G75*
G02*
X-6460225Y-80779635I190035J-190035D01*
G01*
G37*
G36*
G01*
X-7786051Y-82105461D02*
X-7105461Y-82786051D01*
G75*
G02*
X-7105461Y-83166121I-190035J-190035D01*
G01*
X-7485531Y-83546191D01*
G75*
G02*
X-7865601Y-83546191I-190035J190035D01*
G01*
X-8546191Y-82865601D01*
G75*
G02*
X-8546191Y-82485531I190035J190035D01*
G01*
X-8166121Y-82105461D01*
G75*
G02*
X-7786051Y-82105461I190035J-190035D01*
G01*
G37*
%TD*%
%TO.C,C12*%
G36*
G01*
X3105461Y-80786051D02*
X3786051Y-80105461D01*
G75*
G02*
X4166121Y-80105461I190035J-190035D01*
G01*
X4546191Y-80485531D01*
G75*
G02*
X4546191Y-80865601I-190035J-190035D01*
G01*
X3865601Y-81546191D01*
G75*
G02*
X3485531Y-81546191I-190035J190035D01*
G01*
X3105461Y-81166121D01*
G75*
G02*
X3105461Y-80786051I190035J190035D01*
G01*
G37*
G36*
G01*
X1779635Y-79460225D02*
X2460225Y-78779635D01*
G75*
G02*
X2840295Y-78779635I190035J-190035D01*
G01*
X3220365Y-79159705D01*
G75*
G02*
X3220365Y-79539775I-190035J-190035D01*
G01*
X2539775Y-80220365D01*
G75*
G02*
X2159705Y-80220365I-190035J190035D01*
G01*
X1779635Y-79840295D01*
G75*
G02*
X1779635Y-79460225I190035J190035D01*
G01*
G37*
%TD*%
%TO.C,C13*%
G36*
G01*
X-9286051Y-80605461D02*
X-8605461Y-81286051D01*
G75*
G02*
X-8605461Y-81666121I-190035J-190035D01*
G01*
X-8985531Y-82046191D01*
G75*
G02*
X-9365601Y-82046191I-190035J190035D01*
G01*
X-10046191Y-81365601D01*
G75*
G02*
X-10046191Y-80985531I190035J190035D01*
G01*
X-9666121Y-80605461D01*
G75*
G02*
X-9286051Y-80605461I190035J-190035D01*
G01*
G37*
G36*
G01*
X-7960225Y-79279635D02*
X-7279635Y-79960225D01*
G75*
G02*
X-7279635Y-80340295I-190035J-190035D01*
G01*
X-7659705Y-80720365D01*
G75*
G02*
X-8039775Y-80720365I-190035J190035D01*
G01*
X-8720365Y-80039775D01*
G75*
G02*
X-8720365Y-79659705I190035J190035D01*
G01*
X-8340295Y-79279635D01*
G75*
G02*
X-7960225Y-79279635I190035J-190035D01*
G01*
G37*
%TD*%
%TO.C,C14*%
G36*
G01*
X-5537500Y-114981250D02*
X-5537500Y-114018750D01*
G75*
G02*
X-5268750Y-113750000I268750J0D01*
G01*
X-4731250Y-113750000D01*
G75*
G02*
X-4462500Y-114018750I0J-268750D01*
G01*
X-4462500Y-114981250D01*
G75*
G02*
X-4731250Y-115250000I-268750J0D01*
G01*
X-5268750Y-115250000D01*
G75*
G02*
X-5537500Y-114981250I0J268750D01*
G01*
G37*
G36*
G01*
X-7412500Y-114981250D02*
X-7412500Y-114018750D01*
G75*
G02*
X-7143750Y-113750000I268750J0D01*
G01*
X-6606250Y-113750000D01*
G75*
G02*
X-6337500Y-114018750I0J-268750D01*
G01*
X-6337500Y-114981250D01*
G75*
G02*
X-6606250Y-115250000I-268750J0D01*
G01*
X-7143750Y-115250000D01*
G75*
G02*
X-7412500Y-114981250I0J268750D01*
G01*
G37*
%TD*%
%TO.C,C15*%
G36*
G01*
X-912500Y-106481250D02*
X-912500Y-105518750D01*
G75*
G02*
X-643750Y-105250000I268750J0D01*
G01*
X-106250Y-105250000D01*
G75*
G02*
X162500Y-105518750I0J-268750D01*
G01*
X162500Y-106481250D01*
G75*
G02*
X-106250Y-106750000I-268750J0D01*
G01*
X-643750Y-106750000D01*
G75*
G02*
X-912500Y-106481250I0J268750D01*
G01*
G37*
G36*
G01*
X962500Y-106481250D02*
X962500Y-105518750D01*
G75*
G02*
X1231250Y-105250000I268750J0D01*
G01*
X1768750Y-105250000D01*
G75*
G02*
X2037500Y-105518750I0J-268750D01*
G01*
X2037500Y-106481250D01*
G75*
G02*
X1768750Y-106750000I-268750J0D01*
G01*
X1231250Y-106750000D01*
G75*
G02*
X962500Y-106481250I0J268750D01*
G01*
G37*
%TD*%
D10*
%TO.C,J1*%
X-22540000Y-145040000D03*
X-22540000Y-139960000D03*
X-17460000Y-139960000D03*
X-17460000Y-145040000D03*
D11*
X-20000000Y-142500000D03*
%TD*%
%TO.C,J2*%
X12500000Y-142500000D03*
D10*
X15040000Y-145040000D03*
X15040000Y-139960000D03*
X9960000Y-139960000D03*
X9960000Y-145040000D03*
%TD*%
D11*
%TO.C,J3*%
X-20000000Y-125000000D03*
D10*
X-17460000Y-127540000D03*
X-17460000Y-122460000D03*
X-22540000Y-122460000D03*
X-22540000Y-127540000D03*
%TD*%
%TO.C,J4*%
X9960000Y-89040000D03*
X9960000Y-83960000D03*
X15040000Y-83960000D03*
X15040000Y-89040000D03*
D11*
X12500000Y-86500000D03*
%TD*%
%TO.C,J5*%
X-20000000Y-110000000D03*
D10*
X-17460000Y-112540000D03*
X-17460000Y-107460000D03*
X-22540000Y-107460000D03*
X-22540000Y-112540000D03*
%TD*%
%TO.C,R1*%
G36*
G01*
X-11755000Y-142925000D02*
X-10445000Y-142925000D01*
G75*
G02*
X-10175000Y-143195000I0J-270000D01*
G01*
X-10175000Y-144005000D01*
G75*
G02*
X-10445000Y-144275000I-270000J0D01*
G01*
X-11755000Y-144275000D01*
G75*
G02*
X-12025000Y-144005000I0J270000D01*
G01*
X-12025000Y-143195000D01*
G75*
G02*
X-11755000Y-142925000I270000J0D01*
G01*
G37*
G36*
G01*
X-11755000Y-145725000D02*
X-10445000Y-145725000D01*
G75*
G02*
X-10175000Y-145995000I0J-270000D01*
G01*
X-10175000Y-146805000D01*
G75*
G02*
X-10445000Y-147075000I-270000J0D01*
G01*
X-11755000Y-147075000D01*
G75*
G02*
X-12025000Y-146805000I0J270000D01*
G01*
X-12025000Y-145995000D01*
G75*
G02*
X-11755000Y-145725000I270000J0D01*
G01*
G37*
%TD*%
%TO.C,R2*%
G36*
G01*
X-5325000Y-136845000D02*
X-5325000Y-138155000D01*
G75*
G02*
X-5595000Y-138425000I-270000J0D01*
G01*
X-6405000Y-138425000D01*
G75*
G02*
X-6675000Y-138155000I0J270000D01*
G01*
X-6675000Y-136845000D01*
G75*
G02*
X-6405000Y-136575000I270000J0D01*
G01*
X-5595000Y-136575000D01*
G75*
G02*
X-5325000Y-136845000I0J-270000D01*
G01*
G37*
G36*
G01*
X-2525000Y-136845000D02*
X-2525000Y-138155000D01*
G75*
G02*
X-2795000Y-138425000I-270000J0D01*
G01*
X-3605000Y-138425000D01*
G75*
G02*
X-3875000Y-138155000I0J270000D01*
G01*
X-3875000Y-136845000D01*
G75*
G02*
X-3605000Y-136575000I270000J0D01*
G01*
X-2795000Y-136575000D01*
G75*
G02*
X-2525000Y-136845000I0J-270000D01*
G01*
G37*
%TD*%
%TO.C,R3*%
G36*
G01*
X-7325000Y-136845000D02*
X-7325000Y-138155000D01*
G75*
G02*
X-7595000Y-138425000I-270000J0D01*
G01*
X-8405000Y-138425000D01*
G75*
G02*
X-8675000Y-138155000I0J270000D01*
G01*
X-8675000Y-136845000D01*
G75*
G02*
X-8405000Y-136575000I270000J0D01*
G01*
X-7595000Y-136575000D01*
G75*
G02*
X-7325000Y-136845000I0J-270000D01*
G01*
G37*
G36*
G01*
X-10125000Y-136845000D02*
X-10125000Y-138155000D01*
G75*
G02*
X-10395000Y-138425000I-270000J0D01*
G01*
X-11205000Y-138425000D01*
G75*
G02*
X-11475000Y-138155000I0J270000D01*
G01*
X-11475000Y-136845000D01*
G75*
G02*
X-11205000Y-136575000I270000J0D01*
G01*
X-10395000Y-136575000D01*
G75*
G02*
X-10125000Y-136845000I0J-270000D01*
G01*
G37*
%TD*%
%TO.C,R4*%
G36*
G01*
X3245000Y-135325000D02*
X4555000Y-135325000D01*
G75*
G02*
X4825000Y-135595000I0J-270000D01*
G01*
X4825000Y-136405000D01*
G75*
G02*
X4555000Y-136675000I-270000J0D01*
G01*
X3245000Y-136675000D01*
G75*
G02*
X2975000Y-136405000I0J270000D01*
G01*
X2975000Y-135595000D01*
G75*
G02*
X3245000Y-135325000I270000J0D01*
G01*
G37*
G36*
G01*
X3245000Y-132525000D02*
X4555000Y-132525000D01*
G75*
G02*
X4825000Y-132795000I0J-270000D01*
G01*
X4825000Y-133605000D01*
G75*
G02*
X4555000Y-133875000I-270000J0D01*
G01*
X3245000Y-133875000D01*
G75*
G02*
X2975000Y-133605000I0J270000D01*
G01*
X2975000Y-132795000D01*
G75*
G02*
X3245000Y-132525000I270000J0D01*
G01*
G37*
%TD*%
%TO.C,R5*%
G36*
G01*
X-5275000Y-121155000D02*
X-5275000Y-119845000D01*
G75*
G02*
X-5005000Y-119575000I270000J0D01*
G01*
X-4195000Y-119575000D01*
G75*
G02*
X-3925000Y-119845000I0J-270000D01*
G01*
X-3925000Y-121155000D01*
G75*
G02*
X-4195000Y-121425000I-270000J0D01*
G01*
X-5005000Y-121425000D01*
G75*
G02*
X-5275000Y-121155000I0J270000D01*
G01*
G37*
G36*
G01*
X-8075000Y-121155000D02*
X-8075000Y-119845000D01*
G75*
G02*
X-7805000Y-119575000I270000J0D01*
G01*
X-6995000Y-119575000D01*
G75*
G02*
X-6725000Y-119845000I0J-270000D01*
G01*
X-6725000Y-121155000D01*
G75*
G02*
X-6995000Y-121425000I-270000J0D01*
G01*
X-7805000Y-121425000D01*
G75*
G02*
X-8075000Y-121155000I0J270000D01*
G01*
G37*
%TD*%
%TO.C,R6*%
G36*
G01*
X-440452Y-80975807D02*
X485858Y-80049497D01*
G75*
G02*
X867696Y-80049497I190919J-190919D01*
G01*
X1440452Y-80622253D01*
G75*
G02*
X1440452Y-81004091I-190919J-190919D01*
G01*
X514142Y-81930401D01*
G75*
G02*
X132304Y-81930401I-190919J190919D01*
G01*
X-440452Y-81357645D01*
G75*
G02*
X-440452Y-80975807I190919J190919D01*
G01*
G37*
G36*
G01*
X1539446Y-82955705D02*
X2465756Y-82029395D01*
G75*
G02*
X2847594Y-82029395I190919J-190919D01*
G01*
X3420350Y-82602151D01*
G75*
G02*
X3420350Y-82983989I-190919J-190919D01*
G01*
X2494040Y-83910299D01*
G75*
G02*
X2112202Y-83910299I-190919J190919D01*
G01*
X1539446Y-83337543D01*
G75*
G02*
X1539446Y-82955705I190919J190919D01*
G01*
G37*
%TD*%
%TO.C,R7*%
G36*
G01*
X6655000Y-112475000D02*
X5345000Y-112475000D01*
G75*
G02*
X5075000Y-112205000I0J270000D01*
G01*
X5075000Y-111395000D01*
G75*
G02*
X5345000Y-111125000I270000J0D01*
G01*
X6655000Y-111125000D01*
G75*
G02*
X6925000Y-111395000I0J-270000D01*
G01*
X6925000Y-112205000D01*
G75*
G02*
X6655000Y-112475000I-270000J0D01*
G01*
G37*
G36*
G01*
X6655000Y-109675000D02*
X5345000Y-109675000D01*
G75*
G02*
X5075000Y-109405000I0J270000D01*
G01*
X5075000Y-108595000D01*
G75*
G02*
X5345000Y-108325000I270000J0D01*
G01*
X6655000Y-108325000D01*
G75*
G02*
X6925000Y-108595000I0J-270000D01*
G01*
X6925000Y-109405000D01*
G75*
G02*
X6655000Y-109675000I-270000J0D01*
G01*
G37*
%TD*%
%TO.C,R8*%
G36*
G01*
X2825000Y-107155000D02*
X2825000Y-105845000D01*
G75*
G02*
X3095000Y-105575000I270000J0D01*
G01*
X3905000Y-105575000D01*
G75*
G02*
X4175000Y-105845000I0J-270000D01*
G01*
X4175000Y-107155000D01*
G75*
G02*
X3905000Y-107425000I-270000J0D01*
G01*
X3095000Y-107425000D01*
G75*
G02*
X2825000Y-107155000I0J270000D01*
G01*
G37*
G36*
G01*
X5625000Y-107155000D02*
X5625000Y-105845000D01*
G75*
G02*
X5895000Y-105575000I270000J0D01*
G01*
X6705000Y-105575000D01*
G75*
G02*
X6975000Y-105845000I0J-270000D01*
G01*
X6975000Y-107155000D01*
G75*
G02*
X6705000Y-107425000I-270000J0D01*
G01*
X5895000Y-107425000D01*
G75*
G02*
X5625000Y-107155000I0J270000D01*
G01*
G37*
%TD*%
%TO.C,R9*%
G36*
G01*
X2345000Y-111125000D02*
X3655000Y-111125000D01*
G75*
G02*
X3925000Y-111395000I0J-270000D01*
G01*
X3925000Y-112205000D01*
G75*
G02*
X3655000Y-112475000I-270000J0D01*
G01*
X2345000Y-112475000D01*
G75*
G02*
X2075000Y-112205000I0J270000D01*
G01*
X2075000Y-111395000D01*
G75*
G02*
X2345000Y-111125000I270000J0D01*
G01*
G37*
G36*
G01*
X2345000Y-108325000D02*
X3655000Y-108325000D01*
G75*
G02*
X3925000Y-108595000I0J-270000D01*
G01*
X3925000Y-109405000D01*
G75*
G02*
X3655000Y-109675000I-270000J0D01*
G01*
X2345000Y-109675000D01*
G75*
G02*
X2075000Y-109405000I0J270000D01*
G01*
X2075000Y-108595000D01*
G75*
G02*
X2345000Y-108325000I270000J0D01*
G01*
G37*
%TD*%
%TO.C,R10*%
G36*
G01*
X-11375000Y-111155000D02*
X-11375000Y-109845000D01*
G75*
G02*
X-11105000Y-109575000I270000J0D01*
G01*
X-10295000Y-109575000D01*
G75*
G02*
X-10025000Y-109845000I0J-270000D01*
G01*
X-10025000Y-111155000D01*
G75*
G02*
X-10295000Y-111425000I-270000J0D01*
G01*
X-11105000Y-111425000D01*
G75*
G02*
X-11375000Y-111155000I0J270000D01*
G01*
G37*
G36*
G01*
X-14175000Y-111155000D02*
X-14175000Y-109845000D01*
G75*
G02*
X-13905000Y-109575000I270000J0D01*
G01*
X-13095000Y-109575000D01*
G75*
G02*
X-12825000Y-109845000I0J-270000D01*
G01*
X-12825000Y-111155000D01*
G75*
G02*
X-13095000Y-111425000I-270000J0D01*
G01*
X-13905000Y-111425000D01*
G75*
G02*
X-14175000Y-111155000I0J270000D01*
G01*
G37*
%TD*%
%TO.C,R11*%
G36*
G01*
X-10345000Y-113675000D02*
X-11655000Y-113675000D01*
G75*
G02*
X-11925000Y-113405000I0J270000D01*
G01*
X-11925000Y-112595000D01*
G75*
G02*
X-11655000Y-112325000I270000J0D01*
G01*
X-10345000Y-112325000D01*
G75*
G02*
X-10075000Y-112595000I0J-270000D01*
G01*
X-10075000Y-113405000D01*
G75*
G02*
X-10345000Y-113675000I-270000J0D01*
G01*
G37*
G36*
G01*
X-10345000Y-116475000D02*
X-11655000Y-116475000D01*
G75*
G02*
X-11925000Y-116205000I0J270000D01*
G01*
X-11925000Y-115395000D01*
G75*
G02*
X-11655000Y-115125000I270000J0D01*
G01*
X-10345000Y-115125000D01*
G75*
G02*
X-10075000Y-115395000I0J-270000D01*
G01*
X-10075000Y-116205000D01*
G75*
G02*
X-10345000Y-116475000I-270000J0D01*
G01*
G37*
%TD*%
%TO.C,R12*%
G36*
G01*
X-14175000Y-108655000D02*
X-14175000Y-107345000D01*
G75*
G02*
X-13905000Y-107075000I270000J0D01*
G01*
X-13095000Y-107075000D01*
G75*
G02*
X-12825000Y-107345000I0J-270000D01*
G01*
X-12825000Y-108655000D01*
G75*
G02*
X-13095000Y-108925000I-270000J0D01*
G01*
X-13905000Y-108925000D01*
G75*
G02*
X-14175000Y-108655000I0J270000D01*
G01*
G37*
G36*
G01*
X-11375000Y-108655000D02*
X-11375000Y-107345000D01*
G75*
G02*
X-11105000Y-107075000I270000J0D01*
G01*
X-10295000Y-107075000D01*
G75*
G02*
X-10025000Y-107345000I0J-270000D01*
G01*
X-10025000Y-108655000D01*
G75*
G02*
X-10295000Y-108925000I-270000J0D01*
G01*
X-11105000Y-108925000D01*
G75*
G02*
X-11375000Y-108655000I0J270000D01*
G01*
G37*
%TD*%
%TO.C,U1*%
G36*
G01*
X-3550000Y-140770000D02*
X-3550000Y-140420000D01*
G75*
G02*
X-3375000Y-140245000I175000J0D01*
G01*
X-1675000Y-140245000D01*
G75*
G02*
X-1500000Y-140420000I0J-175000D01*
G01*
X-1500000Y-140770000D01*
G75*
G02*
X-1675000Y-140945000I-175000J0D01*
G01*
X-3375000Y-140945000D01*
G75*
G02*
X-3550000Y-140770000I0J175000D01*
G01*
G37*
G36*
G01*
X-3550000Y-142040000D02*
X-3550000Y-141690000D01*
G75*
G02*
X-3375000Y-141515000I175000J0D01*
G01*
X-1675000Y-141515000D01*
G75*
G02*
X-1500000Y-141690000I0J-175000D01*
G01*
X-1500000Y-142040000D01*
G75*
G02*
X-1675000Y-142215000I-175000J0D01*
G01*
X-3375000Y-142215000D01*
G75*
G02*
X-3550000Y-142040000I0J175000D01*
G01*
G37*
G36*
G01*
X-3550000Y-143310000D02*
X-3550000Y-142960000D01*
G75*
G02*
X-3375000Y-142785000I175000J0D01*
G01*
X-1675000Y-142785000D01*
G75*
G02*
X-1500000Y-142960000I0J-175000D01*
G01*
X-1500000Y-143310000D01*
G75*
G02*
X-1675000Y-143485000I-175000J0D01*
G01*
X-3375000Y-143485000D01*
G75*
G02*
X-3550000Y-143310000I0J175000D01*
G01*
G37*
G36*
G01*
X-3550000Y-144580000D02*
X-3550000Y-144230000D01*
G75*
G02*
X-3375000Y-144055000I175000J0D01*
G01*
X-1675000Y-144055000D01*
G75*
G02*
X-1500000Y-144230000I0J-175000D01*
G01*
X-1500000Y-144580000D01*
G75*
G02*
X-1675000Y-144755000I-175000J0D01*
G01*
X-3375000Y-144755000D01*
G75*
G02*
X-3550000Y-144580000I0J175000D01*
G01*
G37*
G36*
G01*
X-8500000Y-144580000D02*
X-8500000Y-144230000D01*
G75*
G02*
X-8325000Y-144055000I175000J0D01*
G01*
X-6625000Y-144055000D01*
G75*
G02*
X-6450000Y-144230000I0J-175000D01*
G01*
X-6450000Y-144580000D01*
G75*
G02*
X-6625000Y-144755000I-175000J0D01*
G01*
X-8325000Y-144755000D01*
G75*
G02*
X-8500000Y-144580000I0J175000D01*
G01*
G37*
G36*
G01*
X-8500000Y-143310000D02*
X-8500000Y-142960000D01*
G75*
G02*
X-8325000Y-142785000I175000J0D01*
G01*
X-6625000Y-142785000D01*
G75*
G02*
X-6450000Y-142960000I0J-175000D01*
G01*
X-6450000Y-143310000D01*
G75*
G02*
X-6625000Y-143485000I-175000J0D01*
G01*
X-8325000Y-143485000D01*
G75*
G02*
X-8500000Y-143310000I0J175000D01*
G01*
G37*
G36*
G01*
X-8500000Y-142040000D02*
X-8500000Y-141690000D01*
G75*
G02*
X-8325000Y-141515000I175000J0D01*
G01*
X-6625000Y-141515000D01*
G75*
G02*
X-6450000Y-141690000I0J-175000D01*
G01*
X-6450000Y-142040000D01*
G75*
G02*
X-6625000Y-142215000I-175000J0D01*
G01*
X-8325000Y-142215000D01*
G75*
G02*
X-8500000Y-142040000I0J175000D01*
G01*
G37*
G36*
G01*
X-8500000Y-140770000D02*
X-8500000Y-140420000D01*
G75*
G02*
X-8325000Y-140245000I175000J0D01*
G01*
X-6625000Y-140245000D01*
G75*
G02*
X-6450000Y-140420000I0J-175000D01*
G01*
X-6450000Y-140770000D01*
G75*
G02*
X-6625000Y-140945000I-175000J0D01*
G01*
X-8325000Y-140945000D01*
G75*
G02*
X-8500000Y-140770000I0J175000D01*
G01*
G37*
%TD*%
%TO.C,U2*%
G36*
G01*
X-1525000Y-127325000D02*
X-1525000Y-127675000D01*
G75*
G02*
X-1700000Y-127850000I-175000J0D01*
G01*
X-3400000Y-127850000D01*
G75*
G02*
X-3575000Y-127675000I0J175000D01*
G01*
X-3575000Y-127325000D01*
G75*
G02*
X-3400000Y-127150000I175000J0D01*
G01*
X-1700000Y-127150000D01*
G75*
G02*
X-1525000Y-127325000I0J-175000D01*
G01*
G37*
G36*
G01*
X-1525000Y-126055000D02*
X-1525000Y-126405000D01*
G75*
G02*
X-1700000Y-126580000I-175000J0D01*
G01*
X-3400000Y-126580000D01*
G75*
G02*
X-3575000Y-126405000I0J175000D01*
G01*
X-3575000Y-126055000D01*
G75*
G02*
X-3400000Y-125880000I175000J0D01*
G01*
X-1700000Y-125880000D01*
G75*
G02*
X-1525000Y-126055000I0J-175000D01*
G01*
G37*
G36*
G01*
X-1525000Y-124785000D02*
X-1525000Y-125135000D01*
G75*
G02*
X-1700000Y-125310000I-175000J0D01*
G01*
X-3400000Y-125310000D01*
G75*
G02*
X-3575000Y-125135000I0J175000D01*
G01*
X-3575000Y-124785000D01*
G75*
G02*
X-3400000Y-124610000I175000J0D01*
G01*
X-1700000Y-124610000D01*
G75*
G02*
X-1525000Y-124785000I0J-175000D01*
G01*
G37*
G36*
G01*
X-1525000Y-123515000D02*
X-1525000Y-123865000D01*
G75*
G02*
X-1700000Y-124040000I-175000J0D01*
G01*
X-3400000Y-124040000D01*
G75*
G02*
X-3575000Y-123865000I0J175000D01*
G01*
X-3575000Y-123515000D01*
G75*
G02*
X-3400000Y-123340000I175000J0D01*
G01*
X-1700000Y-123340000D01*
G75*
G02*
X-1525000Y-123515000I0J-175000D01*
G01*
G37*
G36*
G01*
X-6475000Y-123515000D02*
X-6475000Y-123865000D01*
G75*
G02*
X-6650000Y-124040000I-175000J0D01*
G01*
X-8350000Y-124040000D01*
G75*
G02*
X-8525000Y-123865000I0J175000D01*
G01*
X-8525000Y-123515000D01*
G75*
G02*
X-8350000Y-123340000I175000J0D01*
G01*
X-6650000Y-123340000D01*
G75*
G02*
X-6475000Y-123515000I0J-175000D01*
G01*
G37*
G36*
G01*
X-6475000Y-124785000D02*
X-6475000Y-125135000D01*
G75*
G02*
X-6650000Y-125310000I-175000J0D01*
G01*
X-8350000Y-125310000D01*
G75*
G02*
X-8525000Y-125135000I0J175000D01*
G01*
X-8525000Y-124785000D01*
G75*
G02*
X-8350000Y-124610000I175000J0D01*
G01*
X-6650000Y-124610000D01*
G75*
G02*
X-6475000Y-124785000I0J-175000D01*
G01*
G37*
G36*
G01*
X-6475000Y-126055000D02*
X-6475000Y-126405000D01*
G75*
G02*
X-6650000Y-126580000I-175000J0D01*
G01*
X-8350000Y-126580000D01*
G75*
G02*
X-8525000Y-126405000I0J175000D01*
G01*
X-8525000Y-126055000D01*
G75*
G02*
X-8350000Y-125880000I175000J0D01*
G01*
X-6650000Y-125880000D01*
G75*
G02*
X-6475000Y-126055000I0J-175000D01*
G01*
G37*
G36*
G01*
X-6475000Y-127325000D02*
X-6475000Y-127675000D01*
G75*
G02*
X-6650000Y-127850000I-175000J0D01*
G01*
X-8350000Y-127850000D01*
G75*
G02*
X-8525000Y-127675000I0J175000D01*
G01*
X-8525000Y-127325000D01*
G75*
G02*
X-8350000Y-127150000I175000J0D01*
G01*
X-6650000Y-127150000D01*
G75*
G02*
X-6475000Y-127325000I0J-175000D01*
G01*
G37*
%TD*%
%TO.C,U3*%
G36*
G01*
X-334207Y-89245793D02*
X-334208Y-89245792D01*
G75*
G02*
X-1253446Y-89245792I-459619J459619D01*
G01*
X-1536288Y-88962950D01*
G75*
G02*
X-1536288Y-88043712I459619J459619D01*
G01*
X-1536288Y-88043712D01*
G75*
G02*
X-617050Y-88043712I459619J-459619D01*
G01*
X-334208Y-88326554D01*
G75*
G02*
X-334208Y-89245792I-459619J-459619D01*
G01*
G37*
G36*
G01*
X379619Y-87039619D02*
X379619Y-87039619D01*
G75*
G02*
X-539619Y-87039619I-459619J459619D01*
G01*
X-539619Y-87039619D01*
G75*
G02*
X-539619Y-86120381I459619J459619D01*
G01*
X-539619Y-86120381D01*
G75*
G02*
X379619Y-86120381I459619J-459619D01*
G01*
X379619Y-86120381D01*
G75*
G02*
X379619Y-87039619I-459619J-459619D01*
G01*
G37*
G36*
G01*
X-475629Y-84974867D02*
X-475629Y-84974867D01*
G75*
G02*
X-1394867Y-84974867I-459619J459619D01*
G01*
X-1394867Y-84974867D01*
G75*
G02*
X-1394867Y-84055629I459619J459619D01*
G01*
X-1394867Y-84055629D01*
G75*
G02*
X-475629Y-84055629I459619J-459619D01*
G01*
X-475629Y-84055629D01*
G75*
G02*
X-475629Y-84974867I-459619J-459619D01*
G01*
G37*
G36*
G01*
X-2540381Y-84119619D02*
X-2540381Y-84119619D01*
G75*
G02*
X-3459619Y-84119619I-459619J459619D01*
G01*
X-3459619Y-84119619D01*
G75*
G02*
X-3459619Y-83200381I459619J459619D01*
G01*
X-3459619Y-83200381D01*
G75*
G02*
X-2540381Y-83200381I459619J-459619D01*
G01*
X-2540381Y-83200381D01*
G75*
G02*
X-2540381Y-84119619I-459619J-459619D01*
G01*
G37*
G36*
G01*
X-4605133Y-84974867D02*
X-4605133Y-84974867D01*
G75*
G02*
X-5524371Y-84974867I-459619J459619D01*
G01*
X-5524371Y-84974867D01*
G75*
G02*
X-5524371Y-84055629I459619J459619D01*
G01*
X-5524371Y-84055629D01*
G75*
G02*
X-4605133Y-84055629I459619J-459619D01*
G01*
X-4605133Y-84055629D01*
G75*
G02*
X-4605133Y-84974867I-459619J-459619D01*
G01*
G37*
G36*
G01*
X-5460381Y-87039619D02*
X-5460381Y-87039619D01*
G75*
G02*
X-6379619Y-87039619I-459619J459619D01*
G01*
X-6379619Y-87039619D01*
G75*
G02*
X-6379619Y-86120381I459619J459619D01*
G01*
X-6379619Y-86120381D01*
G75*
G02*
X-5460381Y-86120381I459619J-459619D01*
G01*
X-5460381Y-86120381D01*
G75*
G02*
X-5460381Y-87039619I-459619J-459619D01*
G01*
G37*
G36*
G01*
X-4605133Y-89104371D02*
X-4605133Y-89104371D01*
G75*
G02*
X-5524371Y-89104371I-459619J459619D01*
G01*
X-5524371Y-89104371D01*
G75*
G02*
X-5524371Y-88185133I459619J459619D01*
G01*
X-5524371Y-88185133D01*
G75*
G02*
X-4605133Y-88185133I459619J-459619D01*
G01*
X-4605133Y-88185133D01*
G75*
G02*
X-4605133Y-89104371I-459619J-459619D01*
G01*
G37*
G36*
G01*
X-2540381Y-89959619D02*
X-2540381Y-89959619D01*
G75*
G02*
X-3459619Y-89959619I-459619J459619D01*
G01*
X-3459619Y-89959619D01*
G75*
G02*
X-3459619Y-89040381I459619J459619D01*
G01*
X-3459619Y-89040381D01*
G75*
G02*
X-2540381Y-89040381I459619J-459619D01*
G01*
X-2540381Y-89040381D01*
G75*
G02*
X-2540381Y-89959619I-459619J-459619D01*
G01*
G37*
%TD*%
D12*
%TO.C,U4*%
X-400000Y-112222500D03*
X-400000Y-111587500D03*
X-400000Y-110952500D03*
X-400000Y-110317500D03*
X-400000Y-109682500D03*
X-400000Y-109047500D03*
X-400000Y-108412500D03*
X-400000Y-107777500D03*
X-5600000Y-107777500D03*
X-5600000Y-108412500D03*
X-5600000Y-109047500D03*
X-5600000Y-109682500D03*
X-5600000Y-110317500D03*
X-5600000Y-110952500D03*
X-5600000Y-111587500D03*
X-5600000Y-112222500D03*
%TD*%
D13*
%TO.C,J6*%
X-16000000Y-156000000D03*
X-18500000Y-156000000D03*
G36*
G01*
X-21900000Y-156760294D02*
X-21900000Y-155239706D01*
G75*
G02*
X-21635294Y-154975000I264706J0D01*
G01*
X-20364706Y-154975000D01*
G75*
G02*
X-20100000Y-155239706I0J-264706D01*
G01*
X-20100000Y-156760294D01*
G75*
G02*
X-20364706Y-157025000I-264706J0D01*
G01*
X-21635294Y-157025000D01*
G75*
G02*
X-21900000Y-156760294I0J264706D01*
G01*
G37*
%TD*%
%TO.C,J8*%
G36*
G01*
X-21900000Y-100260294D02*
X-21900000Y-98739706D01*
G75*
G02*
X-21635294Y-98475000I264706J0D01*
G01*
X-20364706Y-98475000D01*
G75*
G02*
X-20100000Y-98739706I0J-264706D01*
G01*
X-20100000Y-100260294D01*
G75*
G02*
X-20364706Y-100525000I-264706J0D01*
G01*
X-21635294Y-100525000D01*
G75*
G02*
X-21900000Y-100260294I0J264706D01*
G01*
G37*
X-18500000Y-99500000D03*
X-16000000Y-99500000D03*
%TD*%
%TO.C,J7*%
G36*
G01*
X-21900000Y-76760294D02*
X-21900000Y-75239706D01*
G75*
G02*
X-21635294Y-74975000I264706J0D01*
G01*
X-20364706Y-74975000D01*
G75*
G02*
X-20100000Y-75239706I0J-264706D01*
G01*
X-20100000Y-76760294D01*
G75*
G02*
X-20364706Y-77025000I-264706J0D01*
G01*
X-21635294Y-77025000D01*
G75*
G02*
X-21900000Y-76760294I0J264706D01*
G01*
G37*
X-18500000Y-76000000D03*
X-16000000Y-76000000D03*
%TD*%
M02*
