G04 #@! TF.FileFunction,Legend,Top*
%FSLAX46Y46*%
G04 Gerber Fmt 4.6, Leading zero omitted, Abs format (unit mm)*
G04 Created by KiCad (PCBNEW (2014-11-17 BZR 5289)-product) date Wed 21 Oct 2015 02:01:30 PM EDT*
%MOMM*%
G01*
G04 APERTURE LIST*
%ADD10C,0.100000*%
%ADD11C,0.150000*%
%ADD12C,0.381000*%
%ADD13C,0.304800*%
G04 APERTURE END LIST*
D10*
D11*
X139390381Y-120999285D02*
X139390381Y-121570714D01*
X139390381Y-121285000D02*
X138390381Y-121285000D01*
X138533238Y-121380238D01*
X138628476Y-121475476D01*
X138676095Y-121570714D01*
D12*
X186674060Y-113914380D02*
X187618940Y-113914380D01*
X186674060Y-108595620D02*
X187618940Y-108595620D01*
X178167600Y-108595620D02*
X181947120Y-108595620D01*
X178167600Y-113914380D02*
X181947120Y-113914380D01*
X186359100Y-108062220D02*
X186674060Y-111521700D01*
X182577040Y-114447780D02*
X181947120Y-108595620D01*
X182577040Y-108062220D02*
X183206960Y-114447780D01*
X183206960Y-108062220D02*
X183836880Y-114447780D01*
X183836880Y-108062220D02*
X184466800Y-114447780D01*
X184466800Y-108062220D02*
X185099260Y-114447780D01*
X185099260Y-108062220D02*
X185729180Y-114447780D01*
X185729180Y-108062220D02*
X186359100Y-114447780D01*
X186359100Y-108062220D02*
X186674060Y-108595620D01*
X186674060Y-108595620D02*
X186674060Y-113914380D01*
X186674060Y-113914380D02*
X186359100Y-114447780D01*
X186359100Y-114447780D02*
X182262080Y-114447780D01*
X182262080Y-114447780D02*
X181947120Y-113914380D01*
X181947120Y-113914380D02*
X181947120Y-108595620D01*
X181947120Y-108595620D02*
X182262080Y-108062220D01*
X182262080Y-108062220D02*
X186359100Y-108062220D01*
X187618940Y-113914380D02*
X187618940Y-108595620D01*
X178167600Y-108105400D02*
X178167600Y-114404600D01*
X178167600Y-114404600D02*
X171868400Y-114404600D01*
X171868400Y-114404600D02*
X171868400Y-108105400D01*
X171868400Y-108105400D02*
X178167600Y-108105400D01*
D11*
X166754000Y-110665000D02*
X166754000Y-115745000D01*
X166754000Y-115745000D02*
X162182000Y-115745000D01*
X162182000Y-115745000D02*
X162182000Y-110665000D01*
X162182000Y-110665000D02*
X166754000Y-110665000D01*
X165230000Y-110665000D02*
X165230000Y-111173000D01*
X165230000Y-111173000D02*
X163960000Y-111173000D01*
X163960000Y-111173000D02*
X163960000Y-110665000D01*
X137688000Y-108843000D02*
X145308000Y-108843000D01*
X145308000Y-105287000D02*
X137688000Y-105287000D01*
X137688000Y-108843000D02*
X137688000Y-105287000D01*
X145308000Y-105287000D02*
X145308000Y-108843000D01*
X145159210Y-105795000D02*
G75*
G03X145159210Y-105795000I-359210J0D01*
G01*
X145308000Y-107700000D02*
X144546000Y-107700000D01*
X144546000Y-107700000D02*
X144546000Y-106430000D01*
X144546000Y-106430000D02*
X145308000Y-106430000D01*
X151788000Y-95651000D02*
X146708000Y-95651000D01*
X146708000Y-95651000D02*
X146708000Y-91079000D01*
X146708000Y-91079000D02*
X151788000Y-91079000D01*
X151788000Y-91079000D02*
X151788000Y-95651000D01*
X151788000Y-94127000D02*
X151280000Y-94127000D01*
X151280000Y-94127000D02*
X151280000Y-92857000D01*
X151280000Y-92857000D02*
X151788000Y-92857000D01*
X157458000Y-85579000D02*
X162538000Y-85579000D01*
X162538000Y-85579000D02*
X162538000Y-90151000D01*
X162538000Y-90151000D02*
X157458000Y-90151000D01*
X157458000Y-90151000D02*
X157458000Y-85579000D01*
X157458000Y-87103000D02*
X157966000Y-87103000D01*
X157966000Y-87103000D02*
X157966000Y-88373000D01*
X157966000Y-88373000D02*
X157458000Y-88373000D01*
X156458000Y-99829000D02*
X161538000Y-99829000D01*
X161538000Y-99829000D02*
X161538000Y-104401000D01*
X161538000Y-104401000D02*
X156458000Y-104401000D01*
X156458000Y-104401000D02*
X156458000Y-99829000D01*
X156458000Y-101353000D02*
X156966000Y-101353000D01*
X156966000Y-101353000D02*
X156966000Y-102623000D01*
X156966000Y-102623000D02*
X156458000Y-102623000D01*
X165928000Y-102775000D02*
X165928000Y-103775000D01*
X167628000Y-103775000D02*
X167628000Y-102775000D01*
X168123000Y-79965000D02*
X168123000Y-78765000D01*
X169873000Y-78765000D02*
X169873000Y-79965000D01*
X165873000Y-79965000D02*
X165873000Y-78765000D01*
X167623000Y-78765000D02*
X167623000Y-79965000D01*
X163623000Y-79965000D02*
X163623000Y-78765000D01*
X165373000Y-78765000D02*
X165373000Y-79965000D01*
X161373000Y-79965000D02*
X161373000Y-78765000D01*
X163123000Y-78765000D02*
X163123000Y-79965000D01*
X151873000Y-80215000D02*
X151873000Y-79015000D01*
X153623000Y-79015000D02*
X153623000Y-80215000D01*
X149123000Y-80215000D02*
X149123000Y-79015000D01*
X150873000Y-79015000D02*
X150873000Y-80215000D01*
X173623000Y-120965000D02*
X173623000Y-119765000D01*
X175373000Y-119765000D02*
X175373000Y-120965000D01*
X170873000Y-120965000D02*
X170873000Y-119765000D01*
X172623000Y-119765000D02*
X172623000Y-120965000D01*
X168373000Y-120965000D02*
X168373000Y-119765000D01*
X170123000Y-119765000D02*
X170123000Y-120965000D01*
X165873000Y-120965000D02*
X165873000Y-119765000D01*
X167623000Y-119765000D02*
X167623000Y-120965000D01*
X163373000Y-120965000D02*
X163373000Y-119765000D01*
X165123000Y-119765000D02*
X165123000Y-120965000D01*
X160873000Y-120965000D02*
X160873000Y-119765000D01*
X162623000Y-119765000D02*
X162623000Y-120965000D01*
X131598000Y-112040000D02*
X130398000Y-112040000D01*
X130398000Y-110290000D02*
X131598000Y-110290000D01*
X131598000Y-109940000D02*
X130398000Y-109940000D01*
X130398000Y-108190000D02*
X131598000Y-108190000D01*
X131598000Y-107840000D02*
X130398000Y-107840000D01*
X130398000Y-106090000D02*
X131598000Y-106090000D01*
X131598000Y-105740000D02*
X130398000Y-105740000D01*
X130398000Y-103990000D02*
X131598000Y-103990000D01*
X160848000Y-97490000D02*
X159648000Y-97490000D01*
X159648000Y-95740000D02*
X160848000Y-95740000D01*
X155333000Y-88495000D02*
X155333000Y-87295000D01*
X157083000Y-87295000D02*
X157083000Y-88495000D01*
X154423000Y-103665000D02*
X154423000Y-102465000D01*
X156173000Y-102465000D02*
X156173000Y-103665000D01*
X159648000Y-93740000D02*
X160848000Y-93740000D01*
X160848000Y-95490000D02*
X159648000Y-95490000D01*
X171188000Y-90280000D02*
X169988000Y-90280000D01*
X169988000Y-88530000D02*
X171188000Y-88530000D01*
X149628000Y-86655000D02*
X148628000Y-86655000D01*
X148628000Y-88355000D02*
X149628000Y-88355000D01*
X164778000Y-88335000D02*
X164778000Y-87335000D01*
X163078000Y-87335000D02*
X163078000Y-88335000D01*
X155478000Y-112405000D02*
X156478000Y-112405000D01*
X156478000Y-110705000D02*
X155478000Y-110705000D01*
X168038000Y-107625000D02*
X168038000Y-108625000D01*
X169738000Y-108625000D02*
X169738000Y-107625000D01*
X152398000Y-103115000D02*
X151398000Y-103115000D01*
X151398000Y-104815000D02*
X152398000Y-104815000D01*
X155928000Y-94335000D02*
X155928000Y-95335000D01*
X157628000Y-95335000D02*
X157628000Y-94335000D01*
X141148000Y-92765000D02*
X141148000Y-93765000D01*
X142848000Y-93765000D02*
X142848000Y-92765000D01*
X155598000Y-98865000D02*
X155598000Y-97865000D01*
X153898000Y-97865000D02*
X153898000Y-98865000D01*
X145198000Y-116915000D02*
X146198000Y-116915000D01*
X146198000Y-115215000D02*
X145198000Y-115215000D01*
X143498000Y-99515000D02*
X144498000Y-99515000D01*
X144498000Y-97815000D02*
X143498000Y-97815000D01*
X135348000Y-97565000D02*
X135348000Y-96565000D01*
X133648000Y-96565000D02*
X133648000Y-97565000D01*
X168148000Y-97065000D02*
X168148000Y-96065000D01*
X166448000Y-96065000D02*
X166448000Y-97065000D01*
X175768000Y-90635000D02*
X175768000Y-103335000D01*
X175768000Y-103335000D02*
X173228000Y-103335000D01*
X173228000Y-103335000D02*
X173228000Y-90635000D01*
X176048000Y-87815000D02*
X176048000Y-89365000D01*
X175768000Y-90635000D02*
X173228000Y-90635000D01*
X172948000Y-89365000D02*
X172948000Y-87815000D01*
X172948000Y-87815000D02*
X176048000Y-87815000D01*
X138768000Y-80135000D02*
X146388000Y-80135000D01*
X138768000Y-77595000D02*
X146388000Y-77595000D01*
X135948000Y-77315000D02*
X137498000Y-77315000D01*
X146388000Y-80135000D02*
X146388000Y-77595000D01*
X138768000Y-77595000D02*
X138768000Y-80135000D01*
X137498000Y-80415000D02*
X135948000Y-80415000D01*
X135948000Y-80415000D02*
X135948000Y-77315000D01*
X158018000Y-74345000D02*
X175798000Y-74345000D01*
X175798000Y-74345000D02*
X175798000Y-76885000D01*
X175798000Y-76885000D02*
X158018000Y-76885000D01*
X155198000Y-74065000D02*
X156748000Y-74065000D01*
X158018000Y-74345000D02*
X158018000Y-76885000D01*
X156748000Y-77165000D02*
X155198000Y-77165000D01*
X155198000Y-77165000D02*
X155198000Y-74065000D01*
X131018000Y-74345000D02*
X153878000Y-74345000D01*
X153878000Y-74345000D02*
X153878000Y-76885000D01*
X153878000Y-76885000D02*
X131018000Y-76885000D01*
X128198000Y-74065000D02*
X129748000Y-74065000D01*
X131018000Y-74345000D02*
X131018000Y-76885000D01*
X129748000Y-77165000D02*
X128198000Y-77165000D01*
X128198000Y-77165000D02*
X128198000Y-74065000D01*
X173268000Y-78095000D02*
X175808000Y-78095000D01*
X170448000Y-77815000D02*
X171998000Y-77815000D01*
X173268000Y-78095000D02*
X173268000Y-80635000D01*
X171998000Y-80915000D02*
X170448000Y-80915000D01*
X170448000Y-80915000D02*
X170448000Y-77815000D01*
X173268000Y-80635000D02*
X175808000Y-80635000D01*
X175808000Y-80635000D02*
X175808000Y-78095000D01*
X157968000Y-77695000D02*
X160508000Y-77695000D01*
X155148000Y-77415000D02*
X156698000Y-77415000D01*
X157968000Y-77695000D02*
X157968000Y-80235000D01*
X156698000Y-80515000D02*
X155148000Y-80515000D01*
X155148000Y-80515000D02*
X155148000Y-77415000D01*
X157968000Y-80235000D02*
X160508000Y-80235000D01*
X160508000Y-80235000D02*
X160508000Y-77695000D01*
X135548000Y-78065000D02*
X135548000Y-79615000D01*
X132448000Y-79615000D02*
X132448000Y-78065000D01*
X132448000Y-78065000D02*
X135548000Y-78065000D01*
X132728000Y-80885000D02*
X135268000Y-80885000D01*
X129548000Y-81815000D02*
X129548000Y-83365000D01*
X126448000Y-83365000D02*
X126448000Y-81815000D01*
X126448000Y-81815000D02*
X129548000Y-81815000D01*
X126728000Y-84635000D02*
X129268000Y-84635000D01*
X133298000Y-81815000D02*
X133298000Y-83365000D01*
X130198000Y-83365000D02*
X130198000Y-81815000D01*
X130198000Y-81815000D02*
X133298000Y-81815000D01*
X130478000Y-84635000D02*
X133018000Y-84635000D01*
X163018000Y-122595000D02*
X175718000Y-122595000D01*
X175718000Y-122595000D02*
X175718000Y-125135000D01*
X175718000Y-125135000D02*
X163018000Y-125135000D01*
X160198000Y-122315000D02*
X161748000Y-122315000D01*
X163018000Y-122595000D02*
X163018000Y-125135000D01*
X161748000Y-125415000D02*
X160198000Y-125415000D01*
X160198000Y-125415000D02*
X160198000Y-122315000D01*
X140268000Y-122595000D02*
X158048000Y-122595000D01*
X158048000Y-122595000D02*
X158048000Y-125135000D01*
X158048000Y-125135000D02*
X140268000Y-125135000D01*
X137448000Y-122315000D02*
X138998000Y-122315000D01*
X140268000Y-122595000D02*
X140268000Y-125135000D01*
X138998000Y-125415000D02*
X137448000Y-125415000D01*
X137448000Y-125415000D02*
X137448000Y-122315000D01*
X130548000Y-114815000D02*
X130548000Y-116365000D01*
X127448000Y-116365000D02*
X127448000Y-114815000D01*
X127448000Y-114815000D02*
X130548000Y-114815000D01*
X127728000Y-117635000D02*
X130268000Y-117635000D01*
X168318000Y-110615000D02*
X168318000Y-107015000D01*
X168618000Y-107015000D02*
X165718000Y-107015000D01*
X168618000Y-110615000D02*
X165718000Y-110615000D01*
X168618000Y-110615000D02*
X168618000Y-110265000D01*
X168618000Y-107015000D02*
X168618000Y-107415000D01*
X161518000Y-107015000D02*
X161518000Y-107815000D01*
X161518000Y-110215000D02*
X161518000Y-110415000D01*
X161518000Y-110415000D02*
X161518000Y-110615000D01*
X168612000Y-110339000D02*
X168612000Y-107291000D01*
X163429000Y-106991000D02*
X161524000Y-106991000D01*
X161524000Y-107291000D02*
X161524000Y-110339000D01*
X161524000Y-110639000D02*
X163429000Y-110639000D01*
X152348000Y-112315000D02*
X152348000Y-115915000D01*
X152048000Y-115915000D02*
X154948000Y-115915000D01*
X152048000Y-112315000D02*
X154948000Y-112315000D01*
X152048000Y-112315000D02*
X152048000Y-112665000D01*
X152048000Y-115915000D02*
X152048000Y-115515000D01*
X159148000Y-115915000D02*
X159148000Y-115115000D01*
X159148000Y-112715000D02*
X159148000Y-112515000D01*
X159148000Y-112515000D02*
X159148000Y-112315000D01*
X152054000Y-112591000D02*
X152054000Y-115639000D01*
X157237000Y-115939000D02*
X159142000Y-115939000D01*
X159142000Y-115639000D02*
X159142000Y-112591000D01*
X159142000Y-112291000D02*
X157237000Y-112291000D01*
X162258000Y-106875000D02*
X165858000Y-106875000D01*
X165858000Y-107175000D02*
X165858000Y-104275000D01*
X162258000Y-107175000D02*
X162258000Y-104275000D01*
X162258000Y-107175000D02*
X162608000Y-107175000D01*
X165858000Y-107175000D02*
X165458000Y-107175000D01*
X165858000Y-100075000D02*
X165058000Y-100075000D01*
X162658000Y-100075000D02*
X162458000Y-100075000D01*
X162458000Y-100075000D02*
X162258000Y-100075000D01*
X162534000Y-107169000D02*
X165582000Y-107169000D01*
X165882000Y-101986000D02*
X165882000Y-100081000D01*
X165582000Y-100081000D02*
X162534000Y-100081000D01*
X162234000Y-100081000D02*
X162234000Y-101986000D01*
X162698000Y-100065000D02*
X166298000Y-100065000D01*
X166298000Y-100365000D02*
X166298000Y-97465000D01*
X162698000Y-100365000D02*
X162698000Y-97465000D01*
X162698000Y-100365000D02*
X163048000Y-100365000D01*
X166298000Y-100365000D02*
X165898000Y-100365000D01*
X166298000Y-93265000D02*
X165498000Y-93265000D01*
X163098000Y-93265000D02*
X162898000Y-93265000D01*
X162898000Y-93265000D02*
X162698000Y-93265000D01*
X162974000Y-100359000D02*
X166022000Y-100359000D01*
X166322000Y-95176000D02*
X166322000Y-93271000D01*
X166022000Y-93271000D02*
X162974000Y-93271000D01*
X162674000Y-93271000D02*
X162674000Y-95176000D01*
X135598000Y-99665000D02*
X139198000Y-99665000D01*
X139198000Y-99965000D02*
X139198000Y-97065000D01*
X135598000Y-99965000D02*
X135598000Y-97065000D01*
X135598000Y-99965000D02*
X135948000Y-99965000D01*
X139198000Y-99965000D02*
X138798000Y-99965000D01*
X139198000Y-92865000D02*
X138398000Y-92865000D01*
X135998000Y-92865000D02*
X135798000Y-92865000D01*
X135798000Y-92865000D02*
X135598000Y-92865000D01*
X135874000Y-99959000D02*
X138922000Y-99959000D01*
X139222000Y-94776000D02*
X139222000Y-92871000D01*
X138922000Y-92871000D02*
X135874000Y-92871000D01*
X135574000Y-92871000D02*
X135574000Y-94776000D01*
X141298000Y-99765000D02*
X141298000Y-103365000D01*
X140998000Y-103365000D02*
X143898000Y-103365000D01*
X140998000Y-99765000D02*
X143898000Y-99765000D01*
X140998000Y-99765000D02*
X140998000Y-100115000D01*
X140998000Y-103365000D02*
X140998000Y-102965000D01*
X148098000Y-103365000D02*
X148098000Y-102565000D01*
X148098000Y-100165000D02*
X148098000Y-99965000D01*
X148098000Y-99965000D02*
X148098000Y-99765000D01*
X141004000Y-100041000D02*
X141004000Y-103089000D01*
X146187000Y-103389000D02*
X148092000Y-103389000D01*
X148092000Y-103089000D02*
X148092000Y-100041000D01*
X148092000Y-99741000D02*
X146187000Y-99741000D01*
X143098000Y-92865000D02*
X146698000Y-92865000D01*
X146698000Y-93165000D02*
X146698000Y-90265000D01*
X143098000Y-93165000D02*
X143098000Y-90265000D01*
X143098000Y-93165000D02*
X143448000Y-93165000D01*
X146698000Y-93165000D02*
X146298000Y-93165000D01*
X146698000Y-86065000D02*
X145898000Y-86065000D01*
X143498000Y-86065000D02*
X143298000Y-86065000D01*
X143298000Y-86065000D02*
X143098000Y-86065000D01*
X143374000Y-93159000D02*
X146422000Y-93159000D01*
X146722000Y-87976000D02*
X146722000Y-86071000D01*
X146422000Y-86071000D02*
X143374000Y-86071000D01*
X143074000Y-86071000D02*
X143074000Y-87976000D01*
X151858000Y-96215000D02*
X155458000Y-96215000D01*
X155458000Y-96515000D02*
X155458000Y-93615000D01*
X151858000Y-96515000D02*
X151858000Y-93615000D01*
X151858000Y-96515000D02*
X152208000Y-96515000D01*
X155458000Y-96515000D02*
X155058000Y-96515000D01*
X155458000Y-89415000D02*
X154658000Y-89415000D01*
X152258000Y-89415000D02*
X152058000Y-89415000D01*
X152058000Y-89415000D02*
X151858000Y-89415000D01*
X152134000Y-96509000D02*
X155182000Y-96509000D01*
X155482000Y-91326000D02*
X155482000Y-89421000D01*
X155182000Y-89421000D02*
X152134000Y-89421000D01*
X151834000Y-89421000D02*
X151834000Y-91326000D01*
X149198000Y-105565000D02*
X149198000Y-109165000D01*
X148898000Y-109165000D02*
X151798000Y-109165000D01*
X148898000Y-105565000D02*
X151798000Y-105565000D01*
X148898000Y-105565000D02*
X148898000Y-105915000D01*
X148898000Y-109165000D02*
X148898000Y-108765000D01*
X155998000Y-109165000D02*
X155998000Y-108365000D01*
X155998000Y-105965000D02*
X155998000Y-105765000D01*
X155998000Y-105765000D02*
X155998000Y-105565000D01*
X148904000Y-105841000D02*
X148904000Y-108889000D01*
X154087000Y-109189000D02*
X155992000Y-109189000D01*
X155992000Y-108889000D02*
X155992000Y-105841000D01*
X155992000Y-105541000D02*
X154087000Y-105541000D01*
X155338000Y-86575000D02*
X155338000Y-82975000D01*
X155638000Y-82975000D02*
X152738000Y-82975000D01*
X155638000Y-86575000D02*
X152738000Y-86575000D01*
X155638000Y-86575000D02*
X155638000Y-86225000D01*
X155638000Y-82975000D02*
X155638000Y-83375000D01*
X148538000Y-82975000D02*
X148538000Y-83775000D01*
X148538000Y-86175000D02*
X148538000Y-86375000D01*
X148538000Y-86375000D02*
X148538000Y-86575000D01*
X155632000Y-86299000D02*
X155632000Y-83251000D01*
X150449000Y-82951000D02*
X148544000Y-82951000D01*
X148544000Y-83251000D02*
X148544000Y-86299000D01*
X148544000Y-86599000D02*
X150449000Y-86599000D01*
X149498000Y-114865000D02*
X149498000Y-111265000D01*
X149798000Y-111265000D02*
X146898000Y-111265000D01*
X149798000Y-114865000D02*
X146898000Y-114865000D01*
X149798000Y-114865000D02*
X149798000Y-114515000D01*
X149798000Y-111265000D02*
X149798000Y-111665000D01*
X142698000Y-111265000D02*
X142698000Y-112065000D01*
X142698000Y-114465000D02*
X142698000Y-114665000D01*
X142698000Y-114665000D02*
X142698000Y-114865000D01*
X149792000Y-114589000D02*
X149792000Y-111541000D01*
X144609000Y-111241000D02*
X142704000Y-111241000D01*
X142704000Y-111541000D02*
X142704000Y-114589000D01*
X142704000Y-114889000D02*
X144609000Y-114889000D01*
X164948000Y-91535000D02*
X168548000Y-91535000D01*
X168548000Y-91835000D02*
X168548000Y-88935000D01*
X164948000Y-91835000D02*
X164948000Y-88935000D01*
X164948000Y-91835000D02*
X165298000Y-91835000D01*
X168548000Y-91835000D02*
X168148000Y-91835000D01*
X168548000Y-84735000D02*
X167748000Y-84735000D01*
X165348000Y-84735000D02*
X165148000Y-84735000D01*
X165148000Y-84735000D02*
X164948000Y-84735000D01*
X165224000Y-91829000D02*
X168272000Y-91829000D01*
X168572000Y-86646000D02*
X168572000Y-84741000D01*
X168272000Y-84741000D02*
X165224000Y-84741000D01*
X164924000Y-84741000D02*
X164924000Y-86646000D01*
X134098000Y-119740000D02*
X132898000Y-119740000D01*
X132898000Y-117990000D02*
X134098000Y-117990000D01*
X134098000Y-117240000D02*
X132898000Y-117240000D01*
X132898000Y-115490000D02*
X134098000Y-115490000D01*
X147050381Y-106017381D02*
X147145620Y-106017381D01*
X147240858Y-106065000D01*
X147288477Y-106112619D01*
X147336096Y-106207857D01*
X147383715Y-106398333D01*
X147383715Y-106636429D01*
X147336096Y-106826905D01*
X147288477Y-106922143D01*
X147240858Y-106969762D01*
X147145620Y-107017381D01*
X147050381Y-107017381D01*
X146955143Y-106969762D01*
X146907524Y-106922143D01*
X146859905Y-106826905D01*
X146812286Y-106636429D01*
X146812286Y-106398333D01*
X146859905Y-106207857D01*
X146907524Y-106112619D01*
X146955143Y-106065000D01*
X147050381Y-106017381D01*
D13*
X174937429Y-107639857D02*
X173413429Y-107639857D01*
X173413429Y-107059285D01*
X173486000Y-106914143D01*
X173558571Y-106841571D01*
X173703714Y-106769000D01*
X173921429Y-106769000D01*
X174066571Y-106841571D01*
X174139143Y-106914143D01*
X174211714Y-107059285D01*
X174211714Y-107639857D01*
X173558571Y-106188428D02*
X173486000Y-106115857D01*
X173413429Y-105970714D01*
X173413429Y-105607857D01*
X173486000Y-105462714D01*
X173558571Y-105390143D01*
X173703714Y-105317571D01*
X173848857Y-105317571D01*
X174066571Y-105390143D01*
X174937429Y-106261000D01*
X174937429Y-105317571D01*
X167289143Y-113976428D02*
X167361714Y-113758714D01*
X167434286Y-113686142D01*
X167579429Y-113613571D01*
X167797143Y-113613571D01*
X167942286Y-113686142D01*
X168014857Y-113758714D01*
X168087429Y-113903856D01*
X168087429Y-114484428D01*
X166563429Y-114484428D01*
X166563429Y-113976428D01*
X166636000Y-113831285D01*
X166708571Y-113758714D01*
X166853714Y-113686142D01*
X166998857Y-113686142D01*
X167144000Y-113758714D01*
X167216571Y-113831285D01*
X167289143Y-113976428D01*
X167289143Y-114484428D01*
X168087429Y-112960428D02*
X166563429Y-112960428D01*
X168087429Y-112089571D01*
X166563429Y-112089571D01*
X167942286Y-110493000D02*
X168014857Y-110565571D01*
X168087429Y-110783285D01*
X168087429Y-110928428D01*
X168014857Y-111146143D01*
X167869714Y-111291285D01*
X167724571Y-111363857D01*
X167434286Y-111436428D01*
X167216571Y-111436428D01*
X166926286Y-111363857D01*
X166781143Y-111291285D01*
X166636000Y-111146143D01*
X166563429Y-110928428D01*
X166563429Y-110783285D01*
X166636000Y-110565571D01*
X166708571Y-110493000D01*
D11*
X165190381Y-113966905D02*
X165999905Y-113966905D01*
X166095143Y-113919286D01*
X166142762Y-113871667D01*
X166190381Y-113776429D01*
X166190381Y-113585952D01*
X166142762Y-113490714D01*
X166095143Y-113443095D01*
X165999905Y-113395476D01*
X165190381Y-113395476D01*
X165190381Y-112443095D02*
X165190381Y-112919286D01*
X165666571Y-112966905D01*
X165618952Y-112919286D01*
X165571333Y-112824048D01*
X165571333Y-112585952D01*
X165618952Y-112490714D01*
X165666571Y-112443095D01*
X165761810Y-112395476D01*
X165999905Y-112395476D01*
X166095143Y-112443095D01*
X166142762Y-112490714D01*
X166190381Y-112585952D01*
X166190381Y-112824048D01*
X166142762Y-112919286D01*
X166095143Y-112966905D01*
X142736095Y-105767381D02*
X142736095Y-106576905D01*
X142783714Y-106672143D01*
X142831333Y-106719762D01*
X142926571Y-106767381D01*
X143117048Y-106767381D01*
X143212286Y-106719762D01*
X143259905Y-106672143D01*
X143307524Y-106576905D01*
X143307524Y-105767381D01*
X144212286Y-106100714D02*
X144212286Y-106767381D01*
X143974190Y-105719762D02*
X143736095Y-106434048D01*
X144355143Y-106434048D01*
X148486095Y-94087381D02*
X148486095Y-94896905D01*
X148533714Y-94992143D01*
X148581333Y-95039762D01*
X148676571Y-95087381D01*
X148867048Y-95087381D01*
X148962286Y-95039762D01*
X149009905Y-94992143D01*
X149057524Y-94896905D01*
X149057524Y-94087381D01*
X149438476Y-94087381D02*
X150057524Y-94087381D01*
X149724190Y-94468333D01*
X149867048Y-94468333D01*
X149962286Y-94515952D01*
X150009905Y-94563571D01*
X150057524Y-94658810D01*
X150057524Y-94896905D01*
X150009905Y-94992143D01*
X149962286Y-95039762D01*
X149867048Y-95087381D01*
X149581333Y-95087381D01*
X149486095Y-95039762D01*
X149438476Y-94992143D01*
X159236095Y-86047381D02*
X159236095Y-86856905D01*
X159283714Y-86952143D01*
X159331333Y-86999762D01*
X159426571Y-87047381D01*
X159617048Y-87047381D01*
X159712286Y-86999762D01*
X159759905Y-86952143D01*
X159807524Y-86856905D01*
X159807524Y-86047381D01*
X160236095Y-86142619D02*
X160283714Y-86095000D01*
X160378952Y-86047381D01*
X160617048Y-86047381D01*
X160712286Y-86095000D01*
X160759905Y-86142619D01*
X160807524Y-86237857D01*
X160807524Y-86333095D01*
X160759905Y-86475952D01*
X160188476Y-87047381D01*
X160807524Y-87047381D01*
X158236095Y-100297381D02*
X158236095Y-101106905D01*
X158283714Y-101202143D01*
X158331333Y-101249762D01*
X158426571Y-101297381D01*
X158617048Y-101297381D01*
X158712286Y-101249762D01*
X158759905Y-101202143D01*
X158807524Y-101106905D01*
X158807524Y-100297381D01*
X159807524Y-101297381D02*
X159236095Y-101297381D01*
X159521809Y-101297381D02*
X159521809Y-100297381D01*
X159426571Y-100440238D01*
X159331333Y-100535476D01*
X159236095Y-100583095D01*
X168531334Y-102622143D02*
X168483715Y-102669762D01*
X168340858Y-102717381D01*
X168245620Y-102717381D01*
X168102762Y-102669762D01*
X168007524Y-102574524D01*
X167959905Y-102479286D01*
X167912286Y-102288810D01*
X167912286Y-102145952D01*
X167959905Y-101955476D01*
X168007524Y-101860238D01*
X168102762Y-101765000D01*
X168245620Y-101717381D01*
X168340858Y-101717381D01*
X168483715Y-101765000D01*
X168531334Y-101812619D01*
X169388477Y-101717381D02*
X169198000Y-101717381D01*
X169102762Y-101765000D01*
X169055143Y-101812619D01*
X168959905Y-101955476D01*
X168912286Y-102145952D01*
X168912286Y-102526905D01*
X168959905Y-102622143D01*
X169007524Y-102669762D01*
X169102762Y-102717381D01*
X169293239Y-102717381D01*
X169388477Y-102669762D01*
X169436096Y-102622143D01*
X169483715Y-102526905D01*
X169483715Y-102288810D01*
X169436096Y-102193571D01*
X169388477Y-102145952D01*
X169293239Y-102098333D01*
X169102762Y-102098333D01*
X169007524Y-102145952D01*
X168959905Y-102193571D01*
X168912286Y-102288810D01*
X169450381Y-83907857D02*
X168974190Y-84241191D01*
X169450381Y-84479286D02*
X168450381Y-84479286D01*
X168450381Y-84098333D01*
X168498000Y-84003095D01*
X168545619Y-83955476D01*
X168640857Y-83907857D01*
X168783714Y-83907857D01*
X168878952Y-83955476D01*
X168926571Y-84003095D01*
X168974190Y-84098333D01*
X168974190Y-84479286D01*
X168545619Y-83526905D02*
X168498000Y-83479286D01*
X168450381Y-83384048D01*
X168450381Y-83145952D01*
X168498000Y-83050714D01*
X168545619Y-83003095D01*
X168640857Y-82955476D01*
X168736095Y-82955476D01*
X168878952Y-83003095D01*
X169450381Y-83574524D01*
X169450381Y-82955476D01*
X169450381Y-82003095D02*
X169450381Y-82574524D01*
X169450381Y-82288810D02*
X168450381Y-82288810D01*
X168593238Y-82384048D01*
X168688476Y-82479286D01*
X168736095Y-82574524D01*
X167250381Y-83907857D02*
X166774190Y-84241191D01*
X167250381Y-84479286D02*
X166250381Y-84479286D01*
X166250381Y-84098333D01*
X166298000Y-84003095D01*
X166345619Y-83955476D01*
X166440857Y-83907857D01*
X166583714Y-83907857D01*
X166678952Y-83955476D01*
X166726571Y-84003095D01*
X166774190Y-84098333D01*
X166774190Y-84479286D01*
X166345619Y-83526905D02*
X166298000Y-83479286D01*
X166250381Y-83384048D01*
X166250381Y-83145952D01*
X166298000Y-83050714D01*
X166345619Y-83003095D01*
X166440857Y-82955476D01*
X166536095Y-82955476D01*
X166678952Y-83003095D01*
X167250381Y-83574524D01*
X167250381Y-82955476D01*
X166250381Y-82336429D02*
X166250381Y-82241190D01*
X166298000Y-82145952D01*
X166345619Y-82098333D01*
X166440857Y-82050714D01*
X166631333Y-82003095D01*
X166869429Y-82003095D01*
X167059905Y-82050714D01*
X167155143Y-82098333D01*
X167202762Y-82145952D01*
X167250381Y-82241190D01*
X167250381Y-82336429D01*
X167202762Y-82431667D01*
X167155143Y-82479286D01*
X167059905Y-82526905D01*
X166869429Y-82574524D01*
X166631333Y-82574524D01*
X166440857Y-82526905D01*
X166345619Y-82479286D01*
X166298000Y-82431667D01*
X166250381Y-82336429D01*
X164950381Y-83907857D02*
X164474190Y-84241191D01*
X164950381Y-84479286D02*
X163950381Y-84479286D01*
X163950381Y-84098333D01*
X163998000Y-84003095D01*
X164045619Y-83955476D01*
X164140857Y-83907857D01*
X164283714Y-83907857D01*
X164378952Y-83955476D01*
X164426571Y-84003095D01*
X164474190Y-84098333D01*
X164474190Y-84479286D01*
X164950381Y-82955476D02*
X164950381Y-83526905D01*
X164950381Y-83241191D02*
X163950381Y-83241191D01*
X164093238Y-83336429D01*
X164188476Y-83431667D01*
X164236095Y-83526905D01*
X164950381Y-82479286D02*
X164950381Y-82288810D01*
X164902762Y-82193571D01*
X164855143Y-82145952D01*
X164712286Y-82050714D01*
X164521810Y-82003095D01*
X164140857Y-82003095D01*
X164045619Y-82050714D01*
X163998000Y-82098333D01*
X163950381Y-82193571D01*
X163950381Y-82384048D01*
X163998000Y-82479286D01*
X164045619Y-82526905D01*
X164140857Y-82574524D01*
X164378952Y-82574524D01*
X164474190Y-82526905D01*
X164521810Y-82479286D01*
X164569429Y-82384048D01*
X164569429Y-82193571D01*
X164521810Y-82098333D01*
X164474190Y-82050714D01*
X164378952Y-82003095D01*
X163450381Y-83807857D02*
X162974190Y-84141191D01*
X163450381Y-84379286D02*
X162450381Y-84379286D01*
X162450381Y-83998333D01*
X162498000Y-83903095D01*
X162545619Y-83855476D01*
X162640857Y-83807857D01*
X162783714Y-83807857D01*
X162878952Y-83855476D01*
X162926571Y-83903095D01*
X162974190Y-83998333D01*
X162974190Y-84379286D01*
X163450381Y-82855476D02*
X163450381Y-83426905D01*
X163450381Y-83141191D02*
X162450381Y-83141191D01*
X162593238Y-83236429D01*
X162688476Y-83331667D01*
X162736095Y-83426905D01*
X162878952Y-82284048D02*
X162831333Y-82379286D01*
X162783714Y-82426905D01*
X162688476Y-82474524D01*
X162640857Y-82474524D01*
X162545619Y-82426905D01*
X162498000Y-82379286D01*
X162450381Y-82284048D01*
X162450381Y-82093571D01*
X162498000Y-81998333D01*
X162545619Y-81950714D01*
X162640857Y-81903095D01*
X162688476Y-81903095D01*
X162783714Y-81950714D01*
X162831333Y-81998333D01*
X162878952Y-82093571D01*
X162878952Y-82284048D01*
X162926571Y-82379286D01*
X162974190Y-82426905D01*
X163069429Y-82474524D01*
X163259905Y-82474524D01*
X163355143Y-82426905D01*
X163402762Y-82379286D01*
X163450381Y-82284048D01*
X163450381Y-82093571D01*
X163402762Y-81998333D01*
X163355143Y-81950714D01*
X163259905Y-81903095D01*
X163069429Y-81903095D01*
X162974190Y-81950714D01*
X162926571Y-81998333D01*
X162878952Y-82093571D01*
X154950381Y-80007857D02*
X154474190Y-80341191D01*
X154950381Y-80579286D02*
X153950381Y-80579286D01*
X153950381Y-80198333D01*
X153998000Y-80103095D01*
X154045619Y-80055476D01*
X154140857Y-80007857D01*
X154283714Y-80007857D01*
X154378952Y-80055476D01*
X154426571Y-80103095D01*
X154474190Y-80198333D01*
X154474190Y-80579286D01*
X154950381Y-79055476D02*
X154950381Y-79626905D01*
X154950381Y-79341191D02*
X153950381Y-79341191D01*
X154093238Y-79436429D01*
X154188476Y-79531667D01*
X154236095Y-79626905D01*
X153950381Y-78722143D02*
X153950381Y-78055476D01*
X154950381Y-78484048D01*
X148650381Y-78407857D02*
X148174190Y-78741191D01*
X148650381Y-78979286D02*
X147650381Y-78979286D01*
X147650381Y-78598333D01*
X147698000Y-78503095D01*
X147745619Y-78455476D01*
X147840857Y-78407857D01*
X147983714Y-78407857D01*
X148078952Y-78455476D01*
X148126571Y-78503095D01*
X148174190Y-78598333D01*
X148174190Y-78979286D01*
X148650381Y-77455476D02*
X148650381Y-78026905D01*
X148650381Y-77741191D02*
X147650381Y-77741191D01*
X147793238Y-77836429D01*
X147888476Y-77931667D01*
X147936095Y-78026905D01*
X147650381Y-76598333D02*
X147650381Y-76788810D01*
X147698000Y-76884048D01*
X147745619Y-76931667D01*
X147888476Y-77026905D01*
X148078952Y-77074524D01*
X148459905Y-77074524D01*
X148555143Y-77026905D01*
X148602762Y-76979286D01*
X148650381Y-76884048D01*
X148650381Y-76693571D01*
X148602762Y-76598333D01*
X148555143Y-76550714D01*
X148459905Y-76503095D01*
X148221810Y-76503095D01*
X148126571Y-76550714D01*
X148078952Y-76598333D01*
X148031333Y-76693571D01*
X148031333Y-76884048D01*
X148078952Y-76979286D01*
X148126571Y-77026905D01*
X148221810Y-77074524D01*
X174155143Y-117617381D02*
X173821809Y-117141190D01*
X173583714Y-117617381D02*
X173583714Y-116617381D01*
X173964667Y-116617381D01*
X174059905Y-116665000D01*
X174107524Y-116712619D01*
X174155143Y-116807857D01*
X174155143Y-116950714D01*
X174107524Y-117045952D01*
X174059905Y-117093571D01*
X173964667Y-117141190D01*
X173583714Y-117141190D01*
X175107524Y-117617381D02*
X174536095Y-117617381D01*
X174821809Y-117617381D02*
X174821809Y-116617381D01*
X174726571Y-116760238D01*
X174631333Y-116855476D01*
X174536095Y-116903095D01*
X176012286Y-116617381D02*
X175536095Y-116617381D01*
X175488476Y-117093571D01*
X175536095Y-117045952D01*
X175631333Y-116998333D01*
X175869429Y-116998333D01*
X175964667Y-117045952D01*
X176012286Y-117093571D01*
X176059905Y-117188810D01*
X176059905Y-117426905D01*
X176012286Y-117522143D01*
X175964667Y-117569762D01*
X175869429Y-117617381D01*
X175631333Y-117617381D01*
X175536095Y-117569762D01*
X175488476Y-117522143D01*
X171255143Y-117617381D02*
X170921809Y-117141190D01*
X170683714Y-117617381D02*
X170683714Y-116617381D01*
X171064667Y-116617381D01*
X171159905Y-116665000D01*
X171207524Y-116712619D01*
X171255143Y-116807857D01*
X171255143Y-116950714D01*
X171207524Y-117045952D01*
X171159905Y-117093571D01*
X171064667Y-117141190D01*
X170683714Y-117141190D01*
X172207524Y-117617381D02*
X171636095Y-117617381D01*
X171921809Y-117617381D02*
X171921809Y-116617381D01*
X171826571Y-116760238D01*
X171731333Y-116855476D01*
X171636095Y-116903095D01*
X173064667Y-116950714D02*
X173064667Y-117617381D01*
X172826571Y-116569762D02*
X172588476Y-117284048D01*
X173207524Y-117284048D01*
X169750381Y-117107857D02*
X169274190Y-117441191D01*
X169750381Y-117679286D02*
X168750381Y-117679286D01*
X168750381Y-117298333D01*
X168798000Y-117203095D01*
X168845619Y-117155476D01*
X168940857Y-117107857D01*
X169083714Y-117107857D01*
X169178952Y-117155476D01*
X169226571Y-117203095D01*
X169274190Y-117298333D01*
X169274190Y-117679286D01*
X169750381Y-116155476D02*
X169750381Y-116726905D01*
X169750381Y-116441191D02*
X168750381Y-116441191D01*
X168893238Y-116536429D01*
X168988476Y-116631667D01*
X169036095Y-116726905D01*
X168750381Y-115822143D02*
X168750381Y-115203095D01*
X169131333Y-115536429D01*
X169131333Y-115393571D01*
X169178952Y-115298333D01*
X169226571Y-115250714D01*
X169321810Y-115203095D01*
X169559905Y-115203095D01*
X169655143Y-115250714D01*
X169702762Y-115298333D01*
X169750381Y-115393571D01*
X169750381Y-115679286D01*
X169702762Y-115774524D01*
X169655143Y-115822143D01*
X166255143Y-117717381D02*
X165921809Y-117241190D01*
X165683714Y-117717381D02*
X165683714Y-116717381D01*
X166064667Y-116717381D01*
X166159905Y-116765000D01*
X166207524Y-116812619D01*
X166255143Y-116907857D01*
X166255143Y-117050714D01*
X166207524Y-117145952D01*
X166159905Y-117193571D01*
X166064667Y-117241190D01*
X165683714Y-117241190D01*
X167207524Y-117717381D02*
X166636095Y-117717381D01*
X166921809Y-117717381D02*
X166921809Y-116717381D01*
X166826571Y-116860238D01*
X166731333Y-116955476D01*
X166636095Y-117003095D01*
X167588476Y-116812619D02*
X167636095Y-116765000D01*
X167731333Y-116717381D01*
X167969429Y-116717381D01*
X168064667Y-116765000D01*
X168112286Y-116812619D01*
X168159905Y-116907857D01*
X168159905Y-117003095D01*
X168112286Y-117145952D01*
X167540857Y-117717381D01*
X168159905Y-117717381D01*
X163655143Y-117717381D02*
X163321809Y-117241190D01*
X163083714Y-117717381D02*
X163083714Y-116717381D01*
X163464667Y-116717381D01*
X163559905Y-116765000D01*
X163607524Y-116812619D01*
X163655143Y-116907857D01*
X163655143Y-117050714D01*
X163607524Y-117145952D01*
X163559905Y-117193571D01*
X163464667Y-117241190D01*
X163083714Y-117241190D01*
X164607524Y-117717381D02*
X164036095Y-117717381D01*
X164321809Y-117717381D02*
X164321809Y-116717381D01*
X164226571Y-116860238D01*
X164131333Y-116955476D01*
X164036095Y-117003095D01*
X165559905Y-117717381D02*
X164988476Y-117717381D01*
X165274190Y-117717381D02*
X165274190Y-116717381D01*
X165178952Y-116860238D01*
X165083714Y-116955476D01*
X164988476Y-117003095D01*
X160355143Y-117717381D02*
X160021809Y-117241190D01*
X159783714Y-117717381D02*
X159783714Y-116717381D01*
X160164667Y-116717381D01*
X160259905Y-116765000D01*
X160307524Y-116812619D01*
X160355143Y-116907857D01*
X160355143Y-117050714D01*
X160307524Y-117145952D01*
X160259905Y-117193571D01*
X160164667Y-117241190D01*
X159783714Y-117241190D01*
X161307524Y-117717381D02*
X160736095Y-117717381D01*
X161021809Y-117717381D02*
X161021809Y-116717381D01*
X160926571Y-116860238D01*
X160831333Y-116955476D01*
X160736095Y-117003095D01*
X161926571Y-116717381D02*
X162021810Y-116717381D01*
X162117048Y-116765000D01*
X162164667Y-116812619D01*
X162212286Y-116907857D01*
X162259905Y-117098333D01*
X162259905Y-117336429D01*
X162212286Y-117526905D01*
X162164667Y-117622143D01*
X162117048Y-117669762D01*
X162021810Y-117717381D01*
X161926571Y-117717381D01*
X161831333Y-117669762D01*
X161783714Y-117622143D01*
X161736095Y-117526905D01*
X161688476Y-117336429D01*
X161688476Y-117098333D01*
X161736095Y-116907857D01*
X161783714Y-116812619D01*
X161831333Y-116765000D01*
X161926571Y-116717381D01*
X127431334Y-111687381D02*
X127098000Y-111211190D01*
X126859905Y-111687381D02*
X126859905Y-110687381D01*
X127240858Y-110687381D01*
X127336096Y-110735000D01*
X127383715Y-110782619D01*
X127431334Y-110877857D01*
X127431334Y-111020714D01*
X127383715Y-111115952D01*
X127336096Y-111163571D01*
X127240858Y-111211190D01*
X126859905Y-111211190D01*
X127907524Y-111687381D02*
X128098000Y-111687381D01*
X128193239Y-111639762D01*
X128240858Y-111592143D01*
X128336096Y-111449286D01*
X128383715Y-111258810D01*
X128383715Y-110877857D01*
X128336096Y-110782619D01*
X128288477Y-110735000D01*
X128193239Y-110687381D01*
X128002762Y-110687381D01*
X127907524Y-110735000D01*
X127859905Y-110782619D01*
X127812286Y-110877857D01*
X127812286Y-111115952D01*
X127859905Y-111211190D01*
X127907524Y-111258810D01*
X128002762Y-111306429D01*
X128193239Y-111306429D01*
X128288477Y-111258810D01*
X128336096Y-111211190D01*
X128383715Y-111115952D01*
X127531334Y-109587381D02*
X127198000Y-109111190D01*
X126959905Y-109587381D02*
X126959905Y-108587381D01*
X127340858Y-108587381D01*
X127436096Y-108635000D01*
X127483715Y-108682619D01*
X127531334Y-108777857D01*
X127531334Y-108920714D01*
X127483715Y-109015952D01*
X127436096Y-109063571D01*
X127340858Y-109111190D01*
X126959905Y-109111190D01*
X128102762Y-109015952D02*
X128007524Y-108968333D01*
X127959905Y-108920714D01*
X127912286Y-108825476D01*
X127912286Y-108777857D01*
X127959905Y-108682619D01*
X128007524Y-108635000D01*
X128102762Y-108587381D01*
X128293239Y-108587381D01*
X128388477Y-108635000D01*
X128436096Y-108682619D01*
X128483715Y-108777857D01*
X128483715Y-108825476D01*
X128436096Y-108920714D01*
X128388477Y-108968333D01*
X128293239Y-109015952D01*
X128102762Y-109015952D01*
X128007524Y-109063571D01*
X127959905Y-109111190D01*
X127912286Y-109206429D01*
X127912286Y-109396905D01*
X127959905Y-109492143D01*
X128007524Y-109539762D01*
X128102762Y-109587381D01*
X128293239Y-109587381D01*
X128388477Y-109539762D01*
X128436096Y-109492143D01*
X128483715Y-109396905D01*
X128483715Y-109206429D01*
X128436096Y-109111190D01*
X128388477Y-109063571D01*
X128293239Y-109015952D01*
X127531334Y-107687381D02*
X127198000Y-107211190D01*
X126959905Y-107687381D02*
X126959905Y-106687381D01*
X127340858Y-106687381D01*
X127436096Y-106735000D01*
X127483715Y-106782619D01*
X127531334Y-106877857D01*
X127531334Y-107020714D01*
X127483715Y-107115952D01*
X127436096Y-107163571D01*
X127340858Y-107211190D01*
X126959905Y-107211190D01*
X127864667Y-106687381D02*
X128531334Y-106687381D01*
X128102762Y-107687381D01*
X127431334Y-105387381D02*
X127098000Y-104911190D01*
X126859905Y-105387381D02*
X126859905Y-104387381D01*
X127240858Y-104387381D01*
X127336096Y-104435000D01*
X127383715Y-104482619D01*
X127431334Y-104577857D01*
X127431334Y-104720714D01*
X127383715Y-104815952D01*
X127336096Y-104863571D01*
X127240858Y-104911190D01*
X126859905Y-104911190D01*
X128288477Y-104387381D02*
X128098000Y-104387381D01*
X128002762Y-104435000D01*
X127955143Y-104482619D01*
X127859905Y-104625476D01*
X127812286Y-104815952D01*
X127812286Y-105196905D01*
X127859905Y-105292143D01*
X127907524Y-105339762D01*
X128002762Y-105387381D01*
X128193239Y-105387381D01*
X128288477Y-105339762D01*
X128336096Y-105292143D01*
X128383715Y-105196905D01*
X128383715Y-104958810D01*
X128336096Y-104863571D01*
X128288477Y-104815952D01*
X128193239Y-104768333D01*
X128002762Y-104768333D01*
X127907524Y-104815952D01*
X127859905Y-104863571D01*
X127812286Y-104958810D01*
X160031334Y-97167381D02*
X159698000Y-96691190D01*
X159459905Y-97167381D02*
X159459905Y-96167381D01*
X159840858Y-96167381D01*
X159936096Y-96215000D01*
X159983715Y-96262619D01*
X160031334Y-96357857D01*
X160031334Y-96500714D01*
X159983715Y-96595952D01*
X159936096Y-96643571D01*
X159840858Y-96691190D01*
X159459905Y-96691190D01*
X160936096Y-96167381D02*
X160459905Y-96167381D01*
X160412286Y-96643571D01*
X160459905Y-96595952D01*
X160555143Y-96548333D01*
X160793239Y-96548333D01*
X160888477Y-96595952D01*
X160936096Y-96643571D01*
X160983715Y-96738810D01*
X160983715Y-96976905D01*
X160936096Y-97072143D01*
X160888477Y-97119762D01*
X160793239Y-97167381D01*
X160555143Y-97167381D01*
X160459905Y-97119762D01*
X160412286Y-97072143D01*
X156031334Y-88317381D02*
X155698000Y-87841190D01*
X155459905Y-88317381D02*
X155459905Y-87317381D01*
X155840858Y-87317381D01*
X155936096Y-87365000D01*
X155983715Y-87412619D01*
X156031334Y-87507857D01*
X156031334Y-87650714D01*
X155983715Y-87745952D01*
X155936096Y-87793571D01*
X155840858Y-87841190D01*
X155459905Y-87841190D01*
X156888477Y-87650714D02*
X156888477Y-88317381D01*
X156650381Y-87269762D02*
X156412286Y-87984048D01*
X157031334Y-87984048D01*
X155131334Y-103617381D02*
X154798000Y-103141190D01*
X154559905Y-103617381D02*
X154559905Y-102617381D01*
X154940858Y-102617381D01*
X155036096Y-102665000D01*
X155083715Y-102712619D01*
X155131334Y-102807857D01*
X155131334Y-102950714D01*
X155083715Y-103045952D01*
X155036096Y-103093571D01*
X154940858Y-103141190D01*
X154559905Y-103141190D01*
X155464667Y-102617381D02*
X156083715Y-102617381D01*
X155750381Y-102998333D01*
X155893239Y-102998333D01*
X155988477Y-103045952D01*
X156036096Y-103093571D01*
X156083715Y-103188810D01*
X156083715Y-103426905D01*
X156036096Y-103522143D01*
X155988477Y-103569762D01*
X155893239Y-103617381D01*
X155607524Y-103617381D01*
X155512286Y-103569762D01*
X155464667Y-103522143D01*
X160131334Y-93417381D02*
X159798000Y-92941190D01*
X159559905Y-93417381D02*
X159559905Y-92417381D01*
X159940858Y-92417381D01*
X160036096Y-92465000D01*
X160083715Y-92512619D01*
X160131334Y-92607857D01*
X160131334Y-92750714D01*
X160083715Y-92845952D01*
X160036096Y-92893571D01*
X159940858Y-92941190D01*
X159559905Y-92941190D01*
X160512286Y-92512619D02*
X160559905Y-92465000D01*
X160655143Y-92417381D01*
X160893239Y-92417381D01*
X160988477Y-92465000D01*
X161036096Y-92512619D01*
X161083715Y-92607857D01*
X161083715Y-92703095D01*
X161036096Y-92845952D01*
X160464667Y-93417381D01*
X161083715Y-93417381D01*
X170421334Y-87757381D02*
X170088000Y-87281190D01*
X169849905Y-87757381D02*
X169849905Y-86757381D01*
X170230858Y-86757381D01*
X170326096Y-86805000D01*
X170373715Y-86852619D01*
X170421334Y-86947857D01*
X170421334Y-87090714D01*
X170373715Y-87185952D01*
X170326096Y-87233571D01*
X170230858Y-87281190D01*
X169849905Y-87281190D01*
X171373715Y-87757381D02*
X170802286Y-87757381D01*
X171088000Y-87757381D02*
X171088000Y-86757381D01*
X170992762Y-86900238D01*
X170897524Y-86995476D01*
X170802286Y-87043095D01*
X149455143Y-88207857D02*
X149502762Y-88255476D01*
X149550381Y-88398333D01*
X149550381Y-88493571D01*
X149502762Y-88636429D01*
X149407524Y-88731667D01*
X149312286Y-88779286D01*
X149121810Y-88826905D01*
X148978952Y-88826905D01*
X148788476Y-88779286D01*
X148693238Y-88731667D01*
X148598000Y-88636429D01*
X148550381Y-88493571D01*
X148550381Y-88398333D01*
X148598000Y-88255476D01*
X148645619Y-88207857D01*
X148645619Y-87826905D02*
X148598000Y-87779286D01*
X148550381Y-87684048D01*
X148550381Y-87445952D01*
X148598000Y-87350714D01*
X148645619Y-87303095D01*
X148740857Y-87255476D01*
X148836095Y-87255476D01*
X148978952Y-87303095D01*
X149550381Y-87874524D01*
X149550381Y-87255476D01*
X148883714Y-86398333D02*
X149550381Y-86398333D01*
X148502762Y-86636429D02*
X149217048Y-86874524D01*
X149217048Y-86255476D01*
X163155143Y-91807857D02*
X163202762Y-91855476D01*
X163250381Y-91998333D01*
X163250381Y-92093571D01*
X163202762Y-92236429D01*
X163107524Y-92331667D01*
X163012286Y-92379286D01*
X162821810Y-92426905D01*
X162678952Y-92426905D01*
X162488476Y-92379286D01*
X162393238Y-92331667D01*
X162298000Y-92236429D01*
X162250381Y-92093571D01*
X162250381Y-91998333D01*
X162298000Y-91855476D01*
X162345619Y-91807857D01*
X162345619Y-91426905D02*
X162298000Y-91379286D01*
X162250381Y-91284048D01*
X162250381Y-91045952D01*
X162298000Y-90950714D01*
X162345619Y-90903095D01*
X162440857Y-90855476D01*
X162536095Y-90855476D01*
X162678952Y-90903095D01*
X163250381Y-91474524D01*
X163250381Y-90855476D01*
X162250381Y-90522143D02*
X162250381Y-89903095D01*
X162631333Y-90236429D01*
X162631333Y-90093571D01*
X162678952Y-89998333D01*
X162726571Y-89950714D01*
X162821810Y-89903095D01*
X163059905Y-89903095D01*
X163155143Y-89950714D01*
X163202762Y-89998333D01*
X163250381Y-90093571D01*
X163250381Y-90379286D01*
X163202762Y-90474524D01*
X163155143Y-90522143D01*
X151355143Y-111822143D02*
X151307524Y-111869762D01*
X151164667Y-111917381D01*
X151069429Y-111917381D01*
X150926571Y-111869762D01*
X150831333Y-111774524D01*
X150783714Y-111679286D01*
X150736095Y-111488810D01*
X150736095Y-111345952D01*
X150783714Y-111155476D01*
X150831333Y-111060238D01*
X150926571Y-110965000D01*
X151069429Y-110917381D01*
X151164667Y-110917381D01*
X151307524Y-110965000D01*
X151355143Y-111012619D01*
X151736095Y-111012619D02*
X151783714Y-110965000D01*
X151878952Y-110917381D01*
X152117048Y-110917381D01*
X152212286Y-110965000D01*
X152259905Y-111012619D01*
X152307524Y-111107857D01*
X152307524Y-111203095D01*
X152259905Y-111345952D01*
X151688476Y-111917381D01*
X152307524Y-111917381D01*
X153259905Y-111917381D02*
X152688476Y-111917381D01*
X152974190Y-111917381D02*
X152974190Y-110917381D01*
X152878952Y-111060238D01*
X152783714Y-111155476D01*
X152688476Y-111203095D01*
X170655143Y-106822143D02*
X170607524Y-106869762D01*
X170464667Y-106917381D01*
X170369429Y-106917381D01*
X170226571Y-106869762D01*
X170131333Y-106774524D01*
X170083714Y-106679286D01*
X170036095Y-106488810D01*
X170036095Y-106345952D01*
X170083714Y-106155476D01*
X170131333Y-106060238D01*
X170226571Y-105965000D01*
X170369429Y-105917381D01*
X170464667Y-105917381D01*
X170607524Y-105965000D01*
X170655143Y-106012619D01*
X171036095Y-106012619D02*
X171083714Y-105965000D01*
X171178952Y-105917381D01*
X171417048Y-105917381D01*
X171512286Y-105965000D01*
X171559905Y-106012619D01*
X171607524Y-106107857D01*
X171607524Y-106203095D01*
X171559905Y-106345952D01*
X170988476Y-106917381D01*
X171607524Y-106917381D01*
X172226571Y-105917381D02*
X172321810Y-105917381D01*
X172417048Y-105965000D01*
X172464667Y-106012619D01*
X172512286Y-106107857D01*
X172559905Y-106298333D01*
X172559905Y-106536429D01*
X172512286Y-106726905D01*
X172464667Y-106822143D01*
X172417048Y-106869762D01*
X172321810Y-106917381D01*
X172226571Y-106917381D01*
X172131333Y-106869762D01*
X172083714Y-106822143D01*
X172036095Y-106726905D01*
X171988476Y-106536429D01*
X171988476Y-106298333D01*
X172036095Y-106107857D01*
X172083714Y-106012619D01*
X172131333Y-105965000D01*
X172226571Y-105917381D01*
X152355143Y-106022143D02*
X152307524Y-106069762D01*
X152164667Y-106117381D01*
X152069429Y-106117381D01*
X151926571Y-106069762D01*
X151831333Y-105974524D01*
X151783714Y-105879286D01*
X151736095Y-105688810D01*
X151736095Y-105545952D01*
X151783714Y-105355476D01*
X151831333Y-105260238D01*
X151926571Y-105165000D01*
X152069429Y-105117381D01*
X152164667Y-105117381D01*
X152307524Y-105165000D01*
X152355143Y-105212619D01*
X153307524Y-106117381D02*
X152736095Y-106117381D01*
X153021809Y-106117381D02*
X153021809Y-105117381D01*
X152926571Y-105260238D01*
X152831333Y-105355476D01*
X152736095Y-105403095D01*
X153783714Y-106117381D02*
X153974190Y-106117381D01*
X154069429Y-106069762D01*
X154117048Y-106022143D01*
X154212286Y-105879286D01*
X154259905Y-105688810D01*
X154259905Y-105307857D01*
X154212286Y-105212619D01*
X154164667Y-105165000D01*
X154069429Y-105117381D01*
X153878952Y-105117381D01*
X153783714Y-105165000D01*
X153736095Y-105212619D01*
X153688476Y-105307857D01*
X153688476Y-105545952D01*
X153736095Y-105641190D01*
X153783714Y-105688810D01*
X153878952Y-105736429D01*
X154069429Y-105736429D01*
X154164667Y-105688810D01*
X154212286Y-105641190D01*
X154259905Y-105545952D01*
X157155143Y-95307857D02*
X157202762Y-95355476D01*
X157250381Y-95498333D01*
X157250381Y-95593571D01*
X157202762Y-95736429D01*
X157107524Y-95831667D01*
X157012286Y-95879286D01*
X156821810Y-95926905D01*
X156678952Y-95926905D01*
X156488476Y-95879286D01*
X156393238Y-95831667D01*
X156298000Y-95736429D01*
X156250381Y-95593571D01*
X156250381Y-95498333D01*
X156298000Y-95355476D01*
X156345619Y-95307857D01*
X157250381Y-94355476D02*
X157250381Y-94926905D01*
X157250381Y-94641191D02*
X156250381Y-94641191D01*
X156393238Y-94736429D01*
X156488476Y-94831667D01*
X156536095Y-94926905D01*
X156678952Y-93784048D02*
X156631333Y-93879286D01*
X156583714Y-93926905D01*
X156488476Y-93974524D01*
X156440857Y-93974524D01*
X156345619Y-93926905D01*
X156298000Y-93879286D01*
X156250381Y-93784048D01*
X156250381Y-93593571D01*
X156298000Y-93498333D01*
X156345619Y-93450714D01*
X156440857Y-93403095D01*
X156488476Y-93403095D01*
X156583714Y-93450714D01*
X156631333Y-93498333D01*
X156678952Y-93593571D01*
X156678952Y-93784048D01*
X156726571Y-93879286D01*
X156774190Y-93926905D01*
X156869429Y-93974524D01*
X157059905Y-93974524D01*
X157155143Y-93926905D01*
X157202762Y-93879286D01*
X157250381Y-93784048D01*
X157250381Y-93593571D01*
X157202762Y-93498333D01*
X157155143Y-93450714D01*
X157059905Y-93403095D01*
X156869429Y-93403095D01*
X156774190Y-93450714D01*
X156726571Y-93498333D01*
X156678952Y-93593571D01*
X138625143Y-92452143D02*
X138577524Y-92499762D01*
X138434667Y-92547381D01*
X138339429Y-92547381D01*
X138196571Y-92499762D01*
X138101333Y-92404524D01*
X138053714Y-92309286D01*
X138006095Y-92118810D01*
X138006095Y-91975952D01*
X138053714Y-91785476D01*
X138101333Y-91690238D01*
X138196571Y-91595000D01*
X138339429Y-91547381D01*
X138434667Y-91547381D01*
X138577524Y-91595000D01*
X138625143Y-91642619D01*
X139577524Y-92547381D02*
X139006095Y-92547381D01*
X139291809Y-92547381D02*
X139291809Y-91547381D01*
X139196571Y-91690238D01*
X139101333Y-91785476D01*
X139006095Y-91833095D01*
X140482286Y-91547381D02*
X140006095Y-91547381D01*
X139958476Y-92023571D01*
X140006095Y-91975952D01*
X140101333Y-91928333D01*
X140339429Y-91928333D01*
X140434667Y-91975952D01*
X140482286Y-92023571D01*
X140529905Y-92118810D01*
X140529905Y-92356905D01*
X140482286Y-92452143D01*
X140434667Y-92499762D01*
X140339429Y-92547381D01*
X140101333Y-92547381D01*
X140006095Y-92499762D01*
X139958476Y-92452143D01*
X153155143Y-99007857D02*
X153202762Y-99055476D01*
X153250381Y-99198333D01*
X153250381Y-99293571D01*
X153202762Y-99436429D01*
X153107524Y-99531667D01*
X153012286Y-99579286D01*
X152821810Y-99626905D01*
X152678952Y-99626905D01*
X152488476Y-99579286D01*
X152393238Y-99531667D01*
X152298000Y-99436429D01*
X152250381Y-99293571D01*
X152250381Y-99198333D01*
X152298000Y-99055476D01*
X152345619Y-99007857D01*
X153250381Y-98055476D02*
X153250381Y-98626905D01*
X153250381Y-98341191D02*
X152250381Y-98341191D01*
X152393238Y-98436429D01*
X152488476Y-98531667D01*
X152536095Y-98626905D01*
X152583714Y-97198333D02*
X153250381Y-97198333D01*
X152202762Y-97436429D02*
X152917048Y-97674524D01*
X152917048Y-97055476D01*
X145405143Y-117972143D02*
X145357524Y-118019762D01*
X145214667Y-118067381D01*
X145119429Y-118067381D01*
X144976571Y-118019762D01*
X144881333Y-117924524D01*
X144833714Y-117829286D01*
X144786095Y-117638810D01*
X144786095Y-117495952D01*
X144833714Y-117305476D01*
X144881333Y-117210238D01*
X144976571Y-117115000D01*
X145119429Y-117067381D01*
X145214667Y-117067381D01*
X145357524Y-117115000D01*
X145405143Y-117162619D01*
X146357524Y-118067381D02*
X145786095Y-118067381D01*
X146071809Y-118067381D02*
X146071809Y-117067381D01*
X145976571Y-117210238D01*
X145881333Y-117305476D01*
X145786095Y-117353095D01*
X146738476Y-117162619D02*
X146786095Y-117115000D01*
X146881333Y-117067381D01*
X147119429Y-117067381D01*
X147214667Y-117115000D01*
X147262286Y-117162619D01*
X147309905Y-117257857D01*
X147309905Y-117353095D01*
X147262286Y-117495952D01*
X146690857Y-118067381D01*
X147309905Y-118067381D01*
X147055143Y-99222143D02*
X147007524Y-99269762D01*
X146864667Y-99317381D01*
X146769429Y-99317381D01*
X146626571Y-99269762D01*
X146531333Y-99174524D01*
X146483714Y-99079286D01*
X146436095Y-98888810D01*
X146436095Y-98745952D01*
X146483714Y-98555476D01*
X146531333Y-98460238D01*
X146626571Y-98365000D01*
X146769429Y-98317381D01*
X146864667Y-98317381D01*
X147007524Y-98365000D01*
X147055143Y-98412619D01*
X148007524Y-99317381D02*
X147436095Y-99317381D01*
X147721809Y-99317381D02*
X147721809Y-98317381D01*
X147626571Y-98460238D01*
X147531333Y-98555476D01*
X147436095Y-98603095D01*
X148626571Y-98317381D02*
X148721810Y-98317381D01*
X148817048Y-98365000D01*
X148864667Y-98412619D01*
X148912286Y-98507857D01*
X148959905Y-98698333D01*
X148959905Y-98936429D01*
X148912286Y-99126905D01*
X148864667Y-99222143D01*
X148817048Y-99269762D01*
X148721810Y-99317381D01*
X148626571Y-99317381D01*
X148531333Y-99269762D01*
X148483714Y-99222143D01*
X148436095Y-99126905D01*
X148388476Y-98936429D01*
X148388476Y-98698333D01*
X148436095Y-98507857D01*
X148483714Y-98412619D01*
X148531333Y-98365000D01*
X148626571Y-98317381D01*
X132231334Y-96222143D02*
X132183715Y-96269762D01*
X132040858Y-96317381D01*
X131945620Y-96317381D01*
X131802762Y-96269762D01*
X131707524Y-96174524D01*
X131659905Y-96079286D01*
X131612286Y-95888810D01*
X131612286Y-95745952D01*
X131659905Y-95555476D01*
X131707524Y-95460238D01*
X131802762Y-95365000D01*
X131945620Y-95317381D01*
X132040858Y-95317381D01*
X132183715Y-95365000D01*
X132231334Y-95412619D01*
X132802762Y-95745952D02*
X132707524Y-95698333D01*
X132659905Y-95650714D01*
X132612286Y-95555476D01*
X132612286Y-95507857D01*
X132659905Y-95412619D01*
X132707524Y-95365000D01*
X132802762Y-95317381D01*
X132993239Y-95317381D01*
X133088477Y-95365000D01*
X133136096Y-95412619D01*
X133183715Y-95507857D01*
X133183715Y-95555476D01*
X133136096Y-95650714D01*
X133088477Y-95698333D01*
X132993239Y-95745952D01*
X132802762Y-95745952D01*
X132707524Y-95793571D01*
X132659905Y-95841190D01*
X132612286Y-95936429D01*
X132612286Y-96126905D01*
X132659905Y-96222143D01*
X132707524Y-96269762D01*
X132802762Y-96317381D01*
X132993239Y-96317381D01*
X133088477Y-96269762D01*
X133136096Y-96222143D01*
X133183715Y-96126905D01*
X133183715Y-95936429D01*
X133136096Y-95841190D01*
X133088477Y-95793571D01*
X132993239Y-95745952D01*
X169231334Y-95522143D02*
X169183715Y-95569762D01*
X169040858Y-95617381D01*
X168945620Y-95617381D01*
X168802762Y-95569762D01*
X168707524Y-95474524D01*
X168659905Y-95379286D01*
X168612286Y-95188810D01*
X168612286Y-95045952D01*
X168659905Y-94855476D01*
X168707524Y-94760238D01*
X168802762Y-94665000D01*
X168945620Y-94617381D01*
X169040858Y-94617381D01*
X169183715Y-94665000D01*
X169231334Y-94712619D01*
X169564667Y-94617381D02*
X170231334Y-94617381D01*
X169802762Y-95617381D01*
X173659905Y-87117381D02*
X173659905Y-86117381D01*
X174040858Y-86117381D01*
X174136096Y-86165000D01*
X174183715Y-86212619D01*
X174231334Y-86307857D01*
X174231334Y-86450714D01*
X174183715Y-86545952D01*
X174136096Y-86593571D01*
X174040858Y-86641190D01*
X173659905Y-86641190D01*
X175183715Y-87117381D02*
X174612286Y-87117381D01*
X174898000Y-87117381D02*
X174898000Y-86117381D01*
X174802762Y-86260238D01*
X174707524Y-86355476D01*
X174612286Y-86403095D01*
X132850381Y-80079286D02*
X131850381Y-80079286D01*
X131850381Y-79698333D01*
X131898000Y-79603095D01*
X131945619Y-79555476D01*
X132040857Y-79507857D01*
X132183714Y-79507857D01*
X132278952Y-79555476D01*
X132326571Y-79603095D01*
X132374190Y-79698333D01*
X132374190Y-80079286D01*
X132850381Y-78555476D02*
X132850381Y-79126905D01*
X132850381Y-78841191D02*
X131850381Y-78841191D01*
X131993238Y-78936429D01*
X132088476Y-79031667D01*
X132136095Y-79126905D01*
X131850381Y-77698333D02*
X131850381Y-77888810D01*
X131898000Y-77984048D01*
X131945619Y-78031667D01*
X132088476Y-78126905D01*
X132278952Y-78174524D01*
X132659905Y-78174524D01*
X132755143Y-78126905D01*
X132802762Y-78079286D01*
X132850381Y-77984048D01*
X132850381Y-77793571D01*
X132802762Y-77698333D01*
X132755143Y-77650714D01*
X132659905Y-77603095D01*
X132421810Y-77603095D01*
X132326571Y-77650714D01*
X132278952Y-77698333D01*
X132231333Y-77793571D01*
X132231333Y-77984048D01*
X132278952Y-78079286D01*
X132326571Y-78126905D01*
X132421810Y-78174524D01*
X155383714Y-74117381D02*
X155383714Y-73117381D01*
X155764667Y-73117381D01*
X155859905Y-73165000D01*
X155907524Y-73212619D01*
X155955143Y-73307857D01*
X155955143Y-73450714D01*
X155907524Y-73545952D01*
X155859905Y-73593571D01*
X155764667Y-73641190D01*
X155383714Y-73641190D01*
X156907524Y-74117381D02*
X156336095Y-74117381D01*
X156621809Y-74117381D02*
X156621809Y-73117381D01*
X156526571Y-73260238D01*
X156431333Y-73355476D01*
X156336095Y-73403095D01*
X157812286Y-73117381D02*
X157336095Y-73117381D01*
X157288476Y-73593571D01*
X157336095Y-73545952D01*
X157431333Y-73498333D01*
X157669429Y-73498333D01*
X157764667Y-73545952D01*
X157812286Y-73593571D01*
X157859905Y-73688810D01*
X157859905Y-73926905D01*
X157812286Y-74022143D01*
X157764667Y-74069762D01*
X157669429Y-74117381D01*
X157431333Y-74117381D01*
X157336095Y-74069762D01*
X157288476Y-74022143D01*
X127750381Y-76979286D02*
X126750381Y-76979286D01*
X126750381Y-76598333D01*
X126798000Y-76503095D01*
X126845619Y-76455476D01*
X126940857Y-76407857D01*
X127083714Y-76407857D01*
X127178952Y-76455476D01*
X127226571Y-76503095D01*
X127274190Y-76598333D01*
X127274190Y-76979286D01*
X127750381Y-75455476D02*
X127750381Y-76026905D01*
X127750381Y-75741191D02*
X126750381Y-75741191D01*
X126893238Y-75836429D01*
X126988476Y-75931667D01*
X127036095Y-76026905D01*
X127083714Y-74598333D02*
X127750381Y-74598333D01*
X126702762Y-74836429D02*
X127417048Y-75074524D01*
X127417048Y-74455476D01*
X173883714Y-82417381D02*
X173883714Y-81417381D01*
X174264667Y-81417381D01*
X174359905Y-81465000D01*
X174407524Y-81512619D01*
X174455143Y-81607857D01*
X174455143Y-81750714D01*
X174407524Y-81845952D01*
X174359905Y-81893571D01*
X174264667Y-81941190D01*
X173883714Y-81941190D01*
X175407524Y-82417381D02*
X174836095Y-82417381D01*
X175121809Y-82417381D02*
X175121809Y-81417381D01*
X175026571Y-81560238D01*
X174931333Y-81655476D01*
X174836095Y-81703095D01*
X175740857Y-81417381D02*
X176359905Y-81417381D01*
X176026571Y-81798333D01*
X176169429Y-81798333D01*
X176264667Y-81845952D01*
X176312286Y-81893571D01*
X176359905Y-81988810D01*
X176359905Y-82226905D01*
X176312286Y-82322143D01*
X176264667Y-82369762D01*
X176169429Y-82417381D01*
X175883714Y-82417381D01*
X175788476Y-82369762D01*
X175740857Y-82322143D01*
X156833714Y-81217381D02*
X156833714Y-80217381D01*
X157214667Y-80217381D01*
X157309905Y-80265000D01*
X157357524Y-80312619D01*
X157405143Y-80407857D01*
X157405143Y-80550714D01*
X157357524Y-80645952D01*
X157309905Y-80693571D01*
X157214667Y-80741190D01*
X156833714Y-80741190D01*
X158357524Y-81217381D02*
X157786095Y-81217381D01*
X158071809Y-81217381D02*
X158071809Y-80217381D01*
X157976571Y-80360238D01*
X157881333Y-80455476D01*
X157786095Y-80503095D01*
X158738476Y-80312619D02*
X158786095Y-80265000D01*
X158881333Y-80217381D01*
X159119429Y-80217381D01*
X159214667Y-80265000D01*
X159262286Y-80312619D01*
X159309905Y-80407857D01*
X159309905Y-80503095D01*
X159262286Y-80645952D01*
X158690857Y-81217381D01*
X159309905Y-81217381D01*
X132783714Y-78017381D02*
X132783714Y-77017381D01*
X133164667Y-77017381D01*
X133259905Y-77065000D01*
X133307524Y-77112619D01*
X133355143Y-77207857D01*
X133355143Y-77350714D01*
X133307524Y-77445952D01*
X133259905Y-77493571D01*
X133164667Y-77541190D01*
X132783714Y-77541190D01*
X134307524Y-78017381D02*
X133736095Y-78017381D01*
X134021809Y-78017381D02*
X134021809Y-77017381D01*
X133926571Y-77160238D01*
X133831333Y-77255476D01*
X133736095Y-77303095D01*
X135259905Y-78017381D02*
X134688476Y-78017381D01*
X134974190Y-78017381D02*
X134974190Y-77017381D01*
X134878952Y-77160238D01*
X134783714Y-77255476D01*
X134688476Y-77303095D01*
X126783714Y-81417381D02*
X126783714Y-80417381D01*
X127164667Y-80417381D01*
X127259905Y-80465000D01*
X127307524Y-80512619D01*
X127355143Y-80607857D01*
X127355143Y-80750714D01*
X127307524Y-80845952D01*
X127259905Y-80893571D01*
X127164667Y-80941190D01*
X126783714Y-80941190D01*
X128307524Y-81417381D02*
X127736095Y-81417381D01*
X128021809Y-81417381D02*
X128021809Y-80417381D01*
X127926571Y-80560238D01*
X127831333Y-80655476D01*
X127736095Y-80703095D01*
X128926571Y-80417381D02*
X129021810Y-80417381D01*
X129117048Y-80465000D01*
X129164667Y-80512619D01*
X129212286Y-80607857D01*
X129259905Y-80798333D01*
X129259905Y-81036429D01*
X129212286Y-81226905D01*
X129164667Y-81322143D01*
X129117048Y-81369762D01*
X129021810Y-81417381D01*
X128926571Y-81417381D01*
X128831333Y-81369762D01*
X128783714Y-81322143D01*
X128736095Y-81226905D01*
X128688476Y-81036429D01*
X128688476Y-80798333D01*
X128736095Y-80607857D01*
X128783714Y-80512619D01*
X128831333Y-80465000D01*
X128926571Y-80417381D01*
X130559905Y-81617381D02*
X130559905Y-80617381D01*
X130940858Y-80617381D01*
X131036096Y-80665000D01*
X131083715Y-80712619D01*
X131131334Y-80807857D01*
X131131334Y-80950714D01*
X131083715Y-81045952D01*
X131036096Y-81093571D01*
X130940858Y-81141190D01*
X130559905Y-81141190D01*
X131607524Y-81617381D02*
X131798000Y-81617381D01*
X131893239Y-81569762D01*
X131940858Y-81522143D01*
X132036096Y-81379286D01*
X132083715Y-81188810D01*
X132083715Y-80807857D01*
X132036096Y-80712619D01*
X131988477Y-80665000D01*
X131893239Y-80617381D01*
X131702762Y-80617381D01*
X131607524Y-80665000D01*
X131559905Y-80712619D01*
X131512286Y-80807857D01*
X131512286Y-81045952D01*
X131559905Y-81141190D01*
X131607524Y-81188810D01*
X131702762Y-81236429D01*
X131893239Y-81236429D01*
X131988477Y-81188810D01*
X132036096Y-81141190D01*
X132083715Y-81045952D01*
X157100381Y-124603095D02*
X156100381Y-124603095D01*
X156100381Y-124222142D01*
X156148000Y-124126904D01*
X156195619Y-124079285D01*
X156290857Y-124031666D01*
X156433714Y-124031666D01*
X156528952Y-124079285D01*
X156576571Y-124126904D01*
X156624190Y-124222142D01*
X156624190Y-124603095D01*
X156528952Y-123460238D02*
X156481333Y-123555476D01*
X156433714Y-123603095D01*
X156338476Y-123650714D01*
X156290857Y-123650714D01*
X156195619Y-123603095D01*
X156148000Y-123555476D01*
X156100381Y-123460238D01*
X156100381Y-123269761D01*
X156148000Y-123174523D01*
X156195619Y-123126904D01*
X156290857Y-123079285D01*
X156338476Y-123079285D01*
X156433714Y-123126904D01*
X156481333Y-123174523D01*
X156528952Y-123269761D01*
X156528952Y-123460238D01*
X156576571Y-123555476D01*
X156624190Y-123603095D01*
X156719429Y-123650714D01*
X156909905Y-123650714D01*
X157005143Y-123603095D01*
X157052762Y-123555476D01*
X157100381Y-123460238D01*
X157100381Y-123269761D01*
X157052762Y-123174523D01*
X157005143Y-123126904D01*
X156909905Y-123079285D01*
X156719429Y-123079285D01*
X156624190Y-123126904D01*
X156576571Y-123174523D01*
X156528952Y-123269761D01*
X137250381Y-124903095D02*
X136250381Y-124903095D01*
X136250381Y-124522142D01*
X136298000Y-124426904D01*
X136345619Y-124379285D01*
X136440857Y-124331666D01*
X136583714Y-124331666D01*
X136678952Y-124379285D01*
X136726571Y-124426904D01*
X136774190Y-124522142D01*
X136774190Y-124903095D01*
X136250381Y-123998333D02*
X136250381Y-123331666D01*
X137250381Y-123760238D01*
X126749905Y-114487381D02*
X126749905Y-113487381D01*
X127130858Y-113487381D01*
X127226096Y-113535000D01*
X127273715Y-113582619D01*
X127321334Y-113677857D01*
X127321334Y-113820714D01*
X127273715Y-113915952D01*
X127226096Y-113963571D01*
X127130858Y-114011190D01*
X126749905Y-114011190D01*
X128178477Y-113820714D02*
X128178477Y-114487381D01*
X127940381Y-113439762D02*
X127702286Y-114154048D01*
X128321334Y-114154048D01*
X164731334Y-108622143D02*
X164683715Y-108669762D01*
X164540858Y-108717381D01*
X164445620Y-108717381D01*
X164302762Y-108669762D01*
X164207524Y-108574524D01*
X164159905Y-108479286D01*
X164112286Y-108288810D01*
X164112286Y-108145952D01*
X164159905Y-107955476D01*
X164207524Y-107860238D01*
X164302762Y-107765000D01*
X164445620Y-107717381D01*
X164540858Y-107717381D01*
X164683715Y-107765000D01*
X164731334Y-107812619D01*
X165112286Y-107812619D02*
X165159905Y-107765000D01*
X165255143Y-107717381D01*
X165493239Y-107717381D01*
X165588477Y-107765000D01*
X165636096Y-107812619D01*
X165683715Y-107907857D01*
X165683715Y-108003095D01*
X165636096Y-108145952D01*
X165064667Y-108717381D01*
X165683715Y-108717381D01*
X152831334Y-117022143D02*
X152783715Y-117069762D01*
X152640858Y-117117381D01*
X152545620Y-117117381D01*
X152402762Y-117069762D01*
X152307524Y-116974524D01*
X152259905Y-116879286D01*
X152212286Y-116688810D01*
X152212286Y-116545952D01*
X152259905Y-116355476D01*
X152307524Y-116260238D01*
X152402762Y-116165000D01*
X152545620Y-116117381D01*
X152640858Y-116117381D01*
X152783715Y-116165000D01*
X152831334Y-116212619D01*
X153164667Y-116117381D02*
X153783715Y-116117381D01*
X153450381Y-116498333D01*
X153593239Y-116498333D01*
X153688477Y-116545952D01*
X153736096Y-116593571D01*
X153783715Y-116688810D01*
X153783715Y-116926905D01*
X153736096Y-117022143D01*
X153688477Y-117069762D01*
X153593239Y-117117381D01*
X153307524Y-117117381D01*
X153212286Y-117069762D01*
X153164667Y-117022143D01*
X163931334Y-103922143D02*
X163883715Y-103969762D01*
X163740858Y-104017381D01*
X163645620Y-104017381D01*
X163502762Y-103969762D01*
X163407524Y-103874524D01*
X163359905Y-103779286D01*
X163312286Y-103588810D01*
X163312286Y-103445952D01*
X163359905Y-103255476D01*
X163407524Y-103160238D01*
X163502762Y-103065000D01*
X163645620Y-103017381D01*
X163740858Y-103017381D01*
X163883715Y-103065000D01*
X163931334Y-103112619D01*
X164788477Y-103350714D02*
X164788477Y-104017381D01*
X164550381Y-102969762D02*
X164312286Y-103684048D01*
X164931334Y-103684048D01*
X163731334Y-97022143D02*
X163683715Y-97069762D01*
X163540858Y-97117381D01*
X163445620Y-97117381D01*
X163302762Y-97069762D01*
X163207524Y-96974524D01*
X163159905Y-96879286D01*
X163112286Y-96688810D01*
X163112286Y-96545952D01*
X163159905Y-96355476D01*
X163207524Y-96260238D01*
X163302762Y-96165000D01*
X163445620Y-96117381D01*
X163540858Y-96117381D01*
X163683715Y-96165000D01*
X163731334Y-96212619D01*
X164636096Y-96117381D02*
X164159905Y-96117381D01*
X164112286Y-96593571D01*
X164159905Y-96545952D01*
X164255143Y-96498333D01*
X164493239Y-96498333D01*
X164588477Y-96545952D01*
X164636096Y-96593571D01*
X164683715Y-96688810D01*
X164683715Y-96926905D01*
X164636096Y-97022143D01*
X164588477Y-97069762D01*
X164493239Y-97117381D01*
X164255143Y-97117381D01*
X164159905Y-97069762D01*
X164112286Y-97022143D01*
X135255143Y-96431666D02*
X135302762Y-96479285D01*
X135350381Y-96622142D01*
X135350381Y-96717380D01*
X135302762Y-96860238D01*
X135207524Y-96955476D01*
X135112286Y-97003095D01*
X134921810Y-97050714D01*
X134778952Y-97050714D01*
X134588476Y-97003095D01*
X134493238Y-96955476D01*
X134398000Y-96860238D01*
X134350381Y-96717380D01*
X134350381Y-96622142D01*
X134398000Y-96479285D01*
X134445619Y-96431666D01*
X135350381Y-95955476D02*
X135350381Y-95765000D01*
X135302762Y-95669761D01*
X135255143Y-95622142D01*
X135112286Y-95526904D01*
X134921810Y-95479285D01*
X134540857Y-95479285D01*
X134445619Y-95526904D01*
X134398000Y-95574523D01*
X134350381Y-95669761D01*
X134350381Y-95860238D01*
X134398000Y-95955476D01*
X134445619Y-96003095D01*
X134540857Y-96050714D01*
X134778952Y-96050714D01*
X134874190Y-96003095D01*
X134921810Y-95955476D01*
X134969429Y-95860238D01*
X134969429Y-95669761D01*
X134921810Y-95574523D01*
X134874190Y-95526904D01*
X134778952Y-95479285D01*
X148955143Y-100822143D02*
X148907524Y-100869762D01*
X148764667Y-100917381D01*
X148669429Y-100917381D01*
X148526571Y-100869762D01*
X148431333Y-100774524D01*
X148383714Y-100679286D01*
X148336095Y-100488810D01*
X148336095Y-100345952D01*
X148383714Y-100155476D01*
X148431333Y-100060238D01*
X148526571Y-99965000D01*
X148669429Y-99917381D01*
X148764667Y-99917381D01*
X148907524Y-99965000D01*
X148955143Y-100012619D01*
X149907524Y-100917381D02*
X149336095Y-100917381D01*
X149621809Y-100917381D02*
X149621809Y-99917381D01*
X149526571Y-100060238D01*
X149431333Y-100155476D01*
X149336095Y-100203095D01*
X150859905Y-100917381D02*
X150288476Y-100917381D01*
X150574190Y-100917381D02*
X150574190Y-99917381D01*
X150478952Y-100060238D01*
X150383714Y-100155476D01*
X150288476Y-100203095D01*
X140855143Y-88022143D02*
X140807524Y-88069762D01*
X140664667Y-88117381D01*
X140569429Y-88117381D01*
X140426571Y-88069762D01*
X140331333Y-87974524D01*
X140283714Y-87879286D01*
X140236095Y-87688810D01*
X140236095Y-87545952D01*
X140283714Y-87355476D01*
X140331333Y-87260238D01*
X140426571Y-87165000D01*
X140569429Y-87117381D01*
X140664667Y-87117381D01*
X140807524Y-87165000D01*
X140855143Y-87212619D01*
X141807524Y-88117381D02*
X141236095Y-88117381D01*
X141521809Y-88117381D02*
X141521809Y-87117381D01*
X141426571Y-87260238D01*
X141331333Y-87355476D01*
X141236095Y-87403095D01*
X142140857Y-87117381D02*
X142759905Y-87117381D01*
X142426571Y-87498333D01*
X142569429Y-87498333D01*
X142664667Y-87545952D01*
X142712286Y-87593571D01*
X142759905Y-87688810D01*
X142759905Y-87926905D01*
X142712286Y-88022143D01*
X142664667Y-88069762D01*
X142569429Y-88117381D01*
X142283714Y-88117381D01*
X142188476Y-88069762D01*
X142140857Y-88022143D01*
X152955143Y-93122143D02*
X152907524Y-93169762D01*
X152764667Y-93217381D01*
X152669429Y-93217381D01*
X152526571Y-93169762D01*
X152431333Y-93074524D01*
X152383714Y-92979286D01*
X152336095Y-92788810D01*
X152336095Y-92645952D01*
X152383714Y-92455476D01*
X152431333Y-92360238D01*
X152526571Y-92265000D01*
X152669429Y-92217381D01*
X152764667Y-92217381D01*
X152907524Y-92265000D01*
X152955143Y-92312619D01*
X153907524Y-93217381D02*
X153336095Y-93217381D01*
X153621809Y-93217381D02*
X153621809Y-92217381D01*
X153526571Y-92360238D01*
X153431333Y-92455476D01*
X153336095Y-92503095D01*
X154764667Y-92217381D02*
X154574190Y-92217381D01*
X154478952Y-92265000D01*
X154431333Y-92312619D01*
X154336095Y-92455476D01*
X154288476Y-92645952D01*
X154288476Y-93026905D01*
X154336095Y-93122143D01*
X154383714Y-93169762D01*
X154478952Y-93217381D01*
X154669429Y-93217381D01*
X154764667Y-93169762D01*
X154812286Y-93122143D01*
X154859905Y-93026905D01*
X154859905Y-92788810D01*
X154812286Y-92693571D01*
X154764667Y-92645952D01*
X154669429Y-92598333D01*
X154478952Y-92598333D01*
X154383714Y-92645952D01*
X154336095Y-92693571D01*
X154288476Y-92788810D01*
X156855143Y-108922143D02*
X156807524Y-108969762D01*
X156664667Y-109017381D01*
X156569429Y-109017381D01*
X156426571Y-108969762D01*
X156331333Y-108874524D01*
X156283714Y-108779286D01*
X156236095Y-108588810D01*
X156236095Y-108445952D01*
X156283714Y-108255476D01*
X156331333Y-108160238D01*
X156426571Y-108065000D01*
X156569429Y-108017381D01*
X156664667Y-108017381D01*
X156807524Y-108065000D01*
X156855143Y-108112619D01*
X157807524Y-109017381D02*
X157236095Y-109017381D01*
X157521809Y-109017381D02*
X157521809Y-108017381D01*
X157426571Y-108160238D01*
X157331333Y-108255476D01*
X157236095Y-108303095D01*
X158140857Y-108017381D02*
X158807524Y-108017381D01*
X158378952Y-109017381D01*
X146055143Y-84122143D02*
X146007524Y-84169762D01*
X145864667Y-84217381D01*
X145769429Y-84217381D01*
X145626571Y-84169762D01*
X145531333Y-84074524D01*
X145483714Y-83979286D01*
X145436095Y-83788810D01*
X145436095Y-83645952D01*
X145483714Y-83455476D01*
X145531333Y-83360238D01*
X145626571Y-83265000D01*
X145769429Y-83217381D01*
X145864667Y-83217381D01*
X146007524Y-83265000D01*
X146055143Y-83312619D01*
X146436095Y-83312619D02*
X146483714Y-83265000D01*
X146578952Y-83217381D01*
X146817048Y-83217381D01*
X146912286Y-83265000D01*
X146959905Y-83312619D01*
X147007524Y-83407857D01*
X147007524Y-83503095D01*
X146959905Y-83645952D01*
X146388476Y-84217381D01*
X147007524Y-84217381D01*
X147388476Y-83312619D02*
X147436095Y-83265000D01*
X147531333Y-83217381D01*
X147769429Y-83217381D01*
X147864667Y-83265000D01*
X147912286Y-83312619D01*
X147959905Y-83407857D01*
X147959905Y-83503095D01*
X147912286Y-83645952D01*
X147340857Y-84217381D01*
X147959905Y-84217381D01*
X150755143Y-114572143D02*
X150707524Y-114619762D01*
X150564667Y-114667381D01*
X150469429Y-114667381D01*
X150326571Y-114619762D01*
X150231333Y-114524524D01*
X150183714Y-114429286D01*
X150136095Y-114238810D01*
X150136095Y-114095952D01*
X150183714Y-113905476D01*
X150231333Y-113810238D01*
X150326571Y-113715000D01*
X150469429Y-113667381D01*
X150564667Y-113667381D01*
X150707524Y-113715000D01*
X150755143Y-113762619D01*
X151136095Y-113762619D02*
X151183714Y-113715000D01*
X151278952Y-113667381D01*
X151517048Y-113667381D01*
X151612286Y-113715000D01*
X151659905Y-113762619D01*
X151707524Y-113857857D01*
X151707524Y-113953095D01*
X151659905Y-114095952D01*
X151088476Y-114667381D01*
X151707524Y-114667381D01*
X152612286Y-113667381D02*
X152136095Y-113667381D01*
X152088476Y-114143571D01*
X152136095Y-114095952D01*
X152231333Y-114048333D01*
X152469429Y-114048333D01*
X152564667Y-114095952D01*
X152612286Y-114143571D01*
X152659905Y-114238810D01*
X152659905Y-114476905D01*
X152612286Y-114572143D01*
X152564667Y-114619762D01*
X152469429Y-114667381D01*
X152231333Y-114667381D01*
X152136095Y-114619762D01*
X152088476Y-114572143D01*
X166755143Y-88231666D02*
X166802762Y-88279285D01*
X166850381Y-88422142D01*
X166850381Y-88517380D01*
X166802762Y-88660238D01*
X166707524Y-88755476D01*
X166612286Y-88803095D01*
X166421810Y-88850714D01*
X166278952Y-88850714D01*
X166088476Y-88803095D01*
X165993238Y-88755476D01*
X165898000Y-88660238D01*
X165850381Y-88517380D01*
X165850381Y-88422142D01*
X165898000Y-88279285D01*
X165945619Y-88231666D01*
X166850381Y-87279285D02*
X166850381Y-87850714D01*
X166850381Y-87565000D02*
X165850381Y-87565000D01*
X165993238Y-87660238D01*
X166088476Y-87755476D01*
X166136095Y-87850714D01*
X132855143Y-121317381D02*
X132521809Y-120841190D01*
X132283714Y-121317381D02*
X132283714Y-120317381D01*
X132664667Y-120317381D01*
X132759905Y-120365000D01*
X132807524Y-120412619D01*
X132855143Y-120507857D01*
X132855143Y-120650714D01*
X132807524Y-120745952D01*
X132759905Y-120793571D01*
X132664667Y-120841190D01*
X132283714Y-120841190D01*
X133236095Y-120412619D02*
X133283714Y-120365000D01*
X133378952Y-120317381D01*
X133617048Y-120317381D01*
X133712286Y-120365000D01*
X133759905Y-120412619D01*
X133807524Y-120507857D01*
X133807524Y-120603095D01*
X133759905Y-120745952D01*
X133188476Y-121317381D01*
X133807524Y-121317381D01*
X134140857Y-120317381D02*
X134807524Y-120317381D01*
X134378952Y-121317381D01*
X132855143Y-114717381D02*
X132521809Y-114241190D01*
X132283714Y-114717381D02*
X132283714Y-113717381D01*
X132664667Y-113717381D01*
X132759905Y-113765000D01*
X132807524Y-113812619D01*
X132855143Y-113907857D01*
X132855143Y-114050714D01*
X132807524Y-114145952D01*
X132759905Y-114193571D01*
X132664667Y-114241190D01*
X132283714Y-114241190D01*
X133236095Y-113812619D02*
X133283714Y-113765000D01*
X133378952Y-113717381D01*
X133617048Y-113717381D01*
X133712286Y-113765000D01*
X133759905Y-113812619D01*
X133807524Y-113907857D01*
X133807524Y-114003095D01*
X133759905Y-114145952D01*
X133188476Y-114717381D01*
X133807524Y-114717381D01*
X134378952Y-114145952D02*
X134283714Y-114098333D01*
X134236095Y-114050714D01*
X134188476Y-113955476D01*
X134188476Y-113907857D01*
X134236095Y-113812619D01*
X134283714Y-113765000D01*
X134378952Y-113717381D01*
X134569429Y-113717381D01*
X134664667Y-113765000D01*
X134712286Y-113812619D01*
X134759905Y-113907857D01*
X134759905Y-113955476D01*
X134712286Y-114050714D01*
X134664667Y-114098333D01*
X134569429Y-114145952D01*
X134378952Y-114145952D01*
X134283714Y-114193571D01*
X134236095Y-114241190D01*
X134188476Y-114336429D01*
X134188476Y-114526905D01*
X134236095Y-114622143D01*
X134283714Y-114669762D01*
X134378952Y-114717381D01*
X134569429Y-114717381D01*
X134664667Y-114669762D01*
X134712286Y-114622143D01*
X134759905Y-114526905D01*
X134759905Y-114336429D01*
X134712286Y-114241190D01*
X134664667Y-114193571D01*
X134569429Y-114145952D01*
M02*
