G04 #@! TF.FileFunction,Copper,L2,Bot,Signal*
%FSLAX46Y46*%
G04 Gerber Fmt 4.6, Leading zero omitted, Abs format (unit mm)*
G04 Created by KiCad (PCBNEW (2014-11-17 BZR 5289)-product) date Wed 21 Oct 2015 02:01:30 PM EDT*
%MOMM*%
G01*
G04 APERTURE LIST*
%ADD10C,0.100000*%
%ADD11C,1.998980*%
%ADD12C,3.000000*%
%ADD13R,2.032000X1.727200*%
%ADD14O,2.032000X1.727200*%
%ADD15R,1.727200X2.032000*%
%ADD16O,1.727200X2.032000*%
%ADD17R,2.032000X2.032000*%
%ADD18O,2.032000X2.032000*%
%ADD19R,2.235200X2.235200*%
%ADD20C,0.600000*%
%ADD21C,0.300000*%
%ADD22C,0.254000*%
G04 APERTURE END LIST*
D10*
D11*
X175018000Y-111255000D03*
D12*
X177718020Y-113955020D03*
X177718020Y-108554980D03*
X172317980Y-108554980D03*
X172317980Y-113955020D03*
D13*
X174498000Y-89365000D03*
D14*
X174498000Y-91905000D03*
X174498000Y-94445000D03*
X174498000Y-96985000D03*
X174498000Y-99525000D03*
X174498000Y-102065000D03*
D15*
X137498000Y-78865000D03*
D16*
X140038000Y-78865000D03*
X142578000Y-78865000D03*
X145118000Y-78865000D03*
D15*
X156748000Y-75615000D03*
D16*
X159288000Y-75615000D03*
X161828000Y-75615000D03*
X164368000Y-75615000D03*
X166908000Y-75615000D03*
X169448000Y-75615000D03*
X171988000Y-75615000D03*
X174528000Y-75615000D03*
D15*
X129748000Y-75615000D03*
D16*
X132288000Y-75615000D03*
X134828000Y-75615000D03*
X137368000Y-75615000D03*
X139908000Y-75615000D03*
X142448000Y-75615000D03*
X144988000Y-75615000D03*
X147528000Y-75615000D03*
X150068000Y-75615000D03*
X152608000Y-75615000D03*
D17*
X171998000Y-79365000D03*
D18*
X174538000Y-79365000D03*
D17*
X156698000Y-78965000D03*
D18*
X159238000Y-78965000D03*
D19*
X133998000Y-79615000D03*
X127998000Y-83365000D03*
X131748000Y-83365000D03*
D15*
X161748000Y-123865000D03*
D16*
X164288000Y-123865000D03*
X166828000Y-123865000D03*
X169368000Y-123865000D03*
X171908000Y-123865000D03*
X174448000Y-123865000D03*
D15*
X138998000Y-123865000D03*
D16*
X141538000Y-123865000D03*
X144078000Y-123865000D03*
X146618000Y-123865000D03*
X149158000Y-123865000D03*
X151698000Y-123865000D03*
X154238000Y-123865000D03*
X156778000Y-123865000D03*
D19*
X128998000Y-116365000D03*
D20*
X175698000Y-116965000D03*
X138898000Y-107065000D03*
X159598000Y-103665000D03*
X169298000Y-101665000D03*
X169298000Y-99865000D03*
X166748000Y-90915000D03*
X162248000Y-92615000D03*
X148498000Y-101665000D03*
X153498000Y-102665000D03*
X169198000Y-86265000D03*
X150598000Y-109665000D03*
X164498000Y-108865000D03*
X166498000Y-99465000D03*
X152698000Y-85465000D03*
X149398000Y-87465000D03*
X154648000Y-87015000D03*
X147248000Y-92365000D03*
X152298000Y-88965000D03*
X158048000Y-97815000D03*
X156898000Y-95165000D03*
X158598000Y-86165000D03*
X156298000Y-99365000D03*
X161898000Y-100165000D03*
X154698000Y-98865000D03*
X164498000Y-95565000D03*
X144198000Y-107865000D03*
X143098000Y-112065000D03*
X132798000Y-90365000D03*
X128598000Y-95165000D03*
X132198000Y-94965000D03*
X162748000Y-113815000D03*
X144598000Y-106165000D03*
X147998000Y-78465000D03*
X133098000Y-104665000D03*
X164298000Y-116265000D03*
X136798000Y-100365000D03*
X168998000Y-81615000D03*
X174498000Y-118365000D03*
X131298000Y-106965000D03*
X159998000Y-120115000D03*
X135998000Y-100965000D03*
X162998000Y-117365000D03*
X171748000Y-118365000D03*
X166748000Y-81365000D03*
X130998000Y-108965000D03*
X168648000Y-120115000D03*
X134598000Y-100565000D03*
X163798000Y-80465000D03*
X149498000Y-80265000D03*
X154098000Y-79465000D03*
X130898000Y-114365000D03*
X166298000Y-119715000D03*
X148998000Y-94465000D03*
X142998000Y-106865000D03*
X141798000Y-110965000D03*
X151098000Y-91565000D03*
X162898000Y-112565000D03*
X145598000Y-106865000D03*
X143798000Y-106665000D03*
X148598000Y-95365000D03*
X141098000Y-105865000D03*
X149798000Y-91465000D03*
X142198000Y-107065000D03*
X141898000Y-112165000D03*
D21*
X159598000Y-103665000D02*
X168698000Y-103665000D01*
X168698000Y-103665000D02*
X169298000Y-103065000D01*
X169298000Y-103065000D02*
X169298000Y-101665000D01*
X169298000Y-99865000D02*
X169298000Y-93465000D01*
X169298000Y-93465000D02*
X166748000Y-90915000D01*
X165048000Y-92615000D02*
X166748000Y-90915000D01*
X162248000Y-92615000D02*
X165048000Y-92615000D01*
X174498000Y-102065000D02*
X170598000Y-102065000D01*
X150598000Y-109665000D02*
X150598000Y-109765000D01*
X152548000Y-87015000D02*
X154648000Y-87015000D01*
X147248000Y-92365000D02*
X152548000Y-87015000D01*
X152298000Y-92065000D02*
X152298000Y-88965000D01*
X158048000Y-97815000D02*
X152298000Y-92065000D01*
X156898000Y-87865000D02*
X156898000Y-95165000D01*
X158598000Y-86165000D02*
X156898000Y-87865000D01*
X157198000Y-100265000D02*
X156298000Y-99365000D01*
X161798000Y-100265000D02*
X157198000Y-100265000D01*
X161898000Y-100165000D02*
X161798000Y-100265000D01*
X154698000Y-98865000D02*
X154698000Y-98765000D01*
X154698000Y-98765000D02*
X155498000Y-97965000D01*
X155498000Y-97965000D02*
X156598000Y-97965000D01*
X156598000Y-97965000D02*
X157998000Y-99365000D01*
X157998000Y-99365000D02*
X160698000Y-99365000D01*
X160698000Y-99365000D02*
X164498000Y-95565000D01*
X143098000Y-111565000D02*
X143098000Y-112065000D01*
X144198000Y-107865000D02*
X143098000Y-108965000D01*
X143098000Y-108965000D02*
X143098000Y-111565000D01*
X174498000Y-99525000D02*
X177738000Y-99525000D01*
X175798000Y-85465000D02*
X175798000Y-81865000D01*
X178998000Y-88665000D02*
X175798000Y-85465000D01*
X178998000Y-98265000D02*
X178998000Y-88665000D01*
X177738000Y-99525000D02*
X178998000Y-98265000D01*
X128798000Y-94965000D02*
X128598000Y-95165000D01*
X132198000Y-94965000D02*
X128798000Y-94965000D01*
X162748000Y-113815000D02*
X162748000Y-113615000D01*
X144598000Y-106065000D02*
X144598000Y-106165000D01*
X148698000Y-111365000D02*
X144598000Y-107265000D01*
X144598000Y-107265000D02*
X144598000Y-106065000D01*
X160498000Y-111365000D02*
X148698000Y-111365000D01*
X162748000Y-113615000D02*
X160498000Y-111365000D01*
X142578000Y-80145000D02*
X142578000Y-78865000D01*
X142798000Y-80565000D02*
X142578000Y-80145000D01*
X147998000Y-78465000D02*
X146298000Y-80565000D01*
X146298000Y-80565000D02*
X142798000Y-80565000D01*
X133098000Y-104165000D02*
X133098000Y-104665000D01*
X132298000Y-104165000D02*
X132298000Y-112765000D01*
X136698000Y-104165000D02*
X133098000Y-104165000D01*
X133098000Y-104165000D02*
X132298000Y-104165000D01*
X162698000Y-116265000D02*
X164298000Y-116265000D01*
X159448000Y-119515000D02*
X162698000Y-116265000D01*
X139048000Y-119515000D02*
X159448000Y-119515000D01*
X135328000Y-115795000D02*
X139048000Y-119515000D01*
X136698000Y-104165000D02*
X136748000Y-100365000D01*
X135328000Y-115795000D02*
X132398000Y-112865000D01*
X132298000Y-112765000D02*
X132398000Y-112865000D01*
X136798000Y-100365000D02*
X136748000Y-100365000D01*
X136748000Y-100365000D02*
X136798000Y-100365000D01*
X136798000Y-100365000D02*
X136748000Y-100365000D01*
X136748000Y-95555000D02*
X136748000Y-95545000D01*
X136748000Y-100365000D02*
X136748000Y-95555000D01*
X168598000Y-82065000D02*
X168998000Y-81615000D01*
X139298000Y-83065000D02*
X147298000Y-83065000D01*
X147298000Y-83065000D02*
X148298000Y-81865000D01*
X148298000Y-81865000D02*
X165198000Y-81865000D01*
X165198000Y-81865000D02*
X165498000Y-82065000D01*
X165498000Y-82065000D02*
X168598000Y-82065000D01*
X136818000Y-85795000D02*
X139298000Y-83065000D01*
X136748000Y-85865000D02*
X136818000Y-85795000D01*
X136748000Y-85865000D02*
X136818000Y-85795000D01*
X136748000Y-95555000D02*
X136748000Y-85865000D01*
X131698000Y-106965000D02*
X131298000Y-106965000D01*
X131698000Y-103565000D02*
X131698000Y-106965000D01*
X131698000Y-106965000D02*
X131698000Y-112915000D01*
X131768000Y-103565000D02*
X135498000Y-103545000D01*
X131768000Y-103565000D02*
X131698000Y-103565000D01*
X135498000Y-103545000D02*
X135998000Y-103045000D01*
X135998000Y-100965000D02*
X135998000Y-103045000D01*
X138898000Y-120115000D02*
X159998000Y-120115000D01*
X134298000Y-115515000D02*
X138898000Y-120115000D01*
X131698000Y-112915000D02*
X134298000Y-115515000D01*
X171748000Y-118365000D02*
X170748000Y-117365000D01*
X170748000Y-117365000D02*
X162998000Y-117365000D01*
X167098000Y-81265000D02*
X166748000Y-81365000D01*
X138498000Y-82465000D02*
X146998000Y-82465000D01*
X146998000Y-82465000D02*
X147998000Y-81265000D01*
X147998000Y-81265000D02*
X167098000Y-81265000D01*
X135998000Y-85115000D02*
X138498000Y-82465000D01*
X135998000Y-85115000D02*
X135998000Y-94795000D01*
X135998000Y-100965000D02*
X135998000Y-94795000D01*
X130248000Y-109965000D02*
X130998000Y-108965000D01*
X130248000Y-112315000D02*
X130248000Y-109965000D01*
X130248000Y-109965000D02*
X130248000Y-102515000D01*
X130248000Y-112315000D02*
X133748000Y-115715000D01*
X168648000Y-120115000D02*
X168648000Y-119165000D01*
X168648000Y-119165000D02*
X167648000Y-118165000D01*
X167648000Y-118165000D02*
X163548000Y-118165000D01*
X163548000Y-118165000D02*
X160848000Y-120865000D01*
X160848000Y-120865000D02*
X138898000Y-120865000D01*
X138898000Y-120865000D02*
X138248000Y-120215000D01*
X133748000Y-115715000D02*
X138248000Y-120215000D01*
X132498000Y-100565000D02*
X134598000Y-100565000D01*
X130248000Y-102515000D02*
X132498000Y-100565000D01*
X134588000Y-100555000D02*
X134648000Y-100495000D01*
X134598000Y-100565000D02*
X134588000Y-100555000D01*
X134648000Y-100495000D02*
X134698000Y-95165000D01*
X134698000Y-95165000D02*
X135198000Y-94765000D01*
X135248000Y-84615000D02*
X137998000Y-81765000D01*
X137998000Y-81765000D02*
X146798000Y-81765000D01*
X146798000Y-81765000D02*
X147998000Y-80265000D01*
X147998000Y-80265000D02*
X149498000Y-80265000D01*
X135198000Y-94765000D02*
X135248000Y-84615000D01*
X153898000Y-80565000D02*
X163798000Y-80465000D01*
X149498000Y-80265000D02*
X149598000Y-80065000D01*
X149598000Y-80065000D02*
X149398000Y-80565000D01*
X149398000Y-80565000D02*
X153998000Y-80565000D01*
X153998000Y-80565000D02*
X153898000Y-80565000D01*
X133998000Y-84615000D02*
X137448000Y-81165000D01*
X129298000Y-99245000D02*
X129298000Y-102945000D01*
X133998000Y-94545000D02*
X133998000Y-85115000D01*
X133998000Y-84615000D02*
X133998000Y-85115000D01*
X154098000Y-79465000D02*
X147898000Y-79465000D01*
X146598000Y-81165000D02*
X147898000Y-79465000D01*
X129298000Y-112165000D02*
X129298000Y-107695000D01*
X129298000Y-107695000D02*
X129298000Y-102945000D01*
X130398000Y-113265000D02*
X130548000Y-113415000D01*
X130398000Y-113265000D02*
X129298000Y-112165000D01*
X133998000Y-94545000D02*
X129298000Y-99245000D01*
X137448000Y-81165000D02*
X146598000Y-81165000D01*
X130548000Y-113415000D02*
X130898000Y-113765000D01*
X130898000Y-113765000D02*
X130898000Y-114365000D01*
X132798000Y-115665000D02*
X130548000Y-113415000D01*
X164948000Y-121515000D02*
X166298000Y-119715000D01*
X138648000Y-121515000D02*
X164948000Y-121515000D01*
X138648000Y-121515000D02*
X132798000Y-115665000D01*
X148098000Y-94465000D02*
X148998000Y-94465000D01*
X147598000Y-94965000D02*
X148098000Y-94465000D01*
X147598000Y-97465000D02*
X147598000Y-94965000D01*
X142998000Y-102165000D02*
X147598000Y-97465000D01*
X142998000Y-103865000D02*
X142998000Y-102165000D01*
X142998000Y-106865000D02*
X142998000Y-103865000D01*
X147398000Y-93765000D02*
X147298000Y-93765000D01*
X141398000Y-106965000D02*
X141798000Y-107965000D01*
X141798000Y-107965000D02*
X141798000Y-110965000D01*
X142298000Y-104265000D02*
X142298000Y-105665000D01*
X142398000Y-98665000D02*
X142298000Y-104265000D01*
X148898000Y-93765000D02*
X147398000Y-93765000D01*
X151098000Y-91565000D02*
X148898000Y-93765000D01*
X142298000Y-105665000D02*
X141398000Y-106965000D01*
X147298000Y-93765000D02*
X142398000Y-98665000D01*
X160998000Y-110665000D02*
X162898000Y-112565000D01*
X149398000Y-110665000D02*
X160998000Y-110665000D01*
X145598000Y-106865000D02*
X149398000Y-110665000D01*
X143798000Y-106665000D02*
X143898000Y-102365000D01*
X143898000Y-102365000D02*
X148598000Y-97765000D01*
X148598000Y-97765000D02*
X148598000Y-95365000D01*
X148198000Y-93065000D02*
X146998000Y-93065000D01*
X141098000Y-105865000D02*
X141498000Y-105865000D01*
X141498000Y-105865000D02*
X141698000Y-105465000D01*
X141698000Y-105465000D02*
X141697998Y-98165002D01*
X141697998Y-98165002D02*
X141898000Y-97965000D01*
X142498000Y-108365000D02*
X142198000Y-107265000D01*
X142498000Y-108365000D02*
X142498000Y-111565000D01*
X149798000Y-91465000D02*
X148198000Y-93065000D01*
X141898000Y-112165000D02*
X142498000Y-111565000D01*
X142198000Y-107265000D02*
X142198000Y-107065000D01*
X142098000Y-97965000D02*
X141898000Y-97965000D01*
X146998000Y-93065000D02*
X142098000Y-97965000D01*
D22*
G36*
X141267000Y-108338000D02*
X140298000Y-108338000D01*
X137725000Y-108338000D01*
X137725000Y-105392000D01*
X140607904Y-105392000D01*
X140521013Y-105478741D01*
X140417118Y-105728946D01*
X140416882Y-105999865D01*
X140520339Y-106250252D01*
X140711741Y-106441987D01*
X140961946Y-106545882D01*
X141042276Y-106545951D01*
X140961416Y-106662750D01*
X140940158Y-106711767D01*
X140909934Y-106755829D01*
X140899340Y-106805890D01*
X140878983Y-106852831D01*
X140878101Y-106906250D01*
X140867039Y-106958526D01*
X140876409Y-107008829D01*
X140875565Y-107059988D01*
X140895195Y-107109682D01*
X140904979Y-107162208D01*
X141267000Y-108067260D01*
X141267000Y-108338000D01*
X141267000Y-108338000D01*
G37*
X141267000Y-108338000D02*
X140298000Y-108338000D01*
X137725000Y-108338000D01*
X137725000Y-105392000D01*
X140607904Y-105392000D01*
X140521013Y-105478741D01*
X140417118Y-105728946D01*
X140416882Y-105999865D01*
X140520339Y-106250252D01*
X140711741Y-106441987D01*
X140961946Y-106545882D01*
X141042276Y-106545951D01*
X140961416Y-106662750D01*
X140940158Y-106711767D01*
X140909934Y-106755829D01*
X140899340Y-106805890D01*
X140878983Y-106852831D01*
X140878101Y-106906250D01*
X140867039Y-106958526D01*
X140876409Y-107008829D01*
X140875565Y-107059988D01*
X140895195Y-107109682D01*
X140904979Y-107162208D01*
X141267000Y-108067260D01*
X141267000Y-108338000D01*
G36*
X179122000Y-112698992D02*
X178913858Y-112490486D01*
X178913858Y-109930424D01*
X177718020Y-108734585D01*
X177538415Y-108914190D01*
X177538415Y-108554980D01*
X176342576Y-107359142D01*
X176095203Y-107532915D01*
X175827605Y-108231740D01*
X175847806Y-108979776D01*
X176095203Y-109577045D01*
X176342576Y-109750818D01*
X177538415Y-108554980D01*
X177538415Y-108914190D01*
X176522182Y-109930424D01*
X176695955Y-110177797D01*
X177394780Y-110445395D01*
X178142816Y-110425194D01*
X178740085Y-110177797D01*
X178913858Y-109930424D01*
X178913858Y-112490486D01*
X178784912Y-112361316D01*
X178093816Y-112074347D01*
X177345507Y-112073694D01*
X176653911Y-112359456D01*
X176398729Y-112614193D01*
X176398729Y-110981608D01*
X176189005Y-110474037D01*
X175801006Y-110085360D01*
X175293801Y-109874751D01*
X174744608Y-109874271D01*
X174237037Y-110083995D01*
X174199306Y-110121660D01*
X174199306Y-108182467D01*
X173913544Y-107490871D01*
X173384872Y-106961276D01*
X172693776Y-106674307D01*
X171945467Y-106673654D01*
X171253871Y-106959416D01*
X170724276Y-107488088D01*
X170437307Y-108179184D01*
X170436654Y-108927493D01*
X170722416Y-109619089D01*
X171251088Y-110148684D01*
X171942184Y-110435653D01*
X172690493Y-110436306D01*
X173382089Y-110150544D01*
X173911684Y-109621872D01*
X174198653Y-108930776D01*
X174199306Y-108182467D01*
X174199306Y-110121660D01*
X173848360Y-110471994D01*
X173637751Y-110979199D01*
X173637271Y-111528392D01*
X173846995Y-112035963D01*
X174234994Y-112424640D01*
X174742199Y-112635249D01*
X175291392Y-112635729D01*
X175798963Y-112426005D01*
X176187640Y-112038006D01*
X176398249Y-111530801D01*
X176398729Y-110981608D01*
X176398729Y-112614193D01*
X176124316Y-112888128D01*
X175837347Y-113579224D01*
X175836694Y-114327533D01*
X176122456Y-115019129D01*
X176440771Y-115338000D01*
X173595044Y-115338000D01*
X173911684Y-115021912D01*
X174198653Y-114330816D01*
X174199306Y-113582507D01*
X173913544Y-112890911D01*
X173384872Y-112361316D01*
X172693776Y-112074347D01*
X171945467Y-112073694D01*
X171253871Y-112359456D01*
X170724276Y-112888128D01*
X170437307Y-113579224D01*
X170436654Y-114327533D01*
X170722416Y-115019129D01*
X171040731Y-115338000D01*
X169979118Y-115338000D01*
X169979118Y-101530135D01*
X169979118Y-99730135D01*
X169875661Y-99479748D01*
X169829000Y-99433005D01*
X169829000Y-93465005D01*
X169829000Y-93465000D01*
X169829001Y-93465000D01*
X169788580Y-93261795D01*
X169673474Y-93089527D01*
X169673474Y-93089526D01*
X169673470Y-93089523D01*
X167429061Y-90845113D01*
X167429118Y-90780135D01*
X167325661Y-90529748D01*
X167134259Y-90338013D01*
X166884054Y-90234118D01*
X166613135Y-90233882D01*
X166362748Y-90337339D01*
X166171013Y-90528741D01*
X166067118Y-90778946D01*
X166067060Y-90844991D01*
X164828052Y-92084000D01*
X162680166Y-92084000D01*
X162634259Y-92038013D01*
X162384054Y-91934118D01*
X162113135Y-91933882D01*
X161862748Y-92037339D01*
X161671013Y-92228741D01*
X161567118Y-92478946D01*
X161566882Y-92749865D01*
X161670339Y-93000252D01*
X161861741Y-93191987D01*
X162111946Y-93295882D01*
X162382865Y-93296118D01*
X162633252Y-93192661D01*
X162679994Y-93146000D01*
X165048000Y-93146000D01*
X165251205Y-93105580D01*
X165423474Y-92990474D01*
X166748000Y-91665947D01*
X168767000Y-93684947D01*
X168767000Y-99432833D01*
X168721013Y-99478741D01*
X168617118Y-99728946D01*
X168616882Y-99999865D01*
X168720339Y-100250252D01*
X168911741Y-100441987D01*
X169161946Y-100545882D01*
X169432865Y-100546118D01*
X169683252Y-100442661D01*
X169874987Y-100251259D01*
X169978882Y-100001054D01*
X169979118Y-99730135D01*
X169979118Y-101530135D01*
X169875661Y-101279748D01*
X169684259Y-101088013D01*
X169434054Y-100984118D01*
X169163135Y-100983882D01*
X168912748Y-101087339D01*
X168721013Y-101278741D01*
X168617118Y-101528946D01*
X168616882Y-101799865D01*
X168720339Y-102050252D01*
X168767000Y-102096994D01*
X168767000Y-102845052D01*
X168478052Y-103134000D01*
X160030166Y-103134000D01*
X159984259Y-103088013D01*
X159734054Y-102984118D01*
X159463135Y-102983882D01*
X159212748Y-103087339D01*
X159021013Y-103278741D01*
X158917118Y-103528946D01*
X158916882Y-103799865D01*
X159020339Y-104050252D01*
X159211741Y-104241987D01*
X159461946Y-104345882D01*
X159732865Y-104346118D01*
X159983252Y-104242661D01*
X160029994Y-104196000D01*
X168698000Y-104196000D01*
X168901205Y-104155580D01*
X169073474Y-104040474D01*
X169673474Y-103440474D01*
X169788580Y-103268205D01*
X169829000Y-103065000D01*
X169829000Y-102097166D01*
X169874987Y-102051259D01*
X169978882Y-101801054D01*
X169979118Y-101530135D01*
X169979118Y-115338000D01*
X167798000Y-115338000D01*
X161850815Y-115338000D01*
X158950815Y-117838000D01*
X141525000Y-117838000D01*
X141525000Y-112747492D01*
X141761946Y-112845882D01*
X142032865Y-112846118D01*
X142283252Y-112742661D01*
X142474987Y-112551259D01*
X142518638Y-112446135D01*
X142520339Y-112450252D01*
X142711741Y-112641987D01*
X142961946Y-112745882D01*
X143232865Y-112746118D01*
X143483252Y-112642661D01*
X143674987Y-112451259D01*
X143778882Y-112201054D01*
X143779118Y-111930135D01*
X143675661Y-111679748D01*
X143629000Y-111633005D01*
X143629000Y-111565000D01*
X143629000Y-109184948D01*
X144267886Y-108546061D01*
X144332865Y-108546118D01*
X144583252Y-108442661D01*
X144774987Y-108251259D01*
X144792099Y-108210047D01*
X148322523Y-111740470D01*
X148322526Y-111740474D01*
X148322527Y-111740474D01*
X148494795Y-111855580D01*
X148698000Y-111896001D01*
X148698000Y-111896000D01*
X148698005Y-111896000D01*
X160278052Y-111896000D01*
X162067112Y-113685059D01*
X162066882Y-113949865D01*
X162170339Y-114200252D01*
X162361741Y-114391987D01*
X162611946Y-114495882D01*
X162882865Y-114496118D01*
X163133252Y-114392661D01*
X163324987Y-114201259D01*
X163428882Y-113951054D01*
X163429118Y-113680135D01*
X163325661Y-113429748D01*
X163134259Y-113238013D01*
X163113226Y-113229279D01*
X163101645Y-113217698D01*
X163283252Y-113142661D01*
X163474987Y-112951259D01*
X163578882Y-112701054D01*
X163579118Y-112430135D01*
X163475661Y-112179748D01*
X163284259Y-111988013D01*
X163034054Y-111884118D01*
X162968008Y-111884060D01*
X161373474Y-110289526D01*
X161201205Y-110174420D01*
X160998000Y-110134000D01*
X149617947Y-110134000D01*
X146279061Y-106795113D01*
X146279118Y-106730135D01*
X146175661Y-106479748D01*
X145984259Y-106288013D01*
X145734054Y-106184118D01*
X145463135Y-106183882D01*
X145278917Y-106259998D01*
X145279118Y-106030135D01*
X145175661Y-105779748D01*
X144984259Y-105588013D01*
X144734054Y-105484118D01*
X144463135Y-105483882D01*
X144355577Y-105528323D01*
X144423832Y-102593357D01*
X148969415Y-98144489D01*
X148971055Y-98142089D01*
X148973474Y-98140474D01*
X149029476Y-98056659D01*
X149086367Y-97973468D01*
X149086964Y-97970622D01*
X149088580Y-97968205D01*
X149108234Y-97869396D01*
X149128970Y-97770710D01*
X149128433Y-97767850D01*
X149129000Y-97765000D01*
X149129000Y-95797166D01*
X149174987Y-95751259D01*
X149278882Y-95501054D01*
X149279118Y-95230135D01*
X149228137Y-95106752D01*
X149383252Y-95042661D01*
X149574987Y-94851259D01*
X149678882Y-94601054D01*
X149679118Y-94330135D01*
X149575661Y-94079748D01*
X149455035Y-93958912D01*
X151167886Y-92246061D01*
X151232865Y-92246118D01*
X151483252Y-92142661D01*
X151674987Y-91951259D01*
X151767000Y-91729668D01*
X151767000Y-92065000D01*
X151807420Y-92268205D01*
X151922526Y-92440474D01*
X157366938Y-97884886D01*
X157366882Y-97949865D01*
X157390166Y-98006218D01*
X156973474Y-97589526D01*
X156801205Y-97474420D01*
X156598000Y-97434000D01*
X155498005Y-97434000D01*
X155498000Y-97433999D01*
X155294795Y-97474420D01*
X155122526Y-97589526D01*
X154503550Y-98208501D01*
X154312748Y-98287339D01*
X154121013Y-98478741D01*
X154017118Y-98728946D01*
X154016882Y-98999865D01*
X154120339Y-99250252D01*
X154311741Y-99441987D01*
X154561946Y-99545882D01*
X154832865Y-99546118D01*
X155083252Y-99442661D01*
X155274987Y-99251259D01*
X155378882Y-99001054D01*
X155379026Y-98834921D01*
X155717948Y-98496000D01*
X156378052Y-98496000D01*
X156659985Y-98777933D01*
X156434054Y-98684118D01*
X156163135Y-98683882D01*
X155912748Y-98787339D01*
X155721013Y-98978741D01*
X155617118Y-99228946D01*
X155616882Y-99499865D01*
X155720339Y-99750252D01*
X155911741Y-99941987D01*
X156161946Y-100045882D01*
X156227991Y-100045939D01*
X156822526Y-100640474D01*
X156994795Y-100755580D01*
X157198000Y-100796000D01*
X161641817Y-100796000D01*
X161761946Y-100845882D01*
X162032865Y-100846118D01*
X162283252Y-100742661D01*
X162474987Y-100551259D01*
X162578882Y-100301054D01*
X162579118Y-100030135D01*
X162475661Y-99779748D01*
X162284259Y-99588013D01*
X162034054Y-99484118D01*
X161763135Y-99483882D01*
X161512748Y-99587339D01*
X161365831Y-99734000D01*
X161079947Y-99734000D01*
X164567885Y-96246061D01*
X164632865Y-96246118D01*
X164883252Y-96142661D01*
X165074987Y-95951259D01*
X165178882Y-95701054D01*
X165179118Y-95430135D01*
X165075661Y-95179748D01*
X164884259Y-94988013D01*
X164634054Y-94884118D01*
X164363135Y-94883882D01*
X164112748Y-94987339D01*
X163921013Y-95178741D01*
X163817118Y-95428946D01*
X163817060Y-95494992D01*
X160478052Y-98834000D01*
X158217948Y-98834000D01*
X157857024Y-98473076D01*
X157911946Y-98495882D01*
X158182865Y-98496118D01*
X158433252Y-98392661D01*
X158624987Y-98201259D01*
X158728882Y-97951054D01*
X158729118Y-97680135D01*
X158625661Y-97429748D01*
X158434259Y-97238013D01*
X158184054Y-97134118D01*
X158118008Y-97134060D01*
X156829889Y-95845941D01*
X157032865Y-95846118D01*
X157283252Y-95742661D01*
X157474987Y-95551259D01*
X157578882Y-95301054D01*
X157579118Y-95030135D01*
X157475661Y-94779748D01*
X157429000Y-94733005D01*
X157429000Y-88084948D01*
X158667886Y-86846061D01*
X158732865Y-86846118D01*
X158983252Y-86742661D01*
X159174987Y-86551259D01*
X159278882Y-86301054D01*
X159279118Y-86030135D01*
X159175661Y-85779748D01*
X158984259Y-85588013D01*
X158734054Y-85484118D01*
X158463135Y-85483882D01*
X158212748Y-85587339D01*
X158021013Y-85778741D01*
X157917118Y-86028946D01*
X157917060Y-86094991D01*
X156522526Y-87489526D01*
X156407420Y-87661795D01*
X156367000Y-87865000D01*
X156367000Y-94732833D01*
X156321013Y-94778741D01*
X156217118Y-95028946D01*
X156216940Y-95232992D01*
X152829000Y-91845052D01*
X152829000Y-89397166D01*
X152874987Y-89351259D01*
X152978882Y-89101054D01*
X152979118Y-88830135D01*
X152875661Y-88579748D01*
X152684259Y-88388013D01*
X152434054Y-88284118D01*
X152163135Y-88283882D01*
X151951999Y-88371120D01*
X152769409Y-87546000D01*
X154215833Y-87546000D01*
X154261741Y-87591987D01*
X154511946Y-87695882D01*
X154782865Y-87696118D01*
X155033252Y-87592661D01*
X155224987Y-87401259D01*
X155328882Y-87151054D01*
X155329118Y-86880135D01*
X155225661Y-86629748D01*
X155034259Y-86438013D01*
X154784054Y-86334118D01*
X154513135Y-86333882D01*
X154262748Y-86437339D01*
X154216005Y-86484000D01*
X152548000Y-86484000D01*
X152546753Y-86484247D01*
X152545507Y-86484006D01*
X152445169Y-86504454D01*
X152344795Y-86524420D01*
X152343739Y-86525125D01*
X152342494Y-86525379D01*
X152257648Y-86582649D01*
X152172526Y-86639526D01*
X152171819Y-86640583D01*
X152170768Y-86641293D01*
X147175252Y-91683936D01*
X147113135Y-91683882D01*
X146862748Y-91787339D01*
X146671013Y-91978741D01*
X146567118Y-92228946D01*
X146566882Y-92499865D01*
X146640331Y-92677628D01*
X146622526Y-92689526D01*
X146622523Y-92689529D01*
X141873099Y-97438952D01*
X141728509Y-97467713D01*
X141694795Y-97474420D01*
X141522526Y-97589526D01*
X141522523Y-97589529D01*
X141322524Y-97789528D01*
X141207418Y-97961797D01*
X141166998Y-98165002D01*
X141166998Y-101708123D01*
X140925000Y-101042626D01*
X140925000Y-100209132D01*
X139725000Y-99109132D01*
X139725000Y-93665000D01*
X139725000Y-85192000D01*
X145852130Y-85192000D01*
X147402320Y-83577218D01*
X147422777Y-83571180D01*
X147501205Y-83555580D01*
X147521442Y-83542057D01*
X147544785Y-83535168D01*
X147606977Y-83484905D01*
X147673474Y-83440474D01*
X147686997Y-83420235D01*
X147705925Y-83404938D01*
X148300040Y-82692000D01*
X153198000Y-82692000D01*
X169036961Y-82692000D01*
X169399714Y-83145441D01*
X172971000Y-87411144D01*
X172971000Y-89978319D01*
X170671000Y-90878319D01*
X170671000Y-104692000D01*
X176179937Y-104692000D01*
X179122000Y-105546147D01*
X179122000Y-107379187D01*
X179093464Y-107359142D01*
X178913858Y-107538747D01*
X178913858Y-107179536D01*
X178740085Y-106932163D01*
X178041260Y-106664565D01*
X177293224Y-106684766D01*
X176695955Y-106932163D01*
X176522182Y-107179536D01*
X177718020Y-108375375D01*
X178913858Y-107179536D01*
X178913858Y-107538747D01*
X177897625Y-108554980D01*
X179093464Y-109750818D01*
X179122000Y-109730772D01*
X179122000Y-112698992D01*
X179122000Y-112698992D01*
G37*
X179122000Y-112698992D02*
X178913858Y-112490486D01*
X178913858Y-109930424D01*
X177718020Y-108734585D01*
X177538415Y-108914190D01*
X177538415Y-108554980D01*
X176342576Y-107359142D01*
X176095203Y-107532915D01*
X175827605Y-108231740D01*
X175847806Y-108979776D01*
X176095203Y-109577045D01*
X176342576Y-109750818D01*
X177538415Y-108554980D01*
X177538415Y-108914190D01*
X176522182Y-109930424D01*
X176695955Y-110177797D01*
X177394780Y-110445395D01*
X178142816Y-110425194D01*
X178740085Y-110177797D01*
X178913858Y-109930424D01*
X178913858Y-112490486D01*
X178784912Y-112361316D01*
X178093816Y-112074347D01*
X177345507Y-112073694D01*
X176653911Y-112359456D01*
X176398729Y-112614193D01*
X176398729Y-110981608D01*
X176189005Y-110474037D01*
X175801006Y-110085360D01*
X175293801Y-109874751D01*
X174744608Y-109874271D01*
X174237037Y-110083995D01*
X174199306Y-110121660D01*
X174199306Y-108182467D01*
X173913544Y-107490871D01*
X173384872Y-106961276D01*
X172693776Y-106674307D01*
X171945467Y-106673654D01*
X171253871Y-106959416D01*
X170724276Y-107488088D01*
X170437307Y-108179184D01*
X170436654Y-108927493D01*
X170722416Y-109619089D01*
X171251088Y-110148684D01*
X171942184Y-110435653D01*
X172690493Y-110436306D01*
X173382089Y-110150544D01*
X173911684Y-109621872D01*
X174198653Y-108930776D01*
X174199306Y-108182467D01*
X174199306Y-110121660D01*
X173848360Y-110471994D01*
X173637751Y-110979199D01*
X173637271Y-111528392D01*
X173846995Y-112035963D01*
X174234994Y-112424640D01*
X174742199Y-112635249D01*
X175291392Y-112635729D01*
X175798963Y-112426005D01*
X176187640Y-112038006D01*
X176398249Y-111530801D01*
X176398729Y-110981608D01*
X176398729Y-112614193D01*
X176124316Y-112888128D01*
X175837347Y-113579224D01*
X175836694Y-114327533D01*
X176122456Y-115019129D01*
X176440771Y-115338000D01*
X173595044Y-115338000D01*
X173911684Y-115021912D01*
X174198653Y-114330816D01*
X174199306Y-113582507D01*
X173913544Y-112890911D01*
X173384872Y-112361316D01*
X172693776Y-112074347D01*
X171945467Y-112073694D01*
X171253871Y-112359456D01*
X170724276Y-112888128D01*
X170437307Y-113579224D01*
X170436654Y-114327533D01*
X170722416Y-115019129D01*
X171040731Y-115338000D01*
X169979118Y-115338000D01*
X169979118Y-101530135D01*
X169979118Y-99730135D01*
X169875661Y-99479748D01*
X169829000Y-99433005D01*
X169829000Y-93465005D01*
X169829000Y-93465000D01*
X169829001Y-93465000D01*
X169788580Y-93261795D01*
X169673474Y-93089527D01*
X169673474Y-93089526D01*
X169673470Y-93089523D01*
X167429061Y-90845113D01*
X167429118Y-90780135D01*
X167325661Y-90529748D01*
X167134259Y-90338013D01*
X166884054Y-90234118D01*
X166613135Y-90233882D01*
X166362748Y-90337339D01*
X166171013Y-90528741D01*
X166067118Y-90778946D01*
X166067060Y-90844991D01*
X164828052Y-92084000D01*
X162680166Y-92084000D01*
X162634259Y-92038013D01*
X162384054Y-91934118D01*
X162113135Y-91933882D01*
X161862748Y-92037339D01*
X161671013Y-92228741D01*
X161567118Y-92478946D01*
X161566882Y-92749865D01*
X161670339Y-93000252D01*
X161861741Y-93191987D01*
X162111946Y-93295882D01*
X162382865Y-93296118D01*
X162633252Y-93192661D01*
X162679994Y-93146000D01*
X165048000Y-93146000D01*
X165251205Y-93105580D01*
X165423474Y-92990474D01*
X166748000Y-91665947D01*
X168767000Y-93684947D01*
X168767000Y-99432833D01*
X168721013Y-99478741D01*
X168617118Y-99728946D01*
X168616882Y-99999865D01*
X168720339Y-100250252D01*
X168911741Y-100441987D01*
X169161946Y-100545882D01*
X169432865Y-100546118D01*
X169683252Y-100442661D01*
X169874987Y-100251259D01*
X169978882Y-100001054D01*
X169979118Y-99730135D01*
X169979118Y-101530135D01*
X169875661Y-101279748D01*
X169684259Y-101088013D01*
X169434054Y-100984118D01*
X169163135Y-100983882D01*
X168912748Y-101087339D01*
X168721013Y-101278741D01*
X168617118Y-101528946D01*
X168616882Y-101799865D01*
X168720339Y-102050252D01*
X168767000Y-102096994D01*
X168767000Y-102845052D01*
X168478052Y-103134000D01*
X160030166Y-103134000D01*
X159984259Y-103088013D01*
X159734054Y-102984118D01*
X159463135Y-102983882D01*
X159212748Y-103087339D01*
X159021013Y-103278741D01*
X158917118Y-103528946D01*
X158916882Y-103799865D01*
X159020339Y-104050252D01*
X159211741Y-104241987D01*
X159461946Y-104345882D01*
X159732865Y-104346118D01*
X159983252Y-104242661D01*
X160029994Y-104196000D01*
X168698000Y-104196000D01*
X168901205Y-104155580D01*
X169073474Y-104040474D01*
X169673474Y-103440474D01*
X169788580Y-103268205D01*
X169829000Y-103065000D01*
X169829000Y-102097166D01*
X169874987Y-102051259D01*
X169978882Y-101801054D01*
X169979118Y-101530135D01*
X169979118Y-115338000D01*
X167798000Y-115338000D01*
X161850815Y-115338000D01*
X158950815Y-117838000D01*
X141525000Y-117838000D01*
X141525000Y-112747492D01*
X141761946Y-112845882D01*
X142032865Y-112846118D01*
X142283252Y-112742661D01*
X142474987Y-112551259D01*
X142518638Y-112446135D01*
X142520339Y-112450252D01*
X142711741Y-112641987D01*
X142961946Y-112745882D01*
X143232865Y-112746118D01*
X143483252Y-112642661D01*
X143674987Y-112451259D01*
X143778882Y-112201054D01*
X143779118Y-111930135D01*
X143675661Y-111679748D01*
X143629000Y-111633005D01*
X143629000Y-111565000D01*
X143629000Y-109184948D01*
X144267886Y-108546061D01*
X144332865Y-108546118D01*
X144583252Y-108442661D01*
X144774987Y-108251259D01*
X144792099Y-108210047D01*
X148322523Y-111740470D01*
X148322526Y-111740474D01*
X148322527Y-111740474D01*
X148494795Y-111855580D01*
X148698000Y-111896001D01*
X148698000Y-111896000D01*
X148698005Y-111896000D01*
X160278052Y-111896000D01*
X162067112Y-113685059D01*
X162066882Y-113949865D01*
X162170339Y-114200252D01*
X162361741Y-114391987D01*
X162611946Y-114495882D01*
X162882865Y-114496118D01*
X163133252Y-114392661D01*
X163324987Y-114201259D01*
X163428882Y-113951054D01*
X163429118Y-113680135D01*
X163325661Y-113429748D01*
X163134259Y-113238013D01*
X163113226Y-113229279D01*
X163101645Y-113217698D01*
X163283252Y-113142661D01*
X163474987Y-112951259D01*
X163578882Y-112701054D01*
X163579118Y-112430135D01*
X163475661Y-112179748D01*
X163284259Y-111988013D01*
X163034054Y-111884118D01*
X162968008Y-111884060D01*
X161373474Y-110289526D01*
X161201205Y-110174420D01*
X160998000Y-110134000D01*
X149617947Y-110134000D01*
X146279061Y-106795113D01*
X146279118Y-106730135D01*
X146175661Y-106479748D01*
X145984259Y-106288013D01*
X145734054Y-106184118D01*
X145463135Y-106183882D01*
X145278917Y-106259998D01*
X145279118Y-106030135D01*
X145175661Y-105779748D01*
X144984259Y-105588013D01*
X144734054Y-105484118D01*
X144463135Y-105483882D01*
X144355577Y-105528323D01*
X144423832Y-102593357D01*
X148969415Y-98144489D01*
X148971055Y-98142089D01*
X148973474Y-98140474D01*
X149029476Y-98056659D01*
X149086367Y-97973468D01*
X149086964Y-97970622D01*
X149088580Y-97968205D01*
X149108234Y-97869396D01*
X149128970Y-97770710D01*
X149128433Y-97767850D01*
X149129000Y-97765000D01*
X149129000Y-95797166D01*
X149174987Y-95751259D01*
X149278882Y-95501054D01*
X149279118Y-95230135D01*
X149228137Y-95106752D01*
X149383252Y-95042661D01*
X149574987Y-94851259D01*
X149678882Y-94601054D01*
X149679118Y-94330135D01*
X149575661Y-94079748D01*
X149455035Y-93958912D01*
X151167886Y-92246061D01*
X151232865Y-92246118D01*
X151483252Y-92142661D01*
X151674987Y-91951259D01*
X151767000Y-91729668D01*
X151767000Y-92065000D01*
X151807420Y-92268205D01*
X151922526Y-92440474D01*
X157366938Y-97884886D01*
X157366882Y-97949865D01*
X157390166Y-98006218D01*
X156973474Y-97589526D01*
X156801205Y-97474420D01*
X156598000Y-97434000D01*
X155498005Y-97434000D01*
X155498000Y-97433999D01*
X155294795Y-97474420D01*
X155122526Y-97589526D01*
X154503550Y-98208501D01*
X154312748Y-98287339D01*
X154121013Y-98478741D01*
X154017118Y-98728946D01*
X154016882Y-98999865D01*
X154120339Y-99250252D01*
X154311741Y-99441987D01*
X154561946Y-99545882D01*
X154832865Y-99546118D01*
X155083252Y-99442661D01*
X155274987Y-99251259D01*
X155378882Y-99001054D01*
X155379026Y-98834921D01*
X155717948Y-98496000D01*
X156378052Y-98496000D01*
X156659985Y-98777933D01*
X156434054Y-98684118D01*
X156163135Y-98683882D01*
X155912748Y-98787339D01*
X155721013Y-98978741D01*
X155617118Y-99228946D01*
X155616882Y-99499865D01*
X155720339Y-99750252D01*
X155911741Y-99941987D01*
X156161946Y-100045882D01*
X156227991Y-100045939D01*
X156822526Y-100640474D01*
X156994795Y-100755580D01*
X157198000Y-100796000D01*
X161641817Y-100796000D01*
X161761946Y-100845882D01*
X162032865Y-100846118D01*
X162283252Y-100742661D01*
X162474987Y-100551259D01*
X162578882Y-100301054D01*
X162579118Y-100030135D01*
X162475661Y-99779748D01*
X162284259Y-99588013D01*
X162034054Y-99484118D01*
X161763135Y-99483882D01*
X161512748Y-99587339D01*
X161365831Y-99734000D01*
X161079947Y-99734000D01*
X164567885Y-96246061D01*
X164632865Y-96246118D01*
X164883252Y-96142661D01*
X165074987Y-95951259D01*
X165178882Y-95701054D01*
X165179118Y-95430135D01*
X165075661Y-95179748D01*
X164884259Y-94988013D01*
X164634054Y-94884118D01*
X164363135Y-94883882D01*
X164112748Y-94987339D01*
X163921013Y-95178741D01*
X163817118Y-95428946D01*
X163817060Y-95494992D01*
X160478052Y-98834000D01*
X158217948Y-98834000D01*
X157857024Y-98473076D01*
X157911946Y-98495882D01*
X158182865Y-98496118D01*
X158433252Y-98392661D01*
X158624987Y-98201259D01*
X158728882Y-97951054D01*
X158729118Y-97680135D01*
X158625661Y-97429748D01*
X158434259Y-97238013D01*
X158184054Y-97134118D01*
X158118008Y-97134060D01*
X156829889Y-95845941D01*
X157032865Y-95846118D01*
X157283252Y-95742661D01*
X157474987Y-95551259D01*
X157578882Y-95301054D01*
X157579118Y-95030135D01*
X157475661Y-94779748D01*
X157429000Y-94733005D01*
X157429000Y-88084948D01*
X158667886Y-86846061D01*
X158732865Y-86846118D01*
X158983252Y-86742661D01*
X159174987Y-86551259D01*
X159278882Y-86301054D01*
X159279118Y-86030135D01*
X159175661Y-85779748D01*
X158984259Y-85588013D01*
X158734054Y-85484118D01*
X158463135Y-85483882D01*
X158212748Y-85587339D01*
X158021013Y-85778741D01*
X157917118Y-86028946D01*
X157917060Y-86094991D01*
X156522526Y-87489526D01*
X156407420Y-87661795D01*
X156367000Y-87865000D01*
X156367000Y-94732833D01*
X156321013Y-94778741D01*
X156217118Y-95028946D01*
X156216940Y-95232992D01*
X152829000Y-91845052D01*
X152829000Y-89397166D01*
X152874987Y-89351259D01*
X152978882Y-89101054D01*
X152979118Y-88830135D01*
X152875661Y-88579748D01*
X152684259Y-88388013D01*
X152434054Y-88284118D01*
X152163135Y-88283882D01*
X151951999Y-88371120D01*
X152769409Y-87546000D01*
X154215833Y-87546000D01*
X154261741Y-87591987D01*
X154511946Y-87695882D01*
X154782865Y-87696118D01*
X155033252Y-87592661D01*
X155224987Y-87401259D01*
X155328882Y-87151054D01*
X155329118Y-86880135D01*
X155225661Y-86629748D01*
X155034259Y-86438013D01*
X154784054Y-86334118D01*
X154513135Y-86333882D01*
X154262748Y-86437339D01*
X154216005Y-86484000D01*
X152548000Y-86484000D01*
X152546753Y-86484247D01*
X152545507Y-86484006D01*
X152445169Y-86504454D01*
X152344795Y-86524420D01*
X152343739Y-86525125D01*
X152342494Y-86525379D01*
X152257648Y-86582649D01*
X152172526Y-86639526D01*
X152171819Y-86640583D01*
X152170768Y-86641293D01*
X147175252Y-91683936D01*
X147113135Y-91683882D01*
X146862748Y-91787339D01*
X146671013Y-91978741D01*
X146567118Y-92228946D01*
X146566882Y-92499865D01*
X146640331Y-92677628D01*
X146622526Y-92689526D01*
X146622523Y-92689529D01*
X141873099Y-97438952D01*
X141728509Y-97467713D01*
X141694795Y-97474420D01*
X141522526Y-97589526D01*
X141522523Y-97589529D01*
X141322524Y-97789528D01*
X141207418Y-97961797D01*
X141166998Y-98165002D01*
X141166998Y-101708123D01*
X140925000Y-101042626D01*
X140925000Y-100209132D01*
X139725000Y-99109132D01*
X139725000Y-93665000D01*
X139725000Y-85192000D01*
X145852130Y-85192000D01*
X147402320Y-83577218D01*
X147422777Y-83571180D01*
X147501205Y-83555580D01*
X147521442Y-83542057D01*
X147544785Y-83535168D01*
X147606977Y-83484905D01*
X147673474Y-83440474D01*
X147686997Y-83420235D01*
X147705925Y-83404938D01*
X148300040Y-82692000D01*
X153198000Y-82692000D01*
X169036961Y-82692000D01*
X169399714Y-83145441D01*
X172971000Y-87411144D01*
X172971000Y-89978319D01*
X170671000Y-90878319D01*
X170671000Y-104692000D01*
X176179937Y-104692000D01*
X179122000Y-105546147D01*
X179122000Y-107379187D01*
X179093464Y-107359142D01*
X178913858Y-107538747D01*
X178913858Y-107179536D01*
X178740085Y-106932163D01*
X178041260Y-106664565D01*
X177293224Y-106684766D01*
X176695955Y-106932163D01*
X176522182Y-107179536D01*
X177718020Y-108375375D01*
X178913858Y-107179536D01*
X178913858Y-107538747D01*
X177897625Y-108554980D01*
X179093464Y-109750818D01*
X179122000Y-109730772D01*
X179122000Y-112698992D01*
G36*
X176649716Y-123601100D02*
X176616711Y-123650496D01*
X176582000Y-123825000D01*
X176582000Y-125538000D01*
X176379118Y-125538000D01*
X176379118Y-116830135D01*
X176275661Y-116579748D01*
X176084259Y-116388013D01*
X175834054Y-116284118D01*
X175563135Y-116283882D01*
X175312748Y-116387339D01*
X175121013Y-116578741D01*
X175017118Y-116828946D01*
X175016882Y-117099865D01*
X175120339Y-117350252D01*
X175311741Y-117541987D01*
X175561946Y-117645882D01*
X175832865Y-117646118D01*
X176083252Y-117542661D01*
X176274987Y-117351259D01*
X176378882Y-117101054D01*
X176379118Y-116830135D01*
X176379118Y-125538000D01*
X175692600Y-125538000D01*
X175692600Y-124044769D01*
X175692600Y-123685231D01*
X175597860Y-123208943D01*
X175328065Y-122805166D01*
X175179118Y-122705642D01*
X175179118Y-118230135D01*
X175075661Y-117979748D01*
X174884259Y-117788013D01*
X174634054Y-117684118D01*
X174363135Y-117683882D01*
X174112748Y-117787339D01*
X173921013Y-117978741D01*
X173817118Y-118228946D01*
X173816882Y-118499865D01*
X173920339Y-118750252D01*
X174111741Y-118941987D01*
X174361946Y-119045882D01*
X174632865Y-119046118D01*
X174883252Y-118942661D01*
X175074987Y-118751259D01*
X175178882Y-118501054D01*
X175179118Y-118230135D01*
X175179118Y-122705642D01*
X174924288Y-122535371D01*
X174448000Y-122440631D01*
X173971712Y-122535371D01*
X173567935Y-122805166D01*
X173298140Y-123208943D01*
X173203400Y-123685231D01*
X173203400Y-124044769D01*
X173298140Y-124521057D01*
X173567935Y-124924834D01*
X173971712Y-125194629D01*
X174448000Y-125289369D01*
X174924288Y-125194629D01*
X175328065Y-124924834D01*
X175597860Y-124521057D01*
X175692600Y-124044769D01*
X175692600Y-125538000D01*
X173152600Y-125538000D01*
X173152600Y-124044769D01*
X173152600Y-123685231D01*
X173057860Y-123208943D01*
X172788065Y-122805166D01*
X172384288Y-122535371D01*
X171908000Y-122440631D01*
X171431712Y-122535371D01*
X171027935Y-122805166D01*
X170758140Y-123208943D01*
X170663400Y-123685231D01*
X170663400Y-124044769D01*
X170758140Y-124521057D01*
X171027935Y-124924834D01*
X171431712Y-125194629D01*
X171908000Y-125289369D01*
X172384288Y-125194629D01*
X172788065Y-124924834D01*
X173057860Y-124521057D01*
X173152600Y-124044769D01*
X173152600Y-125538000D01*
X170612600Y-125538000D01*
X170612600Y-124044769D01*
X170612600Y-123685231D01*
X170517860Y-123208943D01*
X170248065Y-122805166D01*
X169844288Y-122535371D01*
X169368000Y-122440631D01*
X168891712Y-122535371D01*
X168487935Y-122805166D01*
X168218140Y-123208943D01*
X168123400Y-123685231D01*
X168123400Y-124044769D01*
X168218140Y-124521057D01*
X168487935Y-124924834D01*
X168891712Y-125194629D01*
X169368000Y-125289369D01*
X169844288Y-125194629D01*
X170248065Y-124924834D01*
X170517860Y-124521057D01*
X170612600Y-124044769D01*
X170612600Y-125538000D01*
X168072600Y-125538000D01*
X168072600Y-124044769D01*
X168072600Y-123685231D01*
X167977860Y-123208943D01*
X167708065Y-122805166D01*
X167304288Y-122535371D01*
X166828000Y-122440631D01*
X166351712Y-122535371D01*
X165947935Y-122805166D01*
X165678140Y-123208943D01*
X165583400Y-123685231D01*
X165583400Y-124044769D01*
X165678140Y-124521057D01*
X165947935Y-124924834D01*
X166351712Y-125194629D01*
X166828000Y-125289369D01*
X167304288Y-125194629D01*
X167708065Y-124924834D01*
X167977860Y-124521057D01*
X168072600Y-124044769D01*
X168072600Y-125538000D01*
X165532600Y-125538000D01*
X165532600Y-124044769D01*
X165532600Y-123685231D01*
X165437860Y-123208943D01*
X165168065Y-122805166D01*
X164764288Y-122535371D01*
X164288000Y-122440631D01*
X163811712Y-122535371D01*
X163407935Y-122805166D01*
X163138140Y-123208943D01*
X163043400Y-123685231D01*
X163043400Y-124044769D01*
X163138140Y-124521057D01*
X163407935Y-124924834D01*
X163811712Y-125194629D01*
X164288000Y-125289369D01*
X164764288Y-125194629D01*
X165168065Y-124924834D01*
X165437860Y-124521057D01*
X165532600Y-124044769D01*
X165532600Y-125538000D01*
X162992600Y-125538000D01*
X162992600Y-124956785D01*
X162992600Y-124805214D01*
X162992600Y-122773214D01*
X162934596Y-122633180D01*
X162827419Y-122526004D01*
X162687385Y-122468000D01*
X162535814Y-122468000D01*
X160808614Y-122468000D01*
X160668580Y-122526004D01*
X160561404Y-122633181D01*
X160503400Y-122773215D01*
X160503400Y-122924786D01*
X160503400Y-124956786D01*
X160561404Y-125096820D01*
X160668581Y-125203996D01*
X160808615Y-125262000D01*
X160960186Y-125262000D01*
X162687386Y-125262000D01*
X162827420Y-125203996D01*
X162934596Y-125096819D01*
X162992600Y-124956785D01*
X162992600Y-125538000D01*
X158022600Y-125538000D01*
X158022600Y-124044769D01*
X158022600Y-123685231D01*
X157927860Y-123208943D01*
X157658065Y-122805166D01*
X157254288Y-122535371D01*
X156778000Y-122440631D01*
X156301712Y-122535371D01*
X155897935Y-122805166D01*
X155628140Y-123208943D01*
X155533400Y-123685231D01*
X155533400Y-124044769D01*
X155628140Y-124521057D01*
X155897935Y-124924834D01*
X156301712Y-125194629D01*
X156778000Y-125289369D01*
X157254288Y-125194629D01*
X157658065Y-124924834D01*
X157927860Y-124521057D01*
X158022600Y-124044769D01*
X158022600Y-125538000D01*
X155472527Y-125538000D01*
X155472527Y-124187213D01*
X155472527Y-123542787D01*
X155313570Y-123083280D01*
X154990867Y-122719581D01*
X154557118Y-122509607D01*
X154365000Y-122570288D01*
X154365000Y-123738000D01*
X155388643Y-123738000D01*
X155472527Y-123542787D01*
X155472527Y-124187213D01*
X155388643Y-123992000D01*
X154365000Y-123992000D01*
X154365000Y-125159712D01*
X154557118Y-125220393D01*
X154990867Y-125010419D01*
X155313570Y-124646720D01*
X155472527Y-124187213D01*
X155472527Y-125538000D01*
X154111000Y-125538000D01*
X154111000Y-125159712D01*
X154111000Y-123992000D01*
X154111000Y-123738000D01*
X154111000Y-122570288D01*
X153918882Y-122509607D01*
X153485133Y-122719581D01*
X153162430Y-123083280D01*
X153003473Y-123542787D01*
X153087357Y-123738000D01*
X154111000Y-123738000D01*
X154111000Y-123992000D01*
X153087357Y-123992000D01*
X153003473Y-124187213D01*
X153162430Y-124646720D01*
X153485133Y-125010419D01*
X153918882Y-125220393D01*
X154111000Y-125159712D01*
X154111000Y-125538000D01*
X152932527Y-125538000D01*
X152932527Y-124187213D01*
X152932527Y-123542787D01*
X152773570Y-123083280D01*
X152450867Y-122719581D01*
X152017118Y-122509607D01*
X151825000Y-122570288D01*
X151825000Y-123738000D01*
X152848643Y-123738000D01*
X152932527Y-123542787D01*
X152932527Y-124187213D01*
X152848643Y-123992000D01*
X151825000Y-123992000D01*
X151825000Y-125159712D01*
X152017118Y-125220393D01*
X152450867Y-125010419D01*
X152773570Y-124646720D01*
X152932527Y-124187213D01*
X152932527Y-125538000D01*
X151571000Y-125538000D01*
X151571000Y-125159712D01*
X151571000Y-123992000D01*
X151571000Y-123738000D01*
X151571000Y-122570288D01*
X151378882Y-122509607D01*
X150945133Y-122719581D01*
X150622430Y-123083280D01*
X150463473Y-123542787D01*
X150547357Y-123738000D01*
X151571000Y-123738000D01*
X151571000Y-123992000D01*
X150547357Y-123992000D01*
X150463473Y-124187213D01*
X150622430Y-124646720D01*
X150945133Y-125010419D01*
X151378882Y-125220393D01*
X151571000Y-125159712D01*
X151571000Y-125538000D01*
X150402600Y-125538000D01*
X150402600Y-124044769D01*
X150402600Y-123685231D01*
X150307860Y-123208943D01*
X150038065Y-122805166D01*
X149634288Y-122535371D01*
X149158000Y-122440631D01*
X148681712Y-122535371D01*
X148277935Y-122805166D01*
X148008140Y-123208943D01*
X147913400Y-123685231D01*
X147913400Y-124044769D01*
X148008140Y-124521057D01*
X148277935Y-124924834D01*
X148681712Y-125194629D01*
X149158000Y-125289369D01*
X149634288Y-125194629D01*
X150038065Y-124924834D01*
X150307860Y-124521057D01*
X150402600Y-124044769D01*
X150402600Y-125538000D01*
X147862600Y-125538000D01*
X147862600Y-124044769D01*
X147862600Y-123685231D01*
X147767860Y-123208943D01*
X147498065Y-122805166D01*
X147094288Y-122535371D01*
X146618000Y-122440631D01*
X146141712Y-122535371D01*
X145737935Y-122805166D01*
X145468140Y-123208943D01*
X145373400Y-123685231D01*
X145373400Y-124044769D01*
X145468140Y-124521057D01*
X145737935Y-124924834D01*
X146141712Y-125194629D01*
X146618000Y-125289369D01*
X147094288Y-125194629D01*
X147498065Y-124924834D01*
X147767860Y-124521057D01*
X147862600Y-124044769D01*
X147862600Y-125538000D01*
X145322600Y-125538000D01*
X145322600Y-124044769D01*
X145322600Y-123685231D01*
X145227860Y-123208943D01*
X144958065Y-122805166D01*
X144554288Y-122535371D01*
X144078000Y-122440631D01*
X143601712Y-122535371D01*
X143197935Y-122805166D01*
X142928140Y-123208943D01*
X142833400Y-123685231D01*
X142833400Y-124044769D01*
X142928140Y-124521057D01*
X143197935Y-124924834D01*
X143601712Y-125194629D01*
X144078000Y-125289369D01*
X144554288Y-125194629D01*
X144958065Y-124924834D01*
X145227860Y-124521057D01*
X145322600Y-124044769D01*
X145322600Y-125538000D01*
X142782600Y-125538000D01*
X142782600Y-124044769D01*
X142782600Y-123685231D01*
X142687860Y-123208943D01*
X142418065Y-122805166D01*
X142014288Y-122535371D01*
X141538000Y-122440631D01*
X141061712Y-122535371D01*
X140657935Y-122805166D01*
X140388140Y-123208943D01*
X140293400Y-123685231D01*
X140293400Y-124044769D01*
X140388140Y-124521057D01*
X140657935Y-124924834D01*
X141061712Y-125194629D01*
X141538000Y-125289369D01*
X142014288Y-125194629D01*
X142418065Y-124924834D01*
X142687860Y-124521057D01*
X142782600Y-124044769D01*
X142782600Y-125538000D01*
X140242600Y-125538000D01*
X140242600Y-124956785D01*
X140242600Y-124805214D01*
X140242600Y-122773214D01*
X140184596Y-122633180D01*
X140077419Y-122526004D01*
X139937385Y-122468000D01*
X139785814Y-122468000D01*
X138058614Y-122468000D01*
X137918580Y-122526004D01*
X137811404Y-122633181D01*
X137753400Y-122773215D01*
X137753400Y-122924786D01*
X137753400Y-124956786D01*
X137811404Y-125096820D01*
X137918581Y-125203996D01*
X138058615Y-125262000D01*
X138210186Y-125262000D01*
X139937386Y-125262000D01*
X140077420Y-125203996D01*
X140184596Y-125096819D01*
X140242600Y-124956785D01*
X140242600Y-125538000D01*
X130496600Y-125538000D01*
X130496600Y-117558385D01*
X130496600Y-117406814D01*
X130496600Y-115171614D01*
X130438596Y-115031580D01*
X130331419Y-114924404D01*
X130191385Y-114866400D01*
X130039814Y-114866400D01*
X127804614Y-114866400D01*
X127664580Y-114924404D01*
X127557404Y-115031581D01*
X127499400Y-115171615D01*
X127499400Y-115323186D01*
X127499400Y-117558386D01*
X127557404Y-117698420D01*
X127664581Y-117805596D01*
X127804615Y-117863600D01*
X127956186Y-117863600D01*
X130191386Y-117863600D01*
X130331420Y-117805596D01*
X130438596Y-117698419D01*
X130496600Y-117558385D01*
X130496600Y-125538000D01*
X125954000Y-125538000D01*
X125954000Y-73592000D01*
X175150625Y-73592000D01*
X176571000Y-74822992D01*
X176571000Y-82138000D01*
X175935000Y-82138000D01*
X175935000Y-79392369D01*
X175935000Y-79337631D01*
X175828660Y-78803022D01*
X175772600Y-78719122D01*
X175772600Y-75794769D01*
X175772600Y-75435231D01*
X175677860Y-74958943D01*
X175408065Y-74555166D01*
X175004288Y-74285371D01*
X174528000Y-74190631D01*
X174051712Y-74285371D01*
X173647935Y-74555166D01*
X173378140Y-74958943D01*
X173283400Y-75435231D01*
X173283400Y-75794769D01*
X173378140Y-76271057D01*
X173647935Y-76674834D01*
X174051712Y-76944629D01*
X174528000Y-77039369D01*
X175004288Y-76944629D01*
X175408065Y-76674834D01*
X175677860Y-76271057D01*
X175772600Y-75794769D01*
X175772600Y-78719122D01*
X175525828Y-78349803D01*
X175072609Y-78046971D01*
X174538000Y-77940631D01*
X174003391Y-78046971D01*
X173550172Y-78349803D01*
X173395000Y-78582033D01*
X173395000Y-78273214D01*
X173336996Y-78133180D01*
X173232600Y-78028784D01*
X173232600Y-75794769D01*
X173232600Y-75435231D01*
X173137860Y-74958943D01*
X172868065Y-74555166D01*
X172464288Y-74285371D01*
X171988000Y-74190631D01*
X171511712Y-74285371D01*
X171107935Y-74555166D01*
X170838140Y-74958943D01*
X170743400Y-75435231D01*
X170743400Y-75794769D01*
X170838140Y-76271057D01*
X171107935Y-76674834D01*
X171511712Y-76944629D01*
X171988000Y-77039369D01*
X172464288Y-76944629D01*
X172868065Y-76674834D01*
X173137860Y-76271057D01*
X173232600Y-75794769D01*
X173232600Y-78028784D01*
X173229819Y-78026004D01*
X173089785Y-77968000D01*
X172938214Y-77968000D01*
X170906214Y-77968000D01*
X170766180Y-78026004D01*
X170692600Y-78099584D01*
X170692600Y-75794769D01*
X170692600Y-75435231D01*
X170597860Y-74958943D01*
X170328065Y-74555166D01*
X169924288Y-74285371D01*
X169448000Y-74190631D01*
X168971712Y-74285371D01*
X168567935Y-74555166D01*
X168298140Y-74958943D01*
X168203400Y-75435231D01*
X168203400Y-75794769D01*
X168298140Y-76271057D01*
X168567935Y-76674834D01*
X168971712Y-76944629D01*
X169448000Y-77039369D01*
X169924288Y-76944629D01*
X170328065Y-76674834D01*
X170597860Y-76271057D01*
X170692600Y-75794769D01*
X170692600Y-78099584D01*
X170659004Y-78133181D01*
X170601000Y-78273215D01*
X170601000Y-78424786D01*
X170601000Y-80456786D01*
X170659004Y-80596820D01*
X170766181Y-80703996D01*
X170906215Y-80762000D01*
X171057786Y-80762000D01*
X173089786Y-80762000D01*
X173229820Y-80703996D01*
X173336996Y-80596819D01*
X173395000Y-80456785D01*
X173395000Y-80305214D01*
X173395000Y-80147966D01*
X173550172Y-80380197D01*
X174003391Y-80683029D01*
X174538000Y-80789369D01*
X175072609Y-80683029D01*
X175525828Y-80380197D01*
X175828660Y-79926978D01*
X175935000Y-79392369D01*
X175935000Y-82138000D01*
X169438008Y-82138000D01*
X169574987Y-82001259D01*
X169678882Y-81751054D01*
X169679118Y-81480135D01*
X169575661Y-81229748D01*
X169384259Y-81038013D01*
X169134054Y-80934118D01*
X168863135Y-80933882D01*
X168612748Y-81037339D01*
X168421013Y-81228741D01*
X168317118Y-81478946D01*
X168317070Y-81534000D01*
X168152600Y-81534000D01*
X168152600Y-75794769D01*
X168152600Y-75435231D01*
X168057860Y-74958943D01*
X167788065Y-74555166D01*
X167384288Y-74285371D01*
X166908000Y-74190631D01*
X166431712Y-74285371D01*
X166027935Y-74555166D01*
X165758140Y-74958943D01*
X165663400Y-75435231D01*
X165663400Y-75794769D01*
X165758140Y-76271057D01*
X166027935Y-76674834D01*
X166431712Y-76944629D01*
X166908000Y-77039369D01*
X167384288Y-76944629D01*
X167788065Y-76674834D01*
X168057860Y-76271057D01*
X168152600Y-75794769D01*
X168152600Y-81534000D01*
X167552742Y-81534000D01*
X167562177Y-81522877D01*
X167571549Y-81493692D01*
X167588580Y-81468205D01*
X167602972Y-81395850D01*
X167625529Y-81325614D01*
X167623019Y-81295064D01*
X167629000Y-81265000D01*
X167614607Y-81192644D01*
X167608569Y-81119123D01*
X167594560Y-81091859D01*
X167588580Y-81061795D01*
X167547591Y-81000451D01*
X167513879Y-80934841D01*
X167490505Y-80915015D01*
X167473474Y-80889526D01*
X167412132Y-80848539D01*
X167355876Y-80800822D01*
X167326691Y-80791449D01*
X167301205Y-80774420D01*
X167228850Y-80760027D01*
X167158613Y-80737471D01*
X167128064Y-80739980D01*
X167098000Y-80734000D01*
X167004182Y-80734000D01*
X166884054Y-80684118D01*
X166613135Y-80683882D01*
X166491839Y-80734000D01*
X165612600Y-80734000D01*
X165612600Y-75794769D01*
X165612600Y-75435231D01*
X165517860Y-74958943D01*
X165248065Y-74555166D01*
X164844288Y-74285371D01*
X164368000Y-74190631D01*
X163891712Y-74285371D01*
X163487935Y-74555166D01*
X163218140Y-74958943D01*
X163123400Y-75435231D01*
X163123400Y-75794769D01*
X163218140Y-76271057D01*
X163487935Y-76674834D01*
X163891712Y-76944629D01*
X164368000Y-77039369D01*
X164844288Y-76944629D01*
X165248065Y-76674834D01*
X165517860Y-76271057D01*
X165612600Y-75794769D01*
X165612600Y-80734000D01*
X164423677Y-80734000D01*
X164478882Y-80601054D01*
X164479118Y-80330135D01*
X164375661Y-80079748D01*
X164184259Y-79888013D01*
X163934054Y-79784118D01*
X163663135Y-79783882D01*
X163412748Y-79887339D01*
X163361617Y-79938380D01*
X163072600Y-79941299D01*
X163072600Y-75794769D01*
X163072600Y-75435231D01*
X162977860Y-74958943D01*
X162708065Y-74555166D01*
X162304288Y-74285371D01*
X161828000Y-74190631D01*
X161351712Y-74285371D01*
X160947935Y-74555166D01*
X160678140Y-74958943D01*
X160583400Y-75435231D01*
X160583400Y-75794769D01*
X160678140Y-76271057D01*
X160947935Y-76674834D01*
X161351712Y-76944629D01*
X161828000Y-77039369D01*
X162304288Y-76944629D01*
X162708065Y-76674834D01*
X162977860Y-76271057D01*
X163072600Y-75794769D01*
X163072600Y-79941299D01*
X160232650Y-79969986D01*
X160528660Y-79526978D01*
X160635000Y-78992369D01*
X160635000Y-78937631D01*
X160532600Y-78422829D01*
X160532600Y-75794769D01*
X160532600Y-75435231D01*
X160437860Y-74958943D01*
X160168065Y-74555166D01*
X159764288Y-74285371D01*
X159288000Y-74190631D01*
X158811712Y-74285371D01*
X158407935Y-74555166D01*
X158138140Y-74958943D01*
X158043400Y-75435231D01*
X158043400Y-75794769D01*
X158138140Y-76271057D01*
X158407935Y-76674834D01*
X158811712Y-76944629D01*
X159288000Y-77039369D01*
X159764288Y-76944629D01*
X160168065Y-76674834D01*
X160437860Y-76271057D01*
X160532600Y-75794769D01*
X160532600Y-78422829D01*
X160528660Y-78403022D01*
X160225828Y-77949803D01*
X159772609Y-77646971D01*
X159238000Y-77540631D01*
X158703391Y-77646971D01*
X158250172Y-77949803D01*
X158095000Y-78182033D01*
X158095000Y-77873214D01*
X158036996Y-77733180D01*
X157992600Y-77688784D01*
X157992600Y-76706785D01*
X157992600Y-76555214D01*
X157992600Y-74523214D01*
X157934596Y-74383180D01*
X157827419Y-74276004D01*
X157687385Y-74218000D01*
X157535814Y-74218000D01*
X155808614Y-74218000D01*
X155668580Y-74276004D01*
X155561404Y-74383181D01*
X155503400Y-74523215D01*
X155503400Y-74674786D01*
X155503400Y-76706786D01*
X155561404Y-76846820D01*
X155668581Y-76953996D01*
X155808615Y-77012000D01*
X155960186Y-77012000D01*
X157687386Y-77012000D01*
X157827420Y-76953996D01*
X157934596Y-76846819D01*
X157992600Y-76706785D01*
X157992600Y-77688784D01*
X157929819Y-77626004D01*
X157789785Y-77568000D01*
X157638214Y-77568000D01*
X155606214Y-77568000D01*
X155466180Y-77626004D01*
X155359004Y-77733181D01*
X155301000Y-77873215D01*
X155301000Y-78024786D01*
X155301000Y-80019801D01*
X154498026Y-80027911D01*
X154674987Y-79851259D01*
X154778882Y-79601054D01*
X154779118Y-79330135D01*
X154675661Y-79079748D01*
X154484259Y-78888013D01*
X154234054Y-78784118D01*
X153963135Y-78783882D01*
X153852600Y-78829553D01*
X153852600Y-75794769D01*
X153852600Y-75435231D01*
X153757860Y-74958943D01*
X153488065Y-74555166D01*
X153084288Y-74285371D01*
X152608000Y-74190631D01*
X152131712Y-74285371D01*
X151727935Y-74555166D01*
X151458140Y-74958943D01*
X151363400Y-75435231D01*
X151363400Y-75794769D01*
X151458140Y-76271057D01*
X151727935Y-76674834D01*
X152131712Y-76944629D01*
X152608000Y-77039369D01*
X153084288Y-76944629D01*
X153488065Y-76674834D01*
X153757860Y-76271057D01*
X153852600Y-75794769D01*
X153852600Y-78829553D01*
X153712748Y-78887339D01*
X153666005Y-78934000D01*
X151312600Y-78934000D01*
X151312600Y-75794769D01*
X151312600Y-75435231D01*
X151217860Y-74958943D01*
X150948065Y-74555166D01*
X150544288Y-74285371D01*
X150068000Y-74190631D01*
X149591712Y-74285371D01*
X149187935Y-74555166D01*
X148918140Y-74958943D01*
X148823400Y-75435231D01*
X148823400Y-75794769D01*
X148918140Y-76271057D01*
X149187935Y-76674834D01*
X149591712Y-76944629D01*
X150068000Y-77039369D01*
X150544288Y-76944629D01*
X150948065Y-76674834D01*
X151217860Y-76271057D01*
X151312600Y-75794769D01*
X151312600Y-78934000D01*
X148772600Y-78934000D01*
X148772600Y-75794769D01*
X148772600Y-75435231D01*
X148677860Y-74958943D01*
X148408065Y-74555166D01*
X148004288Y-74285371D01*
X147528000Y-74190631D01*
X147051712Y-74285371D01*
X146647935Y-74555166D01*
X146378140Y-74958943D01*
X146283400Y-75435231D01*
X146283400Y-75794769D01*
X146378140Y-76271057D01*
X146647935Y-76674834D01*
X147051712Y-76944629D01*
X147528000Y-77039369D01*
X148004288Y-76944629D01*
X148408065Y-76674834D01*
X148677860Y-76271057D01*
X148772600Y-75794769D01*
X148772600Y-78934000D01*
X148492102Y-78934000D01*
X148574987Y-78851259D01*
X148678882Y-78601054D01*
X148679118Y-78330135D01*
X148575661Y-78079748D01*
X148384259Y-77888013D01*
X148134054Y-77784118D01*
X147863135Y-77783882D01*
X147612748Y-77887339D01*
X147421013Y-78078741D01*
X147317118Y-78328946D01*
X147317001Y-78462302D01*
X146044675Y-80034000D01*
X145834686Y-80034000D01*
X145998065Y-79924834D01*
X146267860Y-79521057D01*
X146362600Y-79044769D01*
X146362600Y-78685231D01*
X146267860Y-78208943D01*
X146232600Y-78156172D01*
X146232600Y-75794769D01*
X146232600Y-75435231D01*
X146137860Y-74958943D01*
X145868065Y-74555166D01*
X145464288Y-74285371D01*
X144988000Y-74190631D01*
X144511712Y-74285371D01*
X144107935Y-74555166D01*
X143838140Y-74958943D01*
X143743400Y-75435231D01*
X143743400Y-75794769D01*
X143838140Y-76271057D01*
X144107935Y-76674834D01*
X144511712Y-76944629D01*
X144988000Y-77039369D01*
X145464288Y-76944629D01*
X145868065Y-76674834D01*
X146137860Y-76271057D01*
X146232600Y-75794769D01*
X146232600Y-78156172D01*
X145998065Y-77805166D01*
X145594288Y-77535371D01*
X145118000Y-77440631D01*
X144641712Y-77535371D01*
X144237935Y-77805166D01*
X143968140Y-78208943D01*
X143873400Y-78685231D01*
X143873400Y-79044769D01*
X143968140Y-79521057D01*
X144237935Y-79924834D01*
X144401313Y-80034000D01*
X143294686Y-80034000D01*
X143458065Y-79924834D01*
X143727860Y-79521057D01*
X143822600Y-79044769D01*
X143822600Y-78685231D01*
X143727860Y-78208943D01*
X143692600Y-78156172D01*
X143692600Y-75794769D01*
X143692600Y-75435231D01*
X143597860Y-74958943D01*
X143328065Y-74555166D01*
X142924288Y-74285371D01*
X142448000Y-74190631D01*
X141971712Y-74285371D01*
X141567935Y-74555166D01*
X141298140Y-74958943D01*
X141203400Y-75435231D01*
X141203400Y-75794769D01*
X141298140Y-76271057D01*
X141567935Y-76674834D01*
X141971712Y-76944629D01*
X142448000Y-77039369D01*
X142924288Y-76944629D01*
X143328065Y-76674834D01*
X143597860Y-76271057D01*
X143692600Y-75794769D01*
X143692600Y-78156172D01*
X143458065Y-77805166D01*
X143054288Y-77535371D01*
X142578000Y-77440631D01*
X142101712Y-77535371D01*
X141697935Y-77805166D01*
X141428140Y-78208943D01*
X141333400Y-78685231D01*
X141333400Y-79044769D01*
X141428140Y-79521057D01*
X141697935Y-79924834D01*
X142049998Y-80160075D01*
X142051704Y-80168649D01*
X142049140Y-80192627D01*
X142071776Y-80269559D01*
X142087420Y-80348205D01*
X142100815Y-80368253D01*
X142107623Y-80391388D01*
X142234706Y-80634000D01*
X141282600Y-80634000D01*
X141282600Y-79044769D01*
X141282600Y-78685231D01*
X141187860Y-78208943D01*
X141152600Y-78156172D01*
X141152600Y-75794769D01*
X141152600Y-75435231D01*
X141057860Y-74958943D01*
X140788065Y-74555166D01*
X140384288Y-74285371D01*
X139908000Y-74190631D01*
X139431712Y-74285371D01*
X139027935Y-74555166D01*
X138758140Y-74958943D01*
X138663400Y-75435231D01*
X138663400Y-75794769D01*
X138758140Y-76271057D01*
X139027935Y-76674834D01*
X139431712Y-76944629D01*
X139908000Y-77039369D01*
X140384288Y-76944629D01*
X140788065Y-76674834D01*
X141057860Y-76271057D01*
X141152600Y-75794769D01*
X141152600Y-78156172D01*
X140918065Y-77805166D01*
X140514288Y-77535371D01*
X140038000Y-77440631D01*
X139561712Y-77535371D01*
X139157935Y-77805166D01*
X138888140Y-78208943D01*
X138793400Y-78685231D01*
X138793400Y-79044769D01*
X138888140Y-79521057D01*
X139157935Y-79924834D01*
X139561712Y-80194629D01*
X140038000Y-80289369D01*
X140514288Y-80194629D01*
X140918065Y-79924834D01*
X141187860Y-79521057D01*
X141282600Y-79044769D01*
X141282600Y-80634000D01*
X138742600Y-80634000D01*
X138742600Y-79956786D01*
X138742600Y-79087250D01*
X138742600Y-78642750D01*
X138742600Y-77773214D01*
X138684596Y-77633180D01*
X138602527Y-77551111D01*
X138602527Y-75937213D01*
X138602527Y-75292787D01*
X138443570Y-74833280D01*
X138120867Y-74469581D01*
X137687118Y-74259607D01*
X137495000Y-74320288D01*
X137495000Y-75488000D01*
X138518643Y-75488000D01*
X138602527Y-75292787D01*
X138602527Y-75937213D01*
X138518643Y-75742000D01*
X137495000Y-75742000D01*
X137495000Y-76909712D01*
X137687118Y-76970393D01*
X138120867Y-76760419D01*
X138443570Y-76396720D01*
X138602527Y-75937213D01*
X138602527Y-77551111D01*
X138577419Y-77526004D01*
X138437385Y-77468000D01*
X138285814Y-77468000D01*
X137720250Y-77468000D01*
X137625000Y-77563250D01*
X137625000Y-78738000D01*
X138647350Y-78738000D01*
X138742600Y-78642750D01*
X138742600Y-79087250D01*
X138647350Y-78992000D01*
X137625000Y-78992000D01*
X137625000Y-80166750D01*
X137720250Y-80262000D01*
X138285814Y-80262000D01*
X138437385Y-80262000D01*
X138577419Y-80203996D01*
X138684596Y-80096820D01*
X138742600Y-79956786D01*
X138742600Y-80634000D01*
X137448005Y-80634000D01*
X137448000Y-80633999D01*
X137371000Y-80649315D01*
X137371000Y-80166750D01*
X137371000Y-78992000D01*
X137371000Y-78738000D01*
X137371000Y-77563250D01*
X137275750Y-77468000D01*
X137241000Y-77468000D01*
X137241000Y-76909712D01*
X137241000Y-75742000D01*
X137241000Y-75488000D01*
X137241000Y-74320288D01*
X137048882Y-74259607D01*
X136615133Y-74469581D01*
X136292430Y-74833280D01*
X136133473Y-75292787D01*
X136217357Y-75488000D01*
X137241000Y-75488000D01*
X137241000Y-75742000D01*
X136217357Y-75742000D01*
X136133473Y-75937213D01*
X136292430Y-76396720D01*
X136615133Y-76760419D01*
X137048882Y-76970393D01*
X137241000Y-76909712D01*
X137241000Y-77468000D01*
X136710186Y-77468000D01*
X136558615Y-77468000D01*
X136418581Y-77526004D01*
X136311404Y-77633180D01*
X136253400Y-77773214D01*
X136253400Y-78642750D01*
X136348650Y-78738000D01*
X137371000Y-78738000D01*
X137371000Y-78992000D01*
X136348650Y-78992000D01*
X136253400Y-79087250D01*
X136253400Y-79956786D01*
X136311404Y-80096820D01*
X136418581Y-80203996D01*
X136558615Y-80262000D01*
X136710186Y-80262000D01*
X137275750Y-80262000D01*
X137371000Y-80166750D01*
X137371000Y-80649315D01*
X137244795Y-80674420D01*
X137072526Y-80789526D01*
X136072600Y-81789452D01*
X136072600Y-75794769D01*
X136072600Y-75435231D01*
X135977860Y-74958943D01*
X135708065Y-74555166D01*
X135304288Y-74285371D01*
X134828000Y-74190631D01*
X134351712Y-74285371D01*
X133947935Y-74555166D01*
X133678140Y-74958943D01*
X133583400Y-75435231D01*
X133583400Y-75794769D01*
X133678140Y-76271057D01*
X133947935Y-76674834D01*
X134351712Y-76944629D01*
X134828000Y-77039369D01*
X135304288Y-76944629D01*
X135708065Y-76674834D01*
X135977860Y-76271057D01*
X136072600Y-75794769D01*
X136072600Y-81789452D01*
X135496600Y-82365452D01*
X135496600Y-80808385D01*
X135496600Y-80656814D01*
X135496600Y-78421614D01*
X135438596Y-78281580D01*
X135331419Y-78174404D01*
X135191385Y-78116400D01*
X135039814Y-78116400D01*
X133532600Y-78116400D01*
X133532600Y-75794769D01*
X133532600Y-75435231D01*
X133437860Y-74958943D01*
X133168065Y-74555166D01*
X132764288Y-74285371D01*
X132288000Y-74190631D01*
X131811712Y-74285371D01*
X131407935Y-74555166D01*
X131138140Y-74958943D01*
X131043400Y-75435231D01*
X131043400Y-75794769D01*
X131138140Y-76271057D01*
X131407935Y-76674834D01*
X131811712Y-76944629D01*
X132288000Y-77039369D01*
X132764288Y-76944629D01*
X133168065Y-76674834D01*
X133437860Y-76271057D01*
X133532600Y-75794769D01*
X133532600Y-78116400D01*
X132804614Y-78116400D01*
X132664580Y-78174404D01*
X132557404Y-78281581D01*
X132499400Y-78421615D01*
X132499400Y-78573186D01*
X132499400Y-80808386D01*
X132557404Y-80948420D01*
X132664581Y-81055596D01*
X132804615Y-81113600D01*
X132956186Y-81113600D01*
X135191386Y-81113600D01*
X135331420Y-81055596D01*
X135438596Y-80948419D01*
X135496600Y-80808385D01*
X135496600Y-82365452D01*
X133622526Y-84239526D01*
X133507420Y-84411795D01*
X133467000Y-84615000D01*
X133467000Y-85115000D01*
X133467000Y-94325052D01*
X133246600Y-94545451D01*
X133246600Y-84558385D01*
X133246600Y-84406814D01*
X133246600Y-82171614D01*
X133188596Y-82031580D01*
X133081419Y-81924404D01*
X132941385Y-81866400D01*
X132789814Y-81866400D01*
X130992600Y-81866400D01*
X130992600Y-76706785D01*
X130992600Y-76555214D01*
X130992600Y-74523214D01*
X130934596Y-74383180D01*
X130827419Y-74276004D01*
X130687385Y-74218000D01*
X130535814Y-74218000D01*
X128808614Y-74218000D01*
X128668580Y-74276004D01*
X128561404Y-74383181D01*
X128503400Y-74523215D01*
X128503400Y-74674786D01*
X128503400Y-76706786D01*
X128561404Y-76846820D01*
X128668581Y-76953996D01*
X128808615Y-77012000D01*
X128960186Y-77012000D01*
X130687386Y-77012000D01*
X130827420Y-76953996D01*
X130934596Y-76846819D01*
X130992600Y-76706785D01*
X130992600Y-81866400D01*
X130554614Y-81866400D01*
X130414580Y-81924404D01*
X130307404Y-82031581D01*
X130249400Y-82171615D01*
X130249400Y-82323186D01*
X130249400Y-84558386D01*
X130307404Y-84698420D01*
X130414581Y-84805596D01*
X130554615Y-84863600D01*
X130706186Y-84863600D01*
X132941386Y-84863600D01*
X133081420Y-84805596D01*
X133188596Y-84698419D01*
X133246600Y-84558385D01*
X133246600Y-94545451D01*
X132879045Y-94913006D01*
X132879118Y-94830135D01*
X132775661Y-94579748D01*
X132584259Y-94388013D01*
X132334054Y-94284118D01*
X132063135Y-94283882D01*
X131812748Y-94387339D01*
X131766005Y-94434000D01*
X129496600Y-94434000D01*
X129496600Y-84558385D01*
X129496600Y-84406814D01*
X129496600Y-82171614D01*
X129438596Y-82031580D01*
X129331419Y-81924404D01*
X129191385Y-81866400D01*
X129039814Y-81866400D01*
X126804614Y-81866400D01*
X126664580Y-81924404D01*
X126557404Y-82031581D01*
X126499400Y-82171615D01*
X126499400Y-82323186D01*
X126499400Y-84558386D01*
X126557404Y-84698420D01*
X126664581Y-84805596D01*
X126804615Y-84863600D01*
X126956186Y-84863600D01*
X129191386Y-84863600D01*
X129331420Y-84805596D01*
X129438596Y-84698419D01*
X129496600Y-84558385D01*
X129496600Y-94434000D01*
X128798005Y-94434000D01*
X128798000Y-94433999D01*
X128594795Y-94474420D01*
X128580481Y-94483984D01*
X128463135Y-94483882D01*
X128212748Y-94587339D01*
X128021013Y-94778741D01*
X127917118Y-95028946D01*
X127916882Y-95299865D01*
X128020339Y-95550252D01*
X128211741Y-95741987D01*
X128461946Y-95845882D01*
X128732865Y-95846118D01*
X128983252Y-95742661D01*
X129174987Y-95551259D01*
X129197932Y-95496000D01*
X131765833Y-95496000D01*
X131811741Y-95541987D01*
X132061946Y-95645882D01*
X132146096Y-95645955D01*
X128922526Y-98869526D01*
X128807420Y-99041795D01*
X128767000Y-99245000D01*
X128767000Y-102945000D01*
X128767000Y-107695000D01*
X128767000Y-112165000D01*
X128807420Y-112368205D01*
X128922526Y-112540474D01*
X130022526Y-113640474D01*
X130172526Y-113790474D01*
X130340920Y-113958868D01*
X130321013Y-113978741D01*
X130217118Y-114228946D01*
X130216882Y-114499865D01*
X130320339Y-114750252D01*
X130511741Y-114941987D01*
X130761946Y-115045882D01*
X131032865Y-115046118D01*
X131283252Y-114942661D01*
X131304000Y-114921948D01*
X132422523Y-116040470D01*
X132422526Y-116040474D01*
X132422527Y-116040474D01*
X138272523Y-121890470D01*
X138272526Y-121890474D01*
X138444795Y-122005580D01*
X138648000Y-122046000D01*
X164948000Y-122046000D01*
X164985208Y-122038598D01*
X165023095Y-122040664D01*
X165085907Y-122018568D01*
X165151205Y-122005580D01*
X165182750Y-121984501D01*
X165218541Y-121971912D01*
X165268111Y-121927465D01*
X165323474Y-121890474D01*
X165344553Y-121858926D01*
X165372800Y-121833600D01*
X166459015Y-120385313D01*
X166683252Y-120292661D01*
X166874987Y-120101259D01*
X166978882Y-119851054D01*
X166979118Y-119580135D01*
X166875661Y-119329748D01*
X166684259Y-119138013D01*
X166434054Y-119034118D01*
X166163135Y-119033882D01*
X165912748Y-119137339D01*
X165721013Y-119328741D01*
X165617118Y-119578946D01*
X165616979Y-119738027D01*
X164682500Y-120984000D01*
X161479947Y-120984000D01*
X163767947Y-118696000D01*
X167428052Y-118696000D01*
X168117000Y-119384947D01*
X168117000Y-119682833D01*
X168071013Y-119728741D01*
X167967118Y-119978946D01*
X167966882Y-120249865D01*
X168070339Y-120500252D01*
X168261741Y-120691987D01*
X168511946Y-120795882D01*
X168782865Y-120796118D01*
X169033252Y-120692661D01*
X169224987Y-120501259D01*
X169328882Y-120251054D01*
X169329118Y-119980135D01*
X169225661Y-119729748D01*
X169179000Y-119683005D01*
X169179000Y-119165005D01*
X169179000Y-119165000D01*
X169179001Y-119165000D01*
X169138580Y-118961795D01*
X169023474Y-118789527D01*
X169023474Y-118789526D01*
X169023470Y-118789523D01*
X168129947Y-117896000D01*
X170528052Y-117896000D01*
X171066938Y-118434885D01*
X171066882Y-118499865D01*
X171170339Y-118750252D01*
X171361741Y-118941987D01*
X171611946Y-119045882D01*
X171882865Y-119046118D01*
X172133252Y-118942661D01*
X172324987Y-118751259D01*
X172428882Y-118501054D01*
X172429118Y-118230135D01*
X172325661Y-117979748D01*
X172134259Y-117788013D01*
X171884054Y-117684118D01*
X171818007Y-117684060D01*
X171123474Y-116989526D01*
X170951205Y-116874420D01*
X170748000Y-116834000D01*
X164691928Y-116834000D01*
X164874987Y-116651259D01*
X164978882Y-116401054D01*
X164979118Y-116130135D01*
X164963361Y-116092000D01*
X176572303Y-116092000D01*
X176649716Y-123601100D01*
X176649716Y-123601100D01*
G37*
X176649716Y-123601100D02*
X176616711Y-123650496D01*
X176582000Y-123825000D01*
X176582000Y-125538000D01*
X176379118Y-125538000D01*
X176379118Y-116830135D01*
X176275661Y-116579748D01*
X176084259Y-116388013D01*
X175834054Y-116284118D01*
X175563135Y-116283882D01*
X175312748Y-116387339D01*
X175121013Y-116578741D01*
X175017118Y-116828946D01*
X175016882Y-117099865D01*
X175120339Y-117350252D01*
X175311741Y-117541987D01*
X175561946Y-117645882D01*
X175832865Y-117646118D01*
X176083252Y-117542661D01*
X176274987Y-117351259D01*
X176378882Y-117101054D01*
X176379118Y-116830135D01*
X176379118Y-125538000D01*
X175692600Y-125538000D01*
X175692600Y-124044769D01*
X175692600Y-123685231D01*
X175597860Y-123208943D01*
X175328065Y-122805166D01*
X175179118Y-122705642D01*
X175179118Y-118230135D01*
X175075661Y-117979748D01*
X174884259Y-117788013D01*
X174634054Y-117684118D01*
X174363135Y-117683882D01*
X174112748Y-117787339D01*
X173921013Y-117978741D01*
X173817118Y-118228946D01*
X173816882Y-118499865D01*
X173920339Y-118750252D01*
X174111741Y-118941987D01*
X174361946Y-119045882D01*
X174632865Y-119046118D01*
X174883252Y-118942661D01*
X175074987Y-118751259D01*
X175178882Y-118501054D01*
X175179118Y-118230135D01*
X175179118Y-122705642D01*
X174924288Y-122535371D01*
X174448000Y-122440631D01*
X173971712Y-122535371D01*
X173567935Y-122805166D01*
X173298140Y-123208943D01*
X173203400Y-123685231D01*
X173203400Y-124044769D01*
X173298140Y-124521057D01*
X173567935Y-124924834D01*
X173971712Y-125194629D01*
X174448000Y-125289369D01*
X174924288Y-125194629D01*
X175328065Y-124924834D01*
X175597860Y-124521057D01*
X175692600Y-124044769D01*
X175692600Y-125538000D01*
X173152600Y-125538000D01*
X173152600Y-124044769D01*
X173152600Y-123685231D01*
X173057860Y-123208943D01*
X172788065Y-122805166D01*
X172384288Y-122535371D01*
X171908000Y-122440631D01*
X171431712Y-122535371D01*
X171027935Y-122805166D01*
X170758140Y-123208943D01*
X170663400Y-123685231D01*
X170663400Y-124044769D01*
X170758140Y-124521057D01*
X171027935Y-124924834D01*
X171431712Y-125194629D01*
X171908000Y-125289369D01*
X172384288Y-125194629D01*
X172788065Y-124924834D01*
X173057860Y-124521057D01*
X173152600Y-124044769D01*
X173152600Y-125538000D01*
X170612600Y-125538000D01*
X170612600Y-124044769D01*
X170612600Y-123685231D01*
X170517860Y-123208943D01*
X170248065Y-122805166D01*
X169844288Y-122535371D01*
X169368000Y-122440631D01*
X168891712Y-122535371D01*
X168487935Y-122805166D01*
X168218140Y-123208943D01*
X168123400Y-123685231D01*
X168123400Y-124044769D01*
X168218140Y-124521057D01*
X168487935Y-124924834D01*
X168891712Y-125194629D01*
X169368000Y-125289369D01*
X169844288Y-125194629D01*
X170248065Y-124924834D01*
X170517860Y-124521057D01*
X170612600Y-124044769D01*
X170612600Y-125538000D01*
X168072600Y-125538000D01*
X168072600Y-124044769D01*
X168072600Y-123685231D01*
X167977860Y-123208943D01*
X167708065Y-122805166D01*
X167304288Y-122535371D01*
X166828000Y-122440631D01*
X166351712Y-122535371D01*
X165947935Y-122805166D01*
X165678140Y-123208943D01*
X165583400Y-123685231D01*
X165583400Y-124044769D01*
X165678140Y-124521057D01*
X165947935Y-124924834D01*
X166351712Y-125194629D01*
X166828000Y-125289369D01*
X167304288Y-125194629D01*
X167708065Y-124924834D01*
X167977860Y-124521057D01*
X168072600Y-124044769D01*
X168072600Y-125538000D01*
X165532600Y-125538000D01*
X165532600Y-124044769D01*
X165532600Y-123685231D01*
X165437860Y-123208943D01*
X165168065Y-122805166D01*
X164764288Y-122535371D01*
X164288000Y-122440631D01*
X163811712Y-122535371D01*
X163407935Y-122805166D01*
X163138140Y-123208943D01*
X163043400Y-123685231D01*
X163043400Y-124044769D01*
X163138140Y-124521057D01*
X163407935Y-124924834D01*
X163811712Y-125194629D01*
X164288000Y-125289369D01*
X164764288Y-125194629D01*
X165168065Y-124924834D01*
X165437860Y-124521057D01*
X165532600Y-124044769D01*
X165532600Y-125538000D01*
X162992600Y-125538000D01*
X162992600Y-124956785D01*
X162992600Y-124805214D01*
X162992600Y-122773214D01*
X162934596Y-122633180D01*
X162827419Y-122526004D01*
X162687385Y-122468000D01*
X162535814Y-122468000D01*
X160808614Y-122468000D01*
X160668580Y-122526004D01*
X160561404Y-122633181D01*
X160503400Y-122773215D01*
X160503400Y-122924786D01*
X160503400Y-124956786D01*
X160561404Y-125096820D01*
X160668581Y-125203996D01*
X160808615Y-125262000D01*
X160960186Y-125262000D01*
X162687386Y-125262000D01*
X162827420Y-125203996D01*
X162934596Y-125096819D01*
X162992600Y-124956785D01*
X162992600Y-125538000D01*
X158022600Y-125538000D01*
X158022600Y-124044769D01*
X158022600Y-123685231D01*
X157927860Y-123208943D01*
X157658065Y-122805166D01*
X157254288Y-122535371D01*
X156778000Y-122440631D01*
X156301712Y-122535371D01*
X155897935Y-122805166D01*
X155628140Y-123208943D01*
X155533400Y-123685231D01*
X155533400Y-124044769D01*
X155628140Y-124521057D01*
X155897935Y-124924834D01*
X156301712Y-125194629D01*
X156778000Y-125289369D01*
X157254288Y-125194629D01*
X157658065Y-124924834D01*
X157927860Y-124521057D01*
X158022600Y-124044769D01*
X158022600Y-125538000D01*
X155472527Y-125538000D01*
X155472527Y-124187213D01*
X155472527Y-123542787D01*
X155313570Y-123083280D01*
X154990867Y-122719581D01*
X154557118Y-122509607D01*
X154365000Y-122570288D01*
X154365000Y-123738000D01*
X155388643Y-123738000D01*
X155472527Y-123542787D01*
X155472527Y-124187213D01*
X155388643Y-123992000D01*
X154365000Y-123992000D01*
X154365000Y-125159712D01*
X154557118Y-125220393D01*
X154990867Y-125010419D01*
X155313570Y-124646720D01*
X155472527Y-124187213D01*
X155472527Y-125538000D01*
X154111000Y-125538000D01*
X154111000Y-125159712D01*
X154111000Y-123992000D01*
X154111000Y-123738000D01*
X154111000Y-122570288D01*
X153918882Y-122509607D01*
X153485133Y-122719581D01*
X153162430Y-123083280D01*
X153003473Y-123542787D01*
X153087357Y-123738000D01*
X154111000Y-123738000D01*
X154111000Y-123992000D01*
X153087357Y-123992000D01*
X153003473Y-124187213D01*
X153162430Y-124646720D01*
X153485133Y-125010419D01*
X153918882Y-125220393D01*
X154111000Y-125159712D01*
X154111000Y-125538000D01*
X152932527Y-125538000D01*
X152932527Y-124187213D01*
X152932527Y-123542787D01*
X152773570Y-123083280D01*
X152450867Y-122719581D01*
X152017118Y-122509607D01*
X151825000Y-122570288D01*
X151825000Y-123738000D01*
X152848643Y-123738000D01*
X152932527Y-123542787D01*
X152932527Y-124187213D01*
X152848643Y-123992000D01*
X151825000Y-123992000D01*
X151825000Y-125159712D01*
X152017118Y-125220393D01*
X152450867Y-125010419D01*
X152773570Y-124646720D01*
X152932527Y-124187213D01*
X152932527Y-125538000D01*
X151571000Y-125538000D01*
X151571000Y-125159712D01*
X151571000Y-123992000D01*
X151571000Y-123738000D01*
X151571000Y-122570288D01*
X151378882Y-122509607D01*
X150945133Y-122719581D01*
X150622430Y-123083280D01*
X150463473Y-123542787D01*
X150547357Y-123738000D01*
X151571000Y-123738000D01*
X151571000Y-123992000D01*
X150547357Y-123992000D01*
X150463473Y-124187213D01*
X150622430Y-124646720D01*
X150945133Y-125010419D01*
X151378882Y-125220393D01*
X151571000Y-125159712D01*
X151571000Y-125538000D01*
X150402600Y-125538000D01*
X150402600Y-124044769D01*
X150402600Y-123685231D01*
X150307860Y-123208943D01*
X150038065Y-122805166D01*
X149634288Y-122535371D01*
X149158000Y-122440631D01*
X148681712Y-122535371D01*
X148277935Y-122805166D01*
X148008140Y-123208943D01*
X147913400Y-123685231D01*
X147913400Y-124044769D01*
X148008140Y-124521057D01*
X148277935Y-124924834D01*
X148681712Y-125194629D01*
X149158000Y-125289369D01*
X149634288Y-125194629D01*
X150038065Y-124924834D01*
X150307860Y-124521057D01*
X150402600Y-124044769D01*
X150402600Y-125538000D01*
X147862600Y-125538000D01*
X147862600Y-124044769D01*
X147862600Y-123685231D01*
X147767860Y-123208943D01*
X147498065Y-122805166D01*
X147094288Y-122535371D01*
X146618000Y-122440631D01*
X146141712Y-122535371D01*
X145737935Y-122805166D01*
X145468140Y-123208943D01*
X145373400Y-123685231D01*
X145373400Y-124044769D01*
X145468140Y-124521057D01*
X145737935Y-124924834D01*
X146141712Y-125194629D01*
X146618000Y-125289369D01*
X147094288Y-125194629D01*
X147498065Y-124924834D01*
X147767860Y-124521057D01*
X147862600Y-124044769D01*
X147862600Y-125538000D01*
X145322600Y-125538000D01*
X145322600Y-124044769D01*
X145322600Y-123685231D01*
X145227860Y-123208943D01*
X144958065Y-122805166D01*
X144554288Y-122535371D01*
X144078000Y-122440631D01*
X143601712Y-122535371D01*
X143197935Y-122805166D01*
X142928140Y-123208943D01*
X142833400Y-123685231D01*
X142833400Y-124044769D01*
X142928140Y-124521057D01*
X143197935Y-124924834D01*
X143601712Y-125194629D01*
X144078000Y-125289369D01*
X144554288Y-125194629D01*
X144958065Y-124924834D01*
X145227860Y-124521057D01*
X145322600Y-124044769D01*
X145322600Y-125538000D01*
X142782600Y-125538000D01*
X142782600Y-124044769D01*
X142782600Y-123685231D01*
X142687860Y-123208943D01*
X142418065Y-122805166D01*
X142014288Y-122535371D01*
X141538000Y-122440631D01*
X141061712Y-122535371D01*
X140657935Y-122805166D01*
X140388140Y-123208943D01*
X140293400Y-123685231D01*
X140293400Y-124044769D01*
X140388140Y-124521057D01*
X140657935Y-124924834D01*
X141061712Y-125194629D01*
X141538000Y-125289369D01*
X142014288Y-125194629D01*
X142418065Y-124924834D01*
X142687860Y-124521057D01*
X142782600Y-124044769D01*
X142782600Y-125538000D01*
X140242600Y-125538000D01*
X140242600Y-124956785D01*
X140242600Y-124805214D01*
X140242600Y-122773214D01*
X140184596Y-122633180D01*
X140077419Y-122526004D01*
X139937385Y-122468000D01*
X139785814Y-122468000D01*
X138058614Y-122468000D01*
X137918580Y-122526004D01*
X137811404Y-122633181D01*
X137753400Y-122773215D01*
X137753400Y-122924786D01*
X137753400Y-124956786D01*
X137811404Y-125096820D01*
X137918581Y-125203996D01*
X138058615Y-125262000D01*
X138210186Y-125262000D01*
X139937386Y-125262000D01*
X140077420Y-125203996D01*
X140184596Y-125096819D01*
X140242600Y-124956785D01*
X140242600Y-125538000D01*
X130496600Y-125538000D01*
X130496600Y-117558385D01*
X130496600Y-117406814D01*
X130496600Y-115171614D01*
X130438596Y-115031580D01*
X130331419Y-114924404D01*
X130191385Y-114866400D01*
X130039814Y-114866400D01*
X127804614Y-114866400D01*
X127664580Y-114924404D01*
X127557404Y-115031581D01*
X127499400Y-115171615D01*
X127499400Y-115323186D01*
X127499400Y-117558386D01*
X127557404Y-117698420D01*
X127664581Y-117805596D01*
X127804615Y-117863600D01*
X127956186Y-117863600D01*
X130191386Y-117863600D01*
X130331420Y-117805596D01*
X130438596Y-117698419D01*
X130496600Y-117558385D01*
X130496600Y-125538000D01*
X125954000Y-125538000D01*
X125954000Y-73592000D01*
X175150625Y-73592000D01*
X176571000Y-74822992D01*
X176571000Y-82138000D01*
X175935000Y-82138000D01*
X175935000Y-79392369D01*
X175935000Y-79337631D01*
X175828660Y-78803022D01*
X175772600Y-78719122D01*
X175772600Y-75794769D01*
X175772600Y-75435231D01*
X175677860Y-74958943D01*
X175408065Y-74555166D01*
X175004288Y-74285371D01*
X174528000Y-74190631D01*
X174051712Y-74285371D01*
X173647935Y-74555166D01*
X173378140Y-74958943D01*
X173283400Y-75435231D01*
X173283400Y-75794769D01*
X173378140Y-76271057D01*
X173647935Y-76674834D01*
X174051712Y-76944629D01*
X174528000Y-77039369D01*
X175004288Y-76944629D01*
X175408065Y-76674834D01*
X175677860Y-76271057D01*
X175772600Y-75794769D01*
X175772600Y-78719122D01*
X175525828Y-78349803D01*
X175072609Y-78046971D01*
X174538000Y-77940631D01*
X174003391Y-78046971D01*
X173550172Y-78349803D01*
X173395000Y-78582033D01*
X173395000Y-78273214D01*
X173336996Y-78133180D01*
X173232600Y-78028784D01*
X173232600Y-75794769D01*
X173232600Y-75435231D01*
X173137860Y-74958943D01*
X172868065Y-74555166D01*
X172464288Y-74285371D01*
X171988000Y-74190631D01*
X171511712Y-74285371D01*
X171107935Y-74555166D01*
X170838140Y-74958943D01*
X170743400Y-75435231D01*
X170743400Y-75794769D01*
X170838140Y-76271057D01*
X171107935Y-76674834D01*
X171511712Y-76944629D01*
X171988000Y-77039369D01*
X172464288Y-76944629D01*
X172868065Y-76674834D01*
X173137860Y-76271057D01*
X173232600Y-75794769D01*
X173232600Y-78028784D01*
X173229819Y-78026004D01*
X173089785Y-77968000D01*
X172938214Y-77968000D01*
X170906214Y-77968000D01*
X170766180Y-78026004D01*
X170692600Y-78099584D01*
X170692600Y-75794769D01*
X170692600Y-75435231D01*
X170597860Y-74958943D01*
X170328065Y-74555166D01*
X169924288Y-74285371D01*
X169448000Y-74190631D01*
X168971712Y-74285371D01*
X168567935Y-74555166D01*
X168298140Y-74958943D01*
X168203400Y-75435231D01*
X168203400Y-75794769D01*
X168298140Y-76271057D01*
X168567935Y-76674834D01*
X168971712Y-76944629D01*
X169448000Y-77039369D01*
X169924288Y-76944629D01*
X170328065Y-76674834D01*
X170597860Y-76271057D01*
X170692600Y-75794769D01*
X170692600Y-78099584D01*
X170659004Y-78133181D01*
X170601000Y-78273215D01*
X170601000Y-78424786D01*
X170601000Y-80456786D01*
X170659004Y-80596820D01*
X170766181Y-80703996D01*
X170906215Y-80762000D01*
X171057786Y-80762000D01*
X173089786Y-80762000D01*
X173229820Y-80703996D01*
X173336996Y-80596819D01*
X173395000Y-80456785D01*
X173395000Y-80305214D01*
X173395000Y-80147966D01*
X173550172Y-80380197D01*
X174003391Y-80683029D01*
X174538000Y-80789369D01*
X175072609Y-80683029D01*
X175525828Y-80380197D01*
X175828660Y-79926978D01*
X175935000Y-79392369D01*
X175935000Y-82138000D01*
X169438008Y-82138000D01*
X169574987Y-82001259D01*
X169678882Y-81751054D01*
X169679118Y-81480135D01*
X169575661Y-81229748D01*
X169384259Y-81038013D01*
X169134054Y-80934118D01*
X168863135Y-80933882D01*
X168612748Y-81037339D01*
X168421013Y-81228741D01*
X168317118Y-81478946D01*
X168317070Y-81534000D01*
X168152600Y-81534000D01*
X168152600Y-75794769D01*
X168152600Y-75435231D01*
X168057860Y-74958943D01*
X167788065Y-74555166D01*
X167384288Y-74285371D01*
X166908000Y-74190631D01*
X166431712Y-74285371D01*
X166027935Y-74555166D01*
X165758140Y-74958943D01*
X165663400Y-75435231D01*
X165663400Y-75794769D01*
X165758140Y-76271057D01*
X166027935Y-76674834D01*
X166431712Y-76944629D01*
X166908000Y-77039369D01*
X167384288Y-76944629D01*
X167788065Y-76674834D01*
X168057860Y-76271057D01*
X168152600Y-75794769D01*
X168152600Y-81534000D01*
X167552742Y-81534000D01*
X167562177Y-81522877D01*
X167571549Y-81493692D01*
X167588580Y-81468205D01*
X167602972Y-81395850D01*
X167625529Y-81325614D01*
X167623019Y-81295064D01*
X167629000Y-81265000D01*
X167614607Y-81192644D01*
X167608569Y-81119123D01*
X167594560Y-81091859D01*
X167588580Y-81061795D01*
X167547591Y-81000451D01*
X167513879Y-80934841D01*
X167490505Y-80915015D01*
X167473474Y-80889526D01*
X167412132Y-80848539D01*
X167355876Y-80800822D01*
X167326691Y-80791449D01*
X167301205Y-80774420D01*
X167228850Y-80760027D01*
X167158613Y-80737471D01*
X167128064Y-80739980D01*
X167098000Y-80734000D01*
X167004182Y-80734000D01*
X166884054Y-80684118D01*
X166613135Y-80683882D01*
X166491839Y-80734000D01*
X165612600Y-80734000D01*
X165612600Y-75794769D01*
X165612600Y-75435231D01*
X165517860Y-74958943D01*
X165248065Y-74555166D01*
X164844288Y-74285371D01*
X164368000Y-74190631D01*
X163891712Y-74285371D01*
X163487935Y-74555166D01*
X163218140Y-74958943D01*
X163123400Y-75435231D01*
X163123400Y-75794769D01*
X163218140Y-76271057D01*
X163487935Y-76674834D01*
X163891712Y-76944629D01*
X164368000Y-77039369D01*
X164844288Y-76944629D01*
X165248065Y-76674834D01*
X165517860Y-76271057D01*
X165612600Y-75794769D01*
X165612600Y-80734000D01*
X164423677Y-80734000D01*
X164478882Y-80601054D01*
X164479118Y-80330135D01*
X164375661Y-80079748D01*
X164184259Y-79888013D01*
X163934054Y-79784118D01*
X163663135Y-79783882D01*
X163412748Y-79887339D01*
X163361617Y-79938380D01*
X163072600Y-79941299D01*
X163072600Y-75794769D01*
X163072600Y-75435231D01*
X162977860Y-74958943D01*
X162708065Y-74555166D01*
X162304288Y-74285371D01*
X161828000Y-74190631D01*
X161351712Y-74285371D01*
X160947935Y-74555166D01*
X160678140Y-74958943D01*
X160583400Y-75435231D01*
X160583400Y-75794769D01*
X160678140Y-76271057D01*
X160947935Y-76674834D01*
X161351712Y-76944629D01*
X161828000Y-77039369D01*
X162304288Y-76944629D01*
X162708065Y-76674834D01*
X162977860Y-76271057D01*
X163072600Y-75794769D01*
X163072600Y-79941299D01*
X160232650Y-79969986D01*
X160528660Y-79526978D01*
X160635000Y-78992369D01*
X160635000Y-78937631D01*
X160532600Y-78422829D01*
X160532600Y-75794769D01*
X160532600Y-75435231D01*
X160437860Y-74958943D01*
X160168065Y-74555166D01*
X159764288Y-74285371D01*
X159288000Y-74190631D01*
X158811712Y-74285371D01*
X158407935Y-74555166D01*
X158138140Y-74958943D01*
X158043400Y-75435231D01*
X158043400Y-75794769D01*
X158138140Y-76271057D01*
X158407935Y-76674834D01*
X158811712Y-76944629D01*
X159288000Y-77039369D01*
X159764288Y-76944629D01*
X160168065Y-76674834D01*
X160437860Y-76271057D01*
X160532600Y-75794769D01*
X160532600Y-78422829D01*
X160528660Y-78403022D01*
X160225828Y-77949803D01*
X159772609Y-77646971D01*
X159238000Y-77540631D01*
X158703391Y-77646971D01*
X158250172Y-77949803D01*
X158095000Y-78182033D01*
X158095000Y-77873214D01*
X158036996Y-77733180D01*
X157992600Y-77688784D01*
X157992600Y-76706785D01*
X157992600Y-76555214D01*
X157992600Y-74523214D01*
X157934596Y-74383180D01*
X157827419Y-74276004D01*
X157687385Y-74218000D01*
X157535814Y-74218000D01*
X155808614Y-74218000D01*
X155668580Y-74276004D01*
X155561404Y-74383181D01*
X155503400Y-74523215D01*
X155503400Y-74674786D01*
X155503400Y-76706786D01*
X155561404Y-76846820D01*
X155668581Y-76953996D01*
X155808615Y-77012000D01*
X155960186Y-77012000D01*
X157687386Y-77012000D01*
X157827420Y-76953996D01*
X157934596Y-76846819D01*
X157992600Y-76706785D01*
X157992600Y-77688784D01*
X157929819Y-77626004D01*
X157789785Y-77568000D01*
X157638214Y-77568000D01*
X155606214Y-77568000D01*
X155466180Y-77626004D01*
X155359004Y-77733181D01*
X155301000Y-77873215D01*
X155301000Y-78024786D01*
X155301000Y-80019801D01*
X154498026Y-80027911D01*
X154674987Y-79851259D01*
X154778882Y-79601054D01*
X154779118Y-79330135D01*
X154675661Y-79079748D01*
X154484259Y-78888013D01*
X154234054Y-78784118D01*
X153963135Y-78783882D01*
X153852600Y-78829553D01*
X153852600Y-75794769D01*
X153852600Y-75435231D01*
X153757860Y-74958943D01*
X153488065Y-74555166D01*
X153084288Y-74285371D01*
X152608000Y-74190631D01*
X152131712Y-74285371D01*
X151727935Y-74555166D01*
X151458140Y-74958943D01*
X151363400Y-75435231D01*
X151363400Y-75794769D01*
X151458140Y-76271057D01*
X151727935Y-76674834D01*
X152131712Y-76944629D01*
X152608000Y-77039369D01*
X153084288Y-76944629D01*
X153488065Y-76674834D01*
X153757860Y-76271057D01*
X153852600Y-75794769D01*
X153852600Y-78829553D01*
X153712748Y-78887339D01*
X153666005Y-78934000D01*
X151312600Y-78934000D01*
X151312600Y-75794769D01*
X151312600Y-75435231D01*
X151217860Y-74958943D01*
X150948065Y-74555166D01*
X150544288Y-74285371D01*
X150068000Y-74190631D01*
X149591712Y-74285371D01*
X149187935Y-74555166D01*
X148918140Y-74958943D01*
X148823400Y-75435231D01*
X148823400Y-75794769D01*
X148918140Y-76271057D01*
X149187935Y-76674834D01*
X149591712Y-76944629D01*
X150068000Y-77039369D01*
X150544288Y-76944629D01*
X150948065Y-76674834D01*
X151217860Y-76271057D01*
X151312600Y-75794769D01*
X151312600Y-78934000D01*
X148772600Y-78934000D01*
X148772600Y-75794769D01*
X148772600Y-75435231D01*
X148677860Y-74958943D01*
X148408065Y-74555166D01*
X148004288Y-74285371D01*
X147528000Y-74190631D01*
X147051712Y-74285371D01*
X146647935Y-74555166D01*
X146378140Y-74958943D01*
X146283400Y-75435231D01*
X146283400Y-75794769D01*
X146378140Y-76271057D01*
X146647935Y-76674834D01*
X147051712Y-76944629D01*
X147528000Y-77039369D01*
X148004288Y-76944629D01*
X148408065Y-76674834D01*
X148677860Y-76271057D01*
X148772600Y-75794769D01*
X148772600Y-78934000D01*
X148492102Y-78934000D01*
X148574987Y-78851259D01*
X148678882Y-78601054D01*
X148679118Y-78330135D01*
X148575661Y-78079748D01*
X148384259Y-77888013D01*
X148134054Y-77784118D01*
X147863135Y-77783882D01*
X147612748Y-77887339D01*
X147421013Y-78078741D01*
X147317118Y-78328946D01*
X147317001Y-78462302D01*
X146044675Y-80034000D01*
X145834686Y-80034000D01*
X145998065Y-79924834D01*
X146267860Y-79521057D01*
X146362600Y-79044769D01*
X146362600Y-78685231D01*
X146267860Y-78208943D01*
X146232600Y-78156172D01*
X146232600Y-75794769D01*
X146232600Y-75435231D01*
X146137860Y-74958943D01*
X145868065Y-74555166D01*
X145464288Y-74285371D01*
X144988000Y-74190631D01*
X144511712Y-74285371D01*
X144107935Y-74555166D01*
X143838140Y-74958943D01*
X143743400Y-75435231D01*
X143743400Y-75794769D01*
X143838140Y-76271057D01*
X144107935Y-76674834D01*
X144511712Y-76944629D01*
X144988000Y-77039369D01*
X145464288Y-76944629D01*
X145868065Y-76674834D01*
X146137860Y-76271057D01*
X146232600Y-75794769D01*
X146232600Y-78156172D01*
X145998065Y-77805166D01*
X145594288Y-77535371D01*
X145118000Y-77440631D01*
X144641712Y-77535371D01*
X144237935Y-77805166D01*
X143968140Y-78208943D01*
X143873400Y-78685231D01*
X143873400Y-79044769D01*
X143968140Y-79521057D01*
X144237935Y-79924834D01*
X144401313Y-80034000D01*
X143294686Y-80034000D01*
X143458065Y-79924834D01*
X143727860Y-79521057D01*
X143822600Y-79044769D01*
X143822600Y-78685231D01*
X143727860Y-78208943D01*
X143692600Y-78156172D01*
X143692600Y-75794769D01*
X143692600Y-75435231D01*
X143597860Y-74958943D01*
X143328065Y-74555166D01*
X142924288Y-74285371D01*
X142448000Y-74190631D01*
X141971712Y-74285371D01*
X141567935Y-74555166D01*
X141298140Y-74958943D01*
X141203400Y-75435231D01*
X141203400Y-75794769D01*
X141298140Y-76271057D01*
X141567935Y-76674834D01*
X141971712Y-76944629D01*
X142448000Y-77039369D01*
X142924288Y-76944629D01*
X143328065Y-76674834D01*
X143597860Y-76271057D01*
X143692600Y-75794769D01*
X143692600Y-78156172D01*
X143458065Y-77805166D01*
X143054288Y-77535371D01*
X142578000Y-77440631D01*
X142101712Y-77535371D01*
X141697935Y-77805166D01*
X141428140Y-78208943D01*
X141333400Y-78685231D01*
X141333400Y-79044769D01*
X141428140Y-79521057D01*
X141697935Y-79924834D01*
X142049998Y-80160075D01*
X142051704Y-80168649D01*
X142049140Y-80192627D01*
X142071776Y-80269559D01*
X142087420Y-80348205D01*
X142100815Y-80368253D01*
X142107623Y-80391388D01*
X142234706Y-80634000D01*
X141282600Y-80634000D01*
X141282600Y-79044769D01*
X141282600Y-78685231D01*
X141187860Y-78208943D01*
X141152600Y-78156172D01*
X141152600Y-75794769D01*
X141152600Y-75435231D01*
X141057860Y-74958943D01*
X140788065Y-74555166D01*
X140384288Y-74285371D01*
X139908000Y-74190631D01*
X139431712Y-74285371D01*
X139027935Y-74555166D01*
X138758140Y-74958943D01*
X138663400Y-75435231D01*
X138663400Y-75794769D01*
X138758140Y-76271057D01*
X139027935Y-76674834D01*
X139431712Y-76944629D01*
X139908000Y-77039369D01*
X140384288Y-76944629D01*
X140788065Y-76674834D01*
X141057860Y-76271057D01*
X141152600Y-75794769D01*
X141152600Y-78156172D01*
X140918065Y-77805166D01*
X140514288Y-77535371D01*
X140038000Y-77440631D01*
X139561712Y-77535371D01*
X139157935Y-77805166D01*
X138888140Y-78208943D01*
X138793400Y-78685231D01*
X138793400Y-79044769D01*
X138888140Y-79521057D01*
X139157935Y-79924834D01*
X139561712Y-80194629D01*
X140038000Y-80289369D01*
X140514288Y-80194629D01*
X140918065Y-79924834D01*
X141187860Y-79521057D01*
X141282600Y-79044769D01*
X141282600Y-80634000D01*
X138742600Y-80634000D01*
X138742600Y-79956786D01*
X138742600Y-79087250D01*
X138742600Y-78642750D01*
X138742600Y-77773214D01*
X138684596Y-77633180D01*
X138602527Y-77551111D01*
X138602527Y-75937213D01*
X138602527Y-75292787D01*
X138443570Y-74833280D01*
X138120867Y-74469581D01*
X137687118Y-74259607D01*
X137495000Y-74320288D01*
X137495000Y-75488000D01*
X138518643Y-75488000D01*
X138602527Y-75292787D01*
X138602527Y-75937213D01*
X138518643Y-75742000D01*
X137495000Y-75742000D01*
X137495000Y-76909712D01*
X137687118Y-76970393D01*
X138120867Y-76760419D01*
X138443570Y-76396720D01*
X138602527Y-75937213D01*
X138602527Y-77551111D01*
X138577419Y-77526004D01*
X138437385Y-77468000D01*
X138285814Y-77468000D01*
X137720250Y-77468000D01*
X137625000Y-77563250D01*
X137625000Y-78738000D01*
X138647350Y-78738000D01*
X138742600Y-78642750D01*
X138742600Y-79087250D01*
X138647350Y-78992000D01*
X137625000Y-78992000D01*
X137625000Y-80166750D01*
X137720250Y-80262000D01*
X138285814Y-80262000D01*
X138437385Y-80262000D01*
X138577419Y-80203996D01*
X138684596Y-80096820D01*
X138742600Y-79956786D01*
X138742600Y-80634000D01*
X137448005Y-80634000D01*
X137448000Y-80633999D01*
X137371000Y-80649315D01*
X137371000Y-80166750D01*
X137371000Y-78992000D01*
X137371000Y-78738000D01*
X137371000Y-77563250D01*
X137275750Y-77468000D01*
X137241000Y-77468000D01*
X137241000Y-76909712D01*
X137241000Y-75742000D01*
X137241000Y-75488000D01*
X137241000Y-74320288D01*
X137048882Y-74259607D01*
X136615133Y-74469581D01*
X136292430Y-74833280D01*
X136133473Y-75292787D01*
X136217357Y-75488000D01*
X137241000Y-75488000D01*
X137241000Y-75742000D01*
X136217357Y-75742000D01*
X136133473Y-75937213D01*
X136292430Y-76396720D01*
X136615133Y-76760419D01*
X137048882Y-76970393D01*
X137241000Y-76909712D01*
X137241000Y-77468000D01*
X136710186Y-77468000D01*
X136558615Y-77468000D01*
X136418581Y-77526004D01*
X136311404Y-77633180D01*
X136253400Y-77773214D01*
X136253400Y-78642750D01*
X136348650Y-78738000D01*
X137371000Y-78738000D01*
X137371000Y-78992000D01*
X136348650Y-78992000D01*
X136253400Y-79087250D01*
X136253400Y-79956786D01*
X136311404Y-80096820D01*
X136418581Y-80203996D01*
X136558615Y-80262000D01*
X136710186Y-80262000D01*
X137275750Y-80262000D01*
X137371000Y-80166750D01*
X137371000Y-80649315D01*
X137244795Y-80674420D01*
X137072526Y-80789526D01*
X136072600Y-81789452D01*
X136072600Y-75794769D01*
X136072600Y-75435231D01*
X135977860Y-74958943D01*
X135708065Y-74555166D01*
X135304288Y-74285371D01*
X134828000Y-74190631D01*
X134351712Y-74285371D01*
X133947935Y-74555166D01*
X133678140Y-74958943D01*
X133583400Y-75435231D01*
X133583400Y-75794769D01*
X133678140Y-76271057D01*
X133947935Y-76674834D01*
X134351712Y-76944629D01*
X134828000Y-77039369D01*
X135304288Y-76944629D01*
X135708065Y-76674834D01*
X135977860Y-76271057D01*
X136072600Y-75794769D01*
X136072600Y-81789452D01*
X135496600Y-82365452D01*
X135496600Y-80808385D01*
X135496600Y-80656814D01*
X135496600Y-78421614D01*
X135438596Y-78281580D01*
X135331419Y-78174404D01*
X135191385Y-78116400D01*
X135039814Y-78116400D01*
X133532600Y-78116400D01*
X133532600Y-75794769D01*
X133532600Y-75435231D01*
X133437860Y-74958943D01*
X133168065Y-74555166D01*
X132764288Y-74285371D01*
X132288000Y-74190631D01*
X131811712Y-74285371D01*
X131407935Y-74555166D01*
X131138140Y-74958943D01*
X131043400Y-75435231D01*
X131043400Y-75794769D01*
X131138140Y-76271057D01*
X131407935Y-76674834D01*
X131811712Y-76944629D01*
X132288000Y-77039369D01*
X132764288Y-76944629D01*
X133168065Y-76674834D01*
X133437860Y-76271057D01*
X133532600Y-75794769D01*
X133532600Y-78116400D01*
X132804614Y-78116400D01*
X132664580Y-78174404D01*
X132557404Y-78281581D01*
X132499400Y-78421615D01*
X132499400Y-78573186D01*
X132499400Y-80808386D01*
X132557404Y-80948420D01*
X132664581Y-81055596D01*
X132804615Y-81113600D01*
X132956186Y-81113600D01*
X135191386Y-81113600D01*
X135331420Y-81055596D01*
X135438596Y-80948419D01*
X135496600Y-80808385D01*
X135496600Y-82365452D01*
X133622526Y-84239526D01*
X133507420Y-84411795D01*
X133467000Y-84615000D01*
X133467000Y-85115000D01*
X133467000Y-94325052D01*
X133246600Y-94545451D01*
X133246600Y-84558385D01*
X133246600Y-84406814D01*
X133246600Y-82171614D01*
X133188596Y-82031580D01*
X133081419Y-81924404D01*
X132941385Y-81866400D01*
X132789814Y-81866400D01*
X130992600Y-81866400D01*
X130992600Y-76706785D01*
X130992600Y-76555214D01*
X130992600Y-74523214D01*
X130934596Y-74383180D01*
X130827419Y-74276004D01*
X130687385Y-74218000D01*
X130535814Y-74218000D01*
X128808614Y-74218000D01*
X128668580Y-74276004D01*
X128561404Y-74383181D01*
X128503400Y-74523215D01*
X128503400Y-74674786D01*
X128503400Y-76706786D01*
X128561404Y-76846820D01*
X128668581Y-76953996D01*
X128808615Y-77012000D01*
X128960186Y-77012000D01*
X130687386Y-77012000D01*
X130827420Y-76953996D01*
X130934596Y-76846819D01*
X130992600Y-76706785D01*
X130992600Y-81866400D01*
X130554614Y-81866400D01*
X130414580Y-81924404D01*
X130307404Y-82031581D01*
X130249400Y-82171615D01*
X130249400Y-82323186D01*
X130249400Y-84558386D01*
X130307404Y-84698420D01*
X130414581Y-84805596D01*
X130554615Y-84863600D01*
X130706186Y-84863600D01*
X132941386Y-84863600D01*
X133081420Y-84805596D01*
X133188596Y-84698419D01*
X133246600Y-84558385D01*
X133246600Y-94545451D01*
X132879045Y-94913006D01*
X132879118Y-94830135D01*
X132775661Y-94579748D01*
X132584259Y-94388013D01*
X132334054Y-94284118D01*
X132063135Y-94283882D01*
X131812748Y-94387339D01*
X131766005Y-94434000D01*
X129496600Y-94434000D01*
X129496600Y-84558385D01*
X129496600Y-84406814D01*
X129496600Y-82171614D01*
X129438596Y-82031580D01*
X129331419Y-81924404D01*
X129191385Y-81866400D01*
X129039814Y-81866400D01*
X126804614Y-81866400D01*
X126664580Y-81924404D01*
X126557404Y-82031581D01*
X126499400Y-82171615D01*
X126499400Y-82323186D01*
X126499400Y-84558386D01*
X126557404Y-84698420D01*
X126664581Y-84805596D01*
X126804615Y-84863600D01*
X126956186Y-84863600D01*
X129191386Y-84863600D01*
X129331420Y-84805596D01*
X129438596Y-84698419D01*
X129496600Y-84558385D01*
X129496600Y-94434000D01*
X128798005Y-94434000D01*
X128798000Y-94433999D01*
X128594795Y-94474420D01*
X128580481Y-94483984D01*
X128463135Y-94483882D01*
X128212748Y-94587339D01*
X128021013Y-94778741D01*
X127917118Y-95028946D01*
X127916882Y-95299865D01*
X128020339Y-95550252D01*
X128211741Y-95741987D01*
X128461946Y-95845882D01*
X128732865Y-95846118D01*
X128983252Y-95742661D01*
X129174987Y-95551259D01*
X129197932Y-95496000D01*
X131765833Y-95496000D01*
X131811741Y-95541987D01*
X132061946Y-95645882D01*
X132146096Y-95645955D01*
X128922526Y-98869526D01*
X128807420Y-99041795D01*
X128767000Y-99245000D01*
X128767000Y-102945000D01*
X128767000Y-107695000D01*
X128767000Y-112165000D01*
X128807420Y-112368205D01*
X128922526Y-112540474D01*
X130022526Y-113640474D01*
X130172526Y-113790474D01*
X130340920Y-113958868D01*
X130321013Y-113978741D01*
X130217118Y-114228946D01*
X130216882Y-114499865D01*
X130320339Y-114750252D01*
X130511741Y-114941987D01*
X130761946Y-115045882D01*
X131032865Y-115046118D01*
X131283252Y-114942661D01*
X131304000Y-114921948D01*
X132422523Y-116040470D01*
X132422526Y-116040474D01*
X132422527Y-116040474D01*
X138272523Y-121890470D01*
X138272526Y-121890474D01*
X138444795Y-122005580D01*
X138648000Y-122046000D01*
X164948000Y-122046000D01*
X164985208Y-122038598D01*
X165023095Y-122040664D01*
X165085907Y-122018568D01*
X165151205Y-122005580D01*
X165182750Y-121984501D01*
X165218541Y-121971912D01*
X165268111Y-121927465D01*
X165323474Y-121890474D01*
X165344553Y-121858926D01*
X165372800Y-121833600D01*
X166459015Y-120385313D01*
X166683252Y-120292661D01*
X166874987Y-120101259D01*
X166978882Y-119851054D01*
X166979118Y-119580135D01*
X166875661Y-119329748D01*
X166684259Y-119138013D01*
X166434054Y-119034118D01*
X166163135Y-119033882D01*
X165912748Y-119137339D01*
X165721013Y-119328741D01*
X165617118Y-119578946D01*
X165616979Y-119738027D01*
X164682500Y-120984000D01*
X161479947Y-120984000D01*
X163767947Y-118696000D01*
X167428052Y-118696000D01*
X168117000Y-119384947D01*
X168117000Y-119682833D01*
X168071013Y-119728741D01*
X167967118Y-119978946D01*
X167966882Y-120249865D01*
X168070339Y-120500252D01*
X168261741Y-120691987D01*
X168511946Y-120795882D01*
X168782865Y-120796118D01*
X169033252Y-120692661D01*
X169224987Y-120501259D01*
X169328882Y-120251054D01*
X169329118Y-119980135D01*
X169225661Y-119729748D01*
X169179000Y-119683005D01*
X169179000Y-119165005D01*
X169179000Y-119165000D01*
X169179001Y-119165000D01*
X169138580Y-118961795D01*
X169023474Y-118789527D01*
X169023474Y-118789526D01*
X169023470Y-118789523D01*
X168129947Y-117896000D01*
X170528052Y-117896000D01*
X171066938Y-118434885D01*
X171066882Y-118499865D01*
X171170339Y-118750252D01*
X171361741Y-118941987D01*
X171611946Y-119045882D01*
X171882865Y-119046118D01*
X172133252Y-118942661D01*
X172324987Y-118751259D01*
X172428882Y-118501054D01*
X172429118Y-118230135D01*
X172325661Y-117979748D01*
X172134259Y-117788013D01*
X171884054Y-117684118D01*
X171818007Y-117684060D01*
X171123474Y-116989526D01*
X170951205Y-116874420D01*
X170748000Y-116834000D01*
X164691928Y-116834000D01*
X164874987Y-116651259D01*
X164978882Y-116401054D01*
X164979118Y-116130135D01*
X164963361Y-116092000D01*
X176572303Y-116092000D01*
X176649716Y-123601100D01*
M02*
