M48
;DRILL file {kicad (2014-11-17 BZR 5289)-product} date Wed 21 Oct 2015 02:01:36 PM EDT
;FORMAT={-:-/ absolute / inch / decimal}
FMAT,2
INCH,TZ
T1C0.016
T2C0.039
T3C0.040
T4C0.079
%
G90
G05
M72
T1
X5.0629Y-3.7467
X5.1535Y-4.5026
X5.1574Y-4.29
X5.1692Y-4.2112
X5.2046Y-3.7388
X5.2283Y-3.5577
X5.2401Y-4.1207
X5.2991Y-3.9593
X5.3543Y-3.975
X5.3857Y-3.9514
X5.4684Y-4.2152
X5.555Y-4.1679
X5.5826Y-4.3687
X5.5865Y-4.4159
X5.5983Y-4.2152
X5.6298Y-4.2073
X5.6338Y-4.412
X5.6613Y-4.1994
X5.6771Y-4.2467
X5.6928Y-4.1797
X5.7322Y-4.2073
X5.7972Y-3.6364
X5.8267Y-3.0892
X5.8464Y-4.0026
X5.8503Y-3.7545
X5.8661Y-3.7191
X5.8818Y-3.4435
X5.8857Y-3.16
X5.8976Y-3.601
X5.9291Y-4.3175
X5.9487Y-3.6049
X5.996Y-3.5026
X6.0117Y-3.3648
X6.0432Y-4.0419
X6.0669Y-3.1285
X6.0885Y-3.4258
X6.0905Y-3.8923
X6.1535Y-3.912
X6.1771Y-3.7467
X6.2224Y-3.851
X6.244Y-3.3923
X6.2834Y-4.0813
X6.2991Y-4.7289
X6.3739Y-3.9435
X6.3877Y-3.6463
X6.4074Y-4.4809
X6.4133Y-4.4317
X6.4172Y-4.6207
X6.4487Y-3.1679
X6.4684Y-4.5774
X6.4763Y-3.7624
X6.4763Y-4.286
X6.5472Y-4.7132
X6.555Y-3.9159
X6.5649Y-3.2033
X6.5649Y-3.5793
X6.6397Y-4.7289
X6.6535Y-3.2132
X6.6613Y-3.3963
X6.6653Y-3.9317
X6.6653Y-4.0026
X6.7617Y-4.66
X6.87Y-4.66
X6.9172Y-4.6049
T2
X6.8905Y-4.3801
T3
X5.0393Y-3.2821
X5.0787Y-4.5813
X5.1082Y-2.977
X5.1869Y-3.2821
X5.2082Y-2.977
X5.2755Y-3.1344
X5.3082Y-2.977
X5.4082Y-2.977
X5.4133Y-3.1049
X5.4724Y-4.8766
X5.5082Y-2.977
X5.5133Y-3.1049
X5.5724Y-4.8766
X5.6082Y-2.977
X5.6133Y-3.1049
X5.6724Y-4.8766
X5.7082Y-2.977
X5.7133Y-3.1049
X5.7724Y-4.8766
X5.8082Y-2.977
X5.8724Y-4.8766
X5.9082Y-2.977
X5.9724Y-4.8766
X6.0082Y-2.977
X6.0724Y-4.8766
X6.1692Y-3.1089
X6.1712Y-2.977
X6.1724Y-4.8766
X6.2692Y-3.1089
X6.2712Y-2.977
X6.368Y-4.8766
X6.3712Y-2.977
X6.468Y-4.8766
X6.4712Y-2.977
X6.568Y-4.8766
X6.5712Y-2.977
X6.668Y-4.8766
X6.6712Y-2.977
X6.768Y-4.8766
X6.7712Y-2.977
X6.7716Y-3.1246
X6.868Y-4.8766
X6.87Y-3.5183
X6.87Y-3.6183
X6.87Y-3.7183
X6.87Y-3.8183
X6.87Y-3.9183
X6.87Y-4.0183
X6.8712Y-2.977
X6.8716Y-3.1246
T4
X6.7842Y-4.2738
X6.7842Y-4.4864
X6.9968Y-4.2738
X6.9968Y-4.4864
T0
M30
