  0
SECTION
  2
HEADER
  9
$ACADVER
  1
AC1009
  9
$EXTMIN
 10
0.0
 20
0.0
 30
0.0
  9
$EXTMAX
 10
1000.0
 20
1000.0
 30
0.0
  9
$FILLMODE
 70
 0
  9
$SPLFRAME
 70
 1
  0
ENDSEC
  0
SECTION
  2
TABLES
  0
TABLE
  2
LAYER
 70
1
  0
LAYER
  2
0
 70
     0
 62
     7
  6
CONTINUOUS
  0
ENDTAB
  0
ENDSEC
  0
SECTION
  2
ENTITIES
  0
POLYLINE
  8
0
 62
     0
 66
     1
 10
0
 20
0
 30
0.0
 70
     1
 40
13.3967
 41
13.3967
  0
VERTEX
  8
0
 10
24.6456
 20
49.0229
 30
0.0
 40
0.186065
 41
0.186065
  0
VERTEX
  8
0
 10
24.2753
 20
49.0092
 30
0.0
 40
0.186065
 41
0.186065
  0
VERTEX
  8
0
 10
23.9069
 20
48.9681
 30
0.0
 40
0.186065
 41
0.186065
  0
VERTEX
  8
0
 10
23.5425
 20
48.8993
 30
0.0
 40
0.186065
 41
0.186065
  0
VERTEX
  8
0
 10
23.1836
 20
48.8031
 30
0.0
 40
0.186065
 41
0.186065
  0
VERTEX
  8
0
 10
22.8322
 20
48.6794
 30
0.0
 40
0.186065
 41
0.186065
  0
VERTEX
  8
0
 10
22.4903
 20
48.5283
 30
0.0
 40
0.186065
 41
0.186065
  0
VERTEX
  8
0
 10
22.1596
 20
48.3497
 30
0.0
 40
0.186065
 41
0.186065
  0
VERTEX
  8
0
 10
21.8419
 20
48.1436
 30
0.0
 40
0.186065
 41
0.186065
  0
VERTEX
  8
0
 10
21.5394
 20
47.91
 30
0.0
 40
0.186065
 41
0.186065
  0
VERTEX
  8
0
 10
21.2538
 20
47.649
 30
0.0
 40
0.186065
 41
0.186065
  0
VERTEX
  8
0
 10
20.9867
 20
47.3604
 30
0.0
 40
0.186065
 41
0.186065
  0
VERTEX
  8
0
 10
20.7403
 20
47.0444
 30
0.0
 40
0.186065
 41
0.186065
  0
VERTEX
  8
0
 10
20.5165
 20
46.7008
 30
0.0
 40
0.186065
 41
0.186065
  0
VERTEX
  8
0
 10
20.3169
 20
46.33
 30
0.0
 40
0.186065
 41
0.186065
  0
VERTEX
  8
0
 10
20.1436
 20
45.9315
 30
0.0
 40
0.186065
 41
0.186065
  0
VERTEX
  8
0
 10
19.9985
 20
45.5056
 30
0.0
 40
0.186065
 41
0.186065
  0
VERTEX
  8
0
 10
19.9075
 20
45.1557
 30
0.0
 40
0.186065
 41
0.186065
  0
VERTEX
  8
0
 10
19.8351
 20
44.7835
 30
0.0
 40
0.186065
 41
0.186065
  0
VERTEX
  8
0
 10
19.7806
 20
44.3907
 30
0.0
 40
0.186065
 41
0.186065
  0
VERTEX
  8
0
 10
19.7428
 20
43.9786
 30
0.0
 40
0.186065
 41
0.186065
  0
VERTEX
  8
0
 10
19.7213
 20
43.5492
 30
0.0
 40
0.186065
 41
0.186065
  0
VERTEX
  8
0
 10
19.7149
 20
43.1035
 30
0.0
 40
0.186065
 41
0.186065
  0
VERTEX
  8
0
 10
19.7231
 20
42.6431
 30
0.0
 40
0.186065
 41
0.186065
  0
VERTEX
  8
0
 10
19.7447
 20
42.1699
 30
0.0
 40
0.186065
 41
0.186065
  0
VERTEX
  8
0
 10
19.7794
 20
41.685
 30
0.0
 40
0.186065
 41
0.186065
  0
VERTEX
  8
0
 10
19.8261
 20
41.1901
 30
0.0
 40
0.186065
 41
0.186065
  0
VERTEX
  8
0
 10
19.884
 20
40.6869
 30
0.0
 40
0.186065
 41
0.186065
  0
VERTEX
  8
0
 10
19.9524
 20
40.1767
 30
0.0
 40
0.186065
 41
0.186065
  0
VERTEX
  8
0
 10
20.0301
 20
39.6611
 30
0.0
 40
0.186065
 41
0.186065
  0
VERTEX
  8
0
 10
20.1168
 20
39.1417
 30
0.0
 40
0.186065
 41
0.186065
  0
VERTEX
  8
0
 10
20.2115
 20
38.6199
 30
0.0
 40
0.186065
 41
0.186065
  0
VERTEX
  8
0
 10
20.3132
 20
38.0972
 30
0.0
 40
0.186065
 41
0.186065
  0
VERTEX
  8
0
 10
20.4214
 20
37.5754
 30
0.0
 40
0.186065
 41
0.186065
  0
VERTEX
  8
0
 10
20.535
 20
37.0558
 30
0.0
 40
0.186065
 41
0.186065
  0
VERTEX
  8
0
 10
20.6533
 20
36.54
 30
0.0
 40
0.186065
 41
0.186065
  0
VERTEX
  8
0
 10
20.7756
 20
36.0293
 30
0.0
 40
0.186065
 41
0.186065
  0
VERTEX
  8
0
 10
20.901
 20
35.5257
 30
0.0
 40
0.186065
 41
0.186065
  0
VERTEX
  8
0
 10
21.0286
 20
35.0303
 30
0.0
 40
0.186065
 41
0.186065
  0
VERTEX
  8
0
 10
21.1576
 20
34.5449
 30
0.0
 40
0.186065
 41
0.186065
  0
VERTEX
  8
0
 10
21.2874
 20
34.0708
 30
0.0
 40
0.186065
 41
0.186065
  0
VERTEX
  8
0
 10
21.4169
 20
33.6097
 30
0.0
 40
0.186065
 41
0.186065
  0
VERTEX
  8
0
 10
21.5454
 20
33.1631
 30
0.0
 40
0.186065
 41
0.186065
  0
VERTEX
  8
0
 10
21.6722
 20
32.7325
 30
0.0
 40
0.186065
 41
0.186065
  0
VERTEX
  8
0
 10
21.7964
 20
32.3194
 30
0.0
 40
0.186065
 41
0.186065
  0
VERTEX
  8
0
 10
21.9171
 20
31.9254
 30
0.0
 40
0.186065
 41
0.186065
  0
VERTEX
  8
0
 10
22.0336
 20
31.5519
 30
0.0
 40
0.186065
 41
0.186065
  0
VERTEX
  8
0
 10
22.1451
 20
31.2007
 30
0.0
 40
0.186065
 41
0.186065
  0
VERTEX
  8
0
 10
22.2507
 20
30.8731
 30
0.0
 40
0.186065
 41
0.186065
  0
VERTEX
  8
0
 10
21.9149
 20
30.7474
 30
0.0
 40
0.186065
 41
0.186065
  0
VERTEX
  8
0
 10
21.7597
 20
31.0493
 30
0.0
 40
0.186065
 41
0.186065
  0
VERTEX
  8
0
 10
21.5915
 20
31.3728
 30
0.0
 40
0.186065
 41
0.186065
  0
VERTEX
  8
0
 10
21.411
 20
31.7161
 30
0.0
 40
0.186065
 41
0.186065
  0
VERTEX
  8
0
 10
21.2185
 20
32.0776
 30
0.0
 40
0.186065
 41
0.186065
  0
VERTEX
  8
0
 10
21.0146
 20
32.4558
 30
0.0
 40
0.186065
 41
0.186065
  0
VERTEX
  8
0
 10
20.7999
 20
32.8488
 30
0.0
 40
0.186065
 41
0.186065
  0
VERTEX
  8
0
 10
20.5747
 20
33.2549
 30
0.0
 40
0.186065
 41
0.186065
  0
VERTEX
  8
0
 10
20.3397
 20
33.6724
 30
0.0
 40
0.186065
 41
0.186065
  0
VERTEX
  8
0
 10
20.0954
 20
34.0997
 30
0.0
 40
0.186065
 41
0.186065
  0
VERTEX
  8
0
 10
19.8424
 20
34.535
 30
0.0
 40
0.186065
 41
0.186065
  0
VERTEX
  8
0
 10
19.581
 20
34.9768
 30
0.0
 40
0.186065
 41
0.186065
  0
VERTEX
  8
0
 10
19.3118
 20
35.4232
 30
0.0
 40
0.186065
 41
0.186065
  0
VERTEX
  8
0
 10
19.0354
 20
35.8725
 30
0.0
 40
0.186065
 41
0.186065
  0
VERTEX
  8
0
 10
18.7524
 20
36.3232
 30
0.0
 40
0.186065
 41
0.186065
  0
VERTEX
  8
0
 10
18.4631
 20
36.7735
 30
0.0
 40
0.186065
 41
0.186065
  0
VERTEX
  8
0
 10
18.1681
 20
37.2215
 30
0.0
 40
0.186065
 41
0.186065
  0
VERTEX
  8
0
 10
17.8679
 20
37.666
 30
0.0
 40
0.186065
 41
0.186065
  0
VERTEX
  8
0
 10
17.5632
 20
38.1049
 30
0.0
 40
0.186065
 41
0.186065
  0
VERTEX
  8
0
 10
17.2542
 20
38.5364
 30
0.0
 40
0.186065
 41
0.186065
  0
VERTEX
  8
0
 10
16.9417
 20
38.9593
 30
0.0
 40
0.186065
 41
0.186065
  0
VERTEX
  8
0
 10
16.6261
 20
39.3715
 30
0.0
 40
0.186065
 41
0.186065
  0
VERTEX
  8
0
 10
16.3081
 20
39.7715
 30
0.0
 40
0.186065
 41
0.186065
  0
VERTEX
  8
0
 10
15.9878
 20
40.1575
 30
0.0
 40
0.186065
 41
0.186065
  0
VERTEX
  8
0
 10
15.6661
 20
40.5279
 30
0.0
 40
0.186065
 41
0.186065
  0
VERTEX
  8
0
 10
15.3435
 20
40.881
 30
0.0
 40
0.186065
 41
0.186065
  0
VERTEX
  8
0
 10
15.0203
 20
41.215
 30
0.0
 40
0.186065
 41
0.186065
  0
VERTEX
  8
0
 10
14.6971
 20
41.5283
 30
0.0
 40
0.186065
 41
0.186065
  0
VERTEX
  8
0
 10
14.3744
 20
41.8192
 30
0.0
 40
0.186065
 41
0.186065
  0
VERTEX
  8
0
 10
14.0531
 20
42.086
 30
0.0
 40
0.186065
 41
0.186065
  0
VERTEX
  8
0
 10
13.7331
 20
42.3269
 30
0.0
 40
0.186065
 41
0.186065
  0
VERTEX
  8
0
 10
13.4153
 20
42.5403
 30
0.0
 40
0.186065
 41
0.186065
  0
VERTEX
  8
0
 10
13.1002
 20
42.7246
 30
0.0
 40
0.186065
 41
0.186065
  0
VERTEX
  8
0
 10
12.6955
 20
42.9224
 30
0.0
 40
0.186065
 41
0.186065
  0
VERTEX
  8
0
 10
12.2905
 20
43.0808
 30
0.0
 40
0.186065
 41
0.186065
  0
VERTEX
  8
0
 10
11.8864
 20
43.2014
 30
0.0
 40
0.186065
 41
0.186065
  0
VERTEX
  8
0
 10
11.4846
 20
43.2853
 30
0.0
 40
0.186065
 41
0.186065
  0
VERTEX
  8
0
 10
11.0864
 20
43.334
 30
0.0
 40
0.186065
 41
0.186065
  0
VERTEX
  8
0
 10
10.693
 20
43.3488
 30
0.0
 40
0.186065
 41
0.186065
  0
VERTEX
  8
0
 10
10.3059
 20
43.3308
 30
0.0
 40
0.186065
 41
0.186065
  0
VERTEX
  8
0
 10
9.92637
 20
43.2817
 30
0.0
 40
0.186065
 41
0.186065
  0
VERTEX
  8
0
 10
9.55572
 20
43.2024
 30
0.0
 40
0.186065
 41
0.186065
  0
VERTEX
  8
0
 10
9.19521
 20
43.0946
 30
0.0
 40
0.186065
 41
0.186065
  0
VERTEX
  8
0
 10
8.84625
 20
42.9593
 30
0.0
 40
0.186065
 41
0.186065
  0
VERTEX
  8
0
 10
8.51014
 20
42.7981
 30
0.0
 40
0.186065
 41
0.186065
  0
VERTEX
  8
0
 10
8.18821
 20
42.6122
 30
0.0
 40
0.186065
 41
0.186065
  0
VERTEX
  8
0
 10
7.88172
 20
42.4029
 30
0.0
 40
0.186065
 41
0.186065
  0
VERTEX
  8
0
 10
7.59207
 20
42.1715
 30
0.0
 40
0.186065
 41
0.186065
  0
VERTEX
  8
0
 10
7.32058
 20
41.9194
 30
0.0
 40
0.186065
 41
0.186065
  0
VERTEX
  8
0
 10
7.06853
 20
41.6479
 30
0.0
 40
0.186065
 41
0.186065
  0
VERTEX
  8
0
 10
6.83724
 20
41.3583
 30
0.0
 40
0.186065
 41
0.186065
  0
VERTEX
  8
0
 10
6.62804
 20
41.0521
 30
0.0
 40
0.186065
 41
0.186065
  0
VERTEX
  8
0
 10
6.44228
 20
40.7303
 30
0.0
 40
0.186065
 41
0.186065
  0
VERTEX
  8
0
 10
6.28131
 20
40.3943
 30
0.0
 40
0.186065
 41
0.186065
  0
VERTEX
  8
0
 10
6.14632
 20
40.0457
 30
0.0
 40
0.186065
 41
0.186065
  0
VERTEX
  8
0
 10
6.03879
 20
39.6856
 30
0.0
 40
0.186065
 41
0.186065
  0
VERTEX
  8
0
 10
5.95996
 20
39.3153
 30
0.0
 40
0.186065
 41
0.186065
  0
VERTEX
  8
0
 10
5.91118
 20
38.9361
 30
0.0
 40
0.186065
 41
0.186065
  0
VERTEX
  8
0
 10
5.89372
 20
38.5496
 30
0.0
 40
0.186065
 41
0.186065
  0
VERTEX
  8
0
 10
5.90896
 20
38.1568
 30
0.0
 40
0.186065
 41
0.186065
  0
VERTEX
  8
0
 10
5.95822
 20
37.759
 30
0.0
 40
0.186065
 41
0.186065
  0
VERTEX
  8
0
 10
6.04281
 20
37.3579
 30
0.0
 40
0.186065
 41
0.186065
  0
VERTEX
  8
0
 10
6.16406
 20
36.9544
 30
0.0
 40
0.186065
 41
0.186065
  0
VERTEX
  8
0
 10
6.32329
 20
36.5501
 30
0.0
 40
0.186065
 41
0.186065
  0
VERTEX
  8
0
 10
6.52181
 20
36.1463
 30
0.0
 40
0.186065
 41
0.186065
  0
VERTEX
  8
0
 10
6.7034
 20
35.8371
 30
0.0
 40
0.186065
 41
0.186065
  0
VERTEX
  8
0
 10
6.91342
 20
35.5253
 30
0.0
 40
0.186065
 41
0.186065
  0
VERTEX
  8
0
 10
7.15028
 20
35.2112
 30
0.0
 40
0.186065
 41
0.186065
  0
VERTEX
  8
0
 10
7.41233
 20
34.8958
 30
0.0
 40
0.186065
 41
0.186065
  0
VERTEX
  8
0
 10
7.69797
 20
34.5792
 30
0.0
 40
0.186065
 41
0.186065
  0
VERTEX
  8
0
 10
8.00553
 20
34.2619
 30
0.0
 40
0.186065
 41
0.186065
  0
VERTEX
  8
0
 10
8.33339
 20
33.9446
 30
0.0
 40
0.186065
 41
0.186065
  0
VERTEX
  8
0
 10
8.68001
 20
33.6275
 30
0.0
 40
0.186065
 41
0.186065
  0
VERTEX
  8
0
 10
9.04372
 20
33.3115
 30
0.0
 40
0.186065
 41
0.186065
  0
VERTEX
  8
0
 10
9.42285
 20
32.9967
 30
0.0
 40
0.186065
 41
0.186065
  0
VERTEX
  8
0
 10
9.81586
 20
32.6837
 30
0.0
 40
0.186065
 41
0.186065
  0
VERTEX
  8
0
 10
10.2211
 20
32.3733
 30
0.0
 40
0.186065
 41
0.186065
  0
VERTEX
  8
0
 10
10.6369
 20
32.0657
 30
0.0
 40
0.186065
 41
0.186065
  0
VERTEX
  8
0
 10
11.0617
 20
31.7614
 30
0.0
 40
0.186065
 41
0.186065
  0
VERTEX
  8
0
 10
11.4939
 20
31.461
 30
0.0
 40
0.186065
 41
0.186065
  0
VERTEX
  8
0
 10
11.9319
 20
31.1649
 30
0.0
 40
0.186065
 41
0.186065
  0
VERTEX
  8
0
 10
12.3739
 20
30.8736
 30
0.0
 40
0.186065
 41
0.186065
  0
VERTEX
  8
0
 10
12.8185
 20
30.5876
 30
0.0
 40
0.186065
 41
0.186065
  0
VERTEX
  8
0
 10
13.2639
 20
30.3076
 30
0.0
 40
0.186065
 41
0.186065
  0
VERTEX
  8
0
 10
13.7086
 20
30.0339
 30
0.0
 40
0.186065
 41
0.186065
  0
VERTEX
  8
0
 10
14.1508
 20
29.7669
 30
0.0
 40
0.186065
 41
0.186065
  0
VERTEX
  8
0
 10
14.5892
 20
29.5075
 30
0.0
 40
0.186065
 41
0.186065
  0
VERTEX
  8
0
 10
15.0219
 20
29.2557
 30
0.0
 40
0.186065
 41
0.186065
  0
VERTEX
  8
0
 10
15.4475
 20
29.0122
 30
0.0
 40
0.186065
 41
0.186065
  0
VERTEX
  8
0
 10
15.864
 20
28.7776
 30
0.0
 40
0.186065
 41
0.186065
  0
VERTEX
  8
0
 10
16.2703
 20
28.5524
 30
0.0
 40
0.186065
 41
0.186065
  0
VERTEX
  8
0
 10
16.6644
 20
28.3368
 30
0.0
 40
0.186065
 41
0.186065
  0
VERTEX
  8
0
 10
17.0449
 20
28.1317
 30
0.0
 40
0.186065
 41
0.186065
  0
VERTEX
  8
0
 10
17.4099
 20
27.9372
 30
0.0
 40
0.186065
 41
0.186065
  0
VERTEX
  8
0
 10
17.7581
 20
27.7542
 30
0.0
 40
0.186065
 41
0.186065
  0
VERTEX
  8
0
 10
18.0875
 20
27.5829
 30
0.0
 40
0.186065
 41
0.186065
  0
VERTEX
  8
0
 10
18.3969
 20
27.4239
 30
0.0
 40
0.186065
 41
0.186065
  0
VERTEX
  8
0
 10
18.24
 20
27.09
 30
0.0
 40
0.186065
 41
0.186065
  0
VERTEX
  8
0
 10
17.9128
 20
27.1946
 30
0.0
 40
0.186065
 41
0.186065
  0
VERTEX
  8
0
 10
17.5619
 20
27.305
 30
0.0
 40
0.186065
 41
0.186065
  0
VERTEX
  8
0
 10
17.1889
 20
27.4204
 30
0.0
 40
0.186065
 41
0.186065
  0
VERTEX
  8
0
 10
16.7953
 20
27.54
 30
0.0
 40
0.186065
 41
0.186065
  0
VERTEX
  8
0
 10
16.3825
 20
27.6629
 30
0.0
 40
0.186065
 41
0.186065
  0
VERTEX
  8
0
 10
15.9522
 20
27.7885
 30
0.0
 40
0.186065
 41
0.186065
  0
VERTEX
  8
0
 10
15.5058
 20
27.9158
 30
0.0
 40
0.186065
 41
0.186065
  0
VERTEX
  8
0
 10
15.045
 20
28.044
 30
0.0
 40
0.186065
 41
0.186065
  0
VERTEX
  8
0
 10
14.5713
 20
28.1724
 30
0.0
 40
0.186065
 41
0.186065
  0
VERTEX
  8
0
 10
14.086
 20
28.3001
 30
0.0
 40
0.186065
 41
0.186065
  0
VERTEX
  8
0
 10
13.5908
 20
28.4264
 30
0.0
 40
0.186065
 41
0.186065
  0
VERTEX
  8
0
 10
13.0872
 20
28.5503
 30
0.0
 40
0.186065
 41
0.186065
  0
VERTEX
  8
0
 10
12.5768
 20
28.6711
 30
0.0
 40
0.186065
 41
0.186065
  0
VERTEX
  8
0
 10
12.0611
 20
28.7881
 30
0.0
 40
0.186065
 41
0.186065
  0
VERTEX
  8
0
 10
11.5416
 20
28.9003
 30
0.0
 40
0.186065
 41
0.186065
  0
VERTEX
  8
0
 10
11.0198
 20
29.0069
 30
0.0
 40
0.186065
 41
0.186065
  0
VERTEX
  8
0
 10
10.4972
 20
29.1074
 30
0.0
 40
0.186065
 41
0.186065
  0
VERTEX
  8
0
 10
9.97547
 20
29.2006
 30
0.0
 40
0.186065
 41
0.186065
  0
VERTEX
  8
0
 10
9.45606
 20
29.2858
 30
0.0
 40
0.186065
 41
0.186065
  0
VERTEX
  8
0
 10
8.94049
 20
29.3624
 30
0.0
 40
0.186065
 41
0.186065
  0
VERTEX
  8
0
 10
8.43028
 20
29.4293
 30
0.0
 40
0.186065
 41
0.186065
  0
VERTEX
  8
0
 10
7.92697
 20
29.4857
 30
0.0
 40
0.186065
 41
0.186065
  0
VERTEX
  8
0
 10
7.43212
 20
29.5311
 30
0.0
 40
0.186065
 41
0.186065
  0
VERTEX
  8
0
 10
6.94726
 20
29.5644
 30
0.0
 40
0.186065
 41
0.186065
  0
VERTEX
  8
0
 10
6.47385
 20
29.585
 30
0.0
 40
0.186065
 41
0.186065
  0
VERTEX
  8
0
 10
6.01351
 20
29.5918
 30
0.0
 40
0.186065
 41
0.186065
  0
VERTEX
  8
0
 10
5.56771
 20
29.5843
 30
0.0
 40
0.186065
 41
0.186065
  0
VERTEX
  8
0
 10
5.13797
 20
29.5615
 30
0.0
 40
0.186065
 41
0.186065
  0
VERTEX
  8
0
 10
4.72592
 20
29.5226
 30
0.0
 40
0.186065
 41
0.186065
  0
VERTEX
  8
0
 10
4.33296
 20
29.4669
 30
0.0
 40
0.186065
 41
0.186065
  0
VERTEX
  8
0
 10
3.96067
 20
29.3936
 30
0.0
 40
0.186065
 41
0.186065
  0
VERTEX
  8
0
 10
3.61062
 20
29.3018
 30
0.0
 40
0.186065
 41
0.186065
  0
VERTEX
  8
0
 10
3.18468
 20
29.1556
 30
0.0
 40
0.186065
 41
0.186065
  0
VERTEX
  8
0
 10
2.78618
 20
28.9811
 30
0.0
 40
0.186065
 41
0.186065
  0
VERTEX
  8
0
 10
2.41521
 20
28.7807
 30
0.0
 40
0.186065
 41
0.186065
  0
VERTEX
  8
0
 10
2.07172
 20
28.556
 30
0.0
 40
0.186065
 41
0.186065
  0
VERTEX
  8
0
 10
1.75569
 20
28.3087
 30
0.0
 40
0.186065
 41
0.186065
  0
VERTEX
  8
0
 10
1.46718
 20
28.0411
 30
0.0
 40
0.186065
 41
0.186065
  0
VERTEX
  8
0
 10
1.20611
 20
27.7547
 30
0.0
 40
0.186065
 41
0.186065
  0
VERTEX
  8
0
 10
0.972547
 20
27.4515
 30
0.0
 40
0.186065
 41
0.186065
  0
VERTEX
  8
0
 10
0.766439
 20
27.1333
 30
0.0
 40
0.186065
 41
0.186065
  0
VERTEX
  8
0
 10
0.587782
 20
26.8022
 30
0.0
 40
0.186065
 41
0.186065
  0
VERTEX
  8
0
 10
0.436686
 20
26.4599
 30
0.0
 40
0.186065
 41
0.186065
  0
VERTEX
  8
0
 10
0.312989
 20
26.1082
 30
0.0
 40
0.186065
 41
0.186065
  0
VERTEX
  8
0
 10
0.216797
 20
25.749
 30
0.0
 40
0.186065
 41
0.186065
  0
VERTEX
  8
0
 10
0.148112
 20
25.3843
 30
0.0
 40
0.186065
 41
0.186065
  0
VERTEX
  8
0
 10
0.106879
 20
25.0158
 30
0.0
 40
0.186065
 41
0.186065
  0
VERTEX
  8
0
 10
0.0931532
 20
24.6456
 30
0.0
 40
0.186065
 41
0.186065
  0
VERTEX
  8
0
 10
0.106879
 20
24.2754
 30
0.0
 40
0.186065
 41
0.186065
  0
VERTEX
  8
0
 10
0.148112
 20
23.9071
 30
0.0
 40
0.186065
 41
0.186065
  0
VERTEX
  8
0
 10
0.216797
 20
23.5425
 30
0.0
 40
0.186065
 41
0.186065
  0
VERTEX
  8
0
 10
0.312989
 20
23.1836
 30
0.0
 40
0.186065
 41
0.186065
  0
VERTEX
  8
0
 10
0.436632
 20
22.8324
 30
0.0
 40
0.186065
 41
0.186065
  0
VERTEX
  8
0
 10
0.587782
 20
22.4903
 30
0.0
 40
0.186065
 41
0.186065
  0
VERTEX
  8
0
 10
0.766439
 20
22.1596
 30
0.0
 40
0.186065
 41
0.186065
  0
VERTEX
  8
0
 10
0.972493
 20
21.8419
 30
0.0
 40
0.186065
 41
0.186065
  0
VERTEX
  8
0
 10
1.20611
 20
21.5394
 30
0.0
 40
0.186065
 41
0.186065
  0
VERTEX
  8
0
 10
1.46718
 20
21.2538
 30
0.0
 40
0.186065
 41
0.186065
  0
VERTEX
  8
0
 10
1.75569
 20
20.9867
 30
0.0
 40
0.186065
 41
0.186065
  0
VERTEX
  8
0
 10
2.07172
 20
20.7403
 30
0.0
 40
0.186065
 41
0.186065
  0
VERTEX
  8
0
 10
2.41521
 20
20.5164
 30
0.0
 40
0.186065
 41
0.186065
  0
VERTEX
  8
0
 10
2.78618
 20
20.3169
 30
0.0
 40
0.186065
 41
0.186065
  0
VERTEX
  8
0
 10
3.18468
 20
20.1436
 30
0.0
 40
0.186065
 41
0.186065
  0
VERTEX
  8
0
 10
3.61062
 20
19.9983
 30
0.0
 40
0.186065
 41
0.186065
  0
VERTEX
  8
0
 10
3.95546
 20
19.9088
 30
0.0
 40
0.186065
 41
0.186065
  0
VERTEX
  8
0
 10
4.322
 20
19.8371
 30
0.0
 40
0.186065
 41
0.186065
  0
VERTEX
  8
0
 10
4.70888
 20
19.7826
 30
0.0
 40
0.186065
 41
0.186065
  0
VERTEX
  8
0
 10
5.11447
 20
19.7447
 30
0.0
 40
0.186065
 41
0.186065
  0
VERTEX
  8
0
 10
5.53743
 20
19.7226
 30
0.0
 40
0.186065
 41
0.186065
  0
VERTEX
  8
0
 10
5.97624
 20
19.7154
 30
0.0
 40
0.186065
 41
0.186065
  0
VERTEX
  8
0
 10
6.42942
 20
19.7224
 30
0.0
 40
0.186065
 41
0.186065
  0
VERTEX
  8
0
 10
6.89551
 20
19.7426
 30
0.0
 40
0.186065
 41
0.186065
  0
VERTEX
  8
0
 10
7.37299
 20
19.7756
 30
0.0
 40
0.186065
 41
0.186065
  0
VERTEX
  8
0
 10
7.86046
 20
19.8203
 30
0.0
 40
0.186065
 41
0.186065
  0
VERTEX
  8
0
 10
8.35639
 20
19.876
 30
0.0
 40
0.186065
 41
0.186065
  0
VERTEX
  8
0
 10
8.85938
 20
19.9419
 30
0.0
 40
0.186065
 41
0.186065
  0
VERTEX
  8
0
 10
9.36783
 20
20.0174
 30
0.0
 40
0.186065
 41
0.186065
  0
VERTEX
  8
0
 10
9.88043
 20
20.1015
 30
0.0
 40
0.186065
 41
0.186065
  0
VERTEX
  8
0
 10
10.3956
 20
20.1936
 30
0.0
 40
0.186065
 41
0.186065
  0
VERTEX
  8
0
 10
10.9118
 20
20.2926
 30
0.0
 40
0.186065
 41
0.186065
  0
VERTEX
  8
0
 10
11.4277
 20
20.3982
 30
0.0
 40
0.186065
 41
0.186065
  0
VERTEX
  8
0
 10
11.9418
 20
20.5093
 30
0.0
 40
0.186065
 41
0.186065
  0
VERTEX
  8
0
 10
12.4526
 20
20.6251
 30
0.0
 40
0.186065
 41
0.186065
  0
VERTEX
  8
0
 10
12.9586
 20
20.7449
 30
0.0
 40
0.186065
 41
0.186065
  0
VERTEX
  8
0
 10
13.4583
 20
20.8679
 30
0.0
 40
0.186065
 41
0.186065
  0
VERTEX
  8
0
 10
13.9504
 20
20.9935
 30
0.0
 40
0.186065
 41
0.186065
  0
VERTEX
  8
0
 10
14.4332
 20
21.1206
 30
0.0
 40
0.186065
 41
0.186065
  0
VERTEX
  8
0
 10
14.9054
 20
21.2486
 30
0.0
 40
0.186065
 41
0.186065
  0
VERTEX
  8
0
 10
15.3654
 20
21.3767
 30
0.0
 40
0.186065
 41
0.186065
  0
VERTEX
  8
0
 10
15.8118
 20
21.504
 30
0.0
 40
0.186065
 41
0.186065
  0
VERTEX
  8
0
 10
16.2432
 20
21.63
 30
0.0
 40
0.186065
 41
0.186065
  0
VERTEX
  8
0
 10
16.6581
 20
21.7536
 30
0.0
 40
0.186065
 41
0.186065
  0
VERTEX
  8
0
 10
17.0547
 20
21.8743
 30
0.0
 40
0.186065
 41
0.186065
  0
VERTEX
  8
0
 10
17.4319
 20
21.9911
 30
0.0
 40
0.186065
 41
0.186065
  0
VERTEX
  8
0
 10
17.7882
 20
22.1033
 30
0.0
 40
0.186065
 41
0.186065
  0
VERTEX
  8
0
 10
18.1221
 20
22.2101
 30
0.0
 40
0.186065
 41
0.186065
  0
VERTEX
  8
0
 10
18.259
 20
21.8593
 30
0.0
 40
0.186065
 41
0.186065
  0
VERTEX
  8
0
 10
17.9517
 20
21.7007
 30
0.0
 40
0.186065
 41
0.186065
  0
VERTEX
  8
0
 10
17.624
 20
21.5294
 30
0.0
 40
0.186065
 41
0.186065
  0
VERTEX
  8
0
 10
17.2775
 20
21.3464
 30
0.0
 40
0.186065
 41
0.186065
  0
VERTEX
  8
0
 10
16.9139
 20
21.1518
 30
0.0
 40
0.186065
 41
0.186065
  0
VERTEX
  8
0
 10
16.5347
 20
20.9464
 30
0.0
 40
0.186065
 41
0.186065
  0
VERTEX
  8
0
 10
16.1417
 20
20.7304
 30
0.0
 40
0.186065
 41
0.186065
  0
VERTEX
  8
0
 10
15.7364
 20
20.5047
 30
0.0
 40
0.186065
 41
0.186065
  0
VERTEX
  8
0
 10
15.3204
 20
20.2693
 30
0.0
 40
0.186065
 41
0.186065
  0
VERTEX
  8
0
 10
14.8956
 20
20.0251
 30
0.0
 40
0.186065
 41
0.186065
  0
VERTEX
  8
0
 10
14.4632
 20
19.7725
 30
0.0
 40
0.186065
 41
0.186065
  0
VERTEX
  8
0
 10
14.0251
 20
19.5119
 30
0.0
 40
0.186065
 41
0.186065
  0
VERTEX
  8
0
 10
13.5831
 20
19.244
 30
0.0
 40
0.186065
 41
0.186065
  0
VERTEX
  8
0
 10
13.1385
 20
18.9692
 30
0.0
 40
0.186065
 41
0.186065
  0
VERTEX
  8
0
 10
12.6931
 20
18.6878
 30
0.0
 40
0.186065
 41
0.186065
  0
VERTEX
  8
0
 10
12.2484
 20
18.4006
 30
0.0
 40
0.186065
 41
0.186065
  0
VERTEX
  8
0
 10
11.8062
 20
18.1081
 30
0.0
 40
0.186065
 41
0.186065
  0
VERTEX
  8
0
 10
11.3681
 20
17.8106
 30
0.0
 40
0.186065
 41
0.186065
  0
VERTEX
  8
0
 10
10.9356
 20
17.5085
 30
0.0
 40
0.186065
 41
0.186065
  0
VERTEX
  8
0
 10
10.5105
 20
17.2026
 30
0.0
 40
0.186065
 41
0.186065
  0
VERTEX
  8
0
 10
10.0942
 20
16.8935
 30
0.0
 40
0.186065
 41
0.186065
  0
VERTEX
  8
0
 10
9.68864
 20
16.5812
 30
0.0
 40
0.186065
 41
0.186065
  0
VERTEX
  8
0
 10
9.29525
 20
16.2668
 30
0.0
 40
0.186065
 41
0.186065
  0
VERTEX
  8
0
 10
8.91564
 20
15.9503
 30
0.0
 40
0.186065
 41
0.186065
  0
VERTEX
  8
0
 10
8.55154
 20
15.6325
 30
0.0
 40
0.186065
 41
0.186065
  0
VERTEX
  8
0
 10
8.20458
 20
15.3137
 30
0.0
 40
0.186065
 41
0.186065
  0
VERTEX
  8
0
 10
7.87631
 20
14.9947
 30
0.0
 40
0.186065
 41
0.186065
  0
VERTEX
  8
0
 10
7.56842
 20
14.6757
 30
0.0
 40
0.186065
 41
0.186065
  0
VERTEX
  8
0
 10
7.2825
 20
14.3574
 30
0.0
 40
0.186065
 41
0.186065
  0
VERTEX
  8
0
 10
7.02024
 20
14.04
 30
0.0
 40
0.186065
 41
0.186065
  0
VERTEX
  8
0
 10
6.78326
 20
13.7244
 30
0.0
 40
0.186065
 41
0.186065
  0
VERTEX
  8
0
 10
6.57314
 20
13.4109
 30
0.0
 40
0.186065
 41
0.186065
  0
VERTEX
  8
0
 10
6.39154
 20
13.1
 30
0.0
 40
0.186065
 41
0.186065
  0
VERTEX
  8
0
 10
6.19379
 20
12.6954
 30
0.0
 40
0.186065
 41
0.186065
  0
VERTEX
  8
0
 10
6.03532
 20
12.2904
 30
0.0
 40
0.186065
 41
0.186065
  0
VERTEX
  8
0
 10
5.91476
 20
11.8863
 30
0.0
 40
0.186065
 41
0.186065
  0
VERTEX
  8
0
 10
5.83078
 20
11.4845
 30
0.0
 40
0.186065
 41
0.186065
  0
VERTEX
  8
0
 10
5.78211
 20
11.0863
 30
0.0
 40
0.186065
 41
0.186065
  0
VERTEX
  8
0
 10
5.76736
 20
10.693
 30
0.0
 40
0.186065
 41
0.186065
  0
VERTEX
  8
0
 10
5.78526
 20
10.3059
 30
0.0
 40
0.186065
 41
0.186065
  0
VERTEX
  8
0
 10
5.83453
 20
9.92632
 30
0.0
 40
0.186065
 41
0.186065
  0
VERTEX
  8
0
 10
5.91374
 20
9.55567
 30
0.0
 40
0.186065
 41
0.186065
  0
VERTEX
  8
0
 10
6.0216
 20
9.19521
 30
0.0
 40
0.186065
 41
0.186065
  0
VERTEX
  8
0
 10
6.15679
 20
8.84625
 30
0.0
 40
0.186065
 41
0.186065
  0
VERTEX
  8
0
 10
6.31803
 20
8.51014
 30
0.0
 40
0.186065
 41
0.186065
  0
VERTEX
  8
0
 10
6.50396
 20
8.18821
 30
0.0
 40
0.186065
 41
0.186065
  0
VERTEX
  8
0
 10
6.71326
 20
7.88172
 30
0.0
 40
0.186065
 41
0.186065
  0
VERTEX
  8
0
 10
6.94461
 20
7.59207
 30
0.0
 40
0.186065
 41
0.186065
  0
VERTEX
  8
0
 10
7.19672
 20
7.32053
 30
0.0
 40
0.186065
 41
0.186065
  0
VERTEX
  8
0
 10
7.46821
 20
7.06847
 30
0.0
 40
0.186065
 41
0.186065
  0
VERTEX
  8
0
 10
7.75776
 20
6.83718
 30
0.0
 40
0.186065
 41
0.186065
  0
VERTEX
  8
0
 10
8.06413
 20
6.62804
 30
0.0
 40
0.186065
 41
0.186065
  0
VERTEX
  8
0
 10
8.38585
 20
6.44228
 30
0.0
 40
0.186065
 41
0.186065
  0
VERTEX
  8
0
 10
8.72174
 20
6.28125
 30
0.0
 40
0.186065
 41
0.186065
  0
VERTEX
  8
0
 10
9.07042
 20
6.14632
 30
0.0
 40
0.186065
 41
0.186065
  0
VERTEX
  8
0
 10
9.43061
 20
6.03879
 30
0.0
 40
0.186065
 41
0.186065
  0
VERTEX
  8
0
 10
9.80089
 20
5.95996
 30
0.0
 40
0.186065
 41
0.186065
  0
VERTEX
  8
0
 10
10.18
 20
5.91114
 30
0.0
 40
0.186065
 41
0.186065
  0
VERTEX
  8
0
 10
10.5666
 20
5.89372
 30
0.0
 40
0.186065
 41
0.186065
  0
VERTEX
  8
0
 10
10.9594
 20
5.90896
 30
0.0
 40
0.186065
 41
0.186065
  0
VERTEX
  8
0
 10
11.3571
 20
5.95822
 30
0.0
 40
0.186065
 41
0.186065
  0
VERTEX
  8
0
 10
11.7583
 20
6.04281
 30
0.0
 40
0.186065
 41
0.186065
  0
VERTEX
  8
0
 10
12.1617
 20
6.16406
 30
0.0
 40
0.186065
 41
0.186065
  0
VERTEX
  8
0
 10
12.566
 20
6.32329
 30
0.0
 40
0.186065
 41
0.186065
  0
VERTEX
  8
0
 10
12.9699
 20
6.52175
 30
0.0
 40
0.186065
 41
0.186065
  0
VERTEX
  8
0
 10
13.2771
 20
6.70215
 30
0.0
 40
0.186065
 41
0.186065
  0
VERTEX
  8
0
 10
13.5869
 20
6.91058
 30
0.0
 40
0.186065
 41
0.186065
  0
VERTEX
  8
0
 10
13.8988
 20
7.14561
 30
0.0
 40
0.186065
 41
0.186065
  0
VERTEX
  8
0
 10
14.2124
 20
7.4056
 30
0.0
 40
0.186065
 41
0.186065
  0
VERTEX
  8
0
 10
14.5269
 20
7.68886
 30
0.0
 40
0.186065
 41
0.186065
  0
VERTEX
  8
0
 10
14.8422
 20
7.99392
 30
0.0
 40
0.186065
 41
0.186065
  0
VERTEX
  8
0
 10
15.1578
 20
8.31917
 30
0.0
 40
0.186065
 41
0.186065
  0
VERTEX
  8
0
 10
15.4729
 20
8.66297
 30
0.0
 40
0.186065
 41
0.186065
  0
VERTEX
  8
0
 10
15.7872
 20
9.02376
 30
0.0
 40
0.186065
 41
0.186065
  0
VERTEX
  8
0
 10
16.1001
 20
9.39996
 30
0.0
 40
0.186065
 41
0.186065
  0
VERTEX
  8
0
 10
16.4114
 20
9.78987
 30
0.0
 40
0.186065
 41
0.186065
  0
VERTEX
  8
0
 10
16.7203
 20
10.1921
 30
0.0
 40
0.186065
 41
0.186065
  0
VERTEX
  8
0
 10
17.0265
 20
10.6048
 30
0.0
 40
0.186065
 41
0.186065
  0
VERTEX
  8
0
 10
17.3293
 20
11.0266
 30
0.0
 40
0.186065
 41
0.186065
  0
VERTEX
  8
0
 10
17.6285
 20
11.4558
 30
0.0
 40
0.186065
 41
0.186065
  0
VERTEX
  8
0
 10
17.9233
 20
11.8908
 30
0.0
 40
0.186065
 41
0.186065
  0
VERTEX
  8
0
 10
18.2136
 20
12.3301
 30
0.0
 40
0.186065
 41
0.186065
  0
VERTEX
  8
0
 10
18.4985
 20
12.7721
 30
0.0
 40
0.186065
 41
0.186065
  0
VERTEX
  8
0
 10
18.7778
 20
13.2151
 30
0.0
 40
0.186065
 41
0.186065
  0
VERTEX
  8
0
 10
19.0508
 20
13.6574
 30
0.0
 40
0.186065
 41
0.186065
  0
VERTEX
  8
0
 10
19.3172
 20
14.0978
 30
0.0
 40
0.186065
 41
0.186065
  0
VERTEX
  8
0
 10
19.5764
 20
14.5343
 30
0.0
 40
0.186065
 41
0.186065
  0
VERTEX
  8
0
 10
19.8279
 20
14.9656
 30
0.0
 40
0.186065
 41
0.186065
  0
VERTEX
  8
0
 10
20.0713
 20
15.3899
 30
0.0
 40
0.186065
 41
0.186065
  0
VERTEX
  8
0
 10
20.306
 20
15.8058
 30
0.0
 40
0.186065
 41
0.186065
  0
VERTEX
  8
0
 10
20.5315
 20
16.2115
 30
0.0
 40
0.186065
 41
0.186065
  0
VERTEX
  8
0
 10
20.7475
 20
16.6056
 30
0.0
 40
0.186065
 41
0.186065
  0
VERTEX
  8
0
 10
20.9533
 20
16.9863
 30
0.0
 40
0.186065
 41
0.186065
  0
VERTEX
  8
0
 10
21.1487
 20
17.3522
 30
0.0
 40
0.186065
 41
0.186065
  0
VERTEX
  8
0
 10
21.3329
 20
17.7015
 30
0.0
 40
0.186065
 41
0.186065
  0
VERTEX
  8
0
 10
21.5056
 20
18.0329
 30
0.0
 40
0.186065
 41
0.186065
  0
VERTEX
  8
0
 10
21.6661
 20
18.3446
 30
0.0
 40
0.186065
 41
0.186065
  0
VERTEX
  8
0
 10
22.0122
 20
18.1964
 30
0.0
 40
0.186065
 41
0.186065
  0
VERTEX
  8
0
 10
21.9072
 20
17.8668
 30
0.0
 40
0.186065
 41
0.186065
  0
VERTEX
  8
0
 10
21.7965
 20
17.5142
 30
0.0
 40
0.186065
 41
0.186065
  0
VERTEX
  8
0
 10
21.681
 20
17.1397
 30
0.0
 40
0.186065
 41
0.186065
  0
VERTEX
  8
0
 10
21.5614
 20
16.745
 30
0.0
 40
0.186065
 41
0.186065
  0
VERTEX
  8
0
 10
21.4385
 20
16.3317
 30
0.0
 40
0.186065
 41
0.186065
  0
VERTEX
  8
0
 10
21.3133
 20
15.9011
 30
0.0
 40
0.186065
 41
0.186065
  0
VERTEX
  8
0
 10
21.1864
 20
15.4547
 30
0.0
 40
0.186065
 41
0.186065
  0
VERTEX
  8
0
 10
21.0586
 20
14.9943
 30
0.0
 40
0.186065
 41
0.186065
  0
VERTEX
  8
0
 10
20.9308
 20
14.5211
 30
0.0
 40
0.186065
 41
0.186065
  0
VERTEX
  8
0
 10
20.8039
 20
14.0368
 30
0.0
 40
0.186065
 41
0.186065
  0
VERTEX
  8
0
 10
20.6783
 20
13.5428
 30
0.0
 40
0.186065
 41
0.186065
  0
VERTEX
  8
0
 10
20.5551
 20
13.0407
 30
0.0
 40
0.186065
 41
0.186065
  0
VERTEX
  8
0
 10
20.4351
 20
12.532
 30
0.0
 40
0.186065
 41
0.186065
  0
VERTEX
  8
0
 10
20.3192
 20
12.018
 30
0.0
 40
0.186065
 41
0.186065
  0
VERTEX
  8
0
 10
20.2078
 20
11.5005
 30
0.0
 40
0.186065
 41
0.186065
  0
VERTEX
  8
0
 10
20.1021
 20
10.9809
 30
0.0
 40
0.186065
 41
0.186065
  0
VERTEX
  8
0
 10
20.0026
 20
10.4607
 30
0.0
 40
0.186065
 41
0.186065
  0
VERTEX
  8
0
 10
19.9103
 20
9.94129
 30
0.0
 40
0.186065
 41
0.186065
  0
VERTEX
  8
0
 10
19.826
 20
9.42437
 30
0.0
 40
0.186065
 41
0.186065
  0
VERTEX
  8
0
 10
19.7503
 20
8.9114
 30
0.0
 40
0.186065
 41
0.186065
  0
VERTEX
  8
0
 10
19.6842
 20
8.40381
 30
0.0
 40
0.186065
 41
0.186065
  0
VERTEX
  8
0
 10
19.6285
 20
7.90315
 30
0.0
 40
0.186065
 41
0.186065
  0
VERTEX
  8
0
 10
19.5838
 20
7.41097
 30
0.0
 40
0.186065
 41
0.186065
  0
VERTEX
  8
0
 10
19.5511
 20
6.92876
 30
0.0
 40
0.186065
 41
0.186065
  0
VERTEX
  8
0
 10
19.531
 20
6.45801
 30
0.0
 40
0.186065
 41
0.186065
  0
VERTEX
  8
0
 10
19.5246
 20
6.00022
 30
0.0
 40
0.186065
 41
0.186065
  0
VERTEX
  8
0
 10
19.5324
 20
5.55692
 30
0.0
 40
0.186065
 41
0.186065
  0
VERTEX
  8
0
 10
19.5553
 20
5.12961
 30
0.0
 40
0.186065
 41
0.186065
  0
VERTEX
  8
0
 10
19.5943
 20
4.71978
 30
0.0
 40
0.186065
 41
0.186065
  0
VERTEX
  8
0
 10
19.6499
 20
4.329
 30
0.0
 40
0.186065
 41
0.186065
  0
VERTEX
  8
0
 10
19.7229
 20
3.95871
 30
0.0
 40
0.186065
 41
0.186065
  0
VERTEX
  8
0
 10
19.8143
 20
3.61046
 30
0.0
 40
0.186065
 41
0.186065
  0
VERTEX
  8
0
 10
19.9606
 20
3.18457
 30
0.0
 40
0.186065
 41
0.186065
  0
VERTEX
  8
0
 10
20.1349
 20
2.78614
 30
0.0
 40
0.186065
 41
0.186065
  0
VERTEX
  8
0
 10
20.3354
 20
2.41515
 30
0.0
 40
0.186065
 41
0.186065
  0
VERTEX
  8
0
 10
20.5601
 20
2.07167
 30
0.0
 40
0.186065
 41
0.186065
  0
VERTEX
  8
0
 10
20.8074
 20
1.75564
 30
0.0
 40
0.186065
 41
0.186065
  0
VERTEX
  8
0
 10
21.0751
 20
1.46713
 30
0.0
 40
0.186065
 41
0.186065
  0
VERTEX
  8
0
 10
21.3615
 20
1.20605
 30
0.0
 40
0.186065
 41
0.186065
  0
VERTEX
  8
0
 10
21.6647
 20
0.972493
 30
0.0
 40
0.186065
 41
0.186065
  0
VERTEX
  8
0
 10
21.9828
 20
0.766385
 30
0.0
 40
0.186065
 41
0.186065
  0
VERTEX
  8
0
 10
22.314
 20
0.587782
 30
0.0
 40
0.186065
 41
0.186065
  0
VERTEX
  8
0
 10
22.6563
 20
0.436632
 30
0.0
 40
0.186065
 41
0.186065
  0
VERTEX
  8
0
 10
23.0081
 20
0.312933
 30
0.0
 40
0.186065
 41
0.186065
  0
VERTEX
  8
0
 10
23.3671
 20
0.216797
 30
0.0
 40
0.186065
 41
0.186065
  0
VERTEX
  8
0
 10
23.7319
 20
0.148058
 30
0.0
 40
0.186065
 41
0.186065
  0
VERTEX
  8
0
 10
24.1003
 20
0.106879
 30
0.0
 40
0.186065
 41
0.186065
  0
VERTEX
  8
0
 10
24.4706
 20
0.0930989
 30
0.0
 40
0.186065
 41
0.186065
  0
VERTEX
  8
0
 10
24.8408
 20
0.106825
 30
0.0
 40
0.186065
 41
0.186065
  0
VERTEX
  8
0
 10
25.209
 20
0.148058
 30
0.0
 40
0.186065
 41
0.186065
  0
VERTEX
  8
0
 10
25.5736
 20
0.216743
 30
0.0
 40
0.186065
 41
0.186065
  0
VERTEX
  8
0
 10
25.9325
 20
0.312933
 30
0.0
 40
0.186065
 41
0.186065
  0
VERTEX
  8
0
 10
26.2839
 20
0.436578
 30
0.0
 40
0.186065
 41
0.186065
  0
VERTEX
  8
0
 10
26.6258
 20
0.587728
 30
0.0
 40
0.186065
 41
0.186065
  0
VERTEX
  8
0
 10
26.9565
 20
0.766331
 30
0.0
 40
0.186065
 41
0.186065
  0
VERTEX
  8
0
 10
27.2742
 20
0.972439
 30
0.0
 40
0.186065
 41
0.186065
  0
VERTEX
  8
0
 10
27.5767
 20
1.206
 30
0.0
 40
0.186065
 41
0.186065
  0
VERTEX
  8
0
 10
27.8625
 20
1.46707
 30
0.0
 40
0.186065
 41
0.186065
  0
VERTEX
  8
0
 10
28.1294
 20
1.75558
 30
0.0
 40
0.186065
 41
0.186065
  0
VERTEX
  8
0
 10
28.3758
 20
2.07161
 30
0.0
 40
0.186065
 41
0.186065
  0
VERTEX
  8
0
 10
28.5997
 20
2.4151
 30
0.0
 40
0.186065
 41
0.186065
  0
VERTEX
  8
0
 10
28.7992
 20
2.78608
 30
0.0
 40
0.186065
 41
0.186065
  0
VERTEX
  8
0
 10
28.9725
 20
3.18457
 30
0.0
 40
0.186065
 41
0.186065
  0
VERTEX
  8
0
 10
29.1178
 20
3.61046
 30
0.0
 40
0.186065
 41
0.186065
  0
VERTEX
  8
0
 10
29.2078
 20
3.95697
 30
0.0
 40
0.186065
 41
0.186065
  0
VERTEX
  8
0
 10
29.2797
 20
4.32542
 30
0.0
 40
0.186065
 41
0.186065
  0
VERTEX
  8
0
 10
29.3342
 20
4.71419
 30
0.0
 40
0.186065
 41
0.186065
  0
VERTEX
  8
0
 10
29.3721
 20
5.12196
 30
0.0
 40
0.186065
 41
0.186065
  0
VERTEX
  8
0
 10
29.394
 20
5.5471
 30
0.0
 40
0.186065
 41
0.186065
  0
VERTEX
  8
0
 10
29.401
 20
5.98812
 30
0.0
 40
0.186065
 41
0.186065
  0
VERTEX
  8
0
 10
29.3936
 20
6.44363
 30
0.0
 40
0.186065
 41
0.186065
  0
VERTEX
  8
0
 10
29.3728
 20
6.91211
 30
0.0
 40
0.186065
 41
0.186065
  0
VERTEX
  8
0
 10
29.3393
 20
7.39199
 30
0.0
 40
0.186065
 41
0.186065
  0
VERTEX
  8
0
 10
29.294
 20
7.88183
 30
0.0
 40
0.186065
 41
0.186065
  0
VERTEX
  8
0
 10
29.2376
 20
8.38021
 30
0.0
 40
0.186065
 41
0.186065
  0
VERTEX
  8
0
 10
29.1708
 20
8.88553
 30
0.0
 40
0.186065
 41
0.186065
  0
VERTEX
  8
0
 10
29.0946
 20
9.39632
 30
0.0
 40
0.186065
 41
0.186065
  0
VERTEX
  8
0
 10
29.0097
 20
9.91114
 30
0.0
 40
0.186065
 41
0.186065
  0
VERTEX
  8
0
 10
28.9168
 20
10.4284
 30
0.0
 40
0.186065
 41
0.186065
  0
VERTEX
  8
0
 10
28.8168
 20
10.9468
 30
0.0
 40
0.186065
 41
0.186065
  0
VERTEX
  8
0
 10
28.7104
 20
11.4647
 30
0.0
 40
0.186065
 41
0.186065
  0
VERTEX
  8
0
 10
28.5985
 20
11.9806
 30
0.0
 40
0.186065
 41
0.186065
  0
VERTEX
  8
0
 10
28.4819
 20
12.493
 30
0.0
 40
0.186065
 41
0.186065
  0
VERTEX
  8
0
 10
28.3613
 20
13.0005
 30
0.0
 40
0.186065
 41
0.186065
  0
VERTEX
  8
0
 10
28.2375
 20
13.5016
 30
0.0
 40
0.186065
 41
0.186065
  0
VERTEX
  8
0
 10
28.1113
 20
13.9947
 30
0.0
 40
0.186065
 41
0.186065
  0
VERTEX
  8
0
 10
27.9835
 20
14.4785
 30
0.0
 40
0.186065
 41
0.186065
  0
VERTEX
  8
0
 10
27.8549
 20
14.9512
 30
0.0
 40
0.186065
 41
0.186065
  0
VERTEX
  8
0
 10
27.7264
 20
15.4117
 30
0.0
 40
0.186065
 41
0.186065
  0
VERTEX
  8
0
 10
27.5986
 20
15.8582
 30
0.0
 40
0.186065
 41
0.186065
  0
VERTEX
  8
0
 10
27.4724
 20
16.2893
 30
0.0
 40
0.186065
 41
0.186065
  0
VERTEX
  8
0
 10
27.3485
 20
16.7035
 30
0.0
 40
0.186065
 41
0.186065
  0
VERTEX
  8
0
 10
27.2278
 20
17.0994
 30
0.0
 40
0.186065
 41
0.186065
  0
VERTEX
  8
0
 10
27.1111
 20
17.4754
 30
0.0
 40
0.186065
 41
0.186065
  0
VERTEX
  8
0
 10
26.9992
 20
17.8301
 30
0.0
 40
0.186065
 41
0.186065
  0
VERTEX
  8
0
 10
26.8926
 20
18.1619
 30
0.0
 40
0.186065
 41
0.186065
  0
VERTEX
  8
0
 10
27.2321
 20
18.3076
 30
0.0
 40
0.186065
 41
0.186065
  0
VERTEX
  8
0
 10
27.3893
 20
18.0028
 30
0.0
 40
0.186065
 41
0.186065
  0
VERTEX
  8
0
 10
27.5592
 20
17.6768
 30
0.0
 40
0.186065
 41
0.186065
  0
VERTEX
  8
0
 10
27.7411
 20
17.3317
 30
0.0
 40
0.186065
 41
0.186065
  0
VERTEX
  8
0
 10
27.9349
 20
16.9689
 30
0.0
 40
0.186065
 41
0.186065
  0
VERTEX
  8
0
 10
28.1396
 20
16.59
 30
0.0
 40
0.186065
 41
0.186065
  0
VERTEX
  8
0
 10
28.355
 20
16.1971
 30
0.0
 40
0.186065
 41
0.186065
  0
VERTEX
  8
0
 10
28.5806
 20
15.7914
 30
0.0
 40
0.186065
 41
0.186065
  0
VERTEX
  8
0
 10
28.8157
 20
15.3747
 30
0.0
 40
0.186065
 41
0.186065
  0
VERTEX
  8
0
 10
29.06
 20
14.9486
 30
0.0
 40
0.186065
 41
0.186065
  0
VERTEX
  8
0
 10
29.3128
 20
14.515
 30
0.0
 40
0.186065
 41
0.186065
  0
VERTEX
  8
0
 10
29.5738
 20
14.0754
 30
0.0
 40
0.186065
 41
0.186065
  0
VERTEX
  8
0
 10
29.8422
 20
13.6313
 30
0.0
 40
0.186065
 41
0.186065
  0
VERTEX
  8
0
 10
30.1178
 20
13.1847
 30
0.0
 40
0.186065
 41
0.186065
  0
VERTEX
  8
0
 10
30.3999
 20
12.7369
 30
0.0
 40
0.186065
 41
0.186065
  0
VERTEX
  8
0
 10
30.6881
 20
12.2898
 30
0.0
 40
0.186065
 41
0.186065
  0
VERTEX
  8
0
 10
30.9817
 20
11.845
 30
0.0
 40
0.186065
 41
0.186065
  0
VERTEX
  8
0
 10
31.2804
 20
11.4041
 30
0.0
 40
0.186065
 41
0.186065
  0
VERTEX
  8
0
 10
31.5836
 20
10.9688
 30
0.0
 40
0.186065
 41
0.186065
  0
VERTEX
  8
0
 10
31.8908
 20
10.5408
 30
0.0
 40
0.186065
 41
0.186065
  0
VERTEX
  8
0
 10
32.2014
 20
10.1217
 30
0.0
 40
0.186065
 41
0.186065
  0
VERTEX
  8
0
 10
32.5151
 20
9.71317
 30
0.0
 40
0.186065
 41
0.186065
  0
VERTEX
  8
0
 10
32.8313
 20
9.31689
 30
0.0
 40
0.186065
 41
0.186065
  0
VERTEX
  8
0
 10
33.1493
 20
8.93446
 30
0.0
 40
0.186065
 41
0.186065
  0
VERTEX
  8
0
 10
33.4689
 20
8.5676
 30
0.0
 40
0.186065
 41
0.186065
  0
VERTEX
  8
0
 10
33.7893
 20
8.21793
 30
0.0
 40
0.186065
 41
0.186065
  0
VERTEX
  8
0
 10
34.1103
 20
7.88715
 30
0.0
 40
0.186065
 41
0.186065
  0
VERTEX
  8
0
 10
34.4311
 20
7.57693
 30
0.0
 40
0.186065
 41
0.186065
  0
VERTEX
  8
0
 10
34.7513
 20
7.28885
 30
0.0
 40
0.186065
 41
0.186065
  0
VERTEX
  8
0
 10
35.0704
 20
7.02463
 30
0.0
 40
0.186065
 41
0.186065
  0
VERTEX
  8
0
 10
35.3879
 20
6.78586
 30
0.0
 40
0.186065
 41
0.186065
  0
VERTEX
  8
0
 10
35.7033
 20
6.57428
 30
0.0
 40
0.186065
 41
0.186065
  0
VERTEX
  8
0
 10
36.0161
 20
6.3915
 30
0.0
 40
0.186065
 41
0.186065
  0
VERTEX
  8
0
 10
36.4207
 20
6.19379
 30
0.0
 40
0.186065
 41
0.186065
  0
VERTEX
  8
0
 10
36.8257
 20
6.03532
 30
0.0
 40
0.186065
 41
0.186065
  0
VERTEX
  8
0
 10
37.2297
 20
5.91471
 30
0.0
 40
0.186065
 41
0.186065
  0
VERTEX
  8
0
 10
37.6315
 20
5.83078
 30
0.0
 40
0.186065
 41
0.186065
  0
VERTEX
  8
0
 10
38.0297
 20
5.78211
 30
0.0
 40
0.186065
 41
0.186065
  0
VERTEX
  8
0
 10
38.4231
 20
5.76736
 30
0.0
 40
0.186065
 41
0.186065
  0
VERTEX
  8
0
 10
38.8103
 20
5.78532
 30
0.0
 40
0.186065
 41
0.186065
  0
VERTEX
  8
0
 10
39.1897
 20
5.83453
 30
0.0
 40
0.186065
 41
0.186065
  0
VERTEX
  8
0
 10
39.5604
 20
5.91374
 30
0.0
 40
0.186065
 41
0.186065
  0
VERTEX
  8
0
 10
39.921
 20
6.02165
 30
0.0
 40
0.186065
 41
0.186065
  0
VERTEX
  8
0
 10
40.2699
 20
6.1569
 30
0.0
 40
0.186065
 41
0.186065
  0
VERTEX
  8
0
 10
40.606
 20
6.31814
 30
0.0
 40
0.186065
 41
0.186065
  0
VERTEX
  8
0
 10
40.9279
 20
6.50407
 30
0.0
 40
0.186065
 41
0.186065
  0
VERTEX
  8
0
 10
41.2344
 20
6.71343
 30
0.0
 40
0.186065
 41
0.186065
  0
VERTEX
  8
0
 10
41.524
 20
6.94482
 30
0.0
 40
0.186065
 41
0.186065
  0
VERTEX
  8
0
 10
41.7956
 20
7.19689
 30
0.0
 40
0.186065
 41
0.186065
  0
VERTEX
  8
0
 10
42.0476
 20
7.46843
 30
0.0
 40
0.186065
 41
0.186065
  0
VERTEX
  8
0
 10
42.2789
 20
7.75803
 30
0.0
 40
0.186065
 41
0.186065
  0
VERTEX
  8
0
 10
42.4881
 20
8.0644
 30
0.0
 40
0.186065
 41
0.186065
  0
VERTEX
  8
0
 10
42.6739
 20
8.38618
 30
0.0
 40
0.186065
 41
0.186065
  0
VERTEX
  8
0
 10
42.8349
 20
8.72211
 30
0.0
 40
0.186065
 41
0.186065
  0
VERTEX
  8
0
 10
42.9699
 20
9.07081
 30
0.0
 40
0.186065
 41
0.186065
  0
VERTEX
  8
0
 10
43.0774
 20
9.43099
 30
0.0
 40
0.186065
 41
0.186065
  0
VERTEX
  8
0
 10
43.1563
 20
9.80126
 30
0.0
 40
0.186065
 41
0.186065
  0
VERTEX
  8
0
 10
43.205
 20
10.1804
 30
0.0
 40
0.186065
 41
0.186065
  0
VERTEX
  8
0
 10
43.2225
 20
10.5671
 30
0.0
 40
0.186065
 41
0.186065
  0
VERTEX
  8
0
 10
43.2072
 20
10.9599
 30
0.0
 40
0.186065
 41
0.186065
  0
VERTEX
  8
0
 10
43.1579
 20
11.3576
 30
0.0
 40
0.186065
 41
0.186065
  0
VERTEX
  8
0
 10
43.0733
 20
11.7588
 30
0.0
 40
0.186065
 41
0.186065
  0
VERTEX
  8
0
 10
42.9521
 20
12.1622
 30
0.0
 40
0.186065
 41
0.186065
  0
VERTEX
  8
0
 10
42.7929
 20
12.5665
 30
0.0
 40
0.186065
 41
0.186065
  0
VERTEX
  8
0
 10
42.5944
 20
12.9703
 30
0.0
 40
0.186065
 41
0.186065
  0
VERTEX
  8
0
 10
42.4114
 20
13.2817
 30
0.0
 40
0.186065
 41
0.186065
  0
VERTEX
  8
0
 10
42.1997
 20
13.5957
 30
0.0
 40
0.186065
 41
0.186065
  0
VERTEX
  8
0
 10
41.9608
 20
13.9117
 30
0.0
 40
0.186065
 41
0.186065
  0
VERTEX
  8
0
 10
41.6967
 20
14.2294
 30
0.0
 40
0.186065
 41
0.186065
  0
VERTEX
  8
0
 10
41.4085
 20
14.5481
 30
0.0
 40
0.186065
 41
0.186065
  0
VERTEX
  8
0
 10
41.0982
 20
14.8674
 30
0.0
 40
0.186065
 41
0.186065
  0
VERTEX
  8
0
 10
40.7675
 20
15.1868
 30
0.0
 40
0.186065
 41
0.186065
  0
VERTEX
  8
0
 10
40.4179
 20
15.5057
 30
0.0
 40
0.186065
 41
0.186065
  0
VERTEX
  8
0
 10
40.0511
 20
15.8238
 30
0.0
 40
0.186065
 41
0.186065
  0
VERTEX
  8
0
 10
39.6687
 20
16.1404
 30
0.0
 40
0.186065
 41
0.186065
  0
VERTEX
  8
0
 10
39.2725
 20
16.455
 30
0.0
 40
0.186065
 41
0.186065
  0
VERTEX
  8
0
 10
38.8639
 20
16.7671
 30
0.0
 40
0.186065
 41
0.186065
  0
VERTEX
  8
0
 10
38.4449
 20
17.0764
 30
0.0
 40
0.186065
 41
0.186065
  0
VERTEX
  8
0
 10
38.0167
 20
17.3822
 30
0.0
 40
0.186065
 41
0.186065
  0
VERTEX
  8
0
 10
37.5814
 20
17.684
 30
0.0
 40
0.186065
 41
0.186065
  0
VERTEX
  8
0
 10
37.1404
 20
17.9814
 30
0.0
 40
0.186065
 41
0.186065
  0
VERTEX
  8
0
 10
36.6954
 20
18.2737
 30
0.0
 40
0.186065
 41
0.186065
  0
VERTEX
  8
0
 10
36.2481
 20
18.5606
 30
0.0
 40
0.186065
 41
0.186065
  0
VERTEX
  8
0
 10
35.8
 20
18.8415
 30
0.0
 40
0.186065
 41
0.186065
  0
VERTEX
  8
0
 10
35.3529
 20
19.116
 30
0.0
 40
0.186065
 41
0.186065
  0
VERTEX
  8
0
 10
34.9085
 20
19.3835
 30
0.0
 40
0.186065
 41
0.186065
  0
VERTEX
  8
0
 10
34.4682
 20
19.6433
 30
0.0
 40
0.186065
 41
0.186065
  0
VERTEX
  8
0
 10
34.0339
 20
19.8953
 30
0.0
 40
0.186065
 41
0.186065
  0
VERTEX
  8
0
 10
33.6072
 20
20.1388
 30
0.0
 40
0.186065
 41
0.186065
  0
VERTEX
  8
0
 10
33.1897
 20
20.3733
 30
0.0
 40
0.186065
 41
0.186065
  0
VERTEX
  8
0
 10
32.7831
 20
20.5982
 30
0.0
 40
0.186065
 41
0.186065
  0
VERTEX
  8
0
 10
32.3889
 20
20.8132
 30
0.0
 40
0.186065
 41
0.186065
  0
VERTEX
  8
0
 10
32.0089
 20
21.0175
 30
0.0
 40
0.186065
 41
0.186065
  0
VERTEX
  8
0
 10
31.6449
 20
21.211
 30
0.0
 40
0.186065
 41
0.186065
  0
VERTEX
  8
0
 10
31.2982
 20
21.3928
 30
0.0
 40
0.186065
 41
0.186065
  0
VERTEX
  8
0
 10
30.9707
 20
21.5626
 30
0.0
 40
0.186065
 41
0.186065
  0
VERTEX
  8
0
 10
30.6639
 20
21.7199
 30
0.0
 40
0.186065
 41
0.186065
  0
VERTEX
  8
0
 10
30.8008
 20
22.0517
 30
0.0
 40
0.186065
 41
0.186065
  0
VERTEX
  8
0
 10
31.1237
 20
21.9479
 30
0.0
 40
0.186065
 41
0.186065
  0
VERTEX
  8
0
 10
31.4712
 20
21.8382
 30
0.0
 40
0.186065
 41
0.186065
  0
VERTEX
  8
0
 10
31.8417
 20
21.7231
 30
0.0
 40
0.186065
 41
0.186065
  0
VERTEX
  8
0
 10
32.2333
 20
21.6035
 30
0.0
 40
0.186065
 41
0.186065
  0
VERTEX
  8
0
 10
32.6449
 20
21.4803
 30
0.0
 40
0.186065
 41
0.186065
  0
VERTEX
  8
0
 10
33.0746
 20
21.3542
 30
0.0
 40
0.186065
 41
0.186065
  0
VERTEX
  8
0
 10
33.521
 20
21.2263
 30
0.0
 40
0.186065
 41
0.186065
  0
VERTEX
  8
0
 10
33.9824
 20
21.0971
 30
0.0
 40
0.186065
 41
0.186065
  0
VERTEX
  8
0
 10
34.4574
 20
20.9676
 30
0.0
 40
0.186065
 41
0.186065
  0
VERTEX
  8
0
 10
34.9442
 20
20.8388
 30
0.0
 40
0.186065
 41
0.186065
  0
VERTEX
  8
0
 10
35.4414
 20
20.7111
 30
0.0
 40
0.186065
 41
0.186065
  0
VERTEX
  8
0
 10
35.9474
 20
20.5857
 30
0.0
 40
0.186065
 41
0.186065
  0
VERTEX
  8
0
 10
36.4607
 20
20.4633
 30
0.0
 40
0.186065
 41
0.186065
  0
VERTEX
  8
0
 10
36.9797
 20
20.3447
 30
0.0
 40
0.186065
 41
0.186065
  0
VERTEX
  8
0
 10
37.5028
 20
20.2308
 30
0.0
 40
0.186065
 41
0.186065
  0
VERTEX
  8
0
 10
38.0283
 20
20.1225
 30
0.0
 40
0.186065
 41
0.186065
  0
VERTEX
  8
0
 10
38.5549
 20
20.0206
 30
0.0
 40
0.186065
 41
0.186065
  0
VERTEX
  8
0
 10
39.0808
 20
19.9256
 30
0.0
 40
0.186065
 41
0.186065
  0
VERTEX
  8
0
 10
39.6047
 20
19.8388
 30
0.0
 40
0.186065
 41
0.186065
  0
VERTEX
  8
0
 10
40.1249
 20
19.7607
 30
0.0
 40
0.186065
 41
0.186065
  0
VERTEX
  8
0
 10
40.6397
 20
19.6922
 30
0.0
 40
0.186065
 41
0.186065
  0
VERTEX
  8
0
 10
41.1476
 20
19.6343
 30
0.0
 40
0.186065
 41
0.186065
  0
VERTEX
  8
0
 10
41.6472
 20
19.5876
 30
0.0
 40
0.186065
 41
0.186065
  0
VERTEX
  8
0
 10
42.1367
 20
19.5532
 30
0.0
 40
0.186065
 41
0.186065
  0
VERTEX
  8
0
 10
42.6147
 20
19.5318
 30
0.0
 40
0.186065
 41
0.186065
  0
VERTEX
  8
0
 10
43.0796
 20
19.524
 30
0.0
 40
0.186065
 41
0.186065
  0
VERTEX
  8
0
 10
43.5297
 20
19.531
 30
0.0
 40
0.186065
 41
0.186065
  0
VERTEX
  8
0
 10
43.9637
 20
19.5533
 30
0.0
 40
0.186065
 41
0.186065
  0
VERTEX
  8
0
 10
44.3799
 20
19.5921
 30
0.0
 40
0.186065
 41
0.186065
  0
VERTEX
  8
0
 10
44.7765
 20
19.6479
 30
0.0
 40
0.186065
 41
0.186065
  0
VERTEX
  8
0
 10
45.1522
 20
19.7217
 30
0.0
 40
0.186065
 41
0.186065
  0
VERTEX
  8
0
 10
45.5056
 20
19.8143
 30
0.0
 40
0.186065
 41
0.186065
  0
VERTEX
  8
0
 10
45.9315
 20
19.9606
 30
0.0
 40
0.186065
 41
0.186065
  0
VERTEX
  8
0
 10
46.33
 20
20.1349
 30
0.0
 40
0.186065
 41
0.186065
  0
VERTEX
  8
0
 10
46.701
 20
20.3354
 30
0.0
 40
0.186065
 41
0.186065
  0
VERTEX
  8
0
 10
47.0444
 20
20.5601
 30
0.0
 40
0.186065
 41
0.186065
  0
VERTEX
  8
0
 10
47.3604
 20
20.8074
 30
0.0
 40
0.186065
 41
0.186065
  0
VERTEX
  8
0
 10
47.649
 20
21.075
 30
0.0
 40
0.186065
 41
0.186065
  0
VERTEX
  8
0
 10
47.91
 20
21.3614
 30
0.0
 40
0.186065
 41
0.186065
  0
VERTEX
  8
0
 10
48.1436
 20
21.6646
 30
0.0
 40
0.186065
 41
0.186065
  0
VERTEX
  8
0
 10
48.3497
 20
21.9828
 30
0.0
 40
0.186065
 41
0.186065
  0
VERTEX
  8
0
 10
48.5283
 20
22.3139
 30
0.0
 40
0.186065
 41
0.186065
  0
VERTEX
  8
0
 10
48.6794
 20
22.6563
 30
0.0
 40
0.186065
 41
0.186065
  0
VERTEX
  8
0
 10
48.8032
 20
23.0079
 30
0.0
 40
0.186065
 41
0.186065
  0
VERTEX
  8
0
 10
48.8993
 20
23.3671
 30
0.0
 40
0.186065
 41
0.186065
  0
VERTEX
  8
0
 10
48.9681
 20
23.7318
 30
0.0
 40
0.186065
 41
0.186065
  0
VERTEX
  8
0
 10
49.0093
 20
24.1003
 30
0.0
 40
0.186065
 41
0.186065
  0
VERTEX
  8
0
 10
49.0231
 20
24.4706
 30
0.0
 40
0.186065
 41
0.186065
  0
VERTEX
  8
0
 10
49.0093
 20
24.8407
 30
0.0
 40
0.186065
 41
0.186065
  0
VERTEX
  8
0
 10
48.9681
 20
25.209
 30
0.0
 40
0.186065
 41
0.186065
  0
VERTEX
  8
0
 10
48.8993
 20
25.5736
 30
0.0
 40
0.186065
 41
0.186065
  0
VERTEX
  8
0
 10
48.8032
 20
25.9325
 30
0.0
 40
0.186065
 41
0.186065
  0
VERTEX
  8
0
 10
48.6796
 20
26.2838
 30
0.0
 40
0.186065
 41
0.186065
  0
VERTEX
  8
0
 10
48.5283
 20
26.6258
 30
0.0
 40
0.186065
 41
0.186065
  0
VERTEX
  8
0
 10
48.3497
 20
26.9565
 30
0.0
 40
0.186065
 41
0.186065
  0
VERTEX
  8
0
 10
48.1436
 20
27.274
 30
0.0
 40
0.186065
 41
0.186065
  0
VERTEX
  8
0
 10
47.91
 20
27.5767
 30
0.0
 40
0.186065
 41
0.186065
  0
VERTEX
  8
0
 10
47.649
 20
27.8624
 30
0.0
 40
0.186065
 41
0.186065
  0
VERTEX
  8
0
 10
47.3604
 20
28.1294
 30
0.0
 40
0.186065
 41
0.186065
  0
VERTEX
  8
0
 10
47.0444
 20
28.3757
 30
0.0
 40
0.186065
 41
0.186065
  0
VERTEX
  8
0
 10
46.701
 20
28.5997
 30
0.0
 40
0.186065
 41
0.186065
  0
VERTEX
  8
0
 10
46.33
 20
28.7992
 30
0.0
 40
0.186065
 41
0.186065
  0
VERTEX
  8
0
 10
45.9315
 20
28.9725
 30
0.0
 40
0.186065
 41
0.186065
  0
VERTEX
  8
0
 10
45.5056
 20
29.1176
 30
0.0
 40
0.186065
 41
0.186065
  0
VERTEX
  8
0
 10
45.154
 20
29.209
 30
0.0
 40
0.186065
 41
0.186065
  0
VERTEX
  8
0
 10
44.78
 20
29.2815
 30
0.0
 40
0.186065
 41
0.186065
  0
VERTEX
  8
0
 10
44.3853
 20
29.3362
 30
0.0
 40
0.186065
 41
0.186065
  0
VERTEX
  8
0
 10
43.9712
 20
29.374
 30
0.0
 40
0.186065
 41
0.186065
  0
VERTEX
  8
0
 10
43.5394
 20
29.3954
 30
0.0
 40
0.186065
 41
0.186065
  0
VERTEX
  8
0
 10
43.0914
 20
29.4015
 30
0.0
 40
0.186065
 41
0.186065
  0
VERTEX
  8
0
 10
42.6288
 20
29.3929
 30
0.0
 40
0.186065
 41
0.186065
  0
VERTEX
  8
0
 10
42.1531
 20
29.3707
 30
0.0
 40
0.186065
 41
0.186065
  0
VERTEX
  8
0
 10
41.6658
 20
29.3354
 30
0.0
 40
0.186065
 41
0.186065
  0
VERTEX
  8
0
 10
41.1686
 20
29.2882
 30
0.0
 40
0.186065
 41
0.186065
  0
VERTEX
  8
0
 10
40.6629
 20
29.2296
 30
0.0
 40
0.186065
 41
0.186065
  0
VERTEX
  8
0
 10
40.1503
 20
29.1604
 30
0.0
 40
0.186065
 41
0.186065
  0
VERTEX
  8
0
 10
39.6324
 20
29.0818
 30
0.0
 40
0.186065
 41
0.186065
  0
VERTEX
  8
0
 10
39.1106
 20
28.9943
 30
0.0
 40
0.186065
 41
0.186065
  0
VERTEX
  8
0
 10
38.5865
 20
28.8987
 30
0.0
 40
0.186065
 41
0.186065
  0
VERTEX
  8
0
 10
38.0619
 20
28.7961
 30
0.0
 40
0.186065
 41
0.186065
  0
VERTEX
  8
0
 10
37.5381
 20
28.6872
 30
0.0
 40
0.186065
 41
0.186065
  0
VERTEX
  8
0
 10
37.0165
 20
28.5728
 30
0.0
 40
0.186065
 41
0.186065
  0
VERTEX
  8
0
 10
36.499
 20
28.4536
 30
0.0
 40
0.186065
 41
0.186065
  0
VERTEX
  8
0
 10
35.9869
 20
28.3306
 30
0.0
 40
0.186065
 41
0.186065
  0
VERTEX
  8
0
 10
35.4819
 20
28.2044
 30
0.0
 40
0.186065
 41
0.186065
  0
VERTEX
  8
0
 10
34.9856
 20
28.0761
 30
0.0
 40
0.186065
 41
0.186065
  0
VERTEX
  8
0
 10
34.4992
 20
27.9465
 30
0.0
 40
0.186065
 41
0.186065
  0
VERTEX
  8
0
 10
34.0246
 20
27.8163
 30
0.0
 40
0.186065
 41
0.186065
  0
VERTEX
  8
0
 10
33.5632
 20
27.6863
 30
0.0
 40
0.186065
 41
0.186065
  0
VERTEX
  8
0
 10
33.1165
 20
27.5574
 30
0.0
 40
0.186065
 41
0.186065
  0
VERTEX
  8
0
 10
32.6862
 20
27.4303
 30
0.0
 40
0.186065
 41
0.186065
  0
VERTEX
  8
0
 10
32.2737
 20
27.3061
 30
0.0
 40
0.186065
 41
0.186065
  0
VERTEX
  8
0
 10
31.8807
 20
27.1853
 30
0.0
 40
0.186065
 41
0.186065
  0
VERTEX
  8
0
 10
31.5086
 20
27.0689
 30
0.0
 40
0.186065
 41
0.186065
  0
VERTEX
  8
0
 10
31.159
 20
26.9578
 30
0.0
 40
0.186065
 41
0.186065
  0
VERTEX
  8
0
 10
30.8336
 20
26.8526
 30
0.0
 40
0.186065
 41
0.186065
  0
VERTEX
  8
0
 10
30.6988
 20
27.1767
 30
0.0
 40
0.186065
 41
0.186065
  0
VERTEX
  8
0
 10
30.9981
 20
27.3303
 30
0.0
 40
0.186065
 41
0.186065
  0
VERTEX
  8
0
 10
31.3194
 20
27.4969
 30
0.0
 40
0.186065
 41
0.186065
  0
VERTEX
  8
0
 10
31.6613
 20
27.6764
 30
0.0
 40
0.186065
 41
0.186065
  0
VERTEX
  8
0
 10
32.0218
 20
27.8679
 30
0.0
 40
0.186065
 41
0.186065
  0
VERTEX
  8
0
 10
32.3994
 20
28.071
 30
0.0
 40
0.186065
 41
0.186065
  0
VERTEX
  8
0
 10
32.7924
 20
28.2853
 30
0.0
 40
0.186065
 41
0.186065
  0
VERTEX
  8
0
 10
33.1986
 20
28.51
 30
0.0
 40
0.186065
 41
0.186065
  0
VERTEX
  8
0
 10
33.6169
 20
28.7449
 30
0.0
 40
0.186065
 41
0.186065
  0
VERTEX
  8
0
 10
34.0453
 20
28.9892
 30
0.0
 40
0.186065
 41
0.186065
  0
VERTEX
  8
0
 10
34.4819
 20
29.2425
 30
0.0
 40
0.186065
 41
0.186065
  0
VERTEX
  8
0
 10
34.9253
 20
29.5042
 30
0.0
 40
0.186065
 41
0.186065
  0
VERTEX
  8
0
 10
35.3736
 20
29.7739
 30
0.0
 40
0.186065
 41
0.186065
  0
VERTEX
  8
0
 10
35.8251
 20
30.051
 30
0.0
 40
0.186065
 41
0.186065
  0
VERTEX
  8
0
 10
36.2781
 20
30.3349
 30
0.0
 40
0.186065
 41
0.186065
  0
VERTEX
  8
0
 10
36.7308
 20
30.625
 30
0.0
 40
0.186065
 41
0.186065
  0
VERTEX
  8
0
 10
37.1817
 20
30.9211
 30
0.0
 40
0.186065
 41
0.186065
  0
VERTEX
  8
0
 10
37.6289
 20
31.2225
 30
0.0
 40
0.186065
 41
0.186065
  0
VERTEX
  8
0
 10
38.0707
 20
31.5285
 30
0.0
 40
0.186065
 41
0.186065
  0
VERTEX
  8
0
 10
38.5053
 20
31.8387
 30
0.0
 40
0.186065
 41
0.186065
  0
VERTEX
  8
0
 10
38.9311
 20
32.1528
 30
0.0
 40
0.186065
 41
0.186065
  0
VERTEX
  8
0
 10
39.3462
 20
32.4699
 30
0.0
 40
0.186065
 41
0.186065
  0
VERTEX
  8
0
 10
39.7493
 20
32.7897
 30
0.0
 40
0.186065
 41
0.186065
  0
VERTEX
  8
0
 10
40.1382
 20
33.1115
 30
0.0
 40
0.186065
 41
0.186065
  0
VERTEX
  8
0
 10
40.5115
 20
33.435
 30
0.0
 40
0.186065
 41
0.186065
  0
VERTEX
  8
0
 10
40.8674
 20
33.7594
 30
0.0
 40
0.186065
 41
0.186065
  0
VERTEX
  8
0
 10
41.2039
 20
34.0846
 30
0.0
 40
0.186065
 41
0.186065
  0
VERTEX
  8
0
 10
41.5196
 20
34.4096
 30
0.0
 40
0.186065
 41
0.186065
  0
VERTEX
  8
0
 10
41.8128
 20
34.734
 30
0.0
 40
0.186065
 41
0.186065
  0
VERTEX
  8
0
 10
42.0815
 20
35.0575
 30
0.0
 40
0.186065
 41
0.186065
  0
VERTEX
  8
0
 10
42.3243
 20
35.3793
 30
0.0
 40
0.186065
 41
0.186065
  0
VERTEX
  8
0
 10
42.5392
 20
35.6989
 30
0.0
 40
0.186065
 41
0.186065
  0
VERTEX
  8
0
 10
42.7247
 20
36.016
 30
0.0
 40
0.186065
 41
0.186065
  0
VERTEX
  8
0
 10
42.9224
 20
36.4207
 30
0.0
 40
0.186065
 41
0.186065
  0
VERTEX
  8
0
 10
43.0808
 20
36.8257
 30
0.0
 40
0.186065
 41
0.186065
  0
VERTEX
  8
0
 10
43.2014
 20
37.2297
 30
0.0
 40
0.186065
 41
0.186065
  0
VERTEX
  8
0
 10
43.2854
 20
37.6315
 30
0.0
 40
0.186065
 41
0.186065
  0
VERTEX
  8
0
 10
43.334
 20
38.0297
 30
0.0
 40
0.186065
 41
0.186065
  0
VERTEX
  8
0
 10
43.3488
 20
38.4231
 30
0.0
 40
0.186065
 41
0.186065
  0
VERTEX
  8
0
 10
43.3308
 20
38.8103
 30
0.0
 40
0.186065
 41
0.186065
  0
VERTEX
  8
0
 10
43.2817
 20
39.1897
 30
0.0
 40
0.186065
 41
0.186065
  0
VERTEX
  8
0
 10
43.2024
 20
39.5604
 30
0.0
 40
0.186065
 41
0.186065
  0
VERTEX
  8
0
 10
43.0946
 20
39.9208
 30
0.0
 40
0.186065
 41
0.186065
  0
VERTEX
  8
0
 10
42.9593
 20
40.2699
 30
0.0
 40
0.186065
 41
0.186065
  0
VERTEX
  8
0
 10
42.7981
 20
40.606
 30
0.0
 40
0.186065
 41
0.186065
  0
VERTEX
  8
0
 10
42.6122
 20
40.9279
 30
0.0
 40
0.186065
 41
0.186065
  0
VERTEX
  8
0
 10
42.4029
 20
41.2344
 30
0.0
 40
0.186065
 41
0.186065
  0
VERTEX
  8
0
 10
42.1715
 20
41.524
 30
0.0
 40
0.186065
 41
0.186065
  0
VERTEX
  8
0
 10
41.9194
 20
41.7956
 30
0.0
 40
0.186065
 41
0.186065
  0
VERTEX
  8
0
 10
41.6479
 20
42.0476
 30
0.0
 40
0.186065
 41
0.186065
  0
VERTEX
  8
0
 10
41.3583
 20
42.2789
 30
0.0
 40
0.186065
 41
0.186065
  0
VERTEX
  8
0
 10
41.0521
 20
42.4881
 30
0.0
 40
0.186065
 41
0.186065
  0
VERTEX
  8
0
 10
40.7303
 20
42.6739
 30
0.0
 40
0.186065
 41
0.186065
  0
VERTEX
  8
0
 10
40.3944
 20
42.8349
 30
0.0
 40
0.186065
 41
0.186065
  0
VERTEX
  8
0
 10
40.0457
 20
42.9697
 30
0.0
 40
0.186065
 41
0.186065
  0
VERTEX
  8
0
 10
39.6856
 20
43.0774
 30
0.0
 40
0.186065
 41
0.186065
  0
VERTEX
  8
0
 10
39.3153
 20
43.1561
 30
0.0
 40
0.186065
 41
0.186065
  0
VERTEX
  8
0
 10
38.9361
 20
43.2049
 30
0.0
 40
0.186065
 41
0.186065
  0
VERTEX
  8
0
 10
38.5496
 20
43.2224
 30
0.0
 40
0.186065
 41
0.186065
  0
VERTEX
  8
0
 10
38.1568
 20
43.2071
 30
0.0
 40
0.186065
 41
0.186065
  0
VERTEX
  8
0
 10
37.759
 20
43.1579
 30
0.0
 40
0.186065
 41
0.186065
  0
VERTEX
  8
0
 10
37.3579
 20
43.0733
 30
0.0
 40
0.186065
 41
0.186065
  0
VERTEX
  8
0
 10
36.9544
 20
42.9521
 30
0.0
 40
0.186065
 41
0.186065
  0
VERTEX
  8
0
 10
36.5501
 20
42.7928
 30
0.0
 40
0.186065
 41
0.186065
  0
VERTEX
  8
0
 10
36.1464
 20
42.5943
 30
0.0
 40
0.186065
 41
0.186065
  0
VERTEX
  8
0
 10
35.8328
 20
42.4101
 30
0.0
 40
0.186065
 41
0.186065
  0
VERTEX
  8
0
 10
35.5168
 20
42.1968
 30
0.0
 40
0.186065
 41
0.186065
  0
VERTEX
  8
0
 10
35.1988
 20
41.9561
 30
0.0
 40
0.186065
 41
0.186065
  0
VERTEX
  8
0
 10
34.879
 20
41.6896
 30
0.0
 40
0.186065
 41
0.186065
  0
VERTEX
  8
0
 10
34.5583
 20
41.3992
 30
0.0
 40
0.186065
 41
0.186065
  0
VERTEX
  8
0
 10
34.2369
 20
41.0862
 30
0.0
 40
0.186065
 41
0.186065
  0
VERTEX
  8
0
 10
33.9156
 20
40.7528
 30
0.0
 40
0.186065
 41
0.186065
  0
VERTEX
  8
0
 10
33.5947
 20
40.4003
 30
0.0
 40
0.186065
 41
0.186065
  0
VERTEX
  8
0
 10
33.2749
 20
40.0304
 30
0.0
 40
0.186065
 41
0.186065
  0
VERTEX
  8
0
 10
32.9564
 20
39.6449
 30
0.0
 40
0.186065
 41
0.186065
  0
VERTEX
  8
0
 10
32.64
 20
39.2456
 30
0.0
 40
0.186065
 41
0.186065
  0
VERTEX
  8
0
 10
32.3261
 20
38.8338
 30
0.0
 40
0.186065
 41
0.186065
  0
VERTEX
  8
0
 10
32.0153
 20
38.4114
 30
0.0
 40
0.186065
 41
0.186065
  0
VERTEX
  8
0
 10
31.7081
 20
37.9803
 30
0.0
 40
0.186065
 41
0.186065
  0
VERTEX
  8
0
 10
31.4049
 20
37.5418
 30
0.0
 40
0.186065
 41
0.186065
  0
VERTEX
  8
0
 10
31.1062
 20
37.0978
 30
0.0
 40
0.186065
 41
0.186065
  0
VERTEX
  8
0
 10
30.8126
 20
36.65
 30
0.0
 40
0.186065
 41
0.186065
  0
VERTEX
  8
0
 10
30.5247
 20
36.1999
 30
0.0
 40
0.186065
 41
0.186065
  0
VERTEX
  8
0
 10
30.2429
 20
35.7493
 30
0.0
 40
0.186065
 41
0.186065
  0
VERTEX
  8
0
 10
29.9678
 20
35.3
 30
0.0
 40
0.186065
 41
0.186065
  0
VERTEX
  8
0
 10
29.6997
 20
34.8535
 30
0.0
 40
0.186065
 41
0.186065
  0
VERTEX
  8
0
 10
29.4393
 20
34.4114
 30
0.0
 40
0.186065
 41
0.186065
  0
VERTEX
  8
0
 10
29.1871
 20
33.9757
 30
0.0
 40
0.186065
 41
0.186065
  0
VERTEX
  8
0
 10
28.9436
 20
33.5478
 30
0.0
 40
0.186065
 41
0.186065
  0
VERTEX
  8
0
 10
28.7093
 20
33.1296
 30
0.0
 40
0.186065
 41
0.186065
  0
VERTEX
  8
0
 10
28.4846
 20
32.7225
 30
0.0
 40
0.186065
 41
0.186065
  0
VERTEX
  8
0
 10
28.2703
 20
32.3285
 30
0.0
 40
0.186065
 41
0.186065
  0
VERTEX
  8
0
 10
28.0665
 20
31.949
 30
0.0
 40
0.186065
 41
0.186065
  0
VERTEX
  8
0
 10
27.8742
 20
31.5858
 30
0.0
 40
0.186065
 41
0.186065
  0
VERTEX
  8
0
 10
27.6935
 20
31.2407
 30
0.0
 40
0.186065
 41
0.186065
  0
VERTEX
  8
0
 10
27.5251
 20
30.9151
 30
0.0
 40
0.186065
 41
0.186065
  0
VERTEX
  8
0
 10
27.3696
 20
30.611
 30
0.0
 40
0.186065
 41
0.186065
  0
VERTEX
  8
0
 10
27.0501
 20
30.7567
 30
0.0
 40
0.186065
 41
0.186065
  0
VERTEX
  8
0
 10
27.1532
 20
31.0771
 30
0.0
 40
0.186065
 41
0.186065
  0
VERTEX
  8
0
 10
27.2626
 20
31.4225
 30
0.0
 40
0.186065
 41
0.186065
  0
VERTEX
  8
0
 10
27.3776
 20
31.7912
 30
0.0
 40
0.186065
 41
0.186065
  0
VERTEX
  8
0
 10
27.4971
 20
32.1818
 30
0.0
 40
0.186065
 41
0.186065
  0
VERTEX
  8
0
 10
27.6204
 20
32.5925
 30
0.0
 40
0.186065
 41
0.186065
  0
VERTEX
  8
0
 10
27.7468
 20
33.0218
 30
0.0
 40
0.186065
 41
0.186065
  0
VERTEX
  8
0
 10
27.8751
 20
33.4681
 30
0.0
 40
0.186065
 41
0.186065
  0
VERTEX
  8
0
 10
28.0047
 20
33.9299
 30
0.0
 40
0.186065
 41
0.186065
  0
VERTEX
  8
0
 10
28.1347
 20
34.4054
 30
0.0
 40
0.186065
 41
0.186065
  0
VERTEX
  8
0
 10
28.2644
 20
34.8932
 30
0.0
 40
0.186065
 41
0.186065
  0
VERTEX
  8
0
 10
28.3928
 20
35.3917
 30
0.0
 40
0.186065
 41
0.186065
  0
VERTEX
  8
0
 10
28.5189
 20
35.899
 30
0.0
 40
0.186065
 41
0.186065
  0
VERTEX
  8
0
 10
28.6422
 20
36.414
 30
0.0
 40
0.186065
 41
0.186065
  0
VERTEX
  8
0
 10
28.7617
 20
36.935
 30
0.0
 40
0.186065
 41
0.186065
  0
VERTEX
  8
0
 10
28.8765
 20
37.46
 30
0.0
 40
0.186065
 41
0.186065
  0
VERTEX
  8
0
 10
28.9858
 20
37.9879
 30
0.0
 40
0.186065
 41
0.186065
  0
VERTEX
  8
0
 10
29.0889
 20
38.5169
 30
0.0
 40
0.186065
 41
0.186065
  0
VERTEX
  8
0
 10
29.1847
 20
39.0454
 30
0.0
 40
0.186065
 41
0.186065
  0
VERTEX
  8
0
 10
29.2725
 20
39.5719
 30
0.0
 40
0.186065
 41
0.186065
  0
VERTEX
  8
0
 10
29.3515
 20
40.0947
 30
0.0
 40
0.186065
 41
0.186065
  0
VERTEX
  8
0
 10
29.4208
 20
40.6122
 30
0.0
 40
0.186065
 41
0.186065
  0
VERTEX
  8
0
 10
29.4796
 20
41.1231
 30
0.0
 40
0.186065
 41
0.186065
  0
VERTEX
  8
0
 10
29.5269
 20
41.6253
 30
0.0
 40
0.186065
 41
0.186065
  0
VERTEX
  8
0
 10
29.5621
 20
42.1176
 30
0.0
 40
0.186065
 41
0.186065
  0
VERTEX
  8
0
 10
29.5842
 20
42.5985
 30
0.0
 40
0.186065
 41
0.186065
  0
VERTEX
  8
0
 10
29.5922
 20
43.066
 30
0.0
 40
0.186065
 41
0.186065
  0
VERTEX
  8
0
 10
29.5857
 20
43.5188
 30
0.0
 40
0.186065
 41
0.186065
  0
VERTEX
  8
0
 10
29.5635
 20
43.9551
 30
0.0
 40
0.186065
 41
0.186065
  0
VERTEX
  8
0
 10
29.5249
 20
44.3736
 30
0.0
 40
0.186065
 41
0.186065
  0
VERTEX
  8
0
 10
29.4689
 20
44.7726
 30
0.0
 40
0.186065
 41
0.186065
  0
VERTEX
  8
0
 10
29.3949
 20
45.1504
 30
0.0
 40
0.186065
 41
0.186065
  0
VERTEX
  8
0
 10
29.3018
 20
45.5056
 30
0.0
 40
0.186065
 41
0.186065
  0
VERTEX
  8
0
 10
29.1556
 20
45.9315
 30
0.0
 40
0.186065
 41
0.186065
  0
VERTEX
  8
0
 10
28.9812
 20
46.33
 30
0.0
 40
0.186065
 41
0.186065
  0
VERTEX
  8
0
 10
28.7807
 20
46.7008
 30
0.0
 40
0.186065
 41
0.186065
  0
VERTEX
  8
0
 10
28.556
 20
47.0444
 30
0.0
 40
0.186065
 41
0.186065
  0
VERTEX
  8
0
 10
28.3087
 20
47.3604
 30
0.0
 40
0.186065
 41
0.186065
  0
VERTEX
  8
0
 10
28.041
 20
47.649
 30
0.0
 40
0.186065
 41
0.186065
  0
VERTEX
  8
0
 10
27.7546
 20
47.91
 30
0.0
 40
0.186065
 41
0.186065
  0
VERTEX
  8
0
 10
27.4514
 20
48.1436
 30
0.0
 40
0.186065
 41
0.186065
  0
VERTEX
  8
0
 10
27.1333
 20
48.3497
 30
0.0
 40
0.186065
 41
0.186065
  0
VERTEX
  8
0
 10
26.8021
 20
48.5283
 30
0.0
 40
0.186065
 41
0.186065
  0
VERTEX
  8
0
 10
26.4597
 20
48.6794
 30
0.0
 40
0.186065
 41
0.186065
  0
VERTEX
  8
0
 10
26.1081
 20
48.8031
 30
0.0
 40
0.186065
 41
0.186065
  0
VERTEX
  8
0
 10
25.7489
 20
48.8993
 30
0.0
 40
0.186065
 41
0.186065
  0
VERTEX
  8
0
 10
25.3842
 20
48.9681
 30
0.0
 40
0.186065
 41
0.186065
  0
VERTEX
  8
0
 10
25.0158
 20
49.0092
 30
0.0
 40
0.186065
 41
0.186065
  0
VERTEX
  8
0
 10
24.6456
 20
49.0229
 30
0.0
 40
0.186065
 41
0.186065
  0
SEQEND
 8
0
  0
ENDSEC
  0
EOF
