G04 #@! TF.FileFunction,Soldermask,Bot*
%FSLAX46Y46*%
G04 Gerber Fmt 4.6, Leading zero omitted, Abs format (unit mm)*
G04 Created by KiCad (PCBNEW (2014-11-17 BZR 5289)-product) date Wed 28 Oct 2015 08:14:00 PM EDT*
%MOMM*%
G01*
G04 APERTURE LIST*
%ADD10C,0.100000*%
%ADD11C,1.998980*%
%ADD12C,3.000000*%
%ADD13R,2.032000X1.727200*%
%ADD14O,2.032000X1.727200*%
G04 APERTURE END LIST*
D10*
D11*
X147000000Y-65000000D03*
D12*
X149700020Y-67700020D03*
X149700020Y-62299980D03*
X144299980Y-62299980D03*
X144299980Y-67700020D03*
D11*
X147000000Y-75000000D03*
D12*
X149700020Y-77700020D03*
X149700020Y-72299980D03*
X144299980Y-72299980D03*
X144299980Y-77700020D03*
D11*
X147000000Y-55000000D03*
D12*
X149700020Y-57700020D03*
X149700020Y-52299980D03*
X144299980Y-52299980D03*
X144299980Y-57700020D03*
D13*
X137000000Y-55000000D03*
D14*
X137000000Y-57540000D03*
X137000000Y-60080000D03*
X137000000Y-62620000D03*
X137000000Y-65160000D03*
X137000000Y-67700000D03*
D11*
X147000000Y-85000000D03*
D12*
X149700020Y-87700020D03*
X149700020Y-82299980D03*
X144299980Y-82299980D03*
X144299980Y-87700020D03*
D13*
X125000000Y-55000000D03*
D14*
X125000000Y-57540000D03*
X125000000Y-60080000D03*
X125000000Y-62620000D03*
X125000000Y-65160000D03*
X125000000Y-67700000D03*
D13*
X112500000Y-55000000D03*
D14*
X112500000Y-57540000D03*
X112500000Y-60080000D03*
X112500000Y-62620000D03*
X112500000Y-65160000D03*
X112500000Y-67700000D03*
D13*
X100000000Y-55000000D03*
D14*
X100000000Y-57540000D03*
X100000000Y-60080000D03*
X100000000Y-62620000D03*
X100000000Y-65160000D03*
X100000000Y-67700000D03*
M02*
