G04 #@! TF.FileFunction,Soldermask,Top*
%FSLAX46Y46*%
G04 Gerber Fmt 4.6, Leading zero omitted, Abs format (unit mm)*
G04 Created by KiCad (PCBNEW (2014-11-17 BZR 5289)-product) date Sat 24 Oct 2015 02:56:26 PM EDT*
%MOMM*%
G01*
G04 APERTURE LIST*
%ADD10C,0.100000*%
%ADD11R,0.500000X0.500000*%
%ADD12R,0.820000X0.520000*%
%ADD13R,0.600000X1.550000*%
%ADD14C,4.064000*%
%ADD15O,1.727200X2.032000*%
%ADD16C,3.048000*%
%ADD17R,1.250000X1.000000*%
%ADD18R,1.000000X1.250000*%
%ADD19R,1.000000X1.600000*%
%ADD20R,1.600000X1.000000*%
%ADD21R,0.700000X1.300000*%
%ADD22R,1.300000X0.700000*%
%ADD23R,0.450000X1.750000*%
%ADD24R,2.235200X2.235200*%
%ADD25C,1.998980*%
%ADD26C,3.000000*%
G04 APERTURE END LIST*
D10*
D11*
X151098000Y-95765000D03*
X152298000Y-95765000D03*
D12*
X151698000Y-95765000D03*
D13*
X159403000Y-87165000D03*
X158133000Y-87165000D03*
X156863000Y-87165000D03*
X155593000Y-87165000D03*
X155593000Y-92565000D03*
X156863000Y-92565000D03*
X158133000Y-92565000D03*
X159403000Y-92565000D03*
D14*
X177038000Y-90805000D03*
D15*
X138938000Y-123825000D03*
X141478000Y-123825000D03*
X144018000Y-123825000D03*
X146558000Y-123825000D03*
X149098000Y-123825000D03*
X151638000Y-123825000D03*
X154178000Y-123825000D03*
X156718000Y-123825000D03*
X161798000Y-123825000D03*
X164338000Y-123825000D03*
X166878000Y-123825000D03*
X169418000Y-123825000D03*
X171958000Y-123825000D03*
X174498000Y-123825000D03*
X129794000Y-75565000D03*
X132334000Y-75565000D03*
X134874000Y-75565000D03*
X137414000Y-75565000D03*
X139954000Y-75565000D03*
X142494000Y-75565000D03*
X145034000Y-75565000D03*
X147574000Y-75565000D03*
X150114000Y-75565000D03*
X152654000Y-75565000D03*
X156718000Y-75565000D03*
X159258000Y-75565000D03*
X161798000Y-75565000D03*
X164338000Y-75565000D03*
X166878000Y-75565000D03*
X169418000Y-75565000D03*
X171958000Y-75565000D03*
X174498000Y-75565000D03*
D16*
X177038000Y-118745000D03*
D17*
X163998000Y-83365000D03*
X163998000Y-81365000D03*
X163998000Y-94365000D03*
X163998000Y-92365000D03*
X163998000Y-105365000D03*
X163998000Y-103365000D03*
X163998000Y-116365000D03*
X163998000Y-114365000D03*
D18*
X158098000Y-84865000D03*
X156098000Y-84865000D03*
D17*
X138998000Y-116365000D03*
X138998000Y-114365000D03*
X138998000Y-105365000D03*
X138998000Y-103365000D03*
X138998000Y-94365000D03*
X138998000Y-92365000D03*
X138998000Y-83365000D03*
X138998000Y-81365000D03*
D19*
X156898000Y-95065000D03*
X159898000Y-95065000D03*
X155198000Y-95065000D03*
X152198000Y-95065000D03*
D17*
X147298000Y-90065000D03*
X147298000Y-92065000D03*
D20*
X149498000Y-89065000D03*
X149498000Y-92065000D03*
D21*
X147648000Y-108565000D03*
X145748000Y-108565000D03*
D22*
X149998000Y-78165000D03*
X149998000Y-80065000D03*
D23*
X148523000Y-106215000D03*
X149173000Y-106215000D03*
X149823000Y-106215000D03*
X150473000Y-106215000D03*
X151123000Y-106215000D03*
X151773000Y-106215000D03*
X152423000Y-106215000D03*
X153073000Y-106215000D03*
X153723000Y-106215000D03*
X154373000Y-106215000D03*
X155023000Y-106215000D03*
X155673000Y-106215000D03*
X156323000Y-106215000D03*
X156973000Y-106215000D03*
X156973000Y-99015000D03*
X156323000Y-99015000D03*
X155673000Y-99015000D03*
X155023000Y-99015000D03*
X154373000Y-99015000D03*
X153723000Y-99015000D03*
X153073000Y-99015000D03*
X152423000Y-99015000D03*
X151773000Y-99015000D03*
X151123000Y-99015000D03*
X150473000Y-99015000D03*
X149823000Y-99015000D03*
X149173000Y-99015000D03*
X148523000Y-99015000D03*
D24*
X152748000Y-79115000D03*
D25*
X170998000Y-116365000D03*
D26*
X173698020Y-119065020D03*
X173698020Y-113664980D03*
X168297980Y-113664980D03*
X168297980Y-119065020D03*
D25*
X170998000Y-105365000D03*
D26*
X173698020Y-108065020D03*
X173698020Y-102664980D03*
X168297980Y-102664980D03*
X168297980Y-108065020D03*
D25*
X170998000Y-94365000D03*
D26*
X173698020Y-97065020D03*
X173698020Y-91664980D03*
X168297980Y-91664980D03*
X168297980Y-97065020D03*
D25*
X170998000Y-83365000D03*
D26*
X173698020Y-86065020D03*
X173698020Y-80664980D03*
X168297980Y-80664980D03*
X168297980Y-86065020D03*
D25*
X130998000Y-83365000D03*
D26*
X128297980Y-80664980D03*
X128297980Y-86065020D03*
X133698020Y-86065020D03*
X133698020Y-80664980D03*
D25*
X130998000Y-94365000D03*
D26*
X128297980Y-91664980D03*
X128297980Y-97065020D03*
X133698020Y-97065020D03*
X133698020Y-91664980D03*
D25*
X130998000Y-105365000D03*
D26*
X128297980Y-102664980D03*
X128297980Y-108065020D03*
X133698020Y-108065020D03*
X133698020Y-102664980D03*
D25*
X130998000Y-116365000D03*
D26*
X128297980Y-113664980D03*
X128297980Y-119065020D03*
X133698020Y-119065020D03*
X133698020Y-113664980D03*
M02*
