G04 #@! TF.FileFunction,Legend,Bot*
%FSLAX46Y46*%
G04 Gerber Fmt 4.6, Leading zero omitted, Abs format (unit mm)*
G04 Created by KiCad (PCBNEW (2014-11-17 BZR 5289)-product) date Sat 24 Oct 2015 02:56:26 PM EDT*
%MOMM*%
G01*
G04 APERTURE LIST*
%ADD10C,0.100000*%
%ADD11C,0.300000*%
G04 APERTURE END LIST*
D10*
D11*
X163526571Y-81586429D02*
X163669429Y-81515000D01*
X163740857Y-81443571D01*
X163812286Y-81300714D01*
X163812286Y-81229286D01*
X163740857Y-81086429D01*
X163669429Y-81015000D01*
X163526571Y-80943571D01*
X163240857Y-80943571D01*
X163098000Y-81015000D01*
X163026571Y-81086429D01*
X162955143Y-81229286D01*
X162955143Y-81300714D01*
X163026571Y-81443571D01*
X163098000Y-81515000D01*
X163240857Y-81586429D01*
X163526571Y-81586429D01*
X163669429Y-81657857D01*
X163740857Y-81729286D01*
X163812286Y-81872143D01*
X163812286Y-82157857D01*
X163740857Y-82300714D01*
X163669429Y-82372143D01*
X163526571Y-82443571D01*
X163240857Y-82443571D01*
X163098000Y-82372143D01*
X163026571Y-82300714D01*
X162955143Y-82157857D01*
X162955143Y-81872143D01*
X163026571Y-81729286D01*
X163098000Y-81657857D01*
X163240857Y-81586429D01*
X160312286Y-82300714D02*
X160383715Y-82372143D01*
X160598001Y-82443571D01*
X160740858Y-82443571D01*
X160955143Y-82372143D01*
X161098001Y-82229286D01*
X161169429Y-82086429D01*
X161240858Y-81800714D01*
X161240858Y-81586429D01*
X161169429Y-81300714D01*
X161098001Y-81157857D01*
X160955143Y-81015000D01*
X160740858Y-80943571D01*
X160598001Y-80943571D01*
X160383715Y-81015000D01*
X160312286Y-81086429D01*
X159669429Y-82443571D02*
X159669429Y-80943571D01*
X159026572Y-82443571D02*
X159026572Y-81657857D01*
X159098001Y-81515000D01*
X159240858Y-81443571D01*
X159455143Y-81443571D01*
X159598001Y-81515000D01*
X159669429Y-81586429D01*
X157669429Y-82443571D02*
X157669429Y-81657857D01*
X157740858Y-81515000D01*
X157883715Y-81443571D01*
X158169429Y-81443571D01*
X158312286Y-81515000D01*
X157669429Y-82372143D02*
X157812286Y-82443571D01*
X158169429Y-82443571D01*
X158312286Y-82372143D01*
X158383715Y-82229286D01*
X158383715Y-82086429D01*
X158312286Y-81943571D01*
X158169429Y-81872143D01*
X157812286Y-81872143D01*
X157669429Y-81800714D01*
X156955143Y-81443571D02*
X156955143Y-82443571D01*
X156955143Y-81586429D02*
X156883715Y-81515000D01*
X156740857Y-81443571D01*
X156526572Y-81443571D01*
X156383715Y-81515000D01*
X156312286Y-81657857D01*
X156312286Y-82443571D01*
X155598000Y-81443571D02*
X155598000Y-82443571D01*
X155598000Y-81586429D02*
X155526572Y-81515000D01*
X155383714Y-81443571D01*
X155169429Y-81443571D01*
X155026572Y-81515000D01*
X154955143Y-81657857D01*
X154955143Y-82443571D01*
X153669429Y-82372143D02*
X153812286Y-82443571D01*
X154098000Y-82443571D01*
X154240857Y-82372143D01*
X154312286Y-82229286D01*
X154312286Y-81657857D01*
X154240857Y-81515000D01*
X154098000Y-81443571D01*
X153812286Y-81443571D01*
X153669429Y-81515000D01*
X153598000Y-81657857D01*
X153598000Y-81800714D01*
X154312286Y-81943571D01*
X152740857Y-82443571D02*
X152883715Y-82372143D01*
X152955143Y-82229286D01*
X152955143Y-80943571D01*
X151098001Y-82015000D02*
X150383715Y-82015000D01*
X151240858Y-82443571D02*
X150740858Y-80943571D01*
X150240858Y-82443571D01*
X149740858Y-82443571D02*
X149740858Y-80943571D01*
X149383715Y-80943571D01*
X149169430Y-81015000D01*
X149026572Y-81157857D01*
X148955144Y-81300714D01*
X148883715Y-81586429D01*
X148883715Y-81800714D01*
X148955144Y-82086429D01*
X149026572Y-82229286D01*
X149169430Y-82372143D01*
X149383715Y-82443571D01*
X149740858Y-82443571D01*
X147383715Y-82300714D02*
X147455144Y-82372143D01*
X147669430Y-82443571D01*
X147812287Y-82443571D01*
X148026572Y-82372143D01*
X148169430Y-82229286D01*
X148240858Y-82086429D01*
X148312287Y-81800714D01*
X148312287Y-81586429D01*
X148240858Y-81300714D01*
X148169430Y-81157857D01*
X148026572Y-81015000D01*
X147812287Y-80943571D01*
X147669430Y-80943571D01*
X147455144Y-81015000D01*
X147383715Y-81086429D01*
X145598001Y-82443571D02*
X145598001Y-81443571D01*
X145598001Y-81729286D02*
X145526573Y-81586429D01*
X145455144Y-81515000D01*
X145312287Y-81443571D01*
X145169430Y-81443571D01*
X144812287Y-80943571D02*
X143883716Y-80943571D01*
X144383716Y-81515000D01*
X144169430Y-81515000D01*
X144026573Y-81586429D01*
X143955144Y-81657857D01*
X143883716Y-81800714D01*
X143883716Y-82157857D01*
X143955144Y-82300714D01*
X144026573Y-82372143D01*
X144169430Y-82443571D01*
X144598002Y-82443571D01*
X144740859Y-82372143D01*
X144812287Y-82300714D01*
X163883714Y-83343571D02*
X163526571Y-84843571D01*
X163240857Y-83772143D01*
X162955143Y-84843571D01*
X162598000Y-83343571D01*
X162026571Y-84843571D02*
X162026571Y-83343571D01*
X161383714Y-84843571D02*
X161383714Y-84057857D01*
X161455143Y-83915000D01*
X161598000Y-83843571D01*
X161812285Y-83843571D01*
X161955143Y-83915000D01*
X162026571Y-83986429D01*
X160669428Y-84843571D02*
X160669428Y-83843571D01*
X160669428Y-83343571D02*
X160740857Y-83415000D01*
X160669428Y-83486429D01*
X160598000Y-83415000D01*
X160669428Y-83343571D01*
X160669428Y-83486429D01*
X160169428Y-83843571D02*
X159597999Y-83843571D01*
X159955142Y-83343571D02*
X159955142Y-84629286D01*
X159883714Y-84772143D01*
X159740856Y-84843571D01*
X159597999Y-84843571D01*
X158526571Y-84772143D02*
X158669428Y-84843571D01*
X158955142Y-84843571D01*
X159097999Y-84772143D01*
X159169428Y-84629286D01*
X159169428Y-84057857D01*
X159097999Y-83915000D01*
X158955142Y-83843571D01*
X158669428Y-83843571D01*
X158526571Y-83915000D01*
X158455142Y-84057857D01*
X158455142Y-84200714D01*
X159169428Y-84343571D01*
X158026571Y-83843571D02*
X157455142Y-83843571D01*
X157812285Y-84843571D02*
X157812285Y-83557857D01*
X157740857Y-83415000D01*
X157597999Y-83343571D01*
X157455142Y-83343571D01*
X156740856Y-84843571D02*
X156883714Y-84772143D01*
X156955142Y-84700714D01*
X157026571Y-84557857D01*
X157026571Y-84129286D01*
X156955142Y-83986429D01*
X156883714Y-83915000D01*
X156740856Y-83843571D01*
X156526571Y-83843571D01*
X156383714Y-83915000D01*
X156312285Y-83986429D01*
X156240856Y-84129286D01*
X156240856Y-84557857D01*
X156312285Y-84700714D01*
X156383714Y-84772143D01*
X156526571Y-84843571D01*
X156740856Y-84843571D01*
X155597999Y-84843571D02*
X155597999Y-83843571D01*
X155597999Y-84129286D02*
X155526571Y-83986429D01*
X155455142Y-83915000D01*
X155312285Y-83843571D01*
X155169428Y-83843571D01*
X154026571Y-84843571D02*
X154026571Y-83343571D01*
X154026571Y-84772143D02*
X154169428Y-84843571D01*
X154455142Y-84843571D01*
X154598000Y-84772143D01*
X154669428Y-84700714D01*
X154740857Y-84557857D01*
X154740857Y-84129286D01*
X154669428Y-83986429D01*
X154598000Y-83915000D01*
X154455142Y-83843571D01*
X154169428Y-83843571D01*
X154026571Y-83915000D01*
X151312285Y-84843571D02*
X151812285Y-84129286D01*
X152169428Y-84843571D02*
X152169428Y-83343571D01*
X151598000Y-83343571D01*
X151455142Y-83415000D01*
X151383714Y-83486429D01*
X151312285Y-83629286D01*
X151312285Y-83843571D01*
X151383714Y-83986429D01*
X151455142Y-84057857D01*
X151598000Y-84129286D01*
X152169428Y-84129286D01*
X150098000Y-84772143D02*
X150240857Y-84843571D01*
X150526571Y-84843571D01*
X150669428Y-84772143D01*
X150740857Y-84629286D01*
X150740857Y-84057857D01*
X150669428Y-83915000D01*
X150526571Y-83843571D01*
X150240857Y-83843571D01*
X150098000Y-83915000D01*
X150026571Y-84057857D01*
X150026571Y-84200714D01*
X150740857Y-84343571D01*
X149455143Y-84772143D02*
X149312286Y-84843571D01*
X149026571Y-84843571D01*
X148883714Y-84772143D01*
X148812286Y-84629286D01*
X148812286Y-84557857D01*
X148883714Y-84415000D01*
X149026571Y-84343571D01*
X149240857Y-84343571D01*
X149383714Y-84272143D01*
X149455143Y-84129286D01*
X149455143Y-84057857D01*
X149383714Y-83915000D01*
X149240857Y-83843571D01*
X149026571Y-83843571D01*
X148883714Y-83915000D01*
X147598000Y-84772143D02*
X147740857Y-84843571D01*
X148026571Y-84843571D01*
X148169428Y-84772143D01*
X148240857Y-84629286D01*
X148240857Y-84057857D01*
X148169428Y-83915000D01*
X148026571Y-83843571D01*
X147740857Y-83843571D01*
X147598000Y-83915000D01*
X147526571Y-84057857D01*
X147526571Y-84200714D01*
X148240857Y-84343571D01*
X146240857Y-84843571D02*
X146240857Y-84057857D01*
X146312286Y-83915000D01*
X146455143Y-83843571D01*
X146740857Y-83843571D01*
X146883714Y-83915000D01*
X146240857Y-84772143D02*
X146383714Y-84843571D01*
X146740857Y-84843571D01*
X146883714Y-84772143D01*
X146955143Y-84629286D01*
X146955143Y-84486429D01*
X146883714Y-84343571D01*
X146740857Y-84272143D01*
X146383714Y-84272143D01*
X146240857Y-84200714D01*
X145526571Y-84843571D02*
X145526571Y-83843571D01*
X145526571Y-84129286D02*
X145455143Y-83986429D01*
X145383714Y-83915000D01*
X145240857Y-83843571D01*
X145098000Y-83843571D01*
X143955143Y-84772143D02*
X144098000Y-84843571D01*
X144383714Y-84843571D01*
X144526572Y-84772143D01*
X144598000Y-84700714D01*
X144669429Y-84557857D01*
X144669429Y-84129286D01*
X144598000Y-83986429D01*
X144526572Y-83915000D01*
X144383714Y-83843571D01*
X144098000Y-83843571D01*
X143955143Y-83915000D01*
X143312286Y-84843571D02*
X143312286Y-83343571D01*
X142669429Y-84843571D02*
X142669429Y-84057857D01*
X142740858Y-83915000D01*
X142883715Y-83843571D01*
X143098000Y-83843571D01*
X143240858Y-83915000D01*
X143312286Y-83986429D01*
X140098000Y-84843571D02*
X140812286Y-84843571D01*
X140812286Y-83343571D01*
X139812286Y-83843571D02*
X139240857Y-83843571D01*
X139598000Y-83343571D02*
X139598000Y-84629286D01*
X139526572Y-84772143D01*
X139383714Y-84843571D01*
X139240857Y-84843571D01*
X138098000Y-84843571D02*
X138098000Y-83343571D01*
X138098000Y-84772143D02*
X138240857Y-84843571D01*
X138526571Y-84843571D01*
X138669429Y-84772143D01*
X138740857Y-84700714D01*
X138812286Y-84557857D01*
X138812286Y-84129286D01*
X138740857Y-83986429D01*
X138669429Y-83915000D01*
X138526571Y-83843571D01*
X138240857Y-83843571D01*
X138098000Y-83915000D01*
M02*
