G04 #@! TF.FileFunction,Legend,Top*
%FSLAX46Y46*%
G04 Gerber Fmt 4.6, Leading zero omitted, Abs format (unit mm)*
G04 Created by KiCad (PCBNEW (2014-11-17 BZR 5289)-product) date Sat 24 Oct 2015 02:56:26 PM EDT*
%MOMM*%
G01*
G04 APERTURE LIST*
%ADD10C,0.100000*%
%ADD11C,0.150000*%
%ADD12C,0.381000*%
%ADD13C,0.304800*%
G04 APERTURE END LIST*
D10*
D11*
X136450381Y-123079285D02*
X136450381Y-123650714D01*
X136450381Y-123365000D02*
X135450381Y-123365000D01*
X135593238Y-123460238D01*
X135688476Y-123555476D01*
X135736095Y-123650714D01*
X160073000Y-87790000D02*
X159928000Y-87790000D01*
X160073000Y-91940000D02*
X159928000Y-91940000D01*
X154923000Y-91940000D02*
X155068000Y-91940000D01*
X154923000Y-87790000D02*
X155068000Y-87790000D01*
X160073000Y-87790000D02*
X160073000Y-91940000D01*
X154923000Y-87790000D02*
X154923000Y-91940000D01*
X159928000Y-87790000D02*
X159928000Y-86390000D01*
X179324000Y-90805000D02*
G75*
G03X179324000Y-90805000I-2286000J0D01*
G01*
X140208000Y-125095000D02*
X157988000Y-125095000D01*
X157988000Y-125095000D02*
X157988000Y-122555000D01*
X157988000Y-122555000D02*
X140208000Y-122555000D01*
X137388000Y-125375000D02*
X138938000Y-125375000D01*
X140208000Y-125095000D02*
X140208000Y-122555000D01*
X138938000Y-122275000D02*
X137388000Y-122275000D01*
X137388000Y-122275000D02*
X137388000Y-125375000D01*
X163068000Y-125095000D02*
X175768000Y-125095000D01*
X175768000Y-125095000D02*
X175768000Y-122555000D01*
X175768000Y-122555000D02*
X163068000Y-122555000D01*
X160248000Y-125375000D02*
X161798000Y-125375000D01*
X163068000Y-125095000D02*
X163068000Y-122555000D01*
X161798000Y-122275000D02*
X160248000Y-122275000D01*
X160248000Y-122275000D02*
X160248000Y-125375000D01*
X131064000Y-76835000D02*
X153924000Y-76835000D01*
X153924000Y-76835000D02*
X153924000Y-74295000D01*
X153924000Y-74295000D02*
X131064000Y-74295000D01*
X128244000Y-77115000D02*
X129794000Y-77115000D01*
X131064000Y-76835000D02*
X131064000Y-74295000D01*
X129794000Y-74015000D02*
X128244000Y-74015000D01*
X128244000Y-74015000D02*
X128244000Y-77115000D01*
X157988000Y-76835000D02*
X175768000Y-76835000D01*
X175768000Y-76835000D02*
X175768000Y-74295000D01*
X175768000Y-74295000D02*
X157988000Y-74295000D01*
X155168000Y-77115000D02*
X156718000Y-77115000D01*
X157988000Y-76835000D02*
X157988000Y-74295000D01*
X156718000Y-74015000D02*
X155168000Y-74015000D01*
X155168000Y-74015000D02*
X155168000Y-77115000D01*
X179324000Y-118745000D02*
G75*
G03X179324000Y-118745000I-2286000J0D01*
G01*
X163148000Y-81865000D02*
X163148000Y-82865000D01*
X164848000Y-82865000D02*
X164848000Y-81865000D01*
X163148000Y-92865000D02*
X163148000Y-93865000D01*
X164848000Y-93865000D02*
X164848000Y-92865000D01*
X163148000Y-103865000D02*
X163148000Y-104865000D01*
X164848000Y-104865000D02*
X164848000Y-103865000D01*
X163148000Y-114865000D02*
X163148000Y-115865000D01*
X164848000Y-115865000D02*
X164848000Y-114865000D01*
X156598000Y-85715000D02*
X157598000Y-85715000D01*
X157598000Y-84015000D02*
X156598000Y-84015000D01*
X138148000Y-114865000D02*
X138148000Y-115865000D01*
X139848000Y-115865000D02*
X139848000Y-114865000D01*
X138148000Y-103865000D02*
X138148000Y-104865000D01*
X139848000Y-104865000D02*
X139848000Y-103865000D01*
X138148000Y-92865000D02*
X138148000Y-93865000D01*
X139848000Y-93865000D02*
X139848000Y-92865000D01*
X138148000Y-81865000D02*
X138148000Y-82865000D01*
X139848000Y-82865000D02*
X139848000Y-81865000D01*
X159398000Y-94040000D02*
X157398000Y-94040000D01*
X157398000Y-96090000D02*
X159398000Y-96090000D01*
X152698000Y-96090000D02*
X154698000Y-96090000D01*
X154698000Y-94040000D02*
X152698000Y-94040000D01*
X148148000Y-91565000D02*
X148148000Y-90565000D01*
X146448000Y-90565000D02*
X146448000Y-91565000D01*
X150523000Y-91565000D02*
X150523000Y-89565000D01*
X148473000Y-89565000D02*
X148473000Y-91565000D01*
X146098000Y-107690000D02*
X147298000Y-107690000D01*
X147298000Y-109440000D02*
X146098000Y-109440000D01*
X149123000Y-79715000D02*
X149123000Y-78515000D01*
X150873000Y-78515000D02*
X150873000Y-79715000D01*
X147423000Y-105490000D02*
X148073000Y-105490000D01*
X147423000Y-99740000D02*
X148073000Y-99740000D01*
X158073000Y-99740000D02*
X157423000Y-99740000D01*
X158073000Y-105490000D02*
X157423000Y-105490000D01*
X147423000Y-105490000D02*
X147423000Y-99740000D01*
X158073000Y-105490000D02*
X158073000Y-99740000D01*
X148073000Y-105490000D02*
X148073000Y-107090000D01*
X154018000Y-80385000D02*
X154018000Y-77845000D01*
X151198000Y-77565000D02*
X152748000Y-77565000D01*
X151198000Y-77565000D02*
X151198000Y-80665000D01*
X151198000Y-80665000D02*
X152748000Y-80665000D01*
D12*
X182654060Y-119024380D02*
X183598940Y-119024380D01*
X182654060Y-113705620D02*
X183598940Y-113705620D01*
X174147600Y-113705620D02*
X177927120Y-113705620D01*
X174147600Y-119024380D02*
X177927120Y-119024380D01*
X182339100Y-113172220D02*
X182654060Y-116631700D01*
X178557040Y-119557780D02*
X177927120Y-113705620D01*
X178557040Y-113172220D02*
X179186960Y-119557780D01*
X179186960Y-113172220D02*
X179816880Y-119557780D01*
X179816880Y-113172220D02*
X180446800Y-119557780D01*
X180446800Y-113172220D02*
X181079260Y-119557780D01*
X181079260Y-113172220D02*
X181709180Y-119557780D01*
X181709180Y-113172220D02*
X182339100Y-119557780D01*
X182339100Y-113172220D02*
X182654060Y-113705620D01*
X182654060Y-113705620D02*
X182654060Y-119024380D01*
X182654060Y-119024380D02*
X182339100Y-119557780D01*
X182339100Y-119557780D02*
X178242080Y-119557780D01*
X178242080Y-119557780D02*
X177927120Y-119024380D01*
X177927120Y-119024380D02*
X177927120Y-113705620D01*
X177927120Y-113705620D02*
X178242080Y-113172220D01*
X178242080Y-113172220D02*
X182339100Y-113172220D01*
X183598940Y-119024380D02*
X183598940Y-113705620D01*
X174147600Y-113215400D02*
X174147600Y-119514600D01*
X174147600Y-119514600D02*
X167848400Y-119514600D01*
X167848400Y-119514600D02*
X167848400Y-113215400D01*
X167848400Y-113215400D02*
X174147600Y-113215400D01*
X182654060Y-108024380D02*
X183598940Y-108024380D01*
X182654060Y-102705620D02*
X183598940Y-102705620D01*
X174147600Y-102705620D02*
X177927120Y-102705620D01*
X174147600Y-108024380D02*
X177927120Y-108024380D01*
X182339100Y-102172220D02*
X182654060Y-105631700D01*
X178557040Y-108557780D02*
X177927120Y-102705620D01*
X178557040Y-102172220D02*
X179186960Y-108557780D01*
X179186960Y-102172220D02*
X179816880Y-108557780D01*
X179816880Y-102172220D02*
X180446800Y-108557780D01*
X180446800Y-102172220D02*
X181079260Y-108557780D01*
X181079260Y-102172220D02*
X181709180Y-108557780D01*
X181709180Y-102172220D02*
X182339100Y-108557780D01*
X182339100Y-102172220D02*
X182654060Y-102705620D01*
X182654060Y-102705620D02*
X182654060Y-108024380D01*
X182654060Y-108024380D02*
X182339100Y-108557780D01*
X182339100Y-108557780D02*
X178242080Y-108557780D01*
X178242080Y-108557780D02*
X177927120Y-108024380D01*
X177927120Y-108024380D02*
X177927120Y-102705620D01*
X177927120Y-102705620D02*
X178242080Y-102172220D01*
X178242080Y-102172220D02*
X182339100Y-102172220D01*
X183598940Y-108024380D02*
X183598940Y-102705620D01*
X174147600Y-102215400D02*
X174147600Y-108514600D01*
X174147600Y-108514600D02*
X167848400Y-108514600D01*
X167848400Y-108514600D02*
X167848400Y-102215400D01*
X167848400Y-102215400D02*
X174147600Y-102215400D01*
X182654060Y-97024380D02*
X183598940Y-97024380D01*
X182654060Y-91705620D02*
X183598940Y-91705620D01*
X174147600Y-91705620D02*
X177927120Y-91705620D01*
X174147600Y-97024380D02*
X177927120Y-97024380D01*
X182339100Y-91172220D02*
X182654060Y-94631700D01*
X178557040Y-97557780D02*
X177927120Y-91705620D01*
X178557040Y-91172220D02*
X179186960Y-97557780D01*
X179186960Y-91172220D02*
X179816880Y-97557780D01*
X179816880Y-91172220D02*
X180446800Y-97557780D01*
X180446800Y-91172220D02*
X181079260Y-97557780D01*
X181079260Y-91172220D02*
X181709180Y-97557780D01*
X181709180Y-91172220D02*
X182339100Y-97557780D01*
X182339100Y-91172220D02*
X182654060Y-91705620D01*
X182654060Y-91705620D02*
X182654060Y-97024380D01*
X182654060Y-97024380D02*
X182339100Y-97557780D01*
X182339100Y-97557780D02*
X178242080Y-97557780D01*
X178242080Y-97557780D02*
X177927120Y-97024380D01*
X177927120Y-97024380D02*
X177927120Y-91705620D01*
X177927120Y-91705620D02*
X178242080Y-91172220D01*
X178242080Y-91172220D02*
X182339100Y-91172220D01*
X183598940Y-97024380D02*
X183598940Y-91705620D01*
X174147600Y-91215400D02*
X174147600Y-97514600D01*
X174147600Y-97514600D02*
X167848400Y-97514600D01*
X167848400Y-97514600D02*
X167848400Y-91215400D01*
X167848400Y-91215400D02*
X174147600Y-91215400D01*
X182654060Y-86024380D02*
X183598940Y-86024380D01*
X182654060Y-80705620D02*
X183598940Y-80705620D01*
X174147600Y-80705620D02*
X177927120Y-80705620D01*
X174147600Y-86024380D02*
X177927120Y-86024380D01*
X182339100Y-80172220D02*
X182654060Y-83631700D01*
X178557040Y-86557780D02*
X177927120Y-80705620D01*
X178557040Y-80172220D02*
X179186960Y-86557780D01*
X179186960Y-80172220D02*
X179816880Y-86557780D01*
X179816880Y-80172220D02*
X180446800Y-86557780D01*
X180446800Y-80172220D02*
X181079260Y-86557780D01*
X181079260Y-80172220D02*
X181709180Y-86557780D01*
X181709180Y-80172220D02*
X182339100Y-86557780D01*
X182339100Y-80172220D02*
X182654060Y-80705620D01*
X182654060Y-80705620D02*
X182654060Y-86024380D01*
X182654060Y-86024380D02*
X182339100Y-86557780D01*
X182339100Y-86557780D02*
X178242080Y-86557780D01*
X178242080Y-86557780D02*
X177927120Y-86024380D01*
X177927120Y-86024380D02*
X177927120Y-80705620D01*
X177927120Y-80705620D02*
X178242080Y-80172220D01*
X178242080Y-80172220D02*
X182339100Y-80172220D01*
X183598940Y-86024380D02*
X183598940Y-80705620D01*
X174147600Y-80215400D02*
X174147600Y-86514600D01*
X174147600Y-86514600D02*
X167848400Y-86514600D01*
X167848400Y-86514600D02*
X167848400Y-80215400D01*
X167848400Y-80215400D02*
X174147600Y-80215400D01*
X119341940Y-80705620D02*
X118397060Y-80705620D01*
X119341940Y-86024380D02*
X118397060Y-86024380D01*
X127848400Y-86024380D02*
X124068880Y-86024380D01*
X127848400Y-80705620D02*
X124068880Y-80705620D01*
X119656900Y-86557780D02*
X119341940Y-83098300D01*
X123438960Y-80172220D02*
X124068880Y-86024380D01*
X123438960Y-86557780D02*
X122809040Y-80172220D01*
X122809040Y-86557780D02*
X122179120Y-80172220D01*
X122179120Y-86557780D02*
X121549200Y-80172220D01*
X121549200Y-86557780D02*
X120916740Y-80172220D01*
X120916740Y-86557780D02*
X120286820Y-80172220D01*
X120286820Y-86557780D02*
X119656900Y-80172220D01*
X119656900Y-86557780D02*
X119341940Y-86024380D01*
X119341940Y-86024380D02*
X119341940Y-80705620D01*
X119341940Y-80705620D02*
X119656900Y-80172220D01*
X119656900Y-80172220D02*
X123753920Y-80172220D01*
X123753920Y-80172220D02*
X124068880Y-80705620D01*
X124068880Y-80705620D02*
X124068880Y-86024380D01*
X124068880Y-86024380D02*
X123753920Y-86557780D01*
X123753920Y-86557780D02*
X119656900Y-86557780D01*
X118397060Y-80705620D02*
X118397060Y-86024380D01*
X127848400Y-86514600D02*
X127848400Y-80215400D01*
X127848400Y-80215400D02*
X134147600Y-80215400D01*
X134147600Y-80215400D02*
X134147600Y-86514600D01*
X134147600Y-86514600D02*
X127848400Y-86514600D01*
X119341940Y-91705620D02*
X118397060Y-91705620D01*
X119341940Y-97024380D02*
X118397060Y-97024380D01*
X127848400Y-97024380D02*
X124068880Y-97024380D01*
X127848400Y-91705620D02*
X124068880Y-91705620D01*
X119656900Y-97557780D02*
X119341940Y-94098300D01*
X123438960Y-91172220D02*
X124068880Y-97024380D01*
X123438960Y-97557780D02*
X122809040Y-91172220D01*
X122809040Y-97557780D02*
X122179120Y-91172220D01*
X122179120Y-97557780D02*
X121549200Y-91172220D01*
X121549200Y-97557780D02*
X120916740Y-91172220D01*
X120916740Y-97557780D02*
X120286820Y-91172220D01*
X120286820Y-97557780D02*
X119656900Y-91172220D01*
X119656900Y-97557780D02*
X119341940Y-97024380D01*
X119341940Y-97024380D02*
X119341940Y-91705620D01*
X119341940Y-91705620D02*
X119656900Y-91172220D01*
X119656900Y-91172220D02*
X123753920Y-91172220D01*
X123753920Y-91172220D02*
X124068880Y-91705620D01*
X124068880Y-91705620D02*
X124068880Y-97024380D01*
X124068880Y-97024380D02*
X123753920Y-97557780D01*
X123753920Y-97557780D02*
X119656900Y-97557780D01*
X118397060Y-91705620D02*
X118397060Y-97024380D01*
X127848400Y-97514600D02*
X127848400Y-91215400D01*
X127848400Y-91215400D02*
X134147600Y-91215400D01*
X134147600Y-91215400D02*
X134147600Y-97514600D01*
X134147600Y-97514600D02*
X127848400Y-97514600D01*
X119341940Y-102705620D02*
X118397060Y-102705620D01*
X119341940Y-108024380D02*
X118397060Y-108024380D01*
X127848400Y-108024380D02*
X124068880Y-108024380D01*
X127848400Y-102705620D02*
X124068880Y-102705620D01*
X119656900Y-108557780D02*
X119341940Y-105098300D01*
X123438960Y-102172220D02*
X124068880Y-108024380D01*
X123438960Y-108557780D02*
X122809040Y-102172220D01*
X122809040Y-108557780D02*
X122179120Y-102172220D01*
X122179120Y-108557780D02*
X121549200Y-102172220D01*
X121549200Y-108557780D02*
X120916740Y-102172220D01*
X120916740Y-108557780D02*
X120286820Y-102172220D01*
X120286820Y-108557780D02*
X119656900Y-102172220D01*
X119656900Y-108557780D02*
X119341940Y-108024380D01*
X119341940Y-108024380D02*
X119341940Y-102705620D01*
X119341940Y-102705620D02*
X119656900Y-102172220D01*
X119656900Y-102172220D02*
X123753920Y-102172220D01*
X123753920Y-102172220D02*
X124068880Y-102705620D01*
X124068880Y-102705620D02*
X124068880Y-108024380D01*
X124068880Y-108024380D02*
X123753920Y-108557780D01*
X123753920Y-108557780D02*
X119656900Y-108557780D01*
X118397060Y-102705620D02*
X118397060Y-108024380D01*
X127848400Y-108514600D02*
X127848400Y-102215400D01*
X127848400Y-102215400D02*
X134147600Y-102215400D01*
X134147600Y-102215400D02*
X134147600Y-108514600D01*
X134147600Y-108514600D02*
X127848400Y-108514600D01*
X119341940Y-113705620D02*
X118397060Y-113705620D01*
X119341940Y-119024380D02*
X118397060Y-119024380D01*
X127848400Y-119024380D02*
X124068880Y-119024380D01*
X127848400Y-113705620D02*
X124068880Y-113705620D01*
X119656900Y-119557780D02*
X119341940Y-116098300D01*
X123438960Y-113172220D02*
X124068880Y-119024380D01*
X123438960Y-119557780D02*
X122809040Y-113172220D01*
X122809040Y-119557780D02*
X122179120Y-113172220D01*
X122179120Y-119557780D02*
X121549200Y-113172220D01*
X121549200Y-119557780D02*
X120916740Y-113172220D01*
X120916740Y-119557780D02*
X120286820Y-113172220D01*
X120286820Y-119557780D02*
X119656900Y-113172220D01*
X119656900Y-119557780D02*
X119341940Y-119024380D01*
X119341940Y-119024380D02*
X119341940Y-113705620D01*
X119341940Y-113705620D02*
X119656900Y-113172220D01*
X119656900Y-113172220D02*
X123753920Y-113172220D01*
X123753920Y-113172220D02*
X124068880Y-113705620D01*
X124068880Y-113705620D02*
X124068880Y-119024380D01*
X124068880Y-119024380D02*
X123753920Y-119557780D01*
X123753920Y-119557780D02*
X119656900Y-119557780D01*
X118397060Y-113705620D02*
X118397060Y-119024380D01*
X127848400Y-119514600D02*
X127848400Y-113215400D01*
X127848400Y-113215400D02*
X134147600Y-113215400D01*
X134147600Y-113215400D02*
X134147600Y-119514600D01*
X134147600Y-119514600D02*
X127848400Y-119514600D01*
D11*
X151650381Y-97817381D02*
X151745620Y-97817381D01*
X151840858Y-97865000D01*
X151888477Y-97912619D01*
X151936096Y-98007857D01*
X151983715Y-98198333D01*
X151983715Y-98436429D01*
X151936096Y-98626905D01*
X151888477Y-98722143D01*
X151840858Y-98769762D01*
X151745620Y-98817381D01*
X151650381Y-98817381D01*
X151555143Y-98769762D01*
X151507524Y-98722143D01*
X151459905Y-98626905D01*
X151412286Y-98436429D01*
X151412286Y-98198333D01*
X151459905Y-98007857D01*
X151507524Y-97912619D01*
X151555143Y-97865000D01*
X151650381Y-97817381D01*
X160450381Y-90626905D02*
X161259905Y-90626905D01*
X161355143Y-90579286D01*
X161402762Y-90531667D01*
X161450381Y-90436429D01*
X161450381Y-90245952D01*
X161402762Y-90150714D01*
X161355143Y-90103095D01*
X161259905Y-90055476D01*
X160450381Y-90055476D01*
X161450381Y-89055476D02*
X161450381Y-89626905D01*
X161450381Y-89341191D02*
X160450381Y-89341191D01*
X160593238Y-89436429D01*
X160688476Y-89531667D01*
X160736095Y-89626905D01*
X152259905Y-121817381D02*
X152259905Y-120817381D01*
X152640858Y-120817381D01*
X152736096Y-120865000D01*
X152783715Y-120912619D01*
X152831334Y-121007857D01*
X152831334Y-121150714D01*
X152783715Y-121245952D01*
X152736096Y-121293571D01*
X152640858Y-121341190D01*
X152259905Y-121341190D01*
X153783715Y-121817381D02*
X153212286Y-121817381D01*
X153498000Y-121817381D02*
X153498000Y-120817381D01*
X153402762Y-120960238D01*
X153307524Y-121055476D01*
X153212286Y-121103095D01*
X160259905Y-121817381D02*
X160259905Y-120817381D01*
X160640858Y-120817381D01*
X160736096Y-120865000D01*
X160783715Y-120912619D01*
X160831334Y-121007857D01*
X160831334Y-121150714D01*
X160783715Y-121245952D01*
X160736096Y-121293571D01*
X160640858Y-121341190D01*
X160259905Y-121341190D01*
X161212286Y-120912619D02*
X161259905Y-120865000D01*
X161355143Y-120817381D01*
X161593239Y-120817381D01*
X161688477Y-120865000D01*
X161736096Y-120912619D01*
X161783715Y-121007857D01*
X161783715Y-121103095D01*
X161736096Y-121245952D01*
X161164667Y-121817381D01*
X161783715Y-121817381D01*
X126259905Y-74817381D02*
X126259905Y-73817381D01*
X126640858Y-73817381D01*
X126736096Y-73865000D01*
X126783715Y-73912619D01*
X126831334Y-74007857D01*
X126831334Y-74150714D01*
X126783715Y-74245952D01*
X126736096Y-74293571D01*
X126640858Y-74341190D01*
X126259905Y-74341190D01*
X127164667Y-73817381D02*
X127783715Y-73817381D01*
X127450381Y-74198333D01*
X127593239Y-74198333D01*
X127688477Y-74245952D01*
X127736096Y-74293571D01*
X127783715Y-74388810D01*
X127783715Y-74626905D01*
X127736096Y-74722143D01*
X127688477Y-74769762D01*
X127593239Y-74817381D01*
X127307524Y-74817381D01*
X127212286Y-74769762D01*
X127164667Y-74722143D01*
X155259905Y-78817381D02*
X155259905Y-77817381D01*
X155640858Y-77817381D01*
X155736096Y-77865000D01*
X155783715Y-77912619D01*
X155831334Y-78007857D01*
X155831334Y-78150714D01*
X155783715Y-78245952D01*
X155736096Y-78293571D01*
X155640858Y-78341190D01*
X155259905Y-78341190D01*
X156688477Y-78150714D02*
X156688477Y-78817381D01*
X156450381Y-77769762D02*
X156212286Y-78484048D01*
X156831334Y-78484048D01*
X162555143Y-82531666D02*
X162602762Y-82579285D01*
X162650381Y-82722142D01*
X162650381Y-82817380D01*
X162602762Y-82960238D01*
X162507524Y-83055476D01*
X162412286Y-83103095D01*
X162221810Y-83150714D01*
X162078952Y-83150714D01*
X161888476Y-83103095D01*
X161793238Y-83055476D01*
X161698000Y-82960238D01*
X161650381Y-82817380D01*
X161650381Y-82722142D01*
X161698000Y-82579285D01*
X161745619Y-82531666D01*
X162650381Y-81579285D02*
X162650381Y-82150714D01*
X162650381Y-81865000D02*
X161650381Y-81865000D01*
X161793238Y-81960238D01*
X161888476Y-82055476D01*
X161936095Y-82150714D01*
X162555143Y-93531666D02*
X162602762Y-93579285D01*
X162650381Y-93722142D01*
X162650381Y-93817380D01*
X162602762Y-93960238D01*
X162507524Y-94055476D01*
X162412286Y-94103095D01*
X162221810Y-94150714D01*
X162078952Y-94150714D01*
X161888476Y-94103095D01*
X161793238Y-94055476D01*
X161698000Y-93960238D01*
X161650381Y-93817380D01*
X161650381Y-93722142D01*
X161698000Y-93579285D01*
X161745619Y-93531666D01*
X161745619Y-93150714D02*
X161698000Y-93103095D01*
X161650381Y-93007857D01*
X161650381Y-92769761D01*
X161698000Y-92674523D01*
X161745619Y-92626904D01*
X161840857Y-92579285D01*
X161936095Y-92579285D01*
X162078952Y-92626904D01*
X162650381Y-93198333D01*
X162650381Y-92579285D01*
X162455143Y-104631666D02*
X162502762Y-104679285D01*
X162550381Y-104822142D01*
X162550381Y-104917380D01*
X162502762Y-105060238D01*
X162407524Y-105155476D01*
X162312286Y-105203095D01*
X162121810Y-105250714D01*
X161978952Y-105250714D01*
X161788476Y-105203095D01*
X161693238Y-105155476D01*
X161598000Y-105060238D01*
X161550381Y-104917380D01*
X161550381Y-104822142D01*
X161598000Y-104679285D01*
X161645619Y-104631666D01*
X161550381Y-104298333D02*
X161550381Y-103679285D01*
X161931333Y-104012619D01*
X161931333Y-103869761D01*
X161978952Y-103774523D01*
X162026571Y-103726904D01*
X162121810Y-103679285D01*
X162359905Y-103679285D01*
X162455143Y-103726904D01*
X162502762Y-103774523D01*
X162550381Y-103869761D01*
X162550381Y-104155476D01*
X162502762Y-104250714D01*
X162455143Y-104298333D01*
X162555143Y-115631666D02*
X162602762Y-115679285D01*
X162650381Y-115822142D01*
X162650381Y-115917380D01*
X162602762Y-116060238D01*
X162507524Y-116155476D01*
X162412286Y-116203095D01*
X162221810Y-116250714D01*
X162078952Y-116250714D01*
X161888476Y-116203095D01*
X161793238Y-116155476D01*
X161698000Y-116060238D01*
X161650381Y-115917380D01*
X161650381Y-115822142D01*
X161698000Y-115679285D01*
X161745619Y-115631666D01*
X161983714Y-114774523D02*
X162650381Y-114774523D01*
X161602762Y-115012619D02*
X162317048Y-115250714D01*
X162317048Y-114631666D01*
X156931334Y-83522143D02*
X156883715Y-83569762D01*
X156740858Y-83617381D01*
X156645620Y-83617381D01*
X156502762Y-83569762D01*
X156407524Y-83474524D01*
X156359905Y-83379286D01*
X156312286Y-83188810D01*
X156312286Y-83045952D01*
X156359905Y-82855476D01*
X156407524Y-82760238D01*
X156502762Y-82665000D01*
X156645620Y-82617381D01*
X156740858Y-82617381D01*
X156883715Y-82665000D01*
X156931334Y-82712619D01*
X157836096Y-82617381D02*
X157359905Y-82617381D01*
X157312286Y-83093571D01*
X157359905Y-83045952D01*
X157455143Y-82998333D01*
X157693239Y-82998333D01*
X157788477Y-83045952D01*
X157836096Y-83093571D01*
X157883715Y-83188810D01*
X157883715Y-83426905D01*
X157836096Y-83522143D01*
X157788477Y-83569762D01*
X157693239Y-83617381D01*
X157455143Y-83617381D01*
X157359905Y-83569762D01*
X157312286Y-83522143D01*
X141455143Y-115431666D02*
X141502762Y-115479285D01*
X141550381Y-115622142D01*
X141550381Y-115717380D01*
X141502762Y-115860238D01*
X141407524Y-115955476D01*
X141312286Y-116003095D01*
X141121810Y-116050714D01*
X140978952Y-116050714D01*
X140788476Y-116003095D01*
X140693238Y-115955476D01*
X140598000Y-115860238D01*
X140550381Y-115717380D01*
X140550381Y-115622142D01*
X140598000Y-115479285D01*
X140645619Y-115431666D01*
X140550381Y-114574523D02*
X140550381Y-114765000D01*
X140598000Y-114860238D01*
X140645619Y-114907857D01*
X140788476Y-115003095D01*
X140978952Y-115050714D01*
X141359905Y-115050714D01*
X141455143Y-115003095D01*
X141502762Y-114955476D01*
X141550381Y-114860238D01*
X141550381Y-114669761D01*
X141502762Y-114574523D01*
X141455143Y-114526904D01*
X141359905Y-114479285D01*
X141121810Y-114479285D01*
X141026571Y-114526904D01*
X140978952Y-114574523D01*
X140931333Y-114669761D01*
X140931333Y-114860238D01*
X140978952Y-114955476D01*
X141026571Y-115003095D01*
X141121810Y-115050714D01*
X141555143Y-104531666D02*
X141602762Y-104579285D01*
X141650381Y-104722142D01*
X141650381Y-104817380D01*
X141602762Y-104960238D01*
X141507524Y-105055476D01*
X141412286Y-105103095D01*
X141221810Y-105150714D01*
X141078952Y-105150714D01*
X140888476Y-105103095D01*
X140793238Y-105055476D01*
X140698000Y-104960238D01*
X140650381Y-104817380D01*
X140650381Y-104722142D01*
X140698000Y-104579285D01*
X140745619Y-104531666D01*
X140650381Y-104198333D02*
X140650381Y-103531666D01*
X141650381Y-103960238D01*
X141355143Y-93431666D02*
X141402762Y-93479285D01*
X141450381Y-93622142D01*
X141450381Y-93717380D01*
X141402762Y-93860238D01*
X141307524Y-93955476D01*
X141212286Y-94003095D01*
X141021810Y-94050714D01*
X140878952Y-94050714D01*
X140688476Y-94003095D01*
X140593238Y-93955476D01*
X140498000Y-93860238D01*
X140450381Y-93717380D01*
X140450381Y-93622142D01*
X140498000Y-93479285D01*
X140545619Y-93431666D01*
X140878952Y-92860238D02*
X140831333Y-92955476D01*
X140783714Y-93003095D01*
X140688476Y-93050714D01*
X140640857Y-93050714D01*
X140545619Y-93003095D01*
X140498000Y-92955476D01*
X140450381Y-92860238D01*
X140450381Y-92669761D01*
X140498000Y-92574523D01*
X140545619Y-92526904D01*
X140640857Y-92479285D01*
X140688476Y-92479285D01*
X140783714Y-92526904D01*
X140831333Y-92574523D01*
X140878952Y-92669761D01*
X140878952Y-92860238D01*
X140926571Y-92955476D01*
X140974190Y-93003095D01*
X141069429Y-93050714D01*
X141259905Y-93050714D01*
X141355143Y-93003095D01*
X141402762Y-92955476D01*
X141450381Y-92860238D01*
X141450381Y-92669761D01*
X141402762Y-92574523D01*
X141355143Y-92526904D01*
X141259905Y-92479285D01*
X141069429Y-92479285D01*
X140974190Y-92526904D01*
X140926571Y-92574523D01*
X140878952Y-92669761D01*
X141255143Y-82531666D02*
X141302762Y-82579285D01*
X141350381Y-82722142D01*
X141350381Y-82817380D01*
X141302762Y-82960238D01*
X141207524Y-83055476D01*
X141112286Y-83103095D01*
X140921810Y-83150714D01*
X140778952Y-83150714D01*
X140588476Y-83103095D01*
X140493238Y-83055476D01*
X140398000Y-82960238D01*
X140350381Y-82817380D01*
X140350381Y-82722142D01*
X140398000Y-82579285D01*
X140445619Y-82531666D01*
X141350381Y-82055476D02*
X141350381Y-81865000D01*
X141302762Y-81769761D01*
X141255143Y-81722142D01*
X141112286Y-81626904D01*
X140921810Y-81579285D01*
X140540857Y-81579285D01*
X140445619Y-81626904D01*
X140398000Y-81674523D01*
X140350381Y-81769761D01*
X140350381Y-81960238D01*
X140398000Y-82055476D01*
X140445619Y-82103095D01*
X140540857Y-82150714D01*
X140778952Y-82150714D01*
X140874190Y-82103095D01*
X140921810Y-82055476D01*
X140969429Y-81960238D01*
X140969429Y-81769761D01*
X140921810Y-81674523D01*
X140874190Y-81626904D01*
X140778952Y-81579285D01*
X158455143Y-97322143D02*
X158407524Y-97369762D01*
X158264667Y-97417381D01*
X158169429Y-97417381D01*
X158026571Y-97369762D01*
X157931333Y-97274524D01*
X157883714Y-97179286D01*
X157836095Y-96988810D01*
X157836095Y-96845952D01*
X157883714Y-96655476D01*
X157931333Y-96560238D01*
X158026571Y-96465000D01*
X158169429Y-96417381D01*
X158264667Y-96417381D01*
X158407524Y-96465000D01*
X158455143Y-96512619D01*
X159407524Y-97417381D02*
X158836095Y-97417381D01*
X159121809Y-97417381D02*
X159121809Y-96417381D01*
X159026571Y-96560238D01*
X158931333Y-96655476D01*
X158836095Y-96703095D01*
X160026571Y-96417381D02*
X160121810Y-96417381D01*
X160217048Y-96465000D01*
X160264667Y-96512619D01*
X160312286Y-96607857D01*
X160359905Y-96798333D01*
X160359905Y-97036429D01*
X160312286Y-97226905D01*
X160264667Y-97322143D01*
X160217048Y-97369762D01*
X160121810Y-97417381D01*
X160026571Y-97417381D01*
X159931333Y-97369762D01*
X159883714Y-97322143D01*
X159836095Y-97226905D01*
X159788476Y-97036429D01*
X159788476Y-96798333D01*
X159836095Y-96607857D01*
X159883714Y-96512619D01*
X159931333Y-96465000D01*
X160026571Y-96417381D01*
X149055143Y-95322143D02*
X149007524Y-95369762D01*
X148864667Y-95417381D01*
X148769429Y-95417381D01*
X148626571Y-95369762D01*
X148531333Y-95274524D01*
X148483714Y-95179286D01*
X148436095Y-94988810D01*
X148436095Y-94845952D01*
X148483714Y-94655476D01*
X148531333Y-94560238D01*
X148626571Y-94465000D01*
X148769429Y-94417381D01*
X148864667Y-94417381D01*
X149007524Y-94465000D01*
X149055143Y-94512619D01*
X150007524Y-95417381D02*
X149436095Y-95417381D01*
X149721809Y-95417381D02*
X149721809Y-94417381D01*
X149626571Y-94560238D01*
X149531333Y-94655476D01*
X149436095Y-94703095D01*
X150959905Y-95417381D02*
X150388476Y-95417381D01*
X150674190Y-95417381D02*
X150674190Y-94417381D01*
X150578952Y-94560238D01*
X150483714Y-94655476D01*
X150388476Y-94703095D01*
X145855143Y-92207857D02*
X145902762Y-92255476D01*
X145950381Y-92398333D01*
X145950381Y-92493571D01*
X145902762Y-92636429D01*
X145807524Y-92731667D01*
X145712286Y-92779286D01*
X145521810Y-92826905D01*
X145378952Y-92826905D01*
X145188476Y-92779286D01*
X145093238Y-92731667D01*
X144998000Y-92636429D01*
X144950381Y-92493571D01*
X144950381Y-92398333D01*
X144998000Y-92255476D01*
X145045619Y-92207857D01*
X145950381Y-91255476D02*
X145950381Y-91826905D01*
X145950381Y-91541191D02*
X144950381Y-91541191D01*
X145093238Y-91636429D01*
X145188476Y-91731667D01*
X145236095Y-91826905D01*
X145045619Y-90874524D02*
X144998000Y-90826905D01*
X144950381Y-90731667D01*
X144950381Y-90493571D01*
X144998000Y-90398333D01*
X145045619Y-90350714D01*
X145140857Y-90303095D01*
X145236095Y-90303095D01*
X145378952Y-90350714D01*
X145950381Y-90922143D01*
X145950381Y-90303095D01*
X149455143Y-86907857D02*
X149502762Y-86955476D01*
X149550381Y-87098333D01*
X149550381Y-87193571D01*
X149502762Y-87336429D01*
X149407524Y-87431667D01*
X149312286Y-87479286D01*
X149121810Y-87526905D01*
X148978952Y-87526905D01*
X148788476Y-87479286D01*
X148693238Y-87431667D01*
X148598000Y-87336429D01*
X148550381Y-87193571D01*
X148550381Y-87098333D01*
X148598000Y-86955476D01*
X148645619Y-86907857D01*
X149550381Y-85955476D02*
X149550381Y-86526905D01*
X149550381Y-86241191D02*
X148550381Y-86241191D01*
X148693238Y-86336429D01*
X148788476Y-86431667D01*
X148836095Y-86526905D01*
X148550381Y-85622143D02*
X148550381Y-85003095D01*
X148931333Y-85336429D01*
X148931333Y-85193571D01*
X148978952Y-85098333D01*
X149026571Y-85050714D01*
X149121810Y-85003095D01*
X149359905Y-85003095D01*
X149455143Y-85050714D01*
X149502762Y-85098333D01*
X149550381Y-85193571D01*
X149550381Y-85479286D01*
X149502762Y-85574524D01*
X149455143Y-85622143D01*
X146531334Y-111117381D02*
X146198000Y-110641190D01*
X145959905Y-111117381D02*
X145959905Y-110117381D01*
X146340858Y-110117381D01*
X146436096Y-110165000D01*
X146483715Y-110212619D01*
X146531334Y-110307857D01*
X146531334Y-110450714D01*
X146483715Y-110545952D01*
X146436096Y-110593571D01*
X146340858Y-110641190D01*
X145959905Y-110641190D01*
X147483715Y-111117381D02*
X146912286Y-111117381D01*
X147198000Y-111117381D02*
X147198000Y-110117381D01*
X147102762Y-110260238D01*
X147007524Y-110355476D01*
X146912286Y-110403095D01*
X147731334Y-79617381D02*
X147398000Y-79141190D01*
X147159905Y-79617381D02*
X147159905Y-78617381D01*
X147540858Y-78617381D01*
X147636096Y-78665000D01*
X147683715Y-78712619D01*
X147731334Y-78807857D01*
X147731334Y-78950714D01*
X147683715Y-79045952D01*
X147636096Y-79093571D01*
X147540858Y-79141190D01*
X147159905Y-79141190D01*
X148112286Y-78712619D02*
X148159905Y-78665000D01*
X148255143Y-78617381D01*
X148493239Y-78617381D01*
X148588477Y-78665000D01*
X148636096Y-78712619D01*
X148683715Y-78807857D01*
X148683715Y-78903095D01*
X148636096Y-79045952D01*
X148064667Y-79617381D01*
X148683715Y-79617381D01*
X145950381Y-103376905D02*
X146759905Y-103376905D01*
X146855143Y-103329286D01*
X146902762Y-103281667D01*
X146950381Y-103186429D01*
X146950381Y-102995952D01*
X146902762Y-102900714D01*
X146855143Y-102853095D01*
X146759905Y-102805476D01*
X145950381Y-102805476D01*
X146045619Y-102376905D02*
X145998000Y-102329286D01*
X145950381Y-102234048D01*
X145950381Y-101995952D01*
X145998000Y-101900714D01*
X146045619Y-101853095D01*
X146140857Y-101805476D01*
X146236095Y-101805476D01*
X146378952Y-101853095D01*
X146950381Y-102424524D01*
X146950381Y-101805476D01*
X151533714Y-74467381D02*
X151533714Y-73467381D01*
X151914667Y-73467381D01*
X152009905Y-73515000D01*
X152057524Y-73562619D01*
X152105143Y-73657857D01*
X152105143Y-73800714D01*
X152057524Y-73895952D01*
X152009905Y-73943571D01*
X151914667Y-73991190D01*
X151533714Y-73991190D01*
X152486095Y-73562619D02*
X152533714Y-73515000D01*
X152628952Y-73467381D01*
X152867048Y-73467381D01*
X152962286Y-73515000D01*
X153009905Y-73562619D01*
X153057524Y-73657857D01*
X153057524Y-73753095D01*
X153009905Y-73895952D01*
X152438476Y-74467381D01*
X153057524Y-74467381D01*
X153676571Y-73467381D02*
X153771810Y-73467381D01*
X153867048Y-73515000D01*
X153914667Y-73562619D01*
X153962286Y-73657857D01*
X154009905Y-73848333D01*
X154009905Y-74086429D01*
X153962286Y-74276905D01*
X153914667Y-74372143D01*
X153867048Y-74419762D01*
X153771810Y-74467381D01*
X153676571Y-74467381D01*
X153581333Y-74419762D01*
X153533714Y-74372143D01*
X153486095Y-74276905D01*
X153438476Y-74086429D01*
X153438476Y-73848333D01*
X153486095Y-73657857D01*
X153533714Y-73562619D01*
X153581333Y-73515000D01*
X153676571Y-73467381D01*
D13*
X161945714Y-119909286D02*
X161873143Y-119981857D01*
X161655429Y-120054429D01*
X161510286Y-120054429D01*
X161292571Y-119981857D01*
X161147429Y-119836714D01*
X161074857Y-119691571D01*
X161002286Y-119401286D01*
X161002286Y-119183571D01*
X161074857Y-118893286D01*
X161147429Y-118748143D01*
X161292571Y-118603000D01*
X161510286Y-118530429D01*
X161655429Y-118530429D01*
X161873143Y-118603000D01*
X161945714Y-118675571D01*
X162598857Y-120054429D02*
X162598857Y-118530429D01*
X162598857Y-119256143D02*
X163469714Y-119256143D01*
X163469714Y-120054429D02*
X163469714Y-118530429D01*
X164921142Y-118530429D02*
X164195428Y-118530429D01*
X164122857Y-119256143D01*
X164195428Y-119183571D01*
X164340571Y-119111000D01*
X164703428Y-119111000D01*
X164848571Y-119183571D01*
X164921142Y-119256143D01*
X164993714Y-119401286D01*
X164993714Y-119764143D01*
X164921142Y-119909286D01*
X164848571Y-119981857D01*
X164703428Y-120054429D01*
X164340571Y-120054429D01*
X164195428Y-119981857D01*
X164122857Y-119909286D01*
X162945714Y-108909286D02*
X162873143Y-108981857D01*
X162655429Y-109054429D01*
X162510286Y-109054429D01*
X162292571Y-108981857D01*
X162147429Y-108836714D01*
X162074857Y-108691571D01*
X162002286Y-108401286D01*
X162002286Y-108183571D01*
X162074857Y-107893286D01*
X162147429Y-107748143D01*
X162292571Y-107603000D01*
X162510286Y-107530429D01*
X162655429Y-107530429D01*
X162873143Y-107603000D01*
X162945714Y-107675571D01*
X163598857Y-109054429D02*
X163598857Y-107530429D01*
X163598857Y-108256143D02*
X164469714Y-108256143D01*
X164469714Y-109054429D02*
X164469714Y-107530429D01*
X165848571Y-107530429D02*
X165558285Y-107530429D01*
X165413142Y-107603000D01*
X165340571Y-107675571D01*
X165195428Y-107893286D01*
X165122857Y-108183571D01*
X165122857Y-108764143D01*
X165195428Y-108909286D01*
X165268000Y-108981857D01*
X165413142Y-109054429D01*
X165703428Y-109054429D01*
X165848571Y-108981857D01*
X165921142Y-108909286D01*
X165993714Y-108764143D01*
X165993714Y-108401286D01*
X165921142Y-108256143D01*
X165848571Y-108183571D01*
X165703428Y-108111000D01*
X165413142Y-108111000D01*
X165268000Y-108183571D01*
X165195428Y-108256143D01*
X165122857Y-108401286D01*
X162945714Y-97909286D02*
X162873143Y-97981857D01*
X162655429Y-98054429D01*
X162510286Y-98054429D01*
X162292571Y-97981857D01*
X162147429Y-97836714D01*
X162074857Y-97691571D01*
X162002286Y-97401286D01*
X162002286Y-97183571D01*
X162074857Y-96893286D01*
X162147429Y-96748143D01*
X162292571Y-96603000D01*
X162510286Y-96530429D01*
X162655429Y-96530429D01*
X162873143Y-96603000D01*
X162945714Y-96675571D01*
X163598857Y-98054429D02*
X163598857Y-96530429D01*
X163598857Y-97256143D02*
X164469714Y-97256143D01*
X164469714Y-98054429D02*
X164469714Y-96530429D01*
X165050285Y-96530429D02*
X166066285Y-96530429D01*
X165413142Y-98054429D01*
X162945714Y-86909286D02*
X162873143Y-86981857D01*
X162655429Y-87054429D01*
X162510286Y-87054429D01*
X162292571Y-86981857D01*
X162147429Y-86836714D01*
X162074857Y-86691571D01*
X162002286Y-86401286D01*
X162002286Y-86183571D01*
X162074857Y-85893286D01*
X162147429Y-85748143D01*
X162292571Y-85603000D01*
X162510286Y-85530429D01*
X162655429Y-85530429D01*
X162873143Y-85603000D01*
X162945714Y-85675571D01*
X163598857Y-87054429D02*
X163598857Y-85530429D01*
X163598857Y-86256143D02*
X164469714Y-86256143D01*
X164469714Y-87054429D02*
X164469714Y-85530429D01*
X165413142Y-86183571D02*
X165268000Y-86111000D01*
X165195428Y-86038429D01*
X165122857Y-85893286D01*
X165122857Y-85820714D01*
X165195428Y-85675571D01*
X165268000Y-85603000D01*
X165413142Y-85530429D01*
X165703428Y-85530429D01*
X165848571Y-85603000D01*
X165921142Y-85675571D01*
X165993714Y-85820714D01*
X165993714Y-85893286D01*
X165921142Y-86038429D01*
X165848571Y-86111000D01*
X165703428Y-86183571D01*
X165413142Y-86183571D01*
X165268000Y-86256143D01*
X165195428Y-86328714D01*
X165122857Y-86473857D01*
X165122857Y-86764143D01*
X165195428Y-86909286D01*
X165268000Y-86981857D01*
X165413142Y-87054429D01*
X165703428Y-87054429D01*
X165848571Y-86981857D01*
X165921142Y-86909286D01*
X165993714Y-86764143D01*
X165993714Y-86473857D01*
X165921142Y-86328714D01*
X165848571Y-86256143D01*
X165703428Y-86183571D01*
X136945714Y-86909286D02*
X136873143Y-86981857D01*
X136655429Y-87054429D01*
X136510286Y-87054429D01*
X136292571Y-86981857D01*
X136147429Y-86836714D01*
X136074857Y-86691571D01*
X136002286Y-86401286D01*
X136002286Y-86183571D01*
X136074857Y-85893286D01*
X136147429Y-85748143D01*
X136292571Y-85603000D01*
X136510286Y-85530429D01*
X136655429Y-85530429D01*
X136873143Y-85603000D01*
X136945714Y-85675571D01*
X137598857Y-87054429D02*
X137598857Y-85530429D01*
X137598857Y-86256143D02*
X138469714Y-86256143D01*
X138469714Y-87054429D02*
X138469714Y-85530429D01*
X139993714Y-87054429D02*
X139122857Y-87054429D01*
X139558285Y-87054429D02*
X139558285Y-85530429D01*
X139413142Y-85748143D01*
X139268000Y-85893286D01*
X139122857Y-85965857D01*
X136945714Y-97909286D02*
X136873143Y-97981857D01*
X136655429Y-98054429D01*
X136510286Y-98054429D01*
X136292571Y-97981857D01*
X136147429Y-97836714D01*
X136074857Y-97691571D01*
X136002286Y-97401286D01*
X136002286Y-97183571D01*
X136074857Y-96893286D01*
X136147429Y-96748143D01*
X136292571Y-96603000D01*
X136510286Y-96530429D01*
X136655429Y-96530429D01*
X136873143Y-96603000D01*
X136945714Y-96675571D01*
X137598857Y-98054429D02*
X137598857Y-96530429D01*
X137598857Y-97256143D02*
X138469714Y-97256143D01*
X138469714Y-98054429D02*
X138469714Y-96530429D01*
X139122857Y-96675571D02*
X139195428Y-96603000D01*
X139340571Y-96530429D01*
X139703428Y-96530429D01*
X139848571Y-96603000D01*
X139921142Y-96675571D01*
X139993714Y-96820714D01*
X139993714Y-96965857D01*
X139921142Y-97183571D01*
X139050285Y-98054429D01*
X139993714Y-98054429D01*
X136945714Y-108909286D02*
X136873143Y-108981857D01*
X136655429Y-109054429D01*
X136510286Y-109054429D01*
X136292571Y-108981857D01*
X136147429Y-108836714D01*
X136074857Y-108691571D01*
X136002286Y-108401286D01*
X136002286Y-108183571D01*
X136074857Y-107893286D01*
X136147429Y-107748143D01*
X136292571Y-107603000D01*
X136510286Y-107530429D01*
X136655429Y-107530429D01*
X136873143Y-107603000D01*
X136945714Y-107675571D01*
X137598857Y-109054429D02*
X137598857Y-107530429D01*
X137598857Y-108256143D02*
X138469714Y-108256143D01*
X138469714Y-109054429D02*
X138469714Y-107530429D01*
X139050285Y-107530429D02*
X139993714Y-107530429D01*
X139485714Y-108111000D01*
X139703428Y-108111000D01*
X139848571Y-108183571D01*
X139921142Y-108256143D01*
X139993714Y-108401286D01*
X139993714Y-108764143D01*
X139921142Y-108909286D01*
X139848571Y-108981857D01*
X139703428Y-109054429D01*
X139268000Y-109054429D01*
X139122857Y-108981857D01*
X139050285Y-108909286D01*
X136945714Y-119909286D02*
X136873143Y-119981857D01*
X136655429Y-120054429D01*
X136510286Y-120054429D01*
X136292571Y-119981857D01*
X136147429Y-119836714D01*
X136074857Y-119691571D01*
X136002286Y-119401286D01*
X136002286Y-119183571D01*
X136074857Y-118893286D01*
X136147429Y-118748143D01*
X136292571Y-118603000D01*
X136510286Y-118530429D01*
X136655429Y-118530429D01*
X136873143Y-118603000D01*
X136945714Y-118675571D01*
X137598857Y-120054429D02*
X137598857Y-118530429D01*
X137598857Y-119256143D02*
X138469714Y-119256143D01*
X138469714Y-120054429D02*
X138469714Y-118530429D01*
X139848571Y-119038429D02*
X139848571Y-120054429D01*
X139485714Y-118457857D02*
X139122857Y-119546429D01*
X140066285Y-119546429D01*
M02*
