G04 #@! TF.FileFunction,Soldermask,Bot*
%FSLAX46Y46*%
G04 Gerber Fmt 4.6, Leading zero omitted, Abs format (unit mm)*
G04 Created by KiCad (PCBNEW (2014-11-17 BZR 5289)-product) date Sat 24 Oct 2015 02:56:26 PM EDT*
%MOMM*%
G01*
G04 APERTURE LIST*
%ADD10C,0.100000*%
%ADD11C,4.064000*%
%ADD12O,1.727200X2.032000*%
%ADD13C,3.048000*%
%ADD14R,2.235200X2.235200*%
%ADD15C,1.998980*%
%ADD16C,3.000000*%
G04 APERTURE END LIST*
D10*
D11*
X177038000Y-90805000D03*
D12*
X138938000Y-123825000D03*
X141478000Y-123825000D03*
X144018000Y-123825000D03*
X146558000Y-123825000D03*
X149098000Y-123825000D03*
X151638000Y-123825000D03*
X154178000Y-123825000D03*
X156718000Y-123825000D03*
X161798000Y-123825000D03*
X164338000Y-123825000D03*
X166878000Y-123825000D03*
X169418000Y-123825000D03*
X171958000Y-123825000D03*
X174498000Y-123825000D03*
X129794000Y-75565000D03*
X132334000Y-75565000D03*
X134874000Y-75565000D03*
X137414000Y-75565000D03*
X139954000Y-75565000D03*
X142494000Y-75565000D03*
X145034000Y-75565000D03*
X147574000Y-75565000D03*
X150114000Y-75565000D03*
X152654000Y-75565000D03*
X156718000Y-75565000D03*
X159258000Y-75565000D03*
X161798000Y-75565000D03*
X164338000Y-75565000D03*
X166878000Y-75565000D03*
X169418000Y-75565000D03*
X171958000Y-75565000D03*
X174498000Y-75565000D03*
D13*
X177038000Y-118745000D03*
D14*
X152748000Y-79115000D03*
D15*
X170998000Y-116365000D03*
D16*
X173698020Y-119065020D03*
X173698020Y-113664980D03*
X168297980Y-113664980D03*
X168297980Y-119065020D03*
D15*
X170998000Y-105365000D03*
D16*
X173698020Y-108065020D03*
X173698020Y-102664980D03*
X168297980Y-102664980D03*
X168297980Y-108065020D03*
D15*
X170998000Y-94365000D03*
D16*
X173698020Y-97065020D03*
X173698020Y-91664980D03*
X168297980Y-91664980D03*
X168297980Y-97065020D03*
D15*
X170998000Y-83365000D03*
D16*
X173698020Y-86065020D03*
X173698020Y-80664980D03*
X168297980Y-80664980D03*
X168297980Y-86065020D03*
D15*
X130998000Y-83365000D03*
D16*
X128297980Y-80664980D03*
X128297980Y-86065020D03*
X133698020Y-86065020D03*
X133698020Y-80664980D03*
D15*
X130998000Y-94365000D03*
D16*
X128297980Y-91664980D03*
X128297980Y-97065020D03*
X133698020Y-97065020D03*
X133698020Y-91664980D03*
D15*
X130998000Y-105365000D03*
D16*
X128297980Y-102664980D03*
X128297980Y-108065020D03*
X133698020Y-108065020D03*
X133698020Y-102664980D03*
D15*
X130998000Y-116365000D03*
D16*
X128297980Y-113664980D03*
X128297980Y-119065020D03*
X133698020Y-119065020D03*
X133698020Y-113664980D03*
M02*
