M48
;DRILL file {kicad (2014-11-17 BZR 5289)-product} date Sat 24 Oct 2015 02:56:23 PM EDT
;FORMAT={-:-/ absolute / inch / decimal}
FMAT,2
INCH,TZ
T1C0.016
T2C0.039
T3C0.040
T4C0.079
T5C0.120
%
G90
G05
M72
T1
X5.7401Y-3.0852
X5.7755Y-3.6876
X5.7755Y-3.7388
X5.87Y-3.7388
X5.9054Y-3.1994
X5.9763Y-3.5026
X5.9802Y-3.8057
X6.0157Y-3.8175
X6.0511Y-3.8333
T2
X5.1574Y-3.2821
X5.1574Y-3.7152
X5.1574Y-4.1482
X5.1574Y-4.5813
X6.7322Y-3.2821
X6.7322Y-3.7152
X6.7322Y-4.1482
X6.7322Y-4.5813
T3
X5.11Y-2.975
X5.21Y-2.975
X5.31Y-2.975
X5.41Y-2.975
X5.47Y-4.875
X5.51Y-2.975
X5.57Y-4.875
X5.61Y-2.975
X5.67Y-4.875
X5.71Y-2.975
X5.77Y-4.875
X5.81Y-2.975
X5.87Y-4.875
X5.91Y-2.975
X5.97Y-4.875
X6.01Y-2.975
X6.0137Y-3.1148
X6.07Y-4.875
X6.17Y-2.975
X6.17Y-4.875
X6.27Y-2.975
X6.37Y-2.975
X6.37Y-4.875
X6.47Y-2.975
X6.47Y-4.875
X6.57Y-2.975
X6.57Y-4.875
X6.67Y-2.975
X6.67Y-4.875
X6.77Y-2.975
X6.77Y-4.875
X6.87Y-2.975
X6.87Y-4.875
T4
X5.0511Y-3.1758
X5.0511Y-3.3884
X5.0511Y-3.6089
X5.0511Y-3.8215
X5.0511Y-4.0419
X5.0511Y-4.2545
X5.0511Y-4.475
X5.0511Y-4.6876
X5.2637Y-3.1758
X5.2637Y-3.3884
X5.2637Y-3.6089
X5.2637Y-3.8215
X5.2637Y-4.0419
X5.2637Y-4.2545
X5.2637Y-4.475
X5.2637Y-4.6876
X6.6259Y-3.1758
X6.6259Y-3.3884
X6.6259Y-3.6089
X6.6259Y-3.8215
X6.6259Y-4.0419
X6.6259Y-4.2545
X6.6259Y-4.475
X6.6259Y-4.6876
X6.8385Y-3.1758
X6.8385Y-3.3884
X6.8385Y-3.6089
X6.8385Y-3.8215
X6.8385Y-4.0419
X6.8385Y-4.2545
X6.8385Y-4.475
X6.8385Y-4.6876
T5
X6.97Y-3.575
X6.97Y-4.675
T0
M30
