G04 #@! TF.FileFunction,Copper,L2,Bot,Signal*
%FSLAX46Y46*%
G04 Gerber Fmt 4.6, Leading zero omitted, Abs format (unit mm)*
G04 Created by KiCad (PCBNEW (2014-11-17 BZR 5289)-product) date Sat 24 Oct 2015 02:56:26 PM EDT*
%MOMM*%
G01*
G04 APERTURE LIST*
%ADD10C,0.100000*%
%ADD11C,4.064000*%
%ADD12O,1.727200X2.032000*%
%ADD13C,3.048000*%
%ADD14R,2.235200X2.235200*%
%ADD15C,1.998980*%
%ADD16C,3.000000*%
%ADD17C,0.600000*%
%ADD18C,0.400000*%
%ADD19C,0.254000*%
G04 APERTURE END LIST*
D10*
D11*
X177038000Y-90805000D03*
D12*
X138938000Y-123825000D03*
X141478000Y-123825000D03*
X144018000Y-123825000D03*
X146558000Y-123825000D03*
X149098000Y-123825000D03*
X151638000Y-123825000D03*
X154178000Y-123825000D03*
X156718000Y-123825000D03*
X161798000Y-123825000D03*
X164338000Y-123825000D03*
X166878000Y-123825000D03*
X169418000Y-123825000D03*
X171958000Y-123825000D03*
X174498000Y-123825000D03*
X129794000Y-75565000D03*
X132334000Y-75565000D03*
X134874000Y-75565000D03*
X137414000Y-75565000D03*
X139954000Y-75565000D03*
X142494000Y-75565000D03*
X145034000Y-75565000D03*
X147574000Y-75565000D03*
X150114000Y-75565000D03*
X152654000Y-75565000D03*
X156718000Y-75565000D03*
X159258000Y-75565000D03*
X161798000Y-75565000D03*
X164338000Y-75565000D03*
X166878000Y-75565000D03*
X169418000Y-75565000D03*
X171958000Y-75565000D03*
X174498000Y-75565000D03*
D13*
X177038000Y-118745000D03*
D14*
X152748000Y-79115000D03*
D15*
X170998000Y-116365000D03*
D16*
X173698020Y-119065020D03*
X173698020Y-113664980D03*
X168297980Y-113664980D03*
X168297980Y-119065020D03*
D15*
X170998000Y-105365000D03*
D16*
X173698020Y-108065020D03*
X173698020Y-102664980D03*
X168297980Y-102664980D03*
X168297980Y-108065020D03*
D15*
X170998000Y-94365000D03*
D16*
X173698020Y-97065020D03*
X173698020Y-91664980D03*
X168297980Y-91664980D03*
X168297980Y-97065020D03*
D15*
X170998000Y-83365000D03*
D16*
X173698020Y-86065020D03*
X173698020Y-80664980D03*
X168297980Y-80664980D03*
X168297980Y-86065020D03*
D15*
X130998000Y-83365000D03*
D16*
X128297980Y-80664980D03*
X128297980Y-86065020D03*
X133698020Y-86065020D03*
X133698020Y-80664980D03*
D15*
X130998000Y-94365000D03*
D16*
X128297980Y-91664980D03*
X128297980Y-97065020D03*
X133698020Y-97065020D03*
X133698020Y-91664980D03*
D15*
X130998000Y-105365000D03*
D16*
X128297980Y-102664980D03*
X128297980Y-108065020D03*
X133698020Y-108065020D03*
X133698020Y-102664980D03*
D15*
X130998000Y-116365000D03*
D16*
X128297980Y-113664980D03*
X128297980Y-119065020D03*
X133698020Y-119065020D03*
X133698020Y-113664980D03*
D17*
X153698000Y-97365000D03*
X151798000Y-88965000D03*
X146698000Y-94965000D03*
X151898000Y-96665000D03*
X145798000Y-78365000D03*
X149098000Y-94965000D03*
X152798000Y-96965000D03*
X149998000Y-81265000D03*
X146698000Y-93665000D03*
D18*
X153698000Y-97365000D02*
X153598000Y-97265000D01*
X153598000Y-91065000D02*
X151798000Y-88965000D01*
X153598000Y-97265000D02*
X153598000Y-91065000D01*
X149098000Y-117565000D02*
X159098000Y-107565000D01*
X159098000Y-107565000D02*
X159098000Y-98365000D01*
X159098000Y-98365000D02*
X158098000Y-97365000D01*
X158098000Y-97365000D02*
X153698000Y-97365000D01*
X149098000Y-123825000D02*
X149098000Y-117565000D01*
X144698000Y-92765000D02*
X144698000Y-83065000D01*
X144698000Y-83065000D02*
X139998000Y-78565000D01*
X139998000Y-78565000D02*
X139954000Y-75565000D01*
X146698000Y-94965000D02*
X144698000Y-92765000D01*
X151898000Y-96665000D02*
X147598000Y-92465000D01*
X147598000Y-92465000D02*
X147598000Y-79965000D01*
X147598000Y-79965000D02*
X145798000Y-78365000D01*
X146698000Y-92565000D02*
X146698000Y-81365000D01*
X146698000Y-81365000D02*
X145034000Y-79865000D01*
X145034000Y-79865000D02*
X145034000Y-75565000D01*
X149098000Y-94965000D02*
X146698000Y-92565000D01*
X152798000Y-96965000D02*
X152798000Y-96265000D01*
X152798000Y-96265000D02*
X150098000Y-93565000D01*
X150098000Y-93565000D02*
X149998000Y-81265000D01*
X146698000Y-93665000D02*
X146498000Y-93665000D01*
X146498000Y-93665000D02*
X146498000Y-93565000D01*
X146498000Y-93565000D02*
X145798000Y-92765000D01*
X145798000Y-92765000D02*
X145798000Y-82665000D01*
X145798000Y-82665000D02*
X141098000Y-78265000D01*
D19*
G36*
X154371000Y-81686510D02*
X154246600Y-81748710D01*
X154246600Y-80308385D01*
X154246600Y-80156814D01*
X154246600Y-77921614D01*
X154188596Y-77781580D01*
X154081419Y-77674404D01*
X153941385Y-77616400D01*
X153898600Y-77616400D01*
X153898600Y-75744769D01*
X153898600Y-75385231D01*
X153803860Y-74908943D01*
X153534065Y-74505166D01*
X153130288Y-74235371D01*
X152654000Y-74140631D01*
X152177712Y-74235371D01*
X151773935Y-74505166D01*
X151504140Y-74908943D01*
X151409400Y-75385231D01*
X151409400Y-75744769D01*
X151504140Y-76221057D01*
X151773935Y-76624834D01*
X152177712Y-76894629D01*
X152654000Y-76989369D01*
X153130288Y-76894629D01*
X153534065Y-76624834D01*
X153803860Y-76221057D01*
X153898600Y-75744769D01*
X153898600Y-77616400D01*
X153789814Y-77616400D01*
X151554614Y-77616400D01*
X151414580Y-77674404D01*
X151358600Y-77730384D01*
X151358600Y-75744769D01*
X151358600Y-75385231D01*
X151263860Y-74908943D01*
X150994065Y-74505166D01*
X150590288Y-74235371D01*
X150114000Y-74140631D01*
X149637712Y-74235371D01*
X149233935Y-74505166D01*
X148964140Y-74908943D01*
X148869400Y-75385231D01*
X148869400Y-75744769D01*
X148964140Y-76221057D01*
X149233935Y-76624834D01*
X149637712Y-76894629D01*
X150114000Y-76989369D01*
X150590288Y-76894629D01*
X150994065Y-76624834D01*
X151263860Y-76221057D01*
X151358600Y-75744769D01*
X151358600Y-77730384D01*
X151307404Y-77781581D01*
X151249400Y-77921615D01*
X151249400Y-78073186D01*
X151249400Y-80308386D01*
X151307404Y-80448420D01*
X151414581Y-80555596D01*
X151554615Y-80613600D01*
X151706186Y-80613600D01*
X153941386Y-80613600D01*
X154081420Y-80555596D01*
X154188596Y-80448419D01*
X154246600Y-80308385D01*
X154246600Y-81748710D01*
X152171000Y-82786510D01*
X152171000Y-88382507D01*
X151934054Y-88284118D01*
X151663135Y-88283882D01*
X151412748Y-88387339D01*
X151221013Y-88578741D01*
X151117118Y-88828946D01*
X151116882Y-89099865D01*
X151220339Y-89350252D01*
X151411741Y-89541987D01*
X151591217Y-89616512D01*
X152171000Y-90292926D01*
X152171000Y-91497032D01*
X151271000Y-92097032D01*
X151271000Y-93916342D01*
X150677046Y-93322388D01*
X150582021Y-81634317D01*
X150678882Y-81401054D01*
X150679118Y-81130135D01*
X150575661Y-80879748D01*
X150384259Y-80688013D01*
X150134054Y-80584118D01*
X149863135Y-80583882D01*
X149612748Y-80687339D01*
X149421013Y-80878741D01*
X149317118Y-81128946D01*
X149316882Y-81399865D01*
X149420108Y-81649693D01*
X149516670Y-93526889D01*
X148818600Y-92845052D01*
X148818600Y-75744769D01*
X148818600Y-75385231D01*
X148723860Y-74908943D01*
X148454065Y-74505166D01*
X148050288Y-74235371D01*
X147574000Y-74140631D01*
X147097712Y-74235371D01*
X146693935Y-74505166D01*
X146424140Y-74908943D01*
X146329400Y-75385231D01*
X146329400Y-75744769D01*
X146424140Y-76221057D01*
X146693935Y-76624834D01*
X147097712Y-76894629D01*
X147574000Y-76989369D01*
X148050288Y-76894629D01*
X148454065Y-76624834D01*
X148723860Y-76221057D01*
X148818600Y-75744769D01*
X148818600Y-92845052D01*
X148179000Y-92220327D01*
X148179000Y-79965000D01*
X148175623Y-79948024D01*
X148177997Y-79930883D01*
X148153620Y-79837408D01*
X148134774Y-79742661D01*
X148125159Y-79728272D01*
X148120792Y-79711524D01*
X148062496Y-79634489D01*
X148008829Y-79554171D01*
X147994438Y-79544555D01*
X147983995Y-79530755D01*
X146454924Y-78171580D01*
X146375661Y-77979748D01*
X146184259Y-77788013D01*
X145934054Y-77684118D01*
X145663135Y-77683882D01*
X145615000Y-77703770D01*
X145615000Y-76824662D01*
X145914065Y-76624834D01*
X146183860Y-76221057D01*
X146278600Y-75744769D01*
X146278600Y-75385231D01*
X146183860Y-74908943D01*
X145914065Y-74505166D01*
X145510288Y-74235371D01*
X145034000Y-74140631D01*
X144557712Y-74235371D01*
X144153935Y-74505166D01*
X143884140Y-74908943D01*
X143789400Y-75385231D01*
X143789400Y-75744769D01*
X143884140Y-76221057D01*
X144153935Y-76624834D01*
X144453000Y-76824662D01*
X144453000Y-79865000D01*
X144455977Y-79879970D01*
X144453779Y-79895075D01*
X144477991Y-79990641D01*
X144497226Y-80087339D01*
X144505706Y-80100031D01*
X144509455Y-80114826D01*
X144568393Y-80193849D01*
X144623171Y-80275829D01*
X144635863Y-80284309D01*
X144644988Y-80296544D01*
X146117000Y-81623477D01*
X146117000Y-92565000D01*
X146161226Y-92787339D01*
X146287171Y-92975829D01*
X148420877Y-95109535D01*
X148520339Y-95350252D01*
X148711741Y-95541987D01*
X148961946Y-95645882D01*
X149232865Y-95646118D01*
X149483252Y-95542661D01*
X149674987Y-95351259D01*
X149688403Y-95318949D01*
X151225207Y-96820013D01*
X151271000Y-96930841D01*
X151271000Y-97008314D01*
X151292598Y-96983115D01*
X151320339Y-97050252D01*
X151511741Y-97241987D01*
X151761946Y-97345882D01*
X152032865Y-97346118D01*
X152191540Y-97280554D01*
X152220339Y-97350252D01*
X152411741Y-97541987D01*
X152661946Y-97645882D01*
X152932865Y-97646118D01*
X153056247Y-97595137D01*
X153120339Y-97750252D01*
X153311741Y-97941987D01*
X153561946Y-98045882D01*
X153771000Y-98046064D01*
X153771000Y-99438000D01*
X147379118Y-99438000D01*
X147379118Y-94830135D01*
X147275661Y-94579748D01*
X147084259Y-94388013D01*
X146882504Y-94304236D01*
X145279000Y-92540381D01*
X145279000Y-83065000D01*
X145277746Y-83058696D01*
X145278862Y-83052372D01*
X145255681Y-82947767D01*
X145234774Y-82842661D01*
X145231205Y-82837319D01*
X145229815Y-82831047D01*
X145168356Y-82743260D01*
X145108829Y-82654171D01*
X145103487Y-82650601D01*
X145099803Y-82645339D01*
X143738600Y-81342059D01*
X143738600Y-75744769D01*
X143738600Y-75385231D01*
X143643860Y-74908943D01*
X143374065Y-74505166D01*
X142970288Y-74235371D01*
X142494000Y-74140631D01*
X142017712Y-74235371D01*
X141613935Y-74505166D01*
X141344140Y-74908943D01*
X141249400Y-75385231D01*
X141249400Y-75744769D01*
X141344140Y-76221057D01*
X141613935Y-76624834D01*
X142017712Y-76894629D01*
X142494000Y-76989369D01*
X142970288Y-76894629D01*
X143374065Y-76624834D01*
X143643860Y-76221057D01*
X143738600Y-75744769D01*
X143738600Y-81342059D01*
X140575373Y-78313438D01*
X140553358Y-76812396D01*
X140834065Y-76624834D01*
X141103860Y-76221057D01*
X141198600Y-75744769D01*
X141198600Y-75385231D01*
X141103860Y-74908943D01*
X140834065Y-74505166D01*
X140430288Y-74235371D01*
X139954000Y-74140631D01*
X139477712Y-74235371D01*
X139073935Y-74505166D01*
X138804140Y-74908943D01*
X138709400Y-75385231D01*
X138709400Y-75744769D01*
X138804140Y-76221057D01*
X139073935Y-76624834D01*
X139391594Y-76837087D01*
X139417062Y-78573521D01*
X139417500Y-78575567D01*
X139417137Y-78577627D01*
X139441215Y-78686279D01*
X139464544Y-78795187D01*
X139465732Y-78796910D01*
X139466185Y-78798953D01*
X139530026Y-78890143D01*
X139593240Y-78981810D01*
X139594997Y-78982947D01*
X139596197Y-78984661D01*
X144117000Y-83313089D01*
X144117000Y-92765000D01*
X144136468Y-92862873D01*
X144151258Y-92961556D01*
X144158488Y-92973579D01*
X144161226Y-92987339D01*
X144216664Y-93070308D01*
X144268095Y-93155823D01*
X146016899Y-95079508D01*
X146016882Y-95099865D01*
X146120339Y-95350252D01*
X146311741Y-95541987D01*
X146561946Y-95645882D01*
X146832865Y-95646118D01*
X147083252Y-95542661D01*
X147274987Y-95351259D01*
X147378882Y-95101054D01*
X147379118Y-94830135D01*
X147379118Y-99438000D01*
X147139298Y-99438000D01*
X146073453Y-98662840D01*
X145325000Y-98101500D01*
X145325000Y-94416715D01*
X143425000Y-92279215D01*
X143425000Y-83413009D01*
X138648527Y-78556927D01*
X138648527Y-75887213D01*
X138648527Y-75242787D01*
X138489570Y-74783280D01*
X138166867Y-74419581D01*
X137733118Y-74209607D01*
X137541000Y-74270288D01*
X137541000Y-75438000D01*
X138564643Y-75438000D01*
X138648527Y-75242787D01*
X138648527Y-75887213D01*
X138564643Y-75692000D01*
X137541000Y-75692000D01*
X137541000Y-76859712D01*
X137733118Y-76920393D01*
X138166867Y-76710419D01*
X138489570Y-76346720D01*
X138648527Y-75887213D01*
X138648527Y-78556927D01*
X137351221Y-77238000D01*
X136221865Y-77238000D01*
X136188766Y-75914079D01*
X136338430Y-76346720D01*
X136661133Y-76710419D01*
X137094882Y-76920393D01*
X137287000Y-76859712D01*
X137287000Y-75692000D01*
X137267000Y-75692000D01*
X137267000Y-75438000D01*
X137287000Y-75438000D01*
X137287000Y-74270288D01*
X137094882Y-74209607D01*
X136661133Y-74419581D01*
X136338430Y-74783280D01*
X136179473Y-75242787D01*
X136263356Y-75437998D01*
X136176864Y-75437998D01*
X136128215Y-73492000D01*
X154371000Y-73492000D01*
X154371000Y-81686510D01*
X154371000Y-81686510D01*
G37*
X154371000Y-81686510D02*
X154246600Y-81748710D01*
X154246600Y-80308385D01*
X154246600Y-80156814D01*
X154246600Y-77921614D01*
X154188596Y-77781580D01*
X154081419Y-77674404D01*
X153941385Y-77616400D01*
X153898600Y-77616400D01*
X153898600Y-75744769D01*
X153898600Y-75385231D01*
X153803860Y-74908943D01*
X153534065Y-74505166D01*
X153130288Y-74235371D01*
X152654000Y-74140631D01*
X152177712Y-74235371D01*
X151773935Y-74505166D01*
X151504140Y-74908943D01*
X151409400Y-75385231D01*
X151409400Y-75744769D01*
X151504140Y-76221057D01*
X151773935Y-76624834D01*
X152177712Y-76894629D01*
X152654000Y-76989369D01*
X153130288Y-76894629D01*
X153534065Y-76624834D01*
X153803860Y-76221057D01*
X153898600Y-75744769D01*
X153898600Y-77616400D01*
X153789814Y-77616400D01*
X151554614Y-77616400D01*
X151414580Y-77674404D01*
X151358600Y-77730384D01*
X151358600Y-75744769D01*
X151358600Y-75385231D01*
X151263860Y-74908943D01*
X150994065Y-74505166D01*
X150590288Y-74235371D01*
X150114000Y-74140631D01*
X149637712Y-74235371D01*
X149233935Y-74505166D01*
X148964140Y-74908943D01*
X148869400Y-75385231D01*
X148869400Y-75744769D01*
X148964140Y-76221057D01*
X149233935Y-76624834D01*
X149637712Y-76894629D01*
X150114000Y-76989369D01*
X150590288Y-76894629D01*
X150994065Y-76624834D01*
X151263860Y-76221057D01*
X151358600Y-75744769D01*
X151358600Y-77730384D01*
X151307404Y-77781581D01*
X151249400Y-77921615D01*
X151249400Y-78073186D01*
X151249400Y-80308386D01*
X151307404Y-80448420D01*
X151414581Y-80555596D01*
X151554615Y-80613600D01*
X151706186Y-80613600D01*
X153941386Y-80613600D01*
X154081420Y-80555596D01*
X154188596Y-80448419D01*
X154246600Y-80308385D01*
X154246600Y-81748710D01*
X152171000Y-82786510D01*
X152171000Y-88382507D01*
X151934054Y-88284118D01*
X151663135Y-88283882D01*
X151412748Y-88387339D01*
X151221013Y-88578741D01*
X151117118Y-88828946D01*
X151116882Y-89099865D01*
X151220339Y-89350252D01*
X151411741Y-89541987D01*
X151591217Y-89616512D01*
X152171000Y-90292926D01*
X152171000Y-91497032D01*
X151271000Y-92097032D01*
X151271000Y-93916342D01*
X150677046Y-93322388D01*
X150582021Y-81634317D01*
X150678882Y-81401054D01*
X150679118Y-81130135D01*
X150575661Y-80879748D01*
X150384259Y-80688013D01*
X150134054Y-80584118D01*
X149863135Y-80583882D01*
X149612748Y-80687339D01*
X149421013Y-80878741D01*
X149317118Y-81128946D01*
X149316882Y-81399865D01*
X149420108Y-81649693D01*
X149516670Y-93526889D01*
X148818600Y-92845052D01*
X148818600Y-75744769D01*
X148818600Y-75385231D01*
X148723860Y-74908943D01*
X148454065Y-74505166D01*
X148050288Y-74235371D01*
X147574000Y-74140631D01*
X147097712Y-74235371D01*
X146693935Y-74505166D01*
X146424140Y-74908943D01*
X146329400Y-75385231D01*
X146329400Y-75744769D01*
X146424140Y-76221057D01*
X146693935Y-76624834D01*
X147097712Y-76894629D01*
X147574000Y-76989369D01*
X148050288Y-76894629D01*
X148454065Y-76624834D01*
X148723860Y-76221057D01*
X148818600Y-75744769D01*
X148818600Y-92845052D01*
X148179000Y-92220327D01*
X148179000Y-79965000D01*
X148175623Y-79948024D01*
X148177997Y-79930883D01*
X148153620Y-79837408D01*
X148134774Y-79742661D01*
X148125159Y-79728272D01*
X148120792Y-79711524D01*
X148062496Y-79634489D01*
X148008829Y-79554171D01*
X147994438Y-79544555D01*
X147983995Y-79530755D01*
X146454924Y-78171580D01*
X146375661Y-77979748D01*
X146184259Y-77788013D01*
X145934054Y-77684118D01*
X145663135Y-77683882D01*
X145615000Y-77703770D01*
X145615000Y-76824662D01*
X145914065Y-76624834D01*
X146183860Y-76221057D01*
X146278600Y-75744769D01*
X146278600Y-75385231D01*
X146183860Y-74908943D01*
X145914065Y-74505166D01*
X145510288Y-74235371D01*
X145034000Y-74140631D01*
X144557712Y-74235371D01*
X144153935Y-74505166D01*
X143884140Y-74908943D01*
X143789400Y-75385231D01*
X143789400Y-75744769D01*
X143884140Y-76221057D01*
X144153935Y-76624834D01*
X144453000Y-76824662D01*
X144453000Y-79865000D01*
X144455977Y-79879970D01*
X144453779Y-79895075D01*
X144477991Y-79990641D01*
X144497226Y-80087339D01*
X144505706Y-80100031D01*
X144509455Y-80114826D01*
X144568393Y-80193849D01*
X144623171Y-80275829D01*
X144635863Y-80284309D01*
X144644988Y-80296544D01*
X146117000Y-81623477D01*
X146117000Y-92565000D01*
X146161226Y-92787339D01*
X146287171Y-92975829D01*
X148420877Y-95109535D01*
X148520339Y-95350252D01*
X148711741Y-95541987D01*
X148961946Y-95645882D01*
X149232865Y-95646118D01*
X149483252Y-95542661D01*
X149674987Y-95351259D01*
X149688403Y-95318949D01*
X151225207Y-96820013D01*
X151271000Y-96930841D01*
X151271000Y-97008314D01*
X151292598Y-96983115D01*
X151320339Y-97050252D01*
X151511741Y-97241987D01*
X151761946Y-97345882D01*
X152032865Y-97346118D01*
X152191540Y-97280554D01*
X152220339Y-97350252D01*
X152411741Y-97541987D01*
X152661946Y-97645882D01*
X152932865Y-97646118D01*
X153056247Y-97595137D01*
X153120339Y-97750252D01*
X153311741Y-97941987D01*
X153561946Y-98045882D01*
X153771000Y-98046064D01*
X153771000Y-99438000D01*
X147379118Y-99438000D01*
X147379118Y-94830135D01*
X147275661Y-94579748D01*
X147084259Y-94388013D01*
X146882504Y-94304236D01*
X145279000Y-92540381D01*
X145279000Y-83065000D01*
X145277746Y-83058696D01*
X145278862Y-83052372D01*
X145255681Y-82947767D01*
X145234774Y-82842661D01*
X145231205Y-82837319D01*
X145229815Y-82831047D01*
X145168356Y-82743260D01*
X145108829Y-82654171D01*
X145103487Y-82650601D01*
X145099803Y-82645339D01*
X143738600Y-81342059D01*
X143738600Y-75744769D01*
X143738600Y-75385231D01*
X143643860Y-74908943D01*
X143374065Y-74505166D01*
X142970288Y-74235371D01*
X142494000Y-74140631D01*
X142017712Y-74235371D01*
X141613935Y-74505166D01*
X141344140Y-74908943D01*
X141249400Y-75385231D01*
X141249400Y-75744769D01*
X141344140Y-76221057D01*
X141613935Y-76624834D01*
X142017712Y-76894629D01*
X142494000Y-76989369D01*
X142970288Y-76894629D01*
X143374065Y-76624834D01*
X143643860Y-76221057D01*
X143738600Y-75744769D01*
X143738600Y-81342059D01*
X140575373Y-78313438D01*
X140553358Y-76812396D01*
X140834065Y-76624834D01*
X141103860Y-76221057D01*
X141198600Y-75744769D01*
X141198600Y-75385231D01*
X141103860Y-74908943D01*
X140834065Y-74505166D01*
X140430288Y-74235371D01*
X139954000Y-74140631D01*
X139477712Y-74235371D01*
X139073935Y-74505166D01*
X138804140Y-74908943D01*
X138709400Y-75385231D01*
X138709400Y-75744769D01*
X138804140Y-76221057D01*
X139073935Y-76624834D01*
X139391594Y-76837087D01*
X139417062Y-78573521D01*
X139417500Y-78575567D01*
X139417137Y-78577627D01*
X139441215Y-78686279D01*
X139464544Y-78795187D01*
X139465732Y-78796910D01*
X139466185Y-78798953D01*
X139530026Y-78890143D01*
X139593240Y-78981810D01*
X139594997Y-78982947D01*
X139596197Y-78984661D01*
X144117000Y-83313089D01*
X144117000Y-92765000D01*
X144136468Y-92862873D01*
X144151258Y-92961556D01*
X144158488Y-92973579D01*
X144161226Y-92987339D01*
X144216664Y-93070308D01*
X144268095Y-93155823D01*
X146016899Y-95079508D01*
X146016882Y-95099865D01*
X146120339Y-95350252D01*
X146311741Y-95541987D01*
X146561946Y-95645882D01*
X146832865Y-95646118D01*
X147083252Y-95542661D01*
X147274987Y-95351259D01*
X147378882Y-95101054D01*
X147379118Y-94830135D01*
X147379118Y-99438000D01*
X147139298Y-99438000D01*
X146073453Y-98662840D01*
X145325000Y-98101500D01*
X145325000Y-94416715D01*
X143425000Y-92279215D01*
X143425000Y-83413009D01*
X138648527Y-78556927D01*
X138648527Y-75887213D01*
X138648527Y-75242787D01*
X138489570Y-74783280D01*
X138166867Y-74419581D01*
X137733118Y-74209607D01*
X137541000Y-74270288D01*
X137541000Y-75438000D01*
X138564643Y-75438000D01*
X138648527Y-75242787D01*
X138648527Y-75887213D01*
X138564643Y-75692000D01*
X137541000Y-75692000D01*
X137541000Y-76859712D01*
X137733118Y-76920393D01*
X138166867Y-76710419D01*
X138489570Y-76346720D01*
X138648527Y-75887213D01*
X138648527Y-78556927D01*
X137351221Y-77238000D01*
X136221865Y-77238000D01*
X136188766Y-75914079D01*
X136338430Y-76346720D01*
X136661133Y-76710419D01*
X137094882Y-76920393D01*
X137287000Y-76859712D01*
X137287000Y-75692000D01*
X137267000Y-75692000D01*
X137267000Y-75438000D01*
X137287000Y-75438000D01*
X137287000Y-74270288D01*
X137094882Y-74209607D01*
X136661133Y-74419581D01*
X136338430Y-74783280D01*
X136179473Y-75242787D01*
X136263356Y-75437998D01*
X136176864Y-75437998D01*
X136128215Y-73492000D01*
X154371000Y-73492000D01*
X154371000Y-81686510D01*
G36*
X158517000Y-107324342D02*
X148687171Y-117154171D01*
X148561226Y-117342661D01*
X148522370Y-117538000D01*
X140954009Y-117538000D01*
X136254009Y-121238000D01*
X135579346Y-121238000D01*
X135579346Y-118692507D01*
X135579346Y-113292467D01*
X135579346Y-107692507D01*
X135579346Y-102292467D01*
X135579346Y-96692507D01*
X135579346Y-91292467D01*
X135579346Y-85692507D01*
X135579346Y-80292467D01*
X135293584Y-79600871D01*
X134764912Y-79071276D01*
X134073816Y-78784307D01*
X133325507Y-78783654D01*
X132633911Y-79069416D01*
X132104316Y-79598088D01*
X131817347Y-80289184D01*
X131816694Y-81037493D01*
X132102456Y-81729089D01*
X132631128Y-82258684D01*
X133322224Y-82545653D01*
X134070533Y-82546306D01*
X134762129Y-82260544D01*
X135291724Y-81731872D01*
X135578693Y-81040776D01*
X135579346Y-80292467D01*
X135579346Y-85692507D01*
X135293584Y-85000911D01*
X134764912Y-84471316D01*
X134073816Y-84184347D01*
X133325507Y-84183694D01*
X132633911Y-84469456D01*
X132378729Y-84724193D01*
X132378729Y-83091608D01*
X132169005Y-82584037D01*
X131781006Y-82195360D01*
X131273801Y-81984751D01*
X130724608Y-81984271D01*
X130217037Y-82193995D01*
X130179306Y-82231660D01*
X130179306Y-80292467D01*
X129893544Y-79600871D01*
X129364872Y-79071276D01*
X128673776Y-78784307D01*
X127925467Y-78783654D01*
X127233871Y-79069416D01*
X126704276Y-79598088D01*
X126417307Y-80289184D01*
X126416654Y-81037493D01*
X126702416Y-81729089D01*
X127231088Y-82258684D01*
X127922184Y-82545653D01*
X128670493Y-82546306D01*
X129362089Y-82260544D01*
X129891684Y-81731872D01*
X130178653Y-81040776D01*
X130179306Y-80292467D01*
X130179306Y-82231660D01*
X129828360Y-82581994D01*
X129617751Y-83089199D01*
X129617271Y-83638392D01*
X129826995Y-84145963D01*
X130214994Y-84534640D01*
X130722199Y-84745249D01*
X131271392Y-84745729D01*
X131778963Y-84536005D01*
X132167640Y-84148006D01*
X132378249Y-83640801D01*
X132378729Y-83091608D01*
X132378729Y-84724193D01*
X132104316Y-84998128D01*
X131817347Y-85689224D01*
X131816694Y-86437533D01*
X132102456Y-87129129D01*
X132631128Y-87658724D01*
X133322224Y-87945693D01*
X134070533Y-87946346D01*
X134762129Y-87660584D01*
X135291724Y-87131912D01*
X135578693Y-86440816D01*
X135579346Y-85692507D01*
X135579346Y-91292467D01*
X135293584Y-90600871D01*
X134764912Y-90071276D01*
X134073816Y-89784307D01*
X133325507Y-89783654D01*
X132633911Y-90069416D01*
X132104316Y-90598088D01*
X131817347Y-91289184D01*
X131816694Y-92037493D01*
X132102456Y-92729089D01*
X132631128Y-93258684D01*
X133322224Y-93545653D01*
X134070533Y-93546306D01*
X134762129Y-93260544D01*
X135291724Y-92731872D01*
X135578693Y-92040776D01*
X135579346Y-91292467D01*
X135579346Y-96692507D01*
X135293584Y-96000911D01*
X134764912Y-95471316D01*
X134073816Y-95184347D01*
X133325507Y-95183694D01*
X132633911Y-95469456D01*
X132378729Y-95724193D01*
X132378729Y-94091608D01*
X132169005Y-93584037D01*
X131781006Y-93195360D01*
X131273801Y-92984751D01*
X130724608Y-92984271D01*
X130217037Y-93193995D01*
X130188395Y-93222587D01*
X130188395Y-86388260D01*
X130168194Y-85640224D01*
X129920797Y-85042955D01*
X129673424Y-84869182D01*
X129493818Y-85048787D01*
X129493818Y-84689576D01*
X129320045Y-84442203D01*
X128621220Y-84174605D01*
X127873184Y-84194806D01*
X127275915Y-84442203D01*
X127102142Y-84689576D01*
X128297980Y-85885415D01*
X129493818Y-84689576D01*
X129493818Y-85048787D01*
X128477585Y-86065020D01*
X129673424Y-87260858D01*
X129920797Y-87087085D01*
X130188395Y-86388260D01*
X130188395Y-93222587D01*
X130179306Y-93231660D01*
X130179306Y-91292467D01*
X129893544Y-90600871D01*
X129493818Y-90200447D01*
X129493818Y-87440464D01*
X128297980Y-86244625D01*
X128118375Y-86424230D01*
X128118375Y-86065020D01*
X126922536Y-84869182D01*
X126675163Y-85042955D01*
X126407565Y-85741780D01*
X126427766Y-86489816D01*
X126675163Y-87087085D01*
X126922536Y-87260858D01*
X128118375Y-86065020D01*
X128118375Y-86424230D01*
X127102142Y-87440464D01*
X127275915Y-87687837D01*
X127974740Y-87955435D01*
X128722776Y-87935234D01*
X129320045Y-87687837D01*
X129493818Y-87440464D01*
X129493818Y-90200447D01*
X129364872Y-90071276D01*
X128673776Y-89784307D01*
X127925467Y-89783654D01*
X127233871Y-90069416D01*
X126704276Y-90598088D01*
X126417307Y-91289184D01*
X126416654Y-92037493D01*
X126702416Y-92729089D01*
X127231088Y-93258684D01*
X127922184Y-93545653D01*
X128670493Y-93546306D01*
X129362089Y-93260544D01*
X129891684Y-92731872D01*
X130178653Y-92040776D01*
X130179306Y-91292467D01*
X130179306Y-93231660D01*
X129828360Y-93581994D01*
X129617751Y-94089199D01*
X129617271Y-94638392D01*
X129826995Y-95145963D01*
X130214994Y-95534640D01*
X130722199Y-95745249D01*
X131271392Y-95745729D01*
X131778963Y-95536005D01*
X132167640Y-95148006D01*
X132378249Y-94640801D01*
X132378729Y-94091608D01*
X132378729Y-95724193D01*
X132104316Y-95998128D01*
X131817347Y-96689224D01*
X131816694Y-97437533D01*
X132102456Y-98129129D01*
X132631128Y-98658724D01*
X133322224Y-98945693D01*
X134070533Y-98946346D01*
X134762129Y-98660584D01*
X135291724Y-98131912D01*
X135578693Y-97440816D01*
X135579346Y-96692507D01*
X135579346Y-102292467D01*
X135293584Y-101600871D01*
X134764912Y-101071276D01*
X134073816Y-100784307D01*
X133325507Y-100783654D01*
X132633911Y-101069416D01*
X132104316Y-101598088D01*
X131817347Y-102289184D01*
X131816694Y-103037493D01*
X132102456Y-103729089D01*
X132631128Y-104258684D01*
X133322224Y-104545653D01*
X134070533Y-104546306D01*
X134762129Y-104260544D01*
X135291724Y-103731872D01*
X135578693Y-103040776D01*
X135579346Y-102292467D01*
X135579346Y-107692507D01*
X135293584Y-107000911D01*
X134764912Y-106471316D01*
X134073816Y-106184347D01*
X133325507Y-106183694D01*
X132633911Y-106469456D01*
X132378729Y-106724193D01*
X132378729Y-105091608D01*
X132169005Y-104584037D01*
X131781006Y-104195360D01*
X131273801Y-103984751D01*
X130724608Y-103984271D01*
X130217037Y-104193995D01*
X130188395Y-104222587D01*
X130188395Y-97388260D01*
X130168194Y-96640224D01*
X129920797Y-96042955D01*
X129673424Y-95869182D01*
X129493818Y-96048787D01*
X129493818Y-95689576D01*
X129320045Y-95442203D01*
X128621220Y-95174605D01*
X127873184Y-95194806D01*
X127275915Y-95442203D01*
X127102142Y-95689576D01*
X128297980Y-96885415D01*
X129493818Y-95689576D01*
X129493818Y-96048787D01*
X128477585Y-97065020D01*
X129673424Y-98260858D01*
X129920797Y-98087085D01*
X130188395Y-97388260D01*
X130188395Y-104222587D01*
X130179306Y-104231660D01*
X130179306Y-102292467D01*
X129893544Y-101600871D01*
X129493818Y-101200447D01*
X129493818Y-98440464D01*
X128297980Y-97244625D01*
X128118375Y-97424230D01*
X128118375Y-97065020D01*
X126922536Y-95869182D01*
X126675163Y-96042955D01*
X126407565Y-96741780D01*
X126427766Y-97489816D01*
X126675163Y-98087085D01*
X126922536Y-98260858D01*
X128118375Y-97065020D01*
X128118375Y-97424230D01*
X127102142Y-98440464D01*
X127275915Y-98687837D01*
X127974740Y-98955435D01*
X128722776Y-98935234D01*
X129320045Y-98687837D01*
X129493818Y-98440464D01*
X129493818Y-101200447D01*
X129364872Y-101071276D01*
X128673776Y-100784307D01*
X127925467Y-100783654D01*
X127233871Y-101069416D01*
X126704276Y-101598088D01*
X126417307Y-102289184D01*
X126416654Y-103037493D01*
X126702416Y-103729089D01*
X127231088Y-104258684D01*
X127922184Y-104545653D01*
X128670493Y-104546306D01*
X129362089Y-104260544D01*
X129891684Y-103731872D01*
X130178653Y-103040776D01*
X130179306Y-102292467D01*
X130179306Y-104231660D01*
X129828360Y-104581994D01*
X129617751Y-105089199D01*
X129617271Y-105638392D01*
X129826995Y-106145963D01*
X130214994Y-106534640D01*
X130722199Y-106745249D01*
X131271392Y-106745729D01*
X131778963Y-106536005D01*
X132167640Y-106148006D01*
X132378249Y-105640801D01*
X132378729Y-105091608D01*
X132378729Y-106724193D01*
X132104316Y-106998128D01*
X131817347Y-107689224D01*
X131816694Y-108437533D01*
X132102456Y-109129129D01*
X132631128Y-109658724D01*
X133322224Y-109945693D01*
X134070533Y-109946346D01*
X134762129Y-109660584D01*
X135291724Y-109131912D01*
X135578693Y-108440816D01*
X135579346Y-107692507D01*
X135579346Y-113292467D01*
X135293584Y-112600871D01*
X134764912Y-112071276D01*
X134073816Y-111784307D01*
X133325507Y-111783654D01*
X132633911Y-112069416D01*
X132104316Y-112598088D01*
X131817347Y-113289184D01*
X131816694Y-114037493D01*
X132102456Y-114729089D01*
X132631128Y-115258684D01*
X133322224Y-115545653D01*
X134070533Y-115546306D01*
X134762129Y-115260544D01*
X135291724Y-114731872D01*
X135578693Y-114040776D01*
X135579346Y-113292467D01*
X135579346Y-118692507D01*
X135293584Y-118000911D01*
X134764912Y-117471316D01*
X134073816Y-117184347D01*
X133325507Y-117183694D01*
X132633911Y-117469456D01*
X132378729Y-117724193D01*
X132378729Y-116091608D01*
X132169005Y-115584037D01*
X131781006Y-115195360D01*
X131273801Y-114984751D01*
X130724608Y-114984271D01*
X130217037Y-115193995D01*
X130188395Y-115222587D01*
X130188395Y-108388260D01*
X130168194Y-107640224D01*
X129920797Y-107042955D01*
X129673424Y-106869182D01*
X129493818Y-107048787D01*
X129493818Y-106689576D01*
X129320045Y-106442203D01*
X128621220Y-106174605D01*
X127873184Y-106194806D01*
X127275915Y-106442203D01*
X127102142Y-106689576D01*
X128297980Y-107885415D01*
X129493818Y-106689576D01*
X129493818Y-107048787D01*
X128477585Y-108065020D01*
X129673424Y-109260858D01*
X129920797Y-109087085D01*
X130188395Y-108388260D01*
X130188395Y-115222587D01*
X130179306Y-115231660D01*
X130179306Y-113292467D01*
X129893544Y-112600871D01*
X129493818Y-112200447D01*
X129493818Y-109440464D01*
X128297980Y-108244625D01*
X128118375Y-108424230D01*
X128118375Y-108065020D01*
X126922536Y-106869182D01*
X126675163Y-107042955D01*
X126407565Y-107741780D01*
X126427766Y-108489816D01*
X126675163Y-109087085D01*
X126922536Y-109260858D01*
X128118375Y-108065020D01*
X128118375Y-108424230D01*
X127102142Y-109440464D01*
X127275915Y-109687837D01*
X127974740Y-109955435D01*
X128722776Y-109935234D01*
X129320045Y-109687837D01*
X129493818Y-109440464D01*
X129493818Y-112200447D01*
X129364872Y-112071276D01*
X128673776Y-111784307D01*
X127925467Y-111783654D01*
X127233871Y-112069416D01*
X126704276Y-112598088D01*
X126417307Y-113289184D01*
X126416654Y-114037493D01*
X126702416Y-114729089D01*
X127231088Y-115258684D01*
X127922184Y-115545653D01*
X128670493Y-115546306D01*
X129362089Y-115260544D01*
X129891684Y-114731872D01*
X130178653Y-114040776D01*
X130179306Y-113292467D01*
X130179306Y-115231660D01*
X129828360Y-115581994D01*
X129617751Y-116089199D01*
X129617271Y-116638392D01*
X129826995Y-117145963D01*
X130214994Y-117534640D01*
X130722199Y-117745249D01*
X131271392Y-117745729D01*
X131778963Y-117536005D01*
X132167640Y-117148006D01*
X132378249Y-116640801D01*
X132378729Y-116091608D01*
X132378729Y-117724193D01*
X132104316Y-117998128D01*
X131817347Y-118689224D01*
X131816694Y-119437533D01*
X132102456Y-120129129D01*
X132631128Y-120658724D01*
X133322224Y-120945693D01*
X134070533Y-120946346D01*
X134762129Y-120660584D01*
X135291724Y-120131912D01*
X135578693Y-119440816D01*
X135579346Y-118692507D01*
X135579346Y-121238000D01*
X130188395Y-121238000D01*
X130188395Y-119388260D01*
X130168194Y-118640224D01*
X129920797Y-118042955D01*
X129673424Y-117869182D01*
X129493818Y-118048787D01*
X129493818Y-117689576D01*
X129320045Y-117442203D01*
X128621220Y-117174605D01*
X127873184Y-117194806D01*
X127275915Y-117442203D01*
X127102142Y-117689576D01*
X128297980Y-118885415D01*
X129493818Y-117689576D01*
X129493818Y-118048787D01*
X128477585Y-119065020D01*
X129673424Y-120260858D01*
X129920797Y-120087085D01*
X130188395Y-119388260D01*
X130188395Y-121238000D01*
X129493818Y-121238000D01*
X129493818Y-120440464D01*
X128297980Y-119244625D01*
X128118375Y-119424230D01*
X128118375Y-119065020D01*
X126922536Y-117869182D01*
X126675163Y-118042955D01*
X126407565Y-118741780D01*
X126427766Y-119489816D01*
X126675163Y-120087085D01*
X126922536Y-120260858D01*
X128118375Y-119065020D01*
X128118375Y-119424230D01*
X127102142Y-120440464D01*
X127275915Y-120687837D01*
X127974740Y-120955435D01*
X128722776Y-120935234D01*
X129320045Y-120687837D01*
X129493818Y-120440464D01*
X129493818Y-121238000D01*
X125954000Y-121238000D01*
X125954000Y-77892000D01*
X137344171Y-77892000D01*
X140271000Y-80916390D01*
X140271000Y-81617605D01*
X142471000Y-83817605D01*
X142471000Y-91705906D01*
X144771000Y-94905906D01*
X144771000Y-98830806D01*
X146558425Y-100092518D01*
X154525000Y-99990382D01*
X154525000Y-97946000D01*
X157857342Y-97946000D01*
X158517000Y-98605658D01*
X158517000Y-107324342D01*
X158517000Y-107324342D01*
G37*
X158517000Y-107324342D02*
X148687171Y-117154171D01*
X148561226Y-117342661D01*
X148522370Y-117538000D01*
X140954009Y-117538000D01*
X136254009Y-121238000D01*
X135579346Y-121238000D01*
X135579346Y-118692507D01*
X135579346Y-113292467D01*
X135579346Y-107692507D01*
X135579346Y-102292467D01*
X135579346Y-96692507D01*
X135579346Y-91292467D01*
X135579346Y-85692507D01*
X135579346Y-80292467D01*
X135293584Y-79600871D01*
X134764912Y-79071276D01*
X134073816Y-78784307D01*
X133325507Y-78783654D01*
X132633911Y-79069416D01*
X132104316Y-79598088D01*
X131817347Y-80289184D01*
X131816694Y-81037493D01*
X132102456Y-81729089D01*
X132631128Y-82258684D01*
X133322224Y-82545653D01*
X134070533Y-82546306D01*
X134762129Y-82260544D01*
X135291724Y-81731872D01*
X135578693Y-81040776D01*
X135579346Y-80292467D01*
X135579346Y-85692507D01*
X135293584Y-85000911D01*
X134764912Y-84471316D01*
X134073816Y-84184347D01*
X133325507Y-84183694D01*
X132633911Y-84469456D01*
X132378729Y-84724193D01*
X132378729Y-83091608D01*
X132169005Y-82584037D01*
X131781006Y-82195360D01*
X131273801Y-81984751D01*
X130724608Y-81984271D01*
X130217037Y-82193995D01*
X130179306Y-82231660D01*
X130179306Y-80292467D01*
X129893544Y-79600871D01*
X129364872Y-79071276D01*
X128673776Y-78784307D01*
X127925467Y-78783654D01*
X127233871Y-79069416D01*
X126704276Y-79598088D01*
X126417307Y-80289184D01*
X126416654Y-81037493D01*
X126702416Y-81729089D01*
X127231088Y-82258684D01*
X127922184Y-82545653D01*
X128670493Y-82546306D01*
X129362089Y-82260544D01*
X129891684Y-81731872D01*
X130178653Y-81040776D01*
X130179306Y-80292467D01*
X130179306Y-82231660D01*
X129828360Y-82581994D01*
X129617751Y-83089199D01*
X129617271Y-83638392D01*
X129826995Y-84145963D01*
X130214994Y-84534640D01*
X130722199Y-84745249D01*
X131271392Y-84745729D01*
X131778963Y-84536005D01*
X132167640Y-84148006D01*
X132378249Y-83640801D01*
X132378729Y-83091608D01*
X132378729Y-84724193D01*
X132104316Y-84998128D01*
X131817347Y-85689224D01*
X131816694Y-86437533D01*
X132102456Y-87129129D01*
X132631128Y-87658724D01*
X133322224Y-87945693D01*
X134070533Y-87946346D01*
X134762129Y-87660584D01*
X135291724Y-87131912D01*
X135578693Y-86440816D01*
X135579346Y-85692507D01*
X135579346Y-91292467D01*
X135293584Y-90600871D01*
X134764912Y-90071276D01*
X134073816Y-89784307D01*
X133325507Y-89783654D01*
X132633911Y-90069416D01*
X132104316Y-90598088D01*
X131817347Y-91289184D01*
X131816694Y-92037493D01*
X132102456Y-92729089D01*
X132631128Y-93258684D01*
X133322224Y-93545653D01*
X134070533Y-93546306D01*
X134762129Y-93260544D01*
X135291724Y-92731872D01*
X135578693Y-92040776D01*
X135579346Y-91292467D01*
X135579346Y-96692507D01*
X135293584Y-96000911D01*
X134764912Y-95471316D01*
X134073816Y-95184347D01*
X133325507Y-95183694D01*
X132633911Y-95469456D01*
X132378729Y-95724193D01*
X132378729Y-94091608D01*
X132169005Y-93584037D01*
X131781006Y-93195360D01*
X131273801Y-92984751D01*
X130724608Y-92984271D01*
X130217037Y-93193995D01*
X130188395Y-93222587D01*
X130188395Y-86388260D01*
X130168194Y-85640224D01*
X129920797Y-85042955D01*
X129673424Y-84869182D01*
X129493818Y-85048787D01*
X129493818Y-84689576D01*
X129320045Y-84442203D01*
X128621220Y-84174605D01*
X127873184Y-84194806D01*
X127275915Y-84442203D01*
X127102142Y-84689576D01*
X128297980Y-85885415D01*
X129493818Y-84689576D01*
X129493818Y-85048787D01*
X128477585Y-86065020D01*
X129673424Y-87260858D01*
X129920797Y-87087085D01*
X130188395Y-86388260D01*
X130188395Y-93222587D01*
X130179306Y-93231660D01*
X130179306Y-91292467D01*
X129893544Y-90600871D01*
X129493818Y-90200447D01*
X129493818Y-87440464D01*
X128297980Y-86244625D01*
X128118375Y-86424230D01*
X128118375Y-86065020D01*
X126922536Y-84869182D01*
X126675163Y-85042955D01*
X126407565Y-85741780D01*
X126427766Y-86489816D01*
X126675163Y-87087085D01*
X126922536Y-87260858D01*
X128118375Y-86065020D01*
X128118375Y-86424230D01*
X127102142Y-87440464D01*
X127275915Y-87687837D01*
X127974740Y-87955435D01*
X128722776Y-87935234D01*
X129320045Y-87687837D01*
X129493818Y-87440464D01*
X129493818Y-90200447D01*
X129364872Y-90071276D01*
X128673776Y-89784307D01*
X127925467Y-89783654D01*
X127233871Y-90069416D01*
X126704276Y-90598088D01*
X126417307Y-91289184D01*
X126416654Y-92037493D01*
X126702416Y-92729089D01*
X127231088Y-93258684D01*
X127922184Y-93545653D01*
X128670493Y-93546306D01*
X129362089Y-93260544D01*
X129891684Y-92731872D01*
X130178653Y-92040776D01*
X130179306Y-91292467D01*
X130179306Y-93231660D01*
X129828360Y-93581994D01*
X129617751Y-94089199D01*
X129617271Y-94638392D01*
X129826995Y-95145963D01*
X130214994Y-95534640D01*
X130722199Y-95745249D01*
X131271392Y-95745729D01*
X131778963Y-95536005D01*
X132167640Y-95148006D01*
X132378249Y-94640801D01*
X132378729Y-94091608D01*
X132378729Y-95724193D01*
X132104316Y-95998128D01*
X131817347Y-96689224D01*
X131816694Y-97437533D01*
X132102456Y-98129129D01*
X132631128Y-98658724D01*
X133322224Y-98945693D01*
X134070533Y-98946346D01*
X134762129Y-98660584D01*
X135291724Y-98131912D01*
X135578693Y-97440816D01*
X135579346Y-96692507D01*
X135579346Y-102292467D01*
X135293584Y-101600871D01*
X134764912Y-101071276D01*
X134073816Y-100784307D01*
X133325507Y-100783654D01*
X132633911Y-101069416D01*
X132104316Y-101598088D01*
X131817347Y-102289184D01*
X131816694Y-103037493D01*
X132102456Y-103729089D01*
X132631128Y-104258684D01*
X133322224Y-104545653D01*
X134070533Y-104546306D01*
X134762129Y-104260544D01*
X135291724Y-103731872D01*
X135578693Y-103040776D01*
X135579346Y-102292467D01*
X135579346Y-107692507D01*
X135293584Y-107000911D01*
X134764912Y-106471316D01*
X134073816Y-106184347D01*
X133325507Y-106183694D01*
X132633911Y-106469456D01*
X132378729Y-106724193D01*
X132378729Y-105091608D01*
X132169005Y-104584037D01*
X131781006Y-104195360D01*
X131273801Y-103984751D01*
X130724608Y-103984271D01*
X130217037Y-104193995D01*
X130188395Y-104222587D01*
X130188395Y-97388260D01*
X130168194Y-96640224D01*
X129920797Y-96042955D01*
X129673424Y-95869182D01*
X129493818Y-96048787D01*
X129493818Y-95689576D01*
X129320045Y-95442203D01*
X128621220Y-95174605D01*
X127873184Y-95194806D01*
X127275915Y-95442203D01*
X127102142Y-95689576D01*
X128297980Y-96885415D01*
X129493818Y-95689576D01*
X129493818Y-96048787D01*
X128477585Y-97065020D01*
X129673424Y-98260858D01*
X129920797Y-98087085D01*
X130188395Y-97388260D01*
X130188395Y-104222587D01*
X130179306Y-104231660D01*
X130179306Y-102292467D01*
X129893544Y-101600871D01*
X129493818Y-101200447D01*
X129493818Y-98440464D01*
X128297980Y-97244625D01*
X128118375Y-97424230D01*
X128118375Y-97065020D01*
X126922536Y-95869182D01*
X126675163Y-96042955D01*
X126407565Y-96741780D01*
X126427766Y-97489816D01*
X126675163Y-98087085D01*
X126922536Y-98260858D01*
X128118375Y-97065020D01*
X128118375Y-97424230D01*
X127102142Y-98440464D01*
X127275915Y-98687837D01*
X127974740Y-98955435D01*
X128722776Y-98935234D01*
X129320045Y-98687837D01*
X129493818Y-98440464D01*
X129493818Y-101200447D01*
X129364872Y-101071276D01*
X128673776Y-100784307D01*
X127925467Y-100783654D01*
X127233871Y-101069416D01*
X126704276Y-101598088D01*
X126417307Y-102289184D01*
X126416654Y-103037493D01*
X126702416Y-103729089D01*
X127231088Y-104258684D01*
X127922184Y-104545653D01*
X128670493Y-104546306D01*
X129362089Y-104260544D01*
X129891684Y-103731872D01*
X130178653Y-103040776D01*
X130179306Y-102292467D01*
X130179306Y-104231660D01*
X129828360Y-104581994D01*
X129617751Y-105089199D01*
X129617271Y-105638392D01*
X129826995Y-106145963D01*
X130214994Y-106534640D01*
X130722199Y-106745249D01*
X131271392Y-106745729D01*
X131778963Y-106536005D01*
X132167640Y-106148006D01*
X132378249Y-105640801D01*
X132378729Y-105091608D01*
X132378729Y-106724193D01*
X132104316Y-106998128D01*
X131817347Y-107689224D01*
X131816694Y-108437533D01*
X132102456Y-109129129D01*
X132631128Y-109658724D01*
X133322224Y-109945693D01*
X134070533Y-109946346D01*
X134762129Y-109660584D01*
X135291724Y-109131912D01*
X135578693Y-108440816D01*
X135579346Y-107692507D01*
X135579346Y-113292467D01*
X135293584Y-112600871D01*
X134764912Y-112071276D01*
X134073816Y-111784307D01*
X133325507Y-111783654D01*
X132633911Y-112069416D01*
X132104316Y-112598088D01*
X131817347Y-113289184D01*
X131816694Y-114037493D01*
X132102456Y-114729089D01*
X132631128Y-115258684D01*
X133322224Y-115545653D01*
X134070533Y-115546306D01*
X134762129Y-115260544D01*
X135291724Y-114731872D01*
X135578693Y-114040776D01*
X135579346Y-113292467D01*
X135579346Y-118692507D01*
X135293584Y-118000911D01*
X134764912Y-117471316D01*
X134073816Y-117184347D01*
X133325507Y-117183694D01*
X132633911Y-117469456D01*
X132378729Y-117724193D01*
X132378729Y-116091608D01*
X132169005Y-115584037D01*
X131781006Y-115195360D01*
X131273801Y-114984751D01*
X130724608Y-114984271D01*
X130217037Y-115193995D01*
X130188395Y-115222587D01*
X130188395Y-108388260D01*
X130168194Y-107640224D01*
X129920797Y-107042955D01*
X129673424Y-106869182D01*
X129493818Y-107048787D01*
X129493818Y-106689576D01*
X129320045Y-106442203D01*
X128621220Y-106174605D01*
X127873184Y-106194806D01*
X127275915Y-106442203D01*
X127102142Y-106689576D01*
X128297980Y-107885415D01*
X129493818Y-106689576D01*
X129493818Y-107048787D01*
X128477585Y-108065020D01*
X129673424Y-109260858D01*
X129920797Y-109087085D01*
X130188395Y-108388260D01*
X130188395Y-115222587D01*
X130179306Y-115231660D01*
X130179306Y-113292467D01*
X129893544Y-112600871D01*
X129493818Y-112200447D01*
X129493818Y-109440464D01*
X128297980Y-108244625D01*
X128118375Y-108424230D01*
X128118375Y-108065020D01*
X126922536Y-106869182D01*
X126675163Y-107042955D01*
X126407565Y-107741780D01*
X126427766Y-108489816D01*
X126675163Y-109087085D01*
X126922536Y-109260858D01*
X128118375Y-108065020D01*
X128118375Y-108424230D01*
X127102142Y-109440464D01*
X127275915Y-109687837D01*
X127974740Y-109955435D01*
X128722776Y-109935234D01*
X129320045Y-109687837D01*
X129493818Y-109440464D01*
X129493818Y-112200447D01*
X129364872Y-112071276D01*
X128673776Y-111784307D01*
X127925467Y-111783654D01*
X127233871Y-112069416D01*
X126704276Y-112598088D01*
X126417307Y-113289184D01*
X126416654Y-114037493D01*
X126702416Y-114729089D01*
X127231088Y-115258684D01*
X127922184Y-115545653D01*
X128670493Y-115546306D01*
X129362089Y-115260544D01*
X129891684Y-114731872D01*
X130178653Y-114040776D01*
X130179306Y-113292467D01*
X130179306Y-115231660D01*
X129828360Y-115581994D01*
X129617751Y-116089199D01*
X129617271Y-116638392D01*
X129826995Y-117145963D01*
X130214994Y-117534640D01*
X130722199Y-117745249D01*
X131271392Y-117745729D01*
X131778963Y-117536005D01*
X132167640Y-117148006D01*
X132378249Y-116640801D01*
X132378729Y-116091608D01*
X132378729Y-117724193D01*
X132104316Y-117998128D01*
X131817347Y-118689224D01*
X131816694Y-119437533D01*
X132102456Y-120129129D01*
X132631128Y-120658724D01*
X133322224Y-120945693D01*
X134070533Y-120946346D01*
X134762129Y-120660584D01*
X135291724Y-120131912D01*
X135578693Y-119440816D01*
X135579346Y-118692507D01*
X135579346Y-121238000D01*
X130188395Y-121238000D01*
X130188395Y-119388260D01*
X130168194Y-118640224D01*
X129920797Y-118042955D01*
X129673424Y-117869182D01*
X129493818Y-118048787D01*
X129493818Y-117689576D01*
X129320045Y-117442203D01*
X128621220Y-117174605D01*
X127873184Y-117194806D01*
X127275915Y-117442203D01*
X127102142Y-117689576D01*
X128297980Y-118885415D01*
X129493818Y-117689576D01*
X129493818Y-118048787D01*
X128477585Y-119065020D01*
X129673424Y-120260858D01*
X129920797Y-120087085D01*
X130188395Y-119388260D01*
X130188395Y-121238000D01*
X129493818Y-121238000D01*
X129493818Y-120440464D01*
X128297980Y-119244625D01*
X128118375Y-119424230D01*
X128118375Y-119065020D01*
X126922536Y-117869182D01*
X126675163Y-118042955D01*
X126407565Y-118741780D01*
X126427766Y-119489816D01*
X126675163Y-120087085D01*
X126922536Y-120260858D01*
X128118375Y-119065020D01*
X128118375Y-119424230D01*
X127102142Y-120440464D01*
X127275915Y-120687837D01*
X127974740Y-120955435D01*
X128722776Y-120935234D01*
X129320045Y-120687837D01*
X129493818Y-120440464D01*
X129493818Y-121238000D01*
X125954000Y-121238000D01*
X125954000Y-77892000D01*
X137344171Y-77892000D01*
X140271000Y-80916390D01*
X140271000Y-81617605D01*
X142471000Y-83817605D01*
X142471000Y-91705906D01*
X144771000Y-94905906D01*
X144771000Y-98830806D01*
X146558425Y-100092518D01*
X154525000Y-99990382D01*
X154525000Y-97946000D01*
X157857342Y-97946000D01*
X158517000Y-98605658D01*
X158517000Y-107324342D01*
G36*
X176970408Y-121238000D02*
X170179306Y-121238000D01*
X170179306Y-118692507D01*
X169893544Y-118000911D01*
X169364872Y-117471316D01*
X168673776Y-117184347D01*
X167925467Y-117183694D01*
X167233871Y-117469456D01*
X166704276Y-117998128D01*
X166417307Y-118689224D01*
X166416654Y-119437533D01*
X166702416Y-120129129D01*
X167231088Y-120658724D01*
X167922184Y-120945693D01*
X168670493Y-120946346D01*
X169362089Y-120660584D01*
X169891684Y-120131912D01*
X170178653Y-119440816D01*
X170179306Y-118692507D01*
X170179306Y-121238000D01*
X167261158Y-121238000D01*
X164461158Y-117538000D01*
X149946658Y-117538000D01*
X159508829Y-107975829D01*
X159634774Y-107787339D01*
X159679000Y-107565000D01*
X159679000Y-98365000D01*
X159634774Y-98142661D01*
X159508829Y-97954171D01*
X158508829Y-96954171D01*
X158320339Y-96828226D01*
X158098000Y-96784000D01*
X154411315Y-96784000D01*
X154179000Y-95622424D01*
X154179000Y-91065000D01*
X154161155Y-90975287D01*
X154150245Y-90884484D01*
X154139178Y-90864805D01*
X154134774Y-90842661D01*
X154083959Y-90766611D01*
X154039128Y-90686890D01*
X153157306Y-89658098D01*
X153224160Y-83641309D01*
X154431254Y-82991335D01*
X159258170Y-82890774D01*
X162957139Y-78492000D01*
X176582000Y-78492000D01*
X176582000Y-85979000D01*
X176616711Y-86153504D01*
X176715559Y-86301441D01*
X176808343Y-86394225D01*
X176817634Y-88391807D01*
X176560130Y-88391583D01*
X175672931Y-88758166D01*
X175588435Y-88842514D01*
X175588435Y-80988220D01*
X175568234Y-80240184D01*
X175320837Y-79642915D01*
X175073464Y-79469142D01*
X174893858Y-79648747D01*
X174893858Y-79289536D01*
X174720085Y-79042163D01*
X174021260Y-78774565D01*
X173273224Y-78794766D01*
X172675955Y-79042163D01*
X172502182Y-79289536D01*
X173698020Y-80485375D01*
X174893858Y-79289536D01*
X174893858Y-79648747D01*
X173877625Y-80664980D01*
X175073464Y-81860818D01*
X175320837Y-81687045D01*
X175588435Y-80988220D01*
X175588435Y-88842514D01*
X175579346Y-88851587D01*
X175579346Y-85692507D01*
X175293584Y-85000911D01*
X174893858Y-84600487D01*
X174893858Y-82040424D01*
X173698020Y-80844585D01*
X173518415Y-81024190D01*
X173518415Y-80664980D01*
X172322576Y-79469142D01*
X172075203Y-79642915D01*
X171807605Y-80341740D01*
X171827806Y-81089776D01*
X172075203Y-81687045D01*
X172322576Y-81860818D01*
X173518415Y-80664980D01*
X173518415Y-81024190D01*
X172502182Y-82040424D01*
X172675955Y-82287797D01*
X173374780Y-82555395D01*
X174122816Y-82535194D01*
X174720085Y-82287797D01*
X174893858Y-82040424D01*
X174893858Y-84600487D01*
X174764912Y-84471316D01*
X174073816Y-84184347D01*
X173325507Y-84183694D01*
X172633911Y-84469456D01*
X172378729Y-84724193D01*
X172378729Y-83091608D01*
X172169005Y-82584037D01*
X171781006Y-82195360D01*
X171273801Y-81984751D01*
X170724608Y-81984271D01*
X170217037Y-82193995D01*
X170179306Y-82231660D01*
X170179306Y-80292467D01*
X169893544Y-79600871D01*
X169364872Y-79071276D01*
X168673776Y-78784307D01*
X167925467Y-78783654D01*
X167233871Y-79069416D01*
X166704276Y-79598088D01*
X166417307Y-80289184D01*
X166416654Y-81037493D01*
X166702416Y-81729089D01*
X167231088Y-82258684D01*
X167922184Y-82545653D01*
X168670493Y-82546306D01*
X169362089Y-82260544D01*
X169891684Y-81731872D01*
X170178653Y-81040776D01*
X170179306Y-80292467D01*
X170179306Y-82231660D01*
X169828360Y-82581994D01*
X169617751Y-83089199D01*
X169617271Y-83638392D01*
X169826995Y-84145963D01*
X170214994Y-84534640D01*
X170722199Y-84745249D01*
X171271392Y-84745729D01*
X171778963Y-84536005D01*
X172167640Y-84148006D01*
X172378249Y-83640801D01*
X172378729Y-83091608D01*
X172378729Y-84724193D01*
X172104316Y-84998128D01*
X171817347Y-85689224D01*
X171816694Y-86437533D01*
X172102456Y-87129129D01*
X172631128Y-87658724D01*
X173322224Y-87945693D01*
X174070533Y-87946346D01*
X174762129Y-87660584D01*
X175291724Y-87131912D01*
X175578693Y-86440816D01*
X175579346Y-85692507D01*
X175579346Y-88851587D01*
X174993551Y-89436361D01*
X174733858Y-90061770D01*
X174720085Y-90042163D01*
X174021260Y-89774565D01*
X173273224Y-89794766D01*
X172675955Y-90042163D01*
X172502182Y-90289536D01*
X173698020Y-91485375D01*
X173712162Y-91471232D01*
X173891767Y-91650837D01*
X173877625Y-91664980D01*
X175073464Y-92860818D01*
X175320837Y-92687045D01*
X175372516Y-92552085D01*
X175669361Y-92849449D01*
X176555919Y-93217580D01*
X176840081Y-93217827D01*
X176949951Y-116839922D01*
X176660735Y-116839670D01*
X175960314Y-117129078D01*
X175588435Y-117500308D01*
X175588435Y-113988220D01*
X175588435Y-102988220D01*
X175579346Y-102651657D01*
X175579346Y-96692507D01*
X175293584Y-96000911D01*
X174893858Y-95600487D01*
X174893858Y-93040424D01*
X173698020Y-91844585D01*
X173518415Y-92024190D01*
X173518415Y-91664980D01*
X172322576Y-90469142D01*
X172075203Y-90642915D01*
X171807605Y-91341740D01*
X171827806Y-92089776D01*
X172075203Y-92687045D01*
X172322576Y-92860818D01*
X173518415Y-91664980D01*
X173518415Y-92024190D01*
X172502182Y-93040424D01*
X172675955Y-93287797D01*
X173374780Y-93555395D01*
X174122816Y-93535194D01*
X174720085Y-93287797D01*
X174893858Y-93040424D01*
X174893858Y-95600487D01*
X174764912Y-95471316D01*
X174073816Y-95184347D01*
X173325507Y-95183694D01*
X172633911Y-95469456D01*
X172378729Y-95724193D01*
X172378729Y-94091608D01*
X172169005Y-93584037D01*
X171781006Y-93195360D01*
X171273801Y-92984751D01*
X170724608Y-92984271D01*
X170217037Y-93193995D01*
X170179306Y-93231660D01*
X170179306Y-91292467D01*
X170179306Y-85692507D01*
X169893544Y-85000911D01*
X169364872Y-84471316D01*
X168673776Y-84184347D01*
X167925467Y-84183694D01*
X167233871Y-84469456D01*
X166704276Y-84998128D01*
X166417307Y-85689224D01*
X166416654Y-86437533D01*
X166702416Y-87129129D01*
X167231088Y-87658724D01*
X167922184Y-87945693D01*
X168670493Y-87946346D01*
X169362089Y-87660584D01*
X169891684Y-87131912D01*
X170178653Y-86440816D01*
X170179306Y-85692507D01*
X170179306Y-91292467D01*
X169893544Y-90600871D01*
X169364872Y-90071276D01*
X168673776Y-89784307D01*
X167925467Y-89783654D01*
X167233871Y-90069416D01*
X166704276Y-90598088D01*
X166417307Y-91289184D01*
X166416654Y-92037493D01*
X166702416Y-92729089D01*
X167231088Y-93258684D01*
X167922184Y-93545653D01*
X168670493Y-93546306D01*
X169362089Y-93260544D01*
X169891684Y-92731872D01*
X170178653Y-92040776D01*
X170179306Y-91292467D01*
X170179306Y-93231660D01*
X169828360Y-93581994D01*
X169617751Y-94089199D01*
X169617271Y-94638392D01*
X169826995Y-95145963D01*
X170214994Y-95534640D01*
X170722199Y-95745249D01*
X171271392Y-95745729D01*
X171778963Y-95536005D01*
X172167640Y-95148006D01*
X172378249Y-94640801D01*
X172378729Y-94091608D01*
X172378729Y-95724193D01*
X172104316Y-95998128D01*
X171817347Y-96689224D01*
X171816694Y-97437533D01*
X172102456Y-98129129D01*
X172631128Y-98658724D01*
X173322224Y-98945693D01*
X174070533Y-98946346D01*
X174762129Y-98660584D01*
X175291724Y-98131912D01*
X175578693Y-97440816D01*
X175579346Y-96692507D01*
X175579346Y-102651657D01*
X175568234Y-102240184D01*
X175320837Y-101642915D01*
X175073464Y-101469142D01*
X174893858Y-101648747D01*
X174893858Y-101289536D01*
X174720085Y-101042163D01*
X174021260Y-100774565D01*
X173273224Y-100794766D01*
X172675955Y-101042163D01*
X172502182Y-101289536D01*
X173698020Y-102485375D01*
X174893858Y-101289536D01*
X174893858Y-101648747D01*
X173877625Y-102664980D01*
X175073464Y-103860818D01*
X175320837Y-103687045D01*
X175588435Y-102988220D01*
X175588435Y-113988220D01*
X175579346Y-113651657D01*
X175579346Y-107692507D01*
X175293584Y-107000911D01*
X174893858Y-106600487D01*
X174893858Y-104040424D01*
X173698020Y-102844585D01*
X173518415Y-103024190D01*
X173518415Y-102664980D01*
X172322576Y-101469142D01*
X172075203Y-101642915D01*
X171807605Y-102341740D01*
X171827806Y-103089776D01*
X172075203Y-103687045D01*
X172322576Y-103860818D01*
X173518415Y-102664980D01*
X173518415Y-103024190D01*
X172502182Y-104040424D01*
X172675955Y-104287797D01*
X173374780Y-104555395D01*
X174122816Y-104535194D01*
X174720085Y-104287797D01*
X174893858Y-104040424D01*
X174893858Y-106600487D01*
X174764912Y-106471316D01*
X174073816Y-106184347D01*
X173325507Y-106183694D01*
X172633911Y-106469456D01*
X172378729Y-106724193D01*
X172378729Y-105091608D01*
X172169005Y-104584037D01*
X171781006Y-104195360D01*
X171273801Y-103984751D01*
X170724608Y-103984271D01*
X170217037Y-104193995D01*
X170179306Y-104231660D01*
X170179306Y-102292467D01*
X170179306Y-96692507D01*
X169893544Y-96000911D01*
X169364872Y-95471316D01*
X168673776Y-95184347D01*
X167925467Y-95183694D01*
X167233871Y-95469456D01*
X166704276Y-95998128D01*
X166417307Y-96689224D01*
X166416654Y-97437533D01*
X166702416Y-98129129D01*
X167231088Y-98658724D01*
X167922184Y-98945693D01*
X168670493Y-98946346D01*
X169362089Y-98660584D01*
X169891684Y-98131912D01*
X170178653Y-97440816D01*
X170179306Y-96692507D01*
X170179306Y-102292467D01*
X169893544Y-101600871D01*
X169364872Y-101071276D01*
X168673776Y-100784307D01*
X167925467Y-100783654D01*
X167233871Y-101069416D01*
X166704276Y-101598088D01*
X166417307Y-102289184D01*
X166416654Y-103037493D01*
X166702416Y-103729089D01*
X167231088Y-104258684D01*
X167922184Y-104545653D01*
X168670493Y-104546306D01*
X169362089Y-104260544D01*
X169891684Y-103731872D01*
X170178653Y-103040776D01*
X170179306Y-102292467D01*
X170179306Y-104231660D01*
X169828360Y-104581994D01*
X169617751Y-105089199D01*
X169617271Y-105638392D01*
X169826995Y-106145963D01*
X170214994Y-106534640D01*
X170722199Y-106745249D01*
X171271392Y-106745729D01*
X171778963Y-106536005D01*
X172167640Y-106148006D01*
X172378249Y-105640801D01*
X172378729Y-105091608D01*
X172378729Y-106724193D01*
X172104316Y-106998128D01*
X171817347Y-107689224D01*
X171816694Y-108437533D01*
X172102456Y-109129129D01*
X172631128Y-109658724D01*
X173322224Y-109945693D01*
X174070533Y-109946346D01*
X174762129Y-109660584D01*
X175291724Y-109131912D01*
X175578693Y-108440816D01*
X175579346Y-107692507D01*
X175579346Y-113651657D01*
X175568234Y-113240184D01*
X175320837Y-112642915D01*
X175073464Y-112469142D01*
X174893858Y-112648747D01*
X174893858Y-112289536D01*
X174720085Y-112042163D01*
X174021260Y-111774565D01*
X173273224Y-111794766D01*
X172675955Y-112042163D01*
X172502182Y-112289536D01*
X173698020Y-113485375D01*
X174893858Y-112289536D01*
X174893858Y-112648747D01*
X173877625Y-113664980D01*
X175073464Y-114860818D01*
X175320837Y-114687045D01*
X175588435Y-113988220D01*
X175588435Y-117500308D01*
X175423961Y-117664495D01*
X175287005Y-117994321D01*
X174893858Y-117600487D01*
X174893858Y-115040424D01*
X173698020Y-113844585D01*
X173518415Y-114024190D01*
X173518415Y-113664980D01*
X172322576Y-112469142D01*
X172075203Y-112642915D01*
X171807605Y-113341740D01*
X171827806Y-114089776D01*
X172075203Y-114687045D01*
X172322576Y-114860818D01*
X173518415Y-113664980D01*
X173518415Y-114024190D01*
X172502182Y-115040424D01*
X172675955Y-115287797D01*
X173374780Y-115555395D01*
X174122816Y-115535194D01*
X174720085Y-115287797D01*
X174893858Y-115040424D01*
X174893858Y-117600487D01*
X174764912Y-117471316D01*
X174073816Y-117184347D01*
X173325507Y-117183694D01*
X172633911Y-117469456D01*
X172378729Y-117724193D01*
X172378729Y-116091608D01*
X172169005Y-115584037D01*
X171781006Y-115195360D01*
X171273801Y-114984751D01*
X170724608Y-114984271D01*
X170217037Y-115193995D01*
X170179306Y-115231660D01*
X170179306Y-113292467D01*
X170179306Y-107692507D01*
X169893544Y-107000911D01*
X169364872Y-106471316D01*
X168673776Y-106184347D01*
X167925467Y-106183694D01*
X167233871Y-106469456D01*
X166704276Y-106998128D01*
X166417307Y-107689224D01*
X166416654Y-108437533D01*
X166702416Y-109129129D01*
X167231088Y-109658724D01*
X167922184Y-109945693D01*
X168670493Y-109946346D01*
X169362089Y-109660584D01*
X169891684Y-109131912D01*
X170178653Y-108440816D01*
X170179306Y-107692507D01*
X170179306Y-113292467D01*
X169893544Y-112600871D01*
X169364872Y-112071276D01*
X168673776Y-111784307D01*
X167925467Y-111783654D01*
X167233871Y-112069416D01*
X166704276Y-112598088D01*
X166417307Y-113289184D01*
X166416654Y-114037493D01*
X166702416Y-114729089D01*
X167231088Y-115258684D01*
X167922184Y-115545653D01*
X168670493Y-115546306D01*
X169362089Y-115260544D01*
X169891684Y-114731872D01*
X170178653Y-114040776D01*
X170179306Y-113292467D01*
X170179306Y-115231660D01*
X169828360Y-115581994D01*
X169617751Y-116089199D01*
X169617271Y-116638392D01*
X169826995Y-117145963D01*
X170214994Y-117534640D01*
X170722199Y-117745249D01*
X171271392Y-117745729D01*
X171778963Y-117536005D01*
X172167640Y-117148006D01*
X172378249Y-116640801D01*
X172378729Y-116091608D01*
X172378729Y-117724193D01*
X172104316Y-117998128D01*
X171817347Y-118689224D01*
X171816694Y-119437533D01*
X172102456Y-120129129D01*
X172631128Y-120658724D01*
X173322224Y-120945693D01*
X174070533Y-120946346D01*
X174762129Y-120660584D01*
X175291724Y-120131912D01*
X175421104Y-119820330D01*
X175422078Y-119822686D01*
X175957495Y-120359039D01*
X176657410Y-120649668D01*
X176967672Y-120649939D01*
X176970408Y-121238000D01*
X176970408Y-121238000D01*
G37*
X176970408Y-121238000D02*
X170179306Y-121238000D01*
X170179306Y-118692507D01*
X169893544Y-118000911D01*
X169364872Y-117471316D01*
X168673776Y-117184347D01*
X167925467Y-117183694D01*
X167233871Y-117469456D01*
X166704276Y-117998128D01*
X166417307Y-118689224D01*
X166416654Y-119437533D01*
X166702416Y-120129129D01*
X167231088Y-120658724D01*
X167922184Y-120945693D01*
X168670493Y-120946346D01*
X169362089Y-120660584D01*
X169891684Y-120131912D01*
X170178653Y-119440816D01*
X170179306Y-118692507D01*
X170179306Y-121238000D01*
X167261158Y-121238000D01*
X164461158Y-117538000D01*
X149946658Y-117538000D01*
X159508829Y-107975829D01*
X159634774Y-107787339D01*
X159679000Y-107565000D01*
X159679000Y-98365000D01*
X159634774Y-98142661D01*
X159508829Y-97954171D01*
X158508829Y-96954171D01*
X158320339Y-96828226D01*
X158098000Y-96784000D01*
X154411315Y-96784000D01*
X154179000Y-95622424D01*
X154179000Y-91065000D01*
X154161155Y-90975287D01*
X154150245Y-90884484D01*
X154139178Y-90864805D01*
X154134774Y-90842661D01*
X154083959Y-90766611D01*
X154039128Y-90686890D01*
X153157306Y-89658098D01*
X153224160Y-83641309D01*
X154431254Y-82991335D01*
X159258170Y-82890774D01*
X162957139Y-78492000D01*
X176582000Y-78492000D01*
X176582000Y-85979000D01*
X176616711Y-86153504D01*
X176715559Y-86301441D01*
X176808343Y-86394225D01*
X176817634Y-88391807D01*
X176560130Y-88391583D01*
X175672931Y-88758166D01*
X175588435Y-88842514D01*
X175588435Y-80988220D01*
X175568234Y-80240184D01*
X175320837Y-79642915D01*
X175073464Y-79469142D01*
X174893858Y-79648747D01*
X174893858Y-79289536D01*
X174720085Y-79042163D01*
X174021260Y-78774565D01*
X173273224Y-78794766D01*
X172675955Y-79042163D01*
X172502182Y-79289536D01*
X173698020Y-80485375D01*
X174893858Y-79289536D01*
X174893858Y-79648747D01*
X173877625Y-80664980D01*
X175073464Y-81860818D01*
X175320837Y-81687045D01*
X175588435Y-80988220D01*
X175588435Y-88842514D01*
X175579346Y-88851587D01*
X175579346Y-85692507D01*
X175293584Y-85000911D01*
X174893858Y-84600487D01*
X174893858Y-82040424D01*
X173698020Y-80844585D01*
X173518415Y-81024190D01*
X173518415Y-80664980D01*
X172322576Y-79469142D01*
X172075203Y-79642915D01*
X171807605Y-80341740D01*
X171827806Y-81089776D01*
X172075203Y-81687045D01*
X172322576Y-81860818D01*
X173518415Y-80664980D01*
X173518415Y-81024190D01*
X172502182Y-82040424D01*
X172675955Y-82287797D01*
X173374780Y-82555395D01*
X174122816Y-82535194D01*
X174720085Y-82287797D01*
X174893858Y-82040424D01*
X174893858Y-84600487D01*
X174764912Y-84471316D01*
X174073816Y-84184347D01*
X173325507Y-84183694D01*
X172633911Y-84469456D01*
X172378729Y-84724193D01*
X172378729Y-83091608D01*
X172169005Y-82584037D01*
X171781006Y-82195360D01*
X171273801Y-81984751D01*
X170724608Y-81984271D01*
X170217037Y-82193995D01*
X170179306Y-82231660D01*
X170179306Y-80292467D01*
X169893544Y-79600871D01*
X169364872Y-79071276D01*
X168673776Y-78784307D01*
X167925467Y-78783654D01*
X167233871Y-79069416D01*
X166704276Y-79598088D01*
X166417307Y-80289184D01*
X166416654Y-81037493D01*
X166702416Y-81729089D01*
X167231088Y-82258684D01*
X167922184Y-82545653D01*
X168670493Y-82546306D01*
X169362089Y-82260544D01*
X169891684Y-81731872D01*
X170178653Y-81040776D01*
X170179306Y-80292467D01*
X170179306Y-82231660D01*
X169828360Y-82581994D01*
X169617751Y-83089199D01*
X169617271Y-83638392D01*
X169826995Y-84145963D01*
X170214994Y-84534640D01*
X170722199Y-84745249D01*
X171271392Y-84745729D01*
X171778963Y-84536005D01*
X172167640Y-84148006D01*
X172378249Y-83640801D01*
X172378729Y-83091608D01*
X172378729Y-84724193D01*
X172104316Y-84998128D01*
X171817347Y-85689224D01*
X171816694Y-86437533D01*
X172102456Y-87129129D01*
X172631128Y-87658724D01*
X173322224Y-87945693D01*
X174070533Y-87946346D01*
X174762129Y-87660584D01*
X175291724Y-87131912D01*
X175578693Y-86440816D01*
X175579346Y-85692507D01*
X175579346Y-88851587D01*
X174993551Y-89436361D01*
X174733858Y-90061770D01*
X174720085Y-90042163D01*
X174021260Y-89774565D01*
X173273224Y-89794766D01*
X172675955Y-90042163D01*
X172502182Y-90289536D01*
X173698020Y-91485375D01*
X173712162Y-91471232D01*
X173891767Y-91650837D01*
X173877625Y-91664980D01*
X175073464Y-92860818D01*
X175320837Y-92687045D01*
X175372516Y-92552085D01*
X175669361Y-92849449D01*
X176555919Y-93217580D01*
X176840081Y-93217827D01*
X176949951Y-116839922D01*
X176660735Y-116839670D01*
X175960314Y-117129078D01*
X175588435Y-117500308D01*
X175588435Y-113988220D01*
X175588435Y-102988220D01*
X175579346Y-102651657D01*
X175579346Y-96692507D01*
X175293584Y-96000911D01*
X174893858Y-95600487D01*
X174893858Y-93040424D01*
X173698020Y-91844585D01*
X173518415Y-92024190D01*
X173518415Y-91664980D01*
X172322576Y-90469142D01*
X172075203Y-90642915D01*
X171807605Y-91341740D01*
X171827806Y-92089776D01*
X172075203Y-92687045D01*
X172322576Y-92860818D01*
X173518415Y-91664980D01*
X173518415Y-92024190D01*
X172502182Y-93040424D01*
X172675955Y-93287797D01*
X173374780Y-93555395D01*
X174122816Y-93535194D01*
X174720085Y-93287797D01*
X174893858Y-93040424D01*
X174893858Y-95600487D01*
X174764912Y-95471316D01*
X174073816Y-95184347D01*
X173325507Y-95183694D01*
X172633911Y-95469456D01*
X172378729Y-95724193D01*
X172378729Y-94091608D01*
X172169005Y-93584037D01*
X171781006Y-93195360D01*
X171273801Y-92984751D01*
X170724608Y-92984271D01*
X170217037Y-93193995D01*
X170179306Y-93231660D01*
X170179306Y-91292467D01*
X170179306Y-85692507D01*
X169893544Y-85000911D01*
X169364872Y-84471316D01*
X168673776Y-84184347D01*
X167925467Y-84183694D01*
X167233871Y-84469456D01*
X166704276Y-84998128D01*
X166417307Y-85689224D01*
X166416654Y-86437533D01*
X166702416Y-87129129D01*
X167231088Y-87658724D01*
X167922184Y-87945693D01*
X168670493Y-87946346D01*
X169362089Y-87660584D01*
X169891684Y-87131912D01*
X170178653Y-86440816D01*
X170179306Y-85692507D01*
X170179306Y-91292467D01*
X169893544Y-90600871D01*
X169364872Y-90071276D01*
X168673776Y-89784307D01*
X167925467Y-89783654D01*
X167233871Y-90069416D01*
X166704276Y-90598088D01*
X166417307Y-91289184D01*
X166416654Y-92037493D01*
X166702416Y-92729089D01*
X167231088Y-93258684D01*
X167922184Y-93545653D01*
X168670493Y-93546306D01*
X169362089Y-93260544D01*
X169891684Y-92731872D01*
X170178653Y-92040776D01*
X170179306Y-91292467D01*
X170179306Y-93231660D01*
X169828360Y-93581994D01*
X169617751Y-94089199D01*
X169617271Y-94638392D01*
X169826995Y-95145963D01*
X170214994Y-95534640D01*
X170722199Y-95745249D01*
X171271392Y-95745729D01*
X171778963Y-95536005D01*
X172167640Y-95148006D01*
X172378249Y-94640801D01*
X172378729Y-94091608D01*
X172378729Y-95724193D01*
X172104316Y-95998128D01*
X171817347Y-96689224D01*
X171816694Y-97437533D01*
X172102456Y-98129129D01*
X172631128Y-98658724D01*
X173322224Y-98945693D01*
X174070533Y-98946346D01*
X174762129Y-98660584D01*
X175291724Y-98131912D01*
X175578693Y-97440816D01*
X175579346Y-96692507D01*
X175579346Y-102651657D01*
X175568234Y-102240184D01*
X175320837Y-101642915D01*
X175073464Y-101469142D01*
X174893858Y-101648747D01*
X174893858Y-101289536D01*
X174720085Y-101042163D01*
X174021260Y-100774565D01*
X173273224Y-100794766D01*
X172675955Y-101042163D01*
X172502182Y-101289536D01*
X173698020Y-102485375D01*
X174893858Y-101289536D01*
X174893858Y-101648747D01*
X173877625Y-102664980D01*
X175073464Y-103860818D01*
X175320837Y-103687045D01*
X175588435Y-102988220D01*
X175588435Y-113988220D01*
X175579346Y-113651657D01*
X175579346Y-107692507D01*
X175293584Y-107000911D01*
X174893858Y-106600487D01*
X174893858Y-104040424D01*
X173698020Y-102844585D01*
X173518415Y-103024190D01*
X173518415Y-102664980D01*
X172322576Y-101469142D01*
X172075203Y-101642915D01*
X171807605Y-102341740D01*
X171827806Y-103089776D01*
X172075203Y-103687045D01*
X172322576Y-103860818D01*
X173518415Y-102664980D01*
X173518415Y-103024190D01*
X172502182Y-104040424D01*
X172675955Y-104287797D01*
X173374780Y-104555395D01*
X174122816Y-104535194D01*
X174720085Y-104287797D01*
X174893858Y-104040424D01*
X174893858Y-106600487D01*
X174764912Y-106471316D01*
X174073816Y-106184347D01*
X173325507Y-106183694D01*
X172633911Y-106469456D01*
X172378729Y-106724193D01*
X172378729Y-105091608D01*
X172169005Y-104584037D01*
X171781006Y-104195360D01*
X171273801Y-103984751D01*
X170724608Y-103984271D01*
X170217037Y-104193995D01*
X170179306Y-104231660D01*
X170179306Y-102292467D01*
X170179306Y-96692507D01*
X169893544Y-96000911D01*
X169364872Y-95471316D01*
X168673776Y-95184347D01*
X167925467Y-95183694D01*
X167233871Y-95469456D01*
X166704276Y-95998128D01*
X166417307Y-96689224D01*
X166416654Y-97437533D01*
X166702416Y-98129129D01*
X167231088Y-98658724D01*
X167922184Y-98945693D01*
X168670493Y-98946346D01*
X169362089Y-98660584D01*
X169891684Y-98131912D01*
X170178653Y-97440816D01*
X170179306Y-96692507D01*
X170179306Y-102292467D01*
X169893544Y-101600871D01*
X169364872Y-101071276D01*
X168673776Y-100784307D01*
X167925467Y-100783654D01*
X167233871Y-101069416D01*
X166704276Y-101598088D01*
X166417307Y-102289184D01*
X166416654Y-103037493D01*
X166702416Y-103729089D01*
X167231088Y-104258684D01*
X167922184Y-104545653D01*
X168670493Y-104546306D01*
X169362089Y-104260544D01*
X169891684Y-103731872D01*
X170178653Y-103040776D01*
X170179306Y-102292467D01*
X170179306Y-104231660D01*
X169828360Y-104581994D01*
X169617751Y-105089199D01*
X169617271Y-105638392D01*
X169826995Y-106145963D01*
X170214994Y-106534640D01*
X170722199Y-106745249D01*
X171271392Y-106745729D01*
X171778963Y-106536005D01*
X172167640Y-106148006D01*
X172378249Y-105640801D01*
X172378729Y-105091608D01*
X172378729Y-106724193D01*
X172104316Y-106998128D01*
X171817347Y-107689224D01*
X171816694Y-108437533D01*
X172102456Y-109129129D01*
X172631128Y-109658724D01*
X173322224Y-109945693D01*
X174070533Y-109946346D01*
X174762129Y-109660584D01*
X175291724Y-109131912D01*
X175578693Y-108440816D01*
X175579346Y-107692507D01*
X175579346Y-113651657D01*
X175568234Y-113240184D01*
X175320837Y-112642915D01*
X175073464Y-112469142D01*
X174893858Y-112648747D01*
X174893858Y-112289536D01*
X174720085Y-112042163D01*
X174021260Y-111774565D01*
X173273224Y-111794766D01*
X172675955Y-112042163D01*
X172502182Y-112289536D01*
X173698020Y-113485375D01*
X174893858Y-112289536D01*
X174893858Y-112648747D01*
X173877625Y-113664980D01*
X175073464Y-114860818D01*
X175320837Y-114687045D01*
X175588435Y-113988220D01*
X175588435Y-117500308D01*
X175423961Y-117664495D01*
X175287005Y-117994321D01*
X174893858Y-117600487D01*
X174893858Y-115040424D01*
X173698020Y-113844585D01*
X173518415Y-114024190D01*
X173518415Y-113664980D01*
X172322576Y-112469142D01*
X172075203Y-112642915D01*
X171807605Y-113341740D01*
X171827806Y-114089776D01*
X172075203Y-114687045D01*
X172322576Y-114860818D01*
X173518415Y-113664980D01*
X173518415Y-114024190D01*
X172502182Y-115040424D01*
X172675955Y-115287797D01*
X173374780Y-115555395D01*
X174122816Y-115535194D01*
X174720085Y-115287797D01*
X174893858Y-115040424D01*
X174893858Y-117600487D01*
X174764912Y-117471316D01*
X174073816Y-117184347D01*
X173325507Y-117183694D01*
X172633911Y-117469456D01*
X172378729Y-117724193D01*
X172378729Y-116091608D01*
X172169005Y-115584037D01*
X171781006Y-115195360D01*
X171273801Y-114984751D01*
X170724608Y-114984271D01*
X170217037Y-115193995D01*
X170179306Y-115231660D01*
X170179306Y-113292467D01*
X170179306Y-107692507D01*
X169893544Y-107000911D01*
X169364872Y-106471316D01*
X168673776Y-106184347D01*
X167925467Y-106183694D01*
X167233871Y-106469456D01*
X166704276Y-106998128D01*
X166417307Y-107689224D01*
X166416654Y-108437533D01*
X166702416Y-109129129D01*
X167231088Y-109658724D01*
X167922184Y-109945693D01*
X168670493Y-109946346D01*
X169362089Y-109660584D01*
X169891684Y-109131912D01*
X170178653Y-108440816D01*
X170179306Y-107692507D01*
X170179306Y-113292467D01*
X169893544Y-112600871D01*
X169364872Y-112071276D01*
X168673776Y-111784307D01*
X167925467Y-111783654D01*
X167233871Y-112069416D01*
X166704276Y-112598088D01*
X166417307Y-113289184D01*
X166416654Y-114037493D01*
X166702416Y-114729089D01*
X167231088Y-115258684D01*
X167922184Y-115545653D01*
X168670493Y-115546306D01*
X169362089Y-115260544D01*
X169891684Y-114731872D01*
X170178653Y-114040776D01*
X170179306Y-113292467D01*
X170179306Y-115231660D01*
X169828360Y-115581994D01*
X169617751Y-116089199D01*
X169617271Y-116638392D01*
X169826995Y-117145963D01*
X170214994Y-117534640D01*
X170722199Y-117745249D01*
X171271392Y-117745729D01*
X171778963Y-117536005D01*
X172167640Y-117148006D01*
X172378249Y-116640801D01*
X172378729Y-116091608D01*
X172378729Y-117724193D01*
X172104316Y-117998128D01*
X171817347Y-118689224D01*
X171816694Y-119437533D01*
X172102456Y-120129129D01*
X172631128Y-120658724D01*
X173322224Y-120945693D01*
X174070533Y-120946346D01*
X174762129Y-120660584D01*
X175291724Y-120131912D01*
X175421104Y-119820330D01*
X175422078Y-119822686D01*
X175957495Y-120359039D01*
X176657410Y-120649668D01*
X176967672Y-120649939D01*
X176970408Y-121238000D01*
M02*
