G04 #@! TF.FileFunction,Copper,L1,Top,Signal*
%FSLAX46Y46*%
G04 Gerber Fmt 4.6, Leading zero omitted, Abs format (unit mm)*
G04 Created by KiCad (PCBNEW (2014-11-17 BZR 5289)-product) date Wed 28 Oct 2015 01:57:00 PM EDT*
%MOMM*%
G01*
G04 APERTURE LIST*
%ADD10C,0.100000*%
%ADD11R,2.032000X2.032000*%
%ADD12O,2.032000X2.032000*%
%ADD13O,1.400000X2.500000*%
%ADD14R,2.000000X2.000000*%
%ADD15C,2.000000*%
%ADD16C,1.998980*%
%ADD17C,3.500000*%
%ADD18C,4.000000*%
%ADD19C,0.500000*%
%ADD20C,0.254000*%
G04 APERTURE END LIST*
D10*
D11*
X193000000Y-91500000D03*
D12*
X193000000Y-96000000D03*
D11*
X193000000Y-102500000D03*
D12*
X193000000Y-107500000D03*
D13*
X205310000Y-111190000D03*
X202770000Y-111190000D03*
X200230000Y-111190000D03*
X197690000Y-111190000D03*
X197690000Y-118810000D03*
X200230000Y-118810000D03*
X202770000Y-118810000D03*
X205310000Y-118810000D03*
X218810000Y-88190000D03*
X216270000Y-88190000D03*
X213730000Y-88190000D03*
X211190000Y-88190000D03*
X211190000Y-95810000D03*
X213730000Y-95810000D03*
X216270000Y-95810000D03*
X218810000Y-95810000D03*
D14*
X214000000Y-82500000D03*
D15*
X219000000Y-82500000D03*
D14*
X212500000Y-116500000D03*
D15*
X212500000Y-111500000D03*
D14*
X204500000Y-103000000D03*
D15*
X199500000Y-103000000D03*
D16*
X224000000Y-96000000D03*
X224000000Y-81000000D03*
D17*
X223500000Y-107407898D03*
X219907898Y-111000000D03*
D18*
X228888154Y-116388154D03*
D17*
X201500000Y-92592102D03*
X205092102Y-89000000D03*
D18*
X196111846Y-83611846D03*
D19*
X215500000Y-81000000D02*
X214000000Y-82500000D01*
X224000000Y-81000000D02*
X215500000Y-81000000D01*
X216270000Y-84770000D02*
X216270000Y-88190000D01*
X214000000Y-82500000D02*
X216270000Y-84770000D01*
X213730000Y-93270000D02*
X216270000Y-90730000D01*
X216270000Y-90730000D02*
X216270000Y-88190000D01*
X213730000Y-95810000D02*
X213730000Y-93270000D01*
X200230000Y-118810000D02*
X202770000Y-118810000D01*
X202770000Y-117730000D02*
X204000000Y-116500000D01*
X204000000Y-116500000D02*
X212500000Y-116500000D01*
X202770000Y-118810000D02*
X202770000Y-117730000D01*
X212611846Y-116388154D02*
X212500000Y-116500000D01*
X228888154Y-116388154D02*
X212611846Y-116388154D01*
X200230000Y-106770000D02*
X200230000Y-111190000D01*
X204000000Y-103000000D02*
X200230000Y-106770000D01*
X204500000Y-103000000D02*
X204000000Y-103000000D01*
X199500000Y-103000000D02*
X193500000Y-103000000D01*
X193500000Y-103000000D02*
X193000000Y-102500000D01*
X222500000Y-93500000D02*
X218580000Y-93500000D01*
X218580000Y-93500000D02*
X216270000Y-95810000D01*
X224000000Y-95000000D02*
X222500000Y-93500000D01*
X224000000Y-96000000D02*
X224000000Y-95000000D01*
X202770000Y-108730000D02*
X204500000Y-107000000D01*
X204500000Y-107000000D02*
X206000000Y-107000000D01*
X206000000Y-107000000D02*
X208500000Y-104500000D01*
X208500000Y-104500000D02*
X208500000Y-95500000D01*
X208500000Y-95500000D02*
X213730000Y-90270000D01*
X213730000Y-90270000D02*
X213730000Y-88190000D01*
X202770000Y-111190000D02*
X202770000Y-108730000D01*
D20*
G36*
X233873000Y-115956578D02*
X233832802Y-116158665D01*
X231760334Y-119260333D01*
X231269567Y-119588253D01*
X231269567Y-115916622D01*
X230907845Y-115041188D01*
X230238643Y-114370817D01*
X229363842Y-114007568D01*
X228416622Y-114006741D01*
X227541188Y-114368463D01*
X226870817Y-115037665D01*
X226572059Y-115757154D01*
X225622462Y-115757154D01*
X225622462Y-107872646D01*
X225622462Y-106943150D01*
X225380729Y-106389869D01*
X225380729Y-95726608D01*
X225380729Y-80726608D01*
X225171005Y-80219037D01*
X224783006Y-79830360D01*
X224275801Y-79619751D01*
X223726608Y-79619271D01*
X223219037Y-79828995D01*
X222830360Y-80216994D01*
X222767241Y-80369000D01*
X215500000Y-80369000D01*
X215298589Y-80409063D01*
X215258526Y-80417032D01*
X215053815Y-80553816D01*
X214488631Y-81119000D01*
X212924214Y-81119000D01*
X212784180Y-81177004D01*
X212677004Y-81284181D01*
X212619000Y-81424215D01*
X212619000Y-81575786D01*
X212619000Y-83575786D01*
X212677004Y-83715820D01*
X212784181Y-83822996D01*
X212924215Y-83881000D01*
X213075786Y-83881000D01*
X214488631Y-83881000D01*
X215639000Y-85031368D01*
X215639000Y-86754541D01*
X215505618Y-86843665D01*
X215271286Y-87194366D01*
X215189000Y-87608047D01*
X215189000Y-88771953D01*
X215271286Y-89185634D01*
X215505618Y-89536335D01*
X215639000Y-89625458D01*
X215639000Y-90468631D01*
X214811000Y-91296631D01*
X214811000Y-88771953D01*
X214811000Y-87608047D01*
X214728714Y-87194366D01*
X214494382Y-86843665D01*
X214143681Y-86609333D01*
X213730000Y-86527047D01*
X213316319Y-86609333D01*
X212965618Y-86843665D01*
X212731286Y-87194366D01*
X212649000Y-87608047D01*
X212649000Y-88771953D01*
X212731286Y-89185634D01*
X212965618Y-89536335D01*
X213099000Y-89625458D01*
X213099000Y-90008632D01*
X212271000Y-90836632D01*
X212271000Y-88867000D01*
X212271000Y-88317000D01*
X212271000Y-88063000D01*
X212271000Y-87513000D01*
X212140113Y-87108987D01*
X211864580Y-86785815D01*
X211483371Y-86599570D01*
X211317000Y-86662465D01*
X211317000Y-88063000D01*
X212271000Y-88063000D01*
X212271000Y-88317000D01*
X211317000Y-88317000D01*
X211317000Y-89717535D01*
X211483371Y-89780430D01*
X211864580Y-89594185D01*
X212140113Y-89271013D01*
X212271000Y-88867000D01*
X212271000Y-90836632D01*
X211063000Y-92044632D01*
X211063000Y-89717535D01*
X211063000Y-88317000D01*
X211063000Y-88063000D01*
X211063000Y-86662465D01*
X210896629Y-86599570D01*
X210515420Y-86785815D01*
X210239887Y-87108987D01*
X210109000Y-87513000D01*
X210109000Y-88063000D01*
X211063000Y-88063000D01*
X211063000Y-88317000D01*
X210109000Y-88317000D01*
X210109000Y-88867000D01*
X210239887Y-89271013D01*
X210515420Y-89594185D01*
X210896629Y-89780430D01*
X211063000Y-89717535D01*
X211063000Y-92044632D01*
X208053816Y-95053816D01*
X207917032Y-95258527D01*
X207869000Y-95500000D01*
X207869000Y-104238632D01*
X207223471Y-104884161D01*
X207223471Y-88577978D01*
X206899729Y-87794462D01*
X206300793Y-87194479D01*
X205517844Y-86869370D01*
X204670080Y-86868631D01*
X203886564Y-87192373D01*
X203286581Y-87791309D01*
X202961472Y-88574258D01*
X202960733Y-89422022D01*
X203284475Y-90205538D01*
X203883411Y-90805521D01*
X204666360Y-91130630D01*
X205514124Y-91131369D01*
X206297640Y-90807627D01*
X206897623Y-90208691D01*
X207222732Y-89425742D01*
X207223471Y-88577978D01*
X207223471Y-104884161D01*
X205881000Y-106226632D01*
X205881000Y-104075785D01*
X205881000Y-103924214D01*
X205881000Y-101924214D01*
X205822996Y-101784180D01*
X205715819Y-101677004D01*
X205575785Y-101619000D01*
X205424214Y-101619000D01*
X203622462Y-101619000D01*
X203622462Y-93056850D01*
X203622462Y-92127354D01*
X203283048Y-91350500D01*
X202672181Y-90762668D01*
X201964748Y-90469640D01*
X201627000Y-90518488D01*
X201627000Y-92465102D01*
X203573614Y-92465102D01*
X203622462Y-92127354D01*
X203622462Y-93056850D01*
X203573614Y-92719102D01*
X201627000Y-92719102D01*
X201627000Y-94665716D01*
X201964748Y-94714564D01*
X202741602Y-94375150D01*
X203329434Y-93764283D01*
X203622462Y-93056850D01*
X203622462Y-101619000D01*
X203424214Y-101619000D01*
X203284180Y-101677004D01*
X203177004Y-101784181D01*
X203119000Y-101924215D01*
X203119000Y-102075786D01*
X203119000Y-102988632D01*
X201373000Y-104734632D01*
X201373000Y-94665716D01*
X201373000Y-92719102D01*
X201373000Y-92465102D01*
X201373000Y-90518488D01*
X201035252Y-90469640D01*
X200258398Y-90809054D01*
X199670566Y-91419921D01*
X199377538Y-92127354D01*
X199426386Y-92465102D01*
X201373000Y-92465102D01*
X201373000Y-92719102D01*
X199426386Y-92719102D01*
X199377538Y-93056850D01*
X199716952Y-93833704D01*
X200327819Y-94421536D01*
X201035252Y-94714564D01*
X201373000Y-94665716D01*
X201373000Y-104734632D01*
X200881239Y-105226393D01*
X200881239Y-102726507D01*
X200671437Y-102218749D01*
X200283295Y-101829928D01*
X199775903Y-101619241D01*
X199226507Y-101618761D01*
X198718749Y-101828563D01*
X198493259Y-102053659D01*
X198493259Y-83140314D01*
X198131537Y-82264880D01*
X197462335Y-81594509D01*
X196587534Y-81231260D01*
X195640314Y-81230433D01*
X194764880Y-81592155D01*
X194094509Y-82261357D01*
X193731260Y-83136158D01*
X193730433Y-84083378D01*
X194092155Y-84958812D01*
X194761357Y-85629183D01*
X195636158Y-85992432D01*
X196583378Y-85993259D01*
X197458812Y-85631537D01*
X198129183Y-84962335D01*
X198492432Y-84087534D01*
X198493259Y-83140314D01*
X198493259Y-102053659D01*
X198329928Y-102216705D01*
X198266689Y-102369000D01*
X194397000Y-102369000D01*
X194397000Y-101408214D01*
X194397000Y-96027369D01*
X194397000Y-95972631D01*
X194397000Y-92591786D01*
X194397000Y-91722250D01*
X194397000Y-91277750D01*
X194397000Y-90408214D01*
X194338996Y-90268180D01*
X194231819Y-90161004D01*
X194091785Y-90103000D01*
X193940214Y-90103000D01*
X193222250Y-90103000D01*
X193127000Y-90198250D01*
X193127000Y-91373000D01*
X194301750Y-91373000D01*
X194397000Y-91277750D01*
X194397000Y-91722250D01*
X194301750Y-91627000D01*
X193127000Y-91627000D01*
X193127000Y-92801750D01*
X193222250Y-92897000D01*
X193940214Y-92897000D01*
X194091785Y-92897000D01*
X194231819Y-92838996D01*
X194338996Y-92731820D01*
X194397000Y-92591786D01*
X194397000Y-95972631D01*
X194290660Y-95438022D01*
X193987828Y-94984803D01*
X193534609Y-94681971D01*
X193000000Y-94575631D01*
X192873000Y-94600892D01*
X192873000Y-92801750D01*
X192873000Y-91627000D01*
X192873000Y-91373000D01*
X192873000Y-90198250D01*
X192777750Y-90103000D01*
X192059786Y-90103000D01*
X191908215Y-90103000D01*
X191768181Y-90161004D01*
X191661004Y-90268180D01*
X191603000Y-90408214D01*
X191603000Y-91277750D01*
X191698250Y-91373000D01*
X192873000Y-91373000D01*
X192873000Y-91627000D01*
X191698250Y-91627000D01*
X191603000Y-91722250D01*
X191603000Y-92591786D01*
X191661004Y-92731820D01*
X191768181Y-92838996D01*
X191908215Y-92897000D01*
X192059786Y-92897000D01*
X192777750Y-92897000D01*
X192873000Y-92801750D01*
X192873000Y-94600892D01*
X192465391Y-94681971D01*
X192012172Y-94984803D01*
X191709340Y-95438022D01*
X191603000Y-95972631D01*
X191603000Y-96027369D01*
X191709340Y-96561978D01*
X192012172Y-97015197D01*
X192465391Y-97318029D01*
X193000000Y-97424369D01*
X193534609Y-97318029D01*
X193987828Y-97015197D01*
X194290660Y-96561978D01*
X194397000Y-96027369D01*
X194397000Y-101408214D01*
X194338996Y-101268180D01*
X194231819Y-101161004D01*
X194091785Y-101103000D01*
X193940214Y-101103000D01*
X191908214Y-101103000D01*
X191768180Y-101161004D01*
X191661004Y-101268181D01*
X191603000Y-101408215D01*
X191603000Y-101559786D01*
X191603000Y-103591786D01*
X191661004Y-103731820D01*
X191768181Y-103838996D01*
X191908215Y-103897000D01*
X192059786Y-103897000D01*
X194091786Y-103897000D01*
X194231820Y-103838996D01*
X194338996Y-103731819D01*
X194380756Y-103631000D01*
X198266480Y-103631000D01*
X198328563Y-103781251D01*
X198716705Y-104170072D01*
X199224097Y-104380759D01*
X199773493Y-104381239D01*
X200281251Y-104171437D01*
X200670072Y-103783295D01*
X200880759Y-103275903D01*
X200881239Y-102726507D01*
X200881239Y-105226393D01*
X199783816Y-106323816D01*
X199647032Y-106528527D01*
X199599000Y-106770000D01*
X199599000Y-109754541D01*
X199465618Y-109843665D01*
X199231286Y-110194366D01*
X199149000Y-110608047D01*
X199149000Y-111771953D01*
X199231286Y-112185634D01*
X199465618Y-112536335D01*
X199816319Y-112770667D01*
X200230000Y-112852953D01*
X200643681Y-112770667D01*
X200994382Y-112536335D01*
X201228714Y-112185634D01*
X201311000Y-111771953D01*
X201311000Y-110608047D01*
X201228714Y-110194366D01*
X200994382Y-109843665D01*
X200861000Y-109754541D01*
X200861000Y-107031368D01*
X203511368Y-104381000D01*
X203575786Y-104381000D01*
X205575786Y-104381000D01*
X205715820Y-104322996D01*
X205822996Y-104215819D01*
X205881000Y-104075785D01*
X205881000Y-106226632D01*
X205738632Y-106369000D01*
X204500000Y-106369000D01*
X204258527Y-106417032D01*
X204190599Y-106462420D01*
X204053815Y-106553816D01*
X202323816Y-108283816D01*
X202187032Y-108488527D01*
X202139000Y-108730000D01*
X202139000Y-109754541D01*
X202005618Y-109843665D01*
X201771286Y-110194366D01*
X201689000Y-110608047D01*
X201689000Y-111771953D01*
X201771286Y-112185634D01*
X202005618Y-112536335D01*
X202356319Y-112770667D01*
X202770000Y-112852953D01*
X203183681Y-112770667D01*
X203534382Y-112536335D01*
X203768714Y-112185634D01*
X203851000Y-111771953D01*
X203851000Y-110608047D01*
X203768714Y-110194366D01*
X203534382Y-109843665D01*
X203401000Y-109754541D01*
X203401000Y-108991368D01*
X204761368Y-107631000D01*
X206000000Y-107631000D01*
X206000000Y-107630999D01*
X206241473Y-107582968D01*
X206446184Y-107446184D01*
X208946184Y-104946184D01*
X209082968Y-104741473D01*
X209131000Y-104500000D01*
X209131000Y-95761368D01*
X210419405Y-94472962D01*
X210191286Y-94814366D01*
X210109000Y-95228047D01*
X210109000Y-96391953D01*
X210191286Y-96805634D01*
X210425618Y-97156335D01*
X210776319Y-97390667D01*
X211190000Y-97472953D01*
X211603681Y-97390667D01*
X211954382Y-97156335D01*
X212188714Y-96805634D01*
X212271000Y-96391953D01*
X212271000Y-95228047D01*
X212188714Y-94814366D01*
X211954382Y-94463665D01*
X211603681Y-94229333D01*
X211190000Y-94147047D01*
X210776319Y-94229333D01*
X210434915Y-94457452D01*
X214176184Y-90716184D01*
X214312968Y-90511473D01*
X214361000Y-90270000D01*
X214361000Y-89625458D01*
X214494382Y-89536335D01*
X214728714Y-89185634D01*
X214811000Y-88771953D01*
X214811000Y-91296631D01*
X213283816Y-92823816D01*
X213147032Y-93028527D01*
X213099000Y-93270000D01*
X213099000Y-94374541D01*
X212965618Y-94463665D01*
X212731286Y-94814366D01*
X212649000Y-95228047D01*
X212649000Y-96391953D01*
X212731286Y-96805634D01*
X212965618Y-97156335D01*
X213316319Y-97390667D01*
X213730000Y-97472953D01*
X214143681Y-97390667D01*
X214494382Y-97156335D01*
X214728714Y-96805634D01*
X214811000Y-96391953D01*
X214811000Y-95228047D01*
X214728714Y-94814366D01*
X214494382Y-94463665D01*
X214361000Y-94374541D01*
X214361000Y-93531368D01*
X216716184Y-91176185D01*
X216716184Y-91176184D01*
X216852968Y-90971474D01*
X216852968Y-90971473D01*
X216860936Y-90931410D01*
X216900999Y-90730000D01*
X216901000Y-90730000D01*
X216901000Y-89625458D01*
X217034382Y-89536335D01*
X217268714Y-89185634D01*
X217351000Y-88771953D01*
X217351000Y-87608047D01*
X217268714Y-87194366D01*
X217034382Y-86843665D01*
X216901000Y-86754541D01*
X216901000Y-84770000D01*
X216852968Y-84528527D01*
X216716185Y-84323816D01*
X215381000Y-82988631D01*
X215381000Y-82011368D01*
X215761368Y-81631000D01*
X217915782Y-81631000D01*
X217829928Y-81716705D01*
X217619241Y-82224097D01*
X217618761Y-82773493D01*
X217828563Y-83281251D01*
X218216705Y-83670072D01*
X218724097Y-83880759D01*
X219273493Y-83881239D01*
X219781251Y-83671437D01*
X220170072Y-83283295D01*
X220380759Y-82775903D01*
X220381239Y-82226507D01*
X220171437Y-81718749D01*
X220083841Y-81631000D01*
X222767031Y-81631000D01*
X222828995Y-81780963D01*
X223216994Y-82169640D01*
X223724199Y-82380249D01*
X224273392Y-82380729D01*
X224780963Y-82171005D01*
X225169640Y-81783006D01*
X225380249Y-81275801D01*
X225380729Y-80726608D01*
X225380729Y-95726608D01*
X225171005Y-95219037D01*
X224783006Y-94830360D01*
X224572584Y-94742985D01*
X224572583Y-94742985D01*
X224446184Y-94553816D01*
X224446184Y-94553815D01*
X222946184Y-93053816D01*
X222741473Y-92917032D01*
X222500000Y-92869000D01*
X219891000Y-92869000D01*
X219891000Y-88771953D01*
X219891000Y-87608047D01*
X219808714Y-87194366D01*
X219574382Y-86843665D01*
X219223681Y-86609333D01*
X218810000Y-86527047D01*
X218396319Y-86609333D01*
X218045618Y-86843665D01*
X217811286Y-87194366D01*
X217729000Y-87608047D01*
X217729000Y-88771953D01*
X217811286Y-89185634D01*
X218045618Y-89536335D01*
X218396319Y-89770667D01*
X218810000Y-89852953D01*
X219223681Y-89770667D01*
X219574382Y-89536335D01*
X219808714Y-89185634D01*
X219891000Y-88771953D01*
X219891000Y-92869000D01*
X218580000Y-92869000D01*
X218378589Y-92909063D01*
X218338526Y-92917032D01*
X218133815Y-93053816D01*
X216848301Y-94339329D01*
X216683681Y-94229333D01*
X216270000Y-94147047D01*
X215856319Y-94229333D01*
X215505618Y-94463665D01*
X215271286Y-94814366D01*
X215189000Y-95228047D01*
X215189000Y-96391953D01*
X215271286Y-96805634D01*
X215505618Y-97156335D01*
X215856319Y-97390667D01*
X216270000Y-97472953D01*
X216683681Y-97390667D01*
X217034382Y-97156335D01*
X217268714Y-96805634D01*
X217351000Y-96391953D01*
X217351000Y-95621368D01*
X217729000Y-95243368D01*
X217729000Y-95683000D01*
X218683000Y-95683000D01*
X218683000Y-94289368D01*
X218841368Y-94131000D01*
X222238631Y-94131000D01*
X223077708Y-94970077D01*
X222830360Y-95216994D01*
X222619751Y-95724199D01*
X222619271Y-96273392D01*
X222828995Y-96780963D01*
X223216994Y-97169640D01*
X223724199Y-97380249D01*
X224273392Y-97380729D01*
X224780963Y-97171005D01*
X225169640Y-96783006D01*
X225380249Y-96275801D01*
X225380729Y-95726608D01*
X225380729Y-106389869D01*
X225283048Y-106166296D01*
X224672181Y-105578464D01*
X223964748Y-105285436D01*
X223627000Y-105334284D01*
X223627000Y-107280898D01*
X225573614Y-107280898D01*
X225622462Y-106943150D01*
X225622462Y-107872646D01*
X225573614Y-107534898D01*
X223627000Y-107534898D01*
X223627000Y-109481512D01*
X223964748Y-109530360D01*
X224741602Y-109190946D01*
X225329434Y-108580079D01*
X225622462Y-107872646D01*
X225622462Y-115757154D01*
X223373000Y-115757154D01*
X223373000Y-109481512D01*
X223373000Y-107534898D01*
X223373000Y-107280898D01*
X223373000Y-105334284D01*
X223035252Y-105285436D01*
X222258398Y-105624850D01*
X221670566Y-106235717D01*
X221377538Y-106943150D01*
X221426386Y-107280898D01*
X223373000Y-107280898D01*
X223373000Y-107534898D01*
X221426386Y-107534898D01*
X221377538Y-107872646D01*
X221716952Y-108649500D01*
X222327819Y-109237332D01*
X223035252Y-109530360D01*
X223373000Y-109481512D01*
X223373000Y-115757154D01*
X222039267Y-115757154D01*
X222039267Y-110577978D01*
X221715525Y-109794462D01*
X221116589Y-109194479D01*
X220333640Y-108869370D01*
X219891000Y-108868984D01*
X219891000Y-96487000D01*
X219891000Y-95937000D01*
X219891000Y-95683000D01*
X219891000Y-95133000D01*
X219760113Y-94728987D01*
X219484580Y-94405815D01*
X219103371Y-94219570D01*
X218937000Y-94282465D01*
X218937000Y-95683000D01*
X219891000Y-95683000D01*
X219891000Y-95937000D01*
X218937000Y-95937000D01*
X218937000Y-97337535D01*
X219103371Y-97400430D01*
X219484580Y-97214185D01*
X219760113Y-96891013D01*
X219891000Y-96487000D01*
X219891000Y-108868984D01*
X219485876Y-108868631D01*
X218702360Y-109192373D01*
X218683000Y-109211699D01*
X218683000Y-97337535D01*
X218683000Y-95937000D01*
X217729000Y-95937000D01*
X217729000Y-96487000D01*
X217859887Y-96891013D01*
X218135420Y-97214185D01*
X218516629Y-97400430D01*
X218683000Y-97337535D01*
X218683000Y-109211699D01*
X218102377Y-109791309D01*
X217777268Y-110574258D01*
X217776529Y-111422022D01*
X218100271Y-112205538D01*
X218699207Y-112805521D01*
X219482156Y-113130630D01*
X220329920Y-113131369D01*
X221113436Y-112807627D01*
X221713419Y-112208691D01*
X222038528Y-111425742D01*
X222039267Y-110577978D01*
X222039267Y-115757154D01*
X213881239Y-115757154D01*
X213881239Y-111226507D01*
X213671437Y-110718749D01*
X213283295Y-110329928D01*
X212775903Y-110119241D01*
X212226507Y-110118761D01*
X211718749Y-110328563D01*
X211329928Y-110716705D01*
X211119241Y-111224097D01*
X211118761Y-111773493D01*
X211328563Y-112281251D01*
X211716705Y-112670072D01*
X212224097Y-112880759D01*
X212773493Y-112881239D01*
X213281251Y-112671437D01*
X213670072Y-112283295D01*
X213880759Y-111775903D01*
X213881239Y-111226507D01*
X213881239Y-115757154D01*
X213881000Y-115757154D01*
X213881000Y-115424214D01*
X213822996Y-115284180D01*
X213715819Y-115177004D01*
X213575785Y-115119000D01*
X213424214Y-115119000D01*
X211424214Y-115119000D01*
X211284180Y-115177004D01*
X211177004Y-115284181D01*
X211119000Y-115424215D01*
X211119000Y-115575786D01*
X211119000Y-115869000D01*
X206391000Y-115869000D01*
X206391000Y-111771953D01*
X206391000Y-110608047D01*
X206308714Y-110194366D01*
X206074382Y-109843665D01*
X205723681Y-109609333D01*
X205310000Y-109527047D01*
X204896319Y-109609333D01*
X204545618Y-109843665D01*
X204311286Y-110194366D01*
X204229000Y-110608047D01*
X204229000Y-111771953D01*
X204311286Y-112185634D01*
X204545618Y-112536335D01*
X204896319Y-112770667D01*
X205310000Y-112852953D01*
X205723681Y-112770667D01*
X206074382Y-112536335D01*
X206308714Y-112185634D01*
X206391000Y-111771953D01*
X206391000Y-115869000D01*
X204000000Y-115869000D01*
X203758527Y-115917032D01*
X203553816Y-116053815D01*
X202383756Y-117223875D01*
X202356319Y-117229333D01*
X202005618Y-117463665D01*
X201771286Y-117814366D01*
X201698756Y-118179000D01*
X201301243Y-118179000D01*
X201228714Y-117814366D01*
X200994382Y-117463665D01*
X200643681Y-117229333D01*
X200230000Y-117147047D01*
X199816319Y-117229333D01*
X199465618Y-117463665D01*
X199231286Y-117814366D01*
X199149000Y-118228047D01*
X199149000Y-119391953D01*
X199231286Y-119805634D01*
X199465618Y-120156335D01*
X199816319Y-120390667D01*
X200230000Y-120472953D01*
X200643681Y-120390667D01*
X200994382Y-120156335D01*
X201228714Y-119805634D01*
X201301243Y-119441000D01*
X201698756Y-119441000D01*
X201771286Y-119805634D01*
X202005618Y-120156335D01*
X202356319Y-120390667D01*
X202770000Y-120472953D01*
X203183681Y-120390667D01*
X203534382Y-120156335D01*
X203768714Y-119805634D01*
X203851000Y-119391953D01*
X203851000Y-118228047D01*
X203768714Y-117814366D01*
X203692325Y-117700042D01*
X204261368Y-117131000D01*
X211119000Y-117131000D01*
X211119000Y-117575786D01*
X211177004Y-117715820D01*
X211284181Y-117822996D01*
X211424215Y-117881000D01*
X211575786Y-117881000D01*
X213575786Y-117881000D01*
X213715820Y-117822996D01*
X213822996Y-117715819D01*
X213881000Y-117575785D01*
X213881000Y-117424214D01*
X213881000Y-117019154D01*
X226572631Y-117019154D01*
X226868463Y-117735120D01*
X227537665Y-118405491D01*
X228412466Y-118768740D01*
X229359686Y-118769567D01*
X230235120Y-118407845D01*
X230905491Y-117738643D01*
X231268740Y-116863842D01*
X231269567Y-115916622D01*
X231269567Y-119588253D01*
X229346808Y-120873000D01*
X206391000Y-120873000D01*
X206391000Y-119487000D01*
X206391000Y-118937000D01*
X206391000Y-118683000D01*
X206391000Y-118133000D01*
X206260113Y-117728987D01*
X205984580Y-117405815D01*
X205603371Y-117219570D01*
X205437000Y-117282465D01*
X205437000Y-118683000D01*
X206391000Y-118683000D01*
X206391000Y-118937000D01*
X205437000Y-118937000D01*
X205437000Y-120337535D01*
X205603371Y-120400430D01*
X205984580Y-120214185D01*
X206260113Y-119891013D01*
X206391000Y-119487000D01*
X206391000Y-120873000D01*
X205183000Y-120873000D01*
X205183000Y-120337535D01*
X205183000Y-118937000D01*
X205183000Y-118683000D01*
X205183000Y-117282465D01*
X205016629Y-117219570D01*
X204635420Y-117405815D01*
X204359887Y-117728987D01*
X204229000Y-118133000D01*
X204229000Y-118683000D01*
X205183000Y-118683000D01*
X205183000Y-118937000D01*
X204229000Y-118937000D01*
X204229000Y-119487000D01*
X204359887Y-119891013D01*
X204635420Y-120214185D01*
X205016629Y-120400430D01*
X205183000Y-120337535D01*
X205183000Y-120873000D01*
X198771000Y-120873000D01*
X198771000Y-119391953D01*
X198771000Y-118228047D01*
X198771000Y-111867000D01*
X198771000Y-111317000D01*
X198771000Y-111063000D01*
X198771000Y-110513000D01*
X198640113Y-110108987D01*
X198364580Y-109785815D01*
X197983371Y-109599570D01*
X197817000Y-109662465D01*
X197817000Y-111063000D01*
X198771000Y-111063000D01*
X198771000Y-111317000D01*
X197817000Y-111317000D01*
X197817000Y-112717535D01*
X197983371Y-112780430D01*
X198364580Y-112594185D01*
X198640113Y-112271013D01*
X198771000Y-111867000D01*
X198771000Y-118228047D01*
X198688714Y-117814366D01*
X198454382Y-117463665D01*
X198103681Y-117229333D01*
X197690000Y-117147047D01*
X197563000Y-117172308D01*
X197563000Y-112717535D01*
X197563000Y-111317000D01*
X197563000Y-111063000D01*
X197563000Y-109662465D01*
X197396629Y-109599570D01*
X197015420Y-109785815D01*
X196739887Y-110108987D01*
X196609000Y-110513000D01*
X196609000Y-111063000D01*
X197563000Y-111063000D01*
X197563000Y-111317000D01*
X196609000Y-111317000D01*
X196609000Y-111867000D01*
X196739887Y-112271013D01*
X197015420Y-112594185D01*
X197396629Y-112780430D01*
X197563000Y-112717535D01*
X197563000Y-117172308D01*
X197276319Y-117229333D01*
X196925618Y-117463665D01*
X196691286Y-117814366D01*
X196609000Y-118228047D01*
X196609000Y-119391953D01*
X196691286Y-119805634D01*
X196925618Y-120156335D01*
X197276319Y-120390667D01*
X197690000Y-120472953D01*
X198103681Y-120390667D01*
X198454382Y-120156335D01*
X198688714Y-119805634D01*
X198771000Y-119391953D01*
X198771000Y-120873000D01*
X195653191Y-120873000D01*
X194397000Y-120033639D01*
X194397000Y-107527369D01*
X194397000Y-107472631D01*
X194290660Y-106938022D01*
X193987828Y-106484803D01*
X193534609Y-106181971D01*
X193000000Y-106075631D01*
X192465391Y-106181971D01*
X192012172Y-106484803D01*
X191709340Y-106938022D01*
X191603000Y-107472631D01*
X191603000Y-107527369D01*
X191709340Y-108061978D01*
X192012172Y-108515197D01*
X192465391Y-108818029D01*
X193000000Y-108924369D01*
X193534609Y-108818029D01*
X193987828Y-108515197D01*
X194290660Y-108061978D01*
X194397000Y-107527369D01*
X194397000Y-120033639D01*
X193239666Y-119260334D01*
X191167197Y-116158665D01*
X191127000Y-115956578D01*
X191127000Y-84043421D01*
X191167197Y-83841334D01*
X193239666Y-80739665D01*
X195653191Y-79127000D01*
X229346808Y-79127000D01*
X231760334Y-80739666D01*
X233832802Y-83841334D01*
X233873000Y-84043421D01*
X233873000Y-115956578D01*
X233873000Y-115956578D01*
G37*
X233873000Y-115956578D02*
X233832802Y-116158665D01*
X231760334Y-119260333D01*
X231269567Y-119588253D01*
X231269567Y-115916622D01*
X230907845Y-115041188D01*
X230238643Y-114370817D01*
X229363842Y-114007568D01*
X228416622Y-114006741D01*
X227541188Y-114368463D01*
X226870817Y-115037665D01*
X226572059Y-115757154D01*
X225622462Y-115757154D01*
X225622462Y-107872646D01*
X225622462Y-106943150D01*
X225380729Y-106389869D01*
X225380729Y-95726608D01*
X225380729Y-80726608D01*
X225171005Y-80219037D01*
X224783006Y-79830360D01*
X224275801Y-79619751D01*
X223726608Y-79619271D01*
X223219037Y-79828995D01*
X222830360Y-80216994D01*
X222767241Y-80369000D01*
X215500000Y-80369000D01*
X215298589Y-80409063D01*
X215258526Y-80417032D01*
X215053815Y-80553816D01*
X214488631Y-81119000D01*
X212924214Y-81119000D01*
X212784180Y-81177004D01*
X212677004Y-81284181D01*
X212619000Y-81424215D01*
X212619000Y-81575786D01*
X212619000Y-83575786D01*
X212677004Y-83715820D01*
X212784181Y-83822996D01*
X212924215Y-83881000D01*
X213075786Y-83881000D01*
X214488631Y-83881000D01*
X215639000Y-85031368D01*
X215639000Y-86754541D01*
X215505618Y-86843665D01*
X215271286Y-87194366D01*
X215189000Y-87608047D01*
X215189000Y-88771953D01*
X215271286Y-89185634D01*
X215505618Y-89536335D01*
X215639000Y-89625458D01*
X215639000Y-90468631D01*
X214811000Y-91296631D01*
X214811000Y-88771953D01*
X214811000Y-87608047D01*
X214728714Y-87194366D01*
X214494382Y-86843665D01*
X214143681Y-86609333D01*
X213730000Y-86527047D01*
X213316319Y-86609333D01*
X212965618Y-86843665D01*
X212731286Y-87194366D01*
X212649000Y-87608047D01*
X212649000Y-88771953D01*
X212731286Y-89185634D01*
X212965618Y-89536335D01*
X213099000Y-89625458D01*
X213099000Y-90008632D01*
X212271000Y-90836632D01*
X212271000Y-88867000D01*
X212271000Y-88317000D01*
X212271000Y-88063000D01*
X212271000Y-87513000D01*
X212140113Y-87108987D01*
X211864580Y-86785815D01*
X211483371Y-86599570D01*
X211317000Y-86662465D01*
X211317000Y-88063000D01*
X212271000Y-88063000D01*
X212271000Y-88317000D01*
X211317000Y-88317000D01*
X211317000Y-89717535D01*
X211483371Y-89780430D01*
X211864580Y-89594185D01*
X212140113Y-89271013D01*
X212271000Y-88867000D01*
X212271000Y-90836632D01*
X211063000Y-92044632D01*
X211063000Y-89717535D01*
X211063000Y-88317000D01*
X211063000Y-88063000D01*
X211063000Y-86662465D01*
X210896629Y-86599570D01*
X210515420Y-86785815D01*
X210239887Y-87108987D01*
X210109000Y-87513000D01*
X210109000Y-88063000D01*
X211063000Y-88063000D01*
X211063000Y-88317000D01*
X210109000Y-88317000D01*
X210109000Y-88867000D01*
X210239887Y-89271013D01*
X210515420Y-89594185D01*
X210896629Y-89780430D01*
X211063000Y-89717535D01*
X211063000Y-92044632D01*
X208053816Y-95053816D01*
X207917032Y-95258527D01*
X207869000Y-95500000D01*
X207869000Y-104238632D01*
X207223471Y-104884161D01*
X207223471Y-88577978D01*
X206899729Y-87794462D01*
X206300793Y-87194479D01*
X205517844Y-86869370D01*
X204670080Y-86868631D01*
X203886564Y-87192373D01*
X203286581Y-87791309D01*
X202961472Y-88574258D01*
X202960733Y-89422022D01*
X203284475Y-90205538D01*
X203883411Y-90805521D01*
X204666360Y-91130630D01*
X205514124Y-91131369D01*
X206297640Y-90807627D01*
X206897623Y-90208691D01*
X207222732Y-89425742D01*
X207223471Y-88577978D01*
X207223471Y-104884161D01*
X205881000Y-106226632D01*
X205881000Y-104075785D01*
X205881000Y-103924214D01*
X205881000Y-101924214D01*
X205822996Y-101784180D01*
X205715819Y-101677004D01*
X205575785Y-101619000D01*
X205424214Y-101619000D01*
X203622462Y-101619000D01*
X203622462Y-93056850D01*
X203622462Y-92127354D01*
X203283048Y-91350500D01*
X202672181Y-90762668D01*
X201964748Y-90469640D01*
X201627000Y-90518488D01*
X201627000Y-92465102D01*
X203573614Y-92465102D01*
X203622462Y-92127354D01*
X203622462Y-93056850D01*
X203573614Y-92719102D01*
X201627000Y-92719102D01*
X201627000Y-94665716D01*
X201964748Y-94714564D01*
X202741602Y-94375150D01*
X203329434Y-93764283D01*
X203622462Y-93056850D01*
X203622462Y-101619000D01*
X203424214Y-101619000D01*
X203284180Y-101677004D01*
X203177004Y-101784181D01*
X203119000Y-101924215D01*
X203119000Y-102075786D01*
X203119000Y-102988632D01*
X201373000Y-104734632D01*
X201373000Y-94665716D01*
X201373000Y-92719102D01*
X201373000Y-92465102D01*
X201373000Y-90518488D01*
X201035252Y-90469640D01*
X200258398Y-90809054D01*
X199670566Y-91419921D01*
X199377538Y-92127354D01*
X199426386Y-92465102D01*
X201373000Y-92465102D01*
X201373000Y-92719102D01*
X199426386Y-92719102D01*
X199377538Y-93056850D01*
X199716952Y-93833704D01*
X200327819Y-94421536D01*
X201035252Y-94714564D01*
X201373000Y-94665716D01*
X201373000Y-104734632D01*
X200881239Y-105226393D01*
X200881239Y-102726507D01*
X200671437Y-102218749D01*
X200283295Y-101829928D01*
X199775903Y-101619241D01*
X199226507Y-101618761D01*
X198718749Y-101828563D01*
X198493259Y-102053659D01*
X198493259Y-83140314D01*
X198131537Y-82264880D01*
X197462335Y-81594509D01*
X196587534Y-81231260D01*
X195640314Y-81230433D01*
X194764880Y-81592155D01*
X194094509Y-82261357D01*
X193731260Y-83136158D01*
X193730433Y-84083378D01*
X194092155Y-84958812D01*
X194761357Y-85629183D01*
X195636158Y-85992432D01*
X196583378Y-85993259D01*
X197458812Y-85631537D01*
X198129183Y-84962335D01*
X198492432Y-84087534D01*
X198493259Y-83140314D01*
X198493259Y-102053659D01*
X198329928Y-102216705D01*
X198266689Y-102369000D01*
X194397000Y-102369000D01*
X194397000Y-101408214D01*
X194397000Y-96027369D01*
X194397000Y-95972631D01*
X194397000Y-92591786D01*
X194397000Y-91722250D01*
X194397000Y-91277750D01*
X194397000Y-90408214D01*
X194338996Y-90268180D01*
X194231819Y-90161004D01*
X194091785Y-90103000D01*
X193940214Y-90103000D01*
X193222250Y-90103000D01*
X193127000Y-90198250D01*
X193127000Y-91373000D01*
X194301750Y-91373000D01*
X194397000Y-91277750D01*
X194397000Y-91722250D01*
X194301750Y-91627000D01*
X193127000Y-91627000D01*
X193127000Y-92801750D01*
X193222250Y-92897000D01*
X193940214Y-92897000D01*
X194091785Y-92897000D01*
X194231819Y-92838996D01*
X194338996Y-92731820D01*
X194397000Y-92591786D01*
X194397000Y-95972631D01*
X194290660Y-95438022D01*
X193987828Y-94984803D01*
X193534609Y-94681971D01*
X193000000Y-94575631D01*
X192873000Y-94600892D01*
X192873000Y-92801750D01*
X192873000Y-91627000D01*
X192873000Y-91373000D01*
X192873000Y-90198250D01*
X192777750Y-90103000D01*
X192059786Y-90103000D01*
X191908215Y-90103000D01*
X191768181Y-90161004D01*
X191661004Y-90268180D01*
X191603000Y-90408214D01*
X191603000Y-91277750D01*
X191698250Y-91373000D01*
X192873000Y-91373000D01*
X192873000Y-91627000D01*
X191698250Y-91627000D01*
X191603000Y-91722250D01*
X191603000Y-92591786D01*
X191661004Y-92731820D01*
X191768181Y-92838996D01*
X191908215Y-92897000D01*
X192059786Y-92897000D01*
X192777750Y-92897000D01*
X192873000Y-92801750D01*
X192873000Y-94600892D01*
X192465391Y-94681971D01*
X192012172Y-94984803D01*
X191709340Y-95438022D01*
X191603000Y-95972631D01*
X191603000Y-96027369D01*
X191709340Y-96561978D01*
X192012172Y-97015197D01*
X192465391Y-97318029D01*
X193000000Y-97424369D01*
X193534609Y-97318029D01*
X193987828Y-97015197D01*
X194290660Y-96561978D01*
X194397000Y-96027369D01*
X194397000Y-101408214D01*
X194338996Y-101268180D01*
X194231819Y-101161004D01*
X194091785Y-101103000D01*
X193940214Y-101103000D01*
X191908214Y-101103000D01*
X191768180Y-101161004D01*
X191661004Y-101268181D01*
X191603000Y-101408215D01*
X191603000Y-101559786D01*
X191603000Y-103591786D01*
X191661004Y-103731820D01*
X191768181Y-103838996D01*
X191908215Y-103897000D01*
X192059786Y-103897000D01*
X194091786Y-103897000D01*
X194231820Y-103838996D01*
X194338996Y-103731819D01*
X194380756Y-103631000D01*
X198266480Y-103631000D01*
X198328563Y-103781251D01*
X198716705Y-104170072D01*
X199224097Y-104380759D01*
X199773493Y-104381239D01*
X200281251Y-104171437D01*
X200670072Y-103783295D01*
X200880759Y-103275903D01*
X200881239Y-102726507D01*
X200881239Y-105226393D01*
X199783816Y-106323816D01*
X199647032Y-106528527D01*
X199599000Y-106770000D01*
X199599000Y-109754541D01*
X199465618Y-109843665D01*
X199231286Y-110194366D01*
X199149000Y-110608047D01*
X199149000Y-111771953D01*
X199231286Y-112185634D01*
X199465618Y-112536335D01*
X199816319Y-112770667D01*
X200230000Y-112852953D01*
X200643681Y-112770667D01*
X200994382Y-112536335D01*
X201228714Y-112185634D01*
X201311000Y-111771953D01*
X201311000Y-110608047D01*
X201228714Y-110194366D01*
X200994382Y-109843665D01*
X200861000Y-109754541D01*
X200861000Y-107031368D01*
X203511368Y-104381000D01*
X203575786Y-104381000D01*
X205575786Y-104381000D01*
X205715820Y-104322996D01*
X205822996Y-104215819D01*
X205881000Y-104075785D01*
X205881000Y-106226632D01*
X205738632Y-106369000D01*
X204500000Y-106369000D01*
X204258527Y-106417032D01*
X204190599Y-106462420D01*
X204053815Y-106553816D01*
X202323816Y-108283816D01*
X202187032Y-108488527D01*
X202139000Y-108730000D01*
X202139000Y-109754541D01*
X202005618Y-109843665D01*
X201771286Y-110194366D01*
X201689000Y-110608047D01*
X201689000Y-111771953D01*
X201771286Y-112185634D01*
X202005618Y-112536335D01*
X202356319Y-112770667D01*
X202770000Y-112852953D01*
X203183681Y-112770667D01*
X203534382Y-112536335D01*
X203768714Y-112185634D01*
X203851000Y-111771953D01*
X203851000Y-110608047D01*
X203768714Y-110194366D01*
X203534382Y-109843665D01*
X203401000Y-109754541D01*
X203401000Y-108991368D01*
X204761368Y-107631000D01*
X206000000Y-107631000D01*
X206000000Y-107630999D01*
X206241473Y-107582968D01*
X206446184Y-107446184D01*
X208946184Y-104946184D01*
X209082968Y-104741473D01*
X209131000Y-104500000D01*
X209131000Y-95761368D01*
X210419405Y-94472962D01*
X210191286Y-94814366D01*
X210109000Y-95228047D01*
X210109000Y-96391953D01*
X210191286Y-96805634D01*
X210425618Y-97156335D01*
X210776319Y-97390667D01*
X211190000Y-97472953D01*
X211603681Y-97390667D01*
X211954382Y-97156335D01*
X212188714Y-96805634D01*
X212271000Y-96391953D01*
X212271000Y-95228047D01*
X212188714Y-94814366D01*
X211954382Y-94463665D01*
X211603681Y-94229333D01*
X211190000Y-94147047D01*
X210776319Y-94229333D01*
X210434915Y-94457452D01*
X214176184Y-90716184D01*
X214312968Y-90511473D01*
X214361000Y-90270000D01*
X214361000Y-89625458D01*
X214494382Y-89536335D01*
X214728714Y-89185634D01*
X214811000Y-88771953D01*
X214811000Y-91296631D01*
X213283816Y-92823816D01*
X213147032Y-93028527D01*
X213099000Y-93270000D01*
X213099000Y-94374541D01*
X212965618Y-94463665D01*
X212731286Y-94814366D01*
X212649000Y-95228047D01*
X212649000Y-96391953D01*
X212731286Y-96805634D01*
X212965618Y-97156335D01*
X213316319Y-97390667D01*
X213730000Y-97472953D01*
X214143681Y-97390667D01*
X214494382Y-97156335D01*
X214728714Y-96805634D01*
X214811000Y-96391953D01*
X214811000Y-95228047D01*
X214728714Y-94814366D01*
X214494382Y-94463665D01*
X214361000Y-94374541D01*
X214361000Y-93531368D01*
X216716184Y-91176185D01*
X216716184Y-91176184D01*
X216852968Y-90971474D01*
X216852968Y-90971473D01*
X216860936Y-90931410D01*
X216900999Y-90730000D01*
X216901000Y-90730000D01*
X216901000Y-89625458D01*
X217034382Y-89536335D01*
X217268714Y-89185634D01*
X217351000Y-88771953D01*
X217351000Y-87608047D01*
X217268714Y-87194366D01*
X217034382Y-86843665D01*
X216901000Y-86754541D01*
X216901000Y-84770000D01*
X216852968Y-84528527D01*
X216716185Y-84323816D01*
X215381000Y-82988631D01*
X215381000Y-82011368D01*
X215761368Y-81631000D01*
X217915782Y-81631000D01*
X217829928Y-81716705D01*
X217619241Y-82224097D01*
X217618761Y-82773493D01*
X217828563Y-83281251D01*
X218216705Y-83670072D01*
X218724097Y-83880759D01*
X219273493Y-83881239D01*
X219781251Y-83671437D01*
X220170072Y-83283295D01*
X220380759Y-82775903D01*
X220381239Y-82226507D01*
X220171437Y-81718749D01*
X220083841Y-81631000D01*
X222767031Y-81631000D01*
X222828995Y-81780963D01*
X223216994Y-82169640D01*
X223724199Y-82380249D01*
X224273392Y-82380729D01*
X224780963Y-82171005D01*
X225169640Y-81783006D01*
X225380249Y-81275801D01*
X225380729Y-80726608D01*
X225380729Y-95726608D01*
X225171005Y-95219037D01*
X224783006Y-94830360D01*
X224572584Y-94742985D01*
X224572583Y-94742985D01*
X224446184Y-94553816D01*
X224446184Y-94553815D01*
X222946184Y-93053816D01*
X222741473Y-92917032D01*
X222500000Y-92869000D01*
X219891000Y-92869000D01*
X219891000Y-88771953D01*
X219891000Y-87608047D01*
X219808714Y-87194366D01*
X219574382Y-86843665D01*
X219223681Y-86609333D01*
X218810000Y-86527047D01*
X218396319Y-86609333D01*
X218045618Y-86843665D01*
X217811286Y-87194366D01*
X217729000Y-87608047D01*
X217729000Y-88771953D01*
X217811286Y-89185634D01*
X218045618Y-89536335D01*
X218396319Y-89770667D01*
X218810000Y-89852953D01*
X219223681Y-89770667D01*
X219574382Y-89536335D01*
X219808714Y-89185634D01*
X219891000Y-88771953D01*
X219891000Y-92869000D01*
X218580000Y-92869000D01*
X218378589Y-92909063D01*
X218338526Y-92917032D01*
X218133815Y-93053816D01*
X216848301Y-94339329D01*
X216683681Y-94229333D01*
X216270000Y-94147047D01*
X215856319Y-94229333D01*
X215505618Y-94463665D01*
X215271286Y-94814366D01*
X215189000Y-95228047D01*
X215189000Y-96391953D01*
X215271286Y-96805634D01*
X215505618Y-97156335D01*
X215856319Y-97390667D01*
X216270000Y-97472953D01*
X216683681Y-97390667D01*
X217034382Y-97156335D01*
X217268714Y-96805634D01*
X217351000Y-96391953D01*
X217351000Y-95621368D01*
X217729000Y-95243368D01*
X217729000Y-95683000D01*
X218683000Y-95683000D01*
X218683000Y-94289368D01*
X218841368Y-94131000D01*
X222238631Y-94131000D01*
X223077708Y-94970077D01*
X222830360Y-95216994D01*
X222619751Y-95724199D01*
X222619271Y-96273392D01*
X222828995Y-96780963D01*
X223216994Y-97169640D01*
X223724199Y-97380249D01*
X224273392Y-97380729D01*
X224780963Y-97171005D01*
X225169640Y-96783006D01*
X225380249Y-96275801D01*
X225380729Y-95726608D01*
X225380729Y-106389869D01*
X225283048Y-106166296D01*
X224672181Y-105578464D01*
X223964748Y-105285436D01*
X223627000Y-105334284D01*
X223627000Y-107280898D01*
X225573614Y-107280898D01*
X225622462Y-106943150D01*
X225622462Y-107872646D01*
X225573614Y-107534898D01*
X223627000Y-107534898D01*
X223627000Y-109481512D01*
X223964748Y-109530360D01*
X224741602Y-109190946D01*
X225329434Y-108580079D01*
X225622462Y-107872646D01*
X225622462Y-115757154D01*
X223373000Y-115757154D01*
X223373000Y-109481512D01*
X223373000Y-107534898D01*
X223373000Y-107280898D01*
X223373000Y-105334284D01*
X223035252Y-105285436D01*
X222258398Y-105624850D01*
X221670566Y-106235717D01*
X221377538Y-106943150D01*
X221426386Y-107280898D01*
X223373000Y-107280898D01*
X223373000Y-107534898D01*
X221426386Y-107534898D01*
X221377538Y-107872646D01*
X221716952Y-108649500D01*
X222327819Y-109237332D01*
X223035252Y-109530360D01*
X223373000Y-109481512D01*
X223373000Y-115757154D01*
X222039267Y-115757154D01*
X222039267Y-110577978D01*
X221715525Y-109794462D01*
X221116589Y-109194479D01*
X220333640Y-108869370D01*
X219891000Y-108868984D01*
X219891000Y-96487000D01*
X219891000Y-95937000D01*
X219891000Y-95683000D01*
X219891000Y-95133000D01*
X219760113Y-94728987D01*
X219484580Y-94405815D01*
X219103371Y-94219570D01*
X218937000Y-94282465D01*
X218937000Y-95683000D01*
X219891000Y-95683000D01*
X219891000Y-95937000D01*
X218937000Y-95937000D01*
X218937000Y-97337535D01*
X219103371Y-97400430D01*
X219484580Y-97214185D01*
X219760113Y-96891013D01*
X219891000Y-96487000D01*
X219891000Y-108868984D01*
X219485876Y-108868631D01*
X218702360Y-109192373D01*
X218683000Y-109211699D01*
X218683000Y-97337535D01*
X218683000Y-95937000D01*
X217729000Y-95937000D01*
X217729000Y-96487000D01*
X217859887Y-96891013D01*
X218135420Y-97214185D01*
X218516629Y-97400430D01*
X218683000Y-97337535D01*
X218683000Y-109211699D01*
X218102377Y-109791309D01*
X217777268Y-110574258D01*
X217776529Y-111422022D01*
X218100271Y-112205538D01*
X218699207Y-112805521D01*
X219482156Y-113130630D01*
X220329920Y-113131369D01*
X221113436Y-112807627D01*
X221713419Y-112208691D01*
X222038528Y-111425742D01*
X222039267Y-110577978D01*
X222039267Y-115757154D01*
X213881239Y-115757154D01*
X213881239Y-111226507D01*
X213671437Y-110718749D01*
X213283295Y-110329928D01*
X212775903Y-110119241D01*
X212226507Y-110118761D01*
X211718749Y-110328563D01*
X211329928Y-110716705D01*
X211119241Y-111224097D01*
X211118761Y-111773493D01*
X211328563Y-112281251D01*
X211716705Y-112670072D01*
X212224097Y-112880759D01*
X212773493Y-112881239D01*
X213281251Y-112671437D01*
X213670072Y-112283295D01*
X213880759Y-111775903D01*
X213881239Y-111226507D01*
X213881239Y-115757154D01*
X213881000Y-115757154D01*
X213881000Y-115424214D01*
X213822996Y-115284180D01*
X213715819Y-115177004D01*
X213575785Y-115119000D01*
X213424214Y-115119000D01*
X211424214Y-115119000D01*
X211284180Y-115177004D01*
X211177004Y-115284181D01*
X211119000Y-115424215D01*
X211119000Y-115575786D01*
X211119000Y-115869000D01*
X206391000Y-115869000D01*
X206391000Y-111771953D01*
X206391000Y-110608047D01*
X206308714Y-110194366D01*
X206074382Y-109843665D01*
X205723681Y-109609333D01*
X205310000Y-109527047D01*
X204896319Y-109609333D01*
X204545618Y-109843665D01*
X204311286Y-110194366D01*
X204229000Y-110608047D01*
X204229000Y-111771953D01*
X204311286Y-112185634D01*
X204545618Y-112536335D01*
X204896319Y-112770667D01*
X205310000Y-112852953D01*
X205723681Y-112770667D01*
X206074382Y-112536335D01*
X206308714Y-112185634D01*
X206391000Y-111771953D01*
X206391000Y-115869000D01*
X204000000Y-115869000D01*
X203758527Y-115917032D01*
X203553816Y-116053815D01*
X202383756Y-117223875D01*
X202356319Y-117229333D01*
X202005618Y-117463665D01*
X201771286Y-117814366D01*
X201698756Y-118179000D01*
X201301243Y-118179000D01*
X201228714Y-117814366D01*
X200994382Y-117463665D01*
X200643681Y-117229333D01*
X200230000Y-117147047D01*
X199816319Y-117229333D01*
X199465618Y-117463665D01*
X199231286Y-117814366D01*
X199149000Y-118228047D01*
X199149000Y-119391953D01*
X199231286Y-119805634D01*
X199465618Y-120156335D01*
X199816319Y-120390667D01*
X200230000Y-120472953D01*
X200643681Y-120390667D01*
X200994382Y-120156335D01*
X201228714Y-119805634D01*
X201301243Y-119441000D01*
X201698756Y-119441000D01*
X201771286Y-119805634D01*
X202005618Y-120156335D01*
X202356319Y-120390667D01*
X202770000Y-120472953D01*
X203183681Y-120390667D01*
X203534382Y-120156335D01*
X203768714Y-119805634D01*
X203851000Y-119391953D01*
X203851000Y-118228047D01*
X203768714Y-117814366D01*
X203692325Y-117700042D01*
X204261368Y-117131000D01*
X211119000Y-117131000D01*
X211119000Y-117575786D01*
X211177004Y-117715820D01*
X211284181Y-117822996D01*
X211424215Y-117881000D01*
X211575786Y-117881000D01*
X213575786Y-117881000D01*
X213715820Y-117822996D01*
X213822996Y-117715819D01*
X213881000Y-117575785D01*
X213881000Y-117424214D01*
X213881000Y-117019154D01*
X226572631Y-117019154D01*
X226868463Y-117735120D01*
X227537665Y-118405491D01*
X228412466Y-118768740D01*
X229359686Y-118769567D01*
X230235120Y-118407845D01*
X230905491Y-117738643D01*
X231268740Y-116863842D01*
X231269567Y-115916622D01*
X231269567Y-119588253D01*
X229346808Y-120873000D01*
X206391000Y-120873000D01*
X206391000Y-119487000D01*
X206391000Y-118937000D01*
X206391000Y-118683000D01*
X206391000Y-118133000D01*
X206260113Y-117728987D01*
X205984580Y-117405815D01*
X205603371Y-117219570D01*
X205437000Y-117282465D01*
X205437000Y-118683000D01*
X206391000Y-118683000D01*
X206391000Y-118937000D01*
X205437000Y-118937000D01*
X205437000Y-120337535D01*
X205603371Y-120400430D01*
X205984580Y-120214185D01*
X206260113Y-119891013D01*
X206391000Y-119487000D01*
X206391000Y-120873000D01*
X205183000Y-120873000D01*
X205183000Y-120337535D01*
X205183000Y-118937000D01*
X205183000Y-118683000D01*
X205183000Y-117282465D01*
X205016629Y-117219570D01*
X204635420Y-117405815D01*
X204359887Y-117728987D01*
X204229000Y-118133000D01*
X204229000Y-118683000D01*
X205183000Y-118683000D01*
X205183000Y-118937000D01*
X204229000Y-118937000D01*
X204229000Y-119487000D01*
X204359887Y-119891013D01*
X204635420Y-120214185D01*
X205016629Y-120400430D01*
X205183000Y-120337535D01*
X205183000Y-120873000D01*
X198771000Y-120873000D01*
X198771000Y-119391953D01*
X198771000Y-118228047D01*
X198771000Y-111867000D01*
X198771000Y-111317000D01*
X198771000Y-111063000D01*
X198771000Y-110513000D01*
X198640113Y-110108987D01*
X198364580Y-109785815D01*
X197983371Y-109599570D01*
X197817000Y-109662465D01*
X197817000Y-111063000D01*
X198771000Y-111063000D01*
X198771000Y-111317000D01*
X197817000Y-111317000D01*
X197817000Y-112717535D01*
X197983371Y-112780430D01*
X198364580Y-112594185D01*
X198640113Y-112271013D01*
X198771000Y-111867000D01*
X198771000Y-118228047D01*
X198688714Y-117814366D01*
X198454382Y-117463665D01*
X198103681Y-117229333D01*
X197690000Y-117147047D01*
X197563000Y-117172308D01*
X197563000Y-112717535D01*
X197563000Y-111317000D01*
X197563000Y-111063000D01*
X197563000Y-109662465D01*
X197396629Y-109599570D01*
X197015420Y-109785815D01*
X196739887Y-110108987D01*
X196609000Y-110513000D01*
X196609000Y-111063000D01*
X197563000Y-111063000D01*
X197563000Y-111317000D01*
X196609000Y-111317000D01*
X196609000Y-111867000D01*
X196739887Y-112271013D01*
X197015420Y-112594185D01*
X197396629Y-112780430D01*
X197563000Y-112717535D01*
X197563000Y-117172308D01*
X197276319Y-117229333D01*
X196925618Y-117463665D01*
X196691286Y-117814366D01*
X196609000Y-118228047D01*
X196609000Y-119391953D01*
X196691286Y-119805634D01*
X196925618Y-120156335D01*
X197276319Y-120390667D01*
X197690000Y-120472953D01*
X198103681Y-120390667D01*
X198454382Y-120156335D01*
X198688714Y-119805634D01*
X198771000Y-119391953D01*
X198771000Y-120873000D01*
X195653191Y-120873000D01*
X194397000Y-120033639D01*
X194397000Y-107527369D01*
X194397000Y-107472631D01*
X194290660Y-106938022D01*
X193987828Y-106484803D01*
X193534609Y-106181971D01*
X193000000Y-106075631D01*
X192465391Y-106181971D01*
X192012172Y-106484803D01*
X191709340Y-106938022D01*
X191603000Y-107472631D01*
X191603000Y-107527369D01*
X191709340Y-108061978D01*
X192012172Y-108515197D01*
X192465391Y-108818029D01*
X193000000Y-108924369D01*
X193534609Y-108818029D01*
X193987828Y-108515197D01*
X194290660Y-108061978D01*
X194397000Y-107527369D01*
X194397000Y-120033639D01*
X193239666Y-119260334D01*
X191167197Y-116158665D01*
X191127000Y-115956578D01*
X191127000Y-84043421D01*
X191167197Y-83841334D01*
X193239666Y-80739665D01*
X195653191Y-79127000D01*
X229346808Y-79127000D01*
X231760334Y-80739666D01*
X233832802Y-83841334D01*
X233873000Y-84043421D01*
X233873000Y-115956578D01*
M02*
