G04 #@! TF.FileFunction,Legend,Top*
%FSLAX46Y46*%
G04 Gerber Fmt 4.6, Leading zero omitted, Abs format (unit mm)*
G04 Created by KiCad (PCBNEW (2015-11-24 BZR 6329)-product) date Sat 01 Oct 2016 01:52:16 AM EDT*
%MOMM*%
G01*
G04 APERTURE LIST*
%ADD10C,0.100000*%
%ADD11C,0.150000*%
G04 APERTURE END LIST*
D10*
D11*
X149770000Y-108530000D02*
X157390000Y-108530000D01*
X157390000Y-108530000D02*
X157390000Y-113610000D01*
X157390000Y-113610000D02*
X147230000Y-113610000D01*
X147230000Y-113610000D02*
X147230000Y-111070000D01*
X148500000Y-108250000D02*
X146950000Y-108250000D01*
X147230000Y-111070000D02*
X149770000Y-111070000D01*
X149770000Y-111070000D02*
X149770000Y-108530000D01*
X146950000Y-108250000D02*
X146950000Y-109800000D01*
X174170000Y-99695000D02*
X173670000Y-99695000D01*
X173670000Y-100645000D02*
X174170000Y-100645000D01*
X164841548Y-108150000D02*
G75*
G03X164841548Y-108150000I-291548J0D01*
G01*
X166325000Y-108925000D02*
X166325000Y-109070000D01*
X170475000Y-108925000D02*
X170475000Y-109070000D01*
X170475000Y-114075000D02*
X170475000Y-113930000D01*
X166325000Y-114075000D02*
X166325000Y-113930000D01*
X166325000Y-108925000D02*
X170475000Y-108925000D01*
X166325000Y-114075000D02*
X170475000Y-114075000D01*
X121354880Y-98450140D02*
X121354880Y-113436140D01*
X145675000Y-101300000D02*
X145675000Y-102300000D01*
X144325000Y-102300000D02*
X144325000Y-101300000D01*
X149725000Y-104500000D02*
X149725000Y-103500000D01*
X151075000Y-103500000D02*
X151075000Y-104500000D01*
X142075000Y-108225000D02*
X142075000Y-106675000D01*
X141795000Y-102865000D02*
X141795000Y-105405000D01*
X141795000Y-105405000D02*
X139255000Y-105405000D01*
X138975000Y-106675000D02*
X138975000Y-108225000D01*
X138975000Y-108225000D02*
X142075000Y-108225000D01*
X139255000Y-105405000D02*
X139255000Y-102865000D01*
X139255000Y-102865000D02*
X141795000Y-102865000D01*
X145885044Y-105075000D02*
G75*
G03X145885044Y-105075000I-285044J0D01*
G01*
X149200200Y-103449480D02*
X149200200Y-104150520D01*
X168110000Y-99640000D02*
X169110000Y-99640000D01*
X169110000Y-97940000D02*
X168110000Y-97940000D01*
X156400000Y-101350000D02*
X157950000Y-101350000D01*
X157950000Y-101350000D02*
X157950000Y-98250000D01*
X157950000Y-98250000D02*
X156400000Y-98250000D01*
X155130000Y-101070000D02*
X150050000Y-101070000D01*
X150050000Y-101070000D02*
X150050000Y-98530000D01*
X150050000Y-98530000D02*
X155130000Y-98530000D01*
X155130000Y-98530000D02*
X155130000Y-101070000D01*
X141125000Y-100525000D02*
X141125000Y-99525000D01*
X139425000Y-99525000D02*
X139425000Y-100525000D01*
X135062000Y-97887000D02*
X135062000Y-98649000D01*
X135062000Y-98649000D02*
X133538000Y-98649000D01*
X133538000Y-98649000D02*
X133538000Y-97887000D01*
X136586000Y-109063000D02*
X132014000Y-109063000D01*
X132014000Y-109063000D02*
X132014000Y-97887000D01*
X132014000Y-97887000D02*
X136586000Y-97887000D01*
X136586000Y-97887000D02*
X136586000Y-109063000D01*
X133466000Y-109664000D02*
G75*
G03X133466000Y-114236000I0J-2286000D01*
G01*
X139054000Y-114236000D02*
G75*
G03X139054000Y-109664000I0J2286000D01*
G01*
X139054000Y-109664000D02*
X133466000Y-109664000D01*
X139054000Y-114236000D02*
X133466000Y-114236000D01*
X142550000Y-111525000D02*
X142550000Y-110825000D01*
X143750000Y-110825000D02*
X143750000Y-111525000D01*
X128675000Y-111525000D02*
X128675000Y-110825000D01*
X129875000Y-110825000D02*
X129875000Y-111525000D01*
X174450000Y-102900000D02*
X175150000Y-102900000D01*
X175150000Y-104100000D02*
X174450000Y-104100000D01*
X176050000Y-108100000D02*
X176050000Y-108800000D01*
X174850000Y-108800000D02*
X174850000Y-108100000D01*
X169100000Y-98150000D02*
X168400000Y-98150000D01*
X168400000Y-96950000D02*
X169100000Y-96950000D01*
X162000000Y-109950000D02*
X161000000Y-109950000D01*
X161000000Y-111650000D02*
X162000000Y-111650000D01*
X170150000Y-98650000D02*
X170150000Y-97950000D01*
X171350000Y-97950000D02*
X171350000Y-98650000D01*
X163050000Y-98650000D02*
X164050000Y-98650000D01*
X164050000Y-96950000D02*
X163050000Y-96950000D01*
X168400000Y-100600000D02*
X167700000Y-100600000D01*
X167700000Y-99400000D02*
X168400000Y-99400000D01*
X173476777Y-107478249D02*
X173971751Y-107973223D01*
X173123223Y-108821751D02*
X172628249Y-108326777D01*
X161800000Y-101450000D02*
X161800000Y-100750000D01*
X163000000Y-100750000D02*
X163000000Y-101450000D01*
X163650000Y-108750000D02*
X162950000Y-108750000D01*
X162950000Y-107550000D02*
X163650000Y-107550000D01*
X174030000Y-99330000D02*
X174030000Y-98630000D01*
X175230000Y-98630000D02*
X175230000Y-99330000D01*
X172840000Y-99330000D02*
X172840000Y-98630000D01*
X174040000Y-98630000D02*
X174040000Y-99330000D01*
X171175000Y-107775000D02*
X170575000Y-107775000D01*
X164925000Y-101525000D02*
X165525000Y-101525000D01*
X164925000Y-107775000D02*
X165525000Y-107775000D01*
X171175000Y-101525000D02*
X171175000Y-102125000D01*
X164925000Y-101525000D02*
X164925000Y-102125000D01*
X164925000Y-107775000D02*
X164925000Y-107175000D01*
X171175000Y-107775000D02*
X171175000Y-107175000D01*
X146886905Y-107977381D02*
X146886905Y-106977381D01*
X147267858Y-106977381D01*
X147363096Y-107025000D01*
X147410715Y-107072619D01*
X147458334Y-107167857D01*
X147458334Y-107310714D01*
X147410715Y-107405952D01*
X147363096Y-107453571D01*
X147267858Y-107501190D01*
X146886905Y-107501190D01*
X148315477Y-107310714D02*
X148315477Y-107977381D01*
X148077381Y-106929762D02*
X147839286Y-107644048D01*
X148458334Y-107644048D01*
X125042381Y-106618095D02*
X124042381Y-106618095D01*
X124042381Y-106237142D01*
X124090000Y-106141904D01*
X124137619Y-106094285D01*
X124232857Y-106046666D01*
X124375714Y-106046666D01*
X124470952Y-106094285D01*
X124518571Y-106141904D01*
X124566190Y-106237142D01*
X124566190Y-106618095D01*
X125042381Y-105094285D02*
X125042381Y-105665714D01*
X125042381Y-105380000D02*
X124042381Y-105380000D01*
X124185238Y-105475238D01*
X124280476Y-105570476D01*
X124328095Y-105665714D01*
X143033334Y-102157143D02*
X142985715Y-102204762D01*
X142842858Y-102252381D01*
X142747620Y-102252381D01*
X142604762Y-102204762D01*
X142509524Y-102109524D01*
X142461905Y-102014286D01*
X142414286Y-101823810D01*
X142414286Y-101680952D01*
X142461905Y-101490476D01*
X142509524Y-101395238D01*
X142604762Y-101300000D01*
X142747620Y-101252381D01*
X142842858Y-101252381D01*
X142985715Y-101300000D01*
X143033334Y-101347619D01*
X143985715Y-102252381D02*
X143414286Y-102252381D01*
X143700000Y-102252381D02*
X143700000Y-101252381D01*
X143604762Y-101395238D01*
X143509524Y-101490476D01*
X143414286Y-101538095D01*
X150233334Y-107157143D02*
X150185715Y-107204762D01*
X150042858Y-107252381D01*
X149947620Y-107252381D01*
X149804762Y-107204762D01*
X149709524Y-107109524D01*
X149661905Y-107014286D01*
X149614286Y-106823810D01*
X149614286Y-106680952D01*
X149661905Y-106490476D01*
X149709524Y-106395238D01*
X149804762Y-106300000D01*
X149947620Y-106252381D01*
X150042858Y-106252381D01*
X150185715Y-106300000D01*
X150233334Y-106347619D01*
X150614286Y-106347619D02*
X150661905Y-106300000D01*
X150757143Y-106252381D01*
X150995239Y-106252381D01*
X151090477Y-106300000D01*
X151138096Y-106347619D01*
X151185715Y-106442857D01*
X151185715Y-106538095D01*
X151138096Y-106680952D01*
X150566667Y-107252381D01*
X151185715Y-107252381D01*
X142930667Y-106640381D02*
X142930667Y-107354667D01*
X142883047Y-107497524D01*
X142787809Y-107592762D01*
X142644952Y-107640381D01*
X142549714Y-107640381D01*
X143406857Y-107640381D02*
X143406857Y-106640381D01*
X143787810Y-106640381D01*
X143883048Y-106688000D01*
X143930667Y-106735619D01*
X143978286Y-106830857D01*
X143978286Y-106973714D01*
X143930667Y-107068952D01*
X143883048Y-107116571D01*
X143787810Y-107164190D01*
X143406857Y-107164190D01*
X144930667Y-107640381D02*
X144359238Y-107640381D01*
X144644952Y-107640381D02*
X144644952Y-106640381D01*
X144549714Y-106783238D01*
X144454476Y-106878476D01*
X144359238Y-106926095D01*
X144883334Y-99952381D02*
X144407143Y-99952381D01*
X144407143Y-98952381D01*
X145740477Y-99952381D02*
X145169048Y-99952381D01*
X145454762Y-99952381D02*
X145454762Y-98952381D01*
X145359524Y-99095238D01*
X145264286Y-99190476D01*
X145169048Y-99238095D01*
X146838095Y-103152381D02*
X146838095Y-103961905D01*
X146885714Y-104057143D01*
X146933333Y-104104762D01*
X147028571Y-104152381D01*
X147219048Y-104152381D01*
X147314286Y-104104762D01*
X147361905Y-104057143D01*
X147409524Y-103961905D01*
X147409524Y-103152381D01*
X148409524Y-104152381D02*
X147838095Y-104152381D01*
X148123809Y-104152381D02*
X148123809Y-103152381D01*
X148028571Y-103295238D01*
X147933333Y-103390476D01*
X147838095Y-103438095D01*
X175102381Y-104909524D02*
X176102381Y-104242857D01*
X175102381Y-104242857D02*
X176102381Y-104909524D01*
X176102381Y-103338095D02*
X176102381Y-103909524D01*
X176102381Y-103623810D02*
X175102381Y-103623810D01*
X175245238Y-103719048D01*
X175340476Y-103814286D01*
X175388095Y-103909524D01*
X152961905Y-97977381D02*
X152961905Y-96977381D01*
X153342858Y-96977381D01*
X153438096Y-97025000D01*
X153485715Y-97072619D01*
X153533334Y-97167857D01*
X153533334Y-97310714D01*
X153485715Y-97405952D01*
X153438096Y-97453571D01*
X153342858Y-97501190D01*
X152961905Y-97501190D01*
X154438096Y-96977381D02*
X153961905Y-96977381D01*
X153914286Y-97453571D01*
X153961905Y-97405952D01*
X154057143Y-97358333D01*
X154295239Y-97358333D01*
X154390477Y-97405952D01*
X154438096Y-97453571D01*
X154485715Y-97548810D01*
X154485715Y-97786905D01*
X154438096Y-97882143D01*
X154390477Y-97929762D01*
X154295239Y-97977381D01*
X154057143Y-97977381D01*
X153961905Y-97929762D01*
X153914286Y-97882143D01*
X142732143Y-100191666D02*
X142779762Y-100239285D01*
X142827381Y-100382142D01*
X142827381Y-100477380D01*
X142779762Y-100620238D01*
X142684524Y-100715476D01*
X142589286Y-100763095D01*
X142398810Y-100810714D01*
X142255952Y-100810714D01*
X142065476Y-100763095D01*
X141970238Y-100715476D01*
X141875000Y-100620238D01*
X141827381Y-100477380D01*
X141827381Y-100382142D01*
X141875000Y-100239285D01*
X141922619Y-100191666D01*
X142827381Y-99715476D02*
X142827381Y-99525000D01*
X142779762Y-99429761D01*
X142732143Y-99382142D01*
X142589286Y-99286904D01*
X142398810Y-99239285D01*
X142017857Y-99239285D01*
X141922619Y-99286904D01*
X141875000Y-99334523D01*
X141827381Y-99429761D01*
X141827381Y-99620238D01*
X141875000Y-99715476D01*
X141922619Y-99763095D01*
X142017857Y-99810714D01*
X142255952Y-99810714D01*
X142351190Y-99763095D01*
X142398810Y-99715476D01*
X142446429Y-99620238D01*
X142446429Y-99429761D01*
X142398810Y-99334523D01*
X142351190Y-99286904D01*
X142255952Y-99239285D01*
X133604095Y-103846381D02*
X133604095Y-104655905D01*
X133651714Y-104751143D01*
X133699333Y-104798762D01*
X133794571Y-104846381D01*
X133985048Y-104846381D01*
X134080286Y-104798762D01*
X134127905Y-104751143D01*
X134175524Y-104655905D01*
X134175524Y-103846381D01*
X134604095Y-103941619D02*
X134651714Y-103894000D01*
X134746952Y-103846381D01*
X134985048Y-103846381D01*
X135080286Y-103894000D01*
X135127905Y-103941619D01*
X135175524Y-104036857D01*
X135175524Y-104132095D01*
X135127905Y-104274952D01*
X134556476Y-104846381D01*
X135175524Y-104846381D01*
X135921809Y-111990190D02*
X135921809Y-112466381D01*
X135588476Y-111466381D02*
X135921809Y-111990190D01*
X136255143Y-111466381D01*
X137112286Y-112466381D02*
X136540857Y-112466381D01*
X136826571Y-112466381D02*
X136826571Y-111466381D01*
X136731333Y-111609238D01*
X136636095Y-111704476D01*
X136540857Y-111752095D01*
X143089334Y-113895143D02*
X143041715Y-113942762D01*
X142898858Y-113990381D01*
X142803620Y-113990381D01*
X142660762Y-113942762D01*
X142565524Y-113847524D01*
X142517905Y-113752286D01*
X142470286Y-113561810D01*
X142470286Y-113418952D01*
X142517905Y-113228476D01*
X142565524Y-113133238D01*
X142660762Y-113038000D01*
X142803620Y-112990381D01*
X142898858Y-112990381D01*
X143041715Y-113038000D01*
X143089334Y-113085619D01*
X143422667Y-112990381D02*
X144041715Y-112990381D01*
X143708381Y-113371333D01*
X143851239Y-113371333D01*
X143946477Y-113418952D01*
X143994096Y-113466571D01*
X144041715Y-113561810D01*
X144041715Y-113799905D01*
X143994096Y-113895143D01*
X143946477Y-113942762D01*
X143851239Y-113990381D01*
X143565524Y-113990381D01*
X143470286Y-113942762D01*
X143422667Y-113895143D01*
X129373334Y-113895143D02*
X129325715Y-113942762D01*
X129182858Y-113990381D01*
X129087620Y-113990381D01*
X128944762Y-113942762D01*
X128849524Y-113847524D01*
X128801905Y-113752286D01*
X128754286Y-113561810D01*
X128754286Y-113418952D01*
X128801905Y-113228476D01*
X128849524Y-113133238D01*
X128944762Y-113038000D01*
X129087620Y-112990381D01*
X129182858Y-112990381D01*
X129325715Y-113038000D01*
X129373334Y-113085619D01*
X130230477Y-113323714D02*
X130230477Y-113990381D01*
X129992381Y-112942762D02*
X129754286Y-113657048D01*
X130373334Y-113657048D01*
X174633334Y-102807143D02*
X174585715Y-102854762D01*
X174442858Y-102902381D01*
X174347620Y-102902381D01*
X174204762Y-102854762D01*
X174109524Y-102759524D01*
X174061905Y-102664286D01*
X174014286Y-102473810D01*
X174014286Y-102330952D01*
X174061905Y-102140476D01*
X174109524Y-102045238D01*
X174204762Y-101950000D01*
X174347620Y-101902381D01*
X174442858Y-101902381D01*
X174585715Y-101950000D01*
X174633334Y-101997619D01*
X175490477Y-101902381D02*
X175300000Y-101902381D01*
X175204762Y-101950000D01*
X175157143Y-101997619D01*
X175061905Y-102140476D01*
X175014286Y-102330952D01*
X175014286Y-102711905D01*
X175061905Y-102807143D01*
X175109524Y-102854762D01*
X175204762Y-102902381D01*
X175395239Y-102902381D01*
X175490477Y-102854762D01*
X175538096Y-102807143D01*
X175585715Y-102711905D01*
X175585715Y-102473810D01*
X175538096Y-102378571D01*
X175490477Y-102330952D01*
X175395239Y-102283333D01*
X175204762Y-102283333D01*
X175109524Y-102330952D01*
X175061905Y-102378571D01*
X175014286Y-102473810D01*
X177107143Y-108816666D02*
X177154762Y-108864285D01*
X177202381Y-109007142D01*
X177202381Y-109102380D01*
X177154762Y-109245238D01*
X177059524Y-109340476D01*
X176964286Y-109388095D01*
X176773810Y-109435714D01*
X176630952Y-109435714D01*
X176440476Y-109388095D01*
X176345238Y-109340476D01*
X176250000Y-109245238D01*
X176202381Y-109102380D01*
X176202381Y-109007142D01*
X176250000Y-108864285D01*
X176297619Y-108816666D01*
X176202381Y-108483333D02*
X176202381Y-107816666D01*
X177202381Y-108245238D01*
X158633334Y-111207143D02*
X158585715Y-111254762D01*
X158442858Y-111302381D01*
X158347620Y-111302381D01*
X158204762Y-111254762D01*
X158109524Y-111159524D01*
X158061905Y-111064286D01*
X158014286Y-110873810D01*
X158014286Y-110730952D01*
X158061905Y-110540476D01*
X158109524Y-110445238D01*
X158204762Y-110350000D01*
X158347620Y-110302381D01*
X158442858Y-110302381D01*
X158585715Y-110350000D01*
X158633334Y-110397619D01*
X159204762Y-110730952D02*
X159109524Y-110683333D01*
X159061905Y-110635714D01*
X159014286Y-110540476D01*
X159014286Y-110492857D01*
X159061905Y-110397619D01*
X159109524Y-110350000D01*
X159204762Y-110302381D01*
X159395239Y-110302381D01*
X159490477Y-110350000D01*
X159538096Y-110397619D01*
X159585715Y-110492857D01*
X159585715Y-110540476D01*
X159538096Y-110635714D01*
X159490477Y-110683333D01*
X159395239Y-110730952D01*
X159204762Y-110730952D01*
X159109524Y-110778571D01*
X159061905Y-110826190D01*
X159014286Y-110921429D01*
X159014286Y-111111905D01*
X159061905Y-111207143D01*
X159109524Y-111254762D01*
X159204762Y-111302381D01*
X159395239Y-111302381D01*
X159490477Y-111254762D01*
X159538096Y-111207143D01*
X159585715Y-111111905D01*
X159585715Y-110921429D01*
X159538096Y-110826190D01*
X159490477Y-110778571D01*
X159395239Y-110730952D01*
X160007143Y-98257143D02*
X159959524Y-98304762D01*
X159816667Y-98352381D01*
X159721429Y-98352381D01*
X159578571Y-98304762D01*
X159483333Y-98209524D01*
X159435714Y-98114286D01*
X159388095Y-97923810D01*
X159388095Y-97780952D01*
X159435714Y-97590476D01*
X159483333Y-97495238D01*
X159578571Y-97400000D01*
X159721429Y-97352381D01*
X159816667Y-97352381D01*
X159959524Y-97400000D01*
X160007143Y-97447619D01*
X160959524Y-98352381D02*
X160388095Y-98352381D01*
X160673809Y-98352381D02*
X160673809Y-97352381D01*
X160578571Y-97495238D01*
X160483333Y-97590476D01*
X160388095Y-97638095D01*
X161292857Y-97352381D02*
X161911905Y-97352381D01*
X161578571Y-97733333D01*
X161721429Y-97733333D01*
X161816667Y-97780952D01*
X161864286Y-97828571D01*
X161911905Y-97923810D01*
X161911905Y-98161905D01*
X161864286Y-98257143D01*
X161816667Y-98304762D01*
X161721429Y-98352381D01*
X161435714Y-98352381D01*
X161340476Y-98304762D01*
X161292857Y-98257143D01*
X173742893Y-110297970D02*
X173675550Y-110297970D01*
X173540863Y-110230626D01*
X173473519Y-110163283D01*
X173406175Y-110028595D01*
X173406175Y-109893908D01*
X173439847Y-109792893D01*
X173540862Y-109624535D01*
X173641878Y-109523519D01*
X173810237Y-109422504D01*
X173911252Y-109388832D01*
X174045939Y-109388832D01*
X174180626Y-109456176D01*
X174247970Y-109523519D01*
X174315313Y-109658206D01*
X174315313Y-109725550D01*
X174348985Y-111038748D02*
X173944924Y-110634687D01*
X174146954Y-110836717D02*
X174854061Y-110129610D01*
X174685702Y-110163282D01*
X174551015Y-110163282D01*
X174450000Y-110129610D01*
X174685702Y-111375465D02*
X174820389Y-111510152D01*
X174921405Y-111543825D01*
X174988748Y-111543825D01*
X175157107Y-111510153D01*
X175325465Y-111409138D01*
X175594840Y-111139763D01*
X175628512Y-111038748D01*
X175628512Y-110971405D01*
X175594840Y-110870390D01*
X175460152Y-110735702D01*
X175359137Y-110702030D01*
X175291794Y-110702030D01*
X175190778Y-110735702D01*
X175022420Y-110904061D01*
X174988748Y-111005076D01*
X174988747Y-111072420D01*
X175022419Y-111173435D01*
X175157107Y-111308123D01*
X175258122Y-111341794D01*
X175325466Y-111341794D01*
X175426481Y-111308122D01*
X161457143Y-101892857D02*
X161504762Y-101940476D01*
X161552381Y-102083333D01*
X161552381Y-102178571D01*
X161504762Y-102321429D01*
X161409524Y-102416667D01*
X161314286Y-102464286D01*
X161123810Y-102511905D01*
X160980952Y-102511905D01*
X160790476Y-102464286D01*
X160695238Y-102416667D01*
X160600000Y-102321429D01*
X160552381Y-102178571D01*
X160552381Y-102083333D01*
X160600000Y-101940476D01*
X160647619Y-101892857D01*
X160647619Y-101511905D02*
X160600000Y-101464286D01*
X160552381Y-101369048D01*
X160552381Y-101130952D01*
X160600000Y-101035714D01*
X160647619Y-100988095D01*
X160742857Y-100940476D01*
X160838095Y-100940476D01*
X160980952Y-100988095D01*
X161552381Y-101559524D01*
X161552381Y-100940476D01*
X160552381Y-100321429D02*
X160552381Y-100226190D01*
X160600000Y-100130952D01*
X160647619Y-100083333D01*
X160742857Y-100035714D01*
X160933333Y-99988095D01*
X161171429Y-99988095D01*
X161361905Y-100035714D01*
X161457143Y-100083333D01*
X161504762Y-100130952D01*
X161552381Y-100226190D01*
X161552381Y-100321429D01*
X161504762Y-100416667D01*
X161457143Y-100464286D01*
X161361905Y-100511905D01*
X161171429Y-100559524D01*
X160933333Y-100559524D01*
X160742857Y-100511905D01*
X160647619Y-100464286D01*
X160600000Y-100416667D01*
X160552381Y-100321429D01*
X161907143Y-107257143D02*
X161859524Y-107304762D01*
X161716667Y-107352381D01*
X161621429Y-107352381D01*
X161478571Y-107304762D01*
X161383333Y-107209524D01*
X161335714Y-107114286D01*
X161288095Y-106923810D01*
X161288095Y-106780952D01*
X161335714Y-106590476D01*
X161383333Y-106495238D01*
X161478571Y-106400000D01*
X161621429Y-106352381D01*
X161716667Y-106352381D01*
X161859524Y-106400000D01*
X161907143Y-106447619D01*
X162288095Y-106447619D02*
X162335714Y-106400000D01*
X162430952Y-106352381D01*
X162669048Y-106352381D01*
X162764286Y-106400000D01*
X162811905Y-106447619D01*
X162859524Y-106542857D01*
X162859524Y-106638095D01*
X162811905Y-106780952D01*
X162240476Y-107352381D01*
X162859524Y-107352381D01*
X163811905Y-107352381D02*
X163240476Y-107352381D01*
X163526190Y-107352381D02*
X163526190Y-106352381D01*
X163430952Y-106495238D01*
X163335714Y-106590476D01*
X163240476Y-106638095D01*
X167802381Y-105811905D02*
X168611905Y-105811905D01*
X168707143Y-105764286D01*
X168754762Y-105716667D01*
X168802381Y-105621429D01*
X168802381Y-105430952D01*
X168754762Y-105335714D01*
X168707143Y-105288095D01*
X168611905Y-105240476D01*
X167802381Y-105240476D01*
X167802381Y-104859524D02*
X167802381Y-104240476D01*
X168183333Y-104573810D01*
X168183333Y-104430952D01*
X168230952Y-104335714D01*
X168278571Y-104288095D01*
X168373810Y-104240476D01*
X168611905Y-104240476D01*
X168707143Y-104288095D01*
X168754762Y-104335714D01*
X168802381Y-104430952D01*
X168802381Y-104716667D01*
X168754762Y-104811905D01*
X168707143Y-104859524D01*
M02*
