G04 #@! TF.FileFunction,Copper,L2,Bot,Signal*
%FSLAX46Y46*%
G04 Gerber Fmt 4.6, Leading zero omitted, Abs format (unit mm)*
G04 Created by KiCad (PCBNEW (2015-11-24 BZR 6329)-product) date Sat 01 Oct 2016 01:52:16 AM EDT*
%MOMM*%
G01*
G04 APERTURE LIST*
%ADD10C,0.100000*%
%ADD11R,0.700000X1.200000*%
%ADD12R,1.000000X2.800000*%
%ADD13R,1.300000X1.900000*%
%ADD14R,1.100000X1.200000*%
%ADD15R,1.000000X1.200000*%
%ADD16R,1.727200X1.727200*%
%ADD17O,1.727200X1.727200*%
%ADD18C,2.200000*%
%ADD19C,1.501140*%
%ADD20C,2.999740*%
%ADD21C,1.200000*%
%ADD22R,2.032000X2.032000*%
%ADD23O,2.032000X2.032000*%
%ADD24R,1.727200X2.032000*%
%ADD25O,1.727200X2.032000*%
%ADD26C,1.422400*%
%ADD27R,0.750000X0.800000*%
%ADD28R,0.800000X0.750000*%
%ADD29C,0.600000*%
%ADD30C,0.250000*%
%ADD31C,0.200000*%
%ADD32C,0.700000*%
%ADD33C,0.254000*%
G04 APERTURE END LIST*
D10*
D11*
X161870000Y-112774000D03*
D12*
X158870000Y-98474000D03*
D13*
X172370000Y-98024000D03*
D11*
X160770000Y-112774000D03*
X162970000Y-112774000D03*
X164070000Y-112774000D03*
X165170000Y-112774000D03*
X166270000Y-112774000D03*
X167370000Y-112774000D03*
X168470000Y-112774000D03*
D14*
X170020000Y-112774000D03*
D11*
X159820000Y-112774000D03*
D15*
X158770000Y-107874000D03*
D16*
X148500000Y-109800000D03*
D17*
X148500000Y-112340000D03*
X151040000Y-109800000D03*
X151040000Y-112340000D03*
X153580000Y-109800000D03*
X153580000Y-112340000D03*
X156120000Y-109800000D03*
X156120000Y-112340000D03*
D18*
X179000000Y-98500000D03*
X179000000Y-113500000D03*
X127500000Y-113500000D03*
X127500000Y-98500000D03*
D19*
X126700000Y-102450000D03*
X126700000Y-104950000D03*
X126700000Y-106960000D03*
X126700000Y-109450000D03*
D20*
X124600000Y-100100000D03*
X124600000Y-111800000D03*
D21*
X124600000Y-103700000D03*
X124600000Y-108200000D03*
D22*
X140525000Y-106675000D03*
D23*
X140525000Y-104135000D03*
D24*
X156400000Y-99800000D03*
D25*
X153860000Y-99800000D03*
X151320000Y-99800000D03*
D26*
X138800000Y-111950000D03*
X133720000Y-111950000D03*
D10*
G36*
X173921662Y-104051992D02*
X174451992Y-103521662D01*
X175017678Y-104087348D01*
X174487348Y-104617678D01*
X173921662Y-104051992D01*
X173921662Y-104051992D01*
G37*
G36*
X174982322Y-105112652D02*
X175512652Y-104582322D01*
X176078338Y-105148008D01*
X175548008Y-105678338D01*
X174982322Y-105112652D01*
X174982322Y-105112652D01*
G37*
D27*
X176200000Y-104950000D03*
X176200000Y-103450000D03*
D10*
G36*
X173871662Y-106151992D02*
X174401992Y-105621662D01*
X174967678Y-106187348D01*
X174437348Y-106717678D01*
X173871662Y-106151992D01*
X173871662Y-106151992D01*
G37*
G36*
X174932322Y-107212652D02*
X175462652Y-106682322D01*
X176028338Y-107248008D01*
X175498008Y-107778338D01*
X174932322Y-107212652D01*
X174932322Y-107212652D01*
G37*
D28*
X174300000Y-101700000D03*
X175800000Y-101700000D03*
X174300000Y-102650000D03*
X175800000Y-102650000D03*
D29*
X144200000Y-105200000D03*
X144950000Y-99850000D03*
X160350000Y-113950000D03*
X167493750Y-105206250D03*
X168606250Y-105206250D03*
X168606250Y-104093750D03*
X167493750Y-104093750D03*
X167493750Y-106318750D03*
X168606250Y-106318750D03*
X168606250Y-102981250D03*
X167493750Y-102981250D03*
X166381250Y-106318750D03*
X166381250Y-105206250D03*
X166381250Y-104093750D03*
X166381250Y-102981250D03*
X169718750Y-106318750D03*
X169718750Y-105206250D03*
X169718750Y-104093750D03*
X169718750Y-102981250D03*
X166300000Y-113500000D03*
X174730000Y-97880000D03*
X166770000Y-98900000D03*
X174600000Y-107575000D03*
X175900000Y-109625000D03*
X173200000Y-103100000D03*
X169000000Y-113950000D03*
X158750000Y-109350000D03*
X163100000Y-104550000D03*
X172050000Y-104600000D03*
X171850000Y-101150000D03*
X162350000Y-102350000D03*
X172650000Y-108750000D03*
X170110000Y-99450000D03*
X169330000Y-98030000D03*
X164870000Y-99510000D03*
X172250000Y-107000000D03*
X129850000Y-100350000D03*
X172650000Y-106300000D03*
X172600000Y-105200000D03*
X129800000Y-101525000D03*
X177010000Y-107600000D03*
X173300000Y-110900000D03*
X166800000Y-108700000D03*
X167500000Y-109370000D03*
X167500000Y-110950000D03*
X169250000Y-110400000D03*
X168150000Y-110400000D03*
X169450000Y-111100000D03*
X168200000Y-111350000D03*
X172800000Y-101550000D03*
X173450000Y-102100000D03*
X163000000Y-109700000D03*
X164900000Y-108200000D03*
X163600000Y-106550000D03*
X161700000Y-108000000D03*
X161250000Y-103800000D03*
X162300000Y-105900000D03*
X163050000Y-105350000D03*
X171000000Y-108450000D03*
X146500000Y-109750000D03*
X145000000Y-109750000D03*
X152500000Y-103950000D03*
X156900000Y-104150000D03*
X152650000Y-108300000D03*
X149950000Y-108500000D03*
X163500000Y-101900000D03*
X163800000Y-100600000D03*
X154900000Y-103600000D03*
X150900000Y-107600000D03*
X159850000Y-104700000D03*
X152550000Y-104750000D03*
X164700000Y-101200000D03*
X158550000Y-103750000D03*
X156550000Y-107850000D03*
X154900000Y-105300000D03*
X160450000Y-105200000D03*
X160550000Y-105950000D03*
X161200000Y-104850000D03*
D30*
X144200000Y-105200000D02*
X144200000Y-106752000D01*
X141986000Y-108966000D02*
X127184000Y-108966000D01*
X144200000Y-106752000D02*
X141986000Y-108966000D01*
X127184000Y-108966000D02*
X126700000Y-109450000D01*
X126850000Y-109600000D02*
X126700000Y-109450000D01*
D31*
X176200000Y-104950000D02*
X175950000Y-104950000D01*
X175950000Y-104950000D02*
X175530330Y-105130330D01*
X175530330Y-105130330D02*
X175530330Y-107180330D01*
X175530330Y-107180330D02*
X175480330Y-107230330D01*
X162970000Y-112774000D02*
X162970000Y-113970000D01*
X160450000Y-114050000D02*
X160350000Y-113950000D01*
X162890000Y-114050000D02*
X160450000Y-114050000D01*
X162970000Y-113970000D02*
X162890000Y-114050000D01*
X167493750Y-105206250D02*
X167500000Y-105200000D01*
X168606250Y-105206250D02*
X168600000Y-105200000D01*
X168606250Y-104093750D02*
X168600000Y-104100000D01*
X167493750Y-104093750D02*
X167500000Y-104100000D01*
X167500000Y-106312500D02*
X167500000Y-106300000D01*
X167493750Y-106318750D02*
X167500000Y-106312500D01*
X168600000Y-106325000D02*
X168600000Y-106350000D01*
X168606250Y-106318750D02*
X168600000Y-106325000D01*
X168600000Y-102975000D02*
X168600000Y-102950000D01*
X168606250Y-102981250D02*
X168600000Y-102975000D01*
X167500000Y-102975000D02*
X167500000Y-102950000D01*
X167493750Y-102981250D02*
X167500000Y-102975000D01*
X166381250Y-106318750D02*
X166400000Y-106300000D01*
X166400000Y-106300000D02*
X166350000Y-106300000D01*
X166350000Y-106300000D02*
X166400000Y-106350000D01*
X166381250Y-105206250D02*
X166375000Y-105200000D01*
X166375000Y-105200000D02*
X166350000Y-105200000D01*
X166381250Y-104093750D02*
X166375000Y-104100000D01*
X166375000Y-104100000D02*
X166350000Y-104100000D01*
X166381250Y-102981250D02*
X166400000Y-102962500D01*
X166400000Y-102962500D02*
X166400000Y-102950000D01*
X169718750Y-106318750D02*
X169700000Y-106300000D01*
X169718750Y-105206250D02*
X169712500Y-105200000D01*
X169712500Y-105200000D02*
X169700000Y-105200000D01*
X169718750Y-104093750D02*
X169712500Y-104100000D01*
X169712500Y-104100000D02*
X169700000Y-104100000D01*
X169718750Y-102981250D02*
X169737500Y-103000000D01*
X169737500Y-103000000D02*
X169750000Y-103000000D01*
X162970000Y-112774000D02*
X162970000Y-112180000D01*
X162970000Y-112180000D02*
X163150000Y-112000000D01*
X166270000Y-112774000D02*
X166270000Y-113470000D01*
X166270000Y-113470000D02*
X166300000Y-113500000D01*
D30*
X162970000Y-112774000D02*
X163050000Y-112694000D01*
X166770000Y-98900000D02*
X166750000Y-98900000D01*
X174600000Y-107575000D02*
X174600000Y-108325000D01*
X174600000Y-108325000D02*
X175900000Y-109625000D01*
D31*
X174469670Y-104069670D02*
X174469670Y-106119670D01*
X174469670Y-106119670D02*
X174419670Y-106169670D01*
X174419670Y-106119670D02*
X173419670Y-104719670D01*
X173300000Y-104600000D02*
X172050000Y-104600000D01*
X173419670Y-104719670D02*
X173300000Y-104600000D01*
X174419670Y-106119670D02*
X174419670Y-106169670D01*
X173200000Y-103100000D02*
X173050000Y-103250000D01*
X173050000Y-103250000D02*
X172000000Y-103250000D01*
X165170000Y-112774000D02*
X165170000Y-113670000D01*
X168850000Y-114100000D02*
X169000000Y-113950000D01*
X165600000Y-114100000D02*
X168850000Y-114100000D01*
X165170000Y-113670000D02*
X165600000Y-114100000D01*
X162350000Y-102350000D02*
X162350000Y-103800000D01*
X162350000Y-103800000D02*
X163100000Y-104550000D01*
X163100000Y-104550000D02*
X162950000Y-104400000D01*
X162400000Y-102350000D02*
X162350000Y-102350000D01*
X172050000Y-104600000D02*
X171900000Y-104450000D01*
X171900000Y-104450000D02*
X171700000Y-104450000D01*
X162200000Y-102350000D02*
X162350000Y-102350000D01*
D30*
X171700000Y-106300000D02*
X171700000Y-107000000D01*
X171700000Y-107000000D02*
X171700000Y-107700000D01*
X171700000Y-107700000D02*
X172750000Y-108650000D01*
X172250000Y-103250000D02*
X172000000Y-103250000D01*
X172000000Y-103250000D02*
X171700000Y-103550000D01*
X171700000Y-103550000D02*
X171700000Y-104450000D01*
X171700000Y-104450000D02*
X171700000Y-106300000D01*
X172870000Y-102630000D02*
X172250000Y-103250000D01*
X171850000Y-101150000D02*
X172870000Y-102630000D01*
X172750000Y-108650000D02*
X172650000Y-108750000D01*
X171850000Y-101150000D02*
X171790000Y-101150000D01*
X170440000Y-99450000D02*
X170110000Y-99450000D01*
X171790000Y-101150000D02*
X170440000Y-99450000D01*
X166350000Y-98030000D02*
X169330000Y-98030000D01*
X164870000Y-99510000D02*
X166350000Y-98030000D01*
X158750000Y-109350000D02*
X156570000Y-109350000D01*
X156570000Y-109350000D02*
X156120000Y-109800000D01*
X158750000Y-109350000D02*
X158650000Y-109450000D01*
D31*
X171700000Y-107000000D02*
X172250000Y-107000000D01*
X155194000Y-106400000D02*
X159994000Y-106400000D01*
X142412500Y-100312500D02*
X129887500Y-100312500D01*
X129887500Y-100312500D02*
X129850000Y-100350000D01*
X152100000Y-106400000D02*
X152175000Y-106400000D01*
X152175000Y-106400000D02*
X152850000Y-107075000D01*
X152850000Y-107075000D02*
X154325000Y-107075000D01*
X154325000Y-107075000D02*
X155000000Y-106400000D01*
X155000000Y-106400000D02*
X155194000Y-106400000D01*
X148500000Y-106400000D02*
X152100000Y-106400000D01*
X142412500Y-100312500D02*
X148500000Y-106400000D01*
X142400000Y-100300000D02*
X142412500Y-100312500D01*
X155194000Y-106400000D02*
X155225000Y-106400000D01*
X158946002Y-111760000D02*
X158950000Y-114250000D01*
X158950000Y-114250000D02*
X159200002Y-114500000D01*
X159200002Y-114500000D02*
X173741998Y-114500000D01*
X173741998Y-114500000D02*
X174200000Y-114050000D01*
X174200000Y-114050000D02*
X174200000Y-109900000D01*
X172650000Y-106300000D02*
X173350000Y-106975000D01*
X173350000Y-109050000D02*
X174200000Y-109900000D01*
X173350000Y-106975000D02*
X173350000Y-109050000D01*
X160528000Y-110178002D02*
X158946002Y-111760000D01*
X160528000Y-106934000D02*
X160528000Y-110178002D01*
X159994000Y-106400000D02*
X160528000Y-106934000D01*
X155180000Y-106920000D02*
X159752000Y-106920000D01*
X172600000Y-105200000D02*
X173900000Y-106525000D01*
X173900000Y-108775000D02*
X174700000Y-109575000D01*
X173900000Y-106525000D02*
X173900000Y-108775000D01*
X174700000Y-114098000D02*
X174700000Y-109575000D01*
X173990000Y-114808000D02*
X174700000Y-114098000D01*
X158750000Y-114808000D02*
X173990000Y-114808000D01*
X158496000Y-114554000D02*
X158750000Y-114808000D01*
X158496000Y-111506000D02*
X158496000Y-114554000D01*
X160020000Y-109982000D02*
X158496000Y-111506000D01*
X160020000Y-107188000D02*
X160020000Y-109982000D01*
X159752000Y-106920000D02*
X160020000Y-107188000D01*
X148100000Y-106900000D02*
X147900000Y-106900000D01*
X151975000Y-106900000D02*
X148100000Y-106900000D01*
X147900000Y-106900000D02*
X142525000Y-101525000D01*
X142525000Y-101525000D02*
X129800000Y-101525000D01*
X155200000Y-106900000D02*
X155180000Y-106920000D01*
X155180000Y-106920000D02*
X154525000Y-107575000D01*
X154525000Y-107575000D02*
X152650000Y-107575000D01*
X152650000Y-107575000D02*
X151975000Y-106900000D01*
X152025000Y-106900000D02*
X151975000Y-106900000D01*
D32*
X177010000Y-107600000D02*
X177000000Y-107600000D01*
D31*
X173300000Y-110900000D02*
X171350000Y-110900000D01*
X171350000Y-110900000D02*
X169150000Y-108700000D01*
X169150000Y-108700000D02*
X166800000Y-108700000D01*
X167500000Y-109370000D02*
X167500000Y-110950000D01*
X169250000Y-110400000D02*
X168150000Y-110400000D01*
X169250000Y-110400000D02*
X169250000Y-110400000D01*
X169450000Y-111100000D02*
X168450000Y-111100000D01*
X168450000Y-111100000D02*
X168200000Y-111350000D01*
X176200000Y-103450000D02*
X176200000Y-103050000D01*
X176200000Y-103050000D02*
X175800000Y-102650000D01*
X174750000Y-101050000D02*
X175200000Y-101050000D01*
X174750000Y-101050000D02*
X173150000Y-101050000D01*
X173150000Y-101050000D02*
X172800000Y-101550000D01*
X175200000Y-101050000D02*
X175800000Y-101700000D01*
X176200000Y-103400000D02*
X175800000Y-102650000D01*
X175800000Y-102650000D02*
X175800000Y-101700000D01*
X175800000Y-101700000D02*
X175800000Y-101900000D01*
X174300000Y-101700000D02*
X173850000Y-101700000D01*
X173850000Y-101700000D02*
X173450000Y-102100000D01*
X174300000Y-102650000D02*
X174300000Y-101700000D01*
X161870000Y-112774000D02*
X161870000Y-112030000D01*
X163000000Y-110900000D02*
X163000000Y-109700000D01*
X161870000Y-112030000D02*
X163000000Y-110900000D01*
X164900000Y-108200000D02*
X164900000Y-107850000D01*
X164900000Y-107850000D02*
X163600000Y-106550000D01*
D30*
X161798000Y-112702000D02*
X161870000Y-112774000D01*
D31*
X160770000Y-111580000D02*
X160770000Y-111230000D01*
X160770000Y-112774000D02*
X160770000Y-111580000D01*
X161700000Y-110300000D02*
X161700000Y-108000000D01*
X160770000Y-111230000D02*
X161700000Y-110300000D01*
X161700000Y-105250000D02*
X161950000Y-105000000D01*
X161200000Y-103850000D02*
X161250000Y-103800000D01*
X161700000Y-107200000D02*
X161700000Y-105250000D01*
X161950000Y-104500000D02*
X161250000Y-103800000D01*
X161950000Y-105000000D02*
X161950000Y-104500000D01*
X162250000Y-107750000D02*
X161700000Y-107200000D01*
X164070000Y-111620000D02*
X163750000Y-111300000D01*
X163750000Y-111300000D02*
X163750000Y-109700000D01*
X163750000Y-109700000D02*
X162800000Y-108750000D01*
X164070000Y-111620000D02*
X164070000Y-112774000D01*
X162250000Y-108200000D02*
X162800000Y-108750000D01*
X162250000Y-108200000D02*
X162250000Y-107750000D01*
X163074779Y-107471682D02*
X163053097Y-107450000D01*
X167370000Y-112170000D02*
X167050000Y-111850000D01*
X167050000Y-111850000D02*
X166350000Y-111850000D01*
X166350000Y-111850000D02*
X165050000Y-110550000D01*
X167370000Y-112774000D02*
X167370000Y-112170000D01*
X165050000Y-109700000D02*
X165050000Y-110550000D01*
X163850000Y-108500000D02*
X165050000Y-109700000D01*
X163850000Y-108150000D02*
X163850000Y-108500000D01*
X163074779Y-107471682D02*
X163850000Y-108150000D01*
X163053097Y-107450000D02*
X162650000Y-107450000D01*
X162671682Y-107471682D02*
X162650000Y-107450000D01*
X162650000Y-107450000D02*
X162300000Y-107100000D01*
X162300000Y-107100000D02*
X162300000Y-105900000D01*
X165598305Y-110649971D02*
X165400000Y-110451666D01*
X166450000Y-111500000D02*
X165598305Y-110649971D01*
X167400000Y-111500000D02*
X166450000Y-111500000D01*
X168470000Y-112570000D02*
X167400000Y-111500000D01*
X164350000Y-108450000D02*
X164350000Y-108050000D01*
X165400000Y-109500000D02*
X164350000Y-108450000D01*
X165400000Y-110451666D02*
X165400000Y-109500000D01*
X163050000Y-106550000D02*
X163050000Y-105350000D01*
X163050000Y-106550000D02*
X163050000Y-106750000D01*
X163050000Y-106750000D02*
X164350000Y-108050000D01*
X168470000Y-112774000D02*
X168470000Y-112570000D01*
X152850000Y-103950000D02*
X152500000Y-103950000D01*
X164600000Y-100450000D02*
X164200000Y-100050000D01*
X164200000Y-100050000D02*
X164200000Y-98950000D01*
X164200000Y-98950000D02*
X164050000Y-98800000D01*
X164050000Y-98800000D02*
X162750000Y-98800000D01*
X162750000Y-98800000D02*
X160000000Y-101550000D01*
X160000000Y-101550000D02*
X155850000Y-101550000D01*
X155850000Y-101550000D02*
X153450000Y-103950000D01*
X153450000Y-103950000D02*
X152850000Y-103950000D01*
X165900000Y-100900000D02*
X165450000Y-100450000D01*
X165900000Y-101400000D02*
X165900000Y-100900000D01*
X164350000Y-102950000D02*
X165900000Y-101400000D01*
X164350000Y-106300000D02*
X164350000Y-102950000D01*
X165800000Y-107750000D02*
X164350000Y-106300000D01*
X170200000Y-107750000D02*
X165800000Y-107750000D01*
X170900000Y-108450000D02*
X170200000Y-107750000D01*
X171000000Y-108450000D02*
X170900000Y-108450000D01*
X165450000Y-100450000D02*
X164600000Y-100450000D01*
X145000000Y-109750000D02*
X146500000Y-109750000D01*
X160750000Y-103000000D02*
X162050000Y-101700000D01*
X156900000Y-104150000D02*
X157150000Y-104400000D01*
X157150000Y-104400000D02*
X159350000Y-104400000D01*
X159350000Y-104400000D02*
X160750000Y-103000000D01*
X152250000Y-108300000D02*
X152650000Y-108300000D01*
X152050000Y-108500000D02*
X152250000Y-108300000D01*
X149950000Y-108500000D02*
X152050000Y-108500000D01*
X163300000Y-101700000D02*
X163500000Y-101900000D01*
X162050000Y-101700000D02*
X163300000Y-101700000D01*
D30*
X161800000Y-100600000D02*
X160232000Y-102150000D01*
X160232000Y-102150000D02*
X157900000Y-102150000D01*
X156350000Y-102150000D02*
X157900000Y-102150000D01*
X154900000Y-103600000D02*
X156350000Y-102150000D01*
X163800000Y-100600000D02*
X161800000Y-100600000D01*
D31*
X150900000Y-107600000D02*
X150600000Y-107900000D01*
X148350000Y-114150000D02*
X147450000Y-114150000D01*
X151040000Y-112340000D02*
X150990000Y-113510000D01*
X150350000Y-114150000D02*
X150990000Y-113510000D01*
X148350000Y-114150000D02*
X150350000Y-114150000D01*
X147150000Y-108350000D02*
X147150000Y-113500000D01*
X150600000Y-107900000D02*
X148350000Y-107900000D01*
X147150000Y-113850000D02*
X147150000Y-113500000D01*
X147450000Y-114150000D02*
X147150000Y-113850000D01*
X147600000Y-107900000D02*
X147150000Y-108350000D01*
X148350000Y-107900000D02*
X147600000Y-107900000D01*
X159850000Y-104700000D02*
X159825000Y-104725000D01*
X159825000Y-104725000D02*
X152550000Y-104750000D01*
X161850000Y-101200000D02*
X164700000Y-101200000D01*
X160450000Y-102600000D02*
X161850000Y-101200000D01*
X159700000Y-102600000D02*
X160450000Y-102600000D01*
X158550000Y-103750000D02*
X159700000Y-102600000D01*
X154950000Y-107850000D02*
X156550000Y-107850000D01*
X154950000Y-107850000D02*
X153580000Y-109220000D01*
X153580000Y-109800000D02*
X153580000Y-109220000D01*
X160350000Y-105300000D02*
X154900000Y-105300000D01*
X160350000Y-105300000D02*
X160450000Y-105200000D01*
X160450000Y-105200000D02*
X160350000Y-105300000D01*
X160550000Y-105950000D02*
X160535000Y-105935000D01*
X160535000Y-105935000D02*
X160535000Y-105925000D01*
X152375000Y-105900000D02*
X152975000Y-106500000D01*
X151675000Y-105900000D02*
X152375000Y-105900000D01*
X150775000Y-105000000D02*
X151675000Y-105900000D01*
X150775000Y-104000000D02*
X150775000Y-105000000D01*
X153860000Y-100915000D02*
X150775000Y-104000000D01*
X153860000Y-99800000D02*
X153860000Y-100915000D01*
X152975000Y-106500000D02*
X154200000Y-106500000D01*
X154200000Y-106500000D02*
X154775000Y-105925000D01*
X154775000Y-105925000D02*
X160535000Y-105925000D01*
X161150000Y-107850000D02*
X161150000Y-104900000D01*
X159820000Y-111730000D02*
X159820000Y-112774000D01*
X161150000Y-110400000D02*
X161150000Y-107850000D01*
X159820000Y-111730000D02*
X161150000Y-110400000D01*
X161150000Y-104900000D02*
X161200000Y-104850000D01*
D33*
G36*
X126245201Y-97659985D02*
X126019257Y-98204118D01*
X126018743Y-98793297D01*
X126101085Y-98992579D01*
X125975350Y-98904256D01*
X124779605Y-100100000D01*
X125975350Y-101295744D01*
X126222709Y-101121986D01*
X126490285Y-100423209D01*
X126470082Y-99675225D01*
X126391736Y-99486081D01*
X126659985Y-99754799D01*
X127204118Y-99980743D01*
X127793297Y-99981257D01*
X128337823Y-99756263D01*
X128474092Y-99620231D01*
X150075400Y-99620231D01*
X150075400Y-99979769D01*
X150170140Y-100456057D01*
X150439935Y-100859834D01*
X150843712Y-101129629D01*
X151320000Y-101224369D01*
X151796288Y-101129629D01*
X152200065Y-100859834D01*
X152469860Y-100456057D01*
X152564600Y-99979769D01*
X152564600Y-99620231D01*
X152469860Y-99143943D01*
X152200065Y-98740166D01*
X151796288Y-98470371D01*
X151320000Y-98375631D01*
X150843712Y-98470371D01*
X150439935Y-98740166D01*
X150170140Y-99143943D01*
X150075400Y-99620231D01*
X128474092Y-99620231D01*
X128754799Y-99340015D01*
X128980743Y-98795882D01*
X128981257Y-98206703D01*
X128756263Y-97662177D01*
X128350795Y-97256000D01*
X157981536Y-97256000D01*
X157981536Y-99874000D01*
X158008103Y-100015190D01*
X158091546Y-100144865D01*
X158218866Y-100231859D01*
X158370000Y-100262464D01*
X159370000Y-100262464D01*
X159511190Y-100235897D01*
X159640865Y-100152454D01*
X159727859Y-100025134D01*
X159758464Y-99874000D01*
X159758464Y-97256000D01*
X171331536Y-97256000D01*
X171331536Y-98974000D01*
X171358103Y-99115190D01*
X171441546Y-99244865D01*
X171568866Y-99331859D01*
X171720000Y-99362464D01*
X173020000Y-99362464D01*
X173161190Y-99335897D01*
X173290865Y-99252454D01*
X173377859Y-99125134D01*
X173408464Y-98974000D01*
X173408464Y-97256000D01*
X178149893Y-97256000D01*
X177745201Y-97659985D01*
X177519257Y-98204118D01*
X177518743Y-98793297D01*
X177743737Y-99337823D01*
X178159985Y-99754799D01*
X178704118Y-99980743D01*
X178751000Y-99980784D01*
X178751000Y-112018782D01*
X178706703Y-112018743D01*
X178162177Y-112243737D01*
X177745201Y-112659985D01*
X177519257Y-113204118D01*
X177518743Y-113793297D01*
X177743737Y-114337823D01*
X178149205Y-114744000D01*
X174734237Y-114744000D01*
X175040119Y-114438118D01*
X175106001Y-114339518D01*
X175144386Y-114282071D01*
X175181000Y-114098000D01*
X175181000Y-109575000D01*
X175144386Y-109390929D01*
X175040118Y-109234882D01*
X174381000Y-108575764D01*
X174381000Y-107787353D01*
X175102912Y-107787353D01*
X175102912Y-107922057D01*
X175282189Y-108101334D01*
X175422223Y-108159338D01*
X175573793Y-108159337D01*
X175713827Y-108101334D01*
X175875426Y-107939735D01*
X175875426Y-107805031D01*
X175480330Y-107409935D01*
X175102912Y-107787353D01*
X174381000Y-107787353D01*
X174381000Y-107095046D01*
X174431981Y-107106105D01*
X174575229Y-107079151D01*
X174551323Y-107136867D01*
X174551322Y-107288437D01*
X174609326Y-107428471D01*
X174788603Y-107607748D01*
X174923307Y-107607748D01*
X175300725Y-107230330D01*
X175659935Y-107230330D01*
X176055031Y-107625426D01*
X176189735Y-107625426D01*
X176351334Y-107463827D01*
X176409337Y-107323793D01*
X176409338Y-107172223D01*
X176351334Y-107032189D01*
X176172057Y-106852912D01*
X176037353Y-106852912D01*
X175659935Y-107230330D01*
X175300725Y-107230330D01*
X175286583Y-107216188D01*
X175466188Y-107036583D01*
X175480330Y-107050725D01*
X175857748Y-106673307D01*
X175857748Y-106538603D01*
X175678471Y-106359326D01*
X175538437Y-106301322D01*
X175386867Y-106301323D01*
X175327181Y-106326045D01*
X175356105Y-106192715D01*
X175327590Y-106041172D01*
X175242364Y-105912662D01*
X174950670Y-105620968D01*
X174950670Y-105507748D01*
X174973307Y-105507748D01*
X175350725Y-105130330D01*
X175336583Y-105116188D01*
X175516188Y-104936583D01*
X175530330Y-104950725D01*
X175544473Y-104936583D01*
X175684890Y-105077000D01*
X175539250Y-105077000D01*
X175444000Y-105172250D01*
X175444000Y-105396265D01*
X175152912Y-105687353D01*
X175152912Y-105822057D01*
X175332189Y-106001334D01*
X175472223Y-106059338D01*
X175623793Y-106059337D01*
X175763827Y-106001334D01*
X175925426Y-105839735D01*
X175925426Y-105731000D01*
X175977750Y-105731000D01*
X176073000Y-105635750D01*
X176073000Y-105493395D01*
X176105031Y-105525426D01*
X176239735Y-105525426D01*
X176327000Y-105438161D01*
X176327000Y-105635750D01*
X176422250Y-105731000D01*
X176650785Y-105731000D01*
X176790819Y-105672996D01*
X176897996Y-105565820D01*
X176956000Y-105425786D01*
X176956000Y-105172250D01*
X176860750Y-105077000D01*
X176459338Y-105077000D01*
X176459338Y-105072223D01*
X176401334Y-104932189D01*
X176272145Y-104803000D01*
X176327000Y-104803000D01*
X176327000Y-104823000D01*
X176860750Y-104823000D01*
X176956000Y-104727750D01*
X176956000Y-104474214D01*
X176897996Y-104334180D01*
X176790819Y-104227004D01*
X176731133Y-104202281D01*
X176845865Y-104128454D01*
X176932859Y-104001134D01*
X176963464Y-103850000D01*
X176963464Y-103050000D01*
X176936897Y-102908810D01*
X176853454Y-102779135D01*
X176726134Y-102692141D01*
X176588464Y-102664262D01*
X176588464Y-102275000D01*
X176568957Y-102171330D01*
X176588464Y-102075000D01*
X176588464Y-101325000D01*
X176561897Y-101183810D01*
X176478454Y-101054135D01*
X176351134Y-100967141D01*
X176200000Y-100936536D01*
X175749861Y-100936536D01*
X175553440Y-100723747D01*
X175545543Y-100718001D01*
X175540118Y-100709882D01*
X175469941Y-100662991D01*
X175401685Y-100613326D01*
X175392191Y-100611040D01*
X175384071Y-100605614D01*
X175301278Y-100589145D01*
X175219225Y-100569385D01*
X175209580Y-100570906D01*
X175200000Y-100569000D01*
X173150000Y-100569000D01*
X173108606Y-100577234D01*
X173066409Y-100576319D01*
X173017450Y-100595366D01*
X172965929Y-100605614D01*
X172930838Y-100629061D01*
X172891503Y-100644364D01*
X172853559Y-100680698D01*
X172809882Y-100709882D01*
X172786435Y-100744973D01*
X172755950Y-100774164D01*
X172689632Y-100868903D01*
X172665135Y-100868882D01*
X172499044Y-100937509D01*
X172427661Y-100764748D01*
X172236259Y-100573013D01*
X171986054Y-100469118D01*
X171895378Y-100469039D01*
X170836254Y-99135328D01*
X170814004Y-99116461D01*
X170797796Y-99092204D01*
X170739313Y-99053127D01*
X170685671Y-99007641D01*
X170657895Y-98998725D01*
X170633638Y-98982517D01*
X170598619Y-98975551D01*
X170496259Y-98873013D01*
X170246054Y-98769118D01*
X169975135Y-98768882D01*
X169724748Y-98872339D01*
X169533013Y-99063741D01*
X169429118Y-99313946D01*
X169428882Y-99584865D01*
X169532339Y-99835252D01*
X169723741Y-100026987D01*
X169973946Y-100130882D01*
X170244865Y-100131118D01*
X170312541Y-100103155D01*
X171168972Y-101181623D01*
X171168882Y-101284865D01*
X171272339Y-101535252D01*
X171463741Y-101726987D01*
X171701029Y-101825519D01*
X172214236Y-102570172D01*
X172040408Y-102744000D01*
X172000000Y-102744000D01*
X171806362Y-102782517D01*
X171642204Y-102892204D01*
X171342204Y-103192204D01*
X171232517Y-103356362D01*
X171194000Y-103550000D01*
X171194000Y-107700000D01*
X171196502Y-107712578D01*
X171194631Y-107725268D01*
X171213769Y-107801388D01*
X171136054Y-107769118D01*
X170899148Y-107768912D01*
X170540118Y-107409882D01*
X170384071Y-107305614D01*
X170200000Y-107269000D01*
X165999237Y-107269000D01*
X164831000Y-106100764D01*
X164831000Y-103149236D01*
X166240118Y-101740118D01*
X166344386Y-101584071D01*
X166353896Y-101536259D01*
X166381000Y-101400000D01*
X166381000Y-100900000D01*
X166344386Y-100715929D01*
X166240118Y-100559882D01*
X165790118Y-100109882D01*
X165634071Y-100005614D01*
X165450000Y-99969000D01*
X165374119Y-99969000D01*
X165446987Y-99896259D01*
X165550882Y-99646054D01*
X165550970Y-99544622D01*
X166559592Y-98536000D01*
X168872877Y-98536000D01*
X168943741Y-98606987D01*
X169193946Y-98710882D01*
X169464865Y-98711118D01*
X169715252Y-98607661D01*
X169906987Y-98416259D01*
X170010882Y-98166054D01*
X170011118Y-97895135D01*
X169907661Y-97644748D01*
X169716259Y-97453013D01*
X169466054Y-97349118D01*
X169195135Y-97348882D01*
X168944748Y-97452339D01*
X168872962Y-97524000D01*
X166350000Y-97524000D01*
X166156362Y-97562517D01*
X165992204Y-97672204D01*
X164835439Y-98828969D01*
X164735135Y-98828882D01*
X164662849Y-98858750D01*
X164644386Y-98765929D01*
X164540118Y-98609882D01*
X164390118Y-98459882D01*
X164234071Y-98355614D01*
X164050000Y-98319000D01*
X162750000Y-98319000D01*
X162565929Y-98355614D01*
X162409881Y-98459882D01*
X159800764Y-101069000D01*
X157549415Y-101069000D01*
X157586596Y-101031819D01*
X157644600Y-100891785D01*
X157644600Y-100022250D01*
X157549350Y-99927000D01*
X156527000Y-99927000D01*
X156527000Y-99947000D01*
X156273000Y-99947000D01*
X156273000Y-99927000D01*
X155250650Y-99927000D01*
X155155400Y-100022250D01*
X155155400Y-100891785D01*
X155213404Y-101031819D01*
X155320580Y-101138996D01*
X155460614Y-101197000D01*
X155529160Y-101197000D01*
X155509882Y-101209881D01*
X153250764Y-103469000D01*
X152982079Y-103469000D01*
X152886259Y-103373013D01*
X152636054Y-103269118D01*
X152365135Y-103268882D01*
X152114748Y-103372339D01*
X151923013Y-103563741D01*
X151819118Y-103813946D01*
X151818882Y-104084865D01*
X151922339Y-104335252D01*
X151966481Y-104379471D01*
X151869118Y-104613946D01*
X151868882Y-104884865D01*
X151972339Y-105135252D01*
X152163741Y-105326987D01*
X152394831Y-105422945D01*
X152375000Y-105419000D01*
X151874237Y-105419000D01*
X151256000Y-104800764D01*
X151256000Y-104199236D01*
X154200118Y-101255118D01*
X154220664Y-101224369D01*
X154275948Y-101141631D01*
X154336288Y-101129629D01*
X154740065Y-100859834D01*
X155009860Y-100456057D01*
X155104600Y-99979769D01*
X155104600Y-99620231D01*
X155009860Y-99143943D01*
X154740065Y-98740166D01*
X154692247Y-98708215D01*
X155155400Y-98708215D01*
X155155400Y-99577750D01*
X155250650Y-99673000D01*
X156273000Y-99673000D01*
X156273000Y-98498250D01*
X156527000Y-98498250D01*
X156527000Y-99673000D01*
X157549350Y-99673000D01*
X157644600Y-99577750D01*
X157644600Y-98708215D01*
X157586596Y-98568181D01*
X157479420Y-98461004D01*
X157339386Y-98403000D01*
X156622250Y-98403000D01*
X156527000Y-98498250D01*
X156273000Y-98498250D01*
X156177750Y-98403000D01*
X155460614Y-98403000D01*
X155320580Y-98461004D01*
X155213404Y-98568181D01*
X155155400Y-98708215D01*
X154692247Y-98708215D01*
X154336288Y-98470371D01*
X153860000Y-98375631D01*
X153383712Y-98470371D01*
X152979935Y-98740166D01*
X152710140Y-99143943D01*
X152615400Y-99620231D01*
X152615400Y-99979769D01*
X152710140Y-100456057D01*
X152979935Y-100859834D01*
X153132793Y-100961971D01*
X150434882Y-103659882D01*
X150330614Y-103815929D01*
X150294000Y-104000000D01*
X150294000Y-105000000D01*
X150321104Y-105136259D01*
X150330614Y-105184071D01*
X150434882Y-105340118D01*
X151013763Y-105919000D01*
X148699236Y-105919000D01*
X142752621Y-99972385D01*
X142752619Y-99972382D01*
X142740118Y-99959882D01*
X142584071Y-99855614D01*
X142400000Y-99819001D01*
X142337162Y-99831500D01*
X130294644Y-99831500D01*
X130236259Y-99773013D01*
X129986054Y-99669118D01*
X129715135Y-99668882D01*
X129464748Y-99772339D01*
X129273013Y-99963741D01*
X129169118Y-100213946D01*
X129168882Y-100484865D01*
X129272339Y-100735252D01*
X129463741Y-100926987D01*
X129463872Y-100927041D01*
X129414748Y-100947339D01*
X129223013Y-101138741D01*
X129119118Y-101388946D01*
X129118882Y-101659865D01*
X129222339Y-101910252D01*
X129413741Y-102101987D01*
X129663946Y-102205882D01*
X129934865Y-102206118D01*
X130185252Y-102102661D01*
X130282081Y-102006000D01*
X142325764Y-102006000D01*
X147559882Y-107240118D01*
X147715929Y-107344386D01*
X147900000Y-107381000D01*
X150253560Y-107381000D01*
X150237781Y-107419000D01*
X147600000Y-107419000D01*
X147415929Y-107455614D01*
X147259882Y-107559882D01*
X146809882Y-108009882D01*
X146705614Y-108165929D01*
X146669000Y-108350000D01*
X146669000Y-109082798D01*
X146636054Y-109069118D01*
X146365135Y-109068882D01*
X146114748Y-109172339D01*
X146017919Y-109269000D01*
X145482079Y-109269000D01*
X145386259Y-109173013D01*
X145136054Y-109069118D01*
X144865135Y-109068882D01*
X144614748Y-109172339D01*
X144423013Y-109363741D01*
X144319118Y-109613946D01*
X144318882Y-109884865D01*
X144422339Y-110135252D01*
X144613741Y-110326987D01*
X144863946Y-110430882D01*
X145134865Y-110431118D01*
X145385252Y-110327661D01*
X145482081Y-110231000D01*
X146017921Y-110231000D01*
X146113741Y-110326987D01*
X146363946Y-110430882D01*
X146634865Y-110431118D01*
X146669000Y-110417014D01*
X146669000Y-113850000D01*
X146702616Y-114019000D01*
X146705614Y-114034071D01*
X146809882Y-114190118D01*
X147109882Y-114490118D01*
X147265929Y-114594386D01*
X147450000Y-114631000D01*
X150350000Y-114631000D01*
X150534071Y-114594386D01*
X150690118Y-114490118D01*
X151330119Y-113850118D01*
X151376652Y-113780476D01*
X151426122Y-113712877D01*
X151428592Y-113702741D01*
X151434386Y-113694070D01*
X151450727Y-113611920D01*
X151470561Y-113530537D01*
X151471713Y-113503577D01*
X151540671Y-113489860D01*
X151944448Y-113220065D01*
X152214243Y-112816288D01*
X152308983Y-112340000D01*
X152311017Y-112340000D01*
X152405757Y-112816288D01*
X152675552Y-113220065D01*
X153079329Y-113489860D01*
X153555617Y-113584600D01*
X153604383Y-113584600D01*
X154080671Y-113489860D01*
X154484448Y-113220065D01*
X154754243Y-112816288D01*
X154785506Y-112659118D01*
X154917007Y-112659118D01*
X155043695Y-112965001D01*
X155364801Y-113329310D01*
X155800880Y-113543005D01*
X155993000Y-113482865D01*
X155993000Y-112467000D01*
X156247000Y-112467000D01*
X156247000Y-113482865D01*
X156439120Y-113543005D01*
X156875199Y-113329310D01*
X157196305Y-112965001D01*
X157322993Y-112659118D01*
X157262312Y-112467000D01*
X156247000Y-112467000D01*
X155993000Y-112467000D01*
X154977688Y-112467000D01*
X154917007Y-112659118D01*
X154785506Y-112659118D01*
X154848983Y-112340000D01*
X154785507Y-112020882D01*
X154917007Y-112020882D01*
X154977688Y-112213000D01*
X155993000Y-112213000D01*
X155993000Y-111197135D01*
X156247000Y-111197135D01*
X156247000Y-112213000D01*
X157262312Y-112213000D01*
X157322993Y-112020882D01*
X157196305Y-111714999D01*
X156875199Y-111350690D01*
X156439120Y-111136995D01*
X156247000Y-111197135D01*
X155993000Y-111197135D01*
X155800880Y-111136995D01*
X155364801Y-111350690D01*
X155043695Y-111714999D01*
X154917007Y-112020882D01*
X154785507Y-112020882D01*
X154754243Y-111863712D01*
X154484448Y-111459935D01*
X154080671Y-111190140D01*
X153604383Y-111095400D01*
X153555617Y-111095400D01*
X153079329Y-111190140D01*
X152675552Y-111459935D01*
X152405757Y-111863712D01*
X152311017Y-112340000D01*
X152308983Y-112340000D01*
X152214243Y-111863712D01*
X151944448Y-111459935D01*
X151540671Y-111190140D01*
X151064383Y-111095400D01*
X151015617Y-111095400D01*
X150539329Y-111190140D01*
X150135552Y-111459935D01*
X149865757Y-111863712D01*
X149771017Y-112340000D01*
X149865757Y-112816288D01*
X150135552Y-113220065D01*
X150413787Y-113405976D01*
X150150764Y-113669000D01*
X147649236Y-113669000D01*
X147631000Y-113650764D01*
X147631000Y-113243751D01*
X147999329Y-113489860D01*
X148475617Y-113584600D01*
X148524383Y-113584600D01*
X149000671Y-113489860D01*
X149404448Y-113220065D01*
X149674243Y-112816288D01*
X149768983Y-112340000D01*
X149674243Y-111863712D01*
X149404448Y-111459935D01*
X149000671Y-111190140D01*
X148524383Y-111095400D01*
X148475617Y-111095400D01*
X147999329Y-111190140D01*
X147631000Y-111436249D01*
X147631000Y-111050970D01*
X147636400Y-111052064D01*
X149363600Y-111052064D01*
X149504790Y-111025497D01*
X149634465Y-110942054D01*
X149721459Y-110814734D01*
X149752064Y-110663600D01*
X149752064Y-109155186D01*
X149813946Y-109180882D01*
X149961107Y-109181010D01*
X149865757Y-109323712D01*
X149771017Y-109800000D01*
X149865757Y-110276288D01*
X150135552Y-110680065D01*
X150539329Y-110949860D01*
X151015617Y-111044600D01*
X151064383Y-111044600D01*
X151540671Y-110949860D01*
X151944448Y-110680065D01*
X152214243Y-110276288D01*
X152308983Y-109800000D01*
X152214243Y-109323712D01*
X151985250Y-108981000D01*
X152050000Y-108981000D01*
X152234071Y-108944386D01*
X152307652Y-108895221D01*
X152513946Y-108980882D01*
X152634758Y-108980987D01*
X152405757Y-109323712D01*
X152311017Y-109800000D01*
X152405757Y-110276288D01*
X152675552Y-110680065D01*
X153079329Y-110949860D01*
X153555617Y-111044600D01*
X153604383Y-111044600D01*
X154080671Y-110949860D01*
X154484448Y-110680065D01*
X154754243Y-110276288D01*
X154848983Y-109800000D01*
X154754243Y-109323712D01*
X154514831Y-108965406D01*
X155149237Y-108331000D01*
X156067921Y-108331000D01*
X156163741Y-108426987D01*
X156413946Y-108530882D01*
X156684865Y-108531118D01*
X156935252Y-108427661D01*
X157126987Y-108236259D01*
X157230882Y-107986054D01*
X157231118Y-107715135D01*
X157127661Y-107464748D01*
X157064024Y-107401000D01*
X157881536Y-107401000D01*
X157881536Y-108474000D01*
X157908103Y-108615190D01*
X157991546Y-108744865D01*
X158118866Y-108831859D01*
X158178821Y-108844000D01*
X156910803Y-108844000D01*
X156620671Y-108650140D01*
X156144383Y-108555400D01*
X156095617Y-108555400D01*
X155619329Y-108650140D01*
X155215552Y-108919935D01*
X154945757Y-109323712D01*
X154851017Y-109800000D01*
X154945757Y-110276288D01*
X155215552Y-110680065D01*
X155619329Y-110949860D01*
X156095617Y-111044600D01*
X156144383Y-111044600D01*
X156620671Y-110949860D01*
X157024448Y-110680065D01*
X157294243Y-110276288D01*
X157377844Y-109856000D01*
X158292877Y-109856000D01*
X158363741Y-109926987D01*
X158613946Y-110030882D01*
X158884865Y-110031118D01*
X159135252Y-109927661D01*
X159326987Y-109736259D01*
X159430882Y-109486054D01*
X159431118Y-109215135D01*
X159327661Y-108964748D01*
X159225555Y-108862464D01*
X159270000Y-108862464D01*
X159411190Y-108835897D01*
X159539000Y-108753654D01*
X159539000Y-109782763D01*
X158155882Y-111165882D01*
X158051614Y-111321929D01*
X158015000Y-111506000D01*
X158015000Y-114554000D01*
X158044673Y-114703175D01*
X158051614Y-114738071D01*
X158055576Y-114744000D01*
X128350107Y-114744000D01*
X128754799Y-114340015D01*
X128980743Y-113795882D01*
X128981257Y-113206703D01*
X128756263Y-112662177D01*
X128340015Y-112245201D01*
X128149999Y-112166299D01*
X132627611Y-112166299D01*
X132793538Y-112567873D01*
X133100511Y-112875382D01*
X133501795Y-113042010D01*
X133936299Y-113042389D01*
X134337873Y-112876462D01*
X134645382Y-112569489D01*
X134812010Y-112168205D01*
X134812011Y-112166299D01*
X137707611Y-112166299D01*
X137873538Y-112567873D01*
X138180511Y-112875382D01*
X138581795Y-113042010D01*
X139016299Y-113042389D01*
X139417873Y-112876462D01*
X139725382Y-112569489D01*
X139892010Y-112168205D01*
X139892389Y-111733701D01*
X139726462Y-111332127D01*
X139419489Y-111024618D01*
X139018205Y-110857990D01*
X138583701Y-110857611D01*
X138182127Y-111023538D01*
X137874618Y-111330511D01*
X137707990Y-111731795D01*
X137707611Y-112166299D01*
X134812011Y-112166299D01*
X134812389Y-111733701D01*
X134646462Y-111332127D01*
X134339489Y-111024618D01*
X133938205Y-110857990D01*
X133503701Y-110857611D01*
X133102127Y-111023538D01*
X132794618Y-111330511D01*
X132627990Y-111731795D01*
X132627611Y-112166299D01*
X128149999Y-112166299D01*
X127795882Y-112019257D01*
X127206703Y-112018743D01*
X126662177Y-112243737D01*
X126309210Y-112596088D01*
X126490285Y-112123209D01*
X126470082Y-111375225D01*
X126222709Y-110778014D01*
X125975350Y-110604256D01*
X124779605Y-111800000D01*
X125975350Y-112995744D01*
X126159493Y-112866392D01*
X126019257Y-113204118D01*
X126018743Y-113793297D01*
X126243737Y-114337823D01*
X126649205Y-114744000D01*
X124044911Y-114744000D01*
X123412555Y-114618216D01*
X122914544Y-114285456D01*
X122581784Y-113787445D01*
X122555000Y-113652793D01*
X122555000Y-113175350D01*
X123404256Y-113175350D01*
X123578014Y-113422709D01*
X124276791Y-113690285D01*
X125024775Y-113670082D01*
X125621986Y-113422709D01*
X125795744Y-113175350D01*
X124600000Y-111979605D01*
X123404256Y-113175350D01*
X122555000Y-113175350D01*
X122555000Y-111476791D01*
X122709715Y-111476791D01*
X122729918Y-112224775D01*
X122977291Y-112821986D01*
X123224650Y-112995744D01*
X124420395Y-111800000D01*
X123224650Y-110604256D01*
X122977291Y-110778014D01*
X122709715Y-111476791D01*
X122555000Y-111476791D01*
X122555000Y-110424650D01*
X123404256Y-110424650D01*
X124600000Y-111620395D01*
X125795744Y-110424650D01*
X125621986Y-110177291D01*
X124923209Y-109909715D01*
X124175225Y-109929918D01*
X123578014Y-110177291D01*
X123404256Y-110424650D01*
X122555000Y-110424650D01*
X122555000Y-109674096D01*
X125568234Y-109674096D01*
X125740142Y-110090146D01*
X126058180Y-110408739D01*
X126473929Y-110581373D01*
X126924096Y-110581766D01*
X127340146Y-110409858D01*
X127658739Y-110091820D01*
X127831373Y-109676071D01*
X127831551Y-109472000D01*
X141986000Y-109472000D01*
X142179638Y-109433483D01*
X142343796Y-109323796D01*
X144557796Y-107109796D01*
X144667483Y-106945638D01*
X144706000Y-106752000D01*
X144706000Y-105657123D01*
X144776987Y-105586259D01*
X144880882Y-105336054D01*
X144881118Y-105065135D01*
X144777661Y-104814748D01*
X144586259Y-104623013D01*
X144336054Y-104519118D01*
X144065135Y-104518882D01*
X143814748Y-104622339D01*
X143623013Y-104813741D01*
X143519118Y-105063946D01*
X143518882Y-105334865D01*
X143622339Y-105585252D01*
X143694000Y-105657038D01*
X143694000Y-106542408D01*
X141776408Y-108460000D01*
X127266535Y-108460000D01*
X126926071Y-108318627D01*
X126475904Y-108318234D01*
X126059854Y-108490142D01*
X125741261Y-108808180D01*
X125568627Y-109223929D01*
X125568234Y-109674096D01*
X122555000Y-109674096D01*
X122555000Y-108394277D01*
X123618830Y-108394277D01*
X123767864Y-108754966D01*
X124043583Y-109031166D01*
X124404011Y-109180829D01*
X124794277Y-109181170D01*
X125154966Y-109032136D01*
X125431166Y-108756417D01*
X125580829Y-108395989D01*
X125581170Y-108005723D01*
X125432136Y-107645034D01*
X125156417Y-107368834D01*
X124795989Y-107219171D01*
X124405723Y-107218830D01*
X124045034Y-107367864D01*
X123768834Y-107643583D01*
X123619171Y-108004011D01*
X123618830Y-108394277D01*
X122555000Y-108394277D01*
X122555000Y-105174096D01*
X125568234Y-105174096D01*
X125740142Y-105590146D01*
X126058180Y-105908739D01*
X126169348Y-105954900D01*
X126059854Y-106000142D01*
X125741261Y-106318180D01*
X125568627Y-106733929D01*
X125568234Y-107184096D01*
X125740142Y-107600146D01*
X126058180Y-107918739D01*
X126473929Y-108091373D01*
X126924096Y-108091766D01*
X127340146Y-107919858D01*
X127658739Y-107601820D01*
X127831373Y-107186071D01*
X127831766Y-106735904D01*
X127659858Y-106319854D01*
X127341820Y-106001261D01*
X127230652Y-105955100D01*
X127340146Y-105909858D01*
X127591441Y-105659000D01*
X139120536Y-105659000D01*
X139120536Y-107691000D01*
X139147103Y-107832190D01*
X139230546Y-107961865D01*
X139357866Y-108048859D01*
X139509000Y-108079464D01*
X141541000Y-108079464D01*
X141682190Y-108052897D01*
X141811865Y-107969454D01*
X141898859Y-107842134D01*
X141929464Y-107691000D01*
X141929464Y-105659000D01*
X141902897Y-105517810D01*
X141819454Y-105388135D01*
X141692134Y-105301141D01*
X141541000Y-105270536D01*
X141332728Y-105270536D01*
X141512828Y-105150197D01*
X141815660Y-104696978D01*
X141922000Y-104162369D01*
X141922000Y-104107631D01*
X141815660Y-103573022D01*
X141512828Y-103119803D01*
X141059609Y-102816971D01*
X140525000Y-102710631D01*
X139990391Y-102816971D01*
X139537172Y-103119803D01*
X139234340Y-103573022D01*
X139128000Y-104107631D01*
X139128000Y-104162369D01*
X139234340Y-104696978D01*
X139537172Y-105150197D01*
X139717272Y-105270536D01*
X139509000Y-105270536D01*
X139367810Y-105297103D01*
X139238135Y-105380546D01*
X139151141Y-105507866D01*
X139120536Y-105659000D01*
X127591441Y-105659000D01*
X127658739Y-105591820D01*
X127831373Y-105176071D01*
X127831766Y-104725904D01*
X127659858Y-104309854D01*
X127341820Y-103991261D01*
X126926071Y-103818627D01*
X126475904Y-103818234D01*
X126059854Y-103990142D01*
X125741261Y-104308180D01*
X125568627Y-104723929D01*
X125568234Y-105174096D01*
X122555000Y-105174096D01*
X122555000Y-103894277D01*
X123618830Y-103894277D01*
X123767864Y-104254966D01*
X124043583Y-104531166D01*
X124404011Y-104680829D01*
X124794277Y-104681170D01*
X125154966Y-104532136D01*
X125431166Y-104256417D01*
X125580829Y-103895989D01*
X125581170Y-103505723D01*
X125489086Y-103282861D01*
X126046744Y-103282861D01*
X126128715Y-103452371D01*
X126555793Y-103594691D01*
X127004824Y-103562743D01*
X127271285Y-103452371D01*
X127353256Y-103282861D01*
X126700000Y-102629605D01*
X126046744Y-103282861D01*
X125489086Y-103282861D01*
X125432136Y-103145034D01*
X125156417Y-102868834D01*
X124795989Y-102719171D01*
X124405723Y-102718830D01*
X124045034Y-102867864D01*
X123768834Y-103143583D01*
X123619171Y-103504011D01*
X123618830Y-103894277D01*
X122555000Y-103894277D01*
X122555000Y-102305793D01*
X125555309Y-102305793D01*
X125587257Y-102754824D01*
X125697629Y-103021285D01*
X125867139Y-103103256D01*
X126520395Y-102450000D01*
X126879605Y-102450000D01*
X127532861Y-103103256D01*
X127702371Y-103021285D01*
X127844691Y-102594207D01*
X127812743Y-102145176D01*
X127702371Y-101878715D01*
X127532861Y-101796744D01*
X126879605Y-102450000D01*
X126520395Y-102450000D01*
X125867139Y-101796744D01*
X125697629Y-101878715D01*
X125555309Y-102305793D01*
X122555000Y-102305793D01*
X122555000Y-101475350D01*
X123404256Y-101475350D01*
X123578014Y-101722709D01*
X124276791Y-101990285D01*
X125024775Y-101970082D01*
X125621986Y-101722709D01*
X125696143Y-101617139D01*
X126046744Y-101617139D01*
X126700000Y-102270395D01*
X127353256Y-101617139D01*
X127271285Y-101447629D01*
X126844207Y-101305309D01*
X126395176Y-101337257D01*
X126128715Y-101447629D01*
X126046744Y-101617139D01*
X125696143Y-101617139D01*
X125795744Y-101475350D01*
X124600000Y-100279605D01*
X123404256Y-101475350D01*
X122555000Y-101475350D01*
X122555000Y-99776791D01*
X122709715Y-99776791D01*
X122729918Y-100524775D01*
X122977291Y-101121986D01*
X123224650Y-101295744D01*
X124420395Y-100100000D01*
X123224650Y-98904256D01*
X122977291Y-99078014D01*
X122709715Y-99776791D01*
X122555000Y-99776791D01*
X122555000Y-98724650D01*
X123404256Y-98724650D01*
X124600000Y-99920395D01*
X125795744Y-98724650D01*
X125621986Y-98477291D01*
X124923209Y-98209715D01*
X124175225Y-98229918D01*
X123578014Y-98477291D01*
X123404256Y-98724650D01*
X122555000Y-98724650D01*
X122555000Y-98347207D01*
X122581784Y-98212555D01*
X122914544Y-97714544D01*
X123412555Y-97381784D01*
X124044911Y-97256000D01*
X126649893Y-97256000D01*
X126245201Y-97659985D01*
X126245201Y-97659985D01*
G37*
X126245201Y-97659985D02*
X126019257Y-98204118D01*
X126018743Y-98793297D01*
X126101085Y-98992579D01*
X125975350Y-98904256D01*
X124779605Y-100100000D01*
X125975350Y-101295744D01*
X126222709Y-101121986D01*
X126490285Y-100423209D01*
X126470082Y-99675225D01*
X126391736Y-99486081D01*
X126659985Y-99754799D01*
X127204118Y-99980743D01*
X127793297Y-99981257D01*
X128337823Y-99756263D01*
X128474092Y-99620231D01*
X150075400Y-99620231D01*
X150075400Y-99979769D01*
X150170140Y-100456057D01*
X150439935Y-100859834D01*
X150843712Y-101129629D01*
X151320000Y-101224369D01*
X151796288Y-101129629D01*
X152200065Y-100859834D01*
X152469860Y-100456057D01*
X152564600Y-99979769D01*
X152564600Y-99620231D01*
X152469860Y-99143943D01*
X152200065Y-98740166D01*
X151796288Y-98470371D01*
X151320000Y-98375631D01*
X150843712Y-98470371D01*
X150439935Y-98740166D01*
X150170140Y-99143943D01*
X150075400Y-99620231D01*
X128474092Y-99620231D01*
X128754799Y-99340015D01*
X128980743Y-98795882D01*
X128981257Y-98206703D01*
X128756263Y-97662177D01*
X128350795Y-97256000D01*
X157981536Y-97256000D01*
X157981536Y-99874000D01*
X158008103Y-100015190D01*
X158091546Y-100144865D01*
X158218866Y-100231859D01*
X158370000Y-100262464D01*
X159370000Y-100262464D01*
X159511190Y-100235897D01*
X159640865Y-100152454D01*
X159727859Y-100025134D01*
X159758464Y-99874000D01*
X159758464Y-97256000D01*
X171331536Y-97256000D01*
X171331536Y-98974000D01*
X171358103Y-99115190D01*
X171441546Y-99244865D01*
X171568866Y-99331859D01*
X171720000Y-99362464D01*
X173020000Y-99362464D01*
X173161190Y-99335897D01*
X173290865Y-99252454D01*
X173377859Y-99125134D01*
X173408464Y-98974000D01*
X173408464Y-97256000D01*
X178149893Y-97256000D01*
X177745201Y-97659985D01*
X177519257Y-98204118D01*
X177518743Y-98793297D01*
X177743737Y-99337823D01*
X178159985Y-99754799D01*
X178704118Y-99980743D01*
X178751000Y-99980784D01*
X178751000Y-112018782D01*
X178706703Y-112018743D01*
X178162177Y-112243737D01*
X177745201Y-112659985D01*
X177519257Y-113204118D01*
X177518743Y-113793297D01*
X177743737Y-114337823D01*
X178149205Y-114744000D01*
X174734237Y-114744000D01*
X175040119Y-114438118D01*
X175106001Y-114339518D01*
X175144386Y-114282071D01*
X175181000Y-114098000D01*
X175181000Y-109575000D01*
X175144386Y-109390929D01*
X175040118Y-109234882D01*
X174381000Y-108575764D01*
X174381000Y-107787353D01*
X175102912Y-107787353D01*
X175102912Y-107922057D01*
X175282189Y-108101334D01*
X175422223Y-108159338D01*
X175573793Y-108159337D01*
X175713827Y-108101334D01*
X175875426Y-107939735D01*
X175875426Y-107805031D01*
X175480330Y-107409935D01*
X175102912Y-107787353D01*
X174381000Y-107787353D01*
X174381000Y-107095046D01*
X174431981Y-107106105D01*
X174575229Y-107079151D01*
X174551323Y-107136867D01*
X174551322Y-107288437D01*
X174609326Y-107428471D01*
X174788603Y-107607748D01*
X174923307Y-107607748D01*
X175300725Y-107230330D01*
X175659935Y-107230330D01*
X176055031Y-107625426D01*
X176189735Y-107625426D01*
X176351334Y-107463827D01*
X176409337Y-107323793D01*
X176409338Y-107172223D01*
X176351334Y-107032189D01*
X176172057Y-106852912D01*
X176037353Y-106852912D01*
X175659935Y-107230330D01*
X175300725Y-107230330D01*
X175286583Y-107216188D01*
X175466188Y-107036583D01*
X175480330Y-107050725D01*
X175857748Y-106673307D01*
X175857748Y-106538603D01*
X175678471Y-106359326D01*
X175538437Y-106301322D01*
X175386867Y-106301323D01*
X175327181Y-106326045D01*
X175356105Y-106192715D01*
X175327590Y-106041172D01*
X175242364Y-105912662D01*
X174950670Y-105620968D01*
X174950670Y-105507748D01*
X174973307Y-105507748D01*
X175350725Y-105130330D01*
X175336583Y-105116188D01*
X175516188Y-104936583D01*
X175530330Y-104950725D01*
X175544473Y-104936583D01*
X175684890Y-105077000D01*
X175539250Y-105077000D01*
X175444000Y-105172250D01*
X175444000Y-105396265D01*
X175152912Y-105687353D01*
X175152912Y-105822057D01*
X175332189Y-106001334D01*
X175472223Y-106059338D01*
X175623793Y-106059337D01*
X175763827Y-106001334D01*
X175925426Y-105839735D01*
X175925426Y-105731000D01*
X175977750Y-105731000D01*
X176073000Y-105635750D01*
X176073000Y-105493395D01*
X176105031Y-105525426D01*
X176239735Y-105525426D01*
X176327000Y-105438161D01*
X176327000Y-105635750D01*
X176422250Y-105731000D01*
X176650785Y-105731000D01*
X176790819Y-105672996D01*
X176897996Y-105565820D01*
X176956000Y-105425786D01*
X176956000Y-105172250D01*
X176860750Y-105077000D01*
X176459338Y-105077000D01*
X176459338Y-105072223D01*
X176401334Y-104932189D01*
X176272145Y-104803000D01*
X176327000Y-104803000D01*
X176327000Y-104823000D01*
X176860750Y-104823000D01*
X176956000Y-104727750D01*
X176956000Y-104474214D01*
X176897996Y-104334180D01*
X176790819Y-104227004D01*
X176731133Y-104202281D01*
X176845865Y-104128454D01*
X176932859Y-104001134D01*
X176963464Y-103850000D01*
X176963464Y-103050000D01*
X176936897Y-102908810D01*
X176853454Y-102779135D01*
X176726134Y-102692141D01*
X176588464Y-102664262D01*
X176588464Y-102275000D01*
X176568957Y-102171330D01*
X176588464Y-102075000D01*
X176588464Y-101325000D01*
X176561897Y-101183810D01*
X176478454Y-101054135D01*
X176351134Y-100967141D01*
X176200000Y-100936536D01*
X175749861Y-100936536D01*
X175553440Y-100723747D01*
X175545543Y-100718001D01*
X175540118Y-100709882D01*
X175469941Y-100662991D01*
X175401685Y-100613326D01*
X175392191Y-100611040D01*
X175384071Y-100605614D01*
X175301278Y-100589145D01*
X175219225Y-100569385D01*
X175209580Y-100570906D01*
X175200000Y-100569000D01*
X173150000Y-100569000D01*
X173108606Y-100577234D01*
X173066409Y-100576319D01*
X173017450Y-100595366D01*
X172965929Y-100605614D01*
X172930838Y-100629061D01*
X172891503Y-100644364D01*
X172853559Y-100680698D01*
X172809882Y-100709882D01*
X172786435Y-100744973D01*
X172755950Y-100774164D01*
X172689632Y-100868903D01*
X172665135Y-100868882D01*
X172499044Y-100937509D01*
X172427661Y-100764748D01*
X172236259Y-100573013D01*
X171986054Y-100469118D01*
X171895378Y-100469039D01*
X170836254Y-99135328D01*
X170814004Y-99116461D01*
X170797796Y-99092204D01*
X170739313Y-99053127D01*
X170685671Y-99007641D01*
X170657895Y-98998725D01*
X170633638Y-98982517D01*
X170598619Y-98975551D01*
X170496259Y-98873013D01*
X170246054Y-98769118D01*
X169975135Y-98768882D01*
X169724748Y-98872339D01*
X169533013Y-99063741D01*
X169429118Y-99313946D01*
X169428882Y-99584865D01*
X169532339Y-99835252D01*
X169723741Y-100026987D01*
X169973946Y-100130882D01*
X170244865Y-100131118D01*
X170312541Y-100103155D01*
X171168972Y-101181623D01*
X171168882Y-101284865D01*
X171272339Y-101535252D01*
X171463741Y-101726987D01*
X171701029Y-101825519D01*
X172214236Y-102570172D01*
X172040408Y-102744000D01*
X172000000Y-102744000D01*
X171806362Y-102782517D01*
X171642204Y-102892204D01*
X171342204Y-103192204D01*
X171232517Y-103356362D01*
X171194000Y-103550000D01*
X171194000Y-107700000D01*
X171196502Y-107712578D01*
X171194631Y-107725268D01*
X171213769Y-107801388D01*
X171136054Y-107769118D01*
X170899148Y-107768912D01*
X170540118Y-107409882D01*
X170384071Y-107305614D01*
X170200000Y-107269000D01*
X165999237Y-107269000D01*
X164831000Y-106100764D01*
X164831000Y-103149236D01*
X166240118Y-101740118D01*
X166344386Y-101584071D01*
X166353896Y-101536259D01*
X166381000Y-101400000D01*
X166381000Y-100900000D01*
X166344386Y-100715929D01*
X166240118Y-100559882D01*
X165790118Y-100109882D01*
X165634071Y-100005614D01*
X165450000Y-99969000D01*
X165374119Y-99969000D01*
X165446987Y-99896259D01*
X165550882Y-99646054D01*
X165550970Y-99544622D01*
X166559592Y-98536000D01*
X168872877Y-98536000D01*
X168943741Y-98606987D01*
X169193946Y-98710882D01*
X169464865Y-98711118D01*
X169715252Y-98607661D01*
X169906987Y-98416259D01*
X170010882Y-98166054D01*
X170011118Y-97895135D01*
X169907661Y-97644748D01*
X169716259Y-97453013D01*
X169466054Y-97349118D01*
X169195135Y-97348882D01*
X168944748Y-97452339D01*
X168872962Y-97524000D01*
X166350000Y-97524000D01*
X166156362Y-97562517D01*
X165992204Y-97672204D01*
X164835439Y-98828969D01*
X164735135Y-98828882D01*
X164662849Y-98858750D01*
X164644386Y-98765929D01*
X164540118Y-98609882D01*
X164390118Y-98459882D01*
X164234071Y-98355614D01*
X164050000Y-98319000D01*
X162750000Y-98319000D01*
X162565929Y-98355614D01*
X162409881Y-98459882D01*
X159800764Y-101069000D01*
X157549415Y-101069000D01*
X157586596Y-101031819D01*
X157644600Y-100891785D01*
X157644600Y-100022250D01*
X157549350Y-99927000D01*
X156527000Y-99927000D01*
X156527000Y-99947000D01*
X156273000Y-99947000D01*
X156273000Y-99927000D01*
X155250650Y-99927000D01*
X155155400Y-100022250D01*
X155155400Y-100891785D01*
X155213404Y-101031819D01*
X155320580Y-101138996D01*
X155460614Y-101197000D01*
X155529160Y-101197000D01*
X155509882Y-101209881D01*
X153250764Y-103469000D01*
X152982079Y-103469000D01*
X152886259Y-103373013D01*
X152636054Y-103269118D01*
X152365135Y-103268882D01*
X152114748Y-103372339D01*
X151923013Y-103563741D01*
X151819118Y-103813946D01*
X151818882Y-104084865D01*
X151922339Y-104335252D01*
X151966481Y-104379471D01*
X151869118Y-104613946D01*
X151868882Y-104884865D01*
X151972339Y-105135252D01*
X152163741Y-105326987D01*
X152394831Y-105422945D01*
X152375000Y-105419000D01*
X151874237Y-105419000D01*
X151256000Y-104800764D01*
X151256000Y-104199236D01*
X154200118Y-101255118D01*
X154220664Y-101224369D01*
X154275948Y-101141631D01*
X154336288Y-101129629D01*
X154740065Y-100859834D01*
X155009860Y-100456057D01*
X155104600Y-99979769D01*
X155104600Y-99620231D01*
X155009860Y-99143943D01*
X154740065Y-98740166D01*
X154692247Y-98708215D01*
X155155400Y-98708215D01*
X155155400Y-99577750D01*
X155250650Y-99673000D01*
X156273000Y-99673000D01*
X156273000Y-98498250D01*
X156527000Y-98498250D01*
X156527000Y-99673000D01*
X157549350Y-99673000D01*
X157644600Y-99577750D01*
X157644600Y-98708215D01*
X157586596Y-98568181D01*
X157479420Y-98461004D01*
X157339386Y-98403000D01*
X156622250Y-98403000D01*
X156527000Y-98498250D01*
X156273000Y-98498250D01*
X156177750Y-98403000D01*
X155460614Y-98403000D01*
X155320580Y-98461004D01*
X155213404Y-98568181D01*
X155155400Y-98708215D01*
X154692247Y-98708215D01*
X154336288Y-98470371D01*
X153860000Y-98375631D01*
X153383712Y-98470371D01*
X152979935Y-98740166D01*
X152710140Y-99143943D01*
X152615400Y-99620231D01*
X152615400Y-99979769D01*
X152710140Y-100456057D01*
X152979935Y-100859834D01*
X153132793Y-100961971D01*
X150434882Y-103659882D01*
X150330614Y-103815929D01*
X150294000Y-104000000D01*
X150294000Y-105000000D01*
X150321104Y-105136259D01*
X150330614Y-105184071D01*
X150434882Y-105340118D01*
X151013763Y-105919000D01*
X148699236Y-105919000D01*
X142752621Y-99972385D01*
X142752619Y-99972382D01*
X142740118Y-99959882D01*
X142584071Y-99855614D01*
X142400000Y-99819001D01*
X142337162Y-99831500D01*
X130294644Y-99831500D01*
X130236259Y-99773013D01*
X129986054Y-99669118D01*
X129715135Y-99668882D01*
X129464748Y-99772339D01*
X129273013Y-99963741D01*
X129169118Y-100213946D01*
X129168882Y-100484865D01*
X129272339Y-100735252D01*
X129463741Y-100926987D01*
X129463872Y-100927041D01*
X129414748Y-100947339D01*
X129223013Y-101138741D01*
X129119118Y-101388946D01*
X129118882Y-101659865D01*
X129222339Y-101910252D01*
X129413741Y-102101987D01*
X129663946Y-102205882D01*
X129934865Y-102206118D01*
X130185252Y-102102661D01*
X130282081Y-102006000D01*
X142325764Y-102006000D01*
X147559882Y-107240118D01*
X147715929Y-107344386D01*
X147900000Y-107381000D01*
X150253560Y-107381000D01*
X150237781Y-107419000D01*
X147600000Y-107419000D01*
X147415929Y-107455614D01*
X147259882Y-107559882D01*
X146809882Y-108009882D01*
X146705614Y-108165929D01*
X146669000Y-108350000D01*
X146669000Y-109082798D01*
X146636054Y-109069118D01*
X146365135Y-109068882D01*
X146114748Y-109172339D01*
X146017919Y-109269000D01*
X145482079Y-109269000D01*
X145386259Y-109173013D01*
X145136054Y-109069118D01*
X144865135Y-109068882D01*
X144614748Y-109172339D01*
X144423013Y-109363741D01*
X144319118Y-109613946D01*
X144318882Y-109884865D01*
X144422339Y-110135252D01*
X144613741Y-110326987D01*
X144863946Y-110430882D01*
X145134865Y-110431118D01*
X145385252Y-110327661D01*
X145482081Y-110231000D01*
X146017921Y-110231000D01*
X146113741Y-110326987D01*
X146363946Y-110430882D01*
X146634865Y-110431118D01*
X146669000Y-110417014D01*
X146669000Y-113850000D01*
X146702616Y-114019000D01*
X146705614Y-114034071D01*
X146809882Y-114190118D01*
X147109882Y-114490118D01*
X147265929Y-114594386D01*
X147450000Y-114631000D01*
X150350000Y-114631000D01*
X150534071Y-114594386D01*
X150690118Y-114490118D01*
X151330119Y-113850118D01*
X151376652Y-113780476D01*
X151426122Y-113712877D01*
X151428592Y-113702741D01*
X151434386Y-113694070D01*
X151450727Y-113611920D01*
X151470561Y-113530537D01*
X151471713Y-113503577D01*
X151540671Y-113489860D01*
X151944448Y-113220065D01*
X152214243Y-112816288D01*
X152308983Y-112340000D01*
X152311017Y-112340000D01*
X152405757Y-112816288D01*
X152675552Y-113220065D01*
X153079329Y-113489860D01*
X153555617Y-113584600D01*
X153604383Y-113584600D01*
X154080671Y-113489860D01*
X154484448Y-113220065D01*
X154754243Y-112816288D01*
X154785506Y-112659118D01*
X154917007Y-112659118D01*
X155043695Y-112965001D01*
X155364801Y-113329310D01*
X155800880Y-113543005D01*
X155993000Y-113482865D01*
X155993000Y-112467000D01*
X156247000Y-112467000D01*
X156247000Y-113482865D01*
X156439120Y-113543005D01*
X156875199Y-113329310D01*
X157196305Y-112965001D01*
X157322993Y-112659118D01*
X157262312Y-112467000D01*
X156247000Y-112467000D01*
X155993000Y-112467000D01*
X154977688Y-112467000D01*
X154917007Y-112659118D01*
X154785506Y-112659118D01*
X154848983Y-112340000D01*
X154785507Y-112020882D01*
X154917007Y-112020882D01*
X154977688Y-112213000D01*
X155993000Y-112213000D01*
X155993000Y-111197135D01*
X156247000Y-111197135D01*
X156247000Y-112213000D01*
X157262312Y-112213000D01*
X157322993Y-112020882D01*
X157196305Y-111714999D01*
X156875199Y-111350690D01*
X156439120Y-111136995D01*
X156247000Y-111197135D01*
X155993000Y-111197135D01*
X155800880Y-111136995D01*
X155364801Y-111350690D01*
X155043695Y-111714999D01*
X154917007Y-112020882D01*
X154785507Y-112020882D01*
X154754243Y-111863712D01*
X154484448Y-111459935D01*
X154080671Y-111190140D01*
X153604383Y-111095400D01*
X153555617Y-111095400D01*
X153079329Y-111190140D01*
X152675552Y-111459935D01*
X152405757Y-111863712D01*
X152311017Y-112340000D01*
X152308983Y-112340000D01*
X152214243Y-111863712D01*
X151944448Y-111459935D01*
X151540671Y-111190140D01*
X151064383Y-111095400D01*
X151015617Y-111095400D01*
X150539329Y-111190140D01*
X150135552Y-111459935D01*
X149865757Y-111863712D01*
X149771017Y-112340000D01*
X149865757Y-112816288D01*
X150135552Y-113220065D01*
X150413787Y-113405976D01*
X150150764Y-113669000D01*
X147649236Y-113669000D01*
X147631000Y-113650764D01*
X147631000Y-113243751D01*
X147999329Y-113489860D01*
X148475617Y-113584600D01*
X148524383Y-113584600D01*
X149000671Y-113489860D01*
X149404448Y-113220065D01*
X149674243Y-112816288D01*
X149768983Y-112340000D01*
X149674243Y-111863712D01*
X149404448Y-111459935D01*
X149000671Y-111190140D01*
X148524383Y-111095400D01*
X148475617Y-111095400D01*
X147999329Y-111190140D01*
X147631000Y-111436249D01*
X147631000Y-111050970D01*
X147636400Y-111052064D01*
X149363600Y-111052064D01*
X149504790Y-111025497D01*
X149634465Y-110942054D01*
X149721459Y-110814734D01*
X149752064Y-110663600D01*
X149752064Y-109155186D01*
X149813946Y-109180882D01*
X149961107Y-109181010D01*
X149865757Y-109323712D01*
X149771017Y-109800000D01*
X149865757Y-110276288D01*
X150135552Y-110680065D01*
X150539329Y-110949860D01*
X151015617Y-111044600D01*
X151064383Y-111044600D01*
X151540671Y-110949860D01*
X151944448Y-110680065D01*
X152214243Y-110276288D01*
X152308983Y-109800000D01*
X152214243Y-109323712D01*
X151985250Y-108981000D01*
X152050000Y-108981000D01*
X152234071Y-108944386D01*
X152307652Y-108895221D01*
X152513946Y-108980882D01*
X152634758Y-108980987D01*
X152405757Y-109323712D01*
X152311017Y-109800000D01*
X152405757Y-110276288D01*
X152675552Y-110680065D01*
X153079329Y-110949860D01*
X153555617Y-111044600D01*
X153604383Y-111044600D01*
X154080671Y-110949860D01*
X154484448Y-110680065D01*
X154754243Y-110276288D01*
X154848983Y-109800000D01*
X154754243Y-109323712D01*
X154514831Y-108965406D01*
X155149237Y-108331000D01*
X156067921Y-108331000D01*
X156163741Y-108426987D01*
X156413946Y-108530882D01*
X156684865Y-108531118D01*
X156935252Y-108427661D01*
X157126987Y-108236259D01*
X157230882Y-107986054D01*
X157231118Y-107715135D01*
X157127661Y-107464748D01*
X157064024Y-107401000D01*
X157881536Y-107401000D01*
X157881536Y-108474000D01*
X157908103Y-108615190D01*
X157991546Y-108744865D01*
X158118866Y-108831859D01*
X158178821Y-108844000D01*
X156910803Y-108844000D01*
X156620671Y-108650140D01*
X156144383Y-108555400D01*
X156095617Y-108555400D01*
X155619329Y-108650140D01*
X155215552Y-108919935D01*
X154945757Y-109323712D01*
X154851017Y-109800000D01*
X154945757Y-110276288D01*
X155215552Y-110680065D01*
X155619329Y-110949860D01*
X156095617Y-111044600D01*
X156144383Y-111044600D01*
X156620671Y-110949860D01*
X157024448Y-110680065D01*
X157294243Y-110276288D01*
X157377844Y-109856000D01*
X158292877Y-109856000D01*
X158363741Y-109926987D01*
X158613946Y-110030882D01*
X158884865Y-110031118D01*
X159135252Y-109927661D01*
X159326987Y-109736259D01*
X159430882Y-109486054D01*
X159431118Y-109215135D01*
X159327661Y-108964748D01*
X159225555Y-108862464D01*
X159270000Y-108862464D01*
X159411190Y-108835897D01*
X159539000Y-108753654D01*
X159539000Y-109782763D01*
X158155882Y-111165882D01*
X158051614Y-111321929D01*
X158015000Y-111506000D01*
X158015000Y-114554000D01*
X158044673Y-114703175D01*
X158051614Y-114738071D01*
X158055576Y-114744000D01*
X128350107Y-114744000D01*
X128754799Y-114340015D01*
X128980743Y-113795882D01*
X128981257Y-113206703D01*
X128756263Y-112662177D01*
X128340015Y-112245201D01*
X128149999Y-112166299D01*
X132627611Y-112166299D01*
X132793538Y-112567873D01*
X133100511Y-112875382D01*
X133501795Y-113042010D01*
X133936299Y-113042389D01*
X134337873Y-112876462D01*
X134645382Y-112569489D01*
X134812010Y-112168205D01*
X134812011Y-112166299D01*
X137707611Y-112166299D01*
X137873538Y-112567873D01*
X138180511Y-112875382D01*
X138581795Y-113042010D01*
X139016299Y-113042389D01*
X139417873Y-112876462D01*
X139725382Y-112569489D01*
X139892010Y-112168205D01*
X139892389Y-111733701D01*
X139726462Y-111332127D01*
X139419489Y-111024618D01*
X139018205Y-110857990D01*
X138583701Y-110857611D01*
X138182127Y-111023538D01*
X137874618Y-111330511D01*
X137707990Y-111731795D01*
X137707611Y-112166299D01*
X134812011Y-112166299D01*
X134812389Y-111733701D01*
X134646462Y-111332127D01*
X134339489Y-111024618D01*
X133938205Y-110857990D01*
X133503701Y-110857611D01*
X133102127Y-111023538D01*
X132794618Y-111330511D01*
X132627990Y-111731795D01*
X132627611Y-112166299D01*
X128149999Y-112166299D01*
X127795882Y-112019257D01*
X127206703Y-112018743D01*
X126662177Y-112243737D01*
X126309210Y-112596088D01*
X126490285Y-112123209D01*
X126470082Y-111375225D01*
X126222709Y-110778014D01*
X125975350Y-110604256D01*
X124779605Y-111800000D01*
X125975350Y-112995744D01*
X126159493Y-112866392D01*
X126019257Y-113204118D01*
X126018743Y-113793297D01*
X126243737Y-114337823D01*
X126649205Y-114744000D01*
X124044911Y-114744000D01*
X123412555Y-114618216D01*
X122914544Y-114285456D01*
X122581784Y-113787445D01*
X122555000Y-113652793D01*
X122555000Y-113175350D01*
X123404256Y-113175350D01*
X123578014Y-113422709D01*
X124276791Y-113690285D01*
X125024775Y-113670082D01*
X125621986Y-113422709D01*
X125795744Y-113175350D01*
X124600000Y-111979605D01*
X123404256Y-113175350D01*
X122555000Y-113175350D01*
X122555000Y-111476791D01*
X122709715Y-111476791D01*
X122729918Y-112224775D01*
X122977291Y-112821986D01*
X123224650Y-112995744D01*
X124420395Y-111800000D01*
X123224650Y-110604256D01*
X122977291Y-110778014D01*
X122709715Y-111476791D01*
X122555000Y-111476791D01*
X122555000Y-110424650D01*
X123404256Y-110424650D01*
X124600000Y-111620395D01*
X125795744Y-110424650D01*
X125621986Y-110177291D01*
X124923209Y-109909715D01*
X124175225Y-109929918D01*
X123578014Y-110177291D01*
X123404256Y-110424650D01*
X122555000Y-110424650D01*
X122555000Y-109674096D01*
X125568234Y-109674096D01*
X125740142Y-110090146D01*
X126058180Y-110408739D01*
X126473929Y-110581373D01*
X126924096Y-110581766D01*
X127340146Y-110409858D01*
X127658739Y-110091820D01*
X127831373Y-109676071D01*
X127831551Y-109472000D01*
X141986000Y-109472000D01*
X142179638Y-109433483D01*
X142343796Y-109323796D01*
X144557796Y-107109796D01*
X144667483Y-106945638D01*
X144706000Y-106752000D01*
X144706000Y-105657123D01*
X144776987Y-105586259D01*
X144880882Y-105336054D01*
X144881118Y-105065135D01*
X144777661Y-104814748D01*
X144586259Y-104623013D01*
X144336054Y-104519118D01*
X144065135Y-104518882D01*
X143814748Y-104622339D01*
X143623013Y-104813741D01*
X143519118Y-105063946D01*
X143518882Y-105334865D01*
X143622339Y-105585252D01*
X143694000Y-105657038D01*
X143694000Y-106542408D01*
X141776408Y-108460000D01*
X127266535Y-108460000D01*
X126926071Y-108318627D01*
X126475904Y-108318234D01*
X126059854Y-108490142D01*
X125741261Y-108808180D01*
X125568627Y-109223929D01*
X125568234Y-109674096D01*
X122555000Y-109674096D01*
X122555000Y-108394277D01*
X123618830Y-108394277D01*
X123767864Y-108754966D01*
X124043583Y-109031166D01*
X124404011Y-109180829D01*
X124794277Y-109181170D01*
X125154966Y-109032136D01*
X125431166Y-108756417D01*
X125580829Y-108395989D01*
X125581170Y-108005723D01*
X125432136Y-107645034D01*
X125156417Y-107368834D01*
X124795989Y-107219171D01*
X124405723Y-107218830D01*
X124045034Y-107367864D01*
X123768834Y-107643583D01*
X123619171Y-108004011D01*
X123618830Y-108394277D01*
X122555000Y-108394277D01*
X122555000Y-105174096D01*
X125568234Y-105174096D01*
X125740142Y-105590146D01*
X126058180Y-105908739D01*
X126169348Y-105954900D01*
X126059854Y-106000142D01*
X125741261Y-106318180D01*
X125568627Y-106733929D01*
X125568234Y-107184096D01*
X125740142Y-107600146D01*
X126058180Y-107918739D01*
X126473929Y-108091373D01*
X126924096Y-108091766D01*
X127340146Y-107919858D01*
X127658739Y-107601820D01*
X127831373Y-107186071D01*
X127831766Y-106735904D01*
X127659858Y-106319854D01*
X127341820Y-106001261D01*
X127230652Y-105955100D01*
X127340146Y-105909858D01*
X127591441Y-105659000D01*
X139120536Y-105659000D01*
X139120536Y-107691000D01*
X139147103Y-107832190D01*
X139230546Y-107961865D01*
X139357866Y-108048859D01*
X139509000Y-108079464D01*
X141541000Y-108079464D01*
X141682190Y-108052897D01*
X141811865Y-107969454D01*
X141898859Y-107842134D01*
X141929464Y-107691000D01*
X141929464Y-105659000D01*
X141902897Y-105517810D01*
X141819454Y-105388135D01*
X141692134Y-105301141D01*
X141541000Y-105270536D01*
X141332728Y-105270536D01*
X141512828Y-105150197D01*
X141815660Y-104696978D01*
X141922000Y-104162369D01*
X141922000Y-104107631D01*
X141815660Y-103573022D01*
X141512828Y-103119803D01*
X141059609Y-102816971D01*
X140525000Y-102710631D01*
X139990391Y-102816971D01*
X139537172Y-103119803D01*
X139234340Y-103573022D01*
X139128000Y-104107631D01*
X139128000Y-104162369D01*
X139234340Y-104696978D01*
X139537172Y-105150197D01*
X139717272Y-105270536D01*
X139509000Y-105270536D01*
X139367810Y-105297103D01*
X139238135Y-105380546D01*
X139151141Y-105507866D01*
X139120536Y-105659000D01*
X127591441Y-105659000D01*
X127658739Y-105591820D01*
X127831373Y-105176071D01*
X127831766Y-104725904D01*
X127659858Y-104309854D01*
X127341820Y-103991261D01*
X126926071Y-103818627D01*
X126475904Y-103818234D01*
X126059854Y-103990142D01*
X125741261Y-104308180D01*
X125568627Y-104723929D01*
X125568234Y-105174096D01*
X122555000Y-105174096D01*
X122555000Y-103894277D01*
X123618830Y-103894277D01*
X123767864Y-104254966D01*
X124043583Y-104531166D01*
X124404011Y-104680829D01*
X124794277Y-104681170D01*
X125154966Y-104532136D01*
X125431166Y-104256417D01*
X125580829Y-103895989D01*
X125581170Y-103505723D01*
X125489086Y-103282861D01*
X126046744Y-103282861D01*
X126128715Y-103452371D01*
X126555793Y-103594691D01*
X127004824Y-103562743D01*
X127271285Y-103452371D01*
X127353256Y-103282861D01*
X126700000Y-102629605D01*
X126046744Y-103282861D01*
X125489086Y-103282861D01*
X125432136Y-103145034D01*
X125156417Y-102868834D01*
X124795989Y-102719171D01*
X124405723Y-102718830D01*
X124045034Y-102867864D01*
X123768834Y-103143583D01*
X123619171Y-103504011D01*
X123618830Y-103894277D01*
X122555000Y-103894277D01*
X122555000Y-102305793D01*
X125555309Y-102305793D01*
X125587257Y-102754824D01*
X125697629Y-103021285D01*
X125867139Y-103103256D01*
X126520395Y-102450000D01*
X126879605Y-102450000D01*
X127532861Y-103103256D01*
X127702371Y-103021285D01*
X127844691Y-102594207D01*
X127812743Y-102145176D01*
X127702371Y-101878715D01*
X127532861Y-101796744D01*
X126879605Y-102450000D01*
X126520395Y-102450000D01*
X125867139Y-101796744D01*
X125697629Y-101878715D01*
X125555309Y-102305793D01*
X122555000Y-102305793D01*
X122555000Y-101475350D01*
X123404256Y-101475350D01*
X123578014Y-101722709D01*
X124276791Y-101990285D01*
X125024775Y-101970082D01*
X125621986Y-101722709D01*
X125696143Y-101617139D01*
X126046744Y-101617139D01*
X126700000Y-102270395D01*
X127353256Y-101617139D01*
X127271285Y-101447629D01*
X126844207Y-101305309D01*
X126395176Y-101337257D01*
X126128715Y-101447629D01*
X126046744Y-101617139D01*
X125696143Y-101617139D01*
X125795744Y-101475350D01*
X124600000Y-100279605D01*
X123404256Y-101475350D01*
X122555000Y-101475350D01*
X122555000Y-99776791D01*
X122709715Y-99776791D01*
X122729918Y-100524775D01*
X122977291Y-101121986D01*
X123224650Y-101295744D01*
X124420395Y-100100000D01*
X123224650Y-98904256D01*
X122977291Y-99078014D01*
X122709715Y-99776791D01*
X122555000Y-99776791D01*
X122555000Y-98724650D01*
X123404256Y-98724650D01*
X124600000Y-99920395D01*
X125795744Y-98724650D01*
X125621986Y-98477291D01*
X124923209Y-98209715D01*
X124175225Y-98229918D01*
X123578014Y-98477291D01*
X123404256Y-98724650D01*
X122555000Y-98724650D01*
X122555000Y-98347207D01*
X122581784Y-98212555D01*
X122914544Y-97714544D01*
X123412555Y-97381784D01*
X124044911Y-97256000D01*
X126649893Y-97256000D01*
X126245201Y-97659985D01*
G36*
X163300813Y-111459935D02*
X163305614Y-111484071D01*
X163409882Y-111640118D01*
X163581382Y-111811619D01*
X163578810Y-111812103D01*
X163525195Y-111846603D01*
X163395786Y-111793000D01*
X163192250Y-111793000D01*
X163097000Y-111888250D01*
X163097000Y-112647000D01*
X163117000Y-112647000D01*
X163117000Y-112901000D01*
X163097000Y-112901000D01*
X163097000Y-113659750D01*
X163192250Y-113755000D01*
X163395786Y-113755000D01*
X163524627Y-113701632D01*
X163568866Y-113731859D01*
X163720000Y-113762464D01*
X164420000Y-113762464D01*
X164561190Y-113735897D01*
X164619686Y-113698256D01*
X164668866Y-113731859D01*
X164702666Y-113738704D01*
X164722839Y-113840118D01*
X164725614Y-113854071D01*
X164829882Y-114010118D01*
X164838764Y-114019000D01*
X159430629Y-114019000D01*
X159430205Y-113754405D01*
X159470000Y-113762464D01*
X160170000Y-113762464D01*
X160299588Y-113738080D01*
X160420000Y-113762464D01*
X161120000Y-113762464D01*
X161261190Y-113735897D01*
X161319686Y-113698256D01*
X161368866Y-113731859D01*
X161520000Y-113762464D01*
X162220000Y-113762464D01*
X162361190Y-113735897D01*
X162414805Y-113701397D01*
X162544214Y-113755000D01*
X162747750Y-113755000D01*
X162843000Y-113659750D01*
X162843000Y-112901000D01*
X162823000Y-112901000D01*
X162823000Y-112647000D01*
X162843000Y-112647000D01*
X162843000Y-111888250D01*
X162767493Y-111812743D01*
X163270864Y-111309373D01*
X163300813Y-111459935D01*
X163300813Y-111459935D01*
G37*
X163300813Y-111459935D02*
X163305614Y-111484071D01*
X163409882Y-111640118D01*
X163581382Y-111811619D01*
X163578810Y-111812103D01*
X163525195Y-111846603D01*
X163395786Y-111793000D01*
X163192250Y-111793000D01*
X163097000Y-111888250D01*
X163097000Y-112647000D01*
X163117000Y-112647000D01*
X163117000Y-112901000D01*
X163097000Y-112901000D01*
X163097000Y-113659750D01*
X163192250Y-113755000D01*
X163395786Y-113755000D01*
X163524627Y-113701632D01*
X163568866Y-113731859D01*
X163720000Y-113762464D01*
X164420000Y-113762464D01*
X164561190Y-113735897D01*
X164619686Y-113698256D01*
X164668866Y-113731859D01*
X164702666Y-113738704D01*
X164722839Y-113840118D01*
X164725614Y-113854071D01*
X164829882Y-114010118D01*
X164838764Y-114019000D01*
X159430629Y-114019000D01*
X159430205Y-113754405D01*
X159470000Y-113762464D01*
X160170000Y-113762464D01*
X160299588Y-113738080D01*
X160420000Y-113762464D01*
X161120000Y-113762464D01*
X161261190Y-113735897D01*
X161319686Y-113698256D01*
X161368866Y-113731859D01*
X161520000Y-113762464D01*
X162220000Y-113762464D01*
X162361190Y-113735897D01*
X162414805Y-113701397D01*
X162544214Y-113755000D01*
X162747750Y-113755000D01*
X162843000Y-113659750D01*
X162843000Y-112901000D01*
X162823000Y-112901000D01*
X162823000Y-112647000D01*
X162843000Y-112647000D01*
X162843000Y-111888250D01*
X162767493Y-111812743D01*
X163270864Y-111309373D01*
X163300813Y-111459935D01*
G36*
X166397000Y-112647000D02*
X166417000Y-112647000D01*
X166417000Y-112901000D01*
X166397000Y-112901000D01*
X166397000Y-112921000D01*
X166143000Y-112921000D01*
X166143000Y-112901000D01*
X166123000Y-112901000D01*
X166123000Y-112647000D01*
X166143000Y-112647000D01*
X166143000Y-112627000D01*
X166397000Y-112627000D01*
X166397000Y-112647000D01*
X166397000Y-112647000D01*
G37*
X166397000Y-112647000D02*
X166417000Y-112647000D01*
X166417000Y-112901000D01*
X166397000Y-112901000D01*
X166397000Y-112921000D01*
X166143000Y-112921000D01*
X166143000Y-112901000D01*
X166123000Y-112901000D01*
X166123000Y-112647000D01*
X166143000Y-112647000D01*
X166143000Y-112627000D01*
X166397000Y-112627000D01*
X166397000Y-112647000D01*
M02*
