G04 #@! TF.FileFunction,Legend,Bot*
%FSLAX46Y46*%
G04 Gerber Fmt 4.6, Leading zero omitted, Abs format (unit mm)*
G04 Created by KiCad (PCBNEW (2015-11-24 BZR 6329)-product) date Sat 01 Oct 2016 01:52:16 AM EDT*
%MOMM*%
G01*
G04 APERTURE LIST*
%ADD10C,0.100000*%
%ADD11C,0.300000*%
%ADD12C,0.150000*%
G04 APERTURE END LIST*
D10*
D11*
X148890857Y-99737143D02*
X149033714Y-99808571D01*
X149319428Y-99808571D01*
X149462285Y-99737143D01*
X149533714Y-99594286D01*
X149533714Y-99022857D01*
X149462285Y-98880000D01*
X149319428Y-98808571D01*
X149033714Y-98808571D01*
X148890857Y-98880000D01*
X148819428Y-99022857D01*
X148819428Y-99165714D01*
X149533714Y-99308571D01*
X148248000Y-99737143D02*
X148105143Y-99808571D01*
X147819428Y-99808571D01*
X147676571Y-99737143D01*
X147605143Y-99594286D01*
X147605143Y-99522857D01*
X147676571Y-99380000D01*
X147819428Y-99308571D01*
X148033714Y-99308571D01*
X148176571Y-99237143D01*
X148248000Y-99094286D01*
X148248000Y-99022857D01*
X148176571Y-98880000D01*
X148033714Y-98808571D01*
X147819428Y-98808571D01*
X147676571Y-98880000D01*
X146962285Y-98808571D02*
X146962285Y-100308571D01*
X146962285Y-98880000D02*
X146819428Y-98808571D01*
X146533714Y-98808571D01*
X146390857Y-98880000D01*
X146319428Y-98951429D01*
X146247999Y-99094286D01*
X146247999Y-99522857D01*
X146319428Y-99665714D01*
X146390857Y-99737143D01*
X146533714Y-99808571D01*
X146819428Y-99808571D01*
X146962285Y-99737143D01*
X145747999Y-98308571D02*
X144819428Y-98308571D01*
X145319428Y-98880000D01*
X145105142Y-98880000D01*
X144962285Y-98951429D01*
X144890856Y-99022857D01*
X144819428Y-99165714D01*
X144819428Y-99522857D01*
X144890856Y-99665714D01*
X144962285Y-99737143D01*
X145105142Y-99808571D01*
X145533714Y-99808571D01*
X145676571Y-99737143D01*
X145747999Y-99665714D01*
X144248000Y-98451429D02*
X144176571Y-98380000D01*
X144033714Y-98308571D01*
X143676571Y-98308571D01*
X143533714Y-98380000D01*
X143462285Y-98451429D01*
X143390857Y-98594286D01*
X143390857Y-98737143D01*
X143462285Y-98951429D01*
X144319428Y-99808571D01*
X143390857Y-99808571D01*
X142105143Y-98808571D02*
X142105143Y-99808571D01*
X142748000Y-98808571D02*
X142748000Y-99594286D01*
X142676572Y-99737143D01*
X142533714Y-99808571D01*
X142319429Y-99808571D01*
X142176572Y-99737143D01*
X142105143Y-99665714D01*
X141462286Y-99737143D02*
X141319429Y-99808571D01*
X141033714Y-99808571D01*
X140890857Y-99737143D01*
X140819429Y-99594286D01*
X140819429Y-99522857D01*
X140890857Y-99380000D01*
X141033714Y-99308571D01*
X141248000Y-99308571D01*
X141390857Y-99237143D01*
X141462286Y-99094286D01*
X141462286Y-99022857D01*
X141390857Y-98880000D01*
X141248000Y-98808571D01*
X141033714Y-98808571D01*
X140890857Y-98880000D01*
X140176571Y-99808571D02*
X140176571Y-98308571D01*
X140176571Y-98880000D02*
X140033714Y-98808571D01*
X139748000Y-98808571D01*
X139605143Y-98880000D01*
X139533714Y-98951429D01*
X139462285Y-99094286D01*
X139462285Y-99522857D01*
X139533714Y-99665714D01*
X139605143Y-99737143D01*
X139748000Y-99808571D01*
X140033714Y-99808571D01*
X140176571Y-99737143D01*
X137676571Y-99808571D02*
X137676571Y-98808571D01*
X137676571Y-99094286D02*
X137605143Y-98951429D01*
X137533714Y-98880000D01*
X137390857Y-98808571D01*
X137248000Y-98808571D01*
X135962286Y-99808571D02*
X136819429Y-99808571D01*
X136390857Y-99808571D02*
X136390857Y-98308571D01*
X136533714Y-98522857D01*
X136676572Y-98665714D01*
X136819429Y-98737143D01*
X153426571Y-100708571D02*
X153069428Y-102208571D01*
X152783714Y-101137143D01*
X152498000Y-102208571D01*
X152140857Y-100708571D01*
X151569428Y-102208571D02*
X151569428Y-100708571D01*
X150926571Y-102208571D02*
X150926571Y-101422857D01*
X150998000Y-101280000D01*
X151140857Y-101208571D01*
X151355142Y-101208571D01*
X151498000Y-101280000D01*
X151569428Y-101351429D01*
X150212285Y-102208571D02*
X150212285Y-101208571D01*
X150212285Y-100708571D02*
X150283714Y-100780000D01*
X150212285Y-100851429D01*
X150140857Y-100780000D01*
X150212285Y-100708571D01*
X150212285Y-100851429D01*
X149712285Y-101208571D02*
X149140856Y-101208571D01*
X149497999Y-100708571D02*
X149497999Y-101994286D01*
X149426571Y-102137143D01*
X149283713Y-102208571D01*
X149140856Y-102208571D01*
X148069428Y-102137143D02*
X148212285Y-102208571D01*
X148497999Y-102208571D01*
X148640856Y-102137143D01*
X148712285Y-101994286D01*
X148712285Y-101422857D01*
X148640856Y-101280000D01*
X148497999Y-101208571D01*
X148212285Y-101208571D01*
X148069428Y-101280000D01*
X147997999Y-101422857D01*
X147997999Y-101565714D01*
X148712285Y-101708571D01*
X147569428Y-101208571D02*
X146997999Y-101208571D01*
X147355142Y-102208571D02*
X147355142Y-100922857D01*
X147283714Y-100780000D01*
X147140856Y-100708571D01*
X146997999Y-100708571D01*
X146283713Y-102208571D02*
X146426571Y-102137143D01*
X146497999Y-102065714D01*
X146569428Y-101922857D01*
X146569428Y-101494286D01*
X146497999Y-101351429D01*
X146426571Y-101280000D01*
X146283713Y-101208571D01*
X146069428Y-101208571D01*
X145926571Y-101280000D01*
X145855142Y-101351429D01*
X145783713Y-101494286D01*
X145783713Y-101922857D01*
X145855142Y-102065714D01*
X145926571Y-102137143D01*
X146069428Y-102208571D01*
X146283713Y-102208571D01*
X145140856Y-102208571D02*
X145140856Y-101208571D01*
X145140856Y-101494286D02*
X145069428Y-101351429D01*
X144997999Y-101280000D01*
X144855142Y-101208571D01*
X144712285Y-101208571D01*
X143569428Y-102208571D02*
X143569428Y-100708571D01*
X143569428Y-102137143D02*
X143712285Y-102208571D01*
X143997999Y-102208571D01*
X144140857Y-102137143D01*
X144212285Y-102065714D01*
X144283714Y-101922857D01*
X144283714Y-101494286D01*
X144212285Y-101351429D01*
X144140857Y-101280000D01*
X143997999Y-101208571D01*
X143712285Y-101208571D01*
X143569428Y-101280000D01*
X140855142Y-102208571D02*
X141355142Y-101494286D01*
X141712285Y-102208571D02*
X141712285Y-100708571D01*
X141140857Y-100708571D01*
X140997999Y-100780000D01*
X140926571Y-100851429D01*
X140855142Y-100994286D01*
X140855142Y-101208571D01*
X140926571Y-101351429D01*
X140997999Y-101422857D01*
X141140857Y-101494286D01*
X141712285Y-101494286D01*
X139640857Y-102137143D02*
X139783714Y-102208571D01*
X140069428Y-102208571D01*
X140212285Y-102137143D01*
X140283714Y-101994286D01*
X140283714Y-101422857D01*
X140212285Y-101280000D01*
X140069428Y-101208571D01*
X139783714Y-101208571D01*
X139640857Y-101280000D01*
X139569428Y-101422857D01*
X139569428Y-101565714D01*
X140283714Y-101708571D01*
X138998000Y-102137143D02*
X138855143Y-102208571D01*
X138569428Y-102208571D01*
X138426571Y-102137143D01*
X138355143Y-101994286D01*
X138355143Y-101922857D01*
X138426571Y-101780000D01*
X138569428Y-101708571D01*
X138783714Y-101708571D01*
X138926571Y-101637143D01*
X138998000Y-101494286D01*
X138998000Y-101422857D01*
X138926571Y-101280000D01*
X138783714Y-101208571D01*
X138569428Y-101208571D01*
X138426571Y-101280000D01*
X137140857Y-102137143D02*
X137283714Y-102208571D01*
X137569428Y-102208571D01*
X137712285Y-102137143D01*
X137783714Y-101994286D01*
X137783714Y-101422857D01*
X137712285Y-101280000D01*
X137569428Y-101208571D01*
X137283714Y-101208571D01*
X137140857Y-101280000D01*
X137069428Y-101422857D01*
X137069428Y-101565714D01*
X137783714Y-101708571D01*
X135783714Y-102208571D02*
X135783714Y-101422857D01*
X135855143Y-101280000D01*
X135998000Y-101208571D01*
X136283714Y-101208571D01*
X136426571Y-101280000D01*
X135783714Y-102137143D02*
X135926571Y-102208571D01*
X136283714Y-102208571D01*
X136426571Y-102137143D01*
X136498000Y-101994286D01*
X136498000Y-101851429D01*
X136426571Y-101708571D01*
X136283714Y-101637143D01*
X135926571Y-101637143D01*
X135783714Y-101565714D01*
X135069428Y-102208571D02*
X135069428Y-101208571D01*
X135069428Y-101494286D02*
X134998000Y-101351429D01*
X134926571Y-101280000D01*
X134783714Y-101208571D01*
X134640857Y-101208571D01*
X133498000Y-102137143D02*
X133640857Y-102208571D01*
X133926571Y-102208571D01*
X134069429Y-102137143D01*
X134140857Y-102065714D01*
X134212286Y-101922857D01*
X134212286Y-101494286D01*
X134140857Y-101351429D01*
X134069429Y-101280000D01*
X133926571Y-101208571D01*
X133640857Y-101208571D01*
X133498000Y-101280000D01*
X132855143Y-102208571D02*
X132855143Y-100708571D01*
X132212286Y-102208571D02*
X132212286Y-101422857D01*
X132283715Y-101280000D01*
X132426572Y-101208571D01*
X132640857Y-101208571D01*
X132783715Y-101280000D01*
X132855143Y-101351429D01*
D12*
X158120000Y-96974000D02*
X158120000Y-113474000D01*
X158120000Y-113474000D02*
X172870000Y-113474000D01*
X172870000Y-113474000D02*
X173370000Y-113474000D01*
X173370000Y-113474000D02*
X173370000Y-96974000D01*
X173370000Y-96974000D02*
X158120000Y-96974000D01*
X166370000Y-100974000D02*
X166370000Y-105974000D01*
X166370000Y-105974000D02*
X167370000Y-104974000D01*
X167370000Y-104974000D02*
X166370000Y-105974000D01*
X166370000Y-105974000D02*
X165370000Y-104974000D01*
X174328249Y-104776777D02*
X174823223Y-105271751D01*
X175671751Y-104423223D02*
X175176777Y-103928249D01*
X176800000Y-104550000D02*
X176800000Y-103850000D01*
X175600000Y-103850000D02*
X175600000Y-104550000D01*
X174278249Y-106876777D02*
X174773223Y-107371751D01*
X175621751Y-106523223D02*
X175126777Y-106028249D01*
X174700000Y-102300000D02*
X175400000Y-102300000D01*
X175400000Y-101100000D02*
X174700000Y-101100000D01*
X174700000Y-103250000D02*
X175400000Y-103250000D01*
X175400000Y-102050000D02*
X174700000Y-102050000D01*
X173858527Y-106650610D02*
X173858527Y-106717953D01*
X173925871Y-106852640D01*
X173993214Y-106919984D01*
X174127902Y-106987328D01*
X174262589Y-106987328D01*
X174363604Y-106953656D01*
X174531962Y-106852641D01*
X174632978Y-106751625D01*
X174733993Y-106583266D01*
X174767665Y-106482251D01*
X174767665Y-106347564D01*
X174700321Y-106212877D01*
X174632978Y-106145533D01*
X174498291Y-106078190D01*
X174430947Y-106078190D01*
X173117749Y-106044518D02*
X173521810Y-106448579D01*
X173319780Y-106246549D02*
X174026887Y-105539442D01*
X173993215Y-105707801D01*
X173993215Y-105842488D01*
X174026887Y-105943503D01*
X172983062Y-104967022D02*
X172511657Y-105438427D01*
X173420795Y-104866007D02*
X173084077Y-105539442D01*
X172646344Y-105101709D01*
X178457143Y-103557143D02*
X178504762Y-103509524D01*
X178552381Y-103366667D01*
X178552381Y-103271429D01*
X178504762Y-103128571D01*
X178409524Y-103033333D01*
X178314286Y-102985714D01*
X178123810Y-102938095D01*
X177980952Y-102938095D01*
X177790476Y-102985714D01*
X177695238Y-103033333D01*
X177600000Y-103128571D01*
X177552381Y-103271429D01*
X177552381Y-103366667D01*
X177600000Y-103509524D01*
X177647619Y-103557143D01*
X178552381Y-104509524D02*
X178552381Y-103938095D01*
X178552381Y-104223809D02*
X177552381Y-104223809D01*
X177695238Y-104128571D01*
X177790476Y-104033333D01*
X177838095Y-103938095D01*
X177552381Y-105414286D02*
X177552381Y-104938095D01*
X178028571Y-104890476D01*
X177980952Y-104938095D01*
X177933333Y-105033333D01*
X177933333Y-105271429D01*
X177980952Y-105366667D01*
X178028571Y-105414286D01*
X178123810Y-105461905D01*
X178361905Y-105461905D01*
X178457143Y-105414286D01*
X178504762Y-105366667D01*
X178552381Y-105271429D01*
X178552381Y-105033333D01*
X178504762Y-104938095D01*
X178457143Y-104890476D01*
X173808527Y-108750610D02*
X173808527Y-108817953D01*
X173875871Y-108952640D01*
X173943214Y-109019984D01*
X174077902Y-109087328D01*
X174212589Y-109087328D01*
X174313604Y-109053656D01*
X174481962Y-108952641D01*
X174582978Y-108851625D01*
X174683993Y-108683266D01*
X174717665Y-108582251D01*
X174717665Y-108447564D01*
X174650321Y-108312877D01*
X174582978Y-108245533D01*
X174448291Y-108178190D01*
X174380947Y-108178190D01*
X173067749Y-108144518D02*
X173471810Y-108548579D01*
X173269780Y-108346549D02*
X173976887Y-107639442D01*
X173943215Y-107807801D01*
X173943215Y-107942488D01*
X173976887Y-108043503D01*
X173539154Y-107201709D02*
X173067749Y-106730305D01*
X172663688Y-107740458D01*
X175692857Y-103957143D02*
X175740476Y-104004762D01*
X175883333Y-104052381D01*
X175978571Y-104052381D01*
X176121429Y-104004762D01*
X176216667Y-103909524D01*
X176264286Y-103814286D01*
X176311905Y-103623810D01*
X176311905Y-103480952D01*
X176264286Y-103290476D01*
X176216667Y-103195238D01*
X176121429Y-103100000D01*
X175978571Y-103052381D01*
X175883333Y-103052381D01*
X175740476Y-103100000D01*
X175692857Y-103147619D01*
X174740476Y-104052381D02*
X175311905Y-104052381D01*
X175026191Y-104052381D02*
X175026191Y-103052381D01*
X175121429Y-103195238D01*
X175216667Y-103290476D01*
X175311905Y-103338095D01*
X174169048Y-103480952D02*
X174264286Y-103433333D01*
X174311905Y-103385714D01*
X174359524Y-103290476D01*
X174359524Y-103242857D01*
X174311905Y-103147619D01*
X174264286Y-103100000D01*
X174169048Y-103052381D01*
X173978571Y-103052381D01*
X173883333Y-103100000D01*
X173835714Y-103147619D01*
X173788095Y-103242857D01*
X173788095Y-103290476D01*
X173835714Y-103385714D01*
X173883333Y-103433333D01*
X173978571Y-103480952D01*
X174169048Y-103480952D01*
X174264286Y-103528571D01*
X174311905Y-103576190D01*
X174359524Y-103671429D01*
X174359524Y-103861905D01*
X174311905Y-103957143D01*
X174264286Y-104004762D01*
X174169048Y-104052381D01*
X173978571Y-104052381D01*
X173883333Y-104004762D01*
X173835714Y-103957143D01*
X173788095Y-103861905D01*
X173788095Y-103671429D01*
X173835714Y-103576190D01*
X173883333Y-103528571D01*
X173978571Y-103480952D01*
X175216666Y-105002381D02*
X175550000Y-104526190D01*
X175788095Y-105002381D02*
X175788095Y-104002381D01*
X175407142Y-104002381D01*
X175311904Y-104050000D01*
X175264285Y-104097619D01*
X175216666Y-104192857D01*
X175216666Y-104335714D01*
X175264285Y-104430952D01*
X175311904Y-104478571D01*
X175407142Y-104526190D01*
X175788095Y-104526190D01*
X174264285Y-105002381D02*
X174835714Y-105002381D01*
X174550000Y-105002381D02*
X174550000Y-104002381D01*
X174645238Y-104145238D01*
X174740476Y-104240476D01*
X174835714Y-104288095D01*
M02*
