M48
;DRILL file {KiCad (2015-11-24 BZR 6329)-product} date Sat 01 Oct 2016 01:52:18 AM EDT
;FORMAT={-:-/ absolute / inch / decimal}
FMAT,2
INCH,TZ
T1C0.016
T2C0.030
T3C0.039
T4C0.040
T5C0.043
T6C0.083
T7C0.098
%
G90
G05
M72
T1
X5.1102Y-3.997
X5.1122Y-3.9508
X5.6772Y-4.1417
X5.7067Y-3.9311
X5.7087Y-4.3209
X5.7677Y-4.3209
X5.9035Y-4.2717
X5.9409Y-4.2362
X6.0039Y-4.0925
X6.0059Y-4.124
X6.0098Y-4.2638
X6.0984Y-4.0787
X6.0984Y-4.1457
X6.1634Y-4.2461
X6.1772Y-4.1004
X6.2421Y-4.0846
X6.25Y-4.3051
X6.2933Y-4.122
X6.313Y-4.4862
X6.3169Y-4.1417
X6.3209Y-4.1713
X6.3465Y-4.128
X6.3484Y-4.0866
X6.3661Y-4.252
X6.3898Y-4.1693
X6.3917Y-4.0295
X6.4173Y-4.3189
X6.4193Y-4.1476
X6.4213Y-4.1161
X6.437Y-4.0118
X6.4409Y-4.1949
X6.4488Y-3.9606
X6.4843Y-3.9843
X6.4909Y-3.9177
X6.4921Y-4.2598
X6.5472Y-4.4685
X6.5504Y-4.0544
X6.5504Y-4.0982
X6.5504Y-4.142
X6.5504Y-4.1858
X6.5657Y-3.8937
X6.5669Y-4.2795
X6.5942Y-4.0544
X6.5942Y-4.0982
X6.5942Y-4.142
X6.5942Y-4.1858
X6.5945Y-4.3059
X6.5945Y-4.3681
X6.6201Y-4.3465
X6.622Y-4.3839
X6.638Y-4.0544
X6.638Y-4.0982
X6.638Y-4.142
X6.638Y-4.1858
X6.6535Y-4.4862
X6.6634Y-4.3465
X6.6665Y-3.8594
X6.6713Y-4.374
X6.6818Y-4.0544
X6.6818Y-4.0982
X6.6818Y-4.142
X6.6818Y-4.1858
X6.6972Y-3.9154
X6.7323Y-4.2697
X6.7657Y-3.9823
X6.7736Y-4.1181
X6.7815Y-4.2126
X6.7953Y-4.1417
X6.7972Y-4.185
X6.7972Y-4.2815
X6.8031Y-3.998
X6.8189Y-4.0591
X6.8228Y-4.3661
X6.8287Y-4.0197
X6.874Y-4.2352
X6.8791Y-3.8535
X6.9252Y-4.3159
X6.9689Y-4.2362
T2
X5.2646Y-4.4075
X5.4646Y-4.4075
T3
X4.9882Y-4.0335
X4.9882Y-4.1319
X4.9882Y-4.211
X4.9882Y-4.3091
T4
X5.5325Y-4.0998
X5.5325Y-4.1998
X5.8465Y-4.3228
X5.8465Y-4.4228
X5.9465Y-4.3228
X5.9465Y-4.4228
X5.9575Y-3.9291
X6.0465Y-4.3228
X6.0465Y-4.4228
X6.0575Y-3.9291
X6.1465Y-4.3228
X6.1465Y-4.4228
X6.1575Y-3.9291
T5
X4.9055Y-4.0827
X4.9055Y-4.2598
T6
X5.0197Y-3.878
X5.0197Y-4.4685
X7.0472Y-3.878
X7.0472Y-4.4685
T7
X4.9055Y-3.9409
X4.9055Y-4.4016
T0
M30
