G04 #@! TF.FileFunction,Copper,L2,Bot,Signal*
%FSLAX46Y46*%
G04 Gerber Fmt 4.6, Leading zero omitted, Abs format (unit mm)*
G04 Created by KiCad (PCBNEW (2014-11-17 BZR 5289)-product) date Wed 28 Oct 2015 01:57:00 PM EDT*
%MOMM*%
G01*
G04 APERTURE LIST*
%ADD10C,0.100000*%
%ADD11R,2.032000X2.032000*%
%ADD12O,2.032000X2.032000*%
%ADD13O,1.400000X2.500000*%
%ADD14R,2.000000X2.000000*%
%ADD15C,2.000000*%
%ADD16C,1.998980*%
%ADD17C,3.500000*%
%ADD18C,4.000000*%
%ADD19C,0.500000*%
%ADD20C,0.254000*%
G04 APERTURE END LIST*
D10*
D11*
X193000000Y-91500000D03*
D12*
X193000000Y-96000000D03*
D11*
X193000000Y-102500000D03*
D12*
X193000000Y-107500000D03*
D13*
X205310000Y-111190000D03*
X202770000Y-111190000D03*
X200230000Y-111190000D03*
X197690000Y-111190000D03*
X197690000Y-118810000D03*
X200230000Y-118810000D03*
X202770000Y-118810000D03*
X205310000Y-118810000D03*
X218810000Y-88190000D03*
X216270000Y-88190000D03*
X213730000Y-88190000D03*
X211190000Y-88190000D03*
X211190000Y-95810000D03*
X213730000Y-95810000D03*
X216270000Y-95810000D03*
X218810000Y-95810000D03*
D14*
X214000000Y-82500000D03*
D15*
X219000000Y-82500000D03*
D14*
X212500000Y-116500000D03*
D15*
X212500000Y-111500000D03*
D14*
X204500000Y-103000000D03*
D15*
X199500000Y-103000000D03*
D16*
X224000000Y-96000000D03*
X224000000Y-81000000D03*
D17*
X223500000Y-107407898D03*
X219907898Y-111000000D03*
D18*
X228888154Y-116388154D03*
D17*
X201500000Y-92592102D03*
X205092102Y-89000000D03*
D18*
X196111846Y-83611846D03*
D19*
X216270000Y-94270000D02*
X212500000Y-90500000D01*
X212500000Y-90500000D02*
X210500000Y-90500000D01*
X210500000Y-90500000D02*
X203611846Y-83611846D01*
X203611846Y-83611846D02*
X196111846Y-83611846D01*
X216270000Y-95810000D02*
X216270000Y-94270000D01*
D20*
G36*
X233873000Y-114654615D02*
X233593539Y-116059559D01*
X231577209Y-119077211D01*
X231523611Y-119113024D01*
X231523611Y-115866320D01*
X231123301Y-114897496D01*
X230382711Y-114155612D01*
X229414587Y-113753612D01*
X228366320Y-113752697D01*
X227397496Y-114153007D01*
X226655612Y-114893597D01*
X226253612Y-115861721D01*
X226252697Y-116909988D01*
X226653007Y-117878812D01*
X227393597Y-118620696D01*
X228361721Y-119022696D01*
X229409988Y-119023611D01*
X230378812Y-118623301D01*
X231120696Y-117882711D01*
X231522696Y-116914587D01*
X231523611Y-115866320D01*
X231523611Y-119113024D01*
X228889619Y-120873000D01*
X225885413Y-120873000D01*
X225885413Y-106935573D01*
X225634774Y-106328979D01*
X225634774Y-95676306D01*
X225634774Y-80676306D01*
X225386462Y-80075345D01*
X224927073Y-79615154D01*
X224326547Y-79365794D01*
X223676306Y-79365226D01*
X223075345Y-79613538D01*
X222615154Y-80072927D01*
X222365794Y-80673453D01*
X222365226Y-81323694D01*
X222613538Y-81924655D01*
X223072927Y-82384846D01*
X223673453Y-82634206D01*
X224323694Y-82634774D01*
X224924655Y-82386462D01*
X225384846Y-81927073D01*
X225634206Y-81326547D01*
X225634774Y-80676306D01*
X225634774Y-95676306D01*
X225386462Y-95075345D01*
X224927073Y-94615154D01*
X224326547Y-94365794D01*
X223676306Y-94365226D01*
X223075345Y-94613538D01*
X222615154Y-95072927D01*
X222365794Y-95673453D01*
X222365226Y-96323694D01*
X222613538Y-96924655D01*
X223072927Y-97384846D01*
X223673453Y-97634206D01*
X224323694Y-97634774D01*
X224924655Y-97386462D01*
X225384846Y-96927073D01*
X225634206Y-96326547D01*
X225634774Y-95676306D01*
X225634774Y-106328979D01*
X225523084Y-106058669D01*
X224852758Y-105387172D01*
X223976487Y-105023313D01*
X223027675Y-105022485D01*
X222150771Y-105384814D01*
X221479274Y-106055140D01*
X221115415Y-106931411D01*
X221114587Y-107880223D01*
X221476916Y-108757127D01*
X222147242Y-109428624D01*
X223023513Y-109792483D01*
X223972325Y-109793311D01*
X224849229Y-109430982D01*
X225520726Y-108760656D01*
X225884585Y-107884385D01*
X225885413Y-106935573D01*
X225885413Y-120873000D01*
X222293311Y-120873000D01*
X222293311Y-110527675D01*
X221930982Y-109650771D01*
X221260656Y-108979274D01*
X220645908Y-108724008D01*
X220645908Y-82764539D01*
X220621856Y-82114540D01*
X220419387Y-81625736D01*
X220152532Y-81527073D01*
X219972927Y-81706678D01*
X219972927Y-81347468D01*
X219874264Y-81080613D01*
X219264539Y-80854092D01*
X218614540Y-80878144D01*
X218125736Y-81080613D01*
X218027073Y-81347468D01*
X219000000Y-82320395D01*
X219972927Y-81347468D01*
X219972927Y-81706678D01*
X219179605Y-82500000D01*
X220152532Y-83472927D01*
X220419387Y-83374264D01*
X220645908Y-82764539D01*
X220645908Y-108724008D01*
X220384385Y-108615415D01*
X220145000Y-108615206D01*
X220145000Y-96396929D01*
X220145000Y-95223071D01*
X220145000Y-88867000D01*
X220145000Y-88317000D01*
X220145000Y-88063000D01*
X220145000Y-87513000D01*
X219994778Y-87011785D01*
X219972927Y-86984977D01*
X219972927Y-83652532D01*
X219000000Y-82679605D01*
X218820395Y-82859210D01*
X218820395Y-82500000D01*
X217847468Y-81527073D01*
X217580613Y-81625736D01*
X217354092Y-82235461D01*
X217378144Y-82885460D01*
X217580613Y-83374264D01*
X217847468Y-83472927D01*
X218820395Y-82500000D01*
X218820395Y-82859210D01*
X218027073Y-83652532D01*
X218125736Y-83919387D01*
X218735461Y-84145908D01*
X219385460Y-84121856D01*
X219874264Y-83919387D01*
X219972927Y-83652532D01*
X219972927Y-86984977D01*
X219664185Y-86606210D01*
X219203550Y-86358020D01*
X219143329Y-86347284D01*
X218937000Y-86470626D01*
X218937000Y-88063000D01*
X220145000Y-88063000D01*
X220145000Y-88317000D01*
X218937000Y-88317000D01*
X218937000Y-89909374D01*
X219143329Y-90032716D01*
X219203550Y-90021980D01*
X219664185Y-89773790D01*
X219994778Y-89368215D01*
X220145000Y-88867000D01*
X220145000Y-95223071D01*
X220043379Y-94712189D01*
X219753988Y-94279083D01*
X219320882Y-93989692D01*
X218810000Y-93888071D01*
X218299118Y-93989692D01*
X217866012Y-94279083D01*
X217576621Y-94712189D01*
X217540000Y-94896294D01*
X217503379Y-94712189D01*
X217213988Y-94279083D01*
X217148042Y-94235020D01*
X217087633Y-93931325D01*
X216895790Y-93644210D01*
X216895786Y-93644207D01*
X213272507Y-90020927D01*
X213730000Y-90111929D01*
X214240882Y-90010308D01*
X214673988Y-89720917D01*
X214963379Y-89287811D01*
X215000000Y-89103705D01*
X215036621Y-89287811D01*
X215326012Y-89720917D01*
X215759118Y-90010308D01*
X216270000Y-90111929D01*
X216780882Y-90010308D01*
X217213988Y-89720917D01*
X217503379Y-89287811D01*
X217542371Y-89091783D01*
X217625222Y-89368215D01*
X217955815Y-89773790D01*
X218416450Y-90021980D01*
X218476671Y-90032716D01*
X218683000Y-89909374D01*
X218683000Y-88317000D01*
X218663000Y-88317000D01*
X218663000Y-88063000D01*
X218683000Y-88063000D01*
X218683000Y-86470626D01*
X218476671Y-86347284D01*
X218416450Y-86358020D01*
X217955815Y-86606210D01*
X217625222Y-87011785D01*
X217542371Y-87288216D01*
X217503379Y-87092189D01*
X217213988Y-86659083D01*
X216780882Y-86369692D01*
X216270000Y-86268071D01*
X215759118Y-86369692D01*
X215635000Y-86452624D01*
X215635000Y-83626310D01*
X215635000Y-83373691D01*
X215635000Y-81373691D01*
X215538327Y-81140302D01*
X215359699Y-80961673D01*
X215126310Y-80865000D01*
X214873691Y-80865000D01*
X212873691Y-80865000D01*
X212640302Y-80961673D01*
X212461673Y-81140301D01*
X212365000Y-81373690D01*
X212365000Y-81626309D01*
X212365000Y-83626309D01*
X212461673Y-83859698D01*
X212640301Y-84038327D01*
X212873690Y-84135000D01*
X213126309Y-84135000D01*
X215126309Y-84135000D01*
X215359698Y-84038327D01*
X215538327Y-83859699D01*
X215635000Y-83626310D01*
X215635000Y-86452624D01*
X215326012Y-86659083D01*
X215036621Y-87092189D01*
X215000000Y-87276294D01*
X214963379Y-87092189D01*
X214673988Y-86659083D01*
X214240882Y-86369692D01*
X213730000Y-86268071D01*
X213219118Y-86369692D01*
X212786012Y-86659083D01*
X212496621Y-87092189D01*
X212460000Y-87276294D01*
X212423379Y-87092189D01*
X212133988Y-86659083D01*
X211700882Y-86369692D01*
X211190000Y-86268071D01*
X210679118Y-86369692D01*
X210246012Y-86659083D01*
X209956621Y-87092189D01*
X209855000Y-87603071D01*
X209855000Y-88603420D01*
X204237636Y-82986056D01*
X203950521Y-82794213D01*
X203894330Y-82783035D01*
X203611846Y-82726845D01*
X203611840Y-82726846D01*
X198597245Y-82726846D01*
X198346993Y-82121188D01*
X197606403Y-81379304D01*
X196638279Y-80977304D01*
X195590012Y-80976389D01*
X194621188Y-81376699D01*
X193879304Y-82117289D01*
X193477304Y-83085413D01*
X193476389Y-84133680D01*
X193876699Y-85102504D01*
X194617289Y-85844388D01*
X195585413Y-86246388D01*
X196633680Y-86247303D01*
X197602504Y-85846993D01*
X198344388Y-85106403D01*
X198597498Y-84496846D01*
X203245266Y-84496846D01*
X205363656Y-86615236D01*
X204619777Y-86614587D01*
X203742873Y-86976916D01*
X203071376Y-87647242D01*
X202707517Y-88523513D01*
X202706689Y-89472325D01*
X203069018Y-90349229D01*
X203739344Y-91020726D01*
X204615615Y-91384585D01*
X205564427Y-91385413D01*
X206441331Y-91023084D01*
X207112828Y-90352758D01*
X207476687Y-89476487D01*
X207477339Y-88728918D01*
X209874207Y-91125786D01*
X209874210Y-91125790D01*
X209874211Y-91125790D01*
X210161325Y-91317633D01*
X210161326Y-91317633D01*
X210217515Y-91328810D01*
X210500000Y-91385001D01*
X210500000Y-91385000D01*
X210500005Y-91385000D01*
X212133420Y-91385000D01*
X215206446Y-94458025D01*
X215036621Y-94712189D01*
X215000000Y-94896294D01*
X214963379Y-94712189D01*
X214673988Y-94279083D01*
X214240882Y-93989692D01*
X213730000Y-93888071D01*
X213219118Y-93989692D01*
X212786012Y-94279083D01*
X212496621Y-94712189D01*
X212460000Y-94896294D01*
X212423379Y-94712189D01*
X212133988Y-94279083D01*
X211700882Y-93989692D01*
X211190000Y-93888071D01*
X210679118Y-93989692D01*
X210246012Y-94279083D01*
X209956621Y-94712189D01*
X209855000Y-95223071D01*
X209855000Y-96396929D01*
X209956621Y-96907811D01*
X210246012Y-97340917D01*
X210679118Y-97630308D01*
X211190000Y-97731929D01*
X211700882Y-97630308D01*
X212133988Y-97340917D01*
X212423379Y-96907811D01*
X212460000Y-96723705D01*
X212496621Y-96907811D01*
X212786012Y-97340917D01*
X213219118Y-97630308D01*
X213730000Y-97731929D01*
X214240882Y-97630308D01*
X214673988Y-97340917D01*
X214963379Y-96907811D01*
X215000000Y-96723705D01*
X215036621Y-96907811D01*
X215326012Y-97340917D01*
X215759118Y-97630308D01*
X216270000Y-97731929D01*
X216780882Y-97630308D01*
X217213988Y-97340917D01*
X217503379Y-96907811D01*
X217540000Y-96723705D01*
X217576621Y-96907811D01*
X217866012Y-97340917D01*
X218299118Y-97630308D01*
X218810000Y-97731929D01*
X219320882Y-97630308D01*
X219753988Y-97340917D01*
X220043379Y-96907811D01*
X220145000Y-96396929D01*
X220145000Y-108615206D01*
X219435573Y-108614587D01*
X218558669Y-108976916D01*
X217887172Y-109647242D01*
X217523313Y-110523513D01*
X217522485Y-111472325D01*
X217884814Y-112349229D01*
X218555140Y-113020726D01*
X219431411Y-113384585D01*
X220380223Y-113385413D01*
X221257127Y-113023084D01*
X221928624Y-112352758D01*
X222292483Y-111476487D01*
X222293311Y-110527675D01*
X222293311Y-120873000D01*
X214145908Y-120873000D01*
X214145908Y-111764539D01*
X214121856Y-111114540D01*
X213919387Y-110625736D01*
X213652532Y-110527073D01*
X213472927Y-110706678D01*
X213472927Y-110347468D01*
X213374264Y-110080613D01*
X212764539Y-109854092D01*
X212114540Y-109878144D01*
X211625736Y-110080613D01*
X211527073Y-110347468D01*
X212500000Y-111320395D01*
X213472927Y-110347468D01*
X213472927Y-110706678D01*
X212679605Y-111500000D01*
X213652532Y-112472927D01*
X213919387Y-112374264D01*
X214145908Y-111764539D01*
X214145908Y-120873000D01*
X214135000Y-120873000D01*
X214135000Y-117626310D01*
X214135000Y-117373691D01*
X214135000Y-115373691D01*
X214038327Y-115140302D01*
X213859699Y-114961673D01*
X213626310Y-114865000D01*
X213472927Y-114865000D01*
X213472927Y-112652532D01*
X212500000Y-111679605D01*
X212320395Y-111859210D01*
X212320395Y-111500000D01*
X211347468Y-110527073D01*
X211080613Y-110625736D01*
X210854092Y-111235461D01*
X210878144Y-111885460D01*
X211080613Y-112374264D01*
X211347468Y-112472927D01*
X212320395Y-111500000D01*
X212320395Y-111859210D01*
X211527073Y-112652532D01*
X211625736Y-112919387D01*
X212235461Y-113145908D01*
X212885460Y-113121856D01*
X213374264Y-112919387D01*
X213472927Y-112652532D01*
X213472927Y-114865000D01*
X213373691Y-114865000D01*
X211373691Y-114865000D01*
X211140302Y-114961673D01*
X210961673Y-115140301D01*
X210865000Y-115373690D01*
X210865000Y-115626309D01*
X210865000Y-117626309D01*
X210961673Y-117859698D01*
X211140301Y-118038327D01*
X211373690Y-118135000D01*
X211626309Y-118135000D01*
X213626309Y-118135000D01*
X213859698Y-118038327D01*
X214038327Y-117859699D01*
X214135000Y-117626310D01*
X214135000Y-120873000D01*
X206645000Y-120873000D01*
X206645000Y-119396929D01*
X206645000Y-118223071D01*
X206645000Y-111867000D01*
X206645000Y-111317000D01*
X206645000Y-111063000D01*
X206645000Y-110513000D01*
X206494778Y-110011785D01*
X206164185Y-109606210D01*
X206135000Y-109590485D01*
X206135000Y-104126310D01*
X206135000Y-103873691D01*
X206135000Y-101873691D01*
X206038327Y-101640302D01*
X205859699Y-101461673D01*
X205626310Y-101365000D01*
X205373691Y-101365000D01*
X203885413Y-101365000D01*
X203885413Y-92119777D01*
X203523084Y-91242873D01*
X202852758Y-90571376D01*
X201976487Y-90207517D01*
X201027675Y-90206689D01*
X200150771Y-90569018D01*
X199479274Y-91239344D01*
X199115415Y-92115615D01*
X199114587Y-93064427D01*
X199476916Y-93941331D01*
X200147242Y-94612828D01*
X201023513Y-94976687D01*
X201972325Y-94977515D01*
X202849229Y-94615186D01*
X203520726Y-93944860D01*
X203884585Y-93068589D01*
X203885413Y-92119777D01*
X203885413Y-101365000D01*
X203373691Y-101365000D01*
X203140302Y-101461673D01*
X202961673Y-101640301D01*
X202865000Y-101873690D01*
X202865000Y-102126309D01*
X202865000Y-104126309D01*
X202961673Y-104359698D01*
X203140301Y-104538327D01*
X203373690Y-104635000D01*
X203626309Y-104635000D01*
X205626309Y-104635000D01*
X205859698Y-104538327D01*
X206038327Y-104359699D01*
X206135000Y-104126310D01*
X206135000Y-109590485D01*
X205703550Y-109358020D01*
X205643329Y-109347284D01*
X205437000Y-109470626D01*
X205437000Y-111063000D01*
X206645000Y-111063000D01*
X206645000Y-111317000D01*
X205437000Y-111317000D01*
X205437000Y-112909374D01*
X205643329Y-113032716D01*
X205703550Y-113021980D01*
X206164185Y-112773790D01*
X206494778Y-112368215D01*
X206645000Y-111867000D01*
X206645000Y-118223071D01*
X206543379Y-117712189D01*
X206253988Y-117279083D01*
X205820882Y-116989692D01*
X205310000Y-116888071D01*
X205183000Y-116913332D01*
X205183000Y-112909374D01*
X205183000Y-111317000D01*
X205163000Y-111317000D01*
X205163000Y-111063000D01*
X205183000Y-111063000D01*
X205183000Y-109470626D01*
X204976671Y-109347284D01*
X204916450Y-109358020D01*
X204455815Y-109606210D01*
X204125222Y-110011785D01*
X204042371Y-110288216D01*
X204003379Y-110092189D01*
X203713988Y-109659083D01*
X203280882Y-109369692D01*
X202770000Y-109268071D01*
X202259118Y-109369692D01*
X201826012Y-109659083D01*
X201536621Y-110092189D01*
X201500000Y-110276294D01*
X201463379Y-110092189D01*
X201173988Y-109659083D01*
X201135284Y-109633221D01*
X201135284Y-102676205D01*
X200886894Y-102075057D01*
X200427363Y-101614722D01*
X199826648Y-101365284D01*
X199176205Y-101364716D01*
X198575057Y-101613106D01*
X198114722Y-102072637D01*
X197865284Y-102673352D01*
X197864716Y-103323795D01*
X198113106Y-103924943D01*
X198572637Y-104385278D01*
X199173352Y-104634716D01*
X199823795Y-104635284D01*
X200424943Y-104386894D01*
X200885278Y-103927363D01*
X201134716Y-103326648D01*
X201135284Y-102676205D01*
X201135284Y-109633221D01*
X200740882Y-109369692D01*
X200230000Y-109268071D01*
X199719118Y-109369692D01*
X199286012Y-109659083D01*
X198996621Y-110092189D01*
X198960000Y-110276294D01*
X198923379Y-110092189D01*
X198633988Y-109659083D01*
X198200882Y-109369692D01*
X197690000Y-109268071D01*
X197179118Y-109369692D01*
X196746012Y-109659083D01*
X196456621Y-110092189D01*
X196355000Y-110603071D01*
X196355000Y-111776929D01*
X196456621Y-112287811D01*
X196746012Y-112720917D01*
X197179118Y-113010308D01*
X197690000Y-113111929D01*
X198200882Y-113010308D01*
X198633988Y-112720917D01*
X198923379Y-112287811D01*
X198960000Y-112103705D01*
X198996621Y-112287811D01*
X199286012Y-112720917D01*
X199719118Y-113010308D01*
X200230000Y-113111929D01*
X200740882Y-113010308D01*
X201173988Y-112720917D01*
X201463379Y-112287811D01*
X201500000Y-112103705D01*
X201536621Y-112287811D01*
X201826012Y-112720917D01*
X202259118Y-113010308D01*
X202770000Y-113111929D01*
X203280882Y-113010308D01*
X203713988Y-112720917D01*
X204003379Y-112287811D01*
X204042371Y-112091783D01*
X204125222Y-112368215D01*
X204455815Y-112773790D01*
X204916450Y-113021980D01*
X204976671Y-113032716D01*
X205183000Y-112909374D01*
X205183000Y-116913332D01*
X204799118Y-116989692D01*
X204366012Y-117279083D01*
X204076621Y-117712189D01*
X204040000Y-117896294D01*
X204003379Y-117712189D01*
X203713988Y-117279083D01*
X203280882Y-116989692D01*
X202770000Y-116888071D01*
X202259118Y-116989692D01*
X201826012Y-117279083D01*
X201536621Y-117712189D01*
X201500000Y-117896294D01*
X201463379Y-117712189D01*
X201173988Y-117279083D01*
X200740882Y-116989692D01*
X200230000Y-116888071D01*
X199719118Y-116989692D01*
X199286012Y-117279083D01*
X198996621Y-117712189D01*
X198960000Y-117896294D01*
X198923379Y-117712189D01*
X198633988Y-117279083D01*
X198200882Y-116989692D01*
X197690000Y-116888071D01*
X197179118Y-116989692D01*
X196746012Y-117279083D01*
X196456621Y-117712189D01*
X196355000Y-118223071D01*
X196355000Y-119396929D01*
X196456621Y-119907811D01*
X196746012Y-120340917D01*
X197179118Y-120630308D01*
X197690000Y-120731929D01*
X198200882Y-120630308D01*
X198633988Y-120340917D01*
X198923379Y-119907811D01*
X198960000Y-119723705D01*
X198996621Y-119907811D01*
X199286012Y-120340917D01*
X199719118Y-120630308D01*
X200230000Y-120731929D01*
X200740882Y-120630308D01*
X201173988Y-120340917D01*
X201463379Y-119907811D01*
X201500000Y-119723705D01*
X201536621Y-119907811D01*
X201826012Y-120340917D01*
X202259118Y-120630308D01*
X202770000Y-120731929D01*
X203280882Y-120630308D01*
X203713988Y-120340917D01*
X204003379Y-119907811D01*
X204040000Y-119723705D01*
X204076621Y-119907811D01*
X204366012Y-120340917D01*
X204799118Y-120630308D01*
X205310000Y-120731929D01*
X205820882Y-120630308D01*
X206253988Y-120340917D01*
X206543379Y-119907811D01*
X206645000Y-119396929D01*
X206645000Y-120873000D01*
X196110380Y-120873000D01*
X194651000Y-119897873D01*
X194651000Y-103642310D01*
X194651000Y-103389691D01*
X194651000Y-101357691D01*
X194651000Y-92642310D01*
X194651000Y-92389691D01*
X194651000Y-90357691D01*
X194554327Y-90124302D01*
X194375699Y-89945673D01*
X194142310Y-89849000D01*
X193889691Y-89849000D01*
X191857691Y-89849000D01*
X191624302Y-89945673D01*
X191445673Y-90124301D01*
X191349000Y-90357690D01*
X191349000Y-90610309D01*
X191349000Y-92642309D01*
X191445673Y-92875698D01*
X191624301Y-93054327D01*
X191857690Y-93151000D01*
X192110309Y-93151000D01*
X194142309Y-93151000D01*
X194375698Y-93054327D01*
X194554327Y-92875699D01*
X194651000Y-92642310D01*
X194651000Y-101357691D01*
X194605983Y-101249010D01*
X194605983Y-96382946D01*
X194605983Y-95617054D01*
X194337188Y-95031621D01*
X193864818Y-94593615D01*
X193382944Y-94394025D01*
X193127000Y-94513164D01*
X193127000Y-95873000D01*
X194487367Y-95873000D01*
X194605983Y-95617054D01*
X194605983Y-96382946D01*
X194487367Y-96127000D01*
X193127000Y-96127000D01*
X193127000Y-97486836D01*
X193382944Y-97605975D01*
X193864818Y-97406385D01*
X194337188Y-96968379D01*
X194605983Y-96382946D01*
X194605983Y-101249010D01*
X194554327Y-101124302D01*
X194375699Y-100945673D01*
X194142310Y-100849000D01*
X193889691Y-100849000D01*
X192873000Y-100849000D01*
X192873000Y-97486836D01*
X192873000Y-96127000D01*
X192873000Y-95873000D01*
X192873000Y-94513164D01*
X192617056Y-94394025D01*
X192135182Y-94593615D01*
X191662812Y-95031621D01*
X191394017Y-95617054D01*
X191512633Y-95873000D01*
X192873000Y-95873000D01*
X192873000Y-96127000D01*
X191512633Y-96127000D01*
X191394017Y-96382946D01*
X191662812Y-96968379D01*
X192135182Y-97406385D01*
X192617056Y-97605975D01*
X192873000Y-97486836D01*
X192873000Y-100849000D01*
X191857691Y-100849000D01*
X191624302Y-100945673D01*
X191445673Y-101124301D01*
X191349000Y-101357690D01*
X191349000Y-101610309D01*
X191349000Y-103642309D01*
X191445673Y-103875698D01*
X191624301Y-104054327D01*
X191857690Y-104151000D01*
X192110309Y-104151000D01*
X194142309Y-104151000D01*
X194375698Y-104054327D01*
X194554327Y-103875699D01*
X194651000Y-103642310D01*
X194651000Y-119897873D01*
X194605983Y-119867794D01*
X194605983Y-107882946D01*
X194605983Y-107117054D01*
X194337188Y-106531621D01*
X193864818Y-106093615D01*
X193382944Y-105894025D01*
X193127000Y-106013164D01*
X193127000Y-107373000D01*
X194487367Y-107373000D01*
X194605983Y-107117054D01*
X194605983Y-107882946D01*
X194487367Y-107627000D01*
X193127000Y-107627000D01*
X193127000Y-108986836D01*
X193382944Y-109105975D01*
X193864818Y-108906385D01*
X194337188Y-108468379D01*
X194605983Y-107882946D01*
X194605983Y-119867794D01*
X193422788Y-119077209D01*
X192873000Y-118254392D01*
X192873000Y-108986836D01*
X192873000Y-107627000D01*
X192873000Y-107373000D01*
X192873000Y-106013164D01*
X192617056Y-105894025D01*
X192135182Y-106093615D01*
X191662812Y-106531621D01*
X191394017Y-107117054D01*
X191512633Y-107373000D01*
X192873000Y-107373000D01*
X192873000Y-107627000D01*
X191512633Y-107627000D01*
X191394017Y-107882946D01*
X191662812Y-108468379D01*
X192135182Y-108906385D01*
X192617056Y-109105975D01*
X192873000Y-108986836D01*
X192873000Y-118254392D01*
X191406460Y-116059559D01*
X191127000Y-114654615D01*
X191127000Y-85345384D01*
X191406460Y-83940440D01*
X193422788Y-80922790D01*
X196110380Y-79127000D01*
X228889619Y-79127000D01*
X231577209Y-80922788D01*
X233593539Y-83940440D01*
X233873000Y-85345384D01*
X233873000Y-114654615D01*
X233873000Y-114654615D01*
G37*
X233873000Y-114654615D02*
X233593539Y-116059559D01*
X231577209Y-119077211D01*
X231523611Y-119113024D01*
X231523611Y-115866320D01*
X231123301Y-114897496D01*
X230382711Y-114155612D01*
X229414587Y-113753612D01*
X228366320Y-113752697D01*
X227397496Y-114153007D01*
X226655612Y-114893597D01*
X226253612Y-115861721D01*
X226252697Y-116909988D01*
X226653007Y-117878812D01*
X227393597Y-118620696D01*
X228361721Y-119022696D01*
X229409988Y-119023611D01*
X230378812Y-118623301D01*
X231120696Y-117882711D01*
X231522696Y-116914587D01*
X231523611Y-115866320D01*
X231523611Y-119113024D01*
X228889619Y-120873000D01*
X225885413Y-120873000D01*
X225885413Y-106935573D01*
X225634774Y-106328979D01*
X225634774Y-95676306D01*
X225634774Y-80676306D01*
X225386462Y-80075345D01*
X224927073Y-79615154D01*
X224326547Y-79365794D01*
X223676306Y-79365226D01*
X223075345Y-79613538D01*
X222615154Y-80072927D01*
X222365794Y-80673453D01*
X222365226Y-81323694D01*
X222613538Y-81924655D01*
X223072927Y-82384846D01*
X223673453Y-82634206D01*
X224323694Y-82634774D01*
X224924655Y-82386462D01*
X225384846Y-81927073D01*
X225634206Y-81326547D01*
X225634774Y-80676306D01*
X225634774Y-95676306D01*
X225386462Y-95075345D01*
X224927073Y-94615154D01*
X224326547Y-94365794D01*
X223676306Y-94365226D01*
X223075345Y-94613538D01*
X222615154Y-95072927D01*
X222365794Y-95673453D01*
X222365226Y-96323694D01*
X222613538Y-96924655D01*
X223072927Y-97384846D01*
X223673453Y-97634206D01*
X224323694Y-97634774D01*
X224924655Y-97386462D01*
X225384846Y-96927073D01*
X225634206Y-96326547D01*
X225634774Y-95676306D01*
X225634774Y-106328979D01*
X225523084Y-106058669D01*
X224852758Y-105387172D01*
X223976487Y-105023313D01*
X223027675Y-105022485D01*
X222150771Y-105384814D01*
X221479274Y-106055140D01*
X221115415Y-106931411D01*
X221114587Y-107880223D01*
X221476916Y-108757127D01*
X222147242Y-109428624D01*
X223023513Y-109792483D01*
X223972325Y-109793311D01*
X224849229Y-109430982D01*
X225520726Y-108760656D01*
X225884585Y-107884385D01*
X225885413Y-106935573D01*
X225885413Y-120873000D01*
X222293311Y-120873000D01*
X222293311Y-110527675D01*
X221930982Y-109650771D01*
X221260656Y-108979274D01*
X220645908Y-108724008D01*
X220645908Y-82764539D01*
X220621856Y-82114540D01*
X220419387Y-81625736D01*
X220152532Y-81527073D01*
X219972927Y-81706678D01*
X219972927Y-81347468D01*
X219874264Y-81080613D01*
X219264539Y-80854092D01*
X218614540Y-80878144D01*
X218125736Y-81080613D01*
X218027073Y-81347468D01*
X219000000Y-82320395D01*
X219972927Y-81347468D01*
X219972927Y-81706678D01*
X219179605Y-82500000D01*
X220152532Y-83472927D01*
X220419387Y-83374264D01*
X220645908Y-82764539D01*
X220645908Y-108724008D01*
X220384385Y-108615415D01*
X220145000Y-108615206D01*
X220145000Y-96396929D01*
X220145000Y-95223071D01*
X220145000Y-88867000D01*
X220145000Y-88317000D01*
X220145000Y-88063000D01*
X220145000Y-87513000D01*
X219994778Y-87011785D01*
X219972927Y-86984977D01*
X219972927Y-83652532D01*
X219000000Y-82679605D01*
X218820395Y-82859210D01*
X218820395Y-82500000D01*
X217847468Y-81527073D01*
X217580613Y-81625736D01*
X217354092Y-82235461D01*
X217378144Y-82885460D01*
X217580613Y-83374264D01*
X217847468Y-83472927D01*
X218820395Y-82500000D01*
X218820395Y-82859210D01*
X218027073Y-83652532D01*
X218125736Y-83919387D01*
X218735461Y-84145908D01*
X219385460Y-84121856D01*
X219874264Y-83919387D01*
X219972927Y-83652532D01*
X219972927Y-86984977D01*
X219664185Y-86606210D01*
X219203550Y-86358020D01*
X219143329Y-86347284D01*
X218937000Y-86470626D01*
X218937000Y-88063000D01*
X220145000Y-88063000D01*
X220145000Y-88317000D01*
X218937000Y-88317000D01*
X218937000Y-89909374D01*
X219143329Y-90032716D01*
X219203550Y-90021980D01*
X219664185Y-89773790D01*
X219994778Y-89368215D01*
X220145000Y-88867000D01*
X220145000Y-95223071D01*
X220043379Y-94712189D01*
X219753988Y-94279083D01*
X219320882Y-93989692D01*
X218810000Y-93888071D01*
X218299118Y-93989692D01*
X217866012Y-94279083D01*
X217576621Y-94712189D01*
X217540000Y-94896294D01*
X217503379Y-94712189D01*
X217213988Y-94279083D01*
X217148042Y-94235020D01*
X217087633Y-93931325D01*
X216895790Y-93644210D01*
X216895786Y-93644207D01*
X213272507Y-90020927D01*
X213730000Y-90111929D01*
X214240882Y-90010308D01*
X214673988Y-89720917D01*
X214963379Y-89287811D01*
X215000000Y-89103705D01*
X215036621Y-89287811D01*
X215326012Y-89720917D01*
X215759118Y-90010308D01*
X216270000Y-90111929D01*
X216780882Y-90010308D01*
X217213988Y-89720917D01*
X217503379Y-89287811D01*
X217542371Y-89091783D01*
X217625222Y-89368215D01*
X217955815Y-89773790D01*
X218416450Y-90021980D01*
X218476671Y-90032716D01*
X218683000Y-89909374D01*
X218683000Y-88317000D01*
X218663000Y-88317000D01*
X218663000Y-88063000D01*
X218683000Y-88063000D01*
X218683000Y-86470626D01*
X218476671Y-86347284D01*
X218416450Y-86358020D01*
X217955815Y-86606210D01*
X217625222Y-87011785D01*
X217542371Y-87288216D01*
X217503379Y-87092189D01*
X217213988Y-86659083D01*
X216780882Y-86369692D01*
X216270000Y-86268071D01*
X215759118Y-86369692D01*
X215635000Y-86452624D01*
X215635000Y-83626310D01*
X215635000Y-83373691D01*
X215635000Y-81373691D01*
X215538327Y-81140302D01*
X215359699Y-80961673D01*
X215126310Y-80865000D01*
X214873691Y-80865000D01*
X212873691Y-80865000D01*
X212640302Y-80961673D01*
X212461673Y-81140301D01*
X212365000Y-81373690D01*
X212365000Y-81626309D01*
X212365000Y-83626309D01*
X212461673Y-83859698D01*
X212640301Y-84038327D01*
X212873690Y-84135000D01*
X213126309Y-84135000D01*
X215126309Y-84135000D01*
X215359698Y-84038327D01*
X215538327Y-83859699D01*
X215635000Y-83626310D01*
X215635000Y-86452624D01*
X215326012Y-86659083D01*
X215036621Y-87092189D01*
X215000000Y-87276294D01*
X214963379Y-87092189D01*
X214673988Y-86659083D01*
X214240882Y-86369692D01*
X213730000Y-86268071D01*
X213219118Y-86369692D01*
X212786012Y-86659083D01*
X212496621Y-87092189D01*
X212460000Y-87276294D01*
X212423379Y-87092189D01*
X212133988Y-86659083D01*
X211700882Y-86369692D01*
X211190000Y-86268071D01*
X210679118Y-86369692D01*
X210246012Y-86659083D01*
X209956621Y-87092189D01*
X209855000Y-87603071D01*
X209855000Y-88603420D01*
X204237636Y-82986056D01*
X203950521Y-82794213D01*
X203894330Y-82783035D01*
X203611846Y-82726845D01*
X203611840Y-82726846D01*
X198597245Y-82726846D01*
X198346993Y-82121188D01*
X197606403Y-81379304D01*
X196638279Y-80977304D01*
X195590012Y-80976389D01*
X194621188Y-81376699D01*
X193879304Y-82117289D01*
X193477304Y-83085413D01*
X193476389Y-84133680D01*
X193876699Y-85102504D01*
X194617289Y-85844388D01*
X195585413Y-86246388D01*
X196633680Y-86247303D01*
X197602504Y-85846993D01*
X198344388Y-85106403D01*
X198597498Y-84496846D01*
X203245266Y-84496846D01*
X205363656Y-86615236D01*
X204619777Y-86614587D01*
X203742873Y-86976916D01*
X203071376Y-87647242D01*
X202707517Y-88523513D01*
X202706689Y-89472325D01*
X203069018Y-90349229D01*
X203739344Y-91020726D01*
X204615615Y-91384585D01*
X205564427Y-91385413D01*
X206441331Y-91023084D01*
X207112828Y-90352758D01*
X207476687Y-89476487D01*
X207477339Y-88728918D01*
X209874207Y-91125786D01*
X209874210Y-91125790D01*
X209874211Y-91125790D01*
X210161325Y-91317633D01*
X210161326Y-91317633D01*
X210217515Y-91328810D01*
X210500000Y-91385001D01*
X210500000Y-91385000D01*
X210500005Y-91385000D01*
X212133420Y-91385000D01*
X215206446Y-94458025D01*
X215036621Y-94712189D01*
X215000000Y-94896294D01*
X214963379Y-94712189D01*
X214673988Y-94279083D01*
X214240882Y-93989692D01*
X213730000Y-93888071D01*
X213219118Y-93989692D01*
X212786012Y-94279083D01*
X212496621Y-94712189D01*
X212460000Y-94896294D01*
X212423379Y-94712189D01*
X212133988Y-94279083D01*
X211700882Y-93989692D01*
X211190000Y-93888071D01*
X210679118Y-93989692D01*
X210246012Y-94279083D01*
X209956621Y-94712189D01*
X209855000Y-95223071D01*
X209855000Y-96396929D01*
X209956621Y-96907811D01*
X210246012Y-97340917D01*
X210679118Y-97630308D01*
X211190000Y-97731929D01*
X211700882Y-97630308D01*
X212133988Y-97340917D01*
X212423379Y-96907811D01*
X212460000Y-96723705D01*
X212496621Y-96907811D01*
X212786012Y-97340917D01*
X213219118Y-97630308D01*
X213730000Y-97731929D01*
X214240882Y-97630308D01*
X214673988Y-97340917D01*
X214963379Y-96907811D01*
X215000000Y-96723705D01*
X215036621Y-96907811D01*
X215326012Y-97340917D01*
X215759118Y-97630308D01*
X216270000Y-97731929D01*
X216780882Y-97630308D01*
X217213988Y-97340917D01*
X217503379Y-96907811D01*
X217540000Y-96723705D01*
X217576621Y-96907811D01*
X217866012Y-97340917D01*
X218299118Y-97630308D01*
X218810000Y-97731929D01*
X219320882Y-97630308D01*
X219753988Y-97340917D01*
X220043379Y-96907811D01*
X220145000Y-96396929D01*
X220145000Y-108615206D01*
X219435573Y-108614587D01*
X218558669Y-108976916D01*
X217887172Y-109647242D01*
X217523313Y-110523513D01*
X217522485Y-111472325D01*
X217884814Y-112349229D01*
X218555140Y-113020726D01*
X219431411Y-113384585D01*
X220380223Y-113385413D01*
X221257127Y-113023084D01*
X221928624Y-112352758D01*
X222292483Y-111476487D01*
X222293311Y-110527675D01*
X222293311Y-120873000D01*
X214145908Y-120873000D01*
X214145908Y-111764539D01*
X214121856Y-111114540D01*
X213919387Y-110625736D01*
X213652532Y-110527073D01*
X213472927Y-110706678D01*
X213472927Y-110347468D01*
X213374264Y-110080613D01*
X212764539Y-109854092D01*
X212114540Y-109878144D01*
X211625736Y-110080613D01*
X211527073Y-110347468D01*
X212500000Y-111320395D01*
X213472927Y-110347468D01*
X213472927Y-110706678D01*
X212679605Y-111500000D01*
X213652532Y-112472927D01*
X213919387Y-112374264D01*
X214145908Y-111764539D01*
X214145908Y-120873000D01*
X214135000Y-120873000D01*
X214135000Y-117626310D01*
X214135000Y-117373691D01*
X214135000Y-115373691D01*
X214038327Y-115140302D01*
X213859699Y-114961673D01*
X213626310Y-114865000D01*
X213472927Y-114865000D01*
X213472927Y-112652532D01*
X212500000Y-111679605D01*
X212320395Y-111859210D01*
X212320395Y-111500000D01*
X211347468Y-110527073D01*
X211080613Y-110625736D01*
X210854092Y-111235461D01*
X210878144Y-111885460D01*
X211080613Y-112374264D01*
X211347468Y-112472927D01*
X212320395Y-111500000D01*
X212320395Y-111859210D01*
X211527073Y-112652532D01*
X211625736Y-112919387D01*
X212235461Y-113145908D01*
X212885460Y-113121856D01*
X213374264Y-112919387D01*
X213472927Y-112652532D01*
X213472927Y-114865000D01*
X213373691Y-114865000D01*
X211373691Y-114865000D01*
X211140302Y-114961673D01*
X210961673Y-115140301D01*
X210865000Y-115373690D01*
X210865000Y-115626309D01*
X210865000Y-117626309D01*
X210961673Y-117859698D01*
X211140301Y-118038327D01*
X211373690Y-118135000D01*
X211626309Y-118135000D01*
X213626309Y-118135000D01*
X213859698Y-118038327D01*
X214038327Y-117859699D01*
X214135000Y-117626310D01*
X214135000Y-120873000D01*
X206645000Y-120873000D01*
X206645000Y-119396929D01*
X206645000Y-118223071D01*
X206645000Y-111867000D01*
X206645000Y-111317000D01*
X206645000Y-111063000D01*
X206645000Y-110513000D01*
X206494778Y-110011785D01*
X206164185Y-109606210D01*
X206135000Y-109590485D01*
X206135000Y-104126310D01*
X206135000Y-103873691D01*
X206135000Y-101873691D01*
X206038327Y-101640302D01*
X205859699Y-101461673D01*
X205626310Y-101365000D01*
X205373691Y-101365000D01*
X203885413Y-101365000D01*
X203885413Y-92119777D01*
X203523084Y-91242873D01*
X202852758Y-90571376D01*
X201976487Y-90207517D01*
X201027675Y-90206689D01*
X200150771Y-90569018D01*
X199479274Y-91239344D01*
X199115415Y-92115615D01*
X199114587Y-93064427D01*
X199476916Y-93941331D01*
X200147242Y-94612828D01*
X201023513Y-94976687D01*
X201972325Y-94977515D01*
X202849229Y-94615186D01*
X203520726Y-93944860D01*
X203884585Y-93068589D01*
X203885413Y-92119777D01*
X203885413Y-101365000D01*
X203373691Y-101365000D01*
X203140302Y-101461673D01*
X202961673Y-101640301D01*
X202865000Y-101873690D01*
X202865000Y-102126309D01*
X202865000Y-104126309D01*
X202961673Y-104359698D01*
X203140301Y-104538327D01*
X203373690Y-104635000D01*
X203626309Y-104635000D01*
X205626309Y-104635000D01*
X205859698Y-104538327D01*
X206038327Y-104359699D01*
X206135000Y-104126310D01*
X206135000Y-109590485D01*
X205703550Y-109358020D01*
X205643329Y-109347284D01*
X205437000Y-109470626D01*
X205437000Y-111063000D01*
X206645000Y-111063000D01*
X206645000Y-111317000D01*
X205437000Y-111317000D01*
X205437000Y-112909374D01*
X205643329Y-113032716D01*
X205703550Y-113021980D01*
X206164185Y-112773790D01*
X206494778Y-112368215D01*
X206645000Y-111867000D01*
X206645000Y-118223071D01*
X206543379Y-117712189D01*
X206253988Y-117279083D01*
X205820882Y-116989692D01*
X205310000Y-116888071D01*
X205183000Y-116913332D01*
X205183000Y-112909374D01*
X205183000Y-111317000D01*
X205163000Y-111317000D01*
X205163000Y-111063000D01*
X205183000Y-111063000D01*
X205183000Y-109470626D01*
X204976671Y-109347284D01*
X204916450Y-109358020D01*
X204455815Y-109606210D01*
X204125222Y-110011785D01*
X204042371Y-110288216D01*
X204003379Y-110092189D01*
X203713988Y-109659083D01*
X203280882Y-109369692D01*
X202770000Y-109268071D01*
X202259118Y-109369692D01*
X201826012Y-109659083D01*
X201536621Y-110092189D01*
X201500000Y-110276294D01*
X201463379Y-110092189D01*
X201173988Y-109659083D01*
X201135284Y-109633221D01*
X201135284Y-102676205D01*
X200886894Y-102075057D01*
X200427363Y-101614722D01*
X199826648Y-101365284D01*
X199176205Y-101364716D01*
X198575057Y-101613106D01*
X198114722Y-102072637D01*
X197865284Y-102673352D01*
X197864716Y-103323795D01*
X198113106Y-103924943D01*
X198572637Y-104385278D01*
X199173352Y-104634716D01*
X199823795Y-104635284D01*
X200424943Y-104386894D01*
X200885278Y-103927363D01*
X201134716Y-103326648D01*
X201135284Y-102676205D01*
X201135284Y-109633221D01*
X200740882Y-109369692D01*
X200230000Y-109268071D01*
X199719118Y-109369692D01*
X199286012Y-109659083D01*
X198996621Y-110092189D01*
X198960000Y-110276294D01*
X198923379Y-110092189D01*
X198633988Y-109659083D01*
X198200882Y-109369692D01*
X197690000Y-109268071D01*
X197179118Y-109369692D01*
X196746012Y-109659083D01*
X196456621Y-110092189D01*
X196355000Y-110603071D01*
X196355000Y-111776929D01*
X196456621Y-112287811D01*
X196746012Y-112720917D01*
X197179118Y-113010308D01*
X197690000Y-113111929D01*
X198200882Y-113010308D01*
X198633988Y-112720917D01*
X198923379Y-112287811D01*
X198960000Y-112103705D01*
X198996621Y-112287811D01*
X199286012Y-112720917D01*
X199719118Y-113010308D01*
X200230000Y-113111929D01*
X200740882Y-113010308D01*
X201173988Y-112720917D01*
X201463379Y-112287811D01*
X201500000Y-112103705D01*
X201536621Y-112287811D01*
X201826012Y-112720917D01*
X202259118Y-113010308D01*
X202770000Y-113111929D01*
X203280882Y-113010308D01*
X203713988Y-112720917D01*
X204003379Y-112287811D01*
X204042371Y-112091783D01*
X204125222Y-112368215D01*
X204455815Y-112773790D01*
X204916450Y-113021980D01*
X204976671Y-113032716D01*
X205183000Y-112909374D01*
X205183000Y-116913332D01*
X204799118Y-116989692D01*
X204366012Y-117279083D01*
X204076621Y-117712189D01*
X204040000Y-117896294D01*
X204003379Y-117712189D01*
X203713988Y-117279083D01*
X203280882Y-116989692D01*
X202770000Y-116888071D01*
X202259118Y-116989692D01*
X201826012Y-117279083D01*
X201536621Y-117712189D01*
X201500000Y-117896294D01*
X201463379Y-117712189D01*
X201173988Y-117279083D01*
X200740882Y-116989692D01*
X200230000Y-116888071D01*
X199719118Y-116989692D01*
X199286012Y-117279083D01*
X198996621Y-117712189D01*
X198960000Y-117896294D01*
X198923379Y-117712189D01*
X198633988Y-117279083D01*
X198200882Y-116989692D01*
X197690000Y-116888071D01*
X197179118Y-116989692D01*
X196746012Y-117279083D01*
X196456621Y-117712189D01*
X196355000Y-118223071D01*
X196355000Y-119396929D01*
X196456621Y-119907811D01*
X196746012Y-120340917D01*
X197179118Y-120630308D01*
X197690000Y-120731929D01*
X198200882Y-120630308D01*
X198633988Y-120340917D01*
X198923379Y-119907811D01*
X198960000Y-119723705D01*
X198996621Y-119907811D01*
X199286012Y-120340917D01*
X199719118Y-120630308D01*
X200230000Y-120731929D01*
X200740882Y-120630308D01*
X201173988Y-120340917D01*
X201463379Y-119907811D01*
X201500000Y-119723705D01*
X201536621Y-119907811D01*
X201826012Y-120340917D01*
X202259118Y-120630308D01*
X202770000Y-120731929D01*
X203280882Y-120630308D01*
X203713988Y-120340917D01*
X204003379Y-119907811D01*
X204040000Y-119723705D01*
X204076621Y-119907811D01*
X204366012Y-120340917D01*
X204799118Y-120630308D01*
X205310000Y-120731929D01*
X205820882Y-120630308D01*
X206253988Y-120340917D01*
X206543379Y-119907811D01*
X206645000Y-119396929D01*
X206645000Y-120873000D01*
X196110380Y-120873000D01*
X194651000Y-119897873D01*
X194651000Y-103642310D01*
X194651000Y-103389691D01*
X194651000Y-101357691D01*
X194651000Y-92642310D01*
X194651000Y-92389691D01*
X194651000Y-90357691D01*
X194554327Y-90124302D01*
X194375699Y-89945673D01*
X194142310Y-89849000D01*
X193889691Y-89849000D01*
X191857691Y-89849000D01*
X191624302Y-89945673D01*
X191445673Y-90124301D01*
X191349000Y-90357690D01*
X191349000Y-90610309D01*
X191349000Y-92642309D01*
X191445673Y-92875698D01*
X191624301Y-93054327D01*
X191857690Y-93151000D01*
X192110309Y-93151000D01*
X194142309Y-93151000D01*
X194375698Y-93054327D01*
X194554327Y-92875699D01*
X194651000Y-92642310D01*
X194651000Y-101357691D01*
X194605983Y-101249010D01*
X194605983Y-96382946D01*
X194605983Y-95617054D01*
X194337188Y-95031621D01*
X193864818Y-94593615D01*
X193382944Y-94394025D01*
X193127000Y-94513164D01*
X193127000Y-95873000D01*
X194487367Y-95873000D01*
X194605983Y-95617054D01*
X194605983Y-96382946D01*
X194487367Y-96127000D01*
X193127000Y-96127000D01*
X193127000Y-97486836D01*
X193382944Y-97605975D01*
X193864818Y-97406385D01*
X194337188Y-96968379D01*
X194605983Y-96382946D01*
X194605983Y-101249010D01*
X194554327Y-101124302D01*
X194375699Y-100945673D01*
X194142310Y-100849000D01*
X193889691Y-100849000D01*
X192873000Y-100849000D01*
X192873000Y-97486836D01*
X192873000Y-96127000D01*
X192873000Y-95873000D01*
X192873000Y-94513164D01*
X192617056Y-94394025D01*
X192135182Y-94593615D01*
X191662812Y-95031621D01*
X191394017Y-95617054D01*
X191512633Y-95873000D01*
X192873000Y-95873000D01*
X192873000Y-96127000D01*
X191512633Y-96127000D01*
X191394017Y-96382946D01*
X191662812Y-96968379D01*
X192135182Y-97406385D01*
X192617056Y-97605975D01*
X192873000Y-97486836D01*
X192873000Y-100849000D01*
X191857691Y-100849000D01*
X191624302Y-100945673D01*
X191445673Y-101124301D01*
X191349000Y-101357690D01*
X191349000Y-101610309D01*
X191349000Y-103642309D01*
X191445673Y-103875698D01*
X191624301Y-104054327D01*
X191857690Y-104151000D01*
X192110309Y-104151000D01*
X194142309Y-104151000D01*
X194375698Y-104054327D01*
X194554327Y-103875699D01*
X194651000Y-103642310D01*
X194651000Y-119897873D01*
X194605983Y-119867794D01*
X194605983Y-107882946D01*
X194605983Y-107117054D01*
X194337188Y-106531621D01*
X193864818Y-106093615D01*
X193382944Y-105894025D01*
X193127000Y-106013164D01*
X193127000Y-107373000D01*
X194487367Y-107373000D01*
X194605983Y-107117054D01*
X194605983Y-107882946D01*
X194487367Y-107627000D01*
X193127000Y-107627000D01*
X193127000Y-108986836D01*
X193382944Y-109105975D01*
X193864818Y-108906385D01*
X194337188Y-108468379D01*
X194605983Y-107882946D01*
X194605983Y-119867794D01*
X193422788Y-119077209D01*
X192873000Y-118254392D01*
X192873000Y-108986836D01*
X192873000Y-107627000D01*
X192873000Y-107373000D01*
X192873000Y-106013164D01*
X192617056Y-105894025D01*
X192135182Y-106093615D01*
X191662812Y-106531621D01*
X191394017Y-107117054D01*
X191512633Y-107373000D01*
X192873000Y-107373000D01*
X192873000Y-107627000D01*
X191512633Y-107627000D01*
X191394017Y-107882946D01*
X191662812Y-108468379D01*
X192135182Y-108906385D01*
X192617056Y-109105975D01*
X192873000Y-108986836D01*
X192873000Y-118254392D01*
X191406460Y-116059559D01*
X191127000Y-114654615D01*
X191127000Y-85345384D01*
X191406460Y-83940440D01*
X193422788Y-80922790D01*
X196110380Y-79127000D01*
X228889619Y-79127000D01*
X231577209Y-80922788D01*
X233593539Y-83940440D01*
X233873000Y-85345384D01*
X233873000Y-114654615D01*
M02*
