M48
;DRILL file {KiCad (2017-12-02 revision 3109343)-master} date Fri Dec 29 01:32:39 2017
;FORMAT={-:-/ absolute / inch / decimal}
FMAT,2
INCH,TZ
T1C0.016
T2C0.028
T3C0.030
T4C0.031
T5C0.118
T6C0.169
%
G90
G05
M72
T1
X4.725Y-6.025
X4.775Y-6.55
X4.925Y-6.425
X5.45Y-5.65
X5.7Y-6.025
X6.1Y-5.325
X6.225Y-6.
X6.35Y-6.05
T2
X6.0201Y-6.25
X6.0537Y-6.1687
X6.0537Y-6.3313
X6.135Y-6.135
X6.135Y-6.365
X6.2163Y-6.1687
X6.2163Y-6.3313
X6.25Y-6.25
T3
X5.075Y-6.05
X5.075Y-6.55
X5.3Y-5.25
X5.4Y-5.25
X5.5Y-5.25
X5.6Y-5.25
X5.7Y-5.25
X5.9Y-5.65
X6.4Y-5.65
X5.175Y-5.325
X5.175Y-5.825
X4.975Y-6.05
X4.975Y-6.55
X5.3Y-6.4
X5.4Y-6.4
X5.5Y-6.4
X5.6Y-6.4
X5.7Y-6.4
X4.875Y-6.05
X4.875Y-6.55
X5.3Y-5.975
X5.8Y-5.975
X5.25Y-5.05
X5.75Y-5.05
X5.075Y-5.325
X5.075Y-5.825
X5.3Y-6.075
X5.8Y-6.075
X5.9Y-5.55
X6.4Y-5.55
X5.9Y-5.75
X6.4Y-5.75
X5.175Y-6.05
X5.175Y-6.55
T4
X6.125Y-5.4
X6.225Y-5.4
X6.325Y-5.4
X5.35Y-5.575
X5.35Y-5.875
X5.45Y-5.575
X5.45Y-5.875
X5.55Y-5.575
X5.55Y-5.875
X5.65Y-5.575
X5.65Y-5.875
X6.025Y-5.075
X6.425Y-5.075
X4.65Y-5.3
X4.65Y-5.5
X4.65Y-5.675
X4.65Y-5.875
X6.025Y-5.175
X6.425Y-5.175
X4.65Y-6.175
X4.65Y-6.375
T5
X5.3Y-5.4
X5.4Y-5.4
X5.5Y-5.4
X5.6Y-5.4
X5.7Y-5.4
X5.3Y-6.25
X5.4Y-6.25
X5.5Y-6.25
X5.6Y-6.25
X5.7Y-6.25
T6
X6.005Y-5.945
X6.425Y-6.55
X4.775Y-5.125
T0
M30
