G04 #@! TF.FileFunction,Legend,Top*
%FSLAX46Y46*%
G04 Gerber Fmt 4.6, Leading zero omitted, Abs format (unit mm)*
G04 Created by KiCad (PCBNEW (2015-11-24 BZR 6329)-product) date Fri 27 Nov 2015 08:33:27 AM EST*
%MOMM*%
G01*
G04 APERTURE LIST*
%ADD10C,0.100000*%
%ADD11C,0.150000*%
G04 APERTURE END LIST*
D10*
D11*
X131064000Y-76835000D02*
X153924000Y-76835000D01*
X153924000Y-76835000D02*
X153924000Y-74295000D01*
X153924000Y-74295000D02*
X131064000Y-74295000D01*
X128244000Y-77115000D02*
X129794000Y-77115000D01*
X131064000Y-76835000D02*
X131064000Y-74295000D01*
X129794000Y-74015000D02*
X128244000Y-74015000D01*
X128244000Y-74015000D02*
X128244000Y-77115000D01*
X157988000Y-76835000D02*
X175768000Y-76835000D01*
X175768000Y-76835000D02*
X175768000Y-74295000D01*
X175768000Y-74295000D02*
X157988000Y-74295000D01*
X155168000Y-77115000D02*
X156718000Y-77115000D01*
X157988000Y-76835000D02*
X157988000Y-74295000D01*
X156718000Y-74015000D02*
X155168000Y-74015000D01*
X155168000Y-74015000D02*
X155168000Y-77115000D01*
X131018000Y-71635000D02*
X153878000Y-71635000D01*
X153878000Y-71635000D02*
X153878000Y-69095000D01*
X153878000Y-69095000D02*
X131018000Y-69095000D01*
X128198000Y-71915000D02*
X129748000Y-71915000D01*
X131018000Y-71635000D02*
X131018000Y-69095000D01*
X129748000Y-68815000D02*
X128198000Y-68815000D01*
X128198000Y-68815000D02*
X128198000Y-71915000D01*
X158018000Y-71635000D02*
X175798000Y-71635000D01*
X175798000Y-71635000D02*
X175798000Y-69095000D01*
X175798000Y-69095000D02*
X158018000Y-69095000D01*
X155198000Y-71915000D02*
X156748000Y-71915000D01*
X158018000Y-71635000D02*
X158018000Y-69095000D01*
X156748000Y-68815000D02*
X155198000Y-68815000D01*
X155198000Y-68815000D02*
X155198000Y-71915000D01*
M02*
