M48
;DRILL file {KiCad (2015-11-24 BZR 6329)-product} date Fri 27 Nov 2015 08:33:30 AM EST
;FORMAT={-:-/ absolute / inch / decimal}
FMAT,2
INCH,TZ
T1C0.040
%
G90
G05
M72
T1
X5.1082Y-2.7703
X5.11Y-2.975
X5.2082Y-2.7703
X5.21Y-2.975
X5.3082Y-2.7703
X5.31Y-2.975
X5.4082Y-2.7703
X5.41Y-2.975
X5.5082Y-2.7703
X5.51Y-2.975
X5.6082Y-2.7703
X5.61Y-2.975
X5.7082Y-2.7703
X5.71Y-2.975
X5.8082Y-2.7703
X5.81Y-2.975
X5.9082Y-2.7703
X5.91Y-2.975
X6.0082Y-2.7703
X6.01Y-2.975
X6.17Y-2.975
X6.1712Y-2.7703
X6.27Y-2.975
X6.2712Y-2.7703
X6.37Y-2.975
X6.3712Y-2.7703
X6.47Y-2.975
X6.4712Y-2.7703
X6.57Y-2.975
X6.5712Y-2.7703
X6.67Y-2.975
X6.6712Y-2.7703
X6.77Y-2.975
X6.7712Y-2.7703
X6.87Y-2.975
X6.8712Y-2.7703
T0
M30
