M48
;DRILL file {kicad (2014-11-17 BZR 5289)-product} date Sat 15 Aug 2015 05:20:09 PM EDT
;FORMAT={-:-/ absolute / inch / decimal}
FMAT,2
INCH,TZ
T1C0.025
T2C0.031
T3C0.032
T4C0.035
T5C0.039
T6C0.040
T7C0.059
%
G90
G05
M72
T1
X4.5571Y-3.4646
X4.7146Y-3.6713
X4.7736Y-3.7402
X4.9213Y-3.7894
X5.187Y-3.4646
X5.4331Y-3.4055
T2
X4.8524Y-4.1437
X4.8819Y-4.3602
X4.9524Y-4.0437
X4.9819Y-4.2602
X5.0524Y-4.1437
X5.0819Y-4.3602
X5.1772Y-4.3602
X5.2067Y-4.1437
X5.2772Y-4.2602
X5.3067Y-4.0437
X5.3772Y-4.3602
X5.4067Y-4.1437
X5.5315Y-4.2815
X5.5315Y-4.3799
T3
X4.7122Y-3.4252
X4.7572Y-3.3202
X4.7572Y-3.5302
X4.8622Y-3.2752
X4.8622Y-3.5752
X4.9672Y-3.3202
X4.9672Y-3.5302
X5.0122Y-3.4252
T4
X4.3898Y-3.7303
X4.4291Y-3.0709
X4.5866Y-3.7303
X4.626Y-3.0709
X5.3051Y-3.3071
X5.3051Y-3.5039
X5.3051Y-3.6319
X5.3051Y-3.8287
T5
X4.7114Y-3.8287
X5.1114Y-3.8287
X5.2559Y-2.7839
X5.2559Y-2.8839
T6
X4.6244Y-2.8346
X4.7244Y-2.8346
X4.8705Y-2.8346
X4.9705Y-2.8346
X5.7283Y-4.2799
X5.7283Y-4.3799
T7
X4.4587Y-4.0157
X4.6555Y-4.0157
X4.6555Y-4.2913
X4.6555Y-4.5276
T0
M30
