G04 #@! TF.FileFunction,Legend,Bot*
%FSLAX46Y46*%
G04 Gerber Fmt 4.6, Leading zero omitted, Abs format (unit mm)*
G04 Created by KiCad (PCBNEW (2015-11-24 BZR 6329)-product) date Sat 24 Sep 2016 10:27:19 AM EDT*
%MOMM*%
G01*
G04 APERTURE LIST*
%ADD10C,0.100000*%
%ADD11C,0.150000*%
G04 APERTURE END LIST*
D10*
D11*
X175900000Y-96250000D02*
X174900000Y-96250000D01*
X174900000Y-94550000D02*
X175900000Y-94550000D01*
X175800000Y-100250000D02*
X174800000Y-100250000D01*
X174800000Y-98550000D02*
X175800000Y-98550000D01*
X181400000Y-92550000D02*
X182400000Y-92550000D01*
X182400000Y-94250000D02*
X181400000Y-94250000D01*
X168250000Y-104100000D02*
X168250000Y-103100000D01*
X169950000Y-103100000D02*
X169950000Y-104100000D01*
X183150000Y-103800000D02*
X183150000Y-102800000D01*
X184850000Y-102800000D02*
X184850000Y-103800000D01*
X170200000Y-88250000D02*
X171200000Y-88250000D01*
X171200000Y-89950000D02*
X170200000Y-89950000D01*
X173800000Y-102550000D02*
X174800000Y-102550000D01*
X174800000Y-104250000D02*
X173800000Y-104250000D01*
X169950000Y-97800000D02*
X169950000Y-98800000D01*
X168250000Y-98800000D02*
X168250000Y-97800000D01*
X175466666Y-94157143D02*
X175514285Y-94204762D01*
X175657142Y-94252381D01*
X175752380Y-94252381D01*
X175895238Y-94204762D01*
X175990476Y-94109524D01*
X176038095Y-94014286D01*
X176085714Y-93823810D01*
X176085714Y-93680952D01*
X176038095Y-93490476D01*
X175990476Y-93395238D01*
X175895238Y-93300000D01*
X175752380Y-93252381D01*
X175657142Y-93252381D01*
X175514285Y-93300000D01*
X175466666Y-93347619D01*
X174895238Y-93680952D02*
X174990476Y-93633333D01*
X175038095Y-93585714D01*
X175085714Y-93490476D01*
X175085714Y-93442857D01*
X175038095Y-93347619D01*
X174990476Y-93300000D01*
X174895238Y-93252381D01*
X174704761Y-93252381D01*
X174609523Y-93300000D01*
X174561904Y-93347619D01*
X174514285Y-93442857D01*
X174514285Y-93490476D01*
X174561904Y-93585714D01*
X174609523Y-93633333D01*
X174704761Y-93680952D01*
X174895238Y-93680952D01*
X174990476Y-93728571D01*
X175038095Y-93776190D01*
X175085714Y-93871429D01*
X175085714Y-94061905D01*
X175038095Y-94157143D01*
X174990476Y-94204762D01*
X174895238Y-94252381D01*
X174704761Y-94252381D01*
X174609523Y-94204762D01*
X174561904Y-94157143D01*
X174514285Y-94061905D01*
X174514285Y-93871429D01*
X174561904Y-93776190D01*
X174609523Y-93728571D01*
X174704761Y-93680952D01*
X174742857Y-105557143D02*
X174790476Y-105604762D01*
X174933333Y-105652381D01*
X175028571Y-105652381D01*
X175171429Y-105604762D01*
X175266667Y-105509524D01*
X175314286Y-105414286D01*
X175361905Y-105223810D01*
X175361905Y-105080952D01*
X175314286Y-104890476D01*
X175266667Y-104795238D01*
X175171429Y-104700000D01*
X175028571Y-104652381D01*
X174933333Y-104652381D01*
X174790476Y-104700000D01*
X174742857Y-104747619D01*
X173790476Y-105652381D02*
X174361905Y-105652381D01*
X174076191Y-105652381D02*
X174076191Y-104652381D01*
X174171429Y-104795238D01*
X174266667Y-104890476D01*
X174361905Y-104938095D01*
X173171429Y-104652381D02*
X173076190Y-104652381D01*
X172980952Y-104700000D01*
X172933333Y-104747619D01*
X172885714Y-104842857D01*
X172838095Y-105033333D01*
X172838095Y-105271429D01*
X172885714Y-105461905D01*
X172933333Y-105557143D01*
X172980952Y-105604762D01*
X173076190Y-105652381D01*
X173171429Y-105652381D01*
X173266667Y-105604762D01*
X173314286Y-105557143D01*
X173361905Y-105461905D01*
X173409524Y-105271429D01*
X173409524Y-105033333D01*
X173361905Y-104842857D01*
X173314286Y-104747619D01*
X173266667Y-104700000D01*
X173171429Y-104652381D01*
X182542857Y-95657143D02*
X182590476Y-95704762D01*
X182733333Y-95752381D01*
X182828571Y-95752381D01*
X182971429Y-95704762D01*
X183066667Y-95609524D01*
X183114286Y-95514286D01*
X183161905Y-95323810D01*
X183161905Y-95180952D01*
X183114286Y-94990476D01*
X183066667Y-94895238D01*
X182971429Y-94800000D01*
X182828571Y-94752381D01*
X182733333Y-94752381D01*
X182590476Y-94800000D01*
X182542857Y-94847619D01*
X181590476Y-95752381D02*
X182161905Y-95752381D01*
X181876191Y-95752381D02*
X181876191Y-94752381D01*
X181971429Y-94895238D01*
X182066667Y-94990476D01*
X182161905Y-95038095D01*
X181209524Y-94847619D02*
X181161905Y-94800000D01*
X181066667Y-94752381D01*
X180828571Y-94752381D01*
X180733333Y-94800000D01*
X180685714Y-94847619D01*
X180638095Y-94942857D01*
X180638095Y-95038095D01*
X180685714Y-95180952D01*
X181257143Y-95752381D01*
X180638095Y-95752381D01*
X169357143Y-106757143D02*
X169404762Y-106709524D01*
X169452381Y-106566667D01*
X169452381Y-106471429D01*
X169404762Y-106328571D01*
X169309524Y-106233333D01*
X169214286Y-106185714D01*
X169023810Y-106138095D01*
X168880952Y-106138095D01*
X168690476Y-106185714D01*
X168595238Y-106233333D01*
X168500000Y-106328571D01*
X168452381Y-106471429D01*
X168452381Y-106566667D01*
X168500000Y-106709524D01*
X168547619Y-106757143D01*
X169452381Y-107709524D02*
X169452381Y-107138095D01*
X169452381Y-107423809D02*
X168452381Y-107423809D01*
X168595238Y-107328571D01*
X168690476Y-107233333D01*
X168738095Y-107138095D01*
X168785714Y-108566667D02*
X169452381Y-108566667D01*
X168404762Y-108328571D02*
X169119048Y-108090476D01*
X169119048Y-108709524D01*
X182257143Y-102657143D02*
X182304762Y-102609524D01*
X182352381Y-102466667D01*
X182352381Y-102371429D01*
X182304762Y-102228571D01*
X182209524Y-102133333D01*
X182114286Y-102085714D01*
X181923810Y-102038095D01*
X181780952Y-102038095D01*
X181590476Y-102085714D01*
X181495238Y-102133333D01*
X181400000Y-102228571D01*
X181352381Y-102371429D01*
X181352381Y-102466667D01*
X181400000Y-102609524D01*
X181447619Y-102657143D01*
X182352381Y-103609524D02*
X182352381Y-103038095D01*
X182352381Y-103323809D02*
X181352381Y-103323809D01*
X181495238Y-103228571D01*
X181590476Y-103133333D01*
X181638095Y-103038095D01*
X181352381Y-104514286D02*
X181352381Y-104038095D01*
X181828571Y-103990476D01*
X181780952Y-104038095D01*
X181733333Y-104133333D01*
X181733333Y-104371429D01*
X181780952Y-104466667D01*
X181828571Y-104514286D01*
X181923810Y-104561905D01*
X182161905Y-104561905D01*
X182257143Y-104514286D01*
X182304762Y-104466667D01*
X182352381Y-104371429D01*
X182352381Y-104133333D01*
X182304762Y-104038095D01*
X182257143Y-103990476D01*
X170442857Y-91157143D02*
X170490476Y-91204762D01*
X170633333Y-91252381D01*
X170728571Y-91252381D01*
X170871429Y-91204762D01*
X170966667Y-91109524D01*
X171014286Y-91014286D01*
X171061905Y-90823810D01*
X171061905Y-90680952D01*
X171014286Y-90490476D01*
X170966667Y-90395238D01*
X170871429Y-90300000D01*
X170728571Y-90252381D01*
X170633333Y-90252381D01*
X170490476Y-90300000D01*
X170442857Y-90347619D01*
X169490476Y-91252381D02*
X170061905Y-91252381D01*
X169776191Y-91252381D02*
X169776191Y-90252381D01*
X169871429Y-90395238D01*
X169966667Y-90490476D01*
X170061905Y-90538095D01*
X168633333Y-90252381D02*
X168823810Y-90252381D01*
X168919048Y-90300000D01*
X168966667Y-90347619D01*
X169061905Y-90490476D01*
X169109524Y-90680952D01*
X169109524Y-91061905D01*
X169061905Y-91157143D01*
X169014286Y-91204762D01*
X168919048Y-91252381D01*
X168728571Y-91252381D01*
X168633333Y-91204762D01*
X168585714Y-91157143D01*
X168538095Y-91061905D01*
X168538095Y-90823810D01*
X168585714Y-90728571D01*
X168633333Y-90680952D01*
X168728571Y-90633333D01*
X168919048Y-90633333D01*
X169014286Y-90680952D01*
X169061905Y-90728571D01*
X169109524Y-90823810D01*
X178966666Y-100052381D02*
X179300000Y-99576190D01*
X179538095Y-100052381D02*
X179538095Y-99052381D01*
X179157142Y-99052381D01*
X179061904Y-99100000D01*
X179014285Y-99147619D01*
X178966666Y-99242857D01*
X178966666Y-99385714D01*
X179014285Y-99480952D01*
X179061904Y-99528571D01*
X179157142Y-99576190D01*
X179538095Y-99576190D01*
X178061904Y-99052381D02*
X178538095Y-99052381D01*
X178585714Y-99528571D01*
X178538095Y-99480952D01*
X178442857Y-99433333D01*
X178204761Y-99433333D01*
X178109523Y-99480952D01*
X178061904Y-99528571D01*
X178014285Y-99623810D01*
X178014285Y-99861905D01*
X178061904Y-99957143D01*
X178109523Y-100004762D01*
X178204761Y-100052381D01*
X178442857Y-100052381D01*
X178538095Y-100004762D01*
X178585714Y-99957143D01*
X167952381Y-97733334D02*
X167476190Y-97400000D01*
X167952381Y-97161905D02*
X166952381Y-97161905D01*
X166952381Y-97542858D01*
X167000000Y-97638096D01*
X167047619Y-97685715D01*
X167142857Y-97733334D01*
X167285714Y-97733334D01*
X167380952Y-97685715D01*
X167428571Y-97638096D01*
X167476190Y-97542858D01*
X167476190Y-97161905D01*
X166952381Y-98590477D02*
X166952381Y-98400000D01*
X167000000Y-98304762D01*
X167047619Y-98257143D01*
X167190476Y-98161905D01*
X167380952Y-98114286D01*
X167761905Y-98114286D01*
X167857143Y-98161905D01*
X167904762Y-98209524D01*
X167952381Y-98304762D01*
X167952381Y-98495239D01*
X167904762Y-98590477D01*
X167857143Y-98638096D01*
X167761905Y-98685715D01*
X167523810Y-98685715D01*
X167428571Y-98638096D01*
X167380952Y-98590477D01*
X167333333Y-98495239D01*
X167333333Y-98304762D01*
X167380952Y-98209524D01*
X167428571Y-98161905D01*
X167523810Y-98114286D01*
M02*
