G04 #@! TF.FileFunction,Soldermask,Top*
%FSLAX46Y46*%
G04 Gerber Fmt 4.6, Leading zero omitted, Abs format (unit mm)*
G04 Created by KiCad (PCBNEW (2015-11-24 BZR 6329)-product) date Fri 07 Oct 2016 12:30:40 AM EDT*
%MOMM*%
G01*
G04 APERTURE LIST*
%ADD10C,0.100000*%
%ADD11C,1.400000*%
%ADD12C,3.500000*%
%ADD13R,1.900000X1.650000*%
%ADD14R,1.650000X1.900000*%
%ADD15C,1.901140*%
%ADD16C,3.399740*%
%ADD17C,1.600000*%
%ADD18R,4.057600X2.432000*%
%ADD19R,1.416000X2.432000*%
%ADD20R,1.900000X1.000000*%
%ADD21R,1.000000X1.900000*%
%ADD22C,1.822400*%
%ADD23R,2.000200X3.000960*%
%ADD24R,1.000000X1.950000*%
G04 APERTURE END LIST*
D10*
D11*
X193900000Y-106700000D03*
X194400000Y-109200000D03*
X194900000Y-111700000D03*
X195400000Y-106700000D03*
X195900000Y-109200000D03*
X196400000Y-111700000D03*
X196900000Y-106700000D03*
X197400000Y-109200000D03*
X197900000Y-111700000D03*
X198400000Y-106700000D03*
X198900000Y-109200000D03*
X199400000Y-111700000D03*
X199900000Y-106700000D03*
X200400000Y-109200000D03*
X200900000Y-111700000D03*
X201400000Y-106700000D03*
X201900000Y-109200000D03*
X202400000Y-111700000D03*
X202900000Y-106700000D03*
X203400000Y-109200000D03*
X203900000Y-111700000D03*
X204400000Y-106700000D03*
X204900000Y-109200000D03*
X205400000Y-111700000D03*
X205400000Y-92700000D03*
X204900000Y-90200000D03*
X204400000Y-87700000D03*
X203900000Y-92700000D03*
X203400000Y-90200000D03*
X202900000Y-87700000D03*
X202400000Y-92700000D03*
X201900000Y-90200000D03*
X201400000Y-87700000D03*
X200900000Y-92700000D03*
X200400000Y-90200000D03*
X199900000Y-87700000D03*
X199400000Y-92700000D03*
X198900000Y-90200000D03*
X198400000Y-87700000D03*
X197900000Y-92700000D03*
X197400000Y-90200000D03*
X196900000Y-87700000D03*
X196400000Y-92700000D03*
X195900000Y-90200000D03*
X195400000Y-87700000D03*
X194900000Y-92700000D03*
X194400000Y-90200000D03*
X193900000Y-87700000D03*
D12*
X191400000Y-90700000D03*
X207900000Y-109200000D03*
D13*
X197250000Y-118100000D03*
X199750000Y-118100000D03*
X172994000Y-76740000D03*
X175494000Y-76740000D03*
D14*
X161864000Y-115598000D03*
X161864000Y-118098000D03*
X171600000Y-115550000D03*
X171600000Y-118050000D03*
D13*
X164150000Y-78600000D03*
X161650000Y-78600000D03*
X182050000Y-88100000D03*
X184550000Y-88100000D03*
X164250000Y-92800000D03*
X161750000Y-92800000D03*
X174450000Y-109100000D03*
X171950000Y-109100000D03*
X182250000Y-109100000D03*
X184750000Y-109100000D03*
X197250000Y-115800000D03*
X199750000Y-115800000D03*
D14*
X173900000Y-118050000D03*
X173900000Y-115550000D03*
X181700000Y-117950000D03*
X181700000Y-115450000D03*
D15*
X164700000Y-99950000D03*
X164700000Y-102450000D03*
X164700000Y-104460000D03*
X164700000Y-106950000D03*
D16*
X162600000Y-97600000D03*
X162600000Y-109300000D03*
D17*
X162600000Y-101200000D03*
X162600000Y-105700000D03*
D13*
X178542000Y-87154000D03*
X176042000Y-87154000D03*
D14*
X170180000Y-79768000D03*
X170180000Y-77268000D03*
D13*
X169438000Y-87154000D03*
X171938000Y-87154000D03*
D14*
X169418000Y-85102000D03*
X169418000Y-82602000D03*
D18*
X166690000Y-122182000D03*
D19*
X166690000Y-115578000D03*
X164404000Y-115578000D03*
X168976000Y-115578000D03*
D20*
X170600000Y-93000000D03*
X170600000Y-93800000D03*
X170600000Y-94600000D03*
X170600000Y-95400000D03*
X170600000Y-96200000D03*
X170600000Y-97000000D03*
X170600000Y-97800000D03*
X170600000Y-98600000D03*
X170600000Y-99400000D03*
X170600000Y-100200000D03*
X170600000Y-101000000D03*
X170600000Y-101800000D03*
X170600000Y-102600000D03*
X170600000Y-103400000D03*
X170600000Y-104200000D03*
X170600000Y-105000000D03*
D21*
X172500000Y-106900000D03*
X173300000Y-106900000D03*
X174100000Y-106900000D03*
X174900000Y-106900000D03*
X175700000Y-106900000D03*
X176500000Y-106900000D03*
X177300000Y-106900000D03*
X178100000Y-106900000D03*
X178900000Y-106900000D03*
X179700000Y-106900000D03*
X180500000Y-106900000D03*
X181300000Y-106900000D03*
X182100000Y-106900000D03*
X182900000Y-106900000D03*
X183700000Y-106900000D03*
X184500000Y-106900000D03*
D20*
X186400000Y-105000000D03*
X186400000Y-104200000D03*
X186400000Y-103400000D03*
X186400000Y-102600000D03*
X186400000Y-101800000D03*
X186400000Y-101000000D03*
X186400000Y-100200000D03*
X186400000Y-99400000D03*
X186400000Y-98600000D03*
X186400000Y-97800000D03*
X186400000Y-97000000D03*
X186400000Y-96200000D03*
X186400000Y-95400000D03*
X186400000Y-94600000D03*
X186400000Y-93800000D03*
X186400000Y-93000000D03*
D21*
X184500000Y-91100000D03*
X183700000Y-91100000D03*
X182900000Y-91100000D03*
X182100000Y-91100000D03*
X181300000Y-91100000D03*
X180500000Y-91100000D03*
X179700000Y-91100000D03*
X178900000Y-91100000D03*
X178100000Y-91100000D03*
X177300000Y-91100000D03*
X176500000Y-91100000D03*
X175700000Y-91100000D03*
X174900000Y-91100000D03*
X174100000Y-91100000D03*
X173300000Y-91100000D03*
X172500000Y-91100000D03*
D22*
X164200000Y-83100000D03*
X164200000Y-88180000D03*
D23*
X185400000Y-115899140D03*
X185400000Y-119500860D03*
X177600000Y-115999140D03*
X177600000Y-119600860D03*
D24*
X172339000Y-84774000D03*
X173609000Y-84774000D03*
X174879000Y-84774000D03*
X176149000Y-84774000D03*
X176149000Y-79374000D03*
X174879000Y-79374000D03*
X173609000Y-79374000D03*
X172339000Y-79374000D03*
M02*
