G04 #@! TF.FileFunction,Copper,L2,Bot,Signal*
%FSLAX46Y46*%
G04 Gerber Fmt 4.6, Leading zero omitted, Abs format (unit mm)*
G04 Created by KiCad (PCBNEW (2015-11-24 BZR 6329)-product) date Fri 07 Oct 2016 12:30:40 AM EDT*
%MOMM*%
G01*
G04 APERTURE LIST*
%ADD10C,0.100000*%
%ADD11C,1.000000*%
%ADD12C,3.100000*%
%ADD13R,1.500000X1.250000*%
%ADD14R,1.250000X1.500000*%
%ADD15C,1.501140*%
%ADD16C,2.999740*%
%ADD17C,1.200000*%
%ADD18C,1.422400*%
%ADD19C,0.600000*%
%ADD20C,0.300000*%
%ADD21C,0.250000*%
%ADD22C,0.254000*%
G04 APERTURE END LIST*
D10*
D11*
X193900000Y-106700000D03*
X194400000Y-109200000D03*
X194900000Y-111700000D03*
X195400000Y-106700000D03*
X195900000Y-109200000D03*
X196400000Y-111700000D03*
X196900000Y-106700000D03*
X197400000Y-109200000D03*
X197900000Y-111700000D03*
X198400000Y-106700000D03*
X198900000Y-109200000D03*
X199400000Y-111700000D03*
X199900000Y-106700000D03*
X200400000Y-109200000D03*
X200900000Y-111700000D03*
X201400000Y-106700000D03*
X201900000Y-109200000D03*
X202400000Y-111700000D03*
X202900000Y-106700000D03*
X203400000Y-109200000D03*
X203900000Y-111700000D03*
X204400000Y-106700000D03*
X204900000Y-109200000D03*
X205400000Y-111700000D03*
X205400000Y-92700000D03*
X204900000Y-90200000D03*
X204400000Y-87700000D03*
X203900000Y-92700000D03*
X203400000Y-90200000D03*
X202900000Y-87700000D03*
X202400000Y-92700000D03*
X201900000Y-90200000D03*
X201400000Y-87700000D03*
X200900000Y-92700000D03*
X200400000Y-90200000D03*
X199900000Y-87700000D03*
X199400000Y-92700000D03*
X198900000Y-90200000D03*
X198400000Y-87700000D03*
X197900000Y-92700000D03*
X197400000Y-90200000D03*
X196900000Y-87700000D03*
X196400000Y-92700000D03*
X195900000Y-90200000D03*
X195400000Y-87700000D03*
X194900000Y-92700000D03*
X194400000Y-90200000D03*
X193900000Y-87700000D03*
D12*
X191400000Y-90700000D03*
X207900000Y-109200000D03*
D13*
X174150000Y-95400000D03*
X176650000Y-95400000D03*
X174050000Y-99400000D03*
X176550000Y-99400000D03*
X183150000Y-93400000D03*
X180650000Y-93400000D03*
D14*
X169100000Y-102350000D03*
X169100000Y-104850000D03*
X184000000Y-102050000D03*
X184000000Y-104550000D03*
D13*
X171950000Y-89100000D03*
X169450000Y-89100000D03*
D15*
X164700000Y-99950000D03*
X164700000Y-102450000D03*
X164700000Y-104460000D03*
X164700000Y-106950000D03*
D16*
X162600000Y-97600000D03*
X162600000Y-109300000D03*
D17*
X162600000Y-101200000D03*
X162600000Y-105700000D03*
D13*
X175550000Y-103400000D03*
X173050000Y-103400000D03*
D14*
X169100000Y-99550000D03*
X169100000Y-97050000D03*
D18*
X164200000Y-83100000D03*
X164200000Y-88180000D03*
D19*
X168200000Y-87100000D03*
X179800000Y-87200000D03*
X209500000Y-94800000D03*
X204300000Y-94800000D03*
X199900000Y-114800000D03*
X183700000Y-89700000D03*
X174000000Y-119200000D03*
X181800000Y-118700000D03*
X171300000Y-107900000D03*
X183000000Y-104400000D03*
X168400000Y-105400000D03*
X169100000Y-101700000D03*
X183000000Y-101600000D03*
X181200000Y-89000000D03*
X172300000Y-89500000D03*
X170100000Y-110900000D03*
X172100000Y-95400000D03*
X170400000Y-106300000D03*
X172800000Y-99400000D03*
X172300000Y-97900000D03*
X167900000Y-99700000D03*
X173200000Y-102400000D03*
X168000000Y-96400000D03*
X172100000Y-105000000D03*
X177400000Y-102700000D03*
X192600000Y-103900000D03*
X186100000Y-110300000D03*
X177300000Y-103700000D03*
X175800000Y-108400000D03*
X179600000Y-105000000D03*
X184400000Y-98800000D03*
X189600000Y-93700000D03*
X182500000Y-98500000D03*
X192300000Y-101000000D03*
X177400000Y-105800000D03*
X183400000Y-98800000D03*
X190300000Y-107200000D03*
X192300000Y-102700000D03*
X188900000Y-103200000D03*
X188900000Y-106100000D03*
X190300000Y-98900000D03*
X201100000Y-97900000D03*
X190500000Y-94400000D03*
X199300000Y-98200000D03*
X196900000Y-104000000D03*
D20*
X199900000Y-114800000D02*
X204732000Y-114800000D01*
X209500000Y-104698000D02*
X209500000Y-94800000D01*
X205994000Y-108204000D02*
X209500000Y-104698000D01*
X205994000Y-110490000D02*
X205994000Y-108204000D01*
X206756000Y-111252000D02*
X205994000Y-110490000D01*
X206756000Y-112776000D02*
X206756000Y-111252000D01*
X204732000Y-114800000D02*
X206756000Y-112776000D01*
X186182000Y-89700000D02*
X186182000Y-89662000D01*
X186182000Y-89662000D02*
X191516000Y-84328000D01*
X191516000Y-84328000D02*
X206502000Y-84328000D01*
X206502000Y-84328000D02*
X209500000Y-87326000D01*
X209500000Y-87326000D02*
X209500000Y-88100000D01*
X186182000Y-89700000D02*
X183700000Y-89700000D01*
X209500000Y-94800000D02*
X209500000Y-88100000D01*
X179700000Y-87100000D02*
X168200000Y-87100000D01*
X179800000Y-87200000D02*
X179700000Y-87100000D01*
X199400000Y-93200000D02*
X199400000Y-93700000D01*
X200500000Y-94800000D02*
X204300000Y-94800000D01*
X199400000Y-93700000D02*
X200500000Y-94800000D01*
X209500000Y-94800000D02*
X209600000Y-94800000D01*
X209600000Y-94800000D02*
X209500000Y-94800000D01*
X175550000Y-103400000D02*
X175550000Y-103050000D01*
X175550000Y-103050000D02*
X183150000Y-95450000D01*
X183150000Y-95450000D02*
X183150000Y-93400000D01*
X199400000Y-114300000D02*
X199400000Y-111700000D01*
X199900000Y-114800000D02*
X199400000Y-114300000D01*
X183700000Y-89700000D02*
X183700000Y-92100000D01*
X183150000Y-92650000D02*
X183150000Y-93400000D01*
X183700000Y-92100000D02*
X183150000Y-92650000D01*
X174000000Y-119200000D02*
X174100000Y-119300000D01*
X174100000Y-119300000D02*
X181200000Y-119300000D01*
X181200000Y-119300000D02*
X181800000Y-118700000D01*
D21*
X184000000Y-104550000D02*
X183150000Y-104550000D01*
X183150000Y-104550000D02*
X183000000Y-104400000D01*
X168400000Y-105400000D02*
X168950000Y-104850000D01*
X168950000Y-104850000D02*
X169100000Y-104850000D01*
X167700000Y-106200000D02*
X167700000Y-103000000D01*
X180100000Y-105700000D02*
X180100000Y-107700000D01*
X180100000Y-107700000D02*
X178400000Y-109400000D01*
X178400000Y-109400000D02*
X170900000Y-109400000D01*
X170900000Y-109400000D02*
X167700000Y-106200000D01*
X183750000Y-102050000D02*
X180100000Y-105700000D01*
X168350000Y-102350000D02*
X169100000Y-102350000D01*
X167700000Y-103000000D02*
X168350000Y-102350000D01*
X184000000Y-102050000D02*
X183750000Y-102050000D01*
X169100000Y-101700000D02*
X168850000Y-102350000D01*
X168850000Y-102350000D02*
X169100000Y-102350000D01*
X183000000Y-101600000D02*
X183250000Y-101850000D01*
X183250000Y-101850000D02*
X184000000Y-102050000D01*
X181200000Y-89000000D02*
X181100000Y-88900000D01*
X181100000Y-88900000D02*
X172900000Y-88900000D01*
X172900000Y-88900000D02*
X172300000Y-89500000D01*
X167600000Y-95400000D02*
X172100000Y-95400000D01*
X167200000Y-95800000D02*
X167600000Y-95400000D01*
X167200000Y-108000000D02*
X167200000Y-95800000D01*
X170100000Y-110900000D02*
X167200000Y-108000000D01*
X174150000Y-95400000D02*
X172100000Y-95400000D01*
X171900000Y-99400000D02*
X172800000Y-99400000D01*
X170500000Y-100800000D02*
X171900000Y-99400000D01*
X170500000Y-106200000D02*
X170500000Y-100800000D01*
X170400000Y-106300000D02*
X170500000Y-106200000D01*
X174050000Y-99400000D02*
X172800000Y-99400000D01*
X171800000Y-98400000D02*
X172300000Y-97900000D01*
X168200000Y-98400000D02*
X171800000Y-98400000D01*
X167900000Y-98700000D02*
X168200000Y-98400000D01*
X167900000Y-99700000D02*
X167900000Y-98700000D01*
X173050000Y-102550000D02*
X173050000Y-103400000D01*
X173200000Y-102400000D02*
X173050000Y-102550000D01*
X168000000Y-96400000D02*
X168650000Y-97050000D01*
X168650000Y-97050000D02*
X169100000Y-97050000D01*
X207100000Y-92600000D02*
X207100000Y-90006000D01*
X207100000Y-92600000D02*
X207100000Y-93900000D01*
X207100000Y-93900000D02*
X200800000Y-100200000D01*
X200800000Y-100200000D02*
X181700000Y-100200000D01*
X181700000Y-100200000D02*
X176900000Y-105000000D01*
X176900000Y-105000000D02*
X172100000Y-105000000D01*
X203400000Y-89462000D02*
X203400000Y-90200000D01*
X203962000Y-88900000D02*
X203400000Y-89462000D01*
X205994000Y-88900000D02*
X203962000Y-88900000D01*
X207100000Y-90006000D02*
X205994000Y-88900000D01*
X184658000Y-93980000D02*
X184658000Y-92456000D01*
X184658000Y-93980000D02*
X184658000Y-95442000D01*
X184658000Y-95442000D02*
X177400000Y-102700000D01*
X202900000Y-86314000D02*
X202900000Y-87700000D01*
X201930000Y-85344000D02*
X202900000Y-86314000D01*
X191770000Y-85344000D02*
X201930000Y-85344000D01*
X184658000Y-92456000D02*
X191770000Y-85344000D01*
X202900000Y-87700000D02*
X202900000Y-87076000D01*
X186100000Y-110300000D02*
X192600000Y-103900000D01*
X206500000Y-92650002D02*
X206500000Y-92200000D01*
X181400000Y-99600000D02*
X177300000Y-103700000D01*
X200649998Y-99600000D02*
X181400000Y-99600000D01*
X206500000Y-93749998D02*
X200649998Y-99600000D01*
X206500000Y-92650002D02*
X206500000Y-93749998D01*
X202946000Y-91692000D02*
X205795998Y-91692000D01*
X201900000Y-90900000D02*
X202946000Y-91692000D01*
X201900000Y-90900000D02*
X201900000Y-90700000D01*
X205992000Y-91692000D02*
X205795998Y-91692000D01*
X206500000Y-92200000D02*
X205992000Y-91692000D01*
X176200000Y-108400000D02*
X175800000Y-108400000D01*
X179600000Y-105000000D02*
X176200000Y-108400000D01*
X184500000Y-98800000D02*
X184400000Y-98800000D01*
X189600000Y-93700000D02*
X184500000Y-98800000D01*
X196900000Y-87700000D02*
X196900000Y-86918000D01*
X188468000Y-90170000D02*
X188468000Y-92532000D01*
X192278000Y-86360000D02*
X188468000Y-90170000D01*
X196342000Y-86360000D02*
X192278000Y-86360000D01*
X196900000Y-86918000D02*
X196342000Y-86360000D01*
X188500000Y-92500000D02*
X188468000Y-92532000D01*
X188468000Y-92532000D02*
X182500000Y-98500000D01*
X191950002Y-100650002D02*
X192300000Y-101000000D01*
X182549998Y-100650002D02*
X191950002Y-100650002D01*
X177400000Y-105800000D02*
X182549998Y-100650002D01*
X195900000Y-90700000D02*
X195900000Y-91300000D01*
X189200000Y-93000000D02*
X183400000Y-98800000D01*
X193062000Y-93000000D02*
X189200000Y-93000000D01*
X194262000Y-91800000D02*
X193062000Y-93000000D01*
X195400000Y-91800000D02*
X194262000Y-91800000D01*
X195900000Y-91300000D02*
X195400000Y-91800000D01*
X195900000Y-90700000D02*
X195900000Y-90900000D01*
X202900000Y-106700000D02*
X202900000Y-104100000D01*
X193100000Y-104400000D02*
X190300000Y-107200000D01*
X194300000Y-103200000D02*
X193100000Y-104400000D01*
X202000000Y-103200000D02*
X194300000Y-103200000D01*
X202900000Y-104100000D02*
X202000000Y-103200000D01*
X203200000Y-107900000D02*
X201900000Y-109200000D01*
X205600000Y-107900000D02*
X203200000Y-107900000D01*
X206500000Y-107000000D02*
X205600000Y-107900000D01*
X206500000Y-105000000D02*
X206500000Y-107000000D01*
X204200000Y-102700000D02*
X206500000Y-105000000D01*
X194500000Y-102700000D02*
X204200000Y-102700000D01*
X192300000Y-102700000D02*
X194500000Y-102700000D01*
X188900000Y-106100000D02*
X188900000Y-103200000D01*
X200100000Y-98900000D02*
X190300000Y-98900000D01*
X201100000Y-97900000D02*
X200100000Y-98900000D01*
X196900000Y-106700000D02*
X196900000Y-104000000D01*
X195500000Y-94400000D02*
X190500000Y-94400000D01*
X199300000Y-98200000D02*
X195500000Y-94400000D01*
D22*
G36*
X206735495Y-75810145D02*
X208206776Y-76793224D01*
X209189855Y-78264505D01*
X209544000Y-80044911D01*
X209544000Y-86619052D01*
X206877474Y-83952526D01*
X206705205Y-83837420D01*
X206502000Y-83797000D01*
X191516000Y-83797000D01*
X191312795Y-83837420D01*
X191140526Y-83952526D01*
X185924052Y-89169000D01*
X184132166Y-89169000D01*
X184086259Y-89123013D01*
X183836054Y-89019118D01*
X183565135Y-89018882D01*
X183314748Y-89122339D01*
X183123013Y-89313741D01*
X183019118Y-89563946D01*
X183018882Y-89834865D01*
X183122339Y-90085252D01*
X183169000Y-90131994D01*
X183169000Y-91880053D01*
X182774526Y-92274526D01*
X182699684Y-92386536D01*
X182400000Y-92386536D01*
X182258810Y-92413103D01*
X182129135Y-92496546D01*
X182042141Y-92623866D01*
X182011536Y-92775000D01*
X182011536Y-94025000D01*
X182038103Y-94166190D01*
X182121546Y-94295865D01*
X182248866Y-94382859D01*
X182400000Y-94413464D01*
X182619000Y-94413464D01*
X182619000Y-95230052D01*
X177633435Y-100215617D01*
X177681000Y-100100785D01*
X177681000Y-99622250D01*
X177585750Y-99527000D01*
X176677000Y-99527000D01*
X176677000Y-100310750D01*
X176772250Y-100406000D01*
X177375786Y-100406000D01*
X177490616Y-100358436D01*
X175462516Y-102386536D01*
X174800000Y-102386536D01*
X174658810Y-102413103D01*
X174529135Y-102496546D01*
X174442141Y-102623866D01*
X174411536Y-102775000D01*
X174411536Y-104025000D01*
X174438103Y-104166190D01*
X174521546Y-104295865D01*
X174648866Y-104382859D01*
X174800000Y-104413464D01*
X176300000Y-104413464D01*
X176441190Y-104386897D01*
X176570865Y-104303454D01*
X176657859Y-104176134D01*
X176688464Y-104025000D01*
X176688464Y-104003268D01*
X176722339Y-104085252D01*
X176910584Y-104273824D01*
X176690408Y-104494000D01*
X172557123Y-104494000D01*
X172486259Y-104423013D01*
X172463263Y-104413464D01*
X173800000Y-104413464D01*
X173941190Y-104386897D01*
X174070865Y-104303454D01*
X174157859Y-104176134D01*
X174188464Y-104025000D01*
X174188464Y-102775000D01*
X174161897Y-102633810D01*
X174078454Y-102504135D01*
X173951134Y-102417141D01*
X173880998Y-102402938D01*
X173881118Y-102265135D01*
X173777661Y-102014748D01*
X173586259Y-101823013D01*
X173336054Y-101719118D01*
X173065135Y-101718882D01*
X172814748Y-101822339D01*
X172623013Y-102013741D01*
X172519118Y-102263946D01*
X172519011Y-102386536D01*
X172300000Y-102386536D01*
X172158810Y-102413103D01*
X172029135Y-102496546D01*
X171942141Y-102623866D01*
X171911536Y-102775000D01*
X171911536Y-104025000D01*
X171938103Y-104166190D01*
X172021546Y-104295865D01*
X172055348Y-104318961D01*
X171965135Y-104318882D01*
X171714748Y-104422339D01*
X171523013Y-104613741D01*
X171419118Y-104863946D01*
X171418882Y-105134865D01*
X171522339Y-105385252D01*
X171713741Y-105576987D01*
X171963946Y-105680882D01*
X172234865Y-105681118D01*
X172485252Y-105577661D01*
X172557038Y-105506000D01*
X176784703Y-105506000D01*
X176719118Y-105663946D01*
X176718882Y-105934865D01*
X176822339Y-106185252D01*
X177013741Y-106376987D01*
X177263946Y-106480882D01*
X177403405Y-106481003D01*
X176098031Y-107786377D01*
X175936054Y-107719118D01*
X175665135Y-107718882D01*
X175414748Y-107822339D01*
X175223013Y-108013741D01*
X175119118Y-108263946D01*
X175118882Y-108534865D01*
X175222339Y-108785252D01*
X175330898Y-108894000D01*
X171109592Y-108894000D01*
X168206000Y-105990408D01*
X168206000Y-105869815D01*
X168259181Y-105922996D01*
X168399215Y-105981000D01*
X168877750Y-105981000D01*
X168973000Y-105885750D01*
X168973000Y-104977000D01*
X168953000Y-104977000D01*
X168953000Y-104723000D01*
X168973000Y-104723000D01*
X168973000Y-103814250D01*
X168877750Y-103719000D01*
X168399215Y-103719000D01*
X168259181Y-103777004D01*
X168206000Y-103830185D01*
X168206000Y-103377325D01*
X168323866Y-103457859D01*
X168475000Y-103488464D01*
X169725000Y-103488464D01*
X169866190Y-103461897D01*
X169994000Y-103379654D01*
X169994000Y-103830185D01*
X169940819Y-103777004D01*
X169800785Y-103719000D01*
X169322250Y-103719000D01*
X169227000Y-103814250D01*
X169227000Y-104723000D01*
X169247000Y-104723000D01*
X169247000Y-104977000D01*
X169227000Y-104977000D01*
X169227000Y-105885750D01*
X169322250Y-105981000D01*
X169795084Y-105981000D01*
X169719118Y-106163946D01*
X169718882Y-106434865D01*
X169822339Y-106685252D01*
X170013741Y-106876987D01*
X170263946Y-106980882D01*
X170534865Y-106981118D01*
X170785252Y-106877661D01*
X170976987Y-106686259D01*
X171080882Y-106436054D01*
X171081118Y-106165135D01*
X171006000Y-105983334D01*
X171006000Y-101009592D01*
X172109592Y-99906000D01*
X172342877Y-99906000D01*
X172413741Y-99976987D01*
X172663946Y-100080882D01*
X172922093Y-100081107D01*
X172938103Y-100166190D01*
X173021546Y-100295865D01*
X173148866Y-100382859D01*
X173300000Y-100413464D01*
X174800000Y-100413464D01*
X174941190Y-100386897D01*
X175070865Y-100303454D01*
X175157859Y-100176134D01*
X175188464Y-100025000D01*
X175188464Y-99622250D01*
X175419000Y-99622250D01*
X175419000Y-100100785D01*
X175477004Y-100240819D01*
X175584180Y-100347996D01*
X175724214Y-100406000D01*
X176327750Y-100406000D01*
X176423000Y-100310750D01*
X176423000Y-99527000D01*
X175514250Y-99527000D01*
X175419000Y-99622250D01*
X175188464Y-99622250D01*
X175188464Y-98775000D01*
X175174204Y-98699215D01*
X175419000Y-98699215D01*
X175419000Y-99177750D01*
X175514250Y-99273000D01*
X176423000Y-99273000D01*
X176423000Y-98489250D01*
X176677000Y-98489250D01*
X176677000Y-99273000D01*
X177585750Y-99273000D01*
X177681000Y-99177750D01*
X177681000Y-98699215D01*
X177622996Y-98559181D01*
X177515820Y-98452004D01*
X177375786Y-98394000D01*
X176772250Y-98394000D01*
X176677000Y-98489250D01*
X176423000Y-98489250D01*
X176327750Y-98394000D01*
X175724214Y-98394000D01*
X175584180Y-98452004D01*
X175477004Y-98559181D01*
X175419000Y-98699215D01*
X175174204Y-98699215D01*
X175161897Y-98633810D01*
X175078454Y-98504135D01*
X174951134Y-98417141D01*
X174800000Y-98386536D01*
X173300000Y-98386536D01*
X173158810Y-98413103D01*
X173029135Y-98496546D01*
X172942141Y-98623866D01*
X172922855Y-98719107D01*
X172665135Y-98718882D01*
X172414748Y-98822339D01*
X172342962Y-98894000D01*
X171900000Y-98894000D01*
X171706362Y-98932517D01*
X171542204Y-99042204D01*
X170142204Y-100442204D01*
X170032517Y-100606362D01*
X169994000Y-100800000D01*
X169994000Y-101322675D01*
X169876134Y-101242141D01*
X169725000Y-101211536D01*
X169574628Y-101211536D01*
X169486259Y-101123013D01*
X169236054Y-101019118D01*
X168965135Y-101018882D01*
X168714748Y-101122339D01*
X168625396Y-101211536D01*
X168475000Y-101211536D01*
X168333810Y-101238103D01*
X168204135Y-101321546D01*
X168117141Y-101448866D01*
X168086536Y-101600000D01*
X168086536Y-101929173D01*
X167992204Y-101992204D01*
X167706000Y-102278408D01*
X167706000Y-100356821D01*
X167763946Y-100380882D01*
X168034865Y-100381118D01*
X168094000Y-100356684D01*
X168094000Y-100375786D01*
X168152004Y-100515820D01*
X168259181Y-100622996D01*
X168399215Y-100681000D01*
X168877750Y-100681000D01*
X168973000Y-100585750D01*
X168973000Y-99677000D01*
X169227000Y-99677000D01*
X169227000Y-100585750D01*
X169322250Y-100681000D01*
X169800785Y-100681000D01*
X169940819Y-100622996D01*
X170047996Y-100515820D01*
X170106000Y-100375786D01*
X170106000Y-99772250D01*
X170010750Y-99677000D01*
X169227000Y-99677000D01*
X168973000Y-99677000D01*
X168953000Y-99677000D01*
X168953000Y-99423000D01*
X168973000Y-99423000D01*
X168973000Y-99403000D01*
X169227000Y-99403000D01*
X169227000Y-99423000D01*
X170010750Y-99423000D01*
X170106000Y-99327750D01*
X170106000Y-98906000D01*
X171800000Y-98906000D01*
X171993638Y-98867483D01*
X172157796Y-98757796D01*
X172334561Y-98581031D01*
X172434865Y-98581118D01*
X172685252Y-98477661D01*
X172876987Y-98286259D01*
X172980882Y-98036054D01*
X172981118Y-97765135D01*
X172877661Y-97514748D01*
X172686259Y-97323013D01*
X172436054Y-97219118D01*
X172165135Y-97218882D01*
X171914748Y-97322339D01*
X171723013Y-97513741D01*
X171619118Y-97763946D01*
X171619030Y-97865378D01*
X171590408Y-97894000D01*
X170094429Y-97894000D01*
X170113464Y-97800000D01*
X170113464Y-96300000D01*
X170086897Y-96158810D01*
X170003454Y-96029135D01*
X169876134Y-95942141D01*
X169725000Y-95911536D01*
X168475000Y-95911536D01*
X168474687Y-95911595D01*
X168469102Y-95906000D01*
X171642877Y-95906000D01*
X171713741Y-95976987D01*
X171963946Y-96080882D01*
X172234865Y-96081118D01*
X172485252Y-95977661D01*
X172557038Y-95906000D01*
X173011536Y-95906000D01*
X173011536Y-96025000D01*
X173038103Y-96166190D01*
X173121546Y-96295865D01*
X173248866Y-96382859D01*
X173400000Y-96413464D01*
X174900000Y-96413464D01*
X175041190Y-96386897D01*
X175170865Y-96303454D01*
X175257859Y-96176134D01*
X175288464Y-96025000D01*
X175288464Y-95622250D01*
X175519000Y-95622250D01*
X175519000Y-96100785D01*
X175577004Y-96240819D01*
X175684180Y-96347996D01*
X175824214Y-96406000D01*
X176427750Y-96406000D01*
X176523000Y-96310750D01*
X176523000Y-95527000D01*
X176777000Y-95527000D01*
X176777000Y-96310750D01*
X176872250Y-96406000D01*
X177475786Y-96406000D01*
X177615820Y-96347996D01*
X177722996Y-96240819D01*
X177781000Y-96100785D01*
X177781000Y-95622250D01*
X177685750Y-95527000D01*
X176777000Y-95527000D01*
X176523000Y-95527000D01*
X175614250Y-95527000D01*
X175519000Y-95622250D01*
X175288464Y-95622250D01*
X175288464Y-94775000D01*
X175274204Y-94699215D01*
X175519000Y-94699215D01*
X175519000Y-95177750D01*
X175614250Y-95273000D01*
X176523000Y-95273000D01*
X176523000Y-94489250D01*
X176777000Y-94489250D01*
X176777000Y-95273000D01*
X177685750Y-95273000D01*
X177781000Y-95177750D01*
X177781000Y-94699215D01*
X177722996Y-94559181D01*
X177615820Y-94452004D01*
X177475786Y-94394000D01*
X176872250Y-94394000D01*
X176777000Y-94489250D01*
X176523000Y-94489250D01*
X176427750Y-94394000D01*
X175824214Y-94394000D01*
X175684180Y-94452004D01*
X175577004Y-94559181D01*
X175519000Y-94699215D01*
X175274204Y-94699215D01*
X175261897Y-94633810D01*
X175178454Y-94504135D01*
X175051134Y-94417141D01*
X174900000Y-94386536D01*
X173400000Y-94386536D01*
X173258810Y-94413103D01*
X173129135Y-94496546D01*
X173042141Y-94623866D01*
X173011536Y-94775000D01*
X173011536Y-94894000D01*
X172557123Y-94894000D01*
X172486259Y-94823013D01*
X172236054Y-94719118D01*
X171965135Y-94718882D01*
X171714748Y-94822339D01*
X171642962Y-94894000D01*
X167600000Y-94894000D01*
X167406362Y-94932517D01*
X167242204Y-95042204D01*
X166842204Y-95442204D01*
X166732517Y-95606362D01*
X166694000Y-95800000D01*
X166694000Y-108000000D01*
X166732517Y-108193638D01*
X166842204Y-108357796D01*
X169418969Y-110934561D01*
X169418882Y-111034865D01*
X169522339Y-111285252D01*
X169713741Y-111476987D01*
X169963946Y-111580882D01*
X170234865Y-111581118D01*
X170485252Y-111477661D01*
X170676987Y-111286259D01*
X170780882Y-111036054D01*
X170781118Y-110765135D01*
X170677661Y-110514748D01*
X170486259Y-110323013D01*
X170236054Y-110219118D01*
X170134622Y-110219030D01*
X167706000Y-107790408D01*
X167706000Y-106921592D01*
X170542204Y-109757796D01*
X170706362Y-109867483D01*
X170900000Y-109906000D01*
X178400000Y-109906000D01*
X178593638Y-109867483D01*
X178757796Y-109757796D01*
X180457796Y-108057796D01*
X180567483Y-107893638D01*
X180606000Y-107700000D01*
X180606000Y-105909592D01*
X181743342Y-104772250D01*
X182994000Y-104772250D01*
X182994000Y-105375786D01*
X183052004Y-105515820D01*
X183159181Y-105622996D01*
X183299215Y-105681000D01*
X183777750Y-105681000D01*
X183873000Y-105585750D01*
X183873000Y-104677000D01*
X184127000Y-104677000D01*
X184127000Y-105585750D01*
X184222250Y-105681000D01*
X184700785Y-105681000D01*
X184840819Y-105622996D01*
X184947996Y-105515820D01*
X185006000Y-105375786D01*
X185006000Y-104772250D01*
X184910750Y-104677000D01*
X184127000Y-104677000D01*
X183873000Y-104677000D01*
X183089250Y-104677000D01*
X182994000Y-104772250D01*
X181743342Y-104772250D01*
X182791378Y-103724214D01*
X182994000Y-103724214D01*
X182994000Y-104327750D01*
X183089250Y-104423000D01*
X183873000Y-104423000D01*
X183873000Y-103514250D01*
X184127000Y-103514250D01*
X184127000Y-104423000D01*
X184910750Y-104423000D01*
X185006000Y-104327750D01*
X185006000Y-103724214D01*
X184947996Y-103584180D01*
X184840819Y-103477004D01*
X184700785Y-103419000D01*
X184222250Y-103419000D01*
X184127000Y-103514250D01*
X183873000Y-103514250D01*
X183777750Y-103419000D01*
X183299215Y-103419000D01*
X183159181Y-103477004D01*
X183052004Y-103584180D01*
X182994000Y-103724214D01*
X182791378Y-103724214D01*
X183335190Y-103180402D01*
X183375000Y-103188464D01*
X184625000Y-103188464D01*
X184766190Y-103161897D01*
X184895865Y-103078454D01*
X184982859Y-102951134D01*
X185013464Y-102800000D01*
X185013464Y-101300000D01*
X184986897Y-101158810D01*
X184985090Y-101156002D01*
X191627616Y-101156002D01*
X191722339Y-101385252D01*
X191913741Y-101576987D01*
X192163946Y-101680882D01*
X192434865Y-101681118D01*
X192685252Y-101577661D01*
X192876987Y-101386259D01*
X192980882Y-101136054D01*
X192981118Y-100865135D01*
X192915365Y-100706000D01*
X200800000Y-100706000D01*
X200993638Y-100667483D01*
X201157796Y-100557796D01*
X207457796Y-94257796D01*
X207567483Y-94093638D01*
X207606000Y-93900000D01*
X207606000Y-90006000D01*
X207567483Y-89812362D01*
X207457796Y-89648204D01*
X206351796Y-88542204D01*
X206187638Y-88432517D01*
X205994000Y-88394000D01*
X204951799Y-88394000D01*
X205146440Y-88199698D01*
X205280847Y-87876011D01*
X205281153Y-87525527D01*
X205147311Y-87201605D01*
X204899698Y-86953560D01*
X204576011Y-86819153D01*
X204225527Y-86818847D01*
X203901605Y-86952689D01*
X203653560Y-87200302D01*
X203650158Y-87208495D01*
X203647311Y-87201605D01*
X203406000Y-86959873D01*
X203406000Y-86314000D01*
X203367483Y-86120362D01*
X203257796Y-85956204D01*
X202287796Y-84986204D01*
X202123638Y-84876517D01*
X202035574Y-84859000D01*
X206282052Y-84859000D01*
X208969000Y-87545948D01*
X208969000Y-94367834D01*
X208923013Y-94413741D01*
X208819118Y-94663946D01*
X208818882Y-94934865D01*
X208922339Y-95185252D01*
X208969000Y-95231994D01*
X208969000Y-104478052D01*
X207006000Y-106441052D01*
X207006000Y-105000000D01*
X206967483Y-104806362D01*
X206857796Y-104642204D01*
X204557796Y-102342204D01*
X204393638Y-102232517D01*
X204200000Y-102194000D01*
X192757123Y-102194000D01*
X192686259Y-102123013D01*
X192436054Y-102019118D01*
X192165135Y-102018882D01*
X191914748Y-102122339D01*
X191723013Y-102313741D01*
X191619118Y-102563946D01*
X191618882Y-102834865D01*
X191722339Y-103085252D01*
X191913741Y-103276987D01*
X192158407Y-103378582D01*
X192023013Y-103513741D01*
X191919118Y-103763946D01*
X191919034Y-103860381D01*
X189580946Y-106162498D01*
X189581118Y-105965135D01*
X189477661Y-105714748D01*
X189406000Y-105642962D01*
X189406000Y-103657123D01*
X189476987Y-103586259D01*
X189580882Y-103336054D01*
X189581118Y-103065135D01*
X189477661Y-102814748D01*
X189286259Y-102623013D01*
X189036054Y-102519118D01*
X188765135Y-102518882D01*
X188514748Y-102622339D01*
X188323013Y-102813741D01*
X188219118Y-103063946D01*
X188218882Y-103334865D01*
X188322339Y-103585252D01*
X188394000Y-103657038D01*
X188394000Y-105642877D01*
X188323013Y-105713741D01*
X188219118Y-105963946D01*
X188218882Y-106234865D01*
X188322339Y-106485252D01*
X188513741Y-106676987D01*
X188763946Y-106780882D01*
X188952733Y-106781046D01*
X186070463Y-109618974D01*
X185965135Y-109618882D01*
X185714748Y-109722339D01*
X185523013Y-109913741D01*
X185419118Y-110163946D01*
X185418882Y-110434865D01*
X185522339Y-110685252D01*
X185713741Y-110876987D01*
X185963946Y-110980882D01*
X186234865Y-110981118D01*
X186485252Y-110877661D01*
X186676987Y-110686259D01*
X186780882Y-110436054D01*
X186780966Y-110339620D01*
X189680706Y-107484491D01*
X189722339Y-107585252D01*
X189913741Y-107776987D01*
X190163946Y-107880882D01*
X190434865Y-107881118D01*
X190685252Y-107777661D01*
X190876987Y-107586259D01*
X190980882Y-107336054D01*
X190980970Y-107234622D01*
X194509592Y-103706000D01*
X196284703Y-103706000D01*
X196219118Y-103863946D01*
X196218882Y-104134865D01*
X196322339Y-104385252D01*
X196394000Y-104457038D01*
X196394000Y-105960281D01*
X196153560Y-106200302D01*
X196150158Y-106208495D01*
X196147311Y-106201605D01*
X195899698Y-105953560D01*
X195576011Y-105819153D01*
X195225527Y-105818847D01*
X194901605Y-105952689D01*
X194653560Y-106200302D01*
X194650158Y-106208495D01*
X194647311Y-106201605D01*
X194399698Y-105953560D01*
X194076011Y-105819153D01*
X193725527Y-105818847D01*
X193401605Y-105952689D01*
X193153560Y-106200302D01*
X193019153Y-106523989D01*
X193018847Y-106874473D01*
X193152689Y-107198395D01*
X193400302Y-107446440D01*
X193723989Y-107580847D01*
X194074473Y-107581153D01*
X194398395Y-107447311D01*
X194646440Y-107199698D01*
X194649842Y-107191505D01*
X194652689Y-107198395D01*
X194900302Y-107446440D01*
X195223989Y-107580847D01*
X195574473Y-107581153D01*
X195898395Y-107447311D01*
X196146440Y-107199698D01*
X196149842Y-107191505D01*
X196152689Y-107198395D01*
X196400302Y-107446440D01*
X196723989Y-107580847D01*
X197074473Y-107581153D01*
X197398395Y-107447311D01*
X197646440Y-107199698D01*
X197649842Y-107191505D01*
X197652689Y-107198395D01*
X197900302Y-107446440D01*
X198223989Y-107580847D01*
X198574473Y-107581153D01*
X198898395Y-107447311D01*
X198995404Y-107350470D01*
X199429135Y-107350470D01*
X199480065Y-107494057D01*
X199815903Y-107594315D01*
X200164544Y-107558422D01*
X200319935Y-107494057D01*
X200370865Y-107350470D01*
X199900000Y-106879605D01*
X199429135Y-107350470D01*
X198995404Y-107350470D01*
X199146440Y-107199698D01*
X199170110Y-107142695D01*
X199249530Y-107170865D01*
X199720395Y-106700000D01*
X199249530Y-106229135D01*
X199170298Y-106257238D01*
X199147311Y-106201605D01*
X198995501Y-106049530D01*
X199429135Y-106049530D01*
X199900000Y-106520395D01*
X200370865Y-106049530D01*
X200319935Y-105905943D01*
X199984097Y-105805685D01*
X199635456Y-105841578D01*
X199480065Y-105905943D01*
X199429135Y-106049530D01*
X198995501Y-106049530D01*
X198899698Y-105953560D01*
X198576011Y-105819153D01*
X198225527Y-105818847D01*
X197901605Y-105952689D01*
X197653560Y-106200302D01*
X197650158Y-106208495D01*
X197647311Y-106201605D01*
X197406000Y-105959873D01*
X197406000Y-104457123D01*
X197476987Y-104386259D01*
X197580882Y-104136054D01*
X197581118Y-103865135D01*
X197515365Y-103706000D01*
X201790408Y-103706000D01*
X202394000Y-104309592D01*
X202394000Y-105960281D01*
X202153560Y-106200302D01*
X202150158Y-106208495D01*
X202147311Y-106201605D01*
X201899698Y-105953560D01*
X201576011Y-105819153D01*
X201225527Y-105818847D01*
X200901605Y-105952689D01*
X200653560Y-106200302D01*
X200629890Y-106257305D01*
X200550470Y-106229135D01*
X200079605Y-106700000D01*
X200550470Y-107170865D01*
X200629702Y-107142762D01*
X200652689Y-107198395D01*
X200900302Y-107446440D01*
X201223989Y-107580847D01*
X201574473Y-107581153D01*
X201898395Y-107447311D01*
X202146440Y-107199698D01*
X202149842Y-107191505D01*
X202152689Y-107198395D01*
X202400302Y-107446440D01*
X202723989Y-107580847D01*
X202803492Y-107580916D01*
X202065264Y-108319144D01*
X201725527Y-108318847D01*
X201401605Y-108452689D01*
X201153560Y-108700302D01*
X201150158Y-108708495D01*
X201147311Y-108701605D01*
X200899698Y-108453560D01*
X200576011Y-108319153D01*
X200225527Y-108318847D01*
X199901605Y-108452689D01*
X199653560Y-108700302D01*
X199650158Y-108708495D01*
X199647311Y-108701605D01*
X199399698Y-108453560D01*
X199076011Y-108319153D01*
X198725527Y-108318847D01*
X198401605Y-108452689D01*
X198153560Y-108700302D01*
X198150158Y-108708495D01*
X198147311Y-108701605D01*
X197899698Y-108453560D01*
X197576011Y-108319153D01*
X197225527Y-108318847D01*
X196901605Y-108452689D01*
X196653560Y-108700302D01*
X196650158Y-108708495D01*
X196647311Y-108701605D01*
X196399698Y-108453560D01*
X196076011Y-108319153D01*
X195725527Y-108318847D01*
X195401605Y-108452689D01*
X195153560Y-108700302D01*
X195150158Y-108708495D01*
X195147311Y-108701605D01*
X194899698Y-108453560D01*
X194576011Y-108319153D01*
X194225527Y-108318847D01*
X193901605Y-108452689D01*
X193653560Y-108700302D01*
X193519153Y-109023989D01*
X193518847Y-109374473D01*
X193652689Y-109698395D01*
X193900302Y-109946440D01*
X194223989Y-110080847D01*
X194574473Y-110081153D01*
X194898395Y-109947311D01*
X195146440Y-109699698D01*
X195149842Y-109691505D01*
X195152689Y-109698395D01*
X195400302Y-109946440D01*
X195723989Y-110080847D01*
X196074473Y-110081153D01*
X196398395Y-109947311D01*
X196646440Y-109699698D01*
X196649842Y-109691505D01*
X196652689Y-109698395D01*
X196900302Y-109946440D01*
X197223989Y-110080847D01*
X197574473Y-110081153D01*
X197898395Y-109947311D01*
X198146440Y-109699698D01*
X198149842Y-109691505D01*
X198152689Y-109698395D01*
X198400302Y-109946440D01*
X198723989Y-110080847D01*
X199074473Y-110081153D01*
X199398395Y-109947311D01*
X199646440Y-109699698D01*
X199649842Y-109691505D01*
X199652689Y-109698395D01*
X199900302Y-109946440D01*
X200223989Y-110080847D01*
X200574473Y-110081153D01*
X200898395Y-109947311D01*
X201146440Y-109699698D01*
X201149842Y-109691505D01*
X201152689Y-109698395D01*
X201400302Y-109946440D01*
X201723989Y-110080847D01*
X202074473Y-110081153D01*
X202398395Y-109947311D01*
X202646440Y-109699698D01*
X202649842Y-109691505D01*
X202652689Y-109698395D01*
X202900302Y-109946440D01*
X203223989Y-110080847D01*
X203574473Y-110081153D01*
X203898395Y-109947311D01*
X204146440Y-109699698D01*
X204149842Y-109691505D01*
X204152689Y-109698395D01*
X204400302Y-109946440D01*
X204723989Y-110080847D01*
X205074473Y-110081153D01*
X205398395Y-109947311D01*
X205463000Y-109882819D01*
X205463000Y-110490000D01*
X205503420Y-110693205D01*
X205592016Y-110825799D01*
X205576011Y-110819153D01*
X205225527Y-110818847D01*
X204901605Y-110952689D01*
X204653560Y-111200302D01*
X204650158Y-111208495D01*
X204647311Y-111201605D01*
X204399698Y-110953560D01*
X204076011Y-110819153D01*
X203725527Y-110818847D01*
X203401605Y-110952689D01*
X203153560Y-111200302D01*
X203150158Y-111208495D01*
X203147311Y-111201605D01*
X202899698Y-110953560D01*
X202576011Y-110819153D01*
X202225527Y-110818847D01*
X201901605Y-110952689D01*
X201653560Y-111200302D01*
X201650158Y-111208495D01*
X201647311Y-111201605D01*
X201399698Y-110953560D01*
X201076011Y-110819153D01*
X200725527Y-110818847D01*
X200401605Y-110952689D01*
X200153560Y-111200302D01*
X200150158Y-111208495D01*
X200147311Y-111201605D01*
X199899698Y-110953560D01*
X199576011Y-110819153D01*
X199225527Y-110818847D01*
X198901605Y-110952689D01*
X198653560Y-111200302D01*
X198629890Y-111257305D01*
X198550470Y-111229135D01*
X198079605Y-111700000D01*
X198550470Y-112170865D01*
X198629702Y-112142762D01*
X198652689Y-112198395D01*
X198869000Y-112415083D01*
X198869000Y-114300000D01*
X198909420Y-114503205D01*
X199024526Y-114675474D01*
X199218939Y-114869887D01*
X199218882Y-114934865D01*
X199322339Y-115185252D01*
X199513741Y-115376987D01*
X199763946Y-115480882D01*
X200034865Y-115481118D01*
X200285252Y-115377661D01*
X200331994Y-115331000D01*
X204732000Y-115331000D01*
X204935205Y-115290580D01*
X205107474Y-115175474D01*
X207131474Y-113151474D01*
X207246580Y-112979205D01*
X207287000Y-112776000D01*
X207287000Y-111252005D01*
X207287001Y-111252000D01*
X207246580Y-111048795D01*
X207219520Y-111008297D01*
X207514215Y-111130665D01*
X208282415Y-111131335D01*
X208992395Y-110837977D01*
X209536068Y-110295252D01*
X209544000Y-110276150D01*
X209544000Y-119955089D01*
X209189855Y-121735495D01*
X208206776Y-123206776D01*
X206735495Y-124189855D01*
X204955089Y-124544000D01*
X165044911Y-124544000D01*
X163264505Y-124189855D01*
X161793224Y-123206776D01*
X160810145Y-121735495D01*
X160456000Y-119955089D01*
X160456000Y-119334865D01*
X173318882Y-119334865D01*
X173422339Y-119585252D01*
X173613741Y-119776987D01*
X173863946Y-119880882D01*
X174134865Y-119881118D01*
X174256161Y-119831000D01*
X181200000Y-119831000D01*
X181403205Y-119790580D01*
X181575474Y-119675474D01*
X181869887Y-119381061D01*
X181934865Y-119381118D01*
X182185252Y-119277661D01*
X182376987Y-119086259D01*
X182480882Y-118836054D01*
X182481118Y-118565135D01*
X182377661Y-118314748D01*
X182186259Y-118123013D01*
X181936054Y-118019118D01*
X181665135Y-118018882D01*
X181414748Y-118122339D01*
X181223013Y-118313741D01*
X181119118Y-118563946D01*
X181119060Y-118629992D01*
X180980052Y-118769000D01*
X174531992Y-118769000D01*
X174386259Y-118623013D01*
X174136054Y-118519118D01*
X173865135Y-118518882D01*
X173614748Y-118622339D01*
X173423013Y-118813741D01*
X173319118Y-119063946D01*
X173318882Y-119334865D01*
X160456000Y-119334865D01*
X160456000Y-111874473D01*
X194018847Y-111874473D01*
X194152689Y-112198395D01*
X194400302Y-112446440D01*
X194723989Y-112580847D01*
X195074473Y-112581153D01*
X195398395Y-112447311D01*
X195646440Y-112199698D01*
X195649842Y-112191505D01*
X195652689Y-112198395D01*
X195900302Y-112446440D01*
X196223989Y-112580847D01*
X196574473Y-112581153D01*
X196898395Y-112447311D01*
X196995404Y-112350470D01*
X197429135Y-112350470D01*
X197480065Y-112494057D01*
X197815903Y-112594315D01*
X198164544Y-112558422D01*
X198319935Y-112494057D01*
X198370865Y-112350470D01*
X197900000Y-111879605D01*
X197429135Y-112350470D01*
X196995404Y-112350470D01*
X197146440Y-112199698D01*
X197170110Y-112142695D01*
X197249530Y-112170865D01*
X197720395Y-111700000D01*
X197249530Y-111229135D01*
X197170298Y-111257238D01*
X197147311Y-111201605D01*
X196995501Y-111049530D01*
X197429135Y-111049530D01*
X197900000Y-111520395D01*
X198370865Y-111049530D01*
X198319935Y-110905943D01*
X197984097Y-110805685D01*
X197635456Y-110841578D01*
X197480065Y-110905943D01*
X197429135Y-111049530D01*
X196995501Y-111049530D01*
X196899698Y-110953560D01*
X196576011Y-110819153D01*
X196225527Y-110818847D01*
X195901605Y-110952689D01*
X195653560Y-111200302D01*
X195650158Y-111208495D01*
X195647311Y-111201605D01*
X195399698Y-110953560D01*
X195076011Y-110819153D01*
X194725527Y-110818847D01*
X194401605Y-110952689D01*
X194153560Y-111200302D01*
X194019153Y-111523989D01*
X194018847Y-111874473D01*
X160456000Y-111874473D01*
X160456000Y-110675350D01*
X161404256Y-110675350D01*
X161578014Y-110922709D01*
X162276791Y-111190285D01*
X163024775Y-111170082D01*
X163621986Y-110922709D01*
X163795744Y-110675350D01*
X162600000Y-109479605D01*
X161404256Y-110675350D01*
X160456000Y-110675350D01*
X160456000Y-108976791D01*
X160709715Y-108976791D01*
X160729918Y-109724775D01*
X160977291Y-110321986D01*
X161224650Y-110495744D01*
X162420395Y-109300000D01*
X162779605Y-109300000D01*
X163975350Y-110495744D01*
X164222709Y-110321986D01*
X164490285Y-109623209D01*
X164470082Y-108875225D01*
X164222709Y-108278014D01*
X163975350Y-108104256D01*
X162779605Y-109300000D01*
X162420395Y-109300000D01*
X161224650Y-108104256D01*
X160977291Y-108278014D01*
X160709715Y-108976791D01*
X160456000Y-108976791D01*
X160456000Y-107924650D01*
X161404256Y-107924650D01*
X162600000Y-109120395D01*
X163795744Y-107924650D01*
X163621986Y-107677291D01*
X162923209Y-107409715D01*
X162175225Y-107429918D01*
X161578014Y-107677291D01*
X161404256Y-107924650D01*
X160456000Y-107924650D01*
X160456000Y-107174096D01*
X163568234Y-107174096D01*
X163740142Y-107590146D01*
X164058180Y-107908739D01*
X164473929Y-108081373D01*
X164924096Y-108081766D01*
X165340146Y-107909858D01*
X165658739Y-107591820D01*
X165831373Y-107176071D01*
X165831766Y-106725904D01*
X165659858Y-106309854D01*
X165341820Y-105991261D01*
X164926071Y-105818627D01*
X164475904Y-105818234D01*
X164059854Y-105990142D01*
X163741261Y-106308180D01*
X163568627Y-106723929D01*
X163568234Y-107174096D01*
X160456000Y-107174096D01*
X160456000Y-105894277D01*
X161618830Y-105894277D01*
X161767864Y-106254966D01*
X162043583Y-106531166D01*
X162404011Y-106680829D01*
X162794277Y-106681170D01*
X163154966Y-106532136D01*
X163431166Y-106256417D01*
X163580829Y-105895989D01*
X163581170Y-105505723D01*
X163432136Y-105145034D01*
X163156417Y-104868834D01*
X162795989Y-104719171D01*
X162405723Y-104718830D01*
X162045034Y-104867864D01*
X161768834Y-105143583D01*
X161619171Y-105504011D01*
X161618830Y-105894277D01*
X160456000Y-105894277D01*
X160456000Y-102674096D01*
X163568234Y-102674096D01*
X163740142Y-103090146D01*
X164058180Y-103408739D01*
X164169348Y-103454900D01*
X164059854Y-103500142D01*
X163741261Y-103818180D01*
X163568627Y-104233929D01*
X163568234Y-104684096D01*
X163740142Y-105100146D01*
X164058180Y-105418739D01*
X164473929Y-105591373D01*
X164924096Y-105591766D01*
X165340146Y-105419858D01*
X165658739Y-105101820D01*
X165831373Y-104686071D01*
X165831766Y-104235904D01*
X165659858Y-103819854D01*
X165341820Y-103501261D01*
X165230652Y-103455100D01*
X165340146Y-103409858D01*
X165658739Y-103091820D01*
X165831373Y-102676071D01*
X165831766Y-102225904D01*
X165659858Y-101809854D01*
X165341820Y-101491261D01*
X164926071Y-101318627D01*
X164475904Y-101318234D01*
X164059854Y-101490142D01*
X163741261Y-101808180D01*
X163568627Y-102223929D01*
X163568234Y-102674096D01*
X160456000Y-102674096D01*
X160456000Y-101394277D01*
X161618830Y-101394277D01*
X161767864Y-101754966D01*
X162043583Y-102031166D01*
X162404011Y-102180829D01*
X162794277Y-102181170D01*
X163154966Y-102032136D01*
X163431166Y-101756417D01*
X163580829Y-101395989D01*
X163581170Y-101005723D01*
X163489086Y-100782861D01*
X164046744Y-100782861D01*
X164128715Y-100952371D01*
X164555793Y-101094691D01*
X165004824Y-101062743D01*
X165271285Y-100952371D01*
X165353256Y-100782861D01*
X164700000Y-100129605D01*
X164046744Y-100782861D01*
X163489086Y-100782861D01*
X163432136Y-100645034D01*
X163156417Y-100368834D01*
X162795989Y-100219171D01*
X162405723Y-100218830D01*
X162045034Y-100367864D01*
X161768834Y-100643583D01*
X161619171Y-101004011D01*
X161618830Y-101394277D01*
X160456000Y-101394277D01*
X160456000Y-99805793D01*
X163555309Y-99805793D01*
X163587257Y-100254824D01*
X163697629Y-100521285D01*
X163867139Y-100603256D01*
X164520395Y-99950000D01*
X164879605Y-99950000D01*
X165532861Y-100603256D01*
X165702371Y-100521285D01*
X165844691Y-100094207D01*
X165812743Y-99645176D01*
X165702371Y-99378715D01*
X165532861Y-99296744D01*
X164879605Y-99950000D01*
X164520395Y-99950000D01*
X163867139Y-99296744D01*
X163697629Y-99378715D01*
X163555309Y-99805793D01*
X160456000Y-99805793D01*
X160456000Y-98975350D01*
X161404256Y-98975350D01*
X161578014Y-99222709D01*
X162276791Y-99490285D01*
X163024775Y-99470082D01*
X163621986Y-99222709D01*
X163696143Y-99117139D01*
X164046744Y-99117139D01*
X164700000Y-99770395D01*
X165353256Y-99117139D01*
X165271285Y-98947629D01*
X164844207Y-98805309D01*
X164395176Y-98837257D01*
X164128715Y-98947629D01*
X164046744Y-99117139D01*
X163696143Y-99117139D01*
X163795744Y-98975350D01*
X162600000Y-97779605D01*
X161404256Y-98975350D01*
X160456000Y-98975350D01*
X160456000Y-97276791D01*
X160709715Y-97276791D01*
X160729918Y-98024775D01*
X160977291Y-98621986D01*
X161224650Y-98795744D01*
X162420395Y-97600000D01*
X162779605Y-97600000D01*
X163975350Y-98795744D01*
X164222709Y-98621986D01*
X164490285Y-97923209D01*
X164470082Y-97175225D01*
X164222709Y-96578014D01*
X163975350Y-96404256D01*
X162779605Y-97600000D01*
X162420395Y-97600000D01*
X161224650Y-96404256D01*
X160977291Y-96578014D01*
X160709715Y-97276791D01*
X160456000Y-97276791D01*
X160456000Y-96224650D01*
X161404256Y-96224650D01*
X162600000Y-97420395D01*
X163795744Y-96224650D01*
X163621986Y-95977291D01*
X162923209Y-95709715D01*
X162175225Y-95729918D01*
X161578014Y-95977291D01*
X161404256Y-96224650D01*
X160456000Y-96224650D01*
X160456000Y-93622250D01*
X179519000Y-93622250D01*
X179519000Y-94100785D01*
X179577004Y-94240819D01*
X179684180Y-94347996D01*
X179824214Y-94406000D01*
X180427750Y-94406000D01*
X180523000Y-94310750D01*
X180523000Y-93527000D01*
X180777000Y-93527000D01*
X180777000Y-94310750D01*
X180872250Y-94406000D01*
X181475786Y-94406000D01*
X181615820Y-94347996D01*
X181722996Y-94240819D01*
X181781000Y-94100785D01*
X181781000Y-93622250D01*
X181685750Y-93527000D01*
X180777000Y-93527000D01*
X180523000Y-93527000D01*
X179614250Y-93527000D01*
X179519000Y-93622250D01*
X160456000Y-93622250D01*
X160456000Y-92699215D01*
X179519000Y-92699215D01*
X179519000Y-93177750D01*
X179614250Y-93273000D01*
X180523000Y-93273000D01*
X180523000Y-92489250D01*
X180777000Y-92489250D01*
X180777000Y-93273000D01*
X181685750Y-93273000D01*
X181781000Y-93177750D01*
X181781000Y-92699215D01*
X181722996Y-92559181D01*
X181615820Y-92452004D01*
X181475786Y-92394000D01*
X180872250Y-92394000D01*
X180777000Y-92489250D01*
X180523000Y-92489250D01*
X180427750Y-92394000D01*
X179824214Y-92394000D01*
X179684180Y-92452004D01*
X179577004Y-92559181D01*
X179519000Y-92699215D01*
X160456000Y-92699215D01*
X160456000Y-89322250D01*
X168319000Y-89322250D01*
X168319000Y-89800785D01*
X168377004Y-89940819D01*
X168484180Y-90047996D01*
X168624214Y-90106000D01*
X169227750Y-90106000D01*
X169323000Y-90010750D01*
X169323000Y-89227000D01*
X169577000Y-89227000D01*
X169577000Y-90010750D01*
X169672250Y-90106000D01*
X170275786Y-90106000D01*
X170415820Y-90047996D01*
X170522996Y-89940819D01*
X170581000Y-89800785D01*
X170581000Y-89322250D01*
X170485750Y-89227000D01*
X169577000Y-89227000D01*
X169323000Y-89227000D01*
X168414250Y-89227000D01*
X168319000Y-89322250D01*
X160456000Y-89322250D01*
X160456000Y-88396299D01*
X163107611Y-88396299D01*
X163273538Y-88797873D01*
X163580511Y-89105382D01*
X163981795Y-89272010D01*
X164416299Y-89272389D01*
X164817873Y-89106462D01*
X165125382Y-88799489D01*
X165291590Y-88399215D01*
X168319000Y-88399215D01*
X168319000Y-88877750D01*
X168414250Y-88973000D01*
X169323000Y-88973000D01*
X169323000Y-88189250D01*
X169577000Y-88189250D01*
X169577000Y-88973000D01*
X170485750Y-88973000D01*
X170581000Y-88877750D01*
X170581000Y-88475000D01*
X170811536Y-88475000D01*
X170811536Y-89725000D01*
X170838103Y-89866190D01*
X170921546Y-89995865D01*
X171048866Y-90082859D01*
X171200000Y-90113464D01*
X172001587Y-90113464D01*
X172163946Y-90180882D01*
X172434865Y-90181118D01*
X172598601Y-90113464D01*
X172700000Y-90113464D01*
X172841190Y-90086897D01*
X172970865Y-90003454D01*
X173057859Y-89876134D01*
X173088464Y-89725000D01*
X173088464Y-89427128D01*
X173109592Y-89406000D01*
X180643051Y-89406000D01*
X180813741Y-89576987D01*
X181063946Y-89680882D01*
X181334865Y-89681118D01*
X181585252Y-89577661D01*
X181776987Y-89386259D01*
X181880882Y-89136054D01*
X181881118Y-88865135D01*
X181777661Y-88614748D01*
X181586259Y-88423013D01*
X181336054Y-88319118D01*
X181065135Y-88318882D01*
X180883334Y-88394000D01*
X173073223Y-88394000D01*
X173061897Y-88333810D01*
X172978454Y-88204135D01*
X172851134Y-88117141D01*
X172700000Y-88086536D01*
X171200000Y-88086536D01*
X171058810Y-88113103D01*
X170929135Y-88196546D01*
X170842141Y-88323866D01*
X170811536Y-88475000D01*
X170581000Y-88475000D01*
X170581000Y-88399215D01*
X170522996Y-88259181D01*
X170415820Y-88152004D01*
X170275786Y-88094000D01*
X169672250Y-88094000D01*
X169577000Y-88189250D01*
X169323000Y-88189250D01*
X169227750Y-88094000D01*
X168624214Y-88094000D01*
X168484180Y-88152004D01*
X168377004Y-88259181D01*
X168319000Y-88399215D01*
X165291590Y-88399215D01*
X165292010Y-88398205D01*
X165292389Y-87963701D01*
X165126462Y-87562127D01*
X164819489Y-87254618D01*
X164771919Y-87234865D01*
X167518882Y-87234865D01*
X167622339Y-87485252D01*
X167813741Y-87676987D01*
X168063946Y-87780882D01*
X168334865Y-87781118D01*
X168585252Y-87677661D01*
X168631994Y-87631000D01*
X179268008Y-87631000D01*
X179413741Y-87776987D01*
X179663946Y-87880882D01*
X179934865Y-87881118D01*
X180185252Y-87777661D01*
X180376987Y-87586259D01*
X180480882Y-87336054D01*
X180481118Y-87065135D01*
X180377661Y-86814748D01*
X180186259Y-86623013D01*
X179936054Y-86519118D01*
X179665135Y-86518882D01*
X179543839Y-86569000D01*
X168632166Y-86569000D01*
X168586259Y-86523013D01*
X168336054Y-86419118D01*
X168065135Y-86418882D01*
X167814748Y-86522339D01*
X167623013Y-86713741D01*
X167519118Y-86963946D01*
X167518882Y-87234865D01*
X164771919Y-87234865D01*
X164418205Y-87087990D01*
X163983701Y-87087611D01*
X163582127Y-87253538D01*
X163274618Y-87560511D01*
X163107990Y-87961795D01*
X163107611Y-88396299D01*
X160456000Y-88396299D01*
X160456000Y-83316299D01*
X163107611Y-83316299D01*
X163273538Y-83717873D01*
X163580511Y-84025382D01*
X163981795Y-84192010D01*
X164416299Y-84192389D01*
X164817873Y-84026462D01*
X165125382Y-83719489D01*
X165292010Y-83318205D01*
X165292389Y-82883701D01*
X165126462Y-82482127D01*
X164819489Y-82174618D01*
X164418205Y-82007990D01*
X163983701Y-82007611D01*
X163582127Y-82173538D01*
X163274618Y-82480511D01*
X163107990Y-82881795D01*
X163107611Y-83316299D01*
X160456000Y-83316299D01*
X160456000Y-80044911D01*
X160810145Y-78264505D01*
X161793224Y-76793224D01*
X163264505Y-75810145D01*
X165044911Y-75456000D01*
X204955089Y-75456000D01*
X206735495Y-75810145D01*
X206735495Y-75810145D01*
G37*
X206735495Y-75810145D02*
X208206776Y-76793224D01*
X209189855Y-78264505D01*
X209544000Y-80044911D01*
X209544000Y-86619052D01*
X206877474Y-83952526D01*
X206705205Y-83837420D01*
X206502000Y-83797000D01*
X191516000Y-83797000D01*
X191312795Y-83837420D01*
X191140526Y-83952526D01*
X185924052Y-89169000D01*
X184132166Y-89169000D01*
X184086259Y-89123013D01*
X183836054Y-89019118D01*
X183565135Y-89018882D01*
X183314748Y-89122339D01*
X183123013Y-89313741D01*
X183019118Y-89563946D01*
X183018882Y-89834865D01*
X183122339Y-90085252D01*
X183169000Y-90131994D01*
X183169000Y-91880053D01*
X182774526Y-92274526D01*
X182699684Y-92386536D01*
X182400000Y-92386536D01*
X182258810Y-92413103D01*
X182129135Y-92496546D01*
X182042141Y-92623866D01*
X182011536Y-92775000D01*
X182011536Y-94025000D01*
X182038103Y-94166190D01*
X182121546Y-94295865D01*
X182248866Y-94382859D01*
X182400000Y-94413464D01*
X182619000Y-94413464D01*
X182619000Y-95230052D01*
X177633435Y-100215617D01*
X177681000Y-100100785D01*
X177681000Y-99622250D01*
X177585750Y-99527000D01*
X176677000Y-99527000D01*
X176677000Y-100310750D01*
X176772250Y-100406000D01*
X177375786Y-100406000D01*
X177490616Y-100358436D01*
X175462516Y-102386536D01*
X174800000Y-102386536D01*
X174658810Y-102413103D01*
X174529135Y-102496546D01*
X174442141Y-102623866D01*
X174411536Y-102775000D01*
X174411536Y-104025000D01*
X174438103Y-104166190D01*
X174521546Y-104295865D01*
X174648866Y-104382859D01*
X174800000Y-104413464D01*
X176300000Y-104413464D01*
X176441190Y-104386897D01*
X176570865Y-104303454D01*
X176657859Y-104176134D01*
X176688464Y-104025000D01*
X176688464Y-104003268D01*
X176722339Y-104085252D01*
X176910584Y-104273824D01*
X176690408Y-104494000D01*
X172557123Y-104494000D01*
X172486259Y-104423013D01*
X172463263Y-104413464D01*
X173800000Y-104413464D01*
X173941190Y-104386897D01*
X174070865Y-104303454D01*
X174157859Y-104176134D01*
X174188464Y-104025000D01*
X174188464Y-102775000D01*
X174161897Y-102633810D01*
X174078454Y-102504135D01*
X173951134Y-102417141D01*
X173880998Y-102402938D01*
X173881118Y-102265135D01*
X173777661Y-102014748D01*
X173586259Y-101823013D01*
X173336054Y-101719118D01*
X173065135Y-101718882D01*
X172814748Y-101822339D01*
X172623013Y-102013741D01*
X172519118Y-102263946D01*
X172519011Y-102386536D01*
X172300000Y-102386536D01*
X172158810Y-102413103D01*
X172029135Y-102496546D01*
X171942141Y-102623866D01*
X171911536Y-102775000D01*
X171911536Y-104025000D01*
X171938103Y-104166190D01*
X172021546Y-104295865D01*
X172055348Y-104318961D01*
X171965135Y-104318882D01*
X171714748Y-104422339D01*
X171523013Y-104613741D01*
X171419118Y-104863946D01*
X171418882Y-105134865D01*
X171522339Y-105385252D01*
X171713741Y-105576987D01*
X171963946Y-105680882D01*
X172234865Y-105681118D01*
X172485252Y-105577661D01*
X172557038Y-105506000D01*
X176784703Y-105506000D01*
X176719118Y-105663946D01*
X176718882Y-105934865D01*
X176822339Y-106185252D01*
X177013741Y-106376987D01*
X177263946Y-106480882D01*
X177403405Y-106481003D01*
X176098031Y-107786377D01*
X175936054Y-107719118D01*
X175665135Y-107718882D01*
X175414748Y-107822339D01*
X175223013Y-108013741D01*
X175119118Y-108263946D01*
X175118882Y-108534865D01*
X175222339Y-108785252D01*
X175330898Y-108894000D01*
X171109592Y-108894000D01*
X168206000Y-105990408D01*
X168206000Y-105869815D01*
X168259181Y-105922996D01*
X168399215Y-105981000D01*
X168877750Y-105981000D01*
X168973000Y-105885750D01*
X168973000Y-104977000D01*
X168953000Y-104977000D01*
X168953000Y-104723000D01*
X168973000Y-104723000D01*
X168973000Y-103814250D01*
X168877750Y-103719000D01*
X168399215Y-103719000D01*
X168259181Y-103777004D01*
X168206000Y-103830185D01*
X168206000Y-103377325D01*
X168323866Y-103457859D01*
X168475000Y-103488464D01*
X169725000Y-103488464D01*
X169866190Y-103461897D01*
X169994000Y-103379654D01*
X169994000Y-103830185D01*
X169940819Y-103777004D01*
X169800785Y-103719000D01*
X169322250Y-103719000D01*
X169227000Y-103814250D01*
X169227000Y-104723000D01*
X169247000Y-104723000D01*
X169247000Y-104977000D01*
X169227000Y-104977000D01*
X169227000Y-105885750D01*
X169322250Y-105981000D01*
X169795084Y-105981000D01*
X169719118Y-106163946D01*
X169718882Y-106434865D01*
X169822339Y-106685252D01*
X170013741Y-106876987D01*
X170263946Y-106980882D01*
X170534865Y-106981118D01*
X170785252Y-106877661D01*
X170976987Y-106686259D01*
X171080882Y-106436054D01*
X171081118Y-106165135D01*
X171006000Y-105983334D01*
X171006000Y-101009592D01*
X172109592Y-99906000D01*
X172342877Y-99906000D01*
X172413741Y-99976987D01*
X172663946Y-100080882D01*
X172922093Y-100081107D01*
X172938103Y-100166190D01*
X173021546Y-100295865D01*
X173148866Y-100382859D01*
X173300000Y-100413464D01*
X174800000Y-100413464D01*
X174941190Y-100386897D01*
X175070865Y-100303454D01*
X175157859Y-100176134D01*
X175188464Y-100025000D01*
X175188464Y-99622250D01*
X175419000Y-99622250D01*
X175419000Y-100100785D01*
X175477004Y-100240819D01*
X175584180Y-100347996D01*
X175724214Y-100406000D01*
X176327750Y-100406000D01*
X176423000Y-100310750D01*
X176423000Y-99527000D01*
X175514250Y-99527000D01*
X175419000Y-99622250D01*
X175188464Y-99622250D01*
X175188464Y-98775000D01*
X175174204Y-98699215D01*
X175419000Y-98699215D01*
X175419000Y-99177750D01*
X175514250Y-99273000D01*
X176423000Y-99273000D01*
X176423000Y-98489250D01*
X176677000Y-98489250D01*
X176677000Y-99273000D01*
X177585750Y-99273000D01*
X177681000Y-99177750D01*
X177681000Y-98699215D01*
X177622996Y-98559181D01*
X177515820Y-98452004D01*
X177375786Y-98394000D01*
X176772250Y-98394000D01*
X176677000Y-98489250D01*
X176423000Y-98489250D01*
X176327750Y-98394000D01*
X175724214Y-98394000D01*
X175584180Y-98452004D01*
X175477004Y-98559181D01*
X175419000Y-98699215D01*
X175174204Y-98699215D01*
X175161897Y-98633810D01*
X175078454Y-98504135D01*
X174951134Y-98417141D01*
X174800000Y-98386536D01*
X173300000Y-98386536D01*
X173158810Y-98413103D01*
X173029135Y-98496546D01*
X172942141Y-98623866D01*
X172922855Y-98719107D01*
X172665135Y-98718882D01*
X172414748Y-98822339D01*
X172342962Y-98894000D01*
X171900000Y-98894000D01*
X171706362Y-98932517D01*
X171542204Y-99042204D01*
X170142204Y-100442204D01*
X170032517Y-100606362D01*
X169994000Y-100800000D01*
X169994000Y-101322675D01*
X169876134Y-101242141D01*
X169725000Y-101211536D01*
X169574628Y-101211536D01*
X169486259Y-101123013D01*
X169236054Y-101019118D01*
X168965135Y-101018882D01*
X168714748Y-101122339D01*
X168625396Y-101211536D01*
X168475000Y-101211536D01*
X168333810Y-101238103D01*
X168204135Y-101321546D01*
X168117141Y-101448866D01*
X168086536Y-101600000D01*
X168086536Y-101929173D01*
X167992204Y-101992204D01*
X167706000Y-102278408D01*
X167706000Y-100356821D01*
X167763946Y-100380882D01*
X168034865Y-100381118D01*
X168094000Y-100356684D01*
X168094000Y-100375786D01*
X168152004Y-100515820D01*
X168259181Y-100622996D01*
X168399215Y-100681000D01*
X168877750Y-100681000D01*
X168973000Y-100585750D01*
X168973000Y-99677000D01*
X169227000Y-99677000D01*
X169227000Y-100585750D01*
X169322250Y-100681000D01*
X169800785Y-100681000D01*
X169940819Y-100622996D01*
X170047996Y-100515820D01*
X170106000Y-100375786D01*
X170106000Y-99772250D01*
X170010750Y-99677000D01*
X169227000Y-99677000D01*
X168973000Y-99677000D01*
X168953000Y-99677000D01*
X168953000Y-99423000D01*
X168973000Y-99423000D01*
X168973000Y-99403000D01*
X169227000Y-99403000D01*
X169227000Y-99423000D01*
X170010750Y-99423000D01*
X170106000Y-99327750D01*
X170106000Y-98906000D01*
X171800000Y-98906000D01*
X171993638Y-98867483D01*
X172157796Y-98757796D01*
X172334561Y-98581031D01*
X172434865Y-98581118D01*
X172685252Y-98477661D01*
X172876987Y-98286259D01*
X172980882Y-98036054D01*
X172981118Y-97765135D01*
X172877661Y-97514748D01*
X172686259Y-97323013D01*
X172436054Y-97219118D01*
X172165135Y-97218882D01*
X171914748Y-97322339D01*
X171723013Y-97513741D01*
X171619118Y-97763946D01*
X171619030Y-97865378D01*
X171590408Y-97894000D01*
X170094429Y-97894000D01*
X170113464Y-97800000D01*
X170113464Y-96300000D01*
X170086897Y-96158810D01*
X170003454Y-96029135D01*
X169876134Y-95942141D01*
X169725000Y-95911536D01*
X168475000Y-95911536D01*
X168474687Y-95911595D01*
X168469102Y-95906000D01*
X171642877Y-95906000D01*
X171713741Y-95976987D01*
X171963946Y-96080882D01*
X172234865Y-96081118D01*
X172485252Y-95977661D01*
X172557038Y-95906000D01*
X173011536Y-95906000D01*
X173011536Y-96025000D01*
X173038103Y-96166190D01*
X173121546Y-96295865D01*
X173248866Y-96382859D01*
X173400000Y-96413464D01*
X174900000Y-96413464D01*
X175041190Y-96386897D01*
X175170865Y-96303454D01*
X175257859Y-96176134D01*
X175288464Y-96025000D01*
X175288464Y-95622250D01*
X175519000Y-95622250D01*
X175519000Y-96100785D01*
X175577004Y-96240819D01*
X175684180Y-96347996D01*
X175824214Y-96406000D01*
X176427750Y-96406000D01*
X176523000Y-96310750D01*
X176523000Y-95527000D01*
X176777000Y-95527000D01*
X176777000Y-96310750D01*
X176872250Y-96406000D01*
X177475786Y-96406000D01*
X177615820Y-96347996D01*
X177722996Y-96240819D01*
X177781000Y-96100785D01*
X177781000Y-95622250D01*
X177685750Y-95527000D01*
X176777000Y-95527000D01*
X176523000Y-95527000D01*
X175614250Y-95527000D01*
X175519000Y-95622250D01*
X175288464Y-95622250D01*
X175288464Y-94775000D01*
X175274204Y-94699215D01*
X175519000Y-94699215D01*
X175519000Y-95177750D01*
X175614250Y-95273000D01*
X176523000Y-95273000D01*
X176523000Y-94489250D01*
X176777000Y-94489250D01*
X176777000Y-95273000D01*
X177685750Y-95273000D01*
X177781000Y-95177750D01*
X177781000Y-94699215D01*
X177722996Y-94559181D01*
X177615820Y-94452004D01*
X177475786Y-94394000D01*
X176872250Y-94394000D01*
X176777000Y-94489250D01*
X176523000Y-94489250D01*
X176427750Y-94394000D01*
X175824214Y-94394000D01*
X175684180Y-94452004D01*
X175577004Y-94559181D01*
X175519000Y-94699215D01*
X175274204Y-94699215D01*
X175261897Y-94633810D01*
X175178454Y-94504135D01*
X175051134Y-94417141D01*
X174900000Y-94386536D01*
X173400000Y-94386536D01*
X173258810Y-94413103D01*
X173129135Y-94496546D01*
X173042141Y-94623866D01*
X173011536Y-94775000D01*
X173011536Y-94894000D01*
X172557123Y-94894000D01*
X172486259Y-94823013D01*
X172236054Y-94719118D01*
X171965135Y-94718882D01*
X171714748Y-94822339D01*
X171642962Y-94894000D01*
X167600000Y-94894000D01*
X167406362Y-94932517D01*
X167242204Y-95042204D01*
X166842204Y-95442204D01*
X166732517Y-95606362D01*
X166694000Y-95800000D01*
X166694000Y-108000000D01*
X166732517Y-108193638D01*
X166842204Y-108357796D01*
X169418969Y-110934561D01*
X169418882Y-111034865D01*
X169522339Y-111285252D01*
X169713741Y-111476987D01*
X169963946Y-111580882D01*
X170234865Y-111581118D01*
X170485252Y-111477661D01*
X170676987Y-111286259D01*
X170780882Y-111036054D01*
X170781118Y-110765135D01*
X170677661Y-110514748D01*
X170486259Y-110323013D01*
X170236054Y-110219118D01*
X170134622Y-110219030D01*
X167706000Y-107790408D01*
X167706000Y-106921592D01*
X170542204Y-109757796D01*
X170706362Y-109867483D01*
X170900000Y-109906000D01*
X178400000Y-109906000D01*
X178593638Y-109867483D01*
X178757796Y-109757796D01*
X180457796Y-108057796D01*
X180567483Y-107893638D01*
X180606000Y-107700000D01*
X180606000Y-105909592D01*
X181743342Y-104772250D01*
X182994000Y-104772250D01*
X182994000Y-105375786D01*
X183052004Y-105515820D01*
X183159181Y-105622996D01*
X183299215Y-105681000D01*
X183777750Y-105681000D01*
X183873000Y-105585750D01*
X183873000Y-104677000D01*
X184127000Y-104677000D01*
X184127000Y-105585750D01*
X184222250Y-105681000D01*
X184700785Y-105681000D01*
X184840819Y-105622996D01*
X184947996Y-105515820D01*
X185006000Y-105375786D01*
X185006000Y-104772250D01*
X184910750Y-104677000D01*
X184127000Y-104677000D01*
X183873000Y-104677000D01*
X183089250Y-104677000D01*
X182994000Y-104772250D01*
X181743342Y-104772250D01*
X182791378Y-103724214D01*
X182994000Y-103724214D01*
X182994000Y-104327750D01*
X183089250Y-104423000D01*
X183873000Y-104423000D01*
X183873000Y-103514250D01*
X184127000Y-103514250D01*
X184127000Y-104423000D01*
X184910750Y-104423000D01*
X185006000Y-104327750D01*
X185006000Y-103724214D01*
X184947996Y-103584180D01*
X184840819Y-103477004D01*
X184700785Y-103419000D01*
X184222250Y-103419000D01*
X184127000Y-103514250D01*
X183873000Y-103514250D01*
X183777750Y-103419000D01*
X183299215Y-103419000D01*
X183159181Y-103477004D01*
X183052004Y-103584180D01*
X182994000Y-103724214D01*
X182791378Y-103724214D01*
X183335190Y-103180402D01*
X183375000Y-103188464D01*
X184625000Y-103188464D01*
X184766190Y-103161897D01*
X184895865Y-103078454D01*
X184982859Y-102951134D01*
X185013464Y-102800000D01*
X185013464Y-101300000D01*
X184986897Y-101158810D01*
X184985090Y-101156002D01*
X191627616Y-101156002D01*
X191722339Y-101385252D01*
X191913741Y-101576987D01*
X192163946Y-101680882D01*
X192434865Y-101681118D01*
X192685252Y-101577661D01*
X192876987Y-101386259D01*
X192980882Y-101136054D01*
X192981118Y-100865135D01*
X192915365Y-100706000D01*
X200800000Y-100706000D01*
X200993638Y-100667483D01*
X201157796Y-100557796D01*
X207457796Y-94257796D01*
X207567483Y-94093638D01*
X207606000Y-93900000D01*
X207606000Y-90006000D01*
X207567483Y-89812362D01*
X207457796Y-89648204D01*
X206351796Y-88542204D01*
X206187638Y-88432517D01*
X205994000Y-88394000D01*
X204951799Y-88394000D01*
X205146440Y-88199698D01*
X205280847Y-87876011D01*
X205281153Y-87525527D01*
X205147311Y-87201605D01*
X204899698Y-86953560D01*
X204576011Y-86819153D01*
X204225527Y-86818847D01*
X203901605Y-86952689D01*
X203653560Y-87200302D01*
X203650158Y-87208495D01*
X203647311Y-87201605D01*
X203406000Y-86959873D01*
X203406000Y-86314000D01*
X203367483Y-86120362D01*
X203257796Y-85956204D01*
X202287796Y-84986204D01*
X202123638Y-84876517D01*
X202035574Y-84859000D01*
X206282052Y-84859000D01*
X208969000Y-87545948D01*
X208969000Y-94367834D01*
X208923013Y-94413741D01*
X208819118Y-94663946D01*
X208818882Y-94934865D01*
X208922339Y-95185252D01*
X208969000Y-95231994D01*
X208969000Y-104478052D01*
X207006000Y-106441052D01*
X207006000Y-105000000D01*
X206967483Y-104806362D01*
X206857796Y-104642204D01*
X204557796Y-102342204D01*
X204393638Y-102232517D01*
X204200000Y-102194000D01*
X192757123Y-102194000D01*
X192686259Y-102123013D01*
X192436054Y-102019118D01*
X192165135Y-102018882D01*
X191914748Y-102122339D01*
X191723013Y-102313741D01*
X191619118Y-102563946D01*
X191618882Y-102834865D01*
X191722339Y-103085252D01*
X191913741Y-103276987D01*
X192158407Y-103378582D01*
X192023013Y-103513741D01*
X191919118Y-103763946D01*
X191919034Y-103860381D01*
X189580946Y-106162498D01*
X189581118Y-105965135D01*
X189477661Y-105714748D01*
X189406000Y-105642962D01*
X189406000Y-103657123D01*
X189476987Y-103586259D01*
X189580882Y-103336054D01*
X189581118Y-103065135D01*
X189477661Y-102814748D01*
X189286259Y-102623013D01*
X189036054Y-102519118D01*
X188765135Y-102518882D01*
X188514748Y-102622339D01*
X188323013Y-102813741D01*
X188219118Y-103063946D01*
X188218882Y-103334865D01*
X188322339Y-103585252D01*
X188394000Y-103657038D01*
X188394000Y-105642877D01*
X188323013Y-105713741D01*
X188219118Y-105963946D01*
X188218882Y-106234865D01*
X188322339Y-106485252D01*
X188513741Y-106676987D01*
X188763946Y-106780882D01*
X188952733Y-106781046D01*
X186070463Y-109618974D01*
X185965135Y-109618882D01*
X185714748Y-109722339D01*
X185523013Y-109913741D01*
X185419118Y-110163946D01*
X185418882Y-110434865D01*
X185522339Y-110685252D01*
X185713741Y-110876987D01*
X185963946Y-110980882D01*
X186234865Y-110981118D01*
X186485252Y-110877661D01*
X186676987Y-110686259D01*
X186780882Y-110436054D01*
X186780966Y-110339620D01*
X189680706Y-107484491D01*
X189722339Y-107585252D01*
X189913741Y-107776987D01*
X190163946Y-107880882D01*
X190434865Y-107881118D01*
X190685252Y-107777661D01*
X190876987Y-107586259D01*
X190980882Y-107336054D01*
X190980970Y-107234622D01*
X194509592Y-103706000D01*
X196284703Y-103706000D01*
X196219118Y-103863946D01*
X196218882Y-104134865D01*
X196322339Y-104385252D01*
X196394000Y-104457038D01*
X196394000Y-105960281D01*
X196153560Y-106200302D01*
X196150158Y-106208495D01*
X196147311Y-106201605D01*
X195899698Y-105953560D01*
X195576011Y-105819153D01*
X195225527Y-105818847D01*
X194901605Y-105952689D01*
X194653560Y-106200302D01*
X194650158Y-106208495D01*
X194647311Y-106201605D01*
X194399698Y-105953560D01*
X194076011Y-105819153D01*
X193725527Y-105818847D01*
X193401605Y-105952689D01*
X193153560Y-106200302D01*
X193019153Y-106523989D01*
X193018847Y-106874473D01*
X193152689Y-107198395D01*
X193400302Y-107446440D01*
X193723989Y-107580847D01*
X194074473Y-107581153D01*
X194398395Y-107447311D01*
X194646440Y-107199698D01*
X194649842Y-107191505D01*
X194652689Y-107198395D01*
X194900302Y-107446440D01*
X195223989Y-107580847D01*
X195574473Y-107581153D01*
X195898395Y-107447311D01*
X196146440Y-107199698D01*
X196149842Y-107191505D01*
X196152689Y-107198395D01*
X196400302Y-107446440D01*
X196723989Y-107580847D01*
X197074473Y-107581153D01*
X197398395Y-107447311D01*
X197646440Y-107199698D01*
X197649842Y-107191505D01*
X197652689Y-107198395D01*
X197900302Y-107446440D01*
X198223989Y-107580847D01*
X198574473Y-107581153D01*
X198898395Y-107447311D01*
X198995404Y-107350470D01*
X199429135Y-107350470D01*
X199480065Y-107494057D01*
X199815903Y-107594315D01*
X200164544Y-107558422D01*
X200319935Y-107494057D01*
X200370865Y-107350470D01*
X199900000Y-106879605D01*
X199429135Y-107350470D01*
X198995404Y-107350470D01*
X199146440Y-107199698D01*
X199170110Y-107142695D01*
X199249530Y-107170865D01*
X199720395Y-106700000D01*
X199249530Y-106229135D01*
X199170298Y-106257238D01*
X199147311Y-106201605D01*
X198995501Y-106049530D01*
X199429135Y-106049530D01*
X199900000Y-106520395D01*
X200370865Y-106049530D01*
X200319935Y-105905943D01*
X199984097Y-105805685D01*
X199635456Y-105841578D01*
X199480065Y-105905943D01*
X199429135Y-106049530D01*
X198995501Y-106049530D01*
X198899698Y-105953560D01*
X198576011Y-105819153D01*
X198225527Y-105818847D01*
X197901605Y-105952689D01*
X197653560Y-106200302D01*
X197650158Y-106208495D01*
X197647311Y-106201605D01*
X197406000Y-105959873D01*
X197406000Y-104457123D01*
X197476987Y-104386259D01*
X197580882Y-104136054D01*
X197581118Y-103865135D01*
X197515365Y-103706000D01*
X201790408Y-103706000D01*
X202394000Y-104309592D01*
X202394000Y-105960281D01*
X202153560Y-106200302D01*
X202150158Y-106208495D01*
X202147311Y-106201605D01*
X201899698Y-105953560D01*
X201576011Y-105819153D01*
X201225527Y-105818847D01*
X200901605Y-105952689D01*
X200653560Y-106200302D01*
X200629890Y-106257305D01*
X200550470Y-106229135D01*
X200079605Y-106700000D01*
X200550470Y-107170865D01*
X200629702Y-107142762D01*
X200652689Y-107198395D01*
X200900302Y-107446440D01*
X201223989Y-107580847D01*
X201574473Y-107581153D01*
X201898395Y-107447311D01*
X202146440Y-107199698D01*
X202149842Y-107191505D01*
X202152689Y-107198395D01*
X202400302Y-107446440D01*
X202723989Y-107580847D01*
X202803492Y-107580916D01*
X202065264Y-108319144D01*
X201725527Y-108318847D01*
X201401605Y-108452689D01*
X201153560Y-108700302D01*
X201150158Y-108708495D01*
X201147311Y-108701605D01*
X200899698Y-108453560D01*
X200576011Y-108319153D01*
X200225527Y-108318847D01*
X199901605Y-108452689D01*
X199653560Y-108700302D01*
X199650158Y-108708495D01*
X199647311Y-108701605D01*
X199399698Y-108453560D01*
X199076011Y-108319153D01*
X198725527Y-108318847D01*
X198401605Y-108452689D01*
X198153560Y-108700302D01*
X198150158Y-108708495D01*
X198147311Y-108701605D01*
X197899698Y-108453560D01*
X197576011Y-108319153D01*
X197225527Y-108318847D01*
X196901605Y-108452689D01*
X196653560Y-108700302D01*
X196650158Y-108708495D01*
X196647311Y-108701605D01*
X196399698Y-108453560D01*
X196076011Y-108319153D01*
X195725527Y-108318847D01*
X195401605Y-108452689D01*
X195153560Y-108700302D01*
X195150158Y-108708495D01*
X195147311Y-108701605D01*
X194899698Y-108453560D01*
X194576011Y-108319153D01*
X194225527Y-108318847D01*
X193901605Y-108452689D01*
X193653560Y-108700302D01*
X193519153Y-109023989D01*
X193518847Y-109374473D01*
X193652689Y-109698395D01*
X193900302Y-109946440D01*
X194223989Y-110080847D01*
X194574473Y-110081153D01*
X194898395Y-109947311D01*
X195146440Y-109699698D01*
X195149842Y-109691505D01*
X195152689Y-109698395D01*
X195400302Y-109946440D01*
X195723989Y-110080847D01*
X196074473Y-110081153D01*
X196398395Y-109947311D01*
X196646440Y-109699698D01*
X196649842Y-109691505D01*
X196652689Y-109698395D01*
X196900302Y-109946440D01*
X197223989Y-110080847D01*
X197574473Y-110081153D01*
X197898395Y-109947311D01*
X198146440Y-109699698D01*
X198149842Y-109691505D01*
X198152689Y-109698395D01*
X198400302Y-109946440D01*
X198723989Y-110080847D01*
X199074473Y-110081153D01*
X199398395Y-109947311D01*
X199646440Y-109699698D01*
X199649842Y-109691505D01*
X199652689Y-109698395D01*
X199900302Y-109946440D01*
X200223989Y-110080847D01*
X200574473Y-110081153D01*
X200898395Y-109947311D01*
X201146440Y-109699698D01*
X201149842Y-109691505D01*
X201152689Y-109698395D01*
X201400302Y-109946440D01*
X201723989Y-110080847D01*
X202074473Y-110081153D01*
X202398395Y-109947311D01*
X202646440Y-109699698D01*
X202649842Y-109691505D01*
X202652689Y-109698395D01*
X202900302Y-109946440D01*
X203223989Y-110080847D01*
X203574473Y-110081153D01*
X203898395Y-109947311D01*
X204146440Y-109699698D01*
X204149842Y-109691505D01*
X204152689Y-109698395D01*
X204400302Y-109946440D01*
X204723989Y-110080847D01*
X205074473Y-110081153D01*
X205398395Y-109947311D01*
X205463000Y-109882819D01*
X205463000Y-110490000D01*
X205503420Y-110693205D01*
X205592016Y-110825799D01*
X205576011Y-110819153D01*
X205225527Y-110818847D01*
X204901605Y-110952689D01*
X204653560Y-111200302D01*
X204650158Y-111208495D01*
X204647311Y-111201605D01*
X204399698Y-110953560D01*
X204076011Y-110819153D01*
X203725527Y-110818847D01*
X203401605Y-110952689D01*
X203153560Y-111200302D01*
X203150158Y-111208495D01*
X203147311Y-111201605D01*
X202899698Y-110953560D01*
X202576011Y-110819153D01*
X202225527Y-110818847D01*
X201901605Y-110952689D01*
X201653560Y-111200302D01*
X201650158Y-111208495D01*
X201647311Y-111201605D01*
X201399698Y-110953560D01*
X201076011Y-110819153D01*
X200725527Y-110818847D01*
X200401605Y-110952689D01*
X200153560Y-111200302D01*
X200150158Y-111208495D01*
X200147311Y-111201605D01*
X199899698Y-110953560D01*
X199576011Y-110819153D01*
X199225527Y-110818847D01*
X198901605Y-110952689D01*
X198653560Y-111200302D01*
X198629890Y-111257305D01*
X198550470Y-111229135D01*
X198079605Y-111700000D01*
X198550470Y-112170865D01*
X198629702Y-112142762D01*
X198652689Y-112198395D01*
X198869000Y-112415083D01*
X198869000Y-114300000D01*
X198909420Y-114503205D01*
X199024526Y-114675474D01*
X199218939Y-114869887D01*
X199218882Y-114934865D01*
X199322339Y-115185252D01*
X199513741Y-115376987D01*
X199763946Y-115480882D01*
X200034865Y-115481118D01*
X200285252Y-115377661D01*
X200331994Y-115331000D01*
X204732000Y-115331000D01*
X204935205Y-115290580D01*
X205107474Y-115175474D01*
X207131474Y-113151474D01*
X207246580Y-112979205D01*
X207287000Y-112776000D01*
X207287000Y-111252005D01*
X207287001Y-111252000D01*
X207246580Y-111048795D01*
X207219520Y-111008297D01*
X207514215Y-111130665D01*
X208282415Y-111131335D01*
X208992395Y-110837977D01*
X209536068Y-110295252D01*
X209544000Y-110276150D01*
X209544000Y-119955089D01*
X209189855Y-121735495D01*
X208206776Y-123206776D01*
X206735495Y-124189855D01*
X204955089Y-124544000D01*
X165044911Y-124544000D01*
X163264505Y-124189855D01*
X161793224Y-123206776D01*
X160810145Y-121735495D01*
X160456000Y-119955089D01*
X160456000Y-119334865D01*
X173318882Y-119334865D01*
X173422339Y-119585252D01*
X173613741Y-119776987D01*
X173863946Y-119880882D01*
X174134865Y-119881118D01*
X174256161Y-119831000D01*
X181200000Y-119831000D01*
X181403205Y-119790580D01*
X181575474Y-119675474D01*
X181869887Y-119381061D01*
X181934865Y-119381118D01*
X182185252Y-119277661D01*
X182376987Y-119086259D01*
X182480882Y-118836054D01*
X182481118Y-118565135D01*
X182377661Y-118314748D01*
X182186259Y-118123013D01*
X181936054Y-118019118D01*
X181665135Y-118018882D01*
X181414748Y-118122339D01*
X181223013Y-118313741D01*
X181119118Y-118563946D01*
X181119060Y-118629992D01*
X180980052Y-118769000D01*
X174531992Y-118769000D01*
X174386259Y-118623013D01*
X174136054Y-118519118D01*
X173865135Y-118518882D01*
X173614748Y-118622339D01*
X173423013Y-118813741D01*
X173319118Y-119063946D01*
X173318882Y-119334865D01*
X160456000Y-119334865D01*
X160456000Y-111874473D01*
X194018847Y-111874473D01*
X194152689Y-112198395D01*
X194400302Y-112446440D01*
X194723989Y-112580847D01*
X195074473Y-112581153D01*
X195398395Y-112447311D01*
X195646440Y-112199698D01*
X195649842Y-112191505D01*
X195652689Y-112198395D01*
X195900302Y-112446440D01*
X196223989Y-112580847D01*
X196574473Y-112581153D01*
X196898395Y-112447311D01*
X196995404Y-112350470D01*
X197429135Y-112350470D01*
X197480065Y-112494057D01*
X197815903Y-112594315D01*
X198164544Y-112558422D01*
X198319935Y-112494057D01*
X198370865Y-112350470D01*
X197900000Y-111879605D01*
X197429135Y-112350470D01*
X196995404Y-112350470D01*
X197146440Y-112199698D01*
X197170110Y-112142695D01*
X197249530Y-112170865D01*
X197720395Y-111700000D01*
X197249530Y-111229135D01*
X197170298Y-111257238D01*
X197147311Y-111201605D01*
X196995501Y-111049530D01*
X197429135Y-111049530D01*
X197900000Y-111520395D01*
X198370865Y-111049530D01*
X198319935Y-110905943D01*
X197984097Y-110805685D01*
X197635456Y-110841578D01*
X197480065Y-110905943D01*
X197429135Y-111049530D01*
X196995501Y-111049530D01*
X196899698Y-110953560D01*
X196576011Y-110819153D01*
X196225527Y-110818847D01*
X195901605Y-110952689D01*
X195653560Y-111200302D01*
X195650158Y-111208495D01*
X195647311Y-111201605D01*
X195399698Y-110953560D01*
X195076011Y-110819153D01*
X194725527Y-110818847D01*
X194401605Y-110952689D01*
X194153560Y-111200302D01*
X194019153Y-111523989D01*
X194018847Y-111874473D01*
X160456000Y-111874473D01*
X160456000Y-110675350D01*
X161404256Y-110675350D01*
X161578014Y-110922709D01*
X162276791Y-111190285D01*
X163024775Y-111170082D01*
X163621986Y-110922709D01*
X163795744Y-110675350D01*
X162600000Y-109479605D01*
X161404256Y-110675350D01*
X160456000Y-110675350D01*
X160456000Y-108976791D01*
X160709715Y-108976791D01*
X160729918Y-109724775D01*
X160977291Y-110321986D01*
X161224650Y-110495744D01*
X162420395Y-109300000D01*
X162779605Y-109300000D01*
X163975350Y-110495744D01*
X164222709Y-110321986D01*
X164490285Y-109623209D01*
X164470082Y-108875225D01*
X164222709Y-108278014D01*
X163975350Y-108104256D01*
X162779605Y-109300000D01*
X162420395Y-109300000D01*
X161224650Y-108104256D01*
X160977291Y-108278014D01*
X160709715Y-108976791D01*
X160456000Y-108976791D01*
X160456000Y-107924650D01*
X161404256Y-107924650D01*
X162600000Y-109120395D01*
X163795744Y-107924650D01*
X163621986Y-107677291D01*
X162923209Y-107409715D01*
X162175225Y-107429918D01*
X161578014Y-107677291D01*
X161404256Y-107924650D01*
X160456000Y-107924650D01*
X160456000Y-107174096D01*
X163568234Y-107174096D01*
X163740142Y-107590146D01*
X164058180Y-107908739D01*
X164473929Y-108081373D01*
X164924096Y-108081766D01*
X165340146Y-107909858D01*
X165658739Y-107591820D01*
X165831373Y-107176071D01*
X165831766Y-106725904D01*
X165659858Y-106309854D01*
X165341820Y-105991261D01*
X164926071Y-105818627D01*
X164475904Y-105818234D01*
X164059854Y-105990142D01*
X163741261Y-106308180D01*
X163568627Y-106723929D01*
X163568234Y-107174096D01*
X160456000Y-107174096D01*
X160456000Y-105894277D01*
X161618830Y-105894277D01*
X161767864Y-106254966D01*
X162043583Y-106531166D01*
X162404011Y-106680829D01*
X162794277Y-106681170D01*
X163154966Y-106532136D01*
X163431166Y-106256417D01*
X163580829Y-105895989D01*
X163581170Y-105505723D01*
X163432136Y-105145034D01*
X163156417Y-104868834D01*
X162795989Y-104719171D01*
X162405723Y-104718830D01*
X162045034Y-104867864D01*
X161768834Y-105143583D01*
X161619171Y-105504011D01*
X161618830Y-105894277D01*
X160456000Y-105894277D01*
X160456000Y-102674096D01*
X163568234Y-102674096D01*
X163740142Y-103090146D01*
X164058180Y-103408739D01*
X164169348Y-103454900D01*
X164059854Y-103500142D01*
X163741261Y-103818180D01*
X163568627Y-104233929D01*
X163568234Y-104684096D01*
X163740142Y-105100146D01*
X164058180Y-105418739D01*
X164473929Y-105591373D01*
X164924096Y-105591766D01*
X165340146Y-105419858D01*
X165658739Y-105101820D01*
X165831373Y-104686071D01*
X165831766Y-104235904D01*
X165659858Y-103819854D01*
X165341820Y-103501261D01*
X165230652Y-103455100D01*
X165340146Y-103409858D01*
X165658739Y-103091820D01*
X165831373Y-102676071D01*
X165831766Y-102225904D01*
X165659858Y-101809854D01*
X165341820Y-101491261D01*
X164926071Y-101318627D01*
X164475904Y-101318234D01*
X164059854Y-101490142D01*
X163741261Y-101808180D01*
X163568627Y-102223929D01*
X163568234Y-102674096D01*
X160456000Y-102674096D01*
X160456000Y-101394277D01*
X161618830Y-101394277D01*
X161767864Y-101754966D01*
X162043583Y-102031166D01*
X162404011Y-102180829D01*
X162794277Y-102181170D01*
X163154966Y-102032136D01*
X163431166Y-101756417D01*
X163580829Y-101395989D01*
X163581170Y-101005723D01*
X163489086Y-100782861D01*
X164046744Y-100782861D01*
X164128715Y-100952371D01*
X164555793Y-101094691D01*
X165004824Y-101062743D01*
X165271285Y-100952371D01*
X165353256Y-100782861D01*
X164700000Y-100129605D01*
X164046744Y-100782861D01*
X163489086Y-100782861D01*
X163432136Y-100645034D01*
X163156417Y-100368834D01*
X162795989Y-100219171D01*
X162405723Y-100218830D01*
X162045034Y-100367864D01*
X161768834Y-100643583D01*
X161619171Y-101004011D01*
X161618830Y-101394277D01*
X160456000Y-101394277D01*
X160456000Y-99805793D01*
X163555309Y-99805793D01*
X163587257Y-100254824D01*
X163697629Y-100521285D01*
X163867139Y-100603256D01*
X164520395Y-99950000D01*
X164879605Y-99950000D01*
X165532861Y-100603256D01*
X165702371Y-100521285D01*
X165844691Y-100094207D01*
X165812743Y-99645176D01*
X165702371Y-99378715D01*
X165532861Y-99296744D01*
X164879605Y-99950000D01*
X164520395Y-99950000D01*
X163867139Y-99296744D01*
X163697629Y-99378715D01*
X163555309Y-99805793D01*
X160456000Y-99805793D01*
X160456000Y-98975350D01*
X161404256Y-98975350D01*
X161578014Y-99222709D01*
X162276791Y-99490285D01*
X163024775Y-99470082D01*
X163621986Y-99222709D01*
X163696143Y-99117139D01*
X164046744Y-99117139D01*
X164700000Y-99770395D01*
X165353256Y-99117139D01*
X165271285Y-98947629D01*
X164844207Y-98805309D01*
X164395176Y-98837257D01*
X164128715Y-98947629D01*
X164046744Y-99117139D01*
X163696143Y-99117139D01*
X163795744Y-98975350D01*
X162600000Y-97779605D01*
X161404256Y-98975350D01*
X160456000Y-98975350D01*
X160456000Y-97276791D01*
X160709715Y-97276791D01*
X160729918Y-98024775D01*
X160977291Y-98621986D01*
X161224650Y-98795744D01*
X162420395Y-97600000D01*
X162779605Y-97600000D01*
X163975350Y-98795744D01*
X164222709Y-98621986D01*
X164490285Y-97923209D01*
X164470082Y-97175225D01*
X164222709Y-96578014D01*
X163975350Y-96404256D01*
X162779605Y-97600000D01*
X162420395Y-97600000D01*
X161224650Y-96404256D01*
X160977291Y-96578014D01*
X160709715Y-97276791D01*
X160456000Y-97276791D01*
X160456000Y-96224650D01*
X161404256Y-96224650D01*
X162600000Y-97420395D01*
X163795744Y-96224650D01*
X163621986Y-95977291D01*
X162923209Y-95709715D01*
X162175225Y-95729918D01*
X161578014Y-95977291D01*
X161404256Y-96224650D01*
X160456000Y-96224650D01*
X160456000Y-93622250D01*
X179519000Y-93622250D01*
X179519000Y-94100785D01*
X179577004Y-94240819D01*
X179684180Y-94347996D01*
X179824214Y-94406000D01*
X180427750Y-94406000D01*
X180523000Y-94310750D01*
X180523000Y-93527000D01*
X180777000Y-93527000D01*
X180777000Y-94310750D01*
X180872250Y-94406000D01*
X181475786Y-94406000D01*
X181615820Y-94347996D01*
X181722996Y-94240819D01*
X181781000Y-94100785D01*
X181781000Y-93622250D01*
X181685750Y-93527000D01*
X180777000Y-93527000D01*
X180523000Y-93527000D01*
X179614250Y-93527000D01*
X179519000Y-93622250D01*
X160456000Y-93622250D01*
X160456000Y-92699215D01*
X179519000Y-92699215D01*
X179519000Y-93177750D01*
X179614250Y-93273000D01*
X180523000Y-93273000D01*
X180523000Y-92489250D01*
X180777000Y-92489250D01*
X180777000Y-93273000D01*
X181685750Y-93273000D01*
X181781000Y-93177750D01*
X181781000Y-92699215D01*
X181722996Y-92559181D01*
X181615820Y-92452004D01*
X181475786Y-92394000D01*
X180872250Y-92394000D01*
X180777000Y-92489250D01*
X180523000Y-92489250D01*
X180427750Y-92394000D01*
X179824214Y-92394000D01*
X179684180Y-92452004D01*
X179577004Y-92559181D01*
X179519000Y-92699215D01*
X160456000Y-92699215D01*
X160456000Y-89322250D01*
X168319000Y-89322250D01*
X168319000Y-89800785D01*
X168377004Y-89940819D01*
X168484180Y-90047996D01*
X168624214Y-90106000D01*
X169227750Y-90106000D01*
X169323000Y-90010750D01*
X169323000Y-89227000D01*
X169577000Y-89227000D01*
X169577000Y-90010750D01*
X169672250Y-90106000D01*
X170275786Y-90106000D01*
X170415820Y-90047996D01*
X170522996Y-89940819D01*
X170581000Y-89800785D01*
X170581000Y-89322250D01*
X170485750Y-89227000D01*
X169577000Y-89227000D01*
X169323000Y-89227000D01*
X168414250Y-89227000D01*
X168319000Y-89322250D01*
X160456000Y-89322250D01*
X160456000Y-88396299D01*
X163107611Y-88396299D01*
X163273538Y-88797873D01*
X163580511Y-89105382D01*
X163981795Y-89272010D01*
X164416299Y-89272389D01*
X164817873Y-89106462D01*
X165125382Y-88799489D01*
X165291590Y-88399215D01*
X168319000Y-88399215D01*
X168319000Y-88877750D01*
X168414250Y-88973000D01*
X169323000Y-88973000D01*
X169323000Y-88189250D01*
X169577000Y-88189250D01*
X169577000Y-88973000D01*
X170485750Y-88973000D01*
X170581000Y-88877750D01*
X170581000Y-88475000D01*
X170811536Y-88475000D01*
X170811536Y-89725000D01*
X170838103Y-89866190D01*
X170921546Y-89995865D01*
X171048866Y-90082859D01*
X171200000Y-90113464D01*
X172001587Y-90113464D01*
X172163946Y-90180882D01*
X172434865Y-90181118D01*
X172598601Y-90113464D01*
X172700000Y-90113464D01*
X172841190Y-90086897D01*
X172970865Y-90003454D01*
X173057859Y-89876134D01*
X173088464Y-89725000D01*
X173088464Y-89427128D01*
X173109592Y-89406000D01*
X180643051Y-89406000D01*
X180813741Y-89576987D01*
X181063946Y-89680882D01*
X181334865Y-89681118D01*
X181585252Y-89577661D01*
X181776987Y-89386259D01*
X181880882Y-89136054D01*
X181881118Y-88865135D01*
X181777661Y-88614748D01*
X181586259Y-88423013D01*
X181336054Y-88319118D01*
X181065135Y-88318882D01*
X180883334Y-88394000D01*
X173073223Y-88394000D01*
X173061897Y-88333810D01*
X172978454Y-88204135D01*
X172851134Y-88117141D01*
X172700000Y-88086536D01*
X171200000Y-88086536D01*
X171058810Y-88113103D01*
X170929135Y-88196546D01*
X170842141Y-88323866D01*
X170811536Y-88475000D01*
X170581000Y-88475000D01*
X170581000Y-88399215D01*
X170522996Y-88259181D01*
X170415820Y-88152004D01*
X170275786Y-88094000D01*
X169672250Y-88094000D01*
X169577000Y-88189250D01*
X169323000Y-88189250D01*
X169227750Y-88094000D01*
X168624214Y-88094000D01*
X168484180Y-88152004D01*
X168377004Y-88259181D01*
X168319000Y-88399215D01*
X165291590Y-88399215D01*
X165292010Y-88398205D01*
X165292389Y-87963701D01*
X165126462Y-87562127D01*
X164819489Y-87254618D01*
X164771919Y-87234865D01*
X167518882Y-87234865D01*
X167622339Y-87485252D01*
X167813741Y-87676987D01*
X168063946Y-87780882D01*
X168334865Y-87781118D01*
X168585252Y-87677661D01*
X168631994Y-87631000D01*
X179268008Y-87631000D01*
X179413741Y-87776987D01*
X179663946Y-87880882D01*
X179934865Y-87881118D01*
X180185252Y-87777661D01*
X180376987Y-87586259D01*
X180480882Y-87336054D01*
X180481118Y-87065135D01*
X180377661Y-86814748D01*
X180186259Y-86623013D01*
X179936054Y-86519118D01*
X179665135Y-86518882D01*
X179543839Y-86569000D01*
X168632166Y-86569000D01*
X168586259Y-86523013D01*
X168336054Y-86419118D01*
X168065135Y-86418882D01*
X167814748Y-86522339D01*
X167623013Y-86713741D01*
X167519118Y-86963946D01*
X167518882Y-87234865D01*
X164771919Y-87234865D01*
X164418205Y-87087990D01*
X163983701Y-87087611D01*
X163582127Y-87253538D01*
X163274618Y-87560511D01*
X163107990Y-87961795D01*
X163107611Y-88396299D01*
X160456000Y-88396299D01*
X160456000Y-83316299D01*
X163107611Y-83316299D01*
X163273538Y-83717873D01*
X163580511Y-84025382D01*
X163981795Y-84192010D01*
X164416299Y-84192389D01*
X164817873Y-84026462D01*
X165125382Y-83719489D01*
X165292010Y-83318205D01*
X165292389Y-82883701D01*
X165126462Y-82482127D01*
X164819489Y-82174618D01*
X164418205Y-82007990D01*
X163983701Y-82007611D01*
X163582127Y-82173538D01*
X163274618Y-82480511D01*
X163107990Y-82881795D01*
X163107611Y-83316299D01*
X160456000Y-83316299D01*
X160456000Y-80044911D01*
X160810145Y-78264505D01*
X161793224Y-76793224D01*
X163264505Y-75810145D01*
X165044911Y-75456000D01*
X204955089Y-75456000D01*
X206735495Y-75810145D01*
G36*
X202394000Y-86523592D02*
X202394000Y-86960281D01*
X202153560Y-87200302D01*
X202150158Y-87208495D01*
X202147311Y-87201605D01*
X201899698Y-86953560D01*
X201576011Y-86819153D01*
X201225527Y-86818847D01*
X200901605Y-86952689D01*
X200653560Y-87200302D01*
X200629890Y-87257305D01*
X200550470Y-87229135D01*
X200079605Y-87700000D01*
X200550470Y-88170865D01*
X200629702Y-88142762D01*
X200652689Y-88198395D01*
X200900302Y-88446440D01*
X201223989Y-88580847D01*
X201574473Y-88581153D01*
X201898395Y-88447311D01*
X202146440Y-88199698D01*
X202149842Y-88191505D01*
X202152689Y-88198395D01*
X202400302Y-88446440D01*
X202723989Y-88580847D01*
X203074473Y-88581153D01*
X203398395Y-88447311D01*
X203646440Y-88199698D01*
X203649842Y-88191505D01*
X203652689Y-88198395D01*
X203866847Y-88412927D01*
X203768362Y-88432517D01*
X203604204Y-88542204D01*
X203042204Y-89104204D01*
X202932517Y-89268362D01*
X202894427Y-89459855D01*
X202653560Y-89700302D01*
X202650158Y-89708495D01*
X202647311Y-89701605D01*
X202399698Y-89453560D01*
X202076011Y-89319153D01*
X201725527Y-89318847D01*
X201401605Y-89452689D01*
X201153560Y-89700302D01*
X201150158Y-89708495D01*
X201147311Y-89701605D01*
X200899698Y-89453560D01*
X200576011Y-89319153D01*
X200225527Y-89318847D01*
X199901605Y-89452689D01*
X199653560Y-89700302D01*
X199650158Y-89708495D01*
X199647311Y-89701605D01*
X199399698Y-89453560D01*
X199076011Y-89319153D01*
X198725527Y-89318847D01*
X198401605Y-89452689D01*
X198153560Y-89700302D01*
X198150158Y-89708495D01*
X198147311Y-89701605D01*
X197899698Y-89453560D01*
X197576011Y-89319153D01*
X197225527Y-89318847D01*
X196901605Y-89452689D01*
X196653560Y-89700302D01*
X196650158Y-89708495D01*
X196647311Y-89701605D01*
X196399698Y-89453560D01*
X196076011Y-89319153D01*
X195725527Y-89318847D01*
X195401605Y-89452689D01*
X195153560Y-89700302D01*
X195150158Y-89708495D01*
X195147311Y-89701605D01*
X194899698Y-89453560D01*
X194576011Y-89319153D01*
X194225527Y-89318847D01*
X193901605Y-89452689D01*
X193653560Y-89700302D01*
X193519153Y-90023989D01*
X193518847Y-90374473D01*
X193652689Y-90698395D01*
X193900302Y-90946440D01*
X194223989Y-91080847D01*
X194574473Y-91081153D01*
X194898395Y-90947311D01*
X195146440Y-90699698D01*
X195149842Y-90691505D01*
X195152689Y-90698395D01*
X195394000Y-90940127D01*
X195394000Y-91090408D01*
X195190408Y-91294000D01*
X194262000Y-91294000D01*
X194068362Y-91332517D01*
X193904204Y-91442204D01*
X192852408Y-92494000D01*
X192114791Y-92494000D01*
X192492395Y-92337977D01*
X193036068Y-91795252D01*
X193330665Y-91085785D01*
X193331335Y-90317585D01*
X193037977Y-89607605D01*
X192495252Y-89063932D01*
X191785785Y-88769335D01*
X191017585Y-88768665D01*
X190307605Y-89062023D01*
X189763932Y-89604748D01*
X189469335Y-90314215D01*
X189468665Y-91082415D01*
X189762023Y-91792395D01*
X190304748Y-92336068D01*
X190685090Y-92494000D01*
X189200000Y-92494000D01*
X189006362Y-92532517D01*
X188998485Y-92537780D01*
X189006000Y-92500000D01*
X188974000Y-92339125D01*
X188974000Y-90379592D01*
X192487592Y-86866000D01*
X193611408Y-86866000D01*
X193401605Y-86952689D01*
X193153560Y-87200302D01*
X193019153Y-87523989D01*
X193018847Y-87874473D01*
X193152689Y-88198395D01*
X193400302Y-88446440D01*
X193723989Y-88580847D01*
X194074473Y-88581153D01*
X194398395Y-88447311D01*
X194646440Y-88199698D01*
X194649842Y-88191505D01*
X194652689Y-88198395D01*
X194900302Y-88446440D01*
X195223989Y-88580847D01*
X195574473Y-88581153D01*
X195898395Y-88447311D01*
X196146440Y-88199698D01*
X196149842Y-88191505D01*
X196152689Y-88198395D01*
X196400302Y-88446440D01*
X196723989Y-88580847D01*
X197074473Y-88581153D01*
X197398395Y-88447311D01*
X197646440Y-88199698D01*
X197649842Y-88191505D01*
X197652689Y-88198395D01*
X197900302Y-88446440D01*
X198223989Y-88580847D01*
X198574473Y-88581153D01*
X198898395Y-88447311D01*
X198995404Y-88350470D01*
X199429135Y-88350470D01*
X199480065Y-88494057D01*
X199815903Y-88594315D01*
X200164544Y-88558422D01*
X200319935Y-88494057D01*
X200370865Y-88350470D01*
X199900000Y-87879605D01*
X199429135Y-88350470D01*
X198995404Y-88350470D01*
X199146440Y-88199698D01*
X199170110Y-88142695D01*
X199249530Y-88170865D01*
X199720395Y-87700000D01*
X199249530Y-87229135D01*
X199170298Y-87257238D01*
X199147311Y-87201605D01*
X198995501Y-87049530D01*
X199429135Y-87049530D01*
X199900000Y-87520395D01*
X200370865Y-87049530D01*
X200319935Y-86905943D01*
X199984097Y-86805685D01*
X199635456Y-86841578D01*
X199480065Y-86905943D01*
X199429135Y-87049530D01*
X198995501Y-87049530D01*
X198899698Y-86953560D01*
X198576011Y-86819153D01*
X198225527Y-86818847D01*
X197901605Y-86952689D01*
X197653560Y-87200302D01*
X197650158Y-87208495D01*
X197647311Y-87201605D01*
X197406000Y-86959873D01*
X197406000Y-86918000D01*
X197367483Y-86724362D01*
X197257796Y-86560204D01*
X196699796Y-86002204D01*
X196535638Y-85892517D01*
X196342000Y-85854000D01*
X192278000Y-85854000D01*
X192084362Y-85892517D01*
X191989048Y-85956204D01*
X191920204Y-86002204D01*
X188110204Y-89812204D01*
X188000517Y-89976362D01*
X187962000Y-90170000D01*
X187962000Y-92322408D01*
X185164000Y-95120408D01*
X185164000Y-92665592D01*
X191979592Y-85850000D01*
X201720408Y-85850000D01*
X202394000Y-86523592D01*
X202394000Y-86523592D01*
G37*
X202394000Y-86523592D02*
X202394000Y-86960281D01*
X202153560Y-87200302D01*
X202150158Y-87208495D01*
X202147311Y-87201605D01*
X201899698Y-86953560D01*
X201576011Y-86819153D01*
X201225527Y-86818847D01*
X200901605Y-86952689D01*
X200653560Y-87200302D01*
X200629890Y-87257305D01*
X200550470Y-87229135D01*
X200079605Y-87700000D01*
X200550470Y-88170865D01*
X200629702Y-88142762D01*
X200652689Y-88198395D01*
X200900302Y-88446440D01*
X201223989Y-88580847D01*
X201574473Y-88581153D01*
X201898395Y-88447311D01*
X202146440Y-88199698D01*
X202149842Y-88191505D01*
X202152689Y-88198395D01*
X202400302Y-88446440D01*
X202723989Y-88580847D01*
X203074473Y-88581153D01*
X203398395Y-88447311D01*
X203646440Y-88199698D01*
X203649842Y-88191505D01*
X203652689Y-88198395D01*
X203866847Y-88412927D01*
X203768362Y-88432517D01*
X203604204Y-88542204D01*
X203042204Y-89104204D01*
X202932517Y-89268362D01*
X202894427Y-89459855D01*
X202653560Y-89700302D01*
X202650158Y-89708495D01*
X202647311Y-89701605D01*
X202399698Y-89453560D01*
X202076011Y-89319153D01*
X201725527Y-89318847D01*
X201401605Y-89452689D01*
X201153560Y-89700302D01*
X201150158Y-89708495D01*
X201147311Y-89701605D01*
X200899698Y-89453560D01*
X200576011Y-89319153D01*
X200225527Y-89318847D01*
X199901605Y-89452689D01*
X199653560Y-89700302D01*
X199650158Y-89708495D01*
X199647311Y-89701605D01*
X199399698Y-89453560D01*
X199076011Y-89319153D01*
X198725527Y-89318847D01*
X198401605Y-89452689D01*
X198153560Y-89700302D01*
X198150158Y-89708495D01*
X198147311Y-89701605D01*
X197899698Y-89453560D01*
X197576011Y-89319153D01*
X197225527Y-89318847D01*
X196901605Y-89452689D01*
X196653560Y-89700302D01*
X196650158Y-89708495D01*
X196647311Y-89701605D01*
X196399698Y-89453560D01*
X196076011Y-89319153D01*
X195725527Y-89318847D01*
X195401605Y-89452689D01*
X195153560Y-89700302D01*
X195150158Y-89708495D01*
X195147311Y-89701605D01*
X194899698Y-89453560D01*
X194576011Y-89319153D01*
X194225527Y-89318847D01*
X193901605Y-89452689D01*
X193653560Y-89700302D01*
X193519153Y-90023989D01*
X193518847Y-90374473D01*
X193652689Y-90698395D01*
X193900302Y-90946440D01*
X194223989Y-91080847D01*
X194574473Y-91081153D01*
X194898395Y-90947311D01*
X195146440Y-90699698D01*
X195149842Y-90691505D01*
X195152689Y-90698395D01*
X195394000Y-90940127D01*
X195394000Y-91090408D01*
X195190408Y-91294000D01*
X194262000Y-91294000D01*
X194068362Y-91332517D01*
X193904204Y-91442204D01*
X192852408Y-92494000D01*
X192114791Y-92494000D01*
X192492395Y-92337977D01*
X193036068Y-91795252D01*
X193330665Y-91085785D01*
X193331335Y-90317585D01*
X193037977Y-89607605D01*
X192495252Y-89063932D01*
X191785785Y-88769335D01*
X191017585Y-88768665D01*
X190307605Y-89062023D01*
X189763932Y-89604748D01*
X189469335Y-90314215D01*
X189468665Y-91082415D01*
X189762023Y-91792395D01*
X190304748Y-92336068D01*
X190685090Y-92494000D01*
X189200000Y-92494000D01*
X189006362Y-92532517D01*
X188998485Y-92537780D01*
X189006000Y-92500000D01*
X188974000Y-92339125D01*
X188974000Y-90379592D01*
X192487592Y-86866000D01*
X193611408Y-86866000D01*
X193401605Y-86952689D01*
X193153560Y-87200302D01*
X193019153Y-87523989D01*
X193018847Y-87874473D01*
X193152689Y-88198395D01*
X193400302Y-88446440D01*
X193723989Y-88580847D01*
X194074473Y-88581153D01*
X194398395Y-88447311D01*
X194646440Y-88199698D01*
X194649842Y-88191505D01*
X194652689Y-88198395D01*
X194900302Y-88446440D01*
X195223989Y-88580847D01*
X195574473Y-88581153D01*
X195898395Y-88447311D01*
X196146440Y-88199698D01*
X196149842Y-88191505D01*
X196152689Y-88198395D01*
X196400302Y-88446440D01*
X196723989Y-88580847D01*
X197074473Y-88581153D01*
X197398395Y-88447311D01*
X197646440Y-88199698D01*
X197649842Y-88191505D01*
X197652689Y-88198395D01*
X197900302Y-88446440D01*
X198223989Y-88580847D01*
X198574473Y-88581153D01*
X198898395Y-88447311D01*
X198995404Y-88350470D01*
X199429135Y-88350470D01*
X199480065Y-88494057D01*
X199815903Y-88594315D01*
X200164544Y-88558422D01*
X200319935Y-88494057D01*
X200370865Y-88350470D01*
X199900000Y-87879605D01*
X199429135Y-88350470D01*
X198995404Y-88350470D01*
X199146440Y-88199698D01*
X199170110Y-88142695D01*
X199249530Y-88170865D01*
X199720395Y-87700000D01*
X199249530Y-87229135D01*
X199170298Y-87257238D01*
X199147311Y-87201605D01*
X198995501Y-87049530D01*
X199429135Y-87049530D01*
X199900000Y-87520395D01*
X200370865Y-87049530D01*
X200319935Y-86905943D01*
X199984097Y-86805685D01*
X199635456Y-86841578D01*
X199480065Y-86905943D01*
X199429135Y-87049530D01*
X198995501Y-87049530D01*
X198899698Y-86953560D01*
X198576011Y-86819153D01*
X198225527Y-86818847D01*
X197901605Y-86952689D01*
X197653560Y-87200302D01*
X197650158Y-87208495D01*
X197647311Y-87201605D01*
X197406000Y-86959873D01*
X197406000Y-86918000D01*
X197367483Y-86724362D01*
X197257796Y-86560204D01*
X196699796Y-86002204D01*
X196535638Y-85892517D01*
X196342000Y-85854000D01*
X192278000Y-85854000D01*
X192084362Y-85892517D01*
X191989048Y-85956204D01*
X191920204Y-86002204D01*
X188110204Y-89812204D01*
X188000517Y-89976362D01*
X187962000Y-90170000D01*
X187962000Y-92322408D01*
X185164000Y-95120408D01*
X185164000Y-92665592D01*
X191979592Y-85850000D01*
X201720408Y-85850000D01*
X202394000Y-86523592D01*
M02*
