M48
;DRILL file {KiCad (2015-11-24 BZR 6329)-product} date Sat 24 Sep 2016 10:27:23 AM EDT
;FORMAT={-:-/ absolute / inch / decimal}
FMAT,2
INCH,TZ
T1C0.016
T2C0.020
T3C0.030
T4C0.039
T5C0.043
T6C0.079
T7C0.098
%
G90
G05
M72
T1
X6.6102Y-3.9252
X6.6142Y-3.7953
X6.622Y-3.4291
X6.6299Y-4.1496
X6.6575Y-4.0039
X6.6969Y-4.3661
X6.7087Y-4.185
X6.7441Y-4.248
X6.7756Y-3.7559
X6.7756Y-4.1339
X6.7835Y-3.5236
X6.7835Y-3.8543
X6.8031Y-3.9134
X6.8189Y-4.0315
X6.8504Y-4.6929
X6.9213Y-4.2677
X6.9803Y-4.0827
X6.9843Y-4.0433
X6.9843Y-4.1654
X7.0709Y-4.1339
X7.0787Y-3.4331
X7.1339Y-3.5039
X7.1575Y-4.6732
X7.185Y-3.878
X7.2047Y-4.
X7.2047Y-4.1102
X7.2205Y-3.8898
X7.2323Y-3.5315
X7.2598Y-3.8898
X7.3268Y-4.3425
X7.437Y-4.063
X7.437Y-4.1772
X7.4646Y-3.689
X7.4921Y-3.8937
X7.4921Y-4.2205
X7.5Y-3.7165
X7.5709Y-3.9764
X7.5709Y-4.0433
X7.5827Y-4.0906
X7.752Y-4.0945
X7.8465Y-3.8661
X7.8701Y-4.5197
X7.9173Y-3.8543
X8.0433Y-3.7323
X8.248Y-3.7323
T2
X7.6339Y-3.4724
X7.6339Y-4.2008
X7.6535Y-3.5709
X7.6535Y-4.2992
X7.6732Y-3.6693
X7.6732Y-4.3976
X7.6929Y-3.4724
X7.6929Y-4.2008
X7.7126Y-3.5709
X7.7126Y-4.2992
X7.7323Y-3.6693
X7.7323Y-4.3976
X7.752Y-3.4724
X7.752Y-4.2008
X7.7717Y-3.5709
X7.7717Y-4.2992
X7.7913Y-3.6693
X7.7913Y-4.3976
X7.811Y-3.4724
X7.811Y-4.2008
X7.8307Y-3.5709
X7.8307Y-4.2992
X7.8504Y-3.6693
X7.8504Y-4.3976
X7.8701Y-3.4724
X7.8701Y-4.2008
X7.8898Y-3.5709
X7.8898Y-4.2992
X7.9094Y-3.6693
X7.9094Y-4.3976
X7.9291Y-3.4724
X7.9291Y-4.2008
X7.9488Y-3.5709
X7.9488Y-4.2992
X7.9685Y-3.6693
X7.9685Y-4.3976
X7.9882Y-3.4724
X7.9882Y-4.2008
X8.0079Y-3.5709
X8.0079Y-4.2992
X8.0276Y-3.6693
X8.0276Y-4.3976
X8.0472Y-3.4724
X8.0472Y-4.2008
X8.0669Y-3.5709
X8.0669Y-4.2992
X8.0866Y-3.6693
X8.0866Y-4.3976
T3
X6.4646Y-3.2717
X6.4646Y-3.4717
T4
X6.4843Y-3.935
X6.4843Y-4.0335
X6.4843Y-4.1126
X6.4843Y-4.2106
T5
X6.4016Y-3.9843
X6.4016Y-4.1614
T6
X7.5354Y-3.5709
X8.185Y-4.2992
T7
X6.4016Y-3.8425
X6.4016Y-4.3031
T0
M30
