G04 #@! TF.FileFunction,Copper,L1,Top,Signal*
%FSLAX46Y46*%
G04 Gerber Fmt 4.6, Leading zero omitted, Abs format (unit mm)*
G04 Created by KiCad (PCBNEW (2015-11-24 BZR 6329)-product) date Sat 24 Sep 2016 10:27:19 AM EDT*
%MOMM*%
G01*
G04 APERTURE LIST*
%ADD10C,0.100000*%
%ADD11R,1.500000X1.250000*%
%ADD12C,1.000000*%
%ADD13C,2.100000*%
%ADD14R,1.250000X1.500000*%
%ADD15C,1.501140*%
%ADD16C,2.999740*%
%ADD17C,1.200000*%
%ADD18R,3.657600X2.032000*%
%ADD19R,1.016000X2.032000*%
%ADD20R,1.500000X0.600000*%
%ADD21R,0.600000X1.500000*%
%ADD22C,1.422400*%
%ADD23R,1.600200X2.600960*%
%ADD24R,0.600000X1.550000*%
%ADD25C,0.600000*%
%ADD26C,0.300000*%
%ADD27C,0.250000*%
%ADD28C,0.400000*%
%ADD29C,0.254000*%
G04 APERTURE END LIST*
D10*
D11*
X197250000Y-118100000D03*
X199750000Y-118100000D03*
D12*
X193900000Y-106700000D03*
X194400000Y-109200000D03*
X194900000Y-111700000D03*
X195400000Y-106700000D03*
X195900000Y-109200000D03*
X196400000Y-111700000D03*
X196900000Y-106700000D03*
X197400000Y-109200000D03*
X197900000Y-111700000D03*
X198400000Y-106700000D03*
X198900000Y-109200000D03*
X199400000Y-111700000D03*
X199900000Y-106700000D03*
X200400000Y-109200000D03*
X200900000Y-111700000D03*
X201400000Y-106700000D03*
X201900000Y-109200000D03*
X202400000Y-111700000D03*
X202900000Y-106700000D03*
X203400000Y-109200000D03*
X203900000Y-111700000D03*
X204400000Y-106700000D03*
X204900000Y-109200000D03*
X205400000Y-111700000D03*
X205400000Y-93200000D03*
X204900000Y-90700000D03*
X204400000Y-88200000D03*
X203900000Y-93200000D03*
X203400000Y-90700000D03*
X202900000Y-88200000D03*
X202400000Y-93200000D03*
X201900000Y-90700000D03*
X201400000Y-88200000D03*
X200900000Y-93200000D03*
X200400000Y-90700000D03*
X199900000Y-88200000D03*
X199400000Y-93200000D03*
X198900000Y-90700000D03*
X198400000Y-88200000D03*
X197900000Y-93200000D03*
X197400000Y-90700000D03*
X196900000Y-88200000D03*
X196400000Y-93200000D03*
X195900000Y-90700000D03*
X195400000Y-88200000D03*
X194900000Y-93200000D03*
X194400000Y-90700000D03*
X193900000Y-88200000D03*
D13*
X191400000Y-90700000D03*
X207900000Y-109200000D03*
D11*
X172994000Y-76740000D03*
X175494000Y-76740000D03*
D14*
X161864000Y-115598000D03*
X161864000Y-118098000D03*
X171600000Y-115550000D03*
X171600000Y-118050000D03*
D11*
X164150000Y-78600000D03*
X161650000Y-78600000D03*
X182050000Y-88100000D03*
X184550000Y-88100000D03*
X164250000Y-92800000D03*
X161750000Y-92800000D03*
X174450000Y-109100000D03*
X171950000Y-109100000D03*
X182250000Y-109100000D03*
X184750000Y-109100000D03*
X197250000Y-115800000D03*
X199750000Y-115800000D03*
D14*
X173900000Y-118050000D03*
X173900000Y-115550000D03*
X181700000Y-117950000D03*
X181700000Y-115450000D03*
D15*
X164700000Y-99950000D03*
X164700000Y-102450000D03*
X164700000Y-104460000D03*
X164700000Y-106950000D03*
D16*
X162600000Y-97600000D03*
X162600000Y-109300000D03*
D17*
X162600000Y-101200000D03*
X162600000Y-105700000D03*
D11*
X178542000Y-87154000D03*
X176042000Y-87154000D03*
D14*
X170180000Y-79768000D03*
X170180000Y-77268000D03*
D11*
X169438000Y-87154000D03*
X171938000Y-87154000D03*
D14*
X169418000Y-85102000D03*
X169418000Y-82602000D03*
D18*
X166690000Y-122182000D03*
D19*
X166690000Y-115578000D03*
X164404000Y-115578000D03*
X168976000Y-115578000D03*
D20*
X170600000Y-93000000D03*
X170600000Y-93800000D03*
X170600000Y-94600000D03*
X170600000Y-95400000D03*
X170600000Y-96200000D03*
X170600000Y-97000000D03*
X170600000Y-97800000D03*
X170600000Y-98600000D03*
X170600000Y-99400000D03*
X170600000Y-100200000D03*
X170600000Y-101000000D03*
X170600000Y-101800000D03*
X170600000Y-102600000D03*
X170600000Y-103400000D03*
X170600000Y-104200000D03*
X170600000Y-105000000D03*
D21*
X172500000Y-106900000D03*
X173300000Y-106900000D03*
X174100000Y-106900000D03*
X174900000Y-106900000D03*
X175700000Y-106900000D03*
X176500000Y-106900000D03*
X177300000Y-106900000D03*
X178100000Y-106900000D03*
X178900000Y-106900000D03*
X179700000Y-106900000D03*
X180500000Y-106900000D03*
X181300000Y-106900000D03*
X182100000Y-106900000D03*
X182900000Y-106900000D03*
X183700000Y-106900000D03*
X184500000Y-106900000D03*
D20*
X186400000Y-105000000D03*
X186400000Y-104200000D03*
X186400000Y-103400000D03*
X186400000Y-102600000D03*
X186400000Y-101800000D03*
X186400000Y-101000000D03*
X186400000Y-100200000D03*
X186400000Y-99400000D03*
X186400000Y-98600000D03*
X186400000Y-97800000D03*
X186400000Y-97000000D03*
X186400000Y-96200000D03*
X186400000Y-95400000D03*
X186400000Y-94600000D03*
X186400000Y-93800000D03*
X186400000Y-93000000D03*
D21*
X184500000Y-91100000D03*
X183700000Y-91100000D03*
X182900000Y-91100000D03*
X182100000Y-91100000D03*
X181300000Y-91100000D03*
X180500000Y-91100000D03*
X179700000Y-91100000D03*
X178900000Y-91100000D03*
X178100000Y-91100000D03*
X177300000Y-91100000D03*
X176500000Y-91100000D03*
X175700000Y-91100000D03*
X174900000Y-91100000D03*
X174100000Y-91100000D03*
X173300000Y-91100000D03*
X172500000Y-91100000D03*
D22*
X164200000Y-83100000D03*
X164200000Y-88180000D03*
D23*
X185400000Y-115899140D03*
X185400000Y-119500860D03*
X177600000Y-115999140D03*
X177600000Y-119600860D03*
D24*
X172339000Y-84774000D03*
X173609000Y-84774000D03*
X174879000Y-84774000D03*
X176149000Y-84774000D03*
X176149000Y-79374000D03*
X174879000Y-79374000D03*
X173609000Y-79374000D03*
X172339000Y-79374000D03*
D25*
X168200000Y-87100000D03*
X179800000Y-87200000D03*
X204300000Y-94800000D03*
X209500000Y-94800000D03*
X199900000Y-114800000D03*
X183700000Y-89700000D03*
X174000000Y-119200000D03*
X181800000Y-118700000D03*
X171300000Y-107900000D03*
X183000000Y-104400000D03*
X168400000Y-105400000D03*
X169100000Y-101700000D03*
X183000000Y-101600000D03*
X181200000Y-89000000D03*
X172300000Y-89500000D03*
X170100000Y-110900000D03*
X172100000Y-95400000D03*
X170400000Y-106300000D03*
X172800000Y-99400000D03*
X172300000Y-97900000D03*
X167900000Y-99700000D03*
X173200000Y-102400000D03*
X168000000Y-96400000D03*
X172100000Y-105000000D03*
X177400000Y-102700000D03*
X192600000Y-103900000D03*
X186100000Y-110300000D03*
X177300000Y-103700000D03*
X175800000Y-108400000D03*
X179600000Y-105000000D03*
X184400000Y-98800000D03*
X189600000Y-93700000D03*
X182500000Y-98500000D03*
X192300000Y-101000000D03*
X177400000Y-105800000D03*
X183400000Y-98800000D03*
X190300000Y-107200000D03*
X192300000Y-102700000D03*
X188900000Y-103200000D03*
X188900000Y-106100000D03*
X190300000Y-98900000D03*
X201100000Y-97900000D03*
X190500000Y-94400000D03*
X199300000Y-98200000D03*
X196900000Y-104000000D03*
D26*
X169418000Y-85102000D02*
X169418000Y-87134000D01*
X169418000Y-87134000D02*
X169438000Y-87154000D01*
X170180000Y-77268000D02*
X169832000Y-77268000D01*
X169832000Y-77268000D02*
X168200000Y-78900000D01*
X168702000Y-85102000D02*
X169418000Y-85102000D01*
X168200000Y-84600000D02*
X168702000Y-85102000D01*
X168200000Y-78900000D02*
X168200000Y-84600000D01*
X172994000Y-76740000D02*
X170708000Y-76740000D01*
X170708000Y-76740000D02*
X170180000Y-77268000D01*
X172339000Y-79374000D02*
X172339000Y-77395000D01*
X172339000Y-77395000D02*
X172994000Y-76740000D01*
X178542000Y-87154000D02*
X179754000Y-87154000D01*
X168254000Y-87154000D02*
X169438000Y-87154000D01*
X168200000Y-87100000D02*
X168254000Y-87154000D01*
X179754000Y-87154000D02*
X179800000Y-87200000D01*
X178900000Y-91100000D02*
X178900000Y-87512000D01*
X178900000Y-87512000D02*
X178542000Y-87154000D01*
X183700000Y-89700000D02*
X179300000Y-89700000D01*
X178900000Y-90100000D02*
X178900000Y-91100000D01*
X179300000Y-89700000D02*
X178900000Y-90100000D01*
X204300000Y-94800000D02*
X209500000Y-94800000D01*
X171600000Y-115550000D02*
X171600000Y-115750000D01*
X171600000Y-115750000D02*
X173900000Y-118050000D01*
X199750000Y-115800000D02*
X199750000Y-114950000D01*
X199750000Y-114950000D02*
X199900000Y-114800000D01*
X187800000Y-122300000D02*
X189200000Y-122300000D01*
X184000000Y-108100000D02*
X183700000Y-107800000D01*
X186800000Y-108100000D02*
X184000000Y-108100000D01*
X189300000Y-110600000D02*
X186800000Y-108100000D01*
X189300000Y-122200000D02*
X189300000Y-110600000D01*
X189200000Y-122300000D02*
X189300000Y-122200000D01*
X183700000Y-107800000D02*
X183700000Y-106900000D01*
X181700000Y-117950000D02*
X181700000Y-119600000D01*
X199750000Y-120750000D02*
X199750000Y-118100000D01*
X198200000Y-122300000D02*
X199750000Y-120750000D01*
X184400000Y-122300000D02*
X187800000Y-122300000D01*
X187800000Y-122300000D02*
X198200000Y-122300000D01*
X181700000Y-119600000D02*
X184400000Y-122300000D01*
X182250000Y-109100000D02*
X174450000Y-109100000D01*
X186400000Y-97800000D02*
X185100000Y-97800000D01*
X183700000Y-96400000D02*
X183700000Y-91100000D01*
X185100000Y-97800000D02*
X183700000Y-96400000D01*
X171600000Y-115550000D02*
X171600000Y-114500000D01*
X171600000Y-114500000D02*
X170400000Y-113300000D01*
X170400000Y-113300000D02*
X167600000Y-113300000D01*
X167600000Y-113300000D02*
X166690000Y-114210000D01*
X166690000Y-114210000D02*
X166690000Y-115578000D01*
X183700000Y-91100000D02*
X183700000Y-89700000D01*
X183700000Y-106900000D02*
X183700000Y-107800000D01*
X183700000Y-107800000D02*
X182400000Y-109100000D01*
D27*
X182400000Y-109100000D02*
X182250000Y-109100000D01*
X174900000Y-106900000D02*
X174900000Y-108250000D01*
X174900000Y-108250000D02*
X174450000Y-108700000D01*
X199750000Y-115800000D02*
X199750000Y-118100000D01*
X199400000Y-115450000D02*
X199750000Y-115800000D01*
D26*
X173900000Y-118050000D02*
X173900000Y-119100000D01*
X173900000Y-119100000D02*
X174000000Y-119200000D01*
X181800000Y-118700000D02*
X181700000Y-118600000D01*
D27*
X181700000Y-118600000D02*
X181700000Y-117950000D01*
X173852000Y-118098000D02*
X173900000Y-118050000D01*
X171496000Y-115578000D02*
X171516000Y-115598000D01*
X171950000Y-109100000D02*
X171950000Y-108550000D01*
X171950000Y-108550000D02*
X171300000Y-107900000D01*
X183900000Y-103500000D02*
X186300000Y-103500000D01*
X183000000Y-104400000D02*
X183900000Y-103500000D01*
X186300000Y-103500000D02*
X186400000Y-103400000D01*
X170600000Y-104200000D02*
X169600000Y-104200000D01*
X169600000Y-104200000D02*
X168400000Y-105400000D01*
D26*
X164404000Y-115578000D02*
X164404000Y-112596000D01*
X164700000Y-112300000D02*
X164700000Y-106950000D01*
X164404000Y-112596000D02*
X164700000Y-112300000D01*
D27*
X164700000Y-106950000D02*
X164740000Y-106950000D01*
D28*
X161864000Y-115598000D02*
X164384000Y-115598000D01*
D27*
X164384000Y-115598000D02*
X164404000Y-115578000D01*
X170200000Y-118050000D02*
X169850000Y-118050000D01*
X168976000Y-117176000D02*
X168976000Y-115578000D01*
X169850000Y-118050000D02*
X168976000Y-117176000D01*
X171600000Y-118050000D02*
X170200000Y-118050000D01*
X170200000Y-118050000D02*
X161912000Y-118050000D01*
X161912000Y-118050000D02*
X161864000Y-118098000D01*
X164150000Y-78600000D02*
X165300000Y-78600000D01*
X168800000Y-93800000D02*
X166700000Y-91700000D01*
X166700000Y-91700000D02*
X166700000Y-90900000D01*
X166700000Y-90900000D02*
X166700000Y-81450000D01*
X168800000Y-93800000D02*
X170600000Y-93800000D01*
X166700000Y-80000000D02*
X166700000Y-81450000D01*
X165300000Y-78600000D02*
X166700000Y-80000000D01*
X164150000Y-78900000D02*
X164150000Y-83050000D01*
X164150000Y-83050000D02*
X164200000Y-83100000D01*
X170600000Y-93800000D02*
X169600000Y-93800000D01*
X172500000Y-91100000D02*
X172500000Y-94200000D01*
X172500000Y-101800000D02*
X170600000Y-101800000D01*
X173900000Y-100400000D02*
X172500000Y-101800000D01*
X173900000Y-95600000D02*
X173900000Y-100400000D01*
X172500000Y-94200000D02*
X173900000Y-95600000D01*
X170600000Y-101800000D02*
X169000000Y-101900000D01*
X169000000Y-101900000D02*
X169100000Y-101800000D01*
X169100000Y-101800000D02*
X169100000Y-101700000D01*
X186400000Y-101800000D02*
X183200000Y-101800000D01*
X183200000Y-101800000D02*
X183000000Y-101600000D01*
X182050000Y-88100000D02*
X182050000Y-88150000D01*
X182050000Y-88150000D02*
X181200000Y-89000000D01*
X172300000Y-89500000D02*
X172500000Y-89700000D01*
X172500000Y-89700000D02*
X172500000Y-91100000D01*
X184500000Y-91100000D02*
X184500000Y-88150000D01*
X184500000Y-88150000D02*
X184550000Y-88100000D01*
X164200000Y-88180000D02*
X164200000Y-92750000D01*
X164200000Y-92750000D02*
X164250000Y-92800000D01*
X170600000Y-94600000D02*
X166050000Y-94600000D01*
X166050000Y-94600000D02*
X164250000Y-92800000D01*
X185400000Y-115899140D02*
X185400000Y-112200000D01*
X184100000Y-110900000D02*
X170100000Y-110900000D01*
X185400000Y-112200000D02*
X184100000Y-110900000D01*
X172100000Y-95400000D02*
X170600000Y-95400000D01*
X181700000Y-115450000D02*
X184950860Y-115450000D01*
X184950860Y-115450000D02*
X185400000Y-115899140D01*
X177600000Y-115999140D02*
X177600000Y-113200000D01*
X168800000Y-107900000D02*
X170400000Y-106300000D01*
X168800000Y-110800000D02*
X168800000Y-107900000D01*
X169900000Y-111900000D02*
X168800000Y-110800000D01*
X176300000Y-111900000D02*
X169900000Y-111900000D01*
X177600000Y-113200000D02*
X176300000Y-111900000D01*
X173900000Y-115550000D02*
X177150860Y-115550000D01*
X177150860Y-115550000D02*
X177600000Y-115999140D01*
X172800000Y-99400000D02*
X170600000Y-99400000D01*
X164700000Y-102450000D02*
X165550000Y-102450000D01*
X167000000Y-100500000D02*
X167100000Y-100500000D01*
X167100000Y-100600000D02*
X167000000Y-100500000D01*
X167100000Y-100900000D02*
X167100000Y-100600000D01*
X165550000Y-102450000D02*
X167100000Y-100900000D01*
X164700000Y-102450000D02*
X164700000Y-102122000D01*
X167100000Y-100700000D02*
X167100000Y-100500000D01*
X167100000Y-100500000D02*
X167100000Y-99300000D01*
X167800000Y-98600000D02*
X170600000Y-98600000D01*
X167100000Y-99300000D02*
X167800000Y-98600000D01*
X164700000Y-104460000D02*
X167006000Y-104394000D01*
X172200000Y-97800000D02*
X170600000Y-97800000D01*
X172300000Y-97900000D02*
X172200000Y-97800000D01*
X167900000Y-103500000D02*
X167900000Y-99700000D01*
X167006000Y-104394000D02*
X167900000Y-103500000D01*
X176042000Y-87154000D02*
X176042000Y-84881000D01*
X176042000Y-84881000D02*
X176149000Y-84774000D01*
X174900000Y-91100000D02*
X174900000Y-89200000D01*
X174700000Y-89000000D02*
X174700000Y-84953000D01*
X174900000Y-89200000D02*
X174700000Y-89000000D01*
X174700000Y-84953000D02*
X174879000Y-84774000D01*
X174879000Y-84774000D02*
X174879000Y-82963000D01*
X171470000Y-81058000D02*
X170180000Y-79768000D01*
X172974000Y-81058000D02*
X171470000Y-81058000D01*
X174879000Y-82963000D02*
X172974000Y-81058000D01*
X173300000Y-91100000D02*
X173300000Y-88516000D01*
X173300000Y-88516000D02*
X171938000Y-87154000D01*
X172339000Y-84774000D02*
X172339000Y-86753000D01*
X172339000Y-86753000D02*
X171938000Y-87154000D01*
X174100000Y-91100000D02*
X174000000Y-91000000D01*
X174000000Y-91000000D02*
X174000000Y-86700000D01*
X173609000Y-86309000D02*
X173609000Y-84774000D01*
X174000000Y-86700000D02*
X173609000Y-86309000D01*
X174055000Y-91055000D02*
X174100000Y-91100000D01*
X173609000Y-84774000D02*
X173609000Y-83471000D01*
X173609000Y-83471000D02*
X172740000Y-82602000D01*
X172740000Y-82602000D02*
X169418000Y-82602000D01*
X170600000Y-103400000D02*
X172200000Y-103400000D01*
X172200000Y-103400000D02*
X173200000Y-102400000D01*
X170600000Y-97000000D02*
X168600000Y-97000000D01*
X168600000Y-97000000D02*
X168000000Y-96400000D01*
X172100000Y-105000000D02*
X170600000Y-105000000D01*
X172500000Y-106900000D02*
X172500000Y-106100000D01*
X176900000Y-102200000D02*
X177400000Y-102700000D01*
X176400000Y-102200000D02*
X176900000Y-102200000D01*
X172500000Y-106100000D02*
X176400000Y-102200000D01*
X173300000Y-109400000D02*
X173300000Y-110000000D01*
X192600000Y-103900000D02*
X202400000Y-94000000D01*
X202400000Y-94000000D02*
X202400000Y-93200000D01*
X186100000Y-110300000D02*
X174300000Y-110300000D01*
X173600000Y-110300000D02*
X174300000Y-110300000D01*
X173300000Y-110000000D02*
X173600000Y-110300000D01*
X173300000Y-106900000D02*
X173300000Y-109400000D01*
X173300000Y-109400000D02*
X173300000Y-109300000D01*
X177300000Y-103700000D02*
X175900000Y-105100000D01*
X175900000Y-105100000D02*
X174500000Y-105100000D01*
X174500000Y-105100000D02*
X174100000Y-105500000D01*
X174100000Y-105500000D02*
X174100000Y-106900000D01*
X197400000Y-90700000D02*
X197400000Y-91300000D01*
X175700000Y-108300000D02*
X175700000Y-106900000D01*
X175800000Y-108400000D02*
X175700000Y-108300000D01*
X179600000Y-103600000D02*
X179600000Y-105000000D01*
X184400000Y-98800000D02*
X179600000Y-103600000D01*
X192100000Y-93700000D02*
X189600000Y-93700000D01*
X193800000Y-92000000D02*
X192100000Y-93700000D01*
X196700000Y-92000000D02*
X193800000Y-92000000D01*
X197400000Y-91300000D02*
X196700000Y-92000000D01*
X182500000Y-98500000D02*
X178200000Y-102800000D01*
X178200000Y-102800000D02*
X178200000Y-104000000D01*
X178200000Y-104000000D02*
X176500000Y-105700000D01*
X176500000Y-105700000D02*
X176500000Y-106900000D01*
X177300000Y-106900000D02*
X177300000Y-105900000D01*
X196400000Y-96900000D02*
X196400000Y-93200000D01*
X192300000Y-101000000D02*
X196400000Y-96900000D01*
X177300000Y-105900000D02*
X177400000Y-105800000D01*
X178100000Y-105200000D02*
X178100000Y-106900000D01*
X178800000Y-104500000D02*
X178100000Y-105200000D01*
X178800000Y-103400000D02*
X178800000Y-104500000D01*
X183400000Y-98800000D02*
X178800000Y-103400000D01*
X190000000Y-106900000D02*
X184500000Y-106900000D01*
X190300000Y-107200000D02*
X190000000Y-106900000D01*
X186400000Y-105000000D02*
X200600000Y-105000000D01*
X201400000Y-105800000D02*
X201400000Y-106700000D01*
X200600000Y-105000000D02*
X201400000Y-105800000D01*
X186400000Y-104200000D02*
X190800000Y-104200000D01*
X190800000Y-104200000D02*
X192300000Y-102700000D01*
X197400000Y-109200000D02*
X197400000Y-109900000D01*
X187800000Y-99400000D02*
X186400000Y-99400000D01*
X188700000Y-100300000D02*
X187800000Y-99400000D01*
X188700000Y-103000000D02*
X188700000Y-100300000D01*
X188900000Y-103200000D02*
X188700000Y-103000000D01*
X190700000Y-106100000D02*
X188900000Y-106100000D01*
X191900000Y-107300000D02*
X190700000Y-106100000D01*
X191900000Y-108900000D02*
X191900000Y-107300000D01*
X193500000Y-110500000D02*
X191900000Y-108900000D01*
X196800000Y-110500000D02*
X193500000Y-110500000D01*
X197400000Y-109900000D02*
X196800000Y-110500000D01*
X202400000Y-111700000D02*
X202400000Y-111000000D01*
X190000000Y-98600000D02*
X186400000Y-98600000D01*
X190300000Y-98900000D02*
X190000000Y-98600000D01*
X207200000Y-104000000D02*
X201100000Y-97900000D01*
X207200000Y-107200000D02*
X207200000Y-104000000D01*
X206400000Y-108000000D02*
X207200000Y-107200000D01*
X206400000Y-109500000D02*
X206400000Y-108000000D01*
X205500000Y-110400000D02*
X206400000Y-109500000D01*
X203000000Y-110400000D02*
X205500000Y-110400000D01*
X202400000Y-111000000D02*
X203000000Y-110400000D01*
X190300000Y-94600000D02*
X186400000Y-94600000D01*
X190500000Y-94400000D02*
X190300000Y-94600000D01*
X199300000Y-101600000D02*
X199300000Y-98200000D01*
X196900000Y-104000000D02*
X199300000Y-101600000D01*
D29*
G36*
X206735495Y-75810145D02*
X208206776Y-76793224D01*
X209189855Y-78264505D01*
X209544000Y-80044911D01*
X209544000Y-94119038D01*
X209365135Y-94118882D01*
X209114748Y-94222339D01*
X209068006Y-94269000D01*
X204732166Y-94269000D01*
X204686259Y-94223013D01*
X204436054Y-94119118D01*
X204165135Y-94118882D01*
X203914748Y-94222339D01*
X203723013Y-94413741D01*
X203619118Y-94663946D01*
X203618882Y-94934865D01*
X203722339Y-95185252D01*
X203913741Y-95376987D01*
X204163946Y-95480882D01*
X204434865Y-95481118D01*
X204685252Y-95377661D01*
X204731994Y-95331000D01*
X209067834Y-95331000D01*
X209113741Y-95376987D01*
X209363946Y-95480882D01*
X209544000Y-95481039D01*
X209544000Y-119955089D01*
X209189855Y-121735495D01*
X208206776Y-123206776D01*
X206735495Y-124189855D01*
X204955089Y-124544000D01*
X165044911Y-124544000D01*
X163264505Y-124189855D01*
X161793224Y-123206776D01*
X160810145Y-121735495D01*
X160696866Y-121166000D01*
X164472736Y-121166000D01*
X164472736Y-123198000D01*
X164499303Y-123339190D01*
X164582746Y-123468865D01*
X164710066Y-123555859D01*
X164861200Y-123586464D01*
X168518800Y-123586464D01*
X168659990Y-123559897D01*
X168789665Y-123476454D01*
X168876659Y-123349134D01*
X168907264Y-123198000D01*
X168907264Y-121166000D01*
X168880697Y-121024810D01*
X168797254Y-120895135D01*
X168669934Y-120808141D01*
X168518800Y-120777536D01*
X164861200Y-120777536D01*
X164720010Y-120804103D01*
X164590335Y-120887546D01*
X164503341Y-121014866D01*
X164472736Y-121166000D01*
X160696866Y-121166000D01*
X160456000Y-119955089D01*
X160456000Y-117348000D01*
X160850536Y-117348000D01*
X160850536Y-118848000D01*
X160877103Y-118989190D01*
X160960546Y-119118865D01*
X161087866Y-119205859D01*
X161239000Y-119236464D01*
X162489000Y-119236464D01*
X162630190Y-119209897D01*
X162759865Y-119126454D01*
X162846859Y-118999134D01*
X162877464Y-118848000D01*
X162877464Y-118556000D01*
X170586536Y-118556000D01*
X170586536Y-118800000D01*
X170613103Y-118941190D01*
X170696546Y-119070865D01*
X170823866Y-119157859D01*
X170975000Y-119188464D01*
X172225000Y-119188464D01*
X172366190Y-119161897D01*
X172495865Y-119078454D01*
X172582859Y-118951134D01*
X172613464Y-118800000D01*
X172613464Y-117514412D01*
X172886536Y-117787484D01*
X172886536Y-118800000D01*
X172913103Y-118941190D01*
X172996546Y-119070865D01*
X173123866Y-119157859D01*
X173275000Y-119188464D01*
X173319010Y-119188464D01*
X173318882Y-119334865D01*
X173422339Y-119585252D01*
X173613741Y-119776987D01*
X173863946Y-119880882D01*
X174134865Y-119881118D01*
X174275256Y-119823110D01*
X176418900Y-119823110D01*
X176418900Y-120977126D01*
X176476904Y-121117160D01*
X176584081Y-121224336D01*
X176724115Y-121282340D01*
X177377750Y-121282340D01*
X177473000Y-121187090D01*
X177473000Y-119727860D01*
X177727000Y-119727860D01*
X177727000Y-121187090D01*
X177822250Y-121282340D01*
X178475885Y-121282340D01*
X178615919Y-121224336D01*
X178723096Y-121117160D01*
X178781100Y-120977126D01*
X178781100Y-119823110D01*
X178685850Y-119727860D01*
X177727000Y-119727860D01*
X177473000Y-119727860D01*
X176514150Y-119727860D01*
X176418900Y-119823110D01*
X174275256Y-119823110D01*
X174385252Y-119777661D01*
X174576987Y-119586259D01*
X174680882Y-119336054D01*
X174681042Y-119152340D01*
X174795865Y-119078454D01*
X174882859Y-118951134D01*
X174913464Y-118800000D01*
X174913464Y-118224594D01*
X176418900Y-118224594D01*
X176418900Y-119378610D01*
X176514150Y-119473860D01*
X177473000Y-119473860D01*
X177473000Y-118014630D01*
X177727000Y-118014630D01*
X177727000Y-119473860D01*
X178685850Y-119473860D01*
X178781100Y-119378610D01*
X178781100Y-118224594D01*
X178723096Y-118084560D01*
X178615919Y-117977384D01*
X178475885Y-117919380D01*
X177822250Y-117919380D01*
X177727000Y-118014630D01*
X177473000Y-118014630D01*
X177377750Y-117919380D01*
X176724115Y-117919380D01*
X176584081Y-117977384D01*
X176476904Y-118084560D01*
X176418900Y-118224594D01*
X174913464Y-118224594D01*
X174913464Y-117300000D01*
X174886897Y-117158810D01*
X174803454Y-117029135D01*
X174676134Y-116942141D01*
X174525000Y-116911536D01*
X173512484Y-116911536D01*
X173289412Y-116688464D01*
X174525000Y-116688464D01*
X174666190Y-116661897D01*
X174795865Y-116578454D01*
X174882859Y-116451134D01*
X174913464Y-116300000D01*
X174913464Y-116056000D01*
X176411436Y-116056000D01*
X176411436Y-117299620D01*
X176438003Y-117440810D01*
X176521446Y-117570485D01*
X176648766Y-117657479D01*
X176799900Y-117688084D01*
X178400100Y-117688084D01*
X178541290Y-117661517D01*
X178670965Y-117578074D01*
X178757959Y-117450754D01*
X178788564Y-117299620D01*
X178788564Y-114698660D01*
X178761997Y-114557470D01*
X178678554Y-114427795D01*
X178551234Y-114340801D01*
X178400100Y-114310196D01*
X178106000Y-114310196D01*
X178106000Y-113200000D01*
X178067483Y-113006362D01*
X177957796Y-112842204D01*
X176657796Y-111542204D01*
X176493638Y-111432517D01*
X176360328Y-111406000D01*
X183890408Y-111406000D01*
X184894000Y-112409592D01*
X184894000Y-114210196D01*
X184599900Y-114210196D01*
X184458710Y-114236763D01*
X184329035Y-114320206D01*
X184242041Y-114447526D01*
X184211436Y-114598660D01*
X184211436Y-114944000D01*
X182713464Y-114944000D01*
X182713464Y-114700000D01*
X182686897Y-114558810D01*
X182603454Y-114429135D01*
X182476134Y-114342141D01*
X182325000Y-114311536D01*
X181075000Y-114311536D01*
X180933810Y-114338103D01*
X180804135Y-114421546D01*
X180717141Y-114548866D01*
X180686536Y-114700000D01*
X180686536Y-116200000D01*
X180713103Y-116341190D01*
X180796546Y-116470865D01*
X180923866Y-116557859D01*
X181075000Y-116588464D01*
X182325000Y-116588464D01*
X182466190Y-116561897D01*
X182595865Y-116478454D01*
X182682859Y-116351134D01*
X182713464Y-116200000D01*
X182713464Y-115956000D01*
X184211436Y-115956000D01*
X184211436Y-117199620D01*
X184238003Y-117340810D01*
X184321446Y-117470485D01*
X184448766Y-117557479D01*
X184599900Y-117588084D01*
X186200100Y-117588084D01*
X186341290Y-117561517D01*
X186470965Y-117478074D01*
X186557959Y-117350754D01*
X186588564Y-117199620D01*
X186588564Y-114598660D01*
X186561997Y-114457470D01*
X186478554Y-114327795D01*
X186351234Y-114240801D01*
X186200100Y-114210196D01*
X185906000Y-114210196D01*
X185906000Y-112200000D01*
X185867483Y-112006362D01*
X185757796Y-111842204D01*
X184721592Y-110806000D01*
X185642877Y-110806000D01*
X185713741Y-110876987D01*
X185963946Y-110980882D01*
X186234865Y-110981118D01*
X186485252Y-110877661D01*
X186676987Y-110686259D01*
X186780882Y-110436054D01*
X186781118Y-110165135D01*
X186677661Y-109914748D01*
X186486259Y-109723013D01*
X186236054Y-109619118D01*
X185965135Y-109618882D01*
X185881000Y-109653646D01*
X185881000Y-109322250D01*
X185785750Y-109227000D01*
X184877000Y-109227000D01*
X184877000Y-109247000D01*
X184623000Y-109247000D01*
X184623000Y-109227000D01*
X183714250Y-109227000D01*
X183619000Y-109322250D01*
X183619000Y-109794000D01*
X183374491Y-109794000D01*
X183388464Y-109725000D01*
X183388464Y-108862484D01*
X183619000Y-108631947D01*
X183619000Y-108877750D01*
X183714250Y-108973000D01*
X184623000Y-108973000D01*
X184623000Y-108953000D01*
X184877000Y-108953000D01*
X184877000Y-108973000D01*
X185785750Y-108973000D01*
X185881000Y-108877750D01*
X185881000Y-108631000D01*
X186580052Y-108631000D01*
X188769000Y-110819948D01*
X188769000Y-121769000D01*
X184619947Y-121769000D01*
X182574058Y-119723110D01*
X184218900Y-119723110D01*
X184218900Y-120877126D01*
X184276904Y-121017160D01*
X184384081Y-121124336D01*
X184524115Y-121182340D01*
X185177750Y-121182340D01*
X185273000Y-121087090D01*
X185273000Y-119627860D01*
X185527000Y-119627860D01*
X185527000Y-121087090D01*
X185622250Y-121182340D01*
X186275885Y-121182340D01*
X186415919Y-121124336D01*
X186523096Y-121017160D01*
X186581100Y-120877126D01*
X186581100Y-119723110D01*
X186485850Y-119627860D01*
X185527000Y-119627860D01*
X185273000Y-119627860D01*
X184314150Y-119627860D01*
X184218900Y-119723110D01*
X182574058Y-119723110D01*
X182231000Y-119380052D01*
X182231000Y-119231992D01*
X182376987Y-119086259D01*
X182380400Y-119078040D01*
X182466190Y-119061897D01*
X182595865Y-118978454D01*
X182682859Y-118851134D01*
X182713464Y-118700000D01*
X182713464Y-118124594D01*
X184218900Y-118124594D01*
X184218900Y-119278610D01*
X184314150Y-119373860D01*
X185273000Y-119373860D01*
X185273000Y-117914630D01*
X185527000Y-117914630D01*
X185527000Y-119373860D01*
X186485850Y-119373860D01*
X186581100Y-119278610D01*
X186581100Y-118124594D01*
X186523096Y-117984560D01*
X186415919Y-117877384D01*
X186275885Y-117819380D01*
X185622250Y-117819380D01*
X185527000Y-117914630D01*
X185273000Y-117914630D01*
X185177750Y-117819380D01*
X184524115Y-117819380D01*
X184384081Y-117877384D01*
X184276904Y-117984560D01*
X184218900Y-118124594D01*
X182713464Y-118124594D01*
X182713464Y-117200000D01*
X182686897Y-117058810D01*
X182603454Y-116929135D01*
X182476134Y-116842141D01*
X182325000Y-116811536D01*
X181075000Y-116811536D01*
X180933810Y-116838103D01*
X180804135Y-116921546D01*
X180717141Y-117048866D01*
X180686536Y-117200000D01*
X180686536Y-118700000D01*
X180713103Y-118841190D01*
X180796546Y-118970865D01*
X180923866Y-119057859D01*
X181075000Y-119088464D01*
X181169000Y-119088464D01*
X181169000Y-119600000D01*
X181209420Y-119803205D01*
X181324526Y-119975474D01*
X184024524Y-122675471D01*
X184024526Y-122675474D01*
X184107627Y-122731000D01*
X184196795Y-122790580D01*
X184400000Y-122831001D01*
X184400005Y-122831000D01*
X198200000Y-122831000D01*
X198403205Y-122790580D01*
X198575474Y-122675474D01*
X200125474Y-121125474D01*
X200240580Y-120953205D01*
X200281000Y-120750000D01*
X200281000Y-119113464D01*
X200500000Y-119113464D01*
X200641190Y-119086897D01*
X200770865Y-119003454D01*
X200857859Y-118876134D01*
X200888464Y-118725000D01*
X200888464Y-117475000D01*
X200861897Y-117333810D01*
X200778454Y-117204135D01*
X200651134Y-117117141D01*
X200500000Y-117086536D01*
X200256000Y-117086536D01*
X200256000Y-116813464D01*
X200500000Y-116813464D01*
X200641190Y-116786897D01*
X200770865Y-116703454D01*
X200857859Y-116576134D01*
X200888464Y-116425000D01*
X200888464Y-115175000D01*
X200861897Y-115033810D01*
X200778454Y-114904135D01*
X200651134Y-114817141D01*
X200580998Y-114802938D01*
X200581118Y-114665135D01*
X200477661Y-114414748D01*
X200286259Y-114223013D01*
X200036054Y-114119118D01*
X199765135Y-114118882D01*
X199514748Y-114222339D01*
X199323013Y-114413741D01*
X199219118Y-114663946D01*
X199219011Y-114786536D01*
X199000000Y-114786536D01*
X198858810Y-114813103D01*
X198729135Y-114896546D01*
X198642141Y-115023866D01*
X198611536Y-115175000D01*
X198611536Y-116425000D01*
X198638103Y-116566190D01*
X198721546Y-116695865D01*
X198848866Y-116782859D01*
X199000000Y-116813464D01*
X199244000Y-116813464D01*
X199244000Y-117086536D01*
X199000000Y-117086536D01*
X198858810Y-117113103D01*
X198729135Y-117196546D01*
X198642141Y-117323866D01*
X198611536Y-117475000D01*
X198611536Y-118725000D01*
X198638103Y-118866190D01*
X198721546Y-118995865D01*
X198848866Y-119082859D01*
X199000000Y-119113464D01*
X199219000Y-119113464D01*
X199219000Y-120530052D01*
X197980052Y-121769000D01*
X189831000Y-121769000D01*
X189831000Y-118322250D01*
X196119000Y-118322250D01*
X196119000Y-118800785D01*
X196177004Y-118940819D01*
X196284180Y-119047996D01*
X196424214Y-119106000D01*
X197027750Y-119106000D01*
X197123000Y-119010750D01*
X197123000Y-118227000D01*
X197377000Y-118227000D01*
X197377000Y-119010750D01*
X197472250Y-119106000D01*
X198075786Y-119106000D01*
X198215820Y-119047996D01*
X198322996Y-118940819D01*
X198381000Y-118800785D01*
X198381000Y-118322250D01*
X198285750Y-118227000D01*
X197377000Y-118227000D01*
X197123000Y-118227000D01*
X196214250Y-118227000D01*
X196119000Y-118322250D01*
X189831000Y-118322250D01*
X189831000Y-117399215D01*
X196119000Y-117399215D01*
X196119000Y-117877750D01*
X196214250Y-117973000D01*
X197123000Y-117973000D01*
X197123000Y-117189250D01*
X197377000Y-117189250D01*
X197377000Y-117973000D01*
X198285750Y-117973000D01*
X198381000Y-117877750D01*
X198381000Y-117399215D01*
X198322996Y-117259181D01*
X198215820Y-117152004D01*
X198075786Y-117094000D01*
X197472250Y-117094000D01*
X197377000Y-117189250D01*
X197123000Y-117189250D01*
X197027750Y-117094000D01*
X196424214Y-117094000D01*
X196284180Y-117152004D01*
X196177004Y-117259181D01*
X196119000Y-117399215D01*
X189831000Y-117399215D01*
X189831000Y-116022250D01*
X196119000Y-116022250D01*
X196119000Y-116500785D01*
X196177004Y-116640819D01*
X196284180Y-116747996D01*
X196424214Y-116806000D01*
X197027750Y-116806000D01*
X197123000Y-116710750D01*
X197123000Y-115927000D01*
X197377000Y-115927000D01*
X197377000Y-116710750D01*
X197472250Y-116806000D01*
X198075786Y-116806000D01*
X198215820Y-116747996D01*
X198322996Y-116640819D01*
X198381000Y-116500785D01*
X198381000Y-116022250D01*
X198285750Y-115927000D01*
X197377000Y-115927000D01*
X197123000Y-115927000D01*
X196214250Y-115927000D01*
X196119000Y-116022250D01*
X189831000Y-116022250D01*
X189831000Y-115099215D01*
X196119000Y-115099215D01*
X196119000Y-115577750D01*
X196214250Y-115673000D01*
X197123000Y-115673000D01*
X197123000Y-114889250D01*
X197377000Y-114889250D01*
X197377000Y-115673000D01*
X198285750Y-115673000D01*
X198381000Y-115577750D01*
X198381000Y-115099215D01*
X198322996Y-114959181D01*
X198215820Y-114852004D01*
X198075786Y-114794000D01*
X197472250Y-114794000D01*
X197377000Y-114889250D01*
X197123000Y-114889250D01*
X197027750Y-114794000D01*
X196424214Y-114794000D01*
X196284180Y-114852004D01*
X196177004Y-114959181D01*
X196119000Y-115099215D01*
X189831000Y-115099215D01*
X189831000Y-110600000D01*
X189790580Y-110396795D01*
X189675474Y-110224526D01*
X187175474Y-107724526D01*
X187003205Y-107609420D01*
X186800000Y-107569000D01*
X185188464Y-107569000D01*
X185188464Y-107406000D01*
X189648274Y-107406000D01*
X189722339Y-107585252D01*
X189913741Y-107776987D01*
X190163946Y-107880882D01*
X190434865Y-107881118D01*
X190685252Y-107777661D01*
X190876987Y-107586259D01*
X190980882Y-107336054D01*
X190981091Y-107096683D01*
X191394000Y-107509592D01*
X191394000Y-108900000D01*
X191432517Y-109093638D01*
X191542204Y-109257796D01*
X193142204Y-110857796D01*
X193306362Y-110967483D01*
X193500000Y-111006000D01*
X194348201Y-111006000D01*
X194153560Y-111200302D01*
X194019153Y-111523989D01*
X194018847Y-111874473D01*
X194152689Y-112198395D01*
X194400302Y-112446440D01*
X194723989Y-112580847D01*
X195074473Y-112581153D01*
X195398395Y-112447311D01*
X195646440Y-112199698D01*
X195649842Y-112191505D01*
X195652689Y-112198395D01*
X195900302Y-112446440D01*
X196223989Y-112580847D01*
X196574473Y-112581153D01*
X196898395Y-112447311D01*
X196995404Y-112350470D01*
X197429135Y-112350470D01*
X197480065Y-112494057D01*
X197815903Y-112594315D01*
X198164544Y-112558422D01*
X198319935Y-112494057D01*
X198370865Y-112350470D01*
X197900000Y-111879605D01*
X197429135Y-112350470D01*
X196995404Y-112350470D01*
X197146440Y-112199698D01*
X197170110Y-112142695D01*
X197249530Y-112170865D01*
X197720395Y-111700000D01*
X197249530Y-111229135D01*
X197170298Y-111257238D01*
X197147311Y-111201605D01*
X196995501Y-111049530D01*
X197429135Y-111049530D01*
X197900000Y-111520395D01*
X198370865Y-111049530D01*
X198319935Y-110905943D01*
X197984097Y-110805685D01*
X197635456Y-110841578D01*
X197480065Y-110905943D01*
X197429135Y-111049530D01*
X196995501Y-111049530D01*
X196926857Y-110980767D01*
X196993638Y-110967483D01*
X197157796Y-110857796D01*
X197757796Y-110257796D01*
X197867483Y-110093638D01*
X197896428Y-109948124D01*
X197898395Y-109947311D01*
X198146440Y-109699698D01*
X198149842Y-109691505D01*
X198152689Y-109698395D01*
X198400302Y-109946440D01*
X198723989Y-110080847D01*
X199074473Y-110081153D01*
X199398395Y-109947311D01*
X199646440Y-109699698D01*
X199649842Y-109691505D01*
X199652689Y-109698395D01*
X199900302Y-109946440D01*
X200223989Y-110080847D01*
X200574473Y-110081153D01*
X200898395Y-109947311D01*
X201146440Y-109699698D01*
X201149842Y-109691505D01*
X201152689Y-109698395D01*
X201400302Y-109946440D01*
X201723989Y-110080847D01*
X202074473Y-110081153D01*
X202398395Y-109947311D01*
X202646440Y-109699698D01*
X202649842Y-109691505D01*
X202652689Y-109698395D01*
X202873143Y-109919233D01*
X202806362Y-109932517D01*
X202642204Y-110042204D01*
X202042204Y-110642204D01*
X201932517Y-110806362D01*
X201903572Y-110951876D01*
X201901605Y-110952689D01*
X201653560Y-111200302D01*
X201650158Y-111208495D01*
X201647311Y-111201605D01*
X201399698Y-110953560D01*
X201076011Y-110819153D01*
X200725527Y-110818847D01*
X200401605Y-110952689D01*
X200153560Y-111200302D01*
X200150158Y-111208495D01*
X200147311Y-111201605D01*
X199899698Y-110953560D01*
X199576011Y-110819153D01*
X199225527Y-110818847D01*
X198901605Y-110952689D01*
X198653560Y-111200302D01*
X198629890Y-111257305D01*
X198550470Y-111229135D01*
X198079605Y-111700000D01*
X198550470Y-112170865D01*
X198629702Y-112142762D01*
X198652689Y-112198395D01*
X198900302Y-112446440D01*
X199223989Y-112580847D01*
X199574473Y-112581153D01*
X199898395Y-112447311D01*
X200146440Y-112199698D01*
X200149842Y-112191505D01*
X200152689Y-112198395D01*
X200400302Y-112446440D01*
X200723989Y-112580847D01*
X201074473Y-112581153D01*
X201398395Y-112447311D01*
X201646440Y-112199698D01*
X201649842Y-112191505D01*
X201652689Y-112198395D01*
X201900302Y-112446440D01*
X202223989Y-112580847D01*
X202574473Y-112581153D01*
X202898395Y-112447311D01*
X203146440Y-112199698D01*
X203149842Y-112191505D01*
X203152689Y-112198395D01*
X203400302Y-112446440D01*
X203723989Y-112580847D01*
X204074473Y-112581153D01*
X204398395Y-112447311D01*
X204646440Y-112199698D01*
X204649842Y-112191505D01*
X204652689Y-112198395D01*
X204900302Y-112446440D01*
X205223989Y-112580847D01*
X205574473Y-112581153D01*
X205898395Y-112447311D01*
X206146440Y-112199698D01*
X206280847Y-111876011D01*
X206281153Y-111525527D01*
X206147311Y-111201605D01*
X205899698Y-110953560D01*
X205692802Y-110867649D01*
X205693638Y-110867483D01*
X205857796Y-110757796D01*
X206662732Y-109952860D01*
X206686150Y-110009537D01*
X207088345Y-110412435D01*
X207614108Y-110630751D01*
X208183395Y-110631248D01*
X208709537Y-110413850D01*
X209112435Y-110011655D01*
X209330751Y-109485892D01*
X209331248Y-108916605D01*
X209113850Y-108390463D01*
X208711655Y-107987565D01*
X208185892Y-107769249D01*
X207616605Y-107768752D01*
X207156889Y-107958703D01*
X207557796Y-107557796D01*
X207667483Y-107393638D01*
X207706000Y-107200000D01*
X207706000Y-104000000D01*
X207667483Y-103806362D01*
X207557796Y-103642204D01*
X201781031Y-97865439D01*
X201781118Y-97765135D01*
X201677661Y-97514748D01*
X201486259Y-97323013D01*
X201236054Y-97219118D01*
X200965135Y-97218882D01*
X200714748Y-97322339D01*
X200523013Y-97513741D01*
X200419118Y-97763946D01*
X200418882Y-98034865D01*
X200522339Y-98285252D01*
X200713741Y-98476987D01*
X200963946Y-98580882D01*
X201065378Y-98580970D01*
X206694000Y-104209592D01*
X206694000Y-106990408D01*
X206042204Y-107642204D01*
X205932517Y-107806362D01*
X205894000Y-108000000D01*
X205894000Y-109290408D01*
X205761284Y-109423124D01*
X205780847Y-109376011D01*
X205781153Y-109025527D01*
X205647311Y-108701605D01*
X205399698Y-108453560D01*
X205076011Y-108319153D01*
X204725527Y-108318847D01*
X204401605Y-108452689D01*
X204153560Y-108700302D01*
X204150158Y-108708495D01*
X204147311Y-108701605D01*
X203899698Y-108453560D01*
X203576011Y-108319153D01*
X203225527Y-108318847D01*
X202901605Y-108452689D01*
X202653560Y-108700302D01*
X202650158Y-108708495D01*
X202647311Y-108701605D01*
X202399698Y-108453560D01*
X202076011Y-108319153D01*
X201725527Y-108318847D01*
X201401605Y-108452689D01*
X201153560Y-108700302D01*
X201150158Y-108708495D01*
X201147311Y-108701605D01*
X200899698Y-108453560D01*
X200576011Y-108319153D01*
X200225527Y-108318847D01*
X199901605Y-108452689D01*
X199653560Y-108700302D01*
X199650158Y-108708495D01*
X199647311Y-108701605D01*
X199399698Y-108453560D01*
X199076011Y-108319153D01*
X198725527Y-108318847D01*
X198401605Y-108452689D01*
X198153560Y-108700302D01*
X198150158Y-108708495D01*
X198147311Y-108701605D01*
X197899698Y-108453560D01*
X197576011Y-108319153D01*
X197225527Y-108318847D01*
X196901605Y-108452689D01*
X196653560Y-108700302D01*
X196650158Y-108708495D01*
X196647311Y-108701605D01*
X196399698Y-108453560D01*
X196076011Y-108319153D01*
X195725527Y-108318847D01*
X195401605Y-108452689D01*
X195153560Y-108700302D01*
X195150158Y-108708495D01*
X195147311Y-108701605D01*
X194899698Y-108453560D01*
X194576011Y-108319153D01*
X194225527Y-108318847D01*
X193901605Y-108452689D01*
X193653560Y-108700302D01*
X193519153Y-109023989D01*
X193518847Y-109374473D01*
X193652689Y-109698395D01*
X193900302Y-109946440D01*
X194014839Y-109994000D01*
X193709592Y-109994000D01*
X192406000Y-108690408D01*
X192406000Y-107300000D01*
X192367483Y-107106362D01*
X192257796Y-106942204D01*
X192190065Y-106874473D01*
X193018847Y-106874473D01*
X193152689Y-107198395D01*
X193400302Y-107446440D01*
X193723989Y-107580847D01*
X194074473Y-107581153D01*
X194398395Y-107447311D01*
X194646440Y-107199698D01*
X194649842Y-107191505D01*
X194652689Y-107198395D01*
X194900302Y-107446440D01*
X195223989Y-107580847D01*
X195574473Y-107581153D01*
X195898395Y-107447311D01*
X196146440Y-107199698D01*
X196149842Y-107191505D01*
X196152689Y-107198395D01*
X196400302Y-107446440D01*
X196723989Y-107580847D01*
X197074473Y-107581153D01*
X197398395Y-107447311D01*
X197646440Y-107199698D01*
X197649842Y-107191505D01*
X197652689Y-107198395D01*
X197900302Y-107446440D01*
X198223989Y-107580847D01*
X198574473Y-107581153D01*
X198898395Y-107447311D01*
X198995404Y-107350470D01*
X199429135Y-107350470D01*
X199480065Y-107494057D01*
X199815903Y-107594315D01*
X200164544Y-107558422D01*
X200319935Y-107494057D01*
X200370865Y-107350470D01*
X199900000Y-106879605D01*
X199429135Y-107350470D01*
X198995404Y-107350470D01*
X199146440Y-107199698D01*
X199170110Y-107142695D01*
X199249530Y-107170865D01*
X199720395Y-106700000D01*
X199249530Y-106229135D01*
X199170298Y-106257238D01*
X199147311Y-106201605D01*
X198995501Y-106049530D01*
X199429135Y-106049530D01*
X199900000Y-106520395D01*
X200370865Y-106049530D01*
X200319935Y-105905943D01*
X199984097Y-105805685D01*
X199635456Y-105841578D01*
X199480065Y-105905943D01*
X199429135Y-106049530D01*
X198995501Y-106049530D01*
X198899698Y-105953560D01*
X198576011Y-105819153D01*
X198225527Y-105818847D01*
X197901605Y-105952689D01*
X197653560Y-106200302D01*
X197650158Y-106208495D01*
X197647311Y-106201605D01*
X197399698Y-105953560D01*
X197076011Y-105819153D01*
X196725527Y-105818847D01*
X196401605Y-105952689D01*
X196153560Y-106200302D01*
X196150158Y-106208495D01*
X196147311Y-106201605D01*
X195899698Y-105953560D01*
X195576011Y-105819153D01*
X195225527Y-105818847D01*
X194901605Y-105952689D01*
X194653560Y-106200302D01*
X194650158Y-106208495D01*
X194647311Y-106201605D01*
X194399698Y-105953560D01*
X194076011Y-105819153D01*
X193725527Y-105818847D01*
X193401605Y-105952689D01*
X193153560Y-106200302D01*
X193019153Y-106523989D01*
X193018847Y-106874473D01*
X192190065Y-106874473D01*
X191057796Y-105742204D01*
X190893638Y-105632517D01*
X190700000Y-105594000D01*
X189357123Y-105594000D01*
X189286259Y-105523013D01*
X189245287Y-105506000D01*
X200390408Y-105506000D01*
X200869323Y-105984915D01*
X200653560Y-106200302D01*
X200629890Y-106257305D01*
X200550470Y-106229135D01*
X200079605Y-106700000D01*
X200550470Y-107170865D01*
X200629702Y-107142762D01*
X200652689Y-107198395D01*
X200900302Y-107446440D01*
X201223989Y-107580847D01*
X201574473Y-107581153D01*
X201898395Y-107447311D01*
X202146440Y-107199698D01*
X202149842Y-107191505D01*
X202152689Y-107198395D01*
X202400302Y-107446440D01*
X202723989Y-107580847D01*
X203074473Y-107581153D01*
X203398395Y-107447311D01*
X203646440Y-107199698D01*
X203649842Y-107191505D01*
X203652689Y-107198395D01*
X203900302Y-107446440D01*
X204223989Y-107580847D01*
X204574473Y-107581153D01*
X204898395Y-107447311D01*
X205146440Y-107199698D01*
X205280847Y-106876011D01*
X205281153Y-106525527D01*
X205147311Y-106201605D01*
X204899698Y-105953560D01*
X204576011Y-105819153D01*
X204225527Y-105818847D01*
X203901605Y-105952689D01*
X203653560Y-106200302D01*
X203650158Y-106208495D01*
X203647311Y-106201605D01*
X203399698Y-105953560D01*
X203076011Y-105819153D01*
X202725527Y-105818847D01*
X202401605Y-105952689D01*
X202153560Y-106200302D01*
X202150158Y-106208495D01*
X202147311Y-106201605D01*
X201906000Y-105959873D01*
X201906000Y-105800000D01*
X201867483Y-105606362D01*
X201757796Y-105442204D01*
X200957796Y-104642204D01*
X200793638Y-104532517D01*
X200600000Y-104494000D01*
X197369059Y-104494000D01*
X197476987Y-104386259D01*
X197580882Y-104136054D01*
X197580970Y-104034622D01*
X199657796Y-101957796D01*
X199735032Y-101842204D01*
X199767483Y-101793638D01*
X199806000Y-101600000D01*
X199806000Y-98657123D01*
X199876987Y-98586259D01*
X199980882Y-98336054D01*
X199981118Y-98065135D01*
X199877661Y-97814748D01*
X199686259Y-97623013D01*
X199572380Y-97575726D01*
X202759608Y-94355975D01*
X202813341Y-94274667D01*
X202867483Y-94193638D01*
X202867738Y-94192354D01*
X202868460Y-94191262D01*
X202886980Y-94095620D01*
X202906000Y-94000000D01*
X202906000Y-93939719D01*
X203146440Y-93699698D01*
X203149842Y-93691505D01*
X203152689Y-93698395D01*
X203400302Y-93946440D01*
X203723989Y-94080847D01*
X204074473Y-94081153D01*
X204398395Y-93947311D01*
X204646440Y-93699698D01*
X204649842Y-93691505D01*
X204652689Y-93698395D01*
X204900302Y-93946440D01*
X205223989Y-94080847D01*
X205574473Y-94081153D01*
X205898395Y-93947311D01*
X206146440Y-93699698D01*
X206280847Y-93376011D01*
X206281153Y-93025527D01*
X206147311Y-92701605D01*
X205899698Y-92453560D01*
X205576011Y-92319153D01*
X205225527Y-92318847D01*
X204901605Y-92452689D01*
X204653560Y-92700302D01*
X204650158Y-92708495D01*
X204647311Y-92701605D01*
X204399698Y-92453560D01*
X204076011Y-92319153D01*
X203725527Y-92318847D01*
X203401605Y-92452689D01*
X203153560Y-92700302D01*
X203150158Y-92708495D01*
X203147311Y-92701605D01*
X202899698Y-92453560D01*
X202576011Y-92319153D01*
X202225527Y-92318847D01*
X201901605Y-92452689D01*
X201653560Y-92700302D01*
X201650158Y-92708495D01*
X201647311Y-92701605D01*
X201399698Y-92453560D01*
X201076011Y-92319153D01*
X200725527Y-92318847D01*
X200401605Y-92452689D01*
X200153560Y-92700302D01*
X200150158Y-92708495D01*
X200147311Y-92701605D01*
X199899698Y-92453560D01*
X199576011Y-92319153D01*
X199225527Y-92318847D01*
X198901605Y-92452689D01*
X198653560Y-92700302D01*
X198650158Y-92708495D01*
X198647311Y-92701605D01*
X198399698Y-92453560D01*
X198076011Y-92319153D01*
X197725527Y-92318847D01*
X197401605Y-92452689D01*
X197153560Y-92700302D01*
X197150158Y-92708495D01*
X197147311Y-92701605D01*
X196905611Y-92459483D01*
X197057796Y-92357796D01*
X197757796Y-91657796D01*
X197867483Y-91493638D01*
X197874755Y-91457079D01*
X197898395Y-91447311D01*
X198146440Y-91199698D01*
X198149842Y-91191505D01*
X198152689Y-91198395D01*
X198400302Y-91446440D01*
X198723989Y-91580847D01*
X199074473Y-91581153D01*
X199398395Y-91447311D01*
X199646440Y-91199698D01*
X199649842Y-91191505D01*
X199652689Y-91198395D01*
X199900302Y-91446440D01*
X200223989Y-91580847D01*
X200574473Y-91581153D01*
X200898395Y-91447311D01*
X201146440Y-91199698D01*
X201149842Y-91191505D01*
X201152689Y-91198395D01*
X201400302Y-91446440D01*
X201723989Y-91580847D01*
X202074473Y-91581153D01*
X202398395Y-91447311D01*
X202646440Y-91199698D01*
X202649842Y-91191505D01*
X202652689Y-91198395D01*
X202900302Y-91446440D01*
X203223989Y-91580847D01*
X203574473Y-91581153D01*
X203898395Y-91447311D01*
X204146440Y-91199698D01*
X204149842Y-91191505D01*
X204152689Y-91198395D01*
X204400302Y-91446440D01*
X204723989Y-91580847D01*
X205074473Y-91581153D01*
X205398395Y-91447311D01*
X205646440Y-91199698D01*
X205780847Y-90876011D01*
X205781153Y-90525527D01*
X205647311Y-90201605D01*
X205399698Y-89953560D01*
X205076011Y-89819153D01*
X204725527Y-89818847D01*
X204401605Y-89952689D01*
X204153560Y-90200302D01*
X204150158Y-90208495D01*
X204147311Y-90201605D01*
X203899698Y-89953560D01*
X203576011Y-89819153D01*
X203225527Y-89818847D01*
X202901605Y-89952689D01*
X202653560Y-90200302D01*
X202650158Y-90208495D01*
X202647311Y-90201605D01*
X202399698Y-89953560D01*
X202076011Y-89819153D01*
X201725527Y-89818847D01*
X201401605Y-89952689D01*
X201153560Y-90200302D01*
X201150158Y-90208495D01*
X201147311Y-90201605D01*
X200899698Y-89953560D01*
X200576011Y-89819153D01*
X200225527Y-89818847D01*
X199901605Y-89952689D01*
X199653560Y-90200302D01*
X199650158Y-90208495D01*
X199647311Y-90201605D01*
X199399698Y-89953560D01*
X199076011Y-89819153D01*
X198725527Y-89818847D01*
X198401605Y-89952689D01*
X198153560Y-90200302D01*
X198150158Y-90208495D01*
X198147311Y-90201605D01*
X197899698Y-89953560D01*
X197576011Y-89819153D01*
X197225527Y-89818847D01*
X196901605Y-89952689D01*
X196653560Y-90200302D01*
X196650158Y-90208495D01*
X196647311Y-90201605D01*
X196399698Y-89953560D01*
X196076011Y-89819153D01*
X195725527Y-89818847D01*
X195401605Y-89952689D01*
X195153560Y-90200302D01*
X195150158Y-90208495D01*
X195147311Y-90201605D01*
X194899698Y-89953560D01*
X194576011Y-89819153D01*
X194225527Y-89818847D01*
X193901605Y-89952689D01*
X193653560Y-90200302D01*
X193519153Y-90523989D01*
X193518847Y-90874473D01*
X193652689Y-91198395D01*
X193900302Y-91446440D01*
X194014839Y-91494000D01*
X193800000Y-91494000D01*
X193606362Y-91532517D01*
X193442204Y-91642204D01*
X191890408Y-93194000D01*
X190057123Y-93194000D01*
X189986259Y-93123013D01*
X189736054Y-93019118D01*
X189465135Y-93018882D01*
X189214748Y-93122339D01*
X189023013Y-93313741D01*
X188919118Y-93563946D01*
X188918882Y-93834865D01*
X189022339Y-94085252D01*
X189031072Y-94094000D01*
X187531000Y-94094000D01*
X187531000Y-94022250D01*
X187435750Y-93927000D01*
X187226365Y-93927000D01*
X187150000Y-93911536D01*
X185650000Y-93911536D01*
X185567817Y-93927000D01*
X185364250Y-93927000D01*
X185269000Y-94022250D01*
X185269000Y-94175785D01*
X185280881Y-94204469D01*
X185261536Y-94300000D01*
X185261536Y-94900000D01*
X185281043Y-95003670D01*
X185261536Y-95100000D01*
X185261536Y-95700000D01*
X185281043Y-95803670D01*
X185261536Y-95900000D01*
X185261536Y-96500000D01*
X185281043Y-96603670D01*
X185261536Y-96700000D01*
X185261536Y-97210588D01*
X184231000Y-96180052D01*
X184231000Y-92700000D01*
X185261536Y-92700000D01*
X185261536Y-93300000D01*
X185279939Y-93397805D01*
X185269000Y-93424215D01*
X185269000Y-93577750D01*
X185364250Y-93673000D01*
X185573635Y-93673000D01*
X185650000Y-93688464D01*
X187150000Y-93688464D01*
X187232183Y-93673000D01*
X187435750Y-93673000D01*
X187531000Y-93577750D01*
X187531000Y-93424215D01*
X187519119Y-93395531D01*
X187538464Y-93300000D01*
X187538464Y-92700000D01*
X187511897Y-92558810D01*
X187428454Y-92429135D01*
X187301134Y-92342141D01*
X187150000Y-92311536D01*
X185650000Y-92311536D01*
X185508810Y-92338103D01*
X185379135Y-92421546D01*
X185292141Y-92548866D01*
X185261536Y-92700000D01*
X184231000Y-92700000D01*
X184231000Y-92238464D01*
X184800000Y-92238464D01*
X184941190Y-92211897D01*
X185070865Y-92128454D01*
X185157859Y-92001134D01*
X185188464Y-91850000D01*
X185188464Y-90983395D01*
X189968752Y-90983395D01*
X190186150Y-91509537D01*
X190588345Y-91912435D01*
X191114108Y-92130751D01*
X191683395Y-92131248D01*
X192209537Y-91913850D01*
X192612435Y-91511655D01*
X192830751Y-90985892D01*
X192831248Y-90416605D01*
X192613850Y-89890463D01*
X192211655Y-89487565D01*
X191685892Y-89269249D01*
X191116605Y-89268752D01*
X190590463Y-89486150D01*
X190187565Y-89888345D01*
X189969249Y-90414108D01*
X189968752Y-90983395D01*
X185188464Y-90983395D01*
X185188464Y-90350000D01*
X185161897Y-90208810D01*
X185078454Y-90079135D01*
X185006000Y-90029629D01*
X185006000Y-89113464D01*
X185300000Y-89113464D01*
X185441190Y-89086897D01*
X185570865Y-89003454D01*
X185657859Y-88876134D01*
X185688464Y-88725000D01*
X185688464Y-88374473D01*
X193018847Y-88374473D01*
X193152689Y-88698395D01*
X193400302Y-88946440D01*
X193723989Y-89080847D01*
X194074473Y-89081153D01*
X194398395Y-88947311D01*
X194646440Y-88699698D01*
X194649842Y-88691505D01*
X194652689Y-88698395D01*
X194900302Y-88946440D01*
X195223989Y-89080847D01*
X195574473Y-89081153D01*
X195898395Y-88947311D01*
X196146440Y-88699698D01*
X196149842Y-88691505D01*
X196152689Y-88698395D01*
X196400302Y-88946440D01*
X196723989Y-89080847D01*
X197074473Y-89081153D01*
X197398395Y-88947311D01*
X197646440Y-88699698D01*
X197649842Y-88691505D01*
X197652689Y-88698395D01*
X197900302Y-88946440D01*
X198223989Y-89080847D01*
X198574473Y-89081153D01*
X198898395Y-88947311D01*
X198995404Y-88850470D01*
X199429135Y-88850470D01*
X199480065Y-88994057D01*
X199815903Y-89094315D01*
X200164544Y-89058422D01*
X200319935Y-88994057D01*
X200370865Y-88850470D01*
X199900000Y-88379605D01*
X199429135Y-88850470D01*
X198995404Y-88850470D01*
X199146440Y-88699698D01*
X199170110Y-88642695D01*
X199249530Y-88670865D01*
X199720395Y-88200000D01*
X200079605Y-88200000D01*
X200550470Y-88670865D01*
X200629702Y-88642762D01*
X200652689Y-88698395D01*
X200900302Y-88946440D01*
X201223989Y-89080847D01*
X201574473Y-89081153D01*
X201898395Y-88947311D01*
X202146440Y-88699698D01*
X202149842Y-88691505D01*
X202152689Y-88698395D01*
X202400302Y-88946440D01*
X202723989Y-89080847D01*
X203074473Y-89081153D01*
X203398395Y-88947311D01*
X203646440Y-88699698D01*
X203649842Y-88691505D01*
X203652689Y-88698395D01*
X203900302Y-88946440D01*
X204223989Y-89080847D01*
X204574473Y-89081153D01*
X204898395Y-88947311D01*
X205146440Y-88699698D01*
X205280847Y-88376011D01*
X205281153Y-88025527D01*
X205147311Y-87701605D01*
X204899698Y-87453560D01*
X204576011Y-87319153D01*
X204225527Y-87318847D01*
X203901605Y-87452689D01*
X203653560Y-87700302D01*
X203650158Y-87708495D01*
X203647311Y-87701605D01*
X203399698Y-87453560D01*
X203076011Y-87319153D01*
X202725527Y-87318847D01*
X202401605Y-87452689D01*
X202153560Y-87700302D01*
X202150158Y-87708495D01*
X202147311Y-87701605D01*
X201899698Y-87453560D01*
X201576011Y-87319153D01*
X201225527Y-87318847D01*
X200901605Y-87452689D01*
X200653560Y-87700302D01*
X200629890Y-87757305D01*
X200550470Y-87729135D01*
X200079605Y-88200000D01*
X199720395Y-88200000D01*
X199249530Y-87729135D01*
X199170298Y-87757238D01*
X199147311Y-87701605D01*
X198995501Y-87549530D01*
X199429135Y-87549530D01*
X199900000Y-88020395D01*
X200370865Y-87549530D01*
X200319935Y-87405943D01*
X199984097Y-87305685D01*
X199635456Y-87341578D01*
X199480065Y-87405943D01*
X199429135Y-87549530D01*
X198995501Y-87549530D01*
X198899698Y-87453560D01*
X198576011Y-87319153D01*
X198225527Y-87318847D01*
X197901605Y-87452689D01*
X197653560Y-87700302D01*
X197650158Y-87708495D01*
X197647311Y-87701605D01*
X197399698Y-87453560D01*
X197076011Y-87319153D01*
X196725527Y-87318847D01*
X196401605Y-87452689D01*
X196153560Y-87700302D01*
X196150158Y-87708495D01*
X196147311Y-87701605D01*
X195899698Y-87453560D01*
X195576011Y-87319153D01*
X195225527Y-87318847D01*
X194901605Y-87452689D01*
X194653560Y-87700302D01*
X194650158Y-87708495D01*
X194647311Y-87701605D01*
X194399698Y-87453560D01*
X194076011Y-87319153D01*
X193725527Y-87318847D01*
X193401605Y-87452689D01*
X193153560Y-87700302D01*
X193019153Y-88023989D01*
X193018847Y-88374473D01*
X185688464Y-88374473D01*
X185688464Y-87475000D01*
X185661897Y-87333810D01*
X185578454Y-87204135D01*
X185451134Y-87117141D01*
X185300000Y-87086536D01*
X183800000Y-87086536D01*
X183658810Y-87113103D01*
X183529135Y-87196546D01*
X183442141Y-87323866D01*
X183411536Y-87475000D01*
X183411536Y-88725000D01*
X183438103Y-88866190D01*
X183521546Y-88995865D01*
X183558964Y-89021432D01*
X183314748Y-89122339D01*
X183268006Y-89169000D01*
X181867202Y-89169000D01*
X181880882Y-89136054D01*
X181880902Y-89113464D01*
X182800000Y-89113464D01*
X182941190Y-89086897D01*
X183070865Y-89003454D01*
X183157859Y-88876134D01*
X183188464Y-88725000D01*
X183188464Y-87475000D01*
X183161897Y-87333810D01*
X183078454Y-87204135D01*
X182951134Y-87117141D01*
X182800000Y-87086536D01*
X181300000Y-87086536D01*
X181158810Y-87113103D01*
X181029135Y-87196546D01*
X180942141Y-87323866D01*
X180911536Y-87475000D01*
X180911536Y-88382347D01*
X180814748Y-88422339D01*
X180623013Y-88613741D01*
X180519118Y-88863946D01*
X180518882Y-89134865D01*
X180532986Y-89169000D01*
X179431000Y-89169000D01*
X179431000Y-88141309D01*
X179433190Y-88140897D01*
X179562865Y-88057454D01*
X179649859Y-87930134D01*
X179660152Y-87879306D01*
X179663946Y-87880882D01*
X179934865Y-87881118D01*
X180185252Y-87777661D01*
X180376987Y-87586259D01*
X180480882Y-87336054D01*
X180481118Y-87065135D01*
X180377661Y-86814748D01*
X180186259Y-86623013D01*
X179936054Y-86519118D01*
X179678562Y-86518894D01*
X179653897Y-86387810D01*
X179570454Y-86258135D01*
X179443134Y-86171141D01*
X179292000Y-86140536D01*
X177792000Y-86140536D01*
X177650810Y-86167103D01*
X177521135Y-86250546D01*
X177434141Y-86377866D01*
X177403536Y-86529000D01*
X177403536Y-87779000D01*
X177430103Y-87920190D01*
X177513546Y-88049865D01*
X177640866Y-88136859D01*
X177792000Y-88167464D01*
X178369000Y-88167464D01*
X178369000Y-89961536D01*
X177800000Y-89961536D01*
X177696330Y-89981043D01*
X177600000Y-89961536D01*
X177000000Y-89961536D01*
X176896330Y-89981043D01*
X176800000Y-89961536D01*
X176200000Y-89961536D01*
X176096330Y-89981043D01*
X176000000Y-89961536D01*
X175406000Y-89961536D01*
X175406000Y-89200000D01*
X175367483Y-89006362D01*
X175257796Y-88842204D01*
X175206000Y-88790408D01*
X175206000Y-88150049D01*
X175292000Y-88167464D01*
X176792000Y-88167464D01*
X176933190Y-88140897D01*
X177062865Y-88057454D01*
X177149859Y-87930134D01*
X177180464Y-87779000D01*
X177180464Y-86529000D01*
X177153897Y-86387810D01*
X177070454Y-86258135D01*
X176943134Y-86171141D01*
X176792000Y-86140536D01*
X176548000Y-86140536D01*
X176548000Y-85918836D01*
X176590190Y-85910897D01*
X176719865Y-85827454D01*
X176806859Y-85700134D01*
X176837464Y-85549000D01*
X176837464Y-83999000D01*
X176810897Y-83857810D01*
X176727454Y-83728135D01*
X176600134Y-83641141D01*
X176449000Y-83610536D01*
X175849000Y-83610536D01*
X175707810Y-83637103D01*
X175578135Y-83720546D01*
X175513470Y-83815187D01*
X175457454Y-83728135D01*
X175385000Y-83678629D01*
X175385000Y-82963000D01*
X175346483Y-82769362D01*
X175236796Y-82605204D01*
X173331796Y-80700204D01*
X173167638Y-80590517D01*
X172974000Y-80552000D01*
X171679592Y-80552000D01*
X171193464Y-80065872D01*
X171193464Y-79018000D01*
X171166897Y-78876810D01*
X171083454Y-78747135D01*
X170956134Y-78660141D01*
X170805000Y-78629536D01*
X169555000Y-78629536D01*
X169413810Y-78656103D01*
X169284135Y-78739546D01*
X169197141Y-78866866D01*
X169166536Y-79018000D01*
X169166536Y-80518000D01*
X169193103Y-80659190D01*
X169276546Y-80788865D01*
X169403866Y-80875859D01*
X169555000Y-80906464D01*
X170602872Y-80906464D01*
X171112204Y-81415796D01*
X171276362Y-81525483D01*
X171470000Y-81564000D01*
X172764408Y-81564000D01*
X174373000Y-83172592D01*
X174373000Y-83678807D01*
X174308135Y-83720546D01*
X174243470Y-83815187D01*
X174187454Y-83728135D01*
X174115000Y-83678629D01*
X174115000Y-83471000D01*
X174076483Y-83277362D01*
X173966796Y-83113204D01*
X173097796Y-82244204D01*
X172933638Y-82134517D01*
X172740000Y-82096000D01*
X170431464Y-82096000D01*
X170431464Y-81852000D01*
X170404897Y-81710810D01*
X170321454Y-81581135D01*
X170194134Y-81494141D01*
X170043000Y-81463536D01*
X168793000Y-81463536D01*
X168731000Y-81475202D01*
X168731000Y-79119948D01*
X169463095Y-78387853D01*
X169555000Y-78406464D01*
X170805000Y-78406464D01*
X170946190Y-78379897D01*
X171075865Y-78296454D01*
X171162859Y-78169134D01*
X171193464Y-78018000D01*
X171193464Y-77271000D01*
X171832665Y-77271000D01*
X171808000Y-77395000D01*
X171808000Y-78294894D01*
X171768135Y-78320546D01*
X171681141Y-78447866D01*
X171650536Y-78599000D01*
X171650536Y-80149000D01*
X171677103Y-80290190D01*
X171760546Y-80419865D01*
X171887866Y-80506859D01*
X172039000Y-80537464D01*
X172639000Y-80537464D01*
X172780190Y-80510897D01*
X172909865Y-80427454D01*
X172974530Y-80332813D01*
X173030546Y-80419865D01*
X173157866Y-80506859D01*
X173309000Y-80537464D01*
X173909000Y-80537464D01*
X174050190Y-80510897D01*
X174179865Y-80427454D01*
X174244530Y-80332813D01*
X174300546Y-80419865D01*
X174427866Y-80506859D01*
X174579000Y-80537464D01*
X175179000Y-80537464D01*
X175320190Y-80510897D01*
X175449865Y-80427454D01*
X175513420Y-80334439D01*
X175526004Y-80364820D01*
X175633181Y-80471996D01*
X175773215Y-80530000D01*
X175926750Y-80530000D01*
X176022000Y-80434750D01*
X176022000Y-79501000D01*
X176276000Y-79501000D01*
X176276000Y-80434750D01*
X176371250Y-80530000D01*
X176524785Y-80530000D01*
X176664819Y-80471996D01*
X176771996Y-80364820D01*
X176830000Y-80224786D01*
X176830000Y-79596250D01*
X176734750Y-79501000D01*
X176276000Y-79501000D01*
X176022000Y-79501000D01*
X176002000Y-79501000D01*
X176002000Y-79247000D01*
X176022000Y-79247000D01*
X176022000Y-78313250D01*
X176276000Y-78313250D01*
X176276000Y-79247000D01*
X176734750Y-79247000D01*
X176830000Y-79151750D01*
X176830000Y-78523214D01*
X176771996Y-78383180D01*
X176664819Y-78276004D01*
X176524785Y-78218000D01*
X176371250Y-78218000D01*
X176276000Y-78313250D01*
X176022000Y-78313250D01*
X175926750Y-78218000D01*
X175773215Y-78218000D01*
X175633181Y-78276004D01*
X175526004Y-78383180D01*
X175513030Y-78414503D01*
X175457454Y-78328135D01*
X175330134Y-78241141D01*
X175179000Y-78210536D01*
X174579000Y-78210536D01*
X174437810Y-78237103D01*
X174308135Y-78320546D01*
X174243470Y-78415187D01*
X174187454Y-78328135D01*
X174060134Y-78241141D01*
X173909000Y-78210536D01*
X173309000Y-78210536D01*
X173167810Y-78237103D01*
X173038135Y-78320546D01*
X172973470Y-78415187D01*
X172917454Y-78328135D01*
X172870000Y-78295711D01*
X172870000Y-77753464D01*
X173744000Y-77753464D01*
X173885190Y-77726897D01*
X174014865Y-77643454D01*
X174101859Y-77516134D01*
X174132464Y-77365000D01*
X174132464Y-76962250D01*
X174363000Y-76962250D01*
X174363000Y-77440785D01*
X174421004Y-77580819D01*
X174528180Y-77687996D01*
X174668214Y-77746000D01*
X175271750Y-77746000D01*
X175367000Y-77650750D01*
X175367000Y-76867000D01*
X175621000Y-76867000D01*
X175621000Y-77650750D01*
X175716250Y-77746000D01*
X176319786Y-77746000D01*
X176459820Y-77687996D01*
X176566996Y-77580819D01*
X176625000Y-77440785D01*
X176625000Y-76962250D01*
X176529750Y-76867000D01*
X175621000Y-76867000D01*
X175367000Y-76867000D01*
X174458250Y-76867000D01*
X174363000Y-76962250D01*
X174132464Y-76962250D01*
X174132464Y-76115000D01*
X174118204Y-76039215D01*
X174363000Y-76039215D01*
X174363000Y-76517750D01*
X174458250Y-76613000D01*
X175367000Y-76613000D01*
X175367000Y-75829250D01*
X175621000Y-75829250D01*
X175621000Y-76613000D01*
X176529750Y-76613000D01*
X176625000Y-76517750D01*
X176625000Y-76039215D01*
X176566996Y-75899181D01*
X176459820Y-75792004D01*
X176319786Y-75734000D01*
X175716250Y-75734000D01*
X175621000Y-75829250D01*
X175367000Y-75829250D01*
X175271750Y-75734000D01*
X174668214Y-75734000D01*
X174528180Y-75792004D01*
X174421004Y-75899181D01*
X174363000Y-76039215D01*
X174118204Y-76039215D01*
X174105897Y-75973810D01*
X174022454Y-75844135D01*
X173895134Y-75757141D01*
X173744000Y-75726536D01*
X172244000Y-75726536D01*
X172102810Y-75753103D01*
X171973135Y-75836546D01*
X171886141Y-75963866D01*
X171855536Y-76115000D01*
X171855536Y-76209000D01*
X171027642Y-76209000D01*
X170956134Y-76160141D01*
X170805000Y-76129536D01*
X169555000Y-76129536D01*
X169413810Y-76156103D01*
X169284135Y-76239546D01*
X169197141Y-76366866D01*
X169166536Y-76518000D01*
X169166536Y-77182517D01*
X167824526Y-78524526D01*
X167709420Y-78696795D01*
X167669000Y-78900000D01*
X167669000Y-84600000D01*
X167709420Y-84803205D01*
X167824526Y-84975474D01*
X168326526Y-85477474D01*
X168404536Y-85529598D01*
X168404536Y-85852000D01*
X168431103Y-85993190D01*
X168514546Y-86122865D01*
X168572277Y-86162311D01*
X168546810Y-86167103D01*
X168417135Y-86250546D01*
X168330141Y-86377866D01*
X168321790Y-86419106D01*
X168065135Y-86418882D01*
X167814748Y-86522339D01*
X167623013Y-86713741D01*
X167519118Y-86963946D01*
X167518882Y-87234865D01*
X167622339Y-87485252D01*
X167813741Y-87676987D01*
X168063946Y-87780882D01*
X168299929Y-87781088D01*
X168326103Y-87920190D01*
X168409546Y-88049865D01*
X168536866Y-88136859D01*
X168688000Y-88167464D01*
X170188000Y-88167464D01*
X170329190Y-88140897D01*
X170458865Y-88057454D01*
X170545859Y-87930134D01*
X170576464Y-87779000D01*
X170576464Y-86529000D01*
X170549897Y-86387810D01*
X170466454Y-86258135D01*
X170339134Y-86171141D01*
X170271819Y-86157510D01*
X170313865Y-86130454D01*
X170400859Y-86003134D01*
X170431464Y-85852000D01*
X170431464Y-84352000D01*
X170404897Y-84210810D01*
X170321454Y-84081135D01*
X170194134Y-83994141D01*
X170043000Y-83963536D01*
X168793000Y-83963536D01*
X168731000Y-83975202D01*
X168731000Y-83727909D01*
X168793000Y-83740464D01*
X170043000Y-83740464D01*
X170184190Y-83713897D01*
X170313865Y-83630454D01*
X170400859Y-83503134D01*
X170431464Y-83352000D01*
X170431464Y-83108000D01*
X172530408Y-83108000D01*
X173101914Y-83679506D01*
X173038135Y-83720546D01*
X172973470Y-83815187D01*
X172917454Y-83728135D01*
X172790134Y-83641141D01*
X172639000Y-83610536D01*
X172039000Y-83610536D01*
X171897810Y-83637103D01*
X171768135Y-83720546D01*
X171681141Y-83847866D01*
X171650536Y-83999000D01*
X171650536Y-85549000D01*
X171677103Y-85690190D01*
X171760546Y-85819865D01*
X171833000Y-85869371D01*
X171833000Y-86140536D01*
X171188000Y-86140536D01*
X171046810Y-86167103D01*
X170917135Y-86250546D01*
X170830141Y-86377866D01*
X170799536Y-86529000D01*
X170799536Y-87779000D01*
X170826103Y-87920190D01*
X170909546Y-88049865D01*
X171036866Y-88136859D01*
X171188000Y-88167464D01*
X172235872Y-88167464D01*
X172794000Y-88725592D01*
X172794000Y-89030941D01*
X172686259Y-88923013D01*
X172436054Y-88819118D01*
X172165135Y-88818882D01*
X171914748Y-88922339D01*
X171723013Y-89113741D01*
X171619118Y-89363946D01*
X171618882Y-89634865D01*
X171722339Y-89885252D01*
X171913741Y-90076987D01*
X171922837Y-90080764D01*
X171842141Y-90198866D01*
X171811536Y-90350000D01*
X171811536Y-91850000D01*
X171838103Y-91991190D01*
X171921546Y-92120865D01*
X171994000Y-92170371D01*
X171994000Y-94200000D01*
X172032517Y-94393638D01*
X172142204Y-94557796D01*
X172351438Y-94767030D01*
X172236054Y-94719118D01*
X171965135Y-94718882D01*
X171738464Y-94812540D01*
X171738464Y-94300000D01*
X171718957Y-94196330D01*
X171738464Y-94100000D01*
X171738464Y-93500000D01*
X171720061Y-93402195D01*
X171731000Y-93375785D01*
X171731000Y-93222250D01*
X171635750Y-93127000D01*
X171426365Y-93127000D01*
X171350000Y-93111536D01*
X169850000Y-93111536D01*
X169767817Y-93127000D01*
X169564250Y-93127000D01*
X169469000Y-93222250D01*
X169469000Y-93294000D01*
X169009592Y-93294000D01*
X168339807Y-92624215D01*
X169469000Y-92624215D01*
X169469000Y-92777750D01*
X169564250Y-92873000D01*
X170473000Y-92873000D01*
X170473000Y-92414250D01*
X170727000Y-92414250D01*
X170727000Y-92873000D01*
X171635750Y-92873000D01*
X171731000Y-92777750D01*
X171731000Y-92624215D01*
X171672996Y-92484181D01*
X171565820Y-92377004D01*
X171425786Y-92319000D01*
X170822250Y-92319000D01*
X170727000Y-92414250D01*
X170473000Y-92414250D01*
X170377750Y-92319000D01*
X169774214Y-92319000D01*
X169634180Y-92377004D01*
X169527004Y-92484181D01*
X169469000Y-92624215D01*
X168339807Y-92624215D01*
X167206000Y-91490408D01*
X167206000Y-80000000D01*
X167167483Y-79806362D01*
X167057796Y-79642204D01*
X165657796Y-78242204D01*
X165493638Y-78132517D01*
X165300000Y-78094000D01*
X165288464Y-78094000D01*
X165288464Y-77975000D01*
X165261897Y-77833810D01*
X165178454Y-77704135D01*
X165051134Y-77617141D01*
X164900000Y-77586536D01*
X163400000Y-77586536D01*
X163258810Y-77613103D01*
X163129135Y-77696546D01*
X163042141Y-77823866D01*
X163011536Y-77975000D01*
X163011536Y-79225000D01*
X163038103Y-79366190D01*
X163121546Y-79495865D01*
X163248866Y-79582859D01*
X163400000Y-79613464D01*
X163644000Y-79613464D01*
X163644000Y-82147973D01*
X163582127Y-82173538D01*
X163274618Y-82480511D01*
X163107990Y-82881795D01*
X163107611Y-83316299D01*
X163273538Y-83717873D01*
X163580511Y-84025382D01*
X163981795Y-84192010D01*
X164416299Y-84192389D01*
X164817873Y-84026462D01*
X165125382Y-83719489D01*
X165292010Y-83318205D01*
X165292389Y-82883701D01*
X165126462Y-82482127D01*
X164819489Y-82174618D01*
X164656000Y-82106731D01*
X164656000Y-79613464D01*
X164900000Y-79613464D01*
X165041190Y-79586897D01*
X165170865Y-79503454D01*
X165257859Y-79376134D01*
X165275151Y-79290743D01*
X166194000Y-80209592D01*
X166194000Y-91700000D01*
X166232517Y-91893638D01*
X166342204Y-92057796D01*
X168378408Y-94094000D01*
X166259592Y-94094000D01*
X165388464Y-93222872D01*
X165388464Y-92175000D01*
X165361897Y-92033810D01*
X165278454Y-91904135D01*
X165151134Y-91817141D01*
X165000000Y-91786536D01*
X164706000Y-91786536D01*
X164706000Y-89152687D01*
X164817873Y-89106462D01*
X165125382Y-88799489D01*
X165292010Y-88398205D01*
X165292389Y-87963701D01*
X165126462Y-87562127D01*
X164819489Y-87254618D01*
X164418205Y-87087990D01*
X163983701Y-87087611D01*
X163582127Y-87253538D01*
X163274618Y-87560511D01*
X163107990Y-87961795D01*
X163107611Y-88396299D01*
X163273538Y-88797873D01*
X163580511Y-89105382D01*
X163694000Y-89152507D01*
X163694000Y-91786536D01*
X163500000Y-91786536D01*
X163358810Y-91813103D01*
X163229135Y-91896546D01*
X163142141Y-92023866D01*
X163111536Y-92175000D01*
X163111536Y-93425000D01*
X163138103Y-93566190D01*
X163221546Y-93695865D01*
X163348866Y-93782859D01*
X163500000Y-93813464D01*
X164547872Y-93813464D01*
X165692204Y-94957796D01*
X165856362Y-95067483D01*
X166050000Y-95106000D01*
X169461536Y-95106000D01*
X169461536Y-95700000D01*
X169479939Y-95797805D01*
X169469000Y-95824215D01*
X169469000Y-95977750D01*
X169564250Y-96073000D01*
X169773635Y-96073000D01*
X169850000Y-96088464D01*
X171350000Y-96088464D01*
X171432183Y-96073000D01*
X171635750Y-96073000D01*
X171726475Y-95982275D01*
X171963946Y-96080882D01*
X172234865Y-96081118D01*
X172485252Y-95977661D01*
X172676987Y-95786259D01*
X172780882Y-95536054D01*
X172781118Y-95265135D01*
X172732938Y-95148530D01*
X173394000Y-95809592D01*
X173394000Y-99054292D01*
X173377661Y-99014748D01*
X173186259Y-98823013D01*
X172936054Y-98719118D01*
X172665135Y-98718882D01*
X172414748Y-98822339D01*
X172342962Y-98894000D01*
X171738464Y-98894000D01*
X171738464Y-98306000D01*
X171743051Y-98306000D01*
X171913741Y-98476987D01*
X172163946Y-98580882D01*
X172434865Y-98581118D01*
X172685252Y-98477661D01*
X172876987Y-98286259D01*
X172980882Y-98036054D01*
X172981118Y-97765135D01*
X172877661Y-97514748D01*
X172686259Y-97323013D01*
X172436054Y-97219118D01*
X172165135Y-97218882D01*
X171983334Y-97294000D01*
X171738464Y-97294000D01*
X171738464Y-96700000D01*
X171720061Y-96602195D01*
X171731000Y-96575785D01*
X171731000Y-96422250D01*
X171635750Y-96327000D01*
X171426365Y-96327000D01*
X171350000Y-96311536D01*
X169850000Y-96311536D01*
X169767817Y-96327000D01*
X169564250Y-96327000D01*
X169469000Y-96422250D01*
X169469000Y-96494000D01*
X168809592Y-96494000D01*
X168681031Y-96365439D01*
X168681118Y-96265135D01*
X168577661Y-96014748D01*
X168386259Y-95823013D01*
X168136054Y-95719118D01*
X167865135Y-95718882D01*
X167614748Y-95822339D01*
X167423013Y-96013741D01*
X167319118Y-96263946D01*
X167318882Y-96534865D01*
X167422339Y-96785252D01*
X167613741Y-96976987D01*
X167863946Y-97080882D01*
X167965378Y-97080970D01*
X168242204Y-97357796D01*
X168406362Y-97467483D01*
X168600000Y-97506000D01*
X169461536Y-97506000D01*
X169461536Y-98094000D01*
X167800000Y-98094000D01*
X167606362Y-98132517D01*
X167442204Y-98242204D01*
X166742204Y-98942204D01*
X166632517Y-99106362D01*
X166594000Y-99300000D01*
X166594000Y-100214346D01*
X166532517Y-100306362D01*
X166494000Y-100500000D01*
X166532517Y-100693638D01*
X166555850Y-100728558D01*
X165567287Y-101717121D01*
X165341820Y-101491261D01*
X164926071Y-101318627D01*
X164475904Y-101318234D01*
X164059854Y-101490142D01*
X163741261Y-101808180D01*
X163568627Y-102223929D01*
X163568234Y-102674096D01*
X163740142Y-103090146D01*
X164058180Y-103408739D01*
X164169348Y-103454900D01*
X164059854Y-103500142D01*
X163741261Y-103818180D01*
X163568627Y-104233929D01*
X163568234Y-104684096D01*
X163740142Y-105100146D01*
X164058180Y-105418739D01*
X164473929Y-105591373D01*
X164924096Y-105591766D01*
X165340146Y-105419858D01*
X165658739Y-105101820D01*
X165727259Y-104936806D01*
X167020476Y-104899793D01*
X167109787Y-104879356D01*
X167199638Y-104861483D01*
X167205758Y-104857394D01*
X167212933Y-104855752D01*
X167287621Y-104802694D01*
X167363796Y-104751796D01*
X168257796Y-103857796D01*
X168367483Y-103693638D01*
X168406000Y-103500000D01*
X168406000Y-100422250D01*
X169469000Y-100422250D01*
X169469000Y-100575785D01*
X169479030Y-100600000D01*
X169469000Y-100624215D01*
X169469000Y-100777750D01*
X169564250Y-100873000D01*
X169754900Y-100873000D01*
X169774214Y-100881000D01*
X170377750Y-100881000D01*
X170385750Y-100873000D01*
X170473000Y-100873000D01*
X170473000Y-100327000D01*
X170727000Y-100327000D01*
X170727000Y-100873000D01*
X170814250Y-100873000D01*
X170822250Y-100881000D01*
X171425786Y-100881000D01*
X171445100Y-100873000D01*
X171635750Y-100873000D01*
X171731000Y-100777750D01*
X171731000Y-100624215D01*
X171720970Y-100600000D01*
X171731000Y-100575785D01*
X171731000Y-100422250D01*
X171635750Y-100327000D01*
X171445100Y-100327000D01*
X171425786Y-100319000D01*
X170822250Y-100319000D01*
X170814250Y-100327000D01*
X170727000Y-100327000D01*
X170473000Y-100327000D01*
X170385750Y-100327000D01*
X170377750Y-100319000D01*
X169774214Y-100319000D01*
X169754900Y-100327000D01*
X169564250Y-100327000D01*
X169469000Y-100422250D01*
X168406000Y-100422250D01*
X168406000Y-100157123D01*
X168476987Y-100086259D01*
X168580882Y-99836054D01*
X168581118Y-99565135D01*
X168477661Y-99314748D01*
X168286259Y-99123013D01*
X168245287Y-99106000D01*
X169461536Y-99106000D01*
X169461536Y-99700000D01*
X169479939Y-99797805D01*
X169469000Y-99824215D01*
X169469000Y-99977750D01*
X169564250Y-100073000D01*
X169773635Y-100073000D01*
X169850000Y-100088464D01*
X171350000Y-100088464D01*
X171432183Y-100073000D01*
X171635750Y-100073000D01*
X171731000Y-99977750D01*
X171731000Y-99906000D01*
X172342877Y-99906000D01*
X172413741Y-99976987D01*
X172663946Y-100080882D01*
X172934865Y-100081118D01*
X173185252Y-99977661D01*
X173376987Y-99786259D01*
X173394000Y-99745287D01*
X173394000Y-100190408D01*
X172290408Y-101294000D01*
X171731000Y-101294000D01*
X171731000Y-101222250D01*
X171635750Y-101127000D01*
X171426365Y-101127000D01*
X171350000Y-101111536D01*
X169850000Y-101111536D01*
X169767817Y-101127000D01*
X169564250Y-101127000D01*
X169527212Y-101164038D01*
X169486259Y-101123013D01*
X169236054Y-101019118D01*
X168965135Y-101018882D01*
X168714748Y-101122339D01*
X168523013Y-101313741D01*
X168419118Y-101563946D01*
X168418882Y-101834865D01*
X168522339Y-102085252D01*
X168536174Y-102099111D01*
X168541410Y-102106947D01*
X168545506Y-102122422D01*
X168595972Y-102188605D01*
X168642204Y-102257796D01*
X168655512Y-102266688D01*
X168665219Y-102279418D01*
X168737165Y-102321247D01*
X168806362Y-102367483D01*
X168822063Y-102370606D01*
X168835900Y-102378651D01*
X168918376Y-102389764D01*
X169000000Y-102406000D01*
X169015698Y-102402877D01*
X169031563Y-102405015D01*
X169469000Y-102377675D01*
X169469000Y-102377750D01*
X169564250Y-102473000D01*
X169773635Y-102473000D01*
X169850000Y-102488464D01*
X171350000Y-102488464D01*
X171432183Y-102473000D01*
X171635750Y-102473000D01*
X171731000Y-102377750D01*
X171731000Y-102306000D01*
X172500000Y-102306000D01*
X172519085Y-102302204D01*
X172519030Y-102365378D01*
X171990408Y-102894000D01*
X171731000Y-102894000D01*
X171731000Y-102822250D01*
X171635750Y-102727000D01*
X171426365Y-102727000D01*
X171350000Y-102711536D01*
X169850000Y-102711536D01*
X169767817Y-102727000D01*
X169564250Y-102727000D01*
X169469000Y-102822250D01*
X169469000Y-102975785D01*
X169480881Y-103004469D01*
X169461536Y-103100000D01*
X169461536Y-103700000D01*
X169479939Y-103797805D01*
X169469000Y-103824215D01*
X169469000Y-103977750D01*
X169564250Y-104073000D01*
X169773635Y-104073000D01*
X169850000Y-104088464D01*
X171350000Y-104088464D01*
X171432183Y-104073000D01*
X171635750Y-104073000D01*
X171731000Y-103977750D01*
X171731000Y-103906000D01*
X172200000Y-103906000D01*
X172393638Y-103867483D01*
X172557796Y-103757796D01*
X173234561Y-103081031D01*
X173334865Y-103081118D01*
X173585252Y-102977661D01*
X173776987Y-102786259D01*
X173880882Y-102536054D01*
X173881118Y-102265135D01*
X173777661Y-102014748D01*
X173586259Y-101823013D01*
X173336054Y-101719118D01*
X173296508Y-101719084D01*
X174257796Y-100757796D01*
X174367483Y-100593638D01*
X174406000Y-100400000D01*
X174406000Y-95600000D01*
X174367483Y-95406362D01*
X174257796Y-95242204D01*
X173006000Y-93990408D01*
X173006000Y-92238464D01*
X173600000Y-92238464D01*
X173703670Y-92218957D01*
X173800000Y-92238464D01*
X174400000Y-92238464D01*
X174503670Y-92218957D01*
X174600000Y-92238464D01*
X175200000Y-92238464D01*
X175303670Y-92218957D01*
X175400000Y-92238464D01*
X176000000Y-92238464D01*
X176103670Y-92218957D01*
X176200000Y-92238464D01*
X176800000Y-92238464D01*
X176903670Y-92218957D01*
X177000000Y-92238464D01*
X177600000Y-92238464D01*
X177703670Y-92218957D01*
X177800000Y-92238464D01*
X178400000Y-92238464D01*
X178503670Y-92218957D01*
X178600000Y-92238464D01*
X179200000Y-92238464D01*
X179303670Y-92218957D01*
X179400000Y-92238464D01*
X180000000Y-92238464D01*
X180103670Y-92218957D01*
X180200000Y-92238464D01*
X180800000Y-92238464D01*
X180903670Y-92218957D01*
X181000000Y-92238464D01*
X181600000Y-92238464D01*
X181703670Y-92218957D01*
X181800000Y-92238464D01*
X182400000Y-92238464D01*
X182497805Y-92220061D01*
X182524215Y-92231000D01*
X182677750Y-92231000D01*
X182773000Y-92135750D01*
X182773000Y-91926365D01*
X182788464Y-91850000D01*
X182788464Y-90953000D01*
X183011536Y-90953000D01*
X183011536Y-91850000D01*
X183027000Y-91932183D01*
X183027000Y-92135750D01*
X183122250Y-92231000D01*
X183169000Y-92231000D01*
X183169000Y-96400000D01*
X183209420Y-96603205D01*
X183324526Y-96775474D01*
X184724526Y-98175474D01*
X184896795Y-98290580D01*
X185100000Y-98331000D01*
X185261536Y-98331000D01*
X185261536Y-98900000D01*
X185281043Y-99003670D01*
X185261536Y-99100000D01*
X185261536Y-99700000D01*
X185281043Y-99803670D01*
X185261536Y-99900000D01*
X185261536Y-100500000D01*
X185281043Y-100603670D01*
X185261536Y-100700000D01*
X185261536Y-101294000D01*
X183610407Y-101294000D01*
X183577661Y-101214748D01*
X183386259Y-101023013D01*
X183136054Y-100919118D01*
X182996595Y-100918997D01*
X184434561Y-99481031D01*
X184534865Y-99481118D01*
X184785252Y-99377661D01*
X184976987Y-99186259D01*
X185080882Y-98936054D01*
X185081118Y-98665135D01*
X184977661Y-98414748D01*
X184786259Y-98223013D01*
X184536054Y-98119118D01*
X184265135Y-98118882D01*
X184014748Y-98222339D01*
X183899968Y-98336920D01*
X183786259Y-98223013D01*
X183536054Y-98119118D01*
X183265135Y-98118882D01*
X183106459Y-98184445D01*
X183077661Y-98114748D01*
X182886259Y-97923013D01*
X182636054Y-97819118D01*
X182365135Y-97818882D01*
X182114748Y-97922339D01*
X181923013Y-98113741D01*
X181819118Y-98363946D01*
X181819030Y-98465378D01*
X177973664Y-102310744D01*
X177786259Y-102123013D01*
X177536054Y-102019118D01*
X177434622Y-102019030D01*
X177257796Y-101842204D01*
X177093638Y-101732517D01*
X176900000Y-101694000D01*
X176400000Y-101694000D01*
X176206362Y-101732517D01*
X176042204Y-101842204D01*
X172780910Y-105103498D01*
X172781118Y-104865135D01*
X172677661Y-104614748D01*
X172486259Y-104423013D01*
X172236054Y-104319118D01*
X171965135Y-104318882D01*
X171726311Y-104417561D01*
X171635750Y-104327000D01*
X171426365Y-104327000D01*
X171350000Y-104311536D01*
X169850000Y-104311536D01*
X169767817Y-104327000D01*
X169564250Y-104327000D01*
X169469000Y-104422250D01*
X169469000Y-104575785D01*
X169480881Y-104604469D01*
X169461536Y-104700000D01*
X169461536Y-105300000D01*
X169488103Y-105441190D01*
X169571546Y-105570865D01*
X169698866Y-105657859D01*
X169850000Y-105688464D01*
X170096732Y-105688464D01*
X170014748Y-105722339D01*
X169823013Y-105913741D01*
X169719118Y-106163946D01*
X169719030Y-106265378D01*
X168442204Y-107542204D01*
X168332517Y-107706362D01*
X168294000Y-107900000D01*
X168294000Y-110800000D01*
X168332517Y-110993638D01*
X168442204Y-111157796D01*
X169542204Y-112257796D01*
X169706362Y-112367483D01*
X169900000Y-112406000D01*
X176090408Y-112406000D01*
X177094000Y-113409592D01*
X177094000Y-114310196D01*
X176799900Y-114310196D01*
X176658710Y-114336763D01*
X176529035Y-114420206D01*
X176442041Y-114547526D01*
X176411436Y-114698660D01*
X176411436Y-115044000D01*
X174913464Y-115044000D01*
X174913464Y-114800000D01*
X174886897Y-114658810D01*
X174803454Y-114529135D01*
X174676134Y-114442141D01*
X174525000Y-114411536D01*
X173275000Y-114411536D01*
X173133810Y-114438103D01*
X173004135Y-114521546D01*
X172917141Y-114648866D01*
X172886536Y-114800000D01*
X172886536Y-116285588D01*
X172613464Y-116012516D01*
X172613464Y-114800000D01*
X172586897Y-114658810D01*
X172503454Y-114529135D01*
X172376134Y-114442141D01*
X172225000Y-114411536D01*
X172113403Y-114411536D01*
X172090580Y-114296795D01*
X171975474Y-114124526D01*
X170775474Y-112924526D01*
X170603205Y-112809420D01*
X170400000Y-112769000D01*
X167600000Y-112769000D01*
X167396795Y-112809420D01*
X167224526Y-112924526D01*
X167224524Y-112924529D01*
X166314526Y-113834526D01*
X166199420Y-114006795D01*
X166165641Y-114176614D01*
X166040810Y-114200103D01*
X165911135Y-114283546D01*
X165824141Y-114410866D01*
X165793536Y-114562000D01*
X165793536Y-116594000D01*
X165820103Y-116735190D01*
X165903546Y-116864865D01*
X166030866Y-116951859D01*
X166182000Y-116982464D01*
X167198000Y-116982464D01*
X167339190Y-116955897D01*
X167468865Y-116872454D01*
X167555859Y-116745134D01*
X167586464Y-116594000D01*
X167586464Y-114562000D01*
X167559897Y-114420810D01*
X167476454Y-114291135D01*
X167407160Y-114243788D01*
X167819947Y-113831000D01*
X170180052Y-113831000D01*
X170805422Y-114456370D01*
X170704135Y-114521546D01*
X170617141Y-114648866D01*
X170586536Y-114800000D01*
X170586536Y-116300000D01*
X170613103Y-116441190D01*
X170696546Y-116570865D01*
X170823866Y-116657859D01*
X170975000Y-116688464D01*
X171787516Y-116688464D01*
X172010588Y-116911536D01*
X170975000Y-116911536D01*
X170833810Y-116938103D01*
X170704135Y-117021546D01*
X170617141Y-117148866D01*
X170586536Y-117300000D01*
X170586536Y-117544000D01*
X170059592Y-117544000D01*
X169495830Y-116980238D01*
X169625190Y-116955897D01*
X169754865Y-116872454D01*
X169841859Y-116745134D01*
X169872464Y-116594000D01*
X169872464Y-114562000D01*
X169845897Y-114420810D01*
X169762454Y-114291135D01*
X169635134Y-114204141D01*
X169484000Y-114173536D01*
X168468000Y-114173536D01*
X168326810Y-114200103D01*
X168197135Y-114283546D01*
X168110141Y-114410866D01*
X168079536Y-114562000D01*
X168079536Y-116594000D01*
X168106103Y-116735190D01*
X168189546Y-116864865D01*
X168316866Y-116951859D01*
X168468000Y-116982464D01*
X168470000Y-116982464D01*
X168470000Y-117176000D01*
X168508517Y-117369638D01*
X168618204Y-117533796D01*
X168628408Y-117544000D01*
X162877464Y-117544000D01*
X162877464Y-117348000D01*
X162850897Y-117206810D01*
X162767454Y-117077135D01*
X162640134Y-116990141D01*
X162489000Y-116959536D01*
X161239000Y-116959536D01*
X161097810Y-116986103D01*
X160968135Y-117069546D01*
X160881141Y-117196866D01*
X160850536Y-117348000D01*
X160456000Y-117348000D01*
X160456000Y-114848000D01*
X160850536Y-114848000D01*
X160850536Y-116348000D01*
X160877103Y-116489190D01*
X160960546Y-116618865D01*
X161087866Y-116705859D01*
X161239000Y-116736464D01*
X162489000Y-116736464D01*
X162630190Y-116709897D01*
X162759865Y-116626454D01*
X162846859Y-116499134D01*
X162877464Y-116348000D01*
X162877464Y-116179000D01*
X163507536Y-116179000D01*
X163507536Y-116594000D01*
X163534103Y-116735190D01*
X163617546Y-116864865D01*
X163744866Y-116951859D01*
X163896000Y-116982464D01*
X164912000Y-116982464D01*
X165053190Y-116955897D01*
X165182865Y-116872454D01*
X165269859Y-116745134D01*
X165300464Y-116594000D01*
X165300464Y-114562000D01*
X165273897Y-114420810D01*
X165190454Y-114291135D01*
X165063134Y-114204141D01*
X164935000Y-114178194D01*
X164935000Y-112815948D01*
X165075474Y-112675474D01*
X165190580Y-112503205D01*
X165231000Y-112300000D01*
X165231000Y-107954956D01*
X165340146Y-107909858D01*
X165658739Y-107591820D01*
X165831373Y-107176071D01*
X165831766Y-106725904D01*
X165659858Y-106309854D01*
X165341820Y-105991261D01*
X164926071Y-105818627D01*
X164475904Y-105818234D01*
X164059854Y-105990142D01*
X163741261Y-106308180D01*
X163568627Y-106723929D01*
X163568234Y-107174096D01*
X163740142Y-107590146D01*
X164058180Y-107908739D01*
X164169000Y-107954755D01*
X164169000Y-108240286D01*
X163975350Y-108104256D01*
X162779605Y-109300000D01*
X163975350Y-110495744D01*
X164169000Y-110359714D01*
X164169000Y-112080052D01*
X164028526Y-112220526D01*
X163913420Y-112392795D01*
X163873000Y-112596000D01*
X163873000Y-114177864D01*
X163754810Y-114200103D01*
X163625135Y-114283546D01*
X163538141Y-114410866D01*
X163507536Y-114562000D01*
X163507536Y-115017000D01*
X162877464Y-115017000D01*
X162877464Y-114848000D01*
X162850897Y-114706810D01*
X162767454Y-114577135D01*
X162640134Y-114490141D01*
X162489000Y-114459536D01*
X161239000Y-114459536D01*
X161097810Y-114486103D01*
X160968135Y-114569546D01*
X160881141Y-114696866D01*
X160850536Y-114848000D01*
X160456000Y-114848000D01*
X160456000Y-110675350D01*
X161404256Y-110675350D01*
X161578014Y-110922709D01*
X162276791Y-111190285D01*
X163024775Y-111170082D01*
X163621986Y-110922709D01*
X163795744Y-110675350D01*
X162600000Y-109479605D01*
X161404256Y-110675350D01*
X160456000Y-110675350D01*
X160456000Y-108976791D01*
X160709715Y-108976791D01*
X160729918Y-109724775D01*
X160977291Y-110321986D01*
X161224650Y-110495744D01*
X162420395Y-109300000D01*
X161224650Y-108104256D01*
X160977291Y-108278014D01*
X160709715Y-108976791D01*
X160456000Y-108976791D01*
X160456000Y-107924650D01*
X161404256Y-107924650D01*
X162600000Y-109120395D01*
X163795744Y-107924650D01*
X163621986Y-107677291D01*
X162923209Y-107409715D01*
X162175225Y-107429918D01*
X161578014Y-107677291D01*
X161404256Y-107924650D01*
X160456000Y-107924650D01*
X160456000Y-105894277D01*
X161618830Y-105894277D01*
X161767864Y-106254966D01*
X162043583Y-106531166D01*
X162404011Y-106680829D01*
X162794277Y-106681170D01*
X163154966Y-106532136D01*
X163431166Y-106256417D01*
X163580829Y-105895989D01*
X163581170Y-105505723D01*
X163432136Y-105145034D01*
X163156417Y-104868834D01*
X162795989Y-104719171D01*
X162405723Y-104718830D01*
X162045034Y-104867864D01*
X161768834Y-105143583D01*
X161619171Y-105504011D01*
X161618830Y-105894277D01*
X160456000Y-105894277D01*
X160456000Y-101394277D01*
X161618830Y-101394277D01*
X161767864Y-101754966D01*
X162043583Y-102031166D01*
X162404011Y-102180829D01*
X162794277Y-102181170D01*
X163154966Y-102032136D01*
X163431166Y-101756417D01*
X163580829Y-101395989D01*
X163581170Y-101005723D01*
X163489086Y-100782861D01*
X164046744Y-100782861D01*
X164128715Y-100952371D01*
X164555793Y-101094691D01*
X165004824Y-101062743D01*
X165271285Y-100952371D01*
X165353256Y-100782861D01*
X164700000Y-100129605D01*
X164046744Y-100782861D01*
X163489086Y-100782861D01*
X163432136Y-100645034D01*
X163156417Y-100368834D01*
X162795989Y-100219171D01*
X162405723Y-100218830D01*
X162045034Y-100367864D01*
X161768834Y-100643583D01*
X161619171Y-101004011D01*
X161618830Y-101394277D01*
X160456000Y-101394277D01*
X160456000Y-99805793D01*
X163555309Y-99805793D01*
X163587257Y-100254824D01*
X163697629Y-100521285D01*
X163867139Y-100603256D01*
X164520395Y-99950000D01*
X164879605Y-99950000D01*
X165532861Y-100603256D01*
X165702371Y-100521285D01*
X165844691Y-100094207D01*
X165812743Y-99645176D01*
X165702371Y-99378715D01*
X165532861Y-99296744D01*
X164879605Y-99950000D01*
X164520395Y-99950000D01*
X163867139Y-99296744D01*
X163697629Y-99378715D01*
X163555309Y-99805793D01*
X160456000Y-99805793D01*
X160456000Y-98975350D01*
X161404256Y-98975350D01*
X161578014Y-99222709D01*
X162276791Y-99490285D01*
X163024775Y-99470082D01*
X163621986Y-99222709D01*
X163696143Y-99117139D01*
X164046744Y-99117139D01*
X164700000Y-99770395D01*
X165353256Y-99117139D01*
X165271285Y-98947629D01*
X164844207Y-98805309D01*
X164395176Y-98837257D01*
X164128715Y-98947629D01*
X164046744Y-99117139D01*
X163696143Y-99117139D01*
X163795744Y-98975350D01*
X162600000Y-97779605D01*
X161404256Y-98975350D01*
X160456000Y-98975350D01*
X160456000Y-97276791D01*
X160709715Y-97276791D01*
X160729918Y-98024775D01*
X160977291Y-98621986D01*
X161224650Y-98795744D01*
X162420395Y-97600000D01*
X162779605Y-97600000D01*
X163975350Y-98795744D01*
X164222709Y-98621986D01*
X164490285Y-97923209D01*
X164470082Y-97175225D01*
X164222709Y-96578014D01*
X163975350Y-96404256D01*
X162779605Y-97600000D01*
X162420395Y-97600000D01*
X161224650Y-96404256D01*
X160977291Y-96578014D01*
X160709715Y-97276791D01*
X160456000Y-97276791D01*
X160456000Y-96224650D01*
X161404256Y-96224650D01*
X162600000Y-97420395D01*
X163795744Y-96224650D01*
X163621986Y-95977291D01*
X162923209Y-95709715D01*
X162175225Y-95729918D01*
X161578014Y-95977291D01*
X161404256Y-96224650D01*
X160456000Y-96224650D01*
X160456000Y-93022250D01*
X160619000Y-93022250D01*
X160619000Y-93500785D01*
X160677004Y-93640819D01*
X160784180Y-93747996D01*
X160924214Y-93806000D01*
X161527750Y-93806000D01*
X161623000Y-93710750D01*
X161623000Y-92927000D01*
X161877000Y-92927000D01*
X161877000Y-93710750D01*
X161972250Y-93806000D01*
X162575786Y-93806000D01*
X162715820Y-93747996D01*
X162822996Y-93640819D01*
X162881000Y-93500785D01*
X162881000Y-93022250D01*
X162785750Y-92927000D01*
X161877000Y-92927000D01*
X161623000Y-92927000D01*
X160714250Y-92927000D01*
X160619000Y-93022250D01*
X160456000Y-93022250D01*
X160456000Y-92099215D01*
X160619000Y-92099215D01*
X160619000Y-92577750D01*
X160714250Y-92673000D01*
X161623000Y-92673000D01*
X161623000Y-91889250D01*
X161877000Y-91889250D01*
X161877000Y-92673000D01*
X162785750Y-92673000D01*
X162881000Y-92577750D01*
X162881000Y-92099215D01*
X162822996Y-91959181D01*
X162715820Y-91852004D01*
X162575786Y-91794000D01*
X161972250Y-91794000D01*
X161877000Y-91889250D01*
X161623000Y-91889250D01*
X161527750Y-91794000D01*
X160924214Y-91794000D01*
X160784180Y-91852004D01*
X160677004Y-91959181D01*
X160619000Y-92099215D01*
X160456000Y-92099215D01*
X160456000Y-80044911D01*
X160576435Y-79439445D01*
X160577004Y-79440819D01*
X160684180Y-79547996D01*
X160824214Y-79606000D01*
X161427750Y-79606000D01*
X161523000Y-79510750D01*
X161523000Y-78727000D01*
X161777000Y-78727000D01*
X161777000Y-79510750D01*
X161872250Y-79606000D01*
X162475786Y-79606000D01*
X162615820Y-79547996D01*
X162722996Y-79440819D01*
X162781000Y-79300785D01*
X162781000Y-78822250D01*
X162685750Y-78727000D01*
X161777000Y-78727000D01*
X161523000Y-78727000D01*
X161503000Y-78727000D01*
X161503000Y-78473000D01*
X161523000Y-78473000D01*
X161523000Y-77689250D01*
X161777000Y-77689250D01*
X161777000Y-78473000D01*
X162685750Y-78473000D01*
X162781000Y-78377750D01*
X162781000Y-77899215D01*
X162722996Y-77759181D01*
X162615820Y-77652004D01*
X162475786Y-77594000D01*
X161872250Y-77594000D01*
X161777000Y-77689250D01*
X161523000Y-77689250D01*
X161427750Y-77594000D01*
X161258162Y-77594000D01*
X161793224Y-76793224D01*
X163264505Y-75810145D01*
X165044911Y-75456000D01*
X204955089Y-75456000D01*
X206735495Y-75810145D01*
X206735495Y-75810145D01*
G37*
X206735495Y-75810145D02*
X208206776Y-76793224D01*
X209189855Y-78264505D01*
X209544000Y-80044911D01*
X209544000Y-94119038D01*
X209365135Y-94118882D01*
X209114748Y-94222339D01*
X209068006Y-94269000D01*
X204732166Y-94269000D01*
X204686259Y-94223013D01*
X204436054Y-94119118D01*
X204165135Y-94118882D01*
X203914748Y-94222339D01*
X203723013Y-94413741D01*
X203619118Y-94663946D01*
X203618882Y-94934865D01*
X203722339Y-95185252D01*
X203913741Y-95376987D01*
X204163946Y-95480882D01*
X204434865Y-95481118D01*
X204685252Y-95377661D01*
X204731994Y-95331000D01*
X209067834Y-95331000D01*
X209113741Y-95376987D01*
X209363946Y-95480882D01*
X209544000Y-95481039D01*
X209544000Y-119955089D01*
X209189855Y-121735495D01*
X208206776Y-123206776D01*
X206735495Y-124189855D01*
X204955089Y-124544000D01*
X165044911Y-124544000D01*
X163264505Y-124189855D01*
X161793224Y-123206776D01*
X160810145Y-121735495D01*
X160696866Y-121166000D01*
X164472736Y-121166000D01*
X164472736Y-123198000D01*
X164499303Y-123339190D01*
X164582746Y-123468865D01*
X164710066Y-123555859D01*
X164861200Y-123586464D01*
X168518800Y-123586464D01*
X168659990Y-123559897D01*
X168789665Y-123476454D01*
X168876659Y-123349134D01*
X168907264Y-123198000D01*
X168907264Y-121166000D01*
X168880697Y-121024810D01*
X168797254Y-120895135D01*
X168669934Y-120808141D01*
X168518800Y-120777536D01*
X164861200Y-120777536D01*
X164720010Y-120804103D01*
X164590335Y-120887546D01*
X164503341Y-121014866D01*
X164472736Y-121166000D01*
X160696866Y-121166000D01*
X160456000Y-119955089D01*
X160456000Y-117348000D01*
X160850536Y-117348000D01*
X160850536Y-118848000D01*
X160877103Y-118989190D01*
X160960546Y-119118865D01*
X161087866Y-119205859D01*
X161239000Y-119236464D01*
X162489000Y-119236464D01*
X162630190Y-119209897D01*
X162759865Y-119126454D01*
X162846859Y-118999134D01*
X162877464Y-118848000D01*
X162877464Y-118556000D01*
X170586536Y-118556000D01*
X170586536Y-118800000D01*
X170613103Y-118941190D01*
X170696546Y-119070865D01*
X170823866Y-119157859D01*
X170975000Y-119188464D01*
X172225000Y-119188464D01*
X172366190Y-119161897D01*
X172495865Y-119078454D01*
X172582859Y-118951134D01*
X172613464Y-118800000D01*
X172613464Y-117514412D01*
X172886536Y-117787484D01*
X172886536Y-118800000D01*
X172913103Y-118941190D01*
X172996546Y-119070865D01*
X173123866Y-119157859D01*
X173275000Y-119188464D01*
X173319010Y-119188464D01*
X173318882Y-119334865D01*
X173422339Y-119585252D01*
X173613741Y-119776987D01*
X173863946Y-119880882D01*
X174134865Y-119881118D01*
X174275256Y-119823110D01*
X176418900Y-119823110D01*
X176418900Y-120977126D01*
X176476904Y-121117160D01*
X176584081Y-121224336D01*
X176724115Y-121282340D01*
X177377750Y-121282340D01*
X177473000Y-121187090D01*
X177473000Y-119727860D01*
X177727000Y-119727860D01*
X177727000Y-121187090D01*
X177822250Y-121282340D01*
X178475885Y-121282340D01*
X178615919Y-121224336D01*
X178723096Y-121117160D01*
X178781100Y-120977126D01*
X178781100Y-119823110D01*
X178685850Y-119727860D01*
X177727000Y-119727860D01*
X177473000Y-119727860D01*
X176514150Y-119727860D01*
X176418900Y-119823110D01*
X174275256Y-119823110D01*
X174385252Y-119777661D01*
X174576987Y-119586259D01*
X174680882Y-119336054D01*
X174681042Y-119152340D01*
X174795865Y-119078454D01*
X174882859Y-118951134D01*
X174913464Y-118800000D01*
X174913464Y-118224594D01*
X176418900Y-118224594D01*
X176418900Y-119378610D01*
X176514150Y-119473860D01*
X177473000Y-119473860D01*
X177473000Y-118014630D01*
X177727000Y-118014630D01*
X177727000Y-119473860D01*
X178685850Y-119473860D01*
X178781100Y-119378610D01*
X178781100Y-118224594D01*
X178723096Y-118084560D01*
X178615919Y-117977384D01*
X178475885Y-117919380D01*
X177822250Y-117919380D01*
X177727000Y-118014630D01*
X177473000Y-118014630D01*
X177377750Y-117919380D01*
X176724115Y-117919380D01*
X176584081Y-117977384D01*
X176476904Y-118084560D01*
X176418900Y-118224594D01*
X174913464Y-118224594D01*
X174913464Y-117300000D01*
X174886897Y-117158810D01*
X174803454Y-117029135D01*
X174676134Y-116942141D01*
X174525000Y-116911536D01*
X173512484Y-116911536D01*
X173289412Y-116688464D01*
X174525000Y-116688464D01*
X174666190Y-116661897D01*
X174795865Y-116578454D01*
X174882859Y-116451134D01*
X174913464Y-116300000D01*
X174913464Y-116056000D01*
X176411436Y-116056000D01*
X176411436Y-117299620D01*
X176438003Y-117440810D01*
X176521446Y-117570485D01*
X176648766Y-117657479D01*
X176799900Y-117688084D01*
X178400100Y-117688084D01*
X178541290Y-117661517D01*
X178670965Y-117578074D01*
X178757959Y-117450754D01*
X178788564Y-117299620D01*
X178788564Y-114698660D01*
X178761997Y-114557470D01*
X178678554Y-114427795D01*
X178551234Y-114340801D01*
X178400100Y-114310196D01*
X178106000Y-114310196D01*
X178106000Y-113200000D01*
X178067483Y-113006362D01*
X177957796Y-112842204D01*
X176657796Y-111542204D01*
X176493638Y-111432517D01*
X176360328Y-111406000D01*
X183890408Y-111406000D01*
X184894000Y-112409592D01*
X184894000Y-114210196D01*
X184599900Y-114210196D01*
X184458710Y-114236763D01*
X184329035Y-114320206D01*
X184242041Y-114447526D01*
X184211436Y-114598660D01*
X184211436Y-114944000D01*
X182713464Y-114944000D01*
X182713464Y-114700000D01*
X182686897Y-114558810D01*
X182603454Y-114429135D01*
X182476134Y-114342141D01*
X182325000Y-114311536D01*
X181075000Y-114311536D01*
X180933810Y-114338103D01*
X180804135Y-114421546D01*
X180717141Y-114548866D01*
X180686536Y-114700000D01*
X180686536Y-116200000D01*
X180713103Y-116341190D01*
X180796546Y-116470865D01*
X180923866Y-116557859D01*
X181075000Y-116588464D01*
X182325000Y-116588464D01*
X182466190Y-116561897D01*
X182595865Y-116478454D01*
X182682859Y-116351134D01*
X182713464Y-116200000D01*
X182713464Y-115956000D01*
X184211436Y-115956000D01*
X184211436Y-117199620D01*
X184238003Y-117340810D01*
X184321446Y-117470485D01*
X184448766Y-117557479D01*
X184599900Y-117588084D01*
X186200100Y-117588084D01*
X186341290Y-117561517D01*
X186470965Y-117478074D01*
X186557959Y-117350754D01*
X186588564Y-117199620D01*
X186588564Y-114598660D01*
X186561997Y-114457470D01*
X186478554Y-114327795D01*
X186351234Y-114240801D01*
X186200100Y-114210196D01*
X185906000Y-114210196D01*
X185906000Y-112200000D01*
X185867483Y-112006362D01*
X185757796Y-111842204D01*
X184721592Y-110806000D01*
X185642877Y-110806000D01*
X185713741Y-110876987D01*
X185963946Y-110980882D01*
X186234865Y-110981118D01*
X186485252Y-110877661D01*
X186676987Y-110686259D01*
X186780882Y-110436054D01*
X186781118Y-110165135D01*
X186677661Y-109914748D01*
X186486259Y-109723013D01*
X186236054Y-109619118D01*
X185965135Y-109618882D01*
X185881000Y-109653646D01*
X185881000Y-109322250D01*
X185785750Y-109227000D01*
X184877000Y-109227000D01*
X184877000Y-109247000D01*
X184623000Y-109247000D01*
X184623000Y-109227000D01*
X183714250Y-109227000D01*
X183619000Y-109322250D01*
X183619000Y-109794000D01*
X183374491Y-109794000D01*
X183388464Y-109725000D01*
X183388464Y-108862484D01*
X183619000Y-108631947D01*
X183619000Y-108877750D01*
X183714250Y-108973000D01*
X184623000Y-108973000D01*
X184623000Y-108953000D01*
X184877000Y-108953000D01*
X184877000Y-108973000D01*
X185785750Y-108973000D01*
X185881000Y-108877750D01*
X185881000Y-108631000D01*
X186580052Y-108631000D01*
X188769000Y-110819948D01*
X188769000Y-121769000D01*
X184619947Y-121769000D01*
X182574058Y-119723110D01*
X184218900Y-119723110D01*
X184218900Y-120877126D01*
X184276904Y-121017160D01*
X184384081Y-121124336D01*
X184524115Y-121182340D01*
X185177750Y-121182340D01*
X185273000Y-121087090D01*
X185273000Y-119627860D01*
X185527000Y-119627860D01*
X185527000Y-121087090D01*
X185622250Y-121182340D01*
X186275885Y-121182340D01*
X186415919Y-121124336D01*
X186523096Y-121017160D01*
X186581100Y-120877126D01*
X186581100Y-119723110D01*
X186485850Y-119627860D01*
X185527000Y-119627860D01*
X185273000Y-119627860D01*
X184314150Y-119627860D01*
X184218900Y-119723110D01*
X182574058Y-119723110D01*
X182231000Y-119380052D01*
X182231000Y-119231992D01*
X182376987Y-119086259D01*
X182380400Y-119078040D01*
X182466190Y-119061897D01*
X182595865Y-118978454D01*
X182682859Y-118851134D01*
X182713464Y-118700000D01*
X182713464Y-118124594D01*
X184218900Y-118124594D01*
X184218900Y-119278610D01*
X184314150Y-119373860D01*
X185273000Y-119373860D01*
X185273000Y-117914630D01*
X185527000Y-117914630D01*
X185527000Y-119373860D01*
X186485850Y-119373860D01*
X186581100Y-119278610D01*
X186581100Y-118124594D01*
X186523096Y-117984560D01*
X186415919Y-117877384D01*
X186275885Y-117819380D01*
X185622250Y-117819380D01*
X185527000Y-117914630D01*
X185273000Y-117914630D01*
X185177750Y-117819380D01*
X184524115Y-117819380D01*
X184384081Y-117877384D01*
X184276904Y-117984560D01*
X184218900Y-118124594D01*
X182713464Y-118124594D01*
X182713464Y-117200000D01*
X182686897Y-117058810D01*
X182603454Y-116929135D01*
X182476134Y-116842141D01*
X182325000Y-116811536D01*
X181075000Y-116811536D01*
X180933810Y-116838103D01*
X180804135Y-116921546D01*
X180717141Y-117048866D01*
X180686536Y-117200000D01*
X180686536Y-118700000D01*
X180713103Y-118841190D01*
X180796546Y-118970865D01*
X180923866Y-119057859D01*
X181075000Y-119088464D01*
X181169000Y-119088464D01*
X181169000Y-119600000D01*
X181209420Y-119803205D01*
X181324526Y-119975474D01*
X184024524Y-122675471D01*
X184024526Y-122675474D01*
X184107627Y-122731000D01*
X184196795Y-122790580D01*
X184400000Y-122831001D01*
X184400005Y-122831000D01*
X198200000Y-122831000D01*
X198403205Y-122790580D01*
X198575474Y-122675474D01*
X200125474Y-121125474D01*
X200240580Y-120953205D01*
X200281000Y-120750000D01*
X200281000Y-119113464D01*
X200500000Y-119113464D01*
X200641190Y-119086897D01*
X200770865Y-119003454D01*
X200857859Y-118876134D01*
X200888464Y-118725000D01*
X200888464Y-117475000D01*
X200861897Y-117333810D01*
X200778454Y-117204135D01*
X200651134Y-117117141D01*
X200500000Y-117086536D01*
X200256000Y-117086536D01*
X200256000Y-116813464D01*
X200500000Y-116813464D01*
X200641190Y-116786897D01*
X200770865Y-116703454D01*
X200857859Y-116576134D01*
X200888464Y-116425000D01*
X200888464Y-115175000D01*
X200861897Y-115033810D01*
X200778454Y-114904135D01*
X200651134Y-114817141D01*
X200580998Y-114802938D01*
X200581118Y-114665135D01*
X200477661Y-114414748D01*
X200286259Y-114223013D01*
X200036054Y-114119118D01*
X199765135Y-114118882D01*
X199514748Y-114222339D01*
X199323013Y-114413741D01*
X199219118Y-114663946D01*
X199219011Y-114786536D01*
X199000000Y-114786536D01*
X198858810Y-114813103D01*
X198729135Y-114896546D01*
X198642141Y-115023866D01*
X198611536Y-115175000D01*
X198611536Y-116425000D01*
X198638103Y-116566190D01*
X198721546Y-116695865D01*
X198848866Y-116782859D01*
X199000000Y-116813464D01*
X199244000Y-116813464D01*
X199244000Y-117086536D01*
X199000000Y-117086536D01*
X198858810Y-117113103D01*
X198729135Y-117196546D01*
X198642141Y-117323866D01*
X198611536Y-117475000D01*
X198611536Y-118725000D01*
X198638103Y-118866190D01*
X198721546Y-118995865D01*
X198848866Y-119082859D01*
X199000000Y-119113464D01*
X199219000Y-119113464D01*
X199219000Y-120530052D01*
X197980052Y-121769000D01*
X189831000Y-121769000D01*
X189831000Y-118322250D01*
X196119000Y-118322250D01*
X196119000Y-118800785D01*
X196177004Y-118940819D01*
X196284180Y-119047996D01*
X196424214Y-119106000D01*
X197027750Y-119106000D01*
X197123000Y-119010750D01*
X197123000Y-118227000D01*
X197377000Y-118227000D01*
X197377000Y-119010750D01*
X197472250Y-119106000D01*
X198075786Y-119106000D01*
X198215820Y-119047996D01*
X198322996Y-118940819D01*
X198381000Y-118800785D01*
X198381000Y-118322250D01*
X198285750Y-118227000D01*
X197377000Y-118227000D01*
X197123000Y-118227000D01*
X196214250Y-118227000D01*
X196119000Y-118322250D01*
X189831000Y-118322250D01*
X189831000Y-117399215D01*
X196119000Y-117399215D01*
X196119000Y-117877750D01*
X196214250Y-117973000D01*
X197123000Y-117973000D01*
X197123000Y-117189250D01*
X197377000Y-117189250D01*
X197377000Y-117973000D01*
X198285750Y-117973000D01*
X198381000Y-117877750D01*
X198381000Y-117399215D01*
X198322996Y-117259181D01*
X198215820Y-117152004D01*
X198075786Y-117094000D01*
X197472250Y-117094000D01*
X197377000Y-117189250D01*
X197123000Y-117189250D01*
X197027750Y-117094000D01*
X196424214Y-117094000D01*
X196284180Y-117152004D01*
X196177004Y-117259181D01*
X196119000Y-117399215D01*
X189831000Y-117399215D01*
X189831000Y-116022250D01*
X196119000Y-116022250D01*
X196119000Y-116500785D01*
X196177004Y-116640819D01*
X196284180Y-116747996D01*
X196424214Y-116806000D01*
X197027750Y-116806000D01*
X197123000Y-116710750D01*
X197123000Y-115927000D01*
X197377000Y-115927000D01*
X197377000Y-116710750D01*
X197472250Y-116806000D01*
X198075786Y-116806000D01*
X198215820Y-116747996D01*
X198322996Y-116640819D01*
X198381000Y-116500785D01*
X198381000Y-116022250D01*
X198285750Y-115927000D01*
X197377000Y-115927000D01*
X197123000Y-115927000D01*
X196214250Y-115927000D01*
X196119000Y-116022250D01*
X189831000Y-116022250D01*
X189831000Y-115099215D01*
X196119000Y-115099215D01*
X196119000Y-115577750D01*
X196214250Y-115673000D01*
X197123000Y-115673000D01*
X197123000Y-114889250D01*
X197377000Y-114889250D01*
X197377000Y-115673000D01*
X198285750Y-115673000D01*
X198381000Y-115577750D01*
X198381000Y-115099215D01*
X198322996Y-114959181D01*
X198215820Y-114852004D01*
X198075786Y-114794000D01*
X197472250Y-114794000D01*
X197377000Y-114889250D01*
X197123000Y-114889250D01*
X197027750Y-114794000D01*
X196424214Y-114794000D01*
X196284180Y-114852004D01*
X196177004Y-114959181D01*
X196119000Y-115099215D01*
X189831000Y-115099215D01*
X189831000Y-110600000D01*
X189790580Y-110396795D01*
X189675474Y-110224526D01*
X187175474Y-107724526D01*
X187003205Y-107609420D01*
X186800000Y-107569000D01*
X185188464Y-107569000D01*
X185188464Y-107406000D01*
X189648274Y-107406000D01*
X189722339Y-107585252D01*
X189913741Y-107776987D01*
X190163946Y-107880882D01*
X190434865Y-107881118D01*
X190685252Y-107777661D01*
X190876987Y-107586259D01*
X190980882Y-107336054D01*
X190981091Y-107096683D01*
X191394000Y-107509592D01*
X191394000Y-108900000D01*
X191432517Y-109093638D01*
X191542204Y-109257796D01*
X193142204Y-110857796D01*
X193306362Y-110967483D01*
X193500000Y-111006000D01*
X194348201Y-111006000D01*
X194153560Y-111200302D01*
X194019153Y-111523989D01*
X194018847Y-111874473D01*
X194152689Y-112198395D01*
X194400302Y-112446440D01*
X194723989Y-112580847D01*
X195074473Y-112581153D01*
X195398395Y-112447311D01*
X195646440Y-112199698D01*
X195649842Y-112191505D01*
X195652689Y-112198395D01*
X195900302Y-112446440D01*
X196223989Y-112580847D01*
X196574473Y-112581153D01*
X196898395Y-112447311D01*
X196995404Y-112350470D01*
X197429135Y-112350470D01*
X197480065Y-112494057D01*
X197815903Y-112594315D01*
X198164544Y-112558422D01*
X198319935Y-112494057D01*
X198370865Y-112350470D01*
X197900000Y-111879605D01*
X197429135Y-112350470D01*
X196995404Y-112350470D01*
X197146440Y-112199698D01*
X197170110Y-112142695D01*
X197249530Y-112170865D01*
X197720395Y-111700000D01*
X197249530Y-111229135D01*
X197170298Y-111257238D01*
X197147311Y-111201605D01*
X196995501Y-111049530D01*
X197429135Y-111049530D01*
X197900000Y-111520395D01*
X198370865Y-111049530D01*
X198319935Y-110905943D01*
X197984097Y-110805685D01*
X197635456Y-110841578D01*
X197480065Y-110905943D01*
X197429135Y-111049530D01*
X196995501Y-111049530D01*
X196926857Y-110980767D01*
X196993638Y-110967483D01*
X197157796Y-110857796D01*
X197757796Y-110257796D01*
X197867483Y-110093638D01*
X197896428Y-109948124D01*
X197898395Y-109947311D01*
X198146440Y-109699698D01*
X198149842Y-109691505D01*
X198152689Y-109698395D01*
X198400302Y-109946440D01*
X198723989Y-110080847D01*
X199074473Y-110081153D01*
X199398395Y-109947311D01*
X199646440Y-109699698D01*
X199649842Y-109691505D01*
X199652689Y-109698395D01*
X199900302Y-109946440D01*
X200223989Y-110080847D01*
X200574473Y-110081153D01*
X200898395Y-109947311D01*
X201146440Y-109699698D01*
X201149842Y-109691505D01*
X201152689Y-109698395D01*
X201400302Y-109946440D01*
X201723989Y-110080847D01*
X202074473Y-110081153D01*
X202398395Y-109947311D01*
X202646440Y-109699698D01*
X202649842Y-109691505D01*
X202652689Y-109698395D01*
X202873143Y-109919233D01*
X202806362Y-109932517D01*
X202642204Y-110042204D01*
X202042204Y-110642204D01*
X201932517Y-110806362D01*
X201903572Y-110951876D01*
X201901605Y-110952689D01*
X201653560Y-111200302D01*
X201650158Y-111208495D01*
X201647311Y-111201605D01*
X201399698Y-110953560D01*
X201076011Y-110819153D01*
X200725527Y-110818847D01*
X200401605Y-110952689D01*
X200153560Y-111200302D01*
X200150158Y-111208495D01*
X200147311Y-111201605D01*
X199899698Y-110953560D01*
X199576011Y-110819153D01*
X199225527Y-110818847D01*
X198901605Y-110952689D01*
X198653560Y-111200302D01*
X198629890Y-111257305D01*
X198550470Y-111229135D01*
X198079605Y-111700000D01*
X198550470Y-112170865D01*
X198629702Y-112142762D01*
X198652689Y-112198395D01*
X198900302Y-112446440D01*
X199223989Y-112580847D01*
X199574473Y-112581153D01*
X199898395Y-112447311D01*
X200146440Y-112199698D01*
X200149842Y-112191505D01*
X200152689Y-112198395D01*
X200400302Y-112446440D01*
X200723989Y-112580847D01*
X201074473Y-112581153D01*
X201398395Y-112447311D01*
X201646440Y-112199698D01*
X201649842Y-112191505D01*
X201652689Y-112198395D01*
X201900302Y-112446440D01*
X202223989Y-112580847D01*
X202574473Y-112581153D01*
X202898395Y-112447311D01*
X203146440Y-112199698D01*
X203149842Y-112191505D01*
X203152689Y-112198395D01*
X203400302Y-112446440D01*
X203723989Y-112580847D01*
X204074473Y-112581153D01*
X204398395Y-112447311D01*
X204646440Y-112199698D01*
X204649842Y-112191505D01*
X204652689Y-112198395D01*
X204900302Y-112446440D01*
X205223989Y-112580847D01*
X205574473Y-112581153D01*
X205898395Y-112447311D01*
X206146440Y-112199698D01*
X206280847Y-111876011D01*
X206281153Y-111525527D01*
X206147311Y-111201605D01*
X205899698Y-110953560D01*
X205692802Y-110867649D01*
X205693638Y-110867483D01*
X205857796Y-110757796D01*
X206662732Y-109952860D01*
X206686150Y-110009537D01*
X207088345Y-110412435D01*
X207614108Y-110630751D01*
X208183395Y-110631248D01*
X208709537Y-110413850D01*
X209112435Y-110011655D01*
X209330751Y-109485892D01*
X209331248Y-108916605D01*
X209113850Y-108390463D01*
X208711655Y-107987565D01*
X208185892Y-107769249D01*
X207616605Y-107768752D01*
X207156889Y-107958703D01*
X207557796Y-107557796D01*
X207667483Y-107393638D01*
X207706000Y-107200000D01*
X207706000Y-104000000D01*
X207667483Y-103806362D01*
X207557796Y-103642204D01*
X201781031Y-97865439D01*
X201781118Y-97765135D01*
X201677661Y-97514748D01*
X201486259Y-97323013D01*
X201236054Y-97219118D01*
X200965135Y-97218882D01*
X200714748Y-97322339D01*
X200523013Y-97513741D01*
X200419118Y-97763946D01*
X200418882Y-98034865D01*
X200522339Y-98285252D01*
X200713741Y-98476987D01*
X200963946Y-98580882D01*
X201065378Y-98580970D01*
X206694000Y-104209592D01*
X206694000Y-106990408D01*
X206042204Y-107642204D01*
X205932517Y-107806362D01*
X205894000Y-108000000D01*
X205894000Y-109290408D01*
X205761284Y-109423124D01*
X205780847Y-109376011D01*
X205781153Y-109025527D01*
X205647311Y-108701605D01*
X205399698Y-108453560D01*
X205076011Y-108319153D01*
X204725527Y-108318847D01*
X204401605Y-108452689D01*
X204153560Y-108700302D01*
X204150158Y-108708495D01*
X204147311Y-108701605D01*
X203899698Y-108453560D01*
X203576011Y-108319153D01*
X203225527Y-108318847D01*
X202901605Y-108452689D01*
X202653560Y-108700302D01*
X202650158Y-108708495D01*
X202647311Y-108701605D01*
X202399698Y-108453560D01*
X202076011Y-108319153D01*
X201725527Y-108318847D01*
X201401605Y-108452689D01*
X201153560Y-108700302D01*
X201150158Y-108708495D01*
X201147311Y-108701605D01*
X200899698Y-108453560D01*
X200576011Y-108319153D01*
X200225527Y-108318847D01*
X199901605Y-108452689D01*
X199653560Y-108700302D01*
X199650158Y-108708495D01*
X199647311Y-108701605D01*
X199399698Y-108453560D01*
X199076011Y-108319153D01*
X198725527Y-108318847D01*
X198401605Y-108452689D01*
X198153560Y-108700302D01*
X198150158Y-108708495D01*
X198147311Y-108701605D01*
X197899698Y-108453560D01*
X197576011Y-108319153D01*
X197225527Y-108318847D01*
X196901605Y-108452689D01*
X196653560Y-108700302D01*
X196650158Y-108708495D01*
X196647311Y-108701605D01*
X196399698Y-108453560D01*
X196076011Y-108319153D01*
X195725527Y-108318847D01*
X195401605Y-108452689D01*
X195153560Y-108700302D01*
X195150158Y-108708495D01*
X195147311Y-108701605D01*
X194899698Y-108453560D01*
X194576011Y-108319153D01*
X194225527Y-108318847D01*
X193901605Y-108452689D01*
X193653560Y-108700302D01*
X193519153Y-109023989D01*
X193518847Y-109374473D01*
X193652689Y-109698395D01*
X193900302Y-109946440D01*
X194014839Y-109994000D01*
X193709592Y-109994000D01*
X192406000Y-108690408D01*
X192406000Y-107300000D01*
X192367483Y-107106362D01*
X192257796Y-106942204D01*
X192190065Y-106874473D01*
X193018847Y-106874473D01*
X193152689Y-107198395D01*
X193400302Y-107446440D01*
X193723989Y-107580847D01*
X194074473Y-107581153D01*
X194398395Y-107447311D01*
X194646440Y-107199698D01*
X194649842Y-107191505D01*
X194652689Y-107198395D01*
X194900302Y-107446440D01*
X195223989Y-107580847D01*
X195574473Y-107581153D01*
X195898395Y-107447311D01*
X196146440Y-107199698D01*
X196149842Y-107191505D01*
X196152689Y-107198395D01*
X196400302Y-107446440D01*
X196723989Y-107580847D01*
X197074473Y-107581153D01*
X197398395Y-107447311D01*
X197646440Y-107199698D01*
X197649842Y-107191505D01*
X197652689Y-107198395D01*
X197900302Y-107446440D01*
X198223989Y-107580847D01*
X198574473Y-107581153D01*
X198898395Y-107447311D01*
X198995404Y-107350470D01*
X199429135Y-107350470D01*
X199480065Y-107494057D01*
X199815903Y-107594315D01*
X200164544Y-107558422D01*
X200319935Y-107494057D01*
X200370865Y-107350470D01*
X199900000Y-106879605D01*
X199429135Y-107350470D01*
X198995404Y-107350470D01*
X199146440Y-107199698D01*
X199170110Y-107142695D01*
X199249530Y-107170865D01*
X199720395Y-106700000D01*
X199249530Y-106229135D01*
X199170298Y-106257238D01*
X199147311Y-106201605D01*
X198995501Y-106049530D01*
X199429135Y-106049530D01*
X199900000Y-106520395D01*
X200370865Y-106049530D01*
X200319935Y-105905943D01*
X199984097Y-105805685D01*
X199635456Y-105841578D01*
X199480065Y-105905943D01*
X199429135Y-106049530D01*
X198995501Y-106049530D01*
X198899698Y-105953560D01*
X198576011Y-105819153D01*
X198225527Y-105818847D01*
X197901605Y-105952689D01*
X197653560Y-106200302D01*
X197650158Y-106208495D01*
X197647311Y-106201605D01*
X197399698Y-105953560D01*
X197076011Y-105819153D01*
X196725527Y-105818847D01*
X196401605Y-105952689D01*
X196153560Y-106200302D01*
X196150158Y-106208495D01*
X196147311Y-106201605D01*
X195899698Y-105953560D01*
X195576011Y-105819153D01*
X195225527Y-105818847D01*
X194901605Y-105952689D01*
X194653560Y-106200302D01*
X194650158Y-106208495D01*
X194647311Y-106201605D01*
X194399698Y-105953560D01*
X194076011Y-105819153D01*
X193725527Y-105818847D01*
X193401605Y-105952689D01*
X193153560Y-106200302D01*
X193019153Y-106523989D01*
X193018847Y-106874473D01*
X192190065Y-106874473D01*
X191057796Y-105742204D01*
X190893638Y-105632517D01*
X190700000Y-105594000D01*
X189357123Y-105594000D01*
X189286259Y-105523013D01*
X189245287Y-105506000D01*
X200390408Y-105506000D01*
X200869323Y-105984915D01*
X200653560Y-106200302D01*
X200629890Y-106257305D01*
X200550470Y-106229135D01*
X200079605Y-106700000D01*
X200550470Y-107170865D01*
X200629702Y-107142762D01*
X200652689Y-107198395D01*
X200900302Y-107446440D01*
X201223989Y-107580847D01*
X201574473Y-107581153D01*
X201898395Y-107447311D01*
X202146440Y-107199698D01*
X202149842Y-107191505D01*
X202152689Y-107198395D01*
X202400302Y-107446440D01*
X202723989Y-107580847D01*
X203074473Y-107581153D01*
X203398395Y-107447311D01*
X203646440Y-107199698D01*
X203649842Y-107191505D01*
X203652689Y-107198395D01*
X203900302Y-107446440D01*
X204223989Y-107580847D01*
X204574473Y-107581153D01*
X204898395Y-107447311D01*
X205146440Y-107199698D01*
X205280847Y-106876011D01*
X205281153Y-106525527D01*
X205147311Y-106201605D01*
X204899698Y-105953560D01*
X204576011Y-105819153D01*
X204225527Y-105818847D01*
X203901605Y-105952689D01*
X203653560Y-106200302D01*
X203650158Y-106208495D01*
X203647311Y-106201605D01*
X203399698Y-105953560D01*
X203076011Y-105819153D01*
X202725527Y-105818847D01*
X202401605Y-105952689D01*
X202153560Y-106200302D01*
X202150158Y-106208495D01*
X202147311Y-106201605D01*
X201906000Y-105959873D01*
X201906000Y-105800000D01*
X201867483Y-105606362D01*
X201757796Y-105442204D01*
X200957796Y-104642204D01*
X200793638Y-104532517D01*
X200600000Y-104494000D01*
X197369059Y-104494000D01*
X197476987Y-104386259D01*
X197580882Y-104136054D01*
X197580970Y-104034622D01*
X199657796Y-101957796D01*
X199735032Y-101842204D01*
X199767483Y-101793638D01*
X199806000Y-101600000D01*
X199806000Y-98657123D01*
X199876987Y-98586259D01*
X199980882Y-98336054D01*
X199981118Y-98065135D01*
X199877661Y-97814748D01*
X199686259Y-97623013D01*
X199572380Y-97575726D01*
X202759608Y-94355975D01*
X202813341Y-94274667D01*
X202867483Y-94193638D01*
X202867738Y-94192354D01*
X202868460Y-94191262D01*
X202886980Y-94095620D01*
X202906000Y-94000000D01*
X202906000Y-93939719D01*
X203146440Y-93699698D01*
X203149842Y-93691505D01*
X203152689Y-93698395D01*
X203400302Y-93946440D01*
X203723989Y-94080847D01*
X204074473Y-94081153D01*
X204398395Y-93947311D01*
X204646440Y-93699698D01*
X204649842Y-93691505D01*
X204652689Y-93698395D01*
X204900302Y-93946440D01*
X205223989Y-94080847D01*
X205574473Y-94081153D01*
X205898395Y-93947311D01*
X206146440Y-93699698D01*
X206280847Y-93376011D01*
X206281153Y-93025527D01*
X206147311Y-92701605D01*
X205899698Y-92453560D01*
X205576011Y-92319153D01*
X205225527Y-92318847D01*
X204901605Y-92452689D01*
X204653560Y-92700302D01*
X204650158Y-92708495D01*
X204647311Y-92701605D01*
X204399698Y-92453560D01*
X204076011Y-92319153D01*
X203725527Y-92318847D01*
X203401605Y-92452689D01*
X203153560Y-92700302D01*
X203150158Y-92708495D01*
X203147311Y-92701605D01*
X202899698Y-92453560D01*
X202576011Y-92319153D01*
X202225527Y-92318847D01*
X201901605Y-92452689D01*
X201653560Y-92700302D01*
X201650158Y-92708495D01*
X201647311Y-92701605D01*
X201399698Y-92453560D01*
X201076011Y-92319153D01*
X200725527Y-92318847D01*
X200401605Y-92452689D01*
X200153560Y-92700302D01*
X200150158Y-92708495D01*
X200147311Y-92701605D01*
X199899698Y-92453560D01*
X199576011Y-92319153D01*
X199225527Y-92318847D01*
X198901605Y-92452689D01*
X198653560Y-92700302D01*
X198650158Y-92708495D01*
X198647311Y-92701605D01*
X198399698Y-92453560D01*
X198076011Y-92319153D01*
X197725527Y-92318847D01*
X197401605Y-92452689D01*
X197153560Y-92700302D01*
X197150158Y-92708495D01*
X197147311Y-92701605D01*
X196905611Y-92459483D01*
X197057796Y-92357796D01*
X197757796Y-91657796D01*
X197867483Y-91493638D01*
X197874755Y-91457079D01*
X197898395Y-91447311D01*
X198146440Y-91199698D01*
X198149842Y-91191505D01*
X198152689Y-91198395D01*
X198400302Y-91446440D01*
X198723989Y-91580847D01*
X199074473Y-91581153D01*
X199398395Y-91447311D01*
X199646440Y-91199698D01*
X199649842Y-91191505D01*
X199652689Y-91198395D01*
X199900302Y-91446440D01*
X200223989Y-91580847D01*
X200574473Y-91581153D01*
X200898395Y-91447311D01*
X201146440Y-91199698D01*
X201149842Y-91191505D01*
X201152689Y-91198395D01*
X201400302Y-91446440D01*
X201723989Y-91580847D01*
X202074473Y-91581153D01*
X202398395Y-91447311D01*
X202646440Y-91199698D01*
X202649842Y-91191505D01*
X202652689Y-91198395D01*
X202900302Y-91446440D01*
X203223989Y-91580847D01*
X203574473Y-91581153D01*
X203898395Y-91447311D01*
X204146440Y-91199698D01*
X204149842Y-91191505D01*
X204152689Y-91198395D01*
X204400302Y-91446440D01*
X204723989Y-91580847D01*
X205074473Y-91581153D01*
X205398395Y-91447311D01*
X205646440Y-91199698D01*
X205780847Y-90876011D01*
X205781153Y-90525527D01*
X205647311Y-90201605D01*
X205399698Y-89953560D01*
X205076011Y-89819153D01*
X204725527Y-89818847D01*
X204401605Y-89952689D01*
X204153560Y-90200302D01*
X204150158Y-90208495D01*
X204147311Y-90201605D01*
X203899698Y-89953560D01*
X203576011Y-89819153D01*
X203225527Y-89818847D01*
X202901605Y-89952689D01*
X202653560Y-90200302D01*
X202650158Y-90208495D01*
X202647311Y-90201605D01*
X202399698Y-89953560D01*
X202076011Y-89819153D01*
X201725527Y-89818847D01*
X201401605Y-89952689D01*
X201153560Y-90200302D01*
X201150158Y-90208495D01*
X201147311Y-90201605D01*
X200899698Y-89953560D01*
X200576011Y-89819153D01*
X200225527Y-89818847D01*
X199901605Y-89952689D01*
X199653560Y-90200302D01*
X199650158Y-90208495D01*
X199647311Y-90201605D01*
X199399698Y-89953560D01*
X199076011Y-89819153D01*
X198725527Y-89818847D01*
X198401605Y-89952689D01*
X198153560Y-90200302D01*
X198150158Y-90208495D01*
X198147311Y-90201605D01*
X197899698Y-89953560D01*
X197576011Y-89819153D01*
X197225527Y-89818847D01*
X196901605Y-89952689D01*
X196653560Y-90200302D01*
X196650158Y-90208495D01*
X196647311Y-90201605D01*
X196399698Y-89953560D01*
X196076011Y-89819153D01*
X195725527Y-89818847D01*
X195401605Y-89952689D01*
X195153560Y-90200302D01*
X195150158Y-90208495D01*
X195147311Y-90201605D01*
X194899698Y-89953560D01*
X194576011Y-89819153D01*
X194225527Y-89818847D01*
X193901605Y-89952689D01*
X193653560Y-90200302D01*
X193519153Y-90523989D01*
X193518847Y-90874473D01*
X193652689Y-91198395D01*
X193900302Y-91446440D01*
X194014839Y-91494000D01*
X193800000Y-91494000D01*
X193606362Y-91532517D01*
X193442204Y-91642204D01*
X191890408Y-93194000D01*
X190057123Y-93194000D01*
X189986259Y-93123013D01*
X189736054Y-93019118D01*
X189465135Y-93018882D01*
X189214748Y-93122339D01*
X189023013Y-93313741D01*
X188919118Y-93563946D01*
X188918882Y-93834865D01*
X189022339Y-94085252D01*
X189031072Y-94094000D01*
X187531000Y-94094000D01*
X187531000Y-94022250D01*
X187435750Y-93927000D01*
X187226365Y-93927000D01*
X187150000Y-93911536D01*
X185650000Y-93911536D01*
X185567817Y-93927000D01*
X185364250Y-93927000D01*
X185269000Y-94022250D01*
X185269000Y-94175785D01*
X185280881Y-94204469D01*
X185261536Y-94300000D01*
X185261536Y-94900000D01*
X185281043Y-95003670D01*
X185261536Y-95100000D01*
X185261536Y-95700000D01*
X185281043Y-95803670D01*
X185261536Y-95900000D01*
X185261536Y-96500000D01*
X185281043Y-96603670D01*
X185261536Y-96700000D01*
X185261536Y-97210588D01*
X184231000Y-96180052D01*
X184231000Y-92700000D01*
X185261536Y-92700000D01*
X185261536Y-93300000D01*
X185279939Y-93397805D01*
X185269000Y-93424215D01*
X185269000Y-93577750D01*
X185364250Y-93673000D01*
X185573635Y-93673000D01*
X185650000Y-93688464D01*
X187150000Y-93688464D01*
X187232183Y-93673000D01*
X187435750Y-93673000D01*
X187531000Y-93577750D01*
X187531000Y-93424215D01*
X187519119Y-93395531D01*
X187538464Y-93300000D01*
X187538464Y-92700000D01*
X187511897Y-92558810D01*
X187428454Y-92429135D01*
X187301134Y-92342141D01*
X187150000Y-92311536D01*
X185650000Y-92311536D01*
X185508810Y-92338103D01*
X185379135Y-92421546D01*
X185292141Y-92548866D01*
X185261536Y-92700000D01*
X184231000Y-92700000D01*
X184231000Y-92238464D01*
X184800000Y-92238464D01*
X184941190Y-92211897D01*
X185070865Y-92128454D01*
X185157859Y-92001134D01*
X185188464Y-91850000D01*
X185188464Y-90983395D01*
X189968752Y-90983395D01*
X190186150Y-91509537D01*
X190588345Y-91912435D01*
X191114108Y-92130751D01*
X191683395Y-92131248D01*
X192209537Y-91913850D01*
X192612435Y-91511655D01*
X192830751Y-90985892D01*
X192831248Y-90416605D01*
X192613850Y-89890463D01*
X192211655Y-89487565D01*
X191685892Y-89269249D01*
X191116605Y-89268752D01*
X190590463Y-89486150D01*
X190187565Y-89888345D01*
X189969249Y-90414108D01*
X189968752Y-90983395D01*
X185188464Y-90983395D01*
X185188464Y-90350000D01*
X185161897Y-90208810D01*
X185078454Y-90079135D01*
X185006000Y-90029629D01*
X185006000Y-89113464D01*
X185300000Y-89113464D01*
X185441190Y-89086897D01*
X185570865Y-89003454D01*
X185657859Y-88876134D01*
X185688464Y-88725000D01*
X185688464Y-88374473D01*
X193018847Y-88374473D01*
X193152689Y-88698395D01*
X193400302Y-88946440D01*
X193723989Y-89080847D01*
X194074473Y-89081153D01*
X194398395Y-88947311D01*
X194646440Y-88699698D01*
X194649842Y-88691505D01*
X194652689Y-88698395D01*
X194900302Y-88946440D01*
X195223989Y-89080847D01*
X195574473Y-89081153D01*
X195898395Y-88947311D01*
X196146440Y-88699698D01*
X196149842Y-88691505D01*
X196152689Y-88698395D01*
X196400302Y-88946440D01*
X196723989Y-89080847D01*
X197074473Y-89081153D01*
X197398395Y-88947311D01*
X197646440Y-88699698D01*
X197649842Y-88691505D01*
X197652689Y-88698395D01*
X197900302Y-88946440D01*
X198223989Y-89080847D01*
X198574473Y-89081153D01*
X198898395Y-88947311D01*
X198995404Y-88850470D01*
X199429135Y-88850470D01*
X199480065Y-88994057D01*
X199815903Y-89094315D01*
X200164544Y-89058422D01*
X200319935Y-88994057D01*
X200370865Y-88850470D01*
X199900000Y-88379605D01*
X199429135Y-88850470D01*
X198995404Y-88850470D01*
X199146440Y-88699698D01*
X199170110Y-88642695D01*
X199249530Y-88670865D01*
X199720395Y-88200000D01*
X200079605Y-88200000D01*
X200550470Y-88670865D01*
X200629702Y-88642762D01*
X200652689Y-88698395D01*
X200900302Y-88946440D01*
X201223989Y-89080847D01*
X201574473Y-89081153D01*
X201898395Y-88947311D01*
X202146440Y-88699698D01*
X202149842Y-88691505D01*
X202152689Y-88698395D01*
X202400302Y-88946440D01*
X202723989Y-89080847D01*
X203074473Y-89081153D01*
X203398395Y-88947311D01*
X203646440Y-88699698D01*
X203649842Y-88691505D01*
X203652689Y-88698395D01*
X203900302Y-88946440D01*
X204223989Y-89080847D01*
X204574473Y-89081153D01*
X204898395Y-88947311D01*
X205146440Y-88699698D01*
X205280847Y-88376011D01*
X205281153Y-88025527D01*
X205147311Y-87701605D01*
X204899698Y-87453560D01*
X204576011Y-87319153D01*
X204225527Y-87318847D01*
X203901605Y-87452689D01*
X203653560Y-87700302D01*
X203650158Y-87708495D01*
X203647311Y-87701605D01*
X203399698Y-87453560D01*
X203076011Y-87319153D01*
X202725527Y-87318847D01*
X202401605Y-87452689D01*
X202153560Y-87700302D01*
X202150158Y-87708495D01*
X202147311Y-87701605D01*
X201899698Y-87453560D01*
X201576011Y-87319153D01*
X201225527Y-87318847D01*
X200901605Y-87452689D01*
X200653560Y-87700302D01*
X200629890Y-87757305D01*
X200550470Y-87729135D01*
X200079605Y-88200000D01*
X199720395Y-88200000D01*
X199249530Y-87729135D01*
X199170298Y-87757238D01*
X199147311Y-87701605D01*
X198995501Y-87549530D01*
X199429135Y-87549530D01*
X199900000Y-88020395D01*
X200370865Y-87549530D01*
X200319935Y-87405943D01*
X199984097Y-87305685D01*
X199635456Y-87341578D01*
X199480065Y-87405943D01*
X199429135Y-87549530D01*
X198995501Y-87549530D01*
X198899698Y-87453560D01*
X198576011Y-87319153D01*
X198225527Y-87318847D01*
X197901605Y-87452689D01*
X197653560Y-87700302D01*
X197650158Y-87708495D01*
X197647311Y-87701605D01*
X197399698Y-87453560D01*
X197076011Y-87319153D01*
X196725527Y-87318847D01*
X196401605Y-87452689D01*
X196153560Y-87700302D01*
X196150158Y-87708495D01*
X196147311Y-87701605D01*
X195899698Y-87453560D01*
X195576011Y-87319153D01*
X195225527Y-87318847D01*
X194901605Y-87452689D01*
X194653560Y-87700302D01*
X194650158Y-87708495D01*
X194647311Y-87701605D01*
X194399698Y-87453560D01*
X194076011Y-87319153D01*
X193725527Y-87318847D01*
X193401605Y-87452689D01*
X193153560Y-87700302D01*
X193019153Y-88023989D01*
X193018847Y-88374473D01*
X185688464Y-88374473D01*
X185688464Y-87475000D01*
X185661897Y-87333810D01*
X185578454Y-87204135D01*
X185451134Y-87117141D01*
X185300000Y-87086536D01*
X183800000Y-87086536D01*
X183658810Y-87113103D01*
X183529135Y-87196546D01*
X183442141Y-87323866D01*
X183411536Y-87475000D01*
X183411536Y-88725000D01*
X183438103Y-88866190D01*
X183521546Y-88995865D01*
X183558964Y-89021432D01*
X183314748Y-89122339D01*
X183268006Y-89169000D01*
X181867202Y-89169000D01*
X181880882Y-89136054D01*
X181880902Y-89113464D01*
X182800000Y-89113464D01*
X182941190Y-89086897D01*
X183070865Y-89003454D01*
X183157859Y-88876134D01*
X183188464Y-88725000D01*
X183188464Y-87475000D01*
X183161897Y-87333810D01*
X183078454Y-87204135D01*
X182951134Y-87117141D01*
X182800000Y-87086536D01*
X181300000Y-87086536D01*
X181158810Y-87113103D01*
X181029135Y-87196546D01*
X180942141Y-87323866D01*
X180911536Y-87475000D01*
X180911536Y-88382347D01*
X180814748Y-88422339D01*
X180623013Y-88613741D01*
X180519118Y-88863946D01*
X180518882Y-89134865D01*
X180532986Y-89169000D01*
X179431000Y-89169000D01*
X179431000Y-88141309D01*
X179433190Y-88140897D01*
X179562865Y-88057454D01*
X179649859Y-87930134D01*
X179660152Y-87879306D01*
X179663946Y-87880882D01*
X179934865Y-87881118D01*
X180185252Y-87777661D01*
X180376987Y-87586259D01*
X180480882Y-87336054D01*
X180481118Y-87065135D01*
X180377661Y-86814748D01*
X180186259Y-86623013D01*
X179936054Y-86519118D01*
X179678562Y-86518894D01*
X179653897Y-86387810D01*
X179570454Y-86258135D01*
X179443134Y-86171141D01*
X179292000Y-86140536D01*
X177792000Y-86140536D01*
X177650810Y-86167103D01*
X177521135Y-86250546D01*
X177434141Y-86377866D01*
X177403536Y-86529000D01*
X177403536Y-87779000D01*
X177430103Y-87920190D01*
X177513546Y-88049865D01*
X177640866Y-88136859D01*
X177792000Y-88167464D01*
X178369000Y-88167464D01*
X178369000Y-89961536D01*
X177800000Y-89961536D01*
X177696330Y-89981043D01*
X177600000Y-89961536D01*
X177000000Y-89961536D01*
X176896330Y-89981043D01*
X176800000Y-89961536D01*
X176200000Y-89961536D01*
X176096330Y-89981043D01*
X176000000Y-89961536D01*
X175406000Y-89961536D01*
X175406000Y-89200000D01*
X175367483Y-89006362D01*
X175257796Y-88842204D01*
X175206000Y-88790408D01*
X175206000Y-88150049D01*
X175292000Y-88167464D01*
X176792000Y-88167464D01*
X176933190Y-88140897D01*
X177062865Y-88057454D01*
X177149859Y-87930134D01*
X177180464Y-87779000D01*
X177180464Y-86529000D01*
X177153897Y-86387810D01*
X177070454Y-86258135D01*
X176943134Y-86171141D01*
X176792000Y-86140536D01*
X176548000Y-86140536D01*
X176548000Y-85918836D01*
X176590190Y-85910897D01*
X176719865Y-85827454D01*
X176806859Y-85700134D01*
X176837464Y-85549000D01*
X176837464Y-83999000D01*
X176810897Y-83857810D01*
X176727454Y-83728135D01*
X176600134Y-83641141D01*
X176449000Y-83610536D01*
X175849000Y-83610536D01*
X175707810Y-83637103D01*
X175578135Y-83720546D01*
X175513470Y-83815187D01*
X175457454Y-83728135D01*
X175385000Y-83678629D01*
X175385000Y-82963000D01*
X175346483Y-82769362D01*
X175236796Y-82605204D01*
X173331796Y-80700204D01*
X173167638Y-80590517D01*
X172974000Y-80552000D01*
X171679592Y-80552000D01*
X171193464Y-80065872D01*
X171193464Y-79018000D01*
X171166897Y-78876810D01*
X171083454Y-78747135D01*
X170956134Y-78660141D01*
X170805000Y-78629536D01*
X169555000Y-78629536D01*
X169413810Y-78656103D01*
X169284135Y-78739546D01*
X169197141Y-78866866D01*
X169166536Y-79018000D01*
X169166536Y-80518000D01*
X169193103Y-80659190D01*
X169276546Y-80788865D01*
X169403866Y-80875859D01*
X169555000Y-80906464D01*
X170602872Y-80906464D01*
X171112204Y-81415796D01*
X171276362Y-81525483D01*
X171470000Y-81564000D01*
X172764408Y-81564000D01*
X174373000Y-83172592D01*
X174373000Y-83678807D01*
X174308135Y-83720546D01*
X174243470Y-83815187D01*
X174187454Y-83728135D01*
X174115000Y-83678629D01*
X174115000Y-83471000D01*
X174076483Y-83277362D01*
X173966796Y-83113204D01*
X173097796Y-82244204D01*
X172933638Y-82134517D01*
X172740000Y-82096000D01*
X170431464Y-82096000D01*
X170431464Y-81852000D01*
X170404897Y-81710810D01*
X170321454Y-81581135D01*
X170194134Y-81494141D01*
X170043000Y-81463536D01*
X168793000Y-81463536D01*
X168731000Y-81475202D01*
X168731000Y-79119948D01*
X169463095Y-78387853D01*
X169555000Y-78406464D01*
X170805000Y-78406464D01*
X170946190Y-78379897D01*
X171075865Y-78296454D01*
X171162859Y-78169134D01*
X171193464Y-78018000D01*
X171193464Y-77271000D01*
X171832665Y-77271000D01*
X171808000Y-77395000D01*
X171808000Y-78294894D01*
X171768135Y-78320546D01*
X171681141Y-78447866D01*
X171650536Y-78599000D01*
X171650536Y-80149000D01*
X171677103Y-80290190D01*
X171760546Y-80419865D01*
X171887866Y-80506859D01*
X172039000Y-80537464D01*
X172639000Y-80537464D01*
X172780190Y-80510897D01*
X172909865Y-80427454D01*
X172974530Y-80332813D01*
X173030546Y-80419865D01*
X173157866Y-80506859D01*
X173309000Y-80537464D01*
X173909000Y-80537464D01*
X174050190Y-80510897D01*
X174179865Y-80427454D01*
X174244530Y-80332813D01*
X174300546Y-80419865D01*
X174427866Y-80506859D01*
X174579000Y-80537464D01*
X175179000Y-80537464D01*
X175320190Y-80510897D01*
X175449865Y-80427454D01*
X175513420Y-80334439D01*
X175526004Y-80364820D01*
X175633181Y-80471996D01*
X175773215Y-80530000D01*
X175926750Y-80530000D01*
X176022000Y-80434750D01*
X176022000Y-79501000D01*
X176276000Y-79501000D01*
X176276000Y-80434750D01*
X176371250Y-80530000D01*
X176524785Y-80530000D01*
X176664819Y-80471996D01*
X176771996Y-80364820D01*
X176830000Y-80224786D01*
X176830000Y-79596250D01*
X176734750Y-79501000D01*
X176276000Y-79501000D01*
X176022000Y-79501000D01*
X176002000Y-79501000D01*
X176002000Y-79247000D01*
X176022000Y-79247000D01*
X176022000Y-78313250D01*
X176276000Y-78313250D01*
X176276000Y-79247000D01*
X176734750Y-79247000D01*
X176830000Y-79151750D01*
X176830000Y-78523214D01*
X176771996Y-78383180D01*
X176664819Y-78276004D01*
X176524785Y-78218000D01*
X176371250Y-78218000D01*
X176276000Y-78313250D01*
X176022000Y-78313250D01*
X175926750Y-78218000D01*
X175773215Y-78218000D01*
X175633181Y-78276004D01*
X175526004Y-78383180D01*
X175513030Y-78414503D01*
X175457454Y-78328135D01*
X175330134Y-78241141D01*
X175179000Y-78210536D01*
X174579000Y-78210536D01*
X174437810Y-78237103D01*
X174308135Y-78320546D01*
X174243470Y-78415187D01*
X174187454Y-78328135D01*
X174060134Y-78241141D01*
X173909000Y-78210536D01*
X173309000Y-78210536D01*
X173167810Y-78237103D01*
X173038135Y-78320546D01*
X172973470Y-78415187D01*
X172917454Y-78328135D01*
X172870000Y-78295711D01*
X172870000Y-77753464D01*
X173744000Y-77753464D01*
X173885190Y-77726897D01*
X174014865Y-77643454D01*
X174101859Y-77516134D01*
X174132464Y-77365000D01*
X174132464Y-76962250D01*
X174363000Y-76962250D01*
X174363000Y-77440785D01*
X174421004Y-77580819D01*
X174528180Y-77687996D01*
X174668214Y-77746000D01*
X175271750Y-77746000D01*
X175367000Y-77650750D01*
X175367000Y-76867000D01*
X175621000Y-76867000D01*
X175621000Y-77650750D01*
X175716250Y-77746000D01*
X176319786Y-77746000D01*
X176459820Y-77687996D01*
X176566996Y-77580819D01*
X176625000Y-77440785D01*
X176625000Y-76962250D01*
X176529750Y-76867000D01*
X175621000Y-76867000D01*
X175367000Y-76867000D01*
X174458250Y-76867000D01*
X174363000Y-76962250D01*
X174132464Y-76962250D01*
X174132464Y-76115000D01*
X174118204Y-76039215D01*
X174363000Y-76039215D01*
X174363000Y-76517750D01*
X174458250Y-76613000D01*
X175367000Y-76613000D01*
X175367000Y-75829250D01*
X175621000Y-75829250D01*
X175621000Y-76613000D01*
X176529750Y-76613000D01*
X176625000Y-76517750D01*
X176625000Y-76039215D01*
X176566996Y-75899181D01*
X176459820Y-75792004D01*
X176319786Y-75734000D01*
X175716250Y-75734000D01*
X175621000Y-75829250D01*
X175367000Y-75829250D01*
X175271750Y-75734000D01*
X174668214Y-75734000D01*
X174528180Y-75792004D01*
X174421004Y-75899181D01*
X174363000Y-76039215D01*
X174118204Y-76039215D01*
X174105897Y-75973810D01*
X174022454Y-75844135D01*
X173895134Y-75757141D01*
X173744000Y-75726536D01*
X172244000Y-75726536D01*
X172102810Y-75753103D01*
X171973135Y-75836546D01*
X171886141Y-75963866D01*
X171855536Y-76115000D01*
X171855536Y-76209000D01*
X171027642Y-76209000D01*
X170956134Y-76160141D01*
X170805000Y-76129536D01*
X169555000Y-76129536D01*
X169413810Y-76156103D01*
X169284135Y-76239546D01*
X169197141Y-76366866D01*
X169166536Y-76518000D01*
X169166536Y-77182517D01*
X167824526Y-78524526D01*
X167709420Y-78696795D01*
X167669000Y-78900000D01*
X167669000Y-84600000D01*
X167709420Y-84803205D01*
X167824526Y-84975474D01*
X168326526Y-85477474D01*
X168404536Y-85529598D01*
X168404536Y-85852000D01*
X168431103Y-85993190D01*
X168514546Y-86122865D01*
X168572277Y-86162311D01*
X168546810Y-86167103D01*
X168417135Y-86250546D01*
X168330141Y-86377866D01*
X168321790Y-86419106D01*
X168065135Y-86418882D01*
X167814748Y-86522339D01*
X167623013Y-86713741D01*
X167519118Y-86963946D01*
X167518882Y-87234865D01*
X167622339Y-87485252D01*
X167813741Y-87676987D01*
X168063946Y-87780882D01*
X168299929Y-87781088D01*
X168326103Y-87920190D01*
X168409546Y-88049865D01*
X168536866Y-88136859D01*
X168688000Y-88167464D01*
X170188000Y-88167464D01*
X170329190Y-88140897D01*
X170458865Y-88057454D01*
X170545859Y-87930134D01*
X170576464Y-87779000D01*
X170576464Y-86529000D01*
X170549897Y-86387810D01*
X170466454Y-86258135D01*
X170339134Y-86171141D01*
X170271819Y-86157510D01*
X170313865Y-86130454D01*
X170400859Y-86003134D01*
X170431464Y-85852000D01*
X170431464Y-84352000D01*
X170404897Y-84210810D01*
X170321454Y-84081135D01*
X170194134Y-83994141D01*
X170043000Y-83963536D01*
X168793000Y-83963536D01*
X168731000Y-83975202D01*
X168731000Y-83727909D01*
X168793000Y-83740464D01*
X170043000Y-83740464D01*
X170184190Y-83713897D01*
X170313865Y-83630454D01*
X170400859Y-83503134D01*
X170431464Y-83352000D01*
X170431464Y-83108000D01*
X172530408Y-83108000D01*
X173101914Y-83679506D01*
X173038135Y-83720546D01*
X172973470Y-83815187D01*
X172917454Y-83728135D01*
X172790134Y-83641141D01*
X172639000Y-83610536D01*
X172039000Y-83610536D01*
X171897810Y-83637103D01*
X171768135Y-83720546D01*
X171681141Y-83847866D01*
X171650536Y-83999000D01*
X171650536Y-85549000D01*
X171677103Y-85690190D01*
X171760546Y-85819865D01*
X171833000Y-85869371D01*
X171833000Y-86140536D01*
X171188000Y-86140536D01*
X171046810Y-86167103D01*
X170917135Y-86250546D01*
X170830141Y-86377866D01*
X170799536Y-86529000D01*
X170799536Y-87779000D01*
X170826103Y-87920190D01*
X170909546Y-88049865D01*
X171036866Y-88136859D01*
X171188000Y-88167464D01*
X172235872Y-88167464D01*
X172794000Y-88725592D01*
X172794000Y-89030941D01*
X172686259Y-88923013D01*
X172436054Y-88819118D01*
X172165135Y-88818882D01*
X171914748Y-88922339D01*
X171723013Y-89113741D01*
X171619118Y-89363946D01*
X171618882Y-89634865D01*
X171722339Y-89885252D01*
X171913741Y-90076987D01*
X171922837Y-90080764D01*
X171842141Y-90198866D01*
X171811536Y-90350000D01*
X171811536Y-91850000D01*
X171838103Y-91991190D01*
X171921546Y-92120865D01*
X171994000Y-92170371D01*
X171994000Y-94200000D01*
X172032517Y-94393638D01*
X172142204Y-94557796D01*
X172351438Y-94767030D01*
X172236054Y-94719118D01*
X171965135Y-94718882D01*
X171738464Y-94812540D01*
X171738464Y-94300000D01*
X171718957Y-94196330D01*
X171738464Y-94100000D01*
X171738464Y-93500000D01*
X171720061Y-93402195D01*
X171731000Y-93375785D01*
X171731000Y-93222250D01*
X171635750Y-93127000D01*
X171426365Y-93127000D01*
X171350000Y-93111536D01*
X169850000Y-93111536D01*
X169767817Y-93127000D01*
X169564250Y-93127000D01*
X169469000Y-93222250D01*
X169469000Y-93294000D01*
X169009592Y-93294000D01*
X168339807Y-92624215D01*
X169469000Y-92624215D01*
X169469000Y-92777750D01*
X169564250Y-92873000D01*
X170473000Y-92873000D01*
X170473000Y-92414250D01*
X170727000Y-92414250D01*
X170727000Y-92873000D01*
X171635750Y-92873000D01*
X171731000Y-92777750D01*
X171731000Y-92624215D01*
X171672996Y-92484181D01*
X171565820Y-92377004D01*
X171425786Y-92319000D01*
X170822250Y-92319000D01*
X170727000Y-92414250D01*
X170473000Y-92414250D01*
X170377750Y-92319000D01*
X169774214Y-92319000D01*
X169634180Y-92377004D01*
X169527004Y-92484181D01*
X169469000Y-92624215D01*
X168339807Y-92624215D01*
X167206000Y-91490408D01*
X167206000Y-80000000D01*
X167167483Y-79806362D01*
X167057796Y-79642204D01*
X165657796Y-78242204D01*
X165493638Y-78132517D01*
X165300000Y-78094000D01*
X165288464Y-78094000D01*
X165288464Y-77975000D01*
X165261897Y-77833810D01*
X165178454Y-77704135D01*
X165051134Y-77617141D01*
X164900000Y-77586536D01*
X163400000Y-77586536D01*
X163258810Y-77613103D01*
X163129135Y-77696546D01*
X163042141Y-77823866D01*
X163011536Y-77975000D01*
X163011536Y-79225000D01*
X163038103Y-79366190D01*
X163121546Y-79495865D01*
X163248866Y-79582859D01*
X163400000Y-79613464D01*
X163644000Y-79613464D01*
X163644000Y-82147973D01*
X163582127Y-82173538D01*
X163274618Y-82480511D01*
X163107990Y-82881795D01*
X163107611Y-83316299D01*
X163273538Y-83717873D01*
X163580511Y-84025382D01*
X163981795Y-84192010D01*
X164416299Y-84192389D01*
X164817873Y-84026462D01*
X165125382Y-83719489D01*
X165292010Y-83318205D01*
X165292389Y-82883701D01*
X165126462Y-82482127D01*
X164819489Y-82174618D01*
X164656000Y-82106731D01*
X164656000Y-79613464D01*
X164900000Y-79613464D01*
X165041190Y-79586897D01*
X165170865Y-79503454D01*
X165257859Y-79376134D01*
X165275151Y-79290743D01*
X166194000Y-80209592D01*
X166194000Y-91700000D01*
X166232517Y-91893638D01*
X166342204Y-92057796D01*
X168378408Y-94094000D01*
X166259592Y-94094000D01*
X165388464Y-93222872D01*
X165388464Y-92175000D01*
X165361897Y-92033810D01*
X165278454Y-91904135D01*
X165151134Y-91817141D01*
X165000000Y-91786536D01*
X164706000Y-91786536D01*
X164706000Y-89152687D01*
X164817873Y-89106462D01*
X165125382Y-88799489D01*
X165292010Y-88398205D01*
X165292389Y-87963701D01*
X165126462Y-87562127D01*
X164819489Y-87254618D01*
X164418205Y-87087990D01*
X163983701Y-87087611D01*
X163582127Y-87253538D01*
X163274618Y-87560511D01*
X163107990Y-87961795D01*
X163107611Y-88396299D01*
X163273538Y-88797873D01*
X163580511Y-89105382D01*
X163694000Y-89152507D01*
X163694000Y-91786536D01*
X163500000Y-91786536D01*
X163358810Y-91813103D01*
X163229135Y-91896546D01*
X163142141Y-92023866D01*
X163111536Y-92175000D01*
X163111536Y-93425000D01*
X163138103Y-93566190D01*
X163221546Y-93695865D01*
X163348866Y-93782859D01*
X163500000Y-93813464D01*
X164547872Y-93813464D01*
X165692204Y-94957796D01*
X165856362Y-95067483D01*
X166050000Y-95106000D01*
X169461536Y-95106000D01*
X169461536Y-95700000D01*
X169479939Y-95797805D01*
X169469000Y-95824215D01*
X169469000Y-95977750D01*
X169564250Y-96073000D01*
X169773635Y-96073000D01*
X169850000Y-96088464D01*
X171350000Y-96088464D01*
X171432183Y-96073000D01*
X171635750Y-96073000D01*
X171726475Y-95982275D01*
X171963946Y-96080882D01*
X172234865Y-96081118D01*
X172485252Y-95977661D01*
X172676987Y-95786259D01*
X172780882Y-95536054D01*
X172781118Y-95265135D01*
X172732938Y-95148530D01*
X173394000Y-95809592D01*
X173394000Y-99054292D01*
X173377661Y-99014748D01*
X173186259Y-98823013D01*
X172936054Y-98719118D01*
X172665135Y-98718882D01*
X172414748Y-98822339D01*
X172342962Y-98894000D01*
X171738464Y-98894000D01*
X171738464Y-98306000D01*
X171743051Y-98306000D01*
X171913741Y-98476987D01*
X172163946Y-98580882D01*
X172434865Y-98581118D01*
X172685252Y-98477661D01*
X172876987Y-98286259D01*
X172980882Y-98036054D01*
X172981118Y-97765135D01*
X172877661Y-97514748D01*
X172686259Y-97323013D01*
X172436054Y-97219118D01*
X172165135Y-97218882D01*
X171983334Y-97294000D01*
X171738464Y-97294000D01*
X171738464Y-96700000D01*
X171720061Y-96602195D01*
X171731000Y-96575785D01*
X171731000Y-96422250D01*
X171635750Y-96327000D01*
X171426365Y-96327000D01*
X171350000Y-96311536D01*
X169850000Y-96311536D01*
X169767817Y-96327000D01*
X169564250Y-96327000D01*
X169469000Y-96422250D01*
X169469000Y-96494000D01*
X168809592Y-96494000D01*
X168681031Y-96365439D01*
X168681118Y-96265135D01*
X168577661Y-96014748D01*
X168386259Y-95823013D01*
X168136054Y-95719118D01*
X167865135Y-95718882D01*
X167614748Y-95822339D01*
X167423013Y-96013741D01*
X167319118Y-96263946D01*
X167318882Y-96534865D01*
X167422339Y-96785252D01*
X167613741Y-96976987D01*
X167863946Y-97080882D01*
X167965378Y-97080970D01*
X168242204Y-97357796D01*
X168406362Y-97467483D01*
X168600000Y-97506000D01*
X169461536Y-97506000D01*
X169461536Y-98094000D01*
X167800000Y-98094000D01*
X167606362Y-98132517D01*
X167442204Y-98242204D01*
X166742204Y-98942204D01*
X166632517Y-99106362D01*
X166594000Y-99300000D01*
X166594000Y-100214346D01*
X166532517Y-100306362D01*
X166494000Y-100500000D01*
X166532517Y-100693638D01*
X166555850Y-100728558D01*
X165567287Y-101717121D01*
X165341820Y-101491261D01*
X164926071Y-101318627D01*
X164475904Y-101318234D01*
X164059854Y-101490142D01*
X163741261Y-101808180D01*
X163568627Y-102223929D01*
X163568234Y-102674096D01*
X163740142Y-103090146D01*
X164058180Y-103408739D01*
X164169348Y-103454900D01*
X164059854Y-103500142D01*
X163741261Y-103818180D01*
X163568627Y-104233929D01*
X163568234Y-104684096D01*
X163740142Y-105100146D01*
X164058180Y-105418739D01*
X164473929Y-105591373D01*
X164924096Y-105591766D01*
X165340146Y-105419858D01*
X165658739Y-105101820D01*
X165727259Y-104936806D01*
X167020476Y-104899793D01*
X167109787Y-104879356D01*
X167199638Y-104861483D01*
X167205758Y-104857394D01*
X167212933Y-104855752D01*
X167287621Y-104802694D01*
X167363796Y-104751796D01*
X168257796Y-103857796D01*
X168367483Y-103693638D01*
X168406000Y-103500000D01*
X168406000Y-100422250D01*
X169469000Y-100422250D01*
X169469000Y-100575785D01*
X169479030Y-100600000D01*
X169469000Y-100624215D01*
X169469000Y-100777750D01*
X169564250Y-100873000D01*
X169754900Y-100873000D01*
X169774214Y-100881000D01*
X170377750Y-100881000D01*
X170385750Y-100873000D01*
X170473000Y-100873000D01*
X170473000Y-100327000D01*
X170727000Y-100327000D01*
X170727000Y-100873000D01*
X170814250Y-100873000D01*
X170822250Y-100881000D01*
X171425786Y-100881000D01*
X171445100Y-100873000D01*
X171635750Y-100873000D01*
X171731000Y-100777750D01*
X171731000Y-100624215D01*
X171720970Y-100600000D01*
X171731000Y-100575785D01*
X171731000Y-100422250D01*
X171635750Y-100327000D01*
X171445100Y-100327000D01*
X171425786Y-100319000D01*
X170822250Y-100319000D01*
X170814250Y-100327000D01*
X170727000Y-100327000D01*
X170473000Y-100327000D01*
X170385750Y-100327000D01*
X170377750Y-100319000D01*
X169774214Y-100319000D01*
X169754900Y-100327000D01*
X169564250Y-100327000D01*
X169469000Y-100422250D01*
X168406000Y-100422250D01*
X168406000Y-100157123D01*
X168476987Y-100086259D01*
X168580882Y-99836054D01*
X168581118Y-99565135D01*
X168477661Y-99314748D01*
X168286259Y-99123013D01*
X168245287Y-99106000D01*
X169461536Y-99106000D01*
X169461536Y-99700000D01*
X169479939Y-99797805D01*
X169469000Y-99824215D01*
X169469000Y-99977750D01*
X169564250Y-100073000D01*
X169773635Y-100073000D01*
X169850000Y-100088464D01*
X171350000Y-100088464D01*
X171432183Y-100073000D01*
X171635750Y-100073000D01*
X171731000Y-99977750D01*
X171731000Y-99906000D01*
X172342877Y-99906000D01*
X172413741Y-99976987D01*
X172663946Y-100080882D01*
X172934865Y-100081118D01*
X173185252Y-99977661D01*
X173376987Y-99786259D01*
X173394000Y-99745287D01*
X173394000Y-100190408D01*
X172290408Y-101294000D01*
X171731000Y-101294000D01*
X171731000Y-101222250D01*
X171635750Y-101127000D01*
X171426365Y-101127000D01*
X171350000Y-101111536D01*
X169850000Y-101111536D01*
X169767817Y-101127000D01*
X169564250Y-101127000D01*
X169527212Y-101164038D01*
X169486259Y-101123013D01*
X169236054Y-101019118D01*
X168965135Y-101018882D01*
X168714748Y-101122339D01*
X168523013Y-101313741D01*
X168419118Y-101563946D01*
X168418882Y-101834865D01*
X168522339Y-102085252D01*
X168536174Y-102099111D01*
X168541410Y-102106947D01*
X168545506Y-102122422D01*
X168595972Y-102188605D01*
X168642204Y-102257796D01*
X168655512Y-102266688D01*
X168665219Y-102279418D01*
X168737165Y-102321247D01*
X168806362Y-102367483D01*
X168822063Y-102370606D01*
X168835900Y-102378651D01*
X168918376Y-102389764D01*
X169000000Y-102406000D01*
X169015698Y-102402877D01*
X169031563Y-102405015D01*
X169469000Y-102377675D01*
X169469000Y-102377750D01*
X169564250Y-102473000D01*
X169773635Y-102473000D01*
X169850000Y-102488464D01*
X171350000Y-102488464D01*
X171432183Y-102473000D01*
X171635750Y-102473000D01*
X171731000Y-102377750D01*
X171731000Y-102306000D01*
X172500000Y-102306000D01*
X172519085Y-102302204D01*
X172519030Y-102365378D01*
X171990408Y-102894000D01*
X171731000Y-102894000D01*
X171731000Y-102822250D01*
X171635750Y-102727000D01*
X171426365Y-102727000D01*
X171350000Y-102711536D01*
X169850000Y-102711536D01*
X169767817Y-102727000D01*
X169564250Y-102727000D01*
X169469000Y-102822250D01*
X169469000Y-102975785D01*
X169480881Y-103004469D01*
X169461536Y-103100000D01*
X169461536Y-103700000D01*
X169479939Y-103797805D01*
X169469000Y-103824215D01*
X169469000Y-103977750D01*
X169564250Y-104073000D01*
X169773635Y-104073000D01*
X169850000Y-104088464D01*
X171350000Y-104088464D01*
X171432183Y-104073000D01*
X171635750Y-104073000D01*
X171731000Y-103977750D01*
X171731000Y-103906000D01*
X172200000Y-103906000D01*
X172393638Y-103867483D01*
X172557796Y-103757796D01*
X173234561Y-103081031D01*
X173334865Y-103081118D01*
X173585252Y-102977661D01*
X173776987Y-102786259D01*
X173880882Y-102536054D01*
X173881118Y-102265135D01*
X173777661Y-102014748D01*
X173586259Y-101823013D01*
X173336054Y-101719118D01*
X173296508Y-101719084D01*
X174257796Y-100757796D01*
X174367483Y-100593638D01*
X174406000Y-100400000D01*
X174406000Y-95600000D01*
X174367483Y-95406362D01*
X174257796Y-95242204D01*
X173006000Y-93990408D01*
X173006000Y-92238464D01*
X173600000Y-92238464D01*
X173703670Y-92218957D01*
X173800000Y-92238464D01*
X174400000Y-92238464D01*
X174503670Y-92218957D01*
X174600000Y-92238464D01*
X175200000Y-92238464D01*
X175303670Y-92218957D01*
X175400000Y-92238464D01*
X176000000Y-92238464D01*
X176103670Y-92218957D01*
X176200000Y-92238464D01*
X176800000Y-92238464D01*
X176903670Y-92218957D01*
X177000000Y-92238464D01*
X177600000Y-92238464D01*
X177703670Y-92218957D01*
X177800000Y-92238464D01*
X178400000Y-92238464D01*
X178503670Y-92218957D01*
X178600000Y-92238464D01*
X179200000Y-92238464D01*
X179303670Y-92218957D01*
X179400000Y-92238464D01*
X180000000Y-92238464D01*
X180103670Y-92218957D01*
X180200000Y-92238464D01*
X180800000Y-92238464D01*
X180903670Y-92218957D01*
X181000000Y-92238464D01*
X181600000Y-92238464D01*
X181703670Y-92218957D01*
X181800000Y-92238464D01*
X182400000Y-92238464D01*
X182497805Y-92220061D01*
X182524215Y-92231000D01*
X182677750Y-92231000D01*
X182773000Y-92135750D01*
X182773000Y-91926365D01*
X182788464Y-91850000D01*
X182788464Y-90953000D01*
X183011536Y-90953000D01*
X183011536Y-91850000D01*
X183027000Y-91932183D01*
X183027000Y-92135750D01*
X183122250Y-92231000D01*
X183169000Y-92231000D01*
X183169000Y-96400000D01*
X183209420Y-96603205D01*
X183324526Y-96775474D01*
X184724526Y-98175474D01*
X184896795Y-98290580D01*
X185100000Y-98331000D01*
X185261536Y-98331000D01*
X185261536Y-98900000D01*
X185281043Y-99003670D01*
X185261536Y-99100000D01*
X185261536Y-99700000D01*
X185281043Y-99803670D01*
X185261536Y-99900000D01*
X185261536Y-100500000D01*
X185281043Y-100603670D01*
X185261536Y-100700000D01*
X185261536Y-101294000D01*
X183610407Y-101294000D01*
X183577661Y-101214748D01*
X183386259Y-101023013D01*
X183136054Y-100919118D01*
X182996595Y-100918997D01*
X184434561Y-99481031D01*
X184534865Y-99481118D01*
X184785252Y-99377661D01*
X184976987Y-99186259D01*
X185080882Y-98936054D01*
X185081118Y-98665135D01*
X184977661Y-98414748D01*
X184786259Y-98223013D01*
X184536054Y-98119118D01*
X184265135Y-98118882D01*
X184014748Y-98222339D01*
X183899968Y-98336920D01*
X183786259Y-98223013D01*
X183536054Y-98119118D01*
X183265135Y-98118882D01*
X183106459Y-98184445D01*
X183077661Y-98114748D01*
X182886259Y-97923013D01*
X182636054Y-97819118D01*
X182365135Y-97818882D01*
X182114748Y-97922339D01*
X181923013Y-98113741D01*
X181819118Y-98363946D01*
X181819030Y-98465378D01*
X177973664Y-102310744D01*
X177786259Y-102123013D01*
X177536054Y-102019118D01*
X177434622Y-102019030D01*
X177257796Y-101842204D01*
X177093638Y-101732517D01*
X176900000Y-101694000D01*
X176400000Y-101694000D01*
X176206362Y-101732517D01*
X176042204Y-101842204D01*
X172780910Y-105103498D01*
X172781118Y-104865135D01*
X172677661Y-104614748D01*
X172486259Y-104423013D01*
X172236054Y-104319118D01*
X171965135Y-104318882D01*
X171726311Y-104417561D01*
X171635750Y-104327000D01*
X171426365Y-104327000D01*
X171350000Y-104311536D01*
X169850000Y-104311536D01*
X169767817Y-104327000D01*
X169564250Y-104327000D01*
X169469000Y-104422250D01*
X169469000Y-104575785D01*
X169480881Y-104604469D01*
X169461536Y-104700000D01*
X169461536Y-105300000D01*
X169488103Y-105441190D01*
X169571546Y-105570865D01*
X169698866Y-105657859D01*
X169850000Y-105688464D01*
X170096732Y-105688464D01*
X170014748Y-105722339D01*
X169823013Y-105913741D01*
X169719118Y-106163946D01*
X169719030Y-106265378D01*
X168442204Y-107542204D01*
X168332517Y-107706362D01*
X168294000Y-107900000D01*
X168294000Y-110800000D01*
X168332517Y-110993638D01*
X168442204Y-111157796D01*
X169542204Y-112257796D01*
X169706362Y-112367483D01*
X169900000Y-112406000D01*
X176090408Y-112406000D01*
X177094000Y-113409592D01*
X177094000Y-114310196D01*
X176799900Y-114310196D01*
X176658710Y-114336763D01*
X176529035Y-114420206D01*
X176442041Y-114547526D01*
X176411436Y-114698660D01*
X176411436Y-115044000D01*
X174913464Y-115044000D01*
X174913464Y-114800000D01*
X174886897Y-114658810D01*
X174803454Y-114529135D01*
X174676134Y-114442141D01*
X174525000Y-114411536D01*
X173275000Y-114411536D01*
X173133810Y-114438103D01*
X173004135Y-114521546D01*
X172917141Y-114648866D01*
X172886536Y-114800000D01*
X172886536Y-116285588D01*
X172613464Y-116012516D01*
X172613464Y-114800000D01*
X172586897Y-114658810D01*
X172503454Y-114529135D01*
X172376134Y-114442141D01*
X172225000Y-114411536D01*
X172113403Y-114411536D01*
X172090580Y-114296795D01*
X171975474Y-114124526D01*
X170775474Y-112924526D01*
X170603205Y-112809420D01*
X170400000Y-112769000D01*
X167600000Y-112769000D01*
X167396795Y-112809420D01*
X167224526Y-112924526D01*
X167224524Y-112924529D01*
X166314526Y-113834526D01*
X166199420Y-114006795D01*
X166165641Y-114176614D01*
X166040810Y-114200103D01*
X165911135Y-114283546D01*
X165824141Y-114410866D01*
X165793536Y-114562000D01*
X165793536Y-116594000D01*
X165820103Y-116735190D01*
X165903546Y-116864865D01*
X166030866Y-116951859D01*
X166182000Y-116982464D01*
X167198000Y-116982464D01*
X167339190Y-116955897D01*
X167468865Y-116872454D01*
X167555859Y-116745134D01*
X167586464Y-116594000D01*
X167586464Y-114562000D01*
X167559897Y-114420810D01*
X167476454Y-114291135D01*
X167407160Y-114243788D01*
X167819947Y-113831000D01*
X170180052Y-113831000D01*
X170805422Y-114456370D01*
X170704135Y-114521546D01*
X170617141Y-114648866D01*
X170586536Y-114800000D01*
X170586536Y-116300000D01*
X170613103Y-116441190D01*
X170696546Y-116570865D01*
X170823866Y-116657859D01*
X170975000Y-116688464D01*
X171787516Y-116688464D01*
X172010588Y-116911536D01*
X170975000Y-116911536D01*
X170833810Y-116938103D01*
X170704135Y-117021546D01*
X170617141Y-117148866D01*
X170586536Y-117300000D01*
X170586536Y-117544000D01*
X170059592Y-117544000D01*
X169495830Y-116980238D01*
X169625190Y-116955897D01*
X169754865Y-116872454D01*
X169841859Y-116745134D01*
X169872464Y-116594000D01*
X169872464Y-114562000D01*
X169845897Y-114420810D01*
X169762454Y-114291135D01*
X169635134Y-114204141D01*
X169484000Y-114173536D01*
X168468000Y-114173536D01*
X168326810Y-114200103D01*
X168197135Y-114283546D01*
X168110141Y-114410866D01*
X168079536Y-114562000D01*
X168079536Y-116594000D01*
X168106103Y-116735190D01*
X168189546Y-116864865D01*
X168316866Y-116951859D01*
X168468000Y-116982464D01*
X168470000Y-116982464D01*
X168470000Y-117176000D01*
X168508517Y-117369638D01*
X168618204Y-117533796D01*
X168628408Y-117544000D01*
X162877464Y-117544000D01*
X162877464Y-117348000D01*
X162850897Y-117206810D01*
X162767454Y-117077135D01*
X162640134Y-116990141D01*
X162489000Y-116959536D01*
X161239000Y-116959536D01*
X161097810Y-116986103D01*
X160968135Y-117069546D01*
X160881141Y-117196866D01*
X160850536Y-117348000D01*
X160456000Y-117348000D01*
X160456000Y-114848000D01*
X160850536Y-114848000D01*
X160850536Y-116348000D01*
X160877103Y-116489190D01*
X160960546Y-116618865D01*
X161087866Y-116705859D01*
X161239000Y-116736464D01*
X162489000Y-116736464D01*
X162630190Y-116709897D01*
X162759865Y-116626454D01*
X162846859Y-116499134D01*
X162877464Y-116348000D01*
X162877464Y-116179000D01*
X163507536Y-116179000D01*
X163507536Y-116594000D01*
X163534103Y-116735190D01*
X163617546Y-116864865D01*
X163744866Y-116951859D01*
X163896000Y-116982464D01*
X164912000Y-116982464D01*
X165053190Y-116955897D01*
X165182865Y-116872454D01*
X165269859Y-116745134D01*
X165300464Y-116594000D01*
X165300464Y-114562000D01*
X165273897Y-114420810D01*
X165190454Y-114291135D01*
X165063134Y-114204141D01*
X164935000Y-114178194D01*
X164935000Y-112815948D01*
X165075474Y-112675474D01*
X165190580Y-112503205D01*
X165231000Y-112300000D01*
X165231000Y-107954956D01*
X165340146Y-107909858D01*
X165658739Y-107591820D01*
X165831373Y-107176071D01*
X165831766Y-106725904D01*
X165659858Y-106309854D01*
X165341820Y-105991261D01*
X164926071Y-105818627D01*
X164475904Y-105818234D01*
X164059854Y-105990142D01*
X163741261Y-106308180D01*
X163568627Y-106723929D01*
X163568234Y-107174096D01*
X163740142Y-107590146D01*
X164058180Y-107908739D01*
X164169000Y-107954755D01*
X164169000Y-108240286D01*
X163975350Y-108104256D01*
X162779605Y-109300000D01*
X163975350Y-110495744D01*
X164169000Y-110359714D01*
X164169000Y-112080052D01*
X164028526Y-112220526D01*
X163913420Y-112392795D01*
X163873000Y-112596000D01*
X163873000Y-114177864D01*
X163754810Y-114200103D01*
X163625135Y-114283546D01*
X163538141Y-114410866D01*
X163507536Y-114562000D01*
X163507536Y-115017000D01*
X162877464Y-115017000D01*
X162877464Y-114848000D01*
X162850897Y-114706810D01*
X162767454Y-114577135D01*
X162640134Y-114490141D01*
X162489000Y-114459536D01*
X161239000Y-114459536D01*
X161097810Y-114486103D01*
X160968135Y-114569546D01*
X160881141Y-114696866D01*
X160850536Y-114848000D01*
X160456000Y-114848000D01*
X160456000Y-110675350D01*
X161404256Y-110675350D01*
X161578014Y-110922709D01*
X162276791Y-111190285D01*
X163024775Y-111170082D01*
X163621986Y-110922709D01*
X163795744Y-110675350D01*
X162600000Y-109479605D01*
X161404256Y-110675350D01*
X160456000Y-110675350D01*
X160456000Y-108976791D01*
X160709715Y-108976791D01*
X160729918Y-109724775D01*
X160977291Y-110321986D01*
X161224650Y-110495744D01*
X162420395Y-109300000D01*
X161224650Y-108104256D01*
X160977291Y-108278014D01*
X160709715Y-108976791D01*
X160456000Y-108976791D01*
X160456000Y-107924650D01*
X161404256Y-107924650D01*
X162600000Y-109120395D01*
X163795744Y-107924650D01*
X163621986Y-107677291D01*
X162923209Y-107409715D01*
X162175225Y-107429918D01*
X161578014Y-107677291D01*
X161404256Y-107924650D01*
X160456000Y-107924650D01*
X160456000Y-105894277D01*
X161618830Y-105894277D01*
X161767864Y-106254966D01*
X162043583Y-106531166D01*
X162404011Y-106680829D01*
X162794277Y-106681170D01*
X163154966Y-106532136D01*
X163431166Y-106256417D01*
X163580829Y-105895989D01*
X163581170Y-105505723D01*
X163432136Y-105145034D01*
X163156417Y-104868834D01*
X162795989Y-104719171D01*
X162405723Y-104718830D01*
X162045034Y-104867864D01*
X161768834Y-105143583D01*
X161619171Y-105504011D01*
X161618830Y-105894277D01*
X160456000Y-105894277D01*
X160456000Y-101394277D01*
X161618830Y-101394277D01*
X161767864Y-101754966D01*
X162043583Y-102031166D01*
X162404011Y-102180829D01*
X162794277Y-102181170D01*
X163154966Y-102032136D01*
X163431166Y-101756417D01*
X163580829Y-101395989D01*
X163581170Y-101005723D01*
X163489086Y-100782861D01*
X164046744Y-100782861D01*
X164128715Y-100952371D01*
X164555793Y-101094691D01*
X165004824Y-101062743D01*
X165271285Y-100952371D01*
X165353256Y-100782861D01*
X164700000Y-100129605D01*
X164046744Y-100782861D01*
X163489086Y-100782861D01*
X163432136Y-100645034D01*
X163156417Y-100368834D01*
X162795989Y-100219171D01*
X162405723Y-100218830D01*
X162045034Y-100367864D01*
X161768834Y-100643583D01*
X161619171Y-101004011D01*
X161618830Y-101394277D01*
X160456000Y-101394277D01*
X160456000Y-99805793D01*
X163555309Y-99805793D01*
X163587257Y-100254824D01*
X163697629Y-100521285D01*
X163867139Y-100603256D01*
X164520395Y-99950000D01*
X164879605Y-99950000D01*
X165532861Y-100603256D01*
X165702371Y-100521285D01*
X165844691Y-100094207D01*
X165812743Y-99645176D01*
X165702371Y-99378715D01*
X165532861Y-99296744D01*
X164879605Y-99950000D01*
X164520395Y-99950000D01*
X163867139Y-99296744D01*
X163697629Y-99378715D01*
X163555309Y-99805793D01*
X160456000Y-99805793D01*
X160456000Y-98975350D01*
X161404256Y-98975350D01*
X161578014Y-99222709D01*
X162276791Y-99490285D01*
X163024775Y-99470082D01*
X163621986Y-99222709D01*
X163696143Y-99117139D01*
X164046744Y-99117139D01*
X164700000Y-99770395D01*
X165353256Y-99117139D01*
X165271285Y-98947629D01*
X164844207Y-98805309D01*
X164395176Y-98837257D01*
X164128715Y-98947629D01*
X164046744Y-99117139D01*
X163696143Y-99117139D01*
X163795744Y-98975350D01*
X162600000Y-97779605D01*
X161404256Y-98975350D01*
X160456000Y-98975350D01*
X160456000Y-97276791D01*
X160709715Y-97276791D01*
X160729918Y-98024775D01*
X160977291Y-98621986D01*
X161224650Y-98795744D01*
X162420395Y-97600000D01*
X162779605Y-97600000D01*
X163975350Y-98795744D01*
X164222709Y-98621986D01*
X164490285Y-97923209D01*
X164470082Y-97175225D01*
X164222709Y-96578014D01*
X163975350Y-96404256D01*
X162779605Y-97600000D01*
X162420395Y-97600000D01*
X161224650Y-96404256D01*
X160977291Y-96578014D01*
X160709715Y-97276791D01*
X160456000Y-97276791D01*
X160456000Y-96224650D01*
X161404256Y-96224650D01*
X162600000Y-97420395D01*
X163795744Y-96224650D01*
X163621986Y-95977291D01*
X162923209Y-95709715D01*
X162175225Y-95729918D01*
X161578014Y-95977291D01*
X161404256Y-96224650D01*
X160456000Y-96224650D01*
X160456000Y-93022250D01*
X160619000Y-93022250D01*
X160619000Y-93500785D01*
X160677004Y-93640819D01*
X160784180Y-93747996D01*
X160924214Y-93806000D01*
X161527750Y-93806000D01*
X161623000Y-93710750D01*
X161623000Y-92927000D01*
X161877000Y-92927000D01*
X161877000Y-93710750D01*
X161972250Y-93806000D01*
X162575786Y-93806000D01*
X162715820Y-93747996D01*
X162822996Y-93640819D01*
X162881000Y-93500785D01*
X162881000Y-93022250D01*
X162785750Y-92927000D01*
X161877000Y-92927000D01*
X161623000Y-92927000D01*
X160714250Y-92927000D01*
X160619000Y-93022250D01*
X160456000Y-93022250D01*
X160456000Y-92099215D01*
X160619000Y-92099215D01*
X160619000Y-92577750D01*
X160714250Y-92673000D01*
X161623000Y-92673000D01*
X161623000Y-91889250D01*
X161877000Y-91889250D01*
X161877000Y-92673000D01*
X162785750Y-92673000D01*
X162881000Y-92577750D01*
X162881000Y-92099215D01*
X162822996Y-91959181D01*
X162715820Y-91852004D01*
X162575786Y-91794000D01*
X161972250Y-91794000D01*
X161877000Y-91889250D01*
X161623000Y-91889250D01*
X161527750Y-91794000D01*
X160924214Y-91794000D01*
X160784180Y-91852004D01*
X160677004Y-91959181D01*
X160619000Y-92099215D01*
X160456000Y-92099215D01*
X160456000Y-80044911D01*
X160576435Y-79439445D01*
X160577004Y-79440819D01*
X160684180Y-79547996D01*
X160824214Y-79606000D01*
X161427750Y-79606000D01*
X161523000Y-79510750D01*
X161523000Y-78727000D01*
X161777000Y-78727000D01*
X161777000Y-79510750D01*
X161872250Y-79606000D01*
X162475786Y-79606000D01*
X162615820Y-79547996D01*
X162722996Y-79440819D01*
X162781000Y-79300785D01*
X162781000Y-78822250D01*
X162685750Y-78727000D01*
X161777000Y-78727000D01*
X161523000Y-78727000D01*
X161503000Y-78727000D01*
X161503000Y-78473000D01*
X161523000Y-78473000D01*
X161523000Y-77689250D01*
X161777000Y-77689250D01*
X161777000Y-78473000D01*
X162685750Y-78473000D01*
X162781000Y-78377750D01*
X162781000Y-77899215D01*
X162722996Y-77759181D01*
X162615820Y-77652004D01*
X162475786Y-77594000D01*
X161872250Y-77594000D01*
X161777000Y-77689250D01*
X161523000Y-77689250D01*
X161427750Y-77594000D01*
X161258162Y-77594000D01*
X161793224Y-76793224D01*
X163264505Y-75810145D01*
X165044911Y-75456000D01*
X204955089Y-75456000D01*
X206735495Y-75810145D01*
G36*
X171713741Y-105576987D02*
X171963946Y-105680882D01*
X172203317Y-105681091D01*
X172142204Y-105742204D01*
X172119118Y-105776755D01*
X172058810Y-105788103D01*
X171929135Y-105871546D01*
X171842141Y-105998866D01*
X171811536Y-106150000D01*
X171811536Y-107650000D01*
X171838103Y-107791190D01*
X171921546Y-107920865D01*
X172048866Y-108007859D01*
X172200000Y-108038464D01*
X172794000Y-108038464D01*
X172794000Y-108101544D01*
X172775786Y-108094000D01*
X172172250Y-108094000D01*
X172077000Y-108189250D01*
X172077000Y-108973000D01*
X172097000Y-108973000D01*
X172097000Y-109227000D01*
X172077000Y-109227000D01*
X172077000Y-110010750D01*
X172172250Y-110106000D01*
X172775786Y-110106000D01*
X172812093Y-110090961D01*
X172832517Y-110193638D01*
X172942204Y-110357796D01*
X172978408Y-110394000D01*
X170557123Y-110394000D01*
X170486259Y-110323013D01*
X170236054Y-110219118D01*
X169965135Y-110218882D01*
X169714748Y-110322339D01*
X169523013Y-110513741D01*
X169436846Y-110721254D01*
X169306000Y-110590408D01*
X169306000Y-109322250D01*
X170819000Y-109322250D01*
X170819000Y-109800785D01*
X170877004Y-109940819D01*
X170984180Y-110047996D01*
X171124214Y-110106000D01*
X171727750Y-110106000D01*
X171823000Y-110010750D01*
X171823000Y-109227000D01*
X170914250Y-109227000D01*
X170819000Y-109322250D01*
X169306000Y-109322250D01*
X169306000Y-108399215D01*
X170819000Y-108399215D01*
X170819000Y-108877750D01*
X170914250Y-108973000D01*
X171823000Y-108973000D01*
X171823000Y-108189250D01*
X171727750Y-108094000D01*
X171124214Y-108094000D01*
X170984180Y-108152004D01*
X170877004Y-108259181D01*
X170819000Y-108399215D01*
X169306000Y-108399215D01*
X169306000Y-108109592D01*
X170434561Y-106981031D01*
X170534865Y-106981118D01*
X170785252Y-106877661D01*
X170976987Y-106686259D01*
X171080882Y-106436054D01*
X171081118Y-106165135D01*
X170977661Y-105914748D01*
X170786259Y-105723013D01*
X170703056Y-105688464D01*
X171350000Y-105688464D01*
X171491190Y-105661897D01*
X171620865Y-105578454D01*
X171659199Y-105522350D01*
X171713741Y-105576987D01*
X171713741Y-105576987D01*
G37*
X171713741Y-105576987D02*
X171963946Y-105680882D01*
X172203317Y-105681091D01*
X172142204Y-105742204D01*
X172119118Y-105776755D01*
X172058810Y-105788103D01*
X171929135Y-105871546D01*
X171842141Y-105998866D01*
X171811536Y-106150000D01*
X171811536Y-107650000D01*
X171838103Y-107791190D01*
X171921546Y-107920865D01*
X172048866Y-108007859D01*
X172200000Y-108038464D01*
X172794000Y-108038464D01*
X172794000Y-108101544D01*
X172775786Y-108094000D01*
X172172250Y-108094000D01*
X172077000Y-108189250D01*
X172077000Y-108973000D01*
X172097000Y-108973000D01*
X172097000Y-109227000D01*
X172077000Y-109227000D01*
X172077000Y-110010750D01*
X172172250Y-110106000D01*
X172775786Y-110106000D01*
X172812093Y-110090961D01*
X172832517Y-110193638D01*
X172942204Y-110357796D01*
X172978408Y-110394000D01*
X170557123Y-110394000D01*
X170486259Y-110323013D01*
X170236054Y-110219118D01*
X169965135Y-110218882D01*
X169714748Y-110322339D01*
X169523013Y-110513741D01*
X169436846Y-110721254D01*
X169306000Y-110590408D01*
X169306000Y-109322250D01*
X170819000Y-109322250D01*
X170819000Y-109800785D01*
X170877004Y-109940819D01*
X170984180Y-110047996D01*
X171124214Y-110106000D01*
X171727750Y-110106000D01*
X171823000Y-110010750D01*
X171823000Y-109227000D01*
X170914250Y-109227000D01*
X170819000Y-109322250D01*
X169306000Y-109322250D01*
X169306000Y-108399215D01*
X170819000Y-108399215D01*
X170819000Y-108877750D01*
X170914250Y-108973000D01*
X171823000Y-108973000D01*
X171823000Y-108189250D01*
X171727750Y-108094000D01*
X171124214Y-108094000D01*
X170984180Y-108152004D01*
X170877004Y-108259181D01*
X170819000Y-108399215D01*
X169306000Y-108399215D01*
X169306000Y-108109592D01*
X170434561Y-106981031D01*
X170534865Y-106981118D01*
X170785252Y-106877661D01*
X170976987Y-106686259D01*
X171080882Y-106436054D01*
X171081118Y-106165135D01*
X170977661Y-105914748D01*
X170786259Y-105723013D01*
X170703056Y-105688464D01*
X171350000Y-105688464D01*
X171491190Y-105661897D01*
X171620865Y-105578454D01*
X171659199Y-105522350D01*
X171713741Y-105576987D01*
G36*
X188194000Y-100509592D02*
X188194000Y-103000000D01*
X188219064Y-103126005D01*
X188218882Y-103334865D01*
X188322339Y-103585252D01*
X188430898Y-103694000D01*
X187531000Y-103694000D01*
X187531000Y-103622250D01*
X187435750Y-103527000D01*
X187226365Y-103527000D01*
X187150000Y-103511536D01*
X185650000Y-103511536D01*
X185567817Y-103527000D01*
X185364250Y-103527000D01*
X185269000Y-103622250D01*
X185269000Y-103775785D01*
X185280881Y-103804469D01*
X185261536Y-103900000D01*
X185261536Y-104500000D01*
X185281043Y-104603670D01*
X185261536Y-104700000D01*
X185261536Y-105300000D01*
X185288103Y-105441190D01*
X185371546Y-105570865D01*
X185498866Y-105657859D01*
X185650000Y-105688464D01*
X187150000Y-105688464D01*
X187291190Y-105661897D01*
X187420865Y-105578454D01*
X187470371Y-105506000D01*
X188554292Y-105506000D01*
X188514748Y-105522339D01*
X188323013Y-105713741D01*
X188219118Y-105963946D01*
X188218882Y-106234865D01*
X188284635Y-106394000D01*
X185188464Y-106394000D01*
X185188464Y-106150000D01*
X185161897Y-106008810D01*
X185078454Y-105879135D01*
X184951134Y-105792141D01*
X184800000Y-105761536D01*
X184200000Y-105761536D01*
X184096330Y-105781043D01*
X184000000Y-105761536D01*
X183400000Y-105761536D01*
X183296330Y-105781043D01*
X183200000Y-105761536D01*
X182600000Y-105761536D01*
X182496330Y-105781043D01*
X182400000Y-105761536D01*
X181800000Y-105761536D01*
X181696330Y-105781043D01*
X181600000Y-105761536D01*
X181000000Y-105761536D01*
X180896330Y-105781043D01*
X180800000Y-105761536D01*
X180200000Y-105761536D01*
X180096330Y-105781043D01*
X180000000Y-105761536D01*
X179400000Y-105761536D01*
X179302195Y-105779939D01*
X179275785Y-105769000D01*
X179122250Y-105769000D01*
X179027000Y-105864250D01*
X179027000Y-106073635D01*
X179011536Y-106150000D01*
X179011536Y-107650000D01*
X179027000Y-107732183D01*
X179027000Y-107935750D01*
X179122250Y-108031000D01*
X179275785Y-108031000D01*
X179304469Y-108019119D01*
X179400000Y-108038464D01*
X180000000Y-108038464D01*
X180103670Y-108018957D01*
X180200000Y-108038464D01*
X180800000Y-108038464D01*
X180903670Y-108018957D01*
X181000000Y-108038464D01*
X181600000Y-108038464D01*
X181703670Y-108018957D01*
X181800000Y-108038464D01*
X182400000Y-108038464D01*
X182503670Y-108018957D01*
X182600000Y-108038464D01*
X182710589Y-108038464D01*
X182662516Y-108086536D01*
X181500000Y-108086536D01*
X181358810Y-108113103D01*
X181229135Y-108196546D01*
X181142141Y-108323866D01*
X181111536Y-108475000D01*
X181111536Y-108569000D01*
X176467202Y-108569000D01*
X176480882Y-108536054D01*
X176481118Y-108265135D01*
X176387460Y-108038464D01*
X176800000Y-108038464D01*
X176903670Y-108018957D01*
X177000000Y-108038464D01*
X177600000Y-108038464D01*
X177703670Y-108018957D01*
X177800000Y-108038464D01*
X178400000Y-108038464D01*
X178497805Y-108020061D01*
X178524215Y-108031000D01*
X178677750Y-108031000D01*
X178773000Y-107935750D01*
X178773000Y-107726365D01*
X178788464Y-107650000D01*
X178788464Y-106150000D01*
X178773000Y-106067817D01*
X178773000Y-105864250D01*
X178677750Y-105769000D01*
X178606000Y-105769000D01*
X178606000Y-105409592D01*
X178918915Y-105096677D01*
X178918882Y-105134865D01*
X179022339Y-105385252D01*
X179213741Y-105576987D01*
X179463946Y-105680882D01*
X179734865Y-105681118D01*
X179985252Y-105577661D01*
X180176987Y-105386259D01*
X180280882Y-105136054D01*
X180281118Y-104865135D01*
X180177661Y-104614748D01*
X180106000Y-104542962D01*
X180106000Y-103809592D01*
X182319002Y-101596590D01*
X182318882Y-101734865D01*
X182422339Y-101985252D01*
X182613741Y-102176987D01*
X182863946Y-102280882D01*
X183074646Y-102281066D01*
X183200000Y-102306000D01*
X185261536Y-102306000D01*
X185261536Y-102900000D01*
X185279939Y-102997805D01*
X185269000Y-103024215D01*
X185269000Y-103177750D01*
X185364250Y-103273000D01*
X185573635Y-103273000D01*
X185650000Y-103288464D01*
X187150000Y-103288464D01*
X187232183Y-103273000D01*
X187435750Y-103273000D01*
X187531000Y-103177750D01*
X187531000Y-103024215D01*
X187519119Y-102995531D01*
X187538464Y-102900000D01*
X187538464Y-102300000D01*
X187518957Y-102196330D01*
X187538464Y-102100000D01*
X187538464Y-101500000D01*
X187518957Y-101396330D01*
X187538464Y-101300000D01*
X187538464Y-100700000D01*
X187518957Y-100596330D01*
X187538464Y-100500000D01*
X187538464Y-99906000D01*
X187590408Y-99906000D01*
X188194000Y-100509592D01*
X188194000Y-100509592D01*
G37*
X188194000Y-100509592D02*
X188194000Y-103000000D01*
X188219064Y-103126005D01*
X188218882Y-103334865D01*
X188322339Y-103585252D01*
X188430898Y-103694000D01*
X187531000Y-103694000D01*
X187531000Y-103622250D01*
X187435750Y-103527000D01*
X187226365Y-103527000D01*
X187150000Y-103511536D01*
X185650000Y-103511536D01*
X185567817Y-103527000D01*
X185364250Y-103527000D01*
X185269000Y-103622250D01*
X185269000Y-103775785D01*
X185280881Y-103804469D01*
X185261536Y-103900000D01*
X185261536Y-104500000D01*
X185281043Y-104603670D01*
X185261536Y-104700000D01*
X185261536Y-105300000D01*
X185288103Y-105441190D01*
X185371546Y-105570865D01*
X185498866Y-105657859D01*
X185650000Y-105688464D01*
X187150000Y-105688464D01*
X187291190Y-105661897D01*
X187420865Y-105578454D01*
X187470371Y-105506000D01*
X188554292Y-105506000D01*
X188514748Y-105522339D01*
X188323013Y-105713741D01*
X188219118Y-105963946D01*
X188218882Y-106234865D01*
X188284635Y-106394000D01*
X185188464Y-106394000D01*
X185188464Y-106150000D01*
X185161897Y-106008810D01*
X185078454Y-105879135D01*
X184951134Y-105792141D01*
X184800000Y-105761536D01*
X184200000Y-105761536D01*
X184096330Y-105781043D01*
X184000000Y-105761536D01*
X183400000Y-105761536D01*
X183296330Y-105781043D01*
X183200000Y-105761536D01*
X182600000Y-105761536D01*
X182496330Y-105781043D01*
X182400000Y-105761536D01*
X181800000Y-105761536D01*
X181696330Y-105781043D01*
X181600000Y-105761536D01*
X181000000Y-105761536D01*
X180896330Y-105781043D01*
X180800000Y-105761536D01*
X180200000Y-105761536D01*
X180096330Y-105781043D01*
X180000000Y-105761536D01*
X179400000Y-105761536D01*
X179302195Y-105779939D01*
X179275785Y-105769000D01*
X179122250Y-105769000D01*
X179027000Y-105864250D01*
X179027000Y-106073635D01*
X179011536Y-106150000D01*
X179011536Y-107650000D01*
X179027000Y-107732183D01*
X179027000Y-107935750D01*
X179122250Y-108031000D01*
X179275785Y-108031000D01*
X179304469Y-108019119D01*
X179400000Y-108038464D01*
X180000000Y-108038464D01*
X180103670Y-108018957D01*
X180200000Y-108038464D01*
X180800000Y-108038464D01*
X180903670Y-108018957D01*
X181000000Y-108038464D01*
X181600000Y-108038464D01*
X181703670Y-108018957D01*
X181800000Y-108038464D01*
X182400000Y-108038464D01*
X182503670Y-108018957D01*
X182600000Y-108038464D01*
X182710589Y-108038464D01*
X182662516Y-108086536D01*
X181500000Y-108086536D01*
X181358810Y-108113103D01*
X181229135Y-108196546D01*
X181142141Y-108323866D01*
X181111536Y-108475000D01*
X181111536Y-108569000D01*
X176467202Y-108569000D01*
X176480882Y-108536054D01*
X176481118Y-108265135D01*
X176387460Y-108038464D01*
X176800000Y-108038464D01*
X176903670Y-108018957D01*
X177000000Y-108038464D01*
X177600000Y-108038464D01*
X177703670Y-108018957D01*
X177800000Y-108038464D01*
X178400000Y-108038464D01*
X178497805Y-108020061D01*
X178524215Y-108031000D01*
X178677750Y-108031000D01*
X178773000Y-107935750D01*
X178773000Y-107726365D01*
X178788464Y-107650000D01*
X178788464Y-106150000D01*
X178773000Y-106067817D01*
X178773000Y-105864250D01*
X178677750Y-105769000D01*
X178606000Y-105769000D01*
X178606000Y-105409592D01*
X178918915Y-105096677D01*
X178918882Y-105134865D01*
X179022339Y-105385252D01*
X179213741Y-105576987D01*
X179463946Y-105680882D01*
X179734865Y-105681118D01*
X179985252Y-105577661D01*
X180176987Y-105386259D01*
X180280882Y-105136054D01*
X180281118Y-104865135D01*
X180177661Y-104614748D01*
X180106000Y-104542962D01*
X180106000Y-103809592D01*
X182319002Y-101596590D01*
X182318882Y-101734865D01*
X182422339Y-101985252D01*
X182613741Y-102176987D01*
X182863946Y-102280882D01*
X183074646Y-102281066D01*
X183200000Y-102306000D01*
X185261536Y-102306000D01*
X185261536Y-102900000D01*
X185279939Y-102997805D01*
X185269000Y-103024215D01*
X185269000Y-103177750D01*
X185364250Y-103273000D01*
X185573635Y-103273000D01*
X185650000Y-103288464D01*
X187150000Y-103288464D01*
X187232183Y-103273000D01*
X187435750Y-103273000D01*
X187531000Y-103177750D01*
X187531000Y-103024215D01*
X187519119Y-102995531D01*
X187538464Y-102900000D01*
X187538464Y-102300000D01*
X187518957Y-102196330D01*
X187538464Y-102100000D01*
X187538464Y-101500000D01*
X187518957Y-101396330D01*
X187538464Y-101300000D01*
X187538464Y-100700000D01*
X187518957Y-100596330D01*
X187538464Y-100500000D01*
X187538464Y-99906000D01*
X187590408Y-99906000D01*
X188194000Y-100509592D01*
M02*
